<?xml version="1.0" encoding="utf-8"?>
<svg xmlns="http://www.w3.org/2000/svg" xmlns:xlink="http://www.w3.org/1999/xlink" width="600" height="400" viewBox="0 0 2400 1600">
<defs>
  <clipPath id="clip500">
    <rect x="0" y="0" width="2400" height="1600"/>
  </clipPath>
</defs>
<path clip-path="url(#clip500)" d="
M0 1600 L2400 1600 L2400 0 L0 0  Z
  " fill="#ffffff" fill-rule="evenodd" fill-opacity="1"/>
<defs>
  <clipPath id="clip501">
    <rect x="480" y="0" width="1681" height="1600"/>
  </clipPath>
</defs>
<defs>
  <clipPath id="clip502">
    <rect x="148" y="47" width="2205" height="1440"/>
  </clipPath>
</defs>
<path clip-path="url(#clip500)" d="
M792.955 1451.06 L1728.84 1451.06 L1728.84 47.2441 L792.955 47.2441  Z
  " fill="#ffffff" fill-rule="evenodd" fill-opacity="1"/>
<defs>
  <clipPath id="clip503">
    <rect x="792" y="47" width="937" height="1405"/>
  </clipPath>
</defs>
<polyline clip-path="url(#clip503)" style="stroke:#000000; stroke-width:2; stroke-opacity:0.1; fill:none" points="
  819.443,1451.06 819.443,47.2441 
  "/>
<polyline clip-path="url(#clip503)" style="stroke:#000000; stroke-width:2; stroke-opacity:0.1; fill:none" points="
  1040.17,1451.06 1040.17,47.2441 
  "/>
<polyline clip-path="url(#clip503)" style="stroke:#000000; stroke-width:2; stroke-opacity:0.1; fill:none" points="
  1260.9,1451.06 1260.9,47.2441 
  "/>
<polyline clip-path="url(#clip503)" style="stroke:#000000; stroke-width:2; stroke-opacity:0.1; fill:none" points="
  1481.62,1451.06 1481.62,47.2441 
  "/>
<polyline clip-path="url(#clip503)" style="stroke:#000000; stroke-width:2; stroke-opacity:0.1; fill:none" points="
  1702.35,1451.06 1702.35,47.2441 
  "/>
<polyline clip-path="url(#clip503)" style="stroke:#000000; stroke-width:2; stroke-opacity:0.1; fill:none" points="
  792.955,1411.33 1728.84,1411.33 
  "/>
<polyline clip-path="url(#clip503)" style="stroke:#000000; stroke-width:2; stroke-opacity:0.1; fill:none" points="
  792.955,969.881 1728.84,969.881 
  "/>
<polyline clip-path="url(#clip503)" style="stroke:#000000; stroke-width:2; stroke-opacity:0.1; fill:none" points="
  792.955,528.428 1728.84,528.428 
  "/>
<polyline clip-path="url(#clip503)" style="stroke:#000000; stroke-width:2; stroke-opacity:0.1; fill:none" points="
  792.955,86.9749 1728.84,86.9749 
  "/>
<polyline clip-path="url(#clip500)" style="stroke:#000000; stroke-width:4; stroke-opacity:1; fill:none" points="
  792.955,1451.06 1728.84,1451.06 
  "/>
<polyline clip-path="url(#clip500)" style="stroke:#000000; stroke-width:4; stroke-opacity:1; fill:none" points="
  792.955,1451.06 792.955,47.2441 
  "/>
<polyline clip-path="url(#clip500)" style="stroke:#000000; stroke-width:4; stroke-opacity:1; fill:none" points="
  819.443,1451.06 819.443,1434.22 
  "/>
<polyline clip-path="url(#clip500)" style="stroke:#000000; stroke-width:4; stroke-opacity:1; fill:none" points="
  1040.17,1451.06 1040.17,1434.22 
  "/>
<polyline clip-path="url(#clip500)" style="stroke:#000000; stroke-width:4; stroke-opacity:1; fill:none" points="
  1260.9,1451.06 1260.9,1434.22 
  "/>
<polyline clip-path="url(#clip500)" style="stroke:#000000; stroke-width:4; stroke-opacity:1; fill:none" points="
  1481.62,1451.06 1481.62,1434.22 
  "/>
<polyline clip-path="url(#clip500)" style="stroke:#000000; stroke-width:4; stroke-opacity:1; fill:none" points="
  1702.35,1451.06 1702.35,1434.22 
  "/>
<polyline clip-path="url(#clip500)" style="stroke:#000000; stroke-width:4; stroke-opacity:1; fill:none" points="
  792.955,1411.33 804.186,1411.33 
  "/>
<polyline clip-path="url(#clip500)" style="stroke:#000000; stroke-width:4; stroke-opacity:1; fill:none" points="
  792.955,969.881 804.186,969.881 
  "/>
<polyline clip-path="url(#clip500)" style="stroke:#000000; stroke-width:4; stroke-opacity:1; fill:none" points="
  792.955,528.428 804.186,528.428 
  "/>
<polyline clip-path="url(#clip500)" style="stroke:#000000; stroke-width:4; stroke-opacity:1; fill:none" points="
  792.955,86.9749 804.186,86.9749 
  "/>
<path clip-path="url(#clip500)" d="M 0 0 M781.827 1489.65 L794.304 1489.65 L794.304 1493.45 L781.827 1493.45 L781.827 1489.65 Z" fill="#000000" fill-rule="evenodd" fill-opacity="1" /><path clip-path="url(#clip500)" d="M 0 0 M800.183 1500.6 L807.822 1500.6 L807.822 1474.24 L799.512 1475.9 L799.512 1471.64 L807.776 1469.98 L812.452 1469.98 L812.452 1500.6 L820.091 1500.6 L820.091 1504.54 L800.183 1504.54 L800.183 1500.6 Z" fill="#000000" fill-rule="evenodd" fill-opacity="1" /><path clip-path="url(#clip500)" d="M 0 0 M825.16 1498.66 L830.044 1498.66 L830.044 1504.54 L825.16 1504.54 L825.16 1498.66 Z" fill="#000000" fill-rule="evenodd" fill-opacity="1" /><path clip-path="url(#clip500)" d="M 0 0 M845.114 1473.06 Q841.503 1473.06 839.674 1476.62 Q837.868 1480.16 837.868 1487.29 Q837.868 1494.4 839.674 1497.96 Q841.503 1501.5 845.114 1501.5 Q848.748 1501.5 850.554 1497.96 Q852.382 1494.4 852.382 1487.29 Q852.382 1480.16 850.554 1476.62 Q848.748 1473.06 845.114 1473.06 M845.114 1469.35 Q850.924 1469.35 853.979 1473.96 Q857.058 1478.54 857.058 1487.29 Q857.058 1496.02 853.979 1500.62 Q850.924 1505.21 845.114 1505.21 Q839.304 1505.21 836.225 1500.62 Q833.169 1496.02 833.169 1487.29 Q833.169 1478.54 836.225 1473.96 Q839.304 1469.35 845.114 1469.35 Z" fill="#000000" fill-rule="evenodd" fill-opacity="1" /><path clip-path="url(#clip500)" d="M 0 0 M1002.44 1489.65 L1014.91 1489.65 L1014.91 1493.45 L1002.44 1493.45 L1002.44 1489.65 Z" fill="#000000" fill-rule="evenodd" fill-opacity="1" /><path clip-path="url(#clip500)" d="M 0 0 M1029.98 1473.06 Q1026.37 1473.06 1024.54 1476.62 Q1022.74 1480.16 1022.74 1487.29 Q1022.74 1494.4 1024.54 1497.96 Q1026.37 1501.5 1029.98 1501.5 Q1033.62 1501.5 1035.42 1497.96 Q1037.25 1494.4 1037.25 1487.29 Q1037.25 1480.16 1035.42 1476.62 Q1033.62 1473.06 1029.98 1473.06 M1029.98 1469.35 Q1035.79 1469.35 1038.85 1473.96 Q1041.93 1478.54 1041.93 1487.29 Q1041.93 1496.02 1038.85 1500.62 Q1035.79 1505.21 1029.98 1505.21 Q1024.17 1505.21 1021.1 1500.62 Q1018.04 1496.02 1018.04 1487.29 Q1018.04 1478.54 1021.1 1473.96 Q1024.17 1469.35 1029.98 1469.35 Z" fill="#000000" fill-rule="evenodd" fill-opacity="1" /><path clip-path="url(#clip500)" d="M 0 0 M1047 1498.66 L1051.88 1498.66 L1051.88 1504.54 L1047 1504.54 L1047 1498.66 Z" fill="#000000" fill-rule="evenodd" fill-opacity="1" /><path clip-path="url(#clip500)" d="M 0 0 M1057 1469.98 L1075.35 1469.98 L1075.35 1473.91 L1061.28 1473.91 L1061.28 1482.38 Q1062.3 1482.04 1063.32 1481.87 Q1064.34 1481.69 1065.35 1481.69 Q1071.14 1481.69 1074.52 1484.86 Q1077.9 1488.03 1077.9 1493.45 Q1077.9 1499.03 1074.43 1502.13 Q1070.96 1505.21 1064.64 1505.21 Q1062.46 1505.21 1060.19 1504.84 Q1057.95 1504.47 1055.54 1503.73 L1055.54 1499.03 Q1057.62 1500.16 1059.84 1500.72 Q1062.07 1501.27 1064.54 1501.27 Q1068.55 1501.27 1070.89 1499.17 Q1073.22 1497.06 1073.22 1493.45 Q1073.22 1489.84 1070.89 1487.73 Q1068.55 1485.62 1064.54 1485.62 Q1062.67 1485.62 1060.79 1486.04 Q1058.94 1486.46 1057 1487.34 L1057 1469.98 Z" fill="#000000" fill-rule="evenodd" fill-opacity="1" /><path clip-path="url(#clip500)" d="M 0 0 M1242.41 1473.06 Q1238.8 1473.06 1236.97 1476.62 Q1235.17 1480.16 1235.17 1487.29 Q1235.17 1494.4 1236.97 1497.96 Q1238.8 1501.5 1242.41 1501.5 Q1246.05 1501.5 1247.85 1497.96 Q1249.68 1494.4 1249.68 1487.29 Q1249.68 1480.16 1247.85 1476.62 Q1246.05 1473.06 1242.41 1473.06 M1242.41 1469.35 Q1248.22 1469.35 1251.28 1473.96 Q1254.36 1478.54 1254.36 1487.29 Q1254.36 1496.02 1251.28 1500.62 Q1248.22 1505.21 1242.41 1505.21 Q1236.6 1505.21 1233.52 1500.62 Q1230.47 1496.02 1230.47 1487.29 Q1230.47 1478.54 1233.52 1473.96 Q1236.6 1469.35 1242.41 1469.35 Z" fill="#000000" fill-rule="evenodd" fill-opacity="1" /><path clip-path="url(#clip500)" d="M 0 0 M1259.43 1498.66 L1264.31 1498.66 L1264.31 1504.54 L1259.43 1504.54 L1259.43 1498.66 Z" fill="#000000" fill-rule="evenodd" fill-opacity="1" /><path clip-path="url(#clip500)" d="M 0 0 M1279.38 1473.06 Q1275.77 1473.06 1273.94 1476.62 Q1272.13 1480.16 1272.13 1487.29 Q1272.13 1494.4 1273.94 1497.96 Q1275.77 1501.5 1279.38 1501.5 Q1283.01 1501.5 1284.82 1497.96 Q1286.65 1494.4 1286.65 1487.29 Q1286.65 1480.16 1284.82 1476.62 Q1283.01 1473.06 1279.38 1473.06 M1279.38 1469.35 Q1285.19 1469.35 1288.24 1473.96 Q1291.32 1478.54 1291.32 1487.29 Q1291.32 1496.02 1288.24 1500.62 Q1285.19 1505.21 1279.38 1505.21 Q1273.57 1505.21 1270.49 1500.62 Q1267.43 1496.02 1267.43 1487.29 Q1267.43 1478.54 1270.49 1473.96 Q1273.57 1469.35 1279.38 1469.35 Z" fill="#000000" fill-rule="evenodd" fill-opacity="1" /><path clip-path="url(#clip500)" d="M 0 0 M1463.64 1473.06 Q1460.02 1473.06 1458.2 1476.62 Q1456.39 1480.16 1456.39 1487.29 Q1456.39 1494.4 1458.2 1497.96 Q1460.02 1501.5 1463.64 1501.5 Q1467.27 1501.5 1469.08 1497.96 Q1470.9 1494.4 1470.9 1487.29 Q1470.9 1480.16 1469.08 1476.62 Q1467.27 1473.06 1463.64 1473.06 M1463.64 1469.35 Q1469.45 1469.35 1472.5 1473.96 Q1475.58 1478.54 1475.58 1487.29 Q1475.58 1496.02 1472.5 1500.62 Q1469.45 1505.21 1463.64 1505.21 Q1457.83 1505.21 1454.75 1500.62 Q1451.69 1496.02 1451.69 1487.29 Q1451.69 1478.54 1454.75 1473.96 Q1457.83 1469.35 1463.64 1469.35 Z" fill="#000000" fill-rule="evenodd" fill-opacity="1" /><path clip-path="url(#clip500)" d="M 0 0 M1480.65 1498.66 L1485.53 1498.66 L1485.53 1504.54 L1480.65 1504.54 L1480.65 1498.66 Z" fill="#000000" fill-rule="evenodd" fill-opacity="1" /><path clip-path="url(#clip500)" d="M 0 0 M1490.65 1469.98 L1509.01 1469.98 L1509.01 1473.91 L1494.93 1473.91 L1494.93 1482.38 Q1495.95 1482.04 1496.97 1481.87 Q1497.99 1481.69 1499.01 1481.69 Q1504.79 1481.69 1508.17 1484.86 Q1511.55 1488.03 1511.55 1493.45 Q1511.55 1499.03 1508.08 1502.13 Q1504.61 1505.21 1498.29 1505.21 Q1496.11 1505.21 1493.84 1504.84 Q1491.6 1504.47 1489.19 1503.73 L1489.19 1499.03 Q1491.27 1500.16 1493.5 1500.72 Q1495.72 1501.27 1498.2 1501.27 Q1502.2 1501.27 1504.54 1499.17 Q1506.88 1497.06 1506.88 1493.45 Q1506.88 1489.84 1504.54 1487.73 Q1502.2 1485.62 1498.2 1485.62 Q1496.32 1485.62 1494.45 1486.04 Q1492.59 1486.46 1490.65 1487.34 L1490.65 1469.98 Z" fill="#000000" fill-rule="evenodd" fill-opacity="1" /><path clip-path="url(#clip500)" d="M 0 0 M1674.25 1500.6 L1681.89 1500.6 L1681.89 1474.24 L1673.58 1475.9 L1673.58 1471.64 L1681.84 1469.98 L1686.52 1469.98 L1686.52 1500.6 L1694.15 1500.6 L1694.15 1504.54 L1674.25 1504.54 L1674.25 1500.6 Z" fill="#000000" fill-rule="evenodd" fill-opacity="1" /><path clip-path="url(#clip500)" d="M 0 0 M1699.22 1498.66 L1704.11 1498.66 L1704.11 1504.54 L1699.22 1504.54 L1699.22 1498.66 Z" fill="#000000" fill-rule="evenodd" fill-opacity="1" /><path clip-path="url(#clip500)" d="M 0 0 M1719.18 1473.06 Q1715.57 1473.06 1713.74 1476.62 Q1711.93 1480.16 1711.93 1487.29 Q1711.93 1494.4 1713.74 1497.96 Q1715.57 1501.5 1719.18 1501.5 Q1722.81 1501.5 1724.62 1497.96 Q1726.45 1494.4 1726.45 1487.29 Q1726.45 1480.16 1724.62 1476.62 Q1722.81 1473.06 1719.18 1473.06 M1719.18 1469.35 Q1724.99 1469.35 1728.04 1473.96 Q1731.12 1478.54 1731.12 1487.29 Q1731.12 1496.02 1728.04 1500.62 Q1724.99 1505.21 1719.18 1505.21 Q1713.37 1505.21 1710.29 1500.62 Q1707.23 1496.02 1707.23 1487.29 Q1707.23 1478.54 1710.29 1473.96 Q1713.37 1469.35 1719.18 1469.35 Z" fill="#000000" fill-rule="evenodd" fill-opacity="1" /><path clip-path="url(#clip500)" d="M 0 0 M730.692 1413.73 L743.168 1413.73 L743.168 1417.53 L730.692 1417.53 L730.692 1413.73 Z" fill="#000000" fill-rule="evenodd" fill-opacity="1" /><path clip-path="url(#clip500)" d="M 0 0 M749.048 1424.68 L756.687 1424.68 L756.687 1398.31 L748.377 1399.98 L748.377 1395.72 L756.641 1394.05 L761.317 1394.05 L761.317 1424.68 L768.955 1424.68 L768.955 1428.61 L749.048 1428.61 L749.048 1424.68 Z" fill="#000000" fill-rule="evenodd" fill-opacity="1" /><path clip-path="url(#clip500)" d="M 0 0 M757.011 955.679 Q753.4 955.679 751.571 959.244 Q749.766 962.786 749.766 969.915 Q749.766 977.022 751.571 980.587 Q753.4 984.128 757.011 984.128 Q760.645 984.128 762.451 980.587 Q764.279 977.022 764.279 969.915 Q764.279 962.786 762.451 959.244 Q760.645 955.679 757.011 955.679 M757.011 951.976 Q762.821 951.976 765.877 956.582 Q768.955 961.165 768.955 969.915 Q768.955 978.642 765.877 983.249 Q762.821 987.832 757.011 987.832 Q751.201 987.832 748.122 983.249 Q745.067 978.642 745.067 969.915 Q745.067 961.165 748.122 956.582 Q751.201 951.976 757.011 951.976 Z" fill="#000000" fill-rule="evenodd" fill-opacity="1" /><path clip-path="url(#clip500)" d="M 0 0 M749.048 541.773 L756.687 541.773 L756.687 515.407 L748.377 517.074 L748.377 512.814 L756.641 511.148 L761.317 511.148 L761.317 541.773 L768.955 541.773 L768.955 545.708 L749.048 545.708 L749.048 541.773 Z" fill="#000000" fill-rule="evenodd" fill-opacity="1" /><path clip-path="url(#clip500)" d="M 0 0 M752.636 100.32 L768.955 100.32 L768.955 104.255 L747.011 104.255 L747.011 100.32 Q749.673 97.5651 754.256 92.9355 Q758.863 88.2827 760.043 86.9401 Q762.289 84.417 763.168 82.6809 Q764.071 80.9217 764.071 79.2318 Q764.071 76.4772 762.127 74.7411 Q760.205 73.005 757.104 73.005 Q754.905 73.005 752.451 73.7689 Q750.02 74.5328 747.243 76.0837 L747.243 71.3615 Q750.067 70.2273 752.52 69.6486 Q754.974 69.0699 757.011 69.0699 Q762.381 69.0699 765.576 71.755 Q768.77 74.4402 768.77 78.9309 Q768.77 81.0605 767.96 82.9818 Q767.173 84.88 765.067 87.4725 Q764.488 88.1438 761.386 91.3614 Q758.284 94.5558 752.636 100.32 Z" fill="#000000" fill-rule="evenodd" fill-opacity="1" /><path clip-path="url(#clip500)" d="M 0 0 M1275.06 1530.82 Q1275.06 1532.63 1273.93 1533.66 Q1272.8 1534.66 1271.51 1534.66 Q1270.29 1534.66 1269.64 1533.95 Q1269 1533.24 1269 1532.34 Q1269 1531.11 1269.9 1530.05 Q1270.8 1528.99 1272.16 1528.76 Q1270.84 1527.93 1268.87 1527.93 Q1267.58 1527.93 1266.46 1528.6 Q1265.36 1529.28 1264.69 1530.15 Q1264.04 1531.02 1263.46 1532.27 Q1262.91 1533.5 1262.69 1534.24 Q1262.5 1534.95 1262.33 1535.72 L1260.08 1544.74 Q1258.98 1549.02 1258.98 1550.53 Q1258.98 1552.4 1259.89 1553.66 Q1260.79 1554.88 1262.59 1554.88 Q1263.3 1554.88 1264.11 1554.69 Q1264.91 1554.46 1265.94 1553.88 Q1267 1553.27 1267.94 1552.37 Q1268.9 1551.44 1269.84 1549.86 Q1270.77 1548.28 1271.38 1546.25 Q1271.58 1545.54 1272.22 1545.54 Q1273.03 1545.54 1273.03 1546.19 Q1273.03 1546.73 1272.58 1547.89 Q1272.16 1549.02 1271.22 1550.5 Q1270.32 1551.95 1269.13 1553.27 Q1267.94 1554.56 1266.17 1555.46 Q1264.4 1556.36 1262.46 1556.36 Q1259.69 1556.36 1257.86 1554.88 Q1256.02 1553.4 1255.35 1551.34 Q1255.18 1551.63 1254.96 1552.02 Q1254.73 1552.4 1254.06 1553.27 Q1253.41 1554.11 1252.67 1554.75 Q1251.93 1555.37 1250.77 1555.85 Q1249.65 1556.36 1248.42 1556.36 Q1246.88 1556.36 1245.49 1555.91 Q1244.14 1555.46 1243.17 1554.43 Q1242.21 1553.4 1242.21 1551.98 Q1242.21 1550.41 1243.27 1549.31 Q1244.36 1548.18 1245.84 1548.18 Q1246.78 1548.18 1247.52 1548.73 Q1248.29 1549.28 1248.29 1550.47 Q1248.29 1551.79 1247.39 1552.79 Q1246.49 1553.79 1245.2 1554.05 Q1246.52 1554.88 1248.49 1554.88 Q1250.61 1554.88 1252.29 1553.01 Q1253.96 1551.15 1254.77 1548.02 Q1256.76 1540.52 1257.54 1537.17 Q1258.31 1533.79 1258.31 1532.34 Q1258.31 1530.99 1257.95 1530.05 Q1257.6 1529.12 1256.99 1528.7 Q1256.41 1528.25 1255.86 1528.09 Q1255.35 1527.93 1254.77 1527.93 Q1253.8 1527.93 1252.7 1528.31 Q1251.64 1528.7 1250.35 1529.6 Q1249.1 1530.47 1247.91 1532.27 Q1246.71 1534.08 1245.91 1536.56 Q1245.75 1537.3 1245.04 1537.3 Q1244.27 1537.27 1244.27 1536.62 Q1244.27 1536.07 1244.69 1534.95 Q1245.14 1533.79 1246.04 1532.34 Q1246.97 1530.89 1248.16 1529.6 Q1249.39 1528.28 1251.16 1527.38 Q1252.96 1526.48 1254.89 1526.48 Q1255.76 1526.48 1256.6 1526.67 Q1257.47 1526.83 1258.5 1527.31 Q1259.56 1527.8 1260.5 1528.86 Q1261.43 1529.92 1262.01 1531.47 Q1262.4 1530.73 1262.91 1530.02 Q1263.46 1529.31 1264.3 1528.44 Q1265.17 1527.54 1266.36 1527.02 Q1267.58 1526.48 1268.94 1526.48 Q1270.26 1526.48 1271.55 1526.83 Q1272.83 1527.15 1273.93 1528.22 Q1275.06 1529.25 1275.06 1530.82 Z" fill="#000000" fill-rule="evenodd" fill-opacity="1" /><path clip-path="url(#clip500)" d="M 0 0 M666.729 734.728 Q667.18 734.728 668.243 735.018 L693.428 741.33 Q699.032 742.715 702.961 747.224 Q706.89 751.701 706.89 756.789 Q706.89 759.849 705.248 761.813 Q703.637 763.778 701.157 763.778 Q698.967 763.778 697.905 762.619 Q696.874 761.459 696.874 760.074 Q696.874 759.623 697.003 759.14 Q697.132 758.657 697.679 758.142 Q698.227 757.627 699.161 757.627 Q700.674 757.627 701.866 758.947 Q702.413 759.591 702.542 760.203 Q702.671 760.783 702.671 761.781 Q703.573 761.395 704.185 760.686 Q704.797 759.978 705.022 759.173 Q705.28 758.367 705.344 757.852 Q705.441 757.305 705.441 756.789 Q705.441 752.667 701.286 749.511 Q700.03 748.577 698.774 747.9 Q697.55 747.192 696.037 746.677 Q694.555 746.161 693.75 745.936 Q692.945 745.678 691.109 745.227 Q694.104 748.223 694.104 751.894 Q694.104 753.44 693.686 754.825 Q693.267 756.177 692.397 757.369 Q691.496 758.561 689.918 759.269 Q688.339 759.945 686.246 759.945 Q684.024 759.945 680.997 759.076 Q677.969 758.206 672.398 756.113 Q669.274 754.986 667.76 754.986 Q667.019 754.986 666.568 755.147 Q666.085 755.308 665.924 755.63 Q665.731 755.952 665.699 756.145 Q665.667 756.306 665.667 756.628 Q665.667 758.528 667.599 760.3 Q669.531 762.071 673.847 763.295 Q674.652 763.553 674.845 763.714 Q675.038 763.875 675.038 764.358 Q675.006 765.163 674.362 765.163 Q674.104 765.163 673.106 764.873 Q672.076 764.583 670.562 763.907 Q669.016 763.198 667.631 762.232 Q666.214 761.266 665.216 759.752 Q664.217 758.206 664.217 756.435 Q664.217 754.02 665.795 752.538 Q667.341 751.024 669.628 751.024 Q670.562 751.024 671.399 751.282 Q672.204 751.508 674.362 752.345 Q683.058 755.727 687.309 755.727 Q688.339 755.727 689.209 755.565 Q690.046 755.372 690.884 754.954 Q691.689 754.535 692.172 753.698 Q692.623 752.828 692.623 751.636 Q692.623 750.123 691.914 748.706 Q691.174 747.256 690.175 746.355 Q689.177 745.421 688.339 744.873 Q687.47 744.293 687.019 744.165 L675.167 741.202 L669.886 739.881 Q667.019 739.269 666.311 738.979 Q665.634 738.593 665.28 737.917 Q664.926 737.24 664.926 736.661 Q664.926 735.856 665.409 735.308 Q665.892 734.728 666.729 734.728 Z" fill="#000000" fill-rule="evenodd" fill-opacity="1" /><polyline clip-path="url(#clip503)" style="stroke:#009af9; stroke-width:4; stroke-opacity:1; fill:none" points="
  1702.35,969.881 1702.33,965.466 1702.26,961.052 1702.15,956.639 1702,952.227 1701.8,947.817 1701.55,943.409 1701.27,939.004 1700.94,934.602 1700.56,930.204 
  1700.14,925.809 1699.68,921.419 1699.17,917.033 1698.62,912.653 1698.03,908.279 1697.39,903.911 1696.71,899.549 1695.98,895.195 1695.22,890.848 1694.4,886.508 
  1693.55,882.178 1692.65,877.855 1691.71,873.543 1690.72,869.239 1689.7,864.946 1688.62,860.664 1687.51,856.392 1686.35,852.131 1685.16,847.883 1683.92,843.646 
  1682.63,839.422 1681.31,835.212 1679.94,831.014 1678.53,826.831 1677.08,822.662 1675.58,818.507 1674.05,814.368 1672.47,810.245 1670.86,806.137 1669.2,802.045 
  1667.5,797.971 1665.76,793.913 1663.98,789.874 1662.16,785.852 1660.3,781.849 1658.4,777.864 1656.46,773.899 1654.48,769.953 1652.46,766.027 1650.4,762.122 
  1648.31,758.237 1646.17,754.373 1644,750.532 1641.78,746.712 1639.53,742.914 1637.24,739.139 1634.92,735.387 1632.56,731.659 1630.15,727.954 1627.72,724.274 
  1625.24,720.618 1622.73,716.987 1620.18,713.381 1617.6,709.801 1614.98,706.247 1612.33,702.719 1609.64,699.218 1606.92,695.745 1604.16,692.298 1601.36,688.88 
  1598.54,685.489 1595.68,682.127 1592.78,678.793 1589.85,675.489 1586.89,672.214 1583.9,668.969 1580.88,665.754 1577.82,662.57 1574.73,659.416 1571.61,656.293 
  1568.46,653.202 1565.28,650.142 1562.06,647.114 1558.82,644.119 1555.55,641.156 1552.25,638.226 1548.92,635.329 1545.56,632.465 1542.17,629.636 1538.75,626.84 
  1535.31,624.079 1531.84,621.352 1528.34,618.66 1524.81,616.003 1521.26,613.382 1517.68,610.796 1514.08,608.246 1510.45,605.733 1506.79,603.255 1503.12,600.815 
  1499.41,598.411 1495.69,596.044 1491.94,593.715 1488.16,591.424 1484.37,589.17 1480.55,586.954 1476.71,584.777 1472.85,582.638 1468.96,580.538 1465.06,578.477 
  1461.14,576.455 1457.19,574.472 1453.23,572.529 1449.25,570.625 1445.24,568.762 1441.22,566.938 1437.19,565.155 1433.13,563.413 1429.06,561.711 1424.97,560.05 
  1420.86,558.429 1416.74,556.85 1412.6,555.313 1408.45,553.816 1404.28,552.362 1400.1,550.949 1395.9,549.578 1391.69,548.249 1387.47,546.962 1383.23,545.717 
  1378.98,544.515 1374.72,543.356 1370.45,542.239 1366.17,541.164 1361.88,540.133 1357.58,539.145 1353.26,538.2 1348.94,537.297 1344.61,536.439 1340.27,535.623 
  1335.93,534.851 1331.57,534.122 1327.21,533.438 1322.85,532.796 1318.47,532.199 1314.09,531.645 1309.71,531.135 1305.32,530.668 1300.92,530.246 1296.52,529.868 
  1292.12,529.534 1287.72,529.243 1283.31,528.997 1278.9,528.795 1274.49,528.637 1270.08,528.523 1265.66,528.454 1261.25,528.428 1256.83,528.446 1252.42,528.509 
  1248.01,528.616 1243.59,528.767 1239.18,528.962 1234.78,529.201 1230.37,529.484 1225.97,529.812 1221.57,530.183 1217.17,530.598 1212.78,531.057 1208.4,531.56 
  1204.02,532.107 1199.64,532.698 1195.27,533.332 1190.91,534.01 1186.56,534.732 1182.21,535.497 1177.87,536.306 1173.54,537.158 1169.21,538.053 1164.9,538.991 
  1160.6,539.973 1156.3,540.997 1152.02,542.065 1147.75,543.175 1143.48,544.328 1139.24,545.523 1135,546.761 1130.77,548.041 1126.56,549.363 1122.36,550.728 
  1118.18,552.134 1114.01,553.582 1109.85,555.071 1105.71,556.603 1101.59,558.175 1097.48,559.789 1093.39,561.443 1089.31,563.139 1085.25,564.875 1081.21,566.652 
  1077.19,568.469 1073.18,570.326 1069.2,572.223 1065.23,574.16 1061.28,576.136 1057.35,578.152 1053.45,580.207 1049.56,582.301 1045.7,584.434 1041.85,586.605 
  1038.03,588.814 1034.23,591.062 1030.45,593.348 1026.7,595.671 1022.97,598.031 1019.26,600.429 1015.58,602.864 1011.92,605.336 1008.29,607.843 1004.68,610.388 
  1001.1,612.968 997.544,615.583 994.014,618.235 990.511,620.921 987.035,623.642 983.586,626.398 980.166,629.188 976.773,632.013 973.408,634.871 970.073,637.762 
  966.766,640.687 963.489,643.645 960.241,646.635 957.024,649.658 953.837,652.712 950.681,655.799 947.555,658.917 944.462,662.065 941.399,665.245 938.369,668.455 
  935.371,671.696 932.405,674.966 929.473,678.265 926.573,681.594 923.707,684.952 920.875,688.338 918.076,691.752 915.312,695.194 912.583,698.663 909.888,702.16 
  907.228,705.683 904.604,709.233 902.015,712.809 899.463,716.411 896.946,720.038 894.466,723.69 892.022,727.366 889.616,731.067 887.246,734.792 884.914,738.54 
  882.619,742.311 880.363,746.105 878.144,749.922 875.964,753.76 873.822,757.62 871.718,761.501 869.654,765.404 867.629,769.326 865.643,773.269 863.697,777.231 
  861.79,781.213 859.924,785.213 858.097,789.232 856.311,793.269 854.565,797.323 852.86,801.395 851.195,805.484 849.572,809.589 847.989,813.71 846.448,817.847 
  844.949,821.999 843.491,826.166 842.074,830.347 840.7,834.542 839.368,838.751 838.078,842.973 836.83,847.207 835.624,851.454 834.461,855.712 833.341,859.982 
  832.263,864.263 831.228,868.555 830.237,872.857 829.288,877.168 828.382,881.489 827.52,885.818 826.701,890.156 825.926,894.502 825.194,898.855 824.505,903.216 
  823.86,907.583 823.259,911.956 822.702,916.335 822.188,920.72 821.719,925.109 821.293,929.503 820.911,933.901 820.573,938.303 820.28,942.708 820.03,947.115 
  819.824,951.525 819.663,955.936 819.545,960.349 819.472,964.763 819.443,969.178 819.458,973.592 819.517,978.006 819.621,982.42 819.768,986.832 819.96,991.242 
  820.195,995.65 820.475,1000.06 820.799,1004.46 821.167,1008.86 821.578,1013.25 822.034,1017.64 822.534,1022.03 823.077,1026.41 823.664,1030.79 824.295,1035.16 
  824.97,1039.52 825.688,1043.87 826.449,1048.22 827.255,1052.56 828.103,1056.89 828.995,1061.22 829.93,1065.53 830.908,1069.84 831.929,1074.13 832.993,1078.42 
  834.1,1082.69 835.249,1086.95 836.441,1091.2 837.675,1095.44 838.952,1099.67 840.271,1103.88 841.632,1108.08 843.035,1112.27 844.48,1116.44 845.966,1120.59 
  847.494,1124.74 849.063,1128.86 850.674,1132.97 852.325,1137.07 854.017,1141.14 855.75,1145.2 857.524,1149.25 859.337,1153.27 861.191,1157.28 863.085,1161.26 
  865.019,1165.23 866.992,1169.18 869.005,1173.11 871.057,1177.02 873.148,1180.91 875.277,1184.77 877.445,1188.62 879.652,1192.44 881.896,1196.24 884.179,1200.02 
  886.499,1203.78 888.857,1207.51 891.252,1211.22 893.684,1214.9 896.152,1218.56 898.657,1222.2 901.198,1225.81 903.776,1229.39 906.389,1232.95 909.037,1236.48 
  911.72,1239.99 914.439,1243.47 917.192,1246.92 919.98,1250.34 922.801,1253.73 925.657,1257.1 928.545,1260.44 931.468,1263.75 934.423,1267.03 937.41,1270.28 
  940.431,1273.5 943.483,1276.69 946.567,1279.85 949.682,1282.97 952.828,1286.07 956.006,1289.13 959.213,1292.17 962.451,1295.17 965.719,1298.14 969.016,1301.07 
  972.343,1303.97 975.698,1306.84 979.082,1309.68 982.494,1312.48 985.934,1315.25 989.401,1317.98 992.895,1320.68 996.417,1323.34 999.964,1325.96 1003.54,1328.56 
  1007.14,1331.11 1010.76,1333.63 1014.41,1336.11 1018.09,1338.56 1021.79,1340.97 1025.51,1343.34 1029.26,1345.68 1033.02,1347.98 1036.82,1350.24 1040.63,1352.46 
  1044.47,1354.64 1048.33,1356.79 1052.21,1358.89 1056.11,1360.96 1060.03,1362.99 1063.97,1364.98 1067.93,1366.93 1071.91,1368.84 1075.91,1370.71 1079.93,1372.54 
  1083.96,1374.32 1088.01,1376.07 1092.09,1377.78 1096.17,1379.45 1100.28,1381.08 1104.4,1382.66 1108.53,1384.21 1112.68,1385.71 1116.85,1387.17 1121.03,1388.59 
  1125.22,1389.97 1129.43,1391.3 1133.65,1392.6 1137.88,1393.85 1142.13,1395.06 1146.39,1396.22 1150.66,1397.35 1154.94,1398.43 1159.23,1399.47 1163.53,1400.46 
  1167.84,1401.41 1172.16,1402.32 1176.49,1403.19 1180.83,1404.01 1185.17,1404.79 1189.52,1405.53 1193.88,1406.22 1198.25,1406.87 1202.62,1407.47 1207,1408.03 
  1211.39,1408.55 1215.77,1409.02 1220.17,1409.45 1224.57,1409.84 1228.97,1410.18 1233.37,1410.47 1237.78,1410.73 1242.19,1410.94 1246.6,1411.1 1251.01,1411.22 
  1255.43,1411.3 1259.84,1411.33 1264.26,1411.32 1268.67,1411.27 1273.08,1411.17 1277.5,1411.02 1281.91,1410.83 1286.31,1410.6 1290.72,1410.33 1295.12,1410 
  1299.52,1409.64 1303.92,1409.23 1308.31,1408.78 1312.7,1408.28 1317.08,1407.74 1321.45,1407.16 1325.82,1406.53 1330.19,1405.86 1334.54,1405.15 1338.89,1404.39 
  1343.23,1403.59 1347.56,1402.74 1351.89,1401.85 1356.2,1400.92 1360.51,1399.95 1364.81,1398.93 1369.09,1397.87 1373.36,1396.77 1377.63,1395.62 1381.88,1394.43 
  1386.12,1393.2 1390.35,1391.93 1394.56,1390.61 1398.76,1389.25 1402.95,1387.85 1407.12,1386.41 1411.28,1384.93 1415.42,1383.41 1419.55,1381.84 1423.66,1380.23 
  1427.75,1378.58 1431.83,1376.9 1435.9,1375.17 1439.94,1373.4 1443.97,1371.58 1447.97,1369.73 1451.96,1367.84 1455.93,1365.91 1459.88,1363.94 1463.81,1361.93 
  1467.72,1359.88 1471.61,1357.8 1475.48,1355.67 1479.33,1353.5 1483.15,1351.3 1486.96,1349.06 1490.74,1346.78 1494.5,1344.46 1498.23,1342.11 1501.94,1339.72 
  1505.63,1337.29 1509.29,1334.82 1512.92,1332.32 1516.54,1329.78 1520.12,1327.21 1523.68,1324.6 1527.22,1321.95 1530.72,1319.27 1534.2,1316.56 1537.66,1313.8 
  1541.08,1311.02 1544.48,1308.2 1547.85,1305.35 1551.19,1302.46 1554.5,1299.54 1557.78,1296.59 1561.03,1293.6 1564.26,1290.59 1567.45,1287.54 1570.61,1284.46 
  1573.74,1281.34 1576.84,1278.2 1579.91,1275.02 1582.94,1271.82 1585.94,1268.58 1588.92,1265.32 1591.85,1262.02 1594.76,1258.7 1597.63,1255.35 1600.47,1251.97 
  1603.27,1248.56 1606.04,1245.12 1608.78,1241.65 1611.48,1238.16 1614.14,1234.64 1616.77,1231.1 1619.37,1227.52 1621.92,1223.93 1624.45,1220.3 1626.93,1216.66 
  1629.38,1212.98 1631.79,1209.29 1634.17,1205.56 1636.51,1201.82 1638.81,1198.05 1641.07,1194.26 1643.3,1190.45 1645.48,1186.61 1647.63,1182.76 1649.74,1178.88 
  1651.81,1174.98 1653.84,1171.06 1655.83,1167.12 1657.79,1163.16 1659.7,1159.18 1661.57,1155.19 1663.41,1151.17 1665.2,1147.14 1666.95,1143.08 1668.66,1139.02 
  1670.33,1134.93 1671.96,1130.83 1673.55,1126.71 1675.1,1122.57 1676.61,1118.42 1678.07,1114.26 1679.49,1110.08 1680.87,1105.89 1682.21,1101.68 1683.51,1097.46 
  1684.77,1093.23 1685.98,1088.98 1687.15,1084.73 1688.27,1080.46 1689.36,1076.18 1690.4,1071.89 1691.4,1067.59 1692.35,1063.28 1693.27,1058.96 1694.14,1054.63 
  1694.96,1050.3 1695.74,1045.95 1696.48,1041.6 1697.18,1037.24 1697.83,1032.87 1698.44,1028.5 1699,1024.12 1699.52,1019.74 1700,1015.35 1700.43,1010.96 
  1700.82,1006.56 1701.17,1002.16 1701.47,997.756 1701.72,993.348 1701.94,988.939 1702.11,984.528 1702.23,980.115 1702.31,975.701 1702.35,971.287 
  "/>
<path clip-path="url(#clip500)" d="
M1185.16 154.518 L1728.84 154.518 L1728.84 33.5581 L1185.16 33.5581  Z
  " fill="#ffffff" fill-rule="evenodd" fill-opacity="1"/>
<polyline clip-path="url(#clip500)" style="stroke:#000000; stroke-width:4; stroke-opacity:1; fill:none" points="
  1185.16,154.518 1728.84,154.518 1728.84,33.5581 1185.16,33.5581 1185.16,154.518 
  "/>
<polyline clip-path="url(#clip500)" style="stroke:#009af9; stroke-width:4; stroke-opacity:1; fill:none" points="
  1209.16,94.0381 1353.16,94.0381 
  "/>
<path clip-path="url(#clip500)" d="M 0 0 M1401.06 89.5227 Q1401.06 90.8343 1400.24 91.5838 Q1399.42 92.3099 1398.48 92.3099 Q1397.59 92.3099 1397.12 91.7946 Q1396.65 91.2794 1396.65 90.6235 Q1396.65 89.7335 1397.31 88.9605 Q1397.96 88.1876 1398.95 88.0236 Q1397.99 87.4146 1396.56 87.4146 Q1395.62 87.4146 1394.8 87.9065 Q1394.01 88.3984 1393.51 89.0308 Q1393.04 89.6632 1392.62 90.5767 Q1392.23 91.4667 1392.06 92.0054 Q1391.92 92.5207 1391.8 93.0829 L1390.16 99.6412 Q1389.37 102.756 1389.37 103.857 Q1389.37 105.216 1390.02 106.129 Q1390.68 107.019 1391.99 107.019 Q1392.51 107.019 1393.09 106.879 Q1393.68 106.715 1394.43 106.293 Q1395.2 105.848 1395.88 105.192 Q1396.58 104.513 1397.26 103.365 Q1397.94 102.218 1398.39 100.742 Q1398.53 100.227 1398.99 100.227 Q1399.58 100.227 1399.58 100.695 Q1399.58 101.093 1399.25 101.937 Q1398.95 102.756 1398.27 103.834 Q1397.61 104.888 1396.75 105.848 Q1395.88 106.785 1394.59 107.441 Q1393.3 108.097 1391.9 108.097 Q1389.88 108.097 1388.55 107.019 Q1387.21 105.942 1386.72 104.443 Q1386.6 104.654 1386.44 104.935 Q1386.28 105.216 1385.78 105.848 Q1385.32 106.457 1384.78 106.926 Q1384.24 107.371 1383.39 107.722 Q1382.58 108.097 1381.69 108.097 Q1380.56 108.097 1379.55 107.769 Q1378.57 107.441 1377.87 106.691 Q1377.16 105.942 1377.16 104.911 Q1377.16 103.764 1377.94 102.967 Q1378.73 102.147 1379.81 102.147 Q1380.49 102.147 1381.03 102.546 Q1381.59 102.944 1381.59 103.81 Q1381.59 104.771 1380.94 105.497 Q1380.28 106.223 1379.34 106.41 Q1380.3 107.019 1381.73 107.019 Q1383.28 107.019 1384.5 105.661 Q1385.71 104.302 1386.3 102.03 Q1387.75 96.5728 1388.31 94.1369 Q1388.88 91.6775 1388.88 90.6235 Q1388.88 89.6398 1388.62 88.9605 Q1388.36 88.2813 1387.92 87.9768 Q1387.49 87.6489 1387.1 87.5318 Q1386.72 87.4146 1386.3 87.4146 Q1385.6 87.4146 1384.8 87.6957 Q1384.03 87.9768 1383.09 88.6326 Q1382.18 89.265 1381.31 90.5767 Q1380.44 91.8883 1379.86 93.6919 Q1379.74 94.2306 1379.23 94.2306 Q1378.66 94.2072 1378.66 93.7387 Q1378.66 93.3405 1378.97 92.5207 Q1379.3 91.6775 1379.95 90.6235 Q1380.63 89.5695 1381.5 88.6326 Q1382.39 87.6723 1383.68 87.0165 Q1384.99 86.3606 1386.39 86.3606 Q1387.03 86.3606 1387.63 86.5012 Q1388.27 86.6183 1389.02 86.9696 Q1389.79 87.321 1390.47 88.0939 Q1391.15 88.8668 1391.57 89.9911 Q1391.85 89.4524 1392.23 88.9371 Q1392.62 88.4218 1393.23 87.7894 Q1393.86 87.1336 1394.73 86.7588 Q1395.62 86.3606 1396.61 86.3606 Q1397.57 86.3606 1398.5 86.6183 Q1399.44 86.8525 1400.24 87.6254 Q1401.06 88.375 1401.06 89.5227 Z" fill="#000000" fill-rule="evenodd" fill-opacity="1" /><path clip-path="url(#clip500)" d="M 0 0 M1405.94 93.0526 Q1405.94 92.446 1405.99 92.2656 Q1406.06 92.0853 1406.32 91.8066 L1412.76 84.6252 Q1416.29 80.6575 1416.29 77.198 Q1416.29 74.9518 1415.11 73.345 Q1413.94 71.7382 1411.79 71.7382 Q1410.32 71.7382 1409.07 72.64 Q1407.83 73.5417 1407.25 75.1485 Q1407.35 75.1157 1407.7 75.1157 Q1408.53 75.1157 1408.99 75.6404 Q1409.47 76.1651 1409.47 76.8701 Q1409.47 77.7718 1408.88 78.2145 Q1408.3 78.6408 1407.73 78.6408 Q1407.5 78.6408 1407.19 78.5916 Q1406.89 78.5424 1406.42 78.0834 Q1405.94 77.6079 1405.94 76.7717 Q1405.94 74.4271 1407.71 72.558 Q1409.5 70.6889 1412.22 70.6889 Q1415.3 70.6889 1417.32 72.5252 Q1419.35 74.3451 1419.35 77.198 Q1419.35 78.1981 1419.04 79.1163 Q1418.75 80.018 1418.34 80.7231 Q1417.94 81.4281 1416.86 82.5594 Q1415.78 83.6907 1414.91 84.4941 Q1414.04 85.2975 1412.09 87.0026 L1408.53 90.4621 L1414.58 90.4621 Q1417.53 90.4621 1417.76 90.1998 Q1418.09 89.7243 1418.5 87.2158 L1419.35 87.2158 L1418.4 93.0526 L1405.94 93.0526 Z" fill="#000000" fill-rule="evenodd" fill-opacity="1" /><path clip-path="url(#clip500)" d="M 0 0 M1433.04 96.1512 Q1431.94 96.1512 1431.94 95.5657 Q1431.94 94.9801 1433.09 94.9801 Q1433.23 94.9801 1433.46 95.0035 Q1433.72 95.0269 1433.77 95.0269 L1447.28 95.0269 L1447.28 81.4653 Q1447.28 81.4185 1447.26 81.2077 Q1447.24 80.9735 1447.24 80.8329 Q1447.24 79.6852 1447.8 79.6852 Q1448.38 79.6852 1448.38 80.8329 L1448.38 95.0269 L1461.92 95.0269 Q1461.97 95.0269 1462.2 95.0035 Q1462.44 94.9801 1462.58 94.9801 Q1463.68 94.9801 1463.68 95.5657 Q1463.7 96.1512 1462.53 96.1512 Q1462.39 96.1512 1462.18 96.1278 Q1461.97 96.1044 1461.92 96.1044 L1448.38 96.1044 L1448.38 110.345 Q1448.38 111.446 1447.8 111.446 Q1447.24 111.446 1447.24 110.298 Q1447.24 110.158 1447.26 109.924 Q1447.28 109.713 1447.28 109.666 L1447.28 96.1044 L1433.77 96.1044 Q1433.72 96.1044 1433.44 96.1278 Q1433.18 96.1512 1433.04 96.1512 Z" fill="#000000" fill-rule="evenodd" fill-opacity="1" /><path clip-path="url(#clip500)" d="M 0 0 M1498.63 88.1876 Q1498.63 88.5155 1498.41 89.2884 L1493.82 107.605 Q1492.82 111.68 1489.54 114.538 Q1486.28 117.395 1482.58 117.395 Q1480.36 117.395 1478.93 116.201 Q1477.5 115.03 1477.5 113.226 Q1477.5 111.633 1478.34 110.861 Q1479.18 110.111 1480.19 110.111 Q1480.52 110.111 1480.87 110.205 Q1481.22 110.298 1481.6 110.697 Q1481.97 111.095 1481.97 111.774 Q1481.97 112.875 1481.01 113.741 Q1480.54 114.14 1480.1 114.233 Q1479.68 114.327 1478.95 114.327 Q1479.23 114.983 1479.75 115.428 Q1480.26 115.873 1480.85 116.037 Q1481.43 116.224 1481.81 116.271 Q1482.21 116.341 1482.58 116.341 Q1485.58 116.341 1487.87 113.32 Q1488.55 112.406 1489.05 111.493 Q1489.56 110.603 1489.94 109.502 Q1490.31 108.425 1490.47 107.839 Q1490.66 107.253 1490.99 105.918 Q1488.81 108.097 1486.14 108.097 Q1485.02 108.097 1484.01 107.792 Q1483.03 107.488 1482.16 106.855 Q1481.29 106.199 1480.78 105.052 Q1480.29 103.904 1480.29 102.382 Q1480.29 100.765 1480.92 98.5637 Q1481.55 96.362 1483.07 92.3099 Q1483.89 90.038 1483.89 88.9371 Q1483.89 88.3984 1483.78 88.0705 Q1483.66 87.7191 1483.42 87.602 Q1483.19 87.4615 1483.05 87.4381 Q1482.93 87.4146 1482.7 87.4146 Q1481.32 87.4146 1480.03 88.82 Q1478.74 90.2253 1477.85 93.3639 Q1477.66 93.9495 1477.55 94.09 Q1477.43 94.2306 1477.08 94.2306 Q1476.49 94.2072 1476.49 93.7387 Q1476.49 93.5513 1476.7 92.8252 Q1476.91 92.0757 1477.4 90.9749 Q1477.92 89.8506 1478.62 88.8434 Q1479.33 87.8128 1480.43 87.0867 Q1481.55 86.3606 1482.84 86.3606 Q1484.6 86.3606 1485.67 87.5083 Q1486.77 88.6326 1486.77 90.2956 Q1486.77 90.9749 1486.59 91.5838 Q1486.42 92.1694 1485.81 93.7387 Q1483.35 100.063 1483.35 103.155 Q1483.35 103.904 1483.47 104.536 Q1483.61 105.145 1483.92 105.754 Q1484.22 106.34 1484.83 106.691 Q1485.46 107.019 1486.33 107.019 Q1487.43 107.019 1488.46 106.504 Q1489.51 105.965 1490.17 105.239 Q1490.85 104.513 1491.25 103.904 Q1491.67 103.272 1491.76 102.944 L1493.92 94.3243 L1494.88 90.483 Q1495.32 88.3984 1495.53 87.8831 Q1495.81 87.3912 1496.31 87.1336 Q1496.8 86.8759 1497.22 86.8759 Q1497.81 86.8759 1498.2 87.2273 Q1498.63 87.5786 1498.63 88.1876 Z" fill="#000000" fill-rule="evenodd" fill-opacity="1" /><path clip-path="url(#clip500)" d="M 0 0 M1503.52 93.0526 Q1503.52 92.446 1503.57 92.2656 Q1503.63 92.0853 1503.89 91.8066 L1510.34 84.6252 Q1513.86 80.6575 1513.86 77.198 Q1513.86 74.9518 1512.68 73.345 Q1511.52 71.7382 1509.37 71.7382 Q1507.9 71.7382 1506.65 72.64 Q1505.4 73.5417 1504.83 75.1485 Q1504.93 75.1157 1505.27 75.1157 Q1506.11 75.1157 1506.57 75.6404 Q1507.04 76.1651 1507.04 76.8701 Q1507.04 77.7718 1506.45 78.2145 Q1505.88 78.6408 1505.3 78.6408 Q1505.08 78.6408 1504.76 78.5916 Q1504.47 78.5424 1503.99 78.0834 Q1503.52 77.6079 1503.52 76.7717 Q1503.52 74.4271 1505.29 72.558 Q1507.08 70.6889 1509.8 70.6889 Q1512.88 70.6889 1514.9 72.5252 Q1516.93 74.3451 1516.93 77.198 Q1516.93 78.1981 1516.62 79.1163 Q1516.32 80.018 1515.91 80.7231 Q1515.52 81.4281 1514.44 82.5594 Q1513.35 83.6907 1512.49 84.4941 Q1511.62 85.2975 1509.67 87.0026 L1506.11 90.4621 L1512.16 90.4621 Q1515.11 90.4621 1515.34 90.1998 Q1515.67 89.7243 1516.08 87.2158 L1516.93 87.2158 L1515.98 93.0526 L1503.52 93.0526 Z" fill="#000000" fill-rule="evenodd" fill-opacity="1" /><path clip-path="url(#clip500)" d="M 0 0 M1529.52 100.274 Q1529.57 99.688 1530.48 99.688 L1559.87 99.688 Q1561.26 99.688 1561.28 100.227 Q1561.28 100.812 1559.97 100.789 L1530.81 100.789 Q1529.52 100.812 1529.52 100.274 M1529.52 90.9046 Q1529.52 90.319 1530.53 90.3425 L1559.83 90.3425 Q1561.26 90.3425 1561.28 90.9046 Q1561.28 91.4433 1560.06 91.4433 L1530.48 91.4433 Q1529.52 91.4433 1529.52 90.9046 Z" fill="#000000" fill-rule="evenodd" fill-opacity="1" /><path clip-path="url(#clip500)" d="M 0 0 M1574.07 80.1771 L1574.07 78.6781 Q1579.83 78.6781 1582.8 75.6097 Q1583.62 75.6097 1583.76 75.7971 Q1583.91 75.9845 1583.91 76.8511 L1583.91 103.764 Q1583.91 105.192 1584.61 105.637 Q1585.31 106.082 1588.38 106.082 L1589.9 106.082 L1589.9 107.558 Q1588.22 107.417 1582.13 107.417 Q1576.04 107.417 1574.37 107.558 L1574.37 106.082 L1575.9 106.082 Q1578.92 106.082 1579.64 105.661 Q1580.37 105.216 1580.37 103.764 L1580.37 78.9123 Q1577.86 80.1771 1574.07 80.1771 Z" fill="#000000" fill-rule="evenodd" fill-opacity="1" /></svg>
