<?xml version="1.0" encoding="utf-8" standalone="no"?>
<!DOCTYPE svg PUBLIC "-//W3C//DTD SVG 1.1//EN"
  "http://www.w3.org/Graphics/SVG/1.1/DTD/svg11.dtd">
<!-- Created with matplotlib (https://matplotlib.org/) -->
<svg height="288pt" version="1.1" viewBox="0 0 432 288" width="432pt" xmlns="http://www.w3.org/2000/svg" xmlns:xlink="http://www.w3.org/1999/xlink">
 <defs>
  <style type="text/css">
*{stroke-linecap:butt;stroke-linejoin:round;}
  </style>
 </defs>
 <g id="figure_1">
  <g id="patch_1">
   <path d="M 0 288 
L 432 288 
L 432 0 
L 0 0 
z
" style="fill:#ffffff;"/>
  </g>
  <g id="axes_1">
   <g id="patch_2">
    <path d="M 145.915444 258.225354 
L 316.175916 258.225354 
L 316.175916 2.834646 
L 145.915444 2.834646 
z
" style="fill:#ffffff;"/>
   </g>
   <g id="matplotlib.axis_1">
    <g id="xtick_1">
     <g id="line2d_1">
      <path clip-path="url(#pb462805791)" d="M 150.734137 258.225354 
L 150.734137 2.834646 
" style="fill:none;stroke:#000000;stroke-linecap:square;stroke-opacity:0.1;stroke-width:0.5;"/>
     </g>
     <g id="line2d_2">
      <defs>
       <path d="M 0 0 
L 0 -2.5 
" id="ma9b616457c" style="stroke:#000000;stroke-width:0.5;"/>
      </defs>
      <g>
       <use style="stroke:#000000;stroke-width:0.5;" x="150.734137" xlink:href="#ma9b616457c" y="258.225354"/>
      </g>
     </g>
     <g id="text_1">
      <!-- $\mathregular{-1.0}$ -->
      <defs>
       <path d="M 10.59375 35.5 
L 73.1875 35.5 
L 73.1875 27.203125 
L 10.59375 27.203125 
z
" id="DejaVuSans-8722"/>
       <path d="M 12.40625 8.296875 
L 28.515625 8.296875 
L 28.515625 63.921875 
L 10.984375 60.40625 
L 10.984375 69.390625 
L 28.421875 72.90625 
L 38.28125 72.90625 
L 38.28125 8.296875 
L 54.390625 8.296875 
L 54.390625 0 
L 12.40625 0 
z
" id="DejaVuSans-49"/>
       <path d="M 10.6875 12.40625 
L 21 12.40625 
L 21 0 
L 10.6875 0 
z
" id="DejaVuSans-46"/>
       <path d="M 31.78125 66.40625 
Q 24.171875 66.40625 20.328125 58.90625 
Q 16.5 51.421875 16.5 36.375 
Q 16.5 21.390625 20.328125 13.890625 
Q 24.171875 6.390625 31.78125 6.390625 
Q 39.453125 6.390625 43.28125 13.890625 
Q 47.125 21.390625 47.125 36.375 
Q 47.125 51.421875 43.28125 58.90625 
Q 39.453125 66.40625 31.78125 66.40625 
z
M 31.78125 74.21875 
Q 44.046875 74.21875 50.515625 64.515625 
Q 56.984375 54.828125 56.984375 36.375 
Q 56.984375 17.96875 50.515625 8.265625 
Q 44.046875 -1.421875 31.78125 -1.421875 
Q 19.53125 -1.421875 13.0625 8.265625 
Q 6.59375 17.96875 6.59375 36.375 
Q 6.59375 54.828125 13.0625 64.515625 
Q 19.53125 74.21875 31.78125 74.21875 
z
" id="DejaVuSans-48"/>
      </defs>
      <g transform="translate(141.014137 267.804104)scale(0.08 -0.08)">
       <use transform="translate(0 0.78125)" xlink:href="#DejaVuSans-8722"/>
       <use transform="translate(83.789062 0.78125)" xlink:href="#DejaVuSans-49"/>
       <use transform="translate(147.412109 0.78125)" xlink:href="#DejaVuSans-46"/>
       <use transform="translate(179.199219 0.78125)" xlink:href="#DejaVuSans-48"/>
      </g>
     </g>
    </g>
    <g id="xtick_2">
     <g id="line2d_3">
      <path clip-path="url(#pb462805791)" d="M 190.889908 258.225354 
L 190.889908 2.834646 
" style="fill:none;stroke:#000000;stroke-linecap:square;stroke-opacity:0.1;stroke-width:0.5;"/>
     </g>
     <g id="line2d_4">
      <g>
       <use style="stroke:#000000;stroke-width:0.5;" x="190.889908" xlink:href="#ma9b616457c" y="258.225354"/>
      </g>
     </g>
     <g id="text_2">
      <!-- $\mathregular{-0.5}$ -->
      <defs>
       <path d="M 10.796875 72.90625 
L 49.515625 72.90625 
L 49.515625 64.59375 
L 19.828125 64.59375 
L 19.828125 46.734375 
Q 21.96875 47.46875 24.109375 47.828125 
Q 26.265625 48.1875 28.421875 48.1875 
Q 40.625 48.1875 47.75 41.5 
Q 54.890625 34.8125 54.890625 23.390625 
Q 54.890625 11.625 47.5625 5.09375 
Q 40.234375 -1.421875 26.90625 -1.421875 
Q 22.3125 -1.421875 17.546875 -0.640625 
Q 12.796875 0.140625 7.71875 1.703125 
L 7.71875 11.625 
Q 12.109375 9.234375 16.796875 8.0625 
Q 21.484375 6.890625 26.703125 6.890625 
Q 35.15625 6.890625 40.078125 11.328125 
Q 45.015625 15.765625 45.015625 23.390625 
Q 45.015625 31 40.078125 35.4375 
Q 35.15625 39.890625 26.703125 39.890625 
Q 22.75 39.890625 18.8125 39.015625 
Q 14.890625 38.140625 10.796875 36.28125 
z
" id="DejaVuSans-53"/>
      </defs>
      <g transform="translate(181.169908 267.804104)scale(0.08 -0.08)">
       <use transform="translate(0 0.78125)" xlink:href="#DejaVuSans-8722"/>
       <use transform="translate(83.789062 0.78125)" xlink:href="#DejaVuSans-48"/>
       <use transform="translate(147.412109 0.78125)" xlink:href="#DejaVuSans-46"/>
       <use transform="translate(179.199219 0.78125)" xlink:href="#DejaVuSans-53"/>
      </g>
     </g>
    </g>
    <g id="xtick_3">
     <g id="line2d_5">
      <path clip-path="url(#pb462805791)" d="M 231.04568 258.225354 
L 231.04568 2.834646 
" style="fill:none;stroke:#000000;stroke-linecap:square;stroke-opacity:0.1;stroke-width:0.5;"/>
     </g>
     <g id="line2d_6">
      <g>
       <use style="stroke:#000000;stroke-width:0.5;" x="231.04568" xlink:href="#ma9b616457c" y="258.225354"/>
      </g>
     </g>
     <g id="text_3">
      <!-- $\mathregular{0.0}$ -->
      <g transform="translate(224.64568 267.804104)scale(0.08 -0.08)">
       <use transform="translate(0 0.78125)" xlink:href="#DejaVuSans-48"/>
       <use transform="translate(63.623047 0.78125)" xlink:href="#DejaVuSans-46"/>
       <use transform="translate(95.410156 0.78125)" xlink:href="#DejaVuSans-48"/>
      </g>
     </g>
    </g>
    <g id="xtick_4">
     <g id="line2d_7">
      <path clip-path="url(#pb462805791)" d="M 271.201452 258.225354 
L 271.201452 2.834646 
" style="fill:none;stroke:#000000;stroke-linecap:square;stroke-opacity:0.1;stroke-width:0.5;"/>
     </g>
     <g id="line2d_8">
      <g>
       <use style="stroke:#000000;stroke-width:0.5;" x="271.201452" xlink:href="#ma9b616457c" y="258.225354"/>
      </g>
     </g>
     <g id="text_4">
      <!-- $\mathregular{0.5}$ -->
      <g transform="translate(264.801452 267.804104)scale(0.08 -0.08)">
       <use transform="translate(0 0.78125)" xlink:href="#DejaVuSans-48"/>
       <use transform="translate(63.623047 0.78125)" xlink:href="#DejaVuSans-46"/>
       <use transform="translate(95.410156 0.78125)" xlink:href="#DejaVuSans-53"/>
      </g>
     </g>
    </g>
    <g id="xtick_5">
     <g id="line2d_9">
      <path clip-path="url(#pb462805791)" d="M 311.357224 258.225354 
L 311.357224 2.834646 
" style="fill:none;stroke:#000000;stroke-linecap:square;stroke-opacity:0.1;stroke-width:0.5;"/>
     </g>
     <g id="line2d_10">
      <g>
       <use style="stroke:#000000;stroke-width:0.5;" x="311.357224" xlink:href="#ma9b616457c" y="258.225354"/>
      </g>
     </g>
     <g id="text_5">
      <!-- $\mathregular{1.0}$ -->
      <g transform="translate(304.957224 267.804104)scale(0.08 -0.08)">
       <use transform="translate(0 0.78125)" xlink:href="#DejaVuSans-49"/>
       <use transform="translate(63.623047 0.78125)" xlink:href="#DejaVuSans-46"/>
       <use transform="translate(95.410156 0.78125)" xlink:href="#DejaVuSans-48"/>
      </g>
     </g>
    </g>
    <g id="text_6">
     <!-- $x$ -->
     <defs>
      <path d="M 60.015625 54.6875 
L 34.90625 27.875 
L 50.296875 0 
L 39.984375 0 
L 28.421875 21.6875 
L 8.296875 0 
L -2.59375 0 
L 24.3125 28.8125 
L 10.015625 54.6875 
L 20.3125 54.6875 
L 30.8125 34.90625 
L 49.125 54.6875 
z
" id="DejaVuSans-Oblique-120"/>
     </defs>
     <g transform="translate(227.74568 281.826136)scale(0.11 -0.11)">
      <use transform="translate(0 0.3125)" xlink:href="#DejaVuSans-Oblique-120"/>
     </g>
    </g>
   </g>
   <g id="matplotlib.axis_2">
    <g id="ytick_1">
     <g id="line2d_11">
      <path clip-path="url(#pb462805791)" d="M 145.915444 250.997315 
L 316.175916 250.997315 
" style="fill:none;stroke:#000000;stroke-linecap:square;stroke-opacity:0.1;stroke-width:0.5;"/>
     </g>
     <g id="line2d_12">
      <defs>
       <path d="M 0 0 
L 2.5 0 
" id="m8cb4e403d7" style="stroke:#000000;stroke-width:0.5;"/>
      </defs>
      <g>
       <use style="stroke:#000000;stroke-width:0.5;" x="145.915444" xlink:href="#m8cb4e403d7" y="250.997315"/>
      </g>
     </g>
     <g id="text_7">
      <!-- $\mathregular{-1}$ -->
      <g transform="translate(130.575444 254.03669)scale(0.08 -0.08)">
       <use transform="translate(0 0.09375)" xlink:href="#DejaVuSans-8722"/>
       <use transform="translate(83.789062 0.09375)" xlink:href="#DejaVuSans-49"/>
      </g>
     </g>
    </g>
    <g id="ytick_2">
     <g id="line2d_13">
      <path clip-path="url(#pb462805791)" d="M 145.915444 170.685772 
L 316.175916 170.685772 
" style="fill:none;stroke:#000000;stroke-linecap:square;stroke-opacity:0.1;stroke-width:0.5;"/>
     </g>
     <g id="line2d_14">
      <g>
       <use style="stroke:#000000;stroke-width:0.5;" x="145.915444" xlink:href="#m8cb4e403d7" y="170.685772"/>
      </g>
     </g>
     <g id="text_8">
      <!-- $\mathregular{0}$ -->
      <g transform="translate(137.295444 173.725147)scale(0.08 -0.08)">
       <use transform="translate(0 0.78125)" xlink:href="#DejaVuSans-48"/>
      </g>
     </g>
    </g>
    <g id="ytick_3">
     <g id="line2d_15">
      <path clip-path="url(#pb462805791)" d="M 145.915444 90.374228 
L 316.175916 90.374228 
" style="fill:none;stroke:#000000;stroke-linecap:square;stroke-opacity:0.1;stroke-width:0.5;"/>
     </g>
     <g id="line2d_16">
      <g>
       <use style="stroke:#000000;stroke-width:0.5;" x="145.915444" xlink:href="#m8cb4e403d7" y="90.374228"/>
      </g>
     </g>
     <g id="text_9">
      <!-- $\mathregular{1}$ -->
      <g transform="translate(137.295444 93.413603)scale(0.08 -0.08)">
       <use transform="translate(0 0.09375)" xlink:href="#DejaVuSans-49"/>
      </g>
     </g>
    </g>
    <g id="ytick_4">
     <g id="line2d_17">
      <path clip-path="url(#pb462805791)" d="M 145.915444 10.062685 
L 316.175916 10.062685 
" style="fill:none;stroke:#000000;stroke-linecap:square;stroke-opacity:0.1;stroke-width:0.5;"/>
     </g>
     <g id="line2d_18">
      <g>
       <use style="stroke:#000000;stroke-width:0.5;" x="145.915444" xlink:href="#m8cb4e403d7" y="10.062685"/>
      </g>
     </g>
     <g id="text_10">
      <!-- $\mathregular{2}$ -->
      <defs>
       <path d="M 19.1875 8.296875 
L 53.609375 8.296875 
L 53.609375 0 
L 7.328125 0 
L 7.328125 8.296875 
Q 12.9375 14.109375 22.625 23.890625 
Q 32.328125 33.6875 34.8125 36.53125 
Q 39.546875 41.84375 41.421875 45.53125 
Q 43.3125 49.21875 43.3125 52.78125 
Q 43.3125 58.59375 39.234375 62.25 
Q 35.15625 65.921875 28.609375 65.921875 
Q 23.96875 65.921875 18.8125 64.3125 
Q 13.671875 62.703125 7.8125 59.421875 
L 7.8125 69.390625 
Q 13.765625 71.78125 18.9375 73 
Q 24.125 74.21875 28.421875 74.21875 
Q 39.75 74.21875 46.484375 68.546875 
Q 53.21875 62.890625 53.21875 53.421875 
Q 53.21875 48.921875 51.53125 44.890625 
Q 49.859375 40.875 45.40625 35.40625 
Q 44.1875 33.984375 37.640625 27.21875 
Q 31.109375 20.453125 19.1875 8.296875 
z
" id="DejaVuSans-50"/>
      </defs>
      <g transform="translate(137.295444 13.10206)scale(0.08 -0.08)">
       <use transform="translate(0 0.78125)" xlink:href="#DejaVuSans-50"/>
      </g>
     </g>
    </g>
    <g id="text_11">
     <!-- $y$ -->
     <defs>
      <path d="M 24.8125 -5.078125 
Q 18.5625 -15.578125 14.625 -18.1875 
Q 10.6875 -20.796875 4.59375 -20.796875 
L -2.484375 -20.796875 
L -0.984375 -13.28125 
L 4.203125 -13.28125 
Q 7.953125 -13.28125 10.59375 -11.234375 
Q 13.234375 -9.1875 16.5 -3.21875 
L 19.28125 2 
L 7.171875 54.6875 
L 16.703125 54.6875 
L 25.78125 12.796875 
L 50.875 54.6875 
L 60.296875 54.6875 
z
" id="DejaVuSans-Oblique-121"/>
     </defs>
     <g transform="translate(124.265444 133.83)rotate(-90)scale(0.11 -0.11)">
      <use transform="translate(0 0.3125)" xlink:href="#DejaVuSans-Oblique-121"/>
     </g>
    </g>
   </g>
   <g id="line2d_19">
    <path clip-path="url(#pb462805791)" d="M 311.357224 170.685772 
L 311.256855 166.671868 
L 310.956001 162.667996 
L 310.455412 158.684165 
L 309.75634 154.730331 
L 308.860532 150.816378 
L 307.770228 146.952088 
L 306.488153 143.14712 
L 305.01751 139.410984 
L 303.361977 135.753018 
L 301.52569 132.182367 
L 299.51324 128.707954 
L 297.329657 125.338463 
L 294.980399 122.082317 
L 292.471337 118.947655 
L 289.808743 115.942311 
L 286.999271 113.073797 
L 284.049945 110.349283 
L 280.968136 107.775579 
L 277.761547 105.359117 
L 274.438192 103.105938 
L 271.006379 101.021674 
L 267.474685 99.111533 
L 263.851937 97.380291 
L 260.147191 95.832274 
L 256.369706 94.471352 
L 252.528924 93.300927 
L 248.634445 92.323923 
L 244.696004 91.542783 
L 240.723444 90.959459 
L 236.726694 90.57541 
L 232.715745 90.391594 
L 228.700621 90.408473 
L 224.691359 90.626003 
L 220.69798 91.04364 
L 216.730464 91.660342 
L 212.798729 92.474565 
L 208.912602 93.484276 
L 205.081796 94.686951 
L 201.315886 96.079583 
L 197.624285 97.658692 
L 194.016221 99.42033 
L 190.50071 101.360095 
L 187.086541 103.473138 
L 183.782247 105.754178 
L 180.596087 108.197512 
L 177.536024 110.797035 
L 174.609708 113.546249 
L 171.824453 116.438281 
L 169.187219 119.465904 
L 166.7046 122.62155 
L 164.382799 125.897332 
L 162.227622 129.285061 
L 160.244453 132.77627 
L 158.438251 136.362234 
L 156.813529 140.033988 
L 155.37435 143.782356 
L 154.124309 147.597969 
L 153.066531 151.471289 
L 152.203661 155.392635 
L 151.537855 159.352206 
L 151.070776 163.340105 
L 150.803594 167.346365 
L 150.736975 171.360971 
L 150.871086 175.373889 
L 151.205591 179.37509 
L 151.739656 183.354572 
L 152.471944 187.302389 
L 153.400625 191.208672 
L 154.523379 195.063659 
L 155.837398 198.857714 
L 157.339399 202.581354 
L 159.025628 206.225272 
L 160.891869 209.780359 
L 162.933457 213.23773 
L 165.145292 216.588744 
L 167.521842 219.825023 
L 170.05717 222.938481 
L 172.744936 225.921334 
L 175.578425 228.766126 
L 178.550552 231.465748 
L 181.65389 234.013452 
L 184.880682 236.40287 
L 188.222862 238.628029 
L 191.672077 240.683367 
L 195.219705 242.563749 
L 198.85688 244.264472 
L 202.57451 245.781288 
L 206.363303 247.110403 
L 210.213789 248.248497 
L 214.116344 249.192724 
L 218.061214 249.940725 
L 222.038538 250.49063 
L 226.038375 250.841064 
L 230.050727 250.991152 
L 234.065567 250.940518 
L 238.072859 250.689289 
L 242.062586 250.238093 
L 246.024776 249.588058 
L 249.949527 248.740808 
L 253.827028 247.69846 
L 257.647588 246.463622 
L 261.401656 245.039378 
L 265.079851 243.429289 
L 268.672977 241.637379 
L 272.172055 239.668127 
L 275.568339 237.526455 
L 278.853339 235.217716 
L 282.018845 232.747681 
L 285.056944 230.122523 
L 287.960044 227.348804 
L 290.720887 224.433458 
L 293.332573 221.38377 
L 295.788574 218.207363 
L 298.082752 214.912178 
L 300.209373 211.506449 
L 302.163119 207.99869 
L 303.93911 204.397668 
L 305.532905 200.712384 
L 306.94052 196.952049 
L 308.158438 193.126062 
L 309.183614 189.243986 
L 310.013486 185.315524 
L 310.64598 181.350495 
L 311.079514 177.35881 
L 311.313006 173.350446 
L 311.356816 170.941588 
L 311.356816 170.941588 
" style="fill:none;stroke:#009afa;"/>
   </g>
   <g id="patch_3">
    <path d="M 145.915444 258.225354 
L 145.915444 2.834646 
" style="fill:none;stroke:#000000;stroke-linecap:square;stroke-linejoin:miter;"/>
   </g>
   <g id="patch_4">
    <path d="M 145.915444 258.225354 
L 316.175916 258.225354 
" style="fill:none;stroke:#000000;stroke-linecap:square;stroke-linejoin:miter;"/>
   </g>
   <g id="legend_1">
    <g id="patch_5">
     <path d="M 234.495916 28.594646 
L 312.175916 28.594646 
L 312.175916 6.834646 
L 234.495916 6.834646 
z
" style="fill:#ffffff;stroke:#000000;stroke-linejoin:miter;"/>
    </g>
    <g id="line2d_20">
     <path d="M 240.895916 17.714646 
L 256.895916 17.714646 
" style="fill:none;stroke:#009afa;stroke-linejoin:miter;"/>
    </g>
    <g id="line2d_21"/>
    <g id="text_12">
     <!-- $x^2+y^2 = 1$ -->
     <defs>
      <path d="M 46 62.703125 
L 46 35.5 
L 73.1875 35.5 
L 73.1875 27.203125 
L 46 27.203125 
L 46 0 
L 37.796875 0 
L 37.796875 27.203125 
L 10.59375 27.203125 
L 10.59375 35.5 
L 37.796875 35.5 
L 37.796875 62.703125 
z
" id="DejaVuSans-43"/>
      <path d="M 10.59375 45.40625 
L 73.1875 45.40625 
L 73.1875 37.203125 
L 10.59375 37.203125 
z
M 10.59375 25.484375 
L 73.1875 25.484375 
L 73.1875 17.1875 
L 10.59375 17.1875 
z
" id="DejaVuSans-61"/>
     </defs>
     <g transform="translate(263.295916 20.514646)scale(0.08 -0.08)">
      <use transform="translate(0 0.765625)" xlink:href="#DejaVuSans-Oblique-120"/>
      <use transform="translate(63.645833 39.046875)scale(0.7)" xlink:href="#DejaVuSans-50"/>
      <use transform="translate(130.398763 0.765625)" xlink:href="#DejaVuSans-43"/>
      <use transform="translate(233.670247 0.765625)" xlink:href="#DejaVuSans-Oblique-121"/>
      <use transform="translate(297.316081 39.046875)scale(0.7)" xlink:href="#DejaVuSans-50"/>
      <use transform="translate(364.06901 0.765625)" xlink:href="#DejaVuSans-61"/>
      <use transform="translate(467.340495 0.765625)" xlink:href="#DejaVuSans-49"/>
     </g>
    </g>
   </g>
  </g>
 </g>
 <defs>
  <clipPath id="pb462805791">
   <rect height="255.390709" width="170.260472" x="145.915444" y="2.834646"/>
  </clipPath>
 </defs>
</svg>
