<?xml version="1.0" encoding="utf-8"?>
<svg xmlns="http://www.w3.org/2000/svg" xmlns:xlink="http://www.w3.org/1999/xlink" width="600" height="400" viewBox="0 0 2400 1600">
<defs>
  <clipPath id="clip680">
    <rect x="0" y="0" width="2400" height="1600"/>
  </clipPath>
</defs>
<path clip-path="url(#clip680)" d="
M0 1600 L2400 1600 L2400 0 L0 0  Z
  " fill="#ffffff" fill-rule="evenodd" fill-opacity="1"/>
<defs>
  <clipPath id="clip681">
    <rect x="480" y="0" width="1681" height="1600"/>
  </clipPath>
</defs>
<path clip-path="url(#clip680)" d="
M772.395 1470.7 L1721.37 1470.7 L1721.37 47.2441 L772.395 47.2441  Z
  " fill="#ffffff" fill-rule="evenodd" fill-opacity="1"/>
<defs>
  <clipPath id="clip682">
    <rect x="772" y="47" width="950" height="1424"/>
  </clipPath>
</defs>
<polyline clip-path="url(#clip682)" style="stroke:#000000; stroke-width:2; stroke-opacity:0.1; fill:none" points="
  799.252,1470.7 799.252,47.2441 
  "/>
<polyline clip-path="url(#clip682)" style="stroke:#000000; stroke-width:2; stroke-opacity:0.1; fill:none" points="
  1023.07,1470.7 1023.07,47.2441 
  "/>
<polyline clip-path="url(#clip682)" style="stroke:#000000; stroke-width:2; stroke-opacity:0.1; fill:none" points="
  1246.88,1470.7 1246.88,47.2441 
  "/>
<polyline clip-path="url(#clip682)" style="stroke:#000000; stroke-width:2; stroke-opacity:0.1; fill:none" points="
  1470.69,1470.7 1470.69,47.2441 
  "/>
<polyline clip-path="url(#clip682)" style="stroke:#000000; stroke-width:2; stroke-opacity:0.1; fill:none" points="
  1694.51,1470.7 1694.51,47.2441 
  "/>
<polyline clip-path="url(#clip682)" style="stroke:#000000; stroke-width:2; stroke-opacity:0.1; fill:none" points="
  772.395,1430.41 1721.37,1430.41 
  "/>
<polyline clip-path="url(#clip682)" style="stroke:#000000; stroke-width:2; stroke-opacity:0.1; fill:none" points="
  772.395,982.786 1721.37,982.786 
  "/>
<polyline clip-path="url(#clip682)" style="stroke:#000000; stroke-width:2; stroke-opacity:0.1; fill:none" points="
  772.395,535.158 1721.37,535.158 
  "/>
<polyline clip-path="url(#clip682)" style="stroke:#000000; stroke-width:2; stroke-opacity:0.1; fill:none" points="
  772.395,87.5306 1721.37,87.5306 
  "/>
<polyline clip-path="url(#clip680)" style="stroke:#000000; stroke-width:4; stroke-opacity:1; fill:none" points="
  772.395,1470.7 1721.37,1470.7 
  "/>
<polyline clip-path="url(#clip680)" style="stroke:#000000; stroke-width:4; stroke-opacity:1; fill:none" points="
  772.395,1470.7 772.395,47.2441 
  "/>
<polyline clip-path="url(#clip680)" style="stroke:#000000; stroke-width:4; stroke-opacity:1; fill:none" points="
  799.252,1470.7 799.252,1453.62 
  "/>
<polyline clip-path="url(#clip680)" style="stroke:#000000; stroke-width:4; stroke-opacity:1; fill:none" points="
  1023.07,1470.7 1023.07,1453.62 
  "/>
<polyline clip-path="url(#clip680)" style="stroke:#000000; stroke-width:4; stroke-opacity:1; fill:none" points="
  1246.88,1470.7 1246.88,1453.62 
  "/>
<polyline clip-path="url(#clip680)" style="stroke:#000000; stroke-width:4; stroke-opacity:1; fill:none" points="
  1470.69,1470.7 1470.69,1453.62 
  "/>
<polyline clip-path="url(#clip680)" style="stroke:#000000; stroke-width:4; stroke-opacity:1; fill:none" points="
  1694.51,1470.7 1694.51,1453.62 
  "/>
<polyline clip-path="url(#clip680)" style="stroke:#000000; stroke-width:4; stroke-opacity:1; fill:none" points="
  772.395,1430.41 783.782,1430.41 
  "/>
<polyline clip-path="url(#clip680)" style="stroke:#000000; stroke-width:4; stroke-opacity:1; fill:none" points="
  772.395,982.786 783.782,982.786 
  "/>
<polyline clip-path="url(#clip680)" style="stroke:#000000; stroke-width:4; stroke-opacity:1; fill:none" points="
  772.395,535.158 783.782,535.158 
  "/>
<polyline clip-path="url(#clip680)" style="stroke:#000000; stroke-width:4; stroke-opacity:1; fill:none" points="
  772.395,87.5306 783.782,87.5306 
  "/>
<path clip-path="url(#clip680)" d="M 0 0 M761.637 1509.29 L774.114 1509.29 L774.114 1513.08 L761.637 1513.08 L761.637 1509.29 Z" fill="#000000" fill-rule="evenodd" fill-opacity="1" /><path clip-path="url(#clip680)" d="M 0 0 M779.993 1520.24 L787.632 1520.24 L787.632 1493.87 L779.322 1495.54 L779.322 1491.28 L787.586 1489.61 L792.262 1489.61 L792.262 1520.24 L799.9 1520.24 L799.9 1524.17 L779.993 1524.17 L779.993 1520.24 Z" fill="#000000" fill-rule="evenodd" fill-opacity="1" /><path clip-path="url(#clip680)" d="M 0 0 M804.97 1518.29 L809.854 1518.29 L809.854 1524.17 L804.97 1524.17 L804.97 1518.29 Z" fill="#000000" fill-rule="evenodd" fill-opacity="1" /><path clip-path="url(#clip680)" d="M 0 0 M824.923 1492.69 Q821.312 1492.69 819.484 1496.26 Q817.678 1499.8 817.678 1506.93 Q817.678 1514.03 819.484 1517.6 Q821.312 1521.14 824.923 1521.14 Q828.558 1521.14 830.363 1517.6 Q832.192 1514.03 832.192 1506.93 Q832.192 1499.8 830.363 1496.26 Q828.558 1492.69 824.923 1492.69 M824.923 1488.99 Q830.734 1488.99 833.789 1493.59 Q836.868 1498.18 836.868 1506.93 Q836.868 1515.65 833.789 1520.26 Q830.734 1524.84 824.923 1524.84 Q819.113 1524.84 816.035 1520.26 Q812.979 1515.65 812.979 1506.93 Q812.979 1498.18 816.035 1493.59 Q819.113 1488.99 824.923 1488.99 Z" fill="#000000" fill-rule="evenodd" fill-opacity="1" /><path clip-path="url(#clip680)" d="M 0 0 M985.335 1509.29 L997.812 1509.29 L997.812 1513.08 L985.335 1513.08 L985.335 1509.29 Z" fill="#000000" fill-rule="evenodd" fill-opacity="1" /><path clip-path="url(#clip680)" d="M 0 0 M1012.88 1492.69 Q1009.27 1492.69 1007.44 1496.26 Q1005.64 1499.8 1005.64 1506.93 Q1005.64 1514.03 1007.44 1517.6 Q1009.27 1521.14 1012.88 1521.14 Q1016.52 1521.14 1018.32 1517.6 Q1020.15 1514.03 1020.15 1506.93 Q1020.15 1499.8 1018.32 1496.26 Q1016.52 1492.69 1012.88 1492.69 M1012.88 1488.99 Q1018.69 1488.99 1021.75 1493.59 Q1024.83 1498.18 1024.83 1506.93 Q1024.83 1515.65 1021.75 1520.26 Q1018.69 1524.84 1012.88 1524.84 Q1007.07 1524.84 1003.99 1520.26 Q1000.94 1515.65 1000.94 1506.93 Q1000.94 1498.18 1003.99 1493.59 Q1007.07 1488.99 1012.88 1488.99 Z" fill="#000000" fill-rule="evenodd" fill-opacity="1" /><path clip-path="url(#clip680)" d="M 0 0 M1029.89 1518.29 L1034.78 1518.29 L1034.78 1524.17 L1029.89 1524.17 L1029.89 1518.29 Z" fill="#000000" fill-rule="evenodd" fill-opacity="1" /><path clip-path="url(#clip680)" d="M 0 0 M1039.89 1489.61 L1058.25 1489.61 L1058.25 1493.55 L1044.18 1493.55 L1044.18 1502.02 Q1045.2 1501.67 1046.21 1501.51 Q1047.23 1501.32 1048.25 1501.32 Q1054.04 1501.32 1057.42 1504.5 Q1060.8 1507.67 1060.8 1513.08 Q1060.8 1518.66 1057.33 1521.76 Q1053.85 1524.84 1047.53 1524.84 Q1045.36 1524.84 1043.09 1524.47 Q1040.84 1524.1 1038.44 1523.36 L1038.44 1518.66 Q1040.52 1519.8 1042.74 1520.35 Q1044.96 1520.91 1047.44 1520.91 Q1051.45 1520.91 1053.78 1518.8 Q1056.12 1516.7 1056.12 1513.08 Q1056.12 1509.47 1053.78 1507.37 Q1051.45 1505.26 1047.44 1505.26 Q1045.57 1505.26 1043.69 1505.68 Q1041.84 1506.09 1039.89 1506.97 L1039.89 1489.61 Z" fill="#000000" fill-rule="evenodd" fill-opacity="1" /><path clip-path="url(#clip680)" d="M 0 0 M1228.4 1492.69 Q1224.79 1492.69 1222.96 1496.26 Q1221.15 1499.8 1221.15 1506.93 Q1221.15 1514.03 1222.96 1517.6 Q1224.79 1521.14 1228.4 1521.14 Q1232.03 1521.14 1233.84 1517.6 Q1235.66 1514.03 1235.66 1506.93 Q1235.66 1499.8 1233.84 1496.26 Q1232.03 1492.69 1228.4 1492.69 M1228.4 1488.99 Q1234.21 1488.99 1237.26 1493.59 Q1240.34 1498.18 1240.34 1506.93 Q1240.34 1515.65 1237.26 1520.26 Q1234.21 1524.84 1228.4 1524.84 Q1222.59 1524.84 1219.51 1520.26 Q1216.45 1515.65 1216.45 1506.93 Q1216.45 1498.18 1219.51 1493.59 Q1222.59 1488.99 1228.4 1488.99 Z" fill="#000000" fill-rule="evenodd" fill-opacity="1" /><path clip-path="url(#clip680)" d="M 0 0 M1245.41 1518.29 L1250.29 1518.29 L1250.29 1524.17 L1245.41 1524.17 L1245.41 1518.29 Z" fill="#000000" fill-rule="evenodd" fill-opacity="1" /><path clip-path="url(#clip680)" d="M 0 0 M1265.36 1492.69 Q1261.75 1492.69 1259.92 1496.26 Q1258.12 1499.8 1258.12 1506.93 Q1258.12 1514.03 1259.92 1517.6 Q1261.75 1521.14 1265.36 1521.14 Q1269 1521.14 1270.8 1517.6 Q1272.63 1514.03 1272.63 1506.93 Q1272.63 1499.8 1270.8 1496.26 Q1269 1492.69 1265.36 1492.69 M1265.36 1488.99 Q1271.17 1488.99 1274.23 1493.59 Q1277.31 1498.18 1277.31 1506.93 Q1277.31 1515.65 1274.23 1520.26 Q1271.17 1524.84 1265.36 1524.84 Q1259.55 1524.84 1256.47 1520.26 Q1253.42 1515.65 1253.42 1506.93 Q1253.42 1498.18 1256.47 1493.59 Q1259.55 1488.99 1265.36 1488.99 Z" fill="#000000" fill-rule="evenodd" fill-opacity="1" /><path clip-path="url(#clip680)" d="M 0 0 M1452.71 1492.69 Q1449.1 1492.69 1447.27 1496.26 Q1445.46 1499.8 1445.46 1506.93 Q1445.46 1514.03 1447.27 1517.6 Q1449.1 1521.14 1452.71 1521.14 Q1456.34 1521.14 1458.15 1517.6 Q1459.98 1514.03 1459.98 1506.93 Q1459.98 1499.8 1458.15 1496.26 Q1456.34 1492.69 1452.71 1492.69 M1452.71 1488.99 Q1458.52 1488.99 1461.57 1493.59 Q1464.65 1498.18 1464.65 1506.93 Q1464.65 1515.65 1461.57 1520.26 Q1458.52 1524.84 1452.71 1524.84 Q1446.9 1524.84 1443.82 1520.26 Q1440.76 1515.65 1440.76 1506.93 Q1440.76 1498.18 1443.82 1493.59 Q1446.9 1488.99 1452.71 1488.99 Z" fill="#000000" fill-rule="evenodd" fill-opacity="1" /><path clip-path="url(#clip680)" d="M 0 0 M1469.72 1518.29 L1474.61 1518.29 L1474.61 1524.17 L1469.72 1524.17 L1469.72 1518.29 Z" fill="#000000" fill-rule="evenodd" fill-opacity="1" /><path clip-path="url(#clip680)" d="M 0 0 M1479.72 1489.61 L1498.08 1489.61 L1498.08 1493.55 L1484 1493.55 L1484 1502.02 Q1485.02 1501.67 1486.04 1501.51 Q1487.06 1501.32 1488.08 1501.32 Q1493.86 1501.32 1497.24 1504.5 Q1500.62 1507.67 1500.62 1513.08 Q1500.62 1518.66 1497.15 1521.76 Q1493.68 1524.84 1487.36 1524.84 Q1485.18 1524.84 1482.92 1524.47 Q1480.67 1524.1 1478.26 1523.36 L1478.26 1518.66 Q1480.35 1519.8 1482.57 1520.35 Q1484.79 1520.91 1487.27 1520.91 Q1491.27 1520.91 1493.61 1518.8 Q1495.95 1516.7 1495.95 1513.08 Q1495.95 1509.47 1493.61 1507.37 Q1491.27 1505.26 1487.27 1505.26 Q1485.39 1505.26 1483.52 1505.68 Q1481.67 1506.09 1479.72 1506.97 L1479.72 1489.61 Z" fill="#000000" fill-rule="evenodd" fill-opacity="1" /><path clip-path="url(#clip680)" d="M 0 0 M1666.41 1520.24 L1674.04 1520.24 L1674.04 1493.87 L1665.73 1495.54 L1665.73 1491.28 L1674 1489.61 L1678.67 1489.61 L1678.67 1520.24 L1686.31 1520.24 L1686.31 1524.17 L1666.41 1524.17 L1666.41 1520.24 Z" fill="#000000" fill-rule="evenodd" fill-opacity="1" /><path clip-path="url(#clip680)" d="M 0 0 M1691.38 1518.29 L1696.27 1518.29 L1696.27 1524.17 L1691.38 1524.17 L1691.38 1518.29 Z" fill="#000000" fill-rule="evenodd" fill-opacity="1" /><path clip-path="url(#clip680)" d="M 0 0 M1711.34 1492.69 Q1707.72 1492.69 1705.9 1496.26 Q1704.09 1499.8 1704.09 1506.93 Q1704.09 1514.03 1705.9 1517.6 Q1707.72 1521.14 1711.34 1521.14 Q1714.97 1521.14 1716.78 1517.6 Q1718.6 1514.03 1718.6 1506.93 Q1718.6 1499.8 1716.78 1496.26 Q1714.97 1492.69 1711.34 1492.69 M1711.34 1488.99 Q1717.15 1488.99 1720.2 1493.59 Q1723.28 1498.18 1723.28 1506.93 Q1723.28 1515.65 1720.2 1520.26 Q1717.15 1524.84 1711.34 1524.84 Q1705.53 1524.84 1702.45 1520.26 Q1699.39 1515.65 1699.39 1506.93 Q1699.39 1498.18 1702.45 1493.59 Q1705.53 1488.99 1711.34 1488.99 Z" fill="#000000" fill-rule="evenodd" fill-opacity="1" /><path clip-path="url(#clip680)" d="M 0 0 M710.131 1432.81 L722.608 1432.81 L722.608 1436.61 L710.131 1436.61 L710.131 1432.81 Z" fill="#000000" fill-rule="evenodd" fill-opacity="1" /><path clip-path="url(#clip680)" d="M 0 0 M728.487 1443.76 L736.126 1443.76 L736.126 1417.39 L727.816 1419.06 L727.816 1414.8 L736.08 1413.13 L740.756 1413.13 L740.756 1443.76 L748.395 1443.76 L748.395 1447.69 L728.487 1447.69 L728.487 1443.76 Z" fill="#000000" fill-rule="evenodd" fill-opacity="1" /><path clip-path="url(#clip680)" d="M 0 0 M736.45 968.584 Q732.839 968.584 731.01 972.149 Q729.205 975.691 729.205 982.82 Q729.205 989.927 731.01 993.492 Q732.839 997.033 736.45 997.033 Q740.084 997.033 741.89 993.492 Q743.719 989.927 743.719 982.82 Q743.719 975.691 741.89 972.149 Q740.084 968.584 736.45 968.584 M736.45 964.881 Q742.26 964.881 745.316 969.487 Q748.395 974.071 748.395 982.82 Q748.395 991.547 745.316 996.154 Q742.26 1000.74 736.45 1000.74 Q730.64 1000.74 727.561 996.154 Q724.506 991.547 724.506 982.82 Q724.506 974.071 727.561 969.487 Q730.64 964.881 736.45 964.881 Z" fill="#000000" fill-rule="evenodd" fill-opacity="1" /><path clip-path="url(#clip680)" d="M 0 0 M728.487 548.503 L736.126 548.503 L736.126 522.137 L727.816 523.804 L727.816 519.545 L736.08 517.878 L740.756 517.878 L740.756 548.503 L748.395 548.503 L748.395 552.438 L728.487 552.438 L728.487 548.503 Z" fill="#000000" fill-rule="evenodd" fill-opacity="1" /><path clip-path="url(#clip680)" d="M 0 0 M732.075 100.875 L748.395 100.875 L748.395 104.811 L726.45 104.811 L726.45 100.875 Q729.112 98.1208 733.696 93.4912 Q738.302 88.8384 739.483 87.4959 Q741.728 84.9727 742.608 83.2366 Q743.51 81.4774 743.51 79.7876 Q743.51 77.0329 741.566 75.2968 Q739.645 73.5607 736.543 73.5607 Q734.344 73.5607 731.89 74.3246 Q729.46 75.0885 726.682 76.6394 L726.682 71.9172 Q729.506 70.783 731.96 70.2043 Q734.413 69.6256 736.45 69.6256 Q741.821 69.6256 745.015 72.3108 Q748.209 74.9959 748.209 79.4866 Q748.209 81.6163 747.399 83.5375 Q746.612 85.4357 744.506 88.0283 Q743.927 88.6996 740.825 91.9171 Q737.723 95.1116 732.075 100.875 Z" fill="#000000" fill-rule="evenodd" fill-opacity="1" /><path clip-path="url(#clip680)" d="M 0 0 M1261.04 1521.01 Q1261.04 1522.81 1259.91 1523.84 Q1258.79 1524.84 1257.5 1524.84 Q1256.27 1524.84 1255.63 1524.13 Q1254.99 1523.42 1254.99 1522.52 Q1254.99 1521.3 1255.89 1520.23 Q1256.79 1519.17 1258.14 1518.95 Q1256.82 1518.11 1254.86 1518.11 Q1253.57 1518.11 1252.44 1518.78 Q1251.35 1519.46 1250.67 1520.33 Q1250.03 1521.2 1249.45 1522.46 Q1248.9 1523.68 1248.67 1524.42 Q1248.48 1525.13 1248.32 1525.9 L1246.06 1534.92 Q1244.97 1539.2 1244.97 1540.72 Q1244.97 1542.58 1245.87 1543.84 Q1246.77 1545.06 1248.58 1545.06 Q1249.28 1545.06 1250.09 1544.87 Q1250.9 1544.65 1251.93 1544.07 Q1252.99 1543.45 1253.92 1542.55 Q1254.89 1541.62 1255.82 1540.04 Q1256.76 1538.46 1257.37 1536.43 Q1257.56 1535.73 1258.21 1535.73 Q1259.01 1535.73 1259.01 1536.37 Q1259.01 1536.92 1258.56 1538.08 Q1258.14 1539.2 1257.21 1540.68 Q1256.31 1542.13 1255.11 1543.45 Q1253.92 1544.74 1252.15 1545.64 Q1250.38 1546.55 1248.45 1546.55 Q1245.68 1546.55 1243.84 1545.06 Q1242.01 1543.58 1241.33 1541.52 Q1241.17 1541.81 1240.94 1542.2 Q1240.72 1542.58 1240.04 1543.45 Q1239.4 1544.29 1238.66 1544.94 Q1237.92 1545.55 1236.76 1546.03 Q1235.63 1546.55 1234.41 1546.55 Q1232.86 1546.55 1231.47 1546.1 Q1230.12 1545.64 1229.16 1544.61 Q1228.19 1543.58 1228.19 1542.17 Q1228.19 1540.59 1229.25 1539.49 Q1230.35 1538.37 1231.83 1538.37 Q1232.76 1538.37 1233.5 1538.91 Q1234.28 1539.46 1234.28 1540.65 Q1234.28 1541.97 1233.38 1542.97 Q1232.47 1543.97 1231.19 1544.23 Q1232.51 1545.06 1234.47 1545.06 Q1236.6 1545.06 1238.27 1543.2 Q1239.95 1541.33 1240.75 1538.2 Q1242.75 1530.7 1243.52 1527.35 Q1244.29 1523.97 1244.29 1522.52 Q1244.29 1521.17 1243.94 1520.23 Q1243.58 1519.3 1242.97 1518.88 Q1242.39 1518.43 1241.85 1518.27 Q1241.33 1518.11 1240.75 1518.11 Q1239.78 1518.11 1238.69 1518.49 Q1237.63 1518.88 1236.34 1519.78 Q1235.08 1520.65 1233.89 1522.46 Q1232.7 1524.26 1231.89 1526.74 Q1231.73 1527.48 1231.02 1527.48 Q1230.25 1527.45 1230.25 1526.8 Q1230.25 1526.26 1230.67 1525.13 Q1231.12 1523.97 1232.02 1522.52 Q1232.96 1521.07 1234.15 1519.78 Q1235.37 1518.46 1237.14 1517.56 Q1238.95 1516.66 1240.88 1516.66 Q1241.75 1516.66 1242.59 1516.85 Q1243.46 1517.01 1244.49 1517.5 Q1245.55 1517.98 1246.48 1519.04 Q1247.42 1520.11 1248 1521.65 Q1248.38 1520.91 1248.9 1520.2 Q1249.45 1519.49 1250.28 1518.62 Q1251.15 1517.72 1252.34 1517.21 Q1253.57 1516.66 1254.92 1516.66 Q1256.24 1516.66 1257.53 1517.01 Q1258.82 1517.34 1259.91 1518.4 Q1261.04 1519.43 1261.04 1521.01 Z" fill="#000000" fill-rule="evenodd" fill-opacity="1" /><path clip-path="url(#clip680)" d="M 0 0 M688.215 744.546 Q688.666 744.546 689.729 744.836 L714.914 751.148 Q720.518 752.533 724.447 757.042 Q728.376 761.518 728.376 766.607 Q728.376 769.667 726.734 771.631 Q725.123 773.596 722.644 773.596 Q720.454 773.596 719.391 772.436 Q718.36 771.277 718.36 769.892 Q718.36 769.441 718.489 768.958 Q718.618 768.475 719.165 767.96 Q719.713 767.444 720.647 767.444 Q722.16 767.444 723.352 768.765 Q723.9 769.409 724.028 770.021 Q724.157 770.601 724.157 771.599 Q725.059 771.212 725.671 770.504 Q726.283 769.795 726.508 768.99 Q726.766 768.185 726.83 767.67 Q726.927 767.122 726.927 766.607 Q726.927 762.485 722.772 759.328 Q721.516 758.395 720.26 757.718 Q719.036 757.01 717.523 756.494 Q716.041 755.979 715.236 755.754 Q714.431 755.496 712.595 755.045 Q715.59 758.04 715.59 761.712 Q715.59 763.258 715.172 764.642 Q714.753 765.995 713.884 767.187 Q712.982 768.378 711.404 769.087 Q709.826 769.763 707.732 769.763 Q705.51 769.763 702.483 768.894 Q699.455 768.024 693.884 765.931 Q690.76 764.803 689.246 764.803 Q688.505 764.803 688.054 764.965 Q687.571 765.126 687.41 765.448 Q687.217 765.77 687.185 765.963 Q687.153 766.124 687.153 766.446 Q687.153 768.346 689.085 770.117 Q691.017 771.889 695.333 773.113 Q696.138 773.37 696.331 773.531 Q696.525 773.692 696.525 774.175 Q696.492 774.981 695.848 774.981 Q695.591 774.981 694.592 774.691 Q693.562 774.401 692.048 773.725 Q690.502 773.016 689.117 772.05 Q687.7 771.084 686.702 769.57 Q685.703 768.024 685.703 766.253 Q685.703 763.837 687.281 762.356 Q688.827 760.842 691.114 760.842 Q692.048 760.842 692.885 761.1 Q693.69 761.325 695.848 762.163 Q704.544 765.544 708.795 765.544 Q709.826 765.544 710.695 765.383 Q711.532 765.19 712.37 764.771 Q713.175 764.353 713.658 763.515 Q714.109 762.646 714.109 761.454 Q714.109 759.94 713.4 758.523 Q712.66 757.074 711.661 756.172 Q710.663 755.238 709.826 754.691 Q708.956 754.111 708.505 753.982 L696.653 751.019 L691.372 749.699 Q688.505 749.087 687.797 748.797 Q687.12 748.411 686.766 747.734 Q686.412 747.058 686.412 746.478 Q686.412 745.673 686.895 745.126 Q687.378 744.546 688.215 744.546 Z" fill="#000000" fill-rule="evenodd" fill-opacity="1" /><polyline clip-path="url(#clip682)" style="stroke:#009af9; stroke-width:4; stroke-opacity:1; fill:none" points="
  1694.51,982.786 1694.49,978.31 1694.42,973.834 1694.31,969.359 1694.15,964.885 1693.95,960.414 1693.7,955.944 1693.41,951.477 1693.08,947.014 1692.7,942.554 
  1692.27,938.098 1691.8,933.646 1691.29,929.199 1690.73,924.758 1690.13,920.322 1689.48,915.893 1688.79,911.471 1688.05,907.055 1687.28,902.647 1686.45,898.247 
  1685.58,893.856 1684.67,889.473 1683.72,885.1 1682.72,880.737 1681.68,876.384 1680.59,872.041 1679.46,867.709 1678.29,863.389 1677.07,859.081 1675.82,854.786 
  1674.51,850.503 1673.17,846.233 1671.78,841.977 1670.35,837.735 1668.88,833.508 1667.37,829.295 1665.81,825.098 1664.22,820.917 1662.58,816.752 1660.89,812.603 
  1659.17,808.471 1657.41,804.357 1655.6,800.261 1653.76,796.183 1651.87,792.124 1649.94,788.083 1647.98,784.062 1645.97,780.061 1643.92,776.081 1641.84,772.121 
  1639.71,768.182 1637.54,764.264 1635.34,760.369 1633.1,756.495 1630.81,752.644 1628.49,748.817 1626.13,745.012 1623.74,741.232 1621.3,737.475 1618.83,733.743 
  1616.32,730.036 1613.78,726.354 1611.19,722.698 1608.58,719.068 1605.92,715.465 1603.23,711.888 1600.5,708.338 1597.74,704.815 1594.94,701.321 1592.11,697.854 
  1589.24,694.416 1586.34,691.007 1583.41,687.627 1580.44,684.277 1577.44,680.956 1574.4,677.665 1571.34,674.406 1568.24,671.176 1565.1,667.978 1561.94,664.812 
  1558.75,661.677 1555.52,658.575 1552.26,655.505 1548.97,652.467 1545.65,649.463 1542.31,646.492 1538.93,643.555 1535.52,640.651 1532.09,637.782 1528.62,634.947 
  1525.13,632.147 1521.61,629.382 1518.06,626.653 1514.49,623.959 1510.89,621.3 1507.26,618.679 1503.6,616.093 1499.92,613.544 1496.22,611.032 1492.49,608.557 
  1488.73,606.12 1484.96,603.72 1481.15,601.359 1477.33,599.035 1473.48,596.75 1469.61,594.503 1465.71,592.295 1461.8,590.127 1457.86,587.997 1453.9,585.907 
  1449.92,583.857 1445.92,581.846 1441.9,579.876 1437.86,577.946 1433.81,576.056 1429.73,574.207 1425.64,572.399 1421.52,570.632 1417.39,568.907 1413.25,567.222 
  1409.08,565.579 1404.9,563.978 1400.71,562.419 1396.49,560.902 1392.27,559.427 1388.03,557.994 1383.77,556.604 1379.5,555.256 1375.22,553.951 1370.93,552.689 
  1366.62,551.471 1362.3,550.295 1357.97,549.162 1353.63,548.073 1349.28,547.027 1344.91,546.025 1340.54,545.067 1336.16,544.152 1331.77,543.281 1327.37,542.454 
  1322.96,541.671 1318.55,540.933 1314.12,540.238 1309.7,539.588 1305.26,538.982 1300.82,538.42 1296.37,537.903 1291.92,537.43 1287.47,537.002 1283.01,536.618 
  1278.54,536.279 1274.08,535.985 1269.61,535.736 1265.14,535.531 1260.66,535.37 1256.19,535.255 1251.71,535.184 1247.24,535.158 1242.76,535.177 1238.28,535.241 
  1233.81,535.349 1229.34,535.502 1224.86,535.7 1220.39,535.942 1215.93,536.23 1211.46,536.561 1207,536.938 1202.55,537.359 1198.09,537.825 1193.65,538.335 
  1189.21,538.889 1184.77,539.488 1180.34,540.131 1175.92,540.819 1171.5,541.551 1167.09,542.327 1162.69,543.146 1158.3,544.01 1153.92,544.918 1149.54,545.869 
  1145.18,546.865 1140.82,547.903 1136.48,548.986 1132.15,550.111 1127.83,551.28 1123.52,552.492 1119.22,553.748 1114.94,555.046 1110.67,556.386 1106.41,557.77 
  1102.17,559.196 1097.94,560.664 1093.72,562.175 1089.53,563.727 1085.34,565.322 1081.18,566.958 1077.03,568.636 1072.89,570.355 1068.78,572.115 1064.68,573.917 
  1060.6,575.759 1056.54,577.642 1052.5,579.566 1048.48,581.53 1044.47,583.534 1040.49,585.578 1036.53,587.662 1032.59,589.785 1028.67,591.947 1024.77,594.149 
  1020.9,596.389 1017.04,598.669 1013.21,600.986 1009.41,603.342 1005.63,605.735 1001.87,608.167 998.134,610.636 994.425,613.142 990.741,615.685 987.083,618.264 
  983.451,620.88 979.845,623.533 976.266,626.221 972.714,628.945 969.189,631.704 965.692,634.499 962.223,637.328 958.783,640.192 955.372,643.09 951.989,646.022 
  948.636,648.988 945.313,651.987 942.02,655.019 938.758,658.084 935.527,661.181 932.326,664.311 929.157,667.472 926.02,670.665 922.915,673.889 919.842,677.144 
  916.802,680.43 913.795,683.746 910.821,687.091 907.881,690.467 904.975,693.871 902.103,697.305 899.266,700.767 896.463,704.257 893.695,707.775 890.963,711.32 
  888.266,714.893 885.605,718.493 882.98,722.118 880.392,725.77 877.84,729.448 875.325,733.151 872.847,736.879 870.407,740.632 868.004,744.408 865.639,748.209 
  863.313,752.033 861.025,755.88 858.775,759.75 856.564,763.642 854.392,767.556 852.259,771.492 850.166,775.449 848.113,779.426 846.099,783.424 844.126,787.441 
  842.192,791.479 840.299,795.535 838.447,799.61 836.636,803.704 834.866,807.815 833.137,811.944 831.449,816.09 829.803,820.252 828.198,824.431 826.636,828.626 
  825.115,832.836 823.637,837.061 822.201,841.301 820.807,845.554 819.456,849.822 818.148,854.103 816.883,858.396 815.66,862.702 814.481,867.021 813.345,871.35 
  812.252,875.691 811.203,880.043 810.197,884.405 809.235,888.776 808.317,893.157 807.443,897.547 806.612,901.946 805.826,906.353 805.084,910.767 804.386,915.188 
  803.732,919.617 803.122,924.051 802.557,928.492 802.037,932.937 801.56,937.388 801.129,941.844 800.741,946.303 800.399,950.766 800.101,955.233 799.848,959.702 
  799.639,964.173 799.476,968.646 799.357,973.121 799.282,977.597 799.253,982.073 799.268,986.549 799.328,991.025 799.433,995.5 799.582,999.974 799.777,1004.45 
  800.016,1008.92 800.299,1013.38 800.628,1017.85 801,1022.31 801.418,1026.76 801.88,1031.22 802.387,1035.66 802.938,1040.11 803.533,1044.54 804.173,1048.97 
  804.857,1053.4 805.585,1057.81 806.357,1062.22 807.174,1066.62 808.034,1071.02 808.938,1075.4 809.886,1079.78 810.878,1084.14 811.913,1088.5 812.992,1092.84 
  814.114,1097.17 815.28,1101.49 816.488,1105.8 817.74,1110.1 819.035,1114.39 820.372,1118.66 821.752,1122.92 823.175,1127.16 824.64,1131.39 826.147,1135.61 
  827.696,1139.81 829.287,1143.99 830.92,1148.16 832.595,1152.31 834.31,1156.44 836.068,1160.56 837.866,1164.66 839.705,1168.74 841.585,1172.8 843.505,1176.85 
  845.466,1180.87 847.467,1184.87 849.508,1188.86 851.588,1192.82 853.708,1196.76 855.868,1200.68 858.066,1204.58 860.304,1208.46 862.58,1212.32 864.894,1216.15 
  867.247,1219.96 869.638,1223.74 872.066,1227.5 874.532,1231.24 877.035,1234.95 879.575,1238.63 882.152,1242.29 884.765,1245.93 887.414,1249.53 890.1,1253.12 
  892.821,1256.67 895.577,1260.2 898.369,1263.7 901.196,1267.17 904.057,1270.61 906.952,1274.02 909.881,1277.41 912.844,1280.76 915.841,1284.09 918.87,1287.38 
  921.933,1290.65 925.027,1293.88 928.154,1297.09 931.313,1300.26 934.504,1303.4 937.725,1306.5 940.978,1309.58 944.261,1312.62 947.575,1315.63 950.918,1318.61 
  954.291,1321.55 957.693,1324.46 961.124,1327.34 964.584,1330.18 968.072,1332.98 971.588,1335.75 975.131,1338.49 978.702,1341.19 982.299,1343.85 985.923,1346.48 
  989.573,1349.07 993.248,1351.62 996.949,1354.14 1000.68,1356.62 1004.43,1359.07 1008.2,1361.47 1012,1363.84 1015.82,1366.17 1019.67,1368.46 1023.54,1370.71 
  1027.43,1372.93 1031.34,1375.1 1035.27,1377.24 1039.23,1379.33 1043.2,1381.39 1047.2,1383.41 1051.21,1385.38 1055.25,1387.32 1059.31,1389.22 1063.38,1391.07 
  1067.47,1392.89 1071.58,1394.66 1075.71,1396.39 1079.85,1398.08 1084.01,1399.73 1088.19,1401.34 1092.39,1402.91 1096.59,1404.43 1100.82,1405.91 1105.06,1407.35 
  1109.31,1408.75 1113.58,1410.1 1117.86,1411.42 1122.15,1412.68 1126.45,1413.91 1130.77,1415.09 1135.1,1416.23 1139.44,1417.33 1143.79,1418.38 1148.15,1419.39 
  1152.52,1420.36 1156.9,1421.28 1161.29,1422.15 1165.69,1422.99 1170.1,1423.78 1174.51,1424.52 1178.93,1425.23 1183.36,1425.88 1187.79,1426.5 1192.23,1427.07 
  1196.68,1427.59 1201.13,1428.07 1205.58,1428.5 1210.04,1428.89 1214.5,1429.24 1218.97,1429.54 1223.44,1429.8 1227.91,1430.01 1232.38,1430.18 1236.86,1430.3 
  1241.33,1430.38 1245.81,1430.41 1250.29,1430.4 1254.76,1430.34 1259.24,1430.24 1263.71,1430.1 1268.18,1429.91 1272.65,1429.67 1277.12,1429.39 1281.59,1429.07 
  1286.05,1428.7 1290.5,1428.28 1294.96,1427.82 1299.4,1427.32 1303.85,1426.77 1308.28,1426.18 1312.71,1425.55 1317.14,1424.87 1321.56,1424.14 1325.97,1423.37 
  1330.37,1422.56 1334.76,1421.7 1339.15,1420.8 1343.52,1419.86 1347.89,1418.87 1352.24,1417.84 1356.59,1416.76 1360.92,1415.64 1365.25,1414.48 1369.56,1413.27 
  1373.85,1412.03 1378.14,1410.74 1382.41,1409.4 1386.67,1408.02 1390.92,1406.61 1395.15,1405.14 1399.37,1403.64 1403.57,1402.09 1407.75,1400.51 1411.92,1398.88 
  1416.07,1397.21 1420.21,1395.49 1424.33,1393.74 1428.43,1391.94 1432.51,1390.11 1436.57,1388.23 1440.62,1386.31 1444.64,1384.36 1448.65,1382.36 1452.64,1380.32 
  1456.6,1378.24 1460.54,1376.13 1464.47,1373.97 1468.37,1371.78 1472.25,1369.54 1476.1,1367.27 1479.94,1364.96 1483.75,1362.61 1487.53,1360.22 1491.3,1357.79 
  1495.03,1355.33 1498.75,1352.83 1502.43,1350.29 1506.1,1347.72 1509.73,1345.11 1513.34,1342.46 1516.93,1339.78 1520.48,1337.06 1524.01,1334.31 1527.51,1331.52 
  1530.99,1328.7 1534.43,1325.84 1537.85,1322.95 1541.23,1320.02 1544.59,1317.06 1547.92,1314.06 1551.22,1311.04 1554.48,1307.98 1557.72,1304.89 1560.93,1301.76 
  1564.1,1298.61 1567.24,1295.42 1570.35,1292.2 1573.43,1288.95 1576.48,1285.67 1579.49,1282.36 1582.47,1279.01 1585.41,1275.64 1588.32,1272.24 1591.2,1268.82 
  1594.04,1265.36 1596.85,1261.87 1599.63,1258.36 1602.36,1254.82 1605.07,1251.25 1607.73,1247.65 1610.36,1244.03 1612.96,1240.38 1615.52,1236.71 1618.04,1233.01 
  1620.52,1229.29 1622.97,1225.54 1625.38,1221.77 1627.75,1217.97 1630.08,1214.15 1632.37,1210.31 1634.63,1206.44 1636.85,1202.55 1639.02,1198.64 1641.16,1194.71 
  1643.26,1190.75 1645.32,1186.78 1647.34,1182.79 1649.32,1178.77 1651.26,1174.74 1653.16,1170.68 1655.02,1166.61 1656.84,1162.52 1658.61,1158.41 1660.35,1154.29 
  1662.04,1150.14 1663.7,1145.98 1665.31,1141.81 1666.88,1137.61 1668.41,1133.41 1669.89,1129.18 1671.33,1124.95 1672.73,1120.7 1674.09,1116.43 1675.41,1112.15 
  1676.68,1107.86 1677.91,1103.56 1679.09,1099.24 1680.24,1094.91 1681.34,1090.57 1682.39,1086.22 1683.41,1081.86 1684.37,1077.49 1685.3,1073.11 1686.18,1068.72 
  1687.02,1064.33 1687.81,1059.92 1688.56,1055.51 1689.27,1051.09 1689.93,1046.66 1690.54,1042.23 1691.12,1037.79 1691.64,1033.34 1692.13,1028.89 1692.57,1024.44 
  1692.96,1019.98 1693.31,1015.52 1693.61,1011.05 1693.87,1006.58 1694.09,1002.11 1694.26,997.638 1694.39,993.163 1694.47,988.688 1694.51,984.212 
  "/>
</svg>
