<?xml version="1.0" encoding="utf-8" standalone="no"?>
<!DOCTYPE svg PUBLIC "-//W3C//DTD SVG 1.1//EN"
  "http://www.w3.org/Graphics/SVG/1.1/DTD/svg11.dtd">
<!-- Created with matplotlib (https://matplotlib.org/) -->
<svg height="288pt" version="1.1" viewBox="0 0 432 288" width="432pt" xmlns="http://www.w3.org/2000/svg" xmlns:xlink="http://www.w3.org/1999/xlink">
 <defs>
  <style type="text/css">
*{stroke-linecap:butt;stroke-linejoin:round;}
  </style>
 </defs>
 <g id="figure_1">
  <g id="patch_1">
   <path d="M 0 288 
L 432 288 
L 432 0 
L 0 0 
z
" style="fill:#ffffff;"/>
  </g>
  <g id="axes_1">
   <g id="patch_2">
    <path d="M 143.404245 259.665354 
L 314.624717 259.665354 
L 314.624717 2.834646 
L 143.404245 2.834646 
z
" style="fill:#ffffff;"/>
   </g>
   <g id="matplotlib.axis_1">
    <g id="xtick_1">
     <g id="line2d_1">
      <path clip-path="url(#p63e0a3d55f)" d="M 148.250107 259.665354 
L 148.250107 2.834646 
" style="fill:none;stroke:#000000;stroke-linecap:square;stroke-opacity:0.1;stroke-width:0.5;"/>
     </g>
     <g id="line2d_2">
      <defs>
       <path d="M 0 0 
L 0 -3.5 
" id="m9f198f6e49" style="stroke:#000000;stroke-width:0.5;"/>
      </defs>
      <g>
       <use style="stroke:#000000;stroke-width:0.5;" x="148.250107" xlink:href="#m9f198f6e49" y="259.665354"/>
      </g>
     </g>
     <g id="text_1">
      <!-- -1.0 -->
      <defs>
       <path d="M 4.890625 31.390625 
L 31.203125 31.390625 
L 31.203125 23.390625 
L 4.890625 23.390625 
z
" id="DejaVuSans-45"/>
       <path d="M 12.40625 8.296875 
L 28.515625 8.296875 
L 28.515625 63.921875 
L 10.984375 60.40625 
L 10.984375 69.390625 
L 28.421875 72.90625 
L 38.28125 72.90625 
L 38.28125 8.296875 
L 54.390625 8.296875 
L 54.390625 0 
L 12.40625 0 
z
" id="DejaVuSans-49"/>
       <path d="M 10.6875 12.40625 
L 21 12.40625 
L 21 0 
L 10.6875 0 
z
" id="DejaVuSans-46"/>
       <path d="M 31.78125 66.40625 
Q 24.171875 66.40625 20.328125 58.90625 
Q 16.5 51.421875 16.5 36.375 
Q 16.5 21.390625 20.328125 13.890625 
Q 24.171875 6.390625 31.78125 6.390625 
Q 39.453125 6.390625 43.28125 13.890625 
Q 47.125 21.390625 47.125 36.375 
Q 47.125 51.421875 43.28125 58.90625 
Q 39.453125 66.40625 31.78125 66.40625 
z
M 31.78125 74.21875 
Q 44.046875 74.21875 50.515625 64.515625 
Q 56.984375 54.828125 56.984375 36.375 
Q 56.984375 17.96875 50.515625 8.265625 
Q 44.046875 -1.421875 31.78125 -1.421875 
Q 19.53125 -1.421875 13.0625 8.265625 
Q 6.59375 17.96875 6.59375 36.375 
Q 6.59375 54.828125 13.0625 64.515625 
Q 19.53125 74.21875 31.78125 74.21875 
z
" id="DejaVuSans-48"/>
      </defs>
      <g transform="translate(140.445732 269.244104)scale(0.08 -0.08)">
       <use xlink:href="#DejaVuSans-45"/>
       <use x="36.083984" xlink:href="#DejaVuSans-49"/>
       <use x="99.707031" xlink:href="#DejaVuSans-46"/>
       <use x="131.494141" xlink:href="#DejaVuSans-48"/>
      </g>
     </g>
    </g>
    <g id="xtick_2">
     <g id="line2d_3">
      <path clip-path="url(#p63e0a3d55f)" d="M 188.632294 259.665354 
L 188.632294 2.834646 
" style="fill:none;stroke:#000000;stroke-linecap:square;stroke-opacity:0.1;stroke-width:0.5;"/>
     </g>
     <g id="line2d_4">
      <g>
       <use style="stroke:#000000;stroke-width:0.5;" x="188.632294" xlink:href="#m9f198f6e49" y="259.665354"/>
      </g>
     </g>
     <g id="text_2">
      <!-- -0.5 -->
      <defs>
       <path d="M 10.796875 72.90625 
L 49.515625 72.90625 
L 49.515625 64.59375 
L 19.828125 64.59375 
L 19.828125 46.734375 
Q 21.96875 47.46875 24.109375 47.828125 
Q 26.265625 48.1875 28.421875 48.1875 
Q 40.625 48.1875 47.75 41.5 
Q 54.890625 34.8125 54.890625 23.390625 
Q 54.890625 11.625 47.5625 5.09375 
Q 40.234375 -1.421875 26.90625 -1.421875 
Q 22.3125 -1.421875 17.546875 -0.640625 
Q 12.796875 0.140625 7.71875 1.703125 
L 7.71875 11.625 
Q 12.109375 9.234375 16.796875 8.0625 
Q 21.484375 6.890625 26.703125 6.890625 
Q 35.15625 6.890625 40.078125 11.328125 
Q 45.015625 15.765625 45.015625 23.390625 
Q 45.015625 31 40.078125 35.4375 
Q 35.15625 39.890625 26.703125 39.890625 
Q 22.75 39.890625 18.8125 39.015625 
Q 14.890625 38.140625 10.796875 36.28125 
z
" id="DejaVuSans-53"/>
      </defs>
      <g transform="translate(180.827919 269.244104)scale(0.08 -0.08)">
       <use xlink:href="#DejaVuSans-45"/>
       <use x="36.083984" xlink:href="#DejaVuSans-48"/>
       <use x="99.707031" xlink:href="#DejaVuSans-46"/>
       <use x="131.494141" xlink:href="#DejaVuSans-53"/>
      </g>
     </g>
    </g>
    <g id="xtick_3">
     <g id="line2d_5">
      <path clip-path="url(#p63e0a3d55f)" d="M 229.014481 259.665354 
L 229.014481 2.834646 
" style="fill:none;stroke:#000000;stroke-linecap:square;stroke-opacity:0.1;stroke-width:0.5;"/>
     </g>
     <g id="line2d_6">
      <g>
       <use style="stroke:#000000;stroke-width:0.5;" x="229.014481" xlink:href="#m9f198f6e49" y="259.665354"/>
      </g>
     </g>
     <g id="text_3">
      <!-- 0.0 -->
      <g transform="translate(222.653231 269.244104)scale(0.08 -0.08)">
       <use xlink:href="#DejaVuSans-48"/>
       <use x="63.623047" xlink:href="#DejaVuSans-46"/>
       <use x="95.410156" xlink:href="#DejaVuSans-48"/>
      </g>
     </g>
    </g>
    <g id="xtick_4">
     <g id="line2d_7">
      <path clip-path="url(#p63e0a3d55f)" d="M 269.396668 259.665354 
L 269.396668 2.834646 
" style="fill:none;stroke:#000000;stroke-linecap:square;stroke-opacity:0.1;stroke-width:0.5;"/>
     </g>
     <g id="line2d_8">
      <g>
       <use style="stroke:#000000;stroke-width:0.5;" x="269.396668" xlink:href="#m9f198f6e49" y="259.665354"/>
      </g>
     </g>
     <g id="text_4">
      <!-- 0.5 -->
      <g transform="translate(263.035418 269.244104)scale(0.08 -0.08)">
       <use xlink:href="#DejaVuSans-48"/>
       <use x="63.623047" xlink:href="#DejaVuSans-46"/>
       <use x="95.410156" xlink:href="#DejaVuSans-53"/>
      </g>
     </g>
    </g>
    <g id="xtick_5">
     <g id="line2d_9">
      <path clip-path="url(#p63e0a3d55f)" d="M 309.778855 259.665354 
L 309.778855 2.834646 
" style="fill:none;stroke:#000000;stroke-linecap:square;stroke-opacity:0.1;stroke-width:0.5;"/>
     </g>
     <g id="line2d_10">
      <g>
       <use style="stroke:#000000;stroke-width:0.5;" x="309.778855" xlink:href="#m9f198f6e49" y="259.665354"/>
      </g>
     </g>
     <g id="text_5">
      <!-- 1.0 -->
      <g transform="translate(303.417605 269.244104)scale(0.08 -0.08)">
       <use xlink:href="#DejaVuSans-49"/>
       <use x="63.623047" xlink:href="#DejaVuSans-46"/>
       <use x="95.410156" xlink:href="#DejaVuSans-48"/>
      </g>
     </g>
    </g>
    <g id="text_6">
     <!-- $x$ -->
     <defs>
      <path d="M 60.015625 54.6875 
L 34.90625 27.875 
L 50.296875 0 
L 39.984375 0 
L 28.421875 21.6875 
L 8.296875 0 
L -2.59375 0 
L 24.3125 28.8125 
L 10.015625 54.6875 
L 20.3125 54.6875 
L 30.8125 34.90625 
L 49.125 54.6875 
z
" id="DejaVuSans-Oblique-120"/>
     </defs>
     <g transform="translate(225.714481 283.266136)scale(0.11 -0.11)">
      <use transform="translate(0 0.3125)" xlink:href="#DejaVuSans-Oblique-120"/>
     </g>
    </g>
   </g>
   <g id="matplotlib.axis_2">
    <g id="ytick_1">
     <g id="line2d_11">
      <path clip-path="url(#p63e0a3d55f)" d="M 143.404245 252.396561 
L 314.624717 252.396561 
" style="fill:none;stroke:#000000;stroke-linecap:square;stroke-opacity:0.1;stroke-width:0.5;"/>
     </g>
     <g id="line2d_12">
      <defs>
       <path d="M 0 0 
L 3.5 0 
" id="mc18f2e95a6" style="stroke:#000000;stroke-width:0.5;"/>
      </defs>
      <g>
       <use style="stroke:#000000;stroke-width:0.5;" x="143.404245" xlink:href="#mc18f2e95a6" y="252.396561"/>
      </g>
     </g>
     <g id="text_7">
      <!-- -1 -->
      <g transform="translate(131.927995 255.435936)scale(0.08 -0.08)">
       <use xlink:href="#DejaVuSans-45"/>
       <use x="36.083984" xlink:href="#DejaVuSans-49"/>
      </g>
     </g>
    </g>
    <g id="ytick_2">
     <g id="line2d_13">
      <path clip-path="url(#p63e0a3d55f)" d="M 143.404245 171.632187 
L 314.624717 171.632187 
" style="fill:none;stroke:#000000;stroke-linecap:square;stroke-opacity:0.1;stroke-width:0.5;"/>
     </g>
     <g id="line2d_14">
      <g>
       <use style="stroke:#000000;stroke-width:0.5;" x="143.404245" xlink:href="#mc18f2e95a6" y="171.632187"/>
      </g>
     </g>
     <g id="text_8">
      <!-- 0 -->
      <g transform="translate(134.814245 174.671562)scale(0.08 -0.08)">
       <use xlink:href="#DejaVuSans-48"/>
      </g>
     </g>
    </g>
    <g id="ytick_3">
     <g id="line2d_15">
      <path clip-path="url(#p63e0a3d55f)" d="M 143.404245 90.867813 
L 314.624717 90.867813 
" style="fill:none;stroke:#000000;stroke-linecap:square;stroke-opacity:0.1;stroke-width:0.5;"/>
     </g>
     <g id="line2d_16">
      <g>
       <use style="stroke:#000000;stroke-width:0.5;" x="143.404245" xlink:href="#mc18f2e95a6" y="90.867813"/>
      </g>
     </g>
     <g id="text_9">
      <!-- 1 -->
      <g transform="translate(134.814245 93.907188)scale(0.08 -0.08)">
       <use xlink:href="#DejaVuSans-49"/>
      </g>
     </g>
    </g>
    <g id="ytick_4">
     <g id="line2d_17">
      <path clip-path="url(#p63e0a3d55f)" d="M 143.404245 10.103439 
L 314.624717 10.103439 
" style="fill:none;stroke:#000000;stroke-linecap:square;stroke-opacity:0.1;stroke-width:0.5;"/>
     </g>
     <g id="line2d_18">
      <g>
       <use style="stroke:#000000;stroke-width:0.5;" x="143.404245" xlink:href="#mc18f2e95a6" y="10.103439"/>
      </g>
     </g>
     <g id="text_10">
      <!-- 2 -->
      <defs>
       <path d="M 19.1875 8.296875 
L 53.609375 8.296875 
L 53.609375 0 
L 7.328125 0 
L 7.328125 8.296875 
Q 12.9375 14.109375 22.625 23.890625 
Q 32.328125 33.6875 34.8125 36.53125 
Q 39.546875 41.84375 41.421875 45.53125 
Q 43.3125 49.21875 43.3125 52.78125 
Q 43.3125 58.59375 39.234375 62.25 
Q 35.15625 65.921875 28.609375 65.921875 
Q 23.96875 65.921875 18.8125 64.3125 
Q 13.671875 62.703125 7.8125 59.421875 
L 7.8125 69.390625 
Q 13.765625 71.78125 18.9375 73 
Q 24.125 74.21875 28.421875 74.21875 
Q 39.75 74.21875 46.484375 68.546875 
Q 53.21875 62.890625 53.21875 53.421875 
Q 53.21875 48.921875 51.53125 44.890625 
Q 49.859375 40.875 45.40625 35.40625 
Q 44.1875 33.984375 37.640625 27.21875 
Q 31.109375 20.453125 19.1875 8.296875 
z
" id="DejaVuSans-50"/>
      </defs>
      <g transform="translate(134.814245 13.142814)scale(0.08 -0.08)">
       <use xlink:href="#DejaVuSans-50"/>
      </g>
     </g>
    </g>
    <g id="text_11">
     <!-- $y$ -->
     <defs>
      <path d="M 24.8125 -5.078125 
Q 18.5625 -15.578125 14.625 -18.1875 
Q 10.6875 -20.796875 4.59375 -20.796875 
L -2.484375 -20.796875 
L -0.984375 -13.28125 
L 4.203125 -13.28125 
Q 7.953125 -13.28125 10.59375 -11.234375 
Q 13.234375 -9.1875 16.5 -3.21875 
L 19.28125 2 
L 7.171875 54.6875 
L 16.703125 54.6875 
L 25.78125 12.796875 
L 50.875 54.6875 
L 60.296875 54.6875 
z
" id="DejaVuSans-Oblique-121"/>
     </defs>
     <g transform="translate(125.617995 134.55)rotate(-90)scale(0.11 -0.11)">
      <use transform="translate(0 0.3125)" xlink:href="#DejaVuSans-Oblique-121"/>
     </g>
    </g>
   </g>
   <g id="line2d_19">
    <path clip-path="url(#p63e0a3d55f)" d="M 309.778855 171.632187 
L 309.67792 167.595651 
L 309.375369 163.569204 
L 308.871958 159.56291 
L 308.168945 155.586783 
L 307.268086 151.650761 
L 306.171634 147.764682 
L 304.88233 143.93826 
L 303.403396 140.181058 
L 301.738527 136.502468 
L 299.891887 132.911683 
L 297.86809 129.41768 
L 295.672195 126.029191 
L 293.309691 122.754686 
L 290.786481 119.602349 
L 288.108874 116.580059 
L 285.283562 113.695371 
L 282.317607 110.955495 
L 279.218421 108.36728 
L 275.993752 105.937193 
L 272.651659 103.67131 
L 269.200495 101.575293 
L 265.648888 99.654383 
L 262.005713 97.913379 
L 258.280078 96.356634 
L 254.481294 94.988038 
L 250.618857 93.811013 
L 246.702419 92.828501 
L 242.741771 92.042957 
L 238.746812 91.456344 
L 234.727527 91.070129 
L 230.693962 90.885277 
L 226.6562 90.902251 
L 222.624332 91.121007 
L 218.608436 91.540999 
L 214.61855 92.161178 
L 210.664646 92.979993 
L 206.756607 93.995397 
L 202.904202 95.204853 
L 199.117058 96.605337 
L 195.404642 98.19335 
L 191.776234 99.964921 
L 188.240902 101.915623 
L 184.807482 104.04058 
L 181.484557 106.334481 
L 178.280432 108.791592 
L 175.203116 111.405772 
L 172.2603 114.170487 
L 169.459339 117.078826 
L 166.807236 120.12352 
L 164.310619 123.296959 
L 161.975727 126.591211 
L 159.808398 129.998041 
L 157.814047 133.508936 
L 155.997661 137.115118 
L 154.363778 140.807576 
L 152.916484 144.577079 
L 151.659395 148.414205 
L 150.595653 152.309365 
L 149.727917 156.252821 
L 149.058357 160.234718 
L 148.588645 164.245102 
L 148.319956 168.273951 
L 148.252962 172.311193 
L 148.387829 176.346738 
L 148.72422 180.370499 
L 149.261296 184.372419 
L 149.997713 188.342495 
L 150.931631 192.270804 
L 152.060715 196.147527 
L 153.382143 199.962975 
L 154.892613 203.70761 
L 156.588349 207.372073 
L 158.465113 210.947206 
L 160.518213 214.424071 
L 162.742518 217.793979 
L 165.132469 221.048506 
L 167.682092 224.179519 
L 170.385013 227.17919 
L 173.234478 230.040023 
L 176.223363 232.754867 
L 179.344199 235.316935 
L 182.589185 237.719825 
L 185.95021 239.957531 
L 189.418873 242.024458 
L 192.986504 243.915442 
L 196.644187 245.625755 
L 200.382778 247.151123 
L 204.192934 248.487732 
L 208.065131 249.632243 
L 211.98969 250.581795 
L 215.956803 251.334013 
L 219.956553 251.887019 
L 223.978942 252.239429 
L 228.013918 252.390363 
L 232.051395 252.339443 
L 236.081282 252.086798 
L 240.093505 251.633058 
L 244.078036 250.979357 
L 248.024916 250.12733 
L 251.92428 249.079105 
L 255.766381 247.837304 
L 259.541617 246.40503 
L 263.24055 244.785862 
L 266.853937 242.983849 
L 270.372744 241.003493 
L 273.788177 238.849746 
L 277.0917 236.527989 
L 280.275054 234.044027 
L 283.330283 231.404067 
L 286.249752 228.614709 
L 289.026162 225.682925 
L 291.652574 222.616042 
L 294.122423 219.421725 
L 296.429536 216.10796 
L 298.568147 212.683028 
L 300.53291 209.155491 
L 302.318915 205.534165 
L 303.921696 201.828102 
L 305.337248 198.046564 
L 306.562033 194.199005 
L 307.59299 190.29504 
L 308.427541 186.344427 
L 309.063601 182.357042 
L 309.49958 178.34285 
L 309.734388 174.311886 
L 309.778445 171.889446 
L 309.778445 171.889446 
" style="fill:none;stroke:#009afa;stroke-linecap:round;"/>
   </g>
   <g id="patch_3">
    <path d="M 143.404245 259.665354 
L 143.404245 2.834646 
" style="fill:none;stroke:#000000;stroke-linecap:square;stroke-linejoin:miter;"/>
   </g>
   <g id="patch_4">
    <path d="M 143.404245 259.665354 
L 314.624717 259.665354 
" style="fill:none;stroke:#000000;stroke-linecap:square;stroke-linejoin:miter;"/>
   </g>
   <g id="legend_1">
    <g id="patch_5">
     <path d="M 239.344717 22.194646 
L 310.624717 22.194646 
L 310.624717 6.834646 
L 239.344717 6.834646 
z
" style="fill:#ffffff;stroke:#000000;stroke-linejoin:miter;"/>
    </g>
    <g id="line2d_20">
     <path d="M 242.544717 14.514646 
L 258.544717 14.514646 
" style="fill:none;stroke:#009afa;stroke-linecap:square;"/>
    </g>
    <g id="line2d_21"/>
    <g id="text_12">
     <!-- $x^2+y^2 = 1$ -->
     <defs>
      <path d="M 46 62.703125 
L 46 35.5 
L 73.1875 35.5 
L 73.1875 27.203125 
L 46 27.203125 
L 46 0 
L 37.796875 0 
L 37.796875 27.203125 
L 10.59375 27.203125 
L 10.59375 35.5 
L 37.796875 35.5 
L 37.796875 62.703125 
z
" id="DejaVuSans-43"/>
      <path d="M 10.59375 45.40625 
L 73.1875 45.40625 
L 73.1875 37.203125 
L 10.59375 37.203125 
z
M 10.59375 25.484375 
L 73.1875 25.484375 
L 73.1875 17.1875 
L 10.59375 17.1875 
z
" id="DejaVuSans-61"/>
     </defs>
     <g transform="translate(264.944717 17.314646)scale(0.08 -0.08)">
      <use transform="translate(0 0.765625)" xlink:href="#DejaVuSans-Oblique-120"/>
      <use transform="translate(63.645833 39.046875)scale(0.7)" xlink:href="#DejaVuSans-50"/>
      <use transform="translate(130.398763 0.765625)" xlink:href="#DejaVuSans-43"/>
      <use transform="translate(233.670247 0.765625)" xlink:href="#DejaVuSans-Oblique-121"/>
      <use transform="translate(297.316081 39.046875)scale(0.7)" xlink:href="#DejaVuSans-50"/>
      <use transform="translate(364.06901 0.765625)" xlink:href="#DejaVuSans-61"/>
      <use transform="translate(467.340495 0.765625)" xlink:href="#DejaVuSans-49"/>
     </g>
    </g>
   </g>
  </g>
 </g>
 <defs>
  <clipPath id="p63e0a3d55f">
   <rect height="256.830709" width="171.220472" x="143.404245" y="2.834646"/>
  </clipPath>
 </defs>
</svg>
