<?xml version="1.0" encoding="utf-8"?>
<svg xmlns="http://www.w3.org/2000/svg" xmlns:xlink="http://www.w3.org/1999/xlink" width="600" height="400" viewBox="0 0 2400 1600">
<defs>
  <clipPath id="clip750">
    <rect x="0" y="0" width="2400" height="1600"/>
  </clipPath>
</defs>
<path clip-path="url(#clip750)" d="
M0 1600 L2400 1600 L2400 0 L0 0  Z
  " fill="#ffffff" fill-rule="evenodd" fill-opacity="1"/>
<defs>
  <clipPath id="clip751">
    <rect x="480" y="0" width="1681" height="1600"/>
  </clipPath>
</defs>
<path clip-path="url(#clip750)" d="
M791.95 1452.03 L1728.48 1452.03 L1728.48 47.2441 L791.95 47.2441  Z
  " fill="#ffffff" fill-rule="evenodd" fill-opacity="1"/>
<defs>
  <clipPath id="clip752">
    <rect x="791" y="47" width="938" height="1406"/>
  </clipPath>
</defs>
<polyline clip-path="url(#clip752)" style="stroke:#000000; stroke-width:2; stroke-opacity:0.1; fill:none" points="
  818.456,1452.03 818.456,47.2441 
  "/>
<polyline clip-path="url(#clip752)" style="stroke:#000000; stroke-width:2; stroke-opacity:0.1; fill:none" points="
  1039.33,1452.03 1039.33,47.2441 
  "/>
<polyline clip-path="url(#clip752)" style="stroke:#000000; stroke-width:2; stroke-opacity:0.1; fill:none" points="
  1260.21,1452.03 1260.21,47.2441 
  "/>
<polyline clip-path="url(#clip752)" style="stroke:#000000; stroke-width:2; stroke-opacity:0.1; fill:none" points="
  1481.09,1452.03 1481.09,47.2441 
  "/>
<polyline clip-path="url(#clip752)" style="stroke:#000000; stroke-width:2; stroke-opacity:0.1; fill:none" points="
  1701.97,1452.03 1701.97,47.2441 
  "/>
<polyline clip-path="url(#clip752)" style="stroke:#000000; stroke-width:2; stroke-opacity:0.1; fill:none" points="
  791.95,1412.27 1728.48,1412.27 
  "/>
<polyline clip-path="url(#clip752)" style="stroke:#000000; stroke-width:2; stroke-opacity:0.1; fill:none" points="
  791.95,970.517 1728.48,970.517 
  "/>
<polyline clip-path="url(#clip752)" style="stroke:#000000; stroke-width:2; stroke-opacity:0.1; fill:none" points="
  791.95,528.76 1728.48,528.76 
  "/>
<polyline clip-path="url(#clip752)" style="stroke:#000000; stroke-width:2; stroke-opacity:0.1; fill:none" points="
  791.95,87.0023 1728.48,87.0023 
  "/>
<polyline clip-path="url(#clip750)" style="stroke:#000000; stroke-width:4; stroke-opacity:1; fill:none" points="
  791.95,1452.03 1728.48,1452.03 
  "/>
<polyline clip-path="url(#clip750)" style="stroke:#000000; stroke-width:4; stroke-opacity:1; fill:none" points="
  791.95,1452.03 791.95,47.2441 
  "/>
<polyline clip-path="url(#clip750)" style="stroke:#000000; stroke-width:4; stroke-opacity:1; fill:none" points="
  818.456,1452.03 818.456,1435.18 
  "/>
<polyline clip-path="url(#clip750)" style="stroke:#000000; stroke-width:4; stroke-opacity:1; fill:none" points="
  1039.33,1452.03 1039.33,1435.18 
  "/>
<polyline clip-path="url(#clip750)" style="stroke:#000000; stroke-width:4; stroke-opacity:1; fill:none" points="
  1260.21,1452.03 1260.21,1435.18 
  "/>
<polyline clip-path="url(#clip750)" style="stroke:#000000; stroke-width:4; stroke-opacity:1; fill:none" points="
  1481.09,1452.03 1481.09,1435.18 
  "/>
<polyline clip-path="url(#clip750)" style="stroke:#000000; stroke-width:4; stroke-opacity:1; fill:none" points="
  1701.97,1452.03 1701.97,1435.18 
  "/>
<polyline clip-path="url(#clip750)" style="stroke:#000000; stroke-width:4; stroke-opacity:1; fill:none" points="
  791.95,1412.27 803.188,1412.27 
  "/>
<polyline clip-path="url(#clip750)" style="stroke:#000000; stroke-width:4; stroke-opacity:1; fill:none" points="
  791.95,970.517 803.188,970.517 
  "/>
<polyline clip-path="url(#clip750)" style="stroke:#000000; stroke-width:4; stroke-opacity:1; fill:none" points="
  791.95,528.76 803.188,528.76 
  "/>
<polyline clip-path="url(#clip750)" style="stroke:#000000; stroke-width:4; stroke-opacity:1; fill:none" points="
  791.95,87.0023 803.188,87.0023 
  "/>
<path clip-path="url(#clip750)" d="M 0 0 M780.84 1490.62 L793.317 1490.62 L793.317 1494.42 L780.84 1494.42 L780.84 1490.62 Z" fill="#000000" fill-rule="evenodd" fill-opacity="1" /><path clip-path="url(#clip750)" d="M 0 0 M799.196 1501.57 L806.835 1501.57 L806.835 1475.2 L798.525 1476.87 L798.525 1472.61 L806.789 1470.95 L811.465 1470.95 L811.465 1501.57 L819.104 1501.57 L819.104 1505.51 L799.196 1505.51 L799.196 1501.57 Z" fill="#000000" fill-rule="evenodd" fill-opacity="1" /><path clip-path="url(#clip750)" d="M 0 0 M824.173 1499.63 L829.057 1499.63 L829.057 1505.51 L824.173 1505.51 L824.173 1499.63 Z" fill="#000000" fill-rule="evenodd" fill-opacity="1" /><path clip-path="url(#clip750)" d="M 0 0 M844.127 1474.02 Q840.516 1474.02 838.687 1477.59 Q836.881 1481.13 836.881 1488.26 Q836.881 1495.37 838.687 1498.93 Q840.516 1502.47 844.127 1502.47 Q847.761 1502.47 849.567 1498.93 Q851.395 1495.37 851.395 1488.26 Q851.395 1481.13 849.567 1477.59 Q847.761 1474.02 844.127 1474.02 M844.127 1470.32 Q849.937 1470.32 852.992 1474.93 Q856.071 1479.51 856.071 1488.26 Q856.071 1496.99 852.992 1501.59 Q849.937 1506.18 844.127 1506.18 Q838.317 1506.18 835.238 1501.59 Q832.182 1496.99 832.182 1488.26 Q832.182 1479.51 835.238 1474.93 Q838.317 1470.32 844.127 1470.32 Z" fill="#000000" fill-rule="evenodd" fill-opacity="1" /><path clip-path="url(#clip750)" d="M 0 0 M1001.6 1490.62 L1014.08 1490.62 L1014.08 1494.42 L1001.6 1494.42 L1001.6 1490.62 Z" fill="#000000" fill-rule="evenodd" fill-opacity="1" /><path clip-path="url(#clip750)" d="M 0 0 M1029.15 1474.02 Q1025.54 1474.02 1023.71 1477.59 Q1021.9 1481.13 1021.9 1488.26 Q1021.9 1495.37 1023.71 1498.93 Q1025.54 1502.47 1029.15 1502.47 Q1032.78 1502.47 1034.59 1498.93 Q1036.42 1495.37 1036.42 1488.26 Q1036.42 1481.13 1034.59 1477.59 Q1032.78 1474.02 1029.15 1474.02 M1029.15 1470.32 Q1034.96 1470.32 1038.01 1474.93 Q1041.09 1479.51 1041.09 1488.26 Q1041.09 1496.99 1038.01 1501.59 Q1034.96 1506.18 1029.15 1506.18 Q1023.34 1506.18 1020.26 1501.59 Q1017.2 1496.99 1017.2 1488.26 Q1017.2 1479.51 1020.26 1474.93 Q1023.34 1470.32 1029.15 1470.32 Z" fill="#000000" fill-rule="evenodd" fill-opacity="1" /><path clip-path="url(#clip750)" d="M 0 0 M1046.16 1499.63 L1051.05 1499.63 L1051.05 1505.51 L1046.16 1505.51 L1046.16 1499.63 Z" fill="#000000" fill-rule="evenodd" fill-opacity="1" /><path clip-path="url(#clip750)" d="M 0 0 M1056.16 1470.95 L1074.52 1470.95 L1074.52 1474.88 L1060.45 1474.88 L1060.45 1483.35 Q1061.46 1483.01 1062.48 1482.84 Q1063.5 1482.66 1064.52 1482.66 Q1070.31 1482.66 1073.69 1485.83 Q1077.07 1489 1077.07 1494.42 Q1077.07 1500 1073.59 1503.1 Q1070.12 1506.18 1063.8 1506.18 Q1061.63 1506.18 1059.36 1505.81 Q1057.11 1505.44 1054.7 1504.69 L1054.7 1500 Q1056.79 1501.13 1059.01 1501.69 Q1061.23 1502.24 1063.71 1502.24 Q1067.71 1502.24 1070.05 1500.13 Q1072.39 1498.03 1072.39 1494.42 Q1072.39 1490.81 1070.05 1488.7 Q1067.71 1486.59 1063.71 1486.59 Q1061.83 1486.59 1059.96 1487.01 Q1058.11 1487.43 1056.16 1488.31 L1056.16 1470.95 Z" fill="#000000" fill-rule="evenodd" fill-opacity="1" /><path clip-path="url(#clip750)" d="M 0 0 M1241.73 1474.02 Q1238.12 1474.02 1236.29 1477.59 Q1234.48 1481.13 1234.48 1488.26 Q1234.48 1495.37 1236.29 1498.93 Q1238.12 1502.47 1241.73 1502.47 Q1245.36 1502.47 1247.17 1498.93 Q1249 1495.37 1249 1488.26 Q1249 1481.13 1247.17 1477.59 Q1245.36 1474.02 1241.73 1474.02 M1241.73 1470.32 Q1247.54 1470.32 1250.6 1474.93 Q1253.67 1479.51 1253.67 1488.26 Q1253.67 1496.99 1250.6 1501.59 Q1247.54 1506.18 1241.73 1506.18 Q1235.92 1506.18 1232.84 1501.59 Q1229.79 1496.99 1229.79 1488.26 Q1229.79 1479.51 1232.84 1474.93 Q1235.92 1470.32 1241.73 1470.32 Z" fill="#000000" fill-rule="evenodd" fill-opacity="1" /><path clip-path="url(#clip750)" d="M 0 0 M1258.74 1499.63 L1263.63 1499.63 L1263.63 1505.51 L1258.74 1505.51 L1258.74 1499.63 Z" fill="#000000" fill-rule="evenodd" fill-opacity="1" /><path clip-path="url(#clip750)" d="M 0 0 M1278.7 1474.02 Q1275.09 1474.02 1273.26 1477.59 Q1271.45 1481.13 1271.45 1488.26 Q1271.45 1495.37 1273.26 1498.93 Q1275.09 1502.47 1278.7 1502.47 Q1282.33 1502.47 1284.14 1498.93 Q1285.97 1495.37 1285.97 1488.26 Q1285.97 1481.13 1284.14 1477.59 Q1282.33 1474.02 1278.7 1474.02 M1278.7 1470.32 Q1284.51 1470.32 1287.56 1474.93 Q1290.64 1479.51 1290.64 1488.26 Q1290.64 1496.99 1287.56 1501.59 Q1284.51 1506.18 1278.7 1506.18 Q1272.89 1506.18 1269.81 1501.59 Q1266.75 1496.99 1266.75 1488.26 Q1266.75 1479.51 1269.81 1474.93 Q1272.89 1470.32 1278.7 1470.32 Z" fill="#000000" fill-rule="evenodd" fill-opacity="1" /><path clip-path="url(#clip750)" d="M 0 0 M1463.11 1474.02 Q1459.49 1474.02 1457.67 1477.59 Q1455.86 1481.13 1455.86 1488.26 Q1455.86 1495.37 1457.67 1498.93 Q1459.49 1502.47 1463.11 1502.47 Q1466.74 1502.47 1468.55 1498.93 Q1470.37 1495.37 1470.37 1488.26 Q1470.37 1481.13 1468.55 1477.59 Q1466.74 1474.02 1463.11 1474.02 M1463.11 1470.32 Q1468.92 1470.32 1471.97 1474.93 Q1475.05 1479.51 1475.05 1488.26 Q1475.05 1496.99 1471.97 1501.59 Q1468.92 1506.18 1463.11 1506.18 Q1457.3 1506.18 1454.22 1501.59 Q1451.16 1496.99 1451.16 1488.26 Q1451.16 1479.51 1454.22 1474.93 Q1457.3 1470.32 1463.11 1470.32 Z" fill="#000000" fill-rule="evenodd" fill-opacity="1" /><path clip-path="url(#clip750)" d="M 0 0 M1480.12 1499.63 L1485 1499.63 L1485 1505.51 L1480.12 1505.51 L1480.12 1499.63 Z" fill="#000000" fill-rule="evenodd" fill-opacity="1" /><path clip-path="url(#clip750)" d="M 0 0 M1490.12 1470.95 L1508.48 1470.95 L1508.48 1474.88 L1494.4 1474.88 L1494.4 1483.35 Q1495.42 1483.01 1496.44 1482.84 Q1497.46 1482.66 1498.48 1482.66 Q1504.26 1482.66 1507.64 1485.83 Q1511.02 1489 1511.02 1494.42 Q1511.02 1500 1507.55 1503.1 Q1504.08 1506.18 1497.76 1506.18 Q1495.58 1506.18 1493.31 1505.81 Q1491.07 1505.44 1488.66 1504.69 L1488.66 1500 Q1490.74 1501.13 1492.97 1501.69 Q1495.19 1502.24 1497.67 1502.24 Q1501.67 1502.24 1504.01 1500.13 Q1506.35 1498.03 1506.35 1494.42 Q1506.35 1490.81 1504.01 1488.7 Q1501.67 1486.59 1497.67 1486.59 Q1495.79 1486.59 1493.92 1487.01 Q1492.06 1487.43 1490.12 1488.31 L1490.12 1470.95 Z" fill="#000000" fill-rule="evenodd" fill-opacity="1" /><path clip-path="url(#clip750)" d="M 0 0 M1673.87 1501.57 L1681.51 1501.57 L1681.51 1475.2 L1673.2 1476.87 L1673.2 1472.61 L1681.46 1470.95 L1686.14 1470.95 L1686.14 1501.57 L1693.78 1501.57 L1693.78 1505.51 L1673.87 1505.51 L1673.87 1501.57 Z" fill="#000000" fill-rule="evenodd" fill-opacity="1" /><path clip-path="url(#clip750)" d="M 0 0 M1698.85 1499.63 L1703.73 1499.63 L1703.73 1505.51 L1698.85 1505.51 L1698.85 1499.63 Z" fill="#000000" fill-rule="evenodd" fill-opacity="1" /><path clip-path="url(#clip750)" d="M 0 0 M1718.8 1474.02 Q1715.19 1474.02 1713.36 1477.59 Q1711.55 1481.13 1711.55 1488.26 Q1711.55 1495.37 1713.36 1498.93 Q1715.19 1502.47 1718.8 1502.47 Q1722.43 1502.47 1724.24 1498.93 Q1726.07 1495.37 1726.07 1488.26 Q1726.07 1481.13 1724.24 1477.59 Q1722.43 1474.02 1718.8 1474.02 M1718.8 1470.32 Q1724.61 1470.32 1727.67 1474.93 Q1730.74 1479.51 1730.74 1488.26 Q1730.74 1496.99 1727.67 1501.59 Q1724.61 1506.18 1718.8 1506.18 Q1712.99 1506.18 1709.91 1501.59 Q1706.86 1496.99 1706.86 1488.26 Q1706.86 1479.51 1709.91 1474.93 Q1712.99 1470.32 1718.8 1470.32 Z" fill="#000000" fill-rule="evenodd" fill-opacity="1" /><path clip-path="url(#clip750)" d="M 0 0 M729.686 1414.67 L742.163 1414.67 L742.163 1418.47 L729.686 1418.47 L729.686 1414.67 Z" fill="#000000" fill-rule="evenodd" fill-opacity="1" /><path clip-path="url(#clip750)" d="M 0 0 M748.043 1425.62 L755.682 1425.62 L755.682 1399.25 L747.372 1400.92 L747.372 1396.66 L755.635 1394.99 L760.311 1394.99 L760.311 1425.62 L767.95 1425.62 L767.95 1429.55 L748.043 1429.55 L748.043 1425.62 Z" fill="#000000" fill-rule="evenodd" fill-opacity="1" /><path clip-path="url(#clip750)" d="M 0 0 M756.006 956.316 Q752.395 956.316 750.566 959.881 Q748.76 963.423 748.76 970.552 Q748.76 977.659 750.566 981.223 Q752.395 984.765 756.006 984.765 Q759.64 984.765 761.446 981.223 Q763.274 977.659 763.274 970.552 Q763.274 963.423 761.446 959.881 Q759.64 956.316 756.006 956.316 M756.006 952.612 Q761.816 952.612 764.871 957.219 Q767.95 961.802 767.95 970.552 Q767.95 979.279 764.871 983.885 Q761.816 988.469 756.006 988.469 Q750.196 988.469 747.117 983.885 Q744.061 979.279 744.061 970.552 Q744.061 961.802 747.117 957.219 Q750.196 952.612 756.006 952.612 Z" fill="#000000" fill-rule="evenodd" fill-opacity="1" /><path clip-path="url(#clip750)" d="M 0 0 M748.043 542.105 L755.682 542.105 L755.682 515.739 L747.372 517.406 L747.372 513.147 L755.635 511.48 L760.311 511.48 L760.311 542.105 L767.95 542.105 L767.95 546.04 L748.043 546.04 L748.043 542.105 Z" fill="#000000" fill-rule="evenodd" fill-opacity="1" /><path clip-path="url(#clip750)" d="M 0 0 M751.631 100.347 L767.95 100.347 L767.95 104.282 L746.006 104.282 L746.006 100.347 Q748.668 97.5925 753.251 92.9629 Q757.858 88.3101 759.038 86.9676 Q761.284 84.4444 762.163 82.7083 Q763.066 80.9491 763.066 79.2593 Q763.066 76.5046 761.122 74.7685 Q759.2 73.0324 756.098 73.0324 Q753.899 73.0324 751.446 73.7963 Q749.015 74.5602 746.237 76.1111 L746.237 71.3889 Q749.061 70.2547 751.515 69.676 Q753.969 69.0973 756.006 69.0973 Q761.376 69.0973 764.571 71.7825 Q767.765 74.4676 767.765 78.9583 Q767.765 81.088 766.955 83.0092 Q766.168 84.9074 764.061 87.5 Q763.483 88.1713 760.381 91.3888 Q757.279 94.5833 751.631 100.347 Z" fill="#000000" fill-rule="evenodd" fill-opacity="1" /><path clip-path="url(#clip750)" d="M 0 0 M1274.37 1532.34 Q1274.37 1534.14 1273.25 1535.17 Q1272.12 1536.17 1270.83 1536.17 Q1269.61 1536.17 1268.96 1535.46 Q1268.32 1534.76 1268.32 1533.85 Q1268.32 1532.63 1269.22 1531.57 Q1270.12 1530.5 1271.47 1530.28 Q1270.15 1529.44 1268.19 1529.44 Q1266.9 1529.44 1265.77 1530.12 Q1264.68 1530.79 1264 1531.66 Q1263.36 1532.53 1262.78 1533.79 Q1262.23 1535.01 1262.01 1535.75 Q1261.81 1536.46 1261.65 1537.24 L1259.4 1546.25 Q1258.3 1550.54 1258.3 1552.05 Q1258.3 1553.92 1259.2 1555.17 Q1260.11 1556.4 1261.91 1556.4 Q1262.62 1556.4 1263.42 1556.2 Q1264.23 1555.98 1265.26 1555.4 Q1266.32 1554.79 1267.26 1553.89 Q1268.22 1552.95 1269.16 1551.37 Q1270.09 1549.8 1270.7 1547.77 Q1270.89 1547.06 1271.54 1547.06 Q1272.34 1547.06 1272.34 1547.7 Q1272.34 1548.25 1271.89 1549.41 Q1271.47 1550.54 1270.54 1552.02 Q1269.64 1553.47 1268.45 1554.79 Q1267.26 1556.08 1265.48 1556.98 Q1263.71 1557.88 1261.78 1557.88 Q1259.01 1557.88 1257.18 1556.4 Q1255.34 1554.92 1254.66 1552.86 Q1254.5 1553.15 1254.28 1553.53 Q1254.05 1553.92 1253.37 1554.79 Q1252.73 1555.63 1251.99 1556.27 Q1251.25 1556.88 1250.09 1557.36 Q1248.96 1557.88 1247.74 1557.88 Q1246.19 1557.88 1244.81 1557.43 Q1243.46 1556.98 1242.49 1555.95 Q1241.52 1554.92 1241.52 1553.5 Q1241.52 1551.92 1242.59 1550.83 Q1243.68 1549.7 1245.16 1549.7 Q1246.1 1549.7 1246.84 1550.25 Q1247.61 1550.79 1247.61 1551.99 Q1247.61 1553.31 1246.71 1554.3 Q1245.81 1555.3 1244.52 1555.56 Q1245.84 1556.4 1247.8 1556.4 Q1249.93 1556.4 1251.6 1554.53 Q1253.28 1552.66 1254.08 1549.54 Q1256.08 1542.03 1256.85 1538.68 Q1257.63 1535.3 1257.63 1533.85 Q1257.63 1532.5 1257.27 1531.57 Q1256.92 1530.63 1256.31 1530.21 Q1255.73 1529.76 1255.18 1529.6 Q1254.66 1529.44 1254.08 1529.44 Q1253.12 1529.44 1252.02 1529.83 Q1250.96 1530.21 1249.67 1531.12 Q1248.42 1531.99 1247.22 1533.79 Q1246.03 1535.59 1245.23 1538.07 Q1245.07 1538.81 1244.36 1538.81 Q1243.58 1538.78 1243.58 1538.14 Q1243.58 1537.59 1244 1536.46 Q1244.45 1535.3 1245.36 1533.85 Q1246.29 1532.4 1247.48 1531.12 Q1248.71 1529.8 1250.48 1528.89 Q1252.28 1527.99 1254.21 1527.99 Q1255.08 1527.99 1255.92 1528.19 Q1256.79 1528.35 1257.82 1528.83 Q1258.88 1529.31 1259.82 1530.38 Q1260.75 1531.44 1261.33 1532.98 Q1261.72 1532.24 1262.23 1531.54 Q1262.78 1530.83 1263.62 1529.96 Q1264.49 1529.06 1265.68 1528.54 Q1266.9 1527.99 1268.25 1527.99 Q1269.57 1527.99 1270.86 1528.35 Q1272.15 1528.67 1273.25 1529.73 Q1274.37 1530.76 1274.37 1532.34 Z" fill="#000000" fill-rule="evenodd" fill-opacity="1" /><path clip-path="url(#clip750)" d="M 0 0 M664.771 735.213 Q665.222 735.213 666.285 735.503 L691.47 741.815 Q697.073 743.2 701.003 747.709 Q704.932 752.185 704.932 757.274 Q704.932 760.333 703.289 762.298 Q701.679 764.262 699.199 764.262 Q697.009 764.262 695.946 763.103 Q694.916 761.944 694.916 760.559 Q694.916 760.108 695.045 759.625 Q695.173 759.142 695.721 758.626 Q696.268 758.111 697.202 758.111 Q698.716 758.111 699.908 759.431 Q700.455 760.076 700.584 760.688 Q700.713 761.267 700.713 762.266 Q701.615 761.879 702.226 761.171 Q702.838 760.462 703.064 759.657 Q703.321 758.852 703.386 758.336 Q703.482 757.789 703.482 757.274 Q703.482 753.151 699.328 749.995 Q698.072 749.061 696.816 748.385 Q695.592 747.676 694.078 747.161 Q692.597 746.646 691.792 746.42 Q690.987 746.163 689.151 745.712 Q692.146 748.707 692.146 752.378 Q692.146 753.924 691.727 755.309 Q691.309 756.662 690.439 757.853 Q689.537 759.045 687.959 759.754 Q686.381 760.43 684.288 760.43 Q682.066 760.43 679.038 759.56 Q676.011 758.691 670.439 756.597 Q667.315 755.47 665.802 755.47 Q665.061 755.47 664.61 755.631 Q664.127 755.792 663.966 756.114 Q663.773 756.436 663.74 756.63 Q663.708 756.791 663.708 757.113 Q663.708 759.013 665.641 760.784 Q667.573 762.555 671.888 763.779 Q672.694 764.037 672.887 764.198 Q673.08 764.359 673.08 764.842 Q673.048 765.647 672.404 765.647 Q672.146 765.647 671.148 765.357 Q670.117 765.068 668.603 764.391 Q667.058 763.683 665.673 762.716 Q664.256 761.75 663.257 760.237 Q662.259 758.691 662.259 756.919 Q662.259 754.504 663.837 753.023 Q665.383 751.509 667.67 751.509 Q668.603 751.509 669.441 751.766 Q670.246 751.992 672.404 752.829 Q681.099 756.211 685.351 756.211 Q686.381 756.211 687.251 756.05 Q688.088 755.857 688.925 755.438 Q689.731 755.019 690.214 754.182 Q690.665 753.312 690.665 752.121 Q690.665 750.607 689.956 749.19 Q689.215 747.741 688.217 746.839 Q687.218 745.905 686.381 745.358 Q685.512 744.778 685.061 744.649 L673.209 741.686 L667.927 740.366 Q665.061 739.754 664.352 739.464 Q663.676 739.077 663.322 738.401 Q662.967 737.725 662.967 737.145 Q662.967 736.34 663.451 735.792 Q663.934 735.213 664.771 735.213 Z" fill="#000000" fill-rule="evenodd" fill-opacity="1" /><polyline clip-path="url(#clip752)" style="stroke:#009af9; stroke-width:4; stroke-opacity:1; fill:none" points="
  1701.97,970.517 1701.95,966.1 1701.88,961.683 1701.77,957.267 1701.62,952.852 1701.42,948.439 1701.18,944.028 1700.89,939.62 1700.56,935.215 1700.18,930.813 
  1699.76,926.415 1699.3,922.022 1698.79,917.634 1698.24,913.251 1697.65,908.873 1697.01,904.502 1696.33,900.137 1695.6,895.78 1694.83,891.43 1694.02,887.088 
  1693.17,882.754 1692.27,878.429 1691.32,874.113 1690.34,869.807 1689.31,865.51 1688.24,861.225 1687.12,856.95 1685.97,852.687 1684.77,848.435 1683.52,844.196 
  1682.24,839.969 1680.91,835.755 1679.55,831.555 1678.13,827.369 1676.68,823.197 1675.19,819.04 1673.65,814.898 1672.08,810.771 1670.46,806.66 1668.8,802.566 
  1667.1,798.489 1665.36,794.429 1663.58,790.386 1661.76,786.362 1659.89,782.355 1657.99,778.368 1656.05,774.4 1654.07,770.451 1652.05,766.523 1649.99,762.615 
  1647.89,758.728 1645.75,754.861 1643.58,751.017 1641.36,747.194 1639.11,743.394 1636.82,739.616 1634.49,735.862 1632.13,732.131 1629.73,728.424 1627.29,724.741 
  1624.81,721.082 1622.3,717.449 1619.75,713.841 1617.17,710.258 1614.55,706.702 1611.89,703.172 1609.2,699.668 1606.47,696.192 1603.71,692.743 1600.92,689.322 
  1598.09,685.929 1595.23,682.565 1592.33,679.229 1589.4,675.923 1586.44,672.646 1583.44,669.398 1580.42,666.181 1577.36,662.994 1574.26,659.838 1571.14,656.713 
  1567.99,653.62 1564.8,650.558 1561.59,647.528 1558.34,644.531 1555.07,641.566 1551.77,638.634 1548.43,635.735 1545.07,632.869 1541.68,630.038 1538.26,627.24 
  1534.81,624.477 1531.34,621.748 1527.84,619.054 1524.31,616.396 1520.76,613.773 1517.18,611.185 1513.57,608.633 1509.94,606.118 1506.28,603.639 1502.6,601.197 
  1498.9,598.791 1495.17,596.423 1491.41,594.092 1487.64,591.799 1483.84,589.544 1480.02,587.327 1476.18,585.148 1472.31,583.007 1468.43,580.906 1464.52,578.843 
  1460.59,576.82 1456.65,574.836 1452.68,572.891 1448.69,570.986 1444.69,569.122 1440.67,567.297 1436.62,565.513 1432.57,563.769 1428.49,562.066 1424.4,560.403 
  1420.29,558.782 1416.16,557.202 1412.02,555.663 1407.87,554.166 1403.69,552.71 1399.51,551.296 1395.31,549.924 1391.1,548.594 1386.87,547.307 1382.63,546.061 
  1378.38,544.858 1374.12,543.698 1369.85,542.58 1365.56,541.505 1361.27,540.473 1356.96,539.484 1352.65,538.538 1348.32,537.636 1343.99,536.776 1339.65,535.96 
  1335.3,535.188 1330.94,534.458 1326.58,533.773 1322.21,533.131 1317.83,532.533 1313.45,531.979 1309.06,531.469 1304.67,531.002 1300.27,530.58 1295.87,530.201 
  1291.46,529.866 1287.05,529.576 1282.64,529.33 1278.23,529.127 1273.82,528.969 1269.4,528.855 1264.98,528.786 1260.56,528.76 1256.15,528.779 1251.73,528.841 
  1247.31,528.948 1242.9,529.099 1238.49,529.294 1234.07,529.534 1229.67,529.817 1225.26,530.145 1220.86,530.516 1216.46,530.932 1212.07,531.391 1207.68,531.895 
  1203.3,532.442 1198.92,533.033 1194.55,533.668 1190.18,534.346 1185.82,535.069 1181.47,535.834 1177.13,536.643 1172.79,537.496 1168.47,538.392 1164.15,539.331 
  1159.84,540.313 1155.55,541.338 1151.26,542.406 1146.99,543.517 1142.72,544.671 1138.47,545.867 1134.23,547.105 1130,548.386 1125.79,549.71 1121.59,551.075 
  1117.4,552.482 1113.22,553.931 1109.07,555.422 1104.92,556.954 1100.79,558.528 1096.68,560.142 1092.59,561.798 1088.51,563.495 1084.45,565.232 1080.4,567.01 
  1076.38,568.828 1072.37,570.687 1068.38,572.585 1064.41,574.523 1060.46,576.501 1056.53,578.518 1052.62,580.575 1048.73,582.67 1044.86,584.804 1041.02,586.977 
  1037.19,589.188 1033.39,591.437 1029.61,593.725 1025.86,596.049 1022.12,598.412 1018.41,600.811 1014.73,603.247 1011.07,605.721 1007.43,608.23 1003.82,610.776 
  1000.24,613.358 996.68,615.976 993.148,618.629 989.642,621.317 986.164,624.04 982.713,626.798 979.289,629.59 975.894,632.416 972.528,635.276 969.19,638.17 
  965.881,641.096 962.601,644.056 959.352,647.049 956.132,650.073 952.943,653.13 949.784,656.219 946.657,659.339 943.561,662.49 940.497,665.672 937.464,668.884 
  934.464,672.126 931.496,675.399 928.562,678.701 925.66,682.032 922.792,685.392 919.958,688.78 917.157,692.197 914.391,695.641 911.66,699.113 908.963,702.612 
  906.302,706.138 903.676,709.69 901.085,713.268 898.531,716.873 896.013,720.502 893.531,724.156 891.086,727.835 888.677,731.539 886.306,735.266 883.972,739.017 
  881.676,742.791 879.418,746.587 877.198,750.407 875.016,754.248 872.872,758.11 870.768,761.994 868.702,765.899 866.675,769.824 864.688,773.77 862.74,777.735 
  860.832,781.719 858.965,785.722 857.137,789.744 855.349,793.784 853.602,797.841 851.896,801.916 850.23,806.007 848.605,810.115 847.022,814.239 845.48,818.379 
  843.979,822.534 842.52,826.704 841.103,830.888 839.728,835.086 838.395,839.297 837.103,843.522 835.855,847.759 834.648,852.009 833.485,856.27 832.363,860.543 
  831.285,864.827 830.25,869.122 829.257,873.426 828.308,877.741 827.402,882.064 826.539,886.397 825.719,890.738 824.943,895.087 824.211,899.443 823.522,903.806 
  822.877,908.177 822.275,912.553 821.717,916.935 821.203,921.323 820.733,925.715 820.307,930.112 819.925,934.513 819.587,938.918 819.293,943.326 819.043,947.736 
  818.838,952.149 818.676,956.563 818.559,960.979 818.485,965.396 818.456,969.814 818.471,974.231 818.53,978.649 818.634,983.065 818.781,987.48 818.973,991.893 
  819.209,996.305 819.489,1000.71 819.813,1005.12 820.181,1009.52 820.593,1013.92 821.049,1018.31 821.549,1022.7 822.093,1027.09 822.68,1031.46 823.312,1035.84 
  823.987,1040.2 824.705,1044.56 825.467,1048.91 826.273,1053.26 827.122,1057.59 828.015,1061.92 828.95,1066.24 829.929,1070.54 830.951,1074.84 832.015,1079.13 
  833.123,1083.4 834.273,1087.67 835.466,1091.92 836.701,1096.16 837.979,1100.39 839.299,1104.61 840.66,1108.81 842.064,1113 843.51,1117.17 844.997,1121.33 
  846.526,1125.48 848.097,1129.61 849.708,1133.72 851.361,1137.82 853.054,1141.9 854.788,1145.96 856.563,1150.01 858.378,1154.03 860.233,1158.04 862.128,1162.03 
  864.063,1166 866.038,1169.96 868.052,1173.89 870.105,1177.8 872.198,1181.69 874.329,1185.56 876.498,1189.41 878.706,1193.23 880.953,1197.04 883.237,1200.82 
  885.559,1204.58 887.918,1208.31 890.314,1212.02 892.748,1215.71 895.218,1219.37 897.725,1223.01 900.268,1226.62 902.847,1230.21 905.462,1233.77 908.112,1237.3 
  910.797,1240.81 913.518,1244.29 916.273,1247.74 919.062,1251.17 921.886,1254.57 924.743,1257.94 927.634,1261.28 930.558,1264.59 933.515,1267.87 936.505,1271.12 
  939.527,1274.34 942.581,1277.53 945.667,1280.7 948.785,1283.83 951.933,1286.92 955.113,1289.99 958.323,1293.03 961.563,1296.03 964.833,1299 968.132,1301.94 
  971.461,1304.84 974.819,1307.71 978.205,1310.55 981.619,1313.35 985.062,1316.12 988.531,1318.85 992.028,1321.55 995.552,1324.22 999.102,1326.85 1002.68,1329.44 
  1006.28,1332 1009.91,1334.52 1013.56,1337 1017.24,1339.45 1020.94,1341.86 1024.66,1344.24 1028.41,1346.57 1032.19,1348.87 1035.98,1351.13 1039.8,1353.36 
  1043.64,1355.54 1047.5,1357.69 1051.38,1359.8 1055.28,1361.87 1059.21,1363.9 1063.15,1365.89 1067.11,1367.84 1071.1,1369.75 1075.1,1371.62 1079.12,1373.45 
  1083.16,1375.24 1087.21,1376.99 1091.29,1378.7 1095.38,1380.37 1099.48,1382 1103.61,1383.58 1107.74,1385.13 1111.9,1386.63 1116.07,1388.1 1120.25,1389.52 
  1124.45,1390.89 1128.66,1392.23 1132.88,1393.53 1137.12,1394.78 1141.37,1395.99 1145.63,1397.15 1149.9,1398.28 1154.18,1399.36 1158.48,1400.4 1162.78,1401.4 
  1167.09,1402.35 1171.42,1403.26 1175.75,1404.12 1180.09,1404.95 1184.44,1405.73 1188.79,1406.46 1193.15,1407.16 1197.52,1407.8 1201.9,1408.41 1206.28,1408.97 
  1210.67,1409.49 1215.06,1409.96 1219.46,1410.39 1223.86,1410.78 1228.26,1411.12 1232.67,1411.42 1237.08,1411.67 1241.49,1411.88 1245.91,1412.04 1250.32,1412.16 
  1254.74,1412.24 1259.16,1412.27 1263.58,1412.26 1267.99,1412.21 1272.41,1412.11 1276.82,1411.96 1281.24,1411.77 1285.65,1411.54 1290.06,1411.27 1294.46,1410.95 
  1298.87,1410.58 1303.27,1410.17 1307.66,1409.72 1312.05,1409.22 1316.43,1408.68 1320.81,1408.1 1325.18,1407.47 1329.55,1406.8 1333.91,1406.08 1338.26,1405.33 
  1342.61,1404.52 1346.94,1403.68 1351.27,1402.79 1355.59,1401.86 1359.9,1400.88 1364.19,1399.86 1368.48,1398.8 1372.76,1397.7 1377.03,1396.55 1381.28,1395.36 
  1385.52,1394.13 1389.75,1392.86 1393.97,1391.54 1398.17,1390.18 1402.36,1388.78 1406.54,1387.34 1410.7,1385.85 1414.84,1384.33 1418.98,1382.76 1423.09,1381.15 
  1427.19,1379.5 1431.27,1377.81 1435.33,1376.08 1439.38,1374.31 1443.41,1372.5 1447.42,1370.65 1451.41,1368.75 1455.38,1366.82 1459.34,1364.85 1463.27,1362.84 
  1467.18,1360.79 1471.08,1358.7 1474.95,1356.57 1478.8,1354.41 1482.63,1352.2 1486.43,1349.96 1490.21,1347.68 1493.97,1345.36 1497.71,1343 1501.42,1340.61 
  1505.11,1338.18 1508.78,1335.71 1512.42,1333.21 1516.03,1330.67 1519.62,1328.09 1523.18,1325.48 1526.72,1322.83 1530.23,1320.15 1533.71,1317.43 1537.17,1314.68 
  1540.59,1311.89 1543.99,1309.07 1547.36,1306.22 1550.71,1303.33 1554.02,1300.41 1557.3,1297.45 1560.56,1294.46 1563.78,1291.45 1566.98,1288.39 1570.14,1285.31 
  1573.27,1282.2 1576.37,1279.05 1579.44,1275.87 1582.48,1272.66 1585.49,1269.43 1588.46,1266.16 1591.4,1262.86 1594.31,1259.54 1597.18,1256.18 1600.02,1252.8 
  1602.83,1249.38 1605.6,1245.94 1608.33,1242.48 1611.04,1238.98 1613.7,1235.46 1616.33,1231.91 1618.93,1228.34 1621.49,1224.74 1624.02,1221.11 1626.5,1217.46 
  1628.95,1213.79 1631.37,1210.09 1633.75,1206.36 1636.08,1202.62 1638.39,1198.85 1640.65,1195.05 1642.88,1191.24 1645.07,1187.4 1647.22,1183.54 1649.33,1179.66 
  1651.4,1175.76 1653.43,1171.84 1655.42,1167.89 1657.38,1163.93 1659.29,1159.95 1661.17,1155.95 1663,1151.93 1664.8,1147.9 1666.55,1143.84 1668.26,1139.77 
  1669.93,1135.68 1671.56,1131.57 1673.15,1127.45 1674.7,1123.32 1676.21,1119.16 1677.68,1115 1679.1,1110.81 1680.48,1106.62 1681.82,1102.41 1683.12,1098.19 
  1684.38,1093.95 1685.59,1089.7 1686.76,1085.44 1687.89,1081.17 1688.97,1076.89 1690.01,1072.6 1691.01,1068.29 1691.97,1063.98 1692.88,1059.66 1693.75,1055.33 
  1694.58,1050.99 1695.36,1046.64 1696.1,1042.29 1696.8,1037.92 1697.45,1033.55 1698.06,1029.18 1698.62,1024.8 1699.14,1020.41 1699.62,1016.02 1700.05,1011.62 
  1700.44,1007.22 1700.79,1002.82 1701.09,998.411 1701.35,994.001 1701.56,989.589 1701.73,985.175 1701.85,980.759 1701.93,976.342 1701.97,971.925 
  "/>
<path clip-path="url(#clip750)" d="
M1183.48 251.724 L1656.48 251.724 L1656.48 130.764 L1183.48 130.764  Z
  " fill="#ffffff" fill-rule="evenodd" fill-opacity="1"/>
<polyline clip-path="url(#clip750)" style="stroke:#000000; stroke-width:4; stroke-opacity:1; fill:none" points="
  1183.48,251.724 1656.48,251.724 1656.48,130.764 1183.48,130.764 1183.48,251.724 
  "/>
<polyline clip-path="url(#clip750)" style="stroke:#009af9; stroke-width:4; stroke-opacity:1; fill:none" points="
  1207.48,191.244 1351.48,191.244 
  "/>
<path clip-path="url(#clip750)" d="M 0 0 M1399.37 186.729 Q1399.37 188.04 1398.55 188.79 Q1397.73 189.516 1396.79 189.516 Q1395.9 189.516 1395.43 189.001 Q1394.96 188.485 1394.96 187.83 Q1394.96 186.939 1395.62 186.167 Q1396.28 185.394 1397.26 185.23 Q1396.3 184.621 1394.87 184.621 Q1393.93 184.621 1393.11 185.113 Q1392.32 185.604 1391.83 186.237 Q1391.36 186.869 1390.94 187.783 Q1390.54 188.673 1390.37 189.211 Q1390.23 189.727 1390.12 190.289 L1388.48 196.847 Q1387.68 199.962 1387.68 201.063 Q1387.68 202.422 1388.34 203.335 Q1388.99 204.225 1390.3 204.225 Q1390.82 204.225 1391.4 204.085 Q1391.99 203.921 1392.74 203.499 Q1393.51 203.054 1394.19 202.398 Q1394.89 201.719 1395.57 200.571 Q1396.25 199.424 1396.7 197.948 Q1396.84 197.433 1397.31 197.433 Q1397.89 197.433 1397.89 197.901 Q1397.89 198.299 1397.56 199.143 Q1397.26 199.962 1396.58 201.04 Q1395.92 202.094 1395.06 203.054 Q1394.19 203.991 1392.9 204.647 Q1391.61 205.303 1390.21 205.303 Q1388.19 205.303 1386.86 204.225 Q1385.52 203.148 1385.03 201.649 Q1384.92 201.86 1384.75 202.141 Q1384.59 202.422 1384.1 203.054 Q1383.63 203.663 1383.09 204.132 Q1382.55 204.577 1381.71 204.928 Q1380.89 205.303 1380 205.303 Q1378.87 205.303 1377.87 204.975 Q1376.88 204.647 1376.18 203.897 Q1375.48 203.148 1375.48 202.117 Q1375.48 200.97 1376.25 200.173 Q1377.05 199.353 1378.12 199.353 Q1378.8 199.353 1379.34 199.752 Q1379.9 200.15 1379.9 201.016 Q1379.9 201.977 1379.25 202.703 Q1378.59 203.429 1377.65 203.616 Q1378.61 204.225 1380.04 204.225 Q1381.59 204.225 1382.81 202.867 Q1384.03 201.508 1384.61 199.236 Q1386.06 193.779 1386.63 191.343 Q1387.19 188.884 1387.19 187.83 Q1387.19 186.846 1386.93 186.167 Q1386.67 185.487 1386.23 185.183 Q1385.81 184.855 1385.41 184.738 Q1385.03 184.621 1384.61 184.621 Q1383.91 184.621 1383.11 184.902 Q1382.34 185.183 1381.4 185.839 Q1380.49 186.471 1379.62 187.783 Q1378.76 189.094 1378.17 190.898 Q1378.05 191.437 1377.54 191.437 Q1376.98 191.413 1376.98 190.945 Q1376.98 190.547 1377.28 189.727 Q1377.61 188.884 1378.26 187.83 Q1378.94 186.776 1379.81 185.839 Q1380.7 184.878 1381.99 184.222 Q1383.3 183.567 1384.7 183.567 Q1385.34 183.567 1385.95 183.707 Q1386.58 183.824 1387.33 184.176 Q1388.1 184.527 1388.78 185.3 Q1389.46 186.073 1389.88 187.197 Q1390.16 186.658 1390.54 186.143 Q1390.94 185.628 1391.54 184.995 Q1392.18 184.34 1393.04 183.965 Q1393.93 183.567 1394.92 183.567 Q1395.88 183.567 1396.81 183.824 Q1397.75 184.058 1398.55 184.831 Q1399.37 185.581 1399.37 186.729 Z" fill="#000000" fill-rule="evenodd" fill-opacity="1" /><path clip-path="url(#clip750)" d="M 0 0 M1404.25 190.259 Q1404.25 189.652 1404.3 189.472 Q1404.37 189.291 1404.63 189.013 L1411.07 181.831 Q1414.6 177.863 1414.6 174.404 Q1414.6 172.158 1413.42 170.551 Q1412.25 168.944 1410.11 168.944 Q1408.63 168.944 1407.38 169.846 Q1406.14 170.748 1405.56 172.355 Q1405.66 172.322 1406.01 172.322 Q1406.84 172.322 1407.3 172.846 Q1407.78 173.371 1407.78 174.076 Q1407.78 174.978 1407.19 175.421 Q1406.61 175.847 1406.04 175.847 Q1405.81 175.847 1405.5 175.798 Q1405.2 175.748 1404.73 175.289 Q1404.25 174.814 1404.25 173.978 Q1404.25 171.633 1406.02 169.764 Q1407.81 167.895 1410.53 167.895 Q1413.61 167.895 1415.63 169.731 Q1417.66 171.551 1417.66 174.404 Q1417.66 175.404 1417.35 176.322 Q1417.06 177.224 1416.65 177.929 Q1416.25 178.634 1415.17 179.765 Q1414.09 180.897 1413.22 181.7 Q1412.35 182.503 1410.4 184.209 L1406.84 187.668 L1412.89 187.668 Q1415.84 187.668 1416.07 187.406 Q1416.4 186.93 1416.81 184.422 L1417.66 184.422 L1416.71 190.259 L1404.25 190.259 Z" fill="#000000" fill-rule="evenodd" fill-opacity="1" /><path clip-path="url(#clip750)" d="M 0 0 M1431.35 193.357 Q1430.25 193.357 1430.25 192.772 Q1430.25 192.186 1431.4 192.186 Q1431.54 192.186 1431.78 192.21 Q1432.03 192.233 1432.08 192.233 L1445.59 192.233 L1445.59 178.671 Q1445.59 178.624 1445.57 178.414 Q1445.55 178.179 1445.55 178.039 Q1445.55 176.891 1446.11 176.891 Q1446.7 176.891 1446.7 178.039 L1446.7 192.233 L1460.23 192.233 Q1460.28 192.233 1460.52 192.21 Q1460.75 192.186 1460.89 192.186 Q1461.99 192.186 1461.99 192.772 Q1462.01 193.357 1460.84 193.357 Q1460.7 193.357 1460.49 193.334 Q1460.28 193.31 1460.23 193.31 L1446.7 193.31 L1446.7 207.551 Q1446.7 208.652 1446.11 208.652 Q1445.55 208.652 1445.55 207.504 Q1445.55 207.364 1445.57 207.13 Q1445.59 206.919 1445.59 206.872 L1445.59 193.31 L1432.08 193.31 Q1432.03 193.31 1431.75 193.334 Q1431.49 193.357 1431.35 193.357 Z" fill="#000000" fill-rule="evenodd" fill-opacity="1" /><path clip-path="url(#clip750)" d="M 0 0 M1496.94 185.394 Q1496.94 185.721 1496.73 186.494 L1492.14 204.811 Q1491.13 208.886 1487.85 211.744 Q1484.59 214.601 1480.89 214.601 Q1478.67 214.601 1477.24 213.407 Q1475.81 212.236 1475.81 210.432 Q1475.81 208.839 1476.65 208.067 Q1477.5 207.317 1478.5 207.317 Q1478.83 207.317 1479.18 207.411 Q1479.53 207.504 1479.91 207.903 Q1480.28 208.301 1480.28 208.98 Q1480.28 210.081 1479.32 210.947 Q1478.86 211.346 1478.41 211.439 Q1477.99 211.533 1477.26 211.533 Q1477.54 212.189 1478.06 212.634 Q1478.57 213.079 1479.16 213.243 Q1479.75 213.43 1480.12 213.477 Q1480.52 213.547 1480.89 213.547 Q1483.89 213.547 1486.19 210.526 Q1486.87 209.612 1487.36 208.699 Q1487.87 207.809 1488.25 206.708 Q1488.62 205.631 1488.79 205.045 Q1488.97 204.459 1489.3 203.124 Q1487.12 205.303 1484.45 205.303 Q1483.33 205.303 1482.32 204.998 Q1481.34 204.694 1480.47 204.061 Q1479.6 203.405 1479.09 202.258 Q1478.6 201.11 1478.6 199.588 Q1478.6 197.971 1479.23 195.77 Q1479.86 193.568 1481.38 189.516 Q1482.2 187.244 1482.2 186.143 Q1482.2 185.604 1482.09 185.276 Q1481.97 184.925 1481.74 184.808 Q1481.5 184.667 1481.36 184.644 Q1481.24 184.621 1481.01 184.621 Q1479.63 184.621 1478.34 186.026 Q1477.05 187.431 1476.16 190.57 Q1475.97 191.155 1475.86 191.296 Q1475.74 191.437 1475.39 191.437 Q1474.8 191.413 1474.8 190.945 Q1474.8 190.757 1475.01 190.031 Q1475.22 189.282 1475.72 188.181 Q1476.23 187.057 1476.93 186.049 Q1477.64 185.019 1478.74 184.293 Q1479.86 183.567 1481.15 183.567 Q1482.91 183.567 1483.98 184.714 Q1485.09 185.839 1485.09 187.502 Q1485.09 188.181 1484.9 188.79 Q1484.73 189.375 1484.13 190.945 Q1481.67 197.269 1481.67 200.361 Q1481.67 201.11 1481.78 201.742 Q1481.92 202.351 1482.23 202.96 Q1482.53 203.546 1483.14 203.897 Q1483.77 204.225 1484.64 204.225 Q1485.74 204.225 1486.77 203.71 Q1487.83 203.171 1488.48 202.445 Q1489.16 201.719 1489.56 201.11 Q1489.98 200.478 1490.07 200.15 L1492.23 191.53 L1493.19 187.689 Q1493.63 185.604 1493.85 185.089 Q1494.13 184.597 1494.62 184.34 Q1495.11 184.082 1495.53 184.082 Q1496.12 184.082 1496.52 184.433 Q1496.94 184.785 1496.94 185.394 Z" fill="#000000" fill-rule="evenodd" fill-opacity="1" /><path clip-path="url(#clip750)" d="M 0 0 M1501.83 190.259 Q1501.83 189.652 1501.88 189.472 Q1501.94 189.291 1502.21 189.013 L1508.65 181.831 Q1512.17 177.863 1512.17 174.404 Q1512.17 172.158 1510.99 170.551 Q1509.83 168.944 1507.68 168.944 Q1506.21 168.944 1504.96 169.846 Q1503.71 170.748 1503.14 172.355 Q1503.24 172.322 1503.58 172.322 Q1504.42 172.322 1504.88 172.846 Q1505.35 173.371 1505.35 174.076 Q1505.35 174.978 1504.76 175.421 Q1504.19 175.847 1503.62 175.847 Q1503.39 175.847 1503.08 175.798 Q1502.78 175.748 1502.3 175.289 Q1501.83 174.814 1501.83 173.978 Q1501.83 171.633 1503.6 169.764 Q1505.39 167.895 1508.11 167.895 Q1511.19 167.895 1513.21 169.731 Q1515.24 171.551 1515.24 174.404 Q1515.24 175.404 1514.93 176.322 Q1514.63 177.224 1514.22 177.929 Q1513.83 178.634 1512.75 179.765 Q1511.67 180.897 1510.8 181.7 Q1509.93 182.503 1507.98 184.209 L1504.42 187.668 L1510.47 187.668 Q1513.42 187.668 1513.65 187.406 Q1513.98 186.93 1514.39 184.422 L1515.24 184.422 L1514.29 190.259 L1501.83 190.259 Z" fill="#000000" fill-rule="evenodd" fill-opacity="1" /><path clip-path="url(#clip750)" d="M 0 0 M1527.83 197.48 Q1527.88 196.894 1528.79 196.894 L1558.19 196.894 Q1559.57 196.894 1559.59 197.433 Q1559.59 198.018 1558.28 197.995 L1529.12 197.995 Q1527.83 198.018 1527.83 197.48 M1527.83 188.111 Q1527.83 187.525 1528.84 187.548 L1558.14 187.548 Q1559.57 187.548 1559.59 188.111 Q1559.59 188.649 1558.37 188.649 L1528.79 188.649 Q1527.83 188.649 1527.83 188.111 Z" fill="#000000" fill-rule="evenodd" fill-opacity="1" /><path clip-path="url(#clip750)" d="M 0 0 M1572.38 177.383 L1572.38 175.884 Q1578.14 175.884 1581.12 172.816 Q1581.94 172.816 1582.08 173.003 Q1582.22 173.19 1582.22 174.057 L1582.22 200.97 Q1582.22 202.398 1582.92 202.843 Q1583.62 203.288 1586.69 203.288 L1588.21 203.288 L1588.21 204.764 Q1586.53 204.623 1580.44 204.623 Q1574.35 204.623 1572.68 204.764 L1572.68 203.288 L1574.21 203.288 Q1577.23 203.288 1577.95 202.867 Q1578.68 202.422 1578.68 200.97 L1578.68 176.118 Q1576.17 177.383 1572.38 177.383 Z" fill="#000000" fill-rule="evenodd" fill-opacity="1" /></svg>
