<?xml version="1.0" encoding="utf-8" standalone="no"?>
<!DOCTYPE svg PUBLIC "-//W3C//DTD SVG 1.1//EN"
  "http://www.w3.org/Graphics/SVG/1.1/DTD/svg11.dtd">
<!-- Created with matplotlib (https://matplotlib.org/) -->
<svg height="288pt" version="1.1" viewBox="0 0 432 288" width="432pt" xmlns="http://www.w3.org/2000/svg" xmlns:xlink="http://www.w3.org/1999/xlink">
 <metadata>
  <rdf:RDF xmlns:cc="http://creativecommons.org/ns#" xmlns:dc="http://purl.org/dc/elements/1.1/" xmlns:rdf="http://www.w3.org/1999/02/22-rdf-syntax-ns#">
   <cc:Work>
    <dc:type rdf:resource="http://purl.org/dc/dcmitype/StillImage"/>
    <dc:date>2020-08-07T21:10:04.392294</dc:date>
    <dc:format>image/svg+xml</dc:format>
    <dc:creator>
     <cc:Agent>
      <dc:title>Matplotlib v3.3.0, https://matplotlib.org/</dc:title>
     </cc:Agent>
    </dc:creator>
   </cc:Work>
  </rdf:RDF>
 </metadata>
 <defs>
  <style type="text/css">*{stroke-linecap:butt;stroke-linejoin:round;}</style>
 </defs>
 <g id="figure_1">
  <g id="patch_1">
   <path d="M 0 288 
L 432 288 
L 432 0 
L 0 0 
z
" style="fill:#ffffff;"/>
  </g>
  <g id="axes_1">
   <g id="patch_2">
    <path d="M 145.914408 258.225354 
L 316.174881 258.225354 
L 316.174881 2.834646 
L 145.914408 2.834646 
z
" style="fill:#ffffff;"/>
   </g>
   <g id="matplotlib.axis_1">
    <g id="xtick_1">
     <g id="line2d_1">
      <path clip-path="url(#p1112ae8dbf)" d="M 150.733101 258.225354 
L 150.733101 2.834646 
" style="fill:none;stroke:#000000;stroke-linecap:square;stroke-opacity:0.1;stroke-width:0.5;"/>
     </g>
     <g id="line2d_2">
      <defs>
       <path d="M 0 0 
L 0 -2.5 
" id="me029b3a52f" style="stroke:#000000;stroke-width:0.5;"/>
      </defs>
      <g>
       <use style="stroke:#000000;stroke-width:0.5;" x="150.733101" xlink:href="#me029b3a52f" y="258.225354"/>
      </g>
     </g>
     <g id="text_1">
      <!-- $\mathregular{-1.0}$ -->
      <g transform="translate(141.013101 267.804104)scale(0.08 -0.08)">
       <defs>
        <path d="M 10.59375 35.5 
L 73.1875 35.5 
L 73.1875 27.203125 
L 10.59375 27.203125 
z
" id="DejaVuSans-8722"/>
        <path d="M 12.40625 8.296875 
L 28.515625 8.296875 
L 28.515625 63.921875 
L 10.984375 60.40625 
L 10.984375 69.390625 
L 28.421875 72.90625 
L 38.28125 72.90625 
L 38.28125 8.296875 
L 54.390625 8.296875 
L 54.390625 0 
L 12.40625 0 
z
" id="DejaVuSans-49"/>
        <path d="M 10.6875 12.40625 
L 21 12.40625 
L 21 0 
L 10.6875 0 
z
" id="DejaVuSans-46"/>
        <path d="M 31.78125 66.40625 
Q 24.171875 66.40625 20.328125 58.90625 
Q 16.5 51.421875 16.5 36.375 
Q 16.5 21.390625 20.328125 13.890625 
Q 24.171875 6.390625 31.78125 6.390625 
Q 39.453125 6.390625 43.28125 13.890625 
Q 47.125 21.390625 47.125 36.375 
Q 47.125 51.421875 43.28125 58.90625 
Q 39.453125 66.40625 31.78125 66.40625 
z
M 31.78125 74.21875 
Q 44.046875 74.21875 50.515625 64.515625 
Q 56.984375 54.828125 56.984375 36.375 
Q 56.984375 17.96875 50.515625 8.265625 
Q 44.046875 -1.421875 31.78125 -1.421875 
Q 19.53125 -1.421875 13.0625 8.265625 
Q 6.59375 17.96875 6.59375 36.375 
Q 6.59375 54.828125 13.0625 64.515625 
Q 19.53125 74.21875 31.78125 74.21875 
z
" id="DejaVuSans-48"/>
       </defs>
       <use transform="translate(0 0.78125)" xlink:href="#DejaVuSans-8722"/>
       <use transform="translate(83.789062 0.78125)" xlink:href="#DejaVuSans-49"/>
       <use transform="translate(147.412109 0.78125)" xlink:href="#DejaVuSans-46"/>
       <use transform="translate(179.199219 0.78125)" xlink:href="#DejaVuSans-48"/>
      </g>
     </g>
    </g>
    <g id="xtick_2">
     <g id="line2d_3">
      <path clip-path="url(#p1112ae8dbf)" d="M 190.888873 258.225354 
L 190.888873 2.834646 
" style="fill:none;stroke:#000000;stroke-linecap:square;stroke-opacity:0.1;stroke-width:0.5;"/>
     </g>
     <g id="line2d_4">
      <g>
       <use style="stroke:#000000;stroke-width:0.5;" x="190.888873" xlink:href="#me029b3a52f" y="258.225354"/>
      </g>
     </g>
     <g id="text_2">
      <!-- $\mathregular{-0.5}$ -->
      <g transform="translate(181.168873 267.804104)scale(0.08 -0.08)">
       <defs>
        <path d="M 10.796875 72.90625 
L 49.515625 72.90625 
L 49.515625 64.59375 
L 19.828125 64.59375 
L 19.828125 46.734375 
Q 21.96875 47.46875 24.109375 47.828125 
Q 26.265625 48.1875 28.421875 48.1875 
Q 40.625 48.1875 47.75 41.5 
Q 54.890625 34.8125 54.890625 23.390625 
Q 54.890625 11.625 47.5625 5.09375 
Q 40.234375 -1.421875 26.90625 -1.421875 
Q 22.3125 -1.421875 17.546875 -0.640625 
Q 12.796875 0.140625 7.71875 1.703125 
L 7.71875 11.625 
Q 12.109375 9.234375 16.796875 8.0625 
Q 21.484375 6.890625 26.703125 6.890625 
Q 35.15625 6.890625 40.078125 11.328125 
Q 45.015625 15.765625 45.015625 23.390625 
Q 45.015625 31 40.078125 35.4375 
Q 35.15625 39.890625 26.703125 39.890625 
Q 22.75 39.890625 18.8125 39.015625 
Q 14.890625 38.140625 10.796875 36.28125 
z
" id="DejaVuSans-53"/>
       </defs>
       <use transform="translate(0 0.78125)" xlink:href="#DejaVuSans-8722"/>
       <use transform="translate(83.789062 0.78125)" xlink:href="#DejaVuSans-48"/>
       <use transform="translate(147.412109 0.78125)" xlink:href="#DejaVuSans-46"/>
       <use transform="translate(179.199219 0.78125)" xlink:href="#DejaVuSans-53"/>
      </g>
     </g>
    </g>
    <g id="xtick_3">
     <g id="line2d_5">
      <path clip-path="url(#p1112ae8dbf)" d="M 231.044645 258.225354 
L 231.044645 2.834646 
" style="fill:none;stroke:#000000;stroke-linecap:square;stroke-opacity:0.1;stroke-width:0.5;"/>
     </g>
     <g id="line2d_6">
      <g>
       <use style="stroke:#000000;stroke-width:0.5;" x="231.044645" xlink:href="#me029b3a52f" y="258.225354"/>
      </g>
     </g>
     <g id="text_3">
      <!-- $\mathregular{0.0}$ -->
      <g transform="translate(224.644645 267.804104)scale(0.08 -0.08)">
       <use transform="translate(0 0.78125)" xlink:href="#DejaVuSans-48"/>
       <use transform="translate(63.623047 0.78125)" xlink:href="#DejaVuSans-46"/>
       <use transform="translate(95.410156 0.78125)" xlink:href="#DejaVuSans-48"/>
      </g>
     </g>
    </g>
    <g id="xtick_4">
     <g id="line2d_7">
      <path clip-path="url(#p1112ae8dbf)" d="M 271.200417 258.225354 
L 271.200417 2.834646 
" style="fill:none;stroke:#000000;stroke-linecap:square;stroke-opacity:0.1;stroke-width:0.5;"/>
     </g>
     <g id="line2d_8">
      <g>
       <use style="stroke:#000000;stroke-width:0.5;" x="271.200417" xlink:href="#me029b3a52f" y="258.225354"/>
      </g>
     </g>
     <g id="text_4">
      <!-- $\mathregular{0.5}$ -->
      <g transform="translate(264.800417 267.804104)scale(0.08 -0.08)">
       <use transform="translate(0 0.78125)" xlink:href="#DejaVuSans-48"/>
       <use transform="translate(63.623047 0.78125)" xlink:href="#DejaVuSans-46"/>
       <use transform="translate(95.410156 0.78125)" xlink:href="#DejaVuSans-53"/>
      </g>
     </g>
    </g>
    <g id="xtick_5">
     <g id="line2d_9">
      <path clip-path="url(#p1112ae8dbf)" d="M 311.356188 258.225354 
L 311.356188 2.834646 
" style="fill:none;stroke:#000000;stroke-linecap:square;stroke-opacity:0.1;stroke-width:0.5;"/>
     </g>
     <g id="line2d_10">
      <g>
       <use style="stroke:#000000;stroke-width:0.5;" x="311.356188" xlink:href="#me029b3a52f" y="258.225354"/>
      </g>
     </g>
     <g id="text_5">
      <!-- $\mathregular{1.0}$ -->
      <g transform="translate(304.956188 267.804104)scale(0.08 -0.08)">
       <use transform="translate(0 0.78125)" xlink:href="#DejaVuSans-49"/>
       <use transform="translate(63.623047 0.78125)" xlink:href="#DejaVuSans-46"/>
       <use transform="translate(95.410156 0.78125)" xlink:href="#DejaVuSans-48"/>
      </g>
     </g>
    </g>
    <g id="text_6">
     <!-- $x$ -->
     <g transform="translate(227.744645 281.826136)scale(0.11 -0.11)">
      <defs>
       <path d="M 60.015625 54.6875 
L 34.90625 27.875 
L 50.296875 0 
L 39.984375 0 
L 28.421875 21.6875 
L 8.296875 0 
L -2.59375 0 
L 24.3125 28.8125 
L 10.015625 54.6875 
L 20.3125 54.6875 
L 30.8125 34.90625 
L 49.125 54.6875 
z
" id="DejaVuSans-Oblique-120"/>
      </defs>
      <use transform="translate(0 0.3125)" xlink:href="#DejaVuSans-Oblique-120"/>
     </g>
    </g>
   </g>
   <g id="matplotlib.axis_2">
    <g id="ytick_1">
     <g id="line2d_11">
      <path clip-path="url(#p1112ae8dbf)" d="M 145.914408 250.997315 
L 316.174881 250.997315 
" style="fill:none;stroke:#000000;stroke-linecap:square;stroke-opacity:0.1;stroke-width:0.5;"/>
     </g>
     <g id="line2d_12">
      <defs>
       <path d="M 0 0 
L 2.5 0 
" id="m6b18a47b98" style="stroke:#000000;stroke-width:0.5;"/>
      </defs>
      <g>
       <use style="stroke:#000000;stroke-width:0.5;" x="145.914408" xlink:href="#m6b18a47b98" y="250.997315"/>
      </g>
     </g>
     <g id="text_7">
      <!-- $\mathregular{-1}$ -->
      <g transform="translate(130.574408 254.03669)scale(0.08 -0.08)">
       <use transform="translate(0 0.09375)" xlink:href="#DejaVuSans-8722"/>
       <use transform="translate(83.789062 0.09375)" xlink:href="#DejaVuSans-49"/>
      </g>
     </g>
    </g>
    <g id="ytick_2">
     <g id="line2d_13">
      <path clip-path="url(#p1112ae8dbf)" d="M 145.914408 170.685772 
L 316.174881 170.685772 
" style="fill:none;stroke:#000000;stroke-linecap:square;stroke-opacity:0.1;stroke-width:0.5;"/>
     </g>
     <g id="line2d_14">
      <g>
       <use style="stroke:#000000;stroke-width:0.5;" x="145.914408" xlink:href="#m6b18a47b98" y="170.685772"/>
      </g>
     </g>
     <g id="text_8">
      <!-- $\mathregular{0}$ -->
      <g transform="translate(137.294408 173.725147)scale(0.08 -0.08)">
       <use transform="translate(0 0.78125)" xlink:href="#DejaVuSans-48"/>
      </g>
     </g>
    </g>
    <g id="ytick_3">
     <g id="line2d_15">
      <path clip-path="url(#p1112ae8dbf)" d="M 145.914408 90.374228 
L 316.174881 90.374228 
" style="fill:none;stroke:#000000;stroke-linecap:square;stroke-opacity:0.1;stroke-width:0.5;"/>
     </g>
     <g id="line2d_16">
      <g>
       <use style="stroke:#000000;stroke-width:0.5;" x="145.914408" xlink:href="#m6b18a47b98" y="90.374228"/>
      </g>
     </g>
     <g id="text_9">
      <!-- $\mathregular{1}$ -->
      <g transform="translate(137.294408 93.413603)scale(0.08 -0.08)">
       <use transform="translate(0 0.09375)" xlink:href="#DejaVuSans-49"/>
      </g>
     </g>
    </g>
    <g id="ytick_4">
     <g id="line2d_17">
      <path clip-path="url(#p1112ae8dbf)" d="M 145.914408 10.062685 
L 316.174881 10.062685 
" style="fill:none;stroke:#000000;stroke-linecap:square;stroke-opacity:0.1;stroke-width:0.5;"/>
     </g>
     <g id="line2d_18">
      <g>
       <use style="stroke:#000000;stroke-width:0.5;" x="145.914408" xlink:href="#m6b18a47b98" y="10.062685"/>
      </g>
     </g>
     <g id="text_10">
      <!-- $\mathregular{2}$ -->
      <g transform="translate(137.294408 13.10206)scale(0.08 -0.08)">
       <defs>
        <path d="M 19.1875 8.296875 
L 53.609375 8.296875 
L 53.609375 0 
L 7.328125 0 
L 7.328125 8.296875 
Q 12.9375 14.109375 22.625 23.890625 
Q 32.328125 33.6875 34.8125 36.53125 
Q 39.546875 41.84375 41.421875 45.53125 
Q 43.3125 49.21875 43.3125 52.78125 
Q 43.3125 58.59375 39.234375 62.25 
Q 35.15625 65.921875 28.609375 65.921875 
Q 23.96875 65.921875 18.8125 64.3125 
Q 13.671875 62.703125 7.8125 59.421875 
L 7.8125 69.390625 
Q 13.765625 71.78125 18.9375 73 
Q 24.125 74.21875 28.421875 74.21875 
Q 39.75 74.21875 46.484375 68.546875 
Q 53.21875 62.890625 53.21875 53.421875 
Q 53.21875 48.921875 51.53125 44.890625 
Q 49.859375 40.875 45.40625 35.40625 
Q 44.1875 33.984375 37.640625 27.21875 
Q 31.109375 20.453125 19.1875 8.296875 
z
" id="DejaVuSans-50"/>
       </defs>
       <use transform="translate(0 0.78125)" xlink:href="#DejaVuSans-50"/>
      </g>
     </g>
    </g>
    <g id="text_11">
     <!-- $y$ -->
     <g transform="translate(124.264408 133.83)rotate(-90)scale(0.11 -0.11)">
      <defs>
       <path d="M 24.8125 -5.078125 
Q 18.5625 -15.578125 14.625 -18.1875 
Q 10.6875 -20.796875 4.59375 -20.796875 
L -2.484375 -20.796875 
L -0.984375 -13.28125 
L 4.203125 -13.28125 
Q 7.953125 -13.28125 10.59375 -11.234375 
Q 13.234375 -9.1875 16.5 -3.21875 
L 19.28125 2 
L 7.171875 54.6875 
L 16.703125 54.6875 
L 25.78125 12.796875 
L 50.875 54.6875 
L 60.296875 54.6875 
z
" id="DejaVuSans-Oblique-121"/>
      </defs>
      <use transform="translate(0 0.3125)" xlink:href="#DejaVuSans-Oblique-121"/>
     </g>
    </g>
   </g>
   <g id="line2d_19">
    <path clip-path="url(#p1112ae8dbf)" d="M 311.356188 170.685772 
L 311.25582 166.671868 
L 310.954965 162.667996 
L 310.454376 158.684165 
L 309.755304 154.730331 
L 308.859497 150.816378 
L 307.769193 146.952088 
L 306.487117 143.14712 
L 305.016475 139.410984 
L 303.360941 135.753018 
L 301.524655 132.182367 
L 299.512205 128.707954 
L 297.328622 125.338463 
L 294.979363 122.082317 
L 292.470301 118.947655 
L 289.807707 115.942311 
L 286.998236 113.073797 
L 284.04891 110.349283 
L 280.967101 107.775579 
L 277.760512 105.359117 
L 274.437157 103.105938 
L 271.005344 101.021674 
L 267.473649 99.111533 
L 263.850902 97.380291 
L 260.146155 95.832274 
L 256.36867 94.471352 
L 252.527889 93.300927 
L 248.63341 92.323923 
L 244.694968 91.542783 
L 240.722408 90.959459 
L 236.725659 90.57541 
L 232.714709 90.391594 
L 228.699586 90.408473 
L 224.690324 90.626003 
L 220.696944 91.04364 
L 216.729429 91.660342 
L 212.797694 92.474565 
L 208.911567 93.484276 
L 205.080761 94.686951 
L 201.314851 96.079583 
L 197.62325 97.658692 
L 194.015185 99.42033 
L 190.499675 101.360095 
L 187.085506 103.473138 
L 183.781212 105.754178 
L 180.595051 108.197512 
L 177.534989 110.797035 
L 174.608673 113.546249 
L 171.823417 116.438281 
L 169.186184 119.465904 
L 166.703564 122.62155 
L 164.381764 125.897332 
L 162.226586 129.285061 
L 160.243418 132.77627 
L 158.437215 136.362234 
L 156.812494 140.033988 
L 155.373314 143.782356 
L 154.123273 147.597969 
L 153.065496 151.471289 
L 152.202625 155.392635 
L 151.536819 159.352206 
L 151.069741 163.340105 
L 150.802559 167.346365 
L 150.735939 171.360971 
L 150.87005 175.373889 
L 151.204556 179.37509 
L 151.73862 183.354572 
L 152.470908 187.302389 
L 153.39959 191.208672 
L 154.522343 195.063659 
L 155.836363 198.857714 
L 157.338364 202.581354 
L 159.024592 206.225272 
L 160.890833 209.780359 
L 162.932422 213.23773 
L 165.144256 216.588744 
L 167.520807 219.825023 
L 170.056134 222.938481 
L 172.743901 225.921334 
L 175.577389 228.766126 
L 178.549517 231.465748 
L 181.652855 234.013452 
L 184.879646 236.40287 
L 188.221826 238.628029 
L 191.671041 240.683367 
L 195.21867 242.563749 
L 198.855845 244.264472 
L 202.573474 245.781288 
L 206.362268 247.110403 
L 210.212754 248.248497 
L 214.115309 249.192724 
L 218.060178 249.940725 
L 222.037502 250.49063 
L 226.037339 250.841064 
L 230.049692 250.991152 
L 234.064532 250.940518 
L 238.071823 250.689289 
L 242.06155 250.238093 
L 246.023741 249.588058 
L 249.948492 248.740808 
L 253.825993 247.69846 
L 257.646552 246.463622 
L 261.400621 245.039378 
L 265.078815 243.429289 
L 268.671942 241.637379 
L 272.17102 239.668127 
L 275.567303 237.526455 
L 278.852303 235.217716 
L 282.017809 232.747681 
L 285.055909 230.122523 
L 287.959008 227.348804 
L 290.719851 224.433458 
L 293.331538 221.38377 
L 295.787539 218.207363 
L 298.081717 214.912178 
L 300.208337 211.506449 
L 302.162084 207.99869 
L 303.938074 204.397668 
L 305.531869 200.712384 
L 306.939485 196.952049 
L 308.157403 193.126062 
L 309.182579 189.243986 
L 310.012451 185.315524 
L 310.644944 181.350495 
L 311.078479 177.35881 
L 311.31197 173.350446 
L 311.355781 170.941588 
L 311.355781 170.941588 
" style="fill:none;stroke:#009afa;"/>
   </g>
   <g id="patch_3">
    <path d="M 145.914408 258.225354 
L 145.914408 2.834646 
" style="fill:none;stroke:#000000;stroke-linecap:square;stroke-linejoin:miter;"/>
   </g>
   <g id="patch_4">
    <path d="M 145.914408 258.225354 
L 316.174881 258.225354 
" style="fill:none;stroke:#000000;stroke-linecap:square;stroke-linejoin:miter;"/>
   </g>
   <g id="legend_1">
    <g id="patch_5">
     <path d="M 234.494881 28.594646 
L 312.174881 28.594646 
L 312.174881 6.834646 
L 234.494881 6.834646 
z
" style="fill:#ffffff;stroke:#000000;stroke-linejoin:miter;"/>
    </g>
    <g id="line2d_20">
     <path d="M 240.894881 17.714646 
L 256.894881 17.714646 
" style="fill:none;stroke:#009afa;stroke-linejoin:miter;"/>
    </g>
    <g id="line2d_21"/>
    <g id="text_12">
     <!-- $x^2+y^2 = 1$ -->
     <g transform="translate(263.294881 20.514646)scale(0.08 -0.08)">
      <defs>
       <path d="M 46 62.703125 
L 46 35.5 
L 73.1875 35.5 
L 73.1875 27.203125 
L 46 27.203125 
L 46 0 
L 37.796875 0 
L 37.796875 27.203125 
L 10.59375 27.203125 
L 10.59375 35.5 
L 37.796875 35.5 
L 37.796875 62.703125 
z
" id="DejaVuSans-43"/>
       <path d="M 10.59375 45.40625 
L 73.1875 45.40625 
L 73.1875 37.203125 
L 10.59375 37.203125 
z
M 10.59375 25.484375 
L 73.1875 25.484375 
L 73.1875 17.1875 
L 10.59375 17.1875 
z
" id="DejaVuSans-61"/>
      </defs>
      <use transform="translate(0 0.765625)" xlink:href="#DejaVuSans-Oblique-120"/>
      <use transform="translate(63.645833 39.046875)scale(0.7)" xlink:href="#DejaVuSans-50"/>
      <use transform="translate(130.398763 0.765625)" xlink:href="#DejaVuSans-43"/>
      <use transform="translate(233.670247 0.765625)" xlink:href="#DejaVuSans-Oblique-121"/>
      <use transform="translate(297.316081 39.046875)scale(0.7)" xlink:href="#DejaVuSans-50"/>
      <use transform="translate(364.06901 0.765625)" xlink:href="#DejaVuSans-61"/>
      <use transform="translate(467.340495 0.765625)" xlink:href="#DejaVuSans-49"/>
     </g>
    </g>
   </g>
  </g>
 </g>
 <defs>
  <clipPath id="p1112ae8dbf">
   <rect height="255.390709" width="170.260472" x="145.914408" y="2.834646"/>
  </clipPath>
 </defs>
</svg>
