<?xml version="1.0" encoding="utf-8"?>
<svg xmlns="http://www.w3.org/2000/svg" xmlns:xlink="http://www.w3.org/1999/xlink" width="600" height="400" viewBox="0 0 2400 1600">
<defs>
  <clipPath id="clip5600">
    <rect x="0" y="0" width="2400" height="1600"/>
  </clipPath>
</defs>
<path clip-path="url(#clip5600)" d="
M0 1600 L2400 1600 L2400 0 L0 0  Z
  " fill="#ffffff" fill-rule="evenodd" fill-opacity="1"/>
<defs>
  <clipPath id="clip5601">
    <rect x="480" y="0" width="1681" height="1600"/>
  </clipPath>
</defs>
<path clip-path="url(#clip5600)" d="
M253.198 1406.36 L2352.76 1406.36 L2352.76 47.2441 L253.198 47.2441  Z
  " fill="#ffffff" fill-rule="evenodd" fill-opacity="1"/>
<defs>
  <clipPath id="clip5602">
    <rect x="253" y="47" width="2101" height="1360"/>
  </clipPath>
</defs>
<polyline clip-path="url(#clip5602)" style="stroke:#000000; stroke-width:2; stroke-opacity:0.1; fill:none" points="
  532.699,1406.36 532.699,47.2441 
  "/>
<polyline clip-path="url(#clip5602)" style="stroke:#000000; stroke-width:2; stroke-opacity:0.1; fill:none" points="
  972.858,1406.36 972.858,47.2441 
  "/>
<polyline clip-path="url(#clip5602)" style="stroke:#000000; stroke-width:2; stroke-opacity:0.1; fill:none" points="
  1413.02,1406.36 1413.02,47.2441 
  "/>
<polyline clip-path="url(#clip5602)" style="stroke:#000000; stroke-width:2; stroke-opacity:0.1; fill:none" points="
  1853.18,1406.36 1853.18,47.2441 
  "/>
<polyline clip-path="url(#clip5602)" style="stroke:#000000; stroke-width:2; stroke-opacity:0.1; fill:none" points="
  2293.33,1406.36 2293.33,47.2441 
  "/>
<polyline clip-path="url(#clip5602)" style="stroke:#000000; stroke-width:2; stroke-opacity:0.1; fill:none" points="
  253.198,1373.54 2352.76,1373.54 
  "/>
<polyline clip-path="url(#clip5602)" style="stroke:#000000; stroke-width:2; stroke-opacity:0.1; fill:none" points="
  253.198,1050 2352.76,1050 
  "/>
<polyline clip-path="url(#clip5602)" style="stroke:#000000; stroke-width:2; stroke-opacity:0.1; fill:none" points="
  253.198,726.463 2352.76,726.463 
  "/>
<polyline clip-path="url(#clip5602)" style="stroke:#000000; stroke-width:2; stroke-opacity:0.1; fill:none" points="
  253.198,402.924 2352.76,402.924 
  "/>
<polyline clip-path="url(#clip5602)" style="stroke:#000000; stroke-width:2; stroke-opacity:0.1; fill:none" points="
  253.198,79.3851 2352.76,79.3851 
  "/>
<polyline clip-path="url(#clip5600)" style="stroke:#000000; stroke-width:4; stroke-opacity:1; fill:none" points="
  253.198,1406.36 2352.76,1406.36 
  "/>
<polyline clip-path="url(#clip5600)" style="stroke:#000000; stroke-width:4; stroke-opacity:1; fill:none" points="
  253.198,1406.36 253.198,47.2441 
  "/>
<polyline clip-path="url(#clip5600)" style="stroke:#000000; stroke-width:4; stroke-opacity:1; fill:none" points="
  532.699,1406.36 532.699,1390.05 
  "/>
<polyline clip-path="url(#clip5600)" style="stroke:#000000; stroke-width:4; stroke-opacity:1; fill:none" points="
  972.858,1406.36 972.858,1390.05 
  "/>
<polyline clip-path="url(#clip5600)" style="stroke:#000000; stroke-width:4; stroke-opacity:1; fill:none" points="
  1413.02,1406.36 1413.02,1390.05 
  "/>
<polyline clip-path="url(#clip5600)" style="stroke:#000000; stroke-width:4; stroke-opacity:1; fill:none" points="
  1853.18,1406.36 1853.18,1390.05 
  "/>
<polyline clip-path="url(#clip5600)" style="stroke:#000000; stroke-width:4; stroke-opacity:1; fill:none" points="
  2293.33,1406.36 2293.33,1390.05 
  "/>
<polyline clip-path="url(#clip5600)" style="stroke:#000000; stroke-width:4; stroke-opacity:1; fill:none" points="
  253.198,1373.54 278.393,1373.54 
  "/>
<polyline clip-path="url(#clip5600)" style="stroke:#000000; stroke-width:4; stroke-opacity:1; fill:none" points="
  253.198,1050 278.393,1050 
  "/>
<polyline clip-path="url(#clip5600)" style="stroke:#000000; stroke-width:4; stroke-opacity:1; fill:none" points="
  253.198,726.463 278.393,726.463 
  "/>
<polyline clip-path="url(#clip5600)" style="stroke:#000000; stroke-width:4; stroke-opacity:1; fill:none" points="
  253.198,402.924 278.393,402.924 
  "/>
<polyline clip-path="url(#clip5600)" style="stroke:#000000; stroke-width:4; stroke-opacity:1; fill:none" points="
  253.198,79.3851 278.393,79.3851 
  "/>
<path clip-path="url(#clip5600)" d="M 0 0 M527.352 1455.9 L543.671 1455.9 L543.671 1459.83 L521.727 1459.83 L521.727 1455.9 Q524.389 1453.14 528.972 1448.51 Q533.579 1443.86 534.759 1442.52 Q537.005 1440 537.884 1438.26 Q538.787 1436.5 538.787 1434.81 Q538.787 1432.06 536.843 1430.32 Q534.921 1428.58 531.82 1428.58 Q529.62 1428.58 527.167 1429.35 Q524.736 1430.11 521.958 1431.66 L521.958 1426.94 Q524.783 1425.81 527.236 1425.23 Q529.69 1424.65 531.727 1424.65 Q537.097 1424.65 540.292 1427.33 Q543.486 1430.02 543.486 1434.51 Q543.486 1436.64 542.676 1438.56 Q541.889 1440.46 539.782 1443.05 Q539.204 1443.72 536.102 1446.94 Q533 1450.13 527.352 1455.9 Z" fill="#000000" fill-rule="evenodd" fill-opacity="1" /><path clip-path="url(#clip5600)" d="M 0 0 M975.867 1429.35 L964.062 1447.8 L975.867 1447.8 L975.867 1429.35 M974.64 1425.27 L980.52 1425.27 L980.52 1447.8 L985.451 1447.8 L985.451 1451.68 L980.52 1451.68 L980.52 1459.83 L975.867 1459.83 L975.867 1451.68 L960.265 1451.68 L960.265 1447.17 L974.64 1425.27 Z" fill="#000000" fill-rule="evenodd" fill-opacity="1" /><path clip-path="url(#clip5600)" d="M 0 0 M1413.42 1440.69 Q1410.27 1440.69 1408.42 1442.84 Q1406.59 1445 1406.59 1448.75 Q1406.59 1452.47 1408.42 1454.65 Q1410.27 1456.8 1413.42 1456.8 Q1416.57 1456.8 1418.4 1454.65 Q1420.25 1452.47 1420.25 1448.75 Q1420.25 1445 1418.4 1442.84 Q1416.57 1440.69 1413.42 1440.69 M1422.7 1426.04 L1422.7 1430.3 Q1420.95 1429.46 1419.14 1429.02 Q1417.36 1428.58 1415.6 1428.58 Q1410.97 1428.58 1408.51 1431.71 Q1406.08 1434.83 1405.74 1441.15 Q1407.1 1439.14 1409.16 1438.07 Q1411.22 1436.99 1413.7 1436.99 Q1418.91 1436.99 1421.92 1440.16 Q1424.95 1443.31 1424.95 1448.75 Q1424.95 1454.07 1421.8 1457.29 Q1418.65 1460.5 1413.42 1460.5 Q1407.43 1460.5 1404.26 1455.92 Q1401.08 1451.31 1401.08 1442.59 Q1401.08 1434.39 1404.97 1429.53 Q1408.86 1424.65 1415.41 1424.65 Q1417.17 1424.65 1418.95 1425 Q1420.76 1425.34 1422.7 1426.04 Z" fill="#000000" fill-rule="evenodd" fill-opacity="1" /><path clip-path="url(#clip5600)" d="M 0 0 M1853.18 1443.42 Q1849.84 1443.42 1847.92 1445.2 Q1846.02 1446.99 1846.02 1450.11 Q1846.02 1453.24 1847.92 1455.02 Q1849.84 1456.8 1853.18 1456.8 Q1856.51 1456.8 1858.43 1455.02 Q1860.35 1453.21 1860.35 1450.11 Q1860.35 1446.99 1858.43 1445.2 Q1856.53 1443.42 1853.18 1443.42 M1848.5 1441.43 Q1845.49 1440.69 1843.8 1438.63 Q1842.13 1436.57 1842.13 1433.61 Q1842.13 1429.46 1845.07 1427.06 Q1848.04 1424.65 1853.18 1424.65 Q1858.34 1424.65 1861.28 1427.06 Q1864.22 1429.46 1864.22 1433.61 Q1864.22 1436.57 1862.53 1438.63 Q1860.86 1440.69 1857.87 1441.43 Q1861.25 1442.22 1863.13 1444.51 Q1865.03 1446.8 1865.03 1450.11 Q1865.03 1455.13 1861.95 1457.82 Q1858.89 1460.5 1853.18 1460.5 Q1847.46 1460.5 1844.38 1457.82 Q1841.32 1455.13 1841.32 1450.11 Q1841.32 1446.8 1843.22 1444.51 Q1845.12 1442.22 1848.5 1441.43 M1846.79 1434.05 Q1846.79 1436.73 1848.45 1438.24 Q1850.14 1439.74 1853.18 1439.74 Q1856.18 1439.74 1857.87 1438.24 Q1859.59 1436.73 1859.59 1434.05 Q1859.59 1431.36 1857.87 1429.86 Q1856.18 1428.35 1853.18 1428.35 Q1850.14 1428.35 1848.45 1429.86 Q1846.79 1431.36 1846.79 1434.05 Z" fill="#000000" fill-rule="evenodd" fill-opacity="1" /><path clip-path="url(#clip5600)" d="M 0 0 M2270.21 1455.9 L2277.85 1455.9 L2277.85 1429.53 L2269.54 1431.2 L2269.54 1426.94 L2277.8 1425.27 L2282.48 1425.27 L2282.48 1455.9 L2290.12 1455.9 L2290.12 1459.83 L2270.21 1459.83 L2270.21 1455.9 Z" fill="#000000" fill-rule="evenodd" fill-opacity="1" /><path clip-path="url(#clip5600)" d="M 0 0 M2305.19 1428.35 Q2301.58 1428.35 2299.75 1431.92 Q2297.94 1435.46 2297.94 1442.59 Q2297.94 1449.69 2299.75 1453.26 Q2301.58 1456.8 2305.19 1456.8 Q2308.82 1456.8 2310.63 1453.26 Q2312.45 1449.69 2312.45 1442.59 Q2312.45 1435.46 2310.63 1431.92 Q2308.82 1428.35 2305.19 1428.35 M2305.19 1424.65 Q2311 1424.65 2314.05 1429.25 Q2317.13 1433.84 2317.13 1442.59 Q2317.13 1451.31 2314.05 1455.92 Q2311 1460.5 2305.19 1460.5 Q2299.38 1460.5 2296.3 1455.92 Q2293.24 1451.31 2293.24 1442.59 Q2293.24 1433.84 2296.3 1429.25 Q2299.38 1424.65 2305.19 1424.65 Z" fill="#000000" fill-rule="evenodd" fill-opacity="1" /><path clip-path="url(#clip5600)" d="M 0 0 M153.273 1359.34 Q149.662 1359.34 147.833 1362.9 Q146.027 1366.45 146.027 1373.58 Q146.027 1380.68 147.833 1384.25 Q149.662 1387.79 153.273 1387.79 Q156.907 1387.79 158.713 1384.25 Q160.541 1380.68 160.541 1373.58 Q160.541 1366.45 158.713 1362.9 Q156.907 1359.34 153.273 1359.34 M153.273 1355.64 Q159.083 1355.64 162.138 1360.24 Q165.217 1364.83 165.217 1373.58 Q165.217 1382.3 162.138 1386.91 Q159.083 1391.49 153.273 1391.49 Q147.463 1391.49 144.384 1386.91 Q141.328 1382.3 141.328 1373.58 Q141.328 1364.83 144.384 1360.24 Q147.463 1355.64 153.273 1355.64 Z" fill="#000000" fill-rule="evenodd" fill-opacity="1" /><path clip-path="url(#clip5600)" d="M 0 0 M170.287 1384.94 L175.171 1384.94 L175.171 1390.82 L170.287 1390.82 L170.287 1384.94 Z" fill="#000000" fill-rule="evenodd" fill-opacity="1" /><path clip-path="url(#clip5600)" d="M 0 0 M190.24 1359.34 Q186.629 1359.34 184.8 1362.9 Q182.995 1366.45 182.995 1373.58 Q182.995 1380.68 184.8 1384.25 Q186.629 1387.79 190.24 1387.79 Q193.874 1387.79 195.68 1384.25 Q197.509 1380.68 197.509 1373.58 Q197.509 1366.45 195.68 1362.9 Q193.874 1359.34 190.24 1359.34 M190.24 1355.64 Q196.05 1355.64 199.106 1360.24 Q202.185 1364.83 202.185 1373.58 Q202.185 1382.3 199.106 1386.91 Q196.05 1391.49 190.24 1391.49 Q184.43 1391.49 181.351 1386.91 Q178.296 1382.3 178.296 1373.58 Q178.296 1364.83 181.351 1360.24 Q184.43 1355.64 190.24 1355.64 Z" fill="#000000" fill-rule="evenodd" fill-opacity="1" /><path clip-path="url(#clip5600)" d="M 0 0 M217.254 1359.34 Q213.643 1359.34 211.814 1362.9 Q210.009 1366.45 210.009 1373.58 Q210.009 1380.68 211.814 1384.25 Q213.643 1387.79 217.254 1387.79 Q220.888 1387.79 222.694 1384.25 Q224.522 1380.68 224.522 1373.58 Q224.522 1366.45 222.694 1362.9 Q220.888 1359.34 217.254 1359.34 M217.254 1355.64 Q223.064 1355.64 226.12 1360.24 Q229.198 1364.83 229.198 1373.58 Q229.198 1382.3 226.12 1386.91 Q223.064 1391.49 217.254 1391.49 Q211.444 1391.49 208.365 1386.91 Q205.31 1382.3 205.31 1373.58 Q205.31 1364.83 208.365 1360.24 Q211.444 1355.64 217.254 1355.64 Z" fill="#000000" fill-rule="evenodd" fill-opacity="1" /><path clip-path="url(#clip5600)" d="M 0 0 M155.865 1035.8 Q152.254 1035.8 150.426 1039.37 Q148.62 1042.91 148.62 1050.04 Q148.62 1057.14 150.426 1060.71 Q152.254 1064.25 155.865 1064.25 Q159.5 1064.25 161.305 1060.71 Q163.134 1057.14 163.134 1050.04 Q163.134 1042.91 161.305 1039.37 Q159.5 1035.8 155.865 1035.8 M155.865 1032.1 Q161.676 1032.1 164.731 1036.7 Q167.81 1041.29 167.81 1050.04 Q167.81 1058.76 164.731 1063.37 Q161.676 1067.95 155.865 1067.95 Q150.055 1067.95 146.977 1063.37 Q143.921 1058.76 143.921 1050.04 Q143.921 1041.29 146.977 1036.7 Q150.055 1032.1 155.865 1032.1 Z" fill="#000000" fill-rule="evenodd" fill-opacity="1" /><path clip-path="url(#clip5600)" d="M 0 0 M172.879 1061.4 L177.763 1061.4 L177.763 1067.28 L172.879 1067.28 L172.879 1061.4 Z" fill="#000000" fill-rule="evenodd" fill-opacity="1" /><path clip-path="url(#clip5600)" d="M 0 0 M186.861 1063.35 L203.18 1063.35 L203.18 1067.28 L181.236 1067.28 L181.236 1063.35 Q183.898 1060.59 188.481 1055.96 Q193.087 1051.31 194.268 1049.97 Q196.513 1047.44 197.393 1045.71 Q198.296 1043.95 198.296 1042.26 Q198.296 1039.5 196.351 1037.77 Q194.43 1036.03 191.328 1036.03 Q189.129 1036.03 186.675 1036.8 Q184.245 1037.56 181.467 1039.11 L181.467 1034.39 Q184.291 1033.25 186.745 1032.68 Q189.199 1032.1 191.236 1032.1 Q196.606 1032.1 199.8 1034.78 Q202.995 1037.47 202.995 1041.96 Q202.995 1044.09 202.185 1046.01 Q201.398 1047.91 199.291 1050.5 Q198.712 1051.17 195.611 1054.39 Q192.509 1057.58 186.861 1063.35 Z" fill="#000000" fill-rule="evenodd" fill-opacity="1" /><path clip-path="url(#clip5600)" d="M 0 0 M208.296 1032.72 L226.652 1032.72 L226.652 1036.66 L212.578 1036.66 L212.578 1045.13 Q213.597 1044.78 214.615 1044.62 Q215.634 1044.43 216.652 1044.43 Q222.439 1044.43 225.819 1047.61 Q229.198 1050.78 229.198 1056.19 Q229.198 1061.77 225.726 1064.87 Q222.254 1067.95 215.934 1067.95 Q213.759 1067.95 211.49 1067.58 Q209.245 1067.21 206.837 1066.47 L206.837 1061.77 Q208.921 1062.91 211.143 1063.46 Q213.365 1064.02 215.842 1064.02 Q219.846 1064.02 222.184 1061.91 Q224.522 1059.8 224.522 1056.19 Q224.522 1052.58 222.184 1050.48 Q219.846 1048.37 215.842 1048.37 Q213.967 1048.37 212.092 1048.79 Q210.24 1049.2 208.296 1050.08 L208.296 1032.72 Z" fill="#000000" fill-rule="evenodd" fill-opacity="1" /><path clip-path="url(#clip5600)" d="M 0 0 M154.268 712.262 Q150.657 712.262 148.828 715.826 Q147.023 719.368 147.023 726.498 Q147.023 733.604 148.828 737.169 Q150.657 740.711 154.268 740.711 Q157.902 740.711 159.708 737.169 Q161.537 733.604 161.537 726.498 Q161.537 719.368 159.708 715.826 Q157.902 712.262 154.268 712.262 M154.268 708.558 Q160.078 708.558 163.134 713.164 Q166.213 717.748 166.213 726.498 Q166.213 735.224 163.134 739.831 Q160.078 744.414 154.268 744.414 Q148.458 744.414 145.379 739.831 Q142.324 735.224 142.324 726.498 Q142.324 717.748 145.379 713.164 Q148.458 708.558 154.268 708.558 Z" fill="#000000" fill-rule="evenodd" fill-opacity="1" /><path clip-path="url(#clip5600)" d="M 0 0 M171.282 737.863 L176.166 737.863 L176.166 743.743 L171.282 743.743 L171.282 737.863 Z" fill="#000000" fill-rule="evenodd" fill-opacity="1" /><path clip-path="url(#clip5600)" d="M 0 0 M181.282 709.183 L199.638 709.183 L199.638 713.118 L185.564 713.118 L185.564 721.59 Q186.583 721.243 187.601 721.081 Q188.62 720.896 189.638 720.896 Q195.425 720.896 198.805 724.067 Q202.185 727.238 202.185 732.655 Q202.185 738.234 198.712 741.336 Q195.24 744.414 188.921 744.414 Q186.745 744.414 184.476 744.044 Q182.231 743.673 179.824 742.933 L179.824 738.234 Q181.907 739.368 184.129 739.923 Q186.351 740.479 188.828 740.479 Q192.833 740.479 195.171 738.373 Q197.509 736.266 197.509 732.655 Q197.509 729.044 195.171 726.937 Q192.833 724.831 188.828 724.831 Q186.953 724.831 185.078 725.248 Q183.226 725.664 181.282 726.544 L181.282 709.183 Z" fill="#000000" fill-rule="evenodd" fill-opacity="1" /><path clip-path="url(#clip5600)" d="M 0 0 M217.254 712.262 Q213.643 712.262 211.814 715.826 Q210.009 719.368 210.009 726.498 Q210.009 733.604 211.814 737.169 Q213.643 740.711 217.254 740.711 Q220.888 740.711 222.694 737.169 Q224.522 733.604 224.522 726.498 Q224.522 719.368 222.694 715.826 Q220.888 712.262 217.254 712.262 M217.254 708.558 Q223.064 708.558 226.12 713.164 Q229.198 717.748 229.198 726.498 Q229.198 735.224 226.12 739.831 Q223.064 744.414 217.254 744.414 Q211.444 744.414 208.365 739.831 Q205.31 735.224 205.31 726.498 Q205.31 717.748 208.365 713.164 Q211.444 708.558 217.254 708.558 Z" fill="#000000" fill-rule="evenodd" fill-opacity="1" /><path clip-path="url(#clip5600)" d="M 0 0 M155.171 388.723 Q151.56 388.723 149.731 392.287 Q147.926 395.829 147.926 402.959 Q147.926 410.065 149.731 413.63 Q151.56 417.172 155.171 417.172 Q158.805 417.172 160.611 413.63 Q162.439 410.065 162.439 402.959 Q162.439 395.829 160.611 392.287 Q158.805 388.723 155.171 388.723 M155.171 385.019 Q160.981 385.019 164.037 389.625 Q167.115 394.209 167.115 402.959 Q167.115 411.686 164.037 416.292 Q160.981 420.875 155.171 420.875 Q149.361 420.875 146.282 416.292 Q143.227 411.686 143.227 402.959 Q143.227 394.209 146.282 389.625 Q149.361 385.019 155.171 385.019 Z" fill="#000000" fill-rule="evenodd" fill-opacity="1" /><path clip-path="url(#clip5600)" d="M 0 0 M172.185 414.324 L177.069 414.324 L177.069 420.204 L172.185 420.204 L172.185 414.324 Z" fill="#000000" fill-rule="evenodd" fill-opacity="1" /><path clip-path="url(#clip5600)" d="M 0 0 M180.958 385.644 L203.18 385.644 L203.18 387.635 L190.634 420.204 L185.749 420.204 L197.555 389.579 L180.958 389.579 L180.958 385.644 Z" fill="#000000" fill-rule="evenodd" fill-opacity="1" /><path clip-path="url(#clip5600)" d="M 0 0 M208.296 385.644 L226.652 385.644 L226.652 389.579 L212.578 389.579 L212.578 398.051 Q213.597 397.704 214.615 397.542 Q215.634 397.357 216.652 397.357 Q222.439 397.357 225.819 400.528 Q229.198 403.699 229.198 409.116 Q229.198 414.695 225.726 417.797 Q222.254 420.875 215.934 420.875 Q213.759 420.875 211.49 420.505 Q209.245 420.135 206.837 419.394 L206.837 414.695 Q208.921 415.829 211.143 416.385 Q213.365 416.94 215.842 416.94 Q219.846 416.94 222.184 414.834 Q224.522 412.727 224.522 409.116 Q224.522 405.505 222.184 403.399 Q219.846 401.292 215.842 401.292 Q213.967 401.292 212.092 401.709 Q210.24 402.125 208.296 403.005 L208.296 385.644 Z" fill="#000000" fill-rule="evenodd" fill-opacity="1" /><path clip-path="url(#clip5600)" d="M 0 0 M145.31 92.73 L152.949 92.73 L152.949 66.3644 L144.639 68.031 L144.639 63.7718 L152.902 62.1051 L157.578 62.1051 L157.578 92.73 L165.217 92.73 L165.217 96.6651 L145.31 96.6651 L145.31 92.73 Z" fill="#000000" fill-rule="evenodd" fill-opacity="1" /><path clip-path="url(#clip5600)" d="M 0 0 M170.287 90.7855 L175.171 90.7855 L175.171 96.6651 L170.287 96.6651 L170.287 90.7855 Z" fill="#000000" fill-rule="evenodd" fill-opacity="1" /><path clip-path="url(#clip5600)" d="M 0 0 M190.24 65.1838 Q186.629 65.1838 184.8 68.7486 Q182.995 72.2903 182.995 79.4198 Q182.995 86.5263 184.8 90.0911 Q186.629 93.6327 190.24 93.6327 Q193.874 93.6327 195.68 90.0911 Q197.509 86.5263 197.509 79.4198 Q197.509 72.2903 195.68 68.7486 Q193.874 65.1838 190.24 65.1838 M190.24 61.4801 Q196.05 61.4801 199.106 66.0866 Q202.185 70.6699 202.185 79.4198 Q202.185 88.1467 199.106 92.7531 Q196.05 97.3364 190.24 97.3364 Q184.43 97.3364 181.351 92.7531 Q178.296 88.1467 178.296 79.4198 Q178.296 70.6699 181.351 66.0866 Q184.43 61.4801 190.24 61.4801 Z" fill="#000000" fill-rule="evenodd" fill-opacity="1" /><path clip-path="url(#clip5600)" d="M 0 0 M217.254 65.1838 Q213.643 65.1838 211.814 68.7486 Q210.009 72.2903 210.009 79.4198 Q210.009 86.5263 211.814 90.0911 Q213.643 93.6327 217.254 93.6327 Q220.888 93.6327 222.694 90.0911 Q224.522 86.5263 224.522 79.4198 Q224.522 72.2903 222.694 68.7486 Q220.888 65.1838 217.254 65.1838 M217.254 61.4801 Q223.064 61.4801 226.12 66.0866 Q229.198 70.6699 229.198 79.4198 Q229.198 88.1467 226.12 92.7531 Q223.064 97.3364 217.254 97.3364 Q211.444 97.3364 208.365 92.7531 Q205.31 88.1467 205.31 79.4198 Q205.31 70.6699 208.365 66.0866 Q211.444 61.4801 217.254 61.4801 Z" fill="#000000" fill-rule="evenodd" fill-opacity="1" /><path clip-path="url(#clip5600)" d="M 0 0 M1317.14 1486.67 Q1317.14 1488.47 1316.01 1489.5 Q1314.88 1490.5 1313.59 1490.5 Q1312.37 1490.5 1311.73 1489.79 Q1311.08 1489.08 1311.08 1488.18 Q1311.08 1486.96 1311.98 1485.9 Q1312.89 1484.83 1314.24 1484.61 Q1312.92 1483.77 1310.95 1483.77 Q1309.67 1483.77 1308.54 1484.45 Q1307.44 1485.12 1306.77 1485.99 Q1306.12 1486.86 1305.54 1488.12 Q1305 1489.34 1304.77 1490.08 Q1304.58 1490.79 1304.42 1491.56 L1302.16 1500.58 Q1301.07 1504.86 1301.07 1506.38 Q1301.07 1508.25 1301.97 1509.5 Q1302.87 1510.73 1304.67 1510.73 Q1305.38 1510.73 1306.19 1510.53 Q1306.99 1510.31 1308.02 1509.73 Q1309.09 1509.12 1310.02 1508.21 Q1310.99 1507.28 1311.92 1505.7 Q1312.85 1504.12 1313.47 1502.09 Q1313.66 1501.39 1314.3 1501.39 Q1315.11 1501.39 1315.11 1502.03 Q1315.11 1502.58 1314.66 1503.74 Q1314.24 1504.86 1313.3 1506.35 Q1312.4 1507.8 1311.21 1509.12 Q1310.02 1510.4 1308.25 1511.31 Q1306.48 1512.21 1304.54 1512.21 Q1301.77 1512.21 1299.94 1510.73 Q1298.1 1509.24 1297.43 1507.18 Q1297.27 1507.47 1297.04 1507.86 Q1296.82 1508.25 1296.14 1509.12 Q1295.49 1509.95 1294.75 1510.6 Q1294.01 1511.21 1292.85 1511.69 Q1291.73 1512.21 1290.5 1512.21 Q1288.96 1512.21 1287.57 1511.76 Q1286.22 1511.31 1285.25 1510.28 Q1284.29 1509.24 1284.29 1507.83 Q1284.29 1506.25 1285.35 1505.15 Q1286.44 1504.03 1287.93 1504.03 Q1288.86 1504.03 1289.6 1504.57 Q1290.37 1505.12 1290.37 1506.31 Q1290.37 1507.63 1289.47 1508.63 Q1288.57 1509.63 1287.28 1509.89 Q1288.6 1510.73 1290.57 1510.73 Q1292.69 1510.73 1294.37 1508.86 Q1296.04 1506.99 1296.85 1503.87 Q1298.84 1496.36 1299.62 1493.01 Q1300.39 1489.63 1300.39 1488.18 Q1300.39 1486.83 1300.04 1485.9 Q1299.68 1484.96 1299.07 1484.54 Q1298.49 1484.09 1297.94 1483.93 Q1297.43 1483.77 1296.85 1483.77 Q1295.88 1483.77 1294.79 1484.16 Q1293.72 1484.54 1292.44 1485.44 Q1291.18 1486.31 1289.99 1488.12 Q1288.8 1489.92 1287.99 1492.4 Q1287.83 1493.14 1287.12 1493.14 Q1286.35 1493.11 1286.35 1492.47 Q1286.35 1491.92 1286.77 1490.79 Q1287.22 1489.63 1288.12 1488.18 Q1289.05 1486.73 1290.25 1485.44 Q1291.47 1484.12 1293.24 1483.22 Q1295.04 1482.32 1296.98 1482.32 Q1297.85 1482.32 1298.68 1482.51 Q1299.55 1482.67 1300.58 1483.16 Q1301.65 1483.64 1302.58 1484.7 Q1303.51 1485.77 1304.09 1487.31 Q1304.48 1486.57 1305 1485.86 Q1305.54 1485.15 1306.38 1484.28 Q1307.25 1483.38 1308.44 1482.87 Q1309.67 1482.32 1311.02 1482.32 Q1312.34 1482.32 1313.63 1482.67 Q1314.91 1483 1316.01 1484.06 Q1317.14 1485.09 1317.14 1486.67 Z" fill="#000000" fill-rule="evenodd" fill-opacity="1" /><path clip-path="url(#clip5600)" d="M 0 0 M76.4129 712.377 Q76.8638 712.377 77.9266 712.666 L103.112 718.979 Q108.715 720.364 112.644 724.872 Q116.574 729.349 116.574 734.438 Q116.574 737.497 114.931 739.462 Q113.321 741.426 110.841 741.426 Q108.651 741.426 107.588 740.267 Q106.558 739.107 106.558 737.723 Q106.558 737.272 106.686 736.789 Q106.815 736.306 107.363 735.79 Q107.91 735.275 108.844 735.275 Q110.358 735.275 111.549 736.595 Q112.097 737.24 112.226 737.851 Q112.355 738.431 112.355 739.43 Q113.256 739.043 113.868 738.335 Q114.48 737.626 114.706 736.821 Q114.963 736.016 115.028 735.5 Q115.124 734.953 115.124 734.438 Q115.124 730.315 110.97 727.159 Q109.714 726.225 108.458 725.549 Q107.234 724.84 105.72 724.325 Q104.239 723.81 103.434 723.584 Q102.628 723.327 100.793 722.876 Q103.788 725.871 103.788 729.542 Q103.788 731.088 103.369 732.473 Q102.951 733.826 102.081 735.017 Q101.179 736.209 99.6011 736.917 Q98.023 737.594 95.9296 737.594 Q93.7074 737.594 90.6801 736.724 Q87.6527 735.855 82.0811 733.761 Q78.9572 732.634 77.4435 732.634 Q76.7027 732.634 76.2519 732.795 Q75.7688 732.956 75.6077 733.278 Q75.4145 733.6 75.3823 733.793 Q75.3501 733.955 75.3501 734.277 Q75.3501 736.177 77.2825 737.948 Q79.2148 739.719 83.5304 740.943 Q84.3355 741.201 84.5288 741.362 Q84.722 741.523 84.722 742.006 Q84.6898 742.811 84.0457 742.811 Q83.788 742.811 82.7897 742.521 Q81.7591 742.231 80.2454 741.555 Q78.6995 740.847 77.3147 739.88 Q75.8976 738.914 74.8992 737.401 Q73.9008 735.855 73.9008 734.083 Q73.9008 731.668 75.4789 730.186 Q77.0248 728.673 79.3114 728.673 Q80.2454 728.673 81.0827 728.93 Q81.8879 729.156 84.0457 729.993 Q92.7413 733.375 96.9924 733.375 Q98.023 733.375 98.8926 733.214 Q99.7299 733.021 100.567 732.602 Q101.372 732.183 101.856 731.346 Q102.306 730.476 102.306 729.285 Q102.306 727.771 101.598 726.354 Q100.857 724.905 99.8588 724.003 Q98.8604 723.069 98.023 722.521 Q97.1535 721.942 96.7026 721.813 L84.8508 718.85 L79.5691 717.53 Q76.7027 716.918 75.9942 716.628 Q75.3179 716.241 74.9636 715.565 Q74.6094 714.889 74.6094 714.309 Q74.6094 713.504 75.0925 712.956 Q75.5755 712.377 76.4129 712.377 Z" fill="#000000" fill-rule="evenodd" fill-opacity="1" /><polyline clip-path="url(#clip5602)" style="stroke:#009af9; stroke-width:4; stroke-opacity:1; fill:none" points="
  312.62,87.8928 532.699,1042.49 752.779,945.04 972.858,119.786 1192.94,918.719 1413.02,85.7097 1633.1,250.82 1853.18,1367.9 2073.26,369.21 2293.33,145.898 
  
  "/>
<path clip-path="url(#clip5600)" d="
M1989.74 251.724 L2280.76 251.724 L2280.76 130.764 L1989.74 130.764  Z
  " fill="#ffffff" fill-rule="evenodd" fill-opacity="1"/>
<polyline clip-path="url(#clip5600)" style="stroke:#000000; stroke-width:4; stroke-opacity:1; fill:none" points="
  1989.74,251.724 2280.76,251.724 2280.76,130.764 1989.74,130.764 1989.74,251.724 
  "/>
<polyline clip-path="url(#clip5600)" style="stroke:#009af9; stroke-width:4; stroke-opacity:1; fill:none" points="
  2013.74,191.244 2157.74,191.244 
  "/>
<path clip-path="url(#clip5600)" d="M 0 0 M2195.58 210.931 Q2193.77 215.561 2192.06 216.973 Q2190.35 218.385 2187.48 218.385 L2184.08 218.385 L2184.08 214.82 L2186.58 214.82 Q2188.33 214.82 2189.31 213.987 Q2190.28 213.154 2191.46 210.052 L2192.22 208.107 L2181.74 182.598 L2186.25 182.598 L2194.35 202.876 L2202.46 182.598 L2206.97 182.598 L2195.58 210.931 Z" fill="#000000" fill-rule="evenodd" fill-opacity="1" /><path clip-path="url(#clip5600)" d="M 0 0 M2212.85 204.589 L2220.49 204.589 L2220.49 178.223 L2212.18 179.89 L2212.18 175.631 L2220.44 173.964 L2225.12 173.964 L2225.12 204.589 L2232.76 204.589 L2232.76 208.524 L2212.85 208.524 L2212.85 204.589 Z" fill="#000000" fill-rule="evenodd" fill-opacity="1" /></svg>
