<?xml version="1.0" encoding="utf-8"?>
<svg xmlns="http://www.w3.org/2000/svg" xmlns:xlink="http://www.w3.org/1999/xlink" width="600" height="400" viewBox="0 0 2400 1600">
<defs>
  <clipPath id="clip450">
    <rect x="0" y="0" width="2400" height="1600"/>
  </clipPath>
</defs>
<path clip-path="url(#clip450)" d="
M0 1600 L2400 1600 L2400 0 L0 0  Z
  " fill="#ffffff" fill-rule="evenodd" fill-opacity="1"/>
<defs>
  <clipPath id="clip451">
    <rect x="480" y="0" width="1681" height="1600"/>
  </clipPath>
</defs>
<path clip-path="url(#clip450)" d="
M211.141 1447.17 L2352.76 1447.17 L2352.76 47.2441 L211.141 47.2441  Z
  " fill="#ffffff" fill-rule="evenodd" fill-opacity="1"/>
<defs>
  <clipPath id="clip452">
    <rect x="211" y="47" width="2143" height="1401"/>
  </clipPath>
</defs>
<polyline clip-path="url(#clip452)" style="stroke:#000000; stroke-width:2; stroke-opacity:0.1; fill:none" points="
  496.241,1447.17 496.241,47.2441 
  "/>
<polyline clip-path="url(#clip452)" style="stroke:#000000; stroke-width:2; stroke-opacity:0.1; fill:none" points="
  945.217,1447.17 945.217,47.2441 
  "/>
<polyline clip-path="url(#clip452)" style="stroke:#000000; stroke-width:2; stroke-opacity:0.1; fill:none" points="
  1394.19,1447.17 1394.19,47.2441 
  "/>
<polyline clip-path="url(#clip452)" style="stroke:#000000; stroke-width:2; stroke-opacity:0.1; fill:none" points="
  1843.17,1447.17 1843.17,47.2441 
  "/>
<polyline clip-path="url(#clip452)" style="stroke:#000000; stroke-width:2; stroke-opacity:0.1; fill:none" points="
  2292.14,1447.17 2292.14,47.2441 
  "/>
<polyline clip-path="url(#clip452)" style="stroke:#000000; stroke-width:2; stroke-opacity:0.1; fill:none" points="
  211.141,1432.97 2352.76,1432.97 
  "/>
<polyline clip-path="url(#clip452)" style="stroke:#000000; stroke-width:2; stroke-opacity:0.1; fill:none" points="
  211.141,1109.42 2352.76,1109.42 
  "/>
<polyline clip-path="url(#clip452)" style="stroke:#000000; stroke-width:2; stroke-opacity:0.1; fill:none" points="
  211.141,785.865 2352.76,785.865 
  "/>
<polyline clip-path="url(#clip452)" style="stroke:#000000; stroke-width:2; stroke-opacity:0.1; fill:none" points="
  211.141,462.311 2352.76,462.311 
  "/>
<polyline clip-path="url(#clip452)" style="stroke:#000000; stroke-width:2; stroke-opacity:0.1; fill:none" points="
  211.141,138.756 2352.76,138.756 
  "/>
<polyline clip-path="url(#clip450)" style="stroke:#000000; stroke-width:4; stroke-opacity:1; fill:none" points="
  211.141,1447.17 2352.76,1447.17 
  "/>
<polyline clip-path="url(#clip450)" style="stroke:#000000; stroke-width:4; stroke-opacity:1; fill:none" points="
  211.141,1447.17 211.141,47.2441 
  "/>
<polyline clip-path="url(#clip450)" style="stroke:#000000; stroke-width:4; stroke-opacity:1; fill:none" points="
  496.241,1447.17 496.241,1430.37 
  "/>
<polyline clip-path="url(#clip450)" style="stroke:#000000; stroke-width:4; stroke-opacity:1; fill:none" points="
  945.217,1447.17 945.217,1430.37 
  "/>
<polyline clip-path="url(#clip450)" style="stroke:#000000; stroke-width:4; stroke-opacity:1; fill:none" points="
  1394.19,1447.17 1394.19,1430.37 
  "/>
<polyline clip-path="url(#clip450)" style="stroke:#000000; stroke-width:4; stroke-opacity:1; fill:none" points="
  1843.17,1447.17 1843.17,1430.37 
  "/>
<polyline clip-path="url(#clip450)" style="stroke:#000000; stroke-width:4; stroke-opacity:1; fill:none" points="
  2292.14,1447.17 2292.14,1430.37 
  "/>
<polyline clip-path="url(#clip450)" style="stroke:#000000; stroke-width:4; stroke-opacity:1; fill:none" points="
  211.141,1432.97 236.841,1432.97 
  "/>
<polyline clip-path="url(#clip450)" style="stroke:#000000; stroke-width:4; stroke-opacity:1; fill:none" points="
  211.141,1109.42 236.841,1109.42 
  "/>
<polyline clip-path="url(#clip450)" style="stroke:#000000; stroke-width:4; stroke-opacity:1; fill:none" points="
  211.141,785.865 236.841,785.865 
  "/>
<polyline clip-path="url(#clip450)" style="stroke:#000000; stroke-width:4; stroke-opacity:1; fill:none" points="
  211.141,462.311 236.841,462.311 
  "/>
<polyline clip-path="url(#clip450)" style="stroke:#000000; stroke-width:4; stroke-opacity:1; fill:none" points="
  211.141,138.756 236.841,138.756 
  "/>
<path clip-path="url(#clip450)" d="M 0 0 M490.894 1496.71 L507.213 1496.71 L507.213 1500.64 L485.269 1500.64 L485.269 1496.71 Q487.931 1493.95 492.514 1489.32 Q497.121 1484.67 498.301 1483.33 Q500.546 1480.8 501.426 1479.07 Q502.329 1477.31 502.329 1475.62 Q502.329 1472.86 500.384 1471.13 Q498.463 1469.39 495.361 1469.39 Q493.162 1469.39 490.709 1470.16 Q488.278 1470.92 485.5 1472.47 L485.5 1467.75 Q488.324 1466.61 490.778 1466.04 Q493.232 1465.46 495.269 1465.46 Q500.639 1465.46 503.833 1468.14 Q507.028 1470.83 507.028 1475.32 Q507.028 1477.45 506.218 1479.37 Q505.431 1481.27 503.324 1483.86 Q502.745 1484.53 499.644 1487.75 Q496.542 1490.94 490.894 1496.71 Z" fill="#000000" fill-rule="evenodd" fill-opacity="1" /><path clip-path="url(#clip450)" d="M 0 0 M948.226 1470.16 L936.42 1488.61 L948.226 1488.61 L948.226 1470.16 M946.999 1466.08 L952.879 1466.08 L952.879 1488.61 L957.809 1488.61 L957.809 1492.49 L952.879 1492.49 L952.879 1500.64 L948.226 1500.64 L948.226 1492.49 L932.624 1492.49 L932.624 1487.98 L946.999 1466.08 Z" fill="#000000" fill-rule="evenodd" fill-opacity="1" /><path clip-path="url(#clip450)" d="M 0 0 M1394.6 1481.5 Q1391.45 1481.5 1389.6 1483.65 Q1387.77 1485.8 1387.77 1489.55 Q1387.77 1493.28 1389.6 1495.46 Q1391.45 1497.61 1394.6 1497.61 Q1397.75 1497.61 1399.57 1495.46 Q1401.43 1493.28 1401.43 1489.55 Q1401.43 1485.8 1399.57 1483.65 Q1397.75 1481.5 1394.6 1481.5 M1403.88 1466.85 L1403.88 1471.11 Q1402.12 1470.27 1400.32 1469.83 Q1398.53 1469.39 1396.77 1469.39 Q1392.14 1469.39 1389.69 1472.52 Q1387.26 1475.64 1386.91 1481.96 Q1388.28 1479.95 1390.34 1478.88 Q1392.4 1477.8 1394.88 1477.8 Q1400.08 1477.8 1403.09 1480.97 Q1406.13 1484.11 1406.13 1489.55 Q1406.13 1494.88 1402.98 1498.1 Q1399.83 1501.31 1394.6 1501.31 Q1388.6 1501.31 1385.43 1496.73 Q1382.26 1492.12 1382.26 1483.4 Q1382.26 1475.2 1386.15 1470.34 Q1390.04 1465.46 1396.59 1465.46 Q1398.35 1465.46 1400.13 1465.8 Q1401.94 1466.15 1403.88 1466.85 Z" fill="#000000" fill-rule="evenodd" fill-opacity="1" /><path clip-path="url(#clip450)" d="M 0 0 M1843.17 1484.23 Q1839.84 1484.23 1837.91 1486.01 Q1836.02 1487.8 1836.02 1490.92 Q1836.02 1494.05 1837.91 1495.83 Q1839.84 1497.61 1843.17 1497.61 Q1846.5 1497.61 1848.42 1495.83 Q1850.34 1494.02 1850.34 1490.92 Q1850.34 1487.8 1848.42 1486.01 Q1846.52 1484.23 1843.17 1484.23 M1838.49 1482.24 Q1835.48 1481.5 1833.79 1479.44 Q1832.13 1477.38 1832.13 1474.42 Q1832.13 1470.27 1835.07 1467.86 Q1838.03 1465.46 1843.17 1465.46 Q1848.33 1465.46 1851.27 1467.86 Q1854.21 1470.27 1854.21 1474.42 Q1854.21 1477.38 1852.52 1479.44 Q1850.85 1481.5 1847.87 1482.24 Q1851.25 1483.03 1853.12 1485.32 Q1855.02 1487.61 1855.02 1490.92 Q1855.02 1495.94 1851.94 1498.63 Q1848.89 1501.31 1843.17 1501.31 Q1837.45 1501.31 1834.37 1498.63 Q1831.32 1495.94 1831.32 1490.92 Q1831.32 1487.61 1833.21 1485.32 Q1835.11 1483.03 1838.49 1482.24 M1836.78 1474.86 Q1836.78 1477.54 1838.45 1479.05 Q1840.14 1480.55 1843.17 1480.55 Q1846.18 1480.55 1847.87 1479.05 Q1849.58 1477.54 1849.58 1474.86 Q1849.58 1472.17 1847.87 1470.67 Q1846.18 1469.16 1843.17 1469.16 Q1840.14 1469.16 1838.45 1470.67 Q1836.78 1472.17 1836.78 1474.86 Z" fill="#000000" fill-rule="evenodd" fill-opacity="1" /><path clip-path="url(#clip450)" d="M 0 0 M2269.02 1496.71 L2276.66 1496.71 L2276.66 1470.34 L2268.35 1472.01 L2268.35 1467.75 L2276.61 1466.08 L2281.29 1466.08 L2281.29 1496.71 L2288.93 1496.71 L2288.93 1500.64 L2269.02 1500.64 L2269.02 1496.71 Z" fill="#000000" fill-rule="evenodd" fill-opacity="1" /><path clip-path="url(#clip450)" d="M 0 0 M2304 1469.16 Q2300.38 1469.16 2298.56 1472.73 Q2296.75 1476.27 2296.75 1483.4 Q2296.75 1490.5 2298.56 1494.07 Q2300.38 1497.61 2304 1497.61 Q2307.63 1497.61 2309.44 1494.07 Q2311.26 1490.5 2311.26 1483.4 Q2311.26 1476.27 2309.44 1472.73 Q2307.63 1469.16 2304 1469.16 M2304 1465.46 Q2309.81 1465.46 2312.86 1470.06 Q2315.94 1474.65 2315.94 1483.4 Q2315.94 1492.12 2312.86 1496.73 Q2309.81 1501.31 2304 1501.31 Q2298.19 1501.31 2295.11 1496.73 Q2292.05 1492.12 2292.05 1483.4 Q2292.05 1474.65 2295.11 1470.06 Q2298.19 1465.46 2304 1465.46 Z" fill="#000000" fill-rule="evenodd" fill-opacity="1" /><path clip-path="url(#clip450)" d="M 0 0 M138.229 1418.77 Q134.618 1418.77 132.79 1422.34 Q130.984 1425.88 130.984 1433.01 Q130.984 1440.12 132.79 1443.68 Q134.618 1447.22 138.229 1447.22 Q141.864 1447.22 143.669 1443.68 Q145.498 1440.12 145.498 1433.01 Q145.498 1425.88 143.669 1422.34 Q141.864 1418.77 138.229 1418.77 M138.229 1415.07 Q144.04 1415.07 147.095 1419.68 Q150.174 1424.26 150.174 1433.01 Q150.174 1441.74 147.095 1446.34 Q144.04 1450.93 138.229 1450.93 Q132.419 1450.93 129.341 1446.34 Q126.285 1441.74 126.285 1433.01 Q126.285 1424.26 129.341 1419.68 Q132.419 1415.07 138.229 1415.07 Z" fill="#000000" fill-rule="evenodd" fill-opacity="1" /><path clip-path="url(#clip450)" d="M 0 0 M155.243 1444.37 L160.128 1444.37 L160.128 1450.25 L155.243 1450.25 L155.243 1444.37 Z" fill="#000000" fill-rule="evenodd" fill-opacity="1" /><path clip-path="url(#clip450)" d="M 0 0 M175.197 1418.77 Q171.586 1418.77 169.757 1422.34 Q167.952 1425.88 167.952 1433.01 Q167.952 1440.12 169.757 1443.68 Q171.586 1447.22 175.197 1447.22 Q178.831 1447.22 180.637 1443.68 Q182.465 1440.12 182.465 1433.01 Q182.465 1425.88 180.637 1422.34 Q178.831 1418.77 175.197 1418.77 M175.197 1415.07 Q181.007 1415.07 184.063 1419.68 Q187.141 1424.26 187.141 1433.01 Q187.141 1441.74 184.063 1446.34 Q181.007 1450.93 175.197 1450.93 Q169.387 1450.93 166.308 1446.34 Q163.252 1441.74 163.252 1433.01 Q163.252 1424.26 166.308 1419.68 Q169.387 1415.07 175.197 1415.07 Z" fill="#000000" fill-rule="evenodd" fill-opacity="1" /><path clip-path="url(#clip450)" d="M 0 0 M139.827 1095.22 Q136.216 1095.22 134.387 1098.78 Q132.581 1102.33 132.581 1109.45 Q132.581 1116.56 134.387 1120.13 Q136.216 1123.67 139.827 1123.67 Q143.461 1123.67 145.266 1120.13 Q147.095 1116.56 147.095 1109.45 Q147.095 1102.33 145.266 1098.78 Q143.461 1095.22 139.827 1095.22 M139.827 1091.51 Q145.637 1091.51 148.692 1096.12 Q151.771 1100.7 151.771 1109.45 Q151.771 1118.18 148.692 1122.79 Q145.637 1127.37 139.827 1127.37 Q134.017 1127.37 130.938 1122.79 Q127.882 1118.18 127.882 1109.45 Q127.882 1100.7 130.938 1096.12 Q134.017 1091.51 139.827 1091.51 Z" fill="#000000" fill-rule="evenodd" fill-opacity="1" /><path clip-path="url(#clip450)" d="M 0 0 M156.84 1120.82 L161.725 1120.82 L161.725 1126.7 L156.84 1126.7 L156.84 1120.82 Z" fill="#000000" fill-rule="evenodd" fill-opacity="1" /><path clip-path="url(#clip450)" d="M 0 0 M170.822 1122.76 L187.141 1122.76 L187.141 1126.7 L165.197 1126.7 L165.197 1122.76 Q167.859 1120.01 172.442 1115.38 Q177.049 1110.73 178.229 1109.39 Q180.475 1106.86 181.354 1105.13 Q182.257 1103.37 182.257 1101.68 Q182.257 1098.92 180.313 1097.19 Q178.391 1095.45 175.289 1095.45 Q173.09 1095.45 170.637 1096.21 Q168.206 1096.98 165.428 1098.53 L165.428 1093.81 Q168.252 1092.67 170.706 1092.09 Q173.16 1091.51 175.197 1091.51 Q180.567 1091.51 183.762 1094.2 Q186.956 1096.89 186.956 1101.38 Q186.956 1103.51 186.146 1105.43 Q185.359 1107.32 183.252 1109.92 Q182.674 1110.59 179.572 1113.81 Q176.47 1117 170.822 1122.76 Z" fill="#000000" fill-rule="evenodd" fill-opacity="1" /><path clip-path="url(#clip450)" d="M 0 0 M137.743 771.664 Q134.132 771.664 132.304 775.229 Q130.498 778.77 130.498 785.9 Q130.498 793.007 132.304 796.571 Q134.132 800.113 137.743 800.113 Q141.378 800.113 143.183 796.571 Q145.012 793.007 145.012 785.9 Q145.012 778.77 143.183 775.229 Q141.378 771.664 137.743 771.664 M137.743 767.96 Q143.554 767.96 146.609 772.567 Q149.688 777.15 149.688 785.9 Q149.688 794.627 146.609 799.233 Q143.554 803.817 137.743 803.817 Q131.933 803.817 128.855 799.233 Q125.799 794.627 125.799 785.9 Q125.799 777.15 128.855 772.567 Q131.933 767.96 137.743 767.96 Z" fill="#000000" fill-rule="evenodd" fill-opacity="1" /><path clip-path="url(#clip450)" d="M 0 0 M154.757 797.266 L159.641 797.266 L159.641 803.145 L154.757 803.145 L154.757 797.266 Z" fill="#000000" fill-rule="evenodd" fill-opacity="1" /><path clip-path="url(#clip450)" d="M 0 0 M177.558 772.659 L165.752 791.108 L177.558 791.108 L177.558 772.659 M176.331 768.585 L182.211 768.585 L182.211 791.108 L187.141 791.108 L187.141 794.997 L182.211 794.997 L182.211 803.145 L177.558 803.145 L177.558 794.997 L161.956 794.997 L161.956 790.483 L176.331 768.585 Z" fill="#000000" fill-rule="evenodd" fill-opacity="1" /><path clip-path="url(#clip450)" d="M 0 0 M138.067 448.109 Q134.456 448.109 132.628 451.674 Q130.822 455.216 130.822 462.346 Q130.822 469.452 132.628 473.017 Q134.456 476.558 138.067 476.558 Q141.702 476.558 143.507 473.017 Q145.336 469.452 145.336 462.346 Q145.336 455.216 143.507 451.674 Q141.702 448.109 138.067 448.109 M138.067 444.406 Q143.878 444.406 146.933 449.012 Q150.012 453.596 150.012 462.346 Q150.012 471.072 146.933 475.679 Q143.878 480.262 138.067 480.262 Q132.257 480.262 129.179 475.679 Q126.123 471.072 126.123 462.346 Q126.123 453.596 129.179 449.012 Q132.257 444.406 138.067 444.406 Z" fill="#000000" fill-rule="evenodd" fill-opacity="1" /><path clip-path="url(#clip450)" d="M 0 0 M155.081 473.711 L159.965 473.711 L159.965 479.591 L155.081 479.591 L155.081 473.711 Z" fill="#000000" fill-rule="evenodd" fill-opacity="1" /><path clip-path="url(#clip450)" d="M 0 0 M175.614 460.447 Q172.465 460.447 170.614 462.6 Q168.785 464.753 168.785 468.503 Q168.785 472.23 170.614 474.406 Q172.465 476.558 175.614 476.558 Q178.762 476.558 180.59 474.406 Q182.442 472.23 182.442 468.503 Q182.442 464.753 180.59 462.6 Q178.762 460.447 175.614 460.447 M184.896 445.795 L184.896 450.054 Q183.137 449.221 181.331 448.781 Q179.549 448.341 177.789 448.341 Q173.16 448.341 170.706 451.466 Q168.276 454.591 167.928 460.91 Q169.294 458.896 171.354 457.832 Q173.414 456.744 175.891 456.744 Q181.1 456.744 184.109 459.915 Q187.141 463.063 187.141 468.503 Q187.141 473.827 183.993 477.045 Q180.845 480.262 175.614 480.262 Q169.618 480.262 166.447 475.679 Q163.276 471.072 163.276 462.346 Q163.276 454.151 167.165 449.29 Q171.053 444.406 177.604 444.406 Q179.364 444.406 181.146 444.753 Q182.951 445.1 184.896 445.795 Z" fill="#000000" fill-rule="evenodd" fill-opacity="1" /><path clip-path="url(#clip450)" d="M 0 0 M138.322 124.555 Q134.711 124.555 132.882 128.12 Q131.077 131.661 131.077 138.791 Q131.077 145.897 132.882 149.462 Q134.711 153.004 138.322 153.004 Q141.956 153.004 143.762 149.462 Q145.591 145.897 145.591 138.791 Q145.591 131.661 143.762 128.12 Q141.956 124.555 138.322 124.555 M138.322 120.851 Q144.132 120.851 147.188 125.458 Q150.266 130.041 150.266 138.791 Q150.266 147.518 147.188 152.124 Q144.132 156.708 138.322 156.708 Q132.512 156.708 129.433 152.124 Q126.378 147.518 126.378 138.791 Q126.378 130.041 129.433 125.458 Q132.512 120.851 138.322 120.851 Z" fill="#000000" fill-rule="evenodd" fill-opacity="1" /><path clip-path="url(#clip450)" d="M 0 0 M155.336 150.157 L160.22 150.157 L160.22 156.036 L155.336 156.036 L155.336 150.157 Z" fill="#000000" fill-rule="evenodd" fill-opacity="1" /><path clip-path="url(#clip450)" d="M 0 0 M175.289 139.624 Q171.956 139.624 170.035 141.407 Q168.137 143.189 168.137 146.314 Q168.137 149.439 170.035 151.221 Q171.956 153.004 175.289 153.004 Q178.623 153.004 180.544 151.221 Q182.465 149.416 182.465 146.314 Q182.465 143.189 180.544 141.407 Q178.646 139.624 175.289 139.624 M170.614 137.634 Q167.604 136.893 165.915 134.833 Q164.248 132.773 164.248 129.81 Q164.248 125.666 167.188 123.259 Q170.151 120.851 175.289 120.851 Q180.451 120.851 183.391 123.259 Q186.331 125.666 186.331 129.81 Q186.331 132.773 184.641 134.833 Q182.975 136.893 179.989 137.634 Q183.368 138.421 185.243 140.712 Q187.141 143.004 187.141 146.314 Q187.141 151.337 184.063 154.022 Q181.007 156.708 175.289 156.708 Q169.572 156.708 166.493 154.022 Q163.438 151.337 163.438 146.314 Q163.438 143.004 165.336 140.712 Q167.234 138.421 170.614 137.634 M168.901 130.249 Q168.901 132.935 170.567 134.439 Q172.257 135.944 175.289 135.944 Q178.299 135.944 179.989 134.439 Q181.701 132.935 181.701 130.249 Q181.701 127.564 179.989 126.06 Q178.299 124.555 175.289 124.555 Q172.257 124.555 170.567 126.06 Q168.901 127.564 168.901 130.249 Z" fill="#000000" fill-rule="evenodd" fill-opacity="1" /><path clip-path="url(#clip450)" d="M 0 0 M1296.11 1527.48 Q1296.11 1529.28 1294.98 1530.31 Q1293.85 1531.31 1292.57 1531.31 Q1291.34 1531.31 1290.7 1530.6 Q1290.05 1529.89 1290.05 1528.99 Q1290.05 1527.77 1290.96 1526.7 Q1291.86 1525.64 1293.21 1525.42 Q1291.89 1524.58 1289.93 1524.58 Q1288.64 1524.58 1287.51 1525.26 Q1286.41 1525.93 1285.74 1526.8 Q1285.09 1527.67 1284.51 1528.93 Q1283.97 1530.15 1283.74 1530.89 Q1283.55 1531.6 1283.39 1532.37 L1281.13 1541.39 Q1280.04 1545.67 1280.04 1547.19 Q1280.04 1549.06 1280.94 1550.31 Q1281.84 1551.54 1283.64 1551.54 Q1284.35 1551.54 1285.16 1551.34 Q1285.96 1551.12 1286.99 1550.54 Q1288.06 1549.93 1288.99 1549.02 Q1289.96 1548.09 1290.89 1546.51 Q1291.83 1544.93 1292.44 1542.9 Q1292.63 1542.2 1293.27 1542.2 Q1294.08 1542.2 1294.08 1542.84 Q1294.08 1543.39 1293.63 1544.55 Q1293.21 1545.67 1292.28 1547.16 Q1291.37 1548.6 1290.18 1549.93 Q1288.99 1551.21 1287.22 1552.12 Q1285.45 1553.02 1283.52 1553.02 Q1280.75 1553.02 1278.91 1551.54 Q1277.07 1550.05 1276.4 1547.99 Q1276.24 1548.28 1276.01 1548.67 Q1275.79 1549.06 1275.11 1549.93 Q1274.47 1550.76 1273.73 1551.41 Q1272.98 1552.02 1271.83 1552.5 Q1270.7 1553.02 1269.47 1553.02 Q1267.93 1553.02 1266.54 1552.57 Q1265.19 1552.12 1264.22 1551.08 Q1263.26 1550.05 1263.26 1548.64 Q1263.26 1547.06 1264.32 1545.96 Q1265.42 1544.84 1266.9 1544.84 Q1267.83 1544.84 1268.57 1545.38 Q1269.35 1545.93 1269.35 1547.12 Q1269.35 1548.44 1268.44 1549.44 Q1267.54 1550.44 1266.25 1550.7 Q1267.57 1551.54 1269.54 1551.54 Q1271.66 1551.54 1273.34 1549.67 Q1275.01 1547.8 1275.82 1544.68 Q1277.82 1537.17 1278.59 1533.82 Q1279.36 1530.44 1279.36 1528.99 Q1279.36 1527.64 1279.01 1526.7 Q1278.65 1525.77 1278.04 1525.35 Q1277.46 1524.9 1276.91 1524.74 Q1276.4 1524.58 1275.82 1524.58 Q1274.85 1524.58 1273.76 1524.97 Q1272.69 1525.35 1271.41 1526.25 Q1270.15 1527.12 1268.96 1528.93 Q1267.77 1530.73 1266.96 1533.21 Q1266.8 1533.95 1266.09 1533.95 Q1265.32 1533.92 1265.32 1533.27 Q1265.32 1532.73 1265.74 1531.6 Q1266.19 1530.44 1267.09 1528.99 Q1268.03 1527.54 1269.22 1526.25 Q1270.44 1524.93 1272.21 1524.03 Q1274.02 1523.13 1275.95 1523.13 Q1276.82 1523.13 1277.65 1523.32 Q1278.52 1523.48 1279.55 1523.97 Q1280.62 1524.45 1281.55 1525.51 Q1282.49 1526.58 1283.07 1528.12 Q1283.45 1527.38 1283.97 1526.67 Q1284.51 1525.96 1285.35 1525.09 Q1286.22 1524.19 1287.41 1523.68 Q1288.64 1523.13 1289.99 1523.13 Q1291.31 1523.13 1292.6 1523.48 Q1293.89 1523.81 1294.98 1524.87 Q1296.11 1525.9 1296.11 1527.48 Z" fill="#000000" fill-rule="evenodd" fill-opacity="1" /><path clip-path="url(#clip450)" d="M 0 0 M60.8835 732.781 Q61.3344 732.781 62.3972 733.071 L87.5821 739.384 Q93.186 740.768 97.1151 745.277 Q101.044 749.754 101.044 754.842 Q101.044 757.902 99.4017 759.866 Q97.7914 761.831 95.3115 761.831 Q93.1216 761.831 92.0588 760.672 Q91.0282 759.512 91.0282 758.127 Q91.0282 757.676 91.157 757.193 Q91.2858 756.71 91.8333 756.195 Q92.3808 755.68 93.3148 755.68 Q94.8285 755.68 96.0201 757 Q96.5676 757.644 96.6964 758.256 Q96.8252 758.836 96.8252 759.834 Q97.727 759.448 98.3389 758.739 Q98.9508 758.031 99.1763 757.226 Q99.4339 756.42 99.4983 755.905 Q99.5949 755.358 99.5949 754.842 Q99.5949 750.72 95.4404 747.564 Q94.1843 746.63 92.9283 745.953 Q91.7045 745.245 90.1908 744.73 Q88.7093 744.214 87.9042 743.989 Q87.0991 743.731 85.2633 743.28 Q88.2585 746.276 88.2585 749.947 Q88.2585 751.493 87.8398 752.878 Q87.4211 754.23 86.5516 755.422 Q85.6498 756.614 84.0717 757.322 Q82.4936 757.998 80.4002 757.998 Q78.178 757.998 75.1507 757.129 Q72.1233 756.259 66.5517 754.166 Q63.4277 753.039 61.9141 753.039 Q61.1733 753.039 60.7225 753.2 Q60.2394 753.361 60.0783 753.683 Q59.8851 754.005 59.8529 754.198 Q59.8207 754.359 59.8207 754.681 Q59.8207 756.581 61.753 758.353 Q63.6854 760.124 68.001 761.348 Q68.8061 761.606 68.9994 761.767 Q69.1926 761.928 69.1926 762.411 Q69.1604 763.216 68.5163 763.216 Q68.2586 763.216 67.2602 762.926 Q66.2297 762.636 64.716 761.96 Q63.1701 761.251 61.7852 760.285 Q60.3682 759.319 59.3698 757.805 Q58.3714 756.259 58.3714 754.488 Q58.3714 752.073 59.9495 750.591 Q61.4954 749.077 63.782 749.077 Q64.716 749.077 65.5533 749.335 Q66.3585 749.561 68.5163 750.398 Q77.2119 753.78 81.463 753.78 Q82.4936 753.78 83.3632 753.618 Q84.2005 753.425 85.0379 753.007 Q85.843 752.588 86.3261 751.751 Q86.777 750.881 86.777 749.689 Q86.777 748.176 86.0685 746.759 Q85.3277 745.309 84.3294 744.408 Q83.331 743.474 82.4936 742.926 Q81.6241 742.346 81.1732 742.218 L69.3214 739.255 L64.0397 737.934 Q61.1733 737.322 60.4648 737.032 Q59.7885 736.646 59.4342 735.97 Q59.08 735.293 59.08 734.714 Q59.08 733.909 59.563 733.361 Q60.0461 732.781 60.8835 732.781 Z" fill="#000000" fill-rule="evenodd" fill-opacity="1" /><polyline clip-path="url(#clip452)" style="stroke:#009af9; stroke-width:4; stroke-opacity:1; fill:none" points="
  271.753,507.475 496.241,292.14 720.729,958.384 945.217,587.334 1169.7,1191.81 1394.19,1305 1618.68,1217.29 1843.17,86.8647 2067.66,1407.55 2292.14,1225.51 
  
  "/>
<path clip-path="url(#clip450)" d="
M1989.74 251.724 L2280.76 251.724 L2280.76 130.764 L1989.74 130.764  Z
  " fill="#ffffff" fill-rule="evenodd" fill-opacity="1"/>
<polyline clip-path="url(#clip450)" style="stroke:#000000; stroke-width:4; stroke-opacity:1; fill:none" points="
  1989.74,251.724 2280.76,251.724 2280.76,130.764 1989.74,130.764 1989.74,251.724 
  "/>
<polyline clip-path="url(#clip450)" style="stroke:#009af9; stroke-width:4; stroke-opacity:1; fill:none" points="
  2013.74,191.244 2157.74,191.244 
  "/>
<path clip-path="url(#clip450)" d="M 0 0 M2195.58 210.931 Q2193.77 215.561 2192.06 216.973 Q2190.35 218.385 2187.48 218.385 L2184.08 218.385 L2184.08 214.82 L2186.58 214.82 Q2188.33 214.82 2189.31 213.987 Q2190.28 213.154 2191.46 210.052 L2192.22 208.107 L2181.74 182.598 L2186.25 182.598 L2194.35 202.876 L2202.46 182.598 L2206.97 182.598 L2195.58 210.931 Z" fill="#000000" fill-rule="evenodd" fill-opacity="1" /><path clip-path="url(#clip450)" d="M 0 0 M2212.85 204.589 L2220.49 204.589 L2220.49 178.223 L2212.18 179.89 L2212.18 175.631 L2220.44 173.964 L2225.12 173.964 L2225.12 204.589 L2232.76 204.589 L2232.76 208.524 L2212.85 208.524 L2212.85 204.589 Z" fill="#000000" fill-rule="evenodd" fill-opacity="1" /></svg>
