<?xml version="1.0" encoding="utf-8"?>
<svg xmlns="http://www.w3.org/2000/svg" xmlns:xlink="http://www.w3.org/1999/xlink" width="600" height="400" viewBox="0 0 2400 1600">
<defs>
  <clipPath id="clip880">
    <rect x="0" y="0" width="2400" height="1600"/>
  </clipPath>
</defs>
<path clip-path="url(#clip880)" d="
M0 1600 L2400 1600 L2400 0 L0 0  Z
  " fill="#ffffff" fill-rule="evenodd" fill-opacity="1"/>
<defs>
  <clipPath id="clip881">
    <rect x="480" y="0" width="1681" height="1600"/>
  </clipPath>
</defs>
<path clip-path="url(#clip880)" d="
M164.082 1470.7 L2352.76 1470.7 L2352.76 47.2441 L164.082 47.2441  Z
  " fill="#ffffff" fill-rule="evenodd" fill-opacity="1"/>
<defs>
  <clipPath id="clip882">
    <rect x="164" y="47" width="2190" height="1424"/>
  </clipPath>
</defs>
<polyline clip-path="url(#clip882)" style="stroke:#000000; stroke-width:2; stroke-opacity:0.1; fill:none" points="
  455.447,1470.7 455.447,47.2441 
  "/>
<polyline clip-path="url(#clip882)" style="stroke:#000000; stroke-width:2; stroke-opacity:0.1; fill:none" points="
  914.288,1470.7 914.288,47.2441 
  "/>
<polyline clip-path="url(#clip882)" style="stroke:#000000; stroke-width:2; stroke-opacity:0.1; fill:none" points="
  1373.13,1470.7 1373.13,47.2441 
  "/>
<polyline clip-path="url(#clip882)" style="stroke:#000000; stroke-width:2; stroke-opacity:0.1; fill:none" points="
  1831.97,1470.7 1831.97,47.2441 
  "/>
<polyline clip-path="url(#clip882)" style="stroke:#000000; stroke-width:2; stroke-opacity:0.1; fill:none" points="
  2290.81,1470.7 2290.81,47.2441 
  "/>
<polyline clip-path="url(#clip882)" style="stroke:#000000; stroke-width:2; stroke-opacity:0.1; fill:none" points="
  164.082,1297.65 2352.76,1297.65 
  "/>
<polyline clip-path="url(#clip882)" style="stroke:#000000; stroke-width:2; stroke-opacity:0.1; fill:none" points="
  164.082,1112.68 2352.76,1112.68 
  "/>
<polyline clip-path="url(#clip882)" style="stroke:#000000; stroke-width:2; stroke-opacity:0.1; fill:none" points="
  164.082,927.704 2352.76,927.704 
  "/>
<polyline clip-path="url(#clip882)" style="stroke:#000000; stroke-width:2; stroke-opacity:0.1; fill:none" points="
  164.082,742.731 2352.76,742.731 
  "/>
<polyline clip-path="url(#clip882)" style="stroke:#000000; stroke-width:2; stroke-opacity:0.1; fill:none" points="
  164.082,557.758 2352.76,557.758 
  "/>
<polyline clip-path="url(#clip882)" style="stroke:#000000; stroke-width:2; stroke-opacity:0.1; fill:none" points="
  164.082,372.786 2352.76,372.786 
  "/>
<polyline clip-path="url(#clip882)" style="stroke:#000000; stroke-width:2; stroke-opacity:0.1; fill:none" points="
  164.082,187.813 2352.76,187.813 
  "/>
<polyline clip-path="url(#clip880)" style="stroke:#000000; stroke-width:4; stroke-opacity:1; fill:none" points="
  164.082,1470.7 2352.76,1470.7 
  "/>
<polyline clip-path="url(#clip880)" style="stroke:#000000; stroke-width:4; stroke-opacity:1; fill:none" points="
  164.082,1470.7 164.082,47.2441 
  "/>
<polyline clip-path="url(#clip880)" style="stroke:#000000; stroke-width:4; stroke-opacity:1; fill:none" points="
  455.447,1470.7 455.447,1453.62 
  "/>
<polyline clip-path="url(#clip880)" style="stroke:#000000; stroke-width:4; stroke-opacity:1; fill:none" points="
  914.288,1470.7 914.288,1453.62 
  "/>
<polyline clip-path="url(#clip880)" style="stroke:#000000; stroke-width:4; stroke-opacity:1; fill:none" points="
  1373.13,1470.7 1373.13,1453.62 
  "/>
<polyline clip-path="url(#clip880)" style="stroke:#000000; stroke-width:4; stroke-opacity:1; fill:none" points="
  1831.97,1470.7 1831.97,1453.62 
  "/>
<polyline clip-path="url(#clip880)" style="stroke:#000000; stroke-width:4; stroke-opacity:1; fill:none" points="
  2290.81,1470.7 2290.81,1453.62 
  "/>
<polyline clip-path="url(#clip880)" style="stroke:#000000; stroke-width:4; stroke-opacity:1; fill:none" points="
  164.082,1297.65 190.347,1297.65 
  "/>
<polyline clip-path="url(#clip880)" style="stroke:#000000; stroke-width:4; stroke-opacity:1; fill:none" points="
  164.082,1112.68 190.347,1112.68 
  "/>
<polyline clip-path="url(#clip880)" style="stroke:#000000; stroke-width:4; stroke-opacity:1; fill:none" points="
  164.082,927.704 190.347,927.704 
  "/>
<polyline clip-path="url(#clip880)" style="stroke:#000000; stroke-width:4; stroke-opacity:1; fill:none" points="
  164.082,742.731 190.347,742.731 
  "/>
<polyline clip-path="url(#clip880)" style="stroke:#000000; stroke-width:4; stroke-opacity:1; fill:none" points="
  164.082,557.758 190.347,557.758 
  "/>
<polyline clip-path="url(#clip880)" style="stroke:#000000; stroke-width:4; stroke-opacity:1; fill:none" points="
  164.082,372.786 190.347,372.786 
  "/>
<polyline clip-path="url(#clip880)" style="stroke:#000000; stroke-width:4; stroke-opacity:1; fill:none" points="
  164.082,187.813 190.347,187.813 
  "/>
<path clip-path="url(#clip880)" d="M 0 0 M450.1 1520.24 L466.419 1520.24 L466.419 1524.17 L444.475 1524.17 L444.475 1520.24 Q447.137 1517.48 451.72 1512.85 Q456.326 1508.2 457.507 1506.86 Q459.752 1504.33 460.632 1502.6 Q461.535 1500.84 461.535 1499.15 Q461.535 1496.39 459.59 1494.66 Q457.669 1492.92 454.567 1492.92 Q452.368 1492.92 449.914 1493.69 Q447.484 1494.45 444.706 1496 L444.706 1491.28 Q447.53 1490.14 449.984 1489.57 Q452.437 1488.99 454.474 1488.99 Q459.845 1488.99 463.039 1491.67 Q466.234 1494.36 466.234 1498.85 Q466.234 1500.98 465.424 1502.9 Q464.636 1504.8 462.53 1507.39 Q461.951 1508.06 458.849 1511.28 Q455.748 1514.47 450.1 1520.24 Z" fill="#000000" fill-rule="evenodd" fill-opacity="1" /><path clip-path="url(#clip880)" d="M 0 0 M917.297 1493.69 L905.492 1512.13 L917.297 1512.13 L917.297 1493.69 M916.071 1489.61 L921.95 1489.61 L921.95 1512.13 L926.881 1512.13 L926.881 1516.02 L921.95 1516.02 L921.95 1524.17 L917.297 1524.17 L917.297 1516.02 L901.696 1516.02 L901.696 1511.51 L916.071 1489.61 Z" fill="#000000" fill-rule="evenodd" fill-opacity="1" /><path clip-path="url(#clip880)" d="M 0 0 M1373.53 1505.03 Q1370.39 1505.03 1368.53 1507.18 Q1366.71 1509.33 1366.71 1513.08 Q1366.71 1516.81 1368.53 1518.99 Q1370.39 1521.14 1373.53 1521.14 Q1376.68 1521.14 1378.51 1518.99 Q1380.36 1516.81 1380.36 1513.08 Q1380.36 1509.33 1378.51 1507.18 Q1376.68 1505.03 1373.53 1505.03 M1382.82 1490.38 L1382.82 1494.63 Q1381.06 1493.8 1379.25 1493.36 Q1377.47 1492.92 1375.71 1492.92 Q1371.08 1492.92 1368.63 1496.05 Q1366.2 1499.17 1365.85 1505.49 Q1367.22 1503.48 1369.28 1502.41 Q1371.34 1501.32 1373.81 1501.32 Q1379.02 1501.32 1382.03 1504.5 Q1385.06 1507.64 1385.06 1513.08 Q1385.06 1518.41 1381.91 1521.63 Q1378.77 1524.84 1373.53 1524.84 Q1367.54 1524.84 1364.37 1520.26 Q1361.2 1515.65 1361.2 1506.93 Q1361.2 1498.73 1365.09 1493.87 Q1368.97 1488.99 1375.53 1488.99 Q1377.28 1488.99 1379.07 1489.33 Q1380.87 1489.68 1382.82 1490.38 Z" fill="#000000" fill-rule="evenodd" fill-opacity="1" /><path clip-path="url(#clip880)" d="M 0 0 M1831.97 1507.76 Q1828.64 1507.76 1826.72 1509.54 Q1824.82 1511.32 1824.82 1514.45 Q1824.82 1517.57 1826.72 1519.36 Q1828.64 1521.14 1831.97 1521.14 Q1835.3 1521.14 1837.23 1519.36 Q1839.15 1517.55 1839.15 1514.45 Q1839.15 1511.32 1837.23 1509.54 Q1835.33 1507.76 1831.97 1507.76 M1827.3 1505.77 Q1824.29 1505.03 1822.6 1502.97 Q1820.93 1500.91 1820.93 1497.95 Q1820.93 1493.8 1823.87 1491.39 Q1826.83 1488.99 1831.97 1488.99 Q1837.13 1488.99 1840.07 1491.39 Q1843.01 1493.8 1843.01 1497.95 Q1843.01 1500.91 1841.32 1502.97 Q1839.66 1505.03 1836.67 1505.77 Q1840.05 1506.56 1841.92 1508.85 Q1843.82 1511.14 1843.82 1514.45 Q1843.82 1519.47 1840.74 1522.16 Q1837.69 1524.84 1831.97 1524.84 Q1826.25 1524.84 1823.17 1522.16 Q1820.12 1519.47 1820.12 1514.45 Q1820.12 1511.14 1822.02 1508.85 Q1823.92 1506.56 1827.3 1505.77 M1825.58 1498.38 Q1825.58 1501.07 1827.25 1502.57 Q1828.94 1504.08 1831.97 1504.08 Q1834.98 1504.08 1836.67 1502.57 Q1838.38 1501.07 1838.38 1498.38 Q1838.38 1495.7 1836.67 1494.2 Q1834.98 1492.69 1831.97 1492.69 Q1828.94 1492.69 1827.25 1494.2 Q1825.58 1495.7 1825.58 1498.38 Z" fill="#000000" fill-rule="evenodd" fill-opacity="1" /><path clip-path="url(#clip880)" d="M 0 0 M2267.69 1520.24 L2275.33 1520.24 L2275.33 1493.87 L2267.02 1495.54 L2267.02 1491.28 L2275.28 1489.61 L2279.96 1489.61 L2279.96 1520.24 L2287.59 1520.24 L2287.59 1524.17 L2267.69 1524.17 L2267.69 1520.24 Z" fill="#000000" fill-rule="evenodd" fill-opacity="1" /><path clip-path="url(#clip880)" d="M 0 0 M2302.66 1492.69 Q2299.05 1492.69 2297.22 1496.26 Q2295.42 1499.8 2295.42 1506.93 Q2295.42 1514.03 2297.22 1517.6 Q2299.05 1521.14 2302.66 1521.14 Q2306.3 1521.14 2308.1 1517.6 Q2309.93 1514.03 2309.93 1506.93 Q2309.93 1499.8 2308.1 1496.26 Q2306.3 1492.69 2302.66 1492.69 M2302.66 1488.99 Q2308.47 1488.99 2311.53 1493.59 Q2314.61 1498.18 2314.61 1506.93 Q2314.61 1515.65 2311.53 1520.26 Q2308.47 1524.84 2302.66 1524.84 Q2296.85 1524.84 2293.78 1520.26 Q2290.72 1515.65 2290.72 1506.93 Q2290.72 1498.18 2293.78 1493.59 Q2296.85 1488.99 2302.66 1488.99 Z" fill="#000000" fill-rule="evenodd" fill-opacity="1" /><path clip-path="url(#clip880)" d="M 0 0 M91.8188 1283.45 Q88.2077 1283.45 86.379 1287.01 Q84.5735 1290.55 84.5735 1297.68 Q84.5735 1304.79 86.379 1308.35 Q88.2077 1311.9 91.8188 1311.9 Q95.453 1311.9 97.2586 1308.35 Q99.0873 1304.79 99.0873 1297.68 Q99.0873 1290.55 97.2586 1287.01 Q95.453 1283.45 91.8188 1283.45 M91.8188 1279.74 Q97.6289 1279.74 100.684 1284.35 Q103.763 1288.93 103.763 1297.68 Q103.763 1306.41 100.684 1311.02 Q97.6289 1315.6 91.8188 1315.6 Q86.0086 1315.6 82.9299 1311.02 Q79.8744 1306.41 79.8744 1297.68 Q79.8744 1288.93 82.9299 1284.35 Q86.0086 1279.74 91.8188 1279.74 Z" fill="#000000" fill-rule="evenodd" fill-opacity="1" /><path clip-path="url(#clip880)" d="M 0 0 M108.833 1309.05 L113.717 1309.05 L113.717 1314.93 L108.833 1314.93 L108.833 1309.05 Z" fill="#000000" fill-rule="evenodd" fill-opacity="1" /><path clip-path="url(#clip880)" d="M 0 0 M132.953 1296.29 Q136.309 1297.01 138.184 1299.28 Q140.082 1301.55 140.082 1304.88 Q140.082 1310 136.564 1312.8 Q133.045 1315.6 126.564 1315.6 Q124.388 1315.6 122.073 1315.16 Q119.782 1314.74 117.328 1313.89 L117.328 1309.37 Q119.272 1310.51 121.587 1311.09 Q123.902 1311.66 126.425 1311.66 Q130.823 1311.66 133.115 1309.93 Q135.43 1308.19 135.43 1304.88 Q135.43 1301.83 133.277 1300.11 Q131.147 1298.38 127.328 1298.38 L123.3 1298.38 L123.3 1294.54 L127.513 1294.54 Q130.962 1294.54 132.791 1293.17 Q134.619 1291.78 134.619 1289.19 Q134.619 1286.53 132.721 1285.11 Q130.846 1283.68 127.328 1283.68 Q125.407 1283.68 123.208 1284.1 Q121.008 1284.51 118.37 1285.39 L118.37 1281.23 Q121.032 1280.48 123.346 1280.11 Q125.684 1279.74 127.745 1279.74 Q133.069 1279.74 136.17 1282.17 Q139.272 1284.58 139.272 1288.7 Q139.272 1291.57 137.629 1293.56 Q135.985 1295.53 132.953 1296.29 Z" fill="#000000" fill-rule="evenodd" fill-opacity="1" /><path clip-path="url(#clip880)" d="M 0 0 M90.6845 1098.47 Q87.0734 1098.47 85.2448 1102.04 Q83.4392 1105.58 83.4392 1112.71 Q83.4392 1119.82 85.2448 1123.38 Q87.0734 1126.92 90.6845 1126.92 Q94.3188 1126.92 96.1243 1123.38 Q97.953 1119.82 97.953 1112.71 Q97.953 1105.58 96.1243 1102.04 Q94.3188 1098.47 90.6845 1098.47 M90.6845 1094.77 Q96.4947 1094.77 99.5502 1099.38 Q102.629 1103.96 102.629 1112.71 Q102.629 1121.44 99.5502 1126.04 Q96.4947 1130.63 90.6845 1130.63 Q84.8744 1130.63 81.7957 1126.04 Q78.7402 1121.44 78.7402 1112.71 Q78.7402 1103.96 81.7957 1099.38 Q84.8744 1094.77 90.6845 1094.77 Z" fill="#000000" fill-rule="evenodd" fill-opacity="1" /><path clip-path="url(#clip880)" d="M 0 0 M107.698 1124.08 L112.583 1124.08 L112.583 1129.96 L107.698 1129.96 L107.698 1124.08 Z" fill="#000000" fill-rule="evenodd" fill-opacity="1" /><path clip-path="url(#clip880)" d="M 0 0 M130.499 1099.47 L118.694 1117.92 L130.499 1117.92 L130.499 1099.47 M129.272 1095.4 L135.152 1095.4 L135.152 1117.92 L140.082 1117.92 L140.082 1121.81 L135.152 1121.81 L135.152 1129.96 L130.499 1129.96 L130.499 1121.81 L114.897 1121.81 L114.897 1117.29 L129.272 1095.4 Z" fill="#000000" fill-rule="evenodd" fill-opacity="1" /><path clip-path="url(#clip880)" d="M 0 0 M92.166 913.502 Q88.5549 913.502 86.7262 917.067 Q84.9207 920.609 84.9207 927.738 Q84.9207 934.845 86.7262 938.41 Q88.5549 941.951 92.166 941.951 Q95.8003 941.951 97.6058 938.41 Q99.4345 934.845 99.4345 927.738 Q99.4345 920.609 97.6058 917.067 Q95.8003 913.502 92.166 913.502 M92.166 909.799 Q97.9762 909.799 101.032 914.405 Q104.11 918.988 104.11 927.738 Q104.11 936.465 101.032 941.072 Q97.9762 945.655 92.166 945.655 Q86.3559 945.655 83.2772 941.072 Q80.2216 936.465 80.2216 927.738 Q80.2216 918.988 83.2772 914.405 Q86.3559 909.799 92.166 909.799 Z" fill="#000000" fill-rule="evenodd" fill-opacity="1" /><path clip-path="url(#clip880)" d="M 0 0 M109.18 939.104 L114.064 939.104 L114.064 944.984 L109.18 944.984 L109.18 939.104 Z" fill="#000000" fill-rule="evenodd" fill-opacity="1" /><path clip-path="url(#clip880)" d="M 0 0 M119.18 910.424 L137.536 910.424 L137.536 914.359 L123.462 914.359 L123.462 922.831 Q124.481 922.484 125.499 922.322 Q126.518 922.136 127.536 922.136 Q133.323 922.136 136.703 925.308 Q140.082 928.479 140.082 933.896 Q140.082 939.474 136.61 942.576 Q133.138 945.655 126.819 945.655 Q124.643 945.655 122.374 945.284 Q120.129 944.914 117.721 944.173 L117.721 939.474 Q119.805 940.609 122.027 941.164 Q124.249 941.72 126.726 941.72 Q130.731 941.72 133.069 939.613 Q135.407 937.507 135.407 933.896 Q135.407 930.285 133.069 928.178 Q130.731 926.072 126.726 926.072 Q124.851 926.072 122.976 926.488 Q121.124 926.905 119.18 927.785 L119.18 910.424 Z" fill="#000000" fill-rule="evenodd" fill-opacity="1" /><path clip-path="url(#clip880)" d="M 0 0 M91.0086 728.53 Q87.3975 728.53 85.5688 732.094 Q83.7633 735.636 83.7633 742.766 Q83.7633 749.872 85.5688 753.437 Q87.3975 756.979 91.0086 756.979 Q94.6429 756.979 96.4484 753.437 Q98.2771 749.872 98.2771 742.766 Q98.2771 735.636 96.4484 732.094 Q94.6429 728.53 91.0086 728.53 M91.0086 724.826 Q96.8188 724.826 99.8743 729.432 Q102.953 734.016 102.953 742.766 Q102.953 751.493 99.8743 756.099 Q96.8188 760.682 91.0086 760.682 Q85.1985 760.682 82.1198 756.099 Q79.0642 751.493 79.0642 742.766 Q79.0642 734.016 82.1198 729.432 Q85.1985 724.826 91.0086 724.826 Z" fill="#000000" fill-rule="evenodd" fill-opacity="1" /><path clip-path="url(#clip880)" d="M 0 0 M108.022 754.131 L112.907 754.131 L112.907 760.011 L108.022 760.011 L108.022 754.131 Z" fill="#000000" fill-rule="evenodd" fill-opacity="1" /><path clip-path="url(#clip880)" d="M 0 0 M128.555 740.868 Q125.407 740.868 123.555 743.02 Q121.726 745.173 121.726 748.923 Q121.726 752.65 123.555 754.826 Q125.407 756.979 128.555 756.979 Q131.703 756.979 133.532 754.826 Q135.383 752.65 135.383 748.923 Q135.383 745.173 133.532 743.02 Q131.703 740.868 128.555 740.868 M137.837 726.215 L137.837 730.474 Q136.078 729.641 134.272 729.201 Q132.49 728.761 130.731 728.761 Q126.101 728.761 123.647 731.886 Q121.217 735.011 120.87 741.331 Q122.235 739.317 124.295 738.252 Q126.356 737.164 128.832 737.164 Q134.041 737.164 137.05 740.335 Q140.082 743.483 140.082 748.923 Q140.082 754.247 136.934 757.465 Q133.786 760.682 128.555 760.682 Q122.559 760.682 119.388 756.099 Q116.217 751.493 116.217 742.766 Q116.217 734.571 120.106 729.71 Q123.995 724.826 130.545 724.826 Q132.305 724.826 134.087 725.173 Q135.893 725.52 137.837 726.215 Z" fill="#000000" fill-rule="evenodd" fill-opacity="1" /><path clip-path="url(#clip880)" d="M 0 0 M92.0734 543.557 Q88.4623 543.557 86.6336 547.122 Q84.8281 550.664 84.8281 557.793 Q84.8281 564.9 86.6336 568.464 Q88.4623 572.006 92.0734 572.006 Q95.7077 572.006 97.5132 568.464 Q99.3419 564.9 99.3419 557.793 Q99.3419 550.664 97.5132 547.122 Q95.7077 543.557 92.0734 543.557 M92.0734 539.853 Q97.8836 539.853 100.939 544.46 Q104.018 549.043 104.018 557.793 Q104.018 566.52 100.939 571.126 Q97.8836 575.71 92.0734 575.71 Q86.2633 575.71 83.1846 571.126 Q80.129 566.52 80.129 557.793 Q80.129 549.043 83.1846 544.46 Q86.2633 539.853 92.0734 539.853 Z" fill="#000000" fill-rule="evenodd" fill-opacity="1" /><path clip-path="url(#clip880)" d="M 0 0 M109.087 569.159 L113.971 569.159 L113.971 575.038 L109.087 575.038 L109.087 569.159 Z" fill="#000000" fill-rule="evenodd" fill-opacity="1" /><path clip-path="url(#clip880)" d="M 0 0 M117.86 540.478 L140.082 540.478 L140.082 542.469 L127.536 575.038 L122.652 575.038 L134.457 544.414 L117.86 544.414 L117.86 540.478 Z" fill="#000000" fill-rule="evenodd" fill-opacity="1" /><path clip-path="url(#clip880)" d="M 0 0 M91.2632 358.585 Q87.6521 358.585 85.8235 362.149 Q84.0179 365.691 84.0179 372.821 Q84.0179 379.927 85.8235 383.492 Q87.6521 387.033 91.2632 387.033 Q94.8975 387.033 96.703 383.492 Q98.5317 379.927 98.5317 372.821 Q98.5317 365.691 96.703 362.149 Q94.8975 358.585 91.2632 358.585 M91.2632 354.881 Q97.0734 354.881 100.129 359.487 Q103.208 364.071 103.208 372.821 Q103.208 381.547 100.129 386.154 Q97.0734 390.737 91.2632 390.737 Q85.4531 390.737 82.3744 386.154 Q79.3189 381.547 79.3189 372.821 Q79.3189 364.071 82.3744 359.487 Q85.4531 354.881 91.2632 354.881 Z" fill="#000000" fill-rule="evenodd" fill-opacity="1" /><path clip-path="url(#clip880)" d="M 0 0 M108.277 384.186 L113.161 384.186 L113.161 390.066 L108.277 390.066 L108.277 384.186 Z" fill="#000000" fill-rule="evenodd" fill-opacity="1" /><path clip-path="url(#clip880)" d="M 0 0 M128.231 373.654 Q124.897 373.654 122.976 375.436 Q121.078 377.219 121.078 380.344 Q121.078 383.469 122.976 385.251 Q124.897 387.033 128.231 387.033 Q131.564 387.033 133.485 385.251 Q135.407 383.446 135.407 380.344 Q135.407 377.219 133.485 375.436 Q131.587 373.654 128.231 373.654 M123.555 371.663 Q120.545 370.922 118.856 368.862 Q117.189 366.802 117.189 363.839 Q117.189 359.696 120.129 357.288 Q123.092 354.881 128.231 354.881 Q133.393 354.881 136.332 357.288 Q139.272 359.696 139.272 363.839 Q139.272 366.802 137.582 368.862 Q135.916 370.922 132.93 371.663 Q136.309 372.45 138.184 374.742 Q140.082 377.034 140.082 380.344 Q140.082 385.367 137.004 388.052 Q133.948 390.737 128.231 390.737 Q122.513 390.737 119.434 388.052 Q116.379 385.367 116.379 380.344 Q116.379 377.034 118.277 374.742 Q120.175 372.45 123.555 371.663 M121.842 364.279 Q121.842 366.964 123.508 368.469 Q125.198 369.973 128.231 369.973 Q131.24 369.973 132.93 368.469 Q134.643 366.964 134.643 364.279 Q134.643 361.594 132.93 360.089 Q131.24 358.585 128.231 358.585 Q125.198 358.585 123.508 360.089 Q121.842 361.594 121.842 364.279 Z" fill="#000000" fill-rule="evenodd" fill-opacity="1" /><path clip-path="url(#clip880)" d="M 0 0 M91.3558 173.612 Q87.7447 173.612 85.916 177.177 Q84.1105 180.718 84.1105 187.848 Q84.1105 194.954 85.916 198.519 Q87.7447 202.061 91.3558 202.061 Q94.9901 202.061 96.7956 198.519 Q98.6243 194.954 98.6243 187.848 Q98.6243 180.718 96.7956 177.177 Q94.9901 173.612 91.3558 173.612 M91.3558 169.908 Q97.166 169.908 100.222 174.515 Q103.3 179.098 103.3 187.848 Q103.3 196.575 100.222 201.181 Q97.166 205.765 91.3558 205.765 Q85.5457 205.765 82.467 201.181 Q79.4115 196.575 79.4115 187.848 Q79.4115 179.098 82.467 174.515 Q85.5457 169.908 91.3558 169.908 Z" fill="#000000" fill-rule="evenodd" fill-opacity="1" /><path clip-path="url(#clip880)" d="M 0 0 M108.37 199.214 L113.254 199.214 L113.254 205.093 L108.37 205.093 L108.37 199.214 Z" fill="#000000" fill-rule="evenodd" fill-opacity="1" /><path clip-path="url(#clip880)" d="M 0 0 M118.462 204.376 L118.462 200.116 Q120.221 200.95 122.027 201.39 Q123.833 201.829 125.569 201.829 Q130.198 201.829 132.629 198.728 Q135.082 195.603 135.43 189.26 Q134.087 191.251 132.027 192.316 Q129.967 193.38 127.467 193.38 Q122.282 193.38 119.249 190.255 Q116.24 187.107 116.24 181.668 Q116.24 176.343 119.388 173.126 Q122.536 169.908 127.768 169.908 Q133.763 169.908 136.911 174.515 Q140.082 179.098 140.082 187.848 Q140.082 196.019 136.194 200.904 Q132.328 205.765 125.777 205.765 Q124.018 205.765 122.212 205.417 Q120.407 205.07 118.462 204.376 M127.768 189.723 Q130.916 189.723 132.744 187.57 Q134.596 185.417 134.596 181.668 Q134.596 177.941 132.744 175.788 Q130.916 173.612 127.768 173.612 Q124.62 173.612 122.768 175.788 Q120.939 177.941 120.939 181.668 Q120.939 185.417 122.768 187.57 Q124.62 189.723 127.768 189.723 Z" fill="#000000" fill-rule="evenodd" fill-opacity="1" /><path clip-path="url(#clip880)" d="M 0 0 M1272.58 1521.01 Q1272.58 1522.81 1271.45 1523.84 Q1270.32 1524.84 1269.04 1524.84 Q1267.81 1524.84 1267.17 1524.13 Q1266.52 1523.42 1266.52 1522.52 Q1266.52 1521.3 1267.43 1520.23 Q1268.33 1519.17 1269.68 1518.95 Q1268.36 1518.11 1266.4 1518.11 Q1265.11 1518.11 1263.98 1518.78 Q1262.89 1519.46 1262.21 1520.33 Q1261.56 1521.2 1260.99 1522.46 Q1260.44 1523.68 1260.21 1524.42 Q1260.02 1525.13 1259.86 1525.9 L1257.6 1534.92 Q1256.51 1539.2 1256.51 1540.72 Q1256.51 1542.58 1257.41 1543.84 Q1258.31 1545.06 1260.12 1545.06 Q1260.82 1545.06 1261.63 1544.87 Q1262.43 1544.65 1263.46 1544.07 Q1264.53 1543.45 1265.46 1542.55 Q1266.43 1541.62 1267.36 1540.04 Q1268.3 1538.46 1268.91 1536.43 Q1269.1 1535.73 1269.75 1535.73 Q1270.55 1535.73 1270.55 1536.37 Q1270.55 1536.92 1270.1 1538.08 Q1269.68 1539.2 1268.75 1540.68 Q1267.84 1542.13 1266.65 1543.45 Q1265.46 1544.74 1263.69 1545.64 Q1261.92 1546.55 1259.99 1546.55 Q1257.22 1546.55 1255.38 1545.06 Q1253.55 1543.58 1252.87 1541.52 Q1252.71 1541.81 1252.48 1542.2 Q1252.26 1542.58 1251.58 1543.45 Q1250.94 1544.29 1250.2 1544.94 Q1249.46 1545.55 1248.3 1546.03 Q1247.17 1546.55 1245.94 1546.55 Q1244.4 1546.55 1243.01 1546.1 Q1241.66 1545.64 1240.7 1544.61 Q1239.73 1543.58 1239.73 1542.17 Q1239.73 1540.59 1240.79 1539.49 Q1241.89 1538.37 1243.37 1538.37 Q1244.3 1538.37 1245.04 1538.91 Q1245.82 1539.46 1245.82 1540.65 Q1245.82 1541.97 1244.91 1542.97 Q1244.01 1543.97 1242.72 1544.23 Q1244.04 1545.06 1246.01 1545.06 Q1248.13 1545.06 1249.81 1543.2 Q1251.48 1541.33 1252.29 1538.2 Q1254.29 1530.7 1255.06 1527.35 Q1255.83 1523.97 1255.83 1522.52 Q1255.83 1521.17 1255.48 1520.23 Q1255.12 1519.3 1254.51 1518.88 Q1253.93 1518.43 1253.38 1518.27 Q1252.87 1518.11 1252.29 1518.11 Q1251.32 1518.11 1250.23 1518.49 Q1249.17 1518.88 1247.88 1519.78 Q1246.62 1520.65 1245.43 1522.46 Q1244.24 1524.26 1243.43 1526.74 Q1243.27 1527.48 1242.56 1527.48 Q1241.79 1527.45 1241.79 1526.8 Q1241.79 1526.26 1242.21 1525.13 Q1242.66 1523.97 1243.56 1522.52 Q1244.5 1521.07 1245.69 1519.78 Q1246.91 1518.46 1248.68 1517.56 Q1250.49 1516.66 1252.42 1516.66 Q1253.29 1516.66 1254.13 1516.85 Q1254.99 1517.01 1256.03 1517.5 Q1257.09 1517.98 1258.02 1519.04 Q1258.96 1520.11 1259.54 1521.65 Q1259.92 1520.91 1260.44 1520.2 Q1260.99 1519.49 1261.82 1518.62 Q1262.69 1517.72 1263.88 1517.21 Q1265.11 1516.66 1266.46 1516.66 Q1267.78 1516.66 1269.07 1517.01 Q1270.36 1517.34 1271.45 1518.4 Q1272.58 1519.43 1272.58 1521.01 Z" fill="#000000" fill-rule="evenodd" fill-opacity="1" /><path clip-path="url(#clip880)" d="M 0 0 M56.8247 744.546 Q57.2755 744.546 58.3383 744.836 L83.5233 751.148 Q89.1271 752.533 93.0563 757.042 Q96.9854 761.518 96.9854 766.607 Q96.9854 769.667 95.3429 771.631 Q93.7326 773.596 91.2527 773.596 Q89.0627 773.596 87.9999 772.436 Q86.9693 771.277 86.9693 769.892 Q86.9693 769.441 87.0982 768.958 Q87.227 768.475 87.7745 767.96 Q88.322 767.444 89.256 767.444 Q90.7696 767.444 91.9613 768.765 Q92.5088 769.409 92.6376 770.021 Q92.7664 770.601 92.7664 771.599 Q93.6682 771.212 94.2801 770.504 Q94.892 769.795 95.1174 768.99 Q95.3751 768.185 95.4395 767.67 Q95.5361 767.122 95.5361 766.607 Q95.5361 762.485 91.3815 759.328 Q90.1255 758.395 88.8695 757.718 Q87.6457 757.01 86.132 756.494 Q84.6505 755.979 83.8454 755.754 Q83.0402 755.496 81.2045 755.045 Q84.1996 758.04 84.1996 761.712 Q84.1996 763.258 83.781 764.642 Q83.3623 765.995 82.4927 767.187 Q81.591 768.378 80.0129 769.087 Q78.4348 769.763 76.3414 769.763 Q74.1192 769.763 71.0919 768.894 Q68.0645 768.024 62.4929 765.931 Q59.3689 764.803 57.8552 764.803 Q57.1145 764.803 56.6636 764.965 Q56.1805 765.126 56.0195 765.448 Q55.8263 765.77 55.7941 765.963 Q55.7619 766.124 55.7619 766.446 Q55.7619 768.346 57.6942 770.117 Q59.6266 771.889 63.9422 773.113 Q64.7473 773.37 64.9405 773.531 Q65.1338 773.692 65.1338 774.175 Q65.1016 774.981 64.4574 774.981 Q64.1998 774.981 63.2014 774.691 Q62.1708 774.401 60.6572 773.725 Q59.1113 773.016 57.7264 772.05 Q56.3094 771.084 55.311 769.57 Q54.3126 768.024 54.3126 766.253 Q54.3126 763.837 55.8907 762.356 Q57.4366 760.842 59.7232 760.842 Q60.6572 760.842 61.4945 761.1 Q62.2997 761.325 64.4574 762.163 Q73.153 765.544 77.4042 765.544 Q78.4348 765.544 79.3044 765.383 Q80.1417 765.19 80.9791 764.771 Q81.7842 764.353 82.2673 763.515 Q82.7182 762.646 82.7182 761.454 Q82.7182 759.94 82.0096 758.523 Q81.2689 757.074 80.2705 756.172 Q79.2721 755.238 78.4348 754.691 Q77.5652 754.111 77.1144 753.982 L65.2626 751.019 L59.9808 749.699 Q57.1145 749.087 56.406 748.797 Q55.7297 748.411 55.3754 747.734 Q55.0211 747.058 55.0211 746.478 Q55.0211 745.673 55.5042 745.126 Q55.9873 744.546 56.8247 744.546 Z" fill="#000000" fill-rule="evenodd" fill-opacity="1" /><polyline clip-path="url(#clip882)" style="stroke:#009af9; stroke-width:4; stroke-opacity:1; fill:none" points="
  226.026,1338.77 455.447,1133.21 684.867,87.5306 914.288,1430.41 1143.71,427.455 1373.13,414.069 1602.55,1168.5 1831.97,795.059 2061.39,219.617 2290.81,1288.3 
  
  "/>
<path clip-path="url(#clip880)" d="
M1989.74 251.724 L2280.76 251.724 L2280.76 130.764 L1989.74 130.764  Z
  " fill="#ffffff" fill-rule="evenodd" fill-opacity="1"/>
<polyline clip-path="url(#clip880)" style="stroke:#000000; stroke-width:4; stroke-opacity:1; fill:none" points="
  1989.74,251.724 2280.76,251.724 2280.76,130.764 1989.74,130.764 1989.74,251.724 
  "/>
<polyline clip-path="url(#clip880)" style="stroke:#009af9; stroke-width:4; stroke-opacity:1; fill:none" points="
  2013.74,191.244 2157.74,191.244 
  "/>
<path clip-path="url(#clip880)" d="M 0 0 M2195.58 210.931 Q2193.77 215.561 2192.06 216.973 Q2190.35 218.385 2187.48 218.385 L2184.08 218.385 L2184.08 214.82 L2186.58 214.82 Q2188.33 214.82 2189.31 213.987 Q2190.28 213.154 2191.46 210.052 L2192.22 208.107 L2181.74 182.598 L2186.25 182.598 L2194.35 202.876 L2202.46 182.598 L2206.97 182.598 L2195.58 210.931 Z" fill="#000000" fill-rule="evenodd" fill-opacity="1" /><path clip-path="url(#clip880)" d="M 0 0 M2212.85 204.589 L2220.49 204.589 L2220.49 178.223 L2212.18 179.89 L2212.18 175.631 L2220.44 173.964 L2225.12 173.964 L2225.12 204.589 L2232.76 204.589 L2232.76 208.524 L2212.85 208.524 L2212.85 204.589 Z" fill="#000000" fill-rule="evenodd" fill-opacity="1" /></svg>
