<?xml version="1.0" encoding="utf-8"?>
<svg xmlns="http://www.w3.org/2000/svg" xmlns:xlink="http://www.w3.org/1999/xlink" width="600" height="400" viewBox="0 0 2400 1600">
<defs>
  <clipPath id="clip900">
    <rect x="0" y="0" width="2400" height="1600"/>
  </clipPath>
</defs>
<path clip-path="url(#clip900)" d="
M0 1600 L2400 1600 L2400 0 L0 0  Z
  " fill="#ffffff" fill-rule="evenodd" fill-opacity="1"/>
<defs>
  <clipPath id="clip901">
    <rect x="480" y="0" width="1681" height="1600"/>
  </clipPath>
</defs>
<path clip-path="url(#clip900)" d="
M211.141 1447.17 L2352.76 1447.17 L2352.76 86.5215 L211.141 86.5215  Z
  " fill="#ffffff" fill-rule="evenodd" fill-opacity="1"/>
<defs>
  <clipPath id="clip902">
    <rect x="211" y="86" width="2143" height="1362"/>
  </clipPath>
</defs>
<polyline clip-path="url(#clip902)" style="stroke:#000000; stroke-width:2; stroke-opacity:0.1; fill:none" points="
  496.241,1447.17 496.241,86.5215 
  "/>
<polyline clip-path="url(#clip902)" style="stroke:#000000; stroke-width:2; stroke-opacity:0.1; fill:none" points="
  945.217,1447.17 945.217,86.5215 
  "/>
<polyline clip-path="url(#clip902)" style="stroke:#000000; stroke-width:2; stroke-opacity:0.1; fill:none" points="
  1394.19,1447.17 1394.19,86.5215 
  "/>
<polyline clip-path="url(#clip902)" style="stroke:#000000; stroke-width:2; stroke-opacity:0.1; fill:none" points="
  1843.17,1447.17 1843.17,86.5215 
  "/>
<polyline clip-path="url(#clip902)" style="stroke:#000000; stroke-width:2; stroke-opacity:0.1; fill:none" points="
  2292.14,1447.17 2292.14,86.5215 
  "/>
<polyline clip-path="url(#clip902)" style="stroke:#000000; stroke-width:2; stroke-opacity:0.1; fill:none" points="
  211.141,1294.81 2352.76,1294.81 
  "/>
<polyline clip-path="url(#clip902)" style="stroke:#000000; stroke-width:2; stroke-opacity:0.1; fill:none" points="
  211.141,1109.98 2352.76,1109.98 
  "/>
<polyline clip-path="url(#clip902)" style="stroke:#000000; stroke-width:2; stroke-opacity:0.1; fill:none" points="
  211.141,925.147 2352.76,925.147 
  "/>
<polyline clip-path="url(#clip902)" style="stroke:#000000; stroke-width:2; stroke-opacity:0.1; fill:none" points="
  211.141,740.318 2352.76,740.318 
  "/>
<polyline clip-path="url(#clip902)" style="stroke:#000000; stroke-width:2; stroke-opacity:0.1; fill:none" points="
  211.141,555.489 2352.76,555.489 
  "/>
<polyline clip-path="url(#clip902)" style="stroke:#000000; stroke-width:2; stroke-opacity:0.1; fill:none" points="
  211.141,370.66 2352.76,370.66 
  "/>
<polyline clip-path="url(#clip902)" style="stroke:#000000; stroke-width:2; stroke-opacity:0.1; fill:none" points="
  211.141,185.83 2352.76,185.83 
  "/>
<polyline clip-path="url(#clip900)" style="stroke:#000000; stroke-width:4; stroke-opacity:1; fill:none" points="
  211.141,1447.17 2352.76,1447.17 
  "/>
<polyline clip-path="url(#clip900)" style="stroke:#000000; stroke-width:4; stroke-opacity:1; fill:none" points="
  211.141,1447.17 211.141,86.5215 
  "/>
<polyline clip-path="url(#clip900)" style="stroke:#000000; stroke-width:4; stroke-opacity:1; fill:none" points="
  496.241,1447.17 496.241,1430.84 
  "/>
<polyline clip-path="url(#clip900)" style="stroke:#000000; stroke-width:4; stroke-opacity:1; fill:none" points="
  945.217,1447.17 945.217,1430.84 
  "/>
<polyline clip-path="url(#clip900)" style="stroke:#000000; stroke-width:4; stroke-opacity:1; fill:none" points="
  1394.19,1447.17 1394.19,1430.84 
  "/>
<polyline clip-path="url(#clip900)" style="stroke:#000000; stroke-width:4; stroke-opacity:1; fill:none" points="
  1843.17,1447.17 1843.17,1430.84 
  "/>
<polyline clip-path="url(#clip900)" style="stroke:#000000; stroke-width:4; stroke-opacity:1; fill:none" points="
  2292.14,1447.17 2292.14,1430.84 
  "/>
<polyline clip-path="url(#clip900)" style="stroke:#000000; stroke-width:4; stroke-opacity:1; fill:none" points="
  211.141,1294.81 236.841,1294.81 
  "/>
<polyline clip-path="url(#clip900)" style="stroke:#000000; stroke-width:4; stroke-opacity:1; fill:none" points="
  211.141,1109.98 236.841,1109.98 
  "/>
<polyline clip-path="url(#clip900)" style="stroke:#000000; stroke-width:4; stroke-opacity:1; fill:none" points="
  211.141,925.147 236.841,925.147 
  "/>
<polyline clip-path="url(#clip900)" style="stroke:#000000; stroke-width:4; stroke-opacity:1; fill:none" points="
  211.141,740.318 236.841,740.318 
  "/>
<polyline clip-path="url(#clip900)" style="stroke:#000000; stroke-width:4; stroke-opacity:1; fill:none" points="
  211.141,555.489 236.841,555.489 
  "/>
<polyline clip-path="url(#clip900)" style="stroke:#000000; stroke-width:4; stroke-opacity:1; fill:none" points="
  211.141,370.66 236.841,370.66 
  "/>
<polyline clip-path="url(#clip900)" style="stroke:#000000; stroke-width:4; stroke-opacity:1; fill:none" points="
  211.141,185.83 236.841,185.83 
  "/>
<path clip-path="url(#clip900)" d="M 0 0 M490.894 1496.71 L507.213 1496.71 L507.213 1500.64 L485.269 1500.64 L485.269 1496.71 Q487.931 1493.95 492.514 1489.32 Q497.121 1484.67 498.301 1483.33 Q500.546 1480.8 501.426 1479.07 Q502.329 1477.31 502.329 1475.62 Q502.329 1472.86 500.384 1471.13 Q498.463 1469.39 495.361 1469.39 Q493.162 1469.39 490.709 1470.16 Q488.278 1470.92 485.5 1472.47 L485.5 1467.75 Q488.324 1466.61 490.778 1466.04 Q493.232 1465.46 495.269 1465.46 Q500.639 1465.46 503.833 1468.14 Q507.028 1470.83 507.028 1475.32 Q507.028 1477.45 506.218 1479.37 Q505.431 1481.27 503.324 1483.86 Q502.745 1484.53 499.644 1487.75 Q496.542 1490.94 490.894 1496.71 Z" fill="#000000" fill-rule="evenodd" fill-opacity="1" /><path clip-path="url(#clip900)" d="M 0 0 M948.226 1470.16 L936.42 1488.61 L948.226 1488.61 L948.226 1470.16 M946.999 1466.08 L952.879 1466.08 L952.879 1488.61 L957.809 1488.61 L957.809 1492.49 L952.879 1492.49 L952.879 1500.64 L948.226 1500.64 L948.226 1492.49 L932.624 1492.49 L932.624 1487.98 L946.999 1466.08 Z" fill="#000000" fill-rule="evenodd" fill-opacity="1" /><path clip-path="url(#clip900)" d="M 0 0 M1394.6 1481.5 Q1391.45 1481.5 1389.6 1483.65 Q1387.77 1485.8 1387.77 1489.55 Q1387.77 1493.28 1389.6 1495.46 Q1391.45 1497.61 1394.6 1497.61 Q1397.75 1497.61 1399.57 1495.46 Q1401.43 1493.28 1401.43 1489.55 Q1401.43 1485.8 1399.57 1483.65 Q1397.75 1481.5 1394.6 1481.5 M1403.88 1466.85 L1403.88 1471.11 Q1402.12 1470.27 1400.32 1469.83 Q1398.53 1469.39 1396.77 1469.39 Q1392.14 1469.39 1389.69 1472.52 Q1387.26 1475.64 1386.91 1481.96 Q1388.28 1479.95 1390.34 1478.88 Q1392.4 1477.8 1394.88 1477.8 Q1400.08 1477.8 1403.09 1480.97 Q1406.13 1484.11 1406.13 1489.55 Q1406.13 1494.88 1402.98 1498.1 Q1399.83 1501.31 1394.6 1501.31 Q1388.6 1501.31 1385.43 1496.73 Q1382.26 1492.12 1382.26 1483.4 Q1382.26 1475.2 1386.15 1470.34 Q1390.04 1465.46 1396.59 1465.46 Q1398.35 1465.46 1400.13 1465.8 Q1401.94 1466.15 1403.88 1466.85 Z" fill="#000000" fill-rule="evenodd" fill-opacity="1" /><path clip-path="url(#clip900)" d="M 0 0 M1843.17 1484.23 Q1839.84 1484.23 1837.91 1486.01 Q1836.02 1487.8 1836.02 1490.92 Q1836.02 1494.05 1837.91 1495.83 Q1839.84 1497.61 1843.17 1497.61 Q1846.5 1497.61 1848.42 1495.83 Q1850.34 1494.02 1850.34 1490.92 Q1850.34 1487.8 1848.42 1486.01 Q1846.52 1484.23 1843.17 1484.23 M1838.49 1482.24 Q1835.48 1481.5 1833.79 1479.44 Q1832.13 1477.38 1832.13 1474.42 Q1832.13 1470.27 1835.07 1467.86 Q1838.03 1465.46 1843.17 1465.46 Q1848.33 1465.46 1851.27 1467.86 Q1854.21 1470.27 1854.21 1474.42 Q1854.21 1477.38 1852.52 1479.44 Q1850.85 1481.5 1847.87 1482.24 Q1851.25 1483.03 1853.12 1485.32 Q1855.02 1487.61 1855.02 1490.92 Q1855.02 1495.94 1851.94 1498.63 Q1848.89 1501.31 1843.17 1501.31 Q1837.45 1501.31 1834.37 1498.63 Q1831.32 1495.94 1831.32 1490.92 Q1831.32 1487.61 1833.21 1485.32 Q1835.11 1483.03 1838.49 1482.24 M1836.78 1474.86 Q1836.78 1477.54 1838.45 1479.05 Q1840.14 1480.55 1843.17 1480.55 Q1846.18 1480.55 1847.87 1479.05 Q1849.58 1477.54 1849.58 1474.86 Q1849.58 1472.17 1847.87 1470.67 Q1846.18 1469.16 1843.17 1469.16 Q1840.14 1469.16 1838.45 1470.67 Q1836.78 1472.17 1836.78 1474.86 Z" fill="#000000" fill-rule="evenodd" fill-opacity="1" /><path clip-path="url(#clip900)" d="M 0 0 M2269.02 1496.71 L2276.66 1496.71 L2276.66 1470.34 L2268.35 1472.01 L2268.35 1467.75 L2276.61 1466.08 L2281.29 1466.08 L2281.29 1496.71 L2288.93 1496.71 L2288.93 1500.64 L2269.02 1500.64 L2269.02 1496.71 Z" fill="#000000" fill-rule="evenodd" fill-opacity="1" /><path clip-path="url(#clip900)" d="M 0 0 M2304 1469.16 Q2300.38 1469.16 2298.56 1472.73 Q2296.75 1476.27 2296.75 1483.4 Q2296.75 1490.5 2298.56 1494.07 Q2300.38 1497.61 2304 1497.61 Q2307.63 1497.61 2309.44 1494.07 Q2311.26 1490.5 2311.26 1483.4 Q2311.26 1476.27 2309.44 1472.73 Q2307.63 1469.16 2304 1469.16 M2304 1465.46 Q2309.81 1465.46 2312.86 1470.06 Q2315.94 1474.65 2315.94 1483.4 Q2315.94 1492.12 2312.86 1496.73 Q2309.81 1501.31 2304 1501.31 Q2298.19 1501.31 2295.11 1496.73 Q2292.05 1492.12 2292.05 1483.4 Q2292.05 1474.65 2295.11 1470.06 Q2298.19 1465.46 2304 1465.46 Z" fill="#000000" fill-rule="evenodd" fill-opacity="1" /><path clip-path="url(#clip900)" d="M 0 0 M138.878 1280.6 Q135.267 1280.6 133.438 1284.17 Q131.632 1287.71 131.632 1294.84 Q131.632 1301.95 133.438 1305.51 Q135.267 1309.05 138.878 1309.05 Q142.512 1309.05 144.317 1305.51 Q146.146 1301.95 146.146 1294.84 Q146.146 1287.71 144.317 1284.17 Q142.512 1280.6 138.878 1280.6 M138.878 1276.9 Q144.688 1276.9 147.743 1281.51 Q150.822 1286.09 150.822 1294.84 Q150.822 1303.57 147.743 1308.17 Q144.688 1312.76 138.878 1312.76 Q133.067 1312.76 129.989 1308.17 Q126.933 1303.57 126.933 1294.84 Q126.933 1286.09 129.989 1281.51 Q133.067 1276.9 138.878 1276.9 Z" fill="#000000" fill-rule="evenodd" fill-opacity="1" /><path clip-path="url(#clip900)" d="M 0 0 M155.891 1306.21 L160.776 1306.21 L160.776 1312.09 L155.891 1312.09 L155.891 1306.21 Z" fill="#000000" fill-rule="evenodd" fill-opacity="1" /><path clip-path="url(#clip900)" d="M 0 0 M180.012 1293.45 Q183.368 1294.17 185.243 1296.44 Q187.141 1298.71 187.141 1302.04 Q187.141 1307.15 183.623 1309.96 Q180.104 1312.76 173.623 1312.76 Q171.447 1312.76 169.132 1312.32 Q166.84 1311.9 164.387 1311.04 L164.387 1306.53 Q166.331 1307.66 168.646 1308.24 Q170.961 1308.82 173.484 1308.82 Q177.882 1308.82 180.174 1307.09 Q182.488 1305.35 182.488 1302.04 Q182.488 1298.98 180.336 1297.27 Q178.206 1295.53 174.387 1295.53 L170.359 1295.53 L170.359 1291.69 L174.572 1291.69 Q178.021 1291.69 179.85 1290.33 Q181.678 1288.94 181.678 1286.34 Q181.678 1283.68 179.78 1282.27 Q177.905 1280.84 174.387 1280.84 Q172.465 1280.84 170.266 1281.25 Q168.067 1281.67 165.428 1282.55 L165.428 1278.38 Q168.09 1277.64 170.405 1277.27 Q172.743 1276.9 174.803 1276.9 Q180.127 1276.9 183.229 1279.33 Q186.331 1281.74 186.331 1285.86 Q186.331 1288.73 184.688 1290.72 Q183.044 1292.69 180.012 1293.45 Z" fill="#000000" fill-rule="evenodd" fill-opacity="1" /><path clip-path="url(#clip900)" d="M 0 0 M137.743 1095.77 Q134.132 1095.77 132.304 1099.34 Q130.498 1102.88 130.498 1110.01 Q130.498 1117.12 132.304 1120.68 Q134.132 1124.22 137.743 1124.22 Q141.378 1124.22 143.183 1120.68 Q145.012 1117.12 145.012 1110.01 Q145.012 1102.88 143.183 1099.34 Q141.378 1095.77 137.743 1095.77 M137.743 1092.07 Q143.554 1092.07 146.609 1096.68 Q149.688 1101.26 149.688 1110.01 Q149.688 1118.74 146.609 1123.34 Q143.554 1127.93 137.743 1127.93 Q131.933 1127.93 128.855 1123.34 Q125.799 1118.74 125.799 1110.01 Q125.799 1101.26 128.855 1096.68 Q131.933 1092.07 137.743 1092.07 Z" fill="#000000" fill-rule="evenodd" fill-opacity="1" /><path clip-path="url(#clip900)" d="M 0 0 M154.757 1121.38 L159.641 1121.38 L159.641 1127.26 L154.757 1127.26 L154.757 1121.38 Z" fill="#000000" fill-rule="evenodd" fill-opacity="1" /><path clip-path="url(#clip900)" d="M 0 0 M177.558 1096.77 L165.752 1115.22 L177.558 1115.22 L177.558 1096.77 M176.331 1092.7 L182.211 1092.7 L182.211 1115.22 L187.141 1115.22 L187.141 1119.11 L182.211 1119.11 L182.211 1127.26 L177.558 1127.26 L177.558 1119.11 L161.956 1119.11 L161.956 1114.59 L176.331 1092.7 Z" fill="#000000" fill-rule="evenodd" fill-opacity="1" /><path clip-path="url(#clip900)" d="M 0 0 M139.225 910.946 Q135.614 910.946 133.785 914.511 Q131.98 918.052 131.98 925.182 Q131.98 932.288 133.785 935.853 Q135.614 939.395 139.225 939.395 Q142.859 939.395 144.665 935.853 Q146.493 932.288 146.493 925.182 Q146.493 918.052 144.665 914.511 Q142.859 910.946 139.225 910.946 M139.225 907.242 Q145.035 907.242 148.091 911.849 Q151.169 916.432 151.169 925.182 Q151.169 933.909 148.091 938.515 Q145.035 943.098 139.225 943.098 Q133.415 943.098 130.336 938.515 Q127.28 933.909 127.28 925.182 Q127.28 916.432 130.336 911.849 Q133.415 907.242 139.225 907.242 Z" fill="#000000" fill-rule="evenodd" fill-opacity="1" /><path clip-path="url(#clip900)" d="M 0 0 M156.239 936.547 L161.123 936.547 L161.123 942.427 L156.239 942.427 L156.239 936.547 Z" fill="#000000" fill-rule="evenodd" fill-opacity="1" /><path clip-path="url(#clip900)" d="M 0 0 M166.239 907.867 L184.595 907.867 L184.595 911.802 L170.521 911.802 L170.521 920.274 Q171.539 919.927 172.558 919.765 Q173.577 919.58 174.595 919.58 Q180.382 919.58 183.762 922.751 Q187.141 925.923 187.141 931.339 Q187.141 936.918 183.669 940.02 Q180.197 943.098 173.877 943.098 Q171.702 943.098 169.433 942.728 Q167.188 942.358 164.78 941.617 L164.78 936.918 Q166.864 938.052 169.086 938.608 Q171.308 939.163 173.785 939.163 Q177.789 939.163 180.127 937.057 Q182.465 934.95 182.465 931.339 Q182.465 927.728 180.127 925.622 Q177.789 923.515 173.785 923.515 Q171.91 923.515 170.035 923.932 Q168.183 924.348 166.239 925.228 L166.239 907.867 Z" fill="#000000" fill-rule="evenodd" fill-opacity="1" /><path clip-path="url(#clip900)" d="M 0 0 M138.067 726.117 Q134.456 726.117 132.628 729.681 Q130.822 733.223 130.822 740.353 Q130.822 747.459 132.628 751.024 Q134.456 754.566 138.067 754.566 Q141.702 754.566 143.507 751.024 Q145.336 747.459 145.336 740.353 Q145.336 733.223 143.507 729.681 Q141.702 726.117 138.067 726.117 M138.067 722.413 Q143.878 722.413 146.933 727.019 Q150.012 731.603 150.012 740.353 Q150.012 749.079 146.933 753.686 Q143.878 758.269 138.067 758.269 Q132.257 758.269 129.179 753.686 Q126.123 749.079 126.123 740.353 Q126.123 731.603 129.179 727.019 Q132.257 722.413 138.067 722.413 Z" fill="#000000" fill-rule="evenodd" fill-opacity="1" /><path clip-path="url(#clip900)" d="M 0 0 M155.081 751.718 L159.965 751.718 L159.965 757.598 L155.081 757.598 L155.081 751.718 Z" fill="#000000" fill-rule="evenodd" fill-opacity="1" /><path clip-path="url(#clip900)" d="M 0 0 M175.614 738.455 Q172.465 738.455 170.614 740.607 Q168.785 742.76 168.785 746.51 Q168.785 750.237 170.614 752.413 Q172.465 754.566 175.614 754.566 Q178.762 754.566 180.59 752.413 Q182.442 750.237 182.442 746.51 Q182.442 742.76 180.59 740.607 Q178.762 738.455 175.614 738.455 M184.896 723.802 L184.896 728.061 Q183.137 727.228 181.331 726.788 Q179.549 726.348 177.789 726.348 Q173.16 726.348 170.706 729.473 Q168.276 732.598 167.928 738.917 Q169.294 736.904 171.354 735.839 Q173.414 734.751 175.891 734.751 Q181.1 734.751 184.109 737.922 Q187.141 741.07 187.141 746.51 Q187.141 751.834 183.993 755.052 Q180.845 758.269 175.614 758.269 Q169.618 758.269 166.447 753.686 Q163.276 749.079 163.276 740.353 Q163.276 732.158 167.165 727.297 Q171.053 722.413 177.604 722.413 Q179.364 722.413 181.146 722.76 Q182.951 723.107 184.896 723.802 Z" fill="#000000" fill-rule="evenodd" fill-opacity="1" /><path clip-path="url(#clip900)" d="M 0 0 M139.132 541.287 Q135.521 541.287 133.692 544.852 Q131.887 548.394 131.887 555.523 Q131.887 562.63 133.692 566.195 Q135.521 569.736 139.132 569.736 Q142.766 569.736 144.572 566.195 Q146.401 562.63 146.401 555.523 Q146.401 548.394 144.572 544.852 Q142.766 541.287 139.132 541.287 M139.132 537.584 Q144.942 537.584 147.998 542.19 Q151.077 546.774 151.077 555.523 Q151.077 564.25 147.998 568.857 Q144.942 573.44 139.132 573.44 Q133.322 573.44 130.243 568.857 Q127.188 564.25 127.188 555.523 Q127.188 546.774 130.243 542.19 Q133.322 537.584 139.132 537.584 Z" fill="#000000" fill-rule="evenodd" fill-opacity="1" /><path clip-path="url(#clip900)" d="M 0 0 M156.146 566.889 L161.03 566.889 L161.03 572.769 L156.146 572.769 L156.146 566.889 Z" fill="#000000" fill-rule="evenodd" fill-opacity="1" /><path clip-path="url(#clip900)" d="M 0 0 M164.919 538.209 L187.141 538.209 L187.141 540.199 L174.595 572.769 L169.711 572.769 L181.516 542.144 L164.919 542.144 L164.919 538.209 Z" fill="#000000" fill-rule="evenodd" fill-opacity="1" /><path clip-path="url(#clip900)" d="M 0 0 M138.322 356.458 Q134.711 356.458 132.882 360.023 Q131.077 363.565 131.077 370.694 Q131.077 377.801 132.882 381.366 Q134.711 384.907 138.322 384.907 Q141.956 384.907 143.762 381.366 Q145.591 377.801 145.591 370.694 Q145.591 363.565 143.762 360.023 Q141.956 356.458 138.322 356.458 M138.322 352.755 Q144.132 352.755 147.188 357.361 Q150.266 361.944 150.266 370.694 Q150.266 379.421 147.188 384.028 Q144.132 388.611 138.322 388.611 Q132.512 388.611 129.433 384.028 Q126.378 379.421 126.378 370.694 Q126.378 361.944 129.433 357.361 Q132.512 352.755 138.322 352.755 Z" fill="#000000" fill-rule="evenodd" fill-opacity="1" /><path clip-path="url(#clip900)" d="M 0 0 M155.336 382.06 L160.22 382.06 L160.22 387.94 L155.336 387.94 L155.336 382.06 Z" fill="#000000" fill-rule="evenodd" fill-opacity="1" /><path clip-path="url(#clip900)" d="M 0 0 M175.289 371.528 Q171.956 371.528 170.035 373.31 Q168.137 375.092 168.137 378.217 Q168.137 381.342 170.035 383.125 Q171.956 384.907 175.289 384.907 Q178.623 384.907 180.544 383.125 Q182.465 381.319 182.465 378.217 Q182.465 375.092 180.544 373.31 Q178.646 371.528 175.289 371.528 M170.614 369.537 Q167.604 368.796 165.915 366.736 Q164.248 364.676 164.248 361.713 Q164.248 357.569 167.188 355.162 Q170.151 352.755 175.289 352.755 Q180.451 352.755 183.391 355.162 Q186.331 357.569 186.331 361.713 Q186.331 364.676 184.641 366.736 Q182.975 368.796 179.989 369.537 Q183.368 370.324 185.243 372.616 Q187.141 374.907 187.141 378.217 Q187.141 383.241 184.063 385.926 Q181.007 388.611 175.289 388.611 Q169.572 388.611 166.493 385.926 Q163.438 383.241 163.438 378.217 Q163.438 374.907 165.336 372.616 Q167.234 370.324 170.614 369.537 M168.901 362.153 Q168.901 364.838 170.567 366.343 Q172.257 367.847 175.289 367.847 Q178.299 367.847 179.989 366.343 Q181.701 364.838 181.701 362.153 Q181.701 359.468 179.989 357.963 Q178.299 356.458 175.289 356.458 Q172.257 356.458 170.567 357.963 Q168.901 359.468 168.901 362.153 Z" fill="#000000" fill-rule="evenodd" fill-opacity="1" /><path clip-path="url(#clip900)" d="M 0 0 M138.415 171.629 Q134.804 171.629 132.975 175.194 Q131.169 178.736 131.169 185.865 Q131.169 192.972 132.975 196.536 Q134.804 200.078 138.415 200.078 Q142.049 200.078 143.854 196.536 Q145.683 192.972 145.683 185.865 Q145.683 178.736 143.854 175.194 Q142.049 171.629 138.415 171.629 M138.415 167.925 Q144.225 167.925 147.28 172.532 Q150.359 177.115 150.359 185.865 Q150.359 194.592 147.28 199.198 Q144.225 203.782 138.415 203.782 Q132.605 203.782 129.526 199.198 Q126.47 194.592 126.47 185.865 Q126.47 177.115 129.526 172.532 Q132.605 167.925 138.415 167.925 Z" fill="#000000" fill-rule="evenodd" fill-opacity="1" /><path clip-path="url(#clip900)" d="M 0 0 M155.428 197.231 L160.313 197.231 L160.313 203.11 L155.428 203.11 L155.428 197.231 Z" fill="#000000" fill-rule="evenodd" fill-opacity="1" /><path clip-path="url(#clip900)" d="M 0 0 M165.521 202.393 L165.521 198.134 Q167.28 198.967 169.086 199.407 Q170.891 199.847 172.627 199.847 Q177.257 199.847 179.688 196.745 Q182.141 193.62 182.488 187.277 Q181.146 189.268 179.086 190.333 Q177.026 191.398 174.526 191.398 Q169.34 191.398 166.308 188.273 Q163.299 185.124 163.299 179.685 Q163.299 174.361 166.447 171.143 Q169.595 167.925 174.826 167.925 Q180.822 167.925 183.97 172.532 Q187.141 177.115 187.141 185.865 Q187.141 194.036 183.252 198.921 Q179.387 203.782 172.836 203.782 Q171.077 203.782 169.271 203.435 Q167.465 203.087 165.521 202.393 M174.826 187.74 Q177.975 187.74 179.803 185.587 Q181.655 183.435 181.655 179.685 Q181.655 175.958 179.803 173.805 Q177.975 171.629 174.826 171.629 Q171.678 171.629 169.827 173.805 Q167.998 175.958 167.998 179.685 Q167.998 183.435 169.827 185.587 Q171.678 187.74 174.826 187.74 Z" fill="#000000" fill-rule="evenodd" fill-opacity="1" /><path clip-path="url(#clip900)" d="M 0 0 M1302.46 4.53628 Q1302.38 4.94617 1302.21 5.68398 Q1302.05 6.3808 1301.31 8.59422 Q1300.57 10.8076 1299.59 13.0621 Q1298.65 15.2755 1296.8 18.3907 Q1295 21.4649 1292.79 24.2521 Q1292.17 24.9899 1292.05 25.4408 Q1291.97 25.8507 1291.97 27.2034 Q1291.97 35.7291 1294.55 35.7291 Q1294.67 35.7291 1294.88 35.7291 Q1295.12 35.6881 1295.74 35.4832 Q1296.39 35.2373 1296.97 34.8683 Q1297.54 34.4585 1298.2 33.6387 Q1298.85 32.7779 1299.26 31.6302 Q1299.63 30.8104 1300.37 30.8104 Q1301.35 30.8104 1301.35 31.6302 Q1301.35 33.1058 1299.3 35.3602 Q1297.25 37.6146 1294.3 37.6146 Q1291.47 37.6146 1289.47 35.7701 Q1287.5 33.8846 1286.68 30.5235 Q1277.83 37.6146 1268.97 37.6146 Q1262.74 37.6146 1259.05 33.5567 Q1255.36 29.4578 1255.36 23.3913 Q1255.36 17.5709 1258.56 12.0373 Q1261.8 6.50377 1267.05 3.06067 Q1272.33 -0.423422 1277.95 -0.423422 Q1279.92 -0.423422 1281.8 0.109439 Q1283.69 0.60131 1285.57 1.87198 Q1287.46 3.14265 1288.85 5.06914 Q1290.25 6.99564 1291.11 10.0288 Q1291.97 13.0621 1291.97 16.8741 L1291.97 22.0797 Q1297.38 15.2345 1300.21 5.43805 Q1300.62 3.96243 1300.86 3.79847 Q1301.03 3.67551 1301.44 3.67551 Q1301.85 3.67551 1302.09 3.92144 Q1302.38 4.12639 1302.42 4.33133 L1302.46 4.53628 M1286.35 28.3511 Q1286.19 26.9164 1286.19 18.9645 Q1286.19 17.4479 1286.19 16.6281 Q1286.19 15.7673 1286.11 14.1278 Q1286.02 12.4882 1285.86 11.4635 Q1285.74 10.4387 1285.45 8.96312 Q1285.16 7.48751 1284.75 6.54476 Q1284.34 5.602 1283.69 4.53628 Q1283.07 3.47056 1282.25 2.85572 Q1281.47 2.24088 1280.33 1.83099 Q1279.22 1.4211 1277.87 1.4211 Q1276.19 1.4211 1274.42 2.03594 Q1272.7 2.60978 1270.49 4.4543 Q1268.27 6.25783 1266.43 9.12708 Q1264.5 12.1603 1263.03 17.7348 Q1261.59 23.2684 1261.59 26.5885 Q1261.59 30.7694 1263.52 33.2698 Q1265.45 35.7291 1269.14 35.7291 Q1277.95 35.7291 1286.35 28.3511 Z" fill="#000000" fill-rule="evenodd" fill-opacity="1" /><path clip-path="url(#clip900)" d="M 0 0 M1296.11 1527.48 Q1296.11 1529.28 1294.98 1530.31 Q1293.85 1531.31 1292.57 1531.31 Q1291.34 1531.31 1290.7 1530.6 Q1290.05 1529.89 1290.05 1528.99 Q1290.05 1527.77 1290.96 1526.7 Q1291.86 1525.64 1293.21 1525.42 Q1291.89 1524.58 1289.93 1524.58 Q1288.64 1524.58 1287.51 1525.26 Q1286.41 1525.93 1285.74 1526.8 Q1285.09 1527.67 1284.51 1528.93 Q1283.97 1530.15 1283.74 1530.89 Q1283.55 1531.6 1283.39 1532.37 L1281.13 1541.39 Q1280.04 1545.67 1280.04 1547.19 Q1280.04 1549.06 1280.94 1550.31 Q1281.84 1551.54 1283.64 1551.54 Q1284.35 1551.54 1285.16 1551.34 Q1285.96 1551.12 1286.99 1550.54 Q1288.06 1549.93 1288.99 1549.02 Q1289.96 1548.09 1290.89 1546.51 Q1291.83 1544.93 1292.44 1542.9 Q1292.63 1542.2 1293.27 1542.2 Q1294.08 1542.2 1294.08 1542.84 Q1294.08 1543.39 1293.63 1544.55 Q1293.21 1545.67 1292.28 1547.16 Q1291.37 1548.6 1290.18 1549.93 Q1288.99 1551.21 1287.22 1552.12 Q1285.45 1553.02 1283.52 1553.02 Q1280.75 1553.02 1278.91 1551.54 Q1277.07 1550.05 1276.4 1547.99 Q1276.24 1548.28 1276.01 1548.67 Q1275.79 1549.06 1275.11 1549.93 Q1274.47 1550.76 1273.73 1551.41 Q1272.98 1552.02 1271.83 1552.5 Q1270.7 1553.02 1269.47 1553.02 Q1267.93 1553.02 1266.54 1552.57 Q1265.19 1552.12 1264.22 1551.08 Q1263.26 1550.05 1263.26 1548.64 Q1263.26 1547.06 1264.32 1545.96 Q1265.42 1544.84 1266.9 1544.84 Q1267.83 1544.84 1268.57 1545.38 Q1269.35 1545.93 1269.35 1547.12 Q1269.35 1548.44 1268.44 1549.44 Q1267.54 1550.44 1266.25 1550.7 Q1267.57 1551.54 1269.54 1551.54 Q1271.66 1551.54 1273.34 1549.67 Q1275.01 1547.8 1275.82 1544.68 Q1277.82 1537.17 1278.59 1533.82 Q1279.36 1530.44 1279.36 1528.99 Q1279.36 1527.64 1279.01 1526.7 Q1278.65 1525.77 1278.04 1525.35 Q1277.46 1524.9 1276.91 1524.74 Q1276.4 1524.58 1275.82 1524.58 Q1274.85 1524.58 1273.76 1524.97 Q1272.69 1525.35 1271.41 1526.25 Q1270.15 1527.12 1268.96 1528.93 Q1267.77 1530.73 1266.96 1533.21 Q1266.8 1533.95 1266.09 1533.95 Q1265.32 1533.92 1265.32 1533.27 Q1265.32 1532.73 1265.74 1531.6 Q1266.19 1530.44 1267.09 1528.99 Q1268.03 1527.54 1269.22 1526.25 Q1270.44 1524.93 1272.21 1524.03 Q1274.02 1523.13 1275.95 1523.13 Q1276.82 1523.13 1277.65 1523.32 Q1278.52 1523.48 1279.55 1523.97 Q1280.62 1524.45 1281.55 1525.51 Q1282.49 1526.58 1283.07 1528.12 Q1283.45 1527.38 1283.97 1526.67 Q1284.51 1525.96 1285.35 1525.09 Q1286.22 1524.19 1287.41 1523.68 Q1288.64 1523.13 1289.99 1523.13 Q1291.31 1523.13 1292.6 1523.48 Q1293.89 1523.81 1294.98 1524.87 Q1296.11 1525.9 1296.11 1527.48 Z" fill="#000000" fill-rule="evenodd" fill-opacity="1" /><path clip-path="url(#clip900)" d="M 0 0 M60.8835 752.42 Q61.3344 752.42 62.3972 752.71 L87.5821 759.022 Q93.186 760.407 97.1151 764.916 Q101.044 769.393 101.044 774.481 Q101.044 777.541 99.4017 779.505 Q97.7914 781.47 95.3115 781.47 Q93.1216 781.47 92.0588 780.31 Q91.0282 779.151 91.0282 777.766 Q91.0282 777.315 91.157 776.832 Q91.2858 776.349 91.8333 775.834 Q92.3808 775.318 93.3148 775.318 Q94.8285 775.318 96.0201 776.639 Q96.5676 777.283 96.6964 777.895 Q96.8252 778.475 96.8252 779.473 Q97.727 779.086 98.3389 778.378 Q98.9508 777.669 99.1763 776.864 Q99.4339 776.059 99.4983 775.544 Q99.5949 774.996 99.5949 774.481 Q99.5949 770.359 95.4404 767.203 Q94.1843 766.269 92.9283 765.592 Q91.7045 764.884 90.1908 764.368 Q88.7093 763.853 87.9042 763.628 Q87.0991 763.37 85.2633 762.919 Q88.2585 765.914 88.2585 769.586 Q88.2585 771.132 87.8398 772.516 Q87.4211 773.869 86.5516 775.061 Q85.6498 776.252 84.0717 776.961 Q82.4936 777.637 80.4002 777.637 Q78.178 777.637 75.1507 776.768 Q72.1233 775.898 66.5517 773.805 Q63.4277 772.678 61.9141 772.678 Q61.1733 772.678 60.7225 772.839 Q60.2394 773 60.0783 773.322 Q59.8851 773.644 59.8529 773.837 Q59.8207 773.998 59.8207 774.32 Q59.8207 776.22 61.753 777.991 Q63.6854 779.763 68.001 780.987 Q68.8061 781.244 68.9994 781.405 Q69.1926 781.566 69.1926 782.049 Q69.1604 782.855 68.5163 782.855 Q68.2586 782.855 67.2602 782.565 Q66.2297 782.275 64.716 781.599 Q63.1701 780.89 61.7852 779.924 Q60.3682 778.958 59.3698 777.444 Q58.3714 775.898 58.3714 774.127 Q58.3714 771.711 59.9495 770.23 Q61.4954 768.716 63.782 768.716 Q64.716 768.716 65.5533 768.974 Q66.3585 769.199 68.5163 770.037 Q77.2119 773.418 81.463 773.418 Q82.4936 773.418 83.3632 773.257 Q84.2005 773.064 85.0379 772.645 Q85.843 772.227 86.3261 771.389 Q86.777 770.52 86.777 769.328 Q86.777 767.814 86.0685 766.397 Q85.3277 764.948 84.3294 764.046 Q83.331 763.112 82.4936 762.565 Q81.6241 761.985 81.1732 761.856 L69.3214 758.893 L64.0397 757.573 Q61.1733 756.961 60.4648 756.671 Q59.7885 756.285 59.4342 755.608 Q59.08 754.932 59.08 754.352 Q59.08 753.547 59.563 753 Q60.0461 752.42 60.8835 752.42 Z" fill="#000000" fill-rule="evenodd" fill-opacity="1" /><polyline clip-path="url(#clip902)" style="stroke:#009af9; stroke-width:4; stroke-opacity:1; fill:none" points="
  271.753,1001.47 496.241,770.743 720.729,379.66 945.217,125.03 1169.7,735.206 1394.19,1408.66 1618.68,558.772 1843.17,687.632 2067.66,873.421 2292.14,1206.52 
  
  "/>
<path clip-path="url(#clip900)" d="
M1989.74 291.002 L2280.76 291.002 L2280.76 170.042 L1989.74 170.042  Z
  " fill="#ffffff" fill-rule="evenodd" fill-opacity="1"/>
<polyline clip-path="url(#clip900)" style="stroke:#000000; stroke-width:4; stroke-opacity:1; fill:none" points="
  1989.74,291.002 2280.76,291.002 2280.76,170.042 1989.74,170.042 1989.74,291.002 
  "/>
<polyline clip-path="url(#clip900)" style="stroke:#009af9; stroke-width:4; stroke-opacity:1; fill:none" points="
  2013.74,230.522 2157.74,230.522 
  "/>
<path clip-path="url(#clip900)" d="M 0 0 M2195.58 250.209 Q2193.77 254.839 2192.06 256.251 Q2190.35 257.663 2187.48 257.663 L2184.08 257.663 L2184.08 254.098 L2186.58 254.098 Q2188.33 254.098 2189.31 253.264 Q2190.28 252.431 2191.46 249.329 L2192.22 247.385 L2181.74 221.876 L2186.25 221.876 L2194.35 242.153 L2202.46 221.876 L2206.97 221.876 L2195.58 250.209 Z" fill="#000000" fill-rule="evenodd" fill-opacity="1" /><path clip-path="url(#clip900)" d="M 0 0 M2212.85 243.866 L2220.49 243.866 L2220.49 217.501 L2212.18 219.167 L2212.18 214.908 L2220.44 213.242 L2225.12 213.242 L2225.12 243.866 L2232.76 243.866 L2232.76 247.802 L2212.85 247.802 L2212.85 243.866 Z" fill="#000000" fill-rule="evenodd" fill-opacity="1" /></svg>
