<?xml version="1.0" encoding="utf-8"?>
<svg xmlns="http://www.w3.org/2000/svg" xmlns:xlink="http://www.w3.org/1999/xlink" width="600" height="400" viewBox="0 0 2400 1600">
<defs>
  <clipPath id="clip6800">
    <rect x="0" y="0" width="2400" height="1600"/>
  </clipPath>
</defs>
<path clip-path="url(#clip6800)" d="
M0 1600 L2400 1600 L2400 0 L0 0  Z
  " fill="#ffffff" fill-rule="evenodd" fill-opacity="1"/>
<defs>
  <clipPath id="clip6801">
    <rect x="480" y="0" width="1681" height="1600"/>
  </clipPath>
</defs>
<path clip-path="url(#clip6800)" d="
M179.769 1455.01 L2352.76 1455.01 L2352.76 47.2441 L179.769 47.2441  Z
  " fill="#ffffff" fill-rule="evenodd" fill-opacity="1"/>
<defs>
  <clipPath id="clip6802">
    <rect x="179" y="47" width="2174" height="1409"/>
  </clipPath>
</defs>
<polyline clip-path="url(#clip6802)" style="stroke:#000000; stroke-width:2; stroke-opacity:0.1; fill:none" points="
  469.045,1455.01 469.045,47.2441 
  "/>
<polyline clip-path="url(#clip6802)" style="stroke:#000000; stroke-width:2; stroke-opacity:0.1; fill:none" points="
  924.598,1455.01 924.598,47.2441 
  "/>
<polyline clip-path="url(#clip6802)" style="stroke:#000000; stroke-width:2; stroke-opacity:0.1; fill:none" points="
  1380.15,1455.01 1380.15,47.2441 
  "/>
<polyline clip-path="url(#clip6802)" style="stroke:#000000; stroke-width:2; stroke-opacity:0.1; fill:none" points="
  1835.7,1455.01 1835.7,47.2441 
  "/>
<polyline clip-path="url(#clip6802)" style="stroke:#000000; stroke-width:2; stroke-opacity:0.1; fill:none" points="
  2291.26,1455.01 2291.26,47.2441 
  "/>
<polyline clip-path="url(#clip6802)" style="stroke:#000000; stroke-width:2; stroke-opacity:0.1; fill:none" points="
  179.769,1422.81 2352.76,1422.81 
  "/>
<polyline clip-path="url(#clip6802)" style="stroke:#000000; stroke-width:2; stroke-opacity:0.1; fill:none" points="
  179.769,1118.43 2352.76,1118.43 
  "/>
<polyline clip-path="url(#clip6802)" style="stroke:#000000; stroke-width:2; stroke-opacity:0.1; fill:none" points="
  179.769,814.052 2352.76,814.052 
  "/>
<polyline clip-path="url(#clip6802)" style="stroke:#000000; stroke-width:2; stroke-opacity:0.1; fill:none" points="
  179.769,509.672 2352.76,509.672 
  "/>
<polyline clip-path="url(#clip6802)" style="stroke:#000000; stroke-width:2; stroke-opacity:0.1; fill:none" points="
  179.769,205.291 2352.76,205.291 
  "/>
<polyline clip-path="url(#clip6800)" style="stroke:#000000; stroke-width:4; stroke-opacity:1; fill:none" points="
  179.769,1455.01 2352.76,1455.01 
  "/>
<polyline clip-path="url(#clip6800)" style="stroke:#000000; stroke-width:4; stroke-opacity:1; fill:none" points="
  179.769,1455.01 179.769,47.2441 
  "/>
<polyline clip-path="url(#clip6800)" style="stroke:#000000; stroke-width:4; stroke-opacity:1; fill:none" points="
  469.045,1455.01 469.045,1438.12 
  "/>
<polyline clip-path="url(#clip6800)" style="stroke:#000000; stroke-width:4; stroke-opacity:1; fill:none" points="
  924.598,1455.01 924.598,1438.12 
  "/>
<polyline clip-path="url(#clip6800)" style="stroke:#000000; stroke-width:4; stroke-opacity:1; fill:none" points="
  1380.15,1455.01 1380.15,1438.12 
  "/>
<polyline clip-path="url(#clip6800)" style="stroke:#000000; stroke-width:4; stroke-opacity:1; fill:none" points="
  1835.7,1455.01 1835.7,1438.12 
  "/>
<polyline clip-path="url(#clip6800)" style="stroke:#000000; stroke-width:4; stroke-opacity:1; fill:none" points="
  2291.26,1455.01 2291.26,1438.12 
  "/>
<polyline clip-path="url(#clip6800)" style="stroke:#000000; stroke-width:4; stroke-opacity:1; fill:none" points="
  179.769,1422.81 205.845,1422.81 
  "/>
<polyline clip-path="url(#clip6800)" style="stroke:#000000; stroke-width:4; stroke-opacity:1; fill:none" points="
  179.769,1118.43 205.845,1118.43 
  "/>
<polyline clip-path="url(#clip6800)" style="stroke:#000000; stroke-width:4; stroke-opacity:1; fill:none" points="
  179.769,814.052 205.845,814.052 
  "/>
<polyline clip-path="url(#clip6800)" style="stroke:#000000; stroke-width:4; stroke-opacity:1; fill:none" points="
  179.769,509.672 205.845,509.672 
  "/>
<polyline clip-path="url(#clip6800)" style="stroke:#000000; stroke-width:4; stroke-opacity:1; fill:none" points="
  179.769,205.291 205.845,205.291 
  "/>
<path clip-path="url(#clip6800)" d="M 0 0 M463.698 1504.55 L480.017 1504.55 L480.017 1508.49 L458.073 1508.49 L458.073 1504.55 Q460.735 1501.8 465.318 1497.17 Q469.924 1492.51 471.105 1491.17 Q473.35 1488.65 474.23 1486.91 Q475.133 1485.15 475.133 1483.46 Q475.133 1480.71 473.188 1478.97 Q471.267 1477.24 468.165 1477.24 Q465.966 1477.24 463.512 1478 Q461.082 1478.76 458.304 1480.31 L458.304 1475.59 Q461.128 1474.46 463.582 1473.88 Q466.036 1473.3 468.073 1473.3 Q473.443 1473.3 476.637 1475.99 Q479.832 1478.67 479.832 1483.16 Q479.832 1485.29 479.022 1487.21 Q478.235 1489.11 476.128 1491.7 Q475.549 1492.37 472.448 1495.59 Q469.346 1498.79 463.698 1504.55 Z" fill="#000000" fill-rule="evenodd" fill-opacity="1" /><path clip-path="url(#clip6800)" d="M 0 0 M927.607 1478 L915.801 1496.45 L927.607 1496.45 L927.607 1478 M926.38 1473.93 L932.26 1473.93 L932.26 1496.45 L937.19 1496.45 L937.19 1500.34 L932.26 1500.34 L932.26 1508.49 L927.607 1508.49 L927.607 1500.34 L912.005 1500.34 L912.005 1495.82 L926.38 1473.93 Z" fill="#000000" fill-rule="evenodd" fill-opacity="1" /><path clip-path="url(#clip6800)" d="M 0 0 M1380.56 1489.34 Q1377.41 1489.34 1375.56 1491.49 Q1373.73 1493.65 1373.73 1497.4 Q1373.73 1501.12 1375.56 1503.3 Q1377.41 1505.45 1380.56 1505.45 Q1383.7 1505.45 1385.53 1503.3 Q1387.38 1501.12 1387.38 1497.4 Q1387.38 1493.65 1385.53 1491.49 Q1383.7 1489.34 1380.56 1489.34 M1389.84 1474.69 L1389.84 1478.95 Q1388.08 1478.12 1386.27 1477.68 Q1384.49 1477.24 1382.73 1477.24 Q1378.1 1477.24 1375.65 1480.36 Q1373.22 1483.49 1372.87 1489.81 Q1374.24 1487.79 1376.3 1486.73 Q1378.36 1485.64 1380.83 1485.64 Q1386.04 1485.64 1389.05 1488.81 Q1392.08 1491.96 1392.08 1497.4 Q1392.08 1502.72 1388.94 1505.94 Q1385.79 1509.16 1380.56 1509.16 Q1374.56 1509.16 1371.39 1504.57 Q1368.22 1499.97 1368.22 1491.24 Q1368.22 1483.05 1372.11 1478.18 Q1376 1473.3 1382.55 1473.3 Q1384.31 1473.3 1386.09 1473.65 Q1387.89 1474 1389.84 1474.69 Z" fill="#000000" fill-rule="evenodd" fill-opacity="1" /><path clip-path="url(#clip6800)" d="M 0 0 M1835.7 1492.07 Q1832.37 1492.07 1830.45 1493.86 Q1828.55 1495.64 1828.55 1498.76 Q1828.55 1501.89 1830.45 1503.67 Q1832.37 1505.45 1835.7 1505.45 Q1839.04 1505.45 1840.96 1503.67 Q1842.88 1501.87 1842.88 1498.76 Q1842.88 1495.64 1840.96 1493.86 Q1839.06 1492.07 1835.7 1492.07 M1831.03 1490.08 Q1828.02 1489.34 1826.33 1487.28 Q1824.66 1485.22 1824.66 1482.26 Q1824.66 1478.12 1827.6 1475.71 Q1830.56 1473.3 1835.7 1473.3 Q1840.87 1473.3 1843.81 1475.71 Q1846.75 1478.12 1846.75 1482.26 Q1846.75 1485.22 1845.06 1487.28 Q1843.39 1489.34 1840.4 1490.08 Q1843.78 1490.87 1845.66 1493.16 Q1847.56 1495.45 1847.56 1498.76 Q1847.56 1503.79 1844.48 1506.47 Q1841.42 1509.16 1835.7 1509.16 Q1829.99 1509.16 1826.91 1506.47 Q1823.85 1503.79 1823.85 1498.76 Q1823.85 1495.45 1825.75 1493.16 Q1827.65 1490.87 1831.03 1490.08 M1829.31 1482.7 Q1829.31 1485.38 1830.98 1486.89 Q1832.67 1488.39 1835.7 1488.39 Q1838.71 1488.39 1840.4 1486.89 Q1842.12 1485.38 1842.12 1482.7 Q1842.12 1480.01 1840.4 1478.51 Q1838.71 1477 1835.7 1477 Q1832.67 1477 1830.98 1478.51 Q1829.31 1480.01 1829.31 1482.7 Z" fill="#000000" fill-rule="evenodd" fill-opacity="1" /><path clip-path="url(#clip6800)" d="M 0 0 M2268.13 1504.55 L2275.77 1504.55 L2275.77 1478.18 L2267.46 1479.85 L2267.46 1475.59 L2275.72 1473.93 L2280.4 1473.93 L2280.4 1504.55 L2288.04 1504.55 L2288.04 1508.49 L2268.13 1508.49 L2268.13 1504.55 Z" fill="#000000" fill-rule="evenodd" fill-opacity="1" /><path clip-path="url(#clip6800)" d="M 0 0 M2303.11 1477 Q2299.5 1477 2297.67 1480.57 Q2295.86 1484.11 2295.86 1491.24 Q2295.86 1498.35 2297.67 1501.91 Q2299.5 1505.45 2303.11 1505.45 Q2306.74 1505.45 2308.55 1501.91 Q2310.38 1498.35 2310.38 1491.24 Q2310.38 1484.11 2308.55 1480.57 Q2306.74 1477 2303.11 1477 M2303.11 1473.3 Q2308.92 1473.3 2311.97 1477.91 Q2315.05 1482.49 2315.05 1491.24 Q2315.05 1499.97 2311.97 1504.57 Q2308.92 1509.16 2303.11 1509.16 Q2297.3 1509.16 2294.22 1504.57 Q2291.16 1499.97 2291.16 1491.24 Q2291.16 1482.49 2294.22 1477.91 Q2297.3 1473.3 2303.11 1473.3 Z" fill="#000000" fill-rule="evenodd" fill-opacity="1" /><path clip-path="url(#clip6800)" d="M 0 0 M106.857 1408.61 Q103.246 1408.61 101.417 1412.18 Q99.6116 1415.72 99.6116 1422.85 Q99.6116 1429.95 101.417 1433.52 Q103.246 1437.06 106.857 1437.06 Q110.491 1437.06 112.297 1433.52 Q114.125 1429.95 114.125 1422.85 Q114.125 1415.72 112.297 1412.18 Q110.491 1408.61 106.857 1408.61 M106.857 1404.91 Q112.667 1404.91 115.723 1409.51 Q118.801 1414.1 118.801 1422.85 Q118.801 1431.57 115.723 1436.18 Q112.667 1440.76 106.857 1440.76 Q101.047 1440.76 97.9681 1436.18 Q94.9125 1431.57 94.9125 1422.85 Q94.9125 1414.1 97.9681 1409.51 Q101.047 1404.91 106.857 1404.91 Z" fill="#000000" fill-rule="evenodd" fill-opacity="1" /><path clip-path="url(#clip6800)" d="M 0 0 M123.871 1434.21 L128.755 1434.21 L128.755 1440.09 L123.871 1440.09 L123.871 1434.21 Z" fill="#000000" fill-rule="evenodd" fill-opacity="1" /><path clip-path="url(#clip6800)" d="M 0 0 M143.824 1408.61 Q140.213 1408.61 138.385 1412.18 Q136.579 1415.72 136.579 1422.85 Q136.579 1429.95 138.385 1433.52 Q140.213 1437.06 143.824 1437.06 Q147.459 1437.06 149.264 1433.52 Q151.093 1429.95 151.093 1422.85 Q151.093 1415.72 149.264 1412.18 Q147.459 1408.61 143.824 1408.61 M143.824 1404.91 Q149.634 1404.91 152.69 1409.51 Q155.769 1414.1 155.769 1422.85 Q155.769 1431.57 152.69 1436.18 Q149.634 1440.76 143.824 1440.76 Q138.014 1440.76 134.935 1436.18 Q131.88 1431.57 131.88 1422.85 Q131.88 1414.1 134.935 1409.51 Q138.014 1404.91 143.824 1404.91 Z" fill="#000000" fill-rule="evenodd" fill-opacity="1" /><path clip-path="url(#clip6800)" d="M 0 0 M108.454 1104.23 Q104.843 1104.23 103.014 1107.8 Q101.209 1111.34 101.209 1118.47 Q101.209 1125.57 103.014 1129.14 Q104.843 1132.68 108.454 1132.68 Q112.088 1132.68 113.894 1129.14 Q115.723 1125.57 115.723 1118.47 Q115.723 1111.34 113.894 1107.8 Q112.088 1104.23 108.454 1104.23 M108.454 1100.53 Q114.264 1100.53 117.32 1105.13 Q120.399 1109.72 120.399 1118.47 Q120.399 1127.19 117.32 1131.8 Q114.264 1136.38 108.454 1136.38 Q102.644 1136.38 99.5653 1131.8 Q96.5098 1127.19 96.5098 1118.47 Q96.5098 1109.72 99.5653 1105.13 Q102.644 1100.53 108.454 1100.53 Z" fill="#000000" fill-rule="evenodd" fill-opacity="1" /><path clip-path="url(#clip6800)" d="M 0 0 M125.468 1129.83 L130.352 1129.83 L130.352 1135.71 L125.468 1135.71 L125.468 1129.83 Z" fill="#000000" fill-rule="evenodd" fill-opacity="1" /><path clip-path="url(#clip6800)" d="M 0 0 M139.449 1131.78 L155.769 1131.78 L155.769 1135.71 L133.824 1135.71 L133.824 1131.78 Q136.486 1129.02 141.07 1124.39 Q145.676 1119.74 146.857 1118.4 Q149.102 1115.87 149.982 1114.14 Q150.884 1112.38 150.884 1110.69 Q150.884 1107.94 148.94 1106.2 Q147.019 1104.46 143.917 1104.46 Q141.718 1104.46 139.264 1105.23 Q136.834 1105.99 134.056 1107.54 L134.056 1102.82 Q136.88 1101.69 139.334 1101.11 Q141.787 1100.53 143.824 1100.53 Q149.195 1100.53 152.389 1103.21 Q155.584 1105.9 155.584 1110.39 Q155.584 1112.52 154.773 1114.44 Q153.986 1116.34 151.88 1118.93 Q151.301 1119.6 148.199 1122.82 Q145.097 1126.01 139.449 1131.78 Z" fill="#000000" fill-rule="evenodd" fill-opacity="1" /><path clip-path="url(#clip6800)" d="M 0 0 M106.371 799.851 Q102.76 799.851 100.931 803.416 Q99.1255 806.957 99.1255 814.087 Q99.1255 821.193 100.931 824.758 Q102.76 828.3 106.371 828.3 Q110.005 828.3 111.811 824.758 Q113.639 821.193 113.639 814.087 Q113.639 806.957 111.811 803.416 Q110.005 799.851 106.371 799.851 M106.371 796.147 Q112.181 796.147 115.237 800.754 Q118.315 805.337 118.315 814.087 Q118.315 822.814 115.237 827.42 Q112.181 832.004 106.371 832.004 Q100.561 832.004 97.482 827.42 Q94.4264 822.814 94.4264 814.087 Q94.4264 805.337 97.482 800.754 Q100.561 796.147 106.371 796.147 Z" fill="#000000" fill-rule="evenodd" fill-opacity="1" /><path clip-path="url(#clip6800)" d="M 0 0 M123.385 825.453 L128.269 825.453 L128.269 831.332 L123.385 831.332 L123.385 825.453 Z" fill="#000000" fill-rule="evenodd" fill-opacity="1" /><path clip-path="url(#clip6800)" d="M 0 0 M146.185 800.846 L134.38 819.295 L146.185 819.295 L146.185 800.846 M144.959 796.772 L150.838 796.772 L150.838 819.295 L155.769 819.295 L155.769 823.184 L150.838 823.184 L150.838 831.332 L146.185 831.332 L146.185 823.184 L130.584 823.184 L130.584 818.67 L144.959 796.772 Z" fill="#000000" fill-rule="evenodd" fill-opacity="1" /><path clip-path="url(#clip6800)" d="M 0 0 M106.695 495.47 Q103.084 495.47 101.255 499.035 Q99.4496 502.577 99.4496 509.706 Q99.4496 516.813 101.255 520.378 Q103.084 523.919 106.695 523.919 Q110.329 523.919 112.135 520.378 Q113.963 516.813 113.963 509.706 Q113.963 502.577 112.135 499.035 Q110.329 495.47 106.695 495.47 M106.695 491.767 Q112.505 491.767 115.561 496.373 Q118.639 500.957 118.639 509.706 Q118.639 518.433 115.561 523.04 Q112.505 527.623 106.695 527.623 Q100.885 527.623 97.806 523.04 Q94.7505 518.433 94.7505 509.706 Q94.7505 500.957 97.806 496.373 Q100.885 491.767 106.695 491.767 Z" fill="#000000" fill-rule="evenodd" fill-opacity="1" /><path clip-path="url(#clip6800)" d="M 0 0 M123.709 521.072 L128.593 521.072 L128.593 526.952 L123.709 526.952 L123.709 521.072 Z" fill="#000000" fill-rule="evenodd" fill-opacity="1" /><path clip-path="url(#clip6800)" d="M 0 0 M144.241 507.808 Q141.093 507.808 139.241 509.961 Q137.412 512.114 137.412 515.864 Q137.412 519.591 139.241 521.767 Q141.093 523.919 144.241 523.919 Q147.389 523.919 149.218 521.767 Q151.07 519.591 151.07 515.864 Q151.07 512.114 149.218 509.961 Q147.389 507.808 144.241 507.808 M153.523 493.156 L153.523 497.415 Q151.764 496.582 149.959 496.142 Q148.176 495.702 146.417 495.702 Q141.787 495.702 139.334 498.827 Q136.903 501.952 136.556 508.271 Q137.922 506.257 139.982 505.193 Q142.042 504.105 144.519 504.105 Q149.727 504.105 152.736 507.276 Q155.769 510.424 155.769 515.864 Q155.769 521.188 152.621 524.405 Q149.472 527.623 144.241 527.623 Q138.246 527.623 135.074 523.04 Q131.903 518.433 131.903 509.706 Q131.903 501.512 135.792 496.651 Q139.681 491.767 146.232 491.767 Q147.991 491.767 149.773 492.114 Q151.579 492.461 153.523 493.156 Z" fill="#000000" fill-rule="evenodd" fill-opacity="1" /><path clip-path="url(#clip6800)" d="M 0 0 M106.95 191.09 Q103.338 191.09 101.51 194.655 Q99.7042 198.196 99.7042 205.326 Q99.7042 212.432 101.51 215.997 Q103.338 219.539 106.95 219.539 Q110.584 219.539 112.389 215.997 Q114.218 212.432 114.218 205.326 Q114.218 198.196 112.389 194.655 Q110.584 191.09 106.95 191.09 M106.95 187.386 Q112.76 187.386 115.815 191.993 Q118.894 196.576 118.894 205.326 Q118.894 214.053 115.815 218.659 Q112.76 223.243 106.95 223.243 Q101.139 223.243 98.0607 218.659 Q95.0051 214.053 95.0051 205.326 Q95.0051 196.576 98.0607 191.993 Q101.139 187.386 106.95 187.386 Z" fill="#000000" fill-rule="evenodd" fill-opacity="1" /><path clip-path="url(#clip6800)" d="M 0 0 M123.963 216.692 L128.848 216.692 L128.848 222.571 L123.963 222.571 L123.963 216.692 Z" fill="#000000" fill-rule="evenodd" fill-opacity="1" /><path clip-path="url(#clip6800)" d="M 0 0 M143.917 206.159 Q140.584 206.159 138.662 207.942 Q136.764 209.724 136.764 212.849 Q136.764 215.974 138.662 217.757 Q140.584 219.539 143.917 219.539 Q147.25 219.539 149.172 217.757 Q151.093 215.951 151.093 212.849 Q151.093 209.724 149.172 207.942 Q147.273 206.159 143.917 206.159 M139.241 204.169 Q136.232 203.428 134.542 201.368 Q132.875 199.308 132.875 196.345 Q132.875 192.201 135.815 189.794 Q138.778 187.386 143.917 187.386 Q149.079 187.386 152.019 189.794 Q154.959 192.201 154.959 196.345 Q154.959 199.308 153.269 201.368 Q151.602 203.428 148.616 204.169 Q151.996 204.956 153.871 207.247 Q155.769 209.539 155.769 212.849 Q155.769 217.872 152.69 220.557 Q149.634 223.243 143.917 223.243 Q138.199 223.243 135.121 220.557 Q132.065 217.872 132.065 212.849 Q132.065 209.539 133.963 207.247 Q135.861 204.956 139.241 204.169 M137.528 196.784 Q137.528 199.47 139.195 200.974 Q140.885 202.479 143.917 202.479 Q146.926 202.479 148.616 200.974 Q150.329 199.47 150.329 196.784 Q150.329 194.099 148.616 192.595 Q146.926 191.09 143.917 191.09 Q140.885 191.09 139.195 192.595 Q137.528 194.099 137.528 196.784 Z" fill="#000000" fill-rule="evenodd" fill-opacity="1" /><path clip-path="url(#clip6800)" d="M 0 0 M1280.42 1535.32 Q1280.42 1537.12 1279.3 1538.15 Q1278.17 1539.15 1276.88 1539.15 Q1275.66 1539.15 1275.01 1538.44 Q1274.37 1537.74 1274.37 1536.83 Q1274.37 1535.61 1275.27 1534.55 Q1276.17 1533.48 1277.52 1533.26 Q1276.2 1532.42 1274.24 1532.42 Q1272.95 1532.42 1271.82 1533.1 Q1270.73 1533.77 1270.05 1534.64 Q1269.41 1535.51 1268.83 1536.77 Q1268.28 1537.99 1268.06 1538.73 Q1267.86 1539.44 1267.7 1540.22 L1265.45 1549.23 Q1264.35 1553.52 1264.35 1555.03 Q1264.35 1556.9 1265.25 1558.15 Q1266.16 1559.38 1267.96 1559.38 Q1268.67 1559.38 1269.47 1559.19 Q1270.28 1558.96 1271.31 1558.38 Q1272.37 1557.77 1273.3 1556.87 Q1274.27 1555.93 1275.2 1554.35 Q1276.14 1552.78 1276.75 1550.75 Q1276.94 1550.04 1277.59 1550.04 Q1278.39 1550.04 1278.39 1550.68 Q1278.39 1551.23 1277.94 1552.39 Q1277.52 1553.52 1276.59 1555 Q1275.69 1556.45 1274.5 1557.77 Q1273.3 1559.06 1271.53 1559.96 Q1269.76 1560.86 1267.83 1560.86 Q1265.06 1560.86 1263.22 1559.38 Q1261.39 1557.9 1260.71 1555.84 Q1260.55 1556.13 1260.33 1556.51 Q1260.1 1556.9 1259.42 1557.77 Q1258.78 1558.61 1258.04 1559.25 Q1257.3 1559.86 1256.14 1560.34 Q1255.01 1560.86 1253.79 1560.86 Q1252.24 1560.86 1250.86 1560.41 Q1249.5 1559.96 1248.54 1558.93 Q1247.57 1557.9 1247.57 1556.48 Q1247.57 1554.9 1248.64 1553.81 Q1249.73 1552.68 1251.21 1552.68 Q1252.15 1552.68 1252.89 1553.23 Q1253.66 1553.77 1253.66 1554.97 Q1253.66 1556.29 1252.76 1557.29 Q1251.86 1558.28 1250.57 1558.54 Q1251.89 1559.38 1253.85 1559.38 Q1255.98 1559.38 1257.65 1557.51 Q1259.33 1555.64 1260.13 1552.52 Q1262.13 1545.01 1262.9 1541.67 Q1263.68 1538.28 1263.68 1536.83 Q1263.68 1535.48 1263.32 1534.55 Q1262.97 1533.61 1262.35 1533.2 Q1261.78 1532.74 1261.23 1532.58 Q1260.71 1532.42 1260.13 1532.42 Q1259.17 1532.42 1258.07 1532.81 Q1257.01 1533.2 1255.72 1534.1 Q1254.46 1534.97 1253.27 1536.77 Q1252.08 1538.57 1251.28 1541.05 Q1251.11 1541.79 1250.41 1541.79 Q1249.63 1541.76 1249.63 1541.12 Q1249.63 1540.57 1250.05 1539.44 Q1250.5 1538.28 1251.4 1536.83 Q1252.34 1535.39 1253.53 1534.1 Q1254.75 1532.78 1256.53 1531.87 Q1258.33 1530.97 1260.26 1530.97 Q1261.13 1530.97 1261.97 1531.17 Q1262.84 1531.33 1263.87 1531.81 Q1264.93 1532.29 1265.87 1533.36 Q1266.8 1534.42 1267.38 1535.96 Q1267.77 1535.22 1268.28 1534.52 Q1268.83 1533.81 1269.67 1532.94 Q1270.54 1532.04 1271.73 1531.52 Q1272.95 1530.97 1274.3 1530.97 Q1275.62 1530.97 1276.91 1531.33 Q1278.2 1531.65 1279.3 1532.71 Q1280.42 1533.74 1280.42 1535.32 Z" fill="#000000" fill-rule="evenodd" fill-opacity="1" /><path clip-path="url(#clip6800)" d="M 0 0 M29.5109 736.703 Q29.9618 736.703 31.0246 736.993 L56.2096 743.305 Q61.8134 744.69 65.7425 749.199 Q69.6716 753.675 69.6716 758.764 Q69.6716 761.823 68.0291 763.788 Q66.4189 765.753 63.939 765.753 Q61.749 765.753 60.6862 764.593 Q59.6556 763.434 59.6556 762.049 Q59.6556 761.598 59.7844 761.115 Q59.9133 760.632 60.4608 760.117 Q61.0083 759.601 61.9422 759.601 Q63.4559 759.601 64.6475 760.922 Q65.195 761.566 65.3239 762.178 Q65.4527 762.757 65.4527 763.756 Q66.3544 763.369 66.9664 762.661 Q67.5783 761.952 67.8037 761.147 Q68.0614 760.342 68.1258 759.827 Q68.2224 759.279 68.2224 758.764 Q68.2224 754.642 64.0678 751.485 Q62.8118 750.551 61.5558 749.875 Q60.3319 749.167 58.8183 748.651 Q57.3368 748.136 56.5317 747.911 Q55.7265 747.653 53.8908 747.202 Q56.8859 750.197 56.8859 753.869 Q56.8859 755.414 56.4672 756.799 Q56.0486 758.152 55.179 759.344 Q54.2772 760.535 52.6992 761.244 Q51.1211 761.92 49.0277 761.92 Q46.8055 761.92 43.7781 761.05 Q40.7508 760.181 35.1792 758.088 Q32.0552 756.96 30.5415 756.96 Q29.8008 756.96 29.3499 757.121 Q28.8668 757.282 28.7058 757.604 Q28.5126 757.927 28.4803 758.12 Q28.4481 758.281 28.4481 758.603 Q28.4481 760.503 30.3805 762.274 Q32.3128 764.046 36.6284 765.269 Q37.4336 765.527 37.6268 765.688 Q37.82 765.849 37.82 766.332 Q37.7878 767.137 37.1437 767.137 Q36.8861 767.137 35.8877 766.848 Q34.8571 766.558 33.3434 765.881 Q31.7976 765.173 30.4127 764.207 Q28.9956 763.24 27.9973 761.727 Q26.9989 760.181 26.9989 758.41 Q26.9989 755.994 28.577 754.513 Q30.1228 752.999 32.4095 752.999 Q33.3434 752.999 34.1808 753.257 Q34.9859 753.482 37.1437 754.319 Q45.8393 757.701 50.0905 757.701 Q51.1211 757.701 51.9906 757.54 Q52.828 757.347 53.6653 756.928 Q54.4705 756.509 54.9536 755.672 Q55.4044 754.803 55.4044 753.611 Q55.4044 752.097 54.6959 750.68 Q53.9552 749.231 52.9568 748.329 Q51.9584 747.395 51.1211 746.848 Q50.2515 746.268 49.8006 746.139 L37.9489 743.176 L32.6671 741.856 Q29.8008 741.244 29.0923 740.954 Q28.4159 740.568 28.0617 739.891 Q27.7074 739.215 27.7074 738.635 Q27.7074 737.83 28.1905 737.283 Q28.6736 736.703 29.5109 736.703 Z" fill="#000000" fill-rule="evenodd" fill-opacity="1" /><polyline clip-path="url(#clip6802)" style="stroke:#009af9; stroke-width:4; stroke-opacity:1; fill:none" points="
  241.268,158.865 469.045,748.792 696.821,906.731 924.598,87.0866 1152.37,759.709 1380.15,1415.17 1607.93,1379.27 1835.7,380.257 2063.48,335.201 2291.26,309.274 
  
  "/>
<path clip-path="url(#clip6800)" d="
M1989.74 251.724 L2280.76 251.724 L2280.76 130.764 L1989.74 130.764  Z
  " fill="#ffffff" fill-rule="evenodd" fill-opacity="1"/>
<polyline clip-path="url(#clip6800)" style="stroke:#000000; stroke-width:4; stroke-opacity:1; fill:none" points="
  1989.74,251.724 2280.76,251.724 2280.76,130.764 1989.74,130.764 1989.74,251.724 
  "/>
<polyline clip-path="url(#clip6800)" style="stroke:#009af9; stroke-width:4; stroke-opacity:1; fill:none" points="
  2013.74,191.244 2157.74,191.244 
  "/>
<path clip-path="url(#clip6800)" d="M 0 0 M2195.58 210.931 Q2193.77 215.561 2192.06 216.973 Q2190.35 218.385 2187.48 218.385 L2184.08 218.385 L2184.08 214.82 L2186.58 214.82 Q2188.33 214.82 2189.31 213.987 Q2190.28 213.154 2191.46 210.052 L2192.22 208.107 L2181.74 182.598 L2186.25 182.598 L2194.35 202.876 L2202.46 182.598 L2206.97 182.598 L2195.58 210.931 Z" fill="#000000" fill-rule="evenodd" fill-opacity="1" /><path clip-path="url(#clip6800)" d="M 0 0 M2212.85 204.589 L2220.49 204.589 L2220.49 178.223 L2212.18 179.89 L2212.18 175.631 L2220.44 173.964 L2225.12 173.964 L2225.12 204.589 L2232.76 204.589 L2232.76 208.524 L2212.85 208.524 L2212.85 204.589 Z" fill="#000000" fill-rule="evenodd" fill-opacity="1" /></svg>
