<?xml version="1.0" encoding="utf-8"?>
<svg xmlns="http://www.w3.org/2000/svg" xmlns:xlink="http://www.w3.org/1999/xlink" width="600" height="400" viewBox="0 0 2400 1600">
<defs>
  <clipPath id="clip230">
    <rect x="0" y="0" width="2400" height="1600"/>
  </clipPath>
</defs>
<path clip-path="url(#clip230)" d="
M0 1600 L2400 1600 L2400 0 L0 0  Z
  " fill="#ffffff" fill-rule="evenodd" fill-opacity="1"/>
<defs>
  <clipPath id="clip231">
    <rect x="480" y="0" width="1681" height="1600"/>
  </clipPath>
</defs>
<path clip-path="url(#clip230)" d="
M211.141 1447.17 L2352.76 1447.17 L2352.76 47.2441 L211.141 47.2441  Z
  " fill="#ffffff" fill-rule="evenodd" fill-opacity="1"/>
<defs>
  <clipPath id="clip232">
    <rect x="211" y="47" width="2143" height="1401"/>
  </clipPath>
</defs>
<polyline clip-path="url(#clip232)" style="stroke:#000000; stroke-width:2; stroke-opacity:0.1; fill:none" points="
  496.241,1447.17 496.241,47.2441 
  "/>
<polyline clip-path="url(#clip232)" style="stroke:#000000; stroke-width:2; stroke-opacity:0.1; fill:none" points="
  945.217,1447.17 945.217,47.2441 
  "/>
<polyline clip-path="url(#clip232)" style="stroke:#000000; stroke-width:2; stroke-opacity:0.1; fill:none" points="
  1394.19,1447.17 1394.19,47.2441 
  "/>
<polyline clip-path="url(#clip232)" style="stroke:#000000; stroke-width:2; stroke-opacity:0.1; fill:none" points="
  1843.17,1447.17 1843.17,47.2441 
  "/>
<polyline clip-path="url(#clip232)" style="stroke:#000000; stroke-width:2; stroke-opacity:0.1; fill:none" points="
  2292.14,1447.17 2292.14,47.2441 
  "/>
<polyline clip-path="url(#clip232)" style="stroke:#000000; stroke-width:2; stroke-opacity:0.1; fill:none" points="
  211.141,1245.28 2352.76,1245.28 
  "/>
<polyline clip-path="url(#clip232)" style="stroke:#000000; stroke-width:2; stroke-opacity:0.1; fill:none" points="
  211.141,1004.56 2352.76,1004.56 
  "/>
<polyline clip-path="url(#clip232)" style="stroke:#000000; stroke-width:2; stroke-opacity:0.1; fill:none" points="
  211.141,763.827 2352.76,763.827 
  "/>
<polyline clip-path="url(#clip232)" style="stroke:#000000; stroke-width:2; stroke-opacity:0.1; fill:none" points="
  211.141,523.099 2352.76,523.099 
  "/>
<polyline clip-path="url(#clip232)" style="stroke:#000000; stroke-width:2; stroke-opacity:0.1; fill:none" points="
  211.141,282.371 2352.76,282.371 
  "/>
<polyline clip-path="url(#clip230)" style="stroke:#000000; stroke-width:4; stroke-opacity:1; fill:none" points="
  211.141,1447.17 2352.76,1447.17 
  "/>
<polyline clip-path="url(#clip230)" style="stroke:#000000; stroke-width:4; stroke-opacity:1; fill:none" points="
  211.141,1447.17 211.141,47.2441 
  "/>
<polyline clip-path="url(#clip230)" style="stroke:#000000; stroke-width:4; stroke-opacity:1; fill:none" points="
  496.241,1447.17 496.241,1430.37 
  "/>
<polyline clip-path="url(#clip230)" style="stroke:#000000; stroke-width:4; stroke-opacity:1; fill:none" points="
  945.217,1447.17 945.217,1430.37 
  "/>
<polyline clip-path="url(#clip230)" style="stroke:#000000; stroke-width:4; stroke-opacity:1; fill:none" points="
  1394.19,1447.17 1394.19,1430.37 
  "/>
<polyline clip-path="url(#clip230)" style="stroke:#000000; stroke-width:4; stroke-opacity:1; fill:none" points="
  1843.17,1447.17 1843.17,1430.37 
  "/>
<polyline clip-path="url(#clip230)" style="stroke:#000000; stroke-width:4; stroke-opacity:1; fill:none" points="
  2292.14,1447.17 2292.14,1430.37 
  "/>
<polyline clip-path="url(#clip230)" style="stroke:#000000; stroke-width:4; stroke-opacity:1; fill:none" points="
  211.141,1245.28 236.841,1245.28 
  "/>
<polyline clip-path="url(#clip230)" style="stroke:#000000; stroke-width:4; stroke-opacity:1; fill:none" points="
  211.141,1004.56 236.841,1004.56 
  "/>
<polyline clip-path="url(#clip230)" style="stroke:#000000; stroke-width:4; stroke-opacity:1; fill:none" points="
  211.141,763.827 236.841,763.827 
  "/>
<polyline clip-path="url(#clip230)" style="stroke:#000000; stroke-width:4; stroke-opacity:1; fill:none" points="
  211.141,523.099 236.841,523.099 
  "/>
<polyline clip-path="url(#clip230)" style="stroke:#000000; stroke-width:4; stroke-opacity:1; fill:none" points="
  211.141,282.371 236.841,282.371 
  "/>
<path clip-path="url(#clip230)" d="M 0 0 M490.894 1496.71 L507.213 1496.71 L507.213 1500.64 L485.269 1500.64 L485.269 1496.71 Q487.931 1493.95 492.514 1489.32 Q497.121 1484.67 498.301 1483.33 Q500.546 1480.8 501.426 1479.07 Q502.329 1477.31 502.329 1475.62 Q502.329 1472.86 500.384 1471.13 Q498.463 1469.39 495.361 1469.39 Q493.162 1469.39 490.709 1470.16 Q488.278 1470.92 485.5 1472.47 L485.5 1467.75 Q488.324 1466.61 490.778 1466.04 Q493.232 1465.46 495.269 1465.46 Q500.639 1465.46 503.833 1468.14 Q507.028 1470.83 507.028 1475.32 Q507.028 1477.45 506.218 1479.37 Q505.431 1481.27 503.324 1483.86 Q502.745 1484.53 499.644 1487.75 Q496.542 1490.94 490.894 1496.71 Z" fill="#000000" fill-rule="evenodd" fill-opacity="1" /><path clip-path="url(#clip230)" d="M 0 0 M948.226 1470.16 L936.42 1488.61 L948.226 1488.61 L948.226 1470.16 M946.999 1466.08 L952.879 1466.08 L952.879 1488.61 L957.809 1488.61 L957.809 1492.49 L952.879 1492.49 L952.879 1500.64 L948.226 1500.64 L948.226 1492.49 L932.624 1492.49 L932.624 1487.98 L946.999 1466.08 Z" fill="#000000" fill-rule="evenodd" fill-opacity="1" /><path clip-path="url(#clip230)" d="M 0 0 M1394.6 1481.5 Q1391.45 1481.5 1389.6 1483.65 Q1387.77 1485.8 1387.77 1489.55 Q1387.77 1493.28 1389.6 1495.46 Q1391.45 1497.61 1394.6 1497.61 Q1397.75 1497.61 1399.57 1495.46 Q1401.43 1493.28 1401.43 1489.55 Q1401.43 1485.8 1399.57 1483.65 Q1397.75 1481.5 1394.6 1481.5 M1403.88 1466.85 L1403.88 1471.11 Q1402.12 1470.27 1400.32 1469.83 Q1398.53 1469.39 1396.77 1469.39 Q1392.14 1469.39 1389.69 1472.52 Q1387.26 1475.64 1386.91 1481.96 Q1388.28 1479.95 1390.34 1478.88 Q1392.4 1477.8 1394.88 1477.8 Q1400.08 1477.8 1403.09 1480.97 Q1406.13 1484.11 1406.13 1489.55 Q1406.13 1494.88 1402.98 1498.1 Q1399.83 1501.31 1394.6 1501.31 Q1388.6 1501.31 1385.43 1496.73 Q1382.26 1492.12 1382.26 1483.4 Q1382.26 1475.2 1386.15 1470.34 Q1390.04 1465.46 1396.59 1465.46 Q1398.35 1465.46 1400.13 1465.8 Q1401.94 1466.15 1403.88 1466.85 Z" fill="#000000" fill-rule="evenodd" fill-opacity="1" /><path clip-path="url(#clip230)" d="M 0 0 M1843.17 1484.23 Q1839.84 1484.23 1837.91 1486.01 Q1836.02 1487.8 1836.02 1490.92 Q1836.02 1494.05 1837.91 1495.83 Q1839.84 1497.61 1843.17 1497.61 Q1846.5 1497.61 1848.42 1495.83 Q1850.34 1494.02 1850.34 1490.92 Q1850.34 1487.8 1848.42 1486.01 Q1846.52 1484.23 1843.17 1484.23 M1838.49 1482.24 Q1835.48 1481.5 1833.79 1479.44 Q1832.13 1477.38 1832.13 1474.42 Q1832.13 1470.27 1835.07 1467.86 Q1838.03 1465.46 1843.17 1465.46 Q1848.33 1465.46 1851.27 1467.86 Q1854.21 1470.27 1854.21 1474.42 Q1854.21 1477.38 1852.52 1479.44 Q1850.85 1481.5 1847.87 1482.24 Q1851.25 1483.03 1853.12 1485.32 Q1855.02 1487.61 1855.02 1490.92 Q1855.02 1495.94 1851.94 1498.63 Q1848.89 1501.31 1843.17 1501.31 Q1837.45 1501.31 1834.37 1498.63 Q1831.32 1495.94 1831.32 1490.92 Q1831.32 1487.61 1833.21 1485.32 Q1835.11 1483.03 1838.49 1482.24 M1836.78 1474.86 Q1836.78 1477.54 1838.45 1479.05 Q1840.14 1480.55 1843.17 1480.55 Q1846.18 1480.55 1847.87 1479.05 Q1849.58 1477.54 1849.58 1474.86 Q1849.58 1472.17 1847.87 1470.67 Q1846.18 1469.16 1843.17 1469.16 Q1840.14 1469.16 1838.45 1470.67 Q1836.78 1472.17 1836.78 1474.86 Z" fill="#000000" fill-rule="evenodd" fill-opacity="1" /><path clip-path="url(#clip230)" d="M 0 0 M2269.02 1496.71 L2276.66 1496.71 L2276.66 1470.34 L2268.35 1472.01 L2268.35 1467.75 L2276.61 1466.08 L2281.29 1466.08 L2281.29 1496.71 L2288.93 1496.71 L2288.93 1500.64 L2269.02 1500.64 L2269.02 1496.71 Z" fill="#000000" fill-rule="evenodd" fill-opacity="1" /><path clip-path="url(#clip230)" d="M 0 0 M2304 1469.16 Q2300.38 1469.16 2298.56 1472.73 Q2296.75 1476.27 2296.75 1483.4 Q2296.75 1490.5 2298.56 1494.07 Q2300.38 1497.61 2304 1497.61 Q2307.63 1497.61 2309.44 1494.07 Q2311.26 1490.5 2311.26 1483.4 Q2311.26 1476.27 2309.44 1472.73 Q2307.63 1469.16 2304 1469.16 M2304 1465.46 Q2309.81 1465.46 2312.86 1470.06 Q2315.94 1474.65 2315.94 1483.4 Q2315.94 1492.12 2312.86 1496.73 Q2309.81 1501.31 2304 1501.31 Q2298.19 1501.31 2295.11 1496.73 Q2292.05 1492.12 2292.05 1483.4 Q2292.05 1474.65 2295.11 1470.06 Q2298.19 1465.46 2304 1465.46 Z" fill="#000000" fill-rule="evenodd" fill-opacity="1" /><path clip-path="url(#clip230)" d="M 0 0 M138.878 1231.08 Q135.267 1231.08 133.438 1234.65 Q131.632 1238.19 131.632 1245.32 Q131.632 1252.42 133.438 1255.99 Q135.267 1259.53 138.878 1259.53 Q142.512 1259.53 144.317 1255.99 Q146.146 1252.42 146.146 1245.32 Q146.146 1238.19 144.317 1234.65 Q142.512 1231.08 138.878 1231.08 M138.878 1227.38 Q144.688 1227.38 147.743 1231.99 Q150.822 1236.57 150.822 1245.32 Q150.822 1254.05 147.743 1258.65 Q144.688 1263.23 138.878 1263.23 Q133.067 1263.23 129.989 1258.65 Q126.933 1254.05 126.933 1245.32 Q126.933 1236.57 129.989 1231.99 Q133.067 1227.38 138.878 1227.38 Z" fill="#000000" fill-rule="evenodd" fill-opacity="1" /><path clip-path="url(#clip230)" d="M 0 0 M155.891 1256.68 L160.776 1256.68 L160.776 1262.56 L155.891 1262.56 L155.891 1256.68 Z" fill="#000000" fill-rule="evenodd" fill-opacity="1" /><path clip-path="url(#clip230)" d="M 0 0 M180.012 1243.93 Q183.368 1244.65 185.243 1246.92 Q187.141 1249.18 187.141 1252.52 Q187.141 1257.63 183.623 1260.43 Q180.104 1263.23 173.623 1263.23 Q171.447 1263.23 169.132 1262.8 Q166.84 1262.38 164.387 1261.52 L164.387 1257.01 Q166.331 1258.14 168.646 1258.72 Q170.961 1259.3 173.484 1259.3 Q177.882 1259.3 180.174 1257.56 Q182.488 1255.83 182.488 1252.52 Q182.488 1249.46 180.336 1247.75 Q178.206 1246.01 174.387 1246.01 L170.359 1246.01 L170.359 1242.17 L174.572 1242.17 Q178.021 1242.17 179.85 1240.8 Q181.678 1239.42 181.678 1236.82 Q181.678 1234.16 179.78 1232.75 Q177.905 1231.31 174.387 1231.31 Q172.465 1231.31 170.266 1231.73 Q168.067 1232.15 165.428 1233.03 L165.428 1228.86 Q168.09 1228.12 170.405 1227.75 Q172.743 1227.38 174.803 1227.38 Q180.127 1227.38 183.229 1229.81 Q186.331 1232.22 186.331 1236.34 Q186.331 1239.21 184.688 1241.2 Q183.044 1243.17 180.012 1243.93 Z" fill="#000000" fill-rule="evenodd" fill-opacity="1" /><path clip-path="url(#clip230)" d="M 0 0 M137.743 990.354 Q134.132 990.354 132.304 993.919 Q130.498 997.461 130.498 1004.59 Q130.498 1011.7 132.304 1015.26 Q134.132 1018.8 137.743 1018.8 Q141.378 1018.8 143.183 1015.26 Q145.012 1011.7 145.012 1004.59 Q145.012 997.461 143.183 993.919 Q141.378 990.354 137.743 990.354 M137.743 986.65 Q143.554 986.65 146.609 991.257 Q149.688 995.84 149.688 1004.59 Q149.688 1013.32 146.609 1017.92 Q143.554 1022.51 137.743 1022.51 Q131.933 1022.51 128.855 1017.92 Q125.799 1013.32 125.799 1004.59 Q125.799 995.84 128.855 991.257 Q131.933 986.65 137.743 986.65 Z" fill="#000000" fill-rule="evenodd" fill-opacity="1" /><path clip-path="url(#clip230)" d="M 0 0 M154.757 1015.96 L159.641 1015.96 L159.641 1021.84 L154.757 1021.84 L154.757 1015.96 Z" fill="#000000" fill-rule="evenodd" fill-opacity="1" /><path clip-path="url(#clip230)" d="M 0 0 M177.558 991.349 L165.752 1009.8 L177.558 1009.8 L177.558 991.349 M176.331 987.275 L182.211 987.275 L182.211 1009.8 L187.141 1009.8 L187.141 1013.69 L182.211 1013.69 L182.211 1021.84 L177.558 1021.84 L177.558 1013.69 L161.956 1013.69 L161.956 1009.17 L176.331 987.275 Z" fill="#000000" fill-rule="evenodd" fill-opacity="1" /><path clip-path="url(#clip230)" d="M 0 0 M139.225 749.626 Q135.614 749.626 133.785 753.191 Q131.98 756.732 131.98 763.862 Q131.98 770.969 133.785 774.533 Q135.614 778.075 139.225 778.075 Q142.859 778.075 144.665 774.533 Q146.493 770.969 146.493 763.862 Q146.493 756.732 144.665 753.191 Q142.859 749.626 139.225 749.626 M139.225 745.922 Q145.035 745.922 148.091 750.529 Q151.169 755.112 151.169 763.862 Q151.169 772.589 148.091 777.195 Q145.035 781.779 139.225 781.779 Q133.415 781.779 130.336 777.195 Q127.28 772.589 127.28 763.862 Q127.28 755.112 130.336 750.529 Q133.415 745.922 139.225 745.922 Z" fill="#000000" fill-rule="evenodd" fill-opacity="1" /><path clip-path="url(#clip230)" d="M 0 0 M156.239 775.228 L161.123 775.228 L161.123 781.107 L156.239 781.107 L156.239 775.228 Z" fill="#000000" fill-rule="evenodd" fill-opacity="1" /><path clip-path="url(#clip230)" d="M 0 0 M166.239 746.547 L184.595 746.547 L184.595 750.483 L170.521 750.483 L170.521 758.955 Q171.539 758.607 172.558 758.445 Q173.577 758.26 174.595 758.26 Q180.382 758.26 183.762 761.432 Q187.141 764.603 187.141 770.019 Q187.141 775.598 183.669 778.7 Q180.197 781.779 173.877 781.779 Q171.702 781.779 169.433 781.408 Q167.188 781.038 164.78 780.297 L164.78 775.598 Q166.864 776.732 169.086 777.288 Q171.308 777.843 173.785 777.843 Q177.789 777.843 180.127 775.737 Q182.465 773.631 182.465 770.019 Q182.465 766.408 180.127 764.302 Q177.789 762.195 173.785 762.195 Q171.91 762.195 170.035 762.612 Q168.183 763.029 166.239 763.908 L166.239 746.547 Z" fill="#000000" fill-rule="evenodd" fill-opacity="1" /><path clip-path="url(#clip230)" d="M 0 0 M138.067 508.898 Q134.456 508.898 132.628 512.463 Q130.822 516.004 130.822 523.134 Q130.822 530.24 132.628 533.805 Q134.456 537.347 138.067 537.347 Q141.702 537.347 143.507 533.805 Q145.336 530.24 145.336 523.134 Q145.336 516.004 143.507 512.463 Q141.702 508.898 138.067 508.898 M138.067 505.194 Q143.878 505.194 146.933 509.801 Q150.012 514.384 150.012 523.134 Q150.012 531.861 146.933 536.467 Q143.878 541.051 138.067 541.051 Q132.257 541.051 129.179 536.467 Q126.123 531.861 126.123 523.134 Q126.123 514.384 129.179 509.801 Q132.257 505.194 138.067 505.194 Z" fill="#000000" fill-rule="evenodd" fill-opacity="1" /><path clip-path="url(#clip230)" d="M 0 0 M155.081 534.5 L159.965 534.5 L159.965 540.379 L155.081 540.379 L155.081 534.5 Z" fill="#000000" fill-rule="evenodd" fill-opacity="1" /><path clip-path="url(#clip230)" d="M 0 0 M175.614 521.236 Q172.465 521.236 170.614 523.389 Q168.785 525.541 168.785 529.291 Q168.785 533.018 170.614 535.194 Q172.465 537.347 175.614 537.347 Q178.762 537.347 180.59 535.194 Q182.442 533.018 182.442 529.291 Q182.442 525.541 180.59 523.389 Q178.762 521.236 175.614 521.236 M184.896 506.583 L184.896 510.842 Q183.137 510.009 181.331 509.569 Q179.549 509.129 177.789 509.129 Q173.16 509.129 170.706 512.254 Q168.276 515.379 167.928 521.699 Q169.294 519.685 171.354 518.62 Q173.414 517.532 175.891 517.532 Q181.1 517.532 184.109 520.703 Q187.141 523.852 187.141 529.291 Q187.141 534.615 183.993 537.833 Q180.845 541.051 175.614 541.051 Q169.618 541.051 166.447 536.467 Q163.276 531.861 163.276 523.134 Q163.276 514.94 167.165 510.078 Q171.053 505.194 177.604 505.194 Q179.364 505.194 181.146 505.541 Q182.951 505.889 184.896 506.583 Z" fill="#000000" fill-rule="evenodd" fill-opacity="1" /><path clip-path="url(#clip230)" d="M 0 0 M139.132 268.17 Q135.521 268.17 133.692 271.735 Q131.887 275.276 131.887 282.406 Q131.887 289.512 133.692 293.077 Q135.521 296.619 139.132 296.619 Q142.766 296.619 144.572 293.077 Q146.401 289.512 146.401 282.406 Q146.401 275.276 144.572 271.735 Q142.766 268.17 139.132 268.17 M139.132 264.466 Q144.942 264.466 147.998 269.073 Q151.077 273.656 151.077 282.406 Q151.077 291.133 147.998 295.739 Q144.942 300.322 139.132 300.322 Q133.322 300.322 130.243 295.739 Q127.188 291.133 127.188 282.406 Q127.188 273.656 130.243 269.073 Q133.322 264.466 139.132 264.466 Z" fill="#000000" fill-rule="evenodd" fill-opacity="1" /><path clip-path="url(#clip230)" d="M 0 0 M156.146 293.772 L161.03 293.772 L161.03 299.651 L156.146 299.651 L156.146 293.772 Z" fill="#000000" fill-rule="evenodd" fill-opacity="1" /><path clip-path="url(#clip230)" d="M 0 0 M164.919 265.091 L187.141 265.091 L187.141 267.082 L174.595 299.651 L169.711 299.651 L181.516 269.026 L164.919 269.026 L164.919 265.091 Z" fill="#000000" fill-rule="evenodd" fill-opacity="1" /><path clip-path="url(#clip230)" d="M 0 0 M1296.11 1527.48 Q1296.11 1529.28 1294.98 1530.31 Q1293.85 1531.31 1292.57 1531.31 Q1291.34 1531.31 1290.7 1530.6 Q1290.05 1529.89 1290.05 1528.99 Q1290.05 1527.77 1290.96 1526.7 Q1291.86 1525.64 1293.21 1525.42 Q1291.89 1524.58 1289.93 1524.58 Q1288.64 1524.58 1287.51 1525.26 Q1286.41 1525.93 1285.74 1526.8 Q1285.09 1527.67 1284.51 1528.93 Q1283.97 1530.15 1283.74 1530.89 Q1283.55 1531.6 1283.39 1532.37 L1281.13 1541.39 Q1280.04 1545.67 1280.04 1547.19 Q1280.04 1549.06 1280.94 1550.31 Q1281.84 1551.54 1283.64 1551.54 Q1284.35 1551.54 1285.16 1551.34 Q1285.96 1551.12 1286.99 1550.54 Q1288.06 1549.93 1288.99 1549.02 Q1289.96 1548.09 1290.89 1546.51 Q1291.83 1544.93 1292.44 1542.9 Q1292.63 1542.2 1293.27 1542.2 Q1294.08 1542.2 1294.08 1542.84 Q1294.08 1543.39 1293.63 1544.55 Q1293.21 1545.67 1292.28 1547.16 Q1291.37 1548.6 1290.18 1549.93 Q1288.99 1551.21 1287.22 1552.12 Q1285.45 1553.02 1283.52 1553.02 Q1280.75 1553.02 1278.91 1551.54 Q1277.07 1550.05 1276.4 1547.99 Q1276.24 1548.28 1276.01 1548.67 Q1275.79 1549.06 1275.11 1549.93 Q1274.47 1550.76 1273.73 1551.41 Q1272.98 1552.02 1271.83 1552.5 Q1270.7 1553.02 1269.47 1553.02 Q1267.93 1553.02 1266.54 1552.57 Q1265.19 1552.12 1264.22 1551.08 Q1263.26 1550.05 1263.26 1548.64 Q1263.26 1547.06 1264.32 1545.96 Q1265.42 1544.84 1266.9 1544.84 Q1267.83 1544.84 1268.57 1545.38 Q1269.35 1545.93 1269.35 1547.12 Q1269.35 1548.44 1268.44 1549.44 Q1267.54 1550.44 1266.25 1550.7 Q1267.57 1551.54 1269.54 1551.54 Q1271.66 1551.54 1273.34 1549.67 Q1275.01 1547.8 1275.82 1544.68 Q1277.82 1537.17 1278.59 1533.82 Q1279.36 1530.44 1279.36 1528.99 Q1279.36 1527.64 1279.01 1526.7 Q1278.65 1525.77 1278.04 1525.35 Q1277.46 1524.9 1276.91 1524.74 Q1276.4 1524.58 1275.82 1524.58 Q1274.85 1524.58 1273.76 1524.97 Q1272.69 1525.35 1271.41 1526.25 Q1270.15 1527.12 1268.96 1528.93 Q1267.77 1530.73 1266.96 1533.21 Q1266.8 1533.95 1266.09 1533.95 Q1265.32 1533.92 1265.32 1533.27 Q1265.32 1532.73 1265.74 1531.6 Q1266.19 1530.44 1267.09 1528.99 Q1268.03 1527.54 1269.22 1526.25 Q1270.44 1524.93 1272.21 1524.03 Q1274.02 1523.13 1275.95 1523.13 Q1276.82 1523.13 1277.65 1523.32 Q1278.52 1523.48 1279.55 1523.97 Q1280.62 1524.45 1281.55 1525.51 Q1282.49 1526.58 1283.07 1528.12 Q1283.45 1527.38 1283.97 1526.67 Q1284.51 1525.96 1285.35 1525.09 Q1286.22 1524.19 1287.41 1523.68 Q1288.64 1523.13 1289.99 1523.13 Q1291.31 1523.13 1292.6 1523.48 Q1293.89 1523.81 1294.98 1524.87 Q1296.11 1525.9 1296.11 1527.48 Z" fill="#000000" fill-rule="evenodd" fill-opacity="1" /><path clip-path="url(#clip230)" d="M 0 0 M60.8835 732.781 Q61.3344 732.781 62.3972 733.071 L87.5821 739.384 Q93.186 740.768 97.1151 745.277 Q101.044 749.754 101.044 754.842 Q101.044 757.902 99.4017 759.866 Q97.7914 761.831 95.3115 761.831 Q93.1216 761.831 92.0588 760.672 Q91.0282 759.512 91.0282 758.127 Q91.0282 757.676 91.157 757.193 Q91.2858 756.71 91.8333 756.195 Q92.3808 755.68 93.3148 755.68 Q94.8285 755.68 96.0201 757 Q96.5676 757.644 96.6964 758.256 Q96.8252 758.836 96.8252 759.834 Q97.727 759.448 98.3389 758.739 Q98.9508 758.031 99.1763 757.226 Q99.4339 756.42 99.4983 755.905 Q99.5949 755.358 99.5949 754.842 Q99.5949 750.72 95.4404 747.564 Q94.1843 746.63 92.9283 745.953 Q91.7045 745.245 90.1908 744.73 Q88.7093 744.214 87.9042 743.989 Q87.0991 743.731 85.2633 743.28 Q88.2585 746.276 88.2585 749.947 Q88.2585 751.493 87.8398 752.878 Q87.4211 754.23 86.5516 755.422 Q85.6498 756.614 84.0717 757.322 Q82.4936 757.998 80.4002 757.998 Q78.178 757.998 75.1507 757.129 Q72.1233 756.259 66.5517 754.166 Q63.4277 753.039 61.9141 753.039 Q61.1733 753.039 60.7225 753.2 Q60.2394 753.361 60.0783 753.683 Q59.8851 754.005 59.8529 754.198 Q59.8207 754.359 59.8207 754.681 Q59.8207 756.581 61.753 758.353 Q63.6854 760.124 68.001 761.348 Q68.8061 761.606 68.9994 761.767 Q69.1926 761.928 69.1926 762.411 Q69.1604 763.216 68.5163 763.216 Q68.2586 763.216 67.2602 762.926 Q66.2297 762.636 64.716 761.96 Q63.1701 761.251 61.7852 760.285 Q60.3682 759.319 59.3698 757.805 Q58.3714 756.259 58.3714 754.488 Q58.3714 752.073 59.9495 750.591 Q61.4954 749.077 63.782 749.077 Q64.716 749.077 65.5533 749.335 Q66.3585 749.561 68.5163 750.398 Q77.2119 753.78 81.463 753.78 Q82.4936 753.78 83.3632 753.618 Q84.2005 753.425 85.0379 753.007 Q85.843 752.588 86.3261 751.751 Q86.777 750.881 86.777 749.689 Q86.777 748.176 86.0685 746.759 Q85.3277 745.309 84.3294 744.408 Q83.331 743.474 82.4936 742.926 Q81.6241 742.346 81.1732 742.218 L69.3214 739.255 L64.0397 737.934 Q61.1733 737.322 60.4648 737.032 Q59.7885 736.646 59.4342 735.97 Q59.08 735.293 59.08 734.714 Q59.08 733.909 59.563 733.361 Q60.0461 732.781 60.8835 732.781 Z" fill="#000000" fill-rule="evenodd" fill-opacity="1" /><polyline clip-path="url(#clip232)" style="stroke:#009af9; stroke-width:4; stroke-opacity:1; fill:none" points="
  271.753,890.241 496.241,1026.97 720.729,471.023 945.217,343.872 1169.7,86.8647 1394.19,91.694 1618.68,1125.9 1843.17,1407.55 2067.66,657.529 2292.14,992.989 
  
  "/>
<path clip-path="url(#clip230)" d="
M1989.74 251.724 L2280.76 251.724 L2280.76 130.764 L1989.74 130.764  Z
  " fill="#ffffff" fill-rule="evenodd" fill-opacity="1"/>
<polyline clip-path="url(#clip230)" style="stroke:#000000; stroke-width:4; stroke-opacity:1; fill:none" points="
  1989.74,251.724 2280.76,251.724 2280.76,130.764 1989.74,130.764 1989.74,251.724 
  "/>
<polyline clip-path="url(#clip230)" style="stroke:#009af9; stroke-width:4; stroke-opacity:1; fill:none" points="
  2013.74,191.244 2157.74,191.244 
  "/>
<path clip-path="url(#clip230)" d="M 0 0 M2195.58 210.931 Q2193.77 215.561 2192.06 216.973 Q2190.35 218.385 2187.48 218.385 L2184.08 218.385 L2184.08 214.82 L2186.58 214.82 Q2188.33 214.82 2189.31 213.987 Q2190.28 213.154 2191.46 210.052 L2192.22 208.107 L2181.74 182.598 L2186.25 182.598 L2194.35 202.876 L2202.46 182.598 L2206.97 182.598 L2195.58 210.931 Z" fill="#000000" fill-rule="evenodd" fill-opacity="1" /><path clip-path="url(#clip230)" d="M 0 0 M2212.85 204.589 L2220.49 204.589 L2220.49 178.223 L2212.18 179.89 L2212.18 175.631 L2220.44 173.964 L2225.12 173.964 L2225.12 204.589 L2232.76 204.589 L2232.76 208.524 L2212.85 208.524 L2212.85 204.589 Z" fill="#000000" fill-rule="evenodd" fill-opacity="1" /></svg>
