<?xml version="1.0" encoding="utf-8"?>
<svg xmlns="http://www.w3.org/2000/svg" xmlns:xlink="http://www.w3.org/1999/xlink" width="600" height="400" viewBox="0 0 2400 1600">
<defs>
  <clipPath id="clip360">
    <rect x="0" y="0" width="2400" height="1600"/>
  </clipPath>
</defs>
<path clip-path="url(#clip360)" d="
M0 1600 L2400 1600 L2400 0 L0 0  Z
  " fill="#ffffff" fill-rule="evenodd" fill-opacity="1"/>
<defs>
  <clipPath id="clip361">
    <rect x="480" y="0" width="1681" height="1600"/>
  </clipPath>
</defs>
<path clip-path="url(#clip360)" d="
M211.141 1447.17 L2352.76 1447.17 L2352.76 47.2441 L211.141 47.2441  Z
  " fill="#ffffff" fill-rule="evenodd" fill-opacity="1"/>
<defs>
  <clipPath id="clip362">
    <rect x="211" y="47" width="2143" height="1401"/>
  </clipPath>
</defs>
<polyline clip-path="url(#clip362)" style="stroke:#000000; stroke-width:2; stroke-opacity:0.1; fill:none" points="
  496.241,1447.17 496.241,47.2441 
  "/>
<polyline clip-path="url(#clip362)" style="stroke:#000000; stroke-width:2; stroke-opacity:0.1; fill:none" points="
  945.217,1447.17 945.217,47.2441 
  "/>
<polyline clip-path="url(#clip362)" style="stroke:#000000; stroke-width:2; stroke-opacity:0.1; fill:none" points="
  1394.19,1447.17 1394.19,47.2441 
  "/>
<polyline clip-path="url(#clip362)" style="stroke:#000000; stroke-width:2; stroke-opacity:0.1; fill:none" points="
  1843.17,1447.17 1843.17,47.2441 
  "/>
<polyline clip-path="url(#clip362)" style="stroke:#000000; stroke-width:2; stroke-opacity:0.1; fill:none" points="
  2292.14,1447.17 2292.14,47.2441 
  "/>
<polyline clip-path="url(#clip362)" style="stroke:#000000; stroke-width:2; stroke-opacity:0.1; fill:none" points="
  211.141,1278.17 2352.76,1278.17 
  "/>
<polyline clip-path="url(#clip362)" style="stroke:#000000; stroke-width:2; stroke-opacity:0.1; fill:none" points="
  211.141,1068.36 2352.76,1068.36 
  "/>
<polyline clip-path="url(#clip362)" style="stroke:#000000; stroke-width:2; stroke-opacity:0.1; fill:none" points="
  211.141,858.554 2352.76,858.554 
  "/>
<polyline clip-path="url(#clip362)" style="stroke:#000000; stroke-width:2; stroke-opacity:0.1; fill:none" points="
  211.141,648.749 2352.76,648.749 
  "/>
<polyline clip-path="url(#clip362)" style="stroke:#000000; stroke-width:2; stroke-opacity:0.1; fill:none" points="
  211.141,438.943 2352.76,438.943 
  "/>
<polyline clip-path="url(#clip362)" style="stroke:#000000; stroke-width:2; stroke-opacity:0.1; fill:none" points="
  211.141,229.137 2352.76,229.137 
  "/>
<polyline clip-path="url(#clip360)" style="stroke:#000000; stroke-width:4; stroke-opacity:1; fill:none" points="
  211.141,1447.17 2352.76,1447.17 
  "/>
<polyline clip-path="url(#clip360)" style="stroke:#000000; stroke-width:4; stroke-opacity:1; fill:none" points="
  211.141,1447.17 211.141,47.2441 
  "/>
<polyline clip-path="url(#clip360)" style="stroke:#000000; stroke-width:4; stroke-opacity:1; fill:none" points="
  496.241,1447.17 496.241,1430.37 
  "/>
<polyline clip-path="url(#clip360)" style="stroke:#000000; stroke-width:4; stroke-opacity:1; fill:none" points="
  945.217,1447.17 945.217,1430.37 
  "/>
<polyline clip-path="url(#clip360)" style="stroke:#000000; stroke-width:4; stroke-opacity:1; fill:none" points="
  1394.19,1447.17 1394.19,1430.37 
  "/>
<polyline clip-path="url(#clip360)" style="stroke:#000000; stroke-width:4; stroke-opacity:1; fill:none" points="
  1843.17,1447.17 1843.17,1430.37 
  "/>
<polyline clip-path="url(#clip360)" style="stroke:#000000; stroke-width:4; stroke-opacity:1; fill:none" points="
  2292.14,1447.17 2292.14,1430.37 
  "/>
<polyline clip-path="url(#clip360)" style="stroke:#000000; stroke-width:4; stroke-opacity:1; fill:none" points="
  211.141,1278.17 236.841,1278.17 
  "/>
<polyline clip-path="url(#clip360)" style="stroke:#000000; stroke-width:4; stroke-opacity:1; fill:none" points="
  211.141,1068.36 236.841,1068.36 
  "/>
<polyline clip-path="url(#clip360)" style="stroke:#000000; stroke-width:4; stroke-opacity:1; fill:none" points="
  211.141,858.554 236.841,858.554 
  "/>
<polyline clip-path="url(#clip360)" style="stroke:#000000; stroke-width:4; stroke-opacity:1; fill:none" points="
  211.141,648.749 236.841,648.749 
  "/>
<polyline clip-path="url(#clip360)" style="stroke:#000000; stroke-width:4; stroke-opacity:1; fill:none" points="
  211.141,438.943 236.841,438.943 
  "/>
<polyline clip-path="url(#clip360)" style="stroke:#000000; stroke-width:4; stroke-opacity:1; fill:none" points="
  211.141,229.137 236.841,229.137 
  "/>
<path clip-path="url(#clip360)" d="M 0 0 M490.894 1496.71 L507.213 1496.71 L507.213 1500.64 L485.269 1500.64 L485.269 1496.71 Q487.931 1493.95 492.514 1489.32 Q497.121 1484.67 498.301 1483.33 Q500.546 1480.8 501.426 1479.07 Q502.329 1477.31 502.329 1475.62 Q502.329 1472.86 500.384 1471.13 Q498.463 1469.39 495.361 1469.39 Q493.162 1469.39 490.709 1470.16 Q488.278 1470.92 485.5 1472.47 L485.5 1467.75 Q488.324 1466.61 490.778 1466.04 Q493.232 1465.46 495.269 1465.46 Q500.639 1465.46 503.833 1468.14 Q507.028 1470.83 507.028 1475.32 Q507.028 1477.45 506.218 1479.37 Q505.431 1481.27 503.324 1483.86 Q502.745 1484.53 499.644 1487.75 Q496.542 1490.94 490.894 1496.71 Z" fill="#000000" fill-rule="evenodd" fill-opacity="1" /><path clip-path="url(#clip360)" d="M 0 0 M948.226 1470.16 L936.42 1488.61 L948.226 1488.61 L948.226 1470.16 M946.999 1466.08 L952.879 1466.08 L952.879 1488.61 L957.809 1488.61 L957.809 1492.49 L952.879 1492.49 L952.879 1500.64 L948.226 1500.64 L948.226 1492.49 L932.624 1492.49 L932.624 1487.98 L946.999 1466.08 Z" fill="#000000" fill-rule="evenodd" fill-opacity="1" /><path clip-path="url(#clip360)" d="M 0 0 M1394.6 1481.5 Q1391.45 1481.5 1389.6 1483.65 Q1387.77 1485.8 1387.77 1489.55 Q1387.77 1493.28 1389.6 1495.46 Q1391.45 1497.61 1394.6 1497.61 Q1397.75 1497.61 1399.57 1495.46 Q1401.43 1493.28 1401.43 1489.55 Q1401.43 1485.8 1399.57 1483.65 Q1397.75 1481.5 1394.6 1481.5 M1403.88 1466.85 L1403.88 1471.11 Q1402.12 1470.27 1400.32 1469.83 Q1398.53 1469.39 1396.77 1469.39 Q1392.14 1469.39 1389.69 1472.52 Q1387.26 1475.64 1386.91 1481.96 Q1388.28 1479.95 1390.34 1478.88 Q1392.4 1477.8 1394.88 1477.8 Q1400.08 1477.8 1403.09 1480.97 Q1406.13 1484.11 1406.13 1489.55 Q1406.13 1494.88 1402.98 1498.1 Q1399.83 1501.31 1394.6 1501.31 Q1388.6 1501.31 1385.43 1496.73 Q1382.26 1492.12 1382.26 1483.4 Q1382.26 1475.2 1386.15 1470.34 Q1390.04 1465.46 1396.59 1465.46 Q1398.35 1465.46 1400.13 1465.8 Q1401.94 1466.15 1403.88 1466.85 Z" fill="#000000" fill-rule="evenodd" fill-opacity="1" /><path clip-path="url(#clip360)" d="M 0 0 M1843.17 1484.23 Q1839.84 1484.23 1837.91 1486.01 Q1836.02 1487.8 1836.02 1490.92 Q1836.02 1494.05 1837.91 1495.83 Q1839.84 1497.61 1843.17 1497.61 Q1846.5 1497.61 1848.42 1495.83 Q1850.34 1494.02 1850.34 1490.92 Q1850.34 1487.8 1848.42 1486.01 Q1846.52 1484.23 1843.17 1484.23 M1838.49 1482.24 Q1835.48 1481.5 1833.79 1479.44 Q1832.13 1477.38 1832.13 1474.42 Q1832.13 1470.27 1835.07 1467.86 Q1838.03 1465.46 1843.17 1465.46 Q1848.33 1465.46 1851.27 1467.86 Q1854.21 1470.27 1854.21 1474.42 Q1854.21 1477.38 1852.52 1479.44 Q1850.85 1481.5 1847.87 1482.24 Q1851.25 1483.03 1853.12 1485.32 Q1855.02 1487.61 1855.02 1490.92 Q1855.02 1495.94 1851.94 1498.63 Q1848.89 1501.31 1843.17 1501.31 Q1837.45 1501.31 1834.37 1498.63 Q1831.32 1495.94 1831.32 1490.92 Q1831.32 1487.61 1833.21 1485.32 Q1835.11 1483.03 1838.49 1482.24 M1836.78 1474.86 Q1836.78 1477.54 1838.45 1479.05 Q1840.14 1480.55 1843.17 1480.55 Q1846.18 1480.55 1847.87 1479.05 Q1849.58 1477.54 1849.58 1474.86 Q1849.58 1472.17 1847.87 1470.67 Q1846.18 1469.16 1843.17 1469.16 Q1840.14 1469.16 1838.45 1470.67 Q1836.78 1472.17 1836.78 1474.86 Z" fill="#000000" fill-rule="evenodd" fill-opacity="1" /><path clip-path="url(#clip360)" d="M 0 0 M2269.02 1496.71 L2276.66 1496.71 L2276.66 1470.34 L2268.35 1472.01 L2268.35 1467.75 L2276.61 1466.08 L2281.29 1466.08 L2281.29 1496.71 L2288.93 1496.71 L2288.93 1500.64 L2269.02 1500.64 L2269.02 1496.71 Z" fill="#000000" fill-rule="evenodd" fill-opacity="1" /><path clip-path="url(#clip360)" d="M 0 0 M2304 1469.16 Q2300.38 1469.16 2298.56 1472.73 Q2296.75 1476.27 2296.75 1483.4 Q2296.75 1490.5 2298.56 1494.07 Q2300.38 1497.61 2304 1497.61 Q2307.63 1497.61 2309.44 1494.07 Q2311.26 1490.5 2311.26 1483.4 Q2311.26 1476.27 2309.44 1472.73 Q2307.63 1469.16 2304 1469.16 M2304 1465.46 Q2309.81 1465.46 2312.86 1470.06 Q2315.94 1474.65 2315.94 1483.4 Q2315.94 1492.12 2312.86 1496.73 Q2309.81 1501.31 2304 1501.31 Q2298.19 1501.31 2295.11 1496.73 Q2292.05 1492.12 2292.05 1483.4 Q2292.05 1474.65 2295.11 1470.06 Q2298.19 1465.46 2304 1465.46 Z" fill="#000000" fill-rule="evenodd" fill-opacity="1" /><path clip-path="url(#clip360)" d="M 0 0 M139.456 1263.96 Q135.845 1263.96 134.017 1267.53 Q132.211 1271.07 132.211 1278.2 Q132.211 1285.31 134.017 1288.87 Q135.845 1292.41 139.456 1292.41 Q143.091 1292.41 144.896 1288.87 Q146.725 1285.31 146.725 1278.2 Q146.725 1271.07 144.896 1267.53 Q143.091 1263.96 139.456 1263.96 M139.456 1260.26 Q145.266 1260.26 148.322 1264.87 Q151.401 1269.45 151.401 1278.2 Q151.401 1286.93 148.322 1291.53 Q145.266 1296.12 139.456 1296.12 Q133.646 1296.12 130.567 1291.53 Q127.512 1286.93 127.512 1278.2 Q127.512 1269.45 130.567 1264.87 Q133.646 1260.26 139.456 1260.26 Z" fill="#000000" fill-rule="evenodd" fill-opacity="1" /><path clip-path="url(#clip360)" d="M 0 0 M156.47 1289.57 L161.354 1289.57 L161.354 1295.45 L156.47 1295.45 L156.47 1289.57 Z" fill="#000000" fill-rule="evenodd" fill-opacity="1" /><path clip-path="url(#clip360)" d="M 0 0 M167.234 1291.51 L174.873 1291.51 L174.873 1265.15 L166.563 1266.81 L166.563 1262.55 L174.826 1260.89 L179.502 1260.89 L179.502 1291.51 L187.141 1291.51 L187.141 1295.45 L167.234 1295.45 L167.234 1291.51 Z" fill="#000000" fill-rule="evenodd" fill-opacity="1" /><path clip-path="url(#clip360)" d="M 0 0 M139.827 1054.16 Q136.216 1054.16 134.387 1057.72 Q132.581 1061.27 132.581 1068.39 Q132.581 1075.5 134.387 1079.07 Q136.216 1082.61 139.827 1082.61 Q143.461 1082.61 145.266 1079.07 Q147.095 1075.5 147.095 1068.39 Q147.095 1061.27 145.266 1057.72 Q143.461 1054.16 139.827 1054.16 M139.827 1050.46 Q145.637 1050.46 148.692 1055.06 Q151.771 1059.65 151.771 1068.39 Q151.771 1077.12 148.692 1081.73 Q145.637 1086.31 139.827 1086.31 Q134.017 1086.31 130.938 1081.73 Q127.882 1077.12 127.882 1068.39 Q127.882 1059.65 130.938 1055.06 Q134.017 1050.46 139.827 1050.46 Z" fill="#000000" fill-rule="evenodd" fill-opacity="1" /><path clip-path="url(#clip360)" d="M 0 0 M156.84 1079.76 L161.725 1079.76 L161.725 1085.64 L156.84 1085.64 L156.84 1079.76 Z" fill="#000000" fill-rule="evenodd" fill-opacity="1" /><path clip-path="url(#clip360)" d="M 0 0 M170.822 1081.71 L187.141 1081.71 L187.141 1085.64 L165.197 1085.64 L165.197 1081.71 Q167.859 1078.95 172.442 1074.32 Q177.049 1069.67 178.229 1068.33 Q180.475 1065.8 181.354 1064.07 Q182.257 1062.31 182.257 1060.62 Q182.257 1057.86 180.313 1056.13 Q178.391 1054.39 175.289 1054.39 Q173.09 1054.39 170.637 1055.15 Q168.206 1055.92 165.428 1057.47 L165.428 1052.75 Q168.252 1051.61 170.706 1051.03 Q173.16 1050.46 175.197 1050.46 Q180.567 1050.46 183.762 1053.14 Q186.956 1055.83 186.956 1060.32 Q186.956 1062.45 186.146 1064.37 Q185.359 1066.27 183.252 1068.86 Q182.674 1069.53 179.572 1072.75 Q176.47 1075.94 170.822 1081.71 Z" fill="#000000" fill-rule="evenodd" fill-opacity="1" /><path clip-path="url(#clip360)" d="M 0 0 M138.878 844.353 Q135.267 844.353 133.438 847.918 Q131.632 851.46 131.632 858.589 Q131.632 865.696 133.438 869.26 Q135.267 872.802 138.878 872.802 Q142.512 872.802 144.317 869.26 Q146.146 865.696 146.146 858.589 Q146.146 851.46 144.317 847.918 Q142.512 844.353 138.878 844.353 M138.878 840.649 Q144.688 840.649 147.743 845.256 Q150.822 849.839 150.822 858.589 Q150.822 867.316 147.743 871.922 Q144.688 876.506 138.878 876.506 Q133.067 876.506 129.989 871.922 Q126.933 867.316 126.933 858.589 Q126.933 849.839 129.989 845.256 Q133.067 840.649 138.878 840.649 Z" fill="#000000" fill-rule="evenodd" fill-opacity="1" /><path clip-path="url(#clip360)" d="M 0 0 M155.891 869.955 L160.776 869.955 L160.776 875.834 L155.891 875.834 L155.891 869.955 Z" fill="#000000" fill-rule="evenodd" fill-opacity="1" /><path clip-path="url(#clip360)" d="M 0 0 M180.012 857.2 Q183.368 857.918 185.243 860.186 Q187.141 862.455 187.141 865.788 Q187.141 870.904 183.623 873.705 Q180.104 876.506 173.623 876.506 Q171.447 876.506 169.132 876.066 Q166.84 875.649 164.387 874.793 L164.387 870.279 Q166.331 871.413 168.646 871.992 Q170.961 872.571 173.484 872.571 Q177.882 872.571 180.174 870.835 Q182.488 869.098 182.488 865.788 Q182.488 862.733 180.336 861.02 Q178.206 859.284 174.387 859.284 L170.359 859.284 L170.359 855.441 L174.572 855.441 Q178.021 855.441 179.85 854.075 Q181.678 852.686 181.678 850.094 Q181.678 847.432 179.78 846.02 Q177.905 844.585 174.387 844.585 Q172.465 844.585 170.266 845.001 Q168.067 845.418 165.428 846.298 L165.428 842.131 Q168.09 841.39 170.405 841.02 Q172.743 840.649 174.803 840.649 Q180.127 840.649 183.229 843.08 Q186.331 845.487 186.331 849.608 Q186.331 852.478 184.688 854.469 Q183.044 856.436 180.012 857.2 Z" fill="#000000" fill-rule="evenodd" fill-opacity="1" /><path clip-path="url(#clip360)" d="M 0 0 M137.743 634.547 Q134.132 634.547 132.304 638.112 Q130.498 641.654 130.498 648.783 Q130.498 655.89 132.304 659.455 Q134.132 662.996 137.743 662.996 Q141.378 662.996 143.183 659.455 Q145.012 655.89 145.012 648.783 Q145.012 641.654 143.183 638.112 Q141.378 634.547 137.743 634.547 M137.743 630.844 Q143.554 630.844 146.609 635.45 Q149.688 640.033 149.688 648.783 Q149.688 657.51 146.609 662.117 Q143.554 666.7 137.743 666.7 Q131.933 666.7 128.855 662.117 Q125.799 657.51 125.799 648.783 Q125.799 640.033 128.855 635.45 Q131.933 630.844 137.743 630.844 Z" fill="#000000" fill-rule="evenodd" fill-opacity="1" /><path clip-path="url(#clip360)" d="M 0 0 M154.757 660.149 L159.641 660.149 L159.641 666.029 L154.757 666.029 L154.757 660.149 Z" fill="#000000" fill-rule="evenodd" fill-opacity="1" /><path clip-path="url(#clip360)" d="M 0 0 M177.558 635.543 L165.752 653.992 L177.558 653.992 L177.558 635.543 M176.331 631.469 L182.211 631.469 L182.211 653.992 L187.141 653.992 L187.141 657.881 L182.211 657.881 L182.211 666.029 L177.558 666.029 L177.558 657.881 L161.956 657.881 L161.956 653.367 L176.331 631.469 Z" fill="#000000" fill-rule="evenodd" fill-opacity="1" /><path clip-path="url(#clip360)" d="M 0 0 M139.225 424.742 Q135.614 424.742 133.785 428.306 Q131.98 431.848 131.98 438.978 Q131.98 446.084 133.785 449.649 Q135.614 453.191 139.225 453.191 Q142.859 453.191 144.665 449.649 Q146.493 446.084 146.493 438.978 Q146.493 431.848 144.665 428.306 Q142.859 424.742 139.225 424.742 M139.225 421.038 Q145.035 421.038 148.091 425.644 Q151.169 430.228 151.169 438.978 Q151.169 447.704 148.091 452.311 Q145.035 456.894 139.225 456.894 Q133.415 456.894 130.336 452.311 Q127.28 447.704 127.28 438.978 Q127.28 430.228 130.336 425.644 Q133.415 421.038 139.225 421.038 Z" fill="#000000" fill-rule="evenodd" fill-opacity="1" /><path clip-path="url(#clip360)" d="M 0 0 M156.239 450.343 L161.123 450.343 L161.123 456.223 L156.239 456.223 L156.239 450.343 Z" fill="#000000" fill-rule="evenodd" fill-opacity="1" /><path clip-path="url(#clip360)" d="M 0 0 M166.239 421.663 L184.595 421.663 L184.595 425.598 L170.521 425.598 L170.521 434.07 Q171.539 433.723 172.558 433.561 Q173.577 433.376 174.595 433.376 Q180.382 433.376 183.762 436.547 Q187.141 439.718 187.141 445.135 Q187.141 450.714 183.669 453.816 Q180.197 456.894 173.877 456.894 Q171.702 456.894 169.433 456.524 Q167.188 456.154 164.78 455.413 L164.78 450.714 Q166.864 451.848 169.086 452.404 Q171.308 452.959 173.785 452.959 Q177.789 452.959 180.127 450.853 Q182.465 448.746 182.465 445.135 Q182.465 441.524 180.127 439.417 Q177.789 437.311 173.785 437.311 Q171.91 437.311 170.035 437.728 Q168.183 438.144 166.239 439.024 L166.239 421.663 Z" fill="#000000" fill-rule="evenodd" fill-opacity="1" /><path clip-path="url(#clip360)" d="M 0 0 M138.067 214.936 Q134.456 214.936 132.628 218.501 Q130.822 222.042 130.822 229.172 Q130.822 236.278 132.628 239.843 Q134.456 243.385 138.067 243.385 Q141.702 243.385 143.507 239.843 Q145.336 236.278 145.336 229.172 Q145.336 222.042 143.507 218.501 Q141.702 214.936 138.067 214.936 M138.067 211.232 Q143.878 211.232 146.933 215.839 Q150.012 220.422 150.012 229.172 Q150.012 237.899 146.933 242.505 Q143.878 247.088 138.067 247.088 Q132.257 247.088 129.179 242.505 Q126.123 237.899 126.123 229.172 Q126.123 220.422 129.179 215.839 Q132.257 211.232 138.067 211.232 Z" fill="#000000" fill-rule="evenodd" fill-opacity="1" /><path clip-path="url(#clip360)" d="M 0 0 M155.081 240.538 L159.965 240.538 L159.965 246.417 L155.081 246.417 L155.081 240.538 Z" fill="#000000" fill-rule="evenodd" fill-opacity="1" /><path clip-path="url(#clip360)" d="M 0 0 M175.614 227.274 Q172.465 227.274 170.614 229.427 Q168.785 231.579 168.785 235.329 Q168.785 239.056 170.614 241.232 Q172.465 243.385 175.614 243.385 Q178.762 243.385 180.59 241.232 Q182.442 239.056 182.442 235.329 Q182.442 231.579 180.59 229.427 Q178.762 227.274 175.614 227.274 M184.896 212.621 L184.896 216.88 Q183.137 216.047 181.331 215.607 Q179.549 215.167 177.789 215.167 Q173.16 215.167 170.706 218.292 Q168.276 221.417 167.928 227.737 Q169.294 225.723 171.354 224.658 Q173.414 223.57 175.891 223.57 Q181.1 223.57 184.109 226.741 Q187.141 229.889 187.141 235.329 Q187.141 240.653 183.993 243.871 Q180.845 247.088 175.614 247.088 Q169.618 247.088 166.447 242.505 Q163.276 237.899 163.276 229.172 Q163.276 220.977 167.165 216.116 Q171.053 211.232 177.604 211.232 Q179.364 211.232 181.146 211.579 Q182.951 211.927 184.896 212.621 Z" fill="#000000" fill-rule="evenodd" fill-opacity="1" /><path clip-path="url(#clip360)" d="M 0 0 M1296.11 1527.48 Q1296.11 1529.28 1294.98 1530.31 Q1293.85 1531.31 1292.57 1531.31 Q1291.34 1531.31 1290.7 1530.6 Q1290.05 1529.89 1290.05 1528.99 Q1290.05 1527.77 1290.96 1526.7 Q1291.86 1525.64 1293.21 1525.42 Q1291.89 1524.58 1289.93 1524.58 Q1288.64 1524.58 1287.51 1525.26 Q1286.41 1525.93 1285.74 1526.8 Q1285.09 1527.67 1284.51 1528.93 Q1283.97 1530.15 1283.74 1530.89 Q1283.55 1531.6 1283.39 1532.37 L1281.13 1541.39 Q1280.04 1545.67 1280.04 1547.19 Q1280.04 1549.06 1280.94 1550.31 Q1281.84 1551.54 1283.64 1551.54 Q1284.35 1551.54 1285.16 1551.34 Q1285.96 1551.12 1286.99 1550.54 Q1288.06 1549.93 1288.99 1549.02 Q1289.96 1548.09 1290.89 1546.51 Q1291.83 1544.93 1292.44 1542.9 Q1292.63 1542.2 1293.27 1542.2 Q1294.08 1542.2 1294.08 1542.84 Q1294.08 1543.39 1293.63 1544.55 Q1293.21 1545.67 1292.28 1547.16 Q1291.37 1548.6 1290.18 1549.93 Q1288.99 1551.21 1287.22 1552.12 Q1285.45 1553.02 1283.52 1553.02 Q1280.75 1553.02 1278.91 1551.54 Q1277.07 1550.05 1276.4 1547.99 Q1276.24 1548.28 1276.01 1548.67 Q1275.79 1549.06 1275.11 1549.93 Q1274.47 1550.76 1273.73 1551.41 Q1272.98 1552.02 1271.83 1552.5 Q1270.7 1553.02 1269.47 1553.02 Q1267.93 1553.02 1266.54 1552.57 Q1265.19 1552.12 1264.22 1551.08 Q1263.26 1550.05 1263.26 1548.64 Q1263.26 1547.06 1264.32 1545.96 Q1265.42 1544.84 1266.9 1544.84 Q1267.83 1544.84 1268.57 1545.38 Q1269.35 1545.93 1269.35 1547.12 Q1269.35 1548.44 1268.44 1549.44 Q1267.54 1550.44 1266.25 1550.7 Q1267.57 1551.54 1269.54 1551.54 Q1271.66 1551.54 1273.34 1549.67 Q1275.01 1547.8 1275.82 1544.68 Q1277.82 1537.17 1278.59 1533.82 Q1279.36 1530.44 1279.36 1528.99 Q1279.36 1527.64 1279.01 1526.7 Q1278.65 1525.77 1278.04 1525.35 Q1277.46 1524.9 1276.91 1524.74 Q1276.4 1524.58 1275.82 1524.58 Q1274.85 1524.58 1273.76 1524.97 Q1272.69 1525.35 1271.41 1526.25 Q1270.15 1527.12 1268.96 1528.93 Q1267.77 1530.73 1266.96 1533.21 Q1266.8 1533.95 1266.09 1533.95 Q1265.32 1533.92 1265.32 1533.27 Q1265.32 1532.73 1265.74 1531.6 Q1266.19 1530.44 1267.09 1528.99 Q1268.03 1527.54 1269.22 1526.25 Q1270.44 1524.93 1272.21 1524.03 Q1274.02 1523.13 1275.95 1523.13 Q1276.82 1523.13 1277.65 1523.32 Q1278.52 1523.48 1279.55 1523.97 Q1280.62 1524.45 1281.55 1525.51 Q1282.49 1526.58 1283.07 1528.12 Q1283.45 1527.38 1283.97 1526.67 Q1284.51 1525.96 1285.35 1525.09 Q1286.22 1524.19 1287.41 1523.68 Q1288.64 1523.13 1289.99 1523.13 Q1291.31 1523.13 1292.6 1523.48 Q1293.89 1523.81 1294.98 1524.87 Q1296.11 1525.9 1296.11 1527.48 Z" fill="#000000" fill-rule="evenodd" fill-opacity="1" /><path clip-path="url(#clip360)" d="M 0 0 M60.8835 732.781 Q61.3344 732.781 62.3972 733.071 L87.5821 739.384 Q93.186 740.768 97.1151 745.277 Q101.044 749.754 101.044 754.842 Q101.044 757.902 99.4017 759.866 Q97.7914 761.831 95.3115 761.831 Q93.1216 761.831 92.0588 760.672 Q91.0282 759.512 91.0282 758.127 Q91.0282 757.676 91.157 757.193 Q91.2858 756.71 91.8333 756.195 Q92.3808 755.68 93.3148 755.68 Q94.8285 755.68 96.0201 757 Q96.5676 757.644 96.6964 758.256 Q96.8252 758.836 96.8252 759.834 Q97.727 759.448 98.3389 758.739 Q98.9508 758.031 99.1763 757.226 Q99.4339 756.42 99.4983 755.905 Q99.5949 755.358 99.5949 754.842 Q99.5949 750.72 95.4404 747.564 Q94.1843 746.63 92.9283 745.953 Q91.7045 745.245 90.1908 744.73 Q88.7093 744.214 87.9042 743.989 Q87.0991 743.731 85.2633 743.28 Q88.2585 746.276 88.2585 749.947 Q88.2585 751.493 87.8398 752.878 Q87.4211 754.23 86.5516 755.422 Q85.6498 756.614 84.0717 757.322 Q82.4936 757.998 80.4002 757.998 Q78.178 757.998 75.1507 757.129 Q72.1233 756.259 66.5517 754.166 Q63.4277 753.039 61.9141 753.039 Q61.1733 753.039 60.7225 753.2 Q60.2394 753.361 60.0783 753.683 Q59.8851 754.005 59.8529 754.198 Q59.8207 754.359 59.8207 754.681 Q59.8207 756.581 61.753 758.353 Q63.6854 760.124 68.001 761.348 Q68.8061 761.606 68.9994 761.767 Q69.1926 761.928 69.1926 762.411 Q69.1604 763.216 68.5163 763.216 Q68.2586 763.216 67.2602 762.926 Q66.2297 762.636 64.716 761.96 Q63.1701 761.251 61.7852 760.285 Q60.3682 759.319 59.3698 757.805 Q58.3714 756.259 58.3714 754.488 Q58.3714 752.073 59.9495 750.591 Q61.4954 749.077 63.782 749.077 Q64.716 749.077 65.5533 749.335 Q66.3585 749.561 68.5163 750.398 Q77.2119 753.78 81.463 753.78 Q82.4936 753.78 83.3632 753.618 Q84.2005 753.425 85.0379 753.007 Q85.843 752.588 86.3261 751.751 Q86.777 750.881 86.777 749.689 Q86.777 748.176 86.0685 746.759 Q85.3277 745.309 84.3294 744.408 Q83.331 743.474 82.4936 742.926 Q81.6241 742.346 81.1732 742.218 L69.3214 739.255 L64.0397 737.934 Q61.1733 737.322 60.4648 737.032 Q59.7885 736.646 59.4342 735.97 Q59.08 735.293 59.08 734.714 Q59.08 733.909 59.563 733.361 Q60.0461 732.781 60.8835 732.781 Z" fill="#000000" fill-rule="evenodd" fill-opacity="1" /><polyline clip-path="url(#clip362)" style="stroke:#009af9; stroke-width:4; stroke-opacity:1; fill:none" points="
  271.753,1153.25 496.241,1345.34 720.729,1338.83 945.217,1268.99 1169.7,482.857 1394.19,379.636 1618.68,86.8647 1843.17,361.561 2067.66,1407.55 2292.14,667.329 
  
  "/>
<path clip-path="url(#clip360)" d="
M1989.74 251.724 L2280.76 251.724 L2280.76 130.764 L1989.74 130.764  Z
  " fill="#ffffff" fill-rule="evenodd" fill-opacity="1"/>
<polyline clip-path="url(#clip360)" style="stroke:#000000; stroke-width:4; stroke-opacity:1; fill:none" points="
  1989.74,251.724 2280.76,251.724 2280.76,130.764 1989.74,130.764 1989.74,251.724 
  "/>
<polyline clip-path="url(#clip360)" style="stroke:#009af9; stroke-width:4; stroke-opacity:1; fill:none" points="
  2013.74,191.244 2157.74,191.244 
  "/>
<path clip-path="url(#clip360)" d="M 0 0 M2195.58 210.931 Q2193.77 215.561 2192.06 216.973 Q2190.35 218.385 2187.48 218.385 L2184.08 218.385 L2184.08 214.82 L2186.58 214.82 Q2188.33 214.82 2189.31 213.987 Q2190.28 213.154 2191.46 210.052 L2192.22 208.107 L2181.74 182.598 L2186.25 182.598 L2194.35 202.876 L2202.46 182.598 L2206.97 182.598 L2195.58 210.931 Z" fill="#000000" fill-rule="evenodd" fill-opacity="1" /><path clip-path="url(#clip360)" d="M 0 0 M2212.85 204.589 L2220.49 204.589 L2220.49 178.223 L2212.18 179.89 L2212.18 175.631 L2220.44 173.964 L2225.12 173.964 L2225.12 204.589 L2232.76 204.589 L2232.76 208.524 L2212.85 208.524 L2212.85 204.589 Z" fill="#000000" fill-rule="evenodd" fill-opacity="1" /></svg>
