<?xml version="1.0" encoding="utf-8"?>
<svg xmlns="http://www.w3.org/2000/svg" xmlns:xlink="http://www.w3.org/1999/xlink" width="600" height="400" viewBox="0 0 2400 1600">
<defs>
  <clipPath id="clip350">
    <rect x="0" y="0" width="2400" height="1600"/>
  </clipPath>
</defs>
<path clip-path="url(#clip350)" d="
M0 1600 L2400 1600 L2400 0 L0 0  Z
  " fill="#ffffff" fill-rule="evenodd" fill-opacity="1"/>
<defs>
  <clipPath id="clip351">
    <rect x="480" y="0" width="1681" height="1600"/>
  </clipPath>
</defs>
<defs>
  <clipPath id="clip352">
    <rect x="148" y="47" width="2205" height="1440"/>
  </clipPath>
</defs>
<path clip-path="url(#clip350)" d="
M199.874 1445.63 L2352.76 1445.63 L2352.76 88.065 L199.874 88.065  Z
  " fill="#ffffff" fill-rule="evenodd" fill-opacity="1"/>
<defs>
  <clipPath id="clip353">
    <rect x="199" y="88" width="2154" height="1359"/>
  </clipPath>
</defs>
<polyline clip-path="url(#clip353)" style="stroke:#000000; stroke-width:2; stroke-opacity:0.1; fill:none" points="
  486.474,1445.63 486.474,88.065 
  "/>
<polyline clip-path="url(#clip353)" style="stroke:#000000; stroke-width:2; stroke-opacity:0.1; fill:none" points="
  937.812,1445.63 937.812,88.065 
  "/>
<polyline clip-path="url(#clip353)" style="stroke:#000000; stroke-width:2; stroke-opacity:0.1; fill:none" points="
  1389.15,1445.63 1389.15,88.065 
  "/>
<polyline clip-path="url(#clip353)" style="stroke:#000000; stroke-width:2; stroke-opacity:0.1; fill:none" points="
  1840.49,1445.63 1840.49,88.065 
  "/>
<polyline clip-path="url(#clip353)" style="stroke:#000000; stroke-width:2; stroke-opacity:0.1; fill:none" points="
  2291.83,1445.63 2291.83,88.065 
  "/>
<polyline clip-path="url(#clip353)" style="stroke:#000000; stroke-width:2; stroke-opacity:0.1; fill:none" points="
  199.874,1180.95 2352.76,1180.95 
  "/>
<polyline clip-path="url(#clip353)" style="stroke:#000000; stroke-width:2; stroke-opacity:0.1; fill:none" points="
  199.874,886.02 2352.76,886.02 
  "/>
<polyline clip-path="url(#clip353)" style="stroke:#000000; stroke-width:2; stroke-opacity:0.1; fill:none" points="
  199.874,591.091 2352.76,591.091 
  "/>
<polyline clip-path="url(#clip353)" style="stroke:#000000; stroke-width:2; stroke-opacity:0.1; fill:none" points="
  199.874,296.161 2352.76,296.161 
  "/>
<polyline clip-path="url(#clip350)" style="stroke:#000000; stroke-width:4; stroke-opacity:1; fill:none" points="
  199.874,1445.63 2352.76,1445.63 
  "/>
<polyline clip-path="url(#clip350)" style="stroke:#000000; stroke-width:4; stroke-opacity:1; fill:none" points="
  199.874,1445.63 199.874,88.065 
  "/>
<polyline clip-path="url(#clip350)" style="stroke:#000000; stroke-width:4; stroke-opacity:1; fill:none" points="
  486.474,1445.63 486.474,1429.34 
  "/>
<polyline clip-path="url(#clip350)" style="stroke:#000000; stroke-width:4; stroke-opacity:1; fill:none" points="
  937.812,1445.63 937.812,1429.34 
  "/>
<polyline clip-path="url(#clip350)" style="stroke:#000000; stroke-width:4; stroke-opacity:1; fill:none" points="
  1389.15,1445.63 1389.15,1429.34 
  "/>
<polyline clip-path="url(#clip350)" style="stroke:#000000; stroke-width:4; stroke-opacity:1; fill:none" points="
  1840.49,1445.63 1840.49,1429.34 
  "/>
<polyline clip-path="url(#clip350)" style="stroke:#000000; stroke-width:4; stroke-opacity:1; fill:none" points="
  2291.83,1445.63 2291.83,1429.34 
  "/>
<polyline clip-path="url(#clip350)" style="stroke:#000000; stroke-width:4; stroke-opacity:1; fill:none" points="
  199.874,1180.95 225.709,1180.95 
  "/>
<polyline clip-path="url(#clip350)" style="stroke:#000000; stroke-width:4; stroke-opacity:1; fill:none" points="
  199.874,886.02 225.709,886.02 
  "/>
<polyline clip-path="url(#clip350)" style="stroke:#000000; stroke-width:4; stroke-opacity:1; fill:none" points="
  199.874,591.091 225.709,591.091 
  "/>
<polyline clip-path="url(#clip350)" style="stroke:#000000; stroke-width:4; stroke-opacity:1; fill:none" points="
  199.874,296.161 225.709,296.161 
  "/>
<path clip-path="url(#clip350)" d="M 0 0 M481.126 1495.16 L497.446 1495.16 L497.446 1499.1 L475.501 1499.1 L475.501 1495.16 Q478.164 1492.41 482.747 1487.78 Q487.353 1483.13 488.534 1481.78 Q490.779 1479.26 491.659 1477.52 Q492.562 1475.77 492.562 1474.08 Q492.562 1471.32 490.617 1469.59 Q488.696 1467.85 485.594 1467.85 Q483.395 1467.85 480.941 1468.61 Q478.511 1469.38 475.733 1470.93 L475.733 1466.21 Q478.557 1465.07 481.011 1464.49 Q483.464 1463.91 485.501 1463.91 Q490.872 1463.91 494.066 1466.6 Q497.261 1469.28 497.261 1473.77 Q497.261 1475.9 496.45 1477.83 Q495.663 1479.72 493.557 1482.32 Q492.978 1482.99 489.876 1486.21 Q486.775 1489.4 481.126 1495.16 Z" fill="#000000" fill-rule="evenodd" fill-opacity="1" /><path clip-path="url(#clip350)" d="M 0 0 M940.821 1468.61 L929.015 1487.06 L940.821 1487.06 L940.821 1468.61 M939.594 1464.54 L945.474 1464.54 L945.474 1487.06 L950.404 1487.06 L950.404 1490.95 L945.474 1490.95 L945.474 1499.1 L940.821 1499.1 L940.821 1490.95 L925.219 1490.95 L925.219 1486.44 L939.594 1464.54 Z" fill="#000000" fill-rule="evenodd" fill-opacity="1" /><path clip-path="url(#clip350)" d="M 0 0 M1389.55 1479.96 Q1386.41 1479.96 1384.55 1482.11 Q1382.73 1484.26 1382.73 1488.01 Q1382.73 1491.74 1384.55 1493.91 Q1386.41 1496.07 1389.55 1496.07 Q1392.7 1496.07 1394.53 1493.91 Q1396.38 1491.74 1396.38 1488.01 Q1396.38 1484.26 1394.53 1482.11 Q1392.7 1479.96 1389.55 1479.96 M1398.84 1465.3 L1398.84 1469.56 Q1397.08 1468.73 1395.27 1468.29 Q1393.49 1467.85 1391.73 1467.85 Q1387.1 1467.85 1384.65 1470.97 Q1382.22 1474.1 1381.87 1480.42 Q1383.24 1478.4 1385.3 1477.34 Q1387.36 1476.25 1389.83 1476.25 Q1395.04 1476.25 1398.05 1479.42 Q1401.08 1482.57 1401.08 1488.01 Q1401.08 1493.34 1397.93 1496.55 Q1394.79 1499.77 1389.55 1499.77 Q1383.56 1499.77 1380.39 1495.19 Q1377.22 1490.58 1377.22 1481.85 Q1377.22 1473.66 1381.11 1468.8 Q1384.99 1463.91 1391.55 1463.91 Q1393.3 1463.91 1395.09 1464.26 Q1396.89 1464.61 1398.84 1465.3 Z" fill="#000000" fill-rule="evenodd" fill-opacity="1" /><path clip-path="url(#clip350)" d="M 0 0 M1840.49 1482.69 Q1837.15 1482.69 1835.23 1484.47 Q1833.33 1486.25 1833.33 1489.38 Q1833.33 1492.5 1835.23 1494.28 Q1837.15 1496.07 1840.49 1496.07 Q1843.82 1496.07 1845.74 1494.28 Q1847.66 1492.48 1847.66 1489.38 Q1847.66 1486.25 1845.74 1484.47 Q1843.84 1482.69 1840.49 1482.69 M1835.81 1480.7 Q1832.8 1479.96 1831.11 1477.9 Q1829.45 1475.84 1829.45 1472.87 Q1829.45 1468.73 1832.39 1466.32 Q1835.35 1463.91 1840.49 1463.91 Q1845.65 1463.91 1848.59 1466.32 Q1851.53 1468.73 1851.53 1472.87 Q1851.53 1475.84 1849.84 1477.9 Q1848.17 1479.96 1845.19 1480.7 Q1848.57 1481.48 1850.44 1483.77 Q1852.34 1486.07 1852.34 1489.38 Q1852.34 1494.4 1849.26 1497.09 Q1846.2 1499.77 1840.49 1499.77 Q1834.77 1499.77 1831.69 1497.09 Q1828.64 1494.4 1828.64 1489.38 Q1828.64 1486.07 1830.53 1483.77 Q1832.43 1481.48 1835.81 1480.7 M1834.1 1473.31 Q1834.1 1476 1835.77 1477.5 Q1837.45 1479.01 1840.49 1479.01 Q1843.5 1479.01 1845.19 1477.5 Q1846.9 1476 1846.9 1473.31 Q1846.9 1470.63 1845.19 1469.12 Q1843.5 1467.62 1840.49 1467.62 Q1837.45 1467.62 1835.77 1469.12 Q1834.1 1470.63 1834.1 1473.31 Z" fill="#000000" fill-rule="evenodd" fill-opacity="1" /><path clip-path="url(#clip350)" d="M 0 0 M2268.7 1495.16 L2276.34 1495.16 L2276.34 1468.8 L2268.03 1470.46 L2268.03 1466.21 L2276.29 1464.54 L2280.97 1464.54 L2280.97 1495.16 L2288.61 1495.16 L2288.61 1499.1 L2268.7 1499.1 L2268.7 1495.16 Z" fill="#000000" fill-rule="evenodd" fill-opacity="1" /><path clip-path="url(#clip350)" d="M 0 0 M2303.68 1467.62 Q2300.07 1467.62 2298.24 1471.18 Q2296.43 1474.72 2296.43 1481.85 Q2296.43 1488.96 2298.24 1492.52 Q2300.07 1496.07 2303.68 1496.07 Q2307.31 1496.07 2309.12 1492.52 Q2310.95 1488.96 2310.95 1481.85 Q2310.95 1474.72 2309.12 1471.18 Q2307.31 1467.62 2303.68 1467.62 M2303.68 1463.91 Q2309.49 1463.91 2312.54 1468.52 Q2315.62 1473.1 2315.62 1481.85 Q2315.62 1490.58 2312.54 1495.19 Q2309.49 1499.77 2303.68 1499.77 Q2297.87 1499.77 2294.79 1495.19 Q2291.73 1490.58 2291.73 1481.85 Q2291.73 1473.1 2294.79 1468.52 Q2297.87 1463.91 2303.68 1463.91 Z" fill="#000000" fill-rule="evenodd" fill-opacity="1" /><path clip-path="url(#clip350)" d="M 0 0 M128.56 1166.75 Q124.948 1166.75 123.12 1170.31 Q121.314 1173.86 121.314 1180.98 Q121.314 1188.09 123.12 1191.66 Q124.948 1195.2 128.56 1195.2 Q132.194 1195.2 133.999 1191.66 Q135.828 1188.09 135.828 1180.98 Q135.828 1173.86 133.999 1170.31 Q132.194 1166.75 128.56 1166.75 M128.56 1163.05 Q134.37 1163.05 137.425 1167.65 Q140.504 1172.23 140.504 1180.98 Q140.504 1189.71 137.425 1194.32 Q134.37 1198.9 128.56 1198.9 Q122.749 1198.9 119.671 1194.32 Q116.615 1189.71 116.615 1180.98 Q116.615 1172.23 119.671 1167.65 Q122.749 1163.05 128.56 1163.05 Z" fill="#000000" fill-rule="evenodd" fill-opacity="1" /><path clip-path="url(#clip350)" d="M 0 0 M145.573 1192.35 L150.458 1192.35 L150.458 1198.23 L145.573 1198.23 L145.573 1192.35 Z" fill="#000000" fill-rule="evenodd" fill-opacity="1" /><path clip-path="url(#clip350)" d="M 0 0 M159.555 1194.29 L175.874 1194.29 L175.874 1198.23 L153.93 1198.23 L153.93 1194.29 Q156.592 1191.54 161.175 1186.91 Q165.782 1182.26 166.962 1180.92 Q169.207 1178.39 170.087 1176.66 Q170.99 1174.9 170.99 1173.21 Q170.99 1170.45 169.045 1168.72 Q167.124 1166.98 164.022 1166.98 Q161.823 1166.98 159.37 1167.74 Q156.939 1168.51 154.161 1170.06 L154.161 1165.34 Q156.985 1164.2 159.439 1163.62 Q161.893 1163.05 163.93 1163.05 Q169.3 1163.05 172.494 1165.73 Q175.689 1168.42 175.689 1172.91 Q175.689 1175.04 174.879 1176.96 Q174.092 1178.86 171.985 1181.45 Q171.407 1182.12 168.305 1185.34 Q165.203 1188.53 159.555 1194.29 Z" fill="#000000" fill-rule="evenodd" fill-opacity="1" /><path clip-path="url(#clip350)" d="M 0 0 M126.476 871.819 Q122.865 871.819 121.036 875.384 Q119.231 878.926 119.231 886.055 Q119.231 893.162 121.036 896.726 Q122.865 900.268 126.476 900.268 Q130.11 900.268 131.916 896.726 Q133.745 893.162 133.745 886.055 Q133.745 878.926 131.916 875.384 Q130.11 871.819 126.476 871.819 M126.476 868.115 Q132.286 868.115 135.342 872.722 Q138.421 877.305 138.421 886.055 Q138.421 894.782 135.342 899.388 Q132.286 903.972 126.476 903.972 Q120.666 903.972 117.587 899.388 Q114.532 894.782 114.532 886.055 Q114.532 877.305 117.587 872.722 Q120.666 868.115 126.476 868.115 Z" fill="#000000" fill-rule="evenodd" fill-opacity="1" /><path clip-path="url(#clip350)" d="M 0 0 M143.49 897.421 L148.374 897.421 L148.374 903.3 L143.49 903.3 L143.49 897.421 Z" fill="#000000" fill-rule="evenodd" fill-opacity="1" /><path clip-path="url(#clip350)" d="M 0 0 M166.291 872.815 L154.485 891.264 L166.291 891.264 L166.291 872.815 M165.064 868.74 L170.944 868.74 L170.944 891.264 L175.874 891.264 L175.874 895.152 L170.944 895.152 L170.944 903.3 L166.291 903.3 L166.291 895.152 L150.689 895.152 L150.689 890.639 L165.064 868.74 Z" fill="#000000" fill-rule="evenodd" fill-opacity="1" /><path clip-path="url(#clip350)" d="M 0 0 M126.8 576.89 Q123.189 576.89 121.36 580.454 Q119.555 583.996 119.555 591.126 Q119.555 598.232 121.36 601.797 Q123.189 605.339 126.8 605.339 Q130.435 605.339 132.24 601.797 Q134.069 598.232 134.069 591.126 Q134.069 583.996 132.24 580.454 Q130.435 576.89 126.8 576.89 M126.8 573.186 Q132.61 573.186 135.666 577.792 Q138.745 582.376 138.745 591.126 Q138.745 599.852 135.666 604.459 Q132.61 609.042 126.8 609.042 Q120.99 609.042 117.911 604.459 Q114.856 599.852 114.856 591.126 Q114.856 582.376 117.911 577.792 Q120.99 573.186 126.8 573.186 Z" fill="#000000" fill-rule="evenodd" fill-opacity="1" /><path clip-path="url(#clip350)" d="M 0 0 M143.814 602.491 L148.698 602.491 L148.698 608.371 L143.814 608.371 L143.814 602.491 Z" fill="#000000" fill-rule="evenodd" fill-opacity="1" /><path clip-path="url(#clip350)" d="M 0 0 M164.346 589.228 Q161.198 589.228 159.346 591.38 Q157.518 593.533 157.518 597.283 Q157.518 601.01 159.346 603.186 Q161.198 605.339 164.346 605.339 Q167.495 605.339 169.323 603.186 Q171.175 601.01 171.175 597.283 Q171.175 593.533 169.323 591.38 Q167.495 589.228 164.346 589.228 M173.629 574.575 L173.629 578.834 Q171.869 578.001 170.064 577.561 Q168.282 577.121 166.522 577.121 Q161.893 577.121 159.439 580.246 Q157.008 583.371 156.661 589.69 Q158.027 587.677 160.087 586.612 Q162.147 585.524 164.624 585.524 Q169.832 585.524 172.842 588.695 Q175.874 591.843 175.874 597.283 Q175.874 602.607 172.726 605.825 Q169.578 609.042 164.346 609.042 Q158.351 609.042 155.18 604.459 Q152.008 599.852 152.008 591.126 Q152.008 582.931 155.897 578.07 Q159.786 573.186 166.337 573.186 Q168.096 573.186 169.879 573.533 Q171.684 573.88 173.629 574.575 Z" fill="#000000" fill-rule="evenodd" fill-opacity="1" /><path clip-path="url(#clip350)" d="M 0 0 M127.055 281.96 Q123.444 281.96 121.615 285.525 Q119.81 289.067 119.81 296.196 Q119.81 303.303 121.615 306.867 Q123.444 310.409 127.055 310.409 Q130.689 310.409 132.495 306.867 Q134.323 303.303 134.323 296.196 Q134.323 289.067 132.495 285.525 Q130.689 281.96 127.055 281.96 M127.055 278.256 Q132.865 278.256 135.921 282.863 Q138.999 287.446 138.999 296.196 Q138.999 304.923 135.921 309.529 Q132.865 314.113 127.055 314.113 Q121.245 314.113 118.166 309.529 Q115.111 304.923 115.111 296.196 Q115.111 287.446 118.166 282.863 Q121.245 278.256 127.055 278.256 Z" fill="#000000" fill-rule="evenodd" fill-opacity="1" /><path clip-path="url(#clip350)" d="M 0 0 M144.069 307.562 L148.953 307.562 L148.953 313.441 L144.069 313.441 L144.069 307.562 Z" fill="#000000" fill-rule="evenodd" fill-opacity="1" /><path clip-path="url(#clip350)" d="M 0 0 M164.022 297.029 Q160.689 297.029 158.768 298.812 Q156.87 300.594 156.87 303.719 Q156.87 306.844 158.768 308.627 Q160.689 310.409 164.022 310.409 Q167.356 310.409 169.277 308.627 Q171.198 306.821 171.198 303.719 Q171.198 300.594 169.277 298.812 Q167.379 297.029 164.022 297.029 M159.346 295.039 Q156.337 294.298 154.647 292.238 Q152.981 290.178 152.981 287.215 Q152.981 283.071 155.92 280.664 Q158.883 278.256 164.022 278.256 Q169.184 278.256 172.124 280.664 Q175.064 283.071 175.064 287.215 Q175.064 290.178 173.374 292.238 Q171.707 294.298 168.721 295.039 Q172.101 295.826 173.976 298.117 Q175.874 300.409 175.874 303.719 Q175.874 308.742 172.795 311.428 Q169.74 314.113 164.022 314.113 Q158.305 314.113 155.226 311.428 Q152.171 308.742 152.171 303.719 Q152.171 300.409 154.069 298.117 Q155.967 295.826 159.346 295.039 M157.633 287.655 Q157.633 290.34 159.3 291.844 Q160.99 293.349 164.022 293.349 Q167.032 293.349 168.721 291.844 Q170.434 290.34 170.434 287.655 Q170.434 284.969 168.721 283.465 Q167.032 281.96 164.022 281.96 Q160.99 281.96 159.3 283.465 Q157.633 284.969 157.633 287.655 Z" fill="#000000" fill-rule="evenodd" fill-opacity="1" /><path clip-path="url(#clip350)" d="M 0 0 M1296.83 4.53628 Q1296.74 4.94617 1296.58 5.68398 Q1296.42 6.3808 1295.68 8.59422 Q1294.94 10.8076 1293.96 13.0621 Q1293.01 15.2755 1291.17 18.3907 Q1289.37 21.4649 1287.15 24.2521 Q1286.54 24.9899 1286.42 25.4408 Q1286.33 25.8507 1286.33 27.2034 Q1286.33 35.7291 1288.92 35.7291 Q1289.04 35.7291 1289.24 35.7291 Q1289.49 35.6881 1290.1 35.4832 Q1290.76 35.2373 1291.33 34.8683 Q1291.91 34.4585 1292.56 33.6387 Q1293.22 32.7779 1293.63 31.6302 Q1294 30.8104 1294.74 30.8104 Q1295.72 30.8104 1295.72 31.6302 Q1295.72 33.1058 1293.67 35.3602 Q1291.62 37.6146 1288.67 37.6146 Q1285.84 37.6146 1283.83 35.7701 Q1281.87 33.8846 1281.05 30.5235 Q1272.19 37.6146 1263.34 37.6146 Q1257.11 37.6146 1253.42 33.5567 Q1249.73 29.4578 1249.73 23.3913 Q1249.73 17.5709 1252.93 12.0373 Q1256.16 6.50377 1261.41 3.06067 Q1266.7 -0.423422 1272.31 -0.423422 Q1274.28 -0.423422 1276.17 0.109439 Q1278.05 0.60131 1279.94 1.87198 Q1281.82 3.14265 1283.22 5.06914 Q1284.61 6.99564 1285.47 10.0288 Q1286.33 13.0621 1286.33 16.8741 L1286.33 22.0797 Q1291.74 15.2345 1294.57 5.43805 Q1294.98 3.96243 1295.23 3.79847 Q1295.39 3.67551 1295.8 3.67551 Q1296.21 3.67551 1296.46 3.92144 Q1296.74 4.12639 1296.79 4.33133 L1296.83 4.53628 M1280.72 28.3511 Q1280.55 26.9164 1280.55 18.9645 Q1280.55 17.4479 1280.55 16.6281 Q1280.55 15.7673 1280.47 14.1278 Q1280.39 12.4882 1280.23 11.4635 Q1280.1 10.4387 1279.82 8.96312 Q1279.53 7.48751 1279.12 6.54476 Q1278.71 5.602 1278.05 4.53628 Q1277.44 3.47056 1276.62 2.85572 Q1275.84 2.24088 1274.69 1.83099 Q1273.59 1.4211 1272.23 1.4211 Q1270.55 1.4211 1268.79 2.03594 Q1267.07 2.60978 1264.85 4.4543 Q1262.64 6.25783 1260.8 9.12708 Q1258.87 12.1603 1257.39 17.7348 Q1255.96 23.2684 1255.96 26.5885 Q1255.96 30.7694 1257.89 33.2698 Q1259.81 35.7291 1263.5 35.7291 Q1272.31 35.7291 1280.72 28.3511 Z" fill="#000000" fill-rule="evenodd" fill-opacity="1" /><path clip-path="url(#clip350)" d="M 0 0 M1290.48 1525.39 Q1290.48 1527.19 1289.35 1528.22 Q1288.22 1529.22 1286.93 1529.22 Q1285.71 1529.22 1285.06 1528.51 Q1284.42 1527.8 1284.42 1526.9 Q1284.42 1525.68 1285.32 1524.61 Q1286.22 1523.55 1287.58 1523.33 Q1286.26 1522.49 1284.29 1522.49 Q1283 1522.49 1281.88 1523.16 Q1280.78 1523.84 1280.1 1524.71 Q1279.46 1525.58 1278.88 1526.84 Q1278.33 1528.06 1278.11 1528.8 Q1277.91 1529.51 1277.75 1530.28 L1275.5 1539.3 Q1274.4 1543.58 1274.4 1545.1 Q1274.4 1546.97 1275.31 1548.22 Q1276.21 1549.44 1278.01 1549.44 Q1278.72 1549.44 1279.53 1549.25 Q1280.33 1549.03 1281.36 1548.45 Q1282.42 1547.83 1283.36 1546.93 Q1284.32 1546 1285.26 1544.42 Q1286.19 1542.84 1286.8 1540.81 Q1287 1540.11 1287.64 1540.11 Q1288.45 1540.11 1288.45 1540.75 Q1288.45 1541.3 1288 1542.46 Q1287.58 1543.58 1286.64 1545.06 Q1285.74 1546.51 1284.55 1547.83 Q1283.36 1549.12 1281.59 1550.02 Q1279.81 1550.93 1277.88 1550.93 Q1275.11 1550.93 1273.28 1549.44 Q1271.44 1547.96 1270.77 1545.9 Q1270.6 1546.19 1270.38 1546.58 Q1270.15 1546.97 1269.48 1547.83 Q1268.83 1548.67 1268.09 1549.32 Q1267.35 1549.93 1266.19 1550.41 Q1265.06 1550.93 1263.84 1550.93 Q1262.29 1550.93 1260.91 1550.48 Q1259.56 1550.02 1258.59 1548.99 Q1257.63 1547.96 1257.63 1546.55 Q1257.63 1544.97 1258.69 1543.87 Q1259.78 1542.75 1261.26 1542.75 Q1262.2 1542.75 1262.94 1543.29 Q1263.71 1543.84 1263.71 1545.03 Q1263.71 1546.35 1262.81 1547.35 Q1261.91 1548.35 1260.62 1548.61 Q1261.94 1549.44 1263.91 1549.44 Q1266.03 1549.44 1267.71 1547.58 Q1269.38 1545.71 1270.19 1542.59 Q1272.18 1535.08 1272.96 1531.73 Q1273.73 1528.35 1273.73 1526.9 Q1273.73 1525.55 1273.37 1524.61 Q1273.02 1523.68 1272.41 1523.26 Q1271.83 1522.81 1271.28 1522.65 Q1270.77 1522.49 1270.19 1522.49 Q1269.22 1522.49 1268.12 1522.88 Q1267.06 1523.26 1265.77 1524.16 Q1264.52 1525.03 1263.33 1526.84 Q1262.13 1528.64 1261.33 1531.12 Q1261.17 1531.86 1260.46 1531.86 Q1259.69 1531.83 1259.69 1531.18 Q1259.69 1530.64 1260.1 1529.51 Q1260.56 1528.35 1261.46 1526.9 Q1262.39 1525.45 1263.58 1524.16 Q1264.81 1522.84 1266.58 1521.94 Q1268.38 1521.04 1270.31 1521.04 Q1271.18 1521.04 1272.02 1521.23 Q1272.89 1521.39 1273.92 1521.88 Q1274.98 1522.36 1275.92 1523.42 Q1276.85 1524.49 1277.43 1526.03 Q1277.82 1525.29 1278.33 1524.58 Q1278.88 1523.87 1279.72 1523 Q1280.59 1522.1 1281.78 1521.59 Q1283 1521.04 1284.36 1521.04 Q1285.68 1521.04 1286.96 1521.39 Q1288.25 1521.72 1289.35 1522.78 Q1290.48 1523.81 1290.48 1525.39 Z" fill="#000000" fill-rule="evenodd" fill-opacity="1" /><path clip-path="url(#clip350)" d="M 0 0 M50.5695 752.42 Q51.0203 752.42 52.0831 752.71 L77.2681 759.022 Q82.8719 760.407 86.801 764.916 Q90.7302 769.393 90.7302 774.481 Q90.7302 777.541 89.0877 779.505 Q87.4774 781.47 84.9975 781.47 Q82.8075 781.47 81.7447 780.31 Q80.7141 779.151 80.7141 777.766 Q80.7141 777.315 80.843 776.832 Q80.9718 776.349 81.5193 775.834 Q82.0668 775.318 83.0008 775.318 Q84.5144 775.318 85.706 776.639 Q86.2535 777.283 86.3824 777.895 Q86.5112 778.475 86.5112 779.473 Q87.413 779.086 88.0249 778.378 Q88.6368 777.669 88.8622 776.864 Q89.1199 776.059 89.1843 775.544 Q89.2809 774.996 89.2809 774.481 Q89.2809 770.359 85.1263 767.203 Q83.8703 766.269 82.6143 765.592 Q81.3905 764.884 79.8768 764.368 Q78.3953 763.853 77.5902 763.628 Q76.785 763.37 74.9493 762.919 Q77.9444 765.914 77.9444 769.586 Q77.9444 771.132 77.5258 772.516 Q77.1071 773.869 76.2375 775.061 Q75.3358 776.252 73.7577 776.961 Q72.1796 777.637 70.0862 777.637 Q67.864 777.637 64.8366 776.768 Q61.8093 775.898 56.2377 773.805 Q53.1137 772.678 51.6 772.678 Q50.8593 772.678 50.4084 772.839 Q49.9253 773 49.7643 773.322 Q49.5711 773.644 49.5389 773.837 Q49.5067 773.998 49.5067 774.32 Q49.5067 776.22 51.439 777.991 Q53.3714 779.763 57.6869 780.987 Q58.4921 781.244 58.6853 781.405 Q58.8786 781.566 58.8786 782.049 Q58.8464 782.855 58.2022 782.855 Q57.9446 782.855 56.9462 782.565 Q55.9156 782.275 54.4019 781.599 Q52.8561 780.89 51.4712 779.924 Q50.0542 778.958 49.0558 777.444 Q48.0574 775.898 48.0574 774.127 Q48.0574 771.711 49.6355 770.23 Q51.1814 768.716 53.468 768.716 Q54.4019 768.716 55.2393 768.974 Q56.0444 769.199 58.2022 770.037 Q66.8978 773.418 71.149 773.418 Q72.1796 773.418 73.0491 773.257 Q73.8865 773.064 74.7238 772.645 Q75.529 772.227 76.0121 771.389 Q76.463 770.52 76.463 769.328 Q76.463 767.814 75.7544 766.397 Q75.0137 764.948 74.0153 764.046 Q73.0169 763.112 72.1796 762.565 Q71.31 761.985 70.8591 761.856 L59.0074 758.893 L53.7256 757.573 Q50.8593 756.961 50.1508 756.671 Q49.4745 756.285 49.1202 755.608 Q48.7659 754.932 48.7659 754.352 Q48.7659 753.547 49.249 753 Q49.7321 752.42 50.5695 752.42 Z" fill="#000000" fill-rule="evenodd" fill-opacity="1" /><polyline clip-path="url(#clip353)" style="stroke:#009af9; stroke-width:4; stroke-opacity:1; fill:none" points="
  260.805,760.933 486.474,168.974 712.143,1395.2 937.812,1407.21 1163.48,981.376 1389.15,1260.32 1614.82,737.355 1840.49,126.487 2066.16,1267.31 2291.83,774.567 
  
  "/>
<path clip-path="url(#clip350)" d="
M2061.74 193.797 L2352.76 193.797 L2352.76 72.8371 L2061.74 72.8371  Z
  " fill="#ffffff" fill-rule="evenodd" fill-opacity="1"/>
<polyline clip-path="url(#clip350)" style="stroke:#000000; stroke-width:4; stroke-opacity:1; fill:none" points="
  2061.74,193.797 2352.76,193.797 2352.76,72.8371 2061.74,72.8371 2061.74,193.797 
  "/>
<polyline clip-path="url(#clip350)" style="stroke:#009af9; stroke-width:4; stroke-opacity:1; fill:none" points="
  2085.74,133.317 2229.74,133.317 
  "/>
<path clip-path="url(#clip350)" d="M 0 0 M2267.58 153.004 Q2265.77 157.634 2264.06 159.046 Q2262.35 160.458 2259.48 160.458 L2256.08 160.458 L2256.08 156.893 L2258.58 156.893 Q2260.33 156.893 2261.31 156.06 Q2262.28 155.227 2263.46 152.125 L2264.22 150.18 L2253.74 124.671 L2258.25 124.671 L2266.35 144.949 L2274.46 124.671 L2278.97 124.671 L2267.58 153.004 Z" fill="#000000" fill-rule="evenodd" fill-opacity="1" /><path clip-path="url(#clip350)" d="M 0 0 M2284.85 146.662 L2292.49 146.662 L2292.49 120.296 L2284.18 121.963 L2284.18 117.704 L2292.44 116.037 L2297.12 116.037 L2297.12 146.662 L2304.76 146.662 L2304.76 150.597 L2284.85 150.597 L2284.85 146.662 Z" fill="#000000" fill-rule="evenodd" fill-opacity="1" /></svg>
