<?xml version="1.0" encoding="utf-8"?>
<svg xmlns="http://www.w3.org/2000/svg" xmlns:xlink="http://www.w3.org/1999/xlink" width="600" height="400" viewBox="0 0 2400 1600">
<defs>
  <clipPath id="clip9400">
    <rect x="0" y="0" width="2400" height="1600"/>
  </clipPath>
</defs>
<path clip-path="url(#clip9400)" d="
M0 1600 L2400 1600 L2400 0 L0 0  Z
  " fill="#ffffff" fill-rule="evenodd" fill-opacity="1"/>
<defs>
  <clipPath id="clip9401">
    <rect x="480" y="0" width="1681" height="1600"/>
  </clipPath>
</defs>
<path clip-path="url(#clip9400)" d="
M226.347 1406.36 L2352.76 1406.36 L2352.76 47.2441 L226.347 47.2441  Z
  " fill="#ffffff" fill-rule="evenodd" fill-opacity="1"/>
<defs>
  <clipPath id="clip9402">
    <rect x="226" y="47" width="2127" height="1360"/>
  </clipPath>
</defs>
<polyline clip-path="url(#clip9402)" style="stroke:#000000; stroke-width:2; stroke-opacity:0.1; fill:none" points="
  509.422,1406.36 509.422,47.2441 
  "/>
<polyline clip-path="url(#clip9402)" style="stroke:#000000; stroke-width:2; stroke-opacity:0.1; fill:none" points="
  955.21,1406.36 955.21,47.2441 
  "/>
<polyline clip-path="url(#clip9402)" style="stroke:#000000; stroke-width:2; stroke-opacity:0.1; fill:none" points="
  1401,1406.36 1401,47.2441 
  "/>
<polyline clip-path="url(#clip9402)" style="stroke:#000000; stroke-width:2; stroke-opacity:0.1; fill:none" points="
  1846.79,1406.36 1846.79,47.2441 
  "/>
<polyline clip-path="url(#clip9402)" style="stroke:#000000; stroke-width:2; stroke-opacity:0.1; fill:none" points="
  2292.57,1406.36 2292.57,47.2441 
  "/>
<polyline clip-path="url(#clip9402)" style="stroke:#000000; stroke-width:2; stroke-opacity:0.1; fill:none" points="
  226.347,1162.11 2352.76,1162.11 
  "/>
<polyline clip-path="url(#clip9402)" style="stroke:#000000; stroke-width:2; stroke-opacity:0.1; fill:none" points="
  226.347,876.434 2352.76,876.434 
  "/>
<polyline clip-path="url(#clip9402)" style="stroke:#000000; stroke-width:2; stroke-opacity:0.1; fill:none" points="
  226.347,590.757 2352.76,590.757 
  "/>
<polyline clip-path="url(#clip9402)" style="stroke:#000000; stroke-width:2; stroke-opacity:0.1; fill:none" points="
  226.347,305.081 2352.76,305.081 
  "/>
<polyline clip-path="url(#clip9400)" style="stroke:#000000; stroke-width:4; stroke-opacity:1; fill:none" points="
  226.347,1406.36 2352.76,1406.36 
  "/>
<polyline clip-path="url(#clip9400)" style="stroke:#000000; stroke-width:4; stroke-opacity:1; fill:none" points="
  226.347,1406.36 226.347,47.2441 
  "/>
<polyline clip-path="url(#clip9400)" style="stroke:#000000; stroke-width:4; stroke-opacity:1; fill:none" points="
  509.422,1406.36 509.422,1390.05 
  "/>
<polyline clip-path="url(#clip9400)" style="stroke:#000000; stroke-width:4; stroke-opacity:1; fill:none" points="
  955.21,1406.36 955.21,1390.05 
  "/>
<polyline clip-path="url(#clip9400)" style="stroke:#000000; stroke-width:4; stroke-opacity:1; fill:none" points="
  1401,1406.36 1401,1390.05 
  "/>
<polyline clip-path="url(#clip9400)" style="stroke:#000000; stroke-width:4; stroke-opacity:1; fill:none" points="
  1846.79,1406.36 1846.79,1390.05 
  "/>
<polyline clip-path="url(#clip9400)" style="stroke:#000000; stroke-width:4; stroke-opacity:1; fill:none" points="
  2292.57,1406.36 2292.57,1390.05 
  "/>
<polyline clip-path="url(#clip9400)" style="stroke:#000000; stroke-width:4; stroke-opacity:1; fill:none" points="
  226.347,1162.11 251.863,1162.11 
  "/>
<polyline clip-path="url(#clip9400)" style="stroke:#000000; stroke-width:4; stroke-opacity:1; fill:none" points="
  226.347,876.434 251.863,876.434 
  "/>
<polyline clip-path="url(#clip9400)" style="stroke:#000000; stroke-width:4; stroke-opacity:1; fill:none" points="
  226.347,590.757 251.863,590.757 
  "/>
<polyline clip-path="url(#clip9400)" style="stroke:#000000; stroke-width:4; stroke-opacity:1; fill:none" points="
  226.347,305.081 251.863,305.081 
  "/>
<path clip-path="url(#clip9400)" d="M 0 0 M504.075 1455.9 L520.394 1455.9 L520.394 1459.83 L498.45 1459.83 L498.45 1455.9 Q501.112 1453.14 505.695 1448.51 Q510.302 1443.86 511.482 1442.52 Q513.728 1440 514.607 1438.26 Q515.51 1436.5 515.51 1434.81 Q515.51 1432.06 513.566 1430.32 Q511.644 1428.58 508.542 1428.58 Q506.343 1428.58 503.89 1429.35 Q501.459 1430.11 498.681 1431.66 L498.681 1426.94 Q501.505 1425.81 503.959 1425.23 Q506.413 1424.65 508.45 1424.65 Q513.82 1424.65 517.015 1427.33 Q520.209 1430.02 520.209 1434.51 Q520.209 1436.64 519.399 1438.56 Q518.612 1440.46 516.505 1443.05 Q515.927 1443.72 512.825 1446.94 Q509.723 1450.13 504.075 1455.9 Z" fill="#000000" fill-rule="evenodd" fill-opacity="1" /><path clip-path="url(#clip9400)" d="M 0 0 M958.219 1429.35 L946.414 1447.8 L958.219 1447.8 L958.219 1429.35 M956.993 1425.27 L962.872 1425.27 L962.872 1447.8 L967.803 1447.8 L967.803 1451.68 L962.872 1451.68 L962.872 1459.83 L958.219 1459.83 L958.219 1451.68 L942.618 1451.68 L942.618 1447.17 L956.993 1425.27 Z" fill="#000000" fill-rule="evenodd" fill-opacity="1" /><path clip-path="url(#clip9400)" d="M 0 0 M1401.4 1440.69 Q1398.26 1440.69 1396.4 1442.84 Q1394.57 1445 1394.57 1448.75 Q1394.57 1452.47 1396.4 1454.65 Q1398.26 1456.8 1401.4 1456.8 Q1404.55 1456.8 1406.38 1454.65 Q1408.23 1452.47 1408.23 1448.75 Q1408.23 1445 1406.38 1442.84 Q1404.55 1440.69 1401.4 1440.69 M1410.69 1426.04 L1410.69 1430.3 Q1408.93 1429.46 1407.12 1429.02 Q1405.34 1428.58 1403.58 1428.58 Q1398.95 1428.58 1396.5 1431.71 Q1394.07 1434.83 1393.72 1441.15 Q1395.08 1439.14 1397.14 1438.07 Q1399.2 1436.99 1401.68 1436.99 Q1406.89 1436.99 1409.9 1440.16 Q1412.93 1443.31 1412.93 1448.75 Q1412.93 1454.07 1409.78 1457.29 Q1406.63 1460.5 1401.4 1460.5 Q1395.41 1460.5 1392.24 1455.92 Q1389.07 1451.31 1389.07 1442.59 Q1389.07 1434.39 1392.95 1429.53 Q1396.84 1424.65 1403.39 1424.65 Q1405.15 1424.65 1406.94 1425 Q1408.74 1425.34 1410.69 1426.04 Z" fill="#000000" fill-rule="evenodd" fill-opacity="1" /><path clip-path="url(#clip9400)" d="M 0 0 M1846.79 1443.42 Q1843.45 1443.42 1841.53 1445.2 Q1839.63 1446.99 1839.63 1450.11 Q1839.63 1453.24 1841.53 1455.02 Q1843.45 1456.8 1846.79 1456.8 Q1850.12 1456.8 1852.04 1455.02 Q1853.96 1453.21 1853.96 1450.11 Q1853.96 1446.99 1852.04 1445.2 Q1850.14 1443.42 1846.79 1443.42 M1842.11 1441.43 Q1839.1 1440.69 1837.41 1438.63 Q1835.74 1436.57 1835.74 1433.61 Q1835.74 1429.46 1838.68 1427.06 Q1841.65 1424.65 1846.79 1424.65 Q1851.95 1424.65 1854.89 1427.06 Q1857.83 1429.46 1857.83 1433.61 Q1857.83 1436.57 1856.14 1438.63 Q1854.47 1440.69 1851.49 1441.43 Q1854.87 1442.22 1856.74 1444.51 Q1858.64 1446.8 1858.64 1450.11 Q1858.64 1455.13 1855.56 1457.82 Q1852.5 1460.5 1846.79 1460.5 Q1841.07 1460.5 1837.99 1457.82 Q1834.93 1455.13 1834.93 1450.11 Q1834.93 1446.8 1836.83 1444.51 Q1838.73 1442.22 1842.11 1441.43 M1840.4 1434.05 Q1840.4 1436.73 1842.06 1438.24 Q1843.75 1439.74 1846.79 1439.74 Q1849.8 1439.74 1851.49 1438.24 Q1853.2 1436.73 1853.2 1434.05 Q1853.2 1431.36 1851.49 1429.86 Q1849.8 1428.35 1846.79 1428.35 Q1843.75 1428.35 1842.06 1429.86 Q1840.4 1431.36 1840.4 1434.05 Z" fill="#000000" fill-rule="evenodd" fill-opacity="1" /><path clip-path="url(#clip9400)" d="M 0 0 M2269.45 1455.9 L2277.09 1455.9 L2277.09 1429.53 L2268.78 1431.2 L2268.78 1426.94 L2277.04 1425.27 L2281.72 1425.27 L2281.72 1455.9 L2289.36 1455.9 L2289.36 1459.83 L2269.45 1459.83 L2269.45 1455.9 Z" fill="#000000" fill-rule="evenodd" fill-opacity="1" /><path clip-path="url(#clip9400)" d="M 0 0 M2304.43 1428.35 Q2300.82 1428.35 2298.99 1431.92 Q2297.18 1435.46 2297.18 1442.59 Q2297.18 1449.69 2298.99 1453.26 Q2300.82 1456.8 2304.43 1456.8 Q2308.06 1456.8 2309.87 1453.26 Q2311.69 1449.69 2311.69 1442.59 Q2311.69 1435.46 2309.87 1431.92 Q2308.06 1428.35 2304.43 1428.35 M2304.43 1424.65 Q2310.24 1424.65 2313.29 1429.25 Q2316.37 1433.84 2316.37 1442.59 Q2316.37 1451.31 2313.29 1455.92 Q2310.24 1460.5 2304.43 1460.5 Q2298.62 1460.5 2295.54 1455.92 Q2292.48 1451.31 2292.48 1442.59 Q2292.48 1433.84 2295.54 1429.25 Q2298.62 1424.65 2304.43 1424.65 Z" fill="#000000" fill-rule="evenodd" fill-opacity="1" /><path clip-path="url(#clip9400)" d="M 0 0 M153.273 1147.91 Q149.662 1147.91 147.833 1151.47 Q146.027 1155.02 146.027 1162.15 Q146.027 1169.25 147.833 1172.82 Q149.662 1176.36 153.273 1176.36 Q156.907 1176.36 158.713 1172.82 Q160.541 1169.25 160.541 1162.15 Q160.541 1155.02 158.713 1151.47 Q156.907 1147.91 153.273 1147.91 M153.273 1144.21 Q159.083 1144.21 162.138 1148.81 Q165.217 1153.4 165.217 1162.15 Q165.217 1170.87 162.138 1175.48 Q159.083 1180.06 153.273 1180.06 Q147.463 1180.06 144.384 1175.48 Q141.328 1170.87 141.328 1162.15 Q141.328 1153.4 144.384 1148.81 Q147.463 1144.21 153.273 1144.21 Z" fill="#000000" fill-rule="evenodd" fill-opacity="1" /><path clip-path="url(#clip9400)" d="M 0 0 M170.287 1173.51 L175.171 1173.51 L175.171 1179.39 L170.287 1179.39 L170.287 1173.51 Z" fill="#000000" fill-rule="evenodd" fill-opacity="1" /><path clip-path="url(#clip9400)" d="M 0 0 M190.819 1160.25 Q187.671 1160.25 185.819 1162.4 Q183.99 1164.55 183.99 1168.3 Q183.99 1172.03 185.819 1174.21 Q187.671 1176.36 190.819 1176.36 Q193.967 1176.36 195.796 1174.21 Q197.648 1172.03 197.648 1168.3 Q197.648 1164.55 195.796 1162.4 Q193.967 1160.25 190.819 1160.25 M200.101 1145.59 L200.101 1149.85 Q198.342 1149.02 196.536 1148.58 Q194.754 1148.14 192.995 1148.14 Q188.365 1148.14 185.911 1151.27 Q183.481 1154.39 183.134 1160.71 Q184.499 1158.7 186.56 1157.63 Q188.62 1156.54 191.097 1156.54 Q196.305 1156.54 199.314 1159.71 Q202.347 1162.86 202.347 1168.3 Q202.347 1173.63 199.198 1176.84 Q196.05 1180.06 190.819 1180.06 Q184.824 1180.06 181.652 1175.48 Q178.481 1170.87 178.481 1162.15 Q178.481 1153.95 182.37 1149.09 Q186.259 1144.21 192.81 1144.21 Q194.569 1144.21 196.351 1144.55 Q198.157 1144.9 200.101 1145.59 Z" fill="#000000" fill-rule="evenodd" fill-opacity="1" /><path clip-path="url(#clip9400)" d="M 0 0 M154.338 862.233 Q150.726 862.233 148.898 865.797 Q147.092 869.339 147.092 876.469 Q147.092 883.575 148.898 887.14 Q150.726 890.681 154.338 890.681 Q157.972 890.681 159.777 887.14 Q161.606 883.575 161.606 876.469 Q161.606 869.339 159.777 865.797 Q157.972 862.233 154.338 862.233 M154.338 858.529 Q160.148 858.529 163.203 863.135 Q166.282 867.719 166.282 876.469 Q166.282 885.195 163.203 889.802 Q160.148 894.385 154.338 894.385 Q148.527 894.385 145.449 889.802 Q142.393 885.195 142.393 876.469 Q142.393 867.719 145.449 863.135 Q148.527 858.529 154.338 858.529 Z" fill="#000000" fill-rule="evenodd" fill-opacity="1" /><path clip-path="url(#clip9400)" d="M 0 0 M171.351 887.834 L176.236 887.834 L176.236 893.714 L171.351 893.714 L171.351 887.834 Z" fill="#000000" fill-rule="evenodd" fill-opacity="1" /><path clip-path="url(#clip9400)" d="M 0 0 M180.124 859.154 L202.347 859.154 L202.347 861.145 L189.8 893.714 L184.916 893.714 L196.722 863.089 L180.124 863.089 L180.124 859.154 Z" fill="#000000" fill-rule="evenodd" fill-opacity="1" /><path clip-path="url(#clip9400)" d="M 0 0 M153.527 576.556 Q149.916 576.556 148.088 580.121 Q146.282 583.662 146.282 590.792 Q146.282 597.899 148.088 601.463 Q149.916 605.005 153.527 605.005 Q157.162 605.005 158.967 601.463 Q160.796 597.899 160.796 590.792 Q160.796 583.662 158.967 580.121 Q157.162 576.556 153.527 576.556 M153.527 572.852 Q159.338 572.852 162.393 577.459 Q165.472 582.042 165.472 590.792 Q165.472 599.519 162.393 604.125 Q159.338 608.709 153.527 608.709 Q147.717 608.709 144.639 604.125 Q141.583 599.519 141.583 590.792 Q141.583 582.042 144.639 577.459 Q147.717 572.852 153.527 572.852 Z" fill="#000000" fill-rule="evenodd" fill-opacity="1" /><path clip-path="url(#clip9400)" d="M 0 0 M170.541 602.158 L175.425 602.158 L175.425 608.037 L170.541 608.037 L170.541 602.158 Z" fill="#000000" fill-rule="evenodd" fill-opacity="1" /><path clip-path="url(#clip9400)" d="M 0 0 M190.495 591.625 Q187.161 591.625 185.24 593.408 Q183.342 595.19 183.342 598.315 Q183.342 601.44 185.24 603.223 Q187.161 605.005 190.495 605.005 Q193.828 605.005 195.749 603.223 Q197.671 601.417 197.671 598.315 Q197.671 595.19 195.749 593.408 Q193.851 591.625 190.495 591.625 M185.819 589.635 Q182.81 588.894 181.12 586.834 Q179.453 584.774 179.453 581.811 Q179.453 577.667 182.393 575.26 Q185.356 572.852 190.495 572.852 Q195.657 572.852 198.597 575.26 Q201.536 577.667 201.536 581.811 Q201.536 584.774 199.847 586.834 Q198.18 588.894 195.194 589.635 Q198.573 590.422 200.448 592.713 Q202.347 595.005 202.347 598.315 Q202.347 603.338 199.268 606.023 Q196.212 608.709 190.495 608.709 Q184.777 608.709 181.699 606.023 Q178.643 603.338 178.643 598.315 Q178.643 595.005 180.541 592.713 Q182.439 590.422 185.819 589.635 M184.106 582.25 Q184.106 584.936 185.773 586.44 Q187.462 587.945 190.495 587.945 Q193.504 587.945 195.194 586.44 Q196.907 584.936 196.907 582.25 Q196.907 579.565 195.194 578.061 Q193.504 576.556 190.495 576.556 Q187.462 576.556 185.773 578.061 Q184.106 579.565 184.106 582.25 Z" fill="#000000" fill-rule="evenodd" fill-opacity="1" /><path clip-path="url(#clip9400)" d="M 0 0 M153.62 290.88 Q150.009 290.88 148.18 294.444 Q146.375 297.986 146.375 305.116 Q146.375 312.222 148.18 315.787 Q150.009 319.328 153.62 319.328 Q157.254 319.328 159.06 315.787 Q160.888 312.222 160.888 305.116 Q160.888 297.986 159.06 294.444 Q157.254 290.88 153.62 290.88 M153.62 287.176 Q159.43 287.176 162.486 291.782 Q165.564 296.366 165.564 305.116 Q165.564 313.842 162.486 318.449 Q159.43 323.032 153.62 323.032 Q147.81 323.032 144.731 318.449 Q141.676 313.842 141.676 305.116 Q141.676 296.366 144.731 291.782 Q147.81 287.176 153.62 287.176 Z" fill="#000000" fill-rule="evenodd" fill-opacity="1" /><path clip-path="url(#clip9400)" d="M 0 0 M170.634 316.481 L175.518 316.481 L175.518 322.361 L170.634 322.361 L170.634 316.481 Z" fill="#000000" fill-rule="evenodd" fill-opacity="1" /><path clip-path="url(#clip9400)" d="M 0 0 M180.726 321.643 L180.726 317.384 Q182.486 318.217 184.291 318.657 Q186.097 319.097 187.833 319.097 Q192.462 319.097 194.893 315.995 Q197.347 312.87 197.694 306.528 Q196.351 308.518 194.291 309.583 Q192.231 310.648 189.731 310.648 Q184.546 310.648 181.513 307.523 Q178.504 304.375 178.504 298.935 Q178.504 293.611 181.652 290.393 Q184.8 287.176 190.032 287.176 Q196.027 287.176 199.175 291.782 Q202.347 296.366 202.347 305.116 Q202.347 313.287 198.458 318.171 Q194.592 323.032 188.041 323.032 Q186.282 323.032 184.476 322.685 Q182.671 322.338 180.726 321.643 M190.032 306.991 Q193.18 306.991 195.009 304.838 Q196.861 302.685 196.861 298.935 Q196.861 295.208 195.009 293.055 Q193.18 290.88 190.032 290.88 Q186.884 290.88 185.032 293.055 Q183.203 295.208 183.203 298.935 Q183.203 302.685 185.032 304.838 Q186.884 306.991 190.032 306.991 Z" fill="#000000" fill-rule="evenodd" fill-opacity="1" /><path clip-path="url(#clip9400)" d="M 0 0 M1303.71 1486.67 Q1303.71 1488.47 1302.58 1489.5 Q1301.46 1490.5 1300.17 1490.5 Q1298.94 1490.5 1298.3 1489.79 Q1297.66 1489.08 1297.66 1488.18 Q1297.66 1486.96 1298.56 1485.9 Q1299.46 1484.83 1300.81 1484.61 Q1299.49 1483.77 1297.53 1483.77 Q1296.24 1483.77 1295.11 1484.45 Q1294.02 1485.12 1293.34 1485.99 Q1292.7 1486.86 1292.12 1488.12 Q1291.57 1489.34 1291.34 1490.08 Q1291.15 1490.79 1290.99 1491.56 L1288.74 1500.58 Q1287.64 1504.86 1287.64 1506.38 Q1287.64 1508.25 1288.54 1509.5 Q1289.44 1510.73 1291.25 1510.73 Q1291.96 1510.73 1292.76 1510.53 Q1293.57 1510.31 1294.6 1509.73 Q1295.66 1509.12 1296.59 1508.21 Q1297.56 1507.28 1298.49 1505.7 Q1299.43 1504.12 1300.04 1502.09 Q1300.23 1501.39 1300.88 1501.39 Q1301.68 1501.39 1301.68 1502.03 Q1301.68 1502.58 1301.23 1503.74 Q1300.81 1504.86 1299.88 1506.35 Q1298.98 1507.8 1297.79 1509.12 Q1296.59 1510.4 1294.82 1511.31 Q1293.05 1512.21 1291.12 1512.21 Q1288.35 1512.21 1286.51 1510.73 Q1284.68 1509.24 1284 1507.18 Q1283.84 1507.47 1283.61 1507.86 Q1283.39 1508.25 1282.71 1509.12 Q1282.07 1509.95 1281.33 1510.6 Q1280.59 1511.21 1279.43 1511.69 Q1278.3 1512.21 1277.08 1512.21 Q1275.53 1512.21 1274.15 1511.76 Q1272.79 1511.31 1271.83 1510.28 Q1270.86 1509.24 1270.86 1507.83 Q1270.86 1506.25 1271.92 1505.15 Q1273.02 1504.03 1274.5 1504.03 Q1275.43 1504.03 1276.18 1504.57 Q1276.95 1505.12 1276.95 1506.31 Q1276.95 1507.63 1276.05 1508.63 Q1275.14 1509.63 1273.86 1509.89 Q1275.18 1510.73 1277.14 1510.73 Q1279.27 1510.73 1280.94 1508.86 Q1282.62 1506.99 1283.42 1503.87 Q1285.42 1496.36 1286.19 1493.01 Q1286.96 1489.63 1286.96 1488.18 Q1286.96 1486.83 1286.61 1485.9 Q1286.26 1484.96 1285.64 1484.54 Q1285.06 1484.09 1284.52 1483.93 Q1284 1483.77 1283.42 1483.77 Q1282.46 1483.77 1281.36 1484.16 Q1280.3 1484.54 1279.01 1485.44 Q1277.75 1486.31 1276.56 1488.12 Q1275.37 1489.92 1274.56 1492.4 Q1274.4 1493.14 1273.7 1493.14 Q1272.92 1493.11 1272.92 1492.47 Q1272.92 1491.92 1273.34 1490.79 Q1273.79 1489.63 1274.69 1488.18 Q1275.63 1486.73 1276.82 1485.44 Q1278.04 1484.12 1279.81 1483.22 Q1281.62 1482.32 1283.55 1482.32 Q1284.42 1482.32 1285.26 1482.51 Q1286.13 1482.67 1287.16 1483.16 Q1288.22 1483.64 1289.15 1484.7 Q1290.09 1485.77 1290.67 1487.31 Q1291.05 1486.57 1291.57 1485.86 Q1292.12 1485.15 1292.95 1484.28 Q1293.82 1483.38 1295.02 1482.87 Q1296.24 1482.32 1297.59 1482.32 Q1298.91 1482.32 1300.2 1482.67 Q1301.49 1483 1302.58 1484.06 Q1303.71 1485.09 1303.71 1486.67 Z" fill="#000000" fill-rule="evenodd" fill-opacity="1" /><path clip-path="url(#clip9400)" d="M 0 0 M76.4129 712.377 Q76.8638 712.377 77.9266 712.666 L103.112 718.979 Q108.715 720.364 112.644 724.872 Q116.574 729.349 116.574 734.438 Q116.574 737.497 114.931 739.462 Q113.321 741.426 110.841 741.426 Q108.651 741.426 107.588 740.267 Q106.558 739.107 106.558 737.723 Q106.558 737.272 106.686 736.789 Q106.815 736.306 107.363 735.79 Q107.91 735.275 108.844 735.275 Q110.358 735.275 111.549 736.595 Q112.097 737.24 112.226 737.851 Q112.355 738.431 112.355 739.43 Q113.256 739.043 113.868 738.335 Q114.48 737.626 114.706 736.821 Q114.963 736.016 115.028 735.5 Q115.124 734.953 115.124 734.438 Q115.124 730.315 110.97 727.159 Q109.714 726.225 108.458 725.549 Q107.234 724.84 105.72 724.325 Q104.239 723.81 103.434 723.584 Q102.628 723.327 100.793 722.876 Q103.788 725.871 103.788 729.542 Q103.788 731.088 103.369 732.473 Q102.951 733.826 102.081 735.017 Q101.179 736.209 99.6011 736.917 Q98.023 737.594 95.9296 737.594 Q93.7074 737.594 90.6801 736.724 Q87.6527 735.855 82.0811 733.761 Q78.9572 732.634 77.4435 732.634 Q76.7027 732.634 76.2519 732.795 Q75.7688 732.956 75.6077 733.278 Q75.4145 733.6 75.3823 733.793 Q75.3501 733.955 75.3501 734.277 Q75.3501 736.177 77.2825 737.948 Q79.2148 739.719 83.5304 740.943 Q84.3355 741.201 84.5288 741.362 Q84.722 741.523 84.722 742.006 Q84.6898 742.811 84.0457 742.811 Q83.788 742.811 82.7897 742.521 Q81.7591 742.231 80.2454 741.555 Q78.6995 740.847 77.3147 739.88 Q75.8976 738.914 74.8992 737.401 Q73.9008 735.855 73.9008 734.083 Q73.9008 731.668 75.4789 730.186 Q77.0248 728.673 79.3114 728.673 Q80.2454 728.673 81.0827 728.93 Q81.8879 729.156 84.0457 729.993 Q92.7413 733.375 96.9924 733.375 Q98.023 733.375 98.8926 733.214 Q99.7299 733.021 100.567 732.602 Q101.372 732.183 101.856 731.346 Q102.306 730.476 102.306 729.285 Q102.306 727.771 101.598 726.354 Q100.857 724.905 99.8588 724.003 Q98.8604 723.069 98.023 722.521 Q97.1535 721.942 96.7026 721.813 L84.8508 718.85 L79.5691 717.53 Q76.7027 716.918 75.9942 716.628 Q75.3179 716.241 74.9636 715.565 Q74.6094 714.889 74.6094 714.309 Q74.6094 713.504 75.0925 712.956 Q75.5755 712.377 76.4129 712.377 Z" fill="#000000" fill-rule="evenodd" fill-opacity="1" /><polyline clip-path="url(#clip9402)" style="stroke:#009af9; stroke-width:4; stroke-opacity:1; fill:none" points="
  286.528,211.093 509.422,1367.9 732.316,85.7097 955.21,724.176 1178.1,777.963 1401,637.81 1623.89,684.381 1846.79,686.391 2069.68,109.025 2292.57,569.238 
  
  "/>
<path clip-path="url(#clip9400)" d="
M1989.74 251.724 L2280.76 251.724 L2280.76 130.764 L1989.74 130.764  Z
  " fill="#ffffff" fill-rule="evenodd" fill-opacity="1"/>
<polyline clip-path="url(#clip9400)" style="stroke:#000000; stroke-width:4; stroke-opacity:1; fill:none" points="
  1989.74,251.724 2280.76,251.724 2280.76,130.764 1989.74,130.764 1989.74,251.724 
  "/>
<polyline clip-path="url(#clip9400)" style="stroke:#009af9; stroke-width:4; stroke-opacity:1; fill:none" points="
  2013.74,191.244 2157.74,191.244 
  "/>
<path clip-path="url(#clip9400)" d="M 0 0 M2195.58 210.931 Q2193.77 215.561 2192.06 216.973 Q2190.35 218.385 2187.48 218.385 L2184.08 218.385 L2184.08 214.82 L2186.58 214.82 Q2188.33 214.82 2189.31 213.987 Q2190.28 213.154 2191.46 210.052 L2192.22 208.107 L2181.74 182.598 L2186.25 182.598 L2194.35 202.876 L2202.46 182.598 L2206.97 182.598 L2195.58 210.931 Z" fill="#000000" fill-rule="evenodd" fill-opacity="1" /><path clip-path="url(#clip9400)" d="M 0 0 M2212.85 204.589 L2220.49 204.589 L2220.49 178.223 L2212.18 179.89 L2212.18 175.631 L2220.44 173.964 L2225.12 173.964 L2225.12 204.589 L2232.76 204.589 L2232.76 208.524 L2212.85 208.524 L2212.85 204.589 Z" fill="#000000" fill-rule="evenodd" fill-opacity="1" /></svg>
