<?xml version="1.0" encoding="utf-8"?>
<svg xmlns="http://www.w3.org/2000/svg" xmlns:xlink="http://www.w3.org/1999/xlink" width="600" height="400" viewBox="0 0 2400 1600">
<defs>
  <clipPath id="clip390">
    <rect x="0" y="0" width="2400" height="1600"/>
  </clipPath>
</defs>
<path clip-path="url(#clip390)" d="
M0 1600 L2400 1600 L2400 0 L0 0  Z
  " fill="#ffffff" fill-rule="evenodd" fill-opacity="1"/>
<defs>
  <clipPath id="clip391">
    <rect x="480" y="0" width="1681" height="1600"/>
  </clipPath>
</defs>
<path clip-path="url(#clip390)" d="
M179.769 1455.01 L2352.76 1455.01 L2352.76 78.6784 L179.769 78.6784  Z
  " fill="#ffffff" fill-rule="evenodd" fill-opacity="1"/>
<defs>
  <clipPath id="clip392">
    <rect x="179" y="78" width="2174" height="1377"/>
  </clipPath>
</defs>
<polyline clip-path="url(#clip392)" style="stroke:#000000; stroke-width:2; stroke-opacity:0.1; fill:none" points="
  469.045,1455.01 469.045,78.6784 
  "/>
<polyline clip-path="url(#clip392)" style="stroke:#000000; stroke-width:2; stroke-opacity:0.1; fill:none" points="
  924.598,1455.01 924.598,78.6784 
  "/>
<polyline clip-path="url(#clip392)" style="stroke:#000000; stroke-width:2; stroke-opacity:0.1; fill:none" points="
  1380.15,1455.01 1380.15,78.6784 
  "/>
<polyline clip-path="url(#clip392)" style="stroke:#000000; stroke-width:2; stroke-opacity:0.1; fill:none" points="
  1835.7,1455.01 1835.7,78.6784 
  "/>
<polyline clip-path="url(#clip392)" style="stroke:#000000; stroke-width:2; stroke-opacity:0.1; fill:none" points="
  2291.26,1455.01 2291.26,78.6784 
  "/>
<polyline clip-path="url(#clip392)" style="stroke:#000000; stroke-width:2; stroke-opacity:0.1; fill:none" points="
  179.769,1233.82 2352.76,1233.82 
  "/>
<polyline clip-path="url(#clip392)" style="stroke:#000000; stroke-width:2; stroke-opacity:0.1; fill:none" points="
  179.769,950.014 2352.76,950.014 
  "/>
<polyline clip-path="url(#clip392)" style="stroke:#000000; stroke-width:2; stroke-opacity:0.1; fill:none" points="
  179.769,666.212 2352.76,666.212 
  "/>
<polyline clip-path="url(#clip392)" style="stroke:#000000; stroke-width:2; stroke-opacity:0.1; fill:none" points="
  179.769,382.411 2352.76,382.411 
  "/>
<polyline clip-path="url(#clip392)" style="stroke:#000000; stroke-width:2; stroke-opacity:0.1; fill:none" points="
  179.769,98.6092 2352.76,98.6092 
  "/>
<polyline clip-path="url(#clip390)" style="stroke:#000000; stroke-width:4; stroke-opacity:1; fill:none" points="
  179.769,1455.01 2352.76,1455.01 
  "/>
<polyline clip-path="url(#clip390)" style="stroke:#000000; stroke-width:4; stroke-opacity:1; fill:none" points="
  179.769,1455.01 179.769,78.6784 
  "/>
<polyline clip-path="url(#clip390)" style="stroke:#000000; stroke-width:4; stroke-opacity:1; fill:none" points="
  469.045,1455.01 469.045,1438.5 
  "/>
<polyline clip-path="url(#clip390)" style="stroke:#000000; stroke-width:4; stroke-opacity:1; fill:none" points="
  924.598,1455.01 924.598,1438.5 
  "/>
<polyline clip-path="url(#clip390)" style="stroke:#000000; stroke-width:4; stroke-opacity:1; fill:none" points="
  1380.15,1455.01 1380.15,1438.5 
  "/>
<polyline clip-path="url(#clip390)" style="stroke:#000000; stroke-width:4; stroke-opacity:1; fill:none" points="
  1835.7,1455.01 1835.7,1438.5 
  "/>
<polyline clip-path="url(#clip390)" style="stroke:#000000; stroke-width:4; stroke-opacity:1; fill:none" points="
  2291.26,1455.01 2291.26,1438.5 
  "/>
<polyline clip-path="url(#clip390)" style="stroke:#000000; stroke-width:4; stroke-opacity:1; fill:none" points="
  179.769,1233.82 205.845,1233.82 
  "/>
<polyline clip-path="url(#clip390)" style="stroke:#000000; stroke-width:4; stroke-opacity:1; fill:none" points="
  179.769,950.014 205.845,950.014 
  "/>
<polyline clip-path="url(#clip390)" style="stroke:#000000; stroke-width:4; stroke-opacity:1; fill:none" points="
  179.769,666.212 205.845,666.212 
  "/>
<polyline clip-path="url(#clip390)" style="stroke:#000000; stroke-width:4; stroke-opacity:1; fill:none" points="
  179.769,382.411 205.845,382.411 
  "/>
<polyline clip-path="url(#clip390)" style="stroke:#000000; stroke-width:4; stroke-opacity:1; fill:none" points="
  179.769,98.6092 205.845,98.6092 
  "/>
<path clip-path="url(#clip390)" d="M 0 0 M463.698 1504.55 L480.017 1504.55 L480.017 1508.49 L458.073 1508.49 L458.073 1504.55 Q460.735 1501.8 465.318 1497.17 Q469.924 1492.51 471.105 1491.17 Q473.35 1488.65 474.23 1486.91 Q475.133 1485.15 475.133 1483.46 Q475.133 1480.71 473.188 1478.97 Q471.267 1477.24 468.165 1477.24 Q465.966 1477.24 463.512 1478 Q461.082 1478.76 458.304 1480.31 L458.304 1475.59 Q461.128 1474.46 463.582 1473.88 Q466.036 1473.3 468.073 1473.3 Q473.443 1473.3 476.637 1475.99 Q479.832 1478.67 479.832 1483.16 Q479.832 1485.29 479.022 1487.21 Q478.235 1489.11 476.128 1491.7 Q475.549 1492.37 472.448 1495.59 Q469.346 1498.79 463.698 1504.55 Z" fill="#000000" fill-rule="evenodd" fill-opacity="1" /><path clip-path="url(#clip390)" d="M 0 0 M927.607 1478 L915.801 1496.45 L927.607 1496.45 L927.607 1478 M926.38 1473.93 L932.26 1473.93 L932.26 1496.45 L937.19 1496.45 L937.19 1500.34 L932.26 1500.34 L932.26 1508.49 L927.607 1508.49 L927.607 1500.34 L912.005 1500.34 L912.005 1495.82 L926.38 1473.93 Z" fill="#000000" fill-rule="evenodd" fill-opacity="1" /><path clip-path="url(#clip390)" d="M 0 0 M1380.56 1489.34 Q1377.41 1489.34 1375.56 1491.49 Q1373.73 1493.65 1373.73 1497.4 Q1373.73 1501.12 1375.56 1503.3 Q1377.41 1505.45 1380.56 1505.45 Q1383.7 1505.45 1385.53 1503.3 Q1387.38 1501.12 1387.38 1497.4 Q1387.38 1493.65 1385.53 1491.49 Q1383.7 1489.34 1380.56 1489.34 M1389.84 1474.69 L1389.84 1478.95 Q1388.08 1478.12 1386.27 1477.68 Q1384.49 1477.24 1382.73 1477.24 Q1378.1 1477.24 1375.65 1480.36 Q1373.22 1483.49 1372.87 1489.81 Q1374.24 1487.79 1376.3 1486.73 Q1378.36 1485.64 1380.83 1485.64 Q1386.04 1485.64 1389.05 1488.81 Q1392.08 1491.96 1392.08 1497.4 Q1392.08 1502.72 1388.94 1505.94 Q1385.79 1509.16 1380.56 1509.16 Q1374.56 1509.16 1371.39 1504.57 Q1368.22 1499.97 1368.22 1491.24 Q1368.22 1483.05 1372.11 1478.18 Q1376 1473.3 1382.55 1473.3 Q1384.31 1473.3 1386.09 1473.65 Q1387.89 1474 1389.84 1474.69 Z" fill="#000000" fill-rule="evenodd" fill-opacity="1" /><path clip-path="url(#clip390)" d="M 0 0 M1835.7 1492.07 Q1832.37 1492.07 1830.45 1493.86 Q1828.55 1495.64 1828.55 1498.76 Q1828.55 1501.89 1830.45 1503.67 Q1832.37 1505.45 1835.7 1505.45 Q1839.04 1505.45 1840.96 1503.67 Q1842.88 1501.87 1842.88 1498.76 Q1842.88 1495.64 1840.96 1493.86 Q1839.06 1492.07 1835.7 1492.07 M1831.03 1490.08 Q1828.02 1489.34 1826.33 1487.28 Q1824.66 1485.22 1824.66 1482.26 Q1824.66 1478.12 1827.6 1475.71 Q1830.56 1473.3 1835.7 1473.3 Q1840.87 1473.3 1843.81 1475.71 Q1846.75 1478.12 1846.75 1482.26 Q1846.75 1485.22 1845.06 1487.28 Q1843.39 1489.34 1840.4 1490.08 Q1843.78 1490.87 1845.66 1493.16 Q1847.56 1495.45 1847.56 1498.76 Q1847.56 1503.79 1844.48 1506.47 Q1841.42 1509.16 1835.7 1509.16 Q1829.99 1509.16 1826.91 1506.47 Q1823.85 1503.79 1823.85 1498.76 Q1823.85 1495.45 1825.75 1493.16 Q1827.65 1490.87 1831.03 1490.08 M1829.31 1482.7 Q1829.31 1485.38 1830.98 1486.89 Q1832.67 1488.39 1835.7 1488.39 Q1838.71 1488.39 1840.4 1486.89 Q1842.12 1485.38 1842.12 1482.7 Q1842.12 1480.01 1840.4 1478.51 Q1838.71 1477 1835.7 1477 Q1832.67 1477 1830.98 1478.51 Q1829.31 1480.01 1829.31 1482.7 Z" fill="#000000" fill-rule="evenodd" fill-opacity="1" /><path clip-path="url(#clip390)" d="M 0 0 M2268.13 1504.55 L2275.77 1504.55 L2275.77 1478.18 L2267.46 1479.85 L2267.46 1475.59 L2275.72 1473.93 L2280.4 1473.93 L2280.4 1504.55 L2288.04 1504.55 L2288.04 1508.49 L2268.13 1508.49 L2268.13 1504.55 Z" fill="#000000" fill-rule="evenodd" fill-opacity="1" /><path clip-path="url(#clip390)" d="M 0 0 M2303.11 1477 Q2299.5 1477 2297.67 1480.57 Q2295.86 1484.11 2295.86 1491.24 Q2295.86 1498.35 2297.67 1501.91 Q2299.5 1505.45 2303.11 1505.45 Q2306.74 1505.45 2308.55 1501.91 Q2310.38 1498.35 2310.38 1491.24 Q2310.38 1484.11 2308.55 1480.57 Q2306.74 1477 2303.11 1477 M2303.11 1473.3 Q2308.92 1473.3 2311.97 1477.91 Q2315.05 1482.49 2315.05 1491.24 Q2315.05 1499.97 2311.97 1504.57 Q2308.92 1509.16 2303.11 1509.16 Q2297.3 1509.16 2294.22 1504.57 Q2291.16 1499.97 2291.16 1491.24 Q2291.16 1482.49 2294.22 1477.91 Q2297.3 1473.3 2303.11 1473.3 Z" fill="#000000" fill-rule="evenodd" fill-opacity="1" /><path clip-path="url(#clip390)" d="M 0 0 M108.454 1219.61 Q104.843 1219.61 103.014 1223.18 Q101.209 1226.72 101.209 1233.85 Q101.209 1240.96 103.014 1244.52 Q104.843 1248.06 108.454 1248.06 Q112.088 1248.06 113.894 1244.52 Q115.723 1240.96 115.723 1233.85 Q115.723 1226.72 113.894 1223.18 Q112.088 1219.61 108.454 1219.61 M108.454 1215.91 Q114.264 1215.91 117.32 1220.52 Q120.399 1225.1 120.399 1233.85 Q120.399 1242.58 117.32 1247.18 Q114.264 1251.77 108.454 1251.77 Q102.644 1251.77 99.5653 1247.18 Q96.5098 1242.58 96.5098 1233.85 Q96.5098 1225.1 99.5653 1220.52 Q102.644 1215.91 108.454 1215.91 Z" fill="#000000" fill-rule="evenodd" fill-opacity="1" /><path clip-path="url(#clip390)" d="M 0 0 M125.468 1245.22 L130.352 1245.22 L130.352 1251.1 L125.468 1251.1 L125.468 1245.22 Z" fill="#000000" fill-rule="evenodd" fill-opacity="1" /><path clip-path="url(#clip390)" d="M 0 0 M139.449 1247.16 L155.769 1247.16 L155.769 1251.1 L133.824 1251.1 L133.824 1247.16 Q136.486 1244.41 141.07 1239.78 Q145.676 1235.12 146.857 1233.78 Q149.102 1231.26 149.982 1229.52 Q150.884 1227.76 150.884 1226.07 Q150.884 1223.32 148.94 1221.58 Q147.019 1219.85 143.917 1219.85 Q141.718 1219.85 139.264 1220.61 Q136.834 1221.37 134.056 1222.92 L134.056 1218.2 Q136.88 1217.07 139.334 1216.49 Q141.787 1215.91 143.824 1215.91 Q149.195 1215.91 152.389 1218.6 Q155.584 1221.28 155.584 1225.77 Q155.584 1227.9 154.773 1229.82 Q153.986 1231.72 151.88 1234.31 Q151.301 1234.98 148.199 1238.2 Q145.097 1241.4 139.449 1247.16 Z" fill="#000000" fill-rule="evenodd" fill-opacity="1" /><path clip-path="url(#clip390)" d="M 0 0 M106.371 935.813 Q102.76 935.813 100.931 939.378 Q99.1255 942.919 99.1255 950.049 Q99.1255 957.155 100.931 960.72 Q102.76 964.262 106.371 964.262 Q110.005 964.262 111.811 960.72 Q113.639 957.155 113.639 950.049 Q113.639 942.919 111.811 939.378 Q110.005 935.813 106.371 935.813 M106.371 932.109 Q112.181 932.109 115.237 936.716 Q118.315 941.299 118.315 950.049 Q118.315 958.776 115.237 963.382 Q112.181 967.965 106.371 967.965 Q100.561 967.965 97.482 963.382 Q94.4264 958.776 94.4264 950.049 Q94.4264 941.299 97.482 936.716 Q100.561 932.109 106.371 932.109 Z" fill="#000000" fill-rule="evenodd" fill-opacity="1" /><path clip-path="url(#clip390)" d="M 0 0 M123.385 961.415 L128.269 961.415 L128.269 967.294 L123.385 967.294 L123.385 961.415 Z" fill="#000000" fill-rule="evenodd" fill-opacity="1" /><path clip-path="url(#clip390)" d="M 0 0 M146.185 936.808 L134.38 955.257 L146.185 955.257 L146.185 936.808 M144.959 932.734 L150.838 932.734 L150.838 955.257 L155.769 955.257 L155.769 959.146 L150.838 959.146 L150.838 967.294 L146.185 967.294 L146.185 959.146 L130.584 959.146 L130.584 954.632 L144.959 932.734 Z" fill="#000000" fill-rule="evenodd" fill-opacity="1" /><path clip-path="url(#clip390)" d="M 0 0 M106.695 652.011 Q103.084 652.011 101.255 655.576 Q99.4496 659.118 99.4496 666.247 Q99.4496 673.354 101.255 676.918 Q103.084 680.46 106.695 680.46 Q110.329 680.46 112.135 676.918 Q113.963 673.354 113.963 666.247 Q113.963 659.118 112.135 655.576 Q110.329 652.011 106.695 652.011 M106.695 648.307 Q112.505 648.307 115.561 652.914 Q118.639 657.497 118.639 666.247 Q118.639 674.974 115.561 679.58 Q112.505 684.164 106.695 684.164 Q100.885 684.164 97.806 679.58 Q94.7505 674.974 94.7505 666.247 Q94.7505 657.497 97.806 652.914 Q100.885 648.307 106.695 648.307 Z" fill="#000000" fill-rule="evenodd" fill-opacity="1" /><path clip-path="url(#clip390)" d="M 0 0 M123.709 677.613 L128.593 677.613 L128.593 683.492 L123.709 683.492 L123.709 677.613 Z" fill="#000000" fill-rule="evenodd" fill-opacity="1" /><path clip-path="url(#clip390)" d="M 0 0 M144.241 664.349 Q141.093 664.349 139.241 666.502 Q137.412 668.655 137.412 672.405 Q137.412 676.131 139.241 678.307 Q141.093 680.46 144.241 680.46 Q147.389 680.46 149.218 678.307 Q151.07 676.131 151.07 672.405 Q151.07 668.655 149.218 666.502 Q147.389 664.349 144.241 664.349 M153.523 649.696 L153.523 653.956 Q151.764 653.122 149.959 652.682 Q148.176 652.243 146.417 652.243 Q141.787 652.243 139.334 655.368 Q136.903 658.493 136.556 664.812 Q137.922 662.798 139.982 661.733 Q142.042 660.645 144.519 660.645 Q149.727 660.645 152.736 663.817 Q155.769 666.965 155.769 672.405 Q155.769 677.729 152.621 680.946 Q149.472 684.164 144.241 684.164 Q138.246 684.164 135.074 679.58 Q131.903 674.974 131.903 666.247 Q131.903 658.053 135.792 653.192 Q139.681 648.307 146.232 648.307 Q147.991 648.307 149.773 648.655 Q151.579 649.002 153.523 649.696 Z" fill="#000000" fill-rule="evenodd" fill-opacity="1" /><path clip-path="url(#clip390)" d="M 0 0 M106.95 368.21 Q103.338 368.21 101.51 371.774 Q99.7042 375.316 99.7042 382.446 Q99.7042 389.552 101.51 393.117 Q103.338 396.658 106.95 396.658 Q110.584 396.658 112.389 393.117 Q114.218 389.552 114.218 382.446 Q114.218 375.316 112.389 371.774 Q110.584 368.21 106.95 368.21 M106.95 364.506 Q112.76 364.506 115.815 369.112 Q118.894 373.696 118.894 382.446 Q118.894 391.172 115.815 395.779 Q112.76 400.362 106.95 400.362 Q101.139 400.362 98.0607 395.779 Q95.0051 391.172 95.0051 382.446 Q95.0051 373.696 98.0607 369.112 Q101.139 364.506 106.95 364.506 Z" fill="#000000" fill-rule="evenodd" fill-opacity="1" /><path clip-path="url(#clip390)" d="M 0 0 M123.963 393.811 L128.848 393.811 L128.848 399.691 L123.963 399.691 L123.963 393.811 Z" fill="#000000" fill-rule="evenodd" fill-opacity="1" /><path clip-path="url(#clip390)" d="M 0 0 M143.917 383.279 Q140.584 383.279 138.662 385.061 Q136.764 386.844 136.764 389.969 Q136.764 393.094 138.662 394.876 Q140.584 396.658 143.917 396.658 Q147.25 396.658 149.172 394.876 Q151.093 393.071 151.093 389.969 Q151.093 386.844 149.172 385.061 Q147.273 383.279 143.917 383.279 M139.241 381.288 Q136.232 380.547 134.542 378.487 Q132.875 376.427 132.875 373.464 Q132.875 369.321 135.815 366.913 Q138.778 364.506 143.917 364.506 Q149.079 364.506 152.019 366.913 Q154.959 369.321 154.959 373.464 Q154.959 376.427 153.269 378.487 Q151.602 380.547 148.616 381.288 Q151.996 382.075 153.871 384.367 Q155.769 386.658 155.769 389.969 Q155.769 394.992 152.69 397.677 Q149.634 400.362 143.917 400.362 Q138.199 400.362 135.121 397.677 Q132.065 394.992 132.065 389.969 Q132.065 386.658 133.963 384.367 Q135.861 382.075 139.241 381.288 M137.528 373.904 Q137.528 376.589 139.195 378.094 Q140.885 379.598 143.917 379.598 Q146.926 379.598 148.616 378.094 Q150.329 376.589 150.329 373.904 Q150.329 371.219 148.616 369.714 Q146.926 368.21 143.917 368.21 Q140.885 368.21 139.195 369.714 Q137.528 371.219 137.528 373.904 Z" fill="#000000" fill-rule="evenodd" fill-opacity="1" /><path clip-path="url(#clip390)" d="M 0 0 M98.894 111.954 L106.533 111.954 L106.533 85.5884 L98.2227 87.2551 L98.2227 82.9958 L106.487 81.3292 L111.162 81.3292 L111.162 111.954 L118.801 111.954 L118.801 115.889 L98.894 115.889 L98.894 111.954 Z" fill="#000000" fill-rule="evenodd" fill-opacity="1" /><path clip-path="url(#clip390)" d="M 0 0 M123.871 110.01 L128.755 110.01 L128.755 115.889 L123.871 115.889 L123.871 110.01 Z" fill="#000000" fill-rule="evenodd" fill-opacity="1" /><path clip-path="url(#clip390)" d="M 0 0 M143.824 84.4079 Q140.213 84.4079 138.385 87.9727 Q136.579 91.5143 136.579 98.6439 Q136.579 105.75 138.385 109.315 Q140.213 112.857 143.824 112.857 Q147.459 112.857 149.264 109.315 Q151.093 105.75 151.093 98.6439 Q151.093 91.5143 149.264 87.9727 Q147.459 84.4079 143.824 84.4079 M143.824 80.7042 Q149.634 80.7042 152.69 85.3106 Q155.769 89.894 155.769 98.6439 Q155.769 107.371 152.69 111.977 Q149.634 116.56 143.824 116.56 Q138.014 116.56 134.935 111.977 Q131.88 107.371 131.88 98.6439 Q131.88 89.894 134.935 85.3106 Q138.014 80.7042 143.824 80.7042 Z" fill="#000000" fill-rule="evenodd" fill-opacity="1" /><path clip-path="url(#clip390)" d="M 0 0 M1286.77 4.53628 Q1286.69 4.94617 1286.53 5.68398 Q1286.36 6.3808 1285.63 8.59422 Q1284.89 10.8076 1283.9 13.0621 Q1282.96 15.2755 1281.12 18.3907 Q1279.31 21.4649 1277.1 24.2521 Q1276.49 24.9899 1276.36 25.4408 Q1276.28 25.8507 1276.28 27.2034 Q1276.28 35.7291 1278.86 35.7291 Q1278.99 35.7291 1279.19 35.7291 Q1279.44 35.6881 1280.05 35.4832 Q1280.71 35.2373 1281.28 34.8683 Q1281.85 34.4585 1282.51 33.6387 Q1283.17 32.7779 1283.58 31.6302 Q1283.95 30.8104 1284.68 30.8104 Q1285.67 30.8104 1285.67 31.6302 Q1285.67 33.1058 1283.62 35.3602 Q1281.57 37.6146 1278.62 37.6146 Q1275.79 37.6146 1273.78 35.7701 Q1271.81 33.8846 1270.99 30.5235 Q1262.14 37.6146 1253.29 37.6146 Q1247.05 37.6146 1243.37 33.5567 Q1239.68 29.4578 1239.68 23.3913 Q1239.68 17.5709 1242.87 12.0373 Q1246.11 6.50377 1251.36 3.06067 Q1256.65 -0.423422 1262.26 -0.423422 Q1264.23 -0.423422 1266.11 0.109439 Q1268 0.60131 1269.89 1.87198 Q1271.77 3.14265 1273.17 5.06914 Q1274.56 6.99564 1275.42 10.0288 Q1276.28 13.0621 1276.28 16.8741 L1276.28 22.0797 Q1281.69 15.2345 1284.52 5.43805 Q1284.93 3.96243 1285.18 3.79847 Q1285.34 3.67551 1285.75 3.67551 Q1286.16 3.67551 1286.4 3.92144 Q1286.69 4.12639 1286.73 4.33133 L1286.77 4.53628 M1270.66 28.3511 Q1270.5 26.9164 1270.5 18.9645 Q1270.5 17.4479 1270.5 16.6281 Q1270.5 15.7673 1270.42 14.1278 Q1270.34 12.4882 1270.17 11.4635 Q1270.05 10.4387 1269.76 8.96312 Q1269.48 7.48751 1269.07 6.54476 Q1268.66 5.602 1268 4.53628 Q1267.39 3.47056 1266.57 2.85572 Q1265.79 2.24088 1264.64 1.83099 Q1263.53 1.4211 1262.18 1.4211 Q1260.5 1.4211 1258.74 2.03594 Q1257.02 2.60978 1254.8 4.4543 Q1252.59 6.25783 1250.74 9.12708 Q1248.82 12.1603 1247.34 17.7348 Q1245.91 23.2684 1245.91 26.5885 Q1245.91 30.7694 1247.83 33.2698 Q1249.76 35.7291 1253.45 35.7291 Q1262.26 35.7291 1270.66 28.3511 Z" fill="#000000" fill-rule="evenodd" fill-opacity="1" /><path clip-path="url(#clip390)" d="M 0 0 M1280.42 1535.32 Q1280.42 1537.12 1279.3 1538.15 Q1278.17 1539.15 1276.88 1539.15 Q1275.66 1539.15 1275.01 1538.44 Q1274.37 1537.74 1274.37 1536.83 Q1274.37 1535.61 1275.27 1534.55 Q1276.17 1533.48 1277.52 1533.26 Q1276.2 1532.42 1274.24 1532.42 Q1272.95 1532.42 1271.82 1533.1 Q1270.73 1533.77 1270.05 1534.64 Q1269.41 1535.51 1268.83 1536.77 Q1268.28 1537.99 1268.06 1538.73 Q1267.86 1539.44 1267.7 1540.22 L1265.45 1549.23 Q1264.35 1553.52 1264.35 1555.03 Q1264.35 1556.9 1265.25 1558.15 Q1266.16 1559.38 1267.96 1559.38 Q1268.67 1559.38 1269.47 1559.19 Q1270.28 1558.96 1271.31 1558.38 Q1272.37 1557.77 1273.3 1556.87 Q1274.27 1555.93 1275.2 1554.35 Q1276.14 1552.78 1276.75 1550.75 Q1276.94 1550.04 1277.59 1550.04 Q1278.39 1550.04 1278.39 1550.68 Q1278.39 1551.23 1277.94 1552.39 Q1277.52 1553.52 1276.59 1555 Q1275.69 1556.45 1274.5 1557.77 Q1273.3 1559.06 1271.53 1559.96 Q1269.76 1560.86 1267.83 1560.86 Q1265.06 1560.86 1263.22 1559.38 Q1261.39 1557.9 1260.71 1555.84 Q1260.55 1556.13 1260.33 1556.51 Q1260.1 1556.9 1259.42 1557.77 Q1258.78 1558.61 1258.04 1559.25 Q1257.3 1559.86 1256.14 1560.34 Q1255.01 1560.86 1253.79 1560.86 Q1252.24 1560.86 1250.86 1560.41 Q1249.5 1559.96 1248.54 1558.93 Q1247.57 1557.9 1247.57 1556.48 Q1247.57 1554.9 1248.64 1553.81 Q1249.73 1552.68 1251.21 1552.68 Q1252.15 1552.68 1252.89 1553.23 Q1253.66 1553.77 1253.66 1554.97 Q1253.66 1556.29 1252.76 1557.29 Q1251.86 1558.28 1250.57 1558.54 Q1251.89 1559.38 1253.85 1559.38 Q1255.98 1559.38 1257.65 1557.51 Q1259.33 1555.64 1260.13 1552.52 Q1262.13 1545.01 1262.9 1541.67 Q1263.68 1538.28 1263.68 1536.83 Q1263.68 1535.48 1263.32 1534.55 Q1262.97 1533.61 1262.35 1533.2 Q1261.78 1532.74 1261.23 1532.58 Q1260.71 1532.42 1260.13 1532.42 Q1259.17 1532.42 1258.07 1532.81 Q1257.01 1533.2 1255.72 1534.1 Q1254.46 1534.97 1253.27 1536.77 Q1252.08 1538.57 1251.28 1541.05 Q1251.11 1541.79 1250.41 1541.79 Q1249.63 1541.76 1249.63 1541.12 Q1249.63 1540.57 1250.05 1539.44 Q1250.5 1538.28 1251.4 1536.83 Q1252.34 1535.39 1253.53 1534.1 Q1254.75 1532.78 1256.53 1531.87 Q1258.33 1530.97 1260.26 1530.97 Q1261.13 1530.97 1261.97 1531.17 Q1262.84 1531.33 1263.87 1531.81 Q1264.93 1532.29 1265.87 1533.36 Q1266.8 1534.42 1267.38 1535.96 Q1267.77 1535.22 1268.28 1534.52 Q1268.83 1533.81 1269.67 1532.94 Q1270.54 1532.04 1271.73 1531.52 Q1272.95 1530.97 1274.3 1530.97 Q1275.62 1530.97 1276.91 1531.33 Q1278.2 1531.65 1279.3 1532.71 Q1280.42 1533.74 1280.42 1535.32 Z" fill="#000000" fill-rule="evenodd" fill-opacity="1" /><path clip-path="url(#clip390)" d="M 0 0 M29.5109 752.42 Q29.9618 752.42 31.0246 752.71 L56.2096 759.022 Q61.8134 760.407 65.7425 764.916 Q69.6716 769.393 69.6716 774.481 Q69.6716 777.541 68.0291 779.505 Q66.4189 781.47 63.939 781.47 Q61.749 781.47 60.6862 780.31 Q59.6556 779.151 59.6556 777.766 Q59.6556 777.315 59.7844 776.832 Q59.9133 776.349 60.4608 775.834 Q61.0083 775.318 61.9422 775.318 Q63.4559 775.318 64.6475 776.639 Q65.195 777.283 65.3239 777.895 Q65.4527 778.475 65.4527 779.473 Q66.3544 779.086 66.9664 778.378 Q67.5783 777.669 67.8037 776.864 Q68.0614 776.059 68.1258 775.544 Q68.2224 774.996 68.2224 774.481 Q68.2224 770.359 64.0678 767.203 Q62.8118 766.269 61.5558 765.592 Q60.3319 764.884 58.8183 764.368 Q57.3368 763.853 56.5317 763.628 Q55.7265 763.37 53.8908 762.919 Q56.8859 765.914 56.8859 769.586 Q56.8859 771.132 56.4672 772.516 Q56.0486 773.869 55.179 775.061 Q54.2772 776.252 52.6992 776.961 Q51.1211 777.637 49.0277 777.637 Q46.8055 777.637 43.7781 776.768 Q40.7508 775.898 35.1792 773.805 Q32.0552 772.678 30.5415 772.678 Q29.8008 772.678 29.3499 772.839 Q28.8668 773 28.7058 773.322 Q28.5126 773.644 28.4803 773.837 Q28.4481 773.998 28.4481 774.32 Q28.4481 776.22 30.3805 777.991 Q32.3128 779.763 36.6284 780.987 Q37.4336 781.244 37.6268 781.405 Q37.82 781.566 37.82 782.049 Q37.7878 782.855 37.1437 782.855 Q36.8861 782.855 35.8877 782.565 Q34.8571 782.275 33.3434 781.599 Q31.7976 780.89 30.4127 779.924 Q28.9956 778.958 27.9973 777.444 Q26.9989 775.898 26.9989 774.127 Q26.9989 771.711 28.577 770.23 Q30.1228 768.716 32.4095 768.716 Q33.3434 768.716 34.1808 768.974 Q34.9859 769.199 37.1437 770.037 Q45.8393 773.418 50.0905 773.418 Q51.1211 773.418 51.9906 773.257 Q52.828 773.064 53.6653 772.645 Q54.4705 772.227 54.9536 771.389 Q55.4044 770.52 55.4044 769.328 Q55.4044 767.814 54.6959 766.397 Q53.9552 764.948 52.9568 764.046 Q51.9584 763.112 51.1211 762.565 Q50.2515 761.985 49.8006 761.856 L37.9489 758.893 L32.6671 757.573 Q29.8008 756.961 29.0923 756.671 Q28.4159 756.285 28.0617 755.608 Q27.7074 754.932 27.7074 754.352 Q27.7074 753.547 28.1905 753 Q28.6736 752.42 29.5109 752.42 Z" fill="#000000" fill-rule="evenodd" fill-opacity="1" /><polyline clip-path="url(#clip392)" style="stroke:#009af9; stroke-width:4; stroke-opacity:1; fill:none" points="
  241.268,757.353 469.045,742.473 696.821,464.148 924.598,331.546 1152.37,1416.06 1380.15,924.393 1607.93,1415.12 1835.7,117.631 2063.48,780.437 2291.26,1165.37 
  
  "/>
<path clip-path="url(#clip390)" d="
M1989.74 283.158 L2280.76 283.158 L2280.76 162.198 L1989.74 162.198  Z
  " fill="#ffffff" fill-rule="evenodd" fill-opacity="1"/>
<polyline clip-path="url(#clip390)" style="stroke:#000000; stroke-width:4; stroke-opacity:1; fill:none" points="
  1989.74,283.158 2280.76,283.158 2280.76,162.198 1989.74,162.198 1989.74,283.158 
  "/>
<polyline clip-path="url(#clip390)" style="stroke:#009af9; stroke-width:4; stroke-opacity:1; fill:none" points="
  2013.74,222.678 2157.74,222.678 
  "/>
<path clip-path="url(#clip390)" d="M 0 0 M2195.58 242.366 Q2193.77 246.995 2192.06 248.407 Q2190.35 249.819 2187.48 249.819 L2184.08 249.819 L2184.08 246.255 L2186.58 246.255 Q2188.33 246.255 2189.31 245.421 Q2190.28 244.588 2191.46 241.486 L2192.22 239.542 L2181.74 214.033 L2186.25 214.033 L2194.35 234.31 L2202.46 214.033 L2206.97 214.033 L2195.58 242.366 Z" fill="#000000" fill-rule="evenodd" fill-opacity="1" /><path clip-path="url(#clip390)" d="M 0 0 M2212.85 236.023 L2220.49 236.023 L2220.49 209.658 L2212.18 211.324 L2212.18 207.065 L2220.44 205.398 L2225.12 205.398 L2225.12 236.023 L2232.76 236.023 L2232.76 239.958 L2212.85 239.958 L2212.85 236.023 Z" fill="#000000" fill-rule="evenodd" fill-opacity="1" /></svg>
