<?xml version="1.0" encoding="utf-8"?>
<svg xmlns="http://www.w3.org/2000/svg" xmlns:xlink="http://www.w3.org/1999/xlink" width="600" height="400" viewBox="0 0 2400 1600">
<defs>
  <clipPath id="clip550">
    <rect x="0" y="0" width="2400" height="1600"/>
  </clipPath>
</defs>
<path clip-path="url(#clip550)" d="
M0 1600 L2400 1600 L2400 0 L0 0  Z
  " fill="#ffffff" fill-rule="evenodd" fill-opacity="1"/>
<defs>
  <clipPath id="clip551">
    <rect x="480" y="0" width="1681" height="1600"/>
  </clipPath>
</defs>
<defs>
  <clipPath id="clip552">
    <rect x="2137" y="0" width="73" height="1600"/>
  </clipPath>
</defs>
<path clip-path="url(#clip550)" d="
M199.874 1445.63 L2352.76 1445.63 L2352.76 88.065 L199.874 88.065  Z
  " fill="#ffffff" fill-rule="evenodd" fill-opacity="1"/>
<defs>
  <clipPath id="clip553">
    <rect x="199" y="88" width="2154" height="1359"/>
  </clipPath>
</defs>
<polyline clip-path="url(#clip553)" style="stroke:#000000; stroke-width:2; stroke-opacity:0.1; fill:none" points="
  486.474,1445.63 486.474,88.065 
  "/>
<polyline clip-path="url(#clip553)" style="stroke:#000000; stroke-width:2; stroke-opacity:0.1; fill:none" points="
  937.812,1445.63 937.812,88.065 
  "/>
<polyline clip-path="url(#clip553)" style="stroke:#000000; stroke-width:2; stroke-opacity:0.1; fill:none" points="
  1389.15,1445.63 1389.15,88.065 
  "/>
<polyline clip-path="url(#clip553)" style="stroke:#000000; stroke-width:2; stroke-opacity:0.1; fill:none" points="
  1840.49,1445.63 1840.49,88.065 
  "/>
<polyline clip-path="url(#clip553)" style="stroke:#000000; stroke-width:2; stroke-opacity:0.1; fill:none" points="
  2291.83,1445.63 2291.83,88.065 
  "/>
<polyline clip-path="url(#clip553)" style="stroke:#000000; stroke-width:2; stroke-opacity:0.1; fill:none" points="
  199.874,1272.09 2352.76,1272.09 
  "/>
<polyline clip-path="url(#clip553)" style="stroke:#000000; stroke-width:2; stroke-opacity:0.1; fill:none" points="
  199.874,1090.62 2352.76,1090.62 
  "/>
<polyline clip-path="url(#clip553)" style="stroke:#000000; stroke-width:2; stroke-opacity:0.1; fill:none" points="
  199.874,909.145 2352.76,909.145 
  "/>
<polyline clip-path="url(#clip553)" style="stroke:#000000; stroke-width:2; stroke-opacity:0.1; fill:none" points="
  199.874,727.674 2352.76,727.674 
  "/>
<polyline clip-path="url(#clip553)" style="stroke:#000000; stroke-width:2; stroke-opacity:0.1; fill:none" points="
  199.874,546.202 2352.76,546.202 
  "/>
<polyline clip-path="url(#clip553)" style="stroke:#000000; stroke-width:2; stroke-opacity:0.1; fill:none" points="
  199.874,364.731 2352.76,364.731 
  "/>
<polyline clip-path="url(#clip553)" style="stroke:#000000; stroke-width:2; stroke-opacity:0.1; fill:none" points="
  199.874,183.26 2352.76,183.26 
  "/>
<polyline clip-path="url(#clip550)" style="stroke:#000000; stroke-width:4; stroke-opacity:1; fill:none" points="
  199.874,1445.63 2352.76,1445.63 
  "/>
<polyline clip-path="url(#clip550)" style="stroke:#000000; stroke-width:4; stroke-opacity:1; fill:none" points="
  199.874,1445.63 199.874,88.065 
  "/>
<polyline clip-path="url(#clip550)" style="stroke:#000000; stroke-width:4; stroke-opacity:1; fill:none" points="
  486.474,1445.63 486.474,1429.34 
  "/>
<polyline clip-path="url(#clip550)" style="stroke:#000000; stroke-width:4; stroke-opacity:1; fill:none" points="
  937.812,1445.63 937.812,1429.34 
  "/>
<polyline clip-path="url(#clip550)" style="stroke:#000000; stroke-width:4; stroke-opacity:1; fill:none" points="
  1389.15,1445.63 1389.15,1429.34 
  "/>
<polyline clip-path="url(#clip550)" style="stroke:#000000; stroke-width:4; stroke-opacity:1; fill:none" points="
  1840.49,1445.63 1840.49,1429.34 
  "/>
<polyline clip-path="url(#clip550)" style="stroke:#000000; stroke-width:4; stroke-opacity:1; fill:none" points="
  2291.83,1445.63 2291.83,1429.34 
  "/>
<polyline clip-path="url(#clip550)" style="stroke:#000000; stroke-width:4; stroke-opacity:1; fill:none" points="
  199.874,1272.09 225.709,1272.09 
  "/>
<polyline clip-path="url(#clip550)" style="stroke:#000000; stroke-width:4; stroke-opacity:1; fill:none" points="
  199.874,1090.62 225.709,1090.62 
  "/>
<polyline clip-path="url(#clip550)" style="stroke:#000000; stroke-width:4; stroke-opacity:1; fill:none" points="
  199.874,909.145 225.709,909.145 
  "/>
<polyline clip-path="url(#clip550)" style="stroke:#000000; stroke-width:4; stroke-opacity:1; fill:none" points="
  199.874,727.674 225.709,727.674 
  "/>
<polyline clip-path="url(#clip550)" style="stroke:#000000; stroke-width:4; stroke-opacity:1; fill:none" points="
  199.874,546.202 225.709,546.202 
  "/>
<polyline clip-path="url(#clip550)" style="stroke:#000000; stroke-width:4; stroke-opacity:1; fill:none" points="
  199.874,364.731 225.709,364.731 
  "/>
<polyline clip-path="url(#clip550)" style="stroke:#000000; stroke-width:4; stroke-opacity:1; fill:none" points="
  199.874,183.26 225.709,183.26 
  "/>
<path clip-path="url(#clip550)" d="M 0 0 M481.126 1495.16 L497.446 1495.16 L497.446 1499.1 L475.501 1499.1 L475.501 1495.16 Q478.164 1492.41 482.747 1487.78 Q487.353 1483.13 488.534 1481.78 Q490.779 1479.26 491.659 1477.52 Q492.562 1475.77 492.562 1474.08 Q492.562 1471.32 490.617 1469.59 Q488.696 1467.85 485.594 1467.85 Q483.395 1467.85 480.941 1468.61 Q478.511 1469.38 475.733 1470.93 L475.733 1466.21 Q478.557 1465.07 481.011 1464.49 Q483.464 1463.91 485.501 1463.91 Q490.872 1463.91 494.066 1466.6 Q497.261 1469.28 497.261 1473.77 Q497.261 1475.9 496.45 1477.83 Q495.663 1479.72 493.557 1482.32 Q492.978 1482.99 489.876 1486.21 Q486.775 1489.4 481.126 1495.16 Z" fill="#000000" fill-rule="evenodd" fill-opacity="1" /><path clip-path="url(#clip550)" d="M 0 0 M940.821 1468.61 L929.015 1487.06 L940.821 1487.06 L940.821 1468.61 M939.594 1464.54 L945.474 1464.54 L945.474 1487.06 L950.404 1487.06 L950.404 1490.95 L945.474 1490.95 L945.474 1499.1 L940.821 1499.1 L940.821 1490.95 L925.219 1490.95 L925.219 1486.44 L939.594 1464.54 Z" fill="#000000" fill-rule="evenodd" fill-opacity="1" /><path clip-path="url(#clip550)" d="M 0 0 M1389.55 1479.96 Q1386.41 1479.96 1384.55 1482.11 Q1382.73 1484.26 1382.73 1488.01 Q1382.73 1491.74 1384.55 1493.91 Q1386.41 1496.07 1389.55 1496.07 Q1392.7 1496.07 1394.53 1493.91 Q1396.38 1491.74 1396.38 1488.01 Q1396.38 1484.26 1394.53 1482.11 Q1392.7 1479.96 1389.55 1479.96 M1398.84 1465.3 L1398.84 1469.56 Q1397.08 1468.73 1395.27 1468.29 Q1393.49 1467.85 1391.73 1467.85 Q1387.1 1467.85 1384.65 1470.97 Q1382.22 1474.1 1381.87 1480.42 Q1383.24 1478.4 1385.3 1477.34 Q1387.36 1476.25 1389.83 1476.25 Q1395.04 1476.25 1398.05 1479.42 Q1401.08 1482.57 1401.08 1488.01 Q1401.08 1493.34 1397.93 1496.55 Q1394.79 1499.77 1389.55 1499.77 Q1383.56 1499.77 1380.39 1495.19 Q1377.22 1490.58 1377.22 1481.85 Q1377.22 1473.66 1381.11 1468.8 Q1384.99 1463.91 1391.55 1463.91 Q1393.3 1463.91 1395.09 1464.26 Q1396.89 1464.61 1398.84 1465.3 Z" fill="#000000" fill-rule="evenodd" fill-opacity="1" /><path clip-path="url(#clip550)" d="M 0 0 M1840.49 1482.69 Q1837.15 1482.69 1835.23 1484.47 Q1833.33 1486.25 1833.33 1489.38 Q1833.33 1492.5 1835.23 1494.28 Q1837.15 1496.07 1840.49 1496.07 Q1843.82 1496.07 1845.74 1494.28 Q1847.66 1492.48 1847.66 1489.38 Q1847.66 1486.25 1845.74 1484.47 Q1843.84 1482.69 1840.49 1482.69 M1835.81 1480.7 Q1832.8 1479.96 1831.11 1477.9 Q1829.45 1475.84 1829.45 1472.87 Q1829.45 1468.73 1832.39 1466.32 Q1835.35 1463.91 1840.49 1463.91 Q1845.65 1463.91 1848.59 1466.32 Q1851.53 1468.73 1851.53 1472.87 Q1851.53 1475.84 1849.84 1477.9 Q1848.17 1479.96 1845.19 1480.7 Q1848.57 1481.48 1850.44 1483.77 Q1852.34 1486.07 1852.34 1489.38 Q1852.34 1494.4 1849.26 1497.09 Q1846.2 1499.77 1840.49 1499.77 Q1834.77 1499.77 1831.69 1497.09 Q1828.64 1494.4 1828.64 1489.38 Q1828.64 1486.07 1830.53 1483.77 Q1832.43 1481.48 1835.81 1480.7 M1834.1 1473.31 Q1834.1 1476 1835.77 1477.5 Q1837.45 1479.01 1840.49 1479.01 Q1843.5 1479.01 1845.19 1477.5 Q1846.9 1476 1846.9 1473.31 Q1846.9 1470.63 1845.19 1469.12 Q1843.5 1467.62 1840.49 1467.62 Q1837.45 1467.62 1835.77 1469.12 Q1834.1 1470.63 1834.1 1473.31 Z" fill="#000000" fill-rule="evenodd" fill-opacity="1" /><path clip-path="url(#clip550)" d="M 0 0 M2268.7 1495.16 L2276.34 1495.16 L2276.34 1468.8 L2268.03 1470.46 L2268.03 1466.21 L2276.29 1464.54 L2280.97 1464.54 L2280.97 1495.16 L2288.61 1495.16 L2288.61 1499.1 L2268.7 1499.1 L2268.7 1495.16 Z" fill="#000000" fill-rule="evenodd" fill-opacity="1" /><path clip-path="url(#clip550)" d="M 0 0 M2303.68 1467.62 Q2300.07 1467.62 2298.24 1471.18 Q2296.43 1474.72 2296.43 1481.85 Q2296.43 1488.96 2298.24 1492.52 Q2300.07 1496.07 2303.68 1496.07 Q2307.31 1496.07 2309.12 1492.52 Q2310.95 1488.96 2310.95 1481.85 Q2310.95 1474.72 2309.12 1471.18 Q2307.31 1467.62 2303.68 1467.62 M2303.68 1463.91 Q2309.49 1463.91 2312.54 1468.52 Q2315.62 1473.1 2315.62 1481.85 Q2315.62 1490.58 2312.54 1495.19 Q2309.49 1499.77 2303.68 1499.77 Q2297.87 1499.77 2294.79 1495.19 Q2291.73 1490.58 2291.73 1481.85 Q2291.73 1473.1 2294.79 1468.52 Q2297.87 1463.91 2303.68 1463.91 Z" fill="#000000" fill-rule="evenodd" fill-opacity="1" /><path clip-path="url(#clip550)" d="M 0 0 M128.56 1257.89 Q124.948 1257.89 123.12 1261.45 Q121.314 1264.99 121.314 1272.12 Q121.314 1279.23 123.12 1282.79 Q124.948 1286.33 128.56 1286.33 Q132.194 1286.33 133.999 1282.79 Q135.828 1279.23 135.828 1272.12 Q135.828 1264.99 133.999 1261.45 Q132.194 1257.89 128.56 1257.89 M128.56 1254.18 Q134.37 1254.18 137.425 1258.79 Q140.504 1263.37 140.504 1272.12 Q140.504 1280.85 137.425 1285.46 Q134.37 1290.04 128.56 1290.04 Q122.749 1290.04 119.671 1285.46 Q116.615 1280.85 116.615 1272.12 Q116.615 1263.37 119.671 1258.79 Q122.749 1254.18 128.56 1254.18 Z" fill="#000000" fill-rule="evenodd" fill-opacity="1" /><path clip-path="url(#clip550)" d="M 0 0 M145.573 1283.49 L150.458 1283.49 L150.458 1289.37 L145.573 1289.37 L145.573 1283.49 Z" fill="#000000" fill-rule="evenodd" fill-opacity="1" /><path clip-path="url(#clip550)" d="M 0 0 M159.555 1285.43 L175.874 1285.43 L175.874 1289.37 L153.93 1289.37 L153.93 1285.43 Q156.592 1282.68 161.175 1278.05 Q165.782 1273.4 166.962 1272.05 Q169.207 1269.53 170.087 1267.79 Q170.99 1266.03 170.99 1264.34 Q170.99 1261.59 169.045 1259.85 Q167.124 1258.12 164.022 1258.12 Q161.823 1258.12 159.37 1258.88 Q156.939 1259.65 154.161 1261.2 L154.161 1256.47 Q156.985 1255.34 159.439 1254.76 Q161.893 1254.18 163.93 1254.18 Q169.3 1254.18 172.494 1256.87 Q175.689 1259.55 175.689 1264.04 Q175.689 1266.17 174.879 1268.09 Q174.092 1269.99 171.985 1272.58 Q171.407 1273.26 168.305 1276.47 Q165.203 1279.67 159.555 1285.43 Z" fill="#000000" fill-rule="evenodd" fill-opacity="1" /><path clip-path="url(#clip550)" d="M 0 0 M127.61 1076.41 Q123.999 1076.41 122.171 1079.98 Q120.365 1083.52 120.365 1090.65 Q120.365 1097.76 122.171 1101.32 Q123.999 1104.86 127.61 1104.86 Q131.245 1104.86 133.05 1101.32 Q134.879 1097.76 134.879 1090.65 Q134.879 1083.52 133.05 1079.98 Q131.245 1076.41 127.61 1076.41 M127.61 1072.71 Q133.421 1072.71 136.476 1077.32 Q139.555 1081.9 139.555 1090.65 Q139.555 1099.38 136.476 1103.98 Q133.421 1108.57 127.61 1108.57 Q121.8 1108.57 118.722 1103.98 Q115.666 1099.38 115.666 1090.65 Q115.666 1081.9 118.722 1077.32 Q121.8 1072.71 127.61 1072.71 Z" fill="#000000" fill-rule="evenodd" fill-opacity="1" /><path clip-path="url(#clip550)" d="M 0 0 M144.624 1102.02 L149.508 1102.02 L149.508 1107.9 L144.624 1107.9 L144.624 1102.02 Z" fill="#000000" fill-rule="evenodd" fill-opacity="1" /><path clip-path="url(#clip550)" d="M 0 0 M168.744 1089.26 Q172.101 1089.98 173.976 1092.25 Q175.874 1094.52 175.874 1097.85 Q175.874 1102.97 172.356 1105.77 Q168.837 1108.57 162.356 1108.57 Q160.18 1108.57 157.865 1108.13 Q155.573 1107.71 153.12 1106.85 L153.12 1102.34 Q155.064 1103.47 157.379 1104.05 Q159.694 1104.63 162.217 1104.63 Q166.615 1104.63 168.907 1102.9 Q171.221 1101.16 171.221 1097.85 Q171.221 1094.79 169.069 1093.08 Q166.939 1091.35 163.12 1091.35 L159.092 1091.35 L159.092 1087.5 L163.305 1087.5 Q166.754 1087.5 168.582 1086.14 Q170.411 1084.75 170.411 1082.16 Q170.411 1079.49 168.513 1078.08 Q166.638 1076.65 163.12 1076.65 Q161.198 1076.65 158.999 1077.06 Q156.8 1077.48 154.161 1078.36 L154.161 1074.19 Q156.823 1073.45 159.138 1073.08 Q161.476 1072.71 163.536 1072.71 Q168.86 1072.71 171.962 1075.14 Q175.064 1077.55 175.064 1081.67 Q175.064 1084.54 173.42 1086.53 Q171.777 1088.5 168.744 1089.26 Z" fill="#000000" fill-rule="evenodd" fill-opacity="1" /><path clip-path="url(#clip550)" d="M 0 0 M126.476 894.943 Q122.865 894.943 121.036 898.508 Q119.231 902.05 119.231 909.179 Q119.231 916.286 121.036 919.851 Q122.865 923.392 126.476 923.392 Q130.11 923.392 131.916 919.851 Q133.745 916.286 133.745 909.179 Q133.745 902.05 131.916 898.508 Q130.11 894.943 126.476 894.943 M126.476 891.24 Q132.286 891.24 135.342 895.846 Q138.421 900.43 138.421 909.179 Q138.421 917.906 135.342 922.513 Q132.286 927.096 126.476 927.096 Q120.666 927.096 117.587 922.513 Q114.532 917.906 114.532 909.179 Q114.532 900.43 117.587 895.846 Q120.666 891.24 126.476 891.24 Z" fill="#000000" fill-rule="evenodd" fill-opacity="1" /><path clip-path="url(#clip550)" d="M 0 0 M143.49 920.545 L148.374 920.545 L148.374 926.425 L143.49 926.425 L143.49 920.545 Z" fill="#000000" fill-rule="evenodd" fill-opacity="1" /><path clip-path="url(#clip550)" d="M 0 0 M166.291 895.939 L154.485 914.388 L166.291 914.388 L166.291 895.939 M165.064 891.865 L170.944 891.865 L170.944 914.388 L175.874 914.388 L175.874 918.277 L170.944 918.277 L170.944 926.425 L166.291 926.425 L166.291 918.277 L150.689 918.277 L150.689 913.763 L165.064 891.865 Z" fill="#000000" fill-rule="evenodd" fill-opacity="1" /><path clip-path="url(#clip550)" d="M 0 0 M127.958 713.472 Q124.347 713.472 122.518 717.037 Q120.712 720.579 120.712 727.708 Q120.712 734.815 122.518 738.379 Q124.347 741.921 127.958 741.921 Q131.592 741.921 133.397 738.379 Q135.226 734.815 135.226 727.708 Q135.226 720.579 133.397 717.037 Q131.592 713.472 127.958 713.472 M127.958 709.769 Q133.768 709.769 136.823 714.375 Q139.902 718.958 139.902 727.708 Q139.902 736.435 136.823 741.041 Q133.768 745.625 127.958 745.625 Q122.148 745.625 119.069 741.041 Q116.013 736.435 116.013 727.708 Q116.013 718.958 119.069 714.375 Q122.148 709.769 127.958 709.769 Z" fill="#000000" fill-rule="evenodd" fill-opacity="1" /><path clip-path="url(#clip550)" d="M 0 0 M144.971 739.074 L149.856 739.074 L149.856 744.954 L144.971 744.954 L144.971 739.074 Z" fill="#000000" fill-rule="evenodd" fill-opacity="1" /><path clip-path="url(#clip550)" d="M 0 0 M154.971 710.394 L173.328 710.394 L173.328 714.329 L159.254 714.329 L159.254 722.801 Q160.272 722.454 161.291 722.292 Q162.309 722.106 163.328 722.106 Q169.115 722.106 172.494 725.278 Q175.874 728.449 175.874 733.866 Q175.874 739.444 172.402 742.546 Q168.93 745.625 162.61 745.625 Q160.434 745.625 158.166 745.254 Q155.92 744.884 153.513 744.143 L153.513 739.444 Q155.596 740.579 157.819 741.134 Q160.041 741.69 162.518 741.69 Q166.522 741.69 168.86 739.583 Q171.198 737.477 171.198 733.866 Q171.198 730.255 168.86 728.148 Q166.522 726.042 162.518 726.042 Q160.643 726.042 158.768 726.458 Q156.916 726.875 154.971 727.755 L154.971 710.394 Z" fill="#000000" fill-rule="evenodd" fill-opacity="1" /><path clip-path="url(#clip550)" d="M 0 0 M126.8 532.001 Q123.189 532.001 121.36 535.566 Q119.555 539.107 119.555 546.237 Q119.555 553.343 121.36 556.908 Q123.189 560.45 126.8 560.45 Q130.435 560.45 132.24 556.908 Q134.069 553.343 134.069 546.237 Q134.069 539.107 132.24 535.566 Q130.435 532.001 126.8 532.001 M126.8 528.297 Q132.61 528.297 135.666 532.904 Q138.745 537.487 138.745 546.237 Q138.745 554.964 135.666 559.57 Q132.61 564.154 126.8 564.154 Q120.99 564.154 117.911 559.57 Q114.856 554.964 114.856 546.237 Q114.856 537.487 117.911 532.904 Q120.99 528.297 126.8 528.297 Z" fill="#000000" fill-rule="evenodd" fill-opacity="1" /><path clip-path="url(#clip550)" d="M 0 0 M143.814 557.603 L148.698 557.603 L148.698 563.482 L143.814 563.482 L143.814 557.603 Z" fill="#000000" fill-rule="evenodd" fill-opacity="1" /><path clip-path="url(#clip550)" d="M 0 0 M164.346 544.339 Q161.198 544.339 159.346 546.492 Q157.518 548.644 157.518 552.394 Q157.518 556.121 159.346 558.297 Q161.198 560.45 164.346 560.45 Q167.495 560.45 169.323 558.297 Q171.175 556.121 171.175 552.394 Q171.175 548.644 169.323 546.492 Q167.495 544.339 164.346 544.339 M173.629 529.686 L173.629 533.945 Q171.869 533.112 170.064 532.672 Q168.282 532.232 166.522 532.232 Q161.893 532.232 159.439 535.357 Q157.008 538.482 156.661 544.802 Q158.027 542.788 160.087 541.723 Q162.147 540.635 164.624 540.635 Q169.832 540.635 172.842 543.806 Q175.874 546.955 175.874 552.394 Q175.874 557.718 172.726 560.936 Q169.578 564.154 164.346 564.154 Q158.351 564.154 155.18 559.57 Q152.008 554.964 152.008 546.237 Q152.008 538.043 155.897 533.182 Q159.786 528.297 166.337 528.297 Q168.096 528.297 169.879 528.644 Q171.684 528.992 173.629 529.686 Z" fill="#000000" fill-rule="evenodd" fill-opacity="1" /><path clip-path="url(#clip550)" d="M 0 0 M127.865 350.53 Q124.254 350.53 122.425 354.095 Q120.62 357.636 120.62 364.766 Q120.62 371.872 122.425 375.437 Q124.254 378.979 127.865 378.979 Q131.499 378.979 133.305 375.437 Q135.134 371.872 135.134 364.766 Q135.134 357.636 133.305 354.095 Q131.499 350.53 127.865 350.53 M127.865 346.826 Q133.675 346.826 136.731 351.433 Q139.809 356.016 139.809 364.766 Q139.809 373.493 136.731 378.099 Q133.675 382.682 127.865 382.682 Q122.055 382.682 118.976 378.099 Q115.921 373.493 115.921 364.766 Q115.921 356.016 118.976 351.433 Q122.055 346.826 127.865 346.826 Z" fill="#000000" fill-rule="evenodd" fill-opacity="1" /><path clip-path="url(#clip550)" d="M 0 0 M144.879 376.131 L149.763 376.131 L149.763 382.011 L144.879 382.011 L144.879 376.131 Z" fill="#000000" fill-rule="evenodd" fill-opacity="1" /><path clip-path="url(#clip550)" d="M 0 0 M153.652 347.451 L175.874 347.451 L175.874 349.442 L163.328 382.011 L158.444 382.011 L170.249 351.386 L153.652 351.386 L153.652 347.451 Z" fill="#000000" fill-rule="evenodd" fill-opacity="1" /><path clip-path="url(#clip550)" d="M 0 0 M127.055 169.059 Q123.444 169.059 121.615 172.623 Q119.81 176.165 119.81 183.295 Q119.81 190.401 121.615 193.966 Q123.444 197.507 127.055 197.507 Q130.689 197.507 132.495 193.966 Q134.323 190.401 134.323 183.295 Q134.323 176.165 132.495 172.623 Q130.689 169.059 127.055 169.059 M127.055 165.355 Q132.865 165.355 135.921 169.961 Q138.999 174.545 138.999 183.295 Q138.999 192.021 135.921 196.628 Q132.865 201.211 127.055 201.211 Q121.245 201.211 118.166 196.628 Q115.111 192.021 115.111 183.295 Q115.111 174.545 118.166 169.961 Q121.245 165.355 127.055 165.355 Z" fill="#000000" fill-rule="evenodd" fill-opacity="1" /><path clip-path="url(#clip550)" d="M 0 0 M144.069 194.66 L148.953 194.66 L148.953 200.54 L144.069 200.54 L144.069 194.66 Z" fill="#000000" fill-rule="evenodd" fill-opacity="1" /><path clip-path="url(#clip550)" d="M 0 0 M164.022 184.128 Q160.689 184.128 158.768 185.91 Q156.87 187.693 156.87 190.818 Q156.87 193.943 158.768 195.725 Q160.689 197.507 164.022 197.507 Q167.356 197.507 169.277 195.725 Q171.198 193.919 171.198 190.818 Q171.198 187.693 169.277 185.91 Q167.379 184.128 164.022 184.128 M159.346 182.137 Q156.337 181.396 154.647 179.336 Q152.981 177.276 152.981 174.313 Q152.981 170.17 155.92 167.762 Q158.883 165.355 164.022 165.355 Q169.184 165.355 172.124 167.762 Q175.064 170.17 175.064 174.313 Q175.064 177.276 173.374 179.336 Q171.707 181.396 168.721 182.137 Q172.101 182.924 173.976 185.216 Q175.874 187.507 175.874 190.818 Q175.874 195.841 172.795 198.526 Q169.74 201.211 164.022 201.211 Q158.305 201.211 155.226 198.526 Q152.171 195.841 152.171 190.818 Q152.171 187.507 154.069 185.216 Q155.967 182.924 159.346 182.137 M157.633 174.753 Q157.633 177.438 159.3 178.943 Q160.99 180.447 164.022 180.447 Q167.032 180.447 168.721 178.943 Q170.434 177.438 170.434 174.753 Q170.434 172.068 168.721 170.563 Q167.032 169.059 164.022 169.059 Q160.99 169.059 159.3 170.563 Q157.633 172.068 157.633 174.753 Z" fill="#000000" fill-rule="evenodd" fill-opacity="1" /><path clip-path="url(#clip550)" d="M 0 0 M1296.83 4.53628 Q1296.74 4.94617 1296.58 5.68398 Q1296.42 6.3808 1295.68 8.59422 Q1294.94 10.8076 1293.96 13.0621 Q1293.01 15.2755 1291.17 18.3907 Q1289.37 21.4649 1287.15 24.2521 Q1286.54 24.9899 1286.42 25.4408 Q1286.33 25.8507 1286.33 27.2034 Q1286.33 35.7291 1288.92 35.7291 Q1289.04 35.7291 1289.24 35.7291 Q1289.49 35.6881 1290.1 35.4832 Q1290.76 35.2373 1291.33 34.8683 Q1291.91 34.4585 1292.56 33.6387 Q1293.22 32.7779 1293.63 31.6302 Q1294 30.8104 1294.74 30.8104 Q1295.72 30.8104 1295.72 31.6302 Q1295.72 33.1058 1293.67 35.3602 Q1291.62 37.6146 1288.67 37.6146 Q1285.84 37.6146 1283.83 35.7701 Q1281.87 33.8846 1281.05 30.5235 Q1272.19 37.6146 1263.34 37.6146 Q1257.11 37.6146 1253.42 33.5567 Q1249.73 29.4578 1249.73 23.3913 Q1249.73 17.5709 1252.93 12.0373 Q1256.16 6.50377 1261.41 3.06067 Q1266.7 -0.423422 1272.31 -0.423422 Q1274.28 -0.423422 1276.17 0.109439 Q1278.05 0.60131 1279.94 1.87198 Q1281.82 3.14265 1283.22 5.06914 Q1284.61 6.99564 1285.47 10.0288 Q1286.33 13.0621 1286.33 16.8741 L1286.33 22.0797 Q1291.74 15.2345 1294.57 5.43805 Q1294.98 3.96243 1295.23 3.79847 Q1295.39 3.67551 1295.8 3.67551 Q1296.21 3.67551 1296.46 3.92144 Q1296.74 4.12639 1296.79 4.33133 L1296.83 4.53628 M1280.72 28.3511 Q1280.55 26.9164 1280.55 18.9645 Q1280.55 17.4479 1280.55 16.6281 Q1280.55 15.7673 1280.47 14.1278 Q1280.39 12.4882 1280.23 11.4635 Q1280.1 10.4387 1279.82 8.96312 Q1279.53 7.48751 1279.12 6.54476 Q1278.71 5.602 1278.05 4.53628 Q1277.44 3.47056 1276.62 2.85572 Q1275.84 2.24088 1274.69 1.83099 Q1273.59 1.4211 1272.23 1.4211 Q1270.55 1.4211 1268.79 2.03594 Q1267.07 2.60978 1264.85 4.4543 Q1262.64 6.25783 1260.8 9.12708 Q1258.87 12.1603 1257.39 17.7348 Q1255.96 23.2684 1255.96 26.5885 Q1255.96 30.7694 1257.89 33.2698 Q1259.81 35.7291 1263.5 35.7291 Q1272.31 35.7291 1280.72 28.3511 Z" fill="#000000" fill-rule="evenodd" fill-opacity="1" /><path clip-path="url(#clip550)" d="M 0 0 M1290.48 1525.39 Q1290.48 1527.19 1289.35 1528.22 Q1288.22 1529.22 1286.93 1529.22 Q1285.71 1529.22 1285.06 1528.51 Q1284.42 1527.8 1284.42 1526.9 Q1284.42 1525.68 1285.32 1524.61 Q1286.22 1523.55 1287.58 1523.33 Q1286.26 1522.49 1284.29 1522.49 Q1283 1522.49 1281.88 1523.16 Q1280.78 1523.84 1280.1 1524.71 Q1279.46 1525.58 1278.88 1526.84 Q1278.33 1528.06 1278.11 1528.8 Q1277.91 1529.51 1277.75 1530.28 L1275.5 1539.3 Q1274.4 1543.58 1274.4 1545.1 Q1274.4 1546.97 1275.31 1548.22 Q1276.21 1549.44 1278.01 1549.44 Q1278.72 1549.44 1279.53 1549.25 Q1280.33 1549.03 1281.36 1548.45 Q1282.42 1547.83 1283.36 1546.93 Q1284.32 1546 1285.26 1544.42 Q1286.19 1542.84 1286.8 1540.81 Q1287 1540.11 1287.64 1540.11 Q1288.45 1540.11 1288.45 1540.75 Q1288.45 1541.3 1288 1542.46 Q1287.58 1543.58 1286.64 1545.06 Q1285.74 1546.51 1284.55 1547.83 Q1283.36 1549.12 1281.59 1550.02 Q1279.81 1550.93 1277.88 1550.93 Q1275.11 1550.93 1273.28 1549.44 Q1271.44 1547.96 1270.77 1545.9 Q1270.6 1546.19 1270.38 1546.58 Q1270.15 1546.97 1269.48 1547.83 Q1268.83 1548.67 1268.09 1549.32 Q1267.35 1549.93 1266.19 1550.41 Q1265.06 1550.93 1263.84 1550.93 Q1262.29 1550.93 1260.91 1550.48 Q1259.56 1550.02 1258.59 1548.99 Q1257.63 1547.96 1257.63 1546.55 Q1257.63 1544.97 1258.69 1543.87 Q1259.78 1542.75 1261.26 1542.75 Q1262.2 1542.75 1262.94 1543.29 Q1263.71 1543.84 1263.71 1545.03 Q1263.71 1546.35 1262.81 1547.35 Q1261.91 1548.35 1260.62 1548.61 Q1261.94 1549.44 1263.91 1549.44 Q1266.03 1549.44 1267.71 1547.58 Q1269.38 1545.71 1270.19 1542.59 Q1272.18 1535.08 1272.96 1531.73 Q1273.73 1528.35 1273.73 1526.9 Q1273.73 1525.55 1273.37 1524.61 Q1273.02 1523.68 1272.41 1523.26 Q1271.83 1522.81 1271.28 1522.65 Q1270.77 1522.49 1270.19 1522.49 Q1269.22 1522.49 1268.12 1522.88 Q1267.06 1523.26 1265.77 1524.16 Q1264.52 1525.03 1263.33 1526.84 Q1262.13 1528.64 1261.33 1531.12 Q1261.17 1531.86 1260.46 1531.86 Q1259.69 1531.83 1259.69 1531.18 Q1259.69 1530.64 1260.1 1529.51 Q1260.56 1528.35 1261.46 1526.9 Q1262.39 1525.45 1263.58 1524.16 Q1264.81 1522.84 1266.58 1521.94 Q1268.38 1521.04 1270.31 1521.04 Q1271.18 1521.04 1272.02 1521.23 Q1272.89 1521.39 1273.92 1521.88 Q1274.98 1522.36 1275.92 1523.42 Q1276.85 1524.49 1277.43 1526.03 Q1277.82 1525.29 1278.33 1524.58 Q1278.88 1523.87 1279.72 1523 Q1280.59 1522.1 1281.78 1521.59 Q1283 1521.04 1284.36 1521.04 Q1285.68 1521.04 1286.96 1521.39 Q1288.25 1521.72 1289.35 1522.78 Q1290.48 1523.81 1290.48 1525.39 Z" fill="#000000" fill-rule="evenodd" fill-opacity="1" /><path clip-path="url(#clip550)" d="M 0 0 M50.5695 752.42 Q51.0203 752.42 52.0831 752.71 L77.2681 759.022 Q82.8719 760.407 86.801 764.916 Q90.7302 769.393 90.7302 774.481 Q90.7302 777.541 89.0877 779.505 Q87.4774 781.47 84.9975 781.47 Q82.8075 781.47 81.7447 780.31 Q80.7141 779.151 80.7141 777.766 Q80.7141 777.315 80.843 776.832 Q80.9718 776.349 81.5193 775.834 Q82.0668 775.318 83.0008 775.318 Q84.5144 775.318 85.706 776.639 Q86.2535 777.283 86.3824 777.895 Q86.5112 778.475 86.5112 779.473 Q87.413 779.086 88.0249 778.378 Q88.6368 777.669 88.8622 776.864 Q89.1199 776.059 89.1843 775.544 Q89.2809 774.996 89.2809 774.481 Q89.2809 770.359 85.1263 767.203 Q83.8703 766.269 82.6143 765.592 Q81.3905 764.884 79.8768 764.368 Q78.3953 763.853 77.5902 763.628 Q76.785 763.37 74.9493 762.919 Q77.9444 765.914 77.9444 769.586 Q77.9444 771.132 77.5258 772.516 Q77.1071 773.869 76.2375 775.061 Q75.3358 776.252 73.7577 776.961 Q72.1796 777.637 70.0862 777.637 Q67.864 777.637 64.8366 776.768 Q61.8093 775.898 56.2377 773.805 Q53.1137 772.678 51.6 772.678 Q50.8593 772.678 50.4084 772.839 Q49.9253 773 49.7643 773.322 Q49.5711 773.644 49.5389 773.837 Q49.5067 773.998 49.5067 774.32 Q49.5067 776.22 51.439 777.991 Q53.3714 779.763 57.6869 780.987 Q58.4921 781.244 58.6853 781.405 Q58.8786 781.566 58.8786 782.049 Q58.8464 782.855 58.2022 782.855 Q57.9446 782.855 56.9462 782.565 Q55.9156 782.275 54.4019 781.599 Q52.8561 780.89 51.4712 779.924 Q50.0542 778.958 49.0558 777.444 Q48.0574 775.898 48.0574 774.127 Q48.0574 771.711 49.6355 770.23 Q51.1814 768.716 53.468 768.716 Q54.4019 768.716 55.2393 768.974 Q56.0444 769.199 58.2022 770.037 Q66.8978 773.418 71.149 773.418 Q72.1796 773.418 73.0491 773.257 Q73.8865 773.064 74.7238 772.645 Q75.529 772.227 76.0121 771.389 Q76.463 770.52 76.463 769.328 Q76.463 767.814 75.7544 766.397 Q75.0137 764.948 74.0153 764.046 Q73.0169 763.112 72.1796 762.565 Q71.31 761.985 70.8591 761.856 L59.0074 758.893 L53.7256 757.573 Q50.8593 756.961 50.1508 756.671 Q49.4745 756.285 49.1202 755.608 Q48.7659 754.932 48.7659 754.352 Q48.7659 753.547 49.249 753 Q49.7321 752.42 50.5695 752.42 Z" fill="#000000" fill-rule="evenodd" fill-opacity="1" /><polyline clip-path="url(#clip553)" style="stroke:#009af9; stroke-width:4; stroke-opacity:1; fill:none" points="
  260.805,1394.82 486.474,1407.21 712.143,722.123 937.812,1366.73 1163.48,1182.22 1389.15,234.369 1614.82,126.487 1840.49,934.887 2066.16,812.288 2291.83,219.041 
  
  "/>
<path clip-path="url(#clip550)" d="
M1990.77 254.277 L2280.99 254.277 L2280.99 133.317 L1990.77 133.317  Z
  " fill="#ffffff" fill-rule="evenodd" fill-opacity="1"/>
<polyline clip-path="url(#clip550)" style="stroke:#000000; stroke-width:4; stroke-opacity:1; fill:none" points="
  1990.77,254.277 2280.99,254.277 2280.99,133.317 1990.77,133.317 1990.77,254.277 
  "/>
<polyline clip-path="url(#clip550)" style="stroke:#009af9; stroke-width:4; stroke-opacity:1; fill:none" points="
  2014.69,193.797 2158.21,193.797 
  "/>
<path clip-path="url(#clip550)" d="M 0 0 M2195.98 213.484 Q2194.17 218.114 2192.46 219.526 Q2190.74 220.938 2187.87 220.938 L2184.47 220.938 L2184.47 217.373 L2186.97 217.373 Q2188.73 217.373 2189.7 216.54 Q2190.67 215.707 2191.86 212.605 L2192.62 210.66 L2182.13 185.151 L2186.65 185.151 L2194.75 205.429 L2202.85 185.151 L2207.36 185.151 L2195.98 213.484 Z" fill="#000000" fill-rule="evenodd" fill-opacity="1" /><path clip-path="url(#clip550)" d="M 0 0 M2213.24 207.142 L2220.88 207.142 L2220.88 180.776 L2212.57 182.443 L2212.57 178.184 L2220.84 176.517 L2225.51 176.517 L2225.51 207.142 L2233.15 207.142 L2233.15 211.077 L2213.24 211.077 L2213.24 207.142 Z" fill="#000000" fill-rule="evenodd" fill-opacity="1" /></svg>
