<?xml version="1.0" encoding="utf-8"?>
<svg xmlns="http://www.w3.org/2000/svg" xmlns:xlink="http://www.w3.org/1999/xlink" width="600" height="400" viewBox="0 0 2400 1600">
<defs>
  <clipPath id="clip260">
    <rect x="0" y="0" width="2400" height="1600"/>
  </clipPath>
</defs>
<path clip-path="url(#clip260)" d="
M0 1600 L2400 1600 L2400 0 L0 0  Z
  " fill="#ffffff" fill-rule="evenodd" fill-opacity="1"/>
<defs>
  <clipPath id="clip261">
    <rect x="480" y="0" width="1681" height="1600"/>
  </clipPath>
</defs>
<path clip-path="url(#clip260)" d="
M164.082 1470.7 L2352.76 1470.7 L2352.76 62.9921 L164.082 62.9921  Z
  " fill="#ffffff" fill-rule="evenodd" fill-opacity="1"/>
<defs>
  <clipPath id="clip262">
    <rect x="164" y="62" width="2190" height="1409"/>
  </clipPath>
</defs>
<polyline clip-path="url(#clip262)" style="stroke:#000000; stroke-width:2; stroke-opacity:0.1; fill:none" points="
  455.447,1470.7 455.447,62.9921 
  "/>
<polyline clip-path="url(#clip262)" style="stroke:#000000; stroke-width:2; stroke-opacity:0.1; fill:none" points="
  914.288,1470.7 914.288,62.9921 
  "/>
<polyline clip-path="url(#clip262)" style="stroke:#000000; stroke-width:2; stroke-opacity:0.1; fill:none" points="
  1373.13,1470.7 1373.13,62.9921 
  "/>
<polyline clip-path="url(#clip262)" style="stroke:#000000; stroke-width:2; stroke-opacity:0.1; fill:none" points="
  1831.97,1470.7 1831.97,62.9921 
  "/>
<polyline clip-path="url(#clip262)" style="stroke:#000000; stroke-width:2; stroke-opacity:0.1; fill:none" points="
  2290.81,1470.7 2290.81,62.9921 
  "/>
<polyline clip-path="url(#clip262)" style="stroke:#000000; stroke-width:2; stroke-opacity:0.1; fill:none" points="
  164.082,1436.93 2352.76,1436.93 
  "/>
<polyline clip-path="url(#clip262)" style="stroke:#000000; stroke-width:2; stroke-opacity:0.1; fill:none" points="
  164.082,1152.04 2352.76,1152.04 
  "/>
<polyline clip-path="url(#clip262)" style="stroke:#000000; stroke-width:2; stroke-opacity:0.1; fill:none" points="
  164.082,867.144 2352.76,867.144 
  "/>
<polyline clip-path="url(#clip262)" style="stroke:#000000; stroke-width:2; stroke-opacity:0.1; fill:none" points="
  164.082,582.249 2352.76,582.249 
  "/>
<polyline clip-path="url(#clip262)" style="stroke:#000000; stroke-width:2; stroke-opacity:0.1; fill:none" points="
  164.082,297.355 2352.76,297.355 
  "/>
<polyline clip-path="url(#clip260)" style="stroke:#000000; stroke-width:4; stroke-opacity:1; fill:none" points="
  164.082,1470.7 2352.76,1470.7 
  "/>
<polyline clip-path="url(#clip260)" style="stroke:#000000; stroke-width:4; stroke-opacity:1; fill:none" points="
  164.082,1470.7 164.082,62.9921 
  "/>
<polyline clip-path="url(#clip260)" style="stroke:#000000; stroke-width:4; stroke-opacity:1; fill:none" points="
  455.447,1470.7 455.447,1453.81 
  "/>
<polyline clip-path="url(#clip260)" style="stroke:#000000; stroke-width:4; stroke-opacity:1; fill:none" points="
  914.288,1470.7 914.288,1453.81 
  "/>
<polyline clip-path="url(#clip260)" style="stroke:#000000; stroke-width:4; stroke-opacity:1; fill:none" points="
  1373.13,1470.7 1373.13,1453.81 
  "/>
<polyline clip-path="url(#clip260)" style="stroke:#000000; stroke-width:4; stroke-opacity:1; fill:none" points="
  1831.97,1470.7 1831.97,1453.81 
  "/>
<polyline clip-path="url(#clip260)" style="stroke:#000000; stroke-width:4; stroke-opacity:1; fill:none" points="
  2290.81,1470.7 2290.81,1453.81 
  "/>
<polyline clip-path="url(#clip260)" style="stroke:#000000; stroke-width:4; stroke-opacity:1; fill:none" points="
  164.082,1436.93 190.347,1436.93 
  "/>
<polyline clip-path="url(#clip260)" style="stroke:#000000; stroke-width:4; stroke-opacity:1; fill:none" points="
  164.082,1152.04 190.347,1152.04 
  "/>
<polyline clip-path="url(#clip260)" style="stroke:#000000; stroke-width:4; stroke-opacity:1; fill:none" points="
  164.082,867.144 190.347,867.144 
  "/>
<polyline clip-path="url(#clip260)" style="stroke:#000000; stroke-width:4; stroke-opacity:1; fill:none" points="
  164.082,582.249 190.347,582.249 
  "/>
<polyline clip-path="url(#clip260)" style="stroke:#000000; stroke-width:4; stroke-opacity:1; fill:none" points="
  164.082,297.355 190.347,297.355 
  "/>
<path clip-path="url(#clip260)" d="M 0 0 M450.1 1520.24 L466.419 1520.24 L466.419 1524.17 L444.475 1524.17 L444.475 1520.24 Q447.137 1517.48 451.72 1512.85 Q456.326 1508.2 457.507 1506.86 Q459.752 1504.33 460.632 1502.6 Q461.535 1500.84 461.535 1499.15 Q461.535 1496.39 459.59 1494.66 Q457.669 1492.92 454.567 1492.92 Q452.368 1492.92 449.914 1493.69 Q447.484 1494.45 444.706 1496 L444.706 1491.28 Q447.53 1490.14 449.984 1489.57 Q452.437 1488.99 454.474 1488.99 Q459.845 1488.99 463.039 1491.67 Q466.234 1494.36 466.234 1498.85 Q466.234 1500.98 465.424 1502.9 Q464.636 1504.8 462.53 1507.39 Q461.951 1508.06 458.849 1511.28 Q455.748 1514.47 450.1 1520.24 Z" fill="#000000" fill-rule="evenodd" fill-opacity="1" /><path clip-path="url(#clip260)" d="M 0 0 M917.297 1493.69 L905.492 1512.13 L917.297 1512.13 L917.297 1493.69 M916.071 1489.61 L921.95 1489.61 L921.95 1512.13 L926.881 1512.13 L926.881 1516.02 L921.95 1516.02 L921.95 1524.17 L917.297 1524.17 L917.297 1516.02 L901.696 1516.02 L901.696 1511.51 L916.071 1489.61 Z" fill="#000000" fill-rule="evenodd" fill-opacity="1" /><path clip-path="url(#clip260)" d="M 0 0 M1373.53 1505.03 Q1370.39 1505.03 1368.53 1507.18 Q1366.71 1509.33 1366.71 1513.08 Q1366.71 1516.81 1368.53 1518.99 Q1370.39 1521.14 1373.53 1521.14 Q1376.68 1521.14 1378.51 1518.99 Q1380.36 1516.81 1380.36 1513.08 Q1380.36 1509.33 1378.51 1507.18 Q1376.68 1505.03 1373.53 1505.03 M1382.82 1490.38 L1382.82 1494.63 Q1381.06 1493.8 1379.25 1493.36 Q1377.47 1492.92 1375.71 1492.92 Q1371.08 1492.92 1368.63 1496.05 Q1366.2 1499.17 1365.85 1505.49 Q1367.22 1503.48 1369.28 1502.41 Q1371.34 1501.32 1373.81 1501.32 Q1379.02 1501.32 1382.03 1504.5 Q1385.06 1507.64 1385.06 1513.08 Q1385.06 1518.41 1381.91 1521.63 Q1378.77 1524.84 1373.53 1524.84 Q1367.54 1524.84 1364.37 1520.26 Q1361.2 1515.65 1361.2 1506.93 Q1361.2 1498.73 1365.09 1493.87 Q1368.97 1488.99 1375.53 1488.99 Q1377.28 1488.99 1379.07 1489.33 Q1380.87 1489.68 1382.82 1490.38 Z" fill="#000000" fill-rule="evenodd" fill-opacity="1" /><path clip-path="url(#clip260)" d="M 0 0 M1831.97 1507.76 Q1828.64 1507.76 1826.72 1509.54 Q1824.82 1511.32 1824.82 1514.45 Q1824.82 1517.57 1826.72 1519.36 Q1828.64 1521.14 1831.97 1521.14 Q1835.3 1521.14 1837.23 1519.36 Q1839.15 1517.55 1839.15 1514.45 Q1839.15 1511.32 1837.23 1509.54 Q1835.33 1507.76 1831.97 1507.76 M1827.3 1505.77 Q1824.29 1505.03 1822.6 1502.97 Q1820.93 1500.91 1820.93 1497.95 Q1820.93 1493.8 1823.87 1491.39 Q1826.83 1488.99 1831.97 1488.99 Q1837.13 1488.99 1840.07 1491.39 Q1843.01 1493.8 1843.01 1497.95 Q1843.01 1500.91 1841.32 1502.97 Q1839.66 1505.03 1836.67 1505.77 Q1840.05 1506.56 1841.92 1508.85 Q1843.82 1511.14 1843.82 1514.45 Q1843.82 1519.47 1840.74 1522.16 Q1837.69 1524.84 1831.97 1524.84 Q1826.25 1524.84 1823.17 1522.16 Q1820.12 1519.47 1820.12 1514.45 Q1820.12 1511.14 1822.02 1508.85 Q1823.92 1506.56 1827.3 1505.77 M1825.58 1498.38 Q1825.58 1501.07 1827.25 1502.57 Q1828.94 1504.08 1831.97 1504.08 Q1834.98 1504.08 1836.67 1502.57 Q1838.38 1501.07 1838.38 1498.38 Q1838.38 1495.7 1836.67 1494.2 Q1834.98 1492.69 1831.97 1492.69 Q1828.94 1492.69 1827.25 1494.2 Q1825.58 1495.7 1825.58 1498.38 Z" fill="#000000" fill-rule="evenodd" fill-opacity="1" /><path clip-path="url(#clip260)" d="M 0 0 M2267.69 1520.24 L2275.33 1520.24 L2275.33 1493.87 L2267.02 1495.54 L2267.02 1491.28 L2275.28 1489.61 L2279.96 1489.61 L2279.96 1520.24 L2287.59 1520.24 L2287.59 1524.17 L2267.69 1524.17 L2267.69 1520.24 Z" fill="#000000" fill-rule="evenodd" fill-opacity="1" /><path clip-path="url(#clip260)" d="M 0 0 M2302.66 1492.69 Q2299.05 1492.69 2297.22 1496.26 Q2295.42 1499.8 2295.42 1506.93 Q2295.42 1514.03 2297.22 1517.6 Q2299.05 1521.14 2302.66 1521.14 Q2306.3 1521.14 2308.1 1517.6 Q2309.93 1514.03 2309.93 1506.93 Q2309.93 1499.8 2308.1 1496.26 Q2306.3 1492.69 2302.66 1492.69 M2302.66 1488.99 Q2308.47 1488.99 2311.53 1493.59 Q2314.61 1498.18 2314.61 1506.93 Q2314.61 1515.65 2311.53 1520.26 Q2308.47 1524.84 2302.66 1524.84 Q2296.85 1524.84 2293.78 1520.26 Q2290.72 1515.65 2290.72 1506.93 Q2290.72 1498.18 2293.78 1493.59 Q2296.85 1488.99 2302.66 1488.99 Z" fill="#000000" fill-rule="evenodd" fill-opacity="1" /><path clip-path="url(#clip260)" d="M 0 0 M91.1706 1422.73 Q87.5596 1422.73 85.7309 1426.3 Q83.9253 1429.84 83.9253 1436.97 Q83.9253 1444.07 85.7309 1447.64 Q87.5596 1451.18 91.1706 1451.18 Q94.8049 1451.18 96.6104 1447.64 Q98.4391 1444.07 98.4391 1436.97 Q98.4391 1429.84 96.6104 1426.3 Q94.8049 1422.73 91.1706 1422.73 M91.1706 1419.03 Q96.9808 1419.03 100.036 1423.63 Q103.115 1428.22 103.115 1436.97 Q103.115 1445.69 100.036 1450.3 Q96.9808 1454.88 91.1706 1454.88 Q85.3605 1454.88 82.2818 1450.3 Q79.2263 1445.69 79.2263 1436.97 Q79.2263 1428.22 82.2818 1423.63 Q85.3605 1419.03 91.1706 1419.03 Z" fill="#000000" fill-rule="evenodd" fill-opacity="1" /><path clip-path="url(#clip260)" d="M 0 0 M108.184 1448.33 L113.069 1448.33 L113.069 1454.21 L108.184 1454.21 L108.184 1448.33 Z" fill="#000000" fill-rule="evenodd" fill-opacity="1" /><path clip-path="url(#clip260)" d="M 0 0 M128.138 1422.73 Q124.527 1422.73 122.698 1426.3 Q120.893 1429.84 120.893 1436.97 Q120.893 1444.07 122.698 1447.64 Q124.527 1451.18 128.138 1451.18 Q131.772 1451.18 133.578 1447.64 Q135.407 1444.07 135.407 1436.97 Q135.407 1429.84 133.578 1426.3 Q131.772 1422.73 128.138 1422.73 M128.138 1419.03 Q133.948 1419.03 137.004 1423.63 Q140.082 1428.22 140.082 1436.97 Q140.082 1445.69 137.004 1450.3 Q133.948 1454.88 128.138 1454.88 Q122.328 1454.88 119.249 1450.3 Q116.194 1445.69 116.194 1436.97 Q116.194 1428.22 119.249 1423.63 Q122.328 1419.03 128.138 1419.03 Z" fill="#000000" fill-rule="evenodd" fill-opacity="1" /><path clip-path="url(#clip260)" d="M 0 0 M92.7679 1137.84 Q89.1568 1137.84 87.3281 1141.4 Q85.5225 1144.94 85.5225 1152.07 Q85.5225 1159.18 87.3281 1162.74 Q89.1568 1166.29 92.7679 1166.29 Q96.4021 1166.29 98.2076 1162.74 Q100.036 1159.18 100.036 1152.07 Q100.036 1144.94 98.2076 1141.4 Q96.4021 1137.84 92.7679 1137.84 M92.7679 1134.13 Q98.578 1134.13 101.634 1138.74 Q104.712 1143.32 104.712 1152.07 Q104.712 1160.8 101.634 1165.41 Q98.578 1169.99 92.7679 1169.99 Q86.9577 1169.99 83.879 1165.41 Q80.8235 1160.8 80.8235 1152.07 Q80.8235 1143.32 83.879 1138.74 Q86.9577 1134.13 92.7679 1134.13 Z" fill="#000000" fill-rule="evenodd" fill-opacity="1" /><path clip-path="url(#clip260)" d="M 0 0 M109.782 1163.44 L114.666 1163.44 L114.666 1169.32 L109.782 1169.32 L109.782 1163.44 Z" fill="#000000" fill-rule="evenodd" fill-opacity="1" /><path clip-path="url(#clip260)" d="M 0 0 M123.763 1165.38 L140.082 1165.38 L140.082 1169.32 L118.138 1169.32 L118.138 1165.38 Q120.8 1162.63 125.383 1158 Q129.99 1153.35 131.17 1152 Q133.416 1149.48 134.295 1147.74 Q135.198 1145.98 135.198 1144.29 Q135.198 1141.54 133.254 1139.8 Q131.332 1138.07 128.231 1138.07 Q126.032 1138.07 123.578 1138.83 Q121.147 1139.6 118.37 1141.15 L118.37 1136.42 Q121.194 1135.29 123.647 1134.71 Q126.101 1134.13 128.138 1134.13 Q133.508 1134.13 136.703 1136.82 Q139.897 1139.5 139.897 1143.99 Q139.897 1146.12 139.087 1148.04 Q138.3 1149.94 136.194 1152.54 Q135.615 1153.21 132.513 1156.42 Q129.411 1159.62 123.763 1165.38 Z" fill="#000000" fill-rule="evenodd" fill-opacity="1" /><path clip-path="url(#clip260)" d="M 0 0 M90.6845 852.942 Q87.0734 852.942 85.2448 856.507 Q83.4392 860.049 83.4392 867.178 Q83.4392 874.285 85.2448 877.85 Q87.0734 881.391 90.6845 881.391 Q94.3188 881.391 96.1243 877.85 Q97.953 874.285 97.953 867.178 Q97.953 860.049 96.1243 856.507 Q94.3188 852.942 90.6845 852.942 M90.6845 849.239 Q96.4947 849.239 99.5502 853.845 Q102.629 858.428 102.629 867.178 Q102.629 875.905 99.5502 880.512 Q96.4947 885.095 90.6845 885.095 Q84.8744 885.095 81.7957 880.512 Q78.7402 875.905 78.7402 867.178 Q78.7402 858.428 81.7957 853.845 Q84.8744 849.239 90.6845 849.239 Z" fill="#000000" fill-rule="evenodd" fill-opacity="1" /><path clip-path="url(#clip260)" d="M 0 0 M107.698 878.544 L112.583 878.544 L112.583 884.424 L107.698 884.424 L107.698 878.544 Z" fill="#000000" fill-rule="evenodd" fill-opacity="1" /><path clip-path="url(#clip260)" d="M 0 0 M130.499 853.938 L118.694 872.387 L130.499 872.387 L130.499 853.938 M129.272 849.864 L135.152 849.864 L135.152 872.387 L140.082 872.387 L140.082 876.275 L135.152 876.275 L135.152 884.424 L130.499 884.424 L130.499 876.275 L114.897 876.275 L114.897 871.762 L129.272 849.864 Z" fill="#000000" fill-rule="evenodd" fill-opacity="1" /><path clip-path="url(#clip260)" d="M 0 0 M91.0086 568.048 Q87.3975 568.048 85.5688 571.613 Q83.7633 575.155 83.7633 582.284 Q83.7633 589.391 85.5688 592.955 Q87.3975 596.497 91.0086 596.497 Q94.6429 596.497 96.4484 592.955 Q98.2771 589.391 98.2771 582.284 Q98.2771 575.155 96.4484 571.613 Q94.6429 568.048 91.0086 568.048 M91.0086 564.344 Q96.8188 564.344 99.8743 568.951 Q102.953 573.534 102.953 582.284 Q102.953 591.011 99.8743 595.617 Q96.8188 600.201 91.0086 600.201 Q85.1985 600.201 82.1198 595.617 Q79.0642 591.011 79.0642 582.284 Q79.0642 573.534 82.1198 568.951 Q85.1985 564.344 91.0086 564.344 Z" fill="#000000" fill-rule="evenodd" fill-opacity="1" /><path clip-path="url(#clip260)" d="M 0 0 M108.022 593.65 L112.907 593.65 L112.907 599.529 L108.022 599.529 L108.022 593.65 Z" fill="#000000" fill-rule="evenodd" fill-opacity="1" /><path clip-path="url(#clip260)" d="M 0 0 M128.555 580.386 Q125.407 580.386 123.555 582.539 Q121.726 584.692 121.726 588.442 Q121.726 592.168 123.555 594.344 Q125.407 596.497 128.555 596.497 Q131.703 596.497 133.532 594.344 Q135.383 592.168 135.383 588.442 Q135.383 584.692 133.532 582.539 Q131.703 580.386 128.555 580.386 M137.837 565.733 L137.837 569.993 Q136.078 569.159 134.272 568.719 Q132.49 568.28 130.731 568.28 Q126.101 568.28 123.647 571.405 Q121.217 574.53 120.87 580.849 Q122.235 578.835 124.295 577.77 Q126.356 576.682 128.832 576.682 Q134.041 576.682 137.05 579.854 Q140.082 583.002 140.082 588.442 Q140.082 593.766 136.934 596.983 Q133.786 600.201 128.555 600.201 Q122.559 600.201 119.388 595.617 Q116.217 591.011 116.217 582.284 Q116.217 574.09 120.106 569.229 Q123.995 564.344 130.545 564.344 Q132.305 564.344 134.087 564.692 Q135.893 565.039 137.837 565.733 Z" fill="#000000" fill-rule="evenodd" fill-opacity="1" /><path clip-path="url(#clip260)" d="M 0 0 M91.2632 283.154 Q87.6521 283.154 85.8235 286.719 Q84.0179 290.26 84.0179 297.39 Q84.0179 304.497 85.8235 308.061 Q87.6521 311.603 91.2632 311.603 Q94.8975 311.603 96.703 308.061 Q98.5317 304.497 98.5317 297.39 Q98.5317 290.26 96.703 286.719 Q94.8975 283.154 91.2632 283.154 M91.2632 279.45 Q97.0734 279.45 100.129 284.057 Q103.208 288.64 103.208 297.39 Q103.208 306.117 100.129 310.723 Q97.0734 315.307 91.2632 315.307 Q85.4531 315.307 82.3744 310.723 Q79.3189 306.117 79.3189 297.39 Q79.3189 288.64 82.3744 284.057 Q85.4531 279.45 91.2632 279.45 Z" fill="#000000" fill-rule="evenodd" fill-opacity="1" /><path clip-path="url(#clip260)" d="M 0 0 M108.277 308.756 L113.161 308.756 L113.161 314.635 L108.277 314.635 L108.277 308.756 Z" fill="#000000" fill-rule="evenodd" fill-opacity="1" /><path clip-path="url(#clip260)" d="M 0 0 M128.231 298.223 Q124.897 298.223 122.976 300.006 Q121.078 301.788 121.078 304.913 Q121.078 308.038 122.976 309.821 Q124.897 311.603 128.231 311.603 Q131.564 311.603 133.485 309.821 Q135.407 308.015 135.407 304.913 Q135.407 301.788 133.485 300.006 Q131.587 298.223 128.231 298.223 M123.555 296.233 Q120.545 295.492 118.856 293.432 Q117.189 291.372 117.189 288.409 Q117.189 284.265 120.129 281.858 Q123.092 279.45 128.231 279.45 Q133.393 279.45 136.332 281.858 Q139.272 284.265 139.272 288.409 Q139.272 291.372 137.582 293.432 Q135.916 295.492 132.93 296.233 Q136.309 297.02 138.184 299.311 Q140.082 301.603 140.082 304.913 Q140.082 309.936 137.004 312.621 Q133.948 315.307 128.231 315.307 Q122.513 315.307 119.434 312.621 Q116.379 309.936 116.379 304.913 Q116.379 301.603 118.277 299.311 Q120.175 297.02 123.555 296.233 M121.842 288.848 Q121.842 291.534 123.508 293.038 Q125.198 294.543 128.231 294.543 Q131.24 294.543 132.93 293.038 Q134.643 291.534 134.643 288.848 Q134.643 286.163 132.93 284.659 Q131.24 283.154 128.231 283.154 Q125.198 283.154 123.508 284.659 Q121.842 286.163 121.842 288.848 Z" fill="#000000" fill-rule="evenodd" fill-opacity="1" /><path clip-path="url(#clip260)" d="M 0 0 M1278.93 4.53628 Q1278.85 4.94617 1278.68 5.68398 Q1278.52 6.3808 1277.78 8.59422 Q1277.04 10.8076 1276.06 13.0621 Q1275.12 15.2755 1273.27 18.3907 Q1271.47 21.4649 1269.26 24.2521 Q1268.64 24.9899 1268.52 25.4408 Q1268.44 25.8507 1268.44 27.2034 Q1268.44 35.7291 1271.02 35.7291 Q1271.14 35.7291 1271.35 35.7291 Q1271.59 35.6881 1272.21 35.4832 Q1272.86 35.2373 1273.44 34.8683 Q1274.01 34.4585 1274.67 33.6387 Q1275.32 32.7779 1275.73 31.6302 Q1276.1 30.8104 1276.84 30.8104 Q1277.82 30.8104 1277.82 31.6302 Q1277.82 33.1058 1275.77 35.3602 Q1273.72 37.6146 1270.77 37.6146 Q1267.95 37.6146 1265.94 35.7701 Q1263.97 33.8846 1263.15 30.5235 Q1254.3 37.6146 1245.44 37.6146 Q1239.21 37.6146 1235.52 33.5567 Q1231.83 29.4578 1231.83 23.3913 Q1231.83 17.5709 1235.03 12.0373 Q1238.27 6.50377 1243.52 3.06067 Q1248.8 -0.423422 1254.42 -0.423422 Q1256.39 -0.423422 1258.27 0.109439 Q1260.16 0.60131 1262.04 1.87198 Q1263.93 3.14265 1265.32 5.06914 Q1266.72 6.99564 1267.58 10.0288 Q1268.44 13.0621 1268.44 16.8741 L1268.44 22.0797 Q1273.85 15.2345 1276.68 5.43805 Q1277.09 3.96243 1277.33 3.79847 Q1277.5 3.67551 1277.91 3.67551 Q1278.32 3.67551 1278.56 3.92144 Q1278.85 4.12639 1278.89 4.33133 L1278.93 4.53628 M1262.82 28.3511 Q1262.66 26.9164 1262.66 18.9645 Q1262.66 17.4479 1262.66 16.6281 Q1262.66 15.7673 1262.58 14.1278 Q1262.49 12.4882 1262.33 11.4635 Q1262.21 10.4387 1261.92 8.96312 Q1261.63 7.48751 1261.22 6.54476 Q1260.81 5.602 1260.16 4.53628 Q1259.54 3.47056 1258.72 2.85572 Q1257.94 2.24088 1256.8 1.83099 Q1255.69 1.4211 1254.34 1.4211 Q1252.66 1.4211 1250.89 2.03594 Q1249.17 2.60978 1246.96 4.4543 Q1244.75 6.25783 1242.9 9.12708 Q1240.97 12.1603 1239.5 17.7348 Q1238.06 23.2684 1238.06 26.5885 Q1238.06 30.7694 1239.99 33.2698 Q1241.92 35.7291 1245.61 35.7291 Q1254.42 35.7291 1262.82 28.3511 Z" fill="#000000" fill-rule="evenodd" fill-opacity="1" /><path clip-path="url(#clip260)" d="M 0 0 M1272.58 1521.01 Q1272.58 1522.81 1271.45 1523.84 Q1270.32 1524.84 1269.04 1524.84 Q1267.81 1524.84 1267.17 1524.13 Q1266.52 1523.42 1266.52 1522.52 Q1266.52 1521.3 1267.43 1520.23 Q1268.33 1519.17 1269.68 1518.95 Q1268.36 1518.11 1266.4 1518.11 Q1265.11 1518.11 1263.98 1518.78 Q1262.89 1519.46 1262.21 1520.33 Q1261.56 1521.2 1260.99 1522.46 Q1260.44 1523.68 1260.21 1524.42 Q1260.02 1525.13 1259.86 1525.9 L1257.6 1534.92 Q1256.51 1539.2 1256.51 1540.72 Q1256.51 1542.58 1257.41 1543.84 Q1258.31 1545.06 1260.12 1545.06 Q1260.82 1545.06 1261.63 1544.87 Q1262.43 1544.65 1263.46 1544.07 Q1264.53 1543.45 1265.46 1542.55 Q1266.43 1541.62 1267.36 1540.04 Q1268.3 1538.46 1268.91 1536.43 Q1269.1 1535.73 1269.75 1535.73 Q1270.55 1535.73 1270.55 1536.37 Q1270.55 1536.92 1270.1 1538.08 Q1269.68 1539.2 1268.75 1540.68 Q1267.84 1542.13 1266.65 1543.45 Q1265.46 1544.74 1263.69 1545.64 Q1261.92 1546.55 1259.99 1546.55 Q1257.22 1546.55 1255.38 1545.06 Q1253.55 1543.58 1252.87 1541.52 Q1252.71 1541.81 1252.48 1542.2 Q1252.26 1542.58 1251.58 1543.45 Q1250.94 1544.29 1250.2 1544.94 Q1249.46 1545.55 1248.3 1546.03 Q1247.17 1546.55 1245.94 1546.55 Q1244.4 1546.55 1243.01 1546.1 Q1241.66 1545.64 1240.7 1544.61 Q1239.73 1543.58 1239.73 1542.17 Q1239.73 1540.59 1240.79 1539.49 Q1241.89 1538.37 1243.37 1538.37 Q1244.3 1538.37 1245.04 1538.91 Q1245.82 1539.46 1245.82 1540.65 Q1245.82 1541.97 1244.91 1542.97 Q1244.01 1543.97 1242.72 1544.23 Q1244.04 1545.06 1246.01 1545.06 Q1248.13 1545.06 1249.81 1543.2 Q1251.48 1541.33 1252.29 1538.2 Q1254.29 1530.7 1255.06 1527.35 Q1255.83 1523.97 1255.83 1522.52 Q1255.83 1521.17 1255.48 1520.23 Q1255.12 1519.3 1254.51 1518.88 Q1253.93 1518.43 1253.38 1518.27 Q1252.87 1518.11 1252.29 1518.11 Q1251.32 1518.11 1250.23 1518.49 Q1249.17 1518.88 1247.88 1519.78 Q1246.62 1520.65 1245.43 1522.46 Q1244.24 1524.26 1243.43 1526.74 Q1243.27 1527.48 1242.56 1527.48 Q1241.79 1527.45 1241.79 1526.8 Q1241.79 1526.26 1242.21 1525.13 Q1242.66 1523.97 1243.56 1522.52 Q1244.5 1521.07 1245.69 1519.78 Q1246.91 1518.46 1248.68 1517.56 Q1250.49 1516.66 1252.42 1516.66 Q1253.29 1516.66 1254.13 1516.85 Q1254.99 1517.01 1256.03 1517.5 Q1257.09 1517.98 1258.02 1519.04 Q1258.96 1520.11 1259.54 1521.65 Q1259.92 1520.91 1260.44 1520.2 Q1260.99 1519.49 1261.82 1518.62 Q1262.69 1517.72 1263.88 1517.21 Q1265.11 1516.66 1266.46 1516.66 Q1267.78 1516.66 1269.07 1517.01 Q1270.36 1517.34 1271.45 1518.4 Q1272.58 1519.43 1272.58 1521.01 Z" fill="#000000" fill-rule="evenodd" fill-opacity="1" /><path clip-path="url(#clip260)" d="M 0 0 M56.8247 752.42 Q57.2755 752.42 58.3383 752.71 L83.5233 759.022 Q89.1271 760.407 93.0563 764.916 Q96.9854 769.393 96.9854 774.481 Q96.9854 777.541 95.3429 779.505 Q93.7326 781.47 91.2527 781.47 Q89.0627 781.47 87.9999 780.31 Q86.9693 779.151 86.9693 777.766 Q86.9693 777.315 87.0982 776.832 Q87.227 776.349 87.7745 775.834 Q88.322 775.318 89.256 775.318 Q90.7696 775.318 91.9613 776.639 Q92.5088 777.283 92.6376 777.895 Q92.7664 778.475 92.7664 779.473 Q93.6682 779.086 94.2801 778.378 Q94.892 777.669 95.1174 776.864 Q95.3751 776.059 95.4395 775.544 Q95.5361 774.996 95.5361 774.481 Q95.5361 770.359 91.3815 767.203 Q90.1255 766.269 88.8695 765.592 Q87.6457 764.884 86.132 764.368 Q84.6505 763.853 83.8454 763.628 Q83.0402 763.37 81.2045 762.919 Q84.1996 765.914 84.1996 769.586 Q84.1996 771.132 83.781 772.516 Q83.3623 773.869 82.4927 775.061 Q81.591 776.252 80.0129 776.961 Q78.4348 777.637 76.3414 777.637 Q74.1192 777.637 71.0919 776.768 Q68.0645 775.898 62.4929 773.805 Q59.3689 772.678 57.8552 772.678 Q57.1145 772.678 56.6636 772.839 Q56.1805 773 56.0195 773.322 Q55.8263 773.644 55.7941 773.837 Q55.7619 773.998 55.7619 774.32 Q55.7619 776.22 57.6942 777.991 Q59.6266 779.763 63.9422 780.987 Q64.7473 781.244 64.9405 781.405 Q65.1338 781.566 65.1338 782.049 Q65.1016 782.855 64.4574 782.855 Q64.1998 782.855 63.2014 782.565 Q62.1708 782.275 60.6572 781.599 Q59.1113 780.89 57.7264 779.924 Q56.3094 778.958 55.311 777.444 Q54.3126 775.898 54.3126 774.127 Q54.3126 771.711 55.8907 770.23 Q57.4366 768.716 59.7232 768.716 Q60.6572 768.716 61.4945 768.974 Q62.2997 769.199 64.4574 770.037 Q73.153 773.418 77.4042 773.418 Q78.4348 773.418 79.3044 773.257 Q80.1417 773.064 80.9791 772.645 Q81.7842 772.227 82.2673 771.389 Q82.7182 770.52 82.7182 769.328 Q82.7182 767.814 82.0096 766.397 Q81.2689 764.948 80.2705 764.046 Q79.2721 763.112 78.4348 762.565 Q77.5652 761.985 77.1144 761.856 L65.2626 758.893 L59.9808 757.573 Q57.1145 756.961 56.406 756.671 Q55.7297 756.285 55.3754 755.608 Q55.0211 754.932 55.0211 754.352 Q55.0211 753.547 55.5042 753 Q55.9873 752.42 56.8247 752.42 Z" fill="#000000" fill-rule="evenodd" fill-opacity="1" /><polyline clip-path="url(#clip262)" style="stroke:#009af9; stroke-width:4; stroke-opacity:1; fill:none" points="
  226.026,1181.09 455.447,673.663 684.867,102.833 914.288,1096.12 1143.71,1310.19 1373.13,707.131 1602.55,178.129 1831.97,1421.6 2061.39,1098.66 2290.81,1430.86 
  
  "/>
<path clip-path="url(#clip260)" d="
M1989.74 267.472 L2280.76 267.472 L2280.76 146.512 L1989.74 146.512  Z
  " fill="#ffffff" fill-rule="evenodd" fill-opacity="1"/>
<polyline clip-path="url(#clip260)" style="stroke:#000000; stroke-width:4; stroke-opacity:1; fill:none" points="
  1989.74,267.472 2280.76,267.472 2280.76,146.512 1989.74,146.512 1989.74,267.472 
  "/>
<polyline clip-path="url(#clip260)" style="stroke:#009af9; stroke-width:4; stroke-opacity:1; fill:none" points="
  2013.74,206.992 2157.74,206.992 
  "/>
<path clip-path="url(#clip260)" d="M 0 0 M2195.58 226.68 Q2193.77 231.309 2192.06 232.721 Q2190.35 234.133 2187.48 234.133 L2184.08 234.133 L2184.08 230.568 L2186.58 230.568 Q2188.33 230.568 2189.31 229.735 Q2190.28 228.902 2191.46 225.8 L2192.22 223.855 L2181.74 198.346 L2186.25 198.346 L2194.35 218.624 L2202.46 198.346 L2206.97 198.346 L2195.58 226.68 Z" fill="#000000" fill-rule="evenodd" fill-opacity="1" /><path clip-path="url(#clip260)" d="M 0 0 M2212.85 220.337 L2220.49 220.337 L2220.49 193.971 L2212.18 195.638 L2212.18 191.379 L2220.44 189.712 L2225.12 189.712 L2225.12 220.337 L2232.76 220.337 L2232.76 224.272 L2212.85 224.272 L2212.85 220.337 Z" fill="#000000" fill-rule="evenodd" fill-opacity="1" /></svg>
