<?xml version="1.0" encoding="utf-8"?>
<svg xmlns="http://www.w3.org/2000/svg" xmlns:xlink="http://www.w3.org/1999/xlink" width="600" height="400" viewBox="0 0 2400 1600">
<defs>
  <clipPath id="clip5300">
    <rect x="0" y="0" width="2400" height="1600"/>
  </clipPath>
</defs>
<path clip-path="url(#clip5300)" d="
M0 1600 L2400 1600 L2400 0 L0 0  Z
  " fill="#ffffff" fill-rule="evenodd" fill-opacity="1"/>
<defs>
  <clipPath id="clip5301">
    <rect x="480" y="0" width="1681" height="1600"/>
  </clipPath>
</defs>
<path clip-path="url(#clip5300)" d="
M226.671 1406.36 L2352.76 1406.36 L2352.76 47.2441 L226.671 47.2441  Z
  " fill="#ffffff" fill-rule="evenodd" fill-opacity="1"/>
<defs>
  <clipPath id="clip5302">
    <rect x="226" y="47" width="2127" height="1360"/>
  </clipPath>
</defs>
<polyline clip-path="url(#clip5302)" style="stroke:#000000; stroke-width:2; stroke-opacity:0.1; fill:none" points="
  509.703,1406.36 509.703,47.2441 
  "/>
<polyline clip-path="url(#clip5302)" style="stroke:#000000; stroke-width:2; stroke-opacity:0.1; fill:none" points="
  955.423,1406.36 955.423,47.2441 
  "/>
<polyline clip-path="url(#clip5302)" style="stroke:#000000; stroke-width:2; stroke-opacity:0.1; fill:none" points="
  1401.14,1406.36 1401.14,47.2441 
  "/>
<polyline clip-path="url(#clip5302)" style="stroke:#000000; stroke-width:2; stroke-opacity:0.1; fill:none" points="
  1846.86,1406.36 1846.86,47.2441 
  "/>
<polyline clip-path="url(#clip5302)" style="stroke:#000000; stroke-width:2; stroke-opacity:0.1; fill:none" points="
  2292.58,1406.36 2292.58,47.2441 
  "/>
<polyline clip-path="url(#clip5302)" style="stroke:#000000; stroke-width:2; stroke-opacity:0.1; fill:none" points="
  226.671,1369.44 2352.76,1369.44 
  "/>
<polyline clip-path="url(#clip5302)" style="stroke:#000000; stroke-width:2; stroke-opacity:0.1; fill:none" points="
  226.671,1096.73 2352.76,1096.73 
  "/>
<polyline clip-path="url(#clip5302)" style="stroke:#000000; stroke-width:2; stroke-opacity:0.1; fill:none" points="
  226.671,824.008 2352.76,824.008 
  "/>
<polyline clip-path="url(#clip5302)" style="stroke:#000000; stroke-width:2; stroke-opacity:0.1; fill:none" points="
  226.671,551.29 2352.76,551.29 
  "/>
<polyline clip-path="url(#clip5302)" style="stroke:#000000; stroke-width:2; stroke-opacity:0.1; fill:none" points="
  226.671,278.572 2352.76,278.572 
  "/>
<polyline clip-path="url(#clip5300)" style="stroke:#000000; stroke-width:4; stroke-opacity:1; fill:none" points="
  226.671,1406.36 2352.76,1406.36 
  "/>
<polyline clip-path="url(#clip5300)" style="stroke:#000000; stroke-width:4; stroke-opacity:1; fill:none" points="
  226.671,1406.36 226.671,47.2441 
  "/>
<polyline clip-path="url(#clip5300)" style="stroke:#000000; stroke-width:4; stroke-opacity:1; fill:none" points="
  509.703,1406.36 509.703,1390.05 
  "/>
<polyline clip-path="url(#clip5300)" style="stroke:#000000; stroke-width:4; stroke-opacity:1; fill:none" points="
  955.423,1406.36 955.423,1390.05 
  "/>
<polyline clip-path="url(#clip5300)" style="stroke:#000000; stroke-width:4; stroke-opacity:1; fill:none" points="
  1401.14,1406.36 1401.14,1390.05 
  "/>
<polyline clip-path="url(#clip5300)" style="stroke:#000000; stroke-width:4; stroke-opacity:1; fill:none" points="
  1846.86,1406.36 1846.86,1390.05 
  "/>
<polyline clip-path="url(#clip5300)" style="stroke:#000000; stroke-width:4; stroke-opacity:1; fill:none" points="
  2292.58,1406.36 2292.58,1390.05 
  "/>
<polyline clip-path="url(#clip5300)" style="stroke:#000000; stroke-width:4; stroke-opacity:1; fill:none" points="
  226.671,1369.44 252.184,1369.44 
  "/>
<polyline clip-path="url(#clip5300)" style="stroke:#000000; stroke-width:4; stroke-opacity:1; fill:none" points="
  226.671,1096.73 252.184,1096.73 
  "/>
<polyline clip-path="url(#clip5300)" style="stroke:#000000; stroke-width:4; stroke-opacity:1; fill:none" points="
  226.671,824.008 252.184,824.008 
  "/>
<polyline clip-path="url(#clip5300)" style="stroke:#000000; stroke-width:4; stroke-opacity:1; fill:none" points="
  226.671,551.29 252.184,551.29 
  "/>
<polyline clip-path="url(#clip5300)" style="stroke:#000000; stroke-width:4; stroke-opacity:1; fill:none" points="
  226.671,278.572 252.184,278.572 
  "/>
<path clip-path="url(#clip5300)" d="M 0 0 M504.356 1455.9 L520.675 1455.9 L520.675 1459.83 L498.731 1459.83 L498.731 1455.9 Q501.393 1453.14 505.976 1448.51 Q510.583 1443.86 511.763 1442.52 Q514.009 1440 514.888 1438.26 Q515.791 1436.5 515.791 1434.81 Q515.791 1432.06 513.846 1430.32 Q511.925 1428.58 508.823 1428.58 Q506.624 1428.58 504.171 1429.35 Q501.74 1430.11 498.962 1431.66 L498.962 1426.94 Q501.786 1425.81 504.24 1425.23 Q506.694 1424.65 508.731 1424.65 Q514.101 1424.65 517.296 1427.33 Q520.49 1430.02 520.49 1434.51 Q520.49 1436.64 519.68 1438.56 Q518.893 1440.46 516.786 1443.05 Q516.208 1443.72 513.106 1446.94 Q510.004 1450.13 504.356 1455.9 Z" fill="#000000" fill-rule="evenodd" fill-opacity="1" /><path clip-path="url(#clip5300)" d="M 0 0 M958.432 1429.35 L946.627 1447.8 L958.432 1447.8 L958.432 1429.35 M957.206 1425.27 L963.085 1425.27 L963.085 1447.8 L968.016 1447.8 L968.016 1451.68 L963.085 1451.68 L963.085 1459.83 L958.432 1459.83 L958.432 1451.68 L942.831 1451.68 L942.831 1447.17 L957.206 1425.27 Z" fill="#000000" fill-rule="evenodd" fill-opacity="1" /><path clip-path="url(#clip5300)" d="M 0 0 M1401.55 1440.69 Q1398.4 1440.69 1396.55 1442.84 Q1394.72 1445 1394.72 1448.75 Q1394.72 1452.47 1396.55 1454.65 Q1398.4 1456.8 1401.55 1456.8 Q1404.7 1456.8 1406.53 1454.65 Q1408.38 1452.47 1408.38 1448.75 Q1408.38 1445 1406.53 1442.84 Q1404.7 1440.69 1401.55 1440.69 M1410.83 1426.04 L1410.83 1430.3 Q1409.07 1429.46 1407.27 1429.02 Q1405.48 1428.58 1403.72 1428.58 Q1399.09 1428.58 1396.64 1431.71 Q1394.21 1434.83 1393.86 1441.15 Q1395.23 1439.14 1397.29 1438.07 Q1399.35 1436.99 1401.83 1436.99 Q1407.03 1436.99 1410.04 1440.16 Q1413.08 1443.31 1413.08 1448.75 Q1413.08 1454.07 1409.93 1457.29 Q1406.78 1460.5 1401.55 1460.5 Q1395.55 1460.5 1392.38 1455.92 Q1389.21 1451.31 1389.21 1442.59 Q1389.21 1434.39 1393.1 1429.53 Q1396.99 1424.65 1403.54 1424.65 Q1405.3 1424.65 1407.08 1425 Q1408.89 1425.34 1410.83 1426.04 Z" fill="#000000" fill-rule="evenodd" fill-opacity="1" /><path clip-path="url(#clip5300)" d="M 0 0 M1846.86 1443.42 Q1843.53 1443.42 1841.61 1445.2 Q1839.71 1446.99 1839.71 1450.11 Q1839.71 1453.24 1841.61 1455.02 Q1843.53 1456.8 1846.86 1456.8 Q1850.2 1456.8 1852.12 1455.02 Q1854.04 1453.21 1854.04 1450.11 Q1854.04 1446.99 1852.12 1445.2 Q1850.22 1443.42 1846.86 1443.42 M1842.19 1441.43 Q1839.18 1440.69 1837.49 1438.63 Q1835.82 1436.57 1835.82 1433.61 Q1835.82 1429.46 1838.76 1427.06 Q1841.72 1424.65 1846.86 1424.65 Q1852.03 1424.65 1854.97 1427.06 Q1857.91 1429.46 1857.91 1433.61 Q1857.91 1436.57 1856.22 1438.63 Q1854.55 1440.69 1851.56 1441.43 Q1854.94 1442.22 1856.82 1444.51 Q1858.72 1446.8 1858.72 1450.11 Q1858.72 1455.13 1855.64 1457.82 Q1852.58 1460.5 1846.86 1460.5 Q1841.15 1460.5 1838.07 1457.82 Q1835.01 1455.13 1835.01 1450.11 Q1835.01 1446.8 1836.91 1444.51 Q1838.81 1442.22 1842.19 1441.43 M1840.47 1434.05 Q1840.47 1436.73 1842.14 1438.24 Q1843.83 1439.74 1846.86 1439.74 Q1849.87 1439.74 1851.56 1438.24 Q1853.28 1436.73 1853.28 1434.05 Q1853.28 1431.36 1851.56 1429.86 Q1849.87 1428.35 1846.86 1428.35 Q1843.83 1428.35 1842.14 1429.86 Q1840.47 1431.36 1840.47 1434.05 Z" fill="#000000" fill-rule="evenodd" fill-opacity="1" /><path clip-path="url(#clip5300)" d="M 0 0 M2269.46 1455.9 L2277.1 1455.9 L2277.1 1429.53 L2268.79 1431.2 L2268.79 1426.94 L2277.05 1425.27 L2281.73 1425.27 L2281.73 1455.9 L2289.37 1455.9 L2289.37 1459.83 L2269.46 1459.83 L2269.46 1455.9 Z" fill="#000000" fill-rule="evenodd" fill-opacity="1" /><path clip-path="url(#clip5300)" d="M 0 0 M2304.44 1428.35 Q2300.82 1428.35 2299 1431.92 Q2297.19 1435.46 2297.19 1442.59 Q2297.19 1449.69 2299 1453.26 Q2300.82 1456.8 2304.44 1456.8 Q2308.07 1456.8 2309.88 1453.26 Q2311.7 1449.69 2311.7 1442.59 Q2311.7 1435.46 2309.88 1431.92 Q2308.07 1428.35 2304.44 1428.35 M2304.44 1424.65 Q2310.25 1424.65 2313.3 1429.25 Q2316.38 1433.84 2316.38 1442.59 Q2316.38 1451.31 2313.3 1455.92 Q2310.25 1460.5 2304.44 1460.5 Q2298.63 1460.5 2295.55 1455.92 Q2292.49 1451.31 2292.49 1442.59 Q2292.49 1433.84 2295.55 1429.25 Q2298.63 1424.65 2304.44 1424.65 Z" fill="#000000" fill-rule="evenodd" fill-opacity="1" /><path clip-path="url(#clip5300)" d="M 0 0 M153.759 1355.24 Q150.148 1355.24 148.319 1358.81 Q146.514 1362.35 146.514 1369.48 Q146.514 1376.59 148.319 1380.15 Q150.148 1383.69 153.759 1383.69 Q157.393 1383.69 159.199 1380.15 Q161.027 1376.59 161.027 1369.48 Q161.027 1362.35 159.199 1358.81 Q157.393 1355.24 153.759 1355.24 M153.759 1351.54 Q159.569 1351.54 162.625 1356.15 Q165.703 1360.73 165.703 1369.48 Q165.703 1378.21 162.625 1382.81 Q159.569 1387.4 153.759 1387.4 Q147.949 1387.4 144.87 1382.81 Q141.815 1378.21 141.815 1369.48 Q141.815 1360.73 144.87 1356.15 Q147.949 1351.54 153.759 1351.54 Z" fill="#000000" fill-rule="evenodd" fill-opacity="1" /><path clip-path="url(#clip5300)" d="M 0 0 M170.773 1380.84 L175.657 1380.84 L175.657 1386.72 L170.773 1386.72 L170.773 1380.84 Z" fill="#000000" fill-rule="evenodd" fill-opacity="1" /><path clip-path="url(#clip5300)" d="M 0 0 M190.726 1355.24 Q187.115 1355.24 185.286 1358.81 Q183.481 1362.35 183.481 1369.48 Q183.481 1376.59 185.286 1380.15 Q187.115 1383.69 190.726 1383.69 Q194.361 1383.69 196.166 1380.15 Q197.995 1376.59 197.995 1369.48 Q197.995 1362.35 196.166 1358.81 Q194.361 1355.24 190.726 1355.24 M190.726 1351.54 Q196.536 1351.54 199.592 1356.15 Q202.671 1360.73 202.671 1369.48 Q202.671 1378.21 199.592 1382.81 Q196.536 1387.4 190.726 1387.4 Q184.916 1387.4 181.837 1382.81 Q178.782 1378.21 178.782 1369.48 Q178.782 1360.73 181.837 1356.15 Q184.916 1351.54 190.726 1351.54 Z" fill="#000000" fill-rule="evenodd" fill-opacity="1" /><path clip-path="url(#clip5300)" d="M 0 0 M155.356 1082.52 Q151.745 1082.52 149.916 1086.09 Q148.111 1089.63 148.111 1096.76 Q148.111 1103.87 149.916 1107.43 Q151.745 1110.97 155.356 1110.97 Q158.99 1110.97 160.796 1107.43 Q162.625 1103.87 162.625 1096.76 Q162.625 1089.63 160.796 1086.09 Q158.99 1082.52 155.356 1082.52 M155.356 1078.82 Q161.166 1078.82 164.222 1083.43 Q167.3 1088.01 167.3 1096.76 Q167.3 1105.49 164.222 1110.09 Q161.166 1114.68 155.356 1114.68 Q149.546 1114.68 146.467 1110.09 Q143.412 1105.49 143.412 1096.76 Q143.412 1088.01 146.467 1083.43 Q149.546 1078.82 155.356 1078.82 Z" fill="#000000" fill-rule="evenodd" fill-opacity="1" /><path clip-path="url(#clip5300)" d="M 0 0 M172.37 1108.13 L177.254 1108.13 L177.254 1114.01 L172.37 1114.01 L172.37 1108.13 Z" fill="#000000" fill-rule="evenodd" fill-opacity="1" /><path clip-path="url(#clip5300)" d="M 0 0 M186.351 1110.07 L202.671 1110.07 L202.671 1114.01 L180.726 1114.01 L180.726 1110.07 Q183.388 1107.32 187.972 1102.69 Q192.578 1098.03 193.759 1096.69 Q196.004 1094.17 196.884 1092.43 Q197.786 1090.67 197.786 1088.98 Q197.786 1086.23 195.842 1084.49 Q193.921 1082.76 190.819 1082.76 Q188.62 1082.76 186.166 1083.52 Q183.736 1084.28 180.958 1085.83 L180.958 1081.11 Q183.782 1079.98 186.236 1079.4 Q188.689 1078.82 190.726 1078.82 Q196.097 1078.82 199.291 1081.51 Q202.485 1084.19 202.485 1088.68 Q202.485 1090.81 201.675 1092.73 Q200.888 1094.63 198.782 1097.22 Q198.203 1097.89 195.101 1101.11 Q191.999 1104.31 186.351 1110.07 Z" fill="#000000" fill-rule="evenodd" fill-opacity="1" /><path clip-path="url(#clip5300)" d="M 0 0 M153.273 809.806 Q149.662 809.806 147.833 813.371 Q146.027 816.913 146.027 824.043 Q146.027 831.149 147.833 834.714 Q149.662 838.255 153.273 838.255 Q156.907 838.255 158.713 834.714 Q160.541 831.149 160.541 824.043 Q160.541 816.913 158.713 813.371 Q156.907 809.806 153.273 809.806 M153.273 806.103 Q159.083 806.103 162.138 810.709 Q165.217 815.293 165.217 824.043 Q165.217 832.769 162.138 837.376 Q159.083 841.959 153.273 841.959 Q147.463 841.959 144.384 837.376 Q141.328 832.769 141.328 824.043 Q141.328 815.293 144.384 810.709 Q147.463 806.103 153.273 806.103 Z" fill="#000000" fill-rule="evenodd" fill-opacity="1" /><path clip-path="url(#clip5300)" d="M 0 0 M170.287 835.408 L175.171 835.408 L175.171 841.288 L170.287 841.288 L170.287 835.408 Z" fill="#000000" fill-rule="evenodd" fill-opacity="1" /><path clip-path="url(#clip5300)" d="M 0 0 M193.087 810.802 L181.282 829.251 L193.087 829.251 L193.087 810.802 M191.861 806.728 L197.74 806.728 L197.74 829.251 L202.671 829.251 L202.671 833.14 L197.74 833.14 L197.74 841.288 L193.087 841.288 L193.087 833.14 L177.486 833.14 L177.486 828.626 L191.861 806.728 Z" fill="#000000" fill-rule="evenodd" fill-opacity="1" /><path clip-path="url(#clip5300)" d="M 0 0 M153.597 537.088 Q149.986 537.088 148.157 540.653 Q146.352 544.195 146.352 551.324 Q146.352 558.431 148.157 561.996 Q149.986 565.537 153.597 565.537 Q157.231 565.537 159.037 561.996 Q160.865 558.431 160.865 551.324 Q160.865 544.195 159.037 540.653 Q157.231 537.088 153.597 537.088 M153.597 533.385 Q159.407 533.385 162.463 537.991 Q165.541 542.574 165.541 551.324 Q165.541 560.051 162.463 564.658 Q159.407 569.241 153.597 569.241 Q147.787 569.241 144.708 564.658 Q141.652 560.051 141.652 551.324 Q141.652 542.574 144.708 537.991 Q147.787 533.385 153.597 533.385 Z" fill="#000000" fill-rule="evenodd" fill-opacity="1" /><path clip-path="url(#clip5300)" d="M 0 0 M170.611 562.69 L175.495 562.69 L175.495 568.57 L170.611 568.57 L170.611 562.69 Z" fill="#000000" fill-rule="evenodd" fill-opacity="1" /><path clip-path="url(#clip5300)" d="M 0 0 M191.143 549.426 Q187.995 549.426 186.143 551.579 Q184.314 553.732 184.314 557.482 Q184.314 561.209 186.143 563.385 Q187.995 565.537 191.143 565.537 Q194.291 565.537 196.12 563.385 Q197.972 561.209 197.972 557.482 Q197.972 553.732 196.12 551.579 Q194.291 549.426 191.143 549.426 M200.425 534.774 L200.425 539.033 Q198.666 538.199 196.861 537.76 Q195.078 537.32 193.319 537.32 Q188.689 537.32 186.236 540.445 Q183.805 543.57 183.458 549.889 Q184.824 547.875 186.884 546.811 Q188.944 545.723 191.421 545.723 Q196.629 545.723 199.638 548.894 Q202.671 552.042 202.671 557.482 Q202.671 562.806 199.523 566.023 Q196.374 569.241 191.143 569.241 Q185.148 569.241 181.976 564.658 Q178.805 560.051 178.805 551.324 Q178.805 543.13 182.694 538.269 Q186.583 533.385 193.134 533.385 Q194.893 533.385 196.675 533.732 Q198.481 534.079 200.425 534.774 Z" fill="#000000" fill-rule="evenodd" fill-opacity="1" /><path clip-path="url(#clip5300)" d="M 0 0 M153.851 264.37 Q150.24 264.37 148.412 267.935 Q146.606 271.477 146.606 278.606 Q146.606 285.713 148.412 289.278 Q150.24 292.819 153.851 292.819 Q157.486 292.819 159.291 289.278 Q161.12 285.713 161.12 278.606 Q161.12 271.477 159.291 267.935 Q157.486 264.37 153.851 264.37 M153.851 260.667 Q159.662 260.667 162.717 265.273 Q165.796 269.856 165.796 278.606 Q165.796 287.333 162.717 291.94 Q159.662 296.523 153.851 296.523 Q148.041 296.523 144.963 291.94 Q141.907 287.333 141.907 278.606 Q141.907 269.856 144.963 265.273 Q148.041 260.667 153.851 260.667 Z" fill="#000000" fill-rule="evenodd" fill-opacity="1" /><path clip-path="url(#clip5300)" d="M 0 0 M170.865 289.972 L175.75 289.972 L175.75 295.852 L170.865 295.852 L170.865 289.972 Z" fill="#000000" fill-rule="evenodd" fill-opacity="1" /><path clip-path="url(#clip5300)" d="M 0 0 M190.819 279.44 Q187.486 279.44 185.564 281.222 Q183.666 283.004 183.666 286.129 Q183.666 289.254 185.564 291.037 Q187.486 292.819 190.819 292.819 Q194.152 292.819 196.073 291.037 Q197.995 289.231 197.995 286.129 Q197.995 283.004 196.073 281.222 Q194.175 279.44 190.819 279.44 M186.143 277.449 Q183.134 276.708 181.444 274.648 Q179.777 272.588 179.777 269.625 Q179.777 265.481 182.717 263.074 Q185.68 260.667 190.819 260.667 Q195.981 260.667 198.921 263.074 Q201.86 265.481 201.86 269.625 Q201.86 272.588 200.171 274.648 Q198.504 276.708 195.518 277.449 Q198.898 278.236 200.773 280.528 Q202.671 282.819 202.671 286.129 Q202.671 291.153 199.592 293.838 Q196.536 296.523 190.819 296.523 Q185.101 296.523 182.023 293.838 Q178.967 291.153 178.967 286.129 Q178.967 282.819 180.865 280.528 Q182.763 278.236 186.143 277.449 M184.43 270.065 Q184.43 272.75 186.097 274.255 Q187.786 275.759 190.819 275.759 Q193.828 275.759 195.518 274.255 Q197.231 272.75 197.231 270.065 Q197.231 267.38 195.518 265.875 Q193.828 264.37 190.819 264.37 Q187.786 264.37 186.097 265.875 Q184.43 267.38 184.43 270.065 Z" fill="#000000" fill-rule="evenodd" fill-opacity="1" /><path clip-path="url(#clip5300)" d="M 0 0 M1303.87 1486.67 Q1303.87 1488.47 1302.75 1489.5 Q1301.62 1490.5 1300.33 1490.5 Q1299.11 1490.5 1298.46 1489.79 Q1297.82 1489.08 1297.82 1488.18 Q1297.82 1486.96 1298.72 1485.9 Q1299.62 1484.83 1300.97 1484.61 Q1299.65 1483.77 1297.69 1483.77 Q1296.4 1483.77 1295.27 1484.45 Q1294.18 1485.12 1293.5 1485.99 Q1292.86 1486.86 1292.28 1488.12 Q1291.73 1489.34 1291.51 1490.08 Q1291.31 1490.79 1291.15 1491.56 L1288.9 1500.58 Q1287.8 1504.86 1287.8 1506.38 Q1287.8 1508.25 1288.7 1509.5 Q1289.61 1510.73 1291.41 1510.73 Q1292.12 1510.73 1292.92 1510.53 Q1293.73 1510.31 1294.76 1509.73 Q1295.82 1509.12 1296.76 1508.21 Q1297.72 1507.28 1298.66 1505.7 Q1299.59 1504.12 1300.2 1502.09 Q1300.4 1501.39 1301.04 1501.39 Q1301.84 1501.39 1301.84 1502.03 Q1301.84 1502.58 1301.39 1503.74 Q1300.97 1504.86 1300.04 1506.35 Q1299.14 1507.8 1297.95 1509.12 Q1296.76 1510.4 1294.98 1511.31 Q1293.21 1512.21 1291.28 1512.21 Q1288.51 1512.21 1286.68 1510.73 Q1284.84 1509.24 1284.16 1507.18 Q1284 1507.47 1283.78 1507.86 Q1283.55 1508.25 1282.88 1509.12 Q1282.23 1509.95 1281.49 1510.6 Q1280.75 1511.21 1279.59 1511.69 Q1278.46 1512.21 1277.24 1512.21 Q1275.69 1512.21 1274.31 1511.76 Q1272.96 1511.31 1271.99 1510.28 Q1271.02 1509.24 1271.02 1507.83 Q1271.02 1506.25 1272.09 1505.15 Q1273.18 1504.03 1274.66 1504.03 Q1275.6 1504.03 1276.34 1504.57 Q1277.11 1505.12 1277.11 1506.31 Q1277.11 1507.63 1276.21 1508.63 Q1275.31 1509.63 1274.02 1509.89 Q1275.34 1510.73 1277.3 1510.73 Q1279.43 1510.73 1281.1 1508.86 Q1282.78 1506.99 1283.58 1503.87 Q1285.58 1496.36 1286.35 1493.01 Q1287.13 1489.63 1287.13 1488.18 Q1287.13 1486.83 1286.77 1485.9 Q1286.42 1484.96 1285.81 1484.54 Q1285.23 1484.09 1284.68 1483.93 Q1284.16 1483.77 1283.58 1483.77 Q1282.62 1483.77 1281.52 1484.16 Q1280.46 1484.54 1279.17 1485.44 Q1277.92 1486.31 1276.72 1488.12 Q1275.53 1489.92 1274.73 1492.4 Q1274.57 1493.14 1273.86 1493.14 Q1273.08 1493.11 1273.08 1492.47 Q1273.08 1491.92 1273.5 1490.79 Q1273.95 1489.63 1274.86 1488.18 Q1275.79 1486.73 1276.98 1485.44 Q1278.21 1484.12 1279.98 1483.22 Q1281.78 1482.32 1283.71 1482.32 Q1284.58 1482.32 1285.42 1482.51 Q1286.29 1482.67 1287.32 1483.16 Q1288.38 1483.64 1289.32 1484.7 Q1290.25 1485.77 1290.83 1487.31 Q1291.22 1486.57 1291.73 1485.86 Q1292.28 1485.15 1293.12 1484.28 Q1293.99 1483.38 1295.18 1482.87 Q1296.4 1482.32 1297.75 1482.32 Q1299.07 1482.32 1300.36 1482.67 Q1301.65 1483 1302.75 1484.06 Q1303.87 1485.09 1303.87 1486.67 Z" fill="#000000" fill-rule="evenodd" fill-opacity="1" /><path clip-path="url(#clip5300)" d="M 0 0 M76.4129 712.377 Q76.8638 712.377 77.9266 712.666 L103.112 718.979 Q108.715 720.364 112.644 724.872 Q116.574 729.349 116.574 734.438 Q116.574 737.497 114.931 739.462 Q113.321 741.426 110.841 741.426 Q108.651 741.426 107.588 740.267 Q106.558 739.107 106.558 737.723 Q106.558 737.272 106.686 736.789 Q106.815 736.306 107.363 735.79 Q107.91 735.275 108.844 735.275 Q110.358 735.275 111.549 736.595 Q112.097 737.24 112.226 737.851 Q112.355 738.431 112.355 739.43 Q113.256 739.043 113.868 738.335 Q114.48 737.626 114.706 736.821 Q114.963 736.016 115.028 735.5 Q115.124 734.953 115.124 734.438 Q115.124 730.315 110.97 727.159 Q109.714 726.225 108.458 725.549 Q107.234 724.84 105.72 724.325 Q104.239 723.81 103.434 723.584 Q102.628 723.327 100.793 722.876 Q103.788 725.871 103.788 729.542 Q103.788 731.088 103.369 732.473 Q102.951 733.826 102.081 735.017 Q101.179 736.209 99.6011 736.917 Q98.023 737.594 95.9296 737.594 Q93.7074 737.594 90.6801 736.724 Q87.6527 735.855 82.0811 733.761 Q78.9572 732.634 77.4435 732.634 Q76.7027 732.634 76.2519 732.795 Q75.7688 732.956 75.6077 733.278 Q75.4145 733.6 75.3823 733.793 Q75.3501 733.955 75.3501 734.277 Q75.3501 736.177 77.2825 737.948 Q79.2148 739.719 83.5304 740.943 Q84.3355 741.201 84.5288 741.362 Q84.722 741.523 84.722 742.006 Q84.6898 742.811 84.0457 742.811 Q83.788 742.811 82.7897 742.521 Q81.7591 742.231 80.2454 741.555 Q78.6995 740.847 77.3147 739.88 Q75.8976 738.914 74.8992 737.401 Q73.9008 735.855 73.9008 734.083 Q73.9008 731.668 75.4789 730.186 Q77.0248 728.673 79.3114 728.673 Q80.2454 728.673 81.0827 728.93 Q81.8879 729.156 84.0457 729.993 Q92.7413 733.375 96.9924 733.375 Q98.023 733.375 98.8926 733.214 Q99.7299 733.021 100.567 732.602 Q101.372 732.183 101.856 731.346 Q102.306 730.476 102.306 729.285 Q102.306 727.771 101.598 726.354 Q100.857 724.905 99.8588 724.003 Q98.8604 723.069 98.023 722.521 Q97.1535 721.942 96.7026 721.813 L84.8508 718.85 L79.5691 717.53 Q76.7027 716.918 75.9942 716.628 Q75.3179 716.241 74.9636 715.565 Q74.6094 714.889 74.6094 714.309 Q74.6094 713.504 75.0925 712.956 Q75.5755 712.377 76.4129 712.377 Z" fill="#000000" fill-rule="evenodd" fill-opacity="1" /><polyline clip-path="url(#clip5302)" style="stroke:#009af9; stroke-width:4; stroke-opacity:1; fill:none" points="
  286.843,1307.25 509.703,1292 732.563,1367.9 955.423,1322.41 1178.28,702.608 1401.14,823.93 1624,321.643 1846.86,85.7097 2069.72,795.416 2292.58,1276.82 
  
  "/>
<path clip-path="url(#clip5300)" d="
M1989.74 251.724 L2280.76 251.724 L2280.76 130.764 L1989.74 130.764  Z
  " fill="#ffffff" fill-rule="evenodd" fill-opacity="1"/>
<polyline clip-path="url(#clip5300)" style="stroke:#000000; stroke-width:4; stroke-opacity:1; fill:none" points="
  1989.74,251.724 2280.76,251.724 2280.76,130.764 1989.74,130.764 1989.74,251.724 
  "/>
<polyline clip-path="url(#clip5300)" style="stroke:#009af9; stroke-width:4; stroke-opacity:1; fill:none" points="
  2013.74,191.244 2157.74,191.244 
  "/>
<path clip-path="url(#clip5300)" d="M 0 0 M2195.58 210.931 Q2193.77 215.561 2192.06 216.973 Q2190.35 218.385 2187.48 218.385 L2184.08 218.385 L2184.08 214.82 L2186.58 214.82 Q2188.33 214.82 2189.31 213.987 Q2190.28 213.154 2191.46 210.052 L2192.22 208.107 L2181.74 182.598 L2186.25 182.598 L2194.35 202.876 L2202.46 182.598 L2206.97 182.598 L2195.58 210.931 Z" fill="#000000" fill-rule="evenodd" fill-opacity="1" /><path clip-path="url(#clip5300)" d="M 0 0 M2212.85 204.589 L2220.49 204.589 L2220.49 178.223 L2212.18 179.89 L2212.18 175.631 L2220.44 173.964 L2225.12 173.964 L2225.12 204.589 L2232.76 204.589 L2232.76 208.524 L2212.85 208.524 L2212.85 204.589 Z" fill="#000000" fill-rule="evenodd" fill-opacity="1" /></svg>
