<?xml version="1.0" encoding="utf-8"?>
<svg xmlns="http://www.w3.org/2000/svg" xmlns:xlink="http://www.w3.org/1999/xlink" width="600" height="400" viewBox="0 0 2400 1600">
<defs>
  <clipPath id="clip490">
    <rect x="0" y="0" width="2400" height="1600"/>
  </clipPath>
</defs>
<path clip-path="url(#clip490)" d="
M0 1600 L2400 1600 L2400 0 L0 0  Z
  " fill="#ffffff" fill-rule="evenodd" fill-opacity="1"/>
<defs>
  <clipPath id="clip491">
    <rect x="480" y="0" width="1681" height="1600"/>
  </clipPath>
</defs>
<path clip-path="url(#clip490)" d="
M211.141 1447.17 L2352.76 1447.17 L2352.76 86.5215 L211.141 86.5215  Z
  " fill="#ffffff" fill-rule="evenodd" fill-opacity="1"/>
<defs>
  <clipPath id="clip492">
    <rect x="211" y="86" width="2143" height="1362"/>
  </clipPath>
</defs>
<polyline clip-path="url(#clip492)" style="stroke:#000000; stroke-width:2; stroke-opacity:0.1; fill:none" points="
  496.241,1447.17 496.241,86.5215 
  "/>
<polyline clip-path="url(#clip492)" style="stroke:#000000; stroke-width:2; stroke-opacity:0.1; fill:none" points="
  945.217,1447.17 945.217,86.5215 
  "/>
<polyline clip-path="url(#clip492)" style="stroke:#000000; stroke-width:2; stroke-opacity:0.1; fill:none" points="
  1394.19,1447.17 1394.19,86.5215 
  "/>
<polyline clip-path="url(#clip492)" style="stroke:#000000; stroke-width:2; stroke-opacity:0.1; fill:none" points="
  1843.17,1447.17 1843.17,86.5215 
  "/>
<polyline clip-path="url(#clip492)" style="stroke:#000000; stroke-width:2; stroke-opacity:0.1; fill:none" points="
  2292.14,1447.17 2292.14,86.5215 
  "/>
<polyline clip-path="url(#clip492)" style="stroke:#000000; stroke-width:2; stroke-opacity:0.1; fill:none" points="
  211.141,1385.97 2352.76,1385.97 
  "/>
<polyline clip-path="url(#clip492)" style="stroke:#000000; stroke-width:2; stroke-opacity:0.1; fill:none" points="
  211.141,1061.39 2352.76,1061.39 
  "/>
<polyline clip-path="url(#clip492)" style="stroke:#000000; stroke-width:2; stroke-opacity:0.1; fill:none" points="
  211.141,736.803 2352.76,736.803 
  "/>
<polyline clip-path="url(#clip492)" style="stroke:#000000; stroke-width:2; stroke-opacity:0.1; fill:none" points="
  211.141,412.217 2352.76,412.217 
  "/>
<polyline clip-path="url(#clip492)" style="stroke:#000000; stroke-width:2; stroke-opacity:0.1; fill:none" points="
  211.141,87.6309 2352.76,87.6309 
  "/>
<polyline clip-path="url(#clip490)" style="stroke:#000000; stroke-width:4; stroke-opacity:1; fill:none" points="
  211.141,1447.17 2352.76,1447.17 
  "/>
<polyline clip-path="url(#clip490)" style="stroke:#000000; stroke-width:4; stroke-opacity:1; fill:none" points="
  211.141,1447.17 211.141,86.5215 
  "/>
<polyline clip-path="url(#clip490)" style="stroke:#000000; stroke-width:4; stroke-opacity:1; fill:none" points="
  496.241,1447.17 496.241,1430.84 
  "/>
<polyline clip-path="url(#clip490)" style="stroke:#000000; stroke-width:4; stroke-opacity:1; fill:none" points="
  945.217,1447.17 945.217,1430.84 
  "/>
<polyline clip-path="url(#clip490)" style="stroke:#000000; stroke-width:4; stroke-opacity:1; fill:none" points="
  1394.19,1447.17 1394.19,1430.84 
  "/>
<polyline clip-path="url(#clip490)" style="stroke:#000000; stroke-width:4; stroke-opacity:1; fill:none" points="
  1843.17,1447.17 1843.17,1430.84 
  "/>
<polyline clip-path="url(#clip490)" style="stroke:#000000; stroke-width:4; stroke-opacity:1; fill:none" points="
  2292.14,1447.17 2292.14,1430.84 
  "/>
<polyline clip-path="url(#clip490)" style="stroke:#000000; stroke-width:4; stroke-opacity:1; fill:none" points="
  211.141,1385.97 236.841,1385.97 
  "/>
<polyline clip-path="url(#clip490)" style="stroke:#000000; stroke-width:4; stroke-opacity:1; fill:none" points="
  211.141,1061.39 236.841,1061.39 
  "/>
<polyline clip-path="url(#clip490)" style="stroke:#000000; stroke-width:4; stroke-opacity:1; fill:none" points="
  211.141,736.803 236.841,736.803 
  "/>
<polyline clip-path="url(#clip490)" style="stroke:#000000; stroke-width:4; stroke-opacity:1; fill:none" points="
  211.141,412.217 236.841,412.217 
  "/>
<polyline clip-path="url(#clip490)" style="stroke:#000000; stroke-width:4; stroke-opacity:1; fill:none" points="
  211.141,87.6309 236.841,87.6309 
  "/>
<path clip-path="url(#clip490)" d="M 0 0 M490.894 1496.71 L507.213 1496.71 L507.213 1500.64 L485.269 1500.64 L485.269 1496.71 Q487.931 1493.95 492.514 1489.32 Q497.121 1484.67 498.301 1483.33 Q500.546 1480.8 501.426 1479.07 Q502.329 1477.31 502.329 1475.62 Q502.329 1472.86 500.384 1471.13 Q498.463 1469.39 495.361 1469.39 Q493.162 1469.39 490.709 1470.16 Q488.278 1470.92 485.5 1472.47 L485.5 1467.75 Q488.324 1466.61 490.778 1466.04 Q493.232 1465.46 495.269 1465.46 Q500.639 1465.46 503.833 1468.14 Q507.028 1470.83 507.028 1475.32 Q507.028 1477.45 506.218 1479.37 Q505.431 1481.27 503.324 1483.86 Q502.745 1484.53 499.644 1487.75 Q496.542 1490.94 490.894 1496.71 Z" fill="#000000" fill-rule="evenodd" fill-opacity="1" /><path clip-path="url(#clip490)" d="M 0 0 M948.226 1470.16 L936.42 1488.61 L948.226 1488.61 L948.226 1470.16 M946.999 1466.08 L952.879 1466.08 L952.879 1488.61 L957.809 1488.61 L957.809 1492.49 L952.879 1492.49 L952.879 1500.64 L948.226 1500.64 L948.226 1492.49 L932.624 1492.49 L932.624 1487.98 L946.999 1466.08 Z" fill="#000000" fill-rule="evenodd" fill-opacity="1" /><path clip-path="url(#clip490)" d="M 0 0 M1394.6 1481.5 Q1391.45 1481.5 1389.6 1483.65 Q1387.77 1485.8 1387.77 1489.55 Q1387.77 1493.28 1389.6 1495.46 Q1391.45 1497.61 1394.6 1497.61 Q1397.75 1497.61 1399.57 1495.46 Q1401.43 1493.28 1401.43 1489.55 Q1401.43 1485.8 1399.57 1483.65 Q1397.75 1481.5 1394.6 1481.5 M1403.88 1466.85 L1403.88 1471.11 Q1402.12 1470.27 1400.32 1469.83 Q1398.53 1469.39 1396.77 1469.39 Q1392.14 1469.39 1389.69 1472.52 Q1387.26 1475.64 1386.91 1481.96 Q1388.28 1479.95 1390.34 1478.88 Q1392.4 1477.8 1394.88 1477.8 Q1400.08 1477.8 1403.09 1480.97 Q1406.13 1484.11 1406.13 1489.55 Q1406.13 1494.88 1402.98 1498.1 Q1399.83 1501.31 1394.6 1501.31 Q1388.6 1501.31 1385.43 1496.73 Q1382.26 1492.12 1382.26 1483.4 Q1382.26 1475.2 1386.15 1470.34 Q1390.04 1465.46 1396.59 1465.46 Q1398.35 1465.46 1400.13 1465.8 Q1401.94 1466.15 1403.88 1466.85 Z" fill="#000000" fill-rule="evenodd" fill-opacity="1" /><path clip-path="url(#clip490)" d="M 0 0 M1843.17 1484.23 Q1839.84 1484.23 1837.91 1486.01 Q1836.02 1487.8 1836.02 1490.92 Q1836.02 1494.05 1837.91 1495.83 Q1839.84 1497.61 1843.17 1497.61 Q1846.5 1497.61 1848.42 1495.83 Q1850.34 1494.02 1850.34 1490.92 Q1850.34 1487.8 1848.42 1486.01 Q1846.52 1484.23 1843.17 1484.23 M1838.49 1482.24 Q1835.48 1481.5 1833.79 1479.44 Q1832.13 1477.38 1832.13 1474.42 Q1832.13 1470.27 1835.07 1467.86 Q1838.03 1465.46 1843.17 1465.46 Q1848.33 1465.46 1851.27 1467.86 Q1854.21 1470.27 1854.21 1474.42 Q1854.21 1477.38 1852.52 1479.44 Q1850.85 1481.5 1847.87 1482.24 Q1851.25 1483.03 1853.12 1485.32 Q1855.02 1487.61 1855.02 1490.92 Q1855.02 1495.94 1851.94 1498.63 Q1848.89 1501.31 1843.17 1501.31 Q1837.45 1501.31 1834.37 1498.63 Q1831.32 1495.94 1831.32 1490.92 Q1831.32 1487.61 1833.21 1485.32 Q1835.11 1483.03 1838.49 1482.24 M1836.78 1474.86 Q1836.78 1477.54 1838.45 1479.05 Q1840.14 1480.55 1843.17 1480.55 Q1846.18 1480.55 1847.87 1479.05 Q1849.58 1477.54 1849.58 1474.86 Q1849.58 1472.17 1847.87 1470.67 Q1846.18 1469.16 1843.17 1469.16 Q1840.14 1469.16 1838.45 1470.67 Q1836.78 1472.17 1836.78 1474.86 Z" fill="#000000" fill-rule="evenodd" fill-opacity="1" /><path clip-path="url(#clip490)" d="M 0 0 M2269.02 1496.71 L2276.66 1496.71 L2276.66 1470.34 L2268.35 1472.01 L2268.35 1467.75 L2276.61 1466.08 L2281.29 1466.08 L2281.29 1496.71 L2288.93 1496.71 L2288.93 1500.64 L2269.02 1500.64 L2269.02 1496.71 Z" fill="#000000" fill-rule="evenodd" fill-opacity="1" /><path clip-path="url(#clip490)" d="M 0 0 M2304 1469.16 Q2300.38 1469.16 2298.56 1472.73 Q2296.75 1476.27 2296.75 1483.4 Q2296.75 1490.5 2298.56 1494.07 Q2300.38 1497.61 2304 1497.61 Q2307.63 1497.61 2309.44 1494.07 Q2311.26 1490.5 2311.26 1483.4 Q2311.26 1476.27 2309.44 1472.73 Q2307.63 1469.16 2304 1469.16 M2304 1465.46 Q2309.81 1465.46 2312.86 1470.06 Q2315.94 1474.65 2315.94 1483.4 Q2315.94 1492.12 2312.86 1496.73 Q2309.81 1501.31 2304 1501.31 Q2298.19 1501.31 2295.11 1496.73 Q2292.05 1492.12 2292.05 1483.4 Q2292.05 1474.65 2295.11 1470.06 Q2298.19 1465.46 2304 1465.46 Z" fill="#000000" fill-rule="evenodd" fill-opacity="1" /><path clip-path="url(#clip490)" d="M 0 0 M139.827 1371.77 Q136.216 1371.77 134.387 1375.34 Q132.581 1378.88 132.581 1386.01 Q132.581 1393.12 134.387 1396.68 Q136.216 1400.22 139.827 1400.22 Q143.461 1400.22 145.266 1396.68 Q147.095 1393.12 147.095 1386.01 Q147.095 1378.88 145.266 1375.34 Q143.461 1371.77 139.827 1371.77 M139.827 1368.07 Q145.637 1368.07 148.692 1372.68 Q151.771 1377.26 151.771 1386.01 Q151.771 1394.74 148.692 1399.34 Q145.637 1403.93 139.827 1403.93 Q134.017 1403.93 130.938 1399.34 Q127.882 1394.74 127.882 1386.01 Q127.882 1377.26 130.938 1372.68 Q134.017 1368.07 139.827 1368.07 Z" fill="#000000" fill-rule="evenodd" fill-opacity="1" /><path clip-path="url(#clip490)" d="M 0 0 M156.84 1397.37 L161.725 1397.37 L161.725 1403.25 L156.84 1403.25 L156.84 1397.37 Z" fill="#000000" fill-rule="evenodd" fill-opacity="1" /><path clip-path="url(#clip490)" d="M 0 0 M170.822 1399.32 L187.141 1399.32 L187.141 1403.25 L165.197 1403.25 L165.197 1399.32 Q167.859 1396.56 172.442 1391.93 Q177.049 1387.28 178.229 1385.94 Q180.475 1383.42 181.354 1381.68 Q182.257 1379.92 182.257 1378.23 Q182.257 1375.48 180.313 1373.74 Q178.391 1372 175.289 1372 Q173.09 1372 170.637 1372.77 Q168.206 1373.53 165.428 1375.08 L165.428 1370.36 Q168.252 1369.23 170.706 1368.65 Q173.16 1368.07 175.197 1368.07 Q180.567 1368.07 183.762 1370.75 Q186.956 1373.44 186.956 1377.93 Q186.956 1380.06 186.146 1381.98 Q185.359 1383.88 183.252 1386.47 Q182.674 1387.14 179.572 1390.36 Q176.47 1393.56 170.822 1399.32 Z" fill="#000000" fill-rule="evenodd" fill-opacity="1" /><path clip-path="url(#clip490)" d="M 0 0 M137.743 1047.19 Q134.132 1047.19 132.304 1050.75 Q130.498 1054.29 130.498 1061.42 Q130.498 1068.53 132.304 1072.09 Q134.132 1075.64 137.743 1075.64 Q141.378 1075.64 143.183 1072.09 Q145.012 1068.53 145.012 1061.42 Q145.012 1054.29 143.183 1050.75 Q141.378 1047.19 137.743 1047.19 M137.743 1043.48 Q143.554 1043.48 146.609 1048.09 Q149.688 1052.67 149.688 1061.42 Q149.688 1070.15 146.609 1074.76 Q143.554 1079.34 137.743 1079.34 Q131.933 1079.34 128.855 1074.76 Q125.799 1070.15 125.799 1061.42 Q125.799 1052.67 128.855 1048.09 Q131.933 1043.48 137.743 1043.48 Z" fill="#000000" fill-rule="evenodd" fill-opacity="1" /><path clip-path="url(#clip490)" d="M 0 0 M154.757 1072.79 L159.641 1072.79 L159.641 1078.67 L154.757 1078.67 L154.757 1072.79 Z" fill="#000000" fill-rule="evenodd" fill-opacity="1" /><path clip-path="url(#clip490)" d="M 0 0 M177.558 1048.18 L165.752 1066.63 L177.558 1066.63 L177.558 1048.18 M176.331 1044.11 L182.211 1044.11 L182.211 1066.63 L187.141 1066.63 L187.141 1070.52 L182.211 1070.52 L182.211 1078.67 L177.558 1078.67 L177.558 1070.52 L161.956 1070.52 L161.956 1066.01 L176.331 1044.11 Z" fill="#000000" fill-rule="evenodd" fill-opacity="1" /><path clip-path="url(#clip490)" d="M 0 0 M138.067 722.601 Q134.456 722.601 132.628 726.166 Q130.822 729.708 130.822 736.837 Q130.822 743.944 132.628 747.509 Q134.456 751.05 138.067 751.05 Q141.702 751.05 143.507 747.509 Q145.336 743.944 145.336 736.837 Q145.336 729.708 143.507 726.166 Q141.702 722.601 138.067 722.601 M138.067 718.898 Q143.878 718.898 146.933 723.504 Q150.012 728.087 150.012 736.837 Q150.012 745.564 146.933 750.171 Q143.878 754.754 138.067 754.754 Q132.257 754.754 129.179 750.171 Q126.123 745.564 126.123 736.837 Q126.123 728.087 129.179 723.504 Q132.257 718.898 138.067 718.898 Z" fill="#000000" fill-rule="evenodd" fill-opacity="1" /><path clip-path="url(#clip490)" d="M 0 0 M155.081 748.203 L159.965 748.203 L159.965 754.083 L155.081 754.083 L155.081 748.203 Z" fill="#000000" fill-rule="evenodd" fill-opacity="1" /><path clip-path="url(#clip490)" d="M 0 0 M175.614 734.939 Q172.465 734.939 170.614 737.092 Q168.785 739.245 168.785 742.995 Q168.785 746.722 170.614 748.897 Q172.465 751.05 175.614 751.05 Q178.762 751.05 180.59 748.897 Q182.442 746.722 182.442 742.995 Q182.442 739.245 180.59 737.092 Q178.762 734.939 175.614 734.939 M184.896 720.286 L184.896 724.546 Q183.137 723.712 181.331 723.273 Q179.549 722.833 177.789 722.833 Q173.16 722.833 170.706 725.958 Q168.276 729.083 167.928 735.402 Q169.294 733.388 171.354 732.323 Q173.414 731.235 175.891 731.235 Q181.1 731.235 184.109 734.407 Q187.141 737.555 187.141 742.995 Q187.141 748.319 183.993 751.536 Q180.845 754.754 175.614 754.754 Q169.618 754.754 166.447 750.171 Q163.276 745.564 163.276 736.837 Q163.276 728.643 167.165 723.782 Q171.053 718.898 177.604 718.898 Q179.364 718.898 181.146 719.245 Q182.951 719.592 184.896 720.286 Z" fill="#000000" fill-rule="evenodd" fill-opacity="1" /><path clip-path="url(#clip490)" d="M 0 0 M138.322 398.015 Q134.711 398.015 132.882 401.58 Q131.077 405.122 131.077 412.251 Q131.077 419.358 132.882 422.923 Q134.711 426.464 138.322 426.464 Q141.956 426.464 143.762 422.923 Q145.591 419.358 145.591 412.251 Q145.591 405.122 143.762 401.58 Q141.956 398.015 138.322 398.015 M138.322 394.312 Q144.132 394.312 147.188 398.918 Q150.266 403.502 150.266 412.251 Q150.266 420.978 147.188 425.585 Q144.132 430.168 138.322 430.168 Q132.512 430.168 129.433 425.585 Q126.378 420.978 126.378 412.251 Q126.378 403.502 129.433 398.918 Q132.512 394.312 138.322 394.312 Z" fill="#000000" fill-rule="evenodd" fill-opacity="1" /><path clip-path="url(#clip490)" d="M 0 0 M155.336 423.617 L160.22 423.617 L160.22 429.497 L155.336 429.497 L155.336 423.617 Z" fill="#000000" fill-rule="evenodd" fill-opacity="1" /><path clip-path="url(#clip490)" d="M 0 0 M175.289 413.085 Q171.956 413.085 170.035 414.867 Q168.137 416.65 168.137 419.775 Q168.137 422.9 170.035 424.682 Q171.956 426.464 175.289 426.464 Q178.623 426.464 180.544 424.682 Q182.465 422.876 182.465 419.775 Q182.465 416.65 180.544 414.867 Q178.646 413.085 175.289 413.085 M170.614 411.094 Q167.604 410.353 165.915 408.293 Q164.248 406.233 164.248 403.27 Q164.248 399.127 167.188 396.719 Q170.151 394.312 175.289 394.312 Q180.451 394.312 183.391 396.719 Q186.331 399.127 186.331 403.27 Q186.331 406.233 184.641 408.293 Q182.975 410.353 179.989 411.094 Q183.368 411.881 185.243 414.173 Q187.141 416.464 187.141 419.775 Q187.141 424.798 184.063 427.483 Q181.007 430.168 175.289 430.168 Q169.572 430.168 166.493 427.483 Q163.438 424.798 163.438 419.775 Q163.438 416.464 165.336 414.173 Q167.234 411.881 170.614 411.094 M168.901 403.71 Q168.901 406.395 170.567 407.9 Q172.257 409.404 175.289 409.404 Q178.299 409.404 179.989 407.9 Q181.701 406.395 181.701 403.71 Q181.701 401.025 179.989 399.52 Q178.299 398.015 175.289 398.015 Q172.257 398.015 170.567 399.52 Q168.901 401.025 168.901 403.71 Z" fill="#000000" fill-rule="evenodd" fill-opacity="1" /><path clip-path="url(#clip490)" d="M 0 0 M130.267 100.976 L137.905 100.976 L137.905 74.6102 L129.595 76.2768 L129.595 72.0176 L137.859 70.3509 L142.535 70.3509 L142.535 100.976 L150.174 100.976 L150.174 104.911 L130.267 104.911 L130.267 100.976 Z" fill="#000000" fill-rule="evenodd" fill-opacity="1" /><path clip-path="url(#clip490)" d="M 0 0 M155.243 99.0313 L160.128 99.0313 L160.128 104.911 L155.243 104.911 L155.243 99.0313 Z" fill="#000000" fill-rule="evenodd" fill-opacity="1" /><path clip-path="url(#clip490)" d="M 0 0 M175.197 73.4296 Q171.586 73.4296 169.757 76.9944 Q167.952 80.5361 167.952 87.6657 Q167.952 94.7721 169.757 98.3369 Q171.586 101.879 175.197 101.879 Q178.831 101.879 180.637 98.3369 Q182.465 94.7721 182.465 87.6657 Q182.465 80.5361 180.637 76.9944 Q178.831 73.4296 175.197 73.4296 M175.197 69.7259 Q181.007 69.7259 184.063 74.3324 Q187.141 78.9157 187.141 87.6657 Q187.141 96.3925 184.063 100.999 Q181.007 105.582 175.197 105.582 Q169.387 105.582 166.308 100.999 Q163.252 96.3925 163.252 87.6657 Q163.252 78.9157 166.308 74.3324 Q169.387 69.7259 175.197 69.7259 Z" fill="#000000" fill-rule="evenodd" fill-opacity="1" /><path clip-path="url(#clip490)" d="M 0 0 M1302.46 4.53628 Q1302.38 4.94617 1302.21 5.68398 Q1302.05 6.3808 1301.31 8.59422 Q1300.57 10.8076 1299.59 13.0621 Q1298.65 15.2755 1296.8 18.3907 Q1295 21.4649 1292.79 24.2521 Q1292.17 24.9899 1292.05 25.4408 Q1291.97 25.8507 1291.97 27.2034 Q1291.97 35.7291 1294.55 35.7291 Q1294.67 35.7291 1294.88 35.7291 Q1295.12 35.6881 1295.74 35.4832 Q1296.39 35.2373 1296.97 34.8683 Q1297.54 34.4585 1298.2 33.6387 Q1298.85 32.7779 1299.26 31.6302 Q1299.63 30.8104 1300.37 30.8104 Q1301.35 30.8104 1301.35 31.6302 Q1301.35 33.1058 1299.3 35.3602 Q1297.25 37.6146 1294.3 37.6146 Q1291.47 37.6146 1289.47 35.7701 Q1287.5 33.8846 1286.68 30.5235 Q1277.83 37.6146 1268.97 37.6146 Q1262.74 37.6146 1259.05 33.5567 Q1255.36 29.4578 1255.36 23.3913 Q1255.36 17.5709 1258.56 12.0373 Q1261.8 6.50377 1267.05 3.06067 Q1272.33 -0.423422 1277.95 -0.423422 Q1279.92 -0.423422 1281.8 0.109439 Q1283.69 0.60131 1285.57 1.87198 Q1287.46 3.14265 1288.85 5.06914 Q1290.25 6.99564 1291.11 10.0288 Q1291.97 13.0621 1291.97 16.8741 L1291.97 22.0797 Q1297.38 15.2345 1300.21 5.43805 Q1300.62 3.96243 1300.86 3.79847 Q1301.03 3.67551 1301.44 3.67551 Q1301.85 3.67551 1302.09 3.92144 Q1302.38 4.12639 1302.42 4.33133 L1302.46 4.53628 M1286.35 28.3511 Q1286.19 26.9164 1286.19 18.9645 Q1286.19 17.4479 1286.19 16.6281 Q1286.19 15.7673 1286.11 14.1278 Q1286.02 12.4882 1285.86 11.4635 Q1285.74 10.4387 1285.45 8.96312 Q1285.16 7.48751 1284.75 6.54476 Q1284.34 5.602 1283.69 4.53628 Q1283.07 3.47056 1282.25 2.85572 Q1281.47 2.24088 1280.33 1.83099 Q1279.22 1.4211 1277.87 1.4211 Q1276.19 1.4211 1274.42 2.03594 Q1272.7 2.60978 1270.49 4.4543 Q1268.27 6.25783 1266.43 9.12708 Q1264.5 12.1603 1263.03 17.7348 Q1261.59 23.2684 1261.59 26.5885 Q1261.59 30.7694 1263.52 33.2698 Q1265.45 35.7291 1269.14 35.7291 Q1277.95 35.7291 1286.35 28.3511 Z" fill="#000000" fill-rule="evenodd" fill-opacity="1" /><path clip-path="url(#clip490)" d="M 0 0 M1296.11 1527.48 Q1296.11 1529.28 1294.98 1530.31 Q1293.85 1531.31 1292.57 1531.31 Q1291.34 1531.31 1290.7 1530.6 Q1290.05 1529.89 1290.05 1528.99 Q1290.05 1527.77 1290.96 1526.7 Q1291.86 1525.64 1293.21 1525.42 Q1291.89 1524.58 1289.93 1524.58 Q1288.64 1524.58 1287.51 1525.26 Q1286.41 1525.93 1285.74 1526.8 Q1285.09 1527.67 1284.51 1528.93 Q1283.97 1530.15 1283.74 1530.89 Q1283.55 1531.6 1283.39 1532.37 L1281.13 1541.39 Q1280.04 1545.67 1280.04 1547.19 Q1280.04 1549.06 1280.94 1550.31 Q1281.84 1551.54 1283.64 1551.54 Q1284.35 1551.54 1285.16 1551.34 Q1285.96 1551.12 1286.99 1550.54 Q1288.06 1549.93 1288.99 1549.02 Q1289.96 1548.09 1290.89 1546.51 Q1291.83 1544.93 1292.44 1542.9 Q1292.63 1542.2 1293.27 1542.2 Q1294.08 1542.2 1294.08 1542.84 Q1294.08 1543.39 1293.63 1544.55 Q1293.21 1545.67 1292.28 1547.16 Q1291.37 1548.6 1290.18 1549.93 Q1288.99 1551.21 1287.22 1552.12 Q1285.45 1553.02 1283.52 1553.02 Q1280.75 1553.02 1278.91 1551.54 Q1277.07 1550.05 1276.4 1547.99 Q1276.24 1548.28 1276.01 1548.67 Q1275.79 1549.06 1275.11 1549.93 Q1274.47 1550.76 1273.73 1551.41 Q1272.98 1552.02 1271.83 1552.5 Q1270.7 1553.02 1269.47 1553.02 Q1267.93 1553.02 1266.54 1552.57 Q1265.19 1552.12 1264.22 1551.08 Q1263.26 1550.05 1263.26 1548.64 Q1263.26 1547.06 1264.32 1545.96 Q1265.42 1544.84 1266.9 1544.84 Q1267.83 1544.84 1268.57 1545.38 Q1269.35 1545.93 1269.35 1547.12 Q1269.35 1548.44 1268.44 1549.44 Q1267.54 1550.44 1266.25 1550.7 Q1267.57 1551.54 1269.54 1551.54 Q1271.66 1551.54 1273.34 1549.67 Q1275.01 1547.8 1275.82 1544.68 Q1277.82 1537.17 1278.59 1533.82 Q1279.36 1530.44 1279.36 1528.99 Q1279.36 1527.64 1279.01 1526.7 Q1278.65 1525.77 1278.04 1525.35 Q1277.46 1524.9 1276.91 1524.74 Q1276.4 1524.58 1275.82 1524.58 Q1274.85 1524.58 1273.76 1524.97 Q1272.69 1525.35 1271.41 1526.25 Q1270.15 1527.12 1268.96 1528.93 Q1267.77 1530.73 1266.96 1533.21 Q1266.8 1533.95 1266.09 1533.95 Q1265.32 1533.92 1265.32 1533.27 Q1265.32 1532.73 1265.74 1531.6 Q1266.19 1530.44 1267.09 1528.99 Q1268.03 1527.54 1269.22 1526.25 Q1270.44 1524.93 1272.21 1524.03 Q1274.02 1523.13 1275.95 1523.13 Q1276.82 1523.13 1277.65 1523.32 Q1278.52 1523.48 1279.55 1523.97 Q1280.62 1524.45 1281.55 1525.51 Q1282.49 1526.58 1283.07 1528.12 Q1283.45 1527.38 1283.97 1526.67 Q1284.51 1525.96 1285.35 1525.09 Q1286.22 1524.19 1287.41 1523.68 Q1288.64 1523.13 1289.99 1523.13 Q1291.31 1523.13 1292.6 1523.48 Q1293.89 1523.81 1294.98 1524.87 Q1296.11 1525.9 1296.11 1527.48 Z" fill="#000000" fill-rule="evenodd" fill-opacity="1" /><path clip-path="url(#clip490)" d="M 0 0 M60.8835 752.42 Q61.3344 752.42 62.3972 752.71 L87.5821 759.022 Q93.186 760.407 97.1151 764.916 Q101.044 769.393 101.044 774.481 Q101.044 777.541 99.4017 779.505 Q97.7914 781.47 95.3115 781.47 Q93.1216 781.47 92.0588 780.31 Q91.0282 779.151 91.0282 777.766 Q91.0282 777.315 91.157 776.832 Q91.2858 776.349 91.8333 775.834 Q92.3808 775.318 93.3148 775.318 Q94.8285 775.318 96.0201 776.639 Q96.5676 777.283 96.6964 777.895 Q96.8252 778.475 96.8252 779.473 Q97.727 779.086 98.3389 778.378 Q98.9508 777.669 99.1763 776.864 Q99.4339 776.059 99.4983 775.544 Q99.5949 774.996 99.5949 774.481 Q99.5949 770.359 95.4404 767.203 Q94.1843 766.269 92.9283 765.592 Q91.7045 764.884 90.1908 764.368 Q88.7093 763.853 87.9042 763.628 Q87.0991 763.37 85.2633 762.919 Q88.2585 765.914 88.2585 769.586 Q88.2585 771.132 87.8398 772.516 Q87.4211 773.869 86.5516 775.061 Q85.6498 776.252 84.0717 776.961 Q82.4936 777.637 80.4002 777.637 Q78.178 777.637 75.1507 776.768 Q72.1233 775.898 66.5517 773.805 Q63.4277 772.678 61.9141 772.678 Q61.1733 772.678 60.7225 772.839 Q60.2394 773 60.0783 773.322 Q59.8851 773.644 59.8529 773.837 Q59.8207 773.998 59.8207 774.32 Q59.8207 776.22 61.753 777.991 Q63.6854 779.763 68.001 780.987 Q68.8061 781.244 68.9994 781.405 Q69.1926 781.566 69.1926 782.049 Q69.1604 782.855 68.5163 782.855 Q68.2586 782.855 67.2602 782.565 Q66.2297 782.275 64.716 781.599 Q63.1701 780.89 61.7852 779.924 Q60.3682 778.958 59.3698 777.444 Q58.3714 775.898 58.3714 774.127 Q58.3714 771.711 59.9495 770.23 Q61.4954 768.716 63.782 768.716 Q64.716 768.716 65.5533 768.974 Q66.3585 769.199 68.5163 770.037 Q77.2119 773.418 81.463 773.418 Q82.4936 773.418 83.3632 773.257 Q84.2005 773.064 85.0379 772.645 Q85.843 772.227 86.3261 771.389 Q86.777 770.52 86.777 769.328 Q86.777 767.814 86.0685 766.397 Q85.3277 764.948 84.3294 764.046 Q83.331 763.112 82.4936 762.565 Q81.6241 761.985 81.1732 761.856 L69.3214 758.893 L64.0397 757.573 Q61.1733 756.961 60.4648 756.671 Q59.7885 756.285 59.4342 755.608 Q59.08 754.932 59.08 754.352 Q59.08 753.547 59.563 753 Q60.0461 752.42 60.8835 752.42 Z" fill="#000000" fill-rule="evenodd" fill-opacity="1" /><polyline clip-path="url(#clip492)" style="stroke:#009af9; stroke-width:4; stroke-opacity:1; fill:none" points="
  271.753,1135.64 496.241,554.974 720.729,1083.01 945.217,1408.66 1169.7,125.03 1394.19,871.784 1618.68,1073.43 1843.17,1201.01 2067.66,609.93 2292.14,1276.76 
  
  "/>
<path clip-path="url(#clip490)" d="
M2061.74 192.357 L2352.76 192.357 L2352.76 71.3965 L2061.74 71.3965  Z
  " fill="#ffffff" fill-rule="evenodd" fill-opacity="1"/>
<polyline clip-path="url(#clip490)" style="stroke:#000000; stroke-width:4; stroke-opacity:1; fill:none" points="
  2061.74,192.357 2352.76,192.357 2352.76,71.3965 2061.74,71.3965 2061.74,192.357 
  "/>
<polyline clip-path="url(#clip490)" style="stroke:#009af9; stroke-width:4; stroke-opacity:1; fill:none" points="
  2085.74,131.877 2229.74,131.877 
  "/>
<path clip-path="url(#clip490)" d="M 0 0 M2267.58 151.564 Q2265.77 156.194 2264.06 157.606 Q2262.35 159.018 2259.48 159.018 L2256.08 159.018 L2256.08 155.453 L2258.58 155.453 Q2260.33 155.453 2261.31 154.619 Q2262.28 153.786 2263.46 150.684 L2264.22 148.74 L2253.74 123.231 L2258.25 123.231 L2266.35 143.508 L2274.46 123.231 L2278.97 123.231 L2267.58 151.564 Z" fill="#000000" fill-rule="evenodd" fill-opacity="1" /><path clip-path="url(#clip490)" d="M 0 0 M2284.85 145.221 L2292.49 145.221 L2292.49 118.856 L2284.18 120.522 L2284.18 116.263 L2292.44 114.597 L2297.12 114.597 L2297.12 145.221 L2304.76 145.221 L2304.76 149.157 L2284.85 149.157 L2284.85 145.221 Z" fill="#000000" fill-rule="evenodd" fill-opacity="1" /></svg>
