<?xml version="1.0" encoding="utf-8"?>
<svg xmlns="http://www.w3.org/2000/svg" xmlns:xlink="http://www.w3.org/1999/xlink" width="600" height="400" viewBox="0 0 2400 1600">
<defs>
  <clipPath id="clip190">
    <rect x="0" y="0" width="2400" height="1600"/>
  </clipPath>
</defs>
<path clip-path="url(#clip190)" d="
M0 1600 L2400 1600 L2400 0 L0 0  Z
  " fill="#ffffff" fill-rule="evenodd" fill-opacity="1"/>
<defs>
  <clipPath id="clip191">
    <rect x="480" y="0" width="1681" height="1600"/>
  </clipPath>
</defs>
<defs>
  <clipPath id="clip192">
    <rect x="2137" y="0" width="73" height="1600"/>
  </clipPath>
</defs>
<path clip-path="url(#clip190)" d="
M199.874 1445.63 L2352.76 1445.63 L2352.76 88.065 L199.874 88.065  Z
  " fill="#ffffff" fill-rule="evenodd" fill-opacity="1"/>
<defs>
  <clipPath id="clip193">
    <rect x="199" y="88" width="2154" height="1359"/>
  </clipPath>
</defs>
<polyline clip-path="url(#clip193)" style="stroke:#000000; stroke-width:2; stroke-opacity:0.1; fill:none" points="
  486.474,1445.63 486.474,88.065 
  "/>
<polyline clip-path="url(#clip193)" style="stroke:#000000; stroke-width:2; stroke-opacity:0.1; fill:none" points="
  937.812,1445.63 937.812,88.065 
  "/>
<polyline clip-path="url(#clip193)" style="stroke:#000000; stroke-width:2; stroke-opacity:0.1; fill:none" points="
  1389.15,1445.63 1389.15,88.065 
  "/>
<polyline clip-path="url(#clip193)" style="stroke:#000000; stroke-width:2; stroke-opacity:0.1; fill:none" points="
  1840.49,1445.63 1840.49,88.065 
  "/>
<polyline clip-path="url(#clip193)" style="stroke:#000000; stroke-width:2; stroke-opacity:0.1; fill:none" points="
  2291.83,1445.63 2291.83,88.065 
  "/>
<polyline clip-path="url(#clip193)" style="stroke:#000000; stroke-width:2; stroke-opacity:0.1; fill:none" points="
  199.874,1343.34 2352.76,1343.34 
  "/>
<polyline clip-path="url(#clip193)" style="stroke:#000000; stroke-width:2; stroke-opacity:0.1; fill:none" points="
  199.874,1151.9 2352.76,1151.9 
  "/>
<polyline clip-path="url(#clip193)" style="stroke:#000000; stroke-width:2; stroke-opacity:0.1; fill:none" points="
  199.874,960.46 2352.76,960.46 
  "/>
<polyline clip-path="url(#clip193)" style="stroke:#000000; stroke-width:2; stroke-opacity:0.1; fill:none" points="
  199.874,769.018 2352.76,769.018 
  "/>
<polyline clip-path="url(#clip193)" style="stroke:#000000; stroke-width:2; stroke-opacity:0.1; fill:none" points="
  199.874,577.575 2352.76,577.575 
  "/>
<polyline clip-path="url(#clip193)" style="stroke:#000000; stroke-width:2; stroke-opacity:0.1; fill:none" points="
  199.874,386.133 2352.76,386.133 
  "/>
<polyline clip-path="url(#clip193)" style="stroke:#000000; stroke-width:2; stroke-opacity:0.1; fill:none" points="
  199.874,194.691 2352.76,194.691 
  "/>
<polyline clip-path="url(#clip190)" style="stroke:#000000; stroke-width:4; stroke-opacity:1; fill:none" points="
  199.874,1445.63 2352.76,1445.63 
  "/>
<polyline clip-path="url(#clip190)" style="stroke:#000000; stroke-width:4; stroke-opacity:1; fill:none" points="
  199.874,1445.63 199.874,88.065 
  "/>
<polyline clip-path="url(#clip190)" style="stroke:#000000; stroke-width:4; stroke-opacity:1; fill:none" points="
  486.474,1445.63 486.474,1429.34 
  "/>
<polyline clip-path="url(#clip190)" style="stroke:#000000; stroke-width:4; stroke-opacity:1; fill:none" points="
  937.812,1445.63 937.812,1429.34 
  "/>
<polyline clip-path="url(#clip190)" style="stroke:#000000; stroke-width:4; stroke-opacity:1; fill:none" points="
  1389.15,1445.63 1389.15,1429.34 
  "/>
<polyline clip-path="url(#clip190)" style="stroke:#000000; stroke-width:4; stroke-opacity:1; fill:none" points="
  1840.49,1445.63 1840.49,1429.34 
  "/>
<polyline clip-path="url(#clip190)" style="stroke:#000000; stroke-width:4; stroke-opacity:1; fill:none" points="
  2291.83,1445.63 2291.83,1429.34 
  "/>
<polyline clip-path="url(#clip190)" style="stroke:#000000; stroke-width:4; stroke-opacity:1; fill:none" points="
  199.874,1343.34 225.709,1343.34 
  "/>
<polyline clip-path="url(#clip190)" style="stroke:#000000; stroke-width:4; stroke-opacity:1; fill:none" points="
  199.874,1151.9 225.709,1151.9 
  "/>
<polyline clip-path="url(#clip190)" style="stroke:#000000; stroke-width:4; stroke-opacity:1; fill:none" points="
  199.874,960.46 225.709,960.46 
  "/>
<polyline clip-path="url(#clip190)" style="stroke:#000000; stroke-width:4; stroke-opacity:1; fill:none" points="
  199.874,769.018 225.709,769.018 
  "/>
<polyline clip-path="url(#clip190)" style="stroke:#000000; stroke-width:4; stroke-opacity:1; fill:none" points="
  199.874,577.575 225.709,577.575 
  "/>
<polyline clip-path="url(#clip190)" style="stroke:#000000; stroke-width:4; stroke-opacity:1; fill:none" points="
  199.874,386.133 225.709,386.133 
  "/>
<polyline clip-path="url(#clip190)" style="stroke:#000000; stroke-width:4; stroke-opacity:1; fill:none" points="
  199.874,194.691 225.709,194.691 
  "/>
<path clip-path="url(#clip190)" d="M 0 0 M481.126 1495.16 L497.446 1495.16 L497.446 1499.1 L475.501 1499.1 L475.501 1495.16 Q478.164 1492.41 482.747 1487.78 Q487.353 1483.13 488.534 1481.78 Q490.779 1479.26 491.659 1477.52 Q492.562 1475.77 492.562 1474.08 Q492.562 1471.32 490.617 1469.59 Q488.696 1467.85 485.594 1467.85 Q483.395 1467.85 480.941 1468.61 Q478.511 1469.38 475.733 1470.93 L475.733 1466.21 Q478.557 1465.07 481.011 1464.49 Q483.464 1463.91 485.501 1463.91 Q490.872 1463.91 494.066 1466.6 Q497.261 1469.28 497.261 1473.77 Q497.261 1475.9 496.45 1477.83 Q495.663 1479.72 493.557 1482.32 Q492.978 1482.99 489.876 1486.21 Q486.775 1489.4 481.126 1495.16 Z" fill="#000000" fill-rule="evenodd" fill-opacity="1" /><path clip-path="url(#clip190)" d="M 0 0 M940.821 1468.61 L929.015 1487.06 L940.821 1487.06 L940.821 1468.61 M939.594 1464.54 L945.474 1464.54 L945.474 1487.06 L950.404 1487.06 L950.404 1490.95 L945.474 1490.95 L945.474 1499.1 L940.821 1499.1 L940.821 1490.95 L925.219 1490.95 L925.219 1486.44 L939.594 1464.54 Z" fill="#000000" fill-rule="evenodd" fill-opacity="1" /><path clip-path="url(#clip190)" d="M 0 0 M1389.55 1479.96 Q1386.41 1479.96 1384.55 1482.11 Q1382.73 1484.26 1382.73 1488.01 Q1382.73 1491.74 1384.55 1493.91 Q1386.41 1496.07 1389.55 1496.07 Q1392.7 1496.07 1394.53 1493.91 Q1396.38 1491.74 1396.38 1488.01 Q1396.38 1484.26 1394.53 1482.11 Q1392.7 1479.96 1389.55 1479.96 M1398.84 1465.3 L1398.84 1469.56 Q1397.08 1468.73 1395.27 1468.29 Q1393.49 1467.85 1391.73 1467.85 Q1387.1 1467.85 1384.65 1470.97 Q1382.22 1474.1 1381.87 1480.42 Q1383.24 1478.4 1385.3 1477.34 Q1387.36 1476.25 1389.83 1476.25 Q1395.04 1476.25 1398.05 1479.42 Q1401.08 1482.57 1401.08 1488.01 Q1401.08 1493.34 1397.93 1496.55 Q1394.79 1499.77 1389.55 1499.77 Q1383.56 1499.77 1380.39 1495.19 Q1377.22 1490.58 1377.22 1481.85 Q1377.22 1473.66 1381.11 1468.8 Q1384.99 1463.91 1391.55 1463.91 Q1393.3 1463.91 1395.09 1464.26 Q1396.89 1464.61 1398.84 1465.3 Z" fill="#000000" fill-rule="evenodd" fill-opacity="1" /><path clip-path="url(#clip190)" d="M 0 0 M1840.49 1482.69 Q1837.15 1482.69 1835.23 1484.47 Q1833.33 1486.25 1833.33 1489.38 Q1833.33 1492.5 1835.23 1494.28 Q1837.15 1496.07 1840.49 1496.07 Q1843.82 1496.07 1845.74 1494.28 Q1847.66 1492.48 1847.66 1489.38 Q1847.66 1486.25 1845.74 1484.47 Q1843.84 1482.69 1840.49 1482.69 M1835.81 1480.7 Q1832.8 1479.96 1831.11 1477.9 Q1829.45 1475.84 1829.45 1472.87 Q1829.45 1468.73 1832.39 1466.32 Q1835.35 1463.91 1840.49 1463.91 Q1845.65 1463.91 1848.59 1466.32 Q1851.53 1468.73 1851.53 1472.87 Q1851.53 1475.84 1849.84 1477.9 Q1848.17 1479.96 1845.19 1480.7 Q1848.57 1481.48 1850.44 1483.77 Q1852.34 1486.07 1852.34 1489.38 Q1852.34 1494.4 1849.26 1497.09 Q1846.2 1499.77 1840.49 1499.77 Q1834.77 1499.77 1831.69 1497.09 Q1828.64 1494.4 1828.64 1489.38 Q1828.64 1486.07 1830.53 1483.77 Q1832.43 1481.48 1835.81 1480.7 M1834.1 1473.31 Q1834.1 1476 1835.77 1477.5 Q1837.45 1479.01 1840.49 1479.01 Q1843.5 1479.01 1845.19 1477.5 Q1846.9 1476 1846.9 1473.31 Q1846.9 1470.63 1845.19 1469.12 Q1843.5 1467.62 1840.49 1467.62 Q1837.45 1467.62 1835.77 1469.12 Q1834.1 1470.63 1834.1 1473.31 Z" fill="#000000" fill-rule="evenodd" fill-opacity="1" /><path clip-path="url(#clip190)" d="M 0 0 M2268.7 1495.16 L2276.34 1495.16 L2276.34 1468.8 L2268.03 1470.46 L2268.03 1466.21 L2276.29 1464.54 L2280.97 1464.54 L2280.97 1495.16 L2288.61 1495.16 L2288.61 1499.1 L2268.7 1499.1 L2268.7 1495.16 Z" fill="#000000" fill-rule="evenodd" fill-opacity="1" /><path clip-path="url(#clip190)" d="M 0 0 M2303.68 1467.62 Q2300.07 1467.62 2298.24 1471.18 Q2296.43 1474.72 2296.43 1481.85 Q2296.43 1488.96 2298.24 1492.52 Q2300.07 1496.07 2303.68 1496.07 Q2307.31 1496.07 2309.12 1492.52 Q2310.95 1488.96 2310.95 1481.85 Q2310.95 1474.72 2309.12 1471.18 Q2307.31 1467.62 2303.68 1467.62 M2303.68 1463.91 Q2309.49 1463.91 2312.54 1468.52 Q2315.62 1473.1 2315.62 1481.85 Q2315.62 1490.58 2312.54 1495.19 Q2309.49 1499.77 2303.68 1499.77 Q2297.87 1499.77 2294.79 1495.19 Q2291.73 1490.58 2291.73 1481.85 Q2291.73 1473.1 2294.79 1468.52 Q2297.87 1463.91 2303.68 1463.91 Z" fill="#000000" fill-rule="evenodd" fill-opacity="1" /><path clip-path="url(#clip190)" d="M 0 0 M127.61 1329.14 Q123.999 1329.14 122.171 1332.71 Q120.365 1336.25 120.365 1343.38 Q120.365 1350.49 122.171 1354.05 Q123.999 1357.59 127.61 1357.59 Q131.245 1357.59 133.05 1354.05 Q134.879 1350.49 134.879 1343.38 Q134.879 1336.25 133.05 1332.71 Q131.245 1329.14 127.61 1329.14 M127.61 1325.44 Q133.421 1325.44 136.476 1330.05 Q139.555 1334.63 139.555 1343.38 Q139.555 1352.11 136.476 1356.71 Q133.421 1361.3 127.61 1361.3 Q121.8 1361.3 118.722 1356.71 Q115.666 1352.11 115.666 1343.38 Q115.666 1334.63 118.722 1330.05 Q121.8 1325.44 127.61 1325.44 Z" fill="#000000" fill-rule="evenodd" fill-opacity="1" /><path clip-path="url(#clip190)" d="M 0 0 M144.624 1354.74 L149.508 1354.74 L149.508 1360.62 L144.624 1360.62 L144.624 1354.74 Z" fill="#000000" fill-rule="evenodd" fill-opacity="1" /><path clip-path="url(#clip190)" d="M 0 0 M168.744 1341.99 Q172.101 1342.71 173.976 1344.98 Q175.874 1347.24 175.874 1350.58 Q175.874 1355.69 172.356 1358.49 Q168.837 1361.3 162.356 1361.3 Q160.18 1361.3 157.865 1360.86 Q155.573 1360.44 153.12 1359.58 L153.12 1355.07 Q155.064 1356.2 157.379 1356.78 Q159.694 1357.36 162.217 1357.36 Q166.615 1357.36 168.907 1355.62 Q171.221 1353.89 171.221 1350.58 Q171.221 1347.52 169.069 1345.81 Q166.939 1344.07 163.12 1344.07 L159.092 1344.07 L159.092 1340.23 L163.305 1340.23 Q166.754 1340.23 168.582 1338.87 Q170.411 1337.48 170.411 1334.88 Q170.411 1332.22 168.513 1330.81 Q166.638 1329.37 163.12 1329.37 Q161.198 1329.37 158.999 1329.79 Q156.8 1330.21 154.161 1331.09 L154.161 1326.92 Q156.823 1326.18 159.138 1325.81 Q161.476 1325.44 163.536 1325.44 Q168.86 1325.44 171.962 1327.87 Q175.064 1330.28 175.064 1334.4 Q175.064 1337.27 173.42 1339.26 Q171.777 1341.23 168.744 1341.99 Z" fill="#000000" fill-rule="evenodd" fill-opacity="1" /><path clip-path="url(#clip190)" d="M 0 0 M126.476 1137.7 Q122.865 1137.7 121.036 1141.27 Q119.231 1144.81 119.231 1151.94 Q119.231 1159.04 121.036 1162.61 Q122.865 1166.15 126.476 1166.15 Q130.11 1166.15 131.916 1162.61 Q133.745 1159.04 133.745 1151.94 Q133.745 1144.81 131.916 1141.27 Q130.11 1137.7 126.476 1137.7 M126.476 1134 Q132.286 1134 135.342 1138.6 Q138.421 1143.19 138.421 1151.94 Q138.421 1160.66 135.342 1165.27 Q132.286 1169.85 126.476 1169.85 Q120.666 1169.85 117.587 1165.27 Q114.532 1160.66 114.532 1151.94 Q114.532 1143.19 117.587 1138.6 Q120.666 1134 126.476 1134 Z" fill="#000000" fill-rule="evenodd" fill-opacity="1" /><path clip-path="url(#clip190)" d="M 0 0 M143.49 1163.3 L148.374 1163.3 L148.374 1169.18 L143.49 1169.18 L143.49 1163.3 Z" fill="#000000" fill-rule="evenodd" fill-opacity="1" /><path clip-path="url(#clip190)" d="M 0 0 M166.291 1138.7 L154.485 1157.15 L166.291 1157.15 L166.291 1138.7 M165.064 1134.62 L170.944 1134.62 L170.944 1157.15 L175.874 1157.15 L175.874 1161.03 L170.944 1161.03 L170.944 1169.18 L166.291 1169.18 L166.291 1161.03 L150.689 1161.03 L150.689 1156.52 L165.064 1134.62 Z" fill="#000000" fill-rule="evenodd" fill-opacity="1" /><path clip-path="url(#clip190)" d="M 0 0 M127.958 946.258 Q124.347 946.258 122.518 949.823 Q120.712 953.365 120.712 960.494 Q120.712 967.601 122.518 971.166 Q124.347 974.707 127.958 974.707 Q131.592 974.707 133.397 971.166 Q135.226 967.601 135.226 960.494 Q135.226 953.365 133.397 949.823 Q131.592 946.258 127.958 946.258 M127.958 942.555 Q133.768 942.555 136.823 947.161 Q139.902 951.745 139.902 960.494 Q139.902 969.221 136.823 973.828 Q133.768 978.411 127.958 978.411 Q122.148 978.411 119.069 973.828 Q116.013 969.221 116.013 960.494 Q116.013 951.745 119.069 947.161 Q122.148 942.555 127.958 942.555 Z" fill="#000000" fill-rule="evenodd" fill-opacity="1" /><path clip-path="url(#clip190)" d="M 0 0 M144.971 971.86 L149.856 971.86 L149.856 977.74 L144.971 977.74 L144.971 971.86 Z" fill="#000000" fill-rule="evenodd" fill-opacity="1" /><path clip-path="url(#clip190)" d="M 0 0 M154.971 943.18 L173.328 943.18 L173.328 947.115 L159.254 947.115 L159.254 955.587 Q160.272 955.24 161.291 955.078 Q162.309 954.893 163.328 954.893 Q169.115 954.893 172.494 958.064 Q175.874 961.235 175.874 966.652 Q175.874 972.231 172.402 975.332 Q168.93 978.411 162.61 978.411 Q160.434 978.411 158.166 978.041 Q155.92 977.67 153.513 976.93 L153.513 972.231 Q155.596 973.365 157.819 973.92 Q160.041 974.476 162.518 974.476 Q166.522 974.476 168.86 972.369 Q171.198 970.263 171.198 966.652 Q171.198 963.041 168.86 960.934 Q166.522 958.828 162.518 958.828 Q160.643 958.828 158.768 959.245 Q156.916 959.661 154.971 960.541 L154.971 943.18 Z" fill="#000000" fill-rule="evenodd" fill-opacity="1" /><path clip-path="url(#clip190)" d="M 0 0 M126.8 754.816 Q123.189 754.816 121.36 758.381 Q119.555 761.923 119.555 769.052 Q119.555 776.159 121.36 779.724 Q123.189 783.265 126.8 783.265 Q130.435 783.265 132.24 779.724 Q134.069 776.159 134.069 769.052 Q134.069 761.923 132.24 758.381 Q130.435 754.816 126.8 754.816 M126.8 751.113 Q132.61 751.113 135.666 755.719 Q138.745 760.302 138.745 769.052 Q138.745 777.779 135.666 782.386 Q132.61 786.969 126.8 786.969 Q120.99 786.969 117.911 782.386 Q114.856 777.779 114.856 769.052 Q114.856 760.302 117.911 755.719 Q120.99 751.113 126.8 751.113 Z" fill="#000000" fill-rule="evenodd" fill-opacity="1" /><path clip-path="url(#clip190)" d="M 0 0 M143.814 780.418 L148.698 780.418 L148.698 786.298 L143.814 786.298 L143.814 780.418 Z" fill="#000000" fill-rule="evenodd" fill-opacity="1" /><path clip-path="url(#clip190)" d="M 0 0 M164.346 767.154 Q161.198 767.154 159.346 769.307 Q157.518 771.46 157.518 775.21 Q157.518 778.936 159.346 781.112 Q161.198 783.265 164.346 783.265 Q167.495 783.265 169.323 781.112 Q171.175 778.936 171.175 775.21 Q171.175 771.46 169.323 769.307 Q167.495 767.154 164.346 767.154 M173.629 752.501 L173.629 756.761 Q171.869 755.927 170.064 755.488 Q168.282 755.048 166.522 755.048 Q161.893 755.048 159.439 758.173 Q157.008 761.298 156.661 767.617 Q158.027 765.603 160.087 764.538 Q162.147 763.45 164.624 763.45 Q169.832 763.45 172.842 766.622 Q175.874 769.77 175.874 775.21 Q175.874 780.534 172.726 783.751 Q169.578 786.969 164.346 786.969 Q158.351 786.969 155.18 782.386 Q152.008 777.779 152.008 769.052 Q152.008 760.858 155.897 755.997 Q159.786 751.113 166.337 751.113 Q168.096 751.113 169.879 751.46 Q171.684 751.807 173.629 752.501 Z" fill="#000000" fill-rule="evenodd" fill-opacity="1" /><path clip-path="url(#clip190)" d="M 0 0 M127.865 563.374 Q124.254 563.374 122.425 566.939 Q120.62 570.48 120.62 577.61 Q120.62 584.716 122.425 588.281 Q124.254 591.823 127.865 591.823 Q131.499 591.823 133.305 588.281 Q135.134 584.716 135.134 577.61 Q135.134 570.48 133.305 566.939 Q131.499 563.374 127.865 563.374 M127.865 559.67 Q133.675 559.67 136.731 564.277 Q139.809 568.86 139.809 577.61 Q139.809 586.337 136.731 590.943 Q133.675 595.527 127.865 595.527 Q122.055 595.527 118.976 590.943 Q115.921 586.337 115.921 577.61 Q115.921 568.86 118.976 564.277 Q122.055 559.67 127.865 559.67 Z" fill="#000000" fill-rule="evenodd" fill-opacity="1" /><path clip-path="url(#clip190)" d="M 0 0 M144.879 588.976 L149.763 588.976 L149.763 594.855 L144.879 594.855 L144.879 588.976 Z" fill="#000000" fill-rule="evenodd" fill-opacity="1" /><path clip-path="url(#clip190)" d="M 0 0 M153.652 560.295 L175.874 560.295 L175.874 562.286 L163.328 594.855 L158.444 594.855 L170.249 564.23 L153.652 564.23 L153.652 560.295 Z" fill="#000000" fill-rule="evenodd" fill-opacity="1" /><path clip-path="url(#clip190)" d="M 0 0 M127.055 371.932 Q123.444 371.932 121.615 375.497 Q119.81 379.038 119.81 386.168 Q119.81 393.274 121.615 396.839 Q123.444 400.381 127.055 400.381 Q130.689 400.381 132.495 396.839 Q134.323 393.274 134.323 386.168 Q134.323 379.038 132.495 375.497 Q130.689 371.932 127.055 371.932 M127.055 368.228 Q132.865 368.228 135.921 372.835 Q138.999 377.418 138.999 386.168 Q138.999 394.895 135.921 399.501 Q132.865 404.084 127.055 404.084 Q121.245 404.084 118.166 399.501 Q115.111 394.895 115.111 386.168 Q115.111 377.418 118.166 372.835 Q121.245 368.228 127.055 368.228 Z" fill="#000000" fill-rule="evenodd" fill-opacity="1" /><path clip-path="url(#clip190)" d="M 0 0 M144.069 397.534 L148.953 397.534 L148.953 403.413 L144.069 403.413 L144.069 397.534 Z" fill="#000000" fill-rule="evenodd" fill-opacity="1" /><path clip-path="url(#clip190)" d="M 0 0 M164.022 387.001 Q160.689 387.001 158.768 388.784 Q156.87 390.566 156.87 393.691 Q156.87 396.816 158.768 398.598 Q160.689 400.381 164.022 400.381 Q167.356 400.381 169.277 398.598 Q171.198 396.793 171.198 393.691 Q171.198 390.566 169.277 388.784 Q167.379 387.001 164.022 387.001 M159.346 385.01 Q156.337 384.27 154.647 382.21 Q152.981 380.149 152.981 377.186 Q152.981 373.043 155.92 370.636 Q158.883 368.228 164.022 368.228 Q169.184 368.228 172.124 370.636 Q175.064 373.043 175.064 377.186 Q175.064 380.149 173.374 382.21 Q171.707 384.27 168.721 385.01 Q172.101 385.797 173.976 388.089 Q175.874 390.381 175.874 393.691 Q175.874 398.714 172.795 401.399 Q169.74 404.084 164.022 404.084 Q158.305 404.084 155.226 401.399 Q152.171 398.714 152.171 393.691 Q152.171 390.381 154.069 388.089 Q155.967 385.797 159.346 385.01 M157.633 377.626 Q157.633 380.311 159.3 381.816 Q160.99 383.321 164.022 383.321 Q167.032 383.321 168.721 381.816 Q170.434 380.311 170.434 377.626 Q170.434 374.941 168.721 373.436 Q167.032 371.932 164.022 371.932 Q160.99 371.932 159.3 373.436 Q157.633 374.941 157.633 377.626 Z" fill="#000000" fill-rule="evenodd" fill-opacity="1" /><path clip-path="url(#clip190)" d="M 0 0 M127.147 180.49 Q123.536 180.49 121.708 184.054 Q119.902 187.596 119.902 194.726 Q119.902 201.832 121.708 205.397 Q123.536 208.938 127.147 208.938 Q130.782 208.938 132.587 205.397 Q134.416 201.832 134.416 194.726 Q134.416 187.596 132.587 184.054 Q130.782 180.49 127.147 180.49 M127.147 176.786 Q132.958 176.786 136.013 181.392 Q139.092 185.976 139.092 194.726 Q139.092 203.452 136.013 208.059 Q132.958 212.642 127.147 212.642 Q121.337 212.642 118.259 208.059 Q115.203 203.452 115.203 194.726 Q115.203 185.976 118.259 181.392 Q121.337 176.786 127.147 176.786 Z" fill="#000000" fill-rule="evenodd" fill-opacity="1" /><path clip-path="url(#clip190)" d="M 0 0 M144.161 206.091 L149.046 206.091 L149.046 211.971 L144.161 211.971 L144.161 206.091 Z" fill="#000000" fill-rule="evenodd" fill-opacity="1" /><path clip-path="url(#clip190)" d="M 0 0 M154.254 211.253 L154.254 206.994 Q156.013 207.827 157.819 208.267 Q159.624 208.707 161.36 208.707 Q165.99 208.707 168.42 205.605 Q170.874 202.48 171.221 196.138 Q169.879 198.128 167.819 199.193 Q165.758 200.258 163.258 200.258 Q158.073 200.258 155.041 197.133 Q152.032 193.985 152.032 188.545 Q152.032 183.221 155.18 180.003 Q158.328 176.786 163.559 176.786 Q169.555 176.786 172.703 181.392 Q175.874 185.976 175.874 194.726 Q175.874 202.897 171.985 207.781 Q168.119 212.642 161.569 212.642 Q159.809 212.642 158.004 212.295 Q156.198 211.948 154.254 211.253 M163.559 196.601 Q166.707 196.601 168.536 194.448 Q170.388 192.295 170.388 188.545 Q170.388 184.818 168.536 182.665 Q166.707 180.49 163.559 180.49 Q160.411 180.49 158.559 182.665 Q156.731 184.818 156.731 188.545 Q156.731 192.295 158.559 194.448 Q160.411 196.601 163.559 196.601 Z" fill="#000000" fill-rule="evenodd" fill-opacity="1" /><path clip-path="url(#clip190)" d="M 0 0 M1296.83 4.53628 Q1296.74 4.94617 1296.58 5.68398 Q1296.42 6.3808 1295.68 8.59422 Q1294.94 10.8076 1293.96 13.0621 Q1293.01 15.2755 1291.17 18.3907 Q1289.37 21.4649 1287.15 24.2521 Q1286.54 24.9899 1286.42 25.4408 Q1286.33 25.8507 1286.33 27.2034 Q1286.33 35.7291 1288.92 35.7291 Q1289.04 35.7291 1289.24 35.7291 Q1289.49 35.6881 1290.1 35.4832 Q1290.76 35.2373 1291.33 34.8683 Q1291.91 34.4585 1292.56 33.6387 Q1293.22 32.7779 1293.63 31.6302 Q1294 30.8104 1294.74 30.8104 Q1295.72 30.8104 1295.72 31.6302 Q1295.72 33.1058 1293.67 35.3602 Q1291.62 37.6146 1288.67 37.6146 Q1285.84 37.6146 1283.83 35.7701 Q1281.87 33.8846 1281.05 30.5235 Q1272.19 37.6146 1263.34 37.6146 Q1257.11 37.6146 1253.42 33.5567 Q1249.73 29.4578 1249.73 23.3913 Q1249.73 17.5709 1252.93 12.0373 Q1256.16 6.50377 1261.41 3.06067 Q1266.7 -0.423422 1272.31 -0.423422 Q1274.28 -0.423422 1276.17 0.109439 Q1278.05 0.60131 1279.94 1.87198 Q1281.82 3.14265 1283.22 5.06914 Q1284.61 6.99564 1285.47 10.0288 Q1286.33 13.0621 1286.33 16.8741 L1286.33 22.0797 Q1291.74 15.2345 1294.57 5.43805 Q1294.98 3.96243 1295.23 3.79847 Q1295.39 3.67551 1295.8 3.67551 Q1296.21 3.67551 1296.46 3.92144 Q1296.74 4.12639 1296.79 4.33133 L1296.83 4.53628 M1280.72 28.3511 Q1280.55 26.9164 1280.55 18.9645 Q1280.55 17.4479 1280.55 16.6281 Q1280.55 15.7673 1280.47 14.1278 Q1280.39 12.4882 1280.23 11.4635 Q1280.1 10.4387 1279.82 8.96312 Q1279.53 7.48751 1279.12 6.54476 Q1278.71 5.602 1278.05 4.53628 Q1277.44 3.47056 1276.62 2.85572 Q1275.84 2.24088 1274.69 1.83099 Q1273.59 1.4211 1272.23 1.4211 Q1270.55 1.4211 1268.79 2.03594 Q1267.07 2.60978 1264.85 4.4543 Q1262.64 6.25783 1260.8 9.12708 Q1258.87 12.1603 1257.39 17.7348 Q1255.96 23.2684 1255.96 26.5885 Q1255.96 30.7694 1257.89 33.2698 Q1259.81 35.7291 1263.5 35.7291 Q1272.31 35.7291 1280.72 28.3511 Z" fill="#000000" fill-rule="evenodd" fill-opacity="1" /><path clip-path="url(#clip190)" d="M 0 0 M1290.48 1525.39 Q1290.48 1527.19 1289.35 1528.22 Q1288.22 1529.22 1286.93 1529.22 Q1285.71 1529.22 1285.06 1528.51 Q1284.42 1527.8 1284.42 1526.9 Q1284.42 1525.68 1285.32 1524.61 Q1286.22 1523.55 1287.58 1523.33 Q1286.26 1522.49 1284.29 1522.49 Q1283 1522.49 1281.88 1523.16 Q1280.78 1523.84 1280.1 1524.71 Q1279.46 1525.58 1278.88 1526.84 Q1278.33 1528.06 1278.11 1528.8 Q1277.91 1529.51 1277.75 1530.28 L1275.5 1539.3 Q1274.4 1543.58 1274.4 1545.1 Q1274.4 1546.97 1275.31 1548.22 Q1276.21 1549.44 1278.01 1549.44 Q1278.72 1549.44 1279.53 1549.25 Q1280.33 1549.03 1281.36 1548.45 Q1282.42 1547.83 1283.36 1546.93 Q1284.32 1546 1285.26 1544.42 Q1286.19 1542.84 1286.8 1540.81 Q1287 1540.11 1287.64 1540.11 Q1288.45 1540.11 1288.45 1540.75 Q1288.45 1541.3 1288 1542.46 Q1287.58 1543.58 1286.64 1545.06 Q1285.74 1546.51 1284.55 1547.83 Q1283.36 1549.12 1281.59 1550.02 Q1279.81 1550.93 1277.88 1550.93 Q1275.11 1550.93 1273.28 1549.44 Q1271.44 1547.96 1270.77 1545.9 Q1270.6 1546.19 1270.38 1546.58 Q1270.15 1546.97 1269.48 1547.83 Q1268.83 1548.67 1268.09 1549.32 Q1267.35 1549.93 1266.19 1550.41 Q1265.06 1550.93 1263.84 1550.93 Q1262.29 1550.93 1260.91 1550.48 Q1259.56 1550.02 1258.59 1548.99 Q1257.63 1547.96 1257.63 1546.55 Q1257.63 1544.97 1258.69 1543.87 Q1259.78 1542.75 1261.26 1542.75 Q1262.2 1542.75 1262.94 1543.29 Q1263.71 1543.84 1263.71 1545.03 Q1263.71 1546.35 1262.81 1547.35 Q1261.91 1548.35 1260.62 1548.61 Q1261.94 1549.44 1263.91 1549.44 Q1266.03 1549.44 1267.71 1547.58 Q1269.38 1545.71 1270.19 1542.59 Q1272.18 1535.08 1272.96 1531.73 Q1273.73 1528.35 1273.73 1526.9 Q1273.73 1525.55 1273.37 1524.61 Q1273.02 1523.68 1272.41 1523.26 Q1271.83 1522.81 1271.28 1522.65 Q1270.77 1522.49 1270.19 1522.49 Q1269.22 1522.49 1268.12 1522.88 Q1267.06 1523.26 1265.77 1524.16 Q1264.52 1525.03 1263.33 1526.84 Q1262.13 1528.64 1261.33 1531.12 Q1261.17 1531.86 1260.46 1531.86 Q1259.69 1531.83 1259.69 1531.18 Q1259.69 1530.64 1260.1 1529.51 Q1260.56 1528.35 1261.46 1526.9 Q1262.39 1525.45 1263.58 1524.16 Q1264.81 1522.84 1266.58 1521.94 Q1268.38 1521.04 1270.31 1521.04 Q1271.18 1521.04 1272.02 1521.23 Q1272.89 1521.39 1273.92 1521.88 Q1274.98 1522.36 1275.92 1523.42 Q1276.85 1524.49 1277.43 1526.03 Q1277.82 1525.29 1278.33 1524.58 Q1278.88 1523.87 1279.72 1523 Q1280.59 1522.1 1281.78 1521.59 Q1283 1521.04 1284.36 1521.04 Q1285.68 1521.04 1286.96 1521.39 Q1288.25 1521.72 1289.35 1522.78 Q1290.48 1523.81 1290.48 1525.39 Z" fill="#000000" fill-rule="evenodd" fill-opacity="1" /><path clip-path="url(#clip190)" d="M 0 0 M50.5695 752.42 Q51.0203 752.42 52.0831 752.71 L77.2681 759.022 Q82.8719 760.407 86.801 764.916 Q90.7302 769.393 90.7302 774.481 Q90.7302 777.541 89.0877 779.505 Q87.4774 781.47 84.9975 781.47 Q82.8075 781.47 81.7447 780.31 Q80.7141 779.151 80.7141 777.766 Q80.7141 777.315 80.843 776.832 Q80.9718 776.349 81.5193 775.834 Q82.0668 775.318 83.0008 775.318 Q84.5144 775.318 85.706 776.639 Q86.2535 777.283 86.3824 777.895 Q86.5112 778.475 86.5112 779.473 Q87.413 779.086 88.0249 778.378 Q88.6368 777.669 88.8622 776.864 Q89.1199 776.059 89.1843 775.544 Q89.2809 774.996 89.2809 774.481 Q89.2809 770.359 85.1263 767.203 Q83.8703 766.269 82.6143 765.592 Q81.3905 764.884 79.8768 764.368 Q78.3953 763.853 77.5902 763.628 Q76.785 763.37 74.9493 762.919 Q77.9444 765.914 77.9444 769.586 Q77.9444 771.132 77.5258 772.516 Q77.1071 773.869 76.2375 775.061 Q75.3358 776.252 73.7577 776.961 Q72.1796 777.637 70.0862 777.637 Q67.864 777.637 64.8366 776.768 Q61.8093 775.898 56.2377 773.805 Q53.1137 772.678 51.6 772.678 Q50.8593 772.678 50.4084 772.839 Q49.9253 773 49.7643 773.322 Q49.5711 773.644 49.5389 773.837 Q49.5067 773.998 49.5067 774.32 Q49.5067 776.22 51.439 777.991 Q53.3714 779.763 57.6869 780.987 Q58.4921 781.244 58.6853 781.405 Q58.8786 781.566 58.8786 782.049 Q58.8464 782.855 58.2022 782.855 Q57.9446 782.855 56.9462 782.565 Q55.9156 782.275 54.4019 781.599 Q52.8561 780.89 51.4712 779.924 Q50.0542 778.958 49.0558 777.444 Q48.0574 775.898 48.0574 774.127 Q48.0574 771.711 49.6355 770.23 Q51.1814 768.716 53.468 768.716 Q54.4019 768.716 55.2393 768.974 Q56.0444 769.199 58.2022 770.037 Q66.8978 773.418 71.149 773.418 Q72.1796 773.418 73.0491 773.257 Q73.8865 773.064 74.7238 772.645 Q75.529 772.227 76.0121 771.389 Q76.463 770.52 76.463 769.328 Q76.463 767.814 75.7544 766.397 Q75.0137 764.948 74.0153 764.046 Q73.0169 763.112 72.1796 762.565 Q71.31 761.985 70.8591 761.856 L59.0074 758.893 L53.7256 757.573 Q50.8593 756.961 50.1508 756.671 Q49.4745 756.285 49.1202 755.608 Q48.7659 754.932 48.7659 754.352 Q48.7659 753.547 49.249 753 Q49.7321 752.42 50.5695 752.42 Z" fill="#000000" fill-rule="evenodd" fill-opacity="1" /><polyline clip-path="url(#clip193)" style="stroke:#009af9; stroke-width:4; stroke-opacity:1; fill:none" points="
  260.805,1164.62 486.474,902.947 712.143,238.438 937.812,1407.21 1163.48,157.581 1389.15,347.724 1614.82,1327.8 1840.49,812.11 2066.16,126.487 2291.83,823.398 
  
  "/>
<path clip-path="url(#clip190)" d="
M1990.77 254.277 L2280.99 254.277 L2280.99 133.317 L1990.77 133.317  Z
  " fill="#ffffff" fill-rule="evenodd" fill-opacity="1"/>
<polyline clip-path="url(#clip190)" style="stroke:#000000; stroke-width:4; stroke-opacity:1; fill:none" points="
  1990.77,254.277 2280.99,254.277 2280.99,133.317 1990.77,133.317 1990.77,254.277 
  "/>
<polyline clip-path="url(#clip190)" style="stroke:#009af9; stroke-width:4; stroke-opacity:1; fill:none" points="
  2014.69,193.797 2158.21,193.797 
  "/>
<path clip-path="url(#clip190)" d="M 0 0 M2195.98 213.484 Q2194.17 218.114 2192.46 219.526 Q2190.74 220.938 2187.87 220.938 L2184.47 220.938 L2184.47 217.373 L2186.97 217.373 Q2188.73 217.373 2189.7 216.54 Q2190.67 215.707 2191.86 212.605 L2192.62 210.66 L2182.13 185.151 L2186.65 185.151 L2194.75 205.429 L2202.85 185.151 L2207.36 185.151 L2195.98 213.484 Z" fill="#000000" fill-rule="evenodd" fill-opacity="1" /><path clip-path="url(#clip190)" d="M 0 0 M2213.24 207.142 L2220.88 207.142 L2220.88 180.776 L2212.57 182.443 L2212.57 178.184 L2220.84 176.517 L2225.51 176.517 L2225.51 207.142 L2233.15 207.142 L2233.15 211.077 L2213.24 211.077 L2213.24 207.142 Z" fill="#000000" fill-rule="evenodd" fill-opacity="1" /></svg>
