<?xml version="1.0" encoding="utf-8"?>
<svg xmlns="http://www.w3.org/2000/svg" xmlns:xlink="http://www.w3.org/1999/xlink" width="600" height="400" viewBox="0 0 2400 1600">
<defs>
  <clipPath id="clip990">
    <rect x="0" y="0" width="2400" height="1600"/>
  </clipPath>
</defs>
<path clip-path="url(#clip990)" d="
M0 1600 L2400 1600 L2400 0 L0 0  Z
  " fill="#ffffff" fill-rule="evenodd" fill-opacity="1"/>
<defs>
  <clipPath id="clip991">
    <rect x="480" y="0" width="1681" height="1600"/>
  </clipPath>
</defs>
<path clip-path="url(#clip990)" d="
M211.141 1447.17 L2352.76 1447.17 L2352.76 47.2441 L211.141 47.2441  Z
  " fill="#ffffff" fill-rule="evenodd" fill-opacity="1"/>
<defs>
  <clipPath id="clip992">
    <rect x="211" y="47" width="2143" height="1401"/>
  </clipPath>
</defs>
<polyline clip-path="url(#clip992)" style="stroke:#000000; stroke-width:2; stroke-opacity:0.1; fill:none" points="
  496.241,1447.17 496.241,47.2441 
  "/>
<polyline clip-path="url(#clip992)" style="stroke:#000000; stroke-width:2; stroke-opacity:0.1; fill:none" points="
  945.217,1447.17 945.217,47.2441 
  "/>
<polyline clip-path="url(#clip992)" style="stroke:#000000; stroke-width:2; stroke-opacity:0.1; fill:none" points="
  1394.19,1447.17 1394.19,47.2441 
  "/>
<polyline clip-path="url(#clip992)" style="stroke:#000000; stroke-width:2; stroke-opacity:0.1; fill:none" points="
  1843.17,1447.17 1843.17,47.2441 
  "/>
<polyline clip-path="url(#clip992)" style="stroke:#000000; stroke-width:2; stroke-opacity:0.1; fill:none" points="
  2292.14,1447.17 2292.14,47.2441 
  "/>
<polyline clip-path="url(#clip992)" style="stroke:#000000; stroke-width:2; stroke-opacity:0.1; fill:none" points="
  211.141,1131.77 2352.76,1131.77 
  "/>
<polyline clip-path="url(#clip992)" style="stroke:#000000; stroke-width:2; stroke-opacity:0.1; fill:none" points="
  211.141,804.645 2352.76,804.645 
  "/>
<polyline clip-path="url(#clip992)" style="stroke:#000000; stroke-width:2; stroke-opacity:0.1; fill:none" points="
  211.141,477.523 2352.76,477.523 
  "/>
<polyline clip-path="url(#clip992)" style="stroke:#000000; stroke-width:2; stroke-opacity:0.1; fill:none" points="
  211.141,150.4 2352.76,150.4 
  "/>
<polyline clip-path="url(#clip990)" style="stroke:#000000; stroke-width:4; stroke-opacity:1; fill:none" points="
  211.141,1447.17 2352.76,1447.17 
  "/>
<polyline clip-path="url(#clip990)" style="stroke:#000000; stroke-width:4; stroke-opacity:1; fill:none" points="
  211.141,1447.17 211.141,47.2441 
  "/>
<polyline clip-path="url(#clip990)" style="stroke:#000000; stroke-width:4; stroke-opacity:1; fill:none" points="
  496.241,1447.17 496.241,1430.37 
  "/>
<polyline clip-path="url(#clip990)" style="stroke:#000000; stroke-width:4; stroke-opacity:1; fill:none" points="
  945.217,1447.17 945.217,1430.37 
  "/>
<polyline clip-path="url(#clip990)" style="stroke:#000000; stroke-width:4; stroke-opacity:1; fill:none" points="
  1394.19,1447.17 1394.19,1430.37 
  "/>
<polyline clip-path="url(#clip990)" style="stroke:#000000; stroke-width:4; stroke-opacity:1; fill:none" points="
  1843.17,1447.17 1843.17,1430.37 
  "/>
<polyline clip-path="url(#clip990)" style="stroke:#000000; stroke-width:4; stroke-opacity:1; fill:none" points="
  2292.14,1447.17 2292.14,1430.37 
  "/>
<polyline clip-path="url(#clip990)" style="stroke:#000000; stroke-width:4; stroke-opacity:1; fill:none" points="
  211.141,1131.77 236.841,1131.77 
  "/>
<polyline clip-path="url(#clip990)" style="stroke:#000000; stroke-width:4; stroke-opacity:1; fill:none" points="
  211.141,804.645 236.841,804.645 
  "/>
<polyline clip-path="url(#clip990)" style="stroke:#000000; stroke-width:4; stroke-opacity:1; fill:none" points="
  211.141,477.523 236.841,477.523 
  "/>
<polyline clip-path="url(#clip990)" style="stroke:#000000; stroke-width:4; stroke-opacity:1; fill:none" points="
  211.141,150.4 236.841,150.4 
  "/>
<path clip-path="url(#clip990)" d="M 0 0 M490.894 1496.71 L507.213 1496.71 L507.213 1500.64 L485.269 1500.64 L485.269 1496.71 Q487.931 1493.95 492.514 1489.32 Q497.121 1484.67 498.301 1483.33 Q500.546 1480.8 501.426 1479.07 Q502.329 1477.31 502.329 1475.62 Q502.329 1472.86 500.384 1471.13 Q498.463 1469.39 495.361 1469.39 Q493.162 1469.39 490.709 1470.16 Q488.278 1470.92 485.5 1472.47 L485.5 1467.75 Q488.324 1466.61 490.778 1466.04 Q493.232 1465.46 495.269 1465.46 Q500.639 1465.46 503.833 1468.14 Q507.028 1470.83 507.028 1475.32 Q507.028 1477.45 506.218 1479.37 Q505.431 1481.27 503.324 1483.86 Q502.745 1484.53 499.644 1487.75 Q496.542 1490.94 490.894 1496.71 Z" fill="#000000" fill-rule="evenodd" fill-opacity="1" /><path clip-path="url(#clip990)" d="M 0 0 M948.226 1470.16 L936.42 1488.61 L948.226 1488.61 L948.226 1470.16 M946.999 1466.08 L952.879 1466.08 L952.879 1488.61 L957.809 1488.61 L957.809 1492.49 L952.879 1492.49 L952.879 1500.64 L948.226 1500.64 L948.226 1492.49 L932.624 1492.49 L932.624 1487.98 L946.999 1466.08 Z" fill="#000000" fill-rule="evenodd" fill-opacity="1" /><path clip-path="url(#clip990)" d="M 0 0 M1394.6 1481.5 Q1391.45 1481.5 1389.6 1483.65 Q1387.77 1485.8 1387.77 1489.55 Q1387.77 1493.28 1389.6 1495.46 Q1391.45 1497.61 1394.6 1497.61 Q1397.75 1497.61 1399.57 1495.46 Q1401.43 1493.28 1401.43 1489.55 Q1401.43 1485.8 1399.57 1483.65 Q1397.75 1481.5 1394.6 1481.5 M1403.88 1466.85 L1403.88 1471.11 Q1402.12 1470.27 1400.32 1469.83 Q1398.53 1469.39 1396.77 1469.39 Q1392.14 1469.39 1389.69 1472.52 Q1387.26 1475.64 1386.91 1481.96 Q1388.28 1479.95 1390.34 1478.88 Q1392.4 1477.8 1394.88 1477.8 Q1400.08 1477.8 1403.09 1480.97 Q1406.13 1484.11 1406.13 1489.55 Q1406.13 1494.88 1402.98 1498.1 Q1399.83 1501.31 1394.6 1501.31 Q1388.6 1501.31 1385.43 1496.73 Q1382.26 1492.12 1382.26 1483.4 Q1382.26 1475.2 1386.15 1470.34 Q1390.04 1465.46 1396.59 1465.46 Q1398.35 1465.46 1400.13 1465.8 Q1401.94 1466.15 1403.88 1466.85 Z" fill="#000000" fill-rule="evenodd" fill-opacity="1" /><path clip-path="url(#clip990)" d="M 0 0 M1843.17 1484.23 Q1839.84 1484.23 1837.91 1486.01 Q1836.02 1487.8 1836.02 1490.92 Q1836.02 1494.05 1837.91 1495.83 Q1839.84 1497.61 1843.17 1497.61 Q1846.5 1497.61 1848.42 1495.83 Q1850.34 1494.02 1850.34 1490.92 Q1850.34 1487.8 1848.42 1486.01 Q1846.52 1484.23 1843.17 1484.23 M1838.49 1482.24 Q1835.48 1481.5 1833.79 1479.44 Q1832.13 1477.38 1832.13 1474.42 Q1832.13 1470.27 1835.07 1467.86 Q1838.03 1465.46 1843.17 1465.46 Q1848.33 1465.46 1851.27 1467.86 Q1854.21 1470.27 1854.21 1474.42 Q1854.21 1477.38 1852.52 1479.44 Q1850.85 1481.5 1847.87 1482.24 Q1851.25 1483.03 1853.12 1485.32 Q1855.02 1487.61 1855.02 1490.92 Q1855.02 1495.94 1851.94 1498.63 Q1848.89 1501.31 1843.17 1501.31 Q1837.45 1501.31 1834.37 1498.63 Q1831.32 1495.94 1831.32 1490.92 Q1831.32 1487.61 1833.21 1485.32 Q1835.11 1483.03 1838.49 1482.24 M1836.78 1474.86 Q1836.78 1477.54 1838.45 1479.05 Q1840.14 1480.55 1843.17 1480.55 Q1846.18 1480.55 1847.87 1479.05 Q1849.58 1477.54 1849.58 1474.86 Q1849.58 1472.17 1847.87 1470.67 Q1846.18 1469.16 1843.17 1469.16 Q1840.14 1469.16 1838.45 1470.67 Q1836.78 1472.17 1836.78 1474.86 Z" fill="#000000" fill-rule="evenodd" fill-opacity="1" /><path clip-path="url(#clip990)" d="M 0 0 M2269.02 1496.71 L2276.66 1496.71 L2276.66 1470.34 L2268.35 1472.01 L2268.35 1467.75 L2276.61 1466.08 L2281.29 1466.08 L2281.29 1496.71 L2288.93 1496.71 L2288.93 1500.64 L2269.02 1500.64 L2269.02 1496.71 Z" fill="#000000" fill-rule="evenodd" fill-opacity="1" /><path clip-path="url(#clip990)" d="M 0 0 M2304 1469.16 Q2300.38 1469.16 2298.56 1472.73 Q2296.75 1476.27 2296.75 1483.4 Q2296.75 1490.5 2298.56 1494.07 Q2300.38 1497.61 2304 1497.61 Q2307.63 1497.61 2309.44 1494.07 Q2311.26 1490.5 2311.26 1483.4 Q2311.26 1476.27 2309.44 1472.73 Q2307.63 1469.16 2304 1469.16 M2304 1465.46 Q2309.81 1465.46 2312.86 1470.06 Q2315.94 1474.65 2315.94 1483.4 Q2315.94 1492.12 2312.86 1496.73 Q2309.81 1501.31 2304 1501.31 Q2298.19 1501.31 2295.11 1496.73 Q2292.05 1492.12 2292.05 1483.4 Q2292.05 1474.65 2295.11 1470.06 Q2298.19 1465.46 2304 1465.46 Z" fill="#000000" fill-rule="evenodd" fill-opacity="1" /><path clip-path="url(#clip990)" d="M 0 0 M139.827 1117.57 Q136.216 1117.57 134.387 1121.13 Q132.581 1124.67 132.581 1131.8 Q132.581 1138.91 134.387 1142.47 Q136.216 1146.02 139.827 1146.02 Q143.461 1146.02 145.266 1142.47 Q147.095 1138.91 147.095 1131.8 Q147.095 1124.67 145.266 1121.13 Q143.461 1117.57 139.827 1117.57 M139.827 1113.86 Q145.637 1113.86 148.692 1118.47 Q151.771 1123.05 151.771 1131.8 Q151.771 1140.53 148.692 1145.14 Q145.637 1149.72 139.827 1149.72 Q134.017 1149.72 130.938 1145.14 Q127.882 1140.53 127.882 1131.8 Q127.882 1123.05 130.938 1118.47 Q134.017 1113.86 139.827 1113.86 Z" fill="#000000" fill-rule="evenodd" fill-opacity="1" /><path clip-path="url(#clip990)" d="M 0 0 M156.84 1143.17 L161.725 1143.17 L161.725 1149.05 L156.84 1149.05 L156.84 1143.17 Z" fill="#000000" fill-rule="evenodd" fill-opacity="1" /><path clip-path="url(#clip990)" d="M 0 0 M170.822 1145.11 L187.141 1145.11 L187.141 1149.05 L165.197 1149.05 L165.197 1145.11 Q167.859 1142.36 172.442 1137.73 Q177.049 1133.08 178.229 1131.73 Q180.475 1129.21 181.354 1127.47 Q182.257 1125.71 182.257 1124.02 Q182.257 1121.27 180.313 1119.53 Q178.391 1117.8 175.289 1117.8 Q173.09 1117.8 170.637 1118.56 Q168.206 1119.33 165.428 1120.88 L165.428 1116.15 Q168.252 1115.02 170.706 1114.44 Q173.16 1113.86 175.197 1113.86 Q180.567 1113.86 183.762 1116.55 Q186.956 1119.23 186.956 1123.72 Q186.956 1125.85 186.146 1127.77 Q185.359 1129.67 183.252 1132.27 Q182.674 1132.94 179.572 1136.15 Q176.47 1139.35 170.822 1145.11 Z" fill="#000000" fill-rule="evenodd" fill-opacity="1" /><path clip-path="url(#clip990)" d="M 0 0 M137.743 790.444 Q134.132 790.444 132.304 794.009 Q130.498 797.55 130.498 804.68 Q130.498 811.786 132.304 815.351 Q134.132 818.893 137.743 818.893 Q141.378 818.893 143.183 815.351 Q145.012 811.786 145.012 804.68 Q145.012 797.55 143.183 794.009 Q141.378 790.444 137.743 790.444 M137.743 786.74 Q143.554 786.74 146.609 791.347 Q149.688 795.93 149.688 804.68 Q149.688 813.407 146.609 818.013 Q143.554 822.597 137.743 822.597 Q131.933 822.597 128.855 818.013 Q125.799 813.407 125.799 804.68 Q125.799 795.93 128.855 791.347 Q131.933 786.74 137.743 786.74 Z" fill="#000000" fill-rule="evenodd" fill-opacity="1" /><path clip-path="url(#clip990)" d="M 0 0 M154.757 816.046 L159.641 816.046 L159.641 821.925 L154.757 821.925 L154.757 816.046 Z" fill="#000000" fill-rule="evenodd" fill-opacity="1" /><path clip-path="url(#clip990)" d="M 0 0 M177.558 791.439 L165.752 809.888 L177.558 809.888 L177.558 791.439 M176.331 787.365 L182.211 787.365 L182.211 809.888 L187.141 809.888 L187.141 813.777 L182.211 813.777 L182.211 821.925 L177.558 821.925 L177.558 813.777 L161.956 813.777 L161.956 809.263 L176.331 787.365 Z" fill="#000000" fill-rule="evenodd" fill-opacity="1" /><path clip-path="url(#clip990)" d="M 0 0 M138.067 463.321 Q134.456 463.321 132.628 466.886 Q130.822 470.428 130.822 477.557 Q130.822 484.664 132.628 488.229 Q134.456 491.77 138.067 491.77 Q141.702 491.77 143.507 488.229 Q145.336 484.664 145.336 477.557 Q145.336 470.428 143.507 466.886 Q141.702 463.321 138.067 463.321 M138.067 459.618 Q143.878 459.618 146.933 464.224 Q150.012 468.807 150.012 477.557 Q150.012 486.284 146.933 490.891 Q143.878 495.474 138.067 495.474 Q132.257 495.474 129.179 490.891 Q126.123 486.284 126.123 477.557 Q126.123 468.807 129.179 464.224 Q132.257 459.618 138.067 459.618 Z" fill="#000000" fill-rule="evenodd" fill-opacity="1" /><path clip-path="url(#clip990)" d="M 0 0 M155.081 488.923 L159.965 488.923 L159.965 494.803 L155.081 494.803 L155.081 488.923 Z" fill="#000000" fill-rule="evenodd" fill-opacity="1" /><path clip-path="url(#clip990)" d="M 0 0 M175.614 475.659 Q172.465 475.659 170.614 477.812 Q168.785 479.965 168.785 483.715 Q168.785 487.442 170.614 489.618 Q172.465 491.77 175.614 491.77 Q178.762 491.77 180.59 489.618 Q182.442 487.442 182.442 483.715 Q182.442 479.965 180.59 477.812 Q178.762 475.659 175.614 475.659 M184.896 461.007 L184.896 465.266 Q183.137 464.432 181.331 463.993 Q179.549 463.553 177.789 463.553 Q173.16 463.553 170.706 466.678 Q168.276 469.803 167.928 476.122 Q169.294 474.108 171.354 473.044 Q173.414 471.956 175.891 471.956 Q181.1 471.956 184.109 475.127 Q187.141 478.275 187.141 483.715 Q187.141 489.039 183.993 492.256 Q180.845 495.474 175.614 495.474 Q169.618 495.474 166.447 490.891 Q163.276 486.284 163.276 477.557 Q163.276 469.363 167.165 464.502 Q171.053 459.618 177.604 459.618 Q179.364 459.618 181.146 459.965 Q182.951 460.312 184.896 461.007 Z" fill="#000000" fill-rule="evenodd" fill-opacity="1" /><path clip-path="url(#clip990)" d="M 0 0 M138.322 136.199 Q134.711 136.199 132.882 139.764 Q131.077 143.305 131.077 150.435 Q131.077 157.541 132.882 161.106 Q134.711 164.648 138.322 164.648 Q141.956 164.648 143.762 161.106 Q145.591 157.541 145.591 150.435 Q145.591 143.305 143.762 139.764 Q141.956 136.199 138.322 136.199 M138.322 132.495 Q144.132 132.495 147.188 137.102 Q150.266 141.685 150.266 150.435 Q150.266 159.162 147.188 163.768 Q144.132 168.351 138.322 168.351 Q132.512 168.351 129.433 163.768 Q126.378 159.162 126.378 150.435 Q126.378 141.685 129.433 137.102 Q132.512 132.495 138.322 132.495 Z" fill="#000000" fill-rule="evenodd" fill-opacity="1" /><path clip-path="url(#clip990)" d="M 0 0 M155.336 161.801 L160.22 161.801 L160.22 167.68 L155.336 167.68 L155.336 161.801 Z" fill="#000000" fill-rule="evenodd" fill-opacity="1" /><path clip-path="url(#clip990)" d="M 0 0 M175.289 151.268 Q171.956 151.268 170.035 153.051 Q168.137 154.833 168.137 157.958 Q168.137 161.083 170.035 162.865 Q171.956 164.648 175.289 164.648 Q178.623 164.648 180.544 162.865 Q182.465 161.06 182.465 157.958 Q182.465 154.833 180.544 153.051 Q178.646 151.268 175.289 151.268 M170.614 149.278 Q167.604 148.537 165.915 146.477 Q164.248 144.416 164.248 141.453 Q164.248 137.31 167.188 134.903 Q170.151 132.495 175.289 132.495 Q180.451 132.495 183.391 134.903 Q186.331 137.31 186.331 141.453 Q186.331 144.416 184.641 146.477 Q182.975 148.537 179.989 149.278 Q183.368 150.065 185.243 152.356 Q187.141 154.648 187.141 157.958 Q187.141 162.981 184.063 165.666 Q181.007 168.351 175.289 168.351 Q169.572 168.351 166.493 165.666 Q163.438 162.981 163.438 157.958 Q163.438 154.648 165.336 152.356 Q167.234 150.065 170.614 149.278 M168.901 141.893 Q168.901 144.578 170.567 146.083 Q172.257 147.588 175.289 147.588 Q178.299 147.588 179.989 146.083 Q181.701 144.578 181.701 141.893 Q181.701 139.208 179.989 137.703 Q178.299 136.199 175.289 136.199 Q172.257 136.199 170.567 137.703 Q168.901 139.208 168.901 141.893 Z" fill="#000000" fill-rule="evenodd" fill-opacity="1" /><path clip-path="url(#clip990)" d="M 0 0 M1296.11 1527.48 Q1296.11 1529.28 1294.98 1530.31 Q1293.85 1531.31 1292.57 1531.31 Q1291.34 1531.31 1290.7 1530.6 Q1290.05 1529.89 1290.05 1528.99 Q1290.05 1527.77 1290.96 1526.7 Q1291.86 1525.64 1293.21 1525.42 Q1291.89 1524.58 1289.93 1524.58 Q1288.64 1524.58 1287.51 1525.26 Q1286.41 1525.93 1285.74 1526.8 Q1285.09 1527.67 1284.51 1528.93 Q1283.97 1530.15 1283.74 1530.89 Q1283.55 1531.6 1283.39 1532.37 L1281.13 1541.39 Q1280.04 1545.67 1280.04 1547.19 Q1280.04 1549.06 1280.94 1550.31 Q1281.84 1551.54 1283.64 1551.54 Q1284.35 1551.54 1285.16 1551.34 Q1285.96 1551.12 1286.99 1550.54 Q1288.06 1549.93 1288.99 1549.02 Q1289.96 1548.09 1290.89 1546.51 Q1291.83 1544.93 1292.44 1542.9 Q1292.63 1542.2 1293.27 1542.2 Q1294.08 1542.2 1294.08 1542.84 Q1294.08 1543.39 1293.63 1544.55 Q1293.21 1545.67 1292.28 1547.16 Q1291.37 1548.6 1290.18 1549.93 Q1288.99 1551.21 1287.22 1552.12 Q1285.45 1553.02 1283.52 1553.02 Q1280.75 1553.02 1278.91 1551.54 Q1277.07 1550.05 1276.4 1547.99 Q1276.24 1548.28 1276.01 1548.67 Q1275.79 1549.06 1275.11 1549.93 Q1274.47 1550.76 1273.73 1551.41 Q1272.98 1552.02 1271.83 1552.5 Q1270.7 1553.02 1269.47 1553.02 Q1267.93 1553.02 1266.54 1552.57 Q1265.19 1552.12 1264.22 1551.08 Q1263.26 1550.05 1263.26 1548.64 Q1263.26 1547.06 1264.32 1545.96 Q1265.42 1544.84 1266.9 1544.84 Q1267.83 1544.84 1268.57 1545.38 Q1269.35 1545.93 1269.35 1547.12 Q1269.35 1548.44 1268.44 1549.44 Q1267.54 1550.44 1266.25 1550.7 Q1267.57 1551.54 1269.54 1551.54 Q1271.66 1551.54 1273.34 1549.67 Q1275.01 1547.8 1275.82 1544.68 Q1277.82 1537.17 1278.59 1533.82 Q1279.36 1530.44 1279.36 1528.99 Q1279.36 1527.64 1279.01 1526.7 Q1278.65 1525.77 1278.04 1525.35 Q1277.46 1524.9 1276.91 1524.74 Q1276.4 1524.58 1275.82 1524.58 Q1274.85 1524.58 1273.76 1524.97 Q1272.69 1525.35 1271.41 1526.25 Q1270.15 1527.12 1268.96 1528.93 Q1267.77 1530.73 1266.96 1533.21 Q1266.8 1533.95 1266.09 1533.95 Q1265.32 1533.92 1265.32 1533.27 Q1265.32 1532.73 1265.74 1531.6 Q1266.19 1530.44 1267.09 1528.99 Q1268.03 1527.54 1269.22 1526.25 Q1270.44 1524.93 1272.21 1524.03 Q1274.02 1523.13 1275.95 1523.13 Q1276.82 1523.13 1277.65 1523.32 Q1278.52 1523.48 1279.55 1523.97 Q1280.62 1524.45 1281.55 1525.51 Q1282.49 1526.58 1283.07 1528.12 Q1283.45 1527.38 1283.97 1526.67 Q1284.51 1525.96 1285.35 1525.09 Q1286.22 1524.19 1287.41 1523.68 Q1288.64 1523.13 1289.99 1523.13 Q1291.31 1523.13 1292.6 1523.48 Q1293.89 1523.81 1294.98 1524.87 Q1296.11 1525.9 1296.11 1527.48 Z" fill="#000000" fill-rule="evenodd" fill-opacity="1" /><path clip-path="url(#clip990)" d="M 0 0 M60.8835 732.781 Q61.3344 732.781 62.3972 733.071 L87.5821 739.384 Q93.186 740.768 97.1151 745.277 Q101.044 749.754 101.044 754.842 Q101.044 757.902 99.4017 759.866 Q97.7914 761.831 95.3115 761.831 Q93.1216 761.831 92.0588 760.672 Q91.0282 759.512 91.0282 758.127 Q91.0282 757.676 91.157 757.193 Q91.2858 756.71 91.8333 756.195 Q92.3808 755.68 93.3148 755.68 Q94.8285 755.68 96.0201 757 Q96.5676 757.644 96.6964 758.256 Q96.8252 758.836 96.8252 759.834 Q97.727 759.448 98.3389 758.739 Q98.9508 758.031 99.1763 757.226 Q99.4339 756.42 99.4983 755.905 Q99.5949 755.358 99.5949 754.842 Q99.5949 750.72 95.4404 747.564 Q94.1843 746.63 92.9283 745.953 Q91.7045 745.245 90.1908 744.73 Q88.7093 744.214 87.9042 743.989 Q87.0991 743.731 85.2633 743.28 Q88.2585 746.276 88.2585 749.947 Q88.2585 751.493 87.8398 752.878 Q87.4211 754.23 86.5516 755.422 Q85.6498 756.614 84.0717 757.322 Q82.4936 757.998 80.4002 757.998 Q78.178 757.998 75.1507 757.129 Q72.1233 756.259 66.5517 754.166 Q63.4277 753.039 61.9141 753.039 Q61.1733 753.039 60.7225 753.2 Q60.2394 753.361 60.0783 753.683 Q59.8851 754.005 59.8529 754.198 Q59.8207 754.359 59.8207 754.681 Q59.8207 756.581 61.753 758.353 Q63.6854 760.124 68.001 761.348 Q68.8061 761.606 68.9994 761.767 Q69.1926 761.928 69.1926 762.411 Q69.1604 763.216 68.5163 763.216 Q68.2586 763.216 67.2602 762.926 Q66.2297 762.636 64.716 761.96 Q63.1701 761.251 61.7852 760.285 Q60.3682 759.319 59.3698 757.805 Q58.3714 756.259 58.3714 754.488 Q58.3714 752.073 59.9495 750.591 Q61.4954 749.077 63.782 749.077 Q64.716 749.077 65.5533 749.335 Q66.3585 749.561 68.5163 750.398 Q77.2119 753.78 81.463 753.78 Q82.4936 753.78 83.3632 753.618 Q84.2005 753.425 85.0379 753.007 Q85.843 752.588 86.3261 751.751 Q86.777 750.881 86.777 749.689 Q86.777 748.176 86.0685 746.759 Q85.3277 745.309 84.3294 744.408 Q83.331 743.474 82.4936 742.926 Q81.6241 742.346 81.1732 742.218 L69.3214 739.255 L64.0397 737.934 Q61.1733 737.322 60.4648 737.032 Q59.7885 736.646 59.4342 735.97 Q59.08 735.293 59.08 734.714 Q59.08 733.909 59.563 733.361 Q60.0461 732.781 60.8835 732.781 Z" fill="#000000" fill-rule="evenodd" fill-opacity="1" /><polyline clip-path="url(#clip992)" style="stroke:#009af9; stroke-width:4; stroke-opacity:1; fill:none" points="
  271.753,86.8647 496.241,1268 720.729,518.652 945.217,1058.21 1169.7,1407.55 1394.19,995.608 1618.68,644.022 1843.17,1258.76 2067.66,1044.93 2292.14,1314.35 
  
  "/>
<path clip-path="url(#clip990)" d="
M1989.74 251.724 L2280.76 251.724 L2280.76 130.764 L1989.74 130.764  Z
  " fill="#ffffff" fill-rule="evenodd" fill-opacity="1"/>
<polyline clip-path="url(#clip990)" style="stroke:#000000; stroke-width:4; stroke-opacity:1; fill:none" points="
  1989.74,251.724 2280.76,251.724 2280.76,130.764 1989.74,130.764 1989.74,251.724 
  "/>
<polyline clip-path="url(#clip990)" style="stroke:#009af9; stroke-width:4; stroke-opacity:1; fill:none" points="
  2013.74,191.244 2157.74,191.244 
  "/>
<path clip-path="url(#clip990)" d="M 0 0 M2195.58 210.931 Q2193.77 215.561 2192.06 216.973 Q2190.35 218.385 2187.48 218.385 L2184.08 218.385 L2184.08 214.82 L2186.58 214.82 Q2188.33 214.82 2189.31 213.987 Q2190.28 213.154 2191.46 210.052 L2192.22 208.107 L2181.74 182.598 L2186.25 182.598 L2194.35 202.876 L2202.46 182.598 L2206.97 182.598 L2195.58 210.931 Z" fill="#000000" fill-rule="evenodd" fill-opacity="1" /><path clip-path="url(#clip990)" d="M 0 0 M2212.85 204.589 L2220.49 204.589 L2220.49 178.223 L2212.18 179.89 L2212.18 175.631 L2220.44 173.964 L2225.12 173.964 L2225.12 204.589 L2232.76 204.589 L2232.76 208.524 L2212.85 208.524 L2212.85 204.589 Z" fill="#000000" fill-rule="evenodd" fill-opacity="1" /></svg>
