<?xml version="1.0" encoding="utf-8"?>
<svg xmlns="http://www.w3.org/2000/svg" xmlns:xlink="http://www.w3.org/1999/xlink" width="600" height="400" viewBox="0 0 2400 1600">
<defs>
  <clipPath id="clip480">
    <rect x="0" y="0" width="2400" height="1600"/>
  </clipPath>
</defs>
<path clip-path="url(#clip480)" d="
M0 1600 L2400 1600 L2400 0 L0 0  Z
  " fill="#ffffff" fill-rule="evenodd" fill-opacity="1"/>
<defs>
  <clipPath id="clip481">
    <rect x="480" y="0" width="1681" height="1600"/>
  </clipPath>
</defs>
<defs>
  <clipPath id="clip482">
    <rect x="2137" y="0" width="73" height="1600"/>
  </clipPath>
</defs>
<path clip-path="url(#clip480)" d="
M199.874 1445.63 L2352.76 1445.63 L2352.76 88.065 L199.874 88.065  Z
  " fill="#ffffff" fill-rule="evenodd" fill-opacity="1"/>
<defs>
  <clipPath id="clip483">
    <rect x="199" y="88" width="2154" height="1359"/>
  </clipPath>
</defs>
<polyline clip-path="url(#clip483)" style="stroke:#000000; stroke-width:2; stroke-opacity:0.1; fill:none" points="
  486.474,1445.63 486.474,88.065 
  "/>
<polyline clip-path="url(#clip483)" style="stroke:#000000; stroke-width:2; stroke-opacity:0.1; fill:none" points="
  937.812,1445.63 937.812,88.065 
  "/>
<polyline clip-path="url(#clip483)" style="stroke:#000000; stroke-width:2; stroke-opacity:0.1; fill:none" points="
  1389.15,1445.63 1389.15,88.065 
  "/>
<polyline clip-path="url(#clip483)" style="stroke:#000000; stroke-width:2; stroke-opacity:0.1; fill:none" points="
  1840.49,1445.63 1840.49,88.065 
  "/>
<polyline clip-path="url(#clip483)" style="stroke:#000000; stroke-width:2; stroke-opacity:0.1; fill:none" points="
  2291.83,1445.63 2291.83,88.065 
  "/>
<polyline clip-path="url(#clip483)" style="stroke:#000000; stroke-width:2; stroke-opacity:0.1; fill:none" points="
  199.874,1129.98 2352.76,1129.98 
  "/>
<polyline clip-path="url(#clip483)" style="stroke:#000000; stroke-width:2; stroke-opacity:0.1; fill:none" points="
  199.874,811.272 2352.76,811.272 
  "/>
<polyline clip-path="url(#clip483)" style="stroke:#000000; stroke-width:2; stroke-opacity:0.1; fill:none" points="
  199.874,492.568 2352.76,492.568 
  "/>
<polyline clip-path="url(#clip483)" style="stroke:#000000; stroke-width:2; stroke-opacity:0.1; fill:none" points="
  199.874,173.865 2352.76,173.865 
  "/>
<polyline clip-path="url(#clip480)" style="stroke:#000000; stroke-width:4; stroke-opacity:1; fill:none" points="
  199.874,1445.63 2352.76,1445.63 
  "/>
<polyline clip-path="url(#clip480)" style="stroke:#000000; stroke-width:4; stroke-opacity:1; fill:none" points="
  199.874,1445.63 199.874,88.065 
  "/>
<polyline clip-path="url(#clip480)" style="stroke:#000000; stroke-width:4; stroke-opacity:1; fill:none" points="
  486.474,1445.63 486.474,1429.34 
  "/>
<polyline clip-path="url(#clip480)" style="stroke:#000000; stroke-width:4; stroke-opacity:1; fill:none" points="
  937.812,1445.63 937.812,1429.34 
  "/>
<polyline clip-path="url(#clip480)" style="stroke:#000000; stroke-width:4; stroke-opacity:1; fill:none" points="
  1389.15,1445.63 1389.15,1429.34 
  "/>
<polyline clip-path="url(#clip480)" style="stroke:#000000; stroke-width:4; stroke-opacity:1; fill:none" points="
  1840.49,1445.63 1840.49,1429.34 
  "/>
<polyline clip-path="url(#clip480)" style="stroke:#000000; stroke-width:4; stroke-opacity:1; fill:none" points="
  2291.83,1445.63 2291.83,1429.34 
  "/>
<polyline clip-path="url(#clip480)" style="stroke:#000000; stroke-width:4; stroke-opacity:1; fill:none" points="
  199.874,1129.98 225.709,1129.98 
  "/>
<polyline clip-path="url(#clip480)" style="stroke:#000000; stroke-width:4; stroke-opacity:1; fill:none" points="
  199.874,811.272 225.709,811.272 
  "/>
<polyline clip-path="url(#clip480)" style="stroke:#000000; stroke-width:4; stroke-opacity:1; fill:none" points="
  199.874,492.568 225.709,492.568 
  "/>
<polyline clip-path="url(#clip480)" style="stroke:#000000; stroke-width:4; stroke-opacity:1; fill:none" points="
  199.874,173.865 225.709,173.865 
  "/>
<path clip-path="url(#clip480)" d="M 0 0 M481.126 1495.16 L497.446 1495.16 L497.446 1499.1 L475.501 1499.1 L475.501 1495.16 Q478.164 1492.41 482.747 1487.78 Q487.353 1483.13 488.534 1481.78 Q490.779 1479.26 491.659 1477.52 Q492.562 1475.77 492.562 1474.08 Q492.562 1471.32 490.617 1469.59 Q488.696 1467.85 485.594 1467.85 Q483.395 1467.85 480.941 1468.61 Q478.511 1469.38 475.733 1470.93 L475.733 1466.21 Q478.557 1465.07 481.011 1464.49 Q483.464 1463.91 485.501 1463.91 Q490.872 1463.91 494.066 1466.6 Q497.261 1469.28 497.261 1473.77 Q497.261 1475.9 496.45 1477.83 Q495.663 1479.72 493.557 1482.32 Q492.978 1482.99 489.876 1486.21 Q486.775 1489.4 481.126 1495.16 Z" fill="#000000" fill-rule="evenodd" fill-opacity="1" /><path clip-path="url(#clip480)" d="M 0 0 M940.821 1468.61 L929.015 1487.06 L940.821 1487.06 L940.821 1468.61 M939.594 1464.54 L945.474 1464.54 L945.474 1487.06 L950.404 1487.06 L950.404 1490.95 L945.474 1490.95 L945.474 1499.1 L940.821 1499.1 L940.821 1490.95 L925.219 1490.95 L925.219 1486.44 L939.594 1464.54 Z" fill="#000000" fill-rule="evenodd" fill-opacity="1" /><path clip-path="url(#clip480)" d="M 0 0 M1389.55 1479.96 Q1386.41 1479.96 1384.55 1482.11 Q1382.73 1484.26 1382.73 1488.01 Q1382.73 1491.74 1384.55 1493.91 Q1386.41 1496.07 1389.55 1496.07 Q1392.7 1496.07 1394.53 1493.91 Q1396.38 1491.74 1396.38 1488.01 Q1396.38 1484.26 1394.53 1482.11 Q1392.7 1479.96 1389.55 1479.96 M1398.84 1465.3 L1398.84 1469.56 Q1397.08 1468.73 1395.27 1468.29 Q1393.49 1467.85 1391.73 1467.85 Q1387.1 1467.85 1384.65 1470.97 Q1382.22 1474.1 1381.87 1480.42 Q1383.24 1478.4 1385.3 1477.34 Q1387.36 1476.25 1389.83 1476.25 Q1395.04 1476.25 1398.05 1479.42 Q1401.08 1482.57 1401.08 1488.01 Q1401.08 1493.34 1397.93 1496.55 Q1394.79 1499.77 1389.55 1499.77 Q1383.56 1499.77 1380.39 1495.19 Q1377.22 1490.58 1377.22 1481.85 Q1377.22 1473.66 1381.11 1468.8 Q1384.99 1463.91 1391.55 1463.91 Q1393.3 1463.91 1395.09 1464.26 Q1396.89 1464.61 1398.84 1465.3 Z" fill="#000000" fill-rule="evenodd" fill-opacity="1" /><path clip-path="url(#clip480)" d="M 0 0 M1840.49 1482.69 Q1837.15 1482.69 1835.23 1484.47 Q1833.33 1486.25 1833.33 1489.38 Q1833.33 1492.5 1835.23 1494.28 Q1837.15 1496.07 1840.49 1496.07 Q1843.82 1496.07 1845.74 1494.28 Q1847.66 1492.48 1847.66 1489.38 Q1847.66 1486.25 1845.74 1484.47 Q1843.84 1482.69 1840.49 1482.69 M1835.81 1480.7 Q1832.8 1479.96 1831.11 1477.9 Q1829.45 1475.84 1829.45 1472.87 Q1829.45 1468.73 1832.39 1466.32 Q1835.35 1463.91 1840.49 1463.91 Q1845.65 1463.91 1848.59 1466.32 Q1851.53 1468.73 1851.53 1472.87 Q1851.53 1475.84 1849.84 1477.9 Q1848.17 1479.96 1845.19 1480.7 Q1848.57 1481.48 1850.44 1483.77 Q1852.34 1486.07 1852.34 1489.38 Q1852.34 1494.4 1849.26 1497.09 Q1846.2 1499.77 1840.49 1499.77 Q1834.77 1499.77 1831.69 1497.09 Q1828.64 1494.4 1828.64 1489.38 Q1828.64 1486.07 1830.53 1483.77 Q1832.43 1481.48 1835.81 1480.7 M1834.1 1473.31 Q1834.1 1476 1835.77 1477.5 Q1837.45 1479.01 1840.49 1479.01 Q1843.5 1479.01 1845.19 1477.5 Q1846.9 1476 1846.9 1473.31 Q1846.9 1470.63 1845.19 1469.12 Q1843.5 1467.62 1840.49 1467.62 Q1837.45 1467.62 1835.77 1469.12 Q1834.1 1470.63 1834.1 1473.31 Z" fill="#000000" fill-rule="evenodd" fill-opacity="1" /><path clip-path="url(#clip480)" d="M 0 0 M2268.7 1495.16 L2276.34 1495.16 L2276.34 1468.8 L2268.03 1470.46 L2268.03 1466.21 L2276.29 1464.54 L2280.97 1464.54 L2280.97 1495.16 L2288.61 1495.16 L2288.61 1499.1 L2268.7 1499.1 L2268.7 1495.16 Z" fill="#000000" fill-rule="evenodd" fill-opacity="1" /><path clip-path="url(#clip480)" d="M 0 0 M2303.68 1467.62 Q2300.07 1467.62 2298.24 1471.18 Q2296.43 1474.72 2296.43 1481.85 Q2296.43 1488.96 2298.24 1492.52 Q2300.07 1496.07 2303.68 1496.07 Q2307.31 1496.07 2309.12 1492.52 Q2310.95 1488.96 2310.95 1481.85 Q2310.95 1474.72 2309.12 1471.18 Q2307.31 1467.62 2303.68 1467.62 M2303.68 1463.91 Q2309.49 1463.91 2312.54 1468.52 Q2315.62 1473.1 2315.62 1481.85 Q2315.62 1490.58 2312.54 1495.19 Q2309.49 1499.77 2303.68 1499.77 Q2297.87 1499.77 2294.79 1495.19 Q2291.73 1490.58 2291.73 1481.85 Q2291.73 1473.1 2294.79 1468.52 Q2297.87 1463.91 2303.68 1463.91 Z" fill="#000000" fill-rule="evenodd" fill-opacity="1" /><path clip-path="url(#clip480)" d="M 0 0 M128.56 1115.77 Q124.948 1115.77 123.12 1119.34 Q121.314 1122.88 121.314 1130.01 Q121.314 1137.12 123.12 1140.68 Q124.948 1144.22 128.56 1144.22 Q132.194 1144.22 133.999 1140.68 Q135.828 1137.12 135.828 1130.01 Q135.828 1122.88 133.999 1119.34 Q132.194 1115.77 128.56 1115.77 M128.56 1112.07 Q134.37 1112.07 137.425 1116.68 Q140.504 1121.26 140.504 1130.01 Q140.504 1138.74 137.425 1143.34 Q134.37 1147.93 128.56 1147.93 Q122.749 1147.93 119.671 1143.34 Q116.615 1138.74 116.615 1130.01 Q116.615 1121.26 119.671 1116.68 Q122.749 1112.07 128.56 1112.07 Z" fill="#000000" fill-rule="evenodd" fill-opacity="1" /><path clip-path="url(#clip480)" d="M 0 0 M145.573 1141.38 L150.458 1141.38 L150.458 1147.26 L145.573 1147.26 L145.573 1141.38 Z" fill="#000000" fill-rule="evenodd" fill-opacity="1" /><path clip-path="url(#clip480)" d="M 0 0 M159.555 1143.32 L175.874 1143.32 L175.874 1147.26 L153.93 1147.26 L153.93 1143.32 Q156.592 1140.57 161.175 1135.94 Q165.782 1131.28 166.962 1129.94 Q169.207 1127.42 170.087 1125.68 Q170.99 1123.92 170.99 1122.23 Q170.99 1119.48 169.045 1117.74 Q167.124 1116.01 164.022 1116.01 Q161.823 1116.01 159.37 1116.77 Q156.939 1117.53 154.161 1119.08 L154.161 1114.36 Q156.985 1113.23 159.439 1112.65 Q161.893 1112.07 163.93 1112.07 Q169.3 1112.07 172.494 1114.76 Q175.689 1117.44 175.689 1121.93 Q175.689 1124.06 174.879 1125.98 Q174.092 1127.88 171.985 1130.47 Q171.407 1131.14 168.305 1134.36 Q165.203 1137.56 159.555 1143.32 Z" fill="#000000" fill-rule="evenodd" fill-opacity="1" /><path clip-path="url(#clip480)" d="M 0 0 M126.476 797.071 Q122.865 797.071 121.036 800.636 Q119.231 804.177 119.231 811.307 Q119.231 818.413 121.036 821.978 Q122.865 825.52 126.476 825.52 Q130.11 825.52 131.916 821.978 Q133.745 818.413 133.745 811.307 Q133.745 804.177 131.916 800.636 Q130.11 797.071 126.476 797.071 M126.476 793.367 Q132.286 793.367 135.342 797.974 Q138.421 802.557 138.421 811.307 Q138.421 820.034 135.342 824.64 Q132.286 829.223 126.476 829.223 Q120.666 829.223 117.587 824.64 Q114.532 820.034 114.532 811.307 Q114.532 802.557 117.587 797.974 Q120.666 793.367 126.476 793.367 Z" fill="#000000" fill-rule="evenodd" fill-opacity="1" /><path clip-path="url(#clip480)" d="M 0 0 M143.49 822.672 L148.374 822.672 L148.374 828.552 L143.49 828.552 L143.49 822.672 Z" fill="#000000" fill-rule="evenodd" fill-opacity="1" /><path clip-path="url(#clip480)" d="M 0 0 M166.291 798.066 L154.485 816.515 L166.291 816.515 L166.291 798.066 M165.064 793.992 L170.944 793.992 L170.944 816.515 L175.874 816.515 L175.874 820.404 L170.944 820.404 L170.944 828.552 L166.291 828.552 L166.291 820.404 L150.689 820.404 L150.689 815.89 L165.064 793.992 Z" fill="#000000" fill-rule="evenodd" fill-opacity="1" /><path clip-path="url(#clip480)" d="M 0 0 M126.8 478.367 Q123.189 478.367 121.36 481.932 Q119.555 485.474 119.555 492.603 Q119.555 499.71 121.36 503.274 Q123.189 506.816 126.8 506.816 Q130.435 506.816 132.24 503.274 Q134.069 499.71 134.069 492.603 Q134.069 485.474 132.24 481.932 Q130.435 478.367 126.8 478.367 M126.8 474.663 Q132.61 474.663 135.666 479.27 Q138.745 483.853 138.745 492.603 Q138.745 501.33 135.666 505.936 Q132.61 510.52 126.8 510.52 Q120.99 510.52 117.911 505.936 Q114.856 501.33 114.856 492.603 Q114.856 483.853 117.911 479.27 Q120.99 474.663 126.8 474.663 Z" fill="#000000" fill-rule="evenodd" fill-opacity="1" /><path clip-path="url(#clip480)" d="M 0 0 M143.814 503.969 L148.698 503.969 L148.698 509.848 L143.814 509.848 L143.814 503.969 Z" fill="#000000" fill-rule="evenodd" fill-opacity="1" /><path clip-path="url(#clip480)" d="M 0 0 M164.346 490.705 Q161.198 490.705 159.346 492.858 Q157.518 495.011 157.518 498.76 Q157.518 502.487 159.346 504.663 Q161.198 506.816 164.346 506.816 Q167.495 506.816 169.323 504.663 Q171.175 502.487 171.175 498.76 Q171.175 495.011 169.323 492.858 Q167.495 490.705 164.346 490.705 M173.629 476.052 L173.629 480.312 Q171.869 479.478 170.064 479.038 Q168.282 478.599 166.522 478.599 Q161.893 478.599 159.439 481.724 Q157.008 484.849 156.661 491.168 Q158.027 489.154 160.087 488.089 Q162.147 487.001 164.624 487.001 Q169.832 487.001 172.842 490.173 Q175.874 493.321 175.874 498.76 Q175.874 504.085 172.726 507.302 Q169.578 510.52 164.346 510.52 Q158.351 510.52 155.18 505.936 Q152.008 501.33 152.008 492.603 Q152.008 484.409 155.897 479.548 Q159.786 474.663 166.337 474.663 Q168.096 474.663 169.879 475.011 Q171.684 475.358 173.629 476.052 Z" fill="#000000" fill-rule="evenodd" fill-opacity="1" /><path clip-path="url(#clip480)" d="M 0 0 M127.055 159.663 Q123.444 159.663 121.615 163.228 Q119.81 166.77 119.81 173.899 Q119.81 181.006 121.615 184.571 Q123.444 188.112 127.055 188.112 Q130.689 188.112 132.495 184.571 Q134.323 181.006 134.323 173.899 Q134.323 166.77 132.495 163.228 Q130.689 159.663 127.055 159.663 M127.055 155.96 Q132.865 155.96 135.921 160.566 Q138.999 165.15 138.999 173.899 Q138.999 182.626 135.921 187.233 Q132.865 191.816 127.055 191.816 Q121.245 191.816 118.166 187.233 Q115.111 182.626 115.111 173.899 Q115.111 165.15 118.166 160.566 Q121.245 155.96 127.055 155.96 Z" fill="#000000" fill-rule="evenodd" fill-opacity="1" /><path clip-path="url(#clip480)" d="M 0 0 M144.069 185.265 L148.953 185.265 L148.953 191.145 L144.069 191.145 L144.069 185.265 Z" fill="#000000" fill-rule="evenodd" fill-opacity="1" /><path clip-path="url(#clip480)" d="M 0 0 M164.022 174.733 Q160.689 174.733 158.768 176.515 Q156.87 178.298 156.87 181.423 Q156.87 184.548 158.768 186.33 Q160.689 188.112 164.022 188.112 Q167.356 188.112 169.277 186.33 Q171.198 184.524 171.198 181.423 Q171.198 178.298 169.277 176.515 Q167.379 174.733 164.022 174.733 M159.346 172.742 Q156.337 172.001 154.647 169.941 Q152.981 167.881 152.981 164.918 Q152.981 160.775 155.92 158.367 Q158.883 155.96 164.022 155.96 Q169.184 155.96 172.124 158.367 Q175.064 160.775 175.064 164.918 Q175.064 167.881 173.374 169.941 Q171.707 172.001 168.721 172.742 Q172.101 173.529 173.976 175.821 Q175.874 178.112 175.874 181.423 Q175.874 186.446 172.795 189.131 Q169.74 191.816 164.022 191.816 Q158.305 191.816 155.226 189.131 Q152.171 186.446 152.171 181.423 Q152.171 178.112 154.069 175.821 Q155.967 173.529 159.346 172.742 M157.633 165.358 Q157.633 168.043 159.3 169.548 Q160.99 171.052 164.022 171.052 Q167.032 171.052 168.721 169.548 Q170.434 168.043 170.434 165.358 Q170.434 162.673 168.721 161.168 Q167.032 159.663 164.022 159.663 Q160.99 159.663 159.3 161.168 Q157.633 162.673 157.633 165.358 Z" fill="#000000" fill-rule="evenodd" fill-opacity="1" /><path clip-path="url(#clip480)" d="M 0 0 M1296.83 4.53628 Q1296.74 4.94617 1296.58 5.68398 Q1296.42 6.3808 1295.68 8.59422 Q1294.94 10.8076 1293.96 13.0621 Q1293.01 15.2755 1291.17 18.3907 Q1289.37 21.4649 1287.15 24.2521 Q1286.54 24.9899 1286.42 25.4408 Q1286.33 25.8507 1286.33 27.2034 Q1286.33 35.7291 1288.92 35.7291 Q1289.04 35.7291 1289.24 35.7291 Q1289.49 35.6881 1290.1 35.4832 Q1290.76 35.2373 1291.33 34.8683 Q1291.91 34.4585 1292.56 33.6387 Q1293.22 32.7779 1293.63 31.6302 Q1294 30.8104 1294.74 30.8104 Q1295.72 30.8104 1295.72 31.6302 Q1295.72 33.1058 1293.67 35.3602 Q1291.62 37.6146 1288.67 37.6146 Q1285.84 37.6146 1283.83 35.7701 Q1281.87 33.8846 1281.05 30.5235 Q1272.19 37.6146 1263.34 37.6146 Q1257.11 37.6146 1253.42 33.5567 Q1249.73 29.4578 1249.73 23.3913 Q1249.73 17.5709 1252.93 12.0373 Q1256.16 6.50377 1261.41 3.06067 Q1266.7 -0.423422 1272.31 -0.423422 Q1274.28 -0.423422 1276.17 0.109439 Q1278.05 0.60131 1279.94 1.87198 Q1281.82 3.14265 1283.22 5.06914 Q1284.61 6.99564 1285.47 10.0288 Q1286.33 13.0621 1286.33 16.8741 L1286.33 22.0797 Q1291.74 15.2345 1294.57 5.43805 Q1294.98 3.96243 1295.23 3.79847 Q1295.39 3.67551 1295.8 3.67551 Q1296.21 3.67551 1296.46 3.92144 Q1296.74 4.12639 1296.79 4.33133 L1296.83 4.53628 M1280.72 28.3511 Q1280.55 26.9164 1280.55 18.9645 Q1280.55 17.4479 1280.55 16.6281 Q1280.55 15.7673 1280.47 14.1278 Q1280.39 12.4882 1280.23 11.4635 Q1280.1 10.4387 1279.82 8.96312 Q1279.53 7.48751 1279.12 6.54476 Q1278.71 5.602 1278.05 4.53628 Q1277.44 3.47056 1276.62 2.85572 Q1275.84 2.24088 1274.69 1.83099 Q1273.59 1.4211 1272.23 1.4211 Q1270.55 1.4211 1268.79 2.03594 Q1267.07 2.60978 1264.85 4.4543 Q1262.64 6.25783 1260.8 9.12708 Q1258.87 12.1603 1257.39 17.7348 Q1255.96 23.2684 1255.96 26.5885 Q1255.96 30.7694 1257.89 33.2698 Q1259.81 35.7291 1263.5 35.7291 Q1272.31 35.7291 1280.72 28.3511 Z" fill="#000000" fill-rule="evenodd" fill-opacity="1" /><path clip-path="url(#clip480)" d="M 0 0 M1290.48 1525.39 Q1290.48 1527.19 1289.35 1528.22 Q1288.22 1529.22 1286.93 1529.22 Q1285.71 1529.22 1285.06 1528.51 Q1284.42 1527.8 1284.42 1526.9 Q1284.42 1525.68 1285.32 1524.61 Q1286.22 1523.55 1287.58 1523.33 Q1286.26 1522.49 1284.29 1522.49 Q1283 1522.49 1281.88 1523.16 Q1280.78 1523.84 1280.1 1524.71 Q1279.46 1525.58 1278.88 1526.84 Q1278.33 1528.06 1278.11 1528.8 Q1277.91 1529.51 1277.75 1530.28 L1275.5 1539.3 Q1274.4 1543.58 1274.4 1545.1 Q1274.4 1546.97 1275.31 1548.22 Q1276.21 1549.44 1278.01 1549.44 Q1278.72 1549.44 1279.53 1549.25 Q1280.33 1549.03 1281.36 1548.45 Q1282.42 1547.83 1283.36 1546.93 Q1284.32 1546 1285.26 1544.42 Q1286.19 1542.84 1286.8 1540.81 Q1287 1540.11 1287.64 1540.11 Q1288.45 1540.11 1288.45 1540.75 Q1288.45 1541.3 1288 1542.46 Q1287.58 1543.58 1286.64 1545.06 Q1285.74 1546.51 1284.55 1547.83 Q1283.36 1549.12 1281.59 1550.02 Q1279.81 1550.93 1277.88 1550.93 Q1275.11 1550.93 1273.28 1549.44 Q1271.44 1547.96 1270.77 1545.9 Q1270.6 1546.19 1270.38 1546.58 Q1270.15 1546.97 1269.48 1547.83 Q1268.83 1548.67 1268.09 1549.32 Q1267.35 1549.93 1266.19 1550.41 Q1265.06 1550.93 1263.84 1550.93 Q1262.29 1550.93 1260.91 1550.48 Q1259.56 1550.02 1258.59 1548.99 Q1257.63 1547.96 1257.63 1546.55 Q1257.63 1544.97 1258.69 1543.87 Q1259.78 1542.75 1261.26 1542.75 Q1262.2 1542.75 1262.94 1543.29 Q1263.71 1543.84 1263.71 1545.03 Q1263.71 1546.35 1262.81 1547.35 Q1261.91 1548.35 1260.62 1548.61 Q1261.94 1549.44 1263.91 1549.44 Q1266.03 1549.44 1267.71 1547.58 Q1269.38 1545.71 1270.19 1542.59 Q1272.18 1535.08 1272.96 1531.73 Q1273.73 1528.35 1273.73 1526.9 Q1273.73 1525.55 1273.37 1524.61 Q1273.02 1523.68 1272.41 1523.26 Q1271.83 1522.81 1271.28 1522.65 Q1270.77 1522.49 1270.19 1522.49 Q1269.22 1522.49 1268.12 1522.88 Q1267.06 1523.26 1265.77 1524.16 Q1264.52 1525.03 1263.33 1526.84 Q1262.13 1528.64 1261.33 1531.12 Q1261.17 1531.86 1260.46 1531.86 Q1259.69 1531.83 1259.69 1531.18 Q1259.69 1530.64 1260.1 1529.51 Q1260.56 1528.35 1261.46 1526.9 Q1262.39 1525.45 1263.58 1524.16 Q1264.81 1522.84 1266.58 1521.94 Q1268.38 1521.04 1270.31 1521.04 Q1271.18 1521.04 1272.02 1521.23 Q1272.89 1521.39 1273.92 1521.88 Q1274.98 1522.36 1275.92 1523.42 Q1276.85 1524.49 1277.43 1526.03 Q1277.82 1525.29 1278.33 1524.58 Q1278.88 1523.87 1279.72 1523 Q1280.59 1522.1 1281.78 1521.59 Q1283 1521.04 1284.36 1521.04 Q1285.68 1521.04 1286.96 1521.39 Q1288.25 1521.72 1289.35 1522.78 Q1290.48 1523.81 1290.48 1525.39 Z" fill="#000000" fill-rule="evenodd" fill-opacity="1" /><path clip-path="url(#clip480)" d="M 0 0 M50.5695 752.42 Q51.0203 752.42 52.0831 752.71 L77.2681 759.022 Q82.8719 760.407 86.801 764.916 Q90.7302 769.393 90.7302 774.481 Q90.7302 777.541 89.0877 779.505 Q87.4774 781.47 84.9975 781.47 Q82.8075 781.47 81.7447 780.31 Q80.7141 779.151 80.7141 777.766 Q80.7141 777.315 80.843 776.832 Q80.9718 776.349 81.5193 775.834 Q82.0668 775.318 83.0008 775.318 Q84.5144 775.318 85.706 776.639 Q86.2535 777.283 86.3824 777.895 Q86.5112 778.475 86.5112 779.473 Q87.413 779.086 88.0249 778.378 Q88.6368 777.669 88.8622 776.864 Q89.1199 776.059 89.1843 775.544 Q89.2809 774.996 89.2809 774.481 Q89.2809 770.359 85.1263 767.203 Q83.8703 766.269 82.6143 765.592 Q81.3905 764.884 79.8768 764.368 Q78.3953 763.853 77.5902 763.628 Q76.785 763.37 74.9493 762.919 Q77.9444 765.914 77.9444 769.586 Q77.9444 771.132 77.5258 772.516 Q77.1071 773.869 76.2375 775.061 Q75.3358 776.252 73.7577 776.961 Q72.1796 777.637 70.0862 777.637 Q67.864 777.637 64.8366 776.768 Q61.8093 775.898 56.2377 773.805 Q53.1137 772.678 51.6 772.678 Q50.8593 772.678 50.4084 772.839 Q49.9253 773 49.7643 773.322 Q49.5711 773.644 49.5389 773.837 Q49.5067 773.998 49.5067 774.32 Q49.5067 776.22 51.439 777.991 Q53.3714 779.763 57.6869 780.987 Q58.4921 781.244 58.6853 781.405 Q58.8786 781.566 58.8786 782.049 Q58.8464 782.855 58.2022 782.855 Q57.9446 782.855 56.9462 782.565 Q55.9156 782.275 54.4019 781.599 Q52.8561 780.89 51.4712 779.924 Q50.0542 778.958 49.0558 777.444 Q48.0574 775.898 48.0574 774.127 Q48.0574 771.711 49.6355 770.23 Q51.1814 768.716 53.468 768.716 Q54.4019 768.716 55.2393 768.974 Q56.0444 769.199 58.2022 770.037 Q66.8978 773.418 71.149 773.418 Q72.1796 773.418 73.0491 773.257 Q73.8865 773.064 74.7238 772.645 Q75.529 772.227 76.0121 771.389 Q76.463 770.52 76.463 769.328 Q76.463 767.814 75.7544 766.397 Q75.0137 764.948 74.0153 764.046 Q73.0169 763.112 72.1796 762.565 Q71.31 761.985 70.8591 761.856 L59.0074 758.893 L53.7256 757.573 Q50.8593 756.961 50.1508 756.671 Q49.4745 756.285 49.1202 755.608 Q48.7659 754.932 48.7659 754.352 Q48.7659 753.547 49.249 753 Q49.7321 752.42 50.5695 752.42 Z" fill="#000000" fill-rule="evenodd" fill-opacity="1" /><polyline clip-path="url(#clip483)" style="stroke:#009af9; stroke-width:4; stroke-opacity:1; fill:none" points="
  260.805,517.612 486.474,1407.21 712.143,240.213 937.812,348.38 1163.48,1355.56 1389.15,126.487 1614.82,767.607 1840.49,660.92 2066.16,872.663 2291.83,224.226 
  
  "/>
<path clip-path="url(#clip480)" d="
M1990.77 254.277 L2280.99 254.277 L2280.99 133.317 L1990.77 133.317  Z
  " fill="#ffffff" fill-rule="evenodd" fill-opacity="1"/>
<polyline clip-path="url(#clip480)" style="stroke:#000000; stroke-width:4; stroke-opacity:1; fill:none" points="
  1990.77,254.277 2280.99,254.277 2280.99,133.317 1990.77,133.317 1990.77,254.277 
  "/>
<polyline clip-path="url(#clip480)" style="stroke:#009af9; stroke-width:4; stroke-opacity:1; fill:none" points="
  2014.69,193.797 2158.21,193.797 
  "/>
<path clip-path="url(#clip480)" d="M 0 0 M2195.98 213.484 Q2194.17 218.114 2192.46 219.526 Q2190.74 220.938 2187.87 220.938 L2184.47 220.938 L2184.47 217.373 L2186.97 217.373 Q2188.73 217.373 2189.7 216.54 Q2190.67 215.707 2191.86 212.605 L2192.62 210.66 L2182.13 185.151 L2186.65 185.151 L2194.75 205.429 L2202.85 185.151 L2207.36 185.151 L2195.98 213.484 Z" fill="#000000" fill-rule="evenodd" fill-opacity="1" /><path clip-path="url(#clip480)" d="M 0 0 M2213.24 207.142 L2220.88 207.142 L2220.88 180.776 L2212.57 182.443 L2212.57 178.184 L2220.84 176.517 L2225.51 176.517 L2225.51 207.142 L2233.15 207.142 L2233.15 211.077 L2213.24 211.077 L2213.24 207.142 Z" fill="#000000" fill-rule="evenodd" fill-opacity="1" /></svg>
