<?xml version="1.0" encoding="utf-8"?>
<svg xmlns="http://www.w3.org/2000/svg" xmlns:xlink="http://www.w3.org/1999/xlink" width="600" height="400" viewBox="0 0 2400 1600">
<defs>
  <clipPath id="clip050">
    <rect x="0" y="0" width="2400" height="1600"/>
  </clipPath>
</defs>
<path clip-path="url(#clip050)" d="
M0 1600 L2400 1600 L2400 0 L0 0  Z
  " fill="#ffffff" fill-rule="evenodd" fill-opacity="1"/>
<defs>
  <clipPath id="clip051">
    <rect x="480" y="0" width="1681" height="1600"/>
  </clipPath>
</defs>
<path clip-path="url(#clip050)" d="
M164.082 1470.7 L2352.76 1470.7 L2352.76 47.2441 L164.082 47.2441  Z
  " fill="#ffffff" fill-rule="evenodd" fill-opacity="1"/>
<defs>
  <clipPath id="clip052">
    <rect x="164" y="47" width="2190" height="1424"/>
  </clipPath>
</defs>
<polyline clip-path="url(#clip052)" style="stroke:#000000; stroke-width:2; stroke-opacity:0.1; fill:none" points="
  455.447,1470.7 455.447,47.2441 
  "/>
<polyline clip-path="url(#clip052)" style="stroke:#000000; stroke-width:2; stroke-opacity:0.1; fill:none" points="
  914.288,1470.7 914.288,47.2441 
  "/>
<polyline clip-path="url(#clip052)" style="stroke:#000000; stroke-width:2; stroke-opacity:0.1; fill:none" points="
  1373.13,1470.7 1373.13,47.2441 
  "/>
<polyline clip-path="url(#clip052)" style="stroke:#000000; stroke-width:2; stroke-opacity:0.1; fill:none" points="
  1831.97,1470.7 1831.97,47.2441 
  "/>
<polyline clip-path="url(#clip052)" style="stroke:#000000; stroke-width:2; stroke-opacity:0.1; fill:none" points="
  2290.81,1470.7 2290.81,47.2441 
  "/>
<polyline clip-path="url(#clip052)" style="stroke:#000000; stroke-width:2; stroke-opacity:0.1; fill:none" points="
  164.082,1312.39 2352.76,1312.39 
  "/>
<polyline clip-path="url(#clip052)" style="stroke:#000000; stroke-width:2; stroke-opacity:0.1; fill:none" points="
  164.082,1123.65 2352.76,1123.65 
  "/>
<polyline clip-path="url(#clip052)" style="stroke:#000000; stroke-width:2; stroke-opacity:0.1; fill:none" points="
  164.082,934.917 2352.76,934.917 
  "/>
<polyline clip-path="url(#clip052)" style="stroke:#000000; stroke-width:2; stroke-opacity:0.1; fill:none" points="
  164.082,746.18 2352.76,746.18 
  "/>
<polyline clip-path="url(#clip052)" style="stroke:#000000; stroke-width:2; stroke-opacity:0.1; fill:none" points="
  164.082,557.443 2352.76,557.443 
  "/>
<polyline clip-path="url(#clip052)" style="stroke:#000000; stroke-width:2; stroke-opacity:0.1; fill:none" points="
  164.082,368.706 2352.76,368.706 
  "/>
<polyline clip-path="url(#clip052)" style="stroke:#000000; stroke-width:2; stroke-opacity:0.1; fill:none" points="
  164.082,179.968 2352.76,179.968 
  "/>
<polyline clip-path="url(#clip050)" style="stroke:#000000; stroke-width:4; stroke-opacity:1; fill:none" points="
  164.082,1470.7 2352.76,1470.7 
  "/>
<polyline clip-path="url(#clip050)" style="stroke:#000000; stroke-width:4; stroke-opacity:1; fill:none" points="
  164.082,1470.7 164.082,47.2441 
  "/>
<polyline clip-path="url(#clip050)" style="stroke:#000000; stroke-width:4; stroke-opacity:1; fill:none" points="
  455.447,1470.7 455.447,1453.62 
  "/>
<polyline clip-path="url(#clip050)" style="stroke:#000000; stroke-width:4; stroke-opacity:1; fill:none" points="
  914.288,1470.7 914.288,1453.62 
  "/>
<polyline clip-path="url(#clip050)" style="stroke:#000000; stroke-width:4; stroke-opacity:1; fill:none" points="
  1373.13,1470.7 1373.13,1453.62 
  "/>
<polyline clip-path="url(#clip050)" style="stroke:#000000; stroke-width:4; stroke-opacity:1; fill:none" points="
  1831.97,1470.7 1831.97,1453.62 
  "/>
<polyline clip-path="url(#clip050)" style="stroke:#000000; stroke-width:4; stroke-opacity:1; fill:none" points="
  2290.81,1470.7 2290.81,1453.62 
  "/>
<polyline clip-path="url(#clip050)" style="stroke:#000000; stroke-width:4; stroke-opacity:1; fill:none" points="
  164.082,1312.39 190.347,1312.39 
  "/>
<polyline clip-path="url(#clip050)" style="stroke:#000000; stroke-width:4; stroke-opacity:1; fill:none" points="
  164.082,1123.65 190.347,1123.65 
  "/>
<polyline clip-path="url(#clip050)" style="stroke:#000000; stroke-width:4; stroke-opacity:1; fill:none" points="
  164.082,934.917 190.347,934.917 
  "/>
<polyline clip-path="url(#clip050)" style="stroke:#000000; stroke-width:4; stroke-opacity:1; fill:none" points="
  164.082,746.18 190.347,746.18 
  "/>
<polyline clip-path="url(#clip050)" style="stroke:#000000; stroke-width:4; stroke-opacity:1; fill:none" points="
  164.082,557.443 190.347,557.443 
  "/>
<polyline clip-path="url(#clip050)" style="stroke:#000000; stroke-width:4; stroke-opacity:1; fill:none" points="
  164.082,368.706 190.347,368.706 
  "/>
<polyline clip-path="url(#clip050)" style="stroke:#000000; stroke-width:4; stroke-opacity:1; fill:none" points="
  164.082,179.968 190.347,179.968 
  "/>
<path clip-path="url(#clip050)" d="M 0 0 M450.1 1520.24 L466.419 1520.24 L466.419 1524.17 L444.475 1524.17 L444.475 1520.24 Q447.137 1517.48 451.72 1512.85 Q456.326 1508.2 457.507 1506.86 Q459.752 1504.33 460.632 1502.6 Q461.535 1500.84 461.535 1499.15 Q461.535 1496.39 459.59 1494.66 Q457.669 1492.92 454.567 1492.92 Q452.368 1492.92 449.914 1493.69 Q447.484 1494.45 444.706 1496 L444.706 1491.28 Q447.53 1490.14 449.984 1489.57 Q452.437 1488.99 454.474 1488.99 Q459.845 1488.99 463.039 1491.67 Q466.234 1494.36 466.234 1498.85 Q466.234 1500.98 465.424 1502.9 Q464.636 1504.8 462.53 1507.39 Q461.951 1508.06 458.849 1511.28 Q455.748 1514.47 450.1 1520.24 Z" fill="#000000" fill-rule="evenodd" fill-opacity="1" /><path clip-path="url(#clip050)" d="M 0 0 M917.297 1493.69 L905.492 1512.13 L917.297 1512.13 L917.297 1493.69 M916.071 1489.61 L921.95 1489.61 L921.95 1512.13 L926.881 1512.13 L926.881 1516.02 L921.95 1516.02 L921.95 1524.17 L917.297 1524.17 L917.297 1516.02 L901.696 1516.02 L901.696 1511.51 L916.071 1489.61 Z" fill="#000000" fill-rule="evenodd" fill-opacity="1" /><path clip-path="url(#clip050)" d="M 0 0 M1373.53 1505.03 Q1370.39 1505.03 1368.53 1507.18 Q1366.71 1509.33 1366.71 1513.08 Q1366.71 1516.81 1368.53 1518.99 Q1370.39 1521.14 1373.53 1521.14 Q1376.68 1521.14 1378.51 1518.99 Q1380.36 1516.81 1380.36 1513.08 Q1380.36 1509.33 1378.51 1507.18 Q1376.68 1505.03 1373.53 1505.03 M1382.82 1490.38 L1382.82 1494.63 Q1381.06 1493.8 1379.25 1493.36 Q1377.47 1492.92 1375.71 1492.92 Q1371.08 1492.92 1368.63 1496.05 Q1366.2 1499.17 1365.85 1505.49 Q1367.22 1503.48 1369.28 1502.41 Q1371.34 1501.32 1373.81 1501.32 Q1379.02 1501.32 1382.03 1504.5 Q1385.06 1507.64 1385.06 1513.08 Q1385.06 1518.41 1381.91 1521.63 Q1378.77 1524.84 1373.53 1524.84 Q1367.54 1524.84 1364.37 1520.26 Q1361.2 1515.65 1361.2 1506.93 Q1361.2 1498.73 1365.09 1493.87 Q1368.97 1488.99 1375.53 1488.99 Q1377.28 1488.99 1379.07 1489.33 Q1380.87 1489.68 1382.82 1490.38 Z" fill="#000000" fill-rule="evenodd" fill-opacity="1" /><path clip-path="url(#clip050)" d="M 0 0 M1831.97 1507.76 Q1828.64 1507.76 1826.72 1509.54 Q1824.82 1511.32 1824.82 1514.45 Q1824.82 1517.57 1826.72 1519.36 Q1828.64 1521.14 1831.97 1521.14 Q1835.3 1521.14 1837.23 1519.36 Q1839.15 1517.55 1839.15 1514.45 Q1839.15 1511.32 1837.23 1509.54 Q1835.33 1507.76 1831.97 1507.76 M1827.3 1505.77 Q1824.29 1505.03 1822.6 1502.97 Q1820.93 1500.91 1820.93 1497.95 Q1820.93 1493.8 1823.87 1491.39 Q1826.83 1488.99 1831.97 1488.99 Q1837.13 1488.99 1840.07 1491.39 Q1843.01 1493.8 1843.01 1497.95 Q1843.01 1500.91 1841.32 1502.97 Q1839.66 1505.03 1836.67 1505.77 Q1840.05 1506.56 1841.92 1508.85 Q1843.82 1511.14 1843.82 1514.45 Q1843.82 1519.47 1840.74 1522.16 Q1837.69 1524.84 1831.97 1524.84 Q1826.25 1524.84 1823.17 1522.16 Q1820.12 1519.47 1820.12 1514.45 Q1820.12 1511.14 1822.02 1508.85 Q1823.92 1506.56 1827.3 1505.77 M1825.58 1498.38 Q1825.58 1501.07 1827.25 1502.57 Q1828.94 1504.08 1831.97 1504.08 Q1834.98 1504.08 1836.67 1502.57 Q1838.38 1501.07 1838.38 1498.38 Q1838.38 1495.7 1836.67 1494.2 Q1834.98 1492.69 1831.97 1492.69 Q1828.94 1492.69 1827.25 1494.2 Q1825.58 1495.7 1825.58 1498.38 Z" fill="#000000" fill-rule="evenodd" fill-opacity="1" /><path clip-path="url(#clip050)" d="M 0 0 M2267.69 1520.24 L2275.33 1520.24 L2275.33 1493.87 L2267.02 1495.54 L2267.02 1491.28 L2275.28 1489.61 L2279.96 1489.61 L2279.96 1520.24 L2287.59 1520.24 L2287.59 1524.17 L2267.69 1524.17 L2267.69 1520.24 Z" fill="#000000" fill-rule="evenodd" fill-opacity="1" /><path clip-path="url(#clip050)" d="M 0 0 M2302.66 1492.69 Q2299.05 1492.69 2297.22 1496.26 Q2295.42 1499.8 2295.42 1506.93 Q2295.42 1514.03 2297.22 1517.6 Q2299.05 1521.14 2302.66 1521.14 Q2306.3 1521.14 2308.1 1517.6 Q2309.93 1514.03 2309.93 1506.93 Q2309.93 1499.8 2308.1 1496.26 Q2306.3 1492.69 2302.66 1492.69 M2302.66 1488.99 Q2308.47 1488.99 2311.53 1493.59 Q2314.61 1498.18 2314.61 1506.93 Q2314.61 1515.65 2311.53 1520.26 Q2308.47 1524.84 2302.66 1524.84 Q2296.85 1524.84 2293.78 1520.26 Q2290.72 1515.65 2290.72 1506.93 Q2290.72 1498.18 2293.78 1493.59 Q2296.85 1488.99 2302.66 1488.99 Z" fill="#000000" fill-rule="evenodd" fill-opacity="1" /><path clip-path="url(#clip050)" d="M 0 0 M92.7679 1298.19 Q89.1568 1298.19 87.3281 1301.75 Q85.5225 1305.3 85.5225 1312.43 Q85.5225 1319.53 87.3281 1323.1 Q89.1568 1326.64 92.7679 1326.64 Q96.4021 1326.64 98.2076 1323.1 Q100.036 1319.53 100.036 1312.43 Q100.036 1305.3 98.2076 1301.75 Q96.4021 1298.19 92.7679 1298.19 M92.7679 1294.49 Q98.578 1294.49 101.634 1299.09 Q104.712 1303.68 104.712 1312.43 Q104.712 1321.15 101.634 1325.76 Q98.578 1330.34 92.7679 1330.34 Q86.9577 1330.34 83.879 1325.76 Q80.8235 1321.15 80.8235 1312.43 Q80.8235 1303.68 83.879 1299.09 Q86.9577 1294.49 92.7679 1294.49 Z" fill="#000000" fill-rule="evenodd" fill-opacity="1" /><path clip-path="url(#clip050)" d="M 0 0 M109.782 1323.79 L114.666 1323.79 L114.666 1329.67 L109.782 1329.67 L109.782 1323.79 Z" fill="#000000" fill-rule="evenodd" fill-opacity="1" /><path clip-path="url(#clip050)" d="M 0 0 M123.763 1325.74 L140.082 1325.74 L140.082 1329.67 L118.138 1329.67 L118.138 1325.74 Q120.8 1322.98 125.383 1318.35 Q129.99 1313.7 131.17 1312.36 Q133.416 1309.83 134.295 1308.1 Q135.198 1306.34 135.198 1304.65 Q135.198 1301.89 133.254 1300.16 Q131.332 1298.42 128.231 1298.42 Q126.032 1298.42 123.578 1299.18 Q121.147 1299.95 118.37 1301.5 L118.37 1296.78 Q121.194 1295.64 123.647 1295.06 Q126.101 1294.49 128.138 1294.49 Q133.508 1294.49 136.703 1297.17 Q139.897 1299.86 139.897 1304.35 Q139.897 1306.48 139.087 1308.4 Q138.3 1310.3 136.194 1312.89 Q135.615 1313.56 132.513 1316.78 Q129.411 1319.97 123.763 1325.74 Z" fill="#000000" fill-rule="evenodd" fill-opacity="1" /><path clip-path="url(#clip050)" d="M 0 0 M91.8188 1109.45 Q88.2077 1109.45 86.379 1113.02 Q84.5735 1116.56 84.5735 1123.69 Q84.5735 1130.8 86.379 1134.36 Q88.2077 1137.9 91.8188 1137.9 Q95.453 1137.9 97.2586 1134.36 Q99.0873 1130.8 99.0873 1123.69 Q99.0873 1116.56 97.2586 1113.02 Q95.453 1109.45 91.8188 1109.45 M91.8188 1105.75 Q97.6289 1105.75 100.684 1110.36 Q103.763 1114.94 103.763 1123.69 Q103.763 1132.42 100.684 1137.02 Q97.6289 1141.61 91.8188 1141.61 Q86.0086 1141.61 82.9299 1137.02 Q79.8744 1132.42 79.8744 1123.69 Q79.8744 1114.94 82.9299 1110.36 Q86.0086 1105.75 91.8188 1105.75 Z" fill="#000000" fill-rule="evenodd" fill-opacity="1" /><path clip-path="url(#clip050)" d="M 0 0 M108.833 1135.05 L113.717 1135.05 L113.717 1140.93 L108.833 1140.93 L108.833 1135.05 Z" fill="#000000" fill-rule="evenodd" fill-opacity="1" /><path clip-path="url(#clip050)" d="M 0 0 M132.953 1122.3 Q136.309 1123.02 138.184 1125.29 Q140.082 1127.55 140.082 1130.89 Q140.082 1136 136.564 1138.8 Q133.045 1141.61 126.564 1141.61 Q124.388 1141.61 122.073 1141.17 Q119.782 1140.75 117.328 1139.89 L117.328 1135.38 Q119.272 1136.51 121.587 1137.09 Q123.902 1137.67 126.425 1137.67 Q130.823 1137.67 133.115 1135.93 Q135.43 1134.2 135.43 1130.89 Q135.43 1127.83 133.277 1126.12 Q131.147 1124.38 127.328 1124.38 L123.3 1124.38 L123.3 1120.54 L127.513 1120.54 Q130.962 1120.54 132.791 1119.17 Q134.619 1117.79 134.619 1115.19 Q134.619 1112.53 132.721 1111.12 Q130.846 1109.68 127.328 1109.68 Q125.407 1109.68 123.208 1110.1 Q121.008 1110.52 118.37 1111.4 L118.37 1107.23 Q121.032 1106.49 123.346 1106.12 Q125.684 1105.75 127.745 1105.75 Q133.069 1105.75 136.17 1108.18 Q139.272 1110.59 139.272 1114.71 Q139.272 1117.58 137.629 1119.57 Q135.985 1121.54 132.953 1122.3 Z" fill="#000000" fill-rule="evenodd" fill-opacity="1" /><path clip-path="url(#clip050)" d="M 0 0 M90.6845 920.715 Q87.0734 920.715 85.2448 924.28 Q83.4392 927.822 83.4392 934.952 Q83.4392 942.058 85.2448 945.623 Q87.0734 949.164 90.6845 949.164 Q94.3188 949.164 96.1243 945.623 Q97.953 942.058 97.953 934.952 Q97.953 927.822 96.1243 924.28 Q94.3188 920.715 90.6845 920.715 M90.6845 917.012 Q96.4947 917.012 99.5502 921.618 Q102.629 926.202 102.629 934.952 Q102.629 943.678 99.5502 948.285 Q96.4947 952.868 90.6845 952.868 Q84.8744 952.868 81.7957 948.285 Q78.7402 943.678 78.7402 934.952 Q78.7402 926.202 81.7957 921.618 Q84.8744 917.012 90.6845 917.012 Z" fill="#000000" fill-rule="evenodd" fill-opacity="1" /><path clip-path="url(#clip050)" d="M 0 0 M107.698 946.317 L112.583 946.317 L112.583 952.197 L107.698 952.197 L107.698 946.317 Z" fill="#000000" fill-rule="evenodd" fill-opacity="1" /><path clip-path="url(#clip050)" d="M 0 0 M130.499 921.711 L118.694 940.16 L130.499 940.16 L130.499 921.711 M129.272 917.637 L135.152 917.637 L135.152 940.16 L140.082 940.16 L140.082 944.049 L135.152 944.049 L135.152 952.197 L130.499 952.197 L130.499 944.049 L114.897 944.049 L114.897 939.535 L129.272 917.637 Z" fill="#000000" fill-rule="evenodd" fill-opacity="1" /><path clip-path="url(#clip050)" d="M 0 0 M92.166 731.978 Q88.5549 731.978 86.7262 735.543 Q84.9207 739.085 84.9207 746.214 Q84.9207 753.321 86.7262 756.886 Q88.5549 760.427 92.166 760.427 Q95.8003 760.427 97.6058 756.886 Q99.4345 753.321 99.4345 746.214 Q99.4345 739.085 97.6058 735.543 Q95.8003 731.978 92.166 731.978 M92.166 728.275 Q97.9762 728.275 101.032 732.881 Q104.11 737.464 104.11 746.214 Q104.11 754.941 101.032 759.548 Q97.9762 764.131 92.166 764.131 Q86.3559 764.131 83.2772 759.548 Q80.2216 754.941 80.2216 746.214 Q80.2216 737.464 83.2772 732.881 Q86.3559 728.275 92.166 728.275 Z" fill="#000000" fill-rule="evenodd" fill-opacity="1" /><path clip-path="url(#clip050)" d="M 0 0 M109.18 757.58 L114.064 757.58 L114.064 763.46 L109.18 763.46 L109.18 757.58 Z" fill="#000000" fill-rule="evenodd" fill-opacity="1" /><path clip-path="url(#clip050)" d="M 0 0 M119.18 728.9 L137.536 728.9 L137.536 732.835 L123.462 732.835 L123.462 741.307 Q124.481 740.96 125.499 740.798 Q126.518 740.613 127.536 740.613 Q133.323 740.613 136.703 743.784 Q140.082 746.955 140.082 752.372 Q140.082 757.95 136.61 761.052 Q133.138 764.131 126.819 764.131 Q124.643 764.131 122.374 763.761 Q120.129 763.39 117.721 762.65 L117.721 757.95 Q119.805 759.085 122.027 759.64 Q124.249 760.196 126.726 760.196 Q130.731 760.196 133.069 758.089 Q135.407 755.983 135.407 752.372 Q135.407 748.761 133.069 746.654 Q130.731 744.548 126.726 744.548 Q124.851 744.548 122.976 744.964 Q121.124 745.381 119.18 746.261 L119.18 728.9 Z" fill="#000000" fill-rule="evenodd" fill-opacity="1" /><path clip-path="url(#clip050)" d="M 0 0 M91.0086 543.241 Q87.3975 543.241 85.5688 546.806 Q83.7633 550.348 83.7633 557.477 Q83.7633 564.584 85.5688 568.149 Q87.3975 571.69 91.0086 571.69 Q94.6429 571.69 96.4484 568.149 Q98.2771 564.584 98.2771 557.477 Q98.2771 550.348 96.4484 546.806 Q94.6429 543.241 91.0086 543.241 M91.0086 539.538 Q96.8188 539.538 99.8743 544.144 Q102.953 548.727 102.953 557.477 Q102.953 566.204 99.8743 570.811 Q96.8188 575.394 91.0086 575.394 Q85.1985 575.394 82.1198 570.811 Q79.0642 566.204 79.0642 557.477 Q79.0642 548.727 82.1198 544.144 Q85.1985 539.538 91.0086 539.538 Z" fill="#000000" fill-rule="evenodd" fill-opacity="1" /><path clip-path="url(#clip050)" d="M 0 0 M108.022 568.843 L112.907 568.843 L112.907 574.723 L108.022 574.723 L108.022 568.843 Z" fill="#000000" fill-rule="evenodd" fill-opacity="1" /><path clip-path="url(#clip050)" d="M 0 0 M128.555 555.579 Q125.407 555.579 123.555 557.732 Q121.726 559.885 121.726 563.635 Q121.726 567.362 123.555 569.537 Q125.407 571.69 128.555 571.69 Q131.703 571.69 133.532 569.537 Q135.383 567.362 135.383 563.635 Q135.383 559.885 133.532 557.732 Q131.703 555.579 128.555 555.579 M137.837 540.927 L137.837 545.186 Q136.078 544.352 134.272 543.913 Q132.49 543.473 130.731 543.473 Q126.101 543.473 123.647 546.598 Q121.217 549.723 120.87 556.042 Q122.235 554.028 124.295 552.963 Q126.356 551.876 128.832 551.876 Q134.041 551.876 137.05 555.047 Q140.082 558.195 140.082 563.635 Q140.082 568.959 136.934 572.176 Q133.786 575.394 128.555 575.394 Q122.559 575.394 119.388 570.811 Q116.217 566.204 116.217 557.477 Q116.217 549.283 120.106 544.422 Q123.995 539.538 130.545 539.538 Q132.305 539.538 134.087 539.885 Q135.893 540.232 137.837 540.927 Z" fill="#000000" fill-rule="evenodd" fill-opacity="1" /><path clip-path="url(#clip050)" d="M 0 0 M92.0734 354.504 Q88.4623 354.504 86.6336 358.069 Q84.8281 361.611 84.8281 368.74 Q84.8281 375.847 86.6336 379.412 Q88.4623 382.953 92.0734 382.953 Q95.7077 382.953 97.5132 379.412 Q99.3419 375.847 99.3419 368.74 Q99.3419 361.611 97.5132 358.069 Q95.7077 354.504 92.0734 354.504 M92.0734 350.801 Q97.8836 350.801 100.939 355.407 Q104.018 359.99 104.018 368.74 Q104.018 377.467 100.939 382.074 Q97.8836 386.657 92.0734 386.657 Q86.2633 386.657 83.1846 382.074 Q80.129 377.467 80.129 368.74 Q80.129 359.99 83.1846 355.407 Q86.2633 350.801 92.0734 350.801 Z" fill="#000000" fill-rule="evenodd" fill-opacity="1" /><path clip-path="url(#clip050)" d="M 0 0 M109.087 380.106 L113.971 380.106 L113.971 385.986 L109.087 385.986 L109.087 380.106 Z" fill="#000000" fill-rule="evenodd" fill-opacity="1" /><path clip-path="url(#clip050)" d="M 0 0 M117.86 351.426 L140.082 351.426 L140.082 353.416 L127.536 385.986 L122.652 385.986 L134.457 355.361 L117.86 355.361 L117.86 351.426 Z" fill="#000000" fill-rule="evenodd" fill-opacity="1" /><path clip-path="url(#clip050)" d="M 0 0 M91.2632 165.767 Q87.6521 165.767 85.8235 169.332 Q84.0179 172.874 84.0179 180.003 Q84.0179 187.11 85.8235 190.674 Q87.6521 194.216 91.2632 194.216 Q94.8975 194.216 96.703 190.674 Q98.5317 187.11 98.5317 180.003 Q98.5317 172.874 96.703 169.332 Q94.8975 165.767 91.2632 165.767 M91.2632 162.064 Q97.0734 162.064 100.129 166.67 Q103.208 171.253 103.208 180.003 Q103.208 188.73 100.129 193.336 Q97.0734 197.92 91.2632 197.92 Q85.4531 197.92 82.3744 193.336 Q79.3189 188.73 79.3189 180.003 Q79.3189 171.253 82.3744 166.67 Q85.4531 162.064 91.2632 162.064 Z" fill="#000000" fill-rule="evenodd" fill-opacity="1" /><path clip-path="url(#clip050)" d="M 0 0 M108.277 191.369 L113.161 191.369 L113.161 197.248 L108.277 197.248 L108.277 191.369 Z" fill="#000000" fill-rule="evenodd" fill-opacity="1" /><path clip-path="url(#clip050)" d="M 0 0 M128.231 180.837 Q124.897 180.837 122.976 182.619 Q121.078 184.401 121.078 187.526 Q121.078 190.651 122.976 192.434 Q124.897 194.216 128.231 194.216 Q131.564 194.216 133.485 192.434 Q135.407 190.628 135.407 187.526 Q135.407 184.401 133.485 182.619 Q131.587 180.837 128.231 180.837 M123.555 178.846 Q120.545 178.105 118.856 176.045 Q117.189 173.985 117.189 171.022 Q117.189 166.878 120.129 164.471 Q123.092 162.064 128.231 162.064 Q133.393 162.064 136.332 164.471 Q139.272 166.878 139.272 171.022 Q139.272 173.985 137.582 176.045 Q135.916 178.105 132.93 178.846 Q136.309 179.633 138.184 181.925 Q140.082 184.216 140.082 187.526 Q140.082 192.549 137.004 195.235 Q133.948 197.92 128.231 197.92 Q122.513 197.92 119.434 195.235 Q116.379 192.549 116.379 187.526 Q116.379 184.216 118.277 181.925 Q120.175 179.633 123.555 178.846 M121.842 171.462 Q121.842 174.147 123.508 175.651 Q125.198 177.156 128.231 177.156 Q131.24 177.156 132.93 175.651 Q134.643 174.147 134.643 171.462 Q134.643 168.776 132.93 167.272 Q131.24 165.767 128.231 165.767 Q125.198 165.767 123.508 167.272 Q121.842 168.776 121.842 171.462 Z" fill="#000000" fill-rule="evenodd" fill-opacity="1" /><path clip-path="url(#clip050)" d="M 0 0 M1272.58 1521.01 Q1272.58 1522.81 1271.45 1523.84 Q1270.32 1524.84 1269.04 1524.84 Q1267.81 1524.84 1267.17 1524.13 Q1266.52 1523.42 1266.52 1522.52 Q1266.52 1521.3 1267.43 1520.23 Q1268.33 1519.17 1269.68 1518.95 Q1268.36 1518.11 1266.4 1518.11 Q1265.11 1518.11 1263.98 1518.78 Q1262.89 1519.46 1262.21 1520.33 Q1261.56 1521.2 1260.99 1522.46 Q1260.44 1523.68 1260.21 1524.42 Q1260.02 1525.13 1259.86 1525.9 L1257.6 1534.92 Q1256.51 1539.2 1256.51 1540.72 Q1256.51 1542.58 1257.41 1543.84 Q1258.31 1545.06 1260.12 1545.06 Q1260.82 1545.06 1261.63 1544.87 Q1262.43 1544.65 1263.46 1544.07 Q1264.53 1543.45 1265.46 1542.55 Q1266.43 1541.62 1267.36 1540.04 Q1268.3 1538.46 1268.91 1536.43 Q1269.1 1535.73 1269.75 1535.73 Q1270.55 1535.73 1270.55 1536.37 Q1270.55 1536.92 1270.1 1538.08 Q1269.68 1539.2 1268.75 1540.68 Q1267.84 1542.13 1266.65 1543.45 Q1265.46 1544.74 1263.69 1545.64 Q1261.92 1546.55 1259.99 1546.55 Q1257.22 1546.55 1255.38 1545.06 Q1253.55 1543.58 1252.87 1541.52 Q1252.71 1541.81 1252.48 1542.2 Q1252.26 1542.58 1251.58 1543.45 Q1250.94 1544.29 1250.2 1544.94 Q1249.46 1545.55 1248.3 1546.03 Q1247.17 1546.55 1245.94 1546.55 Q1244.4 1546.55 1243.01 1546.1 Q1241.66 1545.64 1240.7 1544.61 Q1239.73 1543.58 1239.73 1542.17 Q1239.73 1540.59 1240.79 1539.49 Q1241.89 1538.37 1243.37 1538.37 Q1244.3 1538.37 1245.04 1538.91 Q1245.82 1539.46 1245.82 1540.65 Q1245.82 1541.97 1244.91 1542.97 Q1244.01 1543.97 1242.72 1544.23 Q1244.04 1545.06 1246.01 1545.06 Q1248.13 1545.06 1249.81 1543.2 Q1251.48 1541.33 1252.29 1538.2 Q1254.29 1530.7 1255.06 1527.35 Q1255.83 1523.97 1255.83 1522.52 Q1255.83 1521.17 1255.48 1520.23 Q1255.12 1519.3 1254.51 1518.88 Q1253.93 1518.43 1253.38 1518.27 Q1252.87 1518.11 1252.29 1518.11 Q1251.32 1518.11 1250.23 1518.49 Q1249.17 1518.88 1247.88 1519.78 Q1246.62 1520.65 1245.43 1522.46 Q1244.24 1524.26 1243.43 1526.74 Q1243.27 1527.48 1242.56 1527.48 Q1241.79 1527.45 1241.79 1526.8 Q1241.79 1526.26 1242.21 1525.13 Q1242.66 1523.97 1243.56 1522.52 Q1244.5 1521.07 1245.69 1519.78 Q1246.91 1518.46 1248.68 1517.56 Q1250.49 1516.66 1252.42 1516.66 Q1253.29 1516.66 1254.13 1516.85 Q1254.99 1517.01 1256.03 1517.5 Q1257.09 1517.98 1258.02 1519.04 Q1258.96 1520.11 1259.54 1521.65 Q1259.92 1520.91 1260.44 1520.2 Q1260.99 1519.49 1261.82 1518.62 Q1262.69 1517.72 1263.88 1517.21 Q1265.11 1516.66 1266.46 1516.66 Q1267.78 1516.66 1269.07 1517.01 Q1270.36 1517.34 1271.45 1518.4 Q1272.58 1519.43 1272.58 1521.01 Z" fill="#000000" fill-rule="evenodd" fill-opacity="1" /><path clip-path="url(#clip050)" d="M 0 0 M56.8247 744.546 Q57.2755 744.546 58.3383 744.836 L83.5233 751.148 Q89.1271 752.533 93.0563 757.042 Q96.9854 761.518 96.9854 766.607 Q96.9854 769.667 95.3429 771.631 Q93.7326 773.596 91.2527 773.596 Q89.0627 773.596 87.9999 772.436 Q86.9693 771.277 86.9693 769.892 Q86.9693 769.441 87.0982 768.958 Q87.227 768.475 87.7745 767.96 Q88.322 767.444 89.256 767.444 Q90.7696 767.444 91.9613 768.765 Q92.5088 769.409 92.6376 770.021 Q92.7664 770.601 92.7664 771.599 Q93.6682 771.212 94.2801 770.504 Q94.892 769.795 95.1174 768.99 Q95.3751 768.185 95.4395 767.67 Q95.5361 767.122 95.5361 766.607 Q95.5361 762.485 91.3815 759.328 Q90.1255 758.395 88.8695 757.718 Q87.6457 757.01 86.132 756.494 Q84.6505 755.979 83.8454 755.754 Q83.0402 755.496 81.2045 755.045 Q84.1996 758.04 84.1996 761.712 Q84.1996 763.258 83.781 764.642 Q83.3623 765.995 82.4927 767.187 Q81.591 768.378 80.0129 769.087 Q78.4348 769.763 76.3414 769.763 Q74.1192 769.763 71.0919 768.894 Q68.0645 768.024 62.4929 765.931 Q59.3689 764.803 57.8552 764.803 Q57.1145 764.803 56.6636 764.965 Q56.1805 765.126 56.0195 765.448 Q55.8263 765.77 55.7941 765.963 Q55.7619 766.124 55.7619 766.446 Q55.7619 768.346 57.6942 770.117 Q59.6266 771.889 63.9422 773.113 Q64.7473 773.37 64.9405 773.531 Q65.1338 773.692 65.1338 774.175 Q65.1016 774.981 64.4574 774.981 Q64.1998 774.981 63.2014 774.691 Q62.1708 774.401 60.6572 773.725 Q59.1113 773.016 57.7264 772.05 Q56.3094 771.084 55.311 769.57 Q54.3126 768.024 54.3126 766.253 Q54.3126 763.837 55.8907 762.356 Q57.4366 760.842 59.7232 760.842 Q60.6572 760.842 61.4945 761.1 Q62.2997 761.325 64.4574 762.163 Q73.153 765.544 77.4042 765.544 Q78.4348 765.544 79.3044 765.383 Q80.1417 765.19 80.9791 764.771 Q81.7842 764.353 82.2673 763.515 Q82.7182 762.646 82.7182 761.454 Q82.7182 759.94 82.0096 758.523 Q81.2689 757.074 80.2705 756.172 Q79.2721 755.238 78.4348 754.691 Q77.5652 754.111 77.1144 753.982 L65.2626 751.019 L59.9808 749.699 Q57.1145 749.087 56.406 748.797 Q55.7297 748.411 55.3754 747.734 Q55.0211 747.058 55.0211 746.478 Q55.0211 745.673 55.5042 745.126 Q55.9873 744.546 56.8247 744.546 Z" fill="#000000" fill-rule="evenodd" fill-opacity="1" /><polyline clip-path="url(#clip052)" style="stroke:#009af9; stroke-width:4; stroke-opacity:1; fill:none" points="
  226.026,1188.7 455.447,787.76 684.867,901.822 914.288,87.5306 1143.71,110.635 1373.13,1026.29 1602.55,184.591 1831.97,1145.01 2061.39,1430.41 2290.81,824.115 
  
  "/>
<path clip-path="url(#clip050)" d="
M1989.74 251.724 L2280.76 251.724 L2280.76 130.764 L1989.74 130.764  Z
  " fill="#ffffff" fill-rule="evenodd" fill-opacity="1"/>
<polyline clip-path="url(#clip050)" style="stroke:#000000; stroke-width:4; stroke-opacity:1; fill:none" points="
  1989.74,251.724 2280.76,251.724 2280.76,130.764 1989.74,130.764 1989.74,251.724 
  "/>
<polyline clip-path="url(#clip050)" style="stroke:#009af9; stroke-width:4; stroke-opacity:1; fill:none" points="
  2013.74,191.244 2157.74,191.244 
  "/>
<path clip-path="url(#clip050)" d="M 0 0 M2195.58 210.931 Q2193.77 215.561 2192.06 216.973 Q2190.35 218.385 2187.48 218.385 L2184.08 218.385 L2184.08 214.82 L2186.58 214.82 Q2188.33 214.82 2189.31 213.987 Q2190.28 213.154 2191.46 210.052 L2192.22 208.107 L2181.74 182.598 L2186.25 182.598 L2194.35 202.876 L2202.46 182.598 L2206.97 182.598 L2195.58 210.931 Z" fill="#000000" fill-rule="evenodd" fill-opacity="1" /><path clip-path="url(#clip050)" d="M 0 0 M2212.85 204.589 L2220.49 204.589 L2220.49 178.223 L2212.18 179.89 L2212.18 175.631 L2220.44 173.964 L2225.12 173.964 L2225.12 204.589 L2232.76 204.589 L2232.76 208.524 L2212.85 208.524 L2212.85 204.589 Z" fill="#000000" fill-rule="evenodd" fill-opacity="1" /></svg>
