<?xml version="1.0" encoding="utf-8"?>
<svg xmlns="http://www.w3.org/2000/svg" xmlns:xlink="http://www.w3.org/1999/xlink" width="600" height="400" viewBox="0 0 2400 1600">
<defs>
  <clipPath id="clip4000">
    <rect x="0" y="0" width="2400" height="1600"/>
  </clipPath>
</defs>
<path clip-path="url(#clip4000)" d="
M0 1600 L2400 1600 L2400 0 L0 0  Z
  " fill="#ffffff" fill-rule="evenodd" fill-opacity="1"/>
<defs>
  <clipPath id="clip4001">
    <rect x="480" y="0" width="1681" height="1600"/>
  </clipPath>
</defs>
<path clip-path="url(#clip4000)" d="
M226.671 1406.36 L2352.76 1406.36 L2352.76 47.2441 L226.671 47.2441  Z
  " fill="#ffffff" fill-rule="evenodd" fill-opacity="1"/>
<defs>
  <clipPath id="clip4002">
    <rect x="226" y="47" width="2127" height="1360"/>
  </clipPath>
</defs>
<polyline clip-path="url(#clip4002)" style="stroke:#000000; stroke-width:2; stroke-opacity:0.1; fill:none" points="
  509.703,1406.36 509.703,47.2441 
  "/>
<polyline clip-path="url(#clip4002)" style="stroke:#000000; stroke-width:2; stroke-opacity:0.1; fill:none" points="
  955.423,1406.36 955.423,47.2441 
  "/>
<polyline clip-path="url(#clip4002)" style="stroke:#000000; stroke-width:2; stroke-opacity:0.1; fill:none" points="
  1401.14,1406.36 1401.14,47.2441 
  "/>
<polyline clip-path="url(#clip4002)" style="stroke:#000000; stroke-width:2; stroke-opacity:0.1; fill:none" points="
  1846.86,1406.36 1846.86,47.2441 
  "/>
<polyline clip-path="url(#clip4002)" style="stroke:#000000; stroke-width:2; stroke-opacity:0.1; fill:none" points="
  2292.58,1406.36 2292.58,47.2441 
  "/>
<polyline clip-path="url(#clip4002)" style="stroke:#000000; stroke-width:2; stroke-opacity:0.1; fill:none" points="
  226.671,1348.21 2352.76,1348.21 
  "/>
<polyline clip-path="url(#clip4002)" style="stroke:#000000; stroke-width:2; stroke-opacity:0.1; fill:none" points="
  226.671,1161.61 2352.76,1161.61 
  "/>
<polyline clip-path="url(#clip4002)" style="stroke:#000000; stroke-width:2; stroke-opacity:0.1; fill:none" points="
  226.671,975.023 2352.76,975.023 
  "/>
<polyline clip-path="url(#clip4002)" style="stroke:#000000; stroke-width:2; stroke-opacity:0.1; fill:none" points="
  226.671,788.431 2352.76,788.431 
  "/>
<polyline clip-path="url(#clip4002)" style="stroke:#000000; stroke-width:2; stroke-opacity:0.1; fill:none" points="
  226.671,601.84 2352.76,601.84 
  "/>
<polyline clip-path="url(#clip4002)" style="stroke:#000000; stroke-width:2; stroke-opacity:0.1; fill:none" points="
  226.671,415.248 2352.76,415.248 
  "/>
<polyline clip-path="url(#clip4002)" style="stroke:#000000; stroke-width:2; stroke-opacity:0.1; fill:none" points="
  226.671,228.657 2352.76,228.657 
  "/>
<polyline clip-path="url(#clip4000)" style="stroke:#000000; stroke-width:4; stroke-opacity:1; fill:none" points="
  226.671,1406.36 2352.76,1406.36 
  "/>
<polyline clip-path="url(#clip4000)" style="stroke:#000000; stroke-width:4; stroke-opacity:1; fill:none" points="
  226.671,1406.36 226.671,47.2441 
  "/>
<polyline clip-path="url(#clip4000)" style="stroke:#000000; stroke-width:4; stroke-opacity:1; fill:none" points="
  509.703,1406.36 509.703,1390.05 
  "/>
<polyline clip-path="url(#clip4000)" style="stroke:#000000; stroke-width:4; stroke-opacity:1; fill:none" points="
  955.423,1406.36 955.423,1390.05 
  "/>
<polyline clip-path="url(#clip4000)" style="stroke:#000000; stroke-width:4; stroke-opacity:1; fill:none" points="
  1401.14,1406.36 1401.14,1390.05 
  "/>
<polyline clip-path="url(#clip4000)" style="stroke:#000000; stroke-width:4; stroke-opacity:1; fill:none" points="
  1846.86,1406.36 1846.86,1390.05 
  "/>
<polyline clip-path="url(#clip4000)" style="stroke:#000000; stroke-width:4; stroke-opacity:1; fill:none" points="
  2292.58,1406.36 2292.58,1390.05 
  "/>
<polyline clip-path="url(#clip4000)" style="stroke:#000000; stroke-width:4; stroke-opacity:1; fill:none" points="
  226.671,1348.21 252.184,1348.21 
  "/>
<polyline clip-path="url(#clip4000)" style="stroke:#000000; stroke-width:4; stroke-opacity:1; fill:none" points="
  226.671,1161.61 252.184,1161.61 
  "/>
<polyline clip-path="url(#clip4000)" style="stroke:#000000; stroke-width:4; stroke-opacity:1; fill:none" points="
  226.671,975.023 252.184,975.023 
  "/>
<polyline clip-path="url(#clip4000)" style="stroke:#000000; stroke-width:4; stroke-opacity:1; fill:none" points="
  226.671,788.431 252.184,788.431 
  "/>
<polyline clip-path="url(#clip4000)" style="stroke:#000000; stroke-width:4; stroke-opacity:1; fill:none" points="
  226.671,601.84 252.184,601.84 
  "/>
<polyline clip-path="url(#clip4000)" style="stroke:#000000; stroke-width:4; stroke-opacity:1; fill:none" points="
  226.671,415.248 252.184,415.248 
  "/>
<polyline clip-path="url(#clip4000)" style="stroke:#000000; stroke-width:4; stroke-opacity:1; fill:none" points="
  226.671,228.657 252.184,228.657 
  "/>
<path clip-path="url(#clip4000)" d="M 0 0 M504.356 1455.9 L520.675 1455.9 L520.675 1459.83 L498.731 1459.83 L498.731 1455.9 Q501.393 1453.14 505.976 1448.51 Q510.583 1443.86 511.763 1442.52 Q514.009 1440 514.888 1438.26 Q515.791 1436.5 515.791 1434.81 Q515.791 1432.06 513.846 1430.32 Q511.925 1428.58 508.823 1428.58 Q506.624 1428.58 504.171 1429.35 Q501.74 1430.11 498.962 1431.66 L498.962 1426.94 Q501.786 1425.81 504.24 1425.23 Q506.694 1424.65 508.731 1424.65 Q514.101 1424.65 517.296 1427.33 Q520.49 1430.02 520.49 1434.51 Q520.49 1436.64 519.68 1438.56 Q518.893 1440.46 516.786 1443.05 Q516.208 1443.72 513.106 1446.94 Q510.004 1450.13 504.356 1455.9 Z" fill="#000000" fill-rule="evenodd" fill-opacity="1" /><path clip-path="url(#clip4000)" d="M 0 0 M958.432 1429.35 L946.627 1447.8 L958.432 1447.8 L958.432 1429.35 M957.206 1425.27 L963.085 1425.27 L963.085 1447.8 L968.016 1447.8 L968.016 1451.68 L963.085 1451.68 L963.085 1459.83 L958.432 1459.83 L958.432 1451.68 L942.831 1451.68 L942.831 1447.17 L957.206 1425.27 Z" fill="#000000" fill-rule="evenodd" fill-opacity="1" /><path clip-path="url(#clip4000)" d="M 0 0 M1401.55 1440.69 Q1398.4 1440.69 1396.55 1442.84 Q1394.72 1445 1394.72 1448.75 Q1394.72 1452.47 1396.55 1454.65 Q1398.4 1456.8 1401.55 1456.8 Q1404.7 1456.8 1406.53 1454.65 Q1408.38 1452.47 1408.38 1448.75 Q1408.38 1445 1406.53 1442.84 Q1404.7 1440.69 1401.55 1440.69 M1410.83 1426.04 L1410.83 1430.3 Q1409.07 1429.46 1407.27 1429.02 Q1405.48 1428.58 1403.72 1428.58 Q1399.09 1428.58 1396.64 1431.71 Q1394.21 1434.83 1393.86 1441.15 Q1395.23 1439.14 1397.29 1438.07 Q1399.35 1436.99 1401.83 1436.99 Q1407.03 1436.99 1410.04 1440.16 Q1413.08 1443.31 1413.08 1448.75 Q1413.08 1454.07 1409.93 1457.29 Q1406.78 1460.5 1401.55 1460.5 Q1395.55 1460.5 1392.38 1455.92 Q1389.21 1451.31 1389.21 1442.59 Q1389.21 1434.39 1393.1 1429.53 Q1396.99 1424.65 1403.54 1424.65 Q1405.3 1424.65 1407.08 1425 Q1408.89 1425.34 1410.83 1426.04 Z" fill="#000000" fill-rule="evenodd" fill-opacity="1" /><path clip-path="url(#clip4000)" d="M 0 0 M1846.86 1443.42 Q1843.53 1443.42 1841.61 1445.2 Q1839.71 1446.99 1839.71 1450.11 Q1839.71 1453.24 1841.61 1455.02 Q1843.53 1456.8 1846.86 1456.8 Q1850.2 1456.8 1852.12 1455.02 Q1854.04 1453.21 1854.04 1450.11 Q1854.04 1446.99 1852.12 1445.2 Q1850.22 1443.42 1846.86 1443.42 M1842.19 1441.43 Q1839.18 1440.69 1837.49 1438.63 Q1835.82 1436.57 1835.82 1433.61 Q1835.82 1429.46 1838.76 1427.06 Q1841.72 1424.65 1846.86 1424.65 Q1852.03 1424.65 1854.97 1427.06 Q1857.91 1429.46 1857.91 1433.61 Q1857.91 1436.57 1856.22 1438.63 Q1854.55 1440.69 1851.56 1441.43 Q1854.94 1442.22 1856.82 1444.51 Q1858.72 1446.8 1858.72 1450.11 Q1858.72 1455.13 1855.64 1457.82 Q1852.58 1460.5 1846.86 1460.5 Q1841.15 1460.5 1838.07 1457.82 Q1835.01 1455.13 1835.01 1450.11 Q1835.01 1446.8 1836.91 1444.51 Q1838.81 1442.22 1842.19 1441.43 M1840.47 1434.05 Q1840.47 1436.73 1842.14 1438.24 Q1843.83 1439.74 1846.86 1439.74 Q1849.87 1439.74 1851.56 1438.24 Q1853.28 1436.73 1853.28 1434.05 Q1853.28 1431.36 1851.56 1429.86 Q1849.87 1428.35 1846.86 1428.35 Q1843.83 1428.35 1842.14 1429.86 Q1840.47 1431.36 1840.47 1434.05 Z" fill="#000000" fill-rule="evenodd" fill-opacity="1" /><path clip-path="url(#clip4000)" d="M 0 0 M2269.46 1455.9 L2277.1 1455.9 L2277.1 1429.53 L2268.79 1431.2 L2268.79 1426.94 L2277.05 1425.27 L2281.73 1425.27 L2281.73 1455.9 L2289.37 1455.9 L2289.37 1459.83 L2269.46 1459.83 L2269.46 1455.9 Z" fill="#000000" fill-rule="evenodd" fill-opacity="1" /><path clip-path="url(#clip4000)" d="M 0 0 M2304.44 1428.35 Q2300.82 1428.35 2299 1431.92 Q2297.19 1435.46 2297.19 1442.59 Q2297.19 1449.69 2299 1453.26 Q2300.82 1456.8 2304.44 1456.8 Q2308.07 1456.8 2309.88 1453.26 Q2311.7 1449.69 2311.7 1442.59 Q2311.7 1435.46 2309.88 1431.92 Q2308.07 1428.35 2304.44 1428.35 M2304.44 1424.65 Q2310.25 1424.65 2313.3 1429.25 Q2316.38 1433.84 2316.38 1442.59 Q2316.38 1451.31 2313.3 1455.92 Q2310.25 1460.5 2304.44 1460.5 Q2298.63 1460.5 2295.55 1455.92 Q2292.49 1451.31 2292.49 1442.59 Q2292.49 1433.84 2295.55 1429.25 Q2298.63 1424.65 2304.44 1424.65 Z" fill="#000000" fill-rule="evenodd" fill-opacity="1" /><path clip-path="url(#clip4000)" d="M 0 0 M154.407 1334 Q150.796 1334 148.967 1337.57 Q147.162 1341.11 147.162 1348.24 Q147.162 1355.35 148.967 1358.91 Q150.796 1362.45 154.407 1362.45 Q158.041 1362.45 159.847 1358.91 Q161.676 1355.35 161.676 1348.24 Q161.676 1341.11 159.847 1337.57 Q158.041 1334 154.407 1334 M154.407 1330.3 Q160.217 1330.3 163.273 1334.91 Q166.351 1339.49 166.351 1348.24 Q166.351 1356.97 163.273 1361.57 Q160.217 1366.16 154.407 1366.16 Q148.597 1366.16 145.518 1361.57 Q142.463 1356.97 142.463 1348.24 Q142.463 1339.49 145.518 1334.91 Q148.597 1330.3 154.407 1330.3 Z" fill="#000000" fill-rule="evenodd" fill-opacity="1" /><path clip-path="url(#clip4000)" d="M 0 0 M171.421 1359.61 L176.305 1359.61 L176.305 1365.49 L171.421 1365.49 L171.421 1359.61 Z" fill="#000000" fill-rule="evenodd" fill-opacity="1" /><path clip-path="url(#clip4000)" d="M 0 0 M195.541 1346.85 Q198.898 1347.57 200.773 1349.84 Q202.671 1352.11 202.671 1355.44 Q202.671 1360.56 199.152 1363.36 Q195.634 1366.16 189.152 1366.16 Q186.976 1366.16 184.661 1365.72 Q182.37 1365.3 179.916 1364.44 L179.916 1359.93 Q181.861 1361.06 184.175 1361.64 Q186.49 1362.22 189.013 1362.22 Q193.411 1362.22 195.703 1360.49 Q198.018 1358.75 198.018 1355.44 Q198.018 1352.38 195.865 1350.67 Q193.736 1348.93 189.916 1348.93 L185.888 1348.93 L185.888 1345.09 L190.101 1345.09 Q193.55 1345.09 195.379 1343.73 Q197.208 1342.34 197.208 1339.75 Q197.208 1337.08 195.31 1335.67 Q193.435 1334.24 189.916 1334.24 Q187.995 1334.24 185.796 1334.65 Q183.597 1335.07 180.958 1335.95 L180.958 1331.78 Q183.62 1331.04 185.935 1330.67 Q188.273 1330.3 190.333 1330.3 Q195.657 1330.3 198.759 1332.73 Q201.86 1335.14 201.86 1339.26 Q201.86 1342.13 200.217 1344.12 Q198.573 1346.09 195.541 1346.85 Z" fill="#000000" fill-rule="evenodd" fill-opacity="1" /><path clip-path="url(#clip4000)" d="M 0 0 M153.273 1147.41 Q149.662 1147.41 147.833 1150.98 Q146.027 1154.52 146.027 1161.65 Q146.027 1168.76 147.833 1172.32 Q149.662 1175.86 153.273 1175.86 Q156.907 1175.86 158.713 1172.32 Q160.541 1168.76 160.541 1161.65 Q160.541 1154.52 158.713 1150.98 Q156.907 1147.41 153.273 1147.41 M153.273 1143.71 Q159.083 1143.71 162.138 1148.32 Q165.217 1152.9 165.217 1161.65 Q165.217 1170.38 162.138 1174.98 Q159.083 1179.57 153.273 1179.57 Q147.463 1179.57 144.384 1174.98 Q141.328 1170.38 141.328 1161.65 Q141.328 1152.9 144.384 1148.32 Q147.463 1143.71 153.273 1143.71 Z" fill="#000000" fill-rule="evenodd" fill-opacity="1" /><path clip-path="url(#clip4000)" d="M 0 0 M170.287 1173.01 L175.171 1173.01 L175.171 1178.89 L170.287 1178.89 L170.287 1173.01 Z" fill="#000000" fill-rule="evenodd" fill-opacity="1" /><path clip-path="url(#clip4000)" d="M 0 0 M193.087 1148.41 L181.282 1166.86 L193.087 1166.86 L193.087 1148.41 M191.861 1144.33 L197.74 1144.33 L197.74 1166.86 L202.671 1166.86 L202.671 1170.75 L197.74 1170.75 L197.74 1178.89 L193.087 1178.89 L193.087 1170.75 L177.486 1170.75 L177.486 1166.23 L191.861 1144.33 Z" fill="#000000" fill-rule="evenodd" fill-opacity="1" /><path clip-path="url(#clip4000)" d="M 0 0 M154.754 960.821 Q151.143 960.821 149.314 964.386 Q147.509 967.928 147.509 975.058 Q147.509 982.164 149.314 985.729 Q151.143 989.27 154.754 989.27 Q158.388 989.27 160.194 985.729 Q162.023 982.164 162.023 975.058 Q162.023 967.928 160.194 964.386 Q158.388 960.821 154.754 960.821 M154.754 957.118 Q160.564 957.118 163.62 961.724 Q166.699 966.308 166.699 975.058 Q166.699 983.784 163.62 988.391 Q160.564 992.974 154.754 992.974 Q148.944 992.974 145.865 988.391 Q142.81 983.784 142.81 975.058 Q142.81 966.308 145.865 961.724 Q148.944 957.118 154.754 957.118 Z" fill="#000000" fill-rule="evenodd" fill-opacity="1" /><path clip-path="url(#clip4000)" d="M 0 0 M171.768 986.423 L176.652 986.423 L176.652 992.303 L171.768 992.303 L171.768 986.423 Z" fill="#000000" fill-rule="evenodd" fill-opacity="1" /><path clip-path="url(#clip4000)" d="M 0 0 M181.768 957.743 L200.124 957.743 L200.124 961.678 L186.05 961.678 L186.05 970.15 Q187.069 969.803 188.087 969.641 Q189.106 969.456 190.124 969.456 Q195.911 969.456 199.291 972.627 Q202.671 975.798 202.671 981.215 Q202.671 986.794 199.198 989.895 Q195.726 992.974 189.407 992.974 Q187.231 992.974 184.962 992.604 Q182.717 992.233 180.31 991.493 L180.31 986.794 Q182.393 987.928 184.615 988.483 Q186.837 989.039 189.314 989.039 Q193.319 989.039 195.657 986.932 Q197.995 984.826 197.995 981.215 Q197.995 977.604 195.657 975.497 Q193.319 973.391 189.314 973.391 Q187.439 973.391 185.564 973.808 Q183.712 974.224 181.768 975.104 L181.768 957.743 Z" fill="#000000" fill-rule="evenodd" fill-opacity="1" /><path clip-path="url(#clip4000)" d="M 0 0 M153.597 774.23 Q149.986 774.23 148.157 777.795 Q146.352 781.336 146.352 788.466 Q146.352 795.572 148.157 799.137 Q149.986 802.679 153.597 802.679 Q157.231 802.679 159.037 799.137 Q160.865 795.572 160.865 788.466 Q160.865 781.336 159.037 777.795 Q157.231 774.23 153.597 774.23 M153.597 770.526 Q159.407 770.526 162.463 775.133 Q165.541 779.716 165.541 788.466 Q165.541 797.193 162.463 801.799 Q159.407 806.383 153.597 806.383 Q147.787 806.383 144.708 801.799 Q141.652 797.193 141.652 788.466 Q141.652 779.716 144.708 775.133 Q147.787 770.526 153.597 770.526 Z" fill="#000000" fill-rule="evenodd" fill-opacity="1" /><path clip-path="url(#clip4000)" d="M 0 0 M170.611 799.832 L175.495 799.832 L175.495 805.711 L170.611 805.711 L170.611 799.832 Z" fill="#000000" fill-rule="evenodd" fill-opacity="1" /><path clip-path="url(#clip4000)" d="M 0 0 M191.143 786.568 Q187.995 786.568 186.143 788.721 Q184.314 790.873 184.314 794.623 Q184.314 798.35 186.143 800.526 Q187.995 802.679 191.143 802.679 Q194.291 802.679 196.12 800.526 Q197.972 798.35 197.972 794.623 Q197.972 790.873 196.12 788.721 Q194.291 786.568 191.143 786.568 M200.425 771.915 L200.425 776.174 Q198.666 775.341 196.861 774.901 Q195.078 774.461 193.319 774.461 Q188.689 774.461 186.236 777.586 Q183.805 780.711 183.458 787.031 Q184.824 785.017 186.884 783.952 Q188.944 782.864 191.421 782.864 Q196.629 782.864 199.638 786.035 Q202.671 789.184 202.671 794.623 Q202.671 799.947 199.523 803.165 Q196.374 806.383 191.143 806.383 Q185.148 806.383 181.976 801.799 Q178.805 797.193 178.805 788.466 Q178.805 780.272 182.694 775.411 Q186.583 770.526 193.134 770.526 Q194.893 770.526 196.675 770.874 Q198.481 771.221 200.425 771.915 Z" fill="#000000" fill-rule="evenodd" fill-opacity="1" /><path clip-path="url(#clip4000)" d="M 0 0 M154.662 587.638 Q151.051 587.638 149.222 591.203 Q147.416 594.745 147.416 601.874 Q147.416 608.981 149.222 612.546 Q151.051 616.087 154.662 616.087 Q158.296 616.087 160.101 612.546 Q161.93 608.981 161.93 601.874 Q161.93 594.745 160.101 591.203 Q158.296 587.638 154.662 587.638 M154.662 583.935 Q160.472 583.935 163.527 588.541 Q166.606 593.125 166.606 601.874 Q166.606 610.601 163.527 615.208 Q160.472 619.791 154.662 619.791 Q148.852 619.791 145.773 615.208 Q142.717 610.601 142.717 601.874 Q142.717 593.125 145.773 588.541 Q148.852 583.935 154.662 583.935 Z" fill="#000000" fill-rule="evenodd" fill-opacity="1" /><path clip-path="url(#clip4000)" d="M 0 0 M171.675 613.24 L176.56 613.24 L176.56 619.12 L171.675 619.12 L171.675 613.24 Z" fill="#000000" fill-rule="evenodd" fill-opacity="1" /><path clip-path="url(#clip4000)" d="M 0 0 M180.449 584.56 L202.671 584.56 L202.671 586.551 L190.124 619.12 L185.24 619.12 L197.046 588.495 L180.449 588.495 L180.449 584.56 Z" fill="#000000" fill-rule="evenodd" fill-opacity="1" /><path clip-path="url(#clip4000)" d="M 0 0 M153.851 401.047 Q150.24 401.047 148.412 404.612 Q146.606 408.153 146.606 415.283 Q146.606 422.389 148.412 425.954 Q150.24 429.496 153.851 429.496 Q157.486 429.496 159.291 425.954 Q161.12 422.389 161.12 415.283 Q161.12 408.153 159.291 404.612 Q157.486 401.047 153.851 401.047 M153.851 397.343 Q159.662 397.343 162.717 401.95 Q165.796 406.533 165.796 415.283 Q165.796 424.01 162.717 428.616 Q159.662 433.2 153.851 433.2 Q148.041 433.2 144.963 428.616 Q141.907 424.01 141.907 415.283 Q141.907 406.533 144.963 401.95 Q148.041 397.343 153.851 397.343 Z" fill="#000000" fill-rule="evenodd" fill-opacity="1" /><path clip-path="url(#clip4000)" d="M 0 0 M170.865 426.649 L175.75 426.649 L175.75 432.528 L170.865 432.528 L170.865 426.649 Z" fill="#000000" fill-rule="evenodd" fill-opacity="1" /><path clip-path="url(#clip4000)" d="M 0 0 M190.819 416.116 Q187.486 416.116 185.564 417.899 Q183.666 419.681 183.666 422.806 Q183.666 425.931 185.564 427.713 Q187.486 429.496 190.819 429.496 Q194.152 429.496 196.073 427.713 Q197.995 425.908 197.995 422.806 Q197.995 419.681 196.073 417.899 Q194.175 416.116 190.819 416.116 M186.143 414.126 Q183.134 413.385 181.444 411.325 Q179.777 409.264 179.777 406.302 Q179.777 402.158 182.717 399.751 Q185.68 397.343 190.819 397.343 Q195.981 397.343 198.921 399.751 Q201.86 402.158 201.86 406.302 Q201.86 409.264 200.171 411.325 Q198.504 413.385 195.518 414.126 Q198.898 414.913 200.773 417.204 Q202.671 419.496 202.671 422.806 Q202.671 427.829 199.592 430.514 Q196.536 433.2 190.819 433.2 Q185.101 433.2 182.023 430.514 Q178.967 427.829 178.967 422.806 Q178.967 419.496 180.865 417.204 Q182.763 414.913 186.143 414.126 M184.43 406.741 Q184.43 409.427 186.097 410.931 Q187.786 412.436 190.819 412.436 Q193.828 412.436 195.518 410.931 Q197.231 409.427 197.231 406.741 Q197.231 404.056 195.518 402.552 Q193.828 401.047 190.819 401.047 Q187.786 401.047 186.097 402.552 Q184.43 404.056 184.43 406.741 Z" fill="#000000" fill-rule="evenodd" fill-opacity="1" /><path clip-path="url(#clip4000)" d="M 0 0 M153.944 214.455 Q150.333 214.455 148.504 218.02 Q146.699 221.562 146.699 228.691 Q146.699 235.798 148.504 239.363 Q150.333 242.904 153.944 242.904 Q157.578 242.904 159.384 239.363 Q161.213 235.798 161.213 228.691 Q161.213 221.562 159.384 218.02 Q157.578 214.455 153.944 214.455 M153.944 210.752 Q159.754 210.752 162.81 215.358 Q165.888 219.942 165.888 228.691 Q165.888 237.418 162.81 242.025 Q159.754 246.608 153.944 246.608 Q148.134 246.608 145.055 242.025 Q142 237.418 142 228.691 Q142 219.942 145.055 215.358 Q148.134 210.752 153.944 210.752 Z" fill="#000000" fill-rule="evenodd" fill-opacity="1" /><path clip-path="url(#clip4000)" d="M 0 0 M170.958 240.057 L175.842 240.057 L175.842 245.937 L170.958 245.937 L170.958 240.057 Z" fill="#000000" fill-rule="evenodd" fill-opacity="1" /><path clip-path="url(#clip4000)" d="M 0 0 M181.05 245.219 L181.05 240.96 Q182.81 241.793 184.615 242.233 Q186.421 242.673 188.157 242.673 Q192.786 242.673 195.217 239.571 Q197.671 236.446 198.018 230.104 Q196.675 232.094 194.615 233.159 Q192.555 234.224 190.055 234.224 Q184.87 234.224 181.837 231.099 Q178.828 227.951 178.828 222.511 Q178.828 217.187 181.976 213.969 Q185.124 210.752 190.356 210.752 Q196.351 210.752 199.499 215.358 Q202.671 219.942 202.671 228.691 Q202.671 236.863 198.782 241.747 Q194.916 246.608 188.365 246.608 Q186.606 246.608 184.8 246.261 Q182.995 245.914 181.05 245.219 M190.356 230.566 Q193.504 230.566 195.333 228.414 Q197.185 226.261 197.185 222.511 Q197.185 218.784 195.333 216.631 Q193.504 214.455 190.356 214.455 Q187.208 214.455 185.356 216.631 Q183.527 218.784 183.527 222.511 Q183.527 226.261 185.356 228.414 Q187.208 230.566 190.356 230.566 Z" fill="#000000" fill-rule="evenodd" fill-opacity="1" /><path clip-path="url(#clip4000)" d="M 0 0 M1303.87 1486.67 Q1303.87 1488.47 1302.75 1489.5 Q1301.62 1490.5 1300.33 1490.5 Q1299.11 1490.5 1298.46 1489.79 Q1297.82 1489.08 1297.82 1488.18 Q1297.82 1486.96 1298.72 1485.9 Q1299.62 1484.83 1300.97 1484.61 Q1299.65 1483.77 1297.69 1483.77 Q1296.4 1483.77 1295.27 1484.45 Q1294.18 1485.12 1293.5 1485.99 Q1292.86 1486.86 1292.28 1488.12 Q1291.73 1489.34 1291.51 1490.08 Q1291.31 1490.79 1291.15 1491.56 L1288.9 1500.58 Q1287.8 1504.86 1287.8 1506.38 Q1287.8 1508.25 1288.7 1509.5 Q1289.61 1510.73 1291.41 1510.73 Q1292.12 1510.73 1292.92 1510.53 Q1293.73 1510.31 1294.76 1509.73 Q1295.82 1509.12 1296.76 1508.21 Q1297.72 1507.28 1298.66 1505.7 Q1299.59 1504.12 1300.2 1502.09 Q1300.4 1501.39 1301.04 1501.39 Q1301.84 1501.39 1301.84 1502.03 Q1301.84 1502.58 1301.39 1503.74 Q1300.97 1504.86 1300.04 1506.35 Q1299.14 1507.8 1297.95 1509.12 Q1296.76 1510.4 1294.98 1511.31 Q1293.21 1512.21 1291.28 1512.21 Q1288.51 1512.21 1286.68 1510.73 Q1284.84 1509.24 1284.16 1507.18 Q1284 1507.47 1283.78 1507.86 Q1283.55 1508.25 1282.88 1509.12 Q1282.23 1509.95 1281.49 1510.6 Q1280.75 1511.21 1279.59 1511.69 Q1278.46 1512.21 1277.24 1512.21 Q1275.69 1512.21 1274.31 1511.76 Q1272.96 1511.31 1271.99 1510.28 Q1271.02 1509.24 1271.02 1507.83 Q1271.02 1506.25 1272.09 1505.15 Q1273.18 1504.03 1274.66 1504.03 Q1275.6 1504.03 1276.34 1504.57 Q1277.11 1505.12 1277.11 1506.31 Q1277.11 1507.63 1276.21 1508.63 Q1275.31 1509.63 1274.02 1509.89 Q1275.34 1510.73 1277.3 1510.73 Q1279.43 1510.73 1281.1 1508.86 Q1282.78 1506.99 1283.58 1503.87 Q1285.58 1496.36 1286.35 1493.01 Q1287.13 1489.63 1287.13 1488.18 Q1287.13 1486.83 1286.77 1485.9 Q1286.42 1484.96 1285.81 1484.54 Q1285.23 1484.09 1284.68 1483.93 Q1284.16 1483.77 1283.58 1483.77 Q1282.62 1483.77 1281.52 1484.16 Q1280.46 1484.54 1279.17 1485.44 Q1277.92 1486.31 1276.72 1488.12 Q1275.53 1489.92 1274.73 1492.4 Q1274.57 1493.14 1273.86 1493.14 Q1273.08 1493.11 1273.08 1492.47 Q1273.08 1491.92 1273.5 1490.79 Q1273.95 1489.63 1274.86 1488.18 Q1275.79 1486.73 1276.98 1485.44 Q1278.21 1484.12 1279.98 1483.22 Q1281.78 1482.32 1283.71 1482.32 Q1284.58 1482.32 1285.42 1482.51 Q1286.29 1482.67 1287.32 1483.16 Q1288.38 1483.64 1289.32 1484.7 Q1290.25 1485.77 1290.83 1487.31 Q1291.22 1486.57 1291.73 1485.86 Q1292.28 1485.15 1293.12 1484.28 Q1293.99 1483.38 1295.18 1482.87 Q1296.4 1482.32 1297.75 1482.32 Q1299.07 1482.32 1300.36 1482.67 Q1301.65 1483 1302.75 1484.06 Q1303.87 1485.09 1303.87 1486.67 Z" fill="#000000" fill-rule="evenodd" fill-opacity="1" /><path clip-path="url(#clip4000)" d="M 0 0 M76.4129 712.377 Q76.8638 712.377 77.9266 712.666 L103.112 718.979 Q108.715 720.364 112.644 724.872 Q116.574 729.349 116.574 734.438 Q116.574 737.497 114.931 739.462 Q113.321 741.426 110.841 741.426 Q108.651 741.426 107.588 740.267 Q106.558 739.107 106.558 737.723 Q106.558 737.272 106.686 736.789 Q106.815 736.306 107.363 735.79 Q107.91 735.275 108.844 735.275 Q110.358 735.275 111.549 736.595 Q112.097 737.24 112.226 737.851 Q112.355 738.431 112.355 739.43 Q113.256 739.043 113.868 738.335 Q114.48 737.626 114.706 736.821 Q114.963 736.016 115.028 735.5 Q115.124 734.953 115.124 734.438 Q115.124 730.315 110.97 727.159 Q109.714 726.225 108.458 725.549 Q107.234 724.84 105.72 724.325 Q104.239 723.81 103.434 723.584 Q102.628 723.327 100.793 722.876 Q103.788 725.871 103.788 729.542 Q103.788 731.088 103.369 732.473 Q102.951 733.826 102.081 735.017 Q101.179 736.209 99.6011 736.917 Q98.023 737.594 95.9296 737.594 Q93.7074 737.594 90.6801 736.724 Q87.6527 735.855 82.0811 733.761 Q78.9572 732.634 77.4435 732.634 Q76.7027 732.634 76.2519 732.795 Q75.7688 732.956 75.6077 733.278 Q75.4145 733.6 75.3823 733.793 Q75.3501 733.955 75.3501 734.277 Q75.3501 736.177 77.2825 737.948 Q79.2148 739.719 83.5304 740.943 Q84.3355 741.201 84.5288 741.362 Q84.722 741.523 84.722 742.006 Q84.6898 742.811 84.0457 742.811 Q83.788 742.811 82.7897 742.521 Q81.7591 742.231 80.2454 741.555 Q78.6995 740.847 77.3147 739.88 Q75.8976 738.914 74.8992 737.401 Q73.9008 735.855 73.9008 734.083 Q73.9008 731.668 75.4789 730.186 Q77.0248 728.673 79.3114 728.673 Q80.2454 728.673 81.0827 728.93 Q81.8879 729.156 84.0457 729.993 Q92.7413 733.375 96.9924 733.375 Q98.023 733.375 98.8926 733.214 Q99.7299 733.021 100.567 732.602 Q101.372 732.183 101.856 731.346 Q102.306 730.476 102.306 729.285 Q102.306 727.771 101.598 726.354 Q100.857 724.905 99.8588 724.003 Q98.8604 723.069 98.023 722.521 Q97.1535 721.942 96.7026 721.813 L84.8508 718.85 L79.5691 717.53 Q76.7027 716.918 75.9942 716.628 Q75.3179 716.241 74.9636 715.565 Q74.6094 714.889 74.6094 714.309 Q74.6094 713.504 75.0925 712.956 Q75.5755 712.377 76.4129 712.377 Z" fill="#000000" fill-rule="evenodd" fill-opacity="1" /><polyline clip-path="url(#clip4002)" style="stroke:#009af9; stroke-width:4; stroke-opacity:1; fill:none" points="
  286.843,698.797 509.703,222.917 732.563,1364.73 955.423,1367.9 1178.28,972.81 1401.14,85.7097 1624,187.831 1846.86,443.73 2069.72,1170.79 2292.58,161.934 
  
  "/>
<path clip-path="url(#clip4000)" d="
M1989.74 251.724 L2280.76 251.724 L2280.76 130.764 L1989.74 130.764  Z
  " fill="#ffffff" fill-rule="evenodd" fill-opacity="1"/>
<polyline clip-path="url(#clip4000)" style="stroke:#000000; stroke-width:4; stroke-opacity:1; fill:none" points="
  1989.74,251.724 2280.76,251.724 2280.76,130.764 1989.74,130.764 1989.74,251.724 
  "/>
<polyline clip-path="url(#clip4000)" style="stroke:#009af9; stroke-width:4; stroke-opacity:1; fill:none" points="
  2013.74,191.244 2157.74,191.244 
  "/>
<path clip-path="url(#clip4000)" d="M 0 0 M2195.58 210.931 Q2193.77 215.561 2192.06 216.973 Q2190.35 218.385 2187.48 218.385 L2184.08 218.385 L2184.08 214.82 L2186.58 214.82 Q2188.33 214.82 2189.31 213.987 Q2190.28 213.154 2191.46 210.052 L2192.22 208.107 L2181.74 182.598 L2186.25 182.598 L2194.35 202.876 L2202.46 182.598 L2206.97 182.598 L2195.58 210.931 Z" fill="#000000" fill-rule="evenodd" fill-opacity="1" /><path clip-path="url(#clip4000)" d="M 0 0 M2212.85 204.589 L2220.49 204.589 L2220.49 178.223 L2212.18 179.89 L2212.18 175.631 L2220.44 173.964 L2225.12 173.964 L2225.12 204.589 L2232.76 204.589 L2232.76 208.524 L2212.85 208.524 L2212.85 204.589 Z" fill="#000000" fill-rule="evenodd" fill-opacity="1" /></svg>
