<?xml version="1.0" encoding="utf-8"?>
<svg xmlns="http://www.w3.org/2000/svg" xmlns:xlink="http://www.w3.org/1999/xlink" width="600" height="400" viewBox="0 0 2400 1600">
<defs>
  <clipPath id="clip0700">
    <rect x="0" y="0" width="2400" height="1600"/>
  </clipPath>
</defs>
<path clip-path="url(#clip0700)" d="
M0 1600 L2400 1600 L2400 0 L0 0  Z
  " fill="#ffffff" fill-rule="evenodd" fill-opacity="1"/>
<defs>
  <clipPath id="clip0701">
    <rect x="480" y="0" width="1681" height="1600"/>
  </clipPath>
</defs>
<path clip-path="url(#clip0700)" d="
M226.671 1406.36 L2352.76 1406.36 L2352.76 47.2441 L226.671 47.2441  Z
  " fill="#ffffff" fill-rule="evenodd" fill-opacity="1"/>
<defs>
  <clipPath id="clip0702">
    <rect x="226" y="47" width="2127" height="1360"/>
  </clipPath>
</defs>
<polyline clip-path="url(#clip0702)" style="stroke:#000000; stroke-width:2; stroke-opacity:0.1; fill:none" points="
  509.703,1406.36 509.703,47.2441 
  "/>
<polyline clip-path="url(#clip0702)" style="stroke:#000000; stroke-width:2; stroke-opacity:0.1; fill:none" points="
  955.423,1406.36 955.423,47.2441 
  "/>
<polyline clip-path="url(#clip0702)" style="stroke:#000000; stroke-width:2; stroke-opacity:0.1; fill:none" points="
  1401.14,1406.36 1401.14,47.2441 
  "/>
<polyline clip-path="url(#clip0702)" style="stroke:#000000; stroke-width:2; stroke-opacity:0.1; fill:none" points="
  1846.86,1406.36 1846.86,47.2441 
  "/>
<polyline clip-path="url(#clip0702)" style="stroke:#000000; stroke-width:2; stroke-opacity:0.1; fill:none" points="
  2292.58,1406.36 2292.58,47.2441 
  "/>
<polyline clip-path="url(#clip0702)" style="stroke:#000000; stroke-width:2; stroke-opacity:0.1; fill:none" points="
  226.671,1164.26 2352.76,1164.26 
  "/>
<polyline clip-path="url(#clip0702)" style="stroke:#000000; stroke-width:2; stroke-opacity:0.1; fill:none" points="
  226.671,894.385 2352.76,894.385 
  "/>
<polyline clip-path="url(#clip0702)" style="stroke:#000000; stroke-width:2; stroke-opacity:0.1; fill:none" points="
  226.671,624.506 2352.76,624.506 
  "/>
<polyline clip-path="url(#clip0702)" style="stroke:#000000; stroke-width:2; stroke-opacity:0.1; fill:none" points="
  226.671,354.627 2352.76,354.627 
  "/>
<polyline clip-path="url(#clip0702)" style="stroke:#000000; stroke-width:2; stroke-opacity:0.1; fill:none" points="
  226.671,84.7487 2352.76,84.7487 
  "/>
<polyline clip-path="url(#clip0700)" style="stroke:#000000; stroke-width:4; stroke-opacity:1; fill:none" points="
  226.671,1406.36 2352.76,1406.36 
  "/>
<polyline clip-path="url(#clip0700)" style="stroke:#000000; stroke-width:4; stroke-opacity:1; fill:none" points="
  226.671,1406.36 226.671,47.2441 
  "/>
<polyline clip-path="url(#clip0700)" style="stroke:#000000; stroke-width:4; stroke-opacity:1; fill:none" points="
  509.703,1406.36 509.703,1390.05 
  "/>
<polyline clip-path="url(#clip0700)" style="stroke:#000000; stroke-width:4; stroke-opacity:1; fill:none" points="
  955.423,1406.36 955.423,1390.05 
  "/>
<polyline clip-path="url(#clip0700)" style="stroke:#000000; stroke-width:4; stroke-opacity:1; fill:none" points="
  1401.14,1406.36 1401.14,1390.05 
  "/>
<polyline clip-path="url(#clip0700)" style="stroke:#000000; stroke-width:4; stroke-opacity:1; fill:none" points="
  1846.86,1406.36 1846.86,1390.05 
  "/>
<polyline clip-path="url(#clip0700)" style="stroke:#000000; stroke-width:4; stroke-opacity:1; fill:none" points="
  2292.58,1406.36 2292.58,1390.05 
  "/>
<polyline clip-path="url(#clip0700)" style="stroke:#000000; stroke-width:4; stroke-opacity:1; fill:none" points="
  226.671,1164.26 252.184,1164.26 
  "/>
<polyline clip-path="url(#clip0700)" style="stroke:#000000; stroke-width:4; stroke-opacity:1; fill:none" points="
  226.671,894.385 252.184,894.385 
  "/>
<polyline clip-path="url(#clip0700)" style="stroke:#000000; stroke-width:4; stroke-opacity:1; fill:none" points="
  226.671,624.506 252.184,624.506 
  "/>
<polyline clip-path="url(#clip0700)" style="stroke:#000000; stroke-width:4; stroke-opacity:1; fill:none" points="
  226.671,354.627 252.184,354.627 
  "/>
<polyline clip-path="url(#clip0700)" style="stroke:#000000; stroke-width:4; stroke-opacity:1; fill:none" points="
  226.671,84.7487 252.184,84.7487 
  "/>
<path clip-path="url(#clip0700)" d="M 0 0 M504.356 1455.9 L520.675 1455.9 L520.675 1459.83 L498.731 1459.83 L498.731 1455.9 Q501.393 1453.14 505.976 1448.51 Q510.583 1443.86 511.763 1442.52 Q514.009 1440 514.888 1438.26 Q515.791 1436.5 515.791 1434.81 Q515.791 1432.06 513.846 1430.32 Q511.925 1428.58 508.823 1428.58 Q506.624 1428.58 504.171 1429.35 Q501.74 1430.11 498.962 1431.66 L498.962 1426.94 Q501.786 1425.81 504.24 1425.23 Q506.694 1424.65 508.731 1424.65 Q514.101 1424.65 517.296 1427.33 Q520.49 1430.02 520.49 1434.51 Q520.49 1436.64 519.68 1438.56 Q518.893 1440.46 516.786 1443.05 Q516.208 1443.72 513.106 1446.94 Q510.004 1450.13 504.356 1455.9 Z" fill="#000000" fill-rule="evenodd" fill-opacity="1" /><path clip-path="url(#clip0700)" d="M 0 0 M958.432 1429.35 L946.627 1447.8 L958.432 1447.8 L958.432 1429.35 M957.206 1425.27 L963.085 1425.27 L963.085 1447.8 L968.016 1447.8 L968.016 1451.68 L963.085 1451.68 L963.085 1459.83 L958.432 1459.83 L958.432 1451.68 L942.831 1451.68 L942.831 1447.17 L957.206 1425.27 Z" fill="#000000" fill-rule="evenodd" fill-opacity="1" /><path clip-path="url(#clip0700)" d="M 0 0 M1401.55 1440.69 Q1398.4 1440.69 1396.55 1442.84 Q1394.72 1445 1394.72 1448.75 Q1394.72 1452.47 1396.55 1454.65 Q1398.4 1456.8 1401.55 1456.8 Q1404.7 1456.8 1406.53 1454.65 Q1408.38 1452.47 1408.38 1448.75 Q1408.38 1445 1406.53 1442.84 Q1404.7 1440.69 1401.55 1440.69 M1410.83 1426.04 L1410.83 1430.3 Q1409.07 1429.46 1407.27 1429.02 Q1405.48 1428.58 1403.72 1428.58 Q1399.09 1428.58 1396.64 1431.71 Q1394.21 1434.83 1393.86 1441.15 Q1395.23 1439.14 1397.29 1438.07 Q1399.35 1436.99 1401.83 1436.99 Q1407.03 1436.99 1410.04 1440.16 Q1413.08 1443.31 1413.08 1448.75 Q1413.08 1454.07 1409.93 1457.29 Q1406.78 1460.5 1401.55 1460.5 Q1395.55 1460.5 1392.38 1455.92 Q1389.21 1451.31 1389.21 1442.59 Q1389.21 1434.39 1393.1 1429.53 Q1396.99 1424.65 1403.54 1424.65 Q1405.3 1424.65 1407.08 1425 Q1408.89 1425.34 1410.83 1426.04 Z" fill="#000000" fill-rule="evenodd" fill-opacity="1" /><path clip-path="url(#clip0700)" d="M 0 0 M1846.86 1443.42 Q1843.53 1443.42 1841.61 1445.2 Q1839.71 1446.99 1839.71 1450.11 Q1839.71 1453.24 1841.61 1455.02 Q1843.53 1456.8 1846.86 1456.8 Q1850.2 1456.8 1852.12 1455.02 Q1854.04 1453.21 1854.04 1450.11 Q1854.04 1446.99 1852.12 1445.2 Q1850.22 1443.42 1846.86 1443.42 M1842.19 1441.43 Q1839.18 1440.69 1837.49 1438.63 Q1835.82 1436.57 1835.82 1433.61 Q1835.82 1429.46 1838.76 1427.06 Q1841.72 1424.65 1846.86 1424.65 Q1852.03 1424.65 1854.97 1427.06 Q1857.91 1429.46 1857.91 1433.61 Q1857.91 1436.57 1856.22 1438.63 Q1854.55 1440.69 1851.56 1441.43 Q1854.94 1442.22 1856.82 1444.51 Q1858.72 1446.8 1858.72 1450.11 Q1858.72 1455.13 1855.64 1457.82 Q1852.58 1460.5 1846.86 1460.5 Q1841.15 1460.5 1838.07 1457.82 Q1835.01 1455.13 1835.01 1450.11 Q1835.01 1446.8 1836.91 1444.51 Q1838.81 1442.22 1842.19 1441.43 M1840.47 1434.05 Q1840.47 1436.73 1842.14 1438.24 Q1843.83 1439.74 1846.86 1439.74 Q1849.87 1439.74 1851.56 1438.24 Q1853.28 1436.73 1853.28 1434.05 Q1853.28 1431.36 1851.56 1429.86 Q1849.87 1428.35 1846.86 1428.35 Q1843.83 1428.35 1842.14 1429.86 Q1840.47 1431.36 1840.47 1434.05 Z" fill="#000000" fill-rule="evenodd" fill-opacity="1" /><path clip-path="url(#clip0700)" d="M 0 0 M2269.46 1455.9 L2277.1 1455.9 L2277.1 1429.53 L2268.79 1431.2 L2268.79 1426.94 L2277.05 1425.27 L2281.73 1425.27 L2281.73 1455.9 L2289.37 1455.9 L2289.37 1459.83 L2269.46 1459.83 L2269.46 1455.9 Z" fill="#000000" fill-rule="evenodd" fill-opacity="1" /><path clip-path="url(#clip0700)" d="M 0 0 M2304.44 1428.35 Q2300.82 1428.35 2299 1431.92 Q2297.19 1435.46 2297.19 1442.59 Q2297.19 1449.69 2299 1453.26 Q2300.82 1456.8 2304.44 1456.8 Q2308.07 1456.8 2309.88 1453.26 Q2311.7 1449.69 2311.7 1442.59 Q2311.7 1435.46 2309.88 1431.92 Q2308.07 1428.35 2304.44 1428.35 M2304.44 1424.65 Q2310.25 1424.65 2313.3 1429.25 Q2316.38 1433.84 2316.38 1442.59 Q2316.38 1451.31 2313.3 1455.92 Q2310.25 1460.5 2304.44 1460.5 Q2298.63 1460.5 2295.55 1455.92 Q2292.49 1451.31 2292.49 1442.59 Q2292.49 1433.84 2295.55 1429.25 Q2298.63 1424.65 2304.44 1424.65 Z" fill="#000000" fill-rule="evenodd" fill-opacity="1" /><path clip-path="url(#clip0700)" d="M 0 0 M155.356 1150.06 Q151.745 1150.06 149.916 1153.63 Q148.111 1157.17 148.111 1164.3 Q148.111 1171.4 149.916 1174.97 Q151.745 1178.51 155.356 1178.51 Q158.99 1178.51 160.796 1174.97 Q162.625 1171.4 162.625 1164.3 Q162.625 1157.17 160.796 1153.63 Q158.99 1150.06 155.356 1150.06 M155.356 1146.36 Q161.166 1146.36 164.222 1150.97 Q167.3 1155.55 167.3 1164.3 Q167.3 1173.03 164.222 1177.63 Q161.166 1182.22 155.356 1182.22 Q149.546 1182.22 146.467 1177.63 Q143.412 1173.03 143.412 1164.3 Q143.412 1155.55 146.467 1150.97 Q149.546 1146.36 155.356 1146.36 Z" fill="#000000" fill-rule="evenodd" fill-opacity="1" /><path clip-path="url(#clip0700)" d="M 0 0 M172.37 1175.66 L177.254 1175.66 L177.254 1181.54 L172.37 1181.54 L172.37 1175.66 Z" fill="#000000" fill-rule="evenodd" fill-opacity="1" /><path clip-path="url(#clip0700)" d="M 0 0 M186.351 1177.61 L202.671 1177.61 L202.671 1181.54 L180.726 1181.54 L180.726 1177.61 Q183.388 1174.85 187.972 1170.22 Q192.578 1165.57 193.759 1164.23 Q196.004 1161.71 196.884 1159.97 Q197.786 1158.21 197.786 1156.52 Q197.786 1153.77 195.842 1152.03 Q193.921 1150.29 190.819 1150.29 Q188.62 1150.29 186.166 1151.06 Q183.736 1151.82 180.958 1153.37 L180.958 1148.65 Q183.782 1147.52 186.236 1146.94 Q188.689 1146.36 190.726 1146.36 Q196.097 1146.36 199.291 1149.04 Q202.485 1151.73 202.485 1156.22 Q202.485 1158.35 201.675 1160.27 Q200.888 1162.17 198.782 1164.76 Q198.203 1165.43 195.101 1168.65 Q191.999 1171.84 186.351 1177.61 Z" fill="#000000" fill-rule="evenodd" fill-opacity="1" /><path clip-path="url(#clip0700)" d="M 0 0 M153.273 880.184 Q149.662 880.184 147.833 883.749 Q146.027 887.29 146.027 894.42 Q146.027 901.526 147.833 905.091 Q149.662 908.633 153.273 908.633 Q156.907 908.633 158.713 905.091 Q160.541 901.526 160.541 894.42 Q160.541 887.29 158.713 883.749 Q156.907 880.184 153.273 880.184 M153.273 876.48 Q159.083 876.48 162.138 881.086 Q165.217 885.67 165.217 894.42 Q165.217 903.147 162.138 907.753 Q159.083 912.336 153.273 912.336 Q147.463 912.336 144.384 907.753 Q141.328 903.147 141.328 894.42 Q141.328 885.67 144.384 881.086 Q147.463 876.48 153.273 876.48 Z" fill="#000000" fill-rule="evenodd" fill-opacity="1" /><path clip-path="url(#clip0700)" d="M 0 0 M170.287 905.785 L175.171 905.785 L175.171 911.665 L170.287 911.665 L170.287 905.785 Z" fill="#000000" fill-rule="evenodd" fill-opacity="1" /><path clip-path="url(#clip0700)" d="M 0 0 M193.087 881.179 L181.282 899.628 L193.087 899.628 L193.087 881.179 M191.861 877.105 L197.74 877.105 L197.74 899.628 L202.671 899.628 L202.671 903.517 L197.74 903.517 L197.74 911.665 L193.087 911.665 L193.087 903.517 L177.486 903.517 L177.486 899.003 L191.861 877.105 Z" fill="#000000" fill-rule="evenodd" fill-opacity="1" /><path clip-path="url(#clip0700)" d="M 0 0 M153.597 610.305 Q149.986 610.305 148.157 613.87 Q146.352 617.411 146.352 624.541 Q146.352 631.647 148.157 635.212 Q149.986 638.754 153.597 638.754 Q157.231 638.754 159.037 635.212 Q160.865 631.647 160.865 624.541 Q160.865 617.411 159.037 613.87 Q157.231 610.305 153.597 610.305 M153.597 606.601 Q159.407 606.601 162.463 611.208 Q165.541 615.791 165.541 624.541 Q165.541 633.268 162.463 637.874 Q159.407 642.458 153.597 642.458 Q147.787 642.458 144.708 637.874 Q141.652 633.268 141.652 624.541 Q141.652 615.791 144.708 611.208 Q147.787 606.601 153.597 606.601 Z" fill="#000000" fill-rule="evenodd" fill-opacity="1" /><path clip-path="url(#clip0700)" d="M 0 0 M170.611 635.907 L175.495 635.907 L175.495 641.786 L170.611 641.786 L170.611 635.907 Z" fill="#000000" fill-rule="evenodd" fill-opacity="1" /><path clip-path="url(#clip0700)" d="M 0 0 M191.143 622.643 Q187.995 622.643 186.143 624.796 Q184.314 626.948 184.314 630.698 Q184.314 634.425 186.143 636.601 Q187.995 638.754 191.143 638.754 Q194.291 638.754 196.12 636.601 Q197.972 634.425 197.972 630.698 Q197.972 626.948 196.12 624.796 Q194.291 622.643 191.143 622.643 M200.425 607.99 L200.425 612.249 Q198.666 611.416 196.861 610.976 Q195.078 610.536 193.319 610.536 Q188.689 610.536 186.236 613.661 Q183.805 616.786 183.458 623.106 Q184.824 621.092 186.884 620.027 Q188.944 618.939 191.421 618.939 Q196.629 618.939 199.638 622.11 Q202.671 625.259 202.671 630.698 Q202.671 636.022 199.523 639.24 Q196.374 642.458 191.143 642.458 Q185.148 642.458 181.976 637.874 Q178.805 633.268 178.805 624.541 Q178.805 616.347 182.694 611.485 Q186.583 606.601 193.134 606.601 Q194.893 606.601 196.675 606.948 Q198.481 607.296 200.425 607.99 Z" fill="#000000" fill-rule="evenodd" fill-opacity="1" /><path clip-path="url(#clip0700)" d="M 0 0 M153.851 340.426 Q150.24 340.426 148.412 343.991 Q146.606 347.533 146.606 354.662 Q146.606 361.769 148.412 365.333 Q150.24 368.875 153.851 368.875 Q157.486 368.875 159.291 365.333 Q161.12 361.769 161.12 354.662 Q161.12 347.533 159.291 343.991 Q157.486 340.426 153.851 340.426 M153.851 336.722 Q159.662 336.722 162.717 341.329 Q165.796 345.912 165.796 354.662 Q165.796 363.389 162.717 367.995 Q159.662 372.579 153.851 372.579 Q148.041 372.579 144.963 367.995 Q141.907 363.389 141.907 354.662 Q141.907 345.912 144.963 341.329 Q148.041 336.722 153.851 336.722 Z" fill="#000000" fill-rule="evenodd" fill-opacity="1" /><path clip-path="url(#clip0700)" d="M 0 0 M170.865 366.028 L175.75 366.028 L175.75 371.907 L170.865 371.907 L170.865 366.028 Z" fill="#000000" fill-rule="evenodd" fill-opacity="1" /><path clip-path="url(#clip0700)" d="M 0 0 M190.819 355.496 Q187.486 355.496 185.564 357.278 Q183.666 359.06 183.666 362.185 Q183.666 365.31 185.564 367.093 Q187.486 368.875 190.819 368.875 Q194.152 368.875 196.073 367.093 Q197.995 365.287 197.995 362.185 Q197.995 359.06 196.073 357.278 Q194.175 355.496 190.819 355.496 M186.143 353.505 Q183.134 352.764 181.444 350.704 Q179.777 348.644 179.777 345.681 Q179.777 341.537 182.717 339.13 Q185.68 336.722 190.819 336.722 Q195.981 336.722 198.921 339.13 Q201.86 341.537 201.86 345.681 Q201.86 348.644 200.171 350.704 Q198.504 352.764 195.518 353.505 Q198.898 354.292 200.773 356.583 Q202.671 358.875 202.671 362.185 Q202.671 367.208 199.592 369.894 Q196.536 372.579 190.819 372.579 Q185.101 372.579 182.023 369.894 Q178.967 367.208 178.967 362.185 Q178.967 358.875 180.865 356.583 Q182.763 354.292 186.143 353.505 M184.43 346.121 Q184.43 348.806 186.097 350.31 Q187.786 351.815 190.819 351.815 Q193.828 351.815 195.518 350.31 Q197.231 348.806 197.231 346.121 Q197.231 343.435 195.518 341.931 Q193.828 340.426 190.819 340.426 Q187.786 340.426 186.097 341.931 Q184.43 343.435 184.43 346.121 Z" fill="#000000" fill-rule="evenodd" fill-opacity="1" /><path clip-path="url(#clip0700)" d="M 0 0 M145.796 98.0935 L153.435 98.0935 L153.435 71.7279 L145.125 73.3946 L145.125 69.1354 L153.389 67.4687 L158.064 67.4687 L158.064 98.0935 L165.703 98.0935 L165.703 102.029 L145.796 102.029 L145.796 98.0935 Z" fill="#000000" fill-rule="evenodd" fill-opacity="1" /><path clip-path="url(#clip0700)" d="M 0 0 M170.773 96.1491 L175.657 96.1491 L175.657 102.029 L170.773 102.029 L170.773 96.1491 Z" fill="#000000" fill-rule="evenodd" fill-opacity="1" /><path clip-path="url(#clip0700)" d="M 0 0 M190.726 70.5474 Q187.115 70.5474 185.286 74.1122 Q183.481 77.6538 183.481 84.7834 Q183.481 91.8899 185.286 95.4547 Q187.115 98.9963 190.726 98.9963 Q194.361 98.9963 196.166 95.4547 Q197.995 91.8899 197.995 84.7834 Q197.995 77.6538 196.166 74.1122 Q194.361 70.5474 190.726 70.5474 M190.726 66.8437 Q196.536 66.8437 199.592 71.4502 Q202.671 76.0335 202.671 84.7834 Q202.671 93.5102 199.592 98.1167 Q196.536 102.7 190.726 102.7 Q184.916 102.7 181.837 98.1167 Q178.782 93.5102 178.782 84.7834 Q178.782 76.0335 181.837 71.4502 Q184.916 66.8437 190.726 66.8437 Z" fill="#000000" fill-rule="evenodd" fill-opacity="1" /><path clip-path="url(#clip0700)" d="M 0 0 M1303.87 1486.67 Q1303.87 1488.47 1302.75 1489.5 Q1301.62 1490.5 1300.33 1490.5 Q1299.11 1490.5 1298.46 1489.79 Q1297.82 1489.08 1297.82 1488.18 Q1297.82 1486.96 1298.72 1485.9 Q1299.62 1484.83 1300.97 1484.61 Q1299.65 1483.77 1297.69 1483.77 Q1296.4 1483.77 1295.27 1484.45 Q1294.18 1485.12 1293.5 1485.99 Q1292.86 1486.86 1292.28 1488.12 Q1291.73 1489.34 1291.51 1490.08 Q1291.31 1490.79 1291.15 1491.56 L1288.9 1500.58 Q1287.8 1504.86 1287.8 1506.38 Q1287.8 1508.25 1288.7 1509.5 Q1289.61 1510.73 1291.41 1510.73 Q1292.12 1510.73 1292.92 1510.53 Q1293.73 1510.31 1294.76 1509.73 Q1295.82 1509.12 1296.76 1508.21 Q1297.72 1507.28 1298.66 1505.7 Q1299.59 1504.12 1300.2 1502.09 Q1300.4 1501.39 1301.04 1501.39 Q1301.84 1501.39 1301.84 1502.03 Q1301.84 1502.58 1301.39 1503.74 Q1300.97 1504.86 1300.04 1506.35 Q1299.14 1507.8 1297.95 1509.12 Q1296.76 1510.4 1294.98 1511.31 Q1293.21 1512.21 1291.28 1512.21 Q1288.51 1512.21 1286.68 1510.73 Q1284.84 1509.24 1284.16 1507.18 Q1284 1507.47 1283.78 1507.86 Q1283.55 1508.25 1282.88 1509.12 Q1282.23 1509.95 1281.49 1510.6 Q1280.75 1511.21 1279.59 1511.69 Q1278.46 1512.21 1277.24 1512.21 Q1275.69 1512.21 1274.31 1511.76 Q1272.96 1511.31 1271.99 1510.28 Q1271.02 1509.24 1271.02 1507.83 Q1271.02 1506.25 1272.09 1505.15 Q1273.18 1504.03 1274.66 1504.03 Q1275.6 1504.03 1276.34 1504.57 Q1277.11 1505.12 1277.11 1506.31 Q1277.11 1507.63 1276.21 1508.63 Q1275.31 1509.63 1274.02 1509.89 Q1275.34 1510.73 1277.3 1510.73 Q1279.43 1510.73 1281.1 1508.86 Q1282.78 1506.99 1283.58 1503.87 Q1285.58 1496.36 1286.35 1493.01 Q1287.13 1489.63 1287.13 1488.18 Q1287.13 1486.83 1286.77 1485.9 Q1286.42 1484.96 1285.81 1484.54 Q1285.23 1484.09 1284.68 1483.93 Q1284.16 1483.77 1283.58 1483.77 Q1282.62 1483.77 1281.52 1484.16 Q1280.46 1484.54 1279.17 1485.44 Q1277.92 1486.31 1276.72 1488.12 Q1275.53 1489.92 1274.73 1492.4 Q1274.57 1493.14 1273.86 1493.14 Q1273.08 1493.11 1273.08 1492.47 Q1273.08 1491.92 1273.5 1490.79 Q1273.95 1489.63 1274.86 1488.18 Q1275.79 1486.73 1276.98 1485.44 Q1278.21 1484.12 1279.98 1483.22 Q1281.78 1482.32 1283.71 1482.32 Q1284.58 1482.32 1285.42 1482.51 Q1286.29 1482.67 1287.32 1483.16 Q1288.38 1483.64 1289.32 1484.7 Q1290.25 1485.77 1290.83 1487.31 Q1291.22 1486.57 1291.73 1485.86 Q1292.28 1485.15 1293.12 1484.28 Q1293.99 1483.38 1295.18 1482.87 Q1296.4 1482.32 1297.75 1482.32 Q1299.07 1482.32 1300.36 1482.67 Q1301.65 1483 1302.75 1484.06 Q1303.87 1485.09 1303.87 1486.67 Z" fill="#000000" fill-rule="evenodd" fill-opacity="1" /><path clip-path="url(#clip0700)" d="M 0 0 M76.4129 712.377 Q76.8638 712.377 77.9266 712.666 L103.112 718.979 Q108.715 720.364 112.644 724.872 Q116.574 729.349 116.574 734.438 Q116.574 737.497 114.931 739.462 Q113.321 741.426 110.841 741.426 Q108.651 741.426 107.588 740.267 Q106.558 739.107 106.558 737.723 Q106.558 737.272 106.686 736.789 Q106.815 736.306 107.363 735.79 Q107.91 735.275 108.844 735.275 Q110.358 735.275 111.549 736.595 Q112.097 737.24 112.226 737.851 Q112.355 738.431 112.355 739.43 Q113.256 739.043 113.868 738.335 Q114.48 737.626 114.706 736.821 Q114.963 736.016 115.028 735.5 Q115.124 734.953 115.124 734.438 Q115.124 730.315 110.97 727.159 Q109.714 726.225 108.458 725.549 Q107.234 724.84 105.72 724.325 Q104.239 723.81 103.434 723.584 Q102.628 723.327 100.793 722.876 Q103.788 725.871 103.788 729.542 Q103.788 731.088 103.369 732.473 Q102.951 733.826 102.081 735.017 Q101.179 736.209 99.6011 736.917 Q98.023 737.594 95.9296 737.594 Q93.7074 737.594 90.6801 736.724 Q87.6527 735.855 82.0811 733.761 Q78.9572 732.634 77.4435 732.634 Q76.7027 732.634 76.2519 732.795 Q75.7688 732.956 75.6077 733.278 Q75.4145 733.6 75.3823 733.793 Q75.3501 733.955 75.3501 734.277 Q75.3501 736.177 77.2825 737.948 Q79.2148 739.719 83.5304 740.943 Q84.3355 741.201 84.5288 741.362 Q84.722 741.523 84.722 742.006 Q84.6898 742.811 84.0457 742.811 Q83.788 742.811 82.7897 742.521 Q81.7591 742.231 80.2454 741.555 Q78.6995 740.847 77.3147 739.88 Q75.8976 738.914 74.8992 737.401 Q73.9008 735.855 73.9008 734.083 Q73.9008 731.668 75.4789 730.186 Q77.0248 728.673 79.3114 728.673 Q80.2454 728.673 81.0827 728.93 Q81.8879 729.156 84.0457 729.993 Q92.7413 733.375 96.9924 733.375 Q98.023 733.375 98.8926 733.214 Q99.7299 733.021 100.567 732.602 Q101.372 732.183 101.856 731.346 Q102.306 730.476 102.306 729.285 Q102.306 727.771 101.598 726.354 Q100.857 724.905 99.8588 724.003 Q98.8604 723.069 98.023 722.521 Q97.1535 721.942 96.7026 721.813 L84.8508 718.85 L79.5691 717.53 Q76.7027 716.918 75.9942 716.628 Q75.3179 716.241 74.9636 715.565 Q74.6094 714.889 74.6094 714.309 Q74.6094 713.504 75.0925 712.956 Q75.5755 712.377 76.4129 712.377 Z" fill="#000000" fill-rule="evenodd" fill-opacity="1" /><polyline clip-path="url(#clip0702)" style="stroke:#009af9; stroke-width:4; stroke-opacity:1; fill:none" points="
  286.843,470.495 509.703,622.279 732.563,85.7097 955.423,803.829 1178.28,619.758 1401.14,1367.9 1624,664.907 1846.86,1199.01 2069.72,876.246 2292.58,242.772 
  
  "/>
<path clip-path="url(#clip0700)" d="
M1989.74 251.724 L2280.76 251.724 L2280.76 130.764 L1989.74 130.764  Z
  " fill="#ffffff" fill-rule="evenodd" fill-opacity="1"/>
<polyline clip-path="url(#clip0700)" style="stroke:#000000; stroke-width:4; stroke-opacity:1; fill:none" points="
  1989.74,251.724 2280.76,251.724 2280.76,130.764 1989.74,130.764 1989.74,251.724 
  "/>
<polyline clip-path="url(#clip0700)" style="stroke:#009af9; stroke-width:4; stroke-opacity:1; fill:none" points="
  2013.74,191.244 2157.74,191.244 
  "/>
<path clip-path="url(#clip0700)" d="M 0 0 M2195.58 210.931 Q2193.77 215.561 2192.06 216.973 Q2190.35 218.385 2187.48 218.385 L2184.08 218.385 L2184.08 214.82 L2186.58 214.82 Q2188.33 214.82 2189.31 213.987 Q2190.28 213.154 2191.46 210.052 L2192.22 208.107 L2181.74 182.598 L2186.25 182.598 L2194.35 202.876 L2202.46 182.598 L2206.97 182.598 L2195.58 210.931 Z" fill="#000000" fill-rule="evenodd" fill-opacity="1" /><path clip-path="url(#clip0700)" d="M 0 0 M2212.85 204.589 L2220.49 204.589 L2220.49 178.223 L2212.18 179.89 L2212.18 175.631 L2220.44 173.964 L2225.12 173.964 L2225.12 204.589 L2232.76 204.589 L2232.76 208.524 L2212.85 208.524 L2212.85 204.589 Z" fill="#000000" fill-rule="evenodd" fill-opacity="1" /></svg>
