<?xml version="1.0" encoding="utf-8"?>
<svg xmlns="http://www.w3.org/2000/svg" xmlns:xlink="http://www.w3.org/1999/xlink" width="600" height="400" viewBox="0 0 2400 1600">
<defs>
  <clipPath id="clip460">
    <rect x="0" y="0" width="2400" height="1600"/>
  </clipPath>
</defs>
<path clip-path="url(#clip460)" d="
M0 1600 L2400 1600 L2400 0 L0 0  Z
  " fill="#ffffff" fill-rule="evenodd" fill-opacity="1"/>
<defs>
  <clipPath id="clip461">
    <rect x="480" y="0" width="1681" height="1600"/>
  </clipPath>
</defs>
<path clip-path="url(#clip460)" d="
M211.141 1447.17 L2352.76 1447.17 L2352.76 47.2441 L211.141 47.2441  Z
  " fill="#ffffff" fill-rule="evenodd" fill-opacity="1"/>
<defs>
  <clipPath id="clip462">
    <rect x="211" y="47" width="2143" height="1401"/>
  </clipPath>
</defs>
<polyline clip-path="url(#clip462)" style="stroke:#000000; stroke-width:2; stroke-opacity:0.1; fill:none" points="
  496.241,1447.17 496.241,47.2441 
  "/>
<polyline clip-path="url(#clip462)" style="stroke:#000000; stroke-width:2; stroke-opacity:0.1; fill:none" points="
  945.217,1447.17 945.217,47.2441 
  "/>
<polyline clip-path="url(#clip462)" style="stroke:#000000; stroke-width:2; stroke-opacity:0.1; fill:none" points="
  1394.19,1447.17 1394.19,47.2441 
  "/>
<polyline clip-path="url(#clip462)" style="stroke:#000000; stroke-width:2; stroke-opacity:0.1; fill:none" points="
  1843.17,1447.17 1843.17,47.2441 
  "/>
<polyline clip-path="url(#clip462)" style="stroke:#000000; stroke-width:2; stroke-opacity:0.1; fill:none" points="
  2292.14,1447.17 2292.14,47.2441 
  "/>
<polyline clip-path="url(#clip462)" style="stroke:#000000; stroke-width:2; stroke-opacity:0.1; fill:none" points="
  211.141,1259.24 2352.76,1259.24 
  "/>
<polyline clip-path="url(#clip462)" style="stroke:#000000; stroke-width:2; stroke-opacity:0.1; fill:none" points="
  211.141,1062.58 2352.76,1062.58 
  "/>
<polyline clip-path="url(#clip462)" style="stroke:#000000; stroke-width:2; stroke-opacity:0.1; fill:none" points="
  211.141,865.927 2352.76,865.927 
  "/>
<polyline clip-path="url(#clip462)" style="stroke:#000000; stroke-width:2; stroke-opacity:0.1; fill:none" points="
  211.141,669.269 2352.76,669.269 
  "/>
<polyline clip-path="url(#clip462)" style="stroke:#000000; stroke-width:2; stroke-opacity:0.1; fill:none" points="
  211.141,472.61 2352.76,472.61 
  "/>
<polyline clip-path="url(#clip462)" style="stroke:#000000; stroke-width:2; stroke-opacity:0.1; fill:none" points="
  211.141,275.952 2352.76,275.952 
  "/>
<polyline clip-path="url(#clip462)" style="stroke:#000000; stroke-width:2; stroke-opacity:0.1; fill:none" points="
  211.141,79.2942 2352.76,79.2942 
  "/>
<polyline clip-path="url(#clip460)" style="stroke:#000000; stroke-width:4; stroke-opacity:1; fill:none" points="
  211.141,1447.17 2352.76,1447.17 
  "/>
<polyline clip-path="url(#clip460)" style="stroke:#000000; stroke-width:4; stroke-opacity:1; fill:none" points="
  211.141,1447.17 211.141,47.2441 
  "/>
<polyline clip-path="url(#clip460)" style="stroke:#000000; stroke-width:4; stroke-opacity:1; fill:none" points="
  496.241,1447.17 496.241,1430.37 
  "/>
<polyline clip-path="url(#clip460)" style="stroke:#000000; stroke-width:4; stroke-opacity:1; fill:none" points="
  945.217,1447.17 945.217,1430.37 
  "/>
<polyline clip-path="url(#clip460)" style="stroke:#000000; stroke-width:4; stroke-opacity:1; fill:none" points="
  1394.19,1447.17 1394.19,1430.37 
  "/>
<polyline clip-path="url(#clip460)" style="stroke:#000000; stroke-width:4; stroke-opacity:1; fill:none" points="
  1843.17,1447.17 1843.17,1430.37 
  "/>
<polyline clip-path="url(#clip460)" style="stroke:#000000; stroke-width:4; stroke-opacity:1; fill:none" points="
  2292.14,1447.17 2292.14,1430.37 
  "/>
<polyline clip-path="url(#clip460)" style="stroke:#000000; stroke-width:4; stroke-opacity:1; fill:none" points="
  211.141,1259.24 236.841,1259.24 
  "/>
<polyline clip-path="url(#clip460)" style="stroke:#000000; stroke-width:4; stroke-opacity:1; fill:none" points="
  211.141,1062.58 236.841,1062.58 
  "/>
<polyline clip-path="url(#clip460)" style="stroke:#000000; stroke-width:4; stroke-opacity:1; fill:none" points="
  211.141,865.927 236.841,865.927 
  "/>
<polyline clip-path="url(#clip460)" style="stroke:#000000; stroke-width:4; stroke-opacity:1; fill:none" points="
  211.141,669.269 236.841,669.269 
  "/>
<polyline clip-path="url(#clip460)" style="stroke:#000000; stroke-width:4; stroke-opacity:1; fill:none" points="
  211.141,472.61 236.841,472.61 
  "/>
<polyline clip-path="url(#clip460)" style="stroke:#000000; stroke-width:4; stroke-opacity:1; fill:none" points="
  211.141,275.952 236.841,275.952 
  "/>
<polyline clip-path="url(#clip460)" style="stroke:#000000; stroke-width:4; stroke-opacity:1; fill:none" points="
  211.141,79.2942 236.841,79.2942 
  "/>
<path clip-path="url(#clip460)" d="M 0 0 M490.894 1496.71 L507.213 1496.71 L507.213 1500.64 L485.269 1500.64 L485.269 1496.71 Q487.931 1493.95 492.514 1489.32 Q497.121 1484.67 498.301 1483.33 Q500.546 1480.8 501.426 1479.07 Q502.329 1477.31 502.329 1475.62 Q502.329 1472.86 500.384 1471.13 Q498.463 1469.39 495.361 1469.39 Q493.162 1469.39 490.709 1470.16 Q488.278 1470.92 485.5 1472.47 L485.5 1467.75 Q488.324 1466.61 490.778 1466.04 Q493.232 1465.46 495.269 1465.46 Q500.639 1465.46 503.833 1468.14 Q507.028 1470.83 507.028 1475.32 Q507.028 1477.45 506.218 1479.37 Q505.431 1481.27 503.324 1483.86 Q502.745 1484.53 499.644 1487.75 Q496.542 1490.94 490.894 1496.71 Z" fill="#000000" fill-rule="evenodd" fill-opacity="1" /><path clip-path="url(#clip460)" d="M 0 0 M948.226 1470.16 L936.42 1488.61 L948.226 1488.61 L948.226 1470.16 M946.999 1466.08 L952.879 1466.08 L952.879 1488.61 L957.809 1488.61 L957.809 1492.49 L952.879 1492.49 L952.879 1500.64 L948.226 1500.64 L948.226 1492.49 L932.624 1492.49 L932.624 1487.98 L946.999 1466.08 Z" fill="#000000" fill-rule="evenodd" fill-opacity="1" /><path clip-path="url(#clip460)" d="M 0 0 M1394.6 1481.5 Q1391.45 1481.5 1389.6 1483.65 Q1387.77 1485.8 1387.77 1489.55 Q1387.77 1493.28 1389.6 1495.46 Q1391.45 1497.61 1394.6 1497.61 Q1397.75 1497.61 1399.57 1495.46 Q1401.43 1493.28 1401.43 1489.55 Q1401.43 1485.8 1399.57 1483.65 Q1397.75 1481.5 1394.6 1481.5 M1403.88 1466.85 L1403.88 1471.11 Q1402.12 1470.27 1400.32 1469.83 Q1398.53 1469.39 1396.77 1469.39 Q1392.14 1469.39 1389.69 1472.52 Q1387.26 1475.64 1386.91 1481.96 Q1388.28 1479.95 1390.34 1478.88 Q1392.4 1477.8 1394.88 1477.8 Q1400.08 1477.8 1403.09 1480.97 Q1406.13 1484.11 1406.13 1489.55 Q1406.13 1494.88 1402.98 1498.1 Q1399.83 1501.31 1394.6 1501.31 Q1388.6 1501.31 1385.43 1496.73 Q1382.26 1492.12 1382.26 1483.4 Q1382.26 1475.2 1386.15 1470.34 Q1390.04 1465.46 1396.59 1465.46 Q1398.35 1465.46 1400.13 1465.8 Q1401.94 1466.15 1403.88 1466.85 Z" fill="#000000" fill-rule="evenodd" fill-opacity="1" /><path clip-path="url(#clip460)" d="M 0 0 M1843.17 1484.23 Q1839.84 1484.23 1837.91 1486.01 Q1836.02 1487.8 1836.02 1490.92 Q1836.02 1494.05 1837.91 1495.83 Q1839.84 1497.61 1843.17 1497.61 Q1846.5 1497.61 1848.42 1495.83 Q1850.34 1494.02 1850.34 1490.92 Q1850.34 1487.8 1848.42 1486.01 Q1846.52 1484.23 1843.17 1484.23 M1838.49 1482.24 Q1835.48 1481.5 1833.79 1479.44 Q1832.13 1477.38 1832.13 1474.42 Q1832.13 1470.27 1835.07 1467.86 Q1838.03 1465.46 1843.17 1465.46 Q1848.33 1465.46 1851.27 1467.86 Q1854.21 1470.27 1854.21 1474.42 Q1854.21 1477.38 1852.52 1479.44 Q1850.85 1481.5 1847.87 1482.24 Q1851.25 1483.03 1853.12 1485.32 Q1855.02 1487.61 1855.02 1490.92 Q1855.02 1495.94 1851.94 1498.63 Q1848.89 1501.31 1843.17 1501.31 Q1837.45 1501.31 1834.37 1498.63 Q1831.32 1495.94 1831.32 1490.92 Q1831.32 1487.61 1833.21 1485.32 Q1835.11 1483.03 1838.49 1482.24 M1836.78 1474.86 Q1836.78 1477.54 1838.45 1479.05 Q1840.14 1480.55 1843.17 1480.55 Q1846.18 1480.55 1847.87 1479.05 Q1849.58 1477.54 1849.58 1474.86 Q1849.58 1472.17 1847.87 1470.67 Q1846.18 1469.16 1843.17 1469.16 Q1840.14 1469.16 1838.45 1470.67 Q1836.78 1472.17 1836.78 1474.86 Z" fill="#000000" fill-rule="evenodd" fill-opacity="1" /><path clip-path="url(#clip460)" d="M 0 0 M2269.02 1496.71 L2276.66 1496.71 L2276.66 1470.34 L2268.35 1472.01 L2268.35 1467.75 L2276.61 1466.08 L2281.29 1466.08 L2281.29 1496.71 L2288.93 1496.71 L2288.93 1500.64 L2269.02 1500.64 L2269.02 1496.71 Z" fill="#000000" fill-rule="evenodd" fill-opacity="1" /><path clip-path="url(#clip460)" d="M 0 0 M2304 1469.16 Q2300.38 1469.16 2298.56 1472.73 Q2296.75 1476.27 2296.75 1483.4 Q2296.75 1490.5 2298.56 1494.07 Q2300.38 1497.61 2304 1497.61 Q2307.63 1497.61 2309.44 1494.07 Q2311.26 1490.5 2311.26 1483.4 Q2311.26 1476.27 2309.44 1472.73 Q2307.63 1469.16 2304 1469.16 M2304 1465.46 Q2309.81 1465.46 2312.86 1470.06 Q2315.94 1474.65 2315.94 1483.4 Q2315.94 1492.12 2312.86 1496.73 Q2309.81 1501.31 2304 1501.31 Q2298.19 1501.31 2295.11 1496.73 Q2292.05 1492.12 2292.05 1483.4 Q2292.05 1474.65 2295.11 1470.06 Q2298.19 1465.46 2304 1465.46 Z" fill="#000000" fill-rule="evenodd" fill-opacity="1" /><path clip-path="url(#clip460)" d="M 0 0 M139.827 1245.04 Q136.216 1245.04 134.387 1248.61 Q132.581 1252.15 132.581 1259.28 Q132.581 1266.38 134.387 1269.95 Q136.216 1273.49 139.827 1273.49 Q143.461 1273.49 145.266 1269.95 Q147.095 1266.38 147.095 1259.28 Q147.095 1252.15 145.266 1248.61 Q143.461 1245.04 139.827 1245.04 M139.827 1241.34 Q145.637 1241.34 148.692 1245.94 Q151.771 1250.53 151.771 1259.28 Q151.771 1268 148.692 1272.61 Q145.637 1277.19 139.827 1277.19 Q134.017 1277.19 130.938 1272.61 Q127.882 1268 127.882 1259.28 Q127.882 1250.53 130.938 1245.94 Q134.017 1241.34 139.827 1241.34 Z" fill="#000000" fill-rule="evenodd" fill-opacity="1" /><path clip-path="url(#clip460)" d="M 0 0 M156.84 1270.64 L161.725 1270.64 L161.725 1276.52 L156.84 1276.52 L156.84 1270.64 Z" fill="#000000" fill-rule="evenodd" fill-opacity="1" /><path clip-path="url(#clip460)" d="M 0 0 M170.822 1272.59 L187.141 1272.59 L187.141 1276.52 L165.197 1276.52 L165.197 1272.59 Q167.859 1269.83 172.442 1265.2 Q177.049 1260.55 178.229 1259.21 Q180.475 1256.69 181.354 1254.95 Q182.257 1253.19 182.257 1251.5 Q182.257 1248.75 180.313 1247.01 Q178.391 1245.27 175.289 1245.27 Q173.09 1245.27 170.637 1246.04 Q168.206 1246.8 165.428 1248.35 L165.428 1243.63 Q168.252 1242.5 170.706 1241.92 Q173.16 1241.34 175.197 1241.34 Q180.567 1241.34 183.762 1244.02 Q186.956 1246.71 186.956 1251.2 Q186.956 1253.33 186.146 1255.25 Q185.359 1257.15 183.252 1259.74 Q182.674 1260.41 179.572 1263.63 Q176.47 1266.82 170.822 1272.59 Z" fill="#000000" fill-rule="evenodd" fill-opacity="1" /><path clip-path="url(#clip460)" d="M 0 0 M138.878 1048.38 Q135.267 1048.38 133.438 1051.95 Q131.632 1055.49 131.632 1062.62 Q131.632 1069.73 133.438 1073.29 Q135.267 1076.83 138.878 1076.83 Q142.512 1076.83 144.317 1073.29 Q146.146 1069.73 146.146 1062.62 Q146.146 1055.49 144.317 1051.95 Q142.512 1048.38 138.878 1048.38 M138.878 1044.68 Q144.688 1044.68 147.743 1049.29 Q150.822 1053.87 150.822 1062.62 Q150.822 1071.35 147.743 1075.95 Q144.688 1080.54 138.878 1080.54 Q133.067 1080.54 129.989 1075.95 Q126.933 1071.35 126.933 1062.62 Q126.933 1053.87 129.989 1049.29 Q133.067 1044.68 138.878 1044.68 Z" fill="#000000" fill-rule="evenodd" fill-opacity="1" /><path clip-path="url(#clip460)" d="M 0 0 M155.891 1073.99 L160.776 1073.99 L160.776 1079.86 L155.891 1079.86 L155.891 1073.99 Z" fill="#000000" fill-rule="evenodd" fill-opacity="1" /><path clip-path="url(#clip460)" d="M 0 0 M180.012 1061.23 Q183.368 1061.95 185.243 1064.22 Q187.141 1066.49 187.141 1069.82 Q187.141 1074.93 183.623 1077.74 Q180.104 1080.54 173.623 1080.54 Q171.447 1080.54 169.132 1080.1 Q166.84 1079.68 164.387 1078.82 L164.387 1074.31 Q166.331 1075.44 168.646 1076.02 Q170.961 1076.6 173.484 1076.6 Q177.882 1076.6 180.174 1074.86 Q182.488 1073.13 182.488 1069.82 Q182.488 1066.76 180.336 1065.05 Q178.206 1063.31 174.387 1063.31 L170.359 1063.31 L170.359 1059.47 L174.572 1059.47 Q178.021 1059.47 179.85 1058.11 Q181.678 1056.72 181.678 1054.12 Q181.678 1051.46 179.78 1050.05 Q177.905 1048.61 174.387 1048.61 Q172.465 1048.61 170.266 1049.03 Q168.067 1049.45 165.428 1050.33 L165.428 1046.16 Q168.09 1045.42 170.405 1045.05 Q172.743 1044.68 174.803 1044.68 Q180.127 1044.68 183.229 1047.11 Q186.331 1049.52 186.331 1053.64 Q186.331 1056.51 184.688 1058.5 Q183.044 1060.47 180.012 1061.23 Z" fill="#000000" fill-rule="evenodd" fill-opacity="1" /><path clip-path="url(#clip460)" d="M 0 0 M137.743 851.725 Q134.132 851.725 132.304 855.29 Q130.498 858.832 130.498 865.961 Q130.498 873.068 132.304 876.633 Q134.132 880.174 137.743 880.174 Q141.378 880.174 143.183 876.633 Q145.012 873.068 145.012 865.961 Q145.012 858.832 143.183 855.29 Q141.378 851.725 137.743 851.725 M137.743 848.022 Q143.554 848.022 146.609 852.628 Q149.688 857.211 149.688 865.961 Q149.688 874.688 146.609 879.295 Q143.554 883.878 137.743 883.878 Q131.933 883.878 128.855 879.295 Q125.799 874.688 125.799 865.961 Q125.799 857.211 128.855 852.628 Q131.933 848.022 137.743 848.022 Z" fill="#000000" fill-rule="evenodd" fill-opacity="1" /><path clip-path="url(#clip460)" d="M 0 0 M154.757 877.327 L159.641 877.327 L159.641 883.207 L154.757 883.207 L154.757 877.327 Z" fill="#000000" fill-rule="evenodd" fill-opacity="1" /><path clip-path="url(#clip460)" d="M 0 0 M177.558 852.721 L165.752 871.17 L177.558 871.17 L177.558 852.721 M176.331 848.647 L182.211 848.647 L182.211 871.17 L187.141 871.17 L187.141 875.059 L182.211 875.059 L182.211 883.207 L177.558 883.207 L177.558 875.059 L161.956 875.059 L161.956 870.545 L176.331 848.647 Z" fill="#000000" fill-rule="evenodd" fill-opacity="1" /><path clip-path="url(#clip460)" d="M 0 0 M139.225 655.067 Q135.614 655.067 133.785 658.632 Q131.98 662.174 131.98 669.303 Q131.98 676.41 133.785 679.975 Q135.614 683.516 139.225 683.516 Q142.859 683.516 144.665 679.975 Q146.493 676.41 146.493 669.303 Q146.493 662.174 144.665 658.632 Q142.859 655.067 139.225 655.067 M139.225 651.364 Q145.035 651.364 148.091 655.97 Q151.169 660.553 151.169 669.303 Q151.169 678.03 148.091 682.637 Q145.035 687.22 139.225 687.22 Q133.415 687.22 130.336 682.637 Q127.28 678.03 127.28 669.303 Q127.28 660.553 130.336 655.97 Q133.415 651.364 139.225 651.364 Z" fill="#000000" fill-rule="evenodd" fill-opacity="1" /><path clip-path="url(#clip460)" d="M 0 0 M156.239 680.669 L161.123 680.669 L161.123 686.549 L156.239 686.549 L156.239 680.669 Z" fill="#000000" fill-rule="evenodd" fill-opacity="1" /><path clip-path="url(#clip460)" d="M 0 0 M166.239 651.989 L184.595 651.989 L184.595 655.924 L170.521 655.924 L170.521 664.396 Q171.539 664.049 172.558 663.887 Q173.577 663.701 174.595 663.701 Q180.382 663.701 183.762 666.873 Q187.141 670.044 187.141 675.461 Q187.141 681.039 183.669 684.141 Q180.197 687.22 173.877 687.22 Q171.702 687.22 169.433 686.85 Q167.188 686.479 164.78 685.738 L164.78 681.039 Q166.864 682.174 169.086 682.729 Q171.308 683.285 173.785 683.285 Q177.789 683.285 180.127 681.178 Q182.465 679.072 182.465 675.461 Q182.465 671.85 180.127 669.743 Q177.789 667.637 173.785 667.637 Q171.91 667.637 170.035 668.053 Q168.183 668.47 166.239 669.35 L166.239 651.989 Z" fill="#000000" fill-rule="evenodd" fill-opacity="1" /><path clip-path="url(#clip460)" d="M 0 0 M138.067 458.409 Q134.456 458.409 132.628 461.974 Q130.822 465.516 130.822 472.645 Q130.822 479.752 132.628 483.316 Q134.456 486.858 138.067 486.858 Q141.702 486.858 143.507 483.316 Q145.336 479.752 145.336 472.645 Q145.336 465.516 143.507 461.974 Q141.702 458.409 138.067 458.409 M138.067 454.705 Q143.878 454.705 146.933 459.312 Q150.012 463.895 150.012 472.645 Q150.012 481.372 146.933 485.978 Q143.878 490.562 138.067 490.562 Q132.257 490.562 129.179 485.978 Q126.123 481.372 126.123 472.645 Q126.123 463.895 129.179 459.312 Q132.257 454.705 138.067 454.705 Z" fill="#000000" fill-rule="evenodd" fill-opacity="1" /><path clip-path="url(#clip460)" d="M 0 0 M155.081 484.011 L159.965 484.011 L159.965 489.89 L155.081 489.89 L155.081 484.011 Z" fill="#000000" fill-rule="evenodd" fill-opacity="1" /><path clip-path="url(#clip460)" d="M 0 0 M175.614 470.747 Q172.465 470.747 170.614 472.9 Q168.785 475.053 168.785 478.803 Q168.785 482.529 170.614 484.705 Q172.465 486.858 175.614 486.858 Q178.762 486.858 180.59 484.705 Q182.442 482.529 182.442 478.803 Q182.442 475.053 180.59 472.9 Q178.762 470.747 175.614 470.747 M184.896 456.094 L184.896 460.354 Q183.137 459.52 181.331 459.08 Q179.549 458.641 177.789 458.641 Q173.16 458.641 170.706 461.766 Q168.276 464.891 167.928 471.21 Q169.294 469.196 171.354 468.131 Q173.414 467.043 175.891 467.043 Q181.1 467.043 184.109 470.215 Q187.141 473.363 187.141 478.803 Q187.141 484.127 183.993 487.344 Q180.845 490.562 175.614 490.562 Q169.618 490.562 166.447 485.978 Q163.276 481.372 163.276 472.645 Q163.276 464.451 167.165 459.59 Q171.053 454.705 177.604 454.705 Q179.364 454.705 181.146 455.053 Q182.951 455.4 184.896 456.094 Z" fill="#000000" fill-rule="evenodd" fill-opacity="1" /><path clip-path="url(#clip460)" d="M 0 0 M139.132 261.751 Q135.521 261.751 133.692 265.316 Q131.887 268.857 131.887 275.987 Q131.887 283.093 133.692 286.658 Q135.521 290.2 139.132 290.2 Q142.766 290.2 144.572 286.658 Q146.401 283.093 146.401 275.987 Q146.401 268.857 144.572 265.316 Q142.766 261.751 139.132 261.751 M139.132 258.047 Q144.942 258.047 147.998 262.654 Q151.077 267.237 151.077 275.987 Q151.077 284.714 147.998 289.32 Q144.942 293.904 139.132 293.904 Q133.322 293.904 130.243 289.32 Q127.188 284.714 127.188 275.987 Q127.188 267.237 130.243 262.654 Q133.322 258.047 139.132 258.047 Z" fill="#000000" fill-rule="evenodd" fill-opacity="1" /><path clip-path="url(#clip460)" d="M 0 0 M156.146 287.353 L161.03 287.353 L161.03 293.232 L156.146 293.232 L156.146 287.353 Z" fill="#000000" fill-rule="evenodd" fill-opacity="1" /><path clip-path="url(#clip460)" d="M 0 0 M164.919 258.672 L187.141 258.672 L187.141 260.663 L174.595 293.232 L169.711 293.232 L181.516 262.607 L164.919 262.607 L164.919 258.672 Z" fill="#000000" fill-rule="evenodd" fill-opacity="1" /><path clip-path="url(#clip460)" d="M 0 0 M138.322 65.0929 Q134.711 65.0929 132.882 68.6577 Q131.077 72.1993 131.077 79.3289 Q131.077 86.4354 132.882 90.0002 Q134.711 93.5418 138.322 93.5418 Q141.956 93.5418 143.762 90.0002 Q145.591 86.4354 145.591 79.3289 Q145.591 72.1993 143.762 68.6577 Q141.956 65.0929 138.322 65.0929 M138.322 61.3892 Q144.132 61.3892 147.188 65.9957 Q150.266 70.579 150.266 79.3289 Q150.266 88.0557 147.188 92.6622 Q144.132 97.2455 138.322 97.2455 Q132.512 97.2455 129.433 92.6622 Q126.378 88.0557 126.378 79.3289 Q126.378 70.579 129.433 65.9957 Q132.512 61.3892 138.322 61.3892 Z" fill="#000000" fill-rule="evenodd" fill-opacity="1" /><path clip-path="url(#clip460)" d="M 0 0 M155.336 90.6946 L160.22 90.6946 L160.22 96.5742 L155.336 96.5742 L155.336 90.6946 Z" fill="#000000" fill-rule="evenodd" fill-opacity="1" /><path clip-path="url(#clip460)" d="M 0 0 M175.289 80.1623 Q171.956 80.1623 170.035 81.9447 Q168.137 83.727 168.137 86.852 Q168.137 89.977 170.035 91.7594 Q171.956 93.5418 175.289 93.5418 Q178.623 93.5418 180.544 91.7594 Q182.465 89.9539 182.465 86.852 Q182.465 83.727 180.544 81.9447 Q178.646 80.1623 175.289 80.1623 M170.614 78.1715 Q167.604 77.4308 165.915 75.3706 Q164.248 73.3104 164.248 70.3475 Q164.248 66.204 167.188 63.7966 Q170.151 61.3892 175.289 61.3892 Q180.451 61.3892 183.391 63.7966 Q186.331 66.204 186.331 70.3475 Q186.331 73.3104 184.641 75.3706 Q182.975 77.4308 179.989 78.1715 Q183.368 78.9586 185.243 81.2502 Q187.141 83.5419 187.141 86.852 Q187.141 91.8752 184.063 94.5603 Q181.007 97.2455 175.289 97.2455 Q169.572 97.2455 166.493 94.5603 Q163.438 91.8752 163.438 86.852 Q163.438 83.5419 165.336 81.2502 Q167.234 78.9586 170.614 78.1715 M168.901 70.7873 Q168.901 73.4725 170.567 74.9771 Q172.257 76.4817 175.289 76.4817 Q178.299 76.4817 179.989 74.9771 Q181.701 73.4725 181.701 70.7873 Q181.701 68.1021 179.989 66.5975 Q178.299 65.0929 175.289 65.0929 Q172.257 65.0929 170.567 66.5975 Q168.901 68.1021 168.901 70.7873 Z" fill="#000000" fill-rule="evenodd" fill-opacity="1" /><path clip-path="url(#clip460)" d="M 0 0 M1296.11 1527.48 Q1296.11 1529.28 1294.98 1530.31 Q1293.85 1531.31 1292.57 1531.31 Q1291.34 1531.31 1290.7 1530.6 Q1290.05 1529.89 1290.05 1528.99 Q1290.05 1527.77 1290.96 1526.7 Q1291.86 1525.64 1293.21 1525.42 Q1291.89 1524.58 1289.93 1524.58 Q1288.64 1524.58 1287.51 1525.26 Q1286.41 1525.93 1285.74 1526.8 Q1285.09 1527.67 1284.51 1528.93 Q1283.97 1530.15 1283.74 1530.89 Q1283.55 1531.6 1283.39 1532.37 L1281.13 1541.39 Q1280.04 1545.67 1280.04 1547.19 Q1280.04 1549.06 1280.94 1550.31 Q1281.84 1551.54 1283.64 1551.54 Q1284.35 1551.54 1285.16 1551.34 Q1285.96 1551.12 1286.99 1550.54 Q1288.06 1549.93 1288.99 1549.02 Q1289.96 1548.09 1290.89 1546.51 Q1291.83 1544.93 1292.44 1542.9 Q1292.63 1542.2 1293.27 1542.2 Q1294.08 1542.2 1294.08 1542.84 Q1294.08 1543.39 1293.63 1544.55 Q1293.21 1545.67 1292.28 1547.16 Q1291.37 1548.6 1290.18 1549.93 Q1288.99 1551.21 1287.22 1552.12 Q1285.45 1553.02 1283.52 1553.02 Q1280.75 1553.02 1278.91 1551.54 Q1277.07 1550.05 1276.4 1547.99 Q1276.24 1548.28 1276.01 1548.67 Q1275.79 1549.06 1275.11 1549.93 Q1274.47 1550.76 1273.73 1551.41 Q1272.98 1552.02 1271.83 1552.5 Q1270.7 1553.02 1269.47 1553.02 Q1267.93 1553.02 1266.54 1552.57 Q1265.19 1552.12 1264.22 1551.08 Q1263.26 1550.05 1263.26 1548.64 Q1263.26 1547.06 1264.32 1545.96 Q1265.42 1544.84 1266.9 1544.84 Q1267.83 1544.84 1268.57 1545.38 Q1269.35 1545.93 1269.35 1547.12 Q1269.35 1548.44 1268.44 1549.44 Q1267.54 1550.44 1266.25 1550.7 Q1267.57 1551.54 1269.54 1551.54 Q1271.66 1551.54 1273.34 1549.67 Q1275.01 1547.8 1275.82 1544.68 Q1277.82 1537.17 1278.59 1533.82 Q1279.36 1530.44 1279.36 1528.99 Q1279.36 1527.64 1279.01 1526.7 Q1278.65 1525.77 1278.04 1525.35 Q1277.46 1524.9 1276.91 1524.74 Q1276.4 1524.58 1275.82 1524.58 Q1274.85 1524.58 1273.76 1524.97 Q1272.69 1525.35 1271.41 1526.25 Q1270.15 1527.12 1268.96 1528.93 Q1267.77 1530.73 1266.96 1533.21 Q1266.8 1533.95 1266.09 1533.95 Q1265.32 1533.92 1265.32 1533.27 Q1265.32 1532.73 1265.74 1531.6 Q1266.19 1530.44 1267.09 1528.99 Q1268.03 1527.54 1269.22 1526.25 Q1270.44 1524.93 1272.21 1524.03 Q1274.02 1523.13 1275.95 1523.13 Q1276.82 1523.13 1277.65 1523.32 Q1278.52 1523.48 1279.55 1523.97 Q1280.62 1524.45 1281.55 1525.51 Q1282.49 1526.58 1283.07 1528.12 Q1283.45 1527.38 1283.97 1526.67 Q1284.51 1525.96 1285.35 1525.09 Q1286.22 1524.19 1287.41 1523.68 Q1288.64 1523.13 1289.99 1523.13 Q1291.31 1523.13 1292.6 1523.48 Q1293.89 1523.81 1294.98 1524.87 Q1296.11 1525.9 1296.11 1527.48 Z" fill="#000000" fill-rule="evenodd" fill-opacity="1" /><path clip-path="url(#clip460)" d="M 0 0 M60.8835 732.781 Q61.3344 732.781 62.3972 733.071 L87.5821 739.384 Q93.186 740.768 97.1151 745.277 Q101.044 749.754 101.044 754.842 Q101.044 757.902 99.4017 759.866 Q97.7914 761.831 95.3115 761.831 Q93.1216 761.831 92.0588 760.672 Q91.0282 759.512 91.0282 758.127 Q91.0282 757.676 91.157 757.193 Q91.2858 756.71 91.8333 756.195 Q92.3808 755.68 93.3148 755.68 Q94.8285 755.68 96.0201 757 Q96.5676 757.644 96.6964 758.256 Q96.8252 758.836 96.8252 759.834 Q97.727 759.448 98.3389 758.739 Q98.9508 758.031 99.1763 757.226 Q99.4339 756.42 99.4983 755.905 Q99.5949 755.358 99.5949 754.842 Q99.5949 750.72 95.4404 747.564 Q94.1843 746.63 92.9283 745.953 Q91.7045 745.245 90.1908 744.73 Q88.7093 744.214 87.9042 743.989 Q87.0991 743.731 85.2633 743.28 Q88.2585 746.276 88.2585 749.947 Q88.2585 751.493 87.8398 752.878 Q87.4211 754.23 86.5516 755.422 Q85.6498 756.614 84.0717 757.322 Q82.4936 757.998 80.4002 757.998 Q78.178 757.998 75.1507 757.129 Q72.1233 756.259 66.5517 754.166 Q63.4277 753.039 61.9141 753.039 Q61.1733 753.039 60.7225 753.2 Q60.2394 753.361 60.0783 753.683 Q59.8851 754.005 59.8529 754.198 Q59.8207 754.359 59.8207 754.681 Q59.8207 756.581 61.753 758.353 Q63.6854 760.124 68.001 761.348 Q68.8061 761.606 68.9994 761.767 Q69.1926 761.928 69.1926 762.411 Q69.1604 763.216 68.5163 763.216 Q68.2586 763.216 67.2602 762.926 Q66.2297 762.636 64.716 761.96 Q63.1701 761.251 61.7852 760.285 Q60.3682 759.319 59.3698 757.805 Q58.3714 756.259 58.3714 754.488 Q58.3714 752.073 59.9495 750.591 Q61.4954 749.077 63.782 749.077 Q64.716 749.077 65.5533 749.335 Q66.3585 749.561 68.5163 750.398 Q77.2119 753.78 81.463 753.78 Q82.4936 753.78 83.3632 753.618 Q84.2005 753.425 85.0379 753.007 Q85.843 752.588 86.3261 751.751 Q86.777 750.881 86.777 749.689 Q86.777 748.176 86.0685 746.759 Q85.3277 745.309 84.3294 744.408 Q83.331 743.474 82.4936 742.926 Q81.6241 742.346 81.1732 742.218 L69.3214 739.255 L64.0397 737.934 Q61.1733 737.322 60.4648 737.032 Q59.7885 736.646 59.4342 735.97 Q59.08 735.293 59.08 734.714 Q59.08 733.909 59.563 733.361 Q60.0461 732.781 60.8835 732.781 Z" fill="#000000" fill-rule="evenodd" fill-opacity="1" /><polyline clip-path="url(#clip462)" style="stroke:#009af9; stroke-width:4; stroke-opacity:1; fill:none" points="
  271.753,263.727 496.241,1407.55 720.729,546.793 945.217,633.461 1169.7,780.374 1394.19,1097.73 1618.68,851.972 1843.17,86.8647 2067.66,862.02 2292.14,1229.48 
  
  "/>
<path clip-path="url(#clip460)" d="
M1989.74 251.724 L2280.76 251.724 L2280.76 130.764 L1989.74 130.764  Z
  " fill="#ffffff" fill-rule="evenodd" fill-opacity="1"/>
<polyline clip-path="url(#clip460)" style="stroke:#000000; stroke-width:4; stroke-opacity:1; fill:none" points="
  1989.74,251.724 2280.76,251.724 2280.76,130.764 1989.74,130.764 1989.74,251.724 
  "/>
<polyline clip-path="url(#clip460)" style="stroke:#009af9; stroke-width:4; stroke-opacity:1; fill:none" points="
  2013.74,191.244 2157.74,191.244 
  "/>
<path clip-path="url(#clip460)" d="M 0 0 M2195.58 210.931 Q2193.77 215.561 2192.06 216.973 Q2190.35 218.385 2187.48 218.385 L2184.08 218.385 L2184.08 214.82 L2186.58 214.82 Q2188.33 214.82 2189.31 213.987 Q2190.28 213.154 2191.46 210.052 L2192.22 208.107 L2181.74 182.598 L2186.25 182.598 L2194.35 202.876 L2202.46 182.598 L2206.97 182.598 L2195.58 210.931 Z" fill="#000000" fill-rule="evenodd" fill-opacity="1" /><path clip-path="url(#clip460)" d="M 0 0 M2212.85 204.589 L2220.49 204.589 L2220.49 178.223 L2212.18 179.89 L2212.18 175.631 L2220.44 173.964 L2225.12 173.964 L2225.12 204.589 L2232.76 204.589 L2232.76 208.524 L2212.85 208.524 L2212.85 204.589 Z" fill="#000000" fill-rule="evenodd" fill-opacity="1" /></svg>
