<?xml version="1.0" encoding="utf-8"?>
<svg xmlns="http://www.w3.org/2000/svg" xmlns:xlink="http://www.w3.org/1999/xlink" width="600" height="400" viewBox="0 0 2400 1600">
<defs>
  <clipPath id="clip540">
    <rect x="0" y="0" width="2400" height="1600"/>
  </clipPath>
</defs>
<path clip-path="url(#clip540)" d="
M0 1600 L2400 1600 L2400 0 L0 0  Z
  " fill="#ffffff" fill-rule="evenodd" fill-opacity="1"/>
<defs>
  <clipPath id="clip541">
    <rect x="480" y="0" width="1681" height="1600"/>
  </clipPath>
</defs>
<defs>
  <clipPath id="clip542">
    <rect x="2137" y="0" width="73" height="1600"/>
  </clipPath>
</defs>
<path clip-path="url(#clip540)" d="
M199.874 1445.63 L2352.76 1445.63 L2352.76 88.065 L199.874 88.065  Z
  " fill="#ffffff" fill-rule="evenodd" fill-opacity="1"/>
<defs>
  <clipPath id="clip543">
    <rect x="199" y="88" width="2154" height="1359"/>
  </clipPath>
</defs>
<polyline clip-path="url(#clip543)" style="stroke:#000000; stroke-width:2; stroke-opacity:0.1; fill:none" points="
  486.474,1445.63 486.474,88.065 
  "/>
<polyline clip-path="url(#clip543)" style="stroke:#000000; stroke-width:2; stroke-opacity:0.1; fill:none" points="
  937.812,1445.63 937.812,88.065 
  "/>
<polyline clip-path="url(#clip543)" style="stroke:#000000; stroke-width:2; stroke-opacity:0.1; fill:none" points="
  1389.15,1445.63 1389.15,88.065 
  "/>
<polyline clip-path="url(#clip543)" style="stroke:#000000; stroke-width:2; stroke-opacity:0.1; fill:none" points="
  1840.49,1445.63 1840.49,88.065 
  "/>
<polyline clip-path="url(#clip543)" style="stroke:#000000; stroke-width:2; stroke-opacity:0.1; fill:none" points="
  2291.83,1445.63 2291.83,88.065 
  "/>
<polyline clip-path="url(#clip543)" style="stroke:#000000; stroke-width:2; stroke-opacity:0.1; fill:none" points="
  199.874,1308.77 2352.76,1308.77 
  "/>
<polyline clip-path="url(#clip543)" style="stroke:#000000; stroke-width:2; stroke-opacity:0.1; fill:none" points="
  199.874,1121.01 2352.76,1121.01 
  "/>
<polyline clip-path="url(#clip543)" style="stroke:#000000; stroke-width:2; stroke-opacity:0.1; fill:none" points="
  199.874,933.251 2352.76,933.251 
  "/>
<polyline clip-path="url(#clip543)" style="stroke:#000000; stroke-width:2; stroke-opacity:0.1; fill:none" points="
  199.874,745.492 2352.76,745.492 
  "/>
<polyline clip-path="url(#clip543)" style="stroke:#000000; stroke-width:2; stroke-opacity:0.1; fill:none" points="
  199.874,557.733 2352.76,557.733 
  "/>
<polyline clip-path="url(#clip543)" style="stroke:#000000; stroke-width:2; stroke-opacity:0.1; fill:none" points="
  199.874,369.973 2352.76,369.973 
  "/>
<polyline clip-path="url(#clip543)" style="stroke:#000000; stroke-width:2; stroke-opacity:0.1; fill:none" points="
  199.874,182.214 2352.76,182.214 
  "/>
<polyline clip-path="url(#clip540)" style="stroke:#000000; stroke-width:4; stroke-opacity:1; fill:none" points="
  199.874,1445.63 2352.76,1445.63 
  "/>
<polyline clip-path="url(#clip540)" style="stroke:#000000; stroke-width:4; stroke-opacity:1; fill:none" points="
  199.874,1445.63 199.874,88.065 
  "/>
<polyline clip-path="url(#clip540)" style="stroke:#000000; stroke-width:4; stroke-opacity:1; fill:none" points="
  486.474,1445.63 486.474,1429.34 
  "/>
<polyline clip-path="url(#clip540)" style="stroke:#000000; stroke-width:4; stroke-opacity:1; fill:none" points="
  937.812,1445.63 937.812,1429.34 
  "/>
<polyline clip-path="url(#clip540)" style="stroke:#000000; stroke-width:4; stroke-opacity:1; fill:none" points="
  1389.15,1445.63 1389.15,1429.34 
  "/>
<polyline clip-path="url(#clip540)" style="stroke:#000000; stroke-width:4; stroke-opacity:1; fill:none" points="
  1840.49,1445.63 1840.49,1429.34 
  "/>
<polyline clip-path="url(#clip540)" style="stroke:#000000; stroke-width:4; stroke-opacity:1; fill:none" points="
  2291.83,1445.63 2291.83,1429.34 
  "/>
<polyline clip-path="url(#clip540)" style="stroke:#000000; stroke-width:4; stroke-opacity:1; fill:none" points="
  199.874,1308.77 225.709,1308.77 
  "/>
<polyline clip-path="url(#clip540)" style="stroke:#000000; stroke-width:4; stroke-opacity:1; fill:none" points="
  199.874,1121.01 225.709,1121.01 
  "/>
<polyline clip-path="url(#clip540)" style="stroke:#000000; stroke-width:4; stroke-opacity:1; fill:none" points="
  199.874,933.251 225.709,933.251 
  "/>
<polyline clip-path="url(#clip540)" style="stroke:#000000; stroke-width:4; stroke-opacity:1; fill:none" points="
  199.874,745.492 225.709,745.492 
  "/>
<polyline clip-path="url(#clip540)" style="stroke:#000000; stroke-width:4; stroke-opacity:1; fill:none" points="
  199.874,557.733 225.709,557.733 
  "/>
<polyline clip-path="url(#clip540)" style="stroke:#000000; stroke-width:4; stroke-opacity:1; fill:none" points="
  199.874,369.973 225.709,369.973 
  "/>
<polyline clip-path="url(#clip540)" style="stroke:#000000; stroke-width:4; stroke-opacity:1; fill:none" points="
  199.874,182.214 225.709,182.214 
  "/>
<path clip-path="url(#clip540)" d="M 0 0 M481.126 1495.16 L497.446 1495.16 L497.446 1499.1 L475.501 1499.1 L475.501 1495.16 Q478.164 1492.41 482.747 1487.78 Q487.353 1483.13 488.534 1481.78 Q490.779 1479.26 491.659 1477.52 Q492.562 1475.77 492.562 1474.08 Q492.562 1471.32 490.617 1469.59 Q488.696 1467.85 485.594 1467.85 Q483.395 1467.85 480.941 1468.61 Q478.511 1469.38 475.733 1470.93 L475.733 1466.21 Q478.557 1465.07 481.011 1464.49 Q483.464 1463.91 485.501 1463.91 Q490.872 1463.91 494.066 1466.6 Q497.261 1469.28 497.261 1473.77 Q497.261 1475.9 496.45 1477.83 Q495.663 1479.72 493.557 1482.32 Q492.978 1482.99 489.876 1486.21 Q486.775 1489.4 481.126 1495.16 Z" fill="#000000" fill-rule="evenodd" fill-opacity="1" /><path clip-path="url(#clip540)" d="M 0 0 M940.821 1468.61 L929.015 1487.06 L940.821 1487.06 L940.821 1468.61 M939.594 1464.54 L945.474 1464.54 L945.474 1487.06 L950.404 1487.06 L950.404 1490.95 L945.474 1490.95 L945.474 1499.1 L940.821 1499.1 L940.821 1490.95 L925.219 1490.95 L925.219 1486.44 L939.594 1464.54 Z" fill="#000000" fill-rule="evenodd" fill-opacity="1" /><path clip-path="url(#clip540)" d="M 0 0 M1389.55 1479.96 Q1386.41 1479.96 1384.55 1482.11 Q1382.73 1484.26 1382.73 1488.01 Q1382.73 1491.74 1384.55 1493.91 Q1386.41 1496.07 1389.55 1496.07 Q1392.7 1496.07 1394.53 1493.91 Q1396.38 1491.74 1396.38 1488.01 Q1396.38 1484.26 1394.53 1482.11 Q1392.7 1479.96 1389.55 1479.96 M1398.84 1465.3 L1398.84 1469.56 Q1397.08 1468.73 1395.27 1468.29 Q1393.49 1467.85 1391.73 1467.85 Q1387.1 1467.85 1384.65 1470.97 Q1382.22 1474.1 1381.87 1480.42 Q1383.24 1478.4 1385.3 1477.34 Q1387.36 1476.25 1389.83 1476.25 Q1395.04 1476.25 1398.05 1479.42 Q1401.08 1482.57 1401.08 1488.01 Q1401.08 1493.34 1397.93 1496.55 Q1394.79 1499.77 1389.55 1499.77 Q1383.56 1499.77 1380.39 1495.19 Q1377.22 1490.58 1377.22 1481.85 Q1377.22 1473.66 1381.11 1468.8 Q1384.99 1463.91 1391.55 1463.91 Q1393.3 1463.91 1395.09 1464.26 Q1396.89 1464.61 1398.84 1465.3 Z" fill="#000000" fill-rule="evenodd" fill-opacity="1" /><path clip-path="url(#clip540)" d="M 0 0 M1840.49 1482.69 Q1837.15 1482.69 1835.23 1484.47 Q1833.33 1486.25 1833.33 1489.38 Q1833.33 1492.5 1835.23 1494.28 Q1837.15 1496.07 1840.49 1496.07 Q1843.82 1496.07 1845.74 1494.28 Q1847.66 1492.48 1847.66 1489.38 Q1847.66 1486.25 1845.74 1484.47 Q1843.84 1482.69 1840.49 1482.69 M1835.81 1480.7 Q1832.8 1479.96 1831.11 1477.9 Q1829.45 1475.84 1829.45 1472.87 Q1829.45 1468.73 1832.39 1466.32 Q1835.35 1463.91 1840.49 1463.91 Q1845.65 1463.91 1848.59 1466.32 Q1851.53 1468.73 1851.53 1472.87 Q1851.53 1475.84 1849.84 1477.9 Q1848.17 1479.96 1845.19 1480.7 Q1848.57 1481.48 1850.44 1483.77 Q1852.34 1486.07 1852.34 1489.38 Q1852.34 1494.4 1849.26 1497.09 Q1846.2 1499.77 1840.49 1499.77 Q1834.77 1499.77 1831.69 1497.09 Q1828.64 1494.4 1828.64 1489.38 Q1828.64 1486.07 1830.53 1483.77 Q1832.43 1481.48 1835.81 1480.7 M1834.1 1473.31 Q1834.1 1476 1835.77 1477.5 Q1837.45 1479.01 1840.49 1479.01 Q1843.5 1479.01 1845.19 1477.5 Q1846.9 1476 1846.9 1473.31 Q1846.9 1470.63 1845.19 1469.12 Q1843.5 1467.62 1840.49 1467.62 Q1837.45 1467.62 1835.77 1469.12 Q1834.1 1470.63 1834.1 1473.31 Z" fill="#000000" fill-rule="evenodd" fill-opacity="1" /><path clip-path="url(#clip540)" d="M 0 0 M2268.7 1495.16 L2276.34 1495.16 L2276.34 1468.8 L2268.03 1470.46 L2268.03 1466.21 L2276.29 1464.54 L2280.97 1464.54 L2280.97 1495.16 L2288.61 1495.16 L2288.61 1499.1 L2268.7 1499.1 L2268.7 1495.16 Z" fill="#000000" fill-rule="evenodd" fill-opacity="1" /><path clip-path="url(#clip540)" d="M 0 0 M2303.68 1467.62 Q2300.07 1467.62 2298.24 1471.18 Q2296.43 1474.72 2296.43 1481.85 Q2296.43 1488.96 2298.24 1492.52 Q2300.07 1496.07 2303.68 1496.07 Q2307.31 1496.07 2309.12 1492.52 Q2310.95 1488.96 2310.95 1481.85 Q2310.95 1474.72 2309.12 1471.18 Q2307.31 1467.62 2303.68 1467.62 M2303.68 1463.91 Q2309.49 1463.91 2312.54 1468.52 Q2315.62 1473.1 2315.62 1481.85 Q2315.62 1490.58 2312.54 1495.19 Q2309.49 1499.77 2303.68 1499.77 Q2297.87 1499.77 2294.79 1495.19 Q2291.73 1490.58 2291.73 1481.85 Q2291.73 1473.1 2294.79 1468.52 Q2297.87 1463.91 2303.68 1463.91 Z" fill="#000000" fill-rule="evenodd" fill-opacity="1" /><path clip-path="url(#clip540)" d="M 0 0 M128.189 1294.57 Q124.578 1294.57 122.749 1298.13 Q120.944 1301.67 120.944 1308.8 Q120.944 1315.91 122.749 1319.48 Q124.578 1323.02 128.189 1323.02 Q131.823 1323.02 133.629 1319.48 Q135.458 1315.91 135.458 1308.8 Q135.458 1301.67 133.629 1298.13 Q131.823 1294.57 128.189 1294.57 M128.189 1290.86 Q133.999 1290.86 137.055 1295.47 Q140.134 1300.05 140.134 1308.8 Q140.134 1317.53 137.055 1322.14 Q133.999 1326.72 128.189 1326.72 Q122.379 1326.72 119.3 1322.14 Q116.245 1317.53 116.245 1308.8 Q116.245 1300.05 119.3 1295.47 Q122.379 1290.86 128.189 1290.86 Z" fill="#000000" fill-rule="evenodd" fill-opacity="1" /><path clip-path="url(#clip540)" d="M 0 0 M145.203 1320.17 L150.087 1320.17 L150.087 1326.05 L145.203 1326.05 L145.203 1320.17 Z" fill="#000000" fill-rule="evenodd" fill-opacity="1" /><path clip-path="url(#clip540)" d="M 0 0 M155.967 1322.11 L163.606 1322.11 L163.606 1295.75 L155.295 1297.42 L155.295 1293.16 L163.559 1291.49 L168.235 1291.49 L168.235 1322.11 L175.874 1322.11 L175.874 1326.05 L155.967 1326.05 L155.967 1322.11 Z" fill="#000000" fill-rule="evenodd" fill-opacity="1" /><path clip-path="url(#clip540)" d="M 0 0 M128.56 1106.81 Q124.948 1106.81 123.12 1110.37 Q121.314 1113.92 121.314 1121.04 Q121.314 1128.15 123.12 1131.72 Q124.948 1135.26 128.56 1135.26 Q132.194 1135.26 133.999 1131.72 Q135.828 1128.15 135.828 1121.04 Q135.828 1113.92 133.999 1110.37 Q132.194 1106.81 128.56 1106.81 M128.56 1103.11 Q134.37 1103.11 137.425 1107.71 Q140.504 1112.29 140.504 1121.04 Q140.504 1129.77 137.425 1134.38 Q134.37 1138.96 128.56 1138.96 Q122.749 1138.96 119.671 1134.38 Q116.615 1129.77 116.615 1121.04 Q116.615 1112.29 119.671 1107.71 Q122.749 1103.11 128.56 1103.11 Z" fill="#000000" fill-rule="evenodd" fill-opacity="1" /><path clip-path="url(#clip540)" d="M 0 0 M145.573 1132.41 L150.458 1132.41 L150.458 1138.29 L145.573 1138.29 L145.573 1132.41 Z" fill="#000000" fill-rule="evenodd" fill-opacity="1" /><path clip-path="url(#clip540)" d="M 0 0 M159.555 1134.35 L175.874 1134.35 L175.874 1138.29 L153.93 1138.29 L153.93 1134.35 Q156.592 1131.6 161.175 1126.97 Q165.782 1122.32 166.962 1120.98 Q169.207 1118.45 170.087 1116.72 Q170.99 1114.96 170.99 1113.27 Q170.99 1110.51 169.045 1108.78 Q167.124 1107.04 164.022 1107.04 Q161.823 1107.04 159.37 1107.8 Q156.939 1108.57 154.161 1110.12 L154.161 1105.4 Q156.985 1104.26 159.439 1103.68 Q161.893 1103.11 163.93 1103.11 Q169.3 1103.11 172.494 1105.79 Q175.689 1108.48 175.689 1112.97 Q175.689 1115.1 174.879 1117.02 Q174.092 1118.92 171.985 1121.51 Q171.407 1122.18 168.305 1125.4 Q165.203 1128.59 159.555 1134.35 Z" fill="#000000" fill-rule="evenodd" fill-opacity="1" /><path clip-path="url(#clip540)" d="M 0 0 M127.61 919.05 Q123.999 919.05 122.171 922.614 Q120.365 926.156 120.365 933.286 Q120.365 940.392 122.171 943.957 Q123.999 947.499 127.61 947.499 Q131.245 947.499 133.05 943.957 Q134.879 940.392 134.879 933.286 Q134.879 926.156 133.05 922.614 Q131.245 919.05 127.61 919.05 M127.61 915.346 Q133.421 915.346 136.476 919.952 Q139.555 924.536 139.555 933.286 Q139.555 942.012 136.476 946.619 Q133.421 951.202 127.61 951.202 Q121.8 951.202 118.722 946.619 Q115.666 942.012 115.666 933.286 Q115.666 924.536 118.722 919.952 Q121.8 915.346 127.61 915.346 Z" fill="#000000" fill-rule="evenodd" fill-opacity="1" /><path clip-path="url(#clip540)" d="M 0 0 M144.624 944.651 L149.508 944.651 L149.508 950.531 L144.624 950.531 L144.624 944.651 Z" fill="#000000" fill-rule="evenodd" fill-opacity="1" /><path clip-path="url(#clip540)" d="M 0 0 M168.744 931.897 Q172.101 932.614 173.976 934.883 Q175.874 937.151 175.874 940.485 Q175.874 945.6 172.356 948.401 Q168.837 951.202 162.356 951.202 Q160.18 951.202 157.865 950.762 Q155.573 950.346 153.12 949.489 L153.12 944.975 Q155.064 946.11 157.379 946.688 Q159.694 947.267 162.217 947.267 Q166.615 947.267 168.907 945.531 Q171.221 943.795 171.221 940.485 Q171.221 937.429 169.069 935.716 Q166.939 933.98 163.12 933.98 L159.092 933.98 L159.092 930.138 L163.305 930.138 Q166.754 930.138 168.582 928.772 Q170.411 927.383 170.411 924.79 Q170.411 922.128 168.513 920.716 Q166.638 919.281 163.12 919.281 Q161.198 919.281 158.999 919.698 Q156.8 920.114 154.161 920.994 L154.161 916.827 Q156.823 916.087 159.138 915.716 Q161.476 915.346 163.536 915.346 Q168.86 915.346 171.962 917.777 Q175.064 920.184 175.064 924.304 Q175.064 927.175 173.42 929.165 Q171.777 931.133 168.744 931.897 Z" fill="#000000" fill-rule="evenodd" fill-opacity="1" /><path clip-path="url(#clip540)" d="M 0 0 M126.476 731.29 Q122.865 731.29 121.036 734.855 Q119.231 738.397 119.231 745.527 Q119.231 752.633 121.036 756.198 Q122.865 759.739 126.476 759.739 Q130.11 759.739 131.916 756.198 Q133.745 752.633 133.745 745.527 Q133.745 738.397 131.916 734.855 Q130.11 731.29 126.476 731.29 M126.476 727.587 Q132.286 727.587 135.342 732.193 Q138.421 736.777 138.421 745.527 Q138.421 754.253 135.342 758.86 Q132.286 763.443 126.476 763.443 Q120.666 763.443 117.587 758.86 Q114.532 754.253 114.532 745.527 Q114.532 736.777 117.587 732.193 Q120.666 727.587 126.476 727.587 Z" fill="#000000" fill-rule="evenodd" fill-opacity="1" /><path clip-path="url(#clip540)" d="M 0 0 M143.49 756.892 L148.374 756.892 L148.374 762.772 L143.49 762.772 L143.49 756.892 Z" fill="#000000" fill-rule="evenodd" fill-opacity="1" /><path clip-path="url(#clip540)" d="M 0 0 M166.291 732.286 L154.485 750.735 L166.291 750.735 L166.291 732.286 M165.064 728.212 L170.944 728.212 L170.944 750.735 L175.874 750.735 L175.874 754.624 L170.944 754.624 L170.944 762.772 L166.291 762.772 L166.291 754.624 L150.689 754.624 L150.689 750.11 L165.064 728.212 Z" fill="#000000" fill-rule="evenodd" fill-opacity="1" /><path clip-path="url(#clip540)" d="M 0 0 M127.958 543.531 Q124.347 543.531 122.518 547.096 Q120.712 550.638 120.712 557.767 Q120.712 564.874 122.518 568.439 Q124.347 571.98 127.958 571.98 Q131.592 571.98 133.397 568.439 Q135.226 564.874 135.226 557.767 Q135.226 550.638 133.397 547.096 Q131.592 543.531 127.958 543.531 M127.958 539.828 Q133.768 539.828 136.823 544.434 Q139.902 549.017 139.902 557.767 Q139.902 566.494 136.823 571.101 Q133.768 575.684 127.958 575.684 Q122.148 575.684 119.069 571.101 Q116.013 566.494 116.013 557.767 Q116.013 549.017 119.069 544.434 Q122.148 539.828 127.958 539.828 Z" fill="#000000" fill-rule="evenodd" fill-opacity="1" /><path clip-path="url(#clip540)" d="M 0 0 M144.971 569.133 L149.856 569.133 L149.856 575.013 L144.971 575.013 L144.971 569.133 Z" fill="#000000" fill-rule="evenodd" fill-opacity="1" /><path clip-path="url(#clip540)" d="M 0 0 M154.971 540.453 L173.328 540.453 L173.328 544.388 L159.254 544.388 L159.254 552.86 Q160.272 552.513 161.291 552.351 Q162.309 552.166 163.328 552.166 Q169.115 552.166 172.494 555.337 Q175.874 558.508 175.874 563.925 Q175.874 569.503 172.402 572.605 Q168.93 575.684 162.61 575.684 Q160.434 575.684 158.166 575.314 Q155.92 574.943 153.513 574.202 L153.513 569.503 Q155.596 570.638 157.819 571.193 Q160.041 571.749 162.518 571.749 Q166.522 571.749 168.86 569.642 Q171.198 567.536 171.198 563.925 Q171.198 560.314 168.86 558.207 Q166.522 556.101 162.518 556.101 Q160.643 556.101 158.768 556.517 Q156.916 556.934 154.971 557.814 L154.971 540.453 Z" fill="#000000" fill-rule="evenodd" fill-opacity="1" /><path clip-path="url(#clip540)" d="M 0 0 M126.8 355.772 Q123.189 355.772 121.36 359.337 Q119.555 362.879 119.555 370.008 Q119.555 377.115 121.36 380.679 Q123.189 384.221 126.8 384.221 Q130.435 384.221 132.24 380.679 Q134.069 377.115 134.069 370.008 Q134.069 362.879 132.24 359.337 Q130.435 355.772 126.8 355.772 M126.8 352.068 Q132.61 352.068 135.666 356.675 Q138.745 361.258 138.745 370.008 Q138.745 378.735 135.666 383.341 Q132.61 387.925 126.8 387.925 Q120.99 387.925 117.911 383.341 Q114.856 378.735 114.856 370.008 Q114.856 361.258 117.911 356.675 Q120.99 352.068 126.8 352.068 Z" fill="#000000" fill-rule="evenodd" fill-opacity="1" /><path clip-path="url(#clip540)" d="M 0 0 M143.814 381.374 L148.698 381.374 L148.698 387.253 L143.814 387.253 L143.814 381.374 Z" fill="#000000" fill-rule="evenodd" fill-opacity="1" /><path clip-path="url(#clip540)" d="M 0 0 M164.346 368.11 Q161.198 368.11 159.346 370.263 Q157.518 372.416 157.518 376.166 Q157.518 379.892 159.346 382.068 Q161.198 384.221 164.346 384.221 Q167.495 384.221 169.323 382.068 Q171.175 379.892 171.175 376.166 Q171.175 372.416 169.323 370.263 Q167.495 368.11 164.346 368.11 M173.629 353.457 L173.629 357.717 Q171.869 356.883 170.064 356.443 Q168.282 356.004 166.522 356.004 Q161.893 356.004 159.439 359.129 Q157.008 362.254 156.661 368.573 Q158.027 366.559 160.087 365.494 Q162.147 364.406 164.624 364.406 Q169.832 364.406 172.842 367.578 Q175.874 370.726 175.874 376.166 Q175.874 381.49 172.726 384.707 Q169.578 387.925 164.346 387.925 Q158.351 387.925 155.18 383.341 Q152.008 378.735 152.008 370.008 Q152.008 361.814 155.897 356.953 Q159.786 352.068 166.337 352.068 Q168.096 352.068 169.879 352.416 Q171.684 352.763 173.629 353.457 Z" fill="#000000" fill-rule="evenodd" fill-opacity="1" /><path clip-path="url(#clip540)" d="M 0 0 M127.865 168.013 Q124.254 168.013 122.425 171.578 Q120.62 175.119 120.62 182.249 Q120.62 189.355 122.425 192.92 Q124.254 196.462 127.865 196.462 Q131.499 196.462 133.305 192.92 Q135.134 189.355 135.134 182.249 Q135.134 175.119 133.305 171.578 Q131.499 168.013 127.865 168.013 M127.865 164.309 Q133.675 164.309 136.731 168.916 Q139.809 173.499 139.809 182.249 Q139.809 190.976 136.731 195.582 Q133.675 200.166 127.865 200.166 Q122.055 200.166 118.976 195.582 Q115.921 190.976 115.921 182.249 Q115.921 173.499 118.976 168.916 Q122.055 164.309 127.865 164.309 Z" fill="#000000" fill-rule="evenodd" fill-opacity="1" /><path clip-path="url(#clip540)" d="M 0 0 M144.879 193.615 L149.763 193.615 L149.763 199.494 L144.879 199.494 L144.879 193.615 Z" fill="#000000" fill-rule="evenodd" fill-opacity="1" /><path clip-path="url(#clip540)" d="M 0 0 M153.652 164.934 L175.874 164.934 L175.874 166.925 L163.328 199.494 L158.444 199.494 L170.249 168.869 L153.652 168.869 L153.652 164.934 Z" fill="#000000" fill-rule="evenodd" fill-opacity="1" /><path clip-path="url(#clip540)" d="M 0 0 M1296.83 4.53628 Q1296.74 4.94617 1296.58 5.68398 Q1296.42 6.3808 1295.68 8.59422 Q1294.94 10.8076 1293.96 13.0621 Q1293.01 15.2755 1291.17 18.3907 Q1289.37 21.4649 1287.15 24.2521 Q1286.54 24.9899 1286.42 25.4408 Q1286.33 25.8507 1286.33 27.2034 Q1286.33 35.7291 1288.92 35.7291 Q1289.04 35.7291 1289.24 35.7291 Q1289.49 35.6881 1290.1 35.4832 Q1290.76 35.2373 1291.33 34.8683 Q1291.91 34.4585 1292.56 33.6387 Q1293.22 32.7779 1293.63 31.6302 Q1294 30.8104 1294.74 30.8104 Q1295.72 30.8104 1295.72 31.6302 Q1295.72 33.1058 1293.67 35.3602 Q1291.62 37.6146 1288.67 37.6146 Q1285.84 37.6146 1283.83 35.7701 Q1281.87 33.8846 1281.05 30.5235 Q1272.19 37.6146 1263.34 37.6146 Q1257.11 37.6146 1253.42 33.5567 Q1249.73 29.4578 1249.73 23.3913 Q1249.73 17.5709 1252.93 12.0373 Q1256.16 6.50377 1261.41 3.06067 Q1266.7 -0.423422 1272.31 -0.423422 Q1274.28 -0.423422 1276.17 0.109439 Q1278.05 0.60131 1279.94 1.87198 Q1281.82 3.14265 1283.22 5.06914 Q1284.61 6.99564 1285.47 10.0288 Q1286.33 13.0621 1286.33 16.8741 L1286.33 22.0797 Q1291.74 15.2345 1294.57 5.43805 Q1294.98 3.96243 1295.23 3.79847 Q1295.39 3.67551 1295.8 3.67551 Q1296.21 3.67551 1296.46 3.92144 Q1296.74 4.12639 1296.79 4.33133 L1296.83 4.53628 M1280.72 28.3511 Q1280.55 26.9164 1280.55 18.9645 Q1280.55 17.4479 1280.55 16.6281 Q1280.55 15.7673 1280.47 14.1278 Q1280.39 12.4882 1280.23 11.4635 Q1280.1 10.4387 1279.82 8.96312 Q1279.53 7.48751 1279.12 6.54476 Q1278.71 5.602 1278.05 4.53628 Q1277.44 3.47056 1276.62 2.85572 Q1275.84 2.24088 1274.69 1.83099 Q1273.59 1.4211 1272.23 1.4211 Q1270.55 1.4211 1268.79 2.03594 Q1267.07 2.60978 1264.85 4.4543 Q1262.64 6.25783 1260.8 9.12708 Q1258.87 12.1603 1257.39 17.7348 Q1255.96 23.2684 1255.96 26.5885 Q1255.96 30.7694 1257.89 33.2698 Q1259.81 35.7291 1263.5 35.7291 Q1272.31 35.7291 1280.72 28.3511 Z" fill="#000000" fill-rule="evenodd" fill-opacity="1" /><path clip-path="url(#clip540)" d="M 0 0 M1290.48 1525.39 Q1290.48 1527.19 1289.35 1528.22 Q1288.22 1529.22 1286.93 1529.22 Q1285.71 1529.22 1285.06 1528.51 Q1284.42 1527.8 1284.42 1526.9 Q1284.42 1525.68 1285.32 1524.61 Q1286.22 1523.55 1287.58 1523.33 Q1286.26 1522.49 1284.29 1522.49 Q1283 1522.49 1281.88 1523.16 Q1280.78 1523.84 1280.1 1524.71 Q1279.46 1525.58 1278.88 1526.84 Q1278.33 1528.06 1278.11 1528.8 Q1277.91 1529.51 1277.75 1530.28 L1275.5 1539.3 Q1274.4 1543.58 1274.4 1545.1 Q1274.4 1546.97 1275.31 1548.22 Q1276.21 1549.44 1278.01 1549.44 Q1278.72 1549.44 1279.53 1549.25 Q1280.33 1549.03 1281.36 1548.45 Q1282.42 1547.83 1283.36 1546.93 Q1284.32 1546 1285.26 1544.42 Q1286.19 1542.84 1286.8 1540.81 Q1287 1540.11 1287.64 1540.11 Q1288.45 1540.11 1288.45 1540.75 Q1288.45 1541.3 1288 1542.46 Q1287.58 1543.58 1286.64 1545.06 Q1285.74 1546.51 1284.55 1547.83 Q1283.36 1549.12 1281.59 1550.02 Q1279.81 1550.93 1277.88 1550.93 Q1275.11 1550.93 1273.28 1549.44 Q1271.44 1547.96 1270.77 1545.9 Q1270.6 1546.19 1270.38 1546.58 Q1270.15 1546.97 1269.48 1547.83 Q1268.83 1548.67 1268.09 1549.32 Q1267.35 1549.93 1266.19 1550.41 Q1265.06 1550.93 1263.84 1550.93 Q1262.29 1550.93 1260.91 1550.48 Q1259.56 1550.02 1258.59 1548.99 Q1257.63 1547.96 1257.63 1546.55 Q1257.63 1544.97 1258.69 1543.87 Q1259.78 1542.75 1261.26 1542.75 Q1262.2 1542.75 1262.94 1543.29 Q1263.71 1543.84 1263.71 1545.03 Q1263.71 1546.35 1262.81 1547.35 Q1261.91 1548.35 1260.62 1548.61 Q1261.94 1549.44 1263.91 1549.44 Q1266.03 1549.44 1267.71 1547.58 Q1269.38 1545.71 1270.19 1542.59 Q1272.18 1535.08 1272.96 1531.73 Q1273.73 1528.35 1273.73 1526.9 Q1273.73 1525.55 1273.37 1524.61 Q1273.02 1523.68 1272.41 1523.26 Q1271.83 1522.81 1271.28 1522.65 Q1270.77 1522.49 1270.19 1522.49 Q1269.22 1522.49 1268.12 1522.88 Q1267.06 1523.26 1265.77 1524.16 Q1264.52 1525.03 1263.33 1526.84 Q1262.13 1528.64 1261.33 1531.12 Q1261.17 1531.86 1260.46 1531.86 Q1259.69 1531.83 1259.69 1531.18 Q1259.69 1530.64 1260.1 1529.51 Q1260.56 1528.35 1261.46 1526.9 Q1262.39 1525.45 1263.58 1524.16 Q1264.81 1522.84 1266.58 1521.94 Q1268.38 1521.04 1270.31 1521.04 Q1271.18 1521.04 1272.02 1521.23 Q1272.89 1521.39 1273.92 1521.88 Q1274.98 1522.36 1275.92 1523.42 Q1276.85 1524.49 1277.43 1526.03 Q1277.82 1525.29 1278.33 1524.58 Q1278.88 1523.87 1279.72 1523 Q1280.59 1522.1 1281.78 1521.59 Q1283 1521.04 1284.36 1521.04 Q1285.68 1521.04 1286.96 1521.39 Q1288.25 1521.72 1289.35 1522.78 Q1290.48 1523.81 1290.48 1525.39 Z" fill="#000000" fill-rule="evenodd" fill-opacity="1" /><path clip-path="url(#clip540)" d="M 0 0 M50.5695 752.42 Q51.0203 752.42 52.0831 752.71 L77.2681 759.022 Q82.8719 760.407 86.801 764.916 Q90.7302 769.393 90.7302 774.481 Q90.7302 777.541 89.0877 779.505 Q87.4774 781.47 84.9975 781.47 Q82.8075 781.47 81.7447 780.31 Q80.7141 779.151 80.7141 777.766 Q80.7141 777.315 80.843 776.832 Q80.9718 776.349 81.5193 775.834 Q82.0668 775.318 83.0008 775.318 Q84.5144 775.318 85.706 776.639 Q86.2535 777.283 86.3824 777.895 Q86.5112 778.475 86.5112 779.473 Q87.413 779.086 88.0249 778.378 Q88.6368 777.669 88.8622 776.864 Q89.1199 776.059 89.1843 775.544 Q89.2809 774.996 89.2809 774.481 Q89.2809 770.359 85.1263 767.203 Q83.8703 766.269 82.6143 765.592 Q81.3905 764.884 79.8768 764.368 Q78.3953 763.853 77.5902 763.628 Q76.785 763.37 74.9493 762.919 Q77.9444 765.914 77.9444 769.586 Q77.9444 771.132 77.5258 772.516 Q77.1071 773.869 76.2375 775.061 Q75.3358 776.252 73.7577 776.961 Q72.1796 777.637 70.0862 777.637 Q67.864 777.637 64.8366 776.768 Q61.8093 775.898 56.2377 773.805 Q53.1137 772.678 51.6 772.678 Q50.8593 772.678 50.4084 772.839 Q49.9253 773 49.7643 773.322 Q49.5711 773.644 49.5389 773.837 Q49.5067 773.998 49.5067 774.32 Q49.5067 776.22 51.439 777.991 Q53.3714 779.763 57.6869 780.987 Q58.4921 781.244 58.6853 781.405 Q58.8786 781.566 58.8786 782.049 Q58.8464 782.855 58.2022 782.855 Q57.9446 782.855 56.9462 782.565 Q55.9156 782.275 54.4019 781.599 Q52.8561 780.89 51.4712 779.924 Q50.0542 778.958 49.0558 777.444 Q48.0574 775.898 48.0574 774.127 Q48.0574 771.711 49.6355 770.23 Q51.1814 768.716 53.468 768.716 Q54.4019 768.716 55.2393 768.974 Q56.0444 769.199 58.2022 770.037 Q66.8978 773.418 71.149 773.418 Q72.1796 773.418 73.0491 773.257 Q73.8865 773.064 74.7238 772.645 Q75.529 772.227 76.0121 771.389 Q76.463 770.52 76.463 769.328 Q76.463 767.814 75.7544 766.397 Q75.0137 764.948 74.0153 764.046 Q73.0169 763.112 72.1796 762.565 Q71.31 761.985 70.8591 761.856 L59.0074 758.893 L53.7256 757.573 Q50.8593 756.961 50.1508 756.671 Q49.4745 756.285 49.1202 755.608 Q48.7659 754.932 48.7659 754.352 Q48.7659 753.547 49.249 753 Q49.7321 752.42 50.5695 752.42 Z" fill="#000000" fill-rule="evenodd" fill-opacity="1" /><polyline clip-path="url(#clip543)" style="stroke:#009af9; stroke-width:4; stroke-opacity:1; fill:none" points="
  260.805,1407.21 486.474,1301.36 712.143,278.663 937.812,713.894 1163.48,1397.52 1389.15,620.339 1614.82,1207.86 1840.49,126.487 2066.16,496.084 2291.83,387.594 
  
  "/>
<path clip-path="url(#clip540)" d="
M1990.77 254.277 L2280.99 254.277 L2280.99 133.317 L1990.77 133.317  Z
  " fill="#ffffff" fill-rule="evenodd" fill-opacity="1"/>
<polyline clip-path="url(#clip540)" style="stroke:#000000; stroke-width:4; stroke-opacity:1; fill:none" points="
  1990.77,254.277 2280.99,254.277 2280.99,133.317 1990.77,133.317 1990.77,254.277 
  "/>
<polyline clip-path="url(#clip540)" style="stroke:#009af9; stroke-width:4; stroke-opacity:1; fill:none" points="
  2014.69,193.797 2158.21,193.797 
  "/>
<path clip-path="url(#clip540)" d="M 0 0 M2195.98 213.484 Q2194.17 218.114 2192.46 219.526 Q2190.74 220.938 2187.87 220.938 L2184.47 220.938 L2184.47 217.373 L2186.97 217.373 Q2188.73 217.373 2189.7 216.54 Q2190.67 215.707 2191.86 212.605 L2192.62 210.66 L2182.13 185.151 L2186.65 185.151 L2194.75 205.429 L2202.85 185.151 L2207.36 185.151 L2195.98 213.484 Z" fill="#000000" fill-rule="evenodd" fill-opacity="1" /><path clip-path="url(#clip540)" d="M 0 0 M2213.24 207.142 L2220.88 207.142 L2220.88 180.776 L2212.57 182.443 L2212.57 178.184 L2220.84 176.517 L2225.51 176.517 L2225.51 207.142 L2233.15 207.142 L2233.15 211.077 L2213.24 211.077 L2213.24 207.142 Z" fill="#000000" fill-rule="evenodd" fill-opacity="1" /></svg>
