<?xml version="1.0" encoding="utf-8"?>
<svg xmlns="http://www.w3.org/2000/svg" xmlns:xlink="http://www.w3.org/1999/xlink" width="600" height="400" viewBox="0 0 2400 1600">
<defs>
  <clipPath id="clip2700">
    <rect x="0" y="0" width="2400" height="1600"/>
  </clipPath>
</defs>
<path clip-path="url(#clip2700)" d="
M0 1600 L2400 1600 L2400 0 L0 0  Z
  " fill="#ffffff" fill-rule="evenodd" fill-opacity="1"/>
<defs>
  <clipPath id="clip2701">
    <rect x="480" y="0" width="1681" height="1600"/>
  </clipPath>
</defs>
<path clip-path="url(#clip2700)" d="
M102.74 1505.26 L2352.76 1505.26 L2352.76 47.2441 L102.74 47.2441  Z
  " fill="#ffffff" fill-rule="evenodd" fill-opacity="1"/>
<defs>
  <clipPath id="clip2702">
    <rect x="102" y="47" width="2251" height="1459"/>
  </clipPath>
</defs>
<polyline clip-path="url(#clip2702)" style="stroke:#000000; stroke-width:2; stroke-opacity:0.1; fill:none" points="
  402.271,1505.26 402.271,47.2441 
  "/>
<polyline clip-path="url(#clip2702)" style="stroke:#000000; stroke-width:2; stroke-opacity:0.1; fill:none" points="
  873.972,1505.26 873.972,47.2441 
  "/>
<polyline clip-path="url(#clip2702)" style="stroke:#000000; stroke-width:2; stroke-opacity:0.1; fill:none" points="
  1345.67,1505.26 1345.67,47.2441 
  "/>
<polyline clip-path="url(#clip2702)" style="stroke:#000000; stroke-width:2; stroke-opacity:0.1; fill:none" points="
  1817.37,1505.26 1817.37,47.2441 
  "/>
<polyline clip-path="url(#clip2702)" style="stroke:#000000; stroke-width:2; stroke-opacity:0.1; fill:none" points="
  2289.08,1505.26 2289.08,47.2441 
  "/>
<polyline clip-path="url(#clip2702)" style="stroke:#000000; stroke-width:2; stroke-opacity:0.1; fill:none" points="
  102.74,1474.44 2352.76,1474.44 
  "/>
<polyline clip-path="url(#clip2702)" style="stroke:#000000; stroke-width:2; stroke-opacity:0.1; fill:none" points="
  102.74,1152.67 2352.76,1152.67 
  "/>
<polyline clip-path="url(#clip2702)" style="stroke:#000000; stroke-width:2; stroke-opacity:0.1; fill:none" points="
  102.74,830.904 2352.76,830.904 
  "/>
<polyline clip-path="url(#clip2702)" style="stroke:#000000; stroke-width:2; stroke-opacity:0.1; fill:none" points="
  102.74,509.136 2352.76,509.136 
  "/>
<polyline clip-path="url(#clip2702)" style="stroke:#000000; stroke-width:2; stroke-opacity:0.1; fill:none" points="
  102.74,187.369 2352.76,187.369 
  "/>
<polyline clip-path="url(#clip2700)" style="stroke:#000000; stroke-width:4; stroke-opacity:1; fill:none" points="
  102.74,1505.26 2352.76,1505.26 
  "/>
<polyline clip-path="url(#clip2700)" style="stroke:#000000; stroke-width:4; stroke-opacity:1; fill:none" points="
  102.74,1505.26 102.74,47.2441 
  "/>
<polyline clip-path="url(#clip2700)" style="stroke:#000000; stroke-width:4; stroke-opacity:1; fill:none" points="
  402.271,1505.26 402.271,1487.76 
  "/>
<polyline clip-path="url(#clip2700)" style="stroke:#000000; stroke-width:4; stroke-opacity:1; fill:none" points="
  873.972,1505.26 873.972,1487.76 
  "/>
<polyline clip-path="url(#clip2700)" style="stroke:#000000; stroke-width:4; stroke-opacity:1; fill:none" points="
  1345.67,1505.26 1345.67,1487.76 
  "/>
<polyline clip-path="url(#clip2700)" style="stroke:#000000; stroke-width:4; stroke-opacity:1; fill:none" points="
  1817.37,1505.26 1817.37,1487.76 
  "/>
<polyline clip-path="url(#clip2700)" style="stroke:#000000; stroke-width:4; stroke-opacity:1; fill:none" points="
  2289.08,1505.26 2289.08,1487.76 
  "/>
<polyline clip-path="url(#clip2700)" style="stroke:#000000; stroke-width:4; stroke-opacity:1; fill:none" points="
  102.74,1474.44 129.74,1474.44 
  "/>
<polyline clip-path="url(#clip2700)" style="stroke:#000000; stroke-width:4; stroke-opacity:1; fill:none" points="
  102.74,1152.67 129.74,1152.67 
  "/>
<polyline clip-path="url(#clip2700)" style="stroke:#000000; stroke-width:4; stroke-opacity:1; fill:none" points="
  102.74,830.904 129.74,830.904 
  "/>
<polyline clip-path="url(#clip2700)" style="stroke:#000000; stroke-width:4; stroke-opacity:1; fill:none" points="
  102.74,509.136 129.74,509.136 
  "/>
<polyline clip-path="url(#clip2700)" style="stroke:#000000; stroke-width:4; stroke-opacity:1; fill:none" points="
  102.74,187.369 129.74,187.369 
  "/>
<path clip-path="url(#clip2700)" d="M 0 0 M396.923 1554.8 L413.243 1554.8 L413.243 1558.73 L391.298 1558.73 L391.298 1554.8 Q393.96 1552.04 398.544 1547.41 Q403.15 1542.76 404.331 1541.42 Q406.576 1538.89 407.456 1537.16 Q408.358 1535.4 408.358 1533.71 Q408.358 1530.95 406.414 1529.22 Q404.493 1527.48 401.391 1527.48 Q399.192 1527.48 396.738 1528.25 Q394.308 1529.01 391.53 1530.56 L391.53 1525.84 Q394.354 1524.7 396.808 1524.13 Q399.261 1523.55 401.298 1523.55 Q406.669 1523.55 409.863 1526.23 Q413.058 1528.92 413.058 1533.41 Q413.058 1535.54 412.247 1537.46 Q411.46 1539.36 409.354 1541.95 Q408.775 1542.62 405.673 1545.84 Q402.571 1549.03 396.923 1554.8 Z" fill="#000000" fill-rule="evenodd" fill-opacity="1" /><path clip-path="url(#clip2700)" d="M 0 0 M876.981 1528.25 L865.176 1546.69 L876.981 1546.69 L876.981 1528.25 M875.754 1524.17 L881.634 1524.17 L881.634 1546.69 L886.565 1546.69 L886.565 1550.58 L881.634 1550.58 L881.634 1558.73 L876.981 1558.73 L876.981 1550.58 L861.379 1550.58 L861.379 1546.07 L875.754 1524.17 Z" fill="#000000" fill-rule="evenodd" fill-opacity="1" /><path clip-path="url(#clip2700)" d="M 0 0 M1346.08 1539.59 Q1342.93 1539.59 1341.08 1541.74 Q1339.25 1543.89 1339.25 1547.64 Q1339.25 1551.37 1341.08 1553.55 Q1342.93 1555.7 1346.08 1555.7 Q1349.23 1555.7 1351.06 1553.55 Q1352.91 1551.37 1352.91 1547.64 Q1352.91 1543.89 1351.06 1541.74 Q1349.23 1539.59 1346.08 1539.59 M1355.36 1524.94 L1355.36 1529.19 Q1353.6 1528.36 1351.8 1527.92 Q1350.01 1527.48 1348.25 1527.48 Q1343.62 1527.48 1341.17 1530.61 Q1338.74 1533.73 1338.39 1540.05 Q1339.76 1538.04 1341.82 1536.97 Q1343.88 1535.88 1346.36 1535.88 Q1351.56 1535.88 1354.57 1539.06 Q1357.61 1542.2 1357.61 1547.64 Q1357.61 1552.97 1354.46 1556.19 Q1351.31 1559.4 1346.08 1559.4 Q1340.08 1559.4 1336.91 1554.82 Q1333.74 1550.21 1333.74 1541.49 Q1333.74 1533.29 1337.63 1528.43 Q1341.52 1523.55 1348.07 1523.55 Q1349.83 1523.55 1351.61 1523.89 Q1353.42 1524.24 1355.36 1524.94 Z" fill="#000000" fill-rule="evenodd" fill-opacity="1" /><path clip-path="url(#clip2700)" d="M 0 0 M1817.37 1542.32 Q1814.04 1542.32 1812.12 1544.1 Q1810.22 1545.88 1810.22 1549.01 Q1810.22 1552.13 1812.12 1553.92 Q1814.04 1555.7 1817.37 1555.7 Q1820.71 1555.7 1822.63 1553.92 Q1824.55 1552.11 1824.55 1549.01 Q1824.55 1545.88 1822.63 1544.1 Q1820.73 1542.32 1817.37 1542.32 M1812.7 1540.33 Q1809.69 1539.59 1808 1537.53 Q1806.33 1535.47 1806.33 1532.51 Q1806.33 1528.36 1809.27 1525.95 Q1812.24 1523.55 1817.37 1523.55 Q1822.54 1523.55 1825.48 1525.95 Q1828.42 1528.36 1828.42 1532.51 Q1828.42 1535.47 1826.73 1537.53 Q1825.06 1539.59 1822.07 1540.33 Q1825.45 1541.12 1827.33 1543.41 Q1829.23 1545.7 1829.23 1549.01 Q1829.23 1554.03 1826.15 1556.72 Q1823.09 1559.4 1817.37 1559.4 Q1811.66 1559.4 1808.58 1556.72 Q1805.52 1554.03 1805.52 1549.01 Q1805.52 1545.7 1807.42 1543.41 Q1809.32 1541.12 1812.7 1540.33 M1810.99 1532.94 Q1810.99 1535.63 1812.65 1537.13 Q1814.34 1538.64 1817.37 1538.64 Q1820.38 1538.64 1822.07 1537.13 Q1823.79 1535.63 1823.79 1532.94 Q1823.79 1530.26 1822.07 1528.76 Q1820.38 1527.25 1817.37 1527.25 Q1814.34 1527.25 1812.65 1528.76 Q1810.99 1530.26 1810.99 1532.94 Z" fill="#000000" fill-rule="evenodd" fill-opacity="1" /><path clip-path="url(#clip2700)" d="M 0 0 M2265.95 1554.8 L2273.59 1554.8 L2273.59 1528.43 L2265.28 1530.1 L2265.28 1525.84 L2273.54 1524.17 L2278.22 1524.17 L2278.22 1554.8 L2285.86 1554.8 L2285.86 1558.73 L2265.95 1558.73 L2265.95 1554.8 Z" fill="#000000" fill-rule="evenodd" fill-opacity="1" /><path clip-path="url(#clip2700)" d="M 0 0 M2300.93 1527.25 Q2297.32 1527.25 2295.49 1530.82 Q2293.68 1534.36 2293.68 1541.49 Q2293.68 1548.59 2295.49 1552.16 Q2297.32 1555.7 2300.93 1555.7 Q2304.56 1555.7 2306.37 1552.16 Q2308.2 1548.59 2308.2 1541.49 Q2308.2 1534.36 2306.37 1530.82 Q2304.56 1527.25 2300.93 1527.25 M2300.93 1523.55 Q2306.74 1523.55 2309.79 1528.15 Q2312.87 1532.74 2312.87 1541.49 Q2312.87 1550.21 2309.79 1554.82 Q2306.74 1559.4 2300.93 1559.4 Q2295.12 1559.4 2292.04 1554.82 Q2288.98 1550.21 2288.98 1541.49 Q2288.98 1532.74 2292.04 1528.15 Q2295.12 1523.55 2300.93 1523.55 Z" fill="#000000" fill-rule="evenodd" fill-opacity="1" /><path clip-path="url(#clip2700)" d="M 0 0 M29.8284 1460.24 Q26.2173 1460.24 24.3886 1463.8 Q22.5831 1467.34 22.5831 1474.47 Q22.5831 1481.58 24.3886 1485.15 Q26.2173 1488.69 29.8284 1488.69 Q33.4626 1488.69 35.2682 1485.15 Q37.0969 1481.58 37.0969 1474.47 Q37.0969 1467.34 35.2682 1463.8 Q33.4626 1460.24 29.8284 1460.24 M29.8284 1456.53 Q35.6385 1456.53 38.6941 1461.14 Q41.7728 1465.72 41.7728 1474.47 Q41.7728 1483.2 38.6941 1487.81 Q35.6385 1492.39 29.8284 1492.39 Q24.0182 1492.39 20.9395 1487.81 Q17.884 1483.2 17.884 1474.47 Q17.884 1465.72 20.9395 1461.14 Q24.0182 1456.53 29.8284 1456.53 Z" fill="#000000" fill-rule="evenodd" fill-opacity="1" /><path clip-path="url(#clip2700)" d="M 0 0 M46.8422 1485.84 L51.7264 1485.84 L51.7264 1491.72 L46.8422 1491.72 L46.8422 1485.84 Z" fill="#000000" fill-rule="evenodd" fill-opacity="1" /><path clip-path="url(#clip2700)" d="M 0 0 M66.7958 1460.24 Q63.1847 1460.24 61.356 1463.8 Q59.5505 1467.34 59.5505 1474.47 Q59.5505 1481.58 61.356 1485.15 Q63.1847 1488.69 66.7958 1488.69 Q70.43 1488.69 72.2356 1485.15 Q74.0643 1481.58 74.0643 1474.47 Q74.0643 1467.34 72.2356 1463.8 Q70.43 1460.24 66.7958 1460.24 M66.7958 1456.53 Q72.6059 1456.53 75.6615 1461.14 Q78.7402 1465.72 78.7402 1474.47 Q78.7402 1483.2 75.6615 1487.81 Q72.6059 1492.39 66.7958 1492.39 Q60.9856 1492.39 57.9069 1487.81 Q54.8514 1483.2 54.8514 1474.47 Q54.8514 1465.72 57.9069 1461.14 Q60.9856 1456.53 66.7958 1456.53 Z" fill="#000000" fill-rule="evenodd" fill-opacity="1" /><path clip-path="url(#clip2700)" d="M 0 0 M31.4256 1138.47 Q27.8145 1138.47 25.9858 1142.04 Q24.1803 1145.58 24.1803 1152.71 Q24.1803 1159.81 25.9858 1163.38 Q27.8145 1166.92 31.4256 1166.92 Q35.0598 1166.92 36.8654 1163.38 Q38.6941 1159.81 38.6941 1152.71 Q38.6941 1145.58 36.8654 1142.04 Q35.0598 1138.47 31.4256 1138.47 M31.4256 1134.77 Q37.2358 1134.77 40.2913 1139.37 Q43.37 1143.96 43.37 1152.71 Q43.37 1161.43 40.2913 1166.04 Q37.2358 1170.62 31.4256 1170.62 Q25.6154 1170.62 22.5368 1166.04 Q19.4812 1161.43 19.4812 1152.71 Q19.4812 1143.96 22.5368 1139.37 Q25.6154 1134.77 31.4256 1134.77 Z" fill="#000000" fill-rule="evenodd" fill-opacity="1" /><path clip-path="url(#clip2700)" d="M 0 0 M48.4394 1164.07 L53.3236 1164.07 L53.3236 1169.95 L48.4394 1169.95 L48.4394 1164.07 Z" fill="#000000" fill-rule="evenodd" fill-opacity="1" /><path clip-path="url(#clip2700)" d="M 0 0 M62.4208 1166.02 L78.7402 1166.02 L78.7402 1169.95 L56.7958 1169.95 L56.7958 1166.02 Q59.4579 1163.26 64.0412 1158.63 Q68.6476 1153.98 69.8282 1152.64 Q72.0735 1150.11 72.9532 1148.38 Q73.8559 1146.62 73.8559 1144.93 Q73.8559 1142.17 71.9115 1140.44 Q69.9902 1138.7 66.8884 1138.7 Q64.6893 1138.7 62.2356 1139.47 Q59.8051 1140.23 57.0273 1141.78 L57.0273 1137.06 Q59.8514 1135.92 62.3051 1135.35 Q64.7588 1134.77 66.7958 1134.77 Q72.1661 1134.77 75.3606 1137.45 Q78.555 1140.14 78.555 1144.63 Q78.555 1146.76 77.7448 1148.68 Q76.9578 1150.58 74.8513 1153.17 Q74.2726 1153.84 71.1708 1157.06 Q68.0689 1160.25 62.4208 1166.02 Z" fill="#000000" fill-rule="evenodd" fill-opacity="1" /><path clip-path="url(#clip2700)" d="M 0 0 M29.3423 816.703 Q25.7312 816.703 23.9025 820.267 Q22.0969 823.809 22.0969 830.939 Q22.0969 838.045 23.9025 841.61 Q25.7312 845.152 29.3423 845.152 Q32.9765 845.152 34.7821 841.61 Q36.6108 838.045 36.6108 830.939 Q36.6108 823.809 34.7821 820.267 Q32.9765 816.703 29.3423 816.703 M29.3423 812.999 Q35.1524 812.999 38.208 817.605 Q41.2867 822.189 41.2867 830.939 Q41.2867 839.665 38.208 844.272 Q35.1524 848.855 29.3423 848.855 Q23.5321 848.855 20.4534 844.272 Q17.3979 839.665 17.3979 830.939 Q17.3979 822.189 20.4534 817.605 Q23.5321 812.999 29.3423 812.999 Z" fill="#000000" fill-rule="evenodd" fill-opacity="1" /><path clip-path="url(#clip2700)" d="M 0 0 M46.3561 842.304 L51.2403 842.304 L51.2403 848.184 L46.3561 848.184 L46.3561 842.304 Z" fill="#000000" fill-rule="evenodd" fill-opacity="1" /><path clip-path="url(#clip2700)" d="M 0 0 M69.1569 817.698 L57.3514 836.147 L69.1569 836.147 L69.1569 817.698 M67.93 813.624 L73.8096 813.624 L73.8096 836.147 L78.7402 836.147 L78.7402 840.036 L73.8096 840.036 L73.8096 848.184 L69.1569 848.184 L69.1569 840.036 L53.5551 840.036 L53.5551 835.522 L67.93 813.624 Z" fill="#000000" fill-rule="evenodd" fill-opacity="1" /><path clip-path="url(#clip2700)" d="M 0 0 M29.6664 494.935 Q26.0553 494.935 24.2266 498.5 Q22.421 502.041 22.421 509.171 Q22.421 516.277 24.2266 519.842 Q26.0553 523.384 29.6664 523.384 Q33.3006 523.384 35.1061 519.842 Q36.9348 516.277 36.9348 509.171 Q36.9348 502.041 35.1061 498.5 Q33.3006 494.935 29.6664 494.935 M29.6664 491.231 Q35.4765 491.231 38.532 495.838 Q41.6107 500.421 41.6107 509.171 Q41.6107 517.898 38.532 522.504 Q35.4765 527.088 29.6664 527.088 Q23.8562 527.088 20.7775 522.504 Q17.722 517.898 17.722 509.171 Q17.722 500.421 20.7775 495.838 Q23.8562 491.231 29.6664 491.231 Z" fill="#000000" fill-rule="evenodd" fill-opacity="1" /><path clip-path="url(#clip2700)" d="M 0 0 M46.6802 520.537 L51.5644 520.537 L51.5644 526.416 L46.6802 526.416 L46.6802 520.537 Z" fill="#000000" fill-rule="evenodd" fill-opacity="1" /><path clip-path="url(#clip2700)" d="M 0 0 M67.2124 507.273 Q64.0643 507.273 62.2125 509.426 Q60.3838 511.578 60.3838 515.328 Q60.3838 519.055 62.2125 521.231 Q64.0643 523.384 67.2124 523.384 Q70.3606 523.384 72.1893 521.231 Q74.0411 519.055 74.0411 515.328 Q74.0411 511.578 72.1893 509.426 Q70.3606 507.273 67.2124 507.273 M76.4948 492.62 L76.4948 496.879 Q74.7356 496.046 72.93 495.606 Q71.1476 495.166 69.3884 495.166 Q64.7588 495.166 62.3051 498.291 Q59.8745 501.416 59.5273 507.736 Q60.893 505.722 62.9532 504.657 Q65.0134 503.569 67.4902 503.569 Q72.6985 503.569 75.7078 506.74 Q78.7402 509.889 78.7402 515.328 Q78.7402 520.652 75.592 523.87 Q72.4439 527.088 67.2124 527.088 Q61.2171 527.088 58.0458 522.504 Q54.8746 517.898 54.8746 509.171 Q54.8746 500.977 58.7634 496.115 Q62.6523 491.231 69.2032 491.231 Q70.9624 491.231 72.7448 491.578 Q74.5504 491.926 76.4948 492.62 Z" fill="#000000" fill-rule="evenodd" fill-opacity="1" /><path clip-path="url(#clip2700)" d="M 0 0 M29.921 173.167 Q26.3099 173.167 24.4812 176.732 Q22.6756 180.274 22.6756 187.403 Q22.6756 194.51 24.4812 198.074 Q26.3099 201.616 29.921 201.616 Q33.5552 201.616 35.3608 198.074 Q37.1895 194.51 37.1895 187.403 Q37.1895 180.274 35.3608 176.732 Q33.5552 173.167 29.921 173.167 M29.921 169.464 Q35.7311 169.464 38.7867 174.07 Q41.8654 178.653 41.8654 187.403 Q41.8654 196.13 38.7867 200.736 Q35.7311 205.32 29.921 205.32 Q24.1108 205.32 21.0321 200.736 Q17.9766 196.13 17.9766 187.403 Q17.9766 178.653 21.0321 174.07 Q24.1108 169.464 29.921 169.464 Z" fill="#000000" fill-rule="evenodd" fill-opacity="1" /><path clip-path="url(#clip2700)" d="M 0 0 M46.9348 198.769 L51.819 198.769 L51.819 204.649 L46.9348 204.649 L46.9348 198.769 Z" fill="#000000" fill-rule="evenodd" fill-opacity="1" /><path clip-path="url(#clip2700)" d="M 0 0 M66.8884 188.237 Q63.5551 188.237 61.6338 190.019 Q59.7356 191.801 59.7356 194.926 Q59.7356 198.051 61.6338 199.834 Q63.5551 201.616 66.8884 201.616 Q70.2217 201.616 72.143 199.834 Q74.0643 198.028 74.0643 194.926 Q74.0643 191.801 72.143 190.019 Q70.2448 188.237 66.8884 188.237 M62.2125 186.246 Q59.2032 185.505 57.5134 183.445 Q55.8468 181.385 55.8468 178.422 Q55.8468 174.278 58.7866 171.871 Q61.7495 169.464 66.8884 169.464 Q72.0504 169.464 74.9902 171.871 Q77.93 174.278 77.93 178.422 Q77.93 181.385 76.2402 183.445 Q74.5735 185.505 71.5874 186.246 Q74.967 187.033 76.842 189.325 Q78.7402 191.616 78.7402 194.926 Q78.7402 199.949 75.6615 202.635 Q72.6059 205.32 66.8884 205.32 Q61.1708 205.32 58.0921 202.635 Q55.0366 199.949 55.0366 194.926 Q55.0366 191.616 56.9347 189.325 Q58.8329 187.033 62.2125 186.246 M60.4995 178.862 Q60.4995 181.547 62.1662 183.051 Q63.856 184.556 66.8884 184.556 Q69.8976 184.556 71.5874 183.051 Q73.3004 181.547 73.3004 178.862 Q73.3004 176.176 71.5874 174.672 Q69.8976 173.167 66.8884 173.167 Q63.856 173.167 62.1662 174.672 Q60.4995 176.176 60.4995 178.862 Z" fill="#000000" fill-rule="evenodd" fill-opacity="1" /><path clip-path="url(#clip2700)" d="M 0 0 M1241.91 1585.57 Q1241.91 1587.37 1240.78 1588.4 Q1239.65 1589.4 1238.37 1589.4 Q1237.14 1589.4 1236.5 1588.69 Q1235.85 1587.98 1235.85 1587.08 Q1235.85 1585.86 1236.76 1584.79 Q1237.66 1583.73 1239.01 1583.51 Q1237.69 1582.67 1235.72 1582.67 Q1234.44 1582.67 1233.31 1583.34 Q1232.21 1584.02 1231.54 1584.89 Q1230.89 1585.76 1230.31 1587.02 Q1229.77 1588.24 1229.54 1588.98 Q1229.35 1589.69 1229.19 1590.46 L1226.93 1599.48 Q1225.84 1603.76 1225.84 1605.28 Q1225.84 1607.14 1226.74 1608.4 Q1227.64 1609.62 1229.44 1609.62 Q1230.15 1609.62 1230.96 1609.43 Q1231.76 1609.21 1232.79 1608.63 Q1233.86 1608.01 1234.79 1607.11 Q1235.76 1606.18 1236.69 1604.6 Q1237.62 1603.02 1238.24 1600.99 Q1238.43 1600.29 1239.07 1600.29 Q1239.88 1600.29 1239.88 1600.93 Q1239.88 1601.48 1239.43 1602.64 Q1239.01 1603.76 1238.08 1605.24 Q1237.17 1606.69 1235.98 1608.01 Q1234.79 1609.3 1233.02 1610.2 Q1231.25 1611.11 1229.32 1611.11 Q1226.55 1611.11 1224.71 1609.62 Q1222.87 1608.14 1222.2 1606.08 Q1222.04 1606.37 1221.81 1606.76 Q1221.59 1607.14 1220.91 1608.01 Q1220.27 1608.85 1219.52 1609.5 Q1218.78 1610.11 1217.62 1610.59 Q1216.5 1611.11 1215.27 1611.11 Q1213.73 1611.11 1212.34 1610.66 Q1210.99 1610.2 1210.02 1609.17 Q1209.06 1608.14 1209.06 1606.73 Q1209.06 1605.15 1210.12 1604.05 Q1211.22 1602.93 1212.7 1602.93 Q1213.63 1602.93 1214.37 1603.47 Q1215.14 1604.02 1215.14 1605.21 Q1215.14 1606.53 1214.24 1607.53 Q1213.34 1608.53 1212.05 1608.79 Q1213.37 1609.62 1215.34 1609.62 Q1217.46 1609.62 1219.14 1607.76 Q1220.81 1605.89 1221.62 1602.76 Q1223.62 1595.26 1224.39 1591.91 Q1225.16 1588.53 1225.16 1587.08 Q1225.16 1585.73 1224.81 1584.79 Q1224.45 1583.86 1223.84 1583.44 Q1223.26 1582.99 1222.71 1582.83 Q1222.2 1582.67 1221.62 1582.67 Q1220.65 1582.67 1219.56 1583.05 Q1218.49 1583.44 1217.21 1584.34 Q1215.95 1585.21 1214.76 1587.02 Q1213.57 1588.82 1212.76 1591.3 Q1212.6 1592.04 1211.89 1592.04 Q1211.12 1592.01 1211.12 1591.36 Q1211.12 1590.82 1211.54 1589.69 Q1211.99 1588.53 1212.89 1587.08 Q1213.82 1585.63 1215.02 1584.34 Q1216.24 1583.02 1218.01 1582.12 Q1219.81 1581.22 1221.75 1581.22 Q1222.62 1581.22 1223.45 1581.41 Q1224.32 1581.57 1225.35 1582.06 Q1226.42 1582.54 1227.35 1583.6 Q1228.28 1584.67 1228.86 1586.21 Q1229.25 1585.47 1229.77 1584.76 Q1230.31 1584.05 1231.15 1583.18 Q1232.02 1582.28 1233.21 1581.77 Q1234.44 1581.22 1235.79 1581.22 Q1237.11 1581.22 1238.4 1581.57 Q1239.69 1581.9 1240.78 1582.96 Q1241.91 1583.99 1241.91 1585.57 Z" fill="#000000" fill-rule="evenodd" fill-opacity="1" /><path clip-path="url(#clip2700)" d="M 0 0 M-47.5176 761.826 Q-47.0667 761.826 -46.0039 762.116 L-20.8189 768.428 Q-15.2151 769.813 -11.286 774.322 Q-7.35689 778.798 -7.35689 783.887 Q-7.35689 786.947 -8.99939 788.911 Q-10.6097 790.876 -13.0895 790.876 Q-15.2795 790.876 -16.3423 789.716 Q-17.3729 788.557 -17.3729 787.172 Q-17.3729 786.721 -17.2441 786.238 Q-17.1153 785.755 -16.5678 785.24 Q-16.0203 784.724 -15.0863 784.724 Q-13.5726 784.724 -12.381 786.045 Q-11.8335 786.689 -11.7047 787.301 Q-11.5759 787.881 -11.5759 788.879 Q-10.6741 788.492 -10.0622 787.784 Q-9.45027 787.075 -9.22483 786.27 Q-8.96718 785.465 -8.90277 784.95 Q-8.80615 784.402 -8.80615 783.887 Q-8.80615 779.765 -12.9607 776.608 Q-14.2167 775.675 -15.4728 774.998 Q-16.6966 774.29 -18.2103 773.774 Q-19.6917 773.259 -20.4969 773.034 Q-21.302 772.776 -23.1378 772.325 Q-20.1426 775.32 -20.1426 778.992 Q-20.1426 780.538 -20.5613 781.922 Q-20.98 783.275 -21.8495 784.467 Q-22.7513 785.658 -24.3294 786.367 Q-25.9075 787.043 -28.0008 787.043 Q-30.223 787.043 -33.2504 786.174 Q-36.2778 785.304 -41.8494 783.211 Q-44.9733 782.083 -46.487 782.083 Q-47.2277 782.083 -47.6786 782.245 Q-48.1617 782.406 -48.3227 782.728 Q-48.516 783.05 -48.5482 783.243 Q-48.5804 783.404 -48.5804 783.726 Q-48.5804 785.626 -46.648 787.397 Q-44.7157 789.169 -40.4001 790.393 Q-39.595 790.65 -39.4017 790.811 Q-39.2085 790.972 -39.2085 791.455 Q-39.2407 792.261 -39.8848 792.261 Q-40.1425 792.261 -41.1408 791.971 Q-42.1714 791.681 -43.6851 791.005 Q-45.231 790.296 -46.6158 789.33 Q-48.0329 788.364 -49.0313 786.85 Q-50.0297 785.304 -50.0297 783.533 Q-50.0297 781.117 -48.4516 779.636 Q-46.9057 778.122 -44.6191 778.122 Q-43.6851 778.122 -42.8477 778.38 Q-42.0426 778.605 -39.8848 779.443 Q-31.1892 782.824 -26.9381 782.824 Q-25.9075 782.824 -25.0379 782.663 Q-24.2006 782.47 -23.3632 782.051 Q-22.5581 781.633 -22.075 780.795 Q-21.6241 779.926 -21.6241 778.734 Q-21.6241 777.22 -22.3326 775.803 Q-23.0733 774.354 -24.0717 773.452 Q-25.0701 772.518 -25.9075 771.971 Q-26.777 771.391 -27.2279 771.262 L-39.0797 768.299 L-44.3614 766.979 Q-47.2277 766.367 -47.9363 766.077 Q-48.6126 765.691 -48.9669 765.014 Q-49.3211 764.338 -49.3211 763.758 Q-49.3211 762.953 -48.838 762.406 Q-48.3549 761.826 -47.5176 761.826 Z" fill="#000000" fill-rule="evenodd" fill-opacity="1" /><polyline clip-path="url(#clip2702)" style="stroke:#009af9; stroke-width:4; stroke-opacity:1; fill:none" points="
  166.42,848.154 402.271,1009.44 638.121,88.5087 873.972,416.444 1109.82,1464 1345.67,695.285 1581.52,407.855 1817.37,280.669 2053.23,256.78 2289.08,1323.68 
  
  "/>
<path clip-path="url(#clip2700)" d="
M1989.74 251.724 L2280.76 251.724 L2280.76 130.764 L1989.74 130.764  Z
  " fill="#ffffff" fill-rule="evenodd" fill-opacity="1"/>
<polyline clip-path="url(#clip2700)" style="stroke:#000000; stroke-width:4; stroke-opacity:1; fill:none" points="
  1989.74,251.724 2280.76,251.724 2280.76,130.764 1989.74,130.764 1989.74,251.724 
  "/>
<polyline clip-path="url(#clip2700)" style="stroke:#009af9; stroke-width:4; stroke-opacity:1; fill:none" points="
  2013.74,191.244 2157.74,191.244 
  "/>
<path clip-path="url(#clip2700)" d="M 0 0 M2195.58 210.931 Q2193.77 215.561 2192.06 216.973 Q2190.35 218.385 2187.48 218.385 L2184.08 218.385 L2184.08 214.82 L2186.58 214.82 Q2188.33 214.82 2189.31 213.987 Q2190.28 213.154 2191.46 210.052 L2192.22 208.107 L2181.74 182.598 L2186.25 182.598 L2194.35 202.876 L2202.46 182.598 L2206.97 182.598 L2195.58 210.931 Z" fill="#000000" fill-rule="evenodd" fill-opacity="1" /><path clip-path="url(#clip2700)" d="M 0 0 M2212.85 204.589 L2220.49 204.589 L2220.49 178.223 L2212.18 179.89 L2212.18 175.631 L2220.44 173.964 L2225.12 173.964 L2225.12 204.589 L2232.76 204.589 L2232.76 208.524 L2212.85 208.524 L2212.85 204.589 Z" fill="#000000" fill-rule="evenodd" fill-opacity="1" /></svg>
