<?xml version="1.0" encoding="utf-8"?>
<svg xmlns="http://www.w3.org/2000/svg" xmlns:xlink="http://www.w3.org/1999/xlink" width="600" height="400" viewBox="0 0 2400 1600">
<defs>
  <clipPath id="clip4100">
    <rect x="0" y="0" width="2400" height="1600"/>
  </clipPath>
</defs>
<path clip-path="url(#clip4100)" d="
M0 1600 L2400 1600 L2400 0 L0 0  Z
  " fill="#ffffff" fill-rule="evenodd" fill-opacity="1"/>
<defs>
  <clipPath id="clip4101">
    <rect x="480" y="0" width="1681" height="1600"/>
  </clipPath>
</defs>
<path clip-path="url(#clip4100)" d="
M179.769 1455.01 L2352.76 1455.01 L2352.76 47.2441 L179.769 47.2441  Z
  " fill="#ffffff" fill-rule="evenodd" fill-opacity="1"/>
<defs>
  <clipPath id="clip4102">
    <rect x="179" y="47" width="2174" height="1409"/>
  </clipPath>
</defs>
<polyline clip-path="url(#clip4102)" style="stroke:#000000; stroke-width:2; stroke-opacity:0.1; fill:none" points="
  469.045,1455.01 469.045,47.2441 
  "/>
<polyline clip-path="url(#clip4102)" style="stroke:#000000; stroke-width:2; stroke-opacity:0.1; fill:none" points="
  924.598,1455.01 924.598,47.2441 
  "/>
<polyline clip-path="url(#clip4102)" style="stroke:#000000; stroke-width:2; stroke-opacity:0.1; fill:none" points="
  1380.15,1455.01 1380.15,47.2441 
  "/>
<polyline clip-path="url(#clip4102)" style="stroke:#000000; stroke-width:2; stroke-opacity:0.1; fill:none" points="
  1835.7,1455.01 1835.7,47.2441 
  "/>
<polyline clip-path="url(#clip4102)" style="stroke:#000000; stroke-width:2; stroke-opacity:0.1; fill:none" points="
  2291.26,1455.01 2291.26,47.2441 
  "/>
<polyline clip-path="url(#clip4102)" style="stroke:#000000; stroke-width:2; stroke-opacity:0.1; fill:none" points="
  179.769,1270.8 2352.76,1270.8 
  "/>
<polyline clip-path="url(#clip4102)" style="stroke:#000000; stroke-width:2; stroke-opacity:0.1; fill:none" points="
  179.769,1031.67 2352.76,1031.67 
  "/>
<polyline clip-path="url(#clip4102)" style="stroke:#000000; stroke-width:2; stroke-opacity:0.1; fill:none" points="
  179.769,792.538 2352.76,792.538 
  "/>
<polyline clip-path="url(#clip4102)" style="stroke:#000000; stroke-width:2; stroke-opacity:0.1; fill:none" points="
  179.769,553.407 2352.76,553.407 
  "/>
<polyline clip-path="url(#clip4102)" style="stroke:#000000; stroke-width:2; stroke-opacity:0.1; fill:none" points="
  179.769,314.276 2352.76,314.276 
  "/>
<polyline clip-path="url(#clip4102)" style="stroke:#000000; stroke-width:2; stroke-opacity:0.1; fill:none" points="
  179.769,75.1455 2352.76,75.1455 
  "/>
<polyline clip-path="url(#clip4100)" style="stroke:#000000; stroke-width:4; stroke-opacity:1; fill:none" points="
  179.769,1455.01 2352.76,1455.01 
  "/>
<polyline clip-path="url(#clip4100)" style="stroke:#000000; stroke-width:4; stroke-opacity:1; fill:none" points="
  179.769,1455.01 179.769,47.2441 
  "/>
<polyline clip-path="url(#clip4100)" style="stroke:#000000; stroke-width:4; stroke-opacity:1; fill:none" points="
  469.045,1455.01 469.045,1438.12 
  "/>
<polyline clip-path="url(#clip4100)" style="stroke:#000000; stroke-width:4; stroke-opacity:1; fill:none" points="
  924.598,1455.01 924.598,1438.12 
  "/>
<polyline clip-path="url(#clip4100)" style="stroke:#000000; stroke-width:4; stroke-opacity:1; fill:none" points="
  1380.15,1455.01 1380.15,1438.12 
  "/>
<polyline clip-path="url(#clip4100)" style="stroke:#000000; stroke-width:4; stroke-opacity:1; fill:none" points="
  1835.7,1455.01 1835.7,1438.12 
  "/>
<polyline clip-path="url(#clip4100)" style="stroke:#000000; stroke-width:4; stroke-opacity:1; fill:none" points="
  2291.26,1455.01 2291.26,1438.12 
  "/>
<polyline clip-path="url(#clip4100)" style="stroke:#000000; stroke-width:4; stroke-opacity:1; fill:none" points="
  179.769,1270.8 205.845,1270.8 
  "/>
<polyline clip-path="url(#clip4100)" style="stroke:#000000; stroke-width:4; stroke-opacity:1; fill:none" points="
  179.769,1031.67 205.845,1031.67 
  "/>
<polyline clip-path="url(#clip4100)" style="stroke:#000000; stroke-width:4; stroke-opacity:1; fill:none" points="
  179.769,792.538 205.845,792.538 
  "/>
<polyline clip-path="url(#clip4100)" style="stroke:#000000; stroke-width:4; stroke-opacity:1; fill:none" points="
  179.769,553.407 205.845,553.407 
  "/>
<polyline clip-path="url(#clip4100)" style="stroke:#000000; stroke-width:4; stroke-opacity:1; fill:none" points="
  179.769,314.276 205.845,314.276 
  "/>
<polyline clip-path="url(#clip4100)" style="stroke:#000000; stroke-width:4; stroke-opacity:1; fill:none" points="
  179.769,75.1455 205.845,75.1455 
  "/>
<path clip-path="url(#clip4100)" d="M 0 0 M463.698 1504.55 L480.017 1504.55 L480.017 1508.49 L458.073 1508.49 L458.073 1504.55 Q460.735 1501.8 465.318 1497.17 Q469.924 1492.51 471.105 1491.17 Q473.35 1488.65 474.23 1486.91 Q475.133 1485.15 475.133 1483.46 Q475.133 1480.71 473.188 1478.97 Q471.267 1477.24 468.165 1477.24 Q465.966 1477.24 463.512 1478 Q461.082 1478.76 458.304 1480.31 L458.304 1475.59 Q461.128 1474.46 463.582 1473.88 Q466.036 1473.3 468.073 1473.3 Q473.443 1473.3 476.637 1475.99 Q479.832 1478.67 479.832 1483.16 Q479.832 1485.29 479.022 1487.21 Q478.235 1489.11 476.128 1491.7 Q475.549 1492.37 472.448 1495.59 Q469.346 1498.79 463.698 1504.55 Z" fill="#000000" fill-rule="evenodd" fill-opacity="1" /><path clip-path="url(#clip4100)" d="M 0 0 M927.607 1478 L915.801 1496.45 L927.607 1496.45 L927.607 1478 M926.38 1473.93 L932.26 1473.93 L932.26 1496.45 L937.19 1496.45 L937.19 1500.34 L932.26 1500.34 L932.26 1508.49 L927.607 1508.49 L927.607 1500.34 L912.005 1500.34 L912.005 1495.82 L926.38 1473.93 Z" fill="#000000" fill-rule="evenodd" fill-opacity="1" /><path clip-path="url(#clip4100)" d="M 0 0 M1380.56 1489.34 Q1377.41 1489.34 1375.56 1491.49 Q1373.73 1493.65 1373.73 1497.4 Q1373.73 1501.12 1375.56 1503.3 Q1377.41 1505.45 1380.56 1505.45 Q1383.7 1505.45 1385.53 1503.3 Q1387.38 1501.12 1387.38 1497.4 Q1387.38 1493.65 1385.53 1491.49 Q1383.7 1489.34 1380.56 1489.34 M1389.84 1474.69 L1389.84 1478.95 Q1388.08 1478.12 1386.27 1477.68 Q1384.49 1477.24 1382.73 1477.24 Q1378.1 1477.24 1375.65 1480.36 Q1373.22 1483.49 1372.87 1489.81 Q1374.24 1487.79 1376.3 1486.73 Q1378.36 1485.64 1380.83 1485.64 Q1386.04 1485.64 1389.05 1488.81 Q1392.08 1491.96 1392.08 1497.4 Q1392.08 1502.72 1388.94 1505.94 Q1385.79 1509.16 1380.56 1509.16 Q1374.56 1509.16 1371.39 1504.57 Q1368.22 1499.97 1368.22 1491.24 Q1368.22 1483.05 1372.11 1478.18 Q1376 1473.3 1382.55 1473.3 Q1384.31 1473.3 1386.09 1473.65 Q1387.89 1474 1389.84 1474.69 Z" fill="#000000" fill-rule="evenodd" fill-opacity="1" /><path clip-path="url(#clip4100)" d="M 0 0 M1835.7 1492.07 Q1832.37 1492.07 1830.45 1493.86 Q1828.55 1495.64 1828.55 1498.76 Q1828.55 1501.89 1830.45 1503.67 Q1832.37 1505.45 1835.7 1505.45 Q1839.04 1505.45 1840.96 1503.67 Q1842.88 1501.87 1842.88 1498.76 Q1842.88 1495.64 1840.96 1493.86 Q1839.06 1492.07 1835.7 1492.07 M1831.03 1490.08 Q1828.02 1489.34 1826.33 1487.28 Q1824.66 1485.22 1824.66 1482.26 Q1824.66 1478.12 1827.6 1475.71 Q1830.56 1473.3 1835.7 1473.3 Q1840.87 1473.3 1843.81 1475.71 Q1846.75 1478.12 1846.75 1482.26 Q1846.75 1485.22 1845.06 1487.28 Q1843.39 1489.34 1840.4 1490.08 Q1843.78 1490.87 1845.66 1493.16 Q1847.56 1495.45 1847.56 1498.76 Q1847.56 1503.79 1844.48 1506.47 Q1841.42 1509.16 1835.7 1509.16 Q1829.99 1509.16 1826.91 1506.47 Q1823.85 1503.79 1823.85 1498.76 Q1823.85 1495.45 1825.75 1493.16 Q1827.65 1490.87 1831.03 1490.08 M1829.31 1482.7 Q1829.31 1485.38 1830.98 1486.89 Q1832.67 1488.39 1835.7 1488.39 Q1838.71 1488.39 1840.4 1486.89 Q1842.12 1485.38 1842.12 1482.7 Q1842.12 1480.01 1840.4 1478.51 Q1838.71 1477 1835.7 1477 Q1832.67 1477 1830.98 1478.51 Q1829.31 1480.01 1829.31 1482.7 Z" fill="#000000" fill-rule="evenodd" fill-opacity="1" /><path clip-path="url(#clip4100)" d="M 0 0 M2268.13 1504.55 L2275.77 1504.55 L2275.77 1478.18 L2267.46 1479.85 L2267.46 1475.59 L2275.72 1473.93 L2280.4 1473.93 L2280.4 1504.55 L2288.04 1504.55 L2288.04 1508.49 L2268.13 1508.49 L2268.13 1504.55 Z" fill="#000000" fill-rule="evenodd" fill-opacity="1" /><path clip-path="url(#clip4100)" d="M 0 0 M2303.11 1477 Q2299.5 1477 2297.67 1480.57 Q2295.86 1484.11 2295.86 1491.24 Q2295.86 1498.35 2297.67 1501.91 Q2299.5 1505.45 2303.11 1505.45 Q2306.74 1505.45 2308.55 1501.91 Q2310.38 1498.35 2310.38 1491.24 Q2310.38 1484.11 2308.55 1480.57 Q2306.74 1477 2303.11 1477 M2303.11 1473.3 Q2308.92 1473.3 2311.97 1477.91 Q2315.05 1482.49 2315.05 1491.24 Q2315.05 1499.97 2311.97 1504.57 Q2308.92 1509.16 2303.11 1509.16 Q2297.3 1509.16 2294.22 1504.57 Q2291.16 1499.97 2291.16 1491.24 Q2291.16 1482.49 2294.22 1477.91 Q2297.3 1473.3 2303.11 1473.3 Z" fill="#000000" fill-rule="evenodd" fill-opacity="1" /><path clip-path="url(#clip4100)" d="M 0 0 M107.505 1256.6 Q103.894 1256.6 102.065 1260.16 Q100.26 1263.7 100.26 1270.83 Q100.26 1277.94 102.065 1281.51 Q103.894 1285.05 107.505 1285.05 Q111.139 1285.05 112.945 1281.51 Q114.774 1277.94 114.774 1270.83 Q114.774 1263.7 112.945 1260.16 Q111.139 1256.6 107.505 1256.6 M107.505 1252.89 Q113.315 1252.89 116.371 1257.5 Q119.449 1262.08 119.449 1270.83 Q119.449 1279.56 116.371 1284.17 Q113.315 1288.75 107.505 1288.75 Q101.695 1288.75 98.6162 1284.17 Q95.5607 1279.56 95.5607 1270.83 Q95.5607 1262.08 98.6162 1257.5 Q101.695 1252.89 107.505 1252.89 Z" fill="#000000" fill-rule="evenodd" fill-opacity="1" /><path clip-path="url(#clip4100)" d="M 0 0 M124.519 1282.2 L129.403 1282.2 L129.403 1288.08 L124.519 1288.08 L124.519 1282.2 Z" fill="#000000" fill-rule="evenodd" fill-opacity="1" /><path clip-path="url(#clip4100)" d="M 0 0 M148.639 1269.45 Q151.996 1270.16 153.871 1272.43 Q155.769 1274.7 155.769 1278.03 Q155.769 1283.15 152.25 1285.95 Q148.732 1288.75 142.25 1288.75 Q140.074 1288.75 137.76 1288.31 Q135.468 1287.89 133.014 1287.04 L133.014 1282.52 Q134.959 1283.66 137.273 1284.24 Q139.588 1284.82 142.111 1284.82 Q146.509 1284.82 148.801 1283.08 Q151.116 1281.34 151.116 1278.03 Q151.116 1274.98 148.963 1273.26 Q146.834 1271.53 143.014 1271.53 L138.986 1271.53 L138.986 1267.69 L143.199 1267.69 Q146.648 1267.69 148.477 1266.32 Q150.306 1264.93 150.306 1262.34 Q150.306 1259.68 148.408 1258.26 Q146.533 1256.83 143.014 1256.83 Q141.093 1256.83 138.894 1257.25 Q136.695 1257.66 134.056 1258.54 L134.056 1254.38 Q136.718 1253.64 139.033 1253.26 Q141.371 1252.89 143.431 1252.89 Q148.755 1252.89 151.857 1255.33 Q154.959 1257.73 154.959 1261.85 Q154.959 1264.72 153.315 1266.71 Q151.671 1268.68 148.639 1269.45 Z" fill="#000000" fill-rule="evenodd" fill-opacity="1" /><path clip-path="url(#clip4100)" d="M 0 0 M106.371 1017.47 Q102.76 1017.47 100.931 1021.03 Q99.1255 1024.57 99.1255 1031.7 Q99.1255 1038.81 100.931 1042.37 Q102.76 1045.92 106.371 1045.92 Q110.005 1045.92 111.811 1042.37 Q113.639 1038.81 113.639 1031.7 Q113.639 1024.57 111.811 1021.03 Q110.005 1017.47 106.371 1017.47 M106.371 1013.76 Q112.181 1013.76 115.237 1018.37 Q118.315 1022.95 118.315 1031.7 Q118.315 1040.43 115.237 1045.04 Q112.181 1049.62 106.371 1049.62 Q100.561 1049.62 97.482 1045.04 Q94.4264 1040.43 94.4264 1031.7 Q94.4264 1022.95 97.482 1018.37 Q100.561 1013.76 106.371 1013.76 Z" fill="#000000" fill-rule="evenodd" fill-opacity="1" /><path clip-path="url(#clip4100)" d="M 0 0 M123.385 1043.07 L128.269 1043.07 L128.269 1048.95 L123.385 1048.95 L123.385 1043.07 Z" fill="#000000" fill-rule="evenodd" fill-opacity="1" /><path clip-path="url(#clip4100)" d="M 0 0 M146.185 1018.46 L134.38 1036.91 L146.185 1036.91 L146.185 1018.46 M144.959 1014.39 L150.838 1014.39 L150.838 1036.91 L155.769 1036.91 L155.769 1040.8 L150.838 1040.8 L150.838 1048.95 L146.185 1048.95 L146.185 1040.8 L130.584 1040.8 L130.584 1036.29 L144.959 1014.39 Z" fill="#000000" fill-rule="evenodd" fill-opacity="1" /><path clip-path="url(#clip4100)" d="M 0 0 M107.852 778.337 Q104.241 778.337 102.413 781.901 Q100.607 785.443 100.607 792.573 Q100.607 799.679 102.413 803.244 Q104.241 806.786 107.852 806.786 Q111.487 806.786 113.292 803.244 Q115.121 799.679 115.121 792.573 Q115.121 785.443 113.292 781.901 Q111.487 778.337 107.852 778.337 M107.852 774.633 Q113.662 774.633 116.718 779.239 Q119.797 783.823 119.797 792.573 Q119.797 801.299 116.718 805.906 Q113.662 810.489 107.852 810.489 Q102.042 810.489 98.9634 805.906 Q95.9079 801.299 95.9079 792.573 Q95.9079 783.823 98.9634 779.239 Q102.042 774.633 107.852 774.633 Z" fill="#000000" fill-rule="evenodd" fill-opacity="1" /><path clip-path="url(#clip4100)" d="M 0 0 M124.866 803.938 L129.75 803.938 L129.75 809.818 L124.866 809.818 L124.866 803.938 Z" fill="#000000" fill-rule="evenodd" fill-opacity="1" /><path clip-path="url(#clip4100)" d="M 0 0 M134.866 775.258 L153.222 775.258 L153.222 779.193 L139.148 779.193 L139.148 787.665 Q140.167 787.318 141.185 787.156 Q142.204 786.971 143.222 786.971 Q149.009 786.971 152.389 790.142 Q155.769 793.313 155.769 798.73 Q155.769 804.309 152.296 807.411 Q148.824 810.489 142.505 810.489 Q140.329 810.489 138.06 810.119 Q135.815 809.748 133.408 809.008 L133.408 804.309 Q135.491 805.443 137.713 805.998 Q139.935 806.554 142.412 806.554 Q146.417 806.554 148.755 804.448 Q151.093 802.341 151.093 798.73 Q151.093 795.119 148.755 793.012 Q146.417 790.906 142.412 790.906 Q140.537 790.906 138.662 791.323 Q136.81 791.739 134.866 792.619 L134.866 775.258 Z" fill="#000000" fill-rule="evenodd" fill-opacity="1" /><path clip-path="url(#clip4100)" d="M 0 0 M106.695 539.206 Q103.084 539.206 101.255 542.771 Q99.4496 546.312 99.4496 553.442 Q99.4496 560.548 101.255 564.113 Q103.084 567.655 106.695 567.655 Q110.329 567.655 112.135 564.113 Q113.963 560.548 113.963 553.442 Q113.963 546.312 112.135 542.771 Q110.329 539.206 106.695 539.206 M106.695 535.502 Q112.505 535.502 115.561 540.109 Q118.639 544.692 118.639 553.442 Q118.639 562.169 115.561 566.775 Q112.505 571.358 106.695 571.358 Q100.885 571.358 97.806 566.775 Q94.7505 562.169 94.7505 553.442 Q94.7505 544.692 97.806 540.109 Q100.885 535.502 106.695 535.502 Z" fill="#000000" fill-rule="evenodd" fill-opacity="1" /><path clip-path="url(#clip4100)" d="M 0 0 M123.709 564.808 L128.593 564.808 L128.593 570.687 L123.709 570.687 L123.709 564.808 Z" fill="#000000" fill-rule="evenodd" fill-opacity="1" /><path clip-path="url(#clip4100)" d="M 0 0 M144.241 551.544 Q141.093 551.544 139.241 553.696 Q137.412 555.849 137.412 559.599 Q137.412 563.326 139.241 565.502 Q141.093 567.655 144.241 567.655 Q147.389 567.655 149.218 565.502 Q151.07 563.326 151.07 559.599 Q151.07 555.849 149.218 553.696 Q147.389 551.544 144.241 551.544 M153.523 536.891 L153.523 541.15 Q151.764 540.317 149.959 539.877 Q148.176 539.437 146.417 539.437 Q141.787 539.437 139.334 542.562 Q136.903 545.687 136.556 552.007 Q137.922 549.993 139.982 548.928 Q142.042 547.84 144.519 547.84 Q149.727 547.84 152.736 551.011 Q155.769 554.159 155.769 559.599 Q155.769 564.923 152.621 568.141 Q149.472 571.358 144.241 571.358 Q138.246 571.358 135.074 566.775 Q131.903 562.169 131.903 553.442 Q131.903 545.247 135.792 540.386 Q139.681 535.502 146.232 535.502 Q147.991 535.502 149.773 535.849 Q151.579 536.197 153.523 536.891 Z" fill="#000000" fill-rule="evenodd" fill-opacity="1" /><path clip-path="url(#clip4100)" d="M 0 0 M107.76 300.075 Q104.149 300.075 102.32 303.64 Q100.514 307.181 100.514 314.311 Q100.514 321.417 102.32 324.982 Q104.149 328.524 107.76 328.524 Q111.394 328.524 113.199 324.982 Q115.028 321.417 115.028 314.311 Q115.028 307.181 113.199 303.64 Q111.394 300.075 107.76 300.075 M107.76 296.371 Q113.57 296.371 116.625 300.978 Q119.704 305.561 119.704 314.311 Q119.704 323.038 116.625 327.644 Q113.57 332.228 107.76 332.228 Q101.95 332.228 98.8709 327.644 Q95.8153 323.038 95.8153 314.311 Q95.8153 305.561 98.8709 300.978 Q101.95 296.371 107.76 296.371 Z" fill="#000000" fill-rule="evenodd" fill-opacity="1" /><path clip-path="url(#clip4100)" d="M 0 0 M124.773 325.677 L129.658 325.677 L129.658 331.556 L124.773 331.556 L124.773 325.677 Z" fill="#000000" fill-rule="evenodd" fill-opacity="1" /><path clip-path="url(#clip4100)" d="M 0 0 M133.547 296.996 L155.769 296.996 L155.769 298.987 L143.222 331.556 L138.338 331.556 L150.144 300.931 L133.547 300.931 L133.547 296.996 Z" fill="#000000" fill-rule="evenodd" fill-opacity="1" /><path clip-path="url(#clip4100)" d="M 0 0 M106.95 60.9442 Q103.338 60.9442 101.51 64.509 Q99.7042 68.0506 99.7042 75.1802 Q99.7042 82.2867 101.51 85.8515 Q103.338 89.3931 106.95 89.3931 Q110.584 89.3931 112.389 85.8515 Q114.218 82.2867 114.218 75.1802 Q114.218 68.0506 112.389 64.509 Q110.584 60.9442 106.95 60.9442 M106.95 57.2405 Q112.76 57.2405 115.815 61.847 Q118.894 66.4303 118.894 75.1802 Q118.894 83.907 115.815 88.5135 Q112.76 93.0968 106.95 93.0968 Q101.139 93.0968 98.0607 88.5135 Q95.0051 83.907 95.0051 75.1802 Q95.0051 66.4303 98.0607 61.847 Q101.139 57.2405 106.95 57.2405 Z" fill="#000000" fill-rule="evenodd" fill-opacity="1" /><path clip-path="url(#clip4100)" d="M 0 0 M123.963 86.5459 L128.848 86.5459 L128.848 92.4255 L123.963 92.4255 L123.963 86.5459 Z" fill="#000000" fill-rule="evenodd" fill-opacity="1" /><path clip-path="url(#clip4100)" d="M 0 0 M143.917 76.0136 Q140.584 76.0136 138.662 77.796 Q136.764 79.5784 136.764 82.7033 Q136.764 85.8283 138.662 87.6107 Q140.584 89.3931 143.917 89.3931 Q147.25 89.3931 149.172 87.6107 Q151.093 85.8052 151.093 82.7033 Q151.093 79.5784 149.172 77.796 Q147.273 76.0136 143.917 76.0136 M139.241 74.0228 Q136.232 73.2821 134.542 71.2219 Q132.875 69.1617 132.875 66.1988 Q132.875 62.0553 135.815 59.6479 Q138.778 57.2405 143.917 57.2405 Q149.079 57.2405 152.019 59.6479 Q154.959 62.0553 154.959 66.1988 Q154.959 69.1617 153.269 71.2219 Q151.602 73.2821 148.616 74.0228 Q151.996 74.8099 153.871 77.1015 Q155.769 79.3932 155.769 82.7033 Q155.769 87.7265 152.69 90.4116 Q149.634 93.0968 143.917 93.0968 Q138.199 93.0968 135.121 90.4116 Q132.065 87.7265 132.065 82.7033 Q132.065 79.3932 133.963 77.1015 Q135.861 74.8099 139.241 74.0228 M137.528 66.6386 Q137.528 69.3238 139.195 70.8284 Q140.885 72.333 143.917 72.333 Q146.926 72.333 148.616 70.8284 Q150.329 69.3238 150.329 66.6386 Q150.329 63.9534 148.616 62.4488 Q146.926 60.9442 143.917 60.9442 Q140.885 60.9442 139.195 62.4488 Q137.528 63.9534 137.528 66.6386 Z" fill="#000000" fill-rule="evenodd" fill-opacity="1" /><path clip-path="url(#clip4100)" d="M 0 0 M1280.42 1535.32 Q1280.42 1537.12 1279.3 1538.15 Q1278.17 1539.15 1276.88 1539.15 Q1275.66 1539.15 1275.01 1538.44 Q1274.37 1537.74 1274.37 1536.83 Q1274.37 1535.61 1275.27 1534.55 Q1276.17 1533.48 1277.52 1533.26 Q1276.2 1532.42 1274.24 1532.42 Q1272.95 1532.42 1271.82 1533.1 Q1270.73 1533.77 1270.05 1534.64 Q1269.41 1535.51 1268.83 1536.77 Q1268.28 1537.99 1268.06 1538.73 Q1267.86 1539.44 1267.7 1540.22 L1265.45 1549.23 Q1264.35 1553.52 1264.35 1555.03 Q1264.35 1556.9 1265.25 1558.15 Q1266.16 1559.38 1267.96 1559.38 Q1268.67 1559.38 1269.47 1559.19 Q1270.28 1558.96 1271.31 1558.38 Q1272.37 1557.77 1273.3 1556.87 Q1274.27 1555.93 1275.2 1554.35 Q1276.14 1552.78 1276.75 1550.75 Q1276.94 1550.04 1277.59 1550.04 Q1278.39 1550.04 1278.39 1550.68 Q1278.39 1551.23 1277.94 1552.39 Q1277.52 1553.52 1276.59 1555 Q1275.69 1556.45 1274.5 1557.77 Q1273.3 1559.06 1271.53 1559.96 Q1269.76 1560.86 1267.83 1560.86 Q1265.06 1560.86 1263.22 1559.38 Q1261.39 1557.9 1260.71 1555.84 Q1260.55 1556.13 1260.33 1556.51 Q1260.1 1556.9 1259.42 1557.77 Q1258.78 1558.61 1258.04 1559.25 Q1257.3 1559.86 1256.14 1560.34 Q1255.01 1560.86 1253.79 1560.86 Q1252.24 1560.86 1250.86 1560.41 Q1249.5 1559.96 1248.54 1558.93 Q1247.57 1557.9 1247.57 1556.48 Q1247.57 1554.9 1248.64 1553.81 Q1249.73 1552.68 1251.21 1552.68 Q1252.15 1552.68 1252.89 1553.23 Q1253.66 1553.77 1253.66 1554.97 Q1253.66 1556.29 1252.76 1557.29 Q1251.86 1558.28 1250.57 1558.54 Q1251.89 1559.38 1253.85 1559.38 Q1255.98 1559.38 1257.65 1557.51 Q1259.33 1555.64 1260.13 1552.52 Q1262.13 1545.01 1262.9 1541.67 Q1263.68 1538.28 1263.68 1536.83 Q1263.68 1535.48 1263.32 1534.55 Q1262.97 1533.61 1262.35 1533.2 Q1261.78 1532.74 1261.23 1532.58 Q1260.71 1532.42 1260.13 1532.42 Q1259.17 1532.42 1258.07 1532.81 Q1257.01 1533.2 1255.72 1534.1 Q1254.46 1534.97 1253.27 1536.77 Q1252.08 1538.57 1251.28 1541.05 Q1251.11 1541.79 1250.41 1541.79 Q1249.63 1541.76 1249.63 1541.12 Q1249.63 1540.57 1250.05 1539.44 Q1250.5 1538.28 1251.4 1536.83 Q1252.34 1535.39 1253.53 1534.1 Q1254.75 1532.78 1256.53 1531.87 Q1258.33 1530.97 1260.26 1530.97 Q1261.13 1530.97 1261.97 1531.17 Q1262.84 1531.33 1263.87 1531.81 Q1264.93 1532.29 1265.87 1533.36 Q1266.8 1534.42 1267.38 1535.96 Q1267.77 1535.22 1268.28 1534.52 Q1268.83 1533.81 1269.67 1532.94 Q1270.54 1532.04 1271.73 1531.52 Q1272.95 1530.97 1274.3 1530.97 Q1275.62 1530.97 1276.91 1531.33 Q1278.2 1531.65 1279.3 1532.71 Q1280.42 1533.74 1280.42 1535.32 Z" fill="#000000" fill-rule="evenodd" fill-opacity="1" /><path clip-path="url(#clip4100)" d="M 0 0 M29.5109 736.703 Q29.9618 736.703 31.0246 736.993 L56.2096 743.305 Q61.8134 744.69 65.7425 749.199 Q69.6716 753.675 69.6716 758.764 Q69.6716 761.823 68.0291 763.788 Q66.4189 765.753 63.939 765.753 Q61.749 765.753 60.6862 764.593 Q59.6556 763.434 59.6556 762.049 Q59.6556 761.598 59.7844 761.115 Q59.9133 760.632 60.4608 760.117 Q61.0083 759.601 61.9422 759.601 Q63.4559 759.601 64.6475 760.922 Q65.195 761.566 65.3239 762.178 Q65.4527 762.757 65.4527 763.756 Q66.3544 763.369 66.9664 762.661 Q67.5783 761.952 67.8037 761.147 Q68.0614 760.342 68.1258 759.827 Q68.2224 759.279 68.2224 758.764 Q68.2224 754.642 64.0678 751.485 Q62.8118 750.551 61.5558 749.875 Q60.3319 749.167 58.8183 748.651 Q57.3368 748.136 56.5317 747.911 Q55.7265 747.653 53.8908 747.202 Q56.8859 750.197 56.8859 753.869 Q56.8859 755.414 56.4672 756.799 Q56.0486 758.152 55.179 759.344 Q54.2772 760.535 52.6992 761.244 Q51.1211 761.92 49.0277 761.92 Q46.8055 761.92 43.7781 761.05 Q40.7508 760.181 35.1792 758.088 Q32.0552 756.96 30.5415 756.96 Q29.8008 756.96 29.3499 757.121 Q28.8668 757.282 28.7058 757.604 Q28.5126 757.927 28.4803 758.12 Q28.4481 758.281 28.4481 758.603 Q28.4481 760.503 30.3805 762.274 Q32.3128 764.046 36.6284 765.269 Q37.4336 765.527 37.6268 765.688 Q37.82 765.849 37.82 766.332 Q37.7878 767.137 37.1437 767.137 Q36.8861 767.137 35.8877 766.848 Q34.8571 766.558 33.3434 765.881 Q31.7976 765.173 30.4127 764.207 Q28.9956 763.24 27.9973 761.727 Q26.9989 760.181 26.9989 758.41 Q26.9989 755.994 28.577 754.513 Q30.1228 752.999 32.4095 752.999 Q33.3434 752.999 34.1808 753.257 Q34.9859 753.482 37.1437 754.319 Q45.8393 757.701 50.0905 757.701 Q51.1211 757.701 51.9906 757.54 Q52.828 757.347 53.6653 756.928 Q54.4705 756.509 54.9536 755.672 Q55.4044 754.803 55.4044 753.611 Q55.4044 752.097 54.6959 750.68 Q53.9552 749.231 52.9568 748.329 Q51.9584 747.395 51.1211 746.848 Q50.2515 746.268 49.8006 746.139 L37.9489 743.176 L32.6671 741.856 Q29.8008 741.244 29.0923 740.954 Q28.4159 740.568 28.0617 739.891 Q27.7074 739.215 27.7074 738.635 Q27.7074 737.83 28.1905 737.283 Q28.6736 736.703 29.5109 736.703 Z" fill="#000000" fill-rule="evenodd" fill-opacity="1" /><polyline clip-path="url(#clip4102)" style="stroke:#009af9; stroke-width:4; stroke-opacity:1; fill:none" points="
  241.268,1405.62 469.045,93.192 696.821,881.416 924.598,1184.71 1152.37,87.0866 1380.15,369.408 1607.93,663.237 1835.7,1136.13 2063.48,1129.45 2291.26,1415.17 
  
  "/>
<path clip-path="url(#clip4100)" d="
M1989.74 251.724 L2280.76 251.724 L2280.76 130.764 L1989.74 130.764  Z
  " fill="#ffffff" fill-rule="evenodd" fill-opacity="1"/>
<polyline clip-path="url(#clip4100)" style="stroke:#000000; stroke-width:4; stroke-opacity:1; fill:none" points="
  1989.74,251.724 2280.76,251.724 2280.76,130.764 1989.74,130.764 1989.74,251.724 
  "/>
<polyline clip-path="url(#clip4100)" style="stroke:#009af9; stroke-width:4; stroke-opacity:1; fill:none" points="
  2013.74,191.244 2157.74,191.244 
  "/>
<path clip-path="url(#clip4100)" d="M 0 0 M2195.58 210.931 Q2193.77 215.561 2192.06 216.973 Q2190.35 218.385 2187.48 218.385 L2184.08 218.385 L2184.08 214.82 L2186.58 214.82 Q2188.33 214.82 2189.31 213.987 Q2190.28 213.154 2191.46 210.052 L2192.22 208.107 L2181.74 182.598 L2186.25 182.598 L2194.35 202.876 L2202.46 182.598 L2206.97 182.598 L2195.58 210.931 Z" fill="#000000" fill-rule="evenodd" fill-opacity="1" /><path clip-path="url(#clip4100)" d="M 0 0 M2212.85 204.589 L2220.49 204.589 L2220.49 178.223 L2212.18 179.89 L2212.18 175.631 L2220.44 173.964 L2225.12 173.964 L2225.12 204.589 L2232.76 204.589 L2232.76 208.524 L2212.85 208.524 L2212.85 204.589 Z" fill="#000000" fill-rule="evenodd" fill-opacity="1" /></svg>
