<?xml version="1.0" encoding="utf-8"?>
<svg xmlns="http://www.w3.org/2000/svg" xmlns:xlink="http://www.w3.org/1999/xlink" width="600" height="400" viewBox="0 0 2400 1600">
<defs>
  <clipPath id="clip590">
    <rect x="0" y="0" width="2400" height="1600"/>
  </clipPath>
</defs>
<path clip-path="url(#clip590)" d="
M0 1600 L2400 1600 L2400 0 L0 0  Z
  " fill="#ffffff" fill-rule="evenodd" fill-opacity="1"/>
<defs>
  <clipPath id="clip591">
    <rect x="480" y="0" width="1681" height="1600"/>
  </clipPath>
</defs>
<path clip-path="url(#clip590)" d="
M206.296 1455.01 L2352.76 1455.01 L2352.76 78.6784 L206.296 78.6784  Z
  " fill="#ffffff" fill-rule="evenodd" fill-opacity="1"/>
<defs>
  <clipPath id="clip592">
    <rect x="206" y="78" width="2147" height="1377"/>
  </clipPath>
</defs>
<polyline clip-path="url(#clip592)" style="stroke:#000000; stroke-width:2; stroke-opacity:0.1; fill:none" points="
  492.041,1455.01 492.041,78.6784 
  "/>
<polyline clip-path="url(#clip592)" style="stroke:#000000; stroke-width:2; stroke-opacity:0.1; fill:none" points="
  942.032,1455.01 942.032,78.6784 
  "/>
<polyline clip-path="url(#clip592)" style="stroke:#000000; stroke-width:2; stroke-opacity:0.1; fill:none" points="
  1392.02,1455.01 1392.02,78.6784 
  "/>
<polyline clip-path="url(#clip592)" style="stroke:#000000; stroke-width:2; stroke-opacity:0.1; fill:none" points="
  1842.02,1455.01 1842.02,78.6784 
  "/>
<polyline clip-path="url(#clip592)" style="stroke:#000000; stroke-width:2; stroke-opacity:0.1; fill:none" points="
  2292.01,1455.01 2292.01,78.6784 
  "/>
<polyline clip-path="url(#clip592)" style="stroke:#000000; stroke-width:2; stroke-opacity:0.1; fill:none" points="
  206.296,1423.38 2352.76,1423.38 
  "/>
<polyline clip-path="url(#clip592)" style="stroke:#000000; stroke-width:2; stroke-opacity:0.1; fill:none" points="
  206.296,1094.49 2352.76,1094.49 
  "/>
<polyline clip-path="url(#clip592)" style="stroke:#000000; stroke-width:2; stroke-opacity:0.1; fill:none" points="
  206.296,765.613 2352.76,765.613 
  "/>
<polyline clip-path="url(#clip592)" style="stroke:#000000; stroke-width:2; stroke-opacity:0.1; fill:none" points="
  206.296,436.732 2352.76,436.732 
  "/>
<polyline clip-path="url(#clip592)" style="stroke:#000000; stroke-width:2; stroke-opacity:0.1; fill:none" points="
  206.296,107.85 2352.76,107.85 
  "/>
<polyline clip-path="url(#clip590)" style="stroke:#000000; stroke-width:4; stroke-opacity:1; fill:none" points="
  206.296,1455.01 2352.76,1455.01 
  "/>
<polyline clip-path="url(#clip590)" style="stroke:#000000; stroke-width:4; stroke-opacity:1; fill:none" points="
  206.296,1455.01 206.296,78.6784 
  "/>
<polyline clip-path="url(#clip590)" style="stroke:#000000; stroke-width:4; stroke-opacity:1; fill:none" points="
  492.041,1455.01 492.041,1438.5 
  "/>
<polyline clip-path="url(#clip590)" style="stroke:#000000; stroke-width:4; stroke-opacity:1; fill:none" points="
  942.032,1455.01 942.032,1438.5 
  "/>
<polyline clip-path="url(#clip590)" style="stroke:#000000; stroke-width:4; stroke-opacity:1; fill:none" points="
  1392.02,1455.01 1392.02,1438.5 
  "/>
<polyline clip-path="url(#clip590)" style="stroke:#000000; stroke-width:4; stroke-opacity:1; fill:none" points="
  1842.02,1455.01 1842.02,1438.5 
  "/>
<polyline clip-path="url(#clip590)" style="stroke:#000000; stroke-width:4; stroke-opacity:1; fill:none" points="
  2292.01,1455.01 2292.01,1438.5 
  "/>
<polyline clip-path="url(#clip590)" style="stroke:#000000; stroke-width:4; stroke-opacity:1; fill:none" points="
  206.296,1423.38 232.054,1423.38 
  "/>
<polyline clip-path="url(#clip590)" style="stroke:#000000; stroke-width:4; stroke-opacity:1; fill:none" points="
  206.296,1094.49 232.054,1094.49 
  "/>
<polyline clip-path="url(#clip590)" style="stroke:#000000; stroke-width:4; stroke-opacity:1; fill:none" points="
  206.296,765.613 232.054,765.613 
  "/>
<polyline clip-path="url(#clip590)" style="stroke:#000000; stroke-width:4; stroke-opacity:1; fill:none" points="
  206.296,436.732 232.054,436.732 
  "/>
<polyline clip-path="url(#clip590)" style="stroke:#000000; stroke-width:4; stroke-opacity:1; fill:none" points="
  206.296,107.85 232.054,107.85 
  "/>
<path clip-path="url(#clip590)" d="M 0 0 M486.694 1504.55 L503.013 1504.55 L503.013 1508.49 L481.069 1508.49 L481.069 1504.55 Q483.731 1501.8 488.314 1497.17 Q492.921 1492.51 494.101 1491.17 Q496.346 1488.65 497.226 1486.91 Q498.129 1485.15 498.129 1483.46 Q498.129 1480.71 496.184 1478.97 Q494.263 1477.24 491.161 1477.24 Q488.962 1477.24 486.509 1478 Q484.078 1478.76 481.3 1480.31 L481.3 1475.59 Q484.124 1474.46 486.578 1473.88 Q489.032 1473.3 491.069 1473.3 Q496.439 1473.3 499.634 1475.99 Q502.828 1478.67 502.828 1483.16 Q502.828 1485.29 502.018 1487.21 Q501.231 1489.11 499.124 1491.7 Q498.546 1492.37 495.444 1495.59 Q492.342 1498.79 486.694 1504.55 Z" fill="#000000" fill-rule="evenodd" fill-opacity="1" /><path clip-path="url(#clip590)" d="M 0 0 M945.042 1478 L933.236 1496.45 L945.042 1496.45 L945.042 1478 M943.815 1473.93 L949.694 1473.93 L949.694 1496.45 L954.625 1496.45 L954.625 1500.34 L949.694 1500.34 L949.694 1508.49 L945.042 1508.49 L945.042 1500.34 L929.44 1500.34 L929.44 1495.82 L943.815 1473.93 Z" fill="#000000" fill-rule="evenodd" fill-opacity="1" /><path clip-path="url(#clip590)" d="M 0 0 M1392.43 1489.34 Q1389.28 1489.34 1387.43 1491.49 Q1385.6 1493.65 1385.6 1497.4 Q1385.6 1501.12 1387.43 1503.3 Q1389.28 1505.45 1392.43 1505.45 Q1395.58 1505.45 1397.41 1503.3 Q1399.26 1501.12 1399.26 1497.4 Q1399.26 1493.65 1397.41 1491.49 Q1395.58 1489.34 1392.43 1489.34 M1401.71 1474.69 L1401.71 1478.95 Q1399.95 1478.12 1398.15 1477.68 Q1396.36 1477.24 1394.61 1477.24 Q1389.98 1477.24 1387.52 1480.36 Q1385.09 1483.49 1384.74 1489.81 Q1386.11 1487.79 1388.17 1486.73 Q1390.23 1485.64 1392.71 1485.64 Q1397.92 1485.64 1400.92 1488.81 Q1403.96 1491.96 1403.96 1497.4 Q1403.96 1502.72 1400.81 1505.94 Q1397.66 1509.16 1392.43 1509.16 Q1386.43 1509.16 1383.26 1504.57 Q1380.09 1499.97 1380.09 1491.24 Q1380.09 1483.05 1383.98 1478.18 Q1387.87 1473.3 1394.42 1473.3 Q1396.18 1473.3 1397.96 1473.65 Q1399.77 1474 1401.71 1474.69 Z" fill="#000000" fill-rule="evenodd" fill-opacity="1" /><path clip-path="url(#clip590)" d="M 0 0 M1842.02 1492.07 Q1838.68 1492.07 1836.76 1493.86 Q1834.86 1495.64 1834.86 1498.76 Q1834.86 1501.89 1836.76 1503.67 Q1838.68 1505.45 1842.02 1505.45 Q1845.35 1505.45 1847.27 1503.67 Q1849.19 1501.87 1849.19 1498.76 Q1849.19 1495.64 1847.27 1493.86 Q1845.37 1492.07 1842.02 1492.07 M1837.34 1490.08 Q1834.33 1489.34 1832.64 1487.28 Q1830.97 1485.22 1830.97 1482.26 Q1830.97 1478.12 1833.91 1475.71 Q1836.88 1473.3 1842.02 1473.3 Q1847.18 1473.3 1850.12 1475.71 Q1853.06 1478.12 1853.06 1482.26 Q1853.06 1485.22 1851.37 1487.28 Q1849.7 1489.34 1846.71 1490.08 Q1850.09 1490.87 1851.97 1493.16 Q1853.87 1495.45 1853.87 1498.76 Q1853.87 1503.79 1850.79 1506.47 Q1847.73 1509.16 1842.02 1509.16 Q1836.3 1509.16 1833.22 1506.47 Q1830.16 1503.79 1830.16 1498.76 Q1830.16 1495.45 1832.06 1493.16 Q1833.96 1490.87 1837.34 1490.08 M1835.63 1482.7 Q1835.63 1485.38 1837.29 1486.89 Q1838.98 1488.39 1842.02 1488.39 Q1845.02 1488.39 1846.71 1486.89 Q1848.43 1485.38 1848.43 1482.7 Q1848.43 1480.01 1846.71 1478.51 Q1845.02 1477 1842.02 1477 Q1838.98 1477 1837.29 1478.51 Q1835.63 1480.01 1835.63 1482.7 Z" fill="#000000" fill-rule="evenodd" fill-opacity="1" /><path clip-path="url(#clip590)" d="M 0 0 M2268.88 1504.55 L2276.52 1504.55 L2276.52 1478.18 L2268.21 1479.85 L2268.21 1475.59 L2276.47 1473.93 L2281.15 1473.93 L2281.15 1504.55 L2288.79 1504.55 L2288.79 1508.49 L2268.88 1508.49 L2268.88 1504.55 Z" fill="#000000" fill-rule="evenodd" fill-opacity="1" /><path clip-path="url(#clip590)" d="M 0 0 M2303.86 1477 Q2300.25 1477 2298.42 1480.57 Q2296.61 1484.11 2296.61 1491.24 Q2296.61 1498.35 2298.42 1501.91 Q2300.25 1505.45 2303.86 1505.45 Q2307.49 1505.45 2309.3 1501.91 Q2311.13 1498.35 2311.13 1491.24 Q2311.13 1484.11 2309.3 1480.57 Q2307.49 1477 2303.86 1477 M2303.86 1473.3 Q2309.67 1473.3 2312.72 1477.91 Q2315.8 1482.49 2315.8 1491.24 Q2315.8 1499.97 2312.72 1504.57 Q2309.67 1509.16 2303.86 1509.16 Q2298.05 1509.16 2294.97 1504.57 Q2291.91 1499.97 2291.91 1491.24 Q2291.91 1482.49 2294.97 1477.91 Q2298.05 1473.3 2303.86 1473.3 Z" fill="#000000" fill-rule="evenodd" fill-opacity="1" /><path clip-path="url(#clip590)" d="M 0 0 M106.371 1409.18 Q102.76 1409.18 100.931 1412.74 Q99.1255 1416.28 99.1255 1423.41 Q99.1255 1430.52 100.931 1434.08 Q102.76 1437.62 106.371 1437.62 Q110.005 1437.62 111.811 1434.08 Q113.639 1430.52 113.639 1423.41 Q113.639 1416.28 111.811 1412.74 Q110.005 1409.18 106.371 1409.18 M106.371 1405.47 Q112.181 1405.47 115.237 1410.08 Q118.315 1414.66 118.315 1423.41 Q118.315 1432.14 115.237 1436.74 Q112.181 1441.33 106.371 1441.33 Q100.561 1441.33 97.482 1436.74 Q94.4264 1432.14 94.4264 1423.41 Q94.4264 1414.66 97.482 1410.08 Q100.561 1405.47 106.371 1405.47 Z" fill="#000000" fill-rule="evenodd" fill-opacity="1" /><path clip-path="url(#clip590)" d="M 0 0 M123.385 1434.78 L128.269 1434.78 L128.269 1440.66 L123.385 1440.66 L123.385 1434.78 Z" fill="#000000" fill-rule="evenodd" fill-opacity="1" /><path clip-path="url(#clip590)" d="M 0 0 M143.338 1409.18 Q139.727 1409.18 137.898 1412.74 Q136.093 1416.28 136.093 1423.41 Q136.093 1430.52 137.898 1434.08 Q139.727 1437.62 143.338 1437.62 Q146.972 1437.62 148.778 1434.08 Q150.607 1430.52 150.607 1423.41 Q150.607 1416.28 148.778 1412.74 Q146.972 1409.18 143.338 1409.18 M143.338 1405.47 Q149.148 1405.47 152.204 1410.08 Q155.283 1414.66 155.283 1423.41 Q155.283 1432.14 152.204 1436.74 Q149.148 1441.33 143.338 1441.33 Q137.528 1441.33 134.449 1436.74 Q131.394 1432.14 131.394 1423.41 Q131.394 1414.66 134.449 1410.08 Q137.528 1405.47 143.338 1405.47 Z" fill="#000000" fill-rule="evenodd" fill-opacity="1" /><path clip-path="url(#clip590)" d="M 0 0 M170.352 1409.18 Q166.741 1409.18 164.912 1412.74 Q163.107 1416.28 163.107 1423.41 Q163.107 1430.52 164.912 1434.08 Q166.741 1437.62 170.352 1437.62 Q173.986 1437.62 175.792 1434.08 Q177.62 1430.52 177.62 1423.41 Q177.62 1416.28 175.792 1412.74 Q173.986 1409.18 170.352 1409.18 M170.352 1405.47 Q176.162 1405.47 179.218 1410.08 Q182.296 1414.66 182.296 1423.41 Q182.296 1432.14 179.218 1436.74 Q176.162 1441.33 170.352 1441.33 Q164.542 1441.33 161.463 1436.74 Q158.408 1432.14 158.408 1423.41 Q158.408 1414.66 161.463 1410.08 Q164.542 1405.47 170.352 1405.47 Z" fill="#000000" fill-rule="evenodd" fill-opacity="1" /><path clip-path="url(#clip590)" d="M 0 0 M108.963 1080.29 Q105.352 1080.29 103.524 1083.86 Q101.718 1087.4 101.718 1094.53 Q101.718 1101.64 103.524 1105.2 Q105.352 1108.74 108.963 1108.74 Q112.598 1108.74 114.403 1105.2 Q116.232 1101.64 116.232 1094.53 Q116.232 1087.4 114.403 1083.86 Q112.598 1080.29 108.963 1080.29 M108.963 1076.59 Q114.774 1076.59 117.829 1081.2 Q120.908 1085.78 120.908 1094.53 Q120.908 1103.26 117.829 1107.86 Q114.774 1112.45 108.963 1112.45 Q103.153 1112.45 100.075 1107.86 Q97.019 1103.26 97.019 1094.53 Q97.019 1085.78 100.075 1081.2 Q103.153 1076.59 108.963 1076.59 Z" fill="#000000" fill-rule="evenodd" fill-opacity="1" /><path clip-path="url(#clip590)" d="M 0 0 M125.977 1105.9 L130.861 1105.9 L130.861 1111.77 L125.977 1111.77 L125.977 1105.9 Z" fill="#000000" fill-rule="evenodd" fill-opacity="1" /><path clip-path="url(#clip590)" d="M 0 0 M139.959 1107.84 L156.278 1107.84 L156.278 1111.77 L134.334 1111.77 L134.334 1107.84 Q136.996 1105.09 141.579 1100.46 Q146.185 1095.8 147.366 1094.46 Q149.611 1091.94 150.491 1090.2 Q151.394 1088.44 151.394 1086.75 Q151.394 1084 149.449 1082.26 Q147.528 1080.52 144.426 1080.52 Q142.227 1080.52 139.773 1081.29 Q137.343 1082.05 134.565 1083.6 L134.565 1078.88 Q137.389 1077.75 139.843 1077.17 Q142.297 1076.59 144.334 1076.59 Q149.704 1076.59 152.898 1079.27 Q156.093 1081.96 156.093 1086.45 Q156.093 1088.58 155.283 1090.5 Q154.496 1092.4 152.389 1094.99 Q151.81 1095.66 148.709 1098.88 Q145.607 1102.08 139.959 1107.84 Z" fill="#000000" fill-rule="evenodd" fill-opacity="1" /><path clip-path="url(#clip590)" d="M 0 0 M161.394 1077.21 L179.75 1077.21 L179.75 1081.15 L165.676 1081.15 L165.676 1089.62 Q166.695 1089.27 167.713 1089.11 Q168.732 1088.93 169.75 1088.93 Q175.537 1088.93 178.917 1092.1 Q182.296 1095.27 182.296 1100.69 Q182.296 1106.27 178.824 1109.37 Q175.352 1112.45 169.033 1112.45 Q166.857 1112.45 164.588 1112.08 Q162.343 1111.71 159.935 1110.96 L159.935 1106.27 Q162.019 1107.4 164.241 1107.96 Q166.463 1108.51 168.94 1108.51 Q172.945 1108.51 175.282 1106.4 Q177.62 1104.3 177.62 1100.69 Q177.62 1097.08 175.282 1094.97 Q172.945 1092.86 168.94 1092.86 Q167.065 1092.86 165.19 1093.28 Q163.338 1093.7 161.394 1094.58 L161.394 1077.21 Z" fill="#000000" fill-rule="evenodd" fill-opacity="1" /><path clip-path="url(#clip590)" d="M 0 0 M107.366 751.412 Q103.755 751.412 101.926 754.977 Q100.121 758.518 100.121 765.648 Q100.121 772.754 101.926 776.319 Q103.755 779.861 107.366 779.861 Q111 779.861 112.806 776.319 Q114.635 772.754 114.635 765.648 Q114.635 758.518 112.806 754.977 Q111 751.412 107.366 751.412 M107.366 747.708 Q113.176 747.708 116.232 752.315 Q119.311 756.898 119.311 765.648 Q119.311 774.375 116.232 778.981 Q113.176 783.565 107.366 783.565 Q101.556 783.565 98.4773 778.981 Q95.4218 774.375 95.4218 765.648 Q95.4218 756.898 98.4773 752.315 Q101.556 747.708 107.366 747.708 Z" fill="#000000" fill-rule="evenodd" fill-opacity="1" /><path clip-path="url(#clip590)" d="M 0 0 M124.38 777.014 L129.264 777.014 L129.264 782.893 L124.38 782.893 L124.38 777.014 Z" fill="#000000" fill-rule="evenodd" fill-opacity="1" /><path clip-path="url(#clip590)" d="M 0 0 M134.38 748.333 L152.736 748.333 L152.736 752.268 L138.662 752.268 L138.662 760.741 Q139.681 760.393 140.699 760.231 Q141.718 760.046 142.736 760.046 Q148.523 760.046 151.903 763.217 Q155.283 766.389 155.283 771.805 Q155.283 777.384 151.81 780.486 Q148.338 783.565 142.019 783.565 Q139.843 783.565 137.574 783.194 Q135.329 782.824 132.922 782.083 L132.922 777.384 Q135.005 778.518 137.227 779.074 Q139.449 779.629 141.926 779.629 Q145.931 779.629 148.269 777.523 Q150.607 775.416 150.607 771.805 Q150.607 768.194 148.269 766.088 Q145.931 763.981 141.926 763.981 Q140.051 763.981 138.176 764.398 Q136.324 764.815 134.38 765.694 L134.38 748.333 Z" fill="#000000" fill-rule="evenodd" fill-opacity="1" /><path clip-path="url(#clip590)" d="M 0 0 M170.352 751.412 Q166.741 751.412 164.912 754.977 Q163.107 758.518 163.107 765.648 Q163.107 772.754 164.912 776.319 Q166.741 779.861 170.352 779.861 Q173.986 779.861 175.792 776.319 Q177.62 772.754 177.62 765.648 Q177.62 758.518 175.792 754.977 Q173.986 751.412 170.352 751.412 M170.352 747.708 Q176.162 747.708 179.218 752.315 Q182.296 756.898 182.296 765.648 Q182.296 774.375 179.218 778.981 Q176.162 783.565 170.352 783.565 Q164.542 783.565 161.463 778.981 Q158.408 774.375 158.408 765.648 Q158.408 756.898 161.463 752.315 Q164.542 747.708 170.352 747.708 Z" fill="#000000" fill-rule="evenodd" fill-opacity="1" /><path clip-path="url(#clip590)" d="M 0 0 M108.269 422.53 Q104.658 422.53 102.829 426.095 Q101.024 429.637 101.024 436.766 Q101.024 443.873 102.829 447.438 Q104.658 450.979 108.269 450.979 Q111.903 450.979 113.709 447.438 Q115.537 443.873 115.537 436.766 Q115.537 429.637 113.709 426.095 Q111.903 422.53 108.269 422.53 M108.269 418.827 Q114.079 418.827 117.135 423.433 Q120.213 428.016 120.213 436.766 Q120.213 445.493 117.135 450.1 Q114.079 454.683 108.269 454.683 Q102.459 454.683 99.3801 450.1 Q96.3246 445.493 96.3246 436.766 Q96.3246 428.016 99.3801 423.433 Q102.459 418.827 108.269 418.827 Z" fill="#000000" fill-rule="evenodd" fill-opacity="1" /><path clip-path="url(#clip590)" d="M 0 0 M125.283 448.132 L130.167 448.132 L130.167 454.012 L125.283 454.012 L125.283 448.132 Z" fill="#000000" fill-rule="evenodd" fill-opacity="1" /><path clip-path="url(#clip590)" d="M 0 0 M134.056 419.452 L156.278 419.452 L156.278 421.442 L143.732 454.012 L138.847 454.012 L150.653 423.387 L134.056 423.387 L134.056 419.452 Z" fill="#000000" fill-rule="evenodd" fill-opacity="1" /><path clip-path="url(#clip590)" d="M 0 0 M161.394 419.452 L179.75 419.452 L179.75 423.387 L165.676 423.387 L165.676 431.859 Q166.695 431.512 167.713 431.35 Q168.732 431.165 169.75 431.165 Q175.537 431.165 178.917 434.336 Q182.296 437.507 182.296 442.924 Q182.296 448.502 178.824 451.604 Q175.352 454.683 169.033 454.683 Q166.857 454.683 164.588 454.313 Q162.343 453.942 159.935 453.201 L159.935 448.502 Q162.019 449.637 164.241 450.192 Q166.463 450.748 168.94 450.748 Q172.945 450.748 175.282 448.641 Q177.62 446.535 177.62 442.924 Q177.62 439.313 175.282 437.206 Q172.945 435.1 168.94 435.1 Q167.065 435.1 165.19 435.516 Q163.338 435.933 161.394 436.813 L161.394 419.452 Z" fill="#000000" fill-rule="evenodd" fill-opacity="1" /><path clip-path="url(#clip590)" d="M 0 0 M98.4079 121.195 L106.047 121.195 L106.047 94.8293 L97.7366 96.496 L97.7366 92.2368 L106 90.5701 L110.676 90.5701 L110.676 121.195 L118.315 121.195 L118.315 125.13 L98.4079 125.13 L98.4079 121.195 Z" fill="#000000" fill-rule="evenodd" fill-opacity="1" /><path clip-path="url(#clip590)" d="M 0 0 M123.385 119.25 L128.269 119.25 L128.269 125.13 L123.385 125.13 L123.385 119.25 Z" fill="#000000" fill-rule="evenodd" fill-opacity="1" /><path clip-path="url(#clip590)" d="M 0 0 M143.338 93.6488 Q139.727 93.6488 137.898 97.2136 Q136.093 100.755 136.093 107.885 Q136.093 114.991 137.898 118.556 Q139.727 122.098 143.338 122.098 Q146.972 122.098 148.778 118.556 Q150.607 114.991 150.607 107.885 Q150.607 100.755 148.778 97.2136 Q146.972 93.6488 143.338 93.6488 M143.338 89.9451 Q149.148 89.9451 152.204 94.5516 Q155.283 99.1349 155.283 107.885 Q155.283 116.612 152.204 121.218 Q149.148 125.801 143.338 125.801 Q137.528 125.801 134.449 121.218 Q131.394 116.612 131.394 107.885 Q131.394 99.1349 134.449 94.5516 Q137.528 89.9451 143.338 89.9451 Z" fill="#000000" fill-rule="evenodd" fill-opacity="1" /><path clip-path="url(#clip590)" d="M 0 0 M170.352 93.6488 Q166.741 93.6488 164.912 97.2136 Q163.107 100.755 163.107 107.885 Q163.107 114.991 164.912 118.556 Q166.741 122.098 170.352 122.098 Q173.986 122.098 175.792 118.556 Q177.62 114.991 177.62 107.885 Q177.62 100.755 175.792 97.2136 Q173.986 93.6488 170.352 93.6488 M170.352 89.9451 Q176.162 89.9451 179.218 94.5516 Q182.296 99.1349 182.296 107.885 Q182.296 116.612 179.218 121.218 Q176.162 125.801 170.352 125.801 Q164.542 125.801 161.463 121.218 Q158.408 116.612 158.408 107.885 Q158.408 99.1349 161.463 94.5516 Q164.542 89.9451 170.352 89.9451 Z" fill="#000000" fill-rule="evenodd" fill-opacity="1" /><path clip-path="url(#clip590)" d="M 0 0 M1300.04 4.53628 Q1299.96 4.94617 1299.79 5.68398 Q1299.63 6.3808 1298.89 8.59422 Q1298.15 10.8076 1297.17 13.0621 Q1296.23 15.2755 1294.38 18.3907 Q1292.58 21.4649 1290.36 24.2521 Q1289.75 24.9899 1289.63 25.4408 Q1289.54 25.8507 1289.54 27.2034 Q1289.54 35.7291 1292.13 35.7291 Q1292.25 35.7291 1292.45 35.7291 Q1292.7 35.6881 1293.32 35.4832 Q1293.97 35.2373 1294.54 34.8683 Q1295.12 34.4585 1295.77 33.6387 Q1296.43 32.7779 1296.84 31.6302 Q1297.21 30.8104 1297.95 30.8104 Q1298.93 30.8104 1298.93 31.6302 Q1298.93 33.1058 1296.88 35.3602 Q1294.83 37.6146 1291.88 37.6146 Q1289.05 37.6146 1287.04 35.7701 Q1285.08 33.8846 1284.26 30.5235 Q1275.4 37.6146 1266.55 37.6146 Q1260.32 37.6146 1256.63 33.5567 Q1252.94 29.4578 1252.94 23.3913 Q1252.94 17.5709 1256.14 12.0373 Q1259.38 6.50377 1264.62 3.06067 Q1269.91 -0.423422 1275.53 -0.423422 Q1277.49 -0.423422 1279.38 0.109439 Q1281.26 0.60131 1283.15 1.87198 Q1285.04 3.14265 1286.43 5.06914 Q1287.82 6.99564 1288.68 10.0288 Q1289.54 13.0621 1289.54 16.8741 L1289.54 22.0797 Q1294.95 15.2345 1297.78 5.43805 Q1298.19 3.96243 1298.44 3.79847 Q1298.6 3.67551 1299.01 3.67551 Q1299.42 3.67551 1299.67 3.92144 Q1299.96 4.12639 1300 4.33133 L1300.04 4.53628 M1283.93 28.3511 Q1283.76 26.9164 1283.76 18.9645 Q1283.76 17.4479 1283.76 16.6281 Q1283.76 15.7673 1283.68 14.1278 Q1283.6 12.4882 1283.44 11.4635 Q1283.31 10.4387 1283.03 8.96312 Q1282.74 7.48751 1282.33 6.54476 Q1281.92 5.602 1281.26 4.53628 Q1280.65 3.47056 1279.83 2.85572 Q1279.05 2.24088 1277.9 1.83099 Q1276.8 1.4211 1275.44 1.4211 Q1273.76 1.4211 1272 2.03594 Q1270.28 2.60978 1268.07 4.4543 Q1265.85 6.25783 1264.01 9.12708 Q1262.08 12.1603 1260.61 17.7348 Q1259.17 23.2684 1259.17 26.5885 Q1259.17 30.7694 1261.1 33.2698 Q1263.02 35.7291 1266.71 35.7291 Q1275.53 35.7291 1283.93 28.3511 Z" fill="#000000" fill-rule="evenodd" fill-opacity="1" /><path clip-path="url(#clip590)" d="M 0 0 M1293.69 1535.32 Q1293.69 1537.12 1292.56 1538.15 Q1291.43 1539.15 1290.14 1539.15 Q1288.92 1539.15 1288.28 1538.44 Q1287.63 1537.74 1287.63 1536.83 Q1287.63 1535.61 1288.53 1534.55 Q1289.43 1533.48 1290.79 1533.26 Q1289.47 1532.42 1287.5 1532.42 Q1286.21 1532.42 1285.09 1533.1 Q1283.99 1533.77 1283.32 1534.64 Q1282.67 1535.51 1282.09 1536.77 Q1281.54 1537.99 1281.32 1538.73 Q1281.13 1539.44 1280.96 1540.22 L1278.71 1549.23 Q1277.62 1553.52 1277.62 1555.03 Q1277.62 1556.9 1278.52 1558.15 Q1279.42 1559.38 1281.22 1559.38 Q1281.93 1559.38 1282.74 1559.19 Q1283.54 1558.96 1284.57 1558.38 Q1285.63 1557.77 1286.57 1556.87 Q1287.53 1555.93 1288.47 1554.35 Q1289.4 1552.78 1290.01 1550.75 Q1290.21 1550.04 1290.85 1550.04 Q1291.66 1550.04 1291.66 1550.68 Q1291.66 1551.23 1291.21 1552.39 Q1290.79 1553.52 1289.85 1555 Q1288.95 1556.45 1287.76 1557.77 Q1286.57 1559.06 1284.8 1559.96 Q1283.03 1560.86 1281.09 1560.86 Q1278.32 1560.86 1276.49 1559.38 Q1274.65 1557.9 1273.98 1555.84 Q1273.82 1556.13 1273.59 1556.51 Q1273.36 1556.9 1272.69 1557.77 Q1272.04 1558.61 1271.3 1559.25 Q1270.56 1559.86 1269.4 1560.34 Q1268.28 1560.86 1267.05 1560.86 Q1265.51 1560.86 1264.12 1560.41 Q1262.77 1559.96 1261.8 1558.93 Q1260.84 1557.9 1260.84 1556.48 Q1260.84 1554.9 1261.9 1553.81 Q1262.99 1552.68 1264.48 1552.68 Q1265.41 1552.68 1266.15 1553.23 Q1266.92 1553.77 1266.92 1554.97 Q1266.92 1556.29 1266.02 1557.29 Q1265.12 1558.28 1263.83 1558.54 Q1265.15 1559.38 1267.12 1559.38 Q1269.24 1559.38 1270.92 1557.51 Q1272.59 1555.64 1273.4 1552.52 Q1275.39 1545.01 1276.17 1541.67 Q1276.94 1538.28 1276.94 1536.83 Q1276.94 1535.48 1276.58 1534.55 Q1276.23 1533.61 1275.62 1533.2 Q1275.04 1532.74 1274.49 1532.58 Q1273.98 1532.42 1273.4 1532.42 Q1272.43 1532.42 1271.34 1532.81 Q1270.27 1533.2 1268.98 1534.1 Q1267.73 1534.97 1266.54 1536.77 Q1265.34 1538.57 1264.54 1541.05 Q1264.38 1541.79 1263.67 1541.79 Q1262.9 1541.76 1262.9 1541.12 Q1262.9 1540.57 1263.32 1539.44 Q1263.77 1538.28 1264.67 1536.83 Q1265.6 1535.39 1266.79 1534.1 Q1268.02 1532.78 1269.79 1531.87 Q1271.59 1530.97 1273.53 1530.97 Q1274.39 1530.97 1275.23 1531.17 Q1276.1 1531.33 1277.13 1531.81 Q1278.2 1532.29 1279.13 1533.36 Q1280.06 1534.42 1280.64 1535.96 Q1281.03 1535.22 1281.54 1534.52 Q1282.09 1533.81 1282.93 1532.94 Q1283.8 1532.04 1284.99 1531.52 Q1286.21 1530.97 1287.57 1530.97 Q1288.89 1530.97 1290.18 1531.33 Q1291.46 1531.65 1292.56 1532.71 Q1293.69 1533.74 1293.69 1535.32 Z" fill="#000000" fill-rule="evenodd" fill-opacity="1" /><path clip-path="url(#clip590)" d="M 0 0 M29.5109 752.42 Q29.9618 752.42 31.0246 752.71 L56.2096 759.022 Q61.8134 760.407 65.7425 764.916 Q69.6716 769.393 69.6716 774.481 Q69.6716 777.541 68.0291 779.505 Q66.4189 781.47 63.939 781.47 Q61.749 781.47 60.6862 780.31 Q59.6556 779.151 59.6556 777.766 Q59.6556 777.315 59.7844 776.832 Q59.9133 776.349 60.4608 775.834 Q61.0083 775.318 61.9422 775.318 Q63.4559 775.318 64.6475 776.639 Q65.195 777.283 65.3239 777.895 Q65.4527 778.475 65.4527 779.473 Q66.3544 779.086 66.9664 778.378 Q67.5783 777.669 67.8037 776.864 Q68.0614 776.059 68.1258 775.544 Q68.2224 774.996 68.2224 774.481 Q68.2224 770.359 64.0678 767.203 Q62.8118 766.269 61.5558 765.592 Q60.3319 764.884 58.8183 764.368 Q57.3368 763.853 56.5317 763.628 Q55.7265 763.37 53.8908 762.919 Q56.8859 765.914 56.8859 769.586 Q56.8859 771.132 56.4672 772.516 Q56.0486 773.869 55.179 775.061 Q54.2772 776.252 52.6992 776.961 Q51.1211 777.637 49.0277 777.637 Q46.8055 777.637 43.7781 776.768 Q40.7508 775.898 35.1792 773.805 Q32.0552 772.678 30.5415 772.678 Q29.8008 772.678 29.3499 772.839 Q28.8668 773 28.7058 773.322 Q28.5126 773.644 28.4803 773.837 Q28.4481 773.998 28.4481 774.32 Q28.4481 776.22 30.3805 777.991 Q32.3128 779.763 36.6284 780.987 Q37.4336 781.244 37.6268 781.405 Q37.82 781.566 37.82 782.049 Q37.7878 782.855 37.1437 782.855 Q36.8861 782.855 35.8877 782.565 Q34.8571 782.275 33.3434 781.599 Q31.7976 780.89 30.4127 779.924 Q28.9956 778.958 27.9973 777.444 Q26.9989 775.898 26.9989 774.127 Q26.9989 771.711 28.577 770.23 Q30.1228 768.716 32.4095 768.716 Q33.3434 768.716 34.1808 768.974 Q34.9859 769.199 37.1437 770.037 Q45.8393 773.418 50.0905 773.418 Q51.1211 773.418 51.9906 773.257 Q52.828 773.064 53.6653 772.645 Q54.4705 772.227 54.9536 771.389 Q55.4044 770.52 55.4044 769.328 Q55.4044 767.814 54.6959 766.397 Q53.9552 764.948 52.9568 764.046 Q51.9584 763.112 51.1211 762.565 Q50.2515 761.985 49.8006 761.856 L37.9489 758.893 L32.6671 757.573 Q29.8008 756.961 29.0923 756.671 Q28.4159 756.285 28.0617 755.608 Q27.7074 754.932 27.7074 754.352 Q27.7074 753.547 28.1905 753 Q28.6736 752.42 29.5109 752.42 Z" fill="#000000" fill-rule="evenodd" fill-opacity="1" /><polyline clip-path="url(#clip592)" style="stroke:#009af9; stroke-width:4; stroke-opacity:1; fill:none" points="
  267.045,1416.06 492.041,1357.3 717.037,691.067 942.032,1093.44 1167.03,1129.15 1392.02,1392.01 1617.02,117.631 1842.02,855.459 2067.01,981.757 2292.01,1244 
  
  "/>
<path clip-path="url(#clip590)" d="
M1989.74 283.158 L2280.76 283.158 L2280.76 162.198 L1989.74 162.198  Z
  " fill="#ffffff" fill-rule="evenodd" fill-opacity="1"/>
<polyline clip-path="url(#clip590)" style="stroke:#000000; stroke-width:4; stroke-opacity:1; fill:none" points="
  1989.74,283.158 2280.76,283.158 2280.76,162.198 1989.74,162.198 1989.74,283.158 
  "/>
<polyline clip-path="url(#clip590)" style="stroke:#009af9; stroke-width:4; stroke-opacity:1; fill:none" points="
  2013.74,222.678 2157.74,222.678 
  "/>
<path clip-path="url(#clip590)" d="M 0 0 M2195.58 242.366 Q2193.77 246.995 2192.06 248.407 Q2190.35 249.819 2187.48 249.819 L2184.08 249.819 L2184.08 246.255 L2186.58 246.255 Q2188.33 246.255 2189.31 245.421 Q2190.28 244.588 2191.46 241.486 L2192.22 239.542 L2181.74 214.033 L2186.25 214.033 L2194.35 234.31 L2202.46 214.033 L2206.97 214.033 L2195.58 242.366 Z" fill="#000000" fill-rule="evenodd" fill-opacity="1" /><path clip-path="url(#clip590)" d="M 0 0 M2212.85 236.023 L2220.49 236.023 L2220.49 209.658 L2212.18 211.324 L2212.18 207.065 L2220.44 205.398 L2225.12 205.398 L2225.12 236.023 L2232.76 236.023 L2232.76 239.958 L2212.85 239.958 L2212.85 236.023 Z" fill="#000000" fill-rule="evenodd" fill-opacity="1" /></svg>
