<?xml version="1.0" encoding="utf-8"?>
<svg xmlns="http://www.w3.org/2000/svg" xmlns:xlink="http://www.w3.org/1999/xlink" width="600" height="400" viewBox="0 0 2400 1600">
<defs>
  <clipPath id="clip650">
    <rect x="0" y="0" width="2400" height="1600"/>
  </clipPath>
</defs>
<path clip-path="url(#clip650)" d="
M0 1600 L2400 1600 L2400 0 L0 0  Z
  " fill="#ffffff" fill-rule="evenodd" fill-opacity="1"/>
<defs>
  <clipPath id="clip651">
    <rect x="480" y="0" width="1681" height="1600"/>
  </clipPath>
</defs>
<defs>
  <clipPath id="clip652">
    <rect x="2137" y="0" width="73" height="1600"/>
  </clipPath>
</defs>
<path clip-path="url(#clip650)" d="
M199.874 1445.63 L2352.76 1445.63 L2352.76 88.065 L199.874 88.065  Z
  " fill="#ffffff" fill-rule="evenodd" fill-opacity="1"/>
<defs>
  <clipPath id="clip653">
    <rect x="199" y="88" width="2154" height="1359"/>
  </clipPath>
</defs>
<polyline clip-path="url(#clip653)" style="stroke:#000000; stroke-width:2; stroke-opacity:0.1; fill:none" points="
  486.474,1445.63 486.474,88.065 
  "/>
<polyline clip-path="url(#clip653)" style="stroke:#000000; stroke-width:2; stroke-opacity:0.1; fill:none" points="
  937.812,1445.63 937.812,88.065 
  "/>
<polyline clip-path="url(#clip653)" style="stroke:#000000; stroke-width:2; stroke-opacity:0.1; fill:none" points="
  1389.15,1445.63 1389.15,88.065 
  "/>
<polyline clip-path="url(#clip653)" style="stroke:#000000; stroke-width:2; stroke-opacity:0.1; fill:none" points="
  1840.49,1445.63 1840.49,88.065 
  "/>
<polyline clip-path="url(#clip653)" style="stroke:#000000; stroke-width:2; stroke-opacity:0.1; fill:none" points="
  2291.83,1445.63 2291.83,88.065 
  "/>
<polyline clip-path="url(#clip653)" style="stroke:#000000; stroke-width:2; stroke-opacity:0.1; fill:none" points="
  199.874,1378.01 2352.76,1378.01 
  "/>
<polyline clip-path="url(#clip653)" style="stroke:#000000; stroke-width:2; stroke-opacity:0.1; fill:none" points="
  199.874,1191.18 2352.76,1191.18 
  "/>
<polyline clip-path="url(#clip653)" style="stroke:#000000; stroke-width:2; stroke-opacity:0.1; fill:none" points="
  199.874,1004.35 2352.76,1004.35 
  "/>
<polyline clip-path="url(#clip653)" style="stroke:#000000; stroke-width:2; stroke-opacity:0.1; fill:none" points="
  199.874,817.514 2352.76,817.514 
  "/>
<polyline clip-path="url(#clip653)" style="stroke:#000000; stroke-width:2; stroke-opacity:0.1; fill:none" points="
  199.874,630.683 2352.76,630.683 
  "/>
<polyline clip-path="url(#clip653)" style="stroke:#000000; stroke-width:2; stroke-opacity:0.1; fill:none" points="
  199.874,443.851 2352.76,443.851 
  "/>
<polyline clip-path="url(#clip653)" style="stroke:#000000; stroke-width:2; stroke-opacity:0.1; fill:none" points="
  199.874,257.02 2352.76,257.02 
  "/>
<polyline clip-path="url(#clip650)" style="stroke:#000000; stroke-width:4; stroke-opacity:1; fill:none" points="
  199.874,1445.63 2352.76,1445.63 
  "/>
<polyline clip-path="url(#clip650)" style="stroke:#000000; stroke-width:4; stroke-opacity:1; fill:none" points="
  199.874,1445.63 199.874,88.065 
  "/>
<polyline clip-path="url(#clip650)" style="stroke:#000000; stroke-width:4; stroke-opacity:1; fill:none" points="
  486.474,1445.63 486.474,1429.34 
  "/>
<polyline clip-path="url(#clip650)" style="stroke:#000000; stroke-width:4; stroke-opacity:1; fill:none" points="
  937.812,1445.63 937.812,1429.34 
  "/>
<polyline clip-path="url(#clip650)" style="stroke:#000000; stroke-width:4; stroke-opacity:1; fill:none" points="
  1389.15,1445.63 1389.15,1429.34 
  "/>
<polyline clip-path="url(#clip650)" style="stroke:#000000; stroke-width:4; stroke-opacity:1; fill:none" points="
  1840.49,1445.63 1840.49,1429.34 
  "/>
<polyline clip-path="url(#clip650)" style="stroke:#000000; stroke-width:4; stroke-opacity:1; fill:none" points="
  2291.83,1445.63 2291.83,1429.34 
  "/>
<polyline clip-path="url(#clip650)" style="stroke:#000000; stroke-width:4; stroke-opacity:1; fill:none" points="
  199.874,1378.01 225.709,1378.01 
  "/>
<polyline clip-path="url(#clip650)" style="stroke:#000000; stroke-width:4; stroke-opacity:1; fill:none" points="
  199.874,1191.18 225.709,1191.18 
  "/>
<polyline clip-path="url(#clip650)" style="stroke:#000000; stroke-width:4; stroke-opacity:1; fill:none" points="
  199.874,1004.35 225.709,1004.35 
  "/>
<polyline clip-path="url(#clip650)" style="stroke:#000000; stroke-width:4; stroke-opacity:1; fill:none" points="
  199.874,817.514 225.709,817.514 
  "/>
<polyline clip-path="url(#clip650)" style="stroke:#000000; stroke-width:4; stroke-opacity:1; fill:none" points="
  199.874,630.683 225.709,630.683 
  "/>
<polyline clip-path="url(#clip650)" style="stroke:#000000; stroke-width:4; stroke-opacity:1; fill:none" points="
  199.874,443.851 225.709,443.851 
  "/>
<polyline clip-path="url(#clip650)" style="stroke:#000000; stroke-width:4; stroke-opacity:1; fill:none" points="
  199.874,257.02 225.709,257.02 
  "/>
<path clip-path="url(#clip650)" d="M 0 0 M481.126 1495.16 L497.446 1495.16 L497.446 1499.1 L475.501 1499.1 L475.501 1495.16 Q478.164 1492.41 482.747 1487.78 Q487.353 1483.13 488.534 1481.78 Q490.779 1479.26 491.659 1477.52 Q492.562 1475.77 492.562 1474.08 Q492.562 1471.32 490.617 1469.59 Q488.696 1467.85 485.594 1467.85 Q483.395 1467.85 480.941 1468.61 Q478.511 1469.38 475.733 1470.93 L475.733 1466.21 Q478.557 1465.07 481.011 1464.49 Q483.464 1463.91 485.501 1463.91 Q490.872 1463.91 494.066 1466.6 Q497.261 1469.28 497.261 1473.77 Q497.261 1475.9 496.45 1477.83 Q495.663 1479.72 493.557 1482.32 Q492.978 1482.99 489.876 1486.21 Q486.775 1489.4 481.126 1495.16 Z" fill="#000000" fill-rule="evenodd" fill-opacity="1" /><path clip-path="url(#clip650)" d="M 0 0 M940.821 1468.61 L929.015 1487.06 L940.821 1487.06 L940.821 1468.61 M939.594 1464.54 L945.474 1464.54 L945.474 1487.06 L950.404 1487.06 L950.404 1490.95 L945.474 1490.95 L945.474 1499.1 L940.821 1499.1 L940.821 1490.95 L925.219 1490.95 L925.219 1486.44 L939.594 1464.54 Z" fill="#000000" fill-rule="evenodd" fill-opacity="1" /><path clip-path="url(#clip650)" d="M 0 0 M1389.55 1479.96 Q1386.41 1479.96 1384.55 1482.11 Q1382.73 1484.26 1382.73 1488.01 Q1382.73 1491.74 1384.55 1493.91 Q1386.41 1496.07 1389.55 1496.07 Q1392.7 1496.07 1394.53 1493.91 Q1396.38 1491.74 1396.38 1488.01 Q1396.38 1484.26 1394.53 1482.11 Q1392.7 1479.96 1389.55 1479.96 M1398.84 1465.3 L1398.84 1469.56 Q1397.08 1468.73 1395.27 1468.29 Q1393.49 1467.85 1391.73 1467.85 Q1387.1 1467.85 1384.65 1470.97 Q1382.22 1474.1 1381.87 1480.42 Q1383.24 1478.4 1385.3 1477.34 Q1387.36 1476.25 1389.83 1476.25 Q1395.04 1476.25 1398.05 1479.42 Q1401.08 1482.57 1401.08 1488.01 Q1401.08 1493.34 1397.93 1496.55 Q1394.79 1499.77 1389.55 1499.77 Q1383.56 1499.77 1380.39 1495.19 Q1377.22 1490.58 1377.22 1481.85 Q1377.22 1473.66 1381.11 1468.8 Q1384.99 1463.91 1391.55 1463.91 Q1393.3 1463.91 1395.09 1464.26 Q1396.89 1464.61 1398.84 1465.3 Z" fill="#000000" fill-rule="evenodd" fill-opacity="1" /><path clip-path="url(#clip650)" d="M 0 0 M1840.49 1482.69 Q1837.15 1482.69 1835.23 1484.47 Q1833.33 1486.25 1833.33 1489.38 Q1833.33 1492.5 1835.23 1494.28 Q1837.15 1496.07 1840.49 1496.07 Q1843.82 1496.07 1845.74 1494.28 Q1847.66 1492.48 1847.66 1489.38 Q1847.66 1486.25 1845.74 1484.47 Q1843.84 1482.69 1840.49 1482.69 M1835.81 1480.7 Q1832.8 1479.96 1831.11 1477.9 Q1829.45 1475.84 1829.45 1472.87 Q1829.45 1468.73 1832.39 1466.32 Q1835.35 1463.91 1840.49 1463.91 Q1845.65 1463.91 1848.59 1466.32 Q1851.53 1468.73 1851.53 1472.87 Q1851.53 1475.84 1849.84 1477.9 Q1848.17 1479.96 1845.19 1480.7 Q1848.57 1481.48 1850.44 1483.77 Q1852.34 1486.07 1852.34 1489.38 Q1852.34 1494.4 1849.26 1497.09 Q1846.2 1499.77 1840.49 1499.77 Q1834.77 1499.77 1831.69 1497.09 Q1828.64 1494.4 1828.64 1489.38 Q1828.64 1486.07 1830.53 1483.77 Q1832.43 1481.48 1835.81 1480.7 M1834.1 1473.31 Q1834.1 1476 1835.77 1477.5 Q1837.45 1479.01 1840.49 1479.01 Q1843.5 1479.01 1845.19 1477.5 Q1846.9 1476 1846.9 1473.31 Q1846.9 1470.63 1845.19 1469.12 Q1843.5 1467.62 1840.49 1467.62 Q1837.45 1467.62 1835.77 1469.12 Q1834.1 1470.63 1834.1 1473.31 Z" fill="#000000" fill-rule="evenodd" fill-opacity="1" /><path clip-path="url(#clip650)" d="M 0 0 M2268.7 1495.16 L2276.34 1495.16 L2276.34 1468.8 L2268.03 1470.46 L2268.03 1466.21 L2276.29 1464.54 L2280.97 1464.54 L2280.97 1495.16 L2288.61 1495.16 L2288.61 1499.1 L2268.7 1499.1 L2268.7 1495.16 Z" fill="#000000" fill-rule="evenodd" fill-opacity="1" /><path clip-path="url(#clip650)" d="M 0 0 M2303.68 1467.62 Q2300.07 1467.62 2298.24 1471.18 Q2296.43 1474.72 2296.43 1481.85 Q2296.43 1488.96 2298.24 1492.52 Q2300.07 1496.07 2303.68 1496.07 Q2307.31 1496.07 2309.12 1492.52 Q2310.95 1488.96 2310.95 1481.85 Q2310.95 1474.72 2309.12 1471.18 Q2307.31 1467.62 2303.68 1467.62 M2303.68 1463.91 Q2309.49 1463.91 2312.54 1468.52 Q2315.62 1473.1 2315.62 1481.85 Q2315.62 1490.58 2312.54 1495.19 Q2309.49 1499.77 2303.68 1499.77 Q2297.87 1499.77 2294.79 1495.19 Q2291.73 1490.58 2291.73 1481.85 Q2291.73 1473.1 2294.79 1468.52 Q2297.87 1463.91 2303.68 1463.91 Z" fill="#000000" fill-rule="evenodd" fill-opacity="1" /><path clip-path="url(#clip650)" d="M 0 0 M127.61 1363.81 Q123.999 1363.81 122.171 1367.37 Q120.365 1370.91 120.365 1378.04 Q120.365 1385.15 122.171 1388.72 Q123.999 1392.26 127.61 1392.26 Q131.245 1392.26 133.05 1388.72 Q134.879 1385.15 134.879 1378.04 Q134.879 1370.91 133.05 1367.37 Q131.245 1363.81 127.61 1363.81 M127.61 1360.1 Q133.421 1360.1 136.476 1364.71 Q139.555 1369.29 139.555 1378.04 Q139.555 1386.77 136.476 1391.38 Q133.421 1395.96 127.61 1395.96 Q121.8 1395.96 118.722 1391.38 Q115.666 1386.77 115.666 1378.04 Q115.666 1369.29 118.722 1364.71 Q121.8 1360.1 127.61 1360.1 Z" fill="#000000" fill-rule="evenodd" fill-opacity="1" /><path clip-path="url(#clip650)" d="M 0 0 M144.624 1389.41 L149.508 1389.41 L149.508 1395.29 L144.624 1395.29 L144.624 1389.41 Z" fill="#000000" fill-rule="evenodd" fill-opacity="1" /><path clip-path="url(#clip650)" d="M 0 0 M168.744 1376.65 Q172.101 1377.37 173.976 1379.64 Q175.874 1381.91 175.874 1385.24 Q175.874 1390.36 172.356 1393.16 Q168.837 1395.96 162.356 1395.96 Q160.18 1395.96 157.865 1395.52 Q155.573 1395.1 153.12 1394.25 L153.12 1389.73 Q155.064 1390.87 157.379 1391.45 Q159.694 1392.03 162.217 1392.03 Q166.615 1392.03 168.907 1390.29 Q171.221 1388.55 171.221 1385.24 Q171.221 1382.19 169.069 1380.47 Q166.939 1378.74 163.12 1378.74 L159.092 1378.74 L159.092 1374.9 L163.305 1374.9 Q166.754 1374.9 168.582 1373.53 Q170.411 1372.14 170.411 1369.55 Q170.411 1366.89 168.513 1365.47 Q166.638 1364.04 163.12 1364.04 Q161.198 1364.04 158.999 1364.46 Q156.8 1364.87 154.161 1365.75 L154.161 1361.59 Q156.823 1360.84 159.138 1360.47 Q161.476 1360.1 163.536 1360.1 Q168.86 1360.1 171.962 1362.53 Q175.064 1364.94 175.064 1369.06 Q175.064 1371.93 173.42 1373.92 Q171.777 1375.89 168.744 1376.65 Z" fill="#000000" fill-rule="evenodd" fill-opacity="1" /><path clip-path="url(#clip650)" d="M 0 0 M126.476 1176.98 Q122.865 1176.98 121.036 1180.54 Q119.231 1184.08 119.231 1191.21 Q119.231 1198.32 121.036 1201.88 Q122.865 1205.43 126.476 1205.43 Q130.11 1205.43 131.916 1201.88 Q133.745 1198.32 133.745 1191.21 Q133.745 1184.08 131.916 1180.54 Q130.11 1176.98 126.476 1176.98 M126.476 1173.27 Q132.286 1173.27 135.342 1177.88 Q138.421 1182.46 138.421 1191.21 Q138.421 1199.94 135.342 1204.55 Q132.286 1209.13 126.476 1209.13 Q120.666 1209.13 117.587 1204.55 Q114.532 1199.94 114.532 1191.21 Q114.532 1182.46 117.587 1177.88 Q120.666 1173.27 126.476 1173.27 Z" fill="#000000" fill-rule="evenodd" fill-opacity="1" /><path clip-path="url(#clip650)" d="M 0 0 M143.49 1202.58 L148.374 1202.58 L148.374 1208.46 L143.49 1208.46 L143.49 1202.58 Z" fill="#000000" fill-rule="evenodd" fill-opacity="1" /><path clip-path="url(#clip650)" d="M 0 0 M166.291 1177.97 L154.485 1196.42 L166.291 1196.42 L166.291 1177.97 M165.064 1173.9 L170.944 1173.9 L170.944 1196.42 L175.874 1196.42 L175.874 1200.31 L170.944 1200.31 L170.944 1208.46 L166.291 1208.46 L166.291 1200.31 L150.689 1200.31 L150.689 1195.8 L165.064 1173.9 Z" fill="#000000" fill-rule="evenodd" fill-opacity="1" /><path clip-path="url(#clip650)" d="M 0 0 M127.958 990.145 Q124.347 990.145 122.518 993.709 Q120.712 997.251 120.712 1004.38 Q120.712 1011.49 122.518 1015.05 Q124.347 1018.59 127.958 1018.59 Q131.592 1018.59 133.397 1015.05 Q135.226 1011.49 135.226 1004.38 Q135.226 997.251 133.397 993.709 Q131.592 990.145 127.958 990.145 M127.958 986.441 Q133.768 986.441 136.823 991.047 Q139.902 995.631 139.902 1004.38 Q139.902 1013.11 136.823 1017.71 Q133.768 1022.3 127.958 1022.3 Q122.148 1022.3 119.069 1017.71 Q116.013 1013.11 116.013 1004.38 Q116.013 995.631 119.069 991.047 Q122.148 986.441 127.958 986.441 Z" fill="#000000" fill-rule="evenodd" fill-opacity="1" /><path clip-path="url(#clip650)" d="M 0 0 M144.971 1015.75 L149.856 1015.75 L149.856 1021.63 L144.971 1021.63 L144.971 1015.75 Z" fill="#000000" fill-rule="evenodd" fill-opacity="1" /><path clip-path="url(#clip650)" d="M 0 0 M154.971 987.066 L173.328 987.066 L173.328 991.001 L159.254 991.001 L159.254 999.473 Q160.272 999.126 161.291 998.964 Q162.309 998.779 163.328 998.779 Q169.115 998.779 172.494 1001.95 Q175.874 1005.12 175.874 1010.54 Q175.874 1016.12 172.402 1019.22 Q168.93 1022.3 162.61 1022.3 Q160.434 1022.3 158.166 1021.93 Q155.92 1021.56 153.513 1020.82 L153.513 1016.12 Q155.596 1017.25 157.819 1017.81 Q160.041 1018.36 162.518 1018.36 Q166.522 1018.36 168.86 1016.26 Q171.198 1014.15 171.198 1010.54 Q171.198 1006.93 168.86 1004.82 Q166.522 1002.71 162.518 1002.71 Q160.643 1002.71 158.768 1003.13 Q156.916 1003.55 154.971 1004.43 L154.971 987.066 Z" fill="#000000" fill-rule="evenodd" fill-opacity="1" /><path clip-path="url(#clip650)" d="M 0 0 M126.8 803.313 Q123.189 803.313 121.36 806.878 Q119.555 810.42 119.555 817.549 Q119.555 824.656 121.36 828.22 Q123.189 831.762 126.8 831.762 Q130.435 831.762 132.24 828.22 Q134.069 824.656 134.069 817.549 Q134.069 810.42 132.24 806.878 Q130.435 803.313 126.8 803.313 M126.8 799.609 Q132.61 799.609 135.666 804.216 Q138.745 808.799 138.745 817.549 Q138.745 826.276 135.666 830.882 Q132.61 835.466 126.8 835.466 Q120.99 835.466 117.911 830.882 Q114.856 826.276 114.856 817.549 Q114.856 808.799 117.911 804.216 Q120.99 799.609 126.8 799.609 Z" fill="#000000" fill-rule="evenodd" fill-opacity="1" /><path clip-path="url(#clip650)" d="M 0 0 M143.814 828.915 L148.698 828.915 L148.698 834.794 L143.814 834.794 L143.814 828.915 Z" fill="#000000" fill-rule="evenodd" fill-opacity="1" /><path clip-path="url(#clip650)" d="M 0 0 M164.346 815.651 Q161.198 815.651 159.346 817.804 Q157.518 819.957 157.518 823.707 Q157.518 827.433 159.346 829.609 Q161.198 831.762 164.346 831.762 Q167.495 831.762 169.323 829.609 Q171.175 827.433 171.175 823.707 Q171.175 819.957 169.323 817.804 Q167.495 815.651 164.346 815.651 M173.629 800.998 L173.629 805.258 Q171.869 804.424 170.064 803.984 Q168.282 803.545 166.522 803.545 Q161.893 803.545 159.439 806.67 Q157.008 809.795 156.661 816.114 Q158.027 814.1 160.087 813.035 Q162.147 811.947 164.624 811.947 Q169.832 811.947 172.842 815.119 Q175.874 818.267 175.874 823.707 Q175.874 829.031 172.726 832.248 Q169.578 835.466 164.346 835.466 Q158.351 835.466 155.18 830.882 Q152.008 826.276 152.008 817.549 Q152.008 809.355 155.897 804.494 Q159.786 799.609 166.337 799.609 Q168.096 799.609 169.879 799.957 Q171.684 800.304 173.629 800.998 Z" fill="#000000" fill-rule="evenodd" fill-opacity="1" /><path clip-path="url(#clip650)" d="M 0 0 M127.865 616.482 Q124.254 616.482 122.425 620.046 Q120.62 623.588 120.62 630.718 Q120.62 637.824 122.425 641.389 Q124.254 644.93 127.865 644.93 Q131.499 644.93 133.305 641.389 Q135.134 637.824 135.134 630.718 Q135.134 623.588 133.305 620.046 Q131.499 616.482 127.865 616.482 M127.865 612.778 Q133.675 612.778 136.731 617.384 Q139.809 621.968 139.809 630.718 Q139.809 639.444 136.731 644.051 Q133.675 648.634 127.865 648.634 Q122.055 648.634 118.976 644.051 Q115.921 639.444 115.921 630.718 Q115.921 621.968 118.976 617.384 Q122.055 612.778 127.865 612.778 Z" fill="#000000" fill-rule="evenodd" fill-opacity="1" /><path clip-path="url(#clip650)" d="M 0 0 M144.879 642.083 L149.763 642.083 L149.763 647.963 L144.879 647.963 L144.879 642.083 Z" fill="#000000" fill-rule="evenodd" fill-opacity="1" /><path clip-path="url(#clip650)" d="M 0 0 M153.652 613.403 L175.874 613.403 L175.874 615.394 L163.328 647.963 L158.444 647.963 L170.249 617.338 L153.652 617.338 L153.652 613.403 Z" fill="#000000" fill-rule="evenodd" fill-opacity="1" /><path clip-path="url(#clip650)" d="M 0 0 M127.055 429.65 Q123.444 429.65 121.615 433.215 Q119.81 436.756 119.81 443.886 Q119.81 450.992 121.615 454.557 Q123.444 458.099 127.055 458.099 Q130.689 458.099 132.495 454.557 Q134.323 450.992 134.323 443.886 Q134.323 436.756 132.495 433.215 Q130.689 429.65 127.055 429.65 M127.055 425.946 Q132.865 425.946 135.921 430.553 Q138.999 435.136 138.999 443.886 Q138.999 452.613 135.921 457.219 Q132.865 461.803 127.055 461.803 Q121.245 461.803 118.166 457.219 Q115.111 452.613 115.111 443.886 Q115.111 435.136 118.166 430.553 Q121.245 425.946 127.055 425.946 Z" fill="#000000" fill-rule="evenodd" fill-opacity="1" /><path clip-path="url(#clip650)" d="M 0 0 M144.069 455.252 L148.953 455.252 L148.953 461.131 L144.069 461.131 L144.069 455.252 Z" fill="#000000" fill-rule="evenodd" fill-opacity="1" /><path clip-path="url(#clip650)" d="M 0 0 M164.022 444.719 Q160.689 444.719 158.768 446.502 Q156.87 448.284 156.87 451.409 Q156.87 454.534 158.768 456.317 Q160.689 458.099 164.022 458.099 Q167.356 458.099 169.277 456.317 Q171.198 454.511 171.198 451.409 Q171.198 448.284 169.277 446.502 Q167.379 444.719 164.022 444.719 M159.346 442.729 Q156.337 441.988 154.647 439.928 Q152.981 437.868 152.981 434.905 Q152.981 430.761 155.92 428.354 Q158.883 425.946 164.022 425.946 Q169.184 425.946 172.124 428.354 Q175.064 430.761 175.064 434.905 Q175.064 437.868 173.374 439.928 Q171.707 441.988 168.721 442.729 Q172.101 443.516 173.976 445.807 Q175.874 448.099 175.874 451.409 Q175.874 456.432 172.795 459.117 Q169.74 461.803 164.022 461.803 Q158.305 461.803 155.226 459.117 Q152.171 456.432 152.171 451.409 Q152.171 448.099 154.069 445.807 Q155.967 443.516 159.346 442.729 M157.633 435.344 Q157.633 438.03 159.3 439.534 Q160.99 441.039 164.022 441.039 Q167.032 441.039 168.721 439.534 Q170.434 438.03 170.434 435.344 Q170.434 432.659 168.721 431.155 Q167.032 429.65 164.022 429.65 Q160.99 429.65 159.3 431.155 Q157.633 432.659 157.633 435.344 Z" fill="#000000" fill-rule="evenodd" fill-opacity="1" /><path clip-path="url(#clip650)" d="M 0 0 M127.147 242.818 Q123.536 242.818 121.708 246.383 Q119.902 249.925 119.902 257.055 Q119.902 264.161 121.708 267.726 Q123.536 271.267 127.147 271.267 Q130.782 271.267 132.587 267.726 Q134.416 264.161 134.416 257.055 Q134.416 249.925 132.587 246.383 Q130.782 242.818 127.147 242.818 M127.147 239.115 Q132.958 239.115 136.013 243.721 Q139.092 248.305 139.092 257.055 Q139.092 265.781 136.013 270.388 Q132.958 274.971 127.147 274.971 Q121.337 274.971 118.259 270.388 Q115.203 265.781 115.203 257.055 Q115.203 248.305 118.259 243.721 Q121.337 239.115 127.147 239.115 Z" fill="#000000" fill-rule="evenodd" fill-opacity="1" /><path clip-path="url(#clip650)" d="M 0 0 M144.161 268.42 L149.046 268.42 L149.046 274.3 L144.161 274.3 L144.161 268.42 Z" fill="#000000" fill-rule="evenodd" fill-opacity="1" /><path clip-path="url(#clip650)" d="M 0 0 M154.254 273.582 L154.254 269.323 Q156.013 270.156 157.819 270.596 Q159.624 271.036 161.36 271.036 Q165.99 271.036 168.42 267.934 Q170.874 264.809 171.221 258.467 Q169.879 260.457 167.819 261.522 Q165.758 262.587 163.258 262.587 Q158.073 262.587 155.041 259.462 Q152.032 256.314 152.032 250.874 Q152.032 245.55 155.18 242.332 Q158.328 239.115 163.559 239.115 Q169.555 239.115 172.703 243.721 Q175.874 248.305 175.874 257.055 Q175.874 265.226 171.985 270.11 Q168.119 274.971 161.569 274.971 Q159.809 274.971 158.004 274.624 Q156.198 274.277 154.254 273.582 M163.559 258.93 Q166.707 258.93 168.536 256.777 Q170.388 254.624 170.388 250.874 Q170.388 247.147 168.536 244.994 Q166.707 242.818 163.559 242.818 Q160.411 242.818 158.559 244.994 Q156.731 247.147 156.731 250.874 Q156.731 254.624 158.559 256.777 Q160.411 258.93 163.559 258.93 Z" fill="#000000" fill-rule="evenodd" fill-opacity="1" /><path clip-path="url(#clip650)" d="M 0 0 M1296.83 4.53628 Q1296.74 4.94617 1296.58 5.68398 Q1296.42 6.3808 1295.68 8.59422 Q1294.94 10.8076 1293.96 13.0621 Q1293.01 15.2755 1291.17 18.3907 Q1289.37 21.4649 1287.15 24.2521 Q1286.54 24.9899 1286.42 25.4408 Q1286.33 25.8507 1286.33 27.2034 Q1286.33 35.7291 1288.92 35.7291 Q1289.04 35.7291 1289.24 35.7291 Q1289.49 35.6881 1290.1 35.4832 Q1290.76 35.2373 1291.33 34.8683 Q1291.91 34.4585 1292.56 33.6387 Q1293.22 32.7779 1293.63 31.6302 Q1294 30.8104 1294.74 30.8104 Q1295.72 30.8104 1295.72 31.6302 Q1295.72 33.1058 1293.67 35.3602 Q1291.62 37.6146 1288.67 37.6146 Q1285.84 37.6146 1283.83 35.7701 Q1281.87 33.8846 1281.05 30.5235 Q1272.19 37.6146 1263.34 37.6146 Q1257.11 37.6146 1253.42 33.5567 Q1249.73 29.4578 1249.73 23.3913 Q1249.73 17.5709 1252.93 12.0373 Q1256.16 6.50377 1261.41 3.06067 Q1266.7 -0.423422 1272.31 -0.423422 Q1274.28 -0.423422 1276.17 0.109439 Q1278.05 0.60131 1279.94 1.87198 Q1281.82 3.14265 1283.22 5.06914 Q1284.61 6.99564 1285.47 10.0288 Q1286.33 13.0621 1286.33 16.8741 L1286.33 22.0797 Q1291.74 15.2345 1294.57 5.43805 Q1294.98 3.96243 1295.23 3.79847 Q1295.39 3.67551 1295.8 3.67551 Q1296.21 3.67551 1296.46 3.92144 Q1296.74 4.12639 1296.79 4.33133 L1296.83 4.53628 M1280.72 28.3511 Q1280.55 26.9164 1280.55 18.9645 Q1280.55 17.4479 1280.55 16.6281 Q1280.55 15.7673 1280.47 14.1278 Q1280.39 12.4882 1280.23 11.4635 Q1280.1 10.4387 1279.82 8.96312 Q1279.53 7.48751 1279.12 6.54476 Q1278.71 5.602 1278.05 4.53628 Q1277.44 3.47056 1276.62 2.85572 Q1275.84 2.24088 1274.69 1.83099 Q1273.59 1.4211 1272.23 1.4211 Q1270.55 1.4211 1268.79 2.03594 Q1267.07 2.60978 1264.85 4.4543 Q1262.64 6.25783 1260.8 9.12708 Q1258.87 12.1603 1257.39 17.7348 Q1255.96 23.2684 1255.96 26.5885 Q1255.96 30.7694 1257.89 33.2698 Q1259.81 35.7291 1263.5 35.7291 Q1272.31 35.7291 1280.72 28.3511 Z" fill="#000000" fill-rule="evenodd" fill-opacity="1" /><path clip-path="url(#clip650)" d="M 0 0 M1290.48 1525.39 Q1290.48 1527.19 1289.35 1528.22 Q1288.22 1529.22 1286.93 1529.22 Q1285.71 1529.22 1285.06 1528.51 Q1284.42 1527.8 1284.42 1526.9 Q1284.42 1525.68 1285.32 1524.61 Q1286.22 1523.55 1287.58 1523.33 Q1286.26 1522.49 1284.29 1522.49 Q1283 1522.49 1281.88 1523.16 Q1280.78 1523.84 1280.1 1524.71 Q1279.46 1525.58 1278.88 1526.84 Q1278.33 1528.06 1278.11 1528.8 Q1277.91 1529.51 1277.75 1530.28 L1275.5 1539.3 Q1274.4 1543.58 1274.4 1545.1 Q1274.4 1546.97 1275.31 1548.22 Q1276.21 1549.44 1278.01 1549.44 Q1278.72 1549.44 1279.53 1549.25 Q1280.33 1549.03 1281.36 1548.45 Q1282.42 1547.83 1283.36 1546.93 Q1284.32 1546 1285.26 1544.42 Q1286.19 1542.84 1286.8 1540.81 Q1287 1540.11 1287.64 1540.11 Q1288.45 1540.11 1288.45 1540.75 Q1288.45 1541.3 1288 1542.46 Q1287.58 1543.58 1286.64 1545.06 Q1285.74 1546.51 1284.55 1547.83 Q1283.36 1549.12 1281.59 1550.02 Q1279.81 1550.93 1277.88 1550.93 Q1275.11 1550.93 1273.28 1549.44 Q1271.44 1547.96 1270.77 1545.9 Q1270.6 1546.19 1270.38 1546.58 Q1270.15 1546.97 1269.48 1547.83 Q1268.83 1548.67 1268.09 1549.32 Q1267.35 1549.93 1266.19 1550.41 Q1265.06 1550.93 1263.84 1550.93 Q1262.29 1550.93 1260.91 1550.48 Q1259.56 1550.02 1258.59 1548.99 Q1257.63 1547.96 1257.63 1546.55 Q1257.63 1544.97 1258.69 1543.87 Q1259.78 1542.75 1261.26 1542.75 Q1262.2 1542.75 1262.94 1543.29 Q1263.71 1543.84 1263.71 1545.03 Q1263.71 1546.35 1262.81 1547.35 Q1261.91 1548.35 1260.62 1548.61 Q1261.94 1549.44 1263.91 1549.44 Q1266.03 1549.44 1267.71 1547.58 Q1269.38 1545.71 1270.19 1542.59 Q1272.18 1535.08 1272.96 1531.73 Q1273.73 1528.35 1273.73 1526.9 Q1273.73 1525.55 1273.37 1524.61 Q1273.02 1523.68 1272.41 1523.26 Q1271.83 1522.81 1271.28 1522.65 Q1270.77 1522.49 1270.19 1522.49 Q1269.22 1522.49 1268.12 1522.88 Q1267.06 1523.26 1265.77 1524.16 Q1264.52 1525.03 1263.33 1526.84 Q1262.13 1528.64 1261.33 1531.12 Q1261.17 1531.86 1260.46 1531.86 Q1259.69 1531.83 1259.69 1531.18 Q1259.69 1530.64 1260.1 1529.51 Q1260.56 1528.35 1261.46 1526.9 Q1262.39 1525.45 1263.58 1524.16 Q1264.81 1522.84 1266.58 1521.94 Q1268.38 1521.04 1270.31 1521.04 Q1271.18 1521.04 1272.02 1521.23 Q1272.89 1521.39 1273.92 1521.88 Q1274.98 1522.36 1275.92 1523.42 Q1276.85 1524.49 1277.43 1526.03 Q1277.82 1525.29 1278.33 1524.58 Q1278.88 1523.87 1279.72 1523 Q1280.59 1522.1 1281.78 1521.59 Q1283 1521.04 1284.36 1521.04 Q1285.68 1521.04 1286.96 1521.39 Q1288.25 1521.72 1289.35 1522.78 Q1290.48 1523.81 1290.48 1525.39 Z" fill="#000000" fill-rule="evenodd" fill-opacity="1" /><path clip-path="url(#clip650)" d="M 0 0 M50.5695 752.42 Q51.0203 752.42 52.0831 752.71 L77.2681 759.022 Q82.8719 760.407 86.801 764.916 Q90.7302 769.393 90.7302 774.481 Q90.7302 777.541 89.0877 779.505 Q87.4774 781.47 84.9975 781.47 Q82.8075 781.47 81.7447 780.31 Q80.7141 779.151 80.7141 777.766 Q80.7141 777.315 80.843 776.832 Q80.9718 776.349 81.5193 775.834 Q82.0668 775.318 83.0008 775.318 Q84.5144 775.318 85.706 776.639 Q86.2535 777.283 86.3824 777.895 Q86.5112 778.475 86.5112 779.473 Q87.413 779.086 88.0249 778.378 Q88.6368 777.669 88.8622 776.864 Q89.1199 776.059 89.1843 775.544 Q89.2809 774.996 89.2809 774.481 Q89.2809 770.359 85.1263 767.203 Q83.8703 766.269 82.6143 765.592 Q81.3905 764.884 79.8768 764.368 Q78.3953 763.853 77.5902 763.628 Q76.785 763.37 74.9493 762.919 Q77.9444 765.914 77.9444 769.586 Q77.9444 771.132 77.5258 772.516 Q77.1071 773.869 76.2375 775.061 Q75.3358 776.252 73.7577 776.961 Q72.1796 777.637 70.0862 777.637 Q67.864 777.637 64.8366 776.768 Q61.8093 775.898 56.2377 773.805 Q53.1137 772.678 51.6 772.678 Q50.8593 772.678 50.4084 772.839 Q49.9253 773 49.7643 773.322 Q49.5711 773.644 49.5389 773.837 Q49.5067 773.998 49.5067 774.32 Q49.5067 776.22 51.439 777.991 Q53.3714 779.763 57.6869 780.987 Q58.4921 781.244 58.6853 781.405 Q58.8786 781.566 58.8786 782.049 Q58.8464 782.855 58.2022 782.855 Q57.9446 782.855 56.9462 782.565 Q55.9156 782.275 54.4019 781.599 Q52.8561 780.89 51.4712 779.924 Q50.0542 778.958 49.0558 777.444 Q48.0574 775.898 48.0574 774.127 Q48.0574 771.711 49.6355 770.23 Q51.1814 768.716 53.468 768.716 Q54.4019 768.716 55.2393 768.974 Q56.0444 769.199 58.2022 770.037 Q66.8978 773.418 71.149 773.418 Q72.1796 773.418 73.0491 773.257 Q73.8865 773.064 74.7238 772.645 Q75.529 772.227 76.0121 771.389 Q76.463 770.52 76.463 769.328 Q76.463 767.814 75.7544 766.397 Q75.0137 764.948 74.0153 764.046 Q73.0169 763.112 72.1796 762.565 Q71.31 761.985 70.8591 761.856 L59.0074 758.893 L53.7256 757.573 Q50.8593 756.961 50.1508 756.671 Q49.4745 756.285 49.1202 755.608 Q48.7659 754.932 48.7659 754.352 Q48.7659 753.547 49.249 753 Q49.7321 752.42 50.5695 752.42 Z" fill="#000000" fill-rule="evenodd" fill-opacity="1" /><polyline clip-path="url(#clip653)" style="stroke:#009af9; stroke-width:4; stroke-opacity:1; fill:none" points="
  260.805,492.454 486.474,897.872 712.143,126.487 937.812,1407.21 1163.48,424.492 1389.15,1192.7 1614.82,626.217 1840.49,133.51 2066.16,855.811 2291.83,759.092 
  
  "/>
<path clip-path="url(#clip650)" d="
M1990.77 254.277 L2280.99 254.277 L2280.99 133.317 L1990.77 133.317  Z
  " fill="#ffffff" fill-rule="evenodd" fill-opacity="1"/>
<polyline clip-path="url(#clip650)" style="stroke:#000000; stroke-width:4; stroke-opacity:1; fill:none" points="
  1990.77,254.277 2280.99,254.277 2280.99,133.317 1990.77,133.317 1990.77,254.277 
  "/>
<polyline clip-path="url(#clip650)" style="stroke:#009af9; stroke-width:4; stroke-opacity:1; fill:none" points="
  2014.69,193.797 2158.21,193.797 
  "/>
<path clip-path="url(#clip650)" d="M 0 0 M2195.98 213.484 Q2194.17 218.114 2192.46 219.526 Q2190.74 220.938 2187.87 220.938 L2184.47 220.938 L2184.47 217.373 L2186.97 217.373 Q2188.73 217.373 2189.7 216.54 Q2190.67 215.707 2191.86 212.605 L2192.62 210.66 L2182.13 185.151 L2186.65 185.151 L2194.75 205.429 L2202.85 185.151 L2207.36 185.151 L2195.98 213.484 Z" fill="#000000" fill-rule="evenodd" fill-opacity="1" /><path clip-path="url(#clip650)" d="M 0 0 M2213.24 207.142 L2220.88 207.142 L2220.88 180.776 L2212.57 182.443 L2212.57 178.184 L2220.84 176.517 L2225.51 176.517 L2225.51 207.142 L2233.15 207.142 L2233.15 211.077 L2213.24 211.077 L2213.24 207.142 Z" fill="#000000" fill-rule="evenodd" fill-opacity="1" /></svg>
