<?xml version="1.0" encoding="utf-8"?>
<svg xmlns="http://www.w3.org/2000/svg" xmlns:xlink="http://www.w3.org/1999/xlink" width="600" height="400" viewBox="0 0 2400 1600">
<defs>
  <clipPath id="clip6600">
    <rect x="0" y="0" width="2400" height="1600"/>
  </clipPath>
</defs>
<path clip-path="url(#clip6600)" d="
M0 1600 L2400 1600 L2400 0 L0 0  Z
  " fill="#ffffff" fill-rule="evenodd" fill-opacity="1"/>
<defs>
  <clipPath id="clip6601">
    <rect x="480" y="0" width="1681" height="1600"/>
  </clipPath>
</defs>
<path clip-path="url(#clip6600)" d="
M226.671 1406.36 L2352.76 1406.36 L2352.76 47.2441 L226.671 47.2441  Z
  " fill="#ffffff" fill-rule="evenodd" fill-opacity="1"/>
<defs>
  <clipPath id="clip6602">
    <rect x="226" y="47" width="2127" height="1360"/>
  </clipPath>
</defs>
<polyline clip-path="url(#clip6602)" style="stroke:#000000; stroke-width:2; stroke-opacity:0.1; fill:none" points="
  509.703,1406.36 509.703,47.2441 
  "/>
<polyline clip-path="url(#clip6602)" style="stroke:#000000; stroke-width:2; stroke-opacity:0.1; fill:none" points="
  955.423,1406.36 955.423,47.2441 
  "/>
<polyline clip-path="url(#clip6602)" style="stroke:#000000; stroke-width:2; stroke-opacity:0.1; fill:none" points="
  1401.14,1406.36 1401.14,47.2441 
  "/>
<polyline clip-path="url(#clip6602)" style="stroke:#000000; stroke-width:2; stroke-opacity:0.1; fill:none" points="
  1846.86,1406.36 1846.86,47.2441 
  "/>
<polyline clip-path="url(#clip6602)" style="stroke:#000000; stroke-width:2; stroke-opacity:0.1; fill:none" points="
  2292.58,1406.36 2292.58,47.2441 
  "/>
<polyline clip-path="url(#clip6602)" style="stroke:#000000; stroke-width:2; stroke-opacity:0.1; fill:none" points="
  226.671,1229.39 2352.76,1229.39 
  "/>
<polyline clip-path="url(#clip6602)" style="stroke:#000000; stroke-width:2; stroke-opacity:0.1; fill:none" points="
  226.671,912.809 2352.76,912.809 
  "/>
<polyline clip-path="url(#clip6602)" style="stroke:#000000; stroke-width:2; stroke-opacity:0.1; fill:none" points="
  226.671,596.23 2352.76,596.23 
  "/>
<polyline clip-path="url(#clip6602)" style="stroke:#000000; stroke-width:2; stroke-opacity:0.1; fill:none" points="
  226.671,279.65 2352.76,279.65 
  "/>
<polyline clip-path="url(#clip6600)" style="stroke:#000000; stroke-width:4; stroke-opacity:1; fill:none" points="
  226.671,1406.36 2352.76,1406.36 
  "/>
<polyline clip-path="url(#clip6600)" style="stroke:#000000; stroke-width:4; stroke-opacity:1; fill:none" points="
  226.671,1406.36 226.671,47.2441 
  "/>
<polyline clip-path="url(#clip6600)" style="stroke:#000000; stroke-width:4; stroke-opacity:1; fill:none" points="
  509.703,1406.36 509.703,1390.05 
  "/>
<polyline clip-path="url(#clip6600)" style="stroke:#000000; stroke-width:4; stroke-opacity:1; fill:none" points="
  955.423,1406.36 955.423,1390.05 
  "/>
<polyline clip-path="url(#clip6600)" style="stroke:#000000; stroke-width:4; stroke-opacity:1; fill:none" points="
  1401.14,1406.36 1401.14,1390.05 
  "/>
<polyline clip-path="url(#clip6600)" style="stroke:#000000; stroke-width:4; stroke-opacity:1; fill:none" points="
  1846.86,1406.36 1846.86,1390.05 
  "/>
<polyline clip-path="url(#clip6600)" style="stroke:#000000; stroke-width:4; stroke-opacity:1; fill:none" points="
  2292.58,1406.36 2292.58,1390.05 
  "/>
<polyline clip-path="url(#clip6600)" style="stroke:#000000; stroke-width:4; stroke-opacity:1; fill:none" points="
  226.671,1229.39 252.184,1229.39 
  "/>
<polyline clip-path="url(#clip6600)" style="stroke:#000000; stroke-width:4; stroke-opacity:1; fill:none" points="
  226.671,912.809 252.184,912.809 
  "/>
<polyline clip-path="url(#clip6600)" style="stroke:#000000; stroke-width:4; stroke-opacity:1; fill:none" points="
  226.671,596.23 252.184,596.23 
  "/>
<polyline clip-path="url(#clip6600)" style="stroke:#000000; stroke-width:4; stroke-opacity:1; fill:none" points="
  226.671,279.65 252.184,279.65 
  "/>
<path clip-path="url(#clip6600)" d="M 0 0 M504.356 1455.9 L520.675 1455.9 L520.675 1459.83 L498.731 1459.83 L498.731 1455.9 Q501.393 1453.14 505.976 1448.51 Q510.583 1443.86 511.763 1442.52 Q514.009 1440 514.888 1438.26 Q515.791 1436.5 515.791 1434.81 Q515.791 1432.06 513.846 1430.32 Q511.925 1428.58 508.823 1428.58 Q506.624 1428.58 504.171 1429.35 Q501.74 1430.11 498.962 1431.66 L498.962 1426.94 Q501.786 1425.81 504.24 1425.23 Q506.694 1424.65 508.731 1424.65 Q514.101 1424.65 517.296 1427.33 Q520.49 1430.02 520.49 1434.51 Q520.49 1436.64 519.68 1438.56 Q518.893 1440.46 516.786 1443.05 Q516.208 1443.72 513.106 1446.94 Q510.004 1450.13 504.356 1455.9 Z" fill="#000000" fill-rule="evenodd" fill-opacity="1" /><path clip-path="url(#clip6600)" d="M 0 0 M958.432 1429.35 L946.627 1447.8 L958.432 1447.8 L958.432 1429.35 M957.206 1425.27 L963.085 1425.27 L963.085 1447.8 L968.016 1447.8 L968.016 1451.68 L963.085 1451.68 L963.085 1459.83 L958.432 1459.83 L958.432 1451.68 L942.831 1451.68 L942.831 1447.17 L957.206 1425.27 Z" fill="#000000" fill-rule="evenodd" fill-opacity="1" /><path clip-path="url(#clip6600)" d="M 0 0 M1401.55 1440.69 Q1398.4 1440.69 1396.55 1442.84 Q1394.72 1445 1394.72 1448.75 Q1394.72 1452.47 1396.55 1454.65 Q1398.4 1456.8 1401.55 1456.8 Q1404.7 1456.8 1406.53 1454.65 Q1408.38 1452.47 1408.38 1448.75 Q1408.38 1445 1406.53 1442.84 Q1404.7 1440.69 1401.55 1440.69 M1410.83 1426.04 L1410.83 1430.3 Q1409.07 1429.46 1407.27 1429.02 Q1405.48 1428.58 1403.72 1428.58 Q1399.09 1428.58 1396.64 1431.71 Q1394.21 1434.83 1393.86 1441.15 Q1395.23 1439.14 1397.29 1438.07 Q1399.35 1436.99 1401.83 1436.99 Q1407.03 1436.99 1410.04 1440.16 Q1413.08 1443.31 1413.08 1448.75 Q1413.08 1454.07 1409.93 1457.29 Q1406.78 1460.5 1401.55 1460.5 Q1395.55 1460.5 1392.38 1455.92 Q1389.21 1451.31 1389.21 1442.59 Q1389.21 1434.39 1393.1 1429.53 Q1396.99 1424.65 1403.54 1424.65 Q1405.3 1424.65 1407.08 1425 Q1408.89 1425.34 1410.83 1426.04 Z" fill="#000000" fill-rule="evenodd" fill-opacity="1" /><path clip-path="url(#clip6600)" d="M 0 0 M1846.86 1443.42 Q1843.53 1443.42 1841.61 1445.2 Q1839.71 1446.99 1839.71 1450.11 Q1839.71 1453.24 1841.61 1455.02 Q1843.53 1456.8 1846.86 1456.8 Q1850.2 1456.8 1852.12 1455.02 Q1854.04 1453.21 1854.04 1450.11 Q1854.04 1446.99 1852.12 1445.2 Q1850.22 1443.42 1846.86 1443.42 M1842.19 1441.43 Q1839.18 1440.69 1837.49 1438.63 Q1835.82 1436.57 1835.82 1433.61 Q1835.82 1429.46 1838.76 1427.06 Q1841.72 1424.65 1846.86 1424.65 Q1852.03 1424.65 1854.97 1427.06 Q1857.91 1429.46 1857.91 1433.61 Q1857.91 1436.57 1856.22 1438.63 Q1854.55 1440.69 1851.56 1441.43 Q1854.94 1442.22 1856.82 1444.51 Q1858.72 1446.8 1858.72 1450.11 Q1858.72 1455.13 1855.64 1457.82 Q1852.58 1460.5 1846.86 1460.5 Q1841.15 1460.5 1838.07 1457.82 Q1835.01 1455.13 1835.01 1450.11 Q1835.01 1446.8 1836.91 1444.51 Q1838.81 1442.22 1842.19 1441.43 M1840.47 1434.05 Q1840.47 1436.73 1842.14 1438.24 Q1843.83 1439.74 1846.86 1439.74 Q1849.87 1439.74 1851.56 1438.24 Q1853.28 1436.73 1853.28 1434.05 Q1853.28 1431.36 1851.56 1429.86 Q1849.87 1428.35 1846.86 1428.35 Q1843.83 1428.35 1842.14 1429.86 Q1840.47 1431.36 1840.47 1434.05 Z" fill="#000000" fill-rule="evenodd" fill-opacity="1" /><path clip-path="url(#clip6600)" d="M 0 0 M2269.46 1455.9 L2277.1 1455.9 L2277.1 1429.53 L2268.79 1431.2 L2268.79 1426.94 L2277.05 1425.27 L2281.73 1425.27 L2281.73 1455.9 L2289.37 1455.9 L2289.37 1459.83 L2269.46 1459.83 L2269.46 1455.9 Z" fill="#000000" fill-rule="evenodd" fill-opacity="1" /><path clip-path="url(#clip6600)" d="M 0 0 M2304.44 1428.35 Q2300.82 1428.35 2299 1431.92 Q2297.19 1435.46 2297.19 1442.59 Q2297.19 1449.69 2299 1453.26 Q2300.82 1456.8 2304.44 1456.8 Q2308.07 1456.8 2309.88 1453.26 Q2311.7 1449.69 2311.7 1442.59 Q2311.7 1435.46 2309.88 1431.92 Q2308.07 1428.35 2304.44 1428.35 M2304.44 1424.65 Q2310.25 1424.65 2313.3 1429.25 Q2316.38 1433.84 2316.38 1442.59 Q2316.38 1451.31 2313.3 1455.92 Q2310.25 1460.5 2304.44 1460.5 Q2298.63 1460.5 2295.55 1455.92 Q2292.49 1451.31 2292.49 1442.59 Q2292.49 1433.84 2295.55 1429.25 Q2298.63 1424.65 2304.44 1424.65 Z" fill="#000000" fill-rule="evenodd" fill-opacity="1" /><path clip-path="url(#clip6600)" d="M 0 0 M155.356 1215.19 Q151.745 1215.19 149.916 1218.75 Q148.111 1222.29 148.111 1229.42 Q148.111 1236.53 149.916 1240.09 Q151.745 1243.64 155.356 1243.64 Q158.99 1243.64 160.796 1240.09 Q162.625 1236.53 162.625 1229.42 Q162.625 1222.29 160.796 1218.75 Q158.99 1215.19 155.356 1215.19 M155.356 1211.48 Q161.166 1211.48 164.222 1216.09 Q167.3 1220.67 167.3 1229.42 Q167.3 1238.15 164.222 1242.76 Q161.166 1247.34 155.356 1247.34 Q149.546 1247.34 146.467 1242.76 Q143.412 1238.15 143.412 1229.42 Q143.412 1220.67 146.467 1216.09 Q149.546 1211.48 155.356 1211.48 Z" fill="#000000" fill-rule="evenodd" fill-opacity="1" /><path clip-path="url(#clip6600)" d="M 0 0 M172.37 1240.79 L177.254 1240.79 L177.254 1246.67 L172.37 1246.67 L172.37 1240.79 Z" fill="#000000" fill-rule="evenodd" fill-opacity="1" /><path clip-path="url(#clip6600)" d="M 0 0 M186.351 1242.73 L202.671 1242.73 L202.671 1246.67 L180.726 1246.67 L180.726 1242.73 Q183.388 1239.98 187.972 1235.35 Q192.578 1230.7 193.759 1229.35 Q196.004 1226.83 196.884 1225.09 Q197.786 1223.33 197.786 1221.64 Q197.786 1218.89 195.842 1217.15 Q193.921 1215.42 190.819 1215.42 Q188.62 1215.42 186.166 1216.18 Q183.736 1216.95 180.958 1218.5 L180.958 1213.77 Q183.782 1212.64 186.236 1212.06 Q188.689 1211.48 190.726 1211.48 Q196.097 1211.48 199.291 1214.17 Q202.485 1216.85 202.485 1221.34 Q202.485 1223.47 201.675 1225.39 Q200.888 1227.29 198.782 1229.89 Q198.203 1230.56 195.101 1233.77 Q191.999 1236.97 186.351 1242.73 Z" fill="#000000" fill-rule="evenodd" fill-opacity="1" /><path clip-path="url(#clip6600)" d="M 0 0 M153.273 898.607 Q149.662 898.607 147.833 902.172 Q146.027 905.714 146.027 912.843 Q146.027 919.95 147.833 923.515 Q149.662 927.056 153.273 927.056 Q156.907 927.056 158.713 923.515 Q160.541 919.95 160.541 912.843 Q160.541 905.714 158.713 902.172 Q156.907 898.607 153.273 898.607 M153.273 894.904 Q159.083 894.904 162.138 899.51 Q165.217 904.093 165.217 912.843 Q165.217 921.57 162.138 926.177 Q159.083 930.76 153.273 930.76 Q147.463 930.76 144.384 926.177 Q141.328 921.57 141.328 912.843 Q141.328 904.093 144.384 899.51 Q147.463 894.904 153.273 894.904 Z" fill="#000000" fill-rule="evenodd" fill-opacity="1" /><path clip-path="url(#clip6600)" d="M 0 0 M170.287 924.209 L175.171 924.209 L175.171 930.089 L170.287 930.089 L170.287 924.209 Z" fill="#000000" fill-rule="evenodd" fill-opacity="1" /><path clip-path="url(#clip6600)" d="M 0 0 M193.087 899.603 L181.282 918.052 L193.087 918.052 L193.087 899.603 M191.861 895.529 L197.74 895.529 L197.74 918.052 L202.671 918.052 L202.671 921.941 L197.74 921.941 L197.74 930.089 L193.087 930.089 L193.087 921.941 L177.486 921.941 L177.486 917.427 L191.861 895.529 Z" fill="#000000" fill-rule="evenodd" fill-opacity="1" /><path clip-path="url(#clip6600)" d="M 0 0 M153.597 582.028 Q149.986 582.028 148.157 585.593 Q146.352 589.135 146.352 596.264 Q146.352 603.371 148.157 606.936 Q149.986 610.477 153.597 610.477 Q157.231 610.477 159.037 606.936 Q160.865 603.371 160.865 596.264 Q160.865 589.135 159.037 585.593 Q157.231 582.028 153.597 582.028 M153.597 578.325 Q159.407 578.325 162.463 582.931 Q165.541 587.514 165.541 596.264 Q165.541 604.991 162.463 609.598 Q159.407 614.181 153.597 614.181 Q147.787 614.181 144.708 609.598 Q141.652 604.991 141.652 596.264 Q141.652 587.514 144.708 582.931 Q147.787 578.325 153.597 578.325 Z" fill="#000000" fill-rule="evenodd" fill-opacity="1" /><path clip-path="url(#clip6600)" d="M 0 0 M170.611 607.63 L175.495 607.63 L175.495 613.51 L170.611 613.51 L170.611 607.63 Z" fill="#000000" fill-rule="evenodd" fill-opacity="1" /><path clip-path="url(#clip6600)" d="M 0 0 M191.143 594.366 Q187.995 594.366 186.143 596.519 Q184.314 598.672 184.314 602.422 Q184.314 606.148 186.143 608.324 Q187.995 610.477 191.143 610.477 Q194.291 610.477 196.12 608.324 Q197.972 606.148 197.972 602.422 Q197.972 598.672 196.12 596.519 Q194.291 594.366 191.143 594.366 M200.425 579.713 L200.425 583.973 Q198.666 583.139 196.861 582.7 Q195.078 582.26 193.319 582.26 Q188.689 582.26 186.236 585.385 Q183.805 588.51 183.458 594.829 Q184.824 592.815 186.884 591.75 Q188.944 590.662 191.421 590.662 Q196.629 590.662 199.638 593.834 Q202.671 596.982 202.671 602.422 Q202.671 607.746 199.523 610.963 Q196.374 614.181 191.143 614.181 Q185.148 614.181 181.976 609.598 Q178.805 604.991 178.805 596.264 Q178.805 588.07 182.694 583.209 Q186.583 578.325 193.134 578.325 Q194.893 578.325 196.675 578.672 Q198.481 579.019 200.425 579.713 Z" fill="#000000" fill-rule="evenodd" fill-opacity="1" /><path clip-path="url(#clip6600)" d="M 0 0 M153.851 265.449 Q150.24 265.449 148.412 269.014 Q146.606 272.556 146.606 279.685 Q146.606 286.792 148.412 290.356 Q150.24 293.898 153.851 293.898 Q157.486 293.898 159.291 290.356 Q161.12 286.792 161.12 279.685 Q161.12 272.556 159.291 269.014 Q157.486 265.449 153.851 265.449 M153.851 261.745 Q159.662 261.745 162.717 266.352 Q165.796 270.935 165.796 279.685 Q165.796 288.412 162.717 293.018 Q159.662 297.602 153.851 297.602 Q148.041 297.602 144.963 293.018 Q141.907 288.412 141.907 279.685 Q141.907 270.935 144.963 266.352 Q148.041 261.745 153.851 261.745 Z" fill="#000000" fill-rule="evenodd" fill-opacity="1" /><path clip-path="url(#clip6600)" d="M 0 0 M170.865 291.051 L175.75 291.051 L175.75 296.93 L170.865 296.93 L170.865 291.051 Z" fill="#000000" fill-rule="evenodd" fill-opacity="1" /><path clip-path="url(#clip6600)" d="M 0 0 M190.819 280.518 Q187.486 280.518 185.564 282.301 Q183.666 284.083 183.666 287.208 Q183.666 290.333 185.564 292.116 Q187.486 293.898 190.819 293.898 Q194.152 293.898 196.073 292.116 Q197.995 290.31 197.995 287.208 Q197.995 284.083 196.073 282.301 Q194.175 280.518 190.819 280.518 M186.143 278.528 Q183.134 277.787 181.444 275.727 Q179.777 273.667 179.777 270.704 Q179.777 266.56 182.717 264.153 Q185.68 261.745 190.819 261.745 Q195.981 261.745 198.921 264.153 Q201.86 266.56 201.86 270.704 Q201.86 273.667 200.171 275.727 Q198.504 277.787 195.518 278.528 Q198.898 279.315 200.773 281.606 Q202.671 283.898 202.671 287.208 Q202.671 292.231 199.592 294.916 Q196.536 297.602 190.819 297.602 Q185.101 297.602 182.023 294.916 Q178.967 292.231 178.967 287.208 Q178.967 283.898 180.865 281.606 Q182.763 279.315 186.143 278.528 M184.43 271.143 Q184.43 273.829 186.097 275.333 Q187.786 276.838 190.819 276.838 Q193.828 276.838 195.518 275.333 Q197.231 273.829 197.231 271.143 Q197.231 268.458 195.518 266.954 Q193.828 265.449 190.819 265.449 Q187.786 265.449 186.097 266.954 Q184.43 268.458 184.43 271.143 Z" fill="#000000" fill-rule="evenodd" fill-opacity="1" /><path clip-path="url(#clip6600)" d="M 0 0 M1303.87 1486.67 Q1303.87 1488.47 1302.75 1489.5 Q1301.62 1490.5 1300.33 1490.5 Q1299.11 1490.5 1298.46 1489.79 Q1297.82 1489.08 1297.82 1488.18 Q1297.82 1486.96 1298.72 1485.9 Q1299.62 1484.83 1300.97 1484.61 Q1299.65 1483.77 1297.69 1483.77 Q1296.4 1483.77 1295.27 1484.45 Q1294.18 1485.12 1293.5 1485.99 Q1292.86 1486.86 1292.28 1488.12 Q1291.73 1489.34 1291.51 1490.08 Q1291.31 1490.79 1291.15 1491.56 L1288.9 1500.58 Q1287.8 1504.86 1287.8 1506.38 Q1287.8 1508.25 1288.7 1509.5 Q1289.61 1510.73 1291.41 1510.73 Q1292.12 1510.73 1292.92 1510.53 Q1293.73 1510.31 1294.76 1509.73 Q1295.82 1509.12 1296.76 1508.21 Q1297.72 1507.28 1298.66 1505.7 Q1299.59 1504.12 1300.2 1502.09 Q1300.4 1501.39 1301.04 1501.39 Q1301.84 1501.39 1301.84 1502.03 Q1301.84 1502.58 1301.39 1503.74 Q1300.97 1504.86 1300.04 1506.35 Q1299.14 1507.8 1297.95 1509.12 Q1296.76 1510.4 1294.98 1511.31 Q1293.21 1512.21 1291.28 1512.21 Q1288.51 1512.21 1286.68 1510.73 Q1284.84 1509.24 1284.16 1507.18 Q1284 1507.47 1283.78 1507.86 Q1283.55 1508.25 1282.88 1509.12 Q1282.23 1509.95 1281.49 1510.6 Q1280.75 1511.21 1279.59 1511.69 Q1278.46 1512.21 1277.24 1512.21 Q1275.69 1512.21 1274.31 1511.76 Q1272.96 1511.31 1271.99 1510.28 Q1271.02 1509.24 1271.02 1507.83 Q1271.02 1506.25 1272.09 1505.15 Q1273.18 1504.03 1274.66 1504.03 Q1275.6 1504.03 1276.34 1504.57 Q1277.11 1505.12 1277.11 1506.31 Q1277.11 1507.63 1276.21 1508.63 Q1275.31 1509.63 1274.02 1509.89 Q1275.34 1510.73 1277.3 1510.73 Q1279.43 1510.73 1281.1 1508.86 Q1282.78 1506.99 1283.58 1503.87 Q1285.58 1496.36 1286.35 1493.01 Q1287.13 1489.63 1287.13 1488.18 Q1287.13 1486.83 1286.77 1485.9 Q1286.42 1484.96 1285.81 1484.54 Q1285.23 1484.09 1284.68 1483.93 Q1284.16 1483.77 1283.58 1483.77 Q1282.62 1483.77 1281.52 1484.16 Q1280.46 1484.54 1279.17 1485.44 Q1277.92 1486.31 1276.72 1488.12 Q1275.53 1489.92 1274.73 1492.4 Q1274.57 1493.14 1273.86 1493.14 Q1273.08 1493.11 1273.08 1492.47 Q1273.08 1491.92 1273.5 1490.79 Q1273.95 1489.63 1274.86 1488.18 Q1275.79 1486.73 1276.98 1485.44 Q1278.21 1484.12 1279.98 1483.22 Q1281.78 1482.32 1283.71 1482.32 Q1284.58 1482.32 1285.42 1482.51 Q1286.29 1482.67 1287.32 1483.16 Q1288.38 1483.64 1289.32 1484.7 Q1290.25 1485.77 1290.83 1487.31 Q1291.22 1486.57 1291.73 1485.86 Q1292.28 1485.15 1293.12 1484.28 Q1293.99 1483.38 1295.18 1482.87 Q1296.4 1482.32 1297.75 1482.32 Q1299.07 1482.32 1300.36 1482.67 Q1301.65 1483 1302.75 1484.06 Q1303.87 1485.09 1303.87 1486.67 Z" fill="#000000" fill-rule="evenodd" fill-opacity="1" /><path clip-path="url(#clip6600)" d="M 0 0 M76.4129 712.377 Q76.8638 712.377 77.9266 712.666 L103.112 718.979 Q108.715 720.364 112.644 724.872 Q116.574 729.349 116.574 734.438 Q116.574 737.497 114.931 739.462 Q113.321 741.426 110.841 741.426 Q108.651 741.426 107.588 740.267 Q106.558 739.107 106.558 737.723 Q106.558 737.272 106.686 736.789 Q106.815 736.306 107.363 735.79 Q107.91 735.275 108.844 735.275 Q110.358 735.275 111.549 736.595 Q112.097 737.24 112.226 737.851 Q112.355 738.431 112.355 739.43 Q113.256 739.043 113.868 738.335 Q114.48 737.626 114.706 736.821 Q114.963 736.016 115.028 735.5 Q115.124 734.953 115.124 734.438 Q115.124 730.315 110.97 727.159 Q109.714 726.225 108.458 725.549 Q107.234 724.84 105.72 724.325 Q104.239 723.81 103.434 723.584 Q102.628 723.327 100.793 722.876 Q103.788 725.871 103.788 729.542 Q103.788 731.088 103.369 732.473 Q102.951 733.826 102.081 735.017 Q101.179 736.209 99.6011 736.917 Q98.023 737.594 95.9296 737.594 Q93.7074 737.594 90.6801 736.724 Q87.6527 735.855 82.0811 733.761 Q78.9572 732.634 77.4435 732.634 Q76.7027 732.634 76.2519 732.795 Q75.7688 732.956 75.6077 733.278 Q75.4145 733.6 75.3823 733.793 Q75.3501 733.955 75.3501 734.277 Q75.3501 736.177 77.2825 737.948 Q79.2148 739.719 83.5304 740.943 Q84.3355 741.201 84.5288 741.362 Q84.722 741.523 84.722 742.006 Q84.6898 742.811 84.0457 742.811 Q83.788 742.811 82.7897 742.521 Q81.7591 742.231 80.2454 741.555 Q78.6995 740.847 77.3147 739.88 Q75.8976 738.914 74.8992 737.401 Q73.9008 735.855 73.9008 734.083 Q73.9008 731.668 75.4789 730.186 Q77.0248 728.673 79.3114 728.673 Q80.2454 728.673 81.0827 728.93 Q81.8879 729.156 84.0457 729.993 Q92.7413 733.375 96.9924 733.375 Q98.023 733.375 98.8926 733.214 Q99.7299 733.021 100.567 732.602 Q101.372 732.183 101.856 731.346 Q102.306 730.476 102.306 729.285 Q102.306 727.771 101.598 726.354 Q100.857 724.905 99.8588 724.003 Q98.8604 723.069 98.023 722.521 Q97.1535 721.942 96.7026 721.813 L84.8508 718.85 L79.5691 717.53 Q76.7027 716.918 75.9942 716.628 Q75.3179 716.241 74.9636 715.565 Q74.6094 714.889 74.6094 714.309 Q74.6094 713.504 75.0925 712.956 Q75.5755 712.377 76.4129 712.377 Z" fill="#000000" fill-rule="evenodd" fill-opacity="1" /><polyline clip-path="url(#clip6602)" style="stroke:#009af9; stroke-width:4; stroke-opacity:1; fill:none" points="
  286.843,1164.7 509.703,867.259 732.563,714.95 955.423,139.8 1178.28,85.7097 1401.14,507.811 1624,451.085 1846.86,853.234 2069.72,1367.9 2292.58,840.075 
  
  "/>
<path clip-path="url(#clip6600)" d="
M1989.74 251.724 L2280.76 251.724 L2280.76 130.764 L1989.74 130.764  Z
  " fill="#ffffff" fill-rule="evenodd" fill-opacity="1"/>
<polyline clip-path="url(#clip6600)" style="stroke:#000000; stroke-width:4; stroke-opacity:1; fill:none" points="
  1989.74,251.724 2280.76,251.724 2280.76,130.764 1989.74,130.764 1989.74,251.724 
  "/>
<polyline clip-path="url(#clip6600)" style="stroke:#009af9; stroke-width:4; stroke-opacity:1; fill:none" points="
  2013.74,191.244 2157.74,191.244 
  "/>
<path clip-path="url(#clip6600)" d="M 0 0 M2195.58 210.931 Q2193.77 215.561 2192.06 216.973 Q2190.35 218.385 2187.48 218.385 L2184.08 218.385 L2184.08 214.82 L2186.58 214.82 Q2188.33 214.82 2189.31 213.987 Q2190.28 213.154 2191.46 210.052 L2192.22 208.107 L2181.74 182.598 L2186.25 182.598 L2194.35 202.876 L2202.46 182.598 L2206.97 182.598 L2195.58 210.931 Z" fill="#000000" fill-rule="evenodd" fill-opacity="1" /><path clip-path="url(#clip6600)" d="M 0 0 M2212.85 204.589 L2220.49 204.589 L2220.49 178.223 L2212.18 179.89 L2212.18 175.631 L2220.44 173.964 L2225.12 173.964 L2225.12 204.589 L2232.76 204.589 L2232.76 208.524 L2212.85 208.524 L2212.85 204.589 Z" fill="#000000" fill-rule="evenodd" fill-opacity="1" /></svg>
