<?xml version="1.0" encoding="utf-8"?>
<svg xmlns="http://www.w3.org/2000/svg" xmlns:xlink="http://www.w3.org/1999/xlink" width="600" height="400" viewBox="0 0 2400 1600">
<defs>
  <clipPath id="clip7400">
    <rect x="0" y="0" width="2400" height="1600"/>
  </clipPath>
</defs>
<path clip-path="url(#clip7400)" d="
M0 1600 L2400 1600 L2400 0 L0 0  Z
  " fill="#ffffff" fill-rule="evenodd" fill-opacity="1"/>
<defs>
  <clipPath id="clip7401">
    <rect x="480" y="0" width="1681" height="1600"/>
  </clipPath>
</defs>
<path clip-path="url(#clip7400)" d="
M226.671 1406.36 L2352.76 1406.36 L2352.76 47.2441 L226.671 47.2441  Z
  " fill="#ffffff" fill-rule="evenodd" fill-opacity="1"/>
<defs>
  <clipPath id="clip7402">
    <rect x="226" y="47" width="2127" height="1360"/>
  </clipPath>
</defs>
<polyline clip-path="url(#clip7402)" style="stroke:#000000; stroke-width:2; stroke-opacity:0.1; fill:none" points="
  509.703,1406.36 509.703,47.2441 
  "/>
<polyline clip-path="url(#clip7402)" style="stroke:#000000; stroke-width:2; stroke-opacity:0.1; fill:none" points="
  955.423,1406.36 955.423,47.2441 
  "/>
<polyline clip-path="url(#clip7402)" style="stroke:#000000; stroke-width:2; stroke-opacity:0.1; fill:none" points="
  1401.14,1406.36 1401.14,47.2441 
  "/>
<polyline clip-path="url(#clip7402)" style="stroke:#000000; stroke-width:2; stroke-opacity:0.1; fill:none" points="
  1846.86,1406.36 1846.86,47.2441 
  "/>
<polyline clip-path="url(#clip7402)" style="stroke:#000000; stroke-width:2; stroke-opacity:0.1; fill:none" points="
  2292.58,1406.36 2292.58,47.2441 
  "/>
<polyline clip-path="url(#clip7402)" style="stroke:#000000; stroke-width:2; stroke-opacity:0.1; fill:none" points="
  226.671,1369.65 2352.76,1369.65 
  "/>
<polyline clip-path="url(#clip7402)" style="stroke:#000000; stroke-width:2; stroke-opacity:0.1; fill:none" points="
  226.671,1055.23 2352.76,1055.23 
  "/>
<polyline clip-path="url(#clip7402)" style="stroke:#000000; stroke-width:2; stroke-opacity:0.1; fill:none" points="
  226.671,740.804 2352.76,740.804 
  "/>
<polyline clip-path="url(#clip7402)" style="stroke:#000000; stroke-width:2; stroke-opacity:0.1; fill:none" points="
  226.671,426.384 2352.76,426.384 
  "/>
<polyline clip-path="url(#clip7402)" style="stroke:#000000; stroke-width:2; stroke-opacity:0.1; fill:none" points="
  226.671,111.963 2352.76,111.963 
  "/>
<polyline clip-path="url(#clip7400)" style="stroke:#000000; stroke-width:4; stroke-opacity:1; fill:none" points="
  226.671,1406.36 2352.76,1406.36 
  "/>
<polyline clip-path="url(#clip7400)" style="stroke:#000000; stroke-width:4; stroke-opacity:1; fill:none" points="
  226.671,1406.36 226.671,47.2441 
  "/>
<polyline clip-path="url(#clip7400)" style="stroke:#000000; stroke-width:4; stroke-opacity:1; fill:none" points="
  509.703,1406.36 509.703,1390.05 
  "/>
<polyline clip-path="url(#clip7400)" style="stroke:#000000; stroke-width:4; stroke-opacity:1; fill:none" points="
  955.423,1406.36 955.423,1390.05 
  "/>
<polyline clip-path="url(#clip7400)" style="stroke:#000000; stroke-width:4; stroke-opacity:1; fill:none" points="
  1401.14,1406.36 1401.14,1390.05 
  "/>
<polyline clip-path="url(#clip7400)" style="stroke:#000000; stroke-width:4; stroke-opacity:1; fill:none" points="
  1846.86,1406.36 1846.86,1390.05 
  "/>
<polyline clip-path="url(#clip7400)" style="stroke:#000000; stroke-width:4; stroke-opacity:1; fill:none" points="
  2292.58,1406.36 2292.58,1390.05 
  "/>
<polyline clip-path="url(#clip7400)" style="stroke:#000000; stroke-width:4; stroke-opacity:1; fill:none" points="
  226.671,1369.65 252.184,1369.65 
  "/>
<polyline clip-path="url(#clip7400)" style="stroke:#000000; stroke-width:4; stroke-opacity:1; fill:none" points="
  226.671,1055.23 252.184,1055.23 
  "/>
<polyline clip-path="url(#clip7400)" style="stroke:#000000; stroke-width:4; stroke-opacity:1; fill:none" points="
  226.671,740.804 252.184,740.804 
  "/>
<polyline clip-path="url(#clip7400)" style="stroke:#000000; stroke-width:4; stroke-opacity:1; fill:none" points="
  226.671,426.384 252.184,426.384 
  "/>
<polyline clip-path="url(#clip7400)" style="stroke:#000000; stroke-width:4; stroke-opacity:1; fill:none" points="
  226.671,111.963 252.184,111.963 
  "/>
<path clip-path="url(#clip7400)" d="M 0 0 M504.356 1455.9 L520.675 1455.9 L520.675 1459.83 L498.731 1459.83 L498.731 1455.9 Q501.393 1453.14 505.976 1448.51 Q510.583 1443.86 511.763 1442.52 Q514.009 1440 514.888 1438.26 Q515.791 1436.5 515.791 1434.81 Q515.791 1432.06 513.846 1430.32 Q511.925 1428.58 508.823 1428.58 Q506.624 1428.58 504.171 1429.35 Q501.74 1430.11 498.962 1431.66 L498.962 1426.94 Q501.786 1425.81 504.24 1425.23 Q506.694 1424.65 508.731 1424.65 Q514.101 1424.65 517.296 1427.33 Q520.49 1430.02 520.49 1434.51 Q520.49 1436.64 519.68 1438.56 Q518.893 1440.46 516.786 1443.05 Q516.208 1443.72 513.106 1446.94 Q510.004 1450.13 504.356 1455.9 Z" fill="#000000" fill-rule="evenodd" fill-opacity="1" /><path clip-path="url(#clip7400)" d="M 0 0 M958.432 1429.35 L946.627 1447.8 L958.432 1447.8 L958.432 1429.35 M957.206 1425.27 L963.085 1425.27 L963.085 1447.8 L968.016 1447.8 L968.016 1451.68 L963.085 1451.68 L963.085 1459.83 L958.432 1459.83 L958.432 1451.68 L942.831 1451.68 L942.831 1447.17 L957.206 1425.27 Z" fill="#000000" fill-rule="evenodd" fill-opacity="1" /><path clip-path="url(#clip7400)" d="M 0 0 M1401.55 1440.69 Q1398.4 1440.69 1396.55 1442.84 Q1394.72 1445 1394.72 1448.75 Q1394.72 1452.47 1396.55 1454.65 Q1398.4 1456.8 1401.55 1456.8 Q1404.7 1456.8 1406.53 1454.65 Q1408.38 1452.47 1408.38 1448.75 Q1408.38 1445 1406.53 1442.84 Q1404.7 1440.69 1401.55 1440.69 M1410.83 1426.04 L1410.83 1430.3 Q1409.07 1429.46 1407.27 1429.02 Q1405.48 1428.58 1403.72 1428.58 Q1399.09 1428.58 1396.64 1431.71 Q1394.21 1434.83 1393.86 1441.15 Q1395.23 1439.14 1397.29 1438.07 Q1399.35 1436.99 1401.83 1436.99 Q1407.03 1436.99 1410.04 1440.16 Q1413.08 1443.31 1413.08 1448.75 Q1413.08 1454.07 1409.93 1457.29 Q1406.78 1460.5 1401.55 1460.5 Q1395.55 1460.5 1392.38 1455.92 Q1389.21 1451.31 1389.21 1442.59 Q1389.21 1434.39 1393.1 1429.53 Q1396.99 1424.65 1403.54 1424.65 Q1405.3 1424.65 1407.08 1425 Q1408.89 1425.34 1410.83 1426.04 Z" fill="#000000" fill-rule="evenodd" fill-opacity="1" /><path clip-path="url(#clip7400)" d="M 0 0 M1846.86 1443.42 Q1843.53 1443.42 1841.61 1445.2 Q1839.71 1446.99 1839.71 1450.11 Q1839.71 1453.24 1841.61 1455.02 Q1843.53 1456.8 1846.86 1456.8 Q1850.2 1456.8 1852.12 1455.02 Q1854.04 1453.21 1854.04 1450.11 Q1854.04 1446.99 1852.12 1445.2 Q1850.22 1443.42 1846.86 1443.42 M1842.19 1441.43 Q1839.18 1440.69 1837.49 1438.63 Q1835.82 1436.57 1835.82 1433.61 Q1835.82 1429.46 1838.76 1427.06 Q1841.72 1424.65 1846.86 1424.65 Q1852.03 1424.65 1854.97 1427.06 Q1857.91 1429.46 1857.91 1433.61 Q1857.91 1436.57 1856.22 1438.63 Q1854.55 1440.69 1851.56 1441.43 Q1854.94 1442.22 1856.82 1444.51 Q1858.72 1446.8 1858.72 1450.11 Q1858.72 1455.13 1855.64 1457.82 Q1852.58 1460.5 1846.86 1460.5 Q1841.15 1460.5 1838.07 1457.82 Q1835.01 1455.13 1835.01 1450.11 Q1835.01 1446.8 1836.91 1444.51 Q1838.81 1442.22 1842.19 1441.43 M1840.47 1434.05 Q1840.47 1436.73 1842.14 1438.24 Q1843.83 1439.74 1846.86 1439.74 Q1849.87 1439.74 1851.56 1438.24 Q1853.28 1436.73 1853.28 1434.05 Q1853.28 1431.36 1851.56 1429.86 Q1849.87 1428.35 1846.86 1428.35 Q1843.83 1428.35 1842.14 1429.86 Q1840.47 1431.36 1840.47 1434.05 Z" fill="#000000" fill-rule="evenodd" fill-opacity="1" /><path clip-path="url(#clip7400)" d="M 0 0 M2269.46 1455.9 L2277.1 1455.9 L2277.1 1429.53 L2268.79 1431.2 L2268.79 1426.94 L2277.05 1425.27 L2281.73 1425.27 L2281.73 1455.9 L2289.37 1455.9 L2289.37 1459.83 L2269.46 1459.83 L2269.46 1455.9 Z" fill="#000000" fill-rule="evenodd" fill-opacity="1" /><path clip-path="url(#clip7400)" d="M 0 0 M2304.44 1428.35 Q2300.82 1428.35 2299 1431.92 Q2297.19 1435.46 2297.19 1442.59 Q2297.19 1449.69 2299 1453.26 Q2300.82 1456.8 2304.44 1456.8 Q2308.07 1456.8 2309.88 1453.26 Q2311.7 1449.69 2311.7 1442.59 Q2311.7 1435.46 2309.88 1431.92 Q2308.07 1428.35 2304.44 1428.35 M2304.44 1424.65 Q2310.25 1424.65 2313.3 1429.25 Q2316.38 1433.84 2316.38 1442.59 Q2316.38 1451.31 2313.3 1455.92 Q2310.25 1460.5 2304.44 1460.5 Q2298.63 1460.5 2295.55 1455.92 Q2292.49 1451.31 2292.49 1442.59 Q2292.49 1433.84 2295.55 1429.25 Q2298.63 1424.65 2304.44 1424.65 Z" fill="#000000" fill-rule="evenodd" fill-opacity="1" /><path clip-path="url(#clip7400)" d="M 0 0 M153.759 1355.44 Q150.148 1355.44 148.319 1359.01 Q146.514 1362.55 146.514 1369.68 Q146.514 1376.79 148.319 1380.35 Q150.148 1383.89 153.759 1383.89 Q157.393 1383.89 159.199 1380.35 Q161.027 1376.79 161.027 1369.68 Q161.027 1362.55 159.199 1359.01 Q157.393 1355.44 153.759 1355.44 M153.759 1351.74 Q159.569 1351.74 162.625 1356.35 Q165.703 1360.93 165.703 1369.68 Q165.703 1378.41 162.625 1383.01 Q159.569 1387.6 153.759 1387.6 Q147.949 1387.6 144.87 1383.01 Q141.815 1378.41 141.815 1369.68 Q141.815 1360.93 144.87 1356.35 Q147.949 1351.74 153.759 1351.74 Z" fill="#000000" fill-rule="evenodd" fill-opacity="1" /><path clip-path="url(#clip7400)" d="M 0 0 M170.773 1381.05 L175.657 1381.05 L175.657 1386.93 L170.773 1386.93 L170.773 1381.05 Z" fill="#000000" fill-rule="evenodd" fill-opacity="1" /><path clip-path="url(#clip7400)" d="M 0 0 M190.726 1355.44 Q187.115 1355.44 185.286 1359.01 Q183.481 1362.55 183.481 1369.68 Q183.481 1376.79 185.286 1380.35 Q187.115 1383.89 190.726 1383.89 Q194.361 1383.89 196.166 1380.35 Q197.995 1376.79 197.995 1369.68 Q197.995 1362.55 196.166 1359.01 Q194.361 1355.44 190.726 1355.44 M190.726 1351.74 Q196.536 1351.74 199.592 1356.35 Q202.671 1360.93 202.671 1369.68 Q202.671 1378.41 199.592 1383.01 Q196.536 1387.6 190.726 1387.6 Q184.916 1387.6 181.837 1383.01 Q178.782 1378.41 178.782 1369.68 Q178.782 1360.93 181.837 1356.35 Q184.916 1351.74 190.726 1351.74 Z" fill="#000000" fill-rule="evenodd" fill-opacity="1" /><path clip-path="url(#clip7400)" d="M 0 0 M155.356 1041.02 Q151.745 1041.02 149.916 1044.59 Q148.111 1048.13 148.111 1055.26 Q148.111 1062.37 149.916 1065.93 Q151.745 1069.47 155.356 1069.47 Q158.99 1069.47 160.796 1065.93 Q162.625 1062.37 162.625 1055.26 Q162.625 1048.13 160.796 1044.59 Q158.99 1041.02 155.356 1041.02 M155.356 1037.32 Q161.166 1037.32 164.222 1041.93 Q167.3 1046.51 167.3 1055.26 Q167.3 1063.99 164.222 1068.59 Q161.166 1073.18 155.356 1073.18 Q149.546 1073.18 146.467 1068.59 Q143.412 1063.99 143.412 1055.26 Q143.412 1046.51 146.467 1041.93 Q149.546 1037.32 155.356 1037.32 Z" fill="#000000" fill-rule="evenodd" fill-opacity="1" /><path clip-path="url(#clip7400)" d="M 0 0 M172.37 1066.63 L177.254 1066.63 L177.254 1072.51 L172.37 1072.51 L172.37 1066.63 Z" fill="#000000" fill-rule="evenodd" fill-opacity="1" /><path clip-path="url(#clip7400)" d="M 0 0 M186.351 1068.57 L202.671 1068.57 L202.671 1072.51 L180.726 1072.51 L180.726 1068.57 Q183.388 1065.82 187.972 1061.19 Q192.578 1056.53 193.759 1055.19 Q196.004 1052.67 196.884 1050.93 Q197.786 1049.17 197.786 1047.48 Q197.786 1044.73 195.842 1042.99 Q193.921 1041.26 190.819 1041.26 Q188.62 1041.26 186.166 1042.02 Q183.736 1042.78 180.958 1044.33 L180.958 1039.61 Q183.782 1038.48 186.236 1037.9 Q188.689 1037.32 190.726 1037.32 Q196.097 1037.32 199.291 1040.01 Q202.485 1042.69 202.485 1047.18 Q202.485 1049.31 201.675 1051.23 Q200.888 1053.13 198.782 1055.72 Q198.203 1056.39 195.101 1059.61 Q191.999 1062.81 186.351 1068.57 Z" fill="#000000" fill-rule="evenodd" fill-opacity="1" /><path clip-path="url(#clip7400)" d="M 0 0 M153.273 726.603 Q149.662 726.603 147.833 730.168 Q146.027 733.71 146.027 740.839 Q146.027 747.946 147.833 751.51 Q149.662 755.052 153.273 755.052 Q156.907 755.052 158.713 751.51 Q160.541 747.946 160.541 740.839 Q160.541 733.71 158.713 730.168 Q156.907 726.603 153.273 726.603 M153.273 722.899 Q159.083 722.899 162.138 727.506 Q165.217 732.089 165.217 740.839 Q165.217 749.566 162.138 754.172 Q159.083 758.756 153.273 758.756 Q147.463 758.756 144.384 754.172 Q141.328 749.566 141.328 740.839 Q141.328 732.089 144.384 727.506 Q147.463 722.899 153.273 722.899 Z" fill="#000000" fill-rule="evenodd" fill-opacity="1" /><path clip-path="url(#clip7400)" d="M 0 0 M170.287 752.205 L175.171 752.205 L175.171 758.084 L170.287 758.084 L170.287 752.205 Z" fill="#000000" fill-rule="evenodd" fill-opacity="1" /><path clip-path="url(#clip7400)" d="M 0 0 M193.087 727.598 L181.282 746.047 L193.087 746.047 L193.087 727.598 M191.861 723.524 L197.74 723.524 L197.74 746.047 L202.671 746.047 L202.671 749.936 L197.74 749.936 L197.74 758.084 L193.087 758.084 L193.087 749.936 L177.486 749.936 L177.486 745.422 L191.861 723.524 Z" fill="#000000" fill-rule="evenodd" fill-opacity="1" /><path clip-path="url(#clip7400)" d="M 0 0 M153.597 412.182 Q149.986 412.182 148.157 415.747 Q146.352 419.289 146.352 426.418 Q146.352 433.525 148.157 437.09 Q149.986 440.631 153.597 440.631 Q157.231 440.631 159.037 437.09 Q160.865 433.525 160.865 426.418 Q160.865 419.289 159.037 415.747 Q157.231 412.182 153.597 412.182 M153.597 408.479 Q159.407 408.479 162.463 413.085 Q165.541 417.668 165.541 426.418 Q165.541 435.145 162.463 439.752 Q159.407 444.335 153.597 444.335 Q147.787 444.335 144.708 439.752 Q141.652 435.145 141.652 426.418 Q141.652 417.668 144.708 413.085 Q147.787 408.479 153.597 408.479 Z" fill="#000000" fill-rule="evenodd" fill-opacity="1" /><path clip-path="url(#clip7400)" d="M 0 0 M170.611 437.784 L175.495 437.784 L175.495 443.664 L170.611 443.664 L170.611 437.784 Z" fill="#000000" fill-rule="evenodd" fill-opacity="1" /><path clip-path="url(#clip7400)" d="M 0 0 M191.143 424.52 Q187.995 424.52 186.143 426.673 Q184.314 428.826 184.314 432.576 Q184.314 436.303 186.143 438.479 Q187.995 440.631 191.143 440.631 Q194.291 440.631 196.12 438.479 Q197.972 436.303 197.972 432.576 Q197.972 428.826 196.12 426.673 Q194.291 424.52 191.143 424.52 M200.425 409.868 L200.425 414.127 Q198.666 413.293 196.861 412.854 Q195.078 412.414 193.319 412.414 Q188.689 412.414 186.236 415.539 Q183.805 418.664 183.458 424.983 Q184.824 422.969 186.884 421.905 Q188.944 420.817 191.421 420.817 Q196.629 420.817 199.638 423.988 Q202.671 427.136 202.671 432.576 Q202.671 437.9 199.523 441.117 Q196.374 444.335 191.143 444.335 Q185.148 444.335 181.976 439.752 Q178.805 435.145 178.805 426.418 Q178.805 418.224 182.694 413.363 Q186.583 408.479 193.134 408.479 Q194.893 408.479 196.675 408.826 Q198.481 409.173 200.425 409.868 Z" fill="#000000" fill-rule="evenodd" fill-opacity="1" /><path clip-path="url(#clip7400)" d="M 0 0 M153.851 97.7617 Q150.24 97.7617 148.412 101.326 Q146.606 104.868 146.606 111.998 Q146.606 119.104 148.412 122.669 Q150.24 126.211 153.851 126.211 Q157.486 126.211 159.291 122.669 Q161.12 119.104 161.12 111.998 Q161.12 104.868 159.291 101.326 Q157.486 97.7617 153.851 97.7617 M153.851 94.058 Q159.662 94.058 162.717 98.6644 Q165.796 103.248 165.796 111.998 Q165.796 120.725 162.717 125.331 Q159.662 129.914 153.851 129.914 Q148.041 129.914 144.963 125.331 Q141.907 120.725 141.907 111.998 Q141.907 103.248 144.963 98.6644 Q148.041 94.058 153.851 94.058 Z" fill="#000000" fill-rule="evenodd" fill-opacity="1" /><path clip-path="url(#clip7400)" d="M 0 0 M170.865 123.363 L175.75 123.363 L175.75 129.243 L170.865 129.243 L170.865 123.363 Z" fill="#000000" fill-rule="evenodd" fill-opacity="1" /><path clip-path="url(#clip7400)" d="M 0 0 M190.819 112.831 Q187.486 112.831 185.564 114.613 Q183.666 116.396 183.666 119.521 Q183.666 122.646 185.564 124.428 Q187.486 126.211 190.819 126.211 Q194.152 126.211 196.073 124.428 Q197.995 122.623 197.995 119.521 Q197.995 116.396 196.073 114.613 Q194.175 112.831 190.819 112.831 M186.143 110.84 Q183.134 110.1 181.444 108.039 Q179.777 105.979 179.777 103.016 Q179.777 98.8728 182.717 96.4654 Q185.68 94.058 190.819 94.058 Q195.981 94.058 198.921 96.4654 Q201.86 98.8728 201.86 103.016 Q201.86 105.979 200.171 108.039 Q198.504 110.1 195.518 110.84 Q198.898 111.627 200.773 113.919 Q202.671 116.211 202.671 119.521 Q202.671 124.544 199.592 127.229 Q196.536 129.914 190.819 129.914 Q185.101 129.914 182.023 127.229 Q178.967 124.544 178.967 119.521 Q178.967 116.211 180.865 113.919 Q182.763 111.627 186.143 110.84 M184.43 103.456 Q184.43 106.141 186.097 107.646 Q187.786 109.15 190.819 109.15 Q193.828 109.15 195.518 107.646 Q197.231 106.141 197.231 103.456 Q197.231 100.771 195.518 99.2663 Q193.828 97.7617 190.819 97.7617 Q187.786 97.7617 186.097 99.2663 Q184.43 100.771 184.43 103.456 Z" fill="#000000" fill-rule="evenodd" fill-opacity="1" /><path clip-path="url(#clip7400)" d="M 0 0 M1303.87 1486.67 Q1303.87 1488.47 1302.75 1489.5 Q1301.62 1490.5 1300.33 1490.5 Q1299.11 1490.5 1298.46 1489.79 Q1297.82 1489.08 1297.82 1488.18 Q1297.82 1486.96 1298.72 1485.9 Q1299.62 1484.83 1300.97 1484.61 Q1299.65 1483.77 1297.69 1483.77 Q1296.4 1483.77 1295.27 1484.45 Q1294.18 1485.12 1293.5 1485.99 Q1292.86 1486.86 1292.28 1488.12 Q1291.73 1489.34 1291.51 1490.08 Q1291.31 1490.79 1291.15 1491.56 L1288.9 1500.58 Q1287.8 1504.86 1287.8 1506.38 Q1287.8 1508.25 1288.7 1509.5 Q1289.61 1510.73 1291.41 1510.73 Q1292.12 1510.73 1292.92 1510.53 Q1293.73 1510.31 1294.76 1509.73 Q1295.82 1509.12 1296.76 1508.21 Q1297.72 1507.28 1298.66 1505.7 Q1299.59 1504.12 1300.2 1502.09 Q1300.4 1501.39 1301.04 1501.39 Q1301.84 1501.39 1301.84 1502.03 Q1301.84 1502.58 1301.39 1503.74 Q1300.97 1504.86 1300.04 1506.35 Q1299.14 1507.8 1297.95 1509.12 Q1296.76 1510.4 1294.98 1511.31 Q1293.21 1512.21 1291.28 1512.21 Q1288.51 1512.21 1286.68 1510.73 Q1284.84 1509.24 1284.16 1507.18 Q1284 1507.47 1283.78 1507.86 Q1283.55 1508.25 1282.88 1509.12 Q1282.23 1509.95 1281.49 1510.6 Q1280.75 1511.21 1279.59 1511.69 Q1278.46 1512.21 1277.24 1512.21 Q1275.69 1512.21 1274.31 1511.76 Q1272.96 1511.31 1271.99 1510.28 Q1271.02 1509.24 1271.02 1507.83 Q1271.02 1506.25 1272.09 1505.15 Q1273.18 1504.03 1274.66 1504.03 Q1275.6 1504.03 1276.34 1504.57 Q1277.11 1505.12 1277.11 1506.31 Q1277.11 1507.63 1276.21 1508.63 Q1275.31 1509.63 1274.02 1509.89 Q1275.34 1510.73 1277.3 1510.73 Q1279.43 1510.73 1281.1 1508.86 Q1282.78 1506.99 1283.58 1503.87 Q1285.58 1496.36 1286.35 1493.01 Q1287.13 1489.63 1287.13 1488.18 Q1287.13 1486.83 1286.77 1485.9 Q1286.42 1484.96 1285.81 1484.54 Q1285.23 1484.09 1284.68 1483.93 Q1284.16 1483.77 1283.58 1483.77 Q1282.62 1483.77 1281.52 1484.16 Q1280.46 1484.54 1279.17 1485.44 Q1277.92 1486.31 1276.72 1488.12 Q1275.53 1489.92 1274.73 1492.4 Q1274.57 1493.14 1273.86 1493.14 Q1273.08 1493.11 1273.08 1492.47 Q1273.08 1491.92 1273.5 1490.79 Q1273.95 1489.63 1274.86 1488.18 Q1275.79 1486.73 1276.98 1485.44 Q1278.21 1484.12 1279.98 1483.22 Q1281.78 1482.32 1283.71 1482.32 Q1284.58 1482.32 1285.42 1482.51 Q1286.29 1482.67 1287.32 1483.16 Q1288.38 1483.64 1289.32 1484.7 Q1290.25 1485.77 1290.83 1487.31 Q1291.22 1486.57 1291.73 1485.86 Q1292.28 1485.15 1293.12 1484.28 Q1293.99 1483.38 1295.18 1482.87 Q1296.4 1482.32 1297.75 1482.32 Q1299.07 1482.32 1300.36 1482.67 Q1301.65 1483 1302.75 1484.06 Q1303.87 1485.09 1303.87 1486.67 Z" fill="#000000" fill-rule="evenodd" fill-opacity="1" /><path clip-path="url(#clip7400)" d="M 0 0 M76.4129 712.377 Q76.8638 712.377 77.9266 712.666 L103.112 718.979 Q108.715 720.364 112.644 724.872 Q116.574 729.349 116.574 734.438 Q116.574 737.497 114.931 739.462 Q113.321 741.426 110.841 741.426 Q108.651 741.426 107.588 740.267 Q106.558 739.107 106.558 737.723 Q106.558 737.272 106.686 736.789 Q106.815 736.306 107.363 735.79 Q107.91 735.275 108.844 735.275 Q110.358 735.275 111.549 736.595 Q112.097 737.24 112.226 737.851 Q112.355 738.431 112.355 739.43 Q113.256 739.043 113.868 738.335 Q114.48 737.626 114.706 736.821 Q114.963 736.016 115.028 735.5 Q115.124 734.953 115.124 734.438 Q115.124 730.315 110.97 727.159 Q109.714 726.225 108.458 725.549 Q107.234 724.84 105.72 724.325 Q104.239 723.81 103.434 723.584 Q102.628 723.327 100.793 722.876 Q103.788 725.871 103.788 729.542 Q103.788 731.088 103.369 732.473 Q102.951 733.826 102.081 735.017 Q101.179 736.209 99.6011 736.917 Q98.023 737.594 95.9296 737.594 Q93.7074 737.594 90.6801 736.724 Q87.6527 735.855 82.0811 733.761 Q78.9572 732.634 77.4435 732.634 Q76.7027 732.634 76.2519 732.795 Q75.7688 732.956 75.6077 733.278 Q75.4145 733.6 75.3823 733.793 Q75.3501 733.955 75.3501 734.277 Q75.3501 736.177 77.2825 737.948 Q79.2148 739.719 83.5304 740.943 Q84.3355 741.201 84.5288 741.362 Q84.722 741.523 84.722 742.006 Q84.6898 742.811 84.0457 742.811 Q83.788 742.811 82.7897 742.521 Q81.7591 742.231 80.2454 741.555 Q78.6995 740.847 77.3147 739.88 Q75.8976 738.914 74.8992 737.401 Q73.9008 735.855 73.9008 734.083 Q73.9008 731.668 75.4789 730.186 Q77.0248 728.673 79.3114 728.673 Q80.2454 728.673 81.0827 728.93 Q81.8879 729.156 84.0457 729.993 Q92.7413 733.375 96.9924 733.375 Q98.023 733.375 98.8926 733.214 Q99.7299 733.021 100.567 732.602 Q101.372 732.183 101.856 731.346 Q102.306 730.476 102.306 729.285 Q102.306 727.771 101.598 726.354 Q100.857 724.905 99.8588 724.003 Q98.8604 723.069 98.023 722.521 Q97.1535 721.942 96.7026 721.813 L84.8508 718.85 L79.5691 717.53 Q76.7027 716.918 75.9942 716.628 Q75.3179 716.241 74.9636 715.565 Q74.6094 714.889 74.6094 714.309 Q74.6094 713.504 75.0925 712.956 Q75.5755 712.377 76.4129 712.377 Z" fill="#000000" fill-rule="evenodd" fill-opacity="1" /><polyline clip-path="url(#clip7402)" style="stroke:#009af9; stroke-width:4; stroke-opacity:1; fill:none" points="
  286.843,1082.78 509.703,1275.65 732.563,1335.16 955.423,1367.9 1178.28,958.139 1401.14,857.062 1624,85.7097 1846.86,883.093 2069.72,1085.05 2292.58,1325.29 
  
  "/>
<path clip-path="url(#clip7400)" d="
M1989.74 251.724 L2280.76 251.724 L2280.76 130.764 L1989.74 130.764  Z
  " fill="#ffffff" fill-rule="evenodd" fill-opacity="1"/>
<polyline clip-path="url(#clip7400)" style="stroke:#000000; stroke-width:4; stroke-opacity:1; fill:none" points="
  1989.74,251.724 2280.76,251.724 2280.76,130.764 1989.74,130.764 1989.74,251.724 
  "/>
<polyline clip-path="url(#clip7400)" style="stroke:#009af9; stroke-width:4; stroke-opacity:1; fill:none" points="
  2013.74,191.244 2157.74,191.244 
  "/>
<path clip-path="url(#clip7400)" d="M 0 0 M2195.58 210.931 Q2193.77 215.561 2192.06 216.973 Q2190.35 218.385 2187.48 218.385 L2184.08 218.385 L2184.08 214.82 L2186.58 214.82 Q2188.33 214.82 2189.31 213.987 Q2190.28 213.154 2191.46 210.052 L2192.22 208.107 L2181.74 182.598 L2186.25 182.598 L2194.35 202.876 L2202.46 182.598 L2206.97 182.598 L2195.58 210.931 Z" fill="#000000" fill-rule="evenodd" fill-opacity="1" /><path clip-path="url(#clip7400)" d="M 0 0 M2212.85 204.589 L2220.49 204.589 L2220.49 178.223 L2212.18 179.89 L2212.18 175.631 L2220.44 173.964 L2225.12 173.964 L2225.12 204.589 L2232.76 204.589 L2232.76 208.524 L2212.85 208.524 L2212.85 204.589 Z" fill="#000000" fill-rule="evenodd" fill-opacity="1" /></svg>
