<?xml version="1.0" encoding="utf-8"?>
<svg xmlns="http://www.w3.org/2000/svg" xmlns:xlink="http://www.w3.org/1999/xlink" width="600" height="400" viewBox="0 0 2400 1600">
<defs>
  <clipPath id="clip670">
    <rect x="0" y="0" width="2400" height="1600"/>
  </clipPath>
</defs>
<path clip-path="url(#clip670)" d="
M0 1600 L2400 1600 L2400 0 L0 0  Z
  " fill="#ffffff" fill-rule="evenodd" fill-opacity="1"/>
<defs>
  <clipPath id="clip671">
    <rect x="480" y="0" width="1681" height="1600"/>
  </clipPath>
</defs>
<path clip-path="url(#clip670)" d="
M211.141 1447.17 L2352.76 1447.17 L2352.76 86.5215 L211.141 86.5215  Z
  " fill="#ffffff" fill-rule="evenodd" fill-opacity="1"/>
<defs>
  <clipPath id="clip672">
    <rect x="211" y="86" width="2143" height="1362"/>
  </clipPath>
</defs>
<polyline clip-path="url(#clip672)" style="stroke:#000000; stroke-width:2; stroke-opacity:0.1; fill:none" points="
  496.241,1447.17 496.241,86.5215 
  "/>
<polyline clip-path="url(#clip672)" style="stroke:#000000; stroke-width:2; stroke-opacity:0.1; fill:none" points="
  945.217,1447.17 945.217,86.5215 
  "/>
<polyline clip-path="url(#clip672)" style="stroke:#000000; stroke-width:2; stroke-opacity:0.1; fill:none" points="
  1394.19,1447.17 1394.19,86.5215 
  "/>
<polyline clip-path="url(#clip672)" style="stroke:#000000; stroke-width:2; stroke-opacity:0.1; fill:none" points="
  1843.17,1447.17 1843.17,86.5215 
  "/>
<polyline clip-path="url(#clip672)" style="stroke:#000000; stroke-width:2; stroke-opacity:0.1; fill:none" points="
  2292.14,1447.17 2292.14,86.5215 
  "/>
<polyline clip-path="url(#clip672)" style="stroke:#000000; stroke-width:2; stroke-opacity:0.1; fill:none" points="
  211.141,1299.69 2352.76,1299.69 
  "/>
<polyline clip-path="url(#clip672)" style="stroke:#000000; stroke-width:2; stroke-opacity:0.1; fill:none" points="
  211.141,972.84 2352.76,972.84 
  "/>
<polyline clip-path="url(#clip672)" style="stroke:#000000; stroke-width:2; stroke-opacity:0.1; fill:none" points="
  211.141,645.993 2352.76,645.993 
  "/>
<polyline clip-path="url(#clip672)" style="stroke:#000000; stroke-width:2; stroke-opacity:0.1; fill:none" points="
  211.141,319.145 2352.76,319.145 
  "/>
<polyline clip-path="url(#clip670)" style="stroke:#000000; stroke-width:4; stroke-opacity:1; fill:none" points="
  211.141,1447.17 2352.76,1447.17 
  "/>
<polyline clip-path="url(#clip670)" style="stroke:#000000; stroke-width:4; stroke-opacity:1; fill:none" points="
  211.141,1447.17 211.141,86.5215 
  "/>
<polyline clip-path="url(#clip670)" style="stroke:#000000; stroke-width:4; stroke-opacity:1; fill:none" points="
  496.241,1447.17 496.241,1430.84 
  "/>
<polyline clip-path="url(#clip670)" style="stroke:#000000; stroke-width:4; stroke-opacity:1; fill:none" points="
  945.217,1447.17 945.217,1430.84 
  "/>
<polyline clip-path="url(#clip670)" style="stroke:#000000; stroke-width:4; stroke-opacity:1; fill:none" points="
  1394.19,1447.17 1394.19,1430.84 
  "/>
<polyline clip-path="url(#clip670)" style="stroke:#000000; stroke-width:4; stroke-opacity:1; fill:none" points="
  1843.17,1447.17 1843.17,1430.84 
  "/>
<polyline clip-path="url(#clip670)" style="stroke:#000000; stroke-width:4; stroke-opacity:1; fill:none" points="
  2292.14,1447.17 2292.14,1430.84 
  "/>
<polyline clip-path="url(#clip670)" style="stroke:#000000; stroke-width:4; stroke-opacity:1; fill:none" points="
  211.141,1299.69 236.841,1299.69 
  "/>
<polyline clip-path="url(#clip670)" style="stroke:#000000; stroke-width:4; stroke-opacity:1; fill:none" points="
  211.141,972.84 236.841,972.84 
  "/>
<polyline clip-path="url(#clip670)" style="stroke:#000000; stroke-width:4; stroke-opacity:1; fill:none" points="
  211.141,645.993 236.841,645.993 
  "/>
<polyline clip-path="url(#clip670)" style="stroke:#000000; stroke-width:4; stroke-opacity:1; fill:none" points="
  211.141,319.145 236.841,319.145 
  "/>
<path clip-path="url(#clip670)" d="M 0 0 M490.894 1496.71 L507.213 1496.71 L507.213 1500.64 L485.269 1500.64 L485.269 1496.71 Q487.931 1493.95 492.514 1489.32 Q497.121 1484.67 498.301 1483.33 Q500.546 1480.8 501.426 1479.07 Q502.329 1477.31 502.329 1475.62 Q502.329 1472.86 500.384 1471.13 Q498.463 1469.39 495.361 1469.39 Q493.162 1469.39 490.709 1470.16 Q488.278 1470.92 485.5 1472.47 L485.5 1467.75 Q488.324 1466.61 490.778 1466.04 Q493.232 1465.46 495.269 1465.46 Q500.639 1465.46 503.833 1468.14 Q507.028 1470.83 507.028 1475.32 Q507.028 1477.45 506.218 1479.37 Q505.431 1481.27 503.324 1483.86 Q502.745 1484.53 499.644 1487.75 Q496.542 1490.94 490.894 1496.71 Z" fill="#000000" fill-rule="evenodd" fill-opacity="1" /><path clip-path="url(#clip670)" d="M 0 0 M948.226 1470.16 L936.42 1488.61 L948.226 1488.61 L948.226 1470.16 M946.999 1466.08 L952.879 1466.08 L952.879 1488.61 L957.809 1488.61 L957.809 1492.49 L952.879 1492.49 L952.879 1500.64 L948.226 1500.64 L948.226 1492.49 L932.624 1492.49 L932.624 1487.98 L946.999 1466.08 Z" fill="#000000" fill-rule="evenodd" fill-opacity="1" /><path clip-path="url(#clip670)" d="M 0 0 M1394.6 1481.5 Q1391.45 1481.5 1389.6 1483.65 Q1387.77 1485.8 1387.77 1489.55 Q1387.77 1493.28 1389.6 1495.46 Q1391.45 1497.61 1394.6 1497.61 Q1397.75 1497.61 1399.57 1495.46 Q1401.43 1493.28 1401.43 1489.55 Q1401.43 1485.8 1399.57 1483.65 Q1397.75 1481.5 1394.6 1481.5 M1403.88 1466.85 L1403.88 1471.11 Q1402.12 1470.27 1400.32 1469.83 Q1398.53 1469.39 1396.77 1469.39 Q1392.14 1469.39 1389.69 1472.52 Q1387.26 1475.64 1386.91 1481.96 Q1388.28 1479.95 1390.34 1478.88 Q1392.4 1477.8 1394.88 1477.8 Q1400.08 1477.8 1403.09 1480.97 Q1406.13 1484.11 1406.13 1489.55 Q1406.13 1494.88 1402.98 1498.1 Q1399.83 1501.31 1394.6 1501.31 Q1388.6 1501.31 1385.43 1496.73 Q1382.26 1492.12 1382.26 1483.4 Q1382.26 1475.2 1386.15 1470.34 Q1390.04 1465.46 1396.59 1465.46 Q1398.35 1465.46 1400.13 1465.8 Q1401.94 1466.15 1403.88 1466.85 Z" fill="#000000" fill-rule="evenodd" fill-opacity="1" /><path clip-path="url(#clip670)" d="M 0 0 M1843.17 1484.23 Q1839.84 1484.23 1837.91 1486.01 Q1836.02 1487.8 1836.02 1490.92 Q1836.02 1494.05 1837.91 1495.83 Q1839.84 1497.61 1843.17 1497.61 Q1846.5 1497.61 1848.42 1495.83 Q1850.34 1494.02 1850.34 1490.92 Q1850.34 1487.8 1848.42 1486.01 Q1846.52 1484.23 1843.17 1484.23 M1838.49 1482.24 Q1835.48 1481.5 1833.79 1479.44 Q1832.13 1477.38 1832.13 1474.42 Q1832.13 1470.27 1835.07 1467.86 Q1838.03 1465.46 1843.17 1465.46 Q1848.33 1465.46 1851.27 1467.86 Q1854.21 1470.27 1854.21 1474.42 Q1854.21 1477.38 1852.52 1479.44 Q1850.85 1481.5 1847.87 1482.24 Q1851.25 1483.03 1853.12 1485.32 Q1855.02 1487.61 1855.02 1490.92 Q1855.02 1495.94 1851.94 1498.63 Q1848.89 1501.31 1843.17 1501.31 Q1837.45 1501.31 1834.37 1498.63 Q1831.32 1495.94 1831.32 1490.92 Q1831.32 1487.61 1833.21 1485.32 Q1835.11 1483.03 1838.49 1482.24 M1836.78 1474.86 Q1836.78 1477.54 1838.45 1479.05 Q1840.14 1480.55 1843.17 1480.55 Q1846.18 1480.55 1847.87 1479.05 Q1849.58 1477.54 1849.58 1474.86 Q1849.58 1472.17 1847.87 1470.67 Q1846.18 1469.16 1843.17 1469.16 Q1840.14 1469.16 1838.45 1470.67 Q1836.78 1472.17 1836.78 1474.86 Z" fill="#000000" fill-rule="evenodd" fill-opacity="1" /><path clip-path="url(#clip670)" d="M 0 0 M2269.02 1496.71 L2276.66 1496.71 L2276.66 1470.34 L2268.35 1472.01 L2268.35 1467.75 L2276.61 1466.08 L2281.29 1466.08 L2281.29 1496.71 L2288.93 1496.71 L2288.93 1500.64 L2269.02 1500.64 L2269.02 1496.71 Z" fill="#000000" fill-rule="evenodd" fill-opacity="1" /><path clip-path="url(#clip670)" d="M 0 0 M2304 1469.16 Q2300.38 1469.16 2298.56 1472.73 Q2296.75 1476.27 2296.75 1483.4 Q2296.75 1490.5 2298.56 1494.07 Q2300.38 1497.61 2304 1497.61 Q2307.63 1497.61 2309.44 1494.07 Q2311.26 1490.5 2311.26 1483.4 Q2311.26 1476.27 2309.44 1472.73 Q2307.63 1469.16 2304 1469.16 M2304 1465.46 Q2309.81 1465.46 2312.86 1470.06 Q2315.94 1474.65 2315.94 1483.4 Q2315.94 1492.12 2312.86 1496.73 Q2309.81 1501.31 2304 1501.31 Q2298.19 1501.31 2295.11 1496.73 Q2292.05 1492.12 2292.05 1483.4 Q2292.05 1474.65 2295.11 1470.06 Q2298.19 1465.46 2304 1465.46 Z" fill="#000000" fill-rule="evenodd" fill-opacity="1" /><path clip-path="url(#clip670)" d="M 0 0 M139.827 1285.49 Q136.216 1285.49 134.387 1289.05 Q132.581 1292.59 132.581 1299.72 Q132.581 1306.83 134.387 1310.39 Q136.216 1313.94 139.827 1313.94 Q143.461 1313.94 145.266 1310.39 Q147.095 1306.83 147.095 1299.72 Q147.095 1292.59 145.266 1289.05 Q143.461 1285.49 139.827 1285.49 M139.827 1281.78 Q145.637 1281.78 148.692 1286.39 Q151.771 1290.97 151.771 1299.72 Q151.771 1308.45 148.692 1313.06 Q145.637 1317.64 139.827 1317.64 Q134.017 1317.64 130.938 1313.06 Q127.882 1308.45 127.882 1299.72 Q127.882 1290.97 130.938 1286.39 Q134.017 1281.78 139.827 1281.78 Z" fill="#000000" fill-rule="evenodd" fill-opacity="1" /><path clip-path="url(#clip670)" d="M 0 0 M156.84 1311.09 L161.725 1311.09 L161.725 1316.97 L156.84 1316.97 L156.84 1311.09 Z" fill="#000000" fill-rule="evenodd" fill-opacity="1" /><path clip-path="url(#clip670)" d="M 0 0 M170.822 1313.03 L187.141 1313.03 L187.141 1316.97 L165.197 1316.97 L165.197 1313.03 Q167.859 1310.28 172.442 1305.65 Q177.049 1301 178.229 1299.65 Q180.475 1297.13 181.354 1295.39 Q182.257 1293.64 182.257 1291.95 Q182.257 1289.19 180.313 1287.45 Q178.391 1285.72 175.289 1285.72 Q173.09 1285.72 170.637 1286.48 Q168.206 1287.25 165.428 1288.8 L165.428 1284.07 Q168.252 1282.94 170.706 1282.36 Q173.16 1281.78 175.197 1281.78 Q180.567 1281.78 183.762 1284.47 Q186.956 1287.15 186.956 1291.64 Q186.956 1293.77 186.146 1295.7 Q185.359 1297.59 183.252 1300.19 Q182.674 1300.86 179.572 1304.07 Q176.47 1307.27 170.822 1313.03 Z" fill="#000000" fill-rule="evenodd" fill-opacity="1" /><path clip-path="url(#clip670)" d="M 0 0 M137.743 958.639 Q134.132 958.639 132.304 962.204 Q130.498 965.746 130.498 972.875 Q130.498 979.982 132.304 983.546 Q134.132 987.088 137.743 987.088 Q141.378 987.088 143.183 983.546 Q145.012 979.982 145.012 972.875 Q145.012 965.746 143.183 962.204 Q141.378 958.639 137.743 958.639 M137.743 954.935 Q143.554 954.935 146.609 959.542 Q149.688 964.125 149.688 972.875 Q149.688 981.602 146.609 986.208 Q143.554 990.792 137.743 990.792 Q131.933 990.792 128.855 986.208 Q125.799 981.602 125.799 972.875 Q125.799 964.125 128.855 959.542 Q131.933 954.935 137.743 954.935 Z" fill="#000000" fill-rule="evenodd" fill-opacity="1" /><path clip-path="url(#clip670)" d="M 0 0 M154.757 984.241 L159.641 984.241 L159.641 990.12 L154.757 990.12 L154.757 984.241 Z" fill="#000000" fill-rule="evenodd" fill-opacity="1" /><path clip-path="url(#clip670)" d="M 0 0 M177.558 959.635 L165.752 978.084 L177.558 978.084 L177.558 959.635 M176.331 955.56 L182.211 955.56 L182.211 978.084 L187.141 978.084 L187.141 981.972 L182.211 981.972 L182.211 990.12 L177.558 990.12 L177.558 981.972 L161.956 981.972 L161.956 977.459 L176.331 955.56 Z" fill="#000000" fill-rule="evenodd" fill-opacity="1" /><path clip-path="url(#clip670)" d="M 0 0 M138.067 631.791 Q134.456 631.791 132.628 635.356 Q130.822 638.898 130.822 646.027 Q130.822 653.134 132.628 656.699 Q134.456 660.24 138.067 660.24 Q141.702 660.24 143.507 656.699 Q145.336 653.134 145.336 646.027 Q145.336 638.898 143.507 635.356 Q141.702 631.791 138.067 631.791 M138.067 628.088 Q143.878 628.088 146.933 632.694 Q150.012 637.277 150.012 646.027 Q150.012 654.754 146.933 659.361 Q143.878 663.944 138.067 663.944 Q132.257 663.944 129.179 659.361 Q126.123 654.754 126.123 646.027 Q126.123 637.277 129.179 632.694 Q132.257 628.088 138.067 628.088 Z" fill="#000000" fill-rule="evenodd" fill-opacity="1" /><path clip-path="url(#clip670)" d="M 0 0 M155.081 657.393 L159.965 657.393 L159.965 663.273 L155.081 663.273 L155.081 657.393 Z" fill="#000000" fill-rule="evenodd" fill-opacity="1" /><path clip-path="url(#clip670)" d="M 0 0 M175.614 644.129 Q172.465 644.129 170.614 646.282 Q168.785 648.435 168.785 652.185 Q168.785 655.912 170.614 658.088 Q172.465 660.24 175.614 660.24 Q178.762 660.24 180.59 658.088 Q182.442 655.912 182.442 652.185 Q182.442 648.435 180.59 646.282 Q178.762 644.129 175.614 644.129 M184.896 629.477 L184.896 633.736 Q183.137 632.902 181.331 632.463 Q179.549 632.023 177.789 632.023 Q173.16 632.023 170.706 635.148 Q168.276 638.273 167.928 644.592 Q169.294 642.578 171.354 641.514 Q173.414 640.426 175.891 640.426 Q181.1 640.426 184.109 643.597 Q187.141 646.745 187.141 652.185 Q187.141 657.509 183.993 660.726 Q180.845 663.944 175.614 663.944 Q169.618 663.944 166.447 659.361 Q163.276 654.754 163.276 646.027 Q163.276 637.833 167.165 632.972 Q171.053 628.088 177.604 628.088 Q179.364 628.088 181.146 628.435 Q182.951 628.782 184.896 629.477 Z" fill="#000000" fill-rule="evenodd" fill-opacity="1" /><path clip-path="url(#clip670)" d="M 0 0 M138.322 304.944 Q134.711 304.944 132.882 308.508 Q131.077 312.05 131.077 319.18 Q131.077 326.286 132.882 329.851 Q134.711 333.393 138.322 333.393 Q141.956 333.393 143.762 329.851 Q145.591 326.286 145.591 319.18 Q145.591 312.05 143.762 308.508 Q141.956 304.944 138.322 304.944 M138.322 301.24 Q144.132 301.24 147.188 305.846 Q150.266 310.43 150.266 319.18 Q150.266 327.906 147.188 332.513 Q144.132 337.096 138.322 337.096 Q132.512 337.096 129.433 332.513 Q126.378 327.906 126.378 319.18 Q126.378 310.43 129.433 305.846 Q132.512 301.24 138.322 301.24 Z" fill="#000000" fill-rule="evenodd" fill-opacity="1" /><path clip-path="url(#clip670)" d="M 0 0 M155.336 330.545 L160.22 330.545 L160.22 336.425 L155.336 336.425 L155.336 330.545 Z" fill="#000000" fill-rule="evenodd" fill-opacity="1" /><path clip-path="url(#clip670)" d="M 0 0 M175.289 320.013 Q171.956 320.013 170.035 321.795 Q168.137 323.578 168.137 326.703 Q168.137 329.828 170.035 331.61 Q171.956 333.393 175.289 333.393 Q178.623 333.393 180.544 331.61 Q182.465 329.805 182.465 326.703 Q182.465 323.578 180.544 321.795 Q178.646 320.013 175.289 320.013 M170.614 318.022 Q167.604 317.281 165.915 315.221 Q164.248 313.161 164.248 310.198 Q164.248 306.055 167.188 303.647 Q170.151 301.24 175.289 301.24 Q180.451 301.24 183.391 303.647 Q186.331 306.055 186.331 310.198 Q186.331 313.161 184.641 315.221 Q182.975 317.281 179.989 318.022 Q183.368 318.809 185.243 321.101 Q187.141 323.393 187.141 326.703 Q187.141 331.726 184.063 334.411 Q181.007 337.096 175.289 337.096 Q169.572 337.096 166.493 334.411 Q163.438 331.726 163.438 326.703 Q163.438 323.393 165.336 321.101 Q167.234 318.809 170.614 318.022 M168.901 310.638 Q168.901 313.323 170.567 314.828 Q172.257 316.332 175.289 316.332 Q178.299 316.332 179.989 314.828 Q181.701 313.323 181.701 310.638 Q181.701 307.953 179.989 306.448 Q178.299 304.944 175.289 304.944 Q172.257 304.944 170.567 306.448 Q168.901 307.953 168.901 310.638 Z" fill="#000000" fill-rule="evenodd" fill-opacity="1" /><path clip-path="url(#clip670)" d="M 0 0 M1302.46 4.53628 Q1302.38 4.94617 1302.21 5.68398 Q1302.05 6.3808 1301.31 8.59422 Q1300.57 10.8076 1299.59 13.0621 Q1298.65 15.2755 1296.8 18.3907 Q1295 21.4649 1292.79 24.2521 Q1292.17 24.9899 1292.05 25.4408 Q1291.97 25.8507 1291.97 27.2034 Q1291.97 35.7291 1294.55 35.7291 Q1294.67 35.7291 1294.88 35.7291 Q1295.12 35.6881 1295.74 35.4832 Q1296.39 35.2373 1296.97 34.8683 Q1297.54 34.4585 1298.2 33.6387 Q1298.85 32.7779 1299.26 31.6302 Q1299.63 30.8104 1300.37 30.8104 Q1301.35 30.8104 1301.35 31.6302 Q1301.35 33.1058 1299.3 35.3602 Q1297.25 37.6146 1294.3 37.6146 Q1291.47 37.6146 1289.47 35.7701 Q1287.5 33.8846 1286.68 30.5235 Q1277.83 37.6146 1268.97 37.6146 Q1262.74 37.6146 1259.05 33.5567 Q1255.36 29.4578 1255.36 23.3913 Q1255.36 17.5709 1258.56 12.0373 Q1261.8 6.50377 1267.05 3.06067 Q1272.33 -0.423422 1277.95 -0.423422 Q1279.92 -0.423422 1281.8 0.109439 Q1283.69 0.60131 1285.57 1.87198 Q1287.46 3.14265 1288.85 5.06914 Q1290.25 6.99564 1291.11 10.0288 Q1291.97 13.0621 1291.97 16.8741 L1291.97 22.0797 Q1297.38 15.2345 1300.21 5.43805 Q1300.62 3.96243 1300.86 3.79847 Q1301.03 3.67551 1301.44 3.67551 Q1301.85 3.67551 1302.09 3.92144 Q1302.38 4.12639 1302.42 4.33133 L1302.46 4.53628 M1286.35 28.3511 Q1286.19 26.9164 1286.19 18.9645 Q1286.19 17.4479 1286.19 16.6281 Q1286.19 15.7673 1286.11 14.1278 Q1286.02 12.4882 1285.86 11.4635 Q1285.74 10.4387 1285.45 8.96312 Q1285.16 7.48751 1284.75 6.54476 Q1284.34 5.602 1283.69 4.53628 Q1283.07 3.47056 1282.25 2.85572 Q1281.47 2.24088 1280.33 1.83099 Q1279.22 1.4211 1277.87 1.4211 Q1276.19 1.4211 1274.42 2.03594 Q1272.7 2.60978 1270.49 4.4543 Q1268.27 6.25783 1266.43 9.12708 Q1264.5 12.1603 1263.03 17.7348 Q1261.59 23.2684 1261.59 26.5885 Q1261.59 30.7694 1263.52 33.2698 Q1265.45 35.7291 1269.14 35.7291 Q1277.95 35.7291 1286.35 28.3511 Z" fill="#000000" fill-rule="evenodd" fill-opacity="1" /><path clip-path="url(#clip670)" d="M 0 0 M1296.11 1527.48 Q1296.11 1529.28 1294.98 1530.31 Q1293.85 1531.31 1292.57 1531.31 Q1291.34 1531.31 1290.7 1530.6 Q1290.05 1529.89 1290.05 1528.99 Q1290.05 1527.77 1290.96 1526.7 Q1291.86 1525.64 1293.21 1525.42 Q1291.89 1524.58 1289.93 1524.58 Q1288.64 1524.58 1287.51 1525.26 Q1286.41 1525.93 1285.74 1526.8 Q1285.09 1527.67 1284.51 1528.93 Q1283.97 1530.15 1283.74 1530.89 Q1283.55 1531.6 1283.39 1532.37 L1281.13 1541.39 Q1280.04 1545.67 1280.04 1547.19 Q1280.04 1549.06 1280.94 1550.31 Q1281.84 1551.54 1283.64 1551.54 Q1284.35 1551.54 1285.16 1551.34 Q1285.96 1551.12 1286.99 1550.54 Q1288.06 1549.93 1288.99 1549.02 Q1289.96 1548.09 1290.89 1546.51 Q1291.83 1544.93 1292.44 1542.9 Q1292.63 1542.2 1293.27 1542.2 Q1294.08 1542.2 1294.08 1542.84 Q1294.08 1543.39 1293.63 1544.55 Q1293.21 1545.67 1292.28 1547.16 Q1291.37 1548.6 1290.18 1549.93 Q1288.99 1551.21 1287.22 1552.12 Q1285.45 1553.02 1283.52 1553.02 Q1280.75 1553.02 1278.91 1551.54 Q1277.07 1550.05 1276.4 1547.99 Q1276.24 1548.28 1276.01 1548.67 Q1275.79 1549.06 1275.11 1549.93 Q1274.47 1550.76 1273.73 1551.41 Q1272.98 1552.02 1271.83 1552.5 Q1270.7 1553.02 1269.47 1553.02 Q1267.93 1553.02 1266.54 1552.57 Q1265.19 1552.12 1264.22 1551.08 Q1263.26 1550.05 1263.26 1548.64 Q1263.26 1547.06 1264.32 1545.96 Q1265.42 1544.84 1266.9 1544.84 Q1267.83 1544.84 1268.57 1545.38 Q1269.35 1545.93 1269.35 1547.12 Q1269.35 1548.44 1268.44 1549.44 Q1267.54 1550.44 1266.25 1550.7 Q1267.57 1551.54 1269.54 1551.54 Q1271.66 1551.54 1273.34 1549.67 Q1275.01 1547.8 1275.82 1544.68 Q1277.82 1537.17 1278.59 1533.82 Q1279.36 1530.44 1279.36 1528.99 Q1279.36 1527.64 1279.01 1526.7 Q1278.65 1525.77 1278.04 1525.35 Q1277.46 1524.9 1276.91 1524.74 Q1276.4 1524.58 1275.82 1524.58 Q1274.85 1524.58 1273.76 1524.97 Q1272.69 1525.35 1271.41 1526.25 Q1270.15 1527.12 1268.96 1528.93 Q1267.77 1530.73 1266.96 1533.21 Q1266.8 1533.95 1266.09 1533.95 Q1265.32 1533.92 1265.32 1533.27 Q1265.32 1532.73 1265.74 1531.6 Q1266.19 1530.44 1267.09 1528.99 Q1268.03 1527.54 1269.22 1526.25 Q1270.44 1524.93 1272.21 1524.03 Q1274.02 1523.13 1275.95 1523.13 Q1276.82 1523.13 1277.65 1523.32 Q1278.52 1523.48 1279.55 1523.97 Q1280.62 1524.45 1281.55 1525.51 Q1282.49 1526.58 1283.07 1528.12 Q1283.45 1527.38 1283.97 1526.67 Q1284.51 1525.96 1285.35 1525.09 Q1286.22 1524.19 1287.41 1523.68 Q1288.64 1523.13 1289.99 1523.13 Q1291.31 1523.13 1292.6 1523.48 Q1293.89 1523.81 1294.98 1524.87 Q1296.11 1525.9 1296.11 1527.48 Z" fill="#000000" fill-rule="evenodd" fill-opacity="1" /><path clip-path="url(#clip670)" d="M 0 0 M60.8835 752.42 Q61.3344 752.42 62.3972 752.71 L87.5821 759.022 Q93.186 760.407 97.1151 764.916 Q101.044 769.393 101.044 774.481 Q101.044 777.541 99.4017 779.505 Q97.7914 781.47 95.3115 781.47 Q93.1216 781.47 92.0588 780.31 Q91.0282 779.151 91.0282 777.766 Q91.0282 777.315 91.157 776.832 Q91.2858 776.349 91.8333 775.834 Q92.3808 775.318 93.3148 775.318 Q94.8285 775.318 96.0201 776.639 Q96.5676 777.283 96.6964 777.895 Q96.8252 778.475 96.8252 779.473 Q97.727 779.086 98.3389 778.378 Q98.9508 777.669 99.1763 776.864 Q99.4339 776.059 99.4983 775.544 Q99.5949 774.996 99.5949 774.481 Q99.5949 770.359 95.4404 767.203 Q94.1843 766.269 92.9283 765.592 Q91.7045 764.884 90.1908 764.368 Q88.7093 763.853 87.9042 763.628 Q87.0991 763.37 85.2633 762.919 Q88.2585 765.914 88.2585 769.586 Q88.2585 771.132 87.8398 772.516 Q87.4211 773.869 86.5516 775.061 Q85.6498 776.252 84.0717 776.961 Q82.4936 777.637 80.4002 777.637 Q78.178 777.637 75.1507 776.768 Q72.1233 775.898 66.5517 773.805 Q63.4277 772.678 61.9141 772.678 Q61.1733 772.678 60.7225 772.839 Q60.2394 773 60.0783 773.322 Q59.8851 773.644 59.8529 773.837 Q59.8207 773.998 59.8207 774.32 Q59.8207 776.22 61.753 777.991 Q63.6854 779.763 68.001 780.987 Q68.8061 781.244 68.9994 781.405 Q69.1926 781.566 69.1926 782.049 Q69.1604 782.855 68.5163 782.855 Q68.2586 782.855 67.2602 782.565 Q66.2297 782.275 64.716 781.599 Q63.1701 780.89 61.7852 779.924 Q60.3682 778.958 59.3698 777.444 Q58.3714 775.898 58.3714 774.127 Q58.3714 771.711 59.9495 770.23 Q61.4954 768.716 63.782 768.716 Q64.716 768.716 65.5533 768.974 Q66.3585 769.199 68.5163 770.037 Q77.2119 773.418 81.463 773.418 Q82.4936 773.418 83.3632 773.257 Q84.2005 773.064 85.0379 772.645 Q85.843 772.227 86.3261 771.389 Q86.777 770.52 86.777 769.328 Q86.777 767.814 86.0685 766.397 Q85.3277 764.948 84.3294 764.046 Q83.331 763.112 82.4936 762.565 Q81.6241 761.985 81.1732 761.856 L69.3214 758.893 L64.0397 757.573 Q61.1733 756.961 60.4648 756.671 Q59.7885 756.285 59.4342 755.608 Q59.08 754.932 59.08 754.352 Q59.08 753.547 59.563 753 Q60.0461 752.42 60.8835 752.42 Z" fill="#000000" fill-rule="evenodd" fill-opacity="1" /><polyline clip-path="url(#clip672)" style="stroke:#009af9; stroke-width:4; stroke-opacity:1; fill:none" points="
  271.753,1069.26 496.241,248.348 720.729,786.717 945.217,476.845 1169.7,828.024 1394.19,125.03 1618.68,265.292 1843.17,1408.66 2067.66,1269.78 2292.14,340.549 
  
  "/>
<path clip-path="url(#clip670)" d="
M1989.74 291.002 L2280.76 291.002 L2280.76 170.042 L1989.74 170.042  Z
  " fill="#ffffff" fill-rule="evenodd" fill-opacity="1"/>
<polyline clip-path="url(#clip670)" style="stroke:#000000; stroke-width:4; stroke-opacity:1; fill:none" points="
  1989.74,291.002 2280.76,291.002 2280.76,170.042 1989.74,170.042 1989.74,291.002 
  "/>
<polyline clip-path="url(#clip670)" style="stroke:#009af9; stroke-width:4; stroke-opacity:1; fill:none" points="
  2013.74,230.522 2157.74,230.522 
  "/>
<path clip-path="url(#clip670)" d="M 0 0 M2195.58 250.209 Q2193.77 254.839 2192.06 256.251 Q2190.35 257.663 2187.48 257.663 L2184.08 257.663 L2184.08 254.098 L2186.58 254.098 Q2188.33 254.098 2189.31 253.264 Q2190.28 252.431 2191.46 249.329 L2192.22 247.385 L2181.74 221.876 L2186.25 221.876 L2194.35 242.153 L2202.46 221.876 L2206.97 221.876 L2195.58 250.209 Z" fill="#000000" fill-rule="evenodd" fill-opacity="1" /><path clip-path="url(#clip670)" d="M 0 0 M2212.85 243.866 L2220.49 243.866 L2220.49 217.501 L2212.18 219.167 L2212.18 214.908 L2220.44 213.242 L2225.12 213.242 L2225.12 243.866 L2232.76 243.866 L2232.76 247.802 L2212.85 247.802 L2212.85 243.866 Z" fill="#000000" fill-rule="evenodd" fill-opacity="1" /></svg>
