<?xml version="1.0" encoding="utf-8"?>
<svg xmlns="http://www.w3.org/2000/svg" xmlns:xlink="http://www.w3.org/1999/xlink" width="600" height="400" viewBox="0 0 2400 1600">
<defs>
  <clipPath id="clip770">
    <rect x="0" y="0" width="2400" height="1600"/>
  </clipPath>
</defs>
<path clip-path="url(#clip770)" d="
M0 1600 L2400 1600 L2400 0 L0 0  Z
  " fill="#ffffff" fill-rule="evenodd" fill-opacity="1"/>
<defs>
  <clipPath id="clip771">
    <rect x="480" y="0" width="1681" height="1600"/>
  </clipPath>
</defs>
<path clip-path="url(#clip770)" d="
M211.141 1447.17 L2352.76 1447.17 L2352.76 86.5215 L211.141 86.5215  Z
  " fill="#ffffff" fill-rule="evenodd" fill-opacity="1"/>
<defs>
  <clipPath id="clip772">
    <rect x="211" y="86" width="2143" height="1362"/>
  </clipPath>
</defs>
<polyline clip-path="url(#clip772)" style="stroke:#000000; stroke-width:2; stroke-opacity:0.1; fill:none" points="
  496.241,1447.17 496.241,86.5215 
  "/>
<polyline clip-path="url(#clip772)" style="stroke:#000000; stroke-width:2; stroke-opacity:0.1; fill:none" points="
  945.217,1447.17 945.217,86.5215 
  "/>
<polyline clip-path="url(#clip772)" style="stroke:#000000; stroke-width:2; stroke-opacity:0.1; fill:none" points="
  1394.19,1447.17 1394.19,86.5215 
  "/>
<polyline clip-path="url(#clip772)" style="stroke:#000000; stroke-width:2; stroke-opacity:0.1; fill:none" points="
  1843.17,1447.17 1843.17,86.5215 
  "/>
<polyline clip-path="url(#clip772)" style="stroke:#000000; stroke-width:2; stroke-opacity:0.1; fill:none" points="
  2292.14,1447.17 2292.14,86.5215 
  "/>
<polyline clip-path="url(#clip772)" style="stroke:#000000; stroke-width:2; stroke-opacity:0.1; fill:none" points="
  211.141,1299.92 2352.76,1299.92 
  "/>
<polyline clip-path="url(#clip772)" style="stroke:#000000; stroke-width:2; stroke-opacity:0.1; fill:none" points="
  211.141,1117.61 2352.76,1117.61 
  "/>
<polyline clip-path="url(#clip772)" style="stroke:#000000; stroke-width:2; stroke-opacity:0.1; fill:none" points="
  211.141,935.299 2352.76,935.299 
  "/>
<polyline clip-path="url(#clip772)" style="stroke:#000000; stroke-width:2; stroke-opacity:0.1; fill:none" points="
  211.141,752.988 2352.76,752.988 
  "/>
<polyline clip-path="url(#clip772)" style="stroke:#000000; stroke-width:2; stroke-opacity:0.1; fill:none" points="
  211.141,570.676 2352.76,570.676 
  "/>
<polyline clip-path="url(#clip772)" style="stroke:#000000; stroke-width:2; stroke-opacity:0.1; fill:none" points="
  211.141,388.365 2352.76,388.365 
  "/>
<polyline clip-path="url(#clip772)" style="stroke:#000000; stroke-width:2; stroke-opacity:0.1; fill:none" points="
  211.141,206.054 2352.76,206.054 
  "/>
<polyline clip-path="url(#clip770)" style="stroke:#000000; stroke-width:4; stroke-opacity:1; fill:none" points="
  211.141,1447.17 2352.76,1447.17 
  "/>
<polyline clip-path="url(#clip770)" style="stroke:#000000; stroke-width:4; stroke-opacity:1; fill:none" points="
  211.141,1447.17 211.141,86.5215 
  "/>
<polyline clip-path="url(#clip770)" style="stroke:#000000; stroke-width:4; stroke-opacity:1; fill:none" points="
  496.241,1447.17 496.241,1430.84 
  "/>
<polyline clip-path="url(#clip770)" style="stroke:#000000; stroke-width:4; stroke-opacity:1; fill:none" points="
  945.217,1447.17 945.217,1430.84 
  "/>
<polyline clip-path="url(#clip770)" style="stroke:#000000; stroke-width:4; stroke-opacity:1; fill:none" points="
  1394.19,1447.17 1394.19,1430.84 
  "/>
<polyline clip-path="url(#clip770)" style="stroke:#000000; stroke-width:4; stroke-opacity:1; fill:none" points="
  1843.17,1447.17 1843.17,1430.84 
  "/>
<polyline clip-path="url(#clip770)" style="stroke:#000000; stroke-width:4; stroke-opacity:1; fill:none" points="
  2292.14,1447.17 2292.14,1430.84 
  "/>
<polyline clip-path="url(#clip770)" style="stroke:#000000; stroke-width:4; stroke-opacity:1; fill:none" points="
  211.141,1299.92 236.841,1299.92 
  "/>
<polyline clip-path="url(#clip770)" style="stroke:#000000; stroke-width:4; stroke-opacity:1; fill:none" points="
  211.141,1117.61 236.841,1117.61 
  "/>
<polyline clip-path="url(#clip770)" style="stroke:#000000; stroke-width:4; stroke-opacity:1; fill:none" points="
  211.141,935.299 236.841,935.299 
  "/>
<polyline clip-path="url(#clip770)" style="stroke:#000000; stroke-width:4; stroke-opacity:1; fill:none" points="
  211.141,752.988 236.841,752.988 
  "/>
<polyline clip-path="url(#clip770)" style="stroke:#000000; stroke-width:4; stroke-opacity:1; fill:none" points="
  211.141,570.676 236.841,570.676 
  "/>
<polyline clip-path="url(#clip770)" style="stroke:#000000; stroke-width:4; stroke-opacity:1; fill:none" points="
  211.141,388.365 236.841,388.365 
  "/>
<polyline clip-path="url(#clip770)" style="stroke:#000000; stroke-width:4; stroke-opacity:1; fill:none" points="
  211.141,206.054 236.841,206.054 
  "/>
<path clip-path="url(#clip770)" d="M 0 0 M490.894 1496.71 L507.213 1496.71 L507.213 1500.64 L485.269 1500.64 L485.269 1496.71 Q487.931 1493.95 492.514 1489.32 Q497.121 1484.67 498.301 1483.33 Q500.546 1480.8 501.426 1479.07 Q502.329 1477.31 502.329 1475.62 Q502.329 1472.86 500.384 1471.13 Q498.463 1469.39 495.361 1469.39 Q493.162 1469.39 490.709 1470.16 Q488.278 1470.92 485.5 1472.47 L485.5 1467.75 Q488.324 1466.61 490.778 1466.04 Q493.232 1465.46 495.269 1465.46 Q500.639 1465.46 503.833 1468.14 Q507.028 1470.83 507.028 1475.32 Q507.028 1477.45 506.218 1479.37 Q505.431 1481.27 503.324 1483.86 Q502.745 1484.53 499.644 1487.75 Q496.542 1490.94 490.894 1496.71 Z" fill="#000000" fill-rule="evenodd" fill-opacity="1" /><path clip-path="url(#clip770)" d="M 0 0 M948.226 1470.16 L936.42 1488.61 L948.226 1488.61 L948.226 1470.16 M946.999 1466.08 L952.879 1466.08 L952.879 1488.61 L957.809 1488.61 L957.809 1492.49 L952.879 1492.49 L952.879 1500.64 L948.226 1500.64 L948.226 1492.49 L932.624 1492.49 L932.624 1487.98 L946.999 1466.08 Z" fill="#000000" fill-rule="evenodd" fill-opacity="1" /><path clip-path="url(#clip770)" d="M 0 0 M1394.6 1481.5 Q1391.45 1481.5 1389.6 1483.65 Q1387.77 1485.8 1387.77 1489.55 Q1387.77 1493.28 1389.6 1495.46 Q1391.45 1497.61 1394.6 1497.61 Q1397.75 1497.61 1399.57 1495.46 Q1401.43 1493.28 1401.43 1489.55 Q1401.43 1485.8 1399.57 1483.65 Q1397.75 1481.5 1394.6 1481.5 M1403.88 1466.85 L1403.88 1471.11 Q1402.12 1470.27 1400.32 1469.83 Q1398.53 1469.39 1396.77 1469.39 Q1392.14 1469.39 1389.69 1472.52 Q1387.26 1475.64 1386.91 1481.96 Q1388.28 1479.95 1390.34 1478.88 Q1392.4 1477.8 1394.88 1477.8 Q1400.08 1477.8 1403.09 1480.97 Q1406.13 1484.11 1406.13 1489.55 Q1406.13 1494.88 1402.98 1498.1 Q1399.83 1501.31 1394.6 1501.31 Q1388.6 1501.31 1385.43 1496.73 Q1382.26 1492.12 1382.26 1483.4 Q1382.26 1475.2 1386.15 1470.34 Q1390.04 1465.46 1396.59 1465.46 Q1398.35 1465.46 1400.13 1465.8 Q1401.94 1466.15 1403.88 1466.85 Z" fill="#000000" fill-rule="evenodd" fill-opacity="1" /><path clip-path="url(#clip770)" d="M 0 0 M1843.17 1484.23 Q1839.84 1484.23 1837.91 1486.01 Q1836.02 1487.8 1836.02 1490.92 Q1836.02 1494.05 1837.91 1495.83 Q1839.84 1497.61 1843.17 1497.61 Q1846.5 1497.61 1848.42 1495.83 Q1850.34 1494.02 1850.34 1490.92 Q1850.34 1487.8 1848.42 1486.01 Q1846.52 1484.23 1843.17 1484.23 M1838.49 1482.24 Q1835.48 1481.5 1833.79 1479.44 Q1832.13 1477.38 1832.13 1474.42 Q1832.13 1470.27 1835.07 1467.86 Q1838.03 1465.46 1843.17 1465.46 Q1848.33 1465.46 1851.27 1467.86 Q1854.21 1470.27 1854.21 1474.42 Q1854.21 1477.38 1852.52 1479.44 Q1850.85 1481.5 1847.87 1482.24 Q1851.25 1483.03 1853.12 1485.32 Q1855.02 1487.61 1855.02 1490.92 Q1855.02 1495.94 1851.94 1498.63 Q1848.89 1501.31 1843.17 1501.31 Q1837.45 1501.31 1834.37 1498.63 Q1831.32 1495.94 1831.32 1490.92 Q1831.32 1487.61 1833.21 1485.32 Q1835.11 1483.03 1838.49 1482.24 M1836.78 1474.86 Q1836.78 1477.54 1838.45 1479.05 Q1840.14 1480.55 1843.17 1480.55 Q1846.18 1480.55 1847.87 1479.05 Q1849.58 1477.54 1849.58 1474.86 Q1849.58 1472.17 1847.87 1470.67 Q1846.18 1469.16 1843.17 1469.16 Q1840.14 1469.16 1838.45 1470.67 Q1836.78 1472.17 1836.78 1474.86 Z" fill="#000000" fill-rule="evenodd" fill-opacity="1" /><path clip-path="url(#clip770)" d="M 0 0 M2269.02 1496.71 L2276.66 1496.71 L2276.66 1470.34 L2268.35 1472.01 L2268.35 1467.75 L2276.61 1466.08 L2281.29 1466.08 L2281.29 1496.71 L2288.93 1496.71 L2288.93 1500.64 L2269.02 1500.64 L2269.02 1496.71 Z" fill="#000000" fill-rule="evenodd" fill-opacity="1" /><path clip-path="url(#clip770)" d="M 0 0 M2304 1469.16 Q2300.38 1469.16 2298.56 1472.73 Q2296.75 1476.27 2296.75 1483.4 Q2296.75 1490.5 2298.56 1494.07 Q2300.38 1497.61 2304 1497.61 Q2307.63 1497.61 2309.44 1494.07 Q2311.26 1490.5 2311.26 1483.4 Q2311.26 1476.27 2309.44 1472.73 Q2307.63 1469.16 2304 1469.16 M2304 1465.46 Q2309.81 1465.46 2312.86 1470.06 Q2315.94 1474.65 2315.94 1483.4 Q2315.94 1492.12 2312.86 1496.73 Q2309.81 1501.31 2304 1501.31 Q2298.19 1501.31 2295.11 1496.73 Q2292.05 1492.12 2292.05 1483.4 Q2292.05 1474.65 2295.11 1470.06 Q2298.19 1465.46 2304 1465.46 Z" fill="#000000" fill-rule="evenodd" fill-opacity="1" /><path clip-path="url(#clip770)" d="M 0 0 M138.878 1285.72 Q135.267 1285.72 133.438 1289.29 Q131.632 1292.83 131.632 1299.96 Q131.632 1307.06 133.438 1310.63 Q135.267 1314.17 138.878 1314.17 Q142.512 1314.17 144.317 1310.63 Q146.146 1307.06 146.146 1299.96 Q146.146 1292.83 144.317 1289.29 Q142.512 1285.72 138.878 1285.72 M138.878 1282.02 Q144.688 1282.02 147.743 1286.62 Q150.822 1291.21 150.822 1299.96 Q150.822 1308.68 147.743 1313.29 Q144.688 1317.87 138.878 1317.87 Q133.067 1317.87 129.989 1313.29 Q126.933 1308.68 126.933 1299.96 Q126.933 1291.21 129.989 1286.62 Q133.067 1282.02 138.878 1282.02 Z" fill="#000000" fill-rule="evenodd" fill-opacity="1" /><path clip-path="url(#clip770)" d="M 0 0 M155.891 1311.32 L160.776 1311.32 L160.776 1317.2 L155.891 1317.2 L155.891 1311.32 Z" fill="#000000" fill-rule="evenodd" fill-opacity="1" /><path clip-path="url(#clip770)" d="M 0 0 M180.012 1298.57 Q183.368 1299.29 185.243 1301.55 Q187.141 1303.82 187.141 1307.16 Q187.141 1312.27 183.623 1315.07 Q180.104 1317.87 173.623 1317.87 Q171.447 1317.87 169.132 1317.43 Q166.84 1317.02 164.387 1316.16 L164.387 1311.65 Q166.331 1312.78 168.646 1313.36 Q170.961 1313.94 173.484 1313.94 Q177.882 1313.94 180.174 1312.2 Q182.488 1310.47 182.488 1307.16 Q182.488 1304.1 180.336 1302.39 Q178.206 1300.65 174.387 1300.65 L170.359 1300.65 L170.359 1296.81 L174.572 1296.81 Q178.021 1296.81 179.85 1295.44 Q181.678 1294.05 181.678 1291.46 Q181.678 1288.8 179.78 1287.39 Q177.905 1285.95 174.387 1285.95 Q172.465 1285.95 170.266 1286.37 Q168.067 1286.79 165.428 1287.66 L165.428 1283.5 Q168.09 1282.76 170.405 1282.39 Q172.743 1282.02 174.803 1282.02 Q180.127 1282.02 183.229 1284.45 Q186.331 1286.85 186.331 1290.97 Q186.331 1293.85 184.688 1295.84 Q183.044 1297.8 180.012 1298.57 Z" fill="#000000" fill-rule="evenodd" fill-opacity="1" /><path clip-path="url(#clip770)" d="M 0 0 M137.743 1103.41 Q134.132 1103.41 132.304 1106.97 Q130.498 1110.52 130.498 1117.65 Q130.498 1124.75 132.304 1128.32 Q134.132 1131.86 137.743 1131.86 Q141.378 1131.86 143.183 1128.32 Q145.012 1124.75 145.012 1117.65 Q145.012 1110.52 143.183 1106.97 Q141.378 1103.41 137.743 1103.41 M137.743 1099.71 Q143.554 1099.71 146.609 1104.31 Q149.688 1108.9 149.688 1117.65 Q149.688 1126.37 146.609 1130.98 Q143.554 1135.56 137.743 1135.56 Q131.933 1135.56 128.855 1130.98 Q125.799 1126.37 125.799 1117.65 Q125.799 1108.9 128.855 1104.31 Q131.933 1099.71 137.743 1099.71 Z" fill="#000000" fill-rule="evenodd" fill-opacity="1" /><path clip-path="url(#clip770)" d="M 0 0 M154.757 1129.01 L159.641 1129.01 L159.641 1134.89 L154.757 1134.89 L154.757 1129.01 Z" fill="#000000" fill-rule="evenodd" fill-opacity="1" /><path clip-path="url(#clip770)" d="M 0 0 M177.558 1104.4 L165.752 1122.85 L177.558 1122.85 L177.558 1104.4 M176.331 1100.33 L182.211 1100.33 L182.211 1122.85 L187.141 1122.85 L187.141 1126.74 L182.211 1126.74 L182.211 1134.89 L177.558 1134.89 L177.558 1126.74 L161.956 1126.74 L161.956 1122.23 L176.331 1100.33 Z" fill="#000000" fill-rule="evenodd" fill-opacity="1" /><path clip-path="url(#clip770)" d="M 0 0 M139.225 921.098 Q135.614 921.098 133.785 924.662 Q131.98 928.204 131.98 935.334 Q131.98 942.44 133.785 946.005 Q135.614 949.547 139.225 949.547 Q142.859 949.547 144.665 946.005 Q146.493 942.44 146.493 935.334 Q146.493 928.204 144.665 924.662 Q142.859 921.098 139.225 921.098 M139.225 917.394 Q145.035 917.394 148.091 922 Q151.169 926.584 151.169 935.334 Q151.169 944.061 148.091 948.667 Q145.035 953.25 139.225 953.25 Q133.415 953.25 130.336 948.667 Q127.28 944.061 127.28 935.334 Q127.28 926.584 130.336 922 Q133.415 917.394 139.225 917.394 Z" fill="#000000" fill-rule="evenodd" fill-opacity="1" /><path clip-path="url(#clip770)" d="M 0 0 M156.239 946.699 L161.123 946.699 L161.123 952.579 L156.239 952.579 L156.239 946.699 Z" fill="#000000" fill-rule="evenodd" fill-opacity="1" /><path clip-path="url(#clip770)" d="M 0 0 M166.239 918.019 L184.595 918.019 L184.595 921.954 L170.521 921.954 L170.521 930.426 Q171.539 930.079 172.558 929.917 Q173.577 929.732 174.595 929.732 Q180.382 929.732 183.762 932.903 Q187.141 936.074 187.141 941.491 Q187.141 947.07 183.669 950.172 Q180.197 953.25 173.877 953.25 Q171.702 953.25 169.433 952.88 Q167.188 952.51 164.78 951.769 L164.78 947.07 Q166.864 948.204 169.086 948.76 Q171.308 949.315 173.785 949.315 Q177.789 949.315 180.127 947.209 Q182.465 945.102 182.465 941.491 Q182.465 937.88 180.127 935.774 Q177.789 933.667 173.785 933.667 Q171.91 933.667 170.035 934.084 Q168.183 934.5 166.239 935.38 L166.239 918.019 Z" fill="#000000" fill-rule="evenodd" fill-opacity="1" /><path clip-path="url(#clip770)" d="M 0 0 M138.067 738.786 Q134.456 738.786 132.628 742.351 Q130.822 745.893 130.822 753.022 Q130.822 760.129 132.628 763.694 Q134.456 767.235 138.067 767.235 Q141.702 767.235 143.507 763.694 Q145.336 760.129 145.336 753.022 Q145.336 745.893 143.507 742.351 Q141.702 738.786 138.067 738.786 M138.067 735.083 Q143.878 735.083 146.933 739.689 Q150.012 744.272 150.012 753.022 Q150.012 761.749 146.933 766.356 Q143.878 770.939 138.067 770.939 Q132.257 770.939 129.179 766.356 Q126.123 761.749 126.123 753.022 Q126.123 744.272 129.179 739.689 Q132.257 735.083 138.067 735.083 Z" fill="#000000" fill-rule="evenodd" fill-opacity="1" /><path clip-path="url(#clip770)" d="M 0 0 M155.081 764.388 L159.965 764.388 L159.965 770.268 L155.081 770.268 L155.081 764.388 Z" fill="#000000" fill-rule="evenodd" fill-opacity="1" /><path clip-path="url(#clip770)" d="M 0 0 M175.614 751.124 Q172.465 751.124 170.614 753.277 Q168.785 755.43 168.785 759.18 Q168.785 762.907 170.614 765.083 Q172.465 767.235 175.614 767.235 Q178.762 767.235 180.59 765.083 Q182.442 762.907 182.442 759.18 Q182.442 755.43 180.59 753.277 Q178.762 751.124 175.614 751.124 M184.896 736.472 L184.896 740.731 Q183.137 739.897 181.331 739.458 Q179.549 739.018 177.789 739.018 Q173.16 739.018 170.706 742.143 Q168.276 745.268 167.928 751.587 Q169.294 749.573 171.354 748.509 Q173.414 747.421 175.891 747.421 Q181.1 747.421 184.109 750.592 Q187.141 753.74 187.141 759.18 Q187.141 764.504 183.993 767.721 Q180.845 770.939 175.614 770.939 Q169.618 770.939 166.447 766.356 Q163.276 761.749 163.276 753.022 Q163.276 744.828 167.165 739.967 Q171.053 735.083 177.604 735.083 Q179.364 735.083 181.146 735.43 Q182.951 735.777 184.896 736.472 Z" fill="#000000" fill-rule="evenodd" fill-opacity="1" /><path clip-path="url(#clip770)" d="M 0 0 M139.132 556.475 Q135.521 556.475 133.692 560.04 Q131.887 563.582 131.887 570.711 Q131.887 577.818 133.692 581.382 Q135.521 584.924 139.132 584.924 Q142.766 584.924 144.572 581.382 Q146.401 577.818 146.401 570.711 Q146.401 563.582 144.572 560.04 Q142.766 556.475 139.132 556.475 M139.132 552.771 Q144.942 552.771 147.998 557.378 Q151.077 561.961 151.077 570.711 Q151.077 579.438 147.998 584.044 Q144.942 588.628 139.132 588.628 Q133.322 588.628 130.243 584.044 Q127.188 579.438 127.188 570.711 Q127.188 561.961 130.243 557.378 Q133.322 552.771 139.132 552.771 Z" fill="#000000" fill-rule="evenodd" fill-opacity="1" /><path clip-path="url(#clip770)" d="M 0 0 M156.146 582.077 L161.03 582.077 L161.03 587.956 L156.146 587.956 L156.146 582.077 Z" fill="#000000" fill-rule="evenodd" fill-opacity="1" /><path clip-path="url(#clip770)" d="M 0 0 M164.919 553.396 L187.141 553.396 L187.141 555.387 L174.595 587.956 L169.711 587.956 L181.516 557.332 L164.919 557.332 L164.919 553.396 Z" fill="#000000" fill-rule="evenodd" fill-opacity="1" /><path clip-path="url(#clip770)" d="M 0 0 M138.322 374.164 Q134.711 374.164 132.882 377.729 Q131.077 381.27 131.077 388.4 Q131.077 395.506 132.882 399.071 Q134.711 402.613 138.322 402.613 Q141.956 402.613 143.762 399.071 Q145.591 395.506 145.591 388.4 Q145.591 381.27 143.762 377.729 Q141.956 374.164 138.322 374.164 M138.322 370.46 Q144.132 370.46 147.188 375.067 Q150.266 379.65 150.266 388.4 Q150.266 397.127 147.188 401.733 Q144.132 406.316 138.322 406.316 Q132.512 406.316 129.433 401.733 Q126.378 397.127 126.378 388.4 Q126.378 379.65 129.433 375.067 Q132.512 370.46 138.322 370.46 Z" fill="#000000" fill-rule="evenodd" fill-opacity="1" /><path clip-path="url(#clip770)" d="M 0 0 M155.336 399.765 L160.22 399.765 L160.22 405.645 L155.336 405.645 L155.336 399.765 Z" fill="#000000" fill-rule="evenodd" fill-opacity="1" /><path clip-path="url(#clip770)" d="M 0 0 M175.289 389.233 Q171.956 389.233 170.035 391.016 Q168.137 392.798 168.137 395.923 Q168.137 399.048 170.035 400.83 Q171.956 402.613 175.289 402.613 Q178.623 402.613 180.544 400.83 Q182.465 399.025 182.465 395.923 Q182.465 392.798 180.544 391.016 Q178.646 389.233 175.289 389.233 M170.614 387.242 Q167.604 386.502 165.915 384.442 Q164.248 382.381 164.248 379.418 Q164.248 375.275 167.188 372.867 Q170.151 370.46 175.289 370.46 Q180.451 370.46 183.391 372.867 Q186.331 375.275 186.331 379.418 Q186.331 382.381 184.641 384.442 Q182.975 386.502 179.989 387.242 Q183.368 388.029 185.243 390.321 Q187.141 392.613 187.141 395.923 Q187.141 400.946 184.063 403.631 Q181.007 406.316 175.289 406.316 Q169.572 406.316 166.493 403.631 Q163.438 400.946 163.438 395.923 Q163.438 392.613 165.336 390.321 Q167.234 388.029 170.614 387.242 M168.901 379.858 Q168.901 382.543 170.567 384.048 Q172.257 385.553 175.289 385.553 Q178.299 385.553 179.989 384.048 Q181.701 382.543 181.701 379.858 Q181.701 377.173 179.989 375.668 Q178.299 374.164 175.289 374.164 Q172.257 374.164 170.567 375.668 Q168.901 377.173 168.901 379.858 Z" fill="#000000" fill-rule="evenodd" fill-opacity="1" /><path clip-path="url(#clip770)" d="M 0 0 M138.415 191.852 Q134.804 191.852 132.975 195.417 Q131.169 198.959 131.169 206.089 Q131.169 213.195 132.975 216.76 Q134.804 220.301 138.415 220.301 Q142.049 220.301 143.854 216.76 Q145.683 213.195 145.683 206.089 Q145.683 198.959 143.854 195.417 Q142.049 191.852 138.415 191.852 M138.415 188.149 Q144.225 188.149 147.28 192.755 Q150.359 197.339 150.359 206.089 Q150.359 214.815 147.28 219.422 Q144.225 224.005 138.415 224.005 Q132.605 224.005 129.526 219.422 Q126.47 214.815 126.47 206.089 Q126.47 197.339 129.526 192.755 Q132.605 188.149 138.415 188.149 Z" fill="#000000" fill-rule="evenodd" fill-opacity="1" /><path clip-path="url(#clip770)" d="M 0 0 M155.428 217.454 L160.313 217.454 L160.313 223.334 L155.428 223.334 L155.428 217.454 Z" fill="#000000" fill-rule="evenodd" fill-opacity="1" /><path clip-path="url(#clip770)" d="M 0 0 M165.521 222.616 L165.521 218.357 Q167.28 219.19 169.086 219.63 Q170.891 220.07 172.627 220.07 Q177.257 220.07 179.688 216.968 Q182.141 213.843 182.488 207.501 Q181.146 209.491 179.086 210.556 Q177.026 211.621 174.526 211.621 Q169.34 211.621 166.308 208.496 Q163.299 205.348 163.299 199.908 Q163.299 194.584 166.447 191.366 Q169.595 188.149 174.826 188.149 Q180.822 188.149 183.97 192.755 Q187.141 197.339 187.141 206.089 Q187.141 214.26 183.252 219.144 Q179.387 224.005 172.836 224.005 Q171.077 224.005 169.271 223.658 Q167.465 223.311 165.521 222.616 M174.826 207.964 Q177.975 207.964 179.803 205.811 Q181.655 203.658 181.655 199.908 Q181.655 196.181 179.803 194.028 Q177.975 191.852 174.826 191.852 Q171.678 191.852 169.827 194.028 Q167.998 196.181 167.998 199.908 Q167.998 203.658 169.827 205.811 Q171.678 207.964 174.826 207.964 Z" fill="#000000" fill-rule="evenodd" fill-opacity="1" /><path clip-path="url(#clip770)" d="M 0 0 M1302.46 4.53628 Q1302.38 4.94617 1302.21 5.68398 Q1302.05 6.3808 1301.31 8.59422 Q1300.57 10.8076 1299.59 13.0621 Q1298.65 15.2755 1296.8 18.3907 Q1295 21.4649 1292.79 24.2521 Q1292.17 24.9899 1292.05 25.4408 Q1291.97 25.8507 1291.97 27.2034 Q1291.97 35.7291 1294.55 35.7291 Q1294.67 35.7291 1294.88 35.7291 Q1295.12 35.6881 1295.74 35.4832 Q1296.39 35.2373 1296.97 34.8683 Q1297.54 34.4585 1298.2 33.6387 Q1298.85 32.7779 1299.26 31.6302 Q1299.63 30.8104 1300.37 30.8104 Q1301.35 30.8104 1301.35 31.6302 Q1301.35 33.1058 1299.3 35.3602 Q1297.25 37.6146 1294.3 37.6146 Q1291.47 37.6146 1289.47 35.7701 Q1287.5 33.8846 1286.68 30.5235 Q1277.83 37.6146 1268.97 37.6146 Q1262.74 37.6146 1259.05 33.5567 Q1255.36 29.4578 1255.36 23.3913 Q1255.36 17.5709 1258.56 12.0373 Q1261.8 6.50377 1267.05 3.06067 Q1272.33 -0.423422 1277.95 -0.423422 Q1279.92 -0.423422 1281.8 0.109439 Q1283.69 0.60131 1285.57 1.87198 Q1287.46 3.14265 1288.85 5.06914 Q1290.25 6.99564 1291.11 10.0288 Q1291.97 13.0621 1291.97 16.8741 L1291.97 22.0797 Q1297.38 15.2345 1300.21 5.43805 Q1300.62 3.96243 1300.86 3.79847 Q1301.03 3.67551 1301.44 3.67551 Q1301.85 3.67551 1302.09 3.92144 Q1302.38 4.12639 1302.42 4.33133 L1302.46 4.53628 M1286.35 28.3511 Q1286.19 26.9164 1286.19 18.9645 Q1286.19 17.4479 1286.19 16.6281 Q1286.19 15.7673 1286.11 14.1278 Q1286.02 12.4882 1285.86 11.4635 Q1285.74 10.4387 1285.45 8.96312 Q1285.16 7.48751 1284.75 6.54476 Q1284.34 5.602 1283.69 4.53628 Q1283.07 3.47056 1282.25 2.85572 Q1281.47 2.24088 1280.33 1.83099 Q1279.22 1.4211 1277.87 1.4211 Q1276.19 1.4211 1274.42 2.03594 Q1272.7 2.60978 1270.49 4.4543 Q1268.27 6.25783 1266.43 9.12708 Q1264.5 12.1603 1263.03 17.7348 Q1261.59 23.2684 1261.59 26.5885 Q1261.59 30.7694 1263.52 33.2698 Q1265.45 35.7291 1269.14 35.7291 Q1277.95 35.7291 1286.35 28.3511 Z" fill="#000000" fill-rule="evenodd" fill-opacity="1" /><path clip-path="url(#clip770)" d="M 0 0 M1296.11 1527.48 Q1296.11 1529.28 1294.98 1530.31 Q1293.85 1531.31 1292.57 1531.31 Q1291.34 1531.31 1290.7 1530.6 Q1290.05 1529.89 1290.05 1528.99 Q1290.05 1527.77 1290.96 1526.7 Q1291.86 1525.64 1293.21 1525.42 Q1291.89 1524.58 1289.93 1524.58 Q1288.64 1524.58 1287.51 1525.26 Q1286.41 1525.93 1285.74 1526.8 Q1285.09 1527.67 1284.51 1528.93 Q1283.97 1530.15 1283.74 1530.89 Q1283.55 1531.6 1283.39 1532.37 L1281.13 1541.39 Q1280.04 1545.67 1280.04 1547.19 Q1280.04 1549.06 1280.94 1550.31 Q1281.84 1551.54 1283.64 1551.54 Q1284.35 1551.54 1285.16 1551.34 Q1285.96 1551.12 1286.99 1550.54 Q1288.06 1549.93 1288.99 1549.02 Q1289.96 1548.09 1290.89 1546.51 Q1291.83 1544.93 1292.44 1542.9 Q1292.63 1542.2 1293.27 1542.2 Q1294.08 1542.2 1294.08 1542.84 Q1294.08 1543.39 1293.63 1544.55 Q1293.21 1545.67 1292.28 1547.16 Q1291.37 1548.6 1290.18 1549.93 Q1288.99 1551.21 1287.22 1552.12 Q1285.45 1553.02 1283.52 1553.02 Q1280.75 1553.02 1278.91 1551.54 Q1277.07 1550.05 1276.4 1547.99 Q1276.24 1548.28 1276.01 1548.67 Q1275.79 1549.06 1275.11 1549.93 Q1274.47 1550.76 1273.73 1551.41 Q1272.98 1552.02 1271.83 1552.5 Q1270.7 1553.02 1269.47 1553.02 Q1267.93 1553.02 1266.54 1552.57 Q1265.19 1552.12 1264.22 1551.08 Q1263.26 1550.05 1263.26 1548.64 Q1263.26 1547.06 1264.32 1545.96 Q1265.42 1544.84 1266.9 1544.84 Q1267.83 1544.84 1268.57 1545.38 Q1269.35 1545.93 1269.35 1547.12 Q1269.35 1548.44 1268.44 1549.44 Q1267.54 1550.44 1266.25 1550.7 Q1267.57 1551.54 1269.54 1551.54 Q1271.66 1551.54 1273.34 1549.67 Q1275.01 1547.8 1275.82 1544.68 Q1277.82 1537.17 1278.59 1533.82 Q1279.36 1530.44 1279.36 1528.99 Q1279.36 1527.64 1279.01 1526.7 Q1278.65 1525.77 1278.04 1525.35 Q1277.46 1524.9 1276.91 1524.74 Q1276.4 1524.58 1275.82 1524.58 Q1274.85 1524.58 1273.76 1524.97 Q1272.69 1525.35 1271.41 1526.25 Q1270.15 1527.12 1268.96 1528.93 Q1267.77 1530.73 1266.96 1533.21 Q1266.8 1533.95 1266.09 1533.95 Q1265.32 1533.92 1265.32 1533.27 Q1265.32 1532.73 1265.74 1531.6 Q1266.19 1530.44 1267.09 1528.99 Q1268.03 1527.54 1269.22 1526.25 Q1270.44 1524.93 1272.21 1524.03 Q1274.02 1523.13 1275.95 1523.13 Q1276.82 1523.13 1277.65 1523.32 Q1278.52 1523.48 1279.55 1523.97 Q1280.62 1524.45 1281.55 1525.51 Q1282.49 1526.58 1283.07 1528.12 Q1283.45 1527.38 1283.97 1526.67 Q1284.51 1525.96 1285.35 1525.09 Q1286.22 1524.19 1287.41 1523.68 Q1288.64 1523.13 1289.99 1523.13 Q1291.31 1523.13 1292.6 1523.48 Q1293.89 1523.81 1294.98 1524.87 Q1296.11 1525.9 1296.11 1527.48 Z" fill="#000000" fill-rule="evenodd" fill-opacity="1" /><path clip-path="url(#clip770)" d="M 0 0 M60.8835 752.42 Q61.3344 752.42 62.3972 752.71 L87.5821 759.022 Q93.186 760.407 97.1151 764.916 Q101.044 769.393 101.044 774.481 Q101.044 777.541 99.4017 779.505 Q97.7914 781.47 95.3115 781.47 Q93.1216 781.47 92.0588 780.31 Q91.0282 779.151 91.0282 777.766 Q91.0282 777.315 91.157 776.832 Q91.2858 776.349 91.8333 775.834 Q92.3808 775.318 93.3148 775.318 Q94.8285 775.318 96.0201 776.639 Q96.5676 777.283 96.6964 777.895 Q96.8252 778.475 96.8252 779.473 Q97.727 779.086 98.3389 778.378 Q98.9508 777.669 99.1763 776.864 Q99.4339 776.059 99.4983 775.544 Q99.5949 774.996 99.5949 774.481 Q99.5949 770.359 95.4404 767.203 Q94.1843 766.269 92.9283 765.592 Q91.7045 764.884 90.1908 764.368 Q88.7093 763.853 87.9042 763.628 Q87.0991 763.37 85.2633 762.919 Q88.2585 765.914 88.2585 769.586 Q88.2585 771.132 87.8398 772.516 Q87.4211 773.869 86.5516 775.061 Q85.6498 776.252 84.0717 776.961 Q82.4936 777.637 80.4002 777.637 Q78.178 777.637 75.1507 776.768 Q72.1233 775.898 66.5517 773.805 Q63.4277 772.678 61.9141 772.678 Q61.1733 772.678 60.7225 772.839 Q60.2394 773 60.0783 773.322 Q59.8851 773.644 59.8529 773.837 Q59.8207 773.998 59.8207 774.32 Q59.8207 776.22 61.753 777.991 Q63.6854 779.763 68.001 780.987 Q68.8061 781.244 68.9994 781.405 Q69.1926 781.566 69.1926 782.049 Q69.1604 782.855 68.5163 782.855 Q68.2586 782.855 67.2602 782.565 Q66.2297 782.275 64.716 781.599 Q63.1701 780.89 61.7852 779.924 Q60.3682 778.958 59.3698 777.444 Q58.3714 775.898 58.3714 774.127 Q58.3714 771.711 59.9495 770.23 Q61.4954 768.716 63.782 768.716 Q64.716 768.716 65.5533 768.974 Q66.3585 769.199 68.5163 770.037 Q77.2119 773.418 81.463 773.418 Q82.4936 773.418 83.3632 773.257 Q84.2005 773.064 85.0379 772.645 Q85.843 772.227 86.3261 771.389 Q86.777 770.52 86.777 769.328 Q86.777 767.814 86.0685 766.397 Q85.3277 764.948 84.3294 764.046 Q83.331 763.112 82.4936 762.565 Q81.6241 761.985 81.1732 761.856 L69.3214 758.893 L64.0397 757.573 Q61.1733 756.961 60.4648 756.671 Q59.7885 756.285 59.4342 755.608 Q59.08 754.932 59.08 754.352 Q59.08 753.547 59.563 753 Q60.0461 752.42 60.8835 752.42 Z" fill="#000000" fill-rule="evenodd" fill-opacity="1" /><polyline clip-path="url(#clip772)" style="stroke:#009af9; stroke-width:4; stroke-opacity:1; fill:none" points="
  271.753,1408.66 496.241,783.227 720.729,204.022 945.217,1109.48 1169.7,619.286 1394.19,1363.12 1618.68,1180.89 1843.17,835.965 2067.66,125.03 2292.14,402.888 
  
  "/>
<path clip-path="url(#clip770)" d="
M1989.74 291.002 L2280.76 291.002 L2280.76 170.042 L1989.74 170.042  Z
  " fill="#ffffff" fill-rule="evenodd" fill-opacity="1"/>
<polyline clip-path="url(#clip770)" style="stroke:#000000; stroke-width:4; stroke-opacity:1; fill:none" points="
  1989.74,291.002 2280.76,291.002 2280.76,170.042 1989.74,170.042 1989.74,291.002 
  "/>
<polyline clip-path="url(#clip770)" style="stroke:#009af9; stroke-width:4; stroke-opacity:1; fill:none" points="
  2013.74,230.522 2157.74,230.522 
  "/>
<path clip-path="url(#clip770)" d="M 0 0 M2195.58 250.209 Q2193.77 254.839 2192.06 256.251 Q2190.35 257.663 2187.48 257.663 L2184.08 257.663 L2184.08 254.098 L2186.58 254.098 Q2188.33 254.098 2189.31 253.264 Q2190.28 252.431 2191.46 249.329 L2192.22 247.385 L2181.74 221.876 L2186.25 221.876 L2194.35 242.153 L2202.46 221.876 L2206.97 221.876 L2195.58 250.209 Z" fill="#000000" fill-rule="evenodd" fill-opacity="1" /><path clip-path="url(#clip770)" d="M 0 0 M2212.85 243.866 L2220.49 243.866 L2220.49 217.501 L2212.18 219.167 L2212.18 214.908 L2220.44 213.242 L2225.12 213.242 L2225.12 243.866 L2232.76 243.866 L2232.76 247.802 L2212.85 247.802 L2212.85 243.866 Z" fill="#000000" fill-rule="evenodd" fill-opacity="1" /></svg>
