<?xml version="1.0" encoding="utf-8"?>
<svg xmlns="http://www.w3.org/2000/svg" xmlns:xlink="http://www.w3.org/1999/xlink" width="600" height="400" viewBox="0 0 2400 1600">
<defs>
  <clipPath id="clip730">
    <rect x="0" y="0" width="2400" height="1600"/>
  </clipPath>
</defs>
<path clip-path="url(#clip730)" d="
M0 1600 L2400 1600 L2400 0 L0 0  Z
  " fill="#ffffff" fill-rule="evenodd" fill-opacity="1"/>
<defs>
  <clipPath id="clip731">
    <rect x="480" y="0" width="1681" height="1600"/>
  </clipPath>
</defs>
<path clip-path="url(#clip730)" d="
M211.141 1447.17 L2352.76 1447.17 L2352.76 47.2441 L211.141 47.2441  Z
  " fill="#ffffff" fill-rule="evenodd" fill-opacity="1"/>
<defs>
  <clipPath id="clip732">
    <rect x="211" y="47" width="2143" height="1401"/>
  </clipPath>
</defs>
<polyline clip-path="url(#clip732)" style="stroke:#000000; stroke-width:2; stroke-opacity:0.1; fill:none" points="
  496.241,1447.17 496.241,47.2441 
  "/>
<polyline clip-path="url(#clip732)" style="stroke:#000000; stroke-width:2; stroke-opacity:0.1; fill:none" points="
  945.217,1447.17 945.217,47.2441 
  "/>
<polyline clip-path="url(#clip732)" style="stroke:#000000; stroke-width:2; stroke-opacity:0.1; fill:none" points="
  1394.19,1447.17 1394.19,47.2441 
  "/>
<polyline clip-path="url(#clip732)" style="stroke:#000000; stroke-width:2; stroke-opacity:0.1; fill:none" points="
  1843.17,1447.17 1843.17,47.2441 
  "/>
<polyline clip-path="url(#clip732)" style="stroke:#000000; stroke-width:2; stroke-opacity:0.1; fill:none" points="
  2292.14,1447.17 2292.14,47.2441 
  "/>
<polyline clip-path="url(#clip732)" style="stroke:#000000; stroke-width:2; stroke-opacity:0.1; fill:none" points="
  211.141,1259.42 2352.76,1259.42 
  "/>
<polyline clip-path="url(#clip732)" style="stroke:#000000; stroke-width:2; stroke-opacity:0.1; fill:none" points="
  211.141,938.446 2352.76,938.446 
  "/>
<polyline clip-path="url(#clip732)" style="stroke:#000000; stroke-width:2; stroke-opacity:0.1; fill:none" points="
  211.141,617.476 2352.76,617.476 
  "/>
<polyline clip-path="url(#clip732)" style="stroke:#000000; stroke-width:2; stroke-opacity:0.1; fill:none" points="
  211.141,296.506 2352.76,296.506 
  "/>
<polyline clip-path="url(#clip730)" style="stroke:#000000; stroke-width:4; stroke-opacity:1; fill:none" points="
  211.141,1447.17 2352.76,1447.17 
  "/>
<polyline clip-path="url(#clip730)" style="stroke:#000000; stroke-width:4; stroke-opacity:1; fill:none" points="
  211.141,1447.17 211.141,47.2441 
  "/>
<polyline clip-path="url(#clip730)" style="stroke:#000000; stroke-width:4; stroke-opacity:1; fill:none" points="
  496.241,1447.17 496.241,1430.37 
  "/>
<polyline clip-path="url(#clip730)" style="stroke:#000000; stroke-width:4; stroke-opacity:1; fill:none" points="
  945.217,1447.17 945.217,1430.37 
  "/>
<polyline clip-path="url(#clip730)" style="stroke:#000000; stroke-width:4; stroke-opacity:1; fill:none" points="
  1394.19,1447.17 1394.19,1430.37 
  "/>
<polyline clip-path="url(#clip730)" style="stroke:#000000; stroke-width:4; stroke-opacity:1; fill:none" points="
  1843.17,1447.17 1843.17,1430.37 
  "/>
<polyline clip-path="url(#clip730)" style="stroke:#000000; stroke-width:4; stroke-opacity:1; fill:none" points="
  2292.14,1447.17 2292.14,1430.37 
  "/>
<polyline clip-path="url(#clip730)" style="stroke:#000000; stroke-width:4; stroke-opacity:1; fill:none" points="
  211.141,1259.42 236.841,1259.42 
  "/>
<polyline clip-path="url(#clip730)" style="stroke:#000000; stroke-width:4; stroke-opacity:1; fill:none" points="
  211.141,938.446 236.841,938.446 
  "/>
<polyline clip-path="url(#clip730)" style="stroke:#000000; stroke-width:4; stroke-opacity:1; fill:none" points="
  211.141,617.476 236.841,617.476 
  "/>
<polyline clip-path="url(#clip730)" style="stroke:#000000; stroke-width:4; stroke-opacity:1; fill:none" points="
  211.141,296.506 236.841,296.506 
  "/>
<path clip-path="url(#clip730)" d="M 0 0 M490.894 1496.71 L507.213 1496.71 L507.213 1500.64 L485.269 1500.64 L485.269 1496.71 Q487.931 1493.95 492.514 1489.32 Q497.121 1484.67 498.301 1483.33 Q500.546 1480.8 501.426 1479.07 Q502.329 1477.31 502.329 1475.62 Q502.329 1472.86 500.384 1471.13 Q498.463 1469.39 495.361 1469.39 Q493.162 1469.39 490.709 1470.16 Q488.278 1470.92 485.5 1472.47 L485.5 1467.75 Q488.324 1466.61 490.778 1466.04 Q493.232 1465.46 495.269 1465.46 Q500.639 1465.46 503.833 1468.14 Q507.028 1470.83 507.028 1475.32 Q507.028 1477.45 506.218 1479.37 Q505.431 1481.27 503.324 1483.86 Q502.745 1484.53 499.644 1487.75 Q496.542 1490.94 490.894 1496.71 Z" fill="#000000" fill-rule="evenodd" fill-opacity="1" /><path clip-path="url(#clip730)" d="M 0 0 M948.226 1470.16 L936.42 1488.61 L948.226 1488.61 L948.226 1470.16 M946.999 1466.08 L952.879 1466.08 L952.879 1488.61 L957.809 1488.61 L957.809 1492.49 L952.879 1492.49 L952.879 1500.64 L948.226 1500.64 L948.226 1492.49 L932.624 1492.49 L932.624 1487.98 L946.999 1466.08 Z" fill="#000000" fill-rule="evenodd" fill-opacity="1" /><path clip-path="url(#clip730)" d="M 0 0 M1394.6 1481.5 Q1391.45 1481.5 1389.6 1483.65 Q1387.77 1485.8 1387.77 1489.55 Q1387.77 1493.28 1389.6 1495.46 Q1391.45 1497.61 1394.6 1497.61 Q1397.75 1497.61 1399.57 1495.46 Q1401.43 1493.28 1401.43 1489.55 Q1401.43 1485.8 1399.57 1483.65 Q1397.75 1481.5 1394.6 1481.5 M1403.88 1466.85 L1403.88 1471.11 Q1402.12 1470.27 1400.32 1469.83 Q1398.53 1469.39 1396.77 1469.39 Q1392.14 1469.39 1389.69 1472.52 Q1387.26 1475.64 1386.91 1481.96 Q1388.28 1479.95 1390.34 1478.88 Q1392.4 1477.8 1394.88 1477.8 Q1400.08 1477.8 1403.09 1480.97 Q1406.13 1484.11 1406.13 1489.55 Q1406.13 1494.88 1402.98 1498.1 Q1399.83 1501.31 1394.6 1501.31 Q1388.6 1501.31 1385.43 1496.73 Q1382.26 1492.12 1382.26 1483.4 Q1382.26 1475.2 1386.15 1470.34 Q1390.04 1465.46 1396.59 1465.46 Q1398.35 1465.46 1400.13 1465.8 Q1401.94 1466.15 1403.88 1466.85 Z" fill="#000000" fill-rule="evenodd" fill-opacity="1" /><path clip-path="url(#clip730)" d="M 0 0 M1843.17 1484.23 Q1839.84 1484.23 1837.91 1486.01 Q1836.02 1487.8 1836.02 1490.92 Q1836.02 1494.05 1837.91 1495.83 Q1839.84 1497.61 1843.17 1497.61 Q1846.5 1497.61 1848.42 1495.83 Q1850.34 1494.02 1850.34 1490.92 Q1850.34 1487.8 1848.42 1486.01 Q1846.52 1484.23 1843.17 1484.23 M1838.49 1482.24 Q1835.48 1481.5 1833.79 1479.44 Q1832.13 1477.38 1832.13 1474.42 Q1832.13 1470.27 1835.07 1467.86 Q1838.03 1465.46 1843.17 1465.46 Q1848.33 1465.46 1851.27 1467.86 Q1854.21 1470.27 1854.21 1474.42 Q1854.21 1477.38 1852.52 1479.44 Q1850.85 1481.5 1847.87 1482.24 Q1851.25 1483.03 1853.12 1485.32 Q1855.02 1487.61 1855.02 1490.92 Q1855.02 1495.94 1851.94 1498.63 Q1848.89 1501.31 1843.17 1501.31 Q1837.45 1501.31 1834.37 1498.63 Q1831.32 1495.94 1831.32 1490.92 Q1831.32 1487.61 1833.21 1485.32 Q1835.11 1483.03 1838.49 1482.24 M1836.78 1474.86 Q1836.78 1477.54 1838.45 1479.05 Q1840.14 1480.55 1843.17 1480.55 Q1846.18 1480.55 1847.87 1479.05 Q1849.58 1477.54 1849.58 1474.86 Q1849.58 1472.17 1847.87 1470.67 Q1846.18 1469.16 1843.17 1469.16 Q1840.14 1469.16 1838.45 1470.67 Q1836.78 1472.17 1836.78 1474.86 Z" fill="#000000" fill-rule="evenodd" fill-opacity="1" /><path clip-path="url(#clip730)" d="M 0 0 M2269.02 1496.71 L2276.66 1496.71 L2276.66 1470.34 L2268.35 1472.01 L2268.35 1467.75 L2276.61 1466.08 L2281.29 1466.08 L2281.29 1496.71 L2288.93 1496.71 L2288.93 1500.64 L2269.02 1500.64 L2269.02 1496.71 Z" fill="#000000" fill-rule="evenodd" fill-opacity="1" /><path clip-path="url(#clip730)" d="M 0 0 M2304 1469.16 Q2300.38 1469.16 2298.56 1472.73 Q2296.75 1476.27 2296.75 1483.4 Q2296.75 1490.5 2298.56 1494.07 Q2300.38 1497.61 2304 1497.61 Q2307.63 1497.61 2309.44 1494.07 Q2311.26 1490.5 2311.26 1483.4 Q2311.26 1476.27 2309.44 1472.73 Q2307.63 1469.16 2304 1469.16 M2304 1465.46 Q2309.81 1465.46 2312.86 1470.06 Q2315.94 1474.65 2315.94 1483.4 Q2315.94 1492.12 2312.86 1496.73 Q2309.81 1501.31 2304 1501.31 Q2298.19 1501.31 2295.11 1496.73 Q2292.05 1492.12 2292.05 1483.4 Q2292.05 1474.65 2295.11 1470.06 Q2298.19 1465.46 2304 1465.46 Z" fill="#000000" fill-rule="evenodd" fill-opacity="1" /><path clip-path="url(#clip730)" d="M 0 0 M139.827 1245.21 Q136.216 1245.21 134.387 1248.78 Q132.581 1252.32 132.581 1259.45 Q132.581 1266.56 134.387 1270.12 Q136.216 1273.66 139.827 1273.66 Q143.461 1273.66 145.266 1270.12 Q147.095 1266.56 147.095 1259.45 Q147.095 1252.32 145.266 1248.78 Q143.461 1245.21 139.827 1245.21 M139.827 1241.51 Q145.637 1241.51 148.692 1246.12 Q151.771 1250.7 151.771 1259.45 Q151.771 1268.18 148.692 1272.78 Q145.637 1277.37 139.827 1277.37 Q134.017 1277.37 130.938 1272.78 Q127.882 1268.18 127.882 1259.45 Q127.882 1250.7 130.938 1246.12 Q134.017 1241.51 139.827 1241.51 Z" fill="#000000" fill-rule="evenodd" fill-opacity="1" /><path clip-path="url(#clip730)" d="M 0 0 M156.84 1270.82 L161.725 1270.82 L161.725 1276.7 L156.84 1276.7 L156.84 1270.82 Z" fill="#000000" fill-rule="evenodd" fill-opacity="1" /><path clip-path="url(#clip730)" d="M 0 0 M170.822 1272.76 L187.141 1272.76 L187.141 1276.7 L165.197 1276.7 L165.197 1272.76 Q167.859 1270.01 172.442 1265.38 Q177.049 1260.72 178.229 1259.38 Q180.475 1256.86 181.354 1255.12 Q182.257 1253.36 182.257 1251.67 Q182.257 1248.92 180.313 1247.18 Q178.391 1245.45 175.289 1245.45 Q173.09 1245.45 170.637 1246.21 Q168.206 1246.97 165.428 1248.52 L165.428 1243.8 Q168.252 1242.67 170.706 1242.09 Q173.16 1241.51 175.197 1241.51 Q180.567 1241.51 183.762 1244.2 Q186.956 1246.88 186.956 1251.37 Q186.956 1253.5 186.146 1255.42 Q185.359 1257.32 183.252 1259.91 Q182.674 1260.58 179.572 1263.8 Q176.47 1267 170.822 1272.76 Z" fill="#000000" fill-rule="evenodd" fill-opacity="1" /><path clip-path="url(#clip730)" d="M 0 0 M137.743 924.244 Q134.132 924.244 132.304 927.809 Q130.498 931.351 130.498 938.48 Q130.498 945.587 132.304 949.152 Q134.132 952.693 137.743 952.693 Q141.378 952.693 143.183 949.152 Q145.012 945.587 145.012 938.48 Q145.012 931.351 143.183 927.809 Q141.378 924.244 137.743 924.244 M137.743 920.541 Q143.554 920.541 146.609 925.147 Q149.688 929.731 149.688 938.48 Q149.688 947.207 146.609 951.814 Q143.554 956.397 137.743 956.397 Q131.933 956.397 128.855 951.814 Q125.799 947.207 125.799 938.48 Q125.799 929.731 128.855 925.147 Q131.933 920.541 137.743 920.541 Z" fill="#000000" fill-rule="evenodd" fill-opacity="1" /><path clip-path="url(#clip730)" d="M 0 0 M154.757 949.846 L159.641 949.846 L159.641 955.726 L154.757 955.726 L154.757 949.846 Z" fill="#000000" fill-rule="evenodd" fill-opacity="1" /><path clip-path="url(#clip730)" d="M 0 0 M177.558 925.24 L165.752 943.689 L177.558 943.689 L177.558 925.24 M176.331 921.166 L182.211 921.166 L182.211 943.689 L187.141 943.689 L187.141 947.578 L182.211 947.578 L182.211 955.726 L177.558 955.726 L177.558 947.578 L161.956 947.578 L161.956 943.064 L176.331 921.166 Z" fill="#000000" fill-rule="evenodd" fill-opacity="1" /><path clip-path="url(#clip730)" d="M 0 0 M138.067 603.275 Q134.456 603.275 132.628 606.84 Q130.822 610.381 130.822 617.511 Q130.822 624.617 132.628 628.182 Q134.456 631.724 138.067 631.724 Q141.702 631.724 143.507 628.182 Q145.336 624.617 145.336 617.511 Q145.336 610.381 143.507 606.84 Q141.702 603.275 138.067 603.275 M138.067 599.571 Q143.878 599.571 146.933 604.177 Q150.012 608.761 150.012 617.511 Q150.012 626.238 146.933 630.844 Q143.878 635.427 138.067 635.427 Q132.257 635.427 129.179 630.844 Q126.123 626.238 126.123 617.511 Q126.123 608.761 129.179 604.177 Q132.257 599.571 138.067 599.571 Z" fill="#000000" fill-rule="evenodd" fill-opacity="1" /><path clip-path="url(#clip730)" d="M 0 0 M155.081 628.876 L159.965 628.876 L159.965 634.756 L155.081 634.756 L155.081 628.876 Z" fill="#000000" fill-rule="evenodd" fill-opacity="1" /><path clip-path="url(#clip730)" d="M 0 0 M175.614 615.613 Q172.465 615.613 170.614 617.765 Q168.785 619.918 168.785 623.668 Q168.785 627.395 170.614 629.571 Q172.465 631.724 175.614 631.724 Q178.762 631.724 180.59 629.571 Q182.442 627.395 182.442 623.668 Q182.442 619.918 180.59 617.765 Q178.762 615.613 175.614 615.613 M184.896 600.96 L184.896 605.219 Q183.137 604.386 181.331 603.946 Q179.549 603.506 177.789 603.506 Q173.16 603.506 170.706 606.631 Q168.276 609.756 167.928 616.076 Q169.294 614.062 171.354 612.997 Q173.414 611.909 175.891 611.909 Q181.1 611.909 184.109 615.08 Q187.141 618.228 187.141 623.668 Q187.141 628.992 183.993 632.21 Q180.845 635.427 175.614 635.427 Q169.618 635.427 166.447 630.844 Q163.276 626.238 163.276 617.511 Q163.276 609.316 167.165 604.455 Q171.053 599.571 177.604 599.571 Q179.364 599.571 181.146 599.918 Q182.951 600.265 184.896 600.96 Z" fill="#000000" fill-rule="evenodd" fill-opacity="1" /><path clip-path="url(#clip730)" d="M 0 0 M138.322 282.305 Q134.711 282.305 132.882 285.87 Q131.077 289.411 131.077 296.541 Q131.077 303.648 132.882 307.212 Q134.711 310.754 138.322 310.754 Q141.956 310.754 143.762 307.212 Q145.591 303.648 145.591 296.541 Q145.591 289.411 143.762 285.87 Q141.956 282.305 138.322 282.305 M138.322 278.601 Q144.132 278.601 147.188 283.208 Q150.266 287.791 150.266 296.541 Q150.266 305.268 147.188 309.874 Q144.132 314.458 138.322 314.458 Q132.512 314.458 129.433 309.874 Q126.378 305.268 126.378 296.541 Q126.378 287.791 129.433 283.208 Q132.512 278.601 138.322 278.601 Z" fill="#000000" fill-rule="evenodd" fill-opacity="1" /><path clip-path="url(#clip730)" d="M 0 0 M155.336 307.907 L160.22 307.907 L160.22 313.786 L155.336 313.786 L155.336 307.907 Z" fill="#000000" fill-rule="evenodd" fill-opacity="1" /><path clip-path="url(#clip730)" d="M 0 0 M175.289 297.374 Q171.956 297.374 170.035 299.157 Q168.137 300.939 168.137 304.064 Q168.137 307.189 170.035 308.972 Q171.956 310.754 175.289 310.754 Q178.623 310.754 180.544 308.972 Q182.465 307.166 182.465 304.064 Q182.465 300.939 180.544 299.157 Q178.646 297.374 175.289 297.374 M170.614 295.384 Q167.604 294.643 165.915 292.583 Q164.248 290.523 164.248 287.56 Q164.248 283.416 167.188 281.009 Q170.151 278.601 175.289 278.601 Q180.451 278.601 183.391 281.009 Q186.331 283.416 186.331 287.56 Q186.331 290.523 184.641 292.583 Q182.975 294.643 179.989 295.384 Q183.368 296.171 185.243 298.462 Q187.141 300.754 187.141 304.064 Q187.141 309.087 184.063 311.772 Q181.007 314.458 175.289 314.458 Q169.572 314.458 166.493 311.772 Q163.438 309.087 163.438 304.064 Q163.438 300.754 165.336 298.462 Q167.234 296.171 170.614 295.384 M168.901 287.999 Q168.901 290.685 170.567 292.189 Q172.257 293.694 175.289 293.694 Q178.299 293.694 179.989 292.189 Q181.701 290.685 181.701 287.999 Q181.701 285.314 179.989 283.81 Q178.299 282.305 175.289 282.305 Q172.257 282.305 170.567 283.81 Q168.901 285.314 168.901 287.999 Z" fill="#000000" fill-rule="evenodd" fill-opacity="1" /><path clip-path="url(#clip730)" d="M 0 0 M1296.11 1527.48 Q1296.11 1529.28 1294.98 1530.31 Q1293.85 1531.31 1292.57 1531.31 Q1291.34 1531.31 1290.7 1530.6 Q1290.05 1529.89 1290.05 1528.99 Q1290.05 1527.77 1290.96 1526.7 Q1291.86 1525.64 1293.21 1525.42 Q1291.89 1524.58 1289.93 1524.58 Q1288.64 1524.58 1287.51 1525.26 Q1286.41 1525.93 1285.74 1526.8 Q1285.09 1527.67 1284.51 1528.93 Q1283.97 1530.15 1283.74 1530.89 Q1283.55 1531.6 1283.39 1532.37 L1281.13 1541.39 Q1280.04 1545.67 1280.04 1547.19 Q1280.04 1549.06 1280.94 1550.31 Q1281.84 1551.54 1283.64 1551.54 Q1284.35 1551.54 1285.16 1551.34 Q1285.96 1551.12 1286.99 1550.54 Q1288.06 1549.93 1288.99 1549.02 Q1289.96 1548.09 1290.89 1546.51 Q1291.83 1544.93 1292.44 1542.9 Q1292.63 1542.2 1293.27 1542.2 Q1294.08 1542.2 1294.08 1542.84 Q1294.08 1543.39 1293.63 1544.55 Q1293.21 1545.67 1292.28 1547.16 Q1291.37 1548.6 1290.18 1549.93 Q1288.99 1551.21 1287.22 1552.12 Q1285.45 1553.02 1283.52 1553.02 Q1280.75 1553.02 1278.91 1551.54 Q1277.07 1550.05 1276.4 1547.99 Q1276.24 1548.28 1276.01 1548.67 Q1275.79 1549.06 1275.11 1549.93 Q1274.47 1550.76 1273.73 1551.41 Q1272.98 1552.02 1271.83 1552.5 Q1270.7 1553.02 1269.47 1553.02 Q1267.93 1553.02 1266.54 1552.57 Q1265.19 1552.12 1264.22 1551.08 Q1263.26 1550.05 1263.26 1548.64 Q1263.26 1547.06 1264.32 1545.96 Q1265.42 1544.84 1266.9 1544.84 Q1267.83 1544.84 1268.57 1545.38 Q1269.35 1545.93 1269.35 1547.12 Q1269.35 1548.44 1268.44 1549.44 Q1267.54 1550.44 1266.25 1550.7 Q1267.57 1551.54 1269.54 1551.54 Q1271.66 1551.54 1273.34 1549.67 Q1275.01 1547.8 1275.82 1544.68 Q1277.82 1537.17 1278.59 1533.82 Q1279.36 1530.44 1279.36 1528.99 Q1279.36 1527.64 1279.01 1526.7 Q1278.65 1525.77 1278.04 1525.35 Q1277.46 1524.9 1276.91 1524.74 Q1276.4 1524.58 1275.82 1524.58 Q1274.85 1524.58 1273.76 1524.97 Q1272.69 1525.35 1271.41 1526.25 Q1270.15 1527.12 1268.96 1528.93 Q1267.77 1530.73 1266.96 1533.21 Q1266.8 1533.95 1266.09 1533.95 Q1265.32 1533.92 1265.32 1533.27 Q1265.32 1532.73 1265.74 1531.6 Q1266.19 1530.44 1267.09 1528.99 Q1268.03 1527.54 1269.22 1526.25 Q1270.44 1524.93 1272.21 1524.03 Q1274.02 1523.13 1275.95 1523.13 Q1276.82 1523.13 1277.65 1523.32 Q1278.52 1523.48 1279.55 1523.97 Q1280.62 1524.45 1281.55 1525.51 Q1282.49 1526.58 1283.07 1528.12 Q1283.45 1527.38 1283.97 1526.67 Q1284.51 1525.96 1285.35 1525.09 Q1286.22 1524.19 1287.41 1523.68 Q1288.64 1523.13 1289.99 1523.13 Q1291.31 1523.13 1292.6 1523.48 Q1293.89 1523.81 1294.98 1524.87 Q1296.11 1525.9 1296.11 1527.48 Z" fill="#000000" fill-rule="evenodd" fill-opacity="1" /><path clip-path="url(#clip730)" d="M 0 0 M60.8835 732.781 Q61.3344 732.781 62.3972 733.071 L87.5821 739.384 Q93.186 740.768 97.1151 745.277 Q101.044 749.754 101.044 754.842 Q101.044 757.902 99.4017 759.866 Q97.7914 761.831 95.3115 761.831 Q93.1216 761.831 92.0588 760.672 Q91.0282 759.512 91.0282 758.127 Q91.0282 757.676 91.157 757.193 Q91.2858 756.71 91.8333 756.195 Q92.3808 755.68 93.3148 755.68 Q94.8285 755.68 96.0201 757 Q96.5676 757.644 96.6964 758.256 Q96.8252 758.836 96.8252 759.834 Q97.727 759.448 98.3389 758.739 Q98.9508 758.031 99.1763 757.226 Q99.4339 756.42 99.4983 755.905 Q99.5949 755.358 99.5949 754.842 Q99.5949 750.72 95.4404 747.564 Q94.1843 746.63 92.9283 745.953 Q91.7045 745.245 90.1908 744.73 Q88.7093 744.214 87.9042 743.989 Q87.0991 743.731 85.2633 743.28 Q88.2585 746.276 88.2585 749.947 Q88.2585 751.493 87.8398 752.878 Q87.4211 754.23 86.5516 755.422 Q85.6498 756.614 84.0717 757.322 Q82.4936 757.998 80.4002 757.998 Q78.178 757.998 75.1507 757.129 Q72.1233 756.259 66.5517 754.166 Q63.4277 753.039 61.9141 753.039 Q61.1733 753.039 60.7225 753.2 Q60.2394 753.361 60.0783 753.683 Q59.8851 754.005 59.8529 754.198 Q59.8207 754.359 59.8207 754.681 Q59.8207 756.581 61.753 758.353 Q63.6854 760.124 68.001 761.348 Q68.8061 761.606 68.9994 761.767 Q69.1926 761.928 69.1926 762.411 Q69.1604 763.216 68.5163 763.216 Q68.2586 763.216 67.2602 762.926 Q66.2297 762.636 64.716 761.96 Q63.1701 761.251 61.7852 760.285 Q60.3682 759.319 59.3698 757.805 Q58.3714 756.259 58.3714 754.488 Q58.3714 752.073 59.9495 750.591 Q61.4954 749.077 63.782 749.077 Q64.716 749.077 65.5533 749.335 Q66.3585 749.561 68.5163 750.398 Q77.2119 753.78 81.463 753.78 Q82.4936 753.78 83.3632 753.618 Q84.2005 753.425 85.0379 753.007 Q85.843 752.588 86.3261 751.751 Q86.777 750.881 86.777 749.689 Q86.777 748.176 86.0685 746.759 Q85.3277 745.309 84.3294 744.408 Q83.331 743.474 82.4936 742.926 Q81.6241 742.346 81.1732 742.218 L69.3214 739.255 L64.0397 737.934 Q61.1733 737.322 60.4648 737.032 Q59.7885 736.646 59.4342 735.97 Q59.08 735.293 59.08 734.714 Q59.08 733.909 59.563 733.361 Q60.0461 732.781 60.8835 732.781 Z" fill="#000000" fill-rule="evenodd" fill-opacity="1" /><polyline clip-path="url(#clip732)" style="stroke:#009af9; stroke-width:4; stroke-opacity:1; fill:none" points="
  271.753,663.627 496.241,961.825 720.729,755.637 945.217,923.07 1169.7,721.103 1394.19,196.785 1618.68,420.147 1843.17,1144.24 2067.66,1407.55 2292.14,86.8647 
  
  "/>
<path clip-path="url(#clip730)" d="
M1989.74 251.724 L2280.76 251.724 L2280.76 130.764 L1989.74 130.764  Z
  " fill="#ffffff" fill-rule="evenodd" fill-opacity="1"/>
<polyline clip-path="url(#clip730)" style="stroke:#000000; stroke-width:4; stroke-opacity:1; fill:none" points="
  1989.74,251.724 2280.76,251.724 2280.76,130.764 1989.74,130.764 1989.74,251.724 
  "/>
<polyline clip-path="url(#clip730)" style="stroke:#009af9; stroke-width:4; stroke-opacity:1; fill:none" points="
  2013.74,191.244 2157.74,191.244 
  "/>
<path clip-path="url(#clip730)" d="M 0 0 M2195.58 210.931 Q2193.77 215.561 2192.06 216.973 Q2190.35 218.385 2187.48 218.385 L2184.08 218.385 L2184.08 214.82 L2186.58 214.82 Q2188.33 214.82 2189.31 213.987 Q2190.28 213.154 2191.46 210.052 L2192.22 208.107 L2181.74 182.598 L2186.25 182.598 L2194.35 202.876 L2202.46 182.598 L2206.97 182.598 L2195.58 210.931 Z" fill="#000000" fill-rule="evenodd" fill-opacity="1" /><path clip-path="url(#clip730)" d="M 0 0 M2212.85 204.589 L2220.49 204.589 L2220.49 178.223 L2212.18 179.89 L2212.18 175.631 L2220.44 173.964 L2225.12 173.964 L2225.12 204.589 L2232.76 204.589 L2232.76 208.524 L2212.85 208.524 L2212.85 204.589 Z" fill="#000000" fill-rule="evenodd" fill-opacity="1" /></svg>
