<?xml version="1.0" encoding="utf-8"?>
<svg xmlns="http://www.w3.org/2000/svg" xmlns:xlink="http://www.w3.org/1999/xlink" width="600" height="400" viewBox="0 0 2400 1600">
<defs>
  <clipPath id="clip660">
    <rect x="0" y="0" width="2400" height="1600"/>
  </clipPath>
</defs>
<path clip-path="url(#clip660)" d="
M0 1600 L2400 1600 L2400 0 L0 0  Z
  " fill="#ffffff" fill-rule="evenodd" fill-opacity="1"/>
<defs>
  <clipPath id="clip661">
    <rect x="480" y="0" width="1681" height="1600"/>
  </clipPath>
</defs>
<path clip-path="url(#clip660)" d="
M211.141 1447.17 L2352.76 1447.17 L2352.76 47.2441 L211.141 47.2441  Z
  " fill="#ffffff" fill-rule="evenodd" fill-opacity="1"/>
<defs>
  <clipPath id="clip662">
    <rect x="211" y="47" width="2143" height="1401"/>
  </clipPath>
</defs>
<polyline clip-path="url(#clip662)" style="stroke:#000000; stroke-width:2; stroke-opacity:0.1; fill:none" points="
  496.241,1447.17 496.241,47.2441 
  "/>
<polyline clip-path="url(#clip662)" style="stroke:#000000; stroke-width:2; stroke-opacity:0.1; fill:none" points="
  945.217,1447.17 945.217,47.2441 
  "/>
<polyline clip-path="url(#clip662)" style="stroke:#000000; stroke-width:2; stroke-opacity:0.1; fill:none" points="
  1394.19,1447.17 1394.19,47.2441 
  "/>
<polyline clip-path="url(#clip662)" style="stroke:#000000; stroke-width:2; stroke-opacity:0.1; fill:none" points="
  1843.17,1447.17 1843.17,47.2441 
  "/>
<polyline clip-path="url(#clip662)" style="stroke:#000000; stroke-width:2; stroke-opacity:0.1; fill:none" points="
  2292.14,1447.17 2292.14,47.2441 
  "/>
<polyline clip-path="url(#clip662)" style="stroke:#000000; stroke-width:2; stroke-opacity:0.1; fill:none" points="
  211.141,1392.14 2352.76,1392.14 
  "/>
<polyline clip-path="url(#clip662)" style="stroke:#000000; stroke-width:2; stroke-opacity:0.1; fill:none" points="
  211.141,1174.69 2352.76,1174.69 
  "/>
<polyline clip-path="url(#clip662)" style="stroke:#000000; stroke-width:2; stroke-opacity:0.1; fill:none" points="
  211.141,957.234 2352.76,957.234 
  "/>
<polyline clip-path="url(#clip662)" style="stroke:#000000; stroke-width:2; stroke-opacity:0.1; fill:none" points="
  211.141,739.78 2352.76,739.78 
  "/>
<polyline clip-path="url(#clip662)" style="stroke:#000000; stroke-width:2; stroke-opacity:0.1; fill:none" points="
  211.141,522.327 2352.76,522.327 
  "/>
<polyline clip-path="url(#clip662)" style="stroke:#000000; stroke-width:2; stroke-opacity:0.1; fill:none" points="
  211.141,304.874 2352.76,304.874 
  "/>
<polyline clip-path="url(#clip662)" style="stroke:#000000; stroke-width:2; stroke-opacity:0.1; fill:none" points="
  211.141,87.4206 2352.76,87.4206 
  "/>
<polyline clip-path="url(#clip660)" style="stroke:#000000; stroke-width:4; stroke-opacity:1; fill:none" points="
  211.141,1447.17 2352.76,1447.17 
  "/>
<polyline clip-path="url(#clip660)" style="stroke:#000000; stroke-width:4; stroke-opacity:1; fill:none" points="
  211.141,1447.17 211.141,47.2441 
  "/>
<polyline clip-path="url(#clip660)" style="stroke:#000000; stroke-width:4; stroke-opacity:1; fill:none" points="
  496.241,1447.17 496.241,1430.37 
  "/>
<polyline clip-path="url(#clip660)" style="stroke:#000000; stroke-width:4; stroke-opacity:1; fill:none" points="
  945.217,1447.17 945.217,1430.37 
  "/>
<polyline clip-path="url(#clip660)" style="stroke:#000000; stroke-width:4; stroke-opacity:1; fill:none" points="
  1394.19,1447.17 1394.19,1430.37 
  "/>
<polyline clip-path="url(#clip660)" style="stroke:#000000; stroke-width:4; stroke-opacity:1; fill:none" points="
  1843.17,1447.17 1843.17,1430.37 
  "/>
<polyline clip-path="url(#clip660)" style="stroke:#000000; stroke-width:4; stroke-opacity:1; fill:none" points="
  2292.14,1447.17 2292.14,1430.37 
  "/>
<polyline clip-path="url(#clip660)" style="stroke:#000000; stroke-width:4; stroke-opacity:1; fill:none" points="
  211.141,1392.14 236.841,1392.14 
  "/>
<polyline clip-path="url(#clip660)" style="stroke:#000000; stroke-width:4; stroke-opacity:1; fill:none" points="
  211.141,1174.69 236.841,1174.69 
  "/>
<polyline clip-path="url(#clip660)" style="stroke:#000000; stroke-width:4; stroke-opacity:1; fill:none" points="
  211.141,957.234 236.841,957.234 
  "/>
<polyline clip-path="url(#clip660)" style="stroke:#000000; stroke-width:4; stroke-opacity:1; fill:none" points="
  211.141,739.78 236.841,739.78 
  "/>
<polyline clip-path="url(#clip660)" style="stroke:#000000; stroke-width:4; stroke-opacity:1; fill:none" points="
  211.141,522.327 236.841,522.327 
  "/>
<polyline clip-path="url(#clip660)" style="stroke:#000000; stroke-width:4; stroke-opacity:1; fill:none" points="
  211.141,304.874 236.841,304.874 
  "/>
<polyline clip-path="url(#clip660)" style="stroke:#000000; stroke-width:4; stroke-opacity:1; fill:none" points="
  211.141,87.4206 236.841,87.4206 
  "/>
<path clip-path="url(#clip660)" d="M 0 0 M490.894 1496.71 L507.213 1496.71 L507.213 1500.64 L485.269 1500.64 L485.269 1496.71 Q487.931 1493.95 492.514 1489.32 Q497.121 1484.67 498.301 1483.33 Q500.546 1480.8 501.426 1479.07 Q502.329 1477.31 502.329 1475.62 Q502.329 1472.86 500.384 1471.13 Q498.463 1469.39 495.361 1469.39 Q493.162 1469.39 490.709 1470.16 Q488.278 1470.92 485.5 1472.47 L485.5 1467.75 Q488.324 1466.61 490.778 1466.04 Q493.232 1465.46 495.269 1465.46 Q500.639 1465.46 503.833 1468.14 Q507.028 1470.83 507.028 1475.32 Q507.028 1477.45 506.218 1479.37 Q505.431 1481.27 503.324 1483.86 Q502.745 1484.53 499.644 1487.75 Q496.542 1490.94 490.894 1496.71 Z" fill="#000000" fill-rule="evenodd" fill-opacity="1" /><path clip-path="url(#clip660)" d="M 0 0 M948.226 1470.16 L936.42 1488.61 L948.226 1488.61 L948.226 1470.16 M946.999 1466.08 L952.879 1466.08 L952.879 1488.61 L957.809 1488.61 L957.809 1492.49 L952.879 1492.49 L952.879 1500.64 L948.226 1500.64 L948.226 1492.49 L932.624 1492.49 L932.624 1487.98 L946.999 1466.08 Z" fill="#000000" fill-rule="evenodd" fill-opacity="1" /><path clip-path="url(#clip660)" d="M 0 0 M1394.6 1481.5 Q1391.45 1481.5 1389.6 1483.65 Q1387.77 1485.8 1387.77 1489.55 Q1387.77 1493.28 1389.6 1495.46 Q1391.45 1497.61 1394.6 1497.61 Q1397.75 1497.61 1399.57 1495.46 Q1401.43 1493.28 1401.43 1489.55 Q1401.43 1485.8 1399.57 1483.65 Q1397.75 1481.5 1394.6 1481.5 M1403.88 1466.85 L1403.88 1471.11 Q1402.12 1470.27 1400.32 1469.83 Q1398.53 1469.39 1396.77 1469.39 Q1392.14 1469.39 1389.69 1472.52 Q1387.26 1475.64 1386.91 1481.96 Q1388.28 1479.95 1390.34 1478.88 Q1392.4 1477.8 1394.88 1477.8 Q1400.08 1477.8 1403.09 1480.97 Q1406.13 1484.11 1406.13 1489.55 Q1406.13 1494.88 1402.98 1498.1 Q1399.83 1501.31 1394.6 1501.31 Q1388.6 1501.31 1385.43 1496.73 Q1382.26 1492.12 1382.26 1483.4 Q1382.26 1475.2 1386.15 1470.34 Q1390.04 1465.46 1396.59 1465.46 Q1398.35 1465.46 1400.13 1465.8 Q1401.94 1466.15 1403.88 1466.85 Z" fill="#000000" fill-rule="evenodd" fill-opacity="1" /><path clip-path="url(#clip660)" d="M 0 0 M1843.17 1484.23 Q1839.84 1484.23 1837.91 1486.01 Q1836.02 1487.8 1836.02 1490.92 Q1836.02 1494.05 1837.91 1495.83 Q1839.84 1497.61 1843.17 1497.61 Q1846.5 1497.61 1848.42 1495.83 Q1850.34 1494.02 1850.34 1490.92 Q1850.34 1487.8 1848.42 1486.01 Q1846.52 1484.23 1843.17 1484.23 M1838.49 1482.24 Q1835.48 1481.5 1833.79 1479.44 Q1832.13 1477.38 1832.13 1474.42 Q1832.13 1470.27 1835.07 1467.86 Q1838.03 1465.46 1843.17 1465.46 Q1848.33 1465.46 1851.27 1467.86 Q1854.21 1470.27 1854.21 1474.42 Q1854.21 1477.38 1852.52 1479.44 Q1850.85 1481.5 1847.87 1482.24 Q1851.25 1483.03 1853.12 1485.32 Q1855.02 1487.61 1855.02 1490.92 Q1855.02 1495.94 1851.94 1498.63 Q1848.89 1501.31 1843.17 1501.31 Q1837.45 1501.31 1834.37 1498.63 Q1831.32 1495.94 1831.32 1490.92 Q1831.32 1487.61 1833.21 1485.32 Q1835.11 1483.03 1838.49 1482.24 M1836.78 1474.86 Q1836.78 1477.54 1838.45 1479.05 Q1840.14 1480.55 1843.17 1480.55 Q1846.18 1480.55 1847.87 1479.05 Q1849.58 1477.54 1849.58 1474.86 Q1849.58 1472.17 1847.87 1470.67 Q1846.18 1469.16 1843.17 1469.16 Q1840.14 1469.16 1838.45 1470.67 Q1836.78 1472.17 1836.78 1474.86 Z" fill="#000000" fill-rule="evenodd" fill-opacity="1" /><path clip-path="url(#clip660)" d="M 0 0 M2269.02 1496.71 L2276.66 1496.71 L2276.66 1470.34 L2268.35 1472.01 L2268.35 1467.75 L2276.61 1466.08 L2281.29 1466.08 L2281.29 1496.71 L2288.93 1496.71 L2288.93 1500.64 L2269.02 1500.64 L2269.02 1496.71 Z" fill="#000000" fill-rule="evenodd" fill-opacity="1" /><path clip-path="url(#clip660)" d="M 0 0 M2304 1469.16 Q2300.38 1469.16 2298.56 1472.73 Q2296.75 1476.27 2296.75 1483.4 Q2296.75 1490.5 2298.56 1494.07 Q2300.38 1497.61 2304 1497.61 Q2307.63 1497.61 2309.44 1494.07 Q2311.26 1490.5 2311.26 1483.4 Q2311.26 1476.27 2309.44 1472.73 Q2307.63 1469.16 2304 1469.16 M2304 1465.46 Q2309.81 1465.46 2312.86 1470.06 Q2315.94 1474.65 2315.94 1483.4 Q2315.94 1492.12 2312.86 1496.73 Q2309.81 1501.31 2304 1501.31 Q2298.19 1501.31 2295.11 1496.73 Q2292.05 1492.12 2292.05 1483.4 Q2292.05 1474.65 2295.11 1470.06 Q2298.19 1465.46 2304 1465.46 Z" fill="#000000" fill-rule="evenodd" fill-opacity="1" /><path clip-path="url(#clip660)" d="M 0 0 M138.878 1377.94 Q135.267 1377.94 133.438 1381.5 Q131.632 1385.05 131.632 1392.17 Q131.632 1399.28 133.438 1402.85 Q135.267 1406.39 138.878 1406.39 Q142.512 1406.39 144.317 1402.85 Q146.146 1399.28 146.146 1392.17 Q146.146 1385.05 144.317 1381.5 Q142.512 1377.94 138.878 1377.94 M138.878 1374.24 Q144.688 1374.24 147.743 1378.84 Q150.822 1383.42 150.822 1392.17 Q150.822 1400.9 147.743 1405.51 Q144.688 1410.09 138.878 1410.09 Q133.067 1410.09 129.989 1405.51 Q126.933 1400.9 126.933 1392.17 Q126.933 1383.42 129.989 1378.84 Q133.067 1374.24 138.878 1374.24 Z" fill="#000000" fill-rule="evenodd" fill-opacity="1" /><path clip-path="url(#clip660)" d="M 0 0 M155.891 1403.54 L160.776 1403.54 L160.776 1409.42 L155.891 1409.42 L155.891 1403.54 Z" fill="#000000" fill-rule="evenodd" fill-opacity="1" /><path clip-path="url(#clip660)" d="M 0 0 M180.012 1390.79 Q183.368 1391.5 185.243 1393.77 Q187.141 1396.04 187.141 1399.37 Q187.141 1404.49 183.623 1407.29 Q180.104 1410.09 173.623 1410.09 Q171.447 1410.09 169.132 1409.65 Q166.84 1409.23 164.387 1408.38 L164.387 1403.86 Q166.331 1405 168.646 1405.58 Q170.961 1406.16 173.484 1406.16 Q177.882 1406.16 180.174 1404.42 Q182.488 1402.68 182.488 1399.37 Q182.488 1396.32 180.336 1394.61 Q178.206 1392.87 174.387 1392.87 L170.359 1392.87 L170.359 1389.03 L174.572 1389.03 Q178.021 1389.03 179.85 1387.66 Q181.678 1386.27 181.678 1383.68 Q181.678 1381.02 179.78 1379.61 Q177.905 1378.17 174.387 1378.17 Q172.465 1378.17 170.266 1378.59 Q168.067 1379 165.428 1379.88 L165.428 1375.72 Q168.09 1374.98 170.405 1374.61 Q172.743 1374.24 174.803 1374.24 Q180.127 1374.24 183.229 1376.67 Q186.331 1379.07 186.331 1383.19 Q186.331 1386.06 184.688 1388.05 Q183.044 1390.02 180.012 1390.79 Z" fill="#000000" fill-rule="evenodd" fill-opacity="1" /><path clip-path="url(#clip660)" d="M 0 0 M137.743 1160.49 Q134.132 1160.49 132.304 1164.05 Q130.498 1167.59 130.498 1174.72 Q130.498 1181.83 132.304 1185.39 Q134.132 1188.93 137.743 1188.93 Q141.378 1188.93 143.183 1185.39 Q145.012 1181.83 145.012 1174.72 Q145.012 1167.59 143.183 1164.05 Q141.378 1160.49 137.743 1160.49 M137.743 1156.78 Q143.554 1156.78 146.609 1161.39 Q149.688 1165.97 149.688 1174.72 Q149.688 1183.45 146.609 1188.05 Q143.554 1192.64 137.743 1192.64 Q131.933 1192.64 128.855 1188.05 Q125.799 1183.45 125.799 1174.72 Q125.799 1165.97 128.855 1161.39 Q131.933 1156.78 137.743 1156.78 Z" fill="#000000" fill-rule="evenodd" fill-opacity="1" /><path clip-path="url(#clip660)" d="M 0 0 M154.757 1186.09 L159.641 1186.09 L159.641 1191.97 L154.757 1191.97 L154.757 1186.09 Z" fill="#000000" fill-rule="evenodd" fill-opacity="1" /><path clip-path="url(#clip660)" d="M 0 0 M177.558 1161.48 L165.752 1179.93 L177.558 1179.93 L177.558 1161.48 M176.331 1157.41 L182.211 1157.41 L182.211 1179.93 L187.141 1179.93 L187.141 1183.82 L182.211 1183.82 L182.211 1191.97 L177.558 1191.97 L177.558 1183.82 L161.956 1183.82 L161.956 1179.3 L176.331 1157.41 Z" fill="#000000" fill-rule="evenodd" fill-opacity="1" /><path clip-path="url(#clip660)" d="M 0 0 M139.225 943.032 Q135.614 943.032 133.785 946.597 Q131.98 950.139 131.98 957.268 Q131.98 964.375 133.785 967.94 Q135.614 971.481 139.225 971.481 Q142.859 971.481 144.665 967.94 Q146.493 964.375 146.493 957.268 Q146.493 950.139 144.665 946.597 Q142.859 943.032 139.225 943.032 M139.225 939.329 Q145.035 939.329 148.091 943.935 Q151.169 948.518 151.169 957.268 Q151.169 965.995 148.091 970.602 Q145.035 975.185 139.225 975.185 Q133.415 975.185 130.336 970.602 Q127.28 965.995 127.28 957.268 Q127.28 948.518 130.336 943.935 Q133.415 939.329 139.225 939.329 Z" fill="#000000" fill-rule="evenodd" fill-opacity="1" /><path clip-path="url(#clip660)" d="M 0 0 M156.239 968.634 L161.123 968.634 L161.123 974.514 L156.239 974.514 L156.239 968.634 Z" fill="#000000" fill-rule="evenodd" fill-opacity="1" /><path clip-path="url(#clip660)" d="M 0 0 M166.239 939.954 L184.595 939.954 L184.595 943.889 L170.521 943.889 L170.521 952.361 Q171.539 952.014 172.558 951.852 Q173.577 951.666 174.595 951.666 Q180.382 951.666 183.762 954.838 Q187.141 958.009 187.141 963.426 Q187.141 969.004 183.669 972.106 Q180.197 975.185 173.877 975.185 Q171.702 975.185 169.433 974.814 Q167.188 974.444 164.78 973.703 L164.78 969.004 Q166.864 970.139 169.086 970.694 Q171.308 971.25 173.785 971.25 Q177.789 971.25 180.127 969.143 Q182.465 967.037 182.465 963.426 Q182.465 959.815 180.127 957.708 Q177.789 955.602 173.785 955.602 Q171.91 955.602 170.035 956.018 Q168.183 956.435 166.239 957.315 L166.239 939.954 Z" fill="#000000" fill-rule="evenodd" fill-opacity="1" /><path clip-path="url(#clip660)" d="M 0 0 M138.067 725.579 Q134.456 725.579 132.628 729.144 Q130.822 732.685 130.822 739.815 Q130.822 746.921 132.628 750.486 Q134.456 754.028 138.067 754.028 Q141.702 754.028 143.507 750.486 Q145.336 746.921 145.336 739.815 Q145.336 732.685 143.507 729.144 Q141.702 725.579 138.067 725.579 M138.067 721.875 Q143.878 721.875 146.933 726.482 Q150.012 731.065 150.012 739.815 Q150.012 748.542 146.933 753.148 Q143.878 757.732 138.067 757.732 Q132.257 757.732 129.179 753.148 Q126.123 748.542 126.123 739.815 Q126.123 731.065 129.179 726.482 Q132.257 721.875 138.067 721.875 Z" fill="#000000" fill-rule="evenodd" fill-opacity="1" /><path clip-path="url(#clip660)" d="M 0 0 M155.081 751.181 L159.965 751.181 L159.965 757.06 L155.081 757.06 L155.081 751.181 Z" fill="#000000" fill-rule="evenodd" fill-opacity="1" /><path clip-path="url(#clip660)" d="M 0 0 M175.614 737.917 Q172.465 737.917 170.614 740.07 Q168.785 742.222 168.785 745.972 Q168.785 749.699 170.614 751.875 Q172.465 754.028 175.614 754.028 Q178.762 754.028 180.59 751.875 Q182.442 749.699 182.442 745.972 Q182.442 742.222 180.59 740.07 Q178.762 737.917 175.614 737.917 M184.896 723.264 L184.896 727.523 Q183.137 726.69 181.331 726.25 Q179.549 725.81 177.789 725.81 Q173.16 725.81 170.706 728.935 Q168.276 732.06 167.928 738.38 Q169.294 736.366 171.354 735.301 Q173.414 734.213 175.891 734.213 Q181.1 734.213 184.109 737.384 Q187.141 740.533 187.141 745.972 Q187.141 751.296 183.993 754.514 Q180.845 757.732 175.614 757.732 Q169.618 757.732 166.447 753.148 Q163.276 748.542 163.276 739.815 Q163.276 731.621 167.165 726.76 Q171.053 721.875 177.604 721.875 Q179.364 721.875 181.146 722.223 Q182.951 722.57 184.896 723.264 Z" fill="#000000" fill-rule="evenodd" fill-opacity="1" /><path clip-path="url(#clip660)" d="M 0 0 M139.132 508.126 Q135.521 508.126 133.692 511.691 Q131.887 515.232 131.887 522.362 Q131.887 529.468 133.692 533.033 Q135.521 536.575 139.132 536.575 Q142.766 536.575 144.572 533.033 Q146.401 529.468 146.401 522.362 Q146.401 515.232 144.572 511.691 Q142.766 508.126 139.132 508.126 M139.132 504.422 Q144.942 504.422 147.998 509.029 Q151.077 513.612 151.077 522.362 Q151.077 531.089 147.998 535.695 Q144.942 540.278 139.132 540.278 Q133.322 540.278 130.243 535.695 Q127.188 531.089 127.188 522.362 Q127.188 513.612 130.243 509.029 Q133.322 504.422 139.132 504.422 Z" fill="#000000" fill-rule="evenodd" fill-opacity="1" /><path clip-path="url(#clip660)" d="M 0 0 M156.146 533.727 L161.03 533.727 L161.03 539.607 L156.146 539.607 L156.146 533.727 Z" fill="#000000" fill-rule="evenodd" fill-opacity="1" /><path clip-path="url(#clip660)" d="M 0 0 M164.919 505.047 L187.141 505.047 L187.141 507.038 L174.595 539.607 L169.711 539.607 L181.516 508.982 L164.919 508.982 L164.919 505.047 Z" fill="#000000" fill-rule="evenodd" fill-opacity="1" /><path clip-path="url(#clip660)" d="M 0 0 M138.322 290.673 Q134.711 290.673 132.882 294.237 Q131.077 297.779 131.077 304.909 Q131.077 312.015 132.882 315.58 Q134.711 319.121 138.322 319.121 Q141.956 319.121 143.762 315.58 Q145.591 312.015 145.591 304.909 Q145.591 297.779 143.762 294.237 Q141.956 290.673 138.322 290.673 M138.322 286.969 Q144.132 286.969 147.188 291.575 Q150.266 296.159 150.266 304.909 Q150.266 313.635 147.188 318.242 Q144.132 322.825 138.322 322.825 Q132.512 322.825 129.433 318.242 Q126.378 313.635 126.378 304.909 Q126.378 296.159 129.433 291.575 Q132.512 286.969 138.322 286.969 Z" fill="#000000" fill-rule="evenodd" fill-opacity="1" /><path clip-path="url(#clip660)" d="M 0 0 M155.336 316.274 L160.22 316.274 L160.22 322.154 L155.336 322.154 L155.336 316.274 Z" fill="#000000" fill-rule="evenodd" fill-opacity="1" /><path clip-path="url(#clip660)" d="M 0 0 M175.289 305.742 Q171.956 305.742 170.035 307.524 Q168.137 309.307 168.137 312.432 Q168.137 315.557 170.035 317.339 Q171.956 319.121 175.289 319.121 Q178.623 319.121 180.544 317.339 Q182.465 315.533 182.465 312.432 Q182.465 309.307 180.544 307.524 Q178.646 305.742 175.289 305.742 M170.614 303.751 Q167.604 303.01 165.915 300.95 Q164.248 298.89 164.248 295.927 Q164.248 291.784 167.188 289.376 Q170.151 286.969 175.289 286.969 Q180.451 286.969 183.391 289.376 Q186.331 291.784 186.331 295.927 Q186.331 298.89 184.641 300.95 Q182.975 303.01 179.989 303.751 Q183.368 304.538 185.243 306.83 Q187.141 309.121 187.141 312.432 Q187.141 317.455 184.063 320.14 Q181.007 322.825 175.289 322.825 Q169.572 322.825 166.493 320.14 Q163.438 317.455 163.438 312.432 Q163.438 309.121 165.336 306.83 Q167.234 304.538 170.614 303.751 M168.901 296.367 Q168.901 299.052 170.567 300.557 Q172.257 302.061 175.289 302.061 Q178.299 302.061 179.989 300.557 Q181.701 299.052 181.701 296.367 Q181.701 293.682 179.989 292.177 Q178.299 290.673 175.289 290.673 Q172.257 290.673 170.567 292.177 Q168.901 293.682 168.901 296.367 Z" fill="#000000" fill-rule="evenodd" fill-opacity="1" /><path clip-path="url(#clip660)" d="M 0 0 M138.415 73.2193 Q134.804 73.2193 132.975 76.7841 Q131.169 80.3257 131.169 87.4553 Q131.169 94.5617 132.975 98.1265 Q134.804 101.668 138.415 101.668 Q142.049 101.668 143.854 98.1265 Q145.683 94.5617 145.683 87.4553 Q145.683 80.3257 143.854 76.7841 Q142.049 73.2193 138.415 73.2193 M138.415 69.5156 Q144.225 69.5156 147.28 74.122 Q150.359 78.7053 150.359 87.4553 Q150.359 96.1821 147.28 100.789 Q144.225 105.372 138.415 105.372 Q132.605 105.372 129.526 100.789 Q126.47 96.1821 126.47 87.4553 Q126.47 78.7053 129.526 74.122 Q132.605 69.5156 138.415 69.5156 Z" fill="#000000" fill-rule="evenodd" fill-opacity="1" /><path clip-path="url(#clip660)" d="M 0 0 M155.428 98.821 L160.313 98.821 L160.313 104.701 L155.428 104.701 L155.428 98.821 Z" fill="#000000" fill-rule="evenodd" fill-opacity="1" /><path clip-path="url(#clip660)" d="M 0 0 M165.521 103.983 L165.521 99.7238 Q167.28 100.557 169.086 100.997 Q170.891 101.437 172.627 101.437 Q177.257 101.437 179.688 98.3349 Q182.141 95.2099 182.488 88.8673 Q181.146 90.8581 179.086 91.9229 Q177.026 92.9877 174.526 92.9877 Q169.34 92.9877 166.308 89.8627 Q163.299 86.7146 163.299 81.2748 Q163.299 75.9507 166.447 72.7332 Q169.595 69.5156 174.826 69.5156 Q180.822 69.5156 183.97 74.122 Q187.141 78.7053 187.141 87.4553 Q187.141 95.6266 183.252 100.511 Q179.387 105.372 172.836 105.372 Q171.077 105.372 169.271 105.025 Q167.465 104.677 165.521 103.983 M174.826 89.3303 Q177.975 89.3303 179.803 87.1775 Q181.655 85.0248 181.655 81.2748 Q181.655 77.5479 179.803 75.3952 Q177.975 73.2193 174.826 73.2193 Q171.678 73.2193 169.827 75.3952 Q167.998 77.5479 167.998 81.2748 Q167.998 85.0248 169.827 87.1775 Q171.678 89.3303 174.826 89.3303 Z" fill="#000000" fill-rule="evenodd" fill-opacity="1" /><path clip-path="url(#clip660)" d="M 0 0 M1296.11 1527.48 Q1296.11 1529.28 1294.98 1530.31 Q1293.85 1531.31 1292.57 1531.31 Q1291.34 1531.31 1290.7 1530.6 Q1290.05 1529.89 1290.05 1528.99 Q1290.05 1527.77 1290.96 1526.7 Q1291.86 1525.64 1293.21 1525.42 Q1291.89 1524.58 1289.93 1524.58 Q1288.64 1524.58 1287.51 1525.26 Q1286.41 1525.93 1285.74 1526.8 Q1285.09 1527.67 1284.51 1528.93 Q1283.97 1530.15 1283.74 1530.89 Q1283.55 1531.6 1283.39 1532.37 L1281.13 1541.39 Q1280.04 1545.67 1280.04 1547.19 Q1280.04 1549.06 1280.94 1550.31 Q1281.84 1551.54 1283.64 1551.54 Q1284.35 1551.54 1285.16 1551.34 Q1285.96 1551.12 1286.99 1550.54 Q1288.06 1549.93 1288.99 1549.02 Q1289.96 1548.09 1290.89 1546.51 Q1291.83 1544.93 1292.44 1542.9 Q1292.63 1542.2 1293.27 1542.2 Q1294.08 1542.2 1294.08 1542.84 Q1294.08 1543.39 1293.63 1544.55 Q1293.21 1545.67 1292.28 1547.16 Q1291.37 1548.6 1290.18 1549.93 Q1288.99 1551.21 1287.22 1552.12 Q1285.45 1553.02 1283.52 1553.02 Q1280.75 1553.02 1278.91 1551.54 Q1277.07 1550.05 1276.4 1547.99 Q1276.24 1548.28 1276.01 1548.67 Q1275.79 1549.06 1275.11 1549.93 Q1274.47 1550.76 1273.73 1551.41 Q1272.98 1552.02 1271.83 1552.5 Q1270.7 1553.02 1269.47 1553.02 Q1267.93 1553.02 1266.54 1552.57 Q1265.19 1552.12 1264.22 1551.08 Q1263.26 1550.05 1263.26 1548.64 Q1263.26 1547.06 1264.32 1545.96 Q1265.42 1544.84 1266.9 1544.84 Q1267.83 1544.84 1268.57 1545.38 Q1269.35 1545.93 1269.35 1547.12 Q1269.35 1548.44 1268.44 1549.44 Q1267.54 1550.44 1266.25 1550.7 Q1267.57 1551.54 1269.54 1551.54 Q1271.66 1551.54 1273.34 1549.67 Q1275.01 1547.8 1275.82 1544.68 Q1277.82 1537.17 1278.59 1533.82 Q1279.36 1530.44 1279.36 1528.99 Q1279.36 1527.64 1279.01 1526.7 Q1278.65 1525.77 1278.04 1525.35 Q1277.46 1524.9 1276.91 1524.74 Q1276.4 1524.58 1275.82 1524.58 Q1274.85 1524.58 1273.76 1524.97 Q1272.69 1525.35 1271.41 1526.25 Q1270.15 1527.12 1268.96 1528.93 Q1267.77 1530.73 1266.96 1533.21 Q1266.8 1533.95 1266.09 1533.95 Q1265.32 1533.92 1265.32 1533.27 Q1265.32 1532.73 1265.74 1531.6 Q1266.19 1530.44 1267.09 1528.99 Q1268.03 1527.54 1269.22 1526.25 Q1270.44 1524.93 1272.21 1524.03 Q1274.02 1523.13 1275.95 1523.13 Q1276.82 1523.13 1277.65 1523.32 Q1278.52 1523.48 1279.55 1523.97 Q1280.62 1524.45 1281.55 1525.51 Q1282.49 1526.58 1283.07 1528.12 Q1283.45 1527.38 1283.97 1526.67 Q1284.51 1525.96 1285.35 1525.09 Q1286.22 1524.19 1287.41 1523.68 Q1288.64 1523.13 1289.99 1523.13 Q1291.31 1523.13 1292.6 1523.48 Q1293.89 1523.81 1294.98 1524.87 Q1296.11 1525.9 1296.11 1527.48 Z" fill="#000000" fill-rule="evenodd" fill-opacity="1" /><path clip-path="url(#clip660)" d="M 0 0 M60.8835 732.781 Q61.3344 732.781 62.3972 733.071 L87.5821 739.384 Q93.186 740.768 97.1151 745.277 Q101.044 749.754 101.044 754.842 Q101.044 757.902 99.4017 759.866 Q97.7914 761.831 95.3115 761.831 Q93.1216 761.831 92.0588 760.672 Q91.0282 759.512 91.0282 758.127 Q91.0282 757.676 91.157 757.193 Q91.2858 756.71 91.8333 756.195 Q92.3808 755.68 93.3148 755.68 Q94.8285 755.68 96.0201 757 Q96.5676 757.644 96.6964 758.256 Q96.8252 758.836 96.8252 759.834 Q97.727 759.448 98.3389 758.739 Q98.9508 758.031 99.1763 757.226 Q99.4339 756.42 99.4983 755.905 Q99.5949 755.358 99.5949 754.842 Q99.5949 750.72 95.4404 747.564 Q94.1843 746.63 92.9283 745.953 Q91.7045 745.245 90.1908 744.73 Q88.7093 744.214 87.9042 743.989 Q87.0991 743.731 85.2633 743.28 Q88.2585 746.276 88.2585 749.947 Q88.2585 751.493 87.8398 752.878 Q87.4211 754.23 86.5516 755.422 Q85.6498 756.614 84.0717 757.322 Q82.4936 757.998 80.4002 757.998 Q78.178 757.998 75.1507 757.129 Q72.1233 756.259 66.5517 754.166 Q63.4277 753.039 61.9141 753.039 Q61.1733 753.039 60.7225 753.2 Q60.2394 753.361 60.0783 753.683 Q59.8851 754.005 59.8529 754.198 Q59.8207 754.359 59.8207 754.681 Q59.8207 756.581 61.753 758.353 Q63.6854 760.124 68.001 761.348 Q68.8061 761.606 68.9994 761.767 Q69.1926 761.928 69.1926 762.411 Q69.1604 763.216 68.5163 763.216 Q68.2586 763.216 67.2602 762.926 Q66.2297 762.636 64.716 761.96 Q63.1701 761.251 61.7852 760.285 Q60.3682 759.319 59.3698 757.805 Q58.3714 756.259 58.3714 754.488 Q58.3714 752.073 59.9495 750.591 Q61.4954 749.077 63.782 749.077 Q64.716 749.077 65.5533 749.335 Q66.3585 749.561 68.5163 750.398 Q77.2119 753.78 81.463 753.78 Q82.4936 753.78 83.3632 753.618 Q84.2005 753.425 85.0379 753.007 Q85.843 752.588 86.3261 751.751 Q86.777 750.881 86.777 749.689 Q86.777 748.176 86.0685 746.759 Q85.3277 745.309 84.3294 744.408 Q83.331 743.474 82.4936 742.926 Q81.6241 742.346 81.1732 742.218 L69.3214 739.255 L64.0397 737.934 Q61.1733 737.322 60.4648 737.032 Q59.7885 736.646 59.4342 735.97 Q59.08 735.293 59.08 734.714 Q59.08 733.909 59.563 733.361 Q60.0461 732.781 60.8835 732.781 Z" fill="#000000" fill-rule="evenodd" fill-opacity="1" /><polyline clip-path="url(#clip662)" style="stroke:#009af9; stroke-width:4; stroke-opacity:1; fill:none" points="
  271.753,1005.89 496.241,86.8647 720.729,563.276 945.217,753.124 1169.7,1407.55 1394.19,783.631 1618.68,825.697 1843.17,1289.85 2067.66,186.049 2292.14,1292.34 
  
  "/>
<path clip-path="url(#clip660)" d="
M1989.74 251.724 L2280.76 251.724 L2280.76 130.764 L1989.74 130.764  Z
  " fill="#ffffff" fill-rule="evenodd" fill-opacity="1"/>
<polyline clip-path="url(#clip660)" style="stroke:#000000; stroke-width:4; stroke-opacity:1; fill:none" points="
  1989.74,251.724 2280.76,251.724 2280.76,130.764 1989.74,130.764 1989.74,251.724 
  "/>
<polyline clip-path="url(#clip660)" style="stroke:#009af9; stroke-width:4; stroke-opacity:1; fill:none" points="
  2013.74,191.244 2157.74,191.244 
  "/>
<path clip-path="url(#clip660)" d="M 0 0 M2195.58 210.931 Q2193.77 215.561 2192.06 216.973 Q2190.35 218.385 2187.48 218.385 L2184.08 218.385 L2184.08 214.82 L2186.58 214.82 Q2188.33 214.82 2189.31 213.987 Q2190.28 213.154 2191.46 210.052 L2192.22 208.107 L2181.74 182.598 L2186.25 182.598 L2194.35 202.876 L2202.46 182.598 L2206.97 182.598 L2195.58 210.931 Z" fill="#000000" fill-rule="evenodd" fill-opacity="1" /><path clip-path="url(#clip660)" d="M 0 0 M2212.85 204.589 L2220.49 204.589 L2220.49 178.223 L2212.18 179.89 L2212.18 175.631 L2220.44 173.964 L2225.12 173.964 L2225.12 204.589 L2232.76 204.589 L2232.76 208.524 L2212.85 208.524 L2212.85 204.589 Z" fill="#000000" fill-rule="evenodd" fill-opacity="1" /></svg>
