<?xml version="1.0" encoding="utf-8"?>
<svg xmlns="http://www.w3.org/2000/svg" xmlns:xlink="http://www.w3.org/1999/xlink" width="600" height="400" viewBox="0 0 2400 1600">
<defs>
  <clipPath id="clip250">
    <rect x="0" y="0" width="2400" height="1600"/>
  </clipPath>
</defs>
<path clip-path="url(#clip250)" d="
M0 1600 L2400 1600 L2400 0 L0 0  Z
  " fill="#ffffff" fill-rule="evenodd" fill-opacity="1"/>
<defs>
  <clipPath id="clip251">
    <rect x="480" y="0" width="1681" height="1600"/>
  </clipPath>
</defs>
<path clip-path="url(#clip250)" d="
M237.669 1447.17 L2352.76 1447.17 L2352.76 47.2441 L237.669 47.2441  Z
  " fill="#ffffff" fill-rule="evenodd" fill-opacity="1"/>
<defs>
  <clipPath id="clip252">
    <rect x="237" y="47" width="2116" height="1401"/>
  </clipPath>
</defs>
<polyline clip-path="url(#clip252)" style="stroke:#000000; stroke-width:2; stroke-opacity:0.1; fill:none" points="
  519.237,1447.17 519.237,47.2441 
  "/>
<polyline clip-path="url(#clip252)" style="stroke:#000000; stroke-width:2; stroke-opacity:0.1; fill:none" points="
  962.652,1447.17 962.652,47.2441 
  "/>
<polyline clip-path="url(#clip252)" style="stroke:#000000; stroke-width:2; stroke-opacity:0.1; fill:none" points="
  1406.07,1447.17 1406.07,47.2441 
  "/>
<polyline clip-path="url(#clip252)" style="stroke:#000000; stroke-width:2; stroke-opacity:0.1; fill:none" points="
  1849.48,1447.17 1849.48,47.2441 
  "/>
<polyline clip-path="url(#clip252)" style="stroke:#000000; stroke-width:2; stroke-opacity:0.1; fill:none" points="
  2292.89,1447.17 2292.89,47.2441 
  "/>
<polyline clip-path="url(#clip252)" style="stroke:#000000; stroke-width:2; stroke-opacity:0.1; fill:none" points="
  237.669,1431.95 2352.76,1431.95 
  "/>
<polyline clip-path="url(#clip252)" style="stroke:#000000; stroke-width:2; stroke-opacity:0.1; fill:none" points="
  237.669,1086.11 2352.76,1086.11 
  "/>
<polyline clip-path="url(#clip252)" style="stroke:#000000; stroke-width:2; stroke-opacity:0.1; fill:none" points="
  237.669,740.266 2352.76,740.266 
  "/>
<polyline clip-path="url(#clip252)" style="stroke:#000000; stroke-width:2; stroke-opacity:0.1; fill:none" points="
  237.669,394.423 2352.76,394.423 
  "/>
<polyline clip-path="url(#clip252)" style="stroke:#000000; stroke-width:2; stroke-opacity:0.1; fill:none" points="
  237.669,48.5799 2352.76,48.5799 
  "/>
<polyline clip-path="url(#clip250)" style="stroke:#000000; stroke-width:4; stroke-opacity:1; fill:none" points="
  237.669,1447.17 2352.76,1447.17 
  "/>
<polyline clip-path="url(#clip250)" style="stroke:#000000; stroke-width:4; stroke-opacity:1; fill:none" points="
  237.669,1447.17 237.669,47.2441 
  "/>
<polyline clip-path="url(#clip250)" style="stroke:#000000; stroke-width:4; stroke-opacity:1; fill:none" points="
  519.237,1447.17 519.237,1430.37 
  "/>
<polyline clip-path="url(#clip250)" style="stroke:#000000; stroke-width:4; stroke-opacity:1; fill:none" points="
  962.652,1447.17 962.652,1430.37 
  "/>
<polyline clip-path="url(#clip250)" style="stroke:#000000; stroke-width:4; stroke-opacity:1; fill:none" points="
  1406.07,1447.17 1406.07,1430.37 
  "/>
<polyline clip-path="url(#clip250)" style="stroke:#000000; stroke-width:4; stroke-opacity:1; fill:none" points="
  1849.48,1447.17 1849.48,1430.37 
  "/>
<polyline clip-path="url(#clip250)" style="stroke:#000000; stroke-width:4; stroke-opacity:1; fill:none" points="
  2292.89,1447.17 2292.89,1430.37 
  "/>
<polyline clip-path="url(#clip250)" style="stroke:#000000; stroke-width:4; stroke-opacity:1; fill:none" points="
  237.669,1431.95 263.05,1431.95 
  "/>
<polyline clip-path="url(#clip250)" style="stroke:#000000; stroke-width:4; stroke-opacity:1; fill:none" points="
  237.669,1086.11 263.05,1086.11 
  "/>
<polyline clip-path="url(#clip250)" style="stroke:#000000; stroke-width:4; stroke-opacity:1; fill:none" points="
  237.669,740.266 263.05,740.266 
  "/>
<polyline clip-path="url(#clip250)" style="stroke:#000000; stroke-width:4; stroke-opacity:1; fill:none" points="
  237.669,394.423 263.05,394.423 
  "/>
<polyline clip-path="url(#clip250)" style="stroke:#000000; stroke-width:4; stroke-opacity:1; fill:none" points="
  237.669,48.5799 263.05,48.5799 
  "/>
<path clip-path="url(#clip250)" d="M 0 0 M513.89 1496.71 L530.209 1496.71 L530.209 1500.64 L508.265 1500.64 L508.265 1496.71 Q510.927 1493.95 515.51 1489.32 Q520.117 1484.67 521.297 1483.33 Q523.543 1480.8 524.422 1479.07 Q525.325 1477.31 525.325 1475.62 Q525.325 1472.86 523.381 1471.13 Q521.459 1469.39 518.357 1469.39 Q516.158 1469.39 513.705 1470.16 Q511.274 1470.92 508.496 1472.47 L508.496 1467.75 Q511.32 1466.61 513.774 1466.04 Q516.228 1465.46 518.265 1465.46 Q523.635 1465.46 526.83 1468.14 Q530.024 1470.83 530.024 1475.32 Q530.024 1477.45 529.214 1479.37 Q528.427 1481.27 526.32 1483.86 Q525.742 1484.53 522.64 1487.75 Q519.538 1490.94 513.89 1496.71 Z" fill="#000000" fill-rule="evenodd" fill-opacity="1" /><path clip-path="url(#clip250)" d="M 0 0 M965.661 1470.16 L953.855 1488.61 L965.661 1488.61 L965.661 1470.16 M964.434 1466.08 L970.314 1466.08 L970.314 1488.61 L975.244 1488.61 L975.244 1492.49 L970.314 1492.49 L970.314 1500.64 L965.661 1500.64 L965.661 1492.49 L950.059 1492.49 L950.059 1487.98 L964.434 1466.08 Z" fill="#000000" fill-rule="evenodd" fill-opacity="1" /><path clip-path="url(#clip250)" d="M 0 0 M1406.47 1481.5 Q1403.32 1481.5 1401.47 1483.65 Q1399.64 1485.8 1399.64 1489.55 Q1399.64 1493.28 1401.47 1495.46 Q1403.32 1497.61 1406.47 1497.61 Q1409.62 1497.61 1411.45 1495.46 Q1413.3 1493.28 1413.3 1489.55 Q1413.3 1485.8 1411.45 1483.65 Q1409.62 1481.5 1406.47 1481.5 M1415.75 1466.85 L1415.75 1471.11 Q1413.99 1470.27 1412.19 1469.83 Q1410.41 1469.39 1408.65 1469.39 Q1404.02 1469.39 1401.56 1472.52 Q1399.13 1475.64 1398.79 1481.96 Q1400.15 1479.95 1402.21 1478.88 Q1404.27 1477.8 1406.75 1477.8 Q1411.96 1477.8 1414.97 1480.97 Q1418 1484.11 1418 1489.55 Q1418 1494.88 1414.85 1498.1 Q1411.7 1501.31 1406.47 1501.31 Q1400.48 1501.31 1397.3 1496.73 Q1394.13 1492.12 1394.13 1483.4 Q1394.13 1475.2 1398.02 1470.34 Q1401.91 1465.46 1408.46 1465.46 Q1410.22 1465.46 1412 1465.8 Q1413.81 1466.15 1415.75 1466.85 Z" fill="#000000" fill-rule="evenodd" fill-opacity="1" /><path clip-path="url(#clip250)" d="M 0 0 M1849.48 1484.23 Q1846.15 1484.23 1844.23 1486.01 Q1842.33 1487.8 1842.33 1490.92 Q1842.33 1494.05 1844.23 1495.83 Q1846.15 1497.61 1849.48 1497.61 Q1852.81 1497.61 1854.74 1495.83 Q1856.66 1494.02 1856.66 1490.92 Q1856.66 1487.8 1854.74 1486.01 Q1852.84 1484.23 1849.48 1484.23 M1844.8 1482.24 Q1841.8 1481.5 1840.11 1479.44 Q1838.44 1477.38 1838.44 1474.42 Q1838.44 1470.27 1841.38 1467.86 Q1844.34 1465.46 1849.48 1465.46 Q1854.64 1465.46 1857.58 1467.86 Q1860.52 1470.27 1860.52 1474.42 Q1860.52 1477.38 1858.83 1479.44 Q1857.17 1481.5 1854.18 1482.24 Q1857.56 1483.03 1859.43 1485.32 Q1861.33 1487.61 1861.33 1490.92 Q1861.33 1495.94 1858.25 1498.63 Q1855.2 1501.31 1849.48 1501.31 Q1843.76 1501.31 1840.68 1498.63 Q1837.63 1495.94 1837.63 1490.92 Q1837.63 1487.61 1839.53 1485.32 Q1841.42 1483.03 1844.8 1482.24 M1843.09 1474.86 Q1843.09 1477.54 1844.76 1479.05 Q1846.45 1480.55 1849.48 1480.55 Q1852.49 1480.55 1854.18 1479.05 Q1855.89 1477.54 1855.89 1474.86 Q1855.89 1472.17 1854.18 1470.67 Q1852.49 1469.16 1849.48 1469.16 Q1846.45 1469.16 1844.76 1470.67 Q1843.09 1472.17 1843.09 1474.86 Z" fill="#000000" fill-rule="evenodd" fill-opacity="1" /><path clip-path="url(#clip250)" d="M 0 0 M2269.77 1496.71 L2277.41 1496.71 L2277.41 1470.34 L2269.1 1472.01 L2269.1 1467.75 L2277.36 1466.08 L2282.04 1466.08 L2282.04 1496.71 L2289.68 1496.71 L2289.68 1500.64 L2269.77 1500.64 L2269.77 1496.71 Z" fill="#000000" fill-rule="evenodd" fill-opacity="1" /><path clip-path="url(#clip250)" d="M 0 0 M2304.75 1469.16 Q2301.14 1469.16 2299.31 1472.73 Q2297.5 1476.27 2297.5 1483.4 Q2297.5 1490.5 2299.31 1494.07 Q2301.14 1497.61 2304.75 1497.61 Q2308.38 1497.61 2310.19 1494.07 Q2312.02 1490.5 2312.02 1483.4 Q2312.02 1476.27 2310.19 1472.73 Q2308.38 1469.16 2304.75 1469.16 M2304.75 1465.46 Q2310.56 1465.46 2313.61 1470.06 Q2316.69 1474.65 2316.69 1483.4 Q2316.69 1492.12 2313.61 1496.73 Q2310.56 1501.31 2304.75 1501.31 Q2298.94 1501.31 2295.86 1496.73 Q2292.8 1492.12 2292.8 1483.4 Q2292.8 1474.65 2295.86 1470.06 Q2298.94 1465.46 2304.75 1465.46 Z" fill="#000000" fill-rule="evenodd" fill-opacity="1" /><path clip-path="url(#clip250)" d="M 0 0 M137.743 1417.75 Q134.132 1417.75 132.304 1421.32 Q130.498 1424.86 130.498 1431.99 Q130.498 1439.09 132.304 1442.66 Q134.132 1446.2 137.743 1446.2 Q141.378 1446.2 143.183 1442.66 Q145.012 1439.09 145.012 1431.99 Q145.012 1424.86 143.183 1421.32 Q141.378 1417.75 137.743 1417.75 M137.743 1414.05 Q143.554 1414.05 146.609 1418.65 Q149.688 1423.24 149.688 1431.99 Q149.688 1440.71 146.609 1445.32 Q143.554 1449.9 137.743 1449.9 Q131.933 1449.9 128.855 1445.32 Q125.799 1440.71 125.799 1431.99 Q125.799 1423.24 128.855 1418.65 Q131.933 1414.05 137.743 1414.05 Z" fill="#000000" fill-rule="evenodd" fill-opacity="1" /><path clip-path="url(#clip250)" d="M 0 0 M154.757 1443.35 L159.641 1443.35 L159.641 1449.23 L154.757 1449.23 L154.757 1443.35 Z" fill="#000000" fill-rule="evenodd" fill-opacity="1" /><path clip-path="url(#clip250)" d="M 0 0 M174.711 1417.75 Q171.1 1417.75 169.271 1421.32 Q167.465 1424.86 167.465 1431.99 Q167.465 1439.09 169.271 1442.66 Q171.1 1446.2 174.711 1446.2 Q178.345 1446.2 180.151 1442.66 Q181.979 1439.09 181.979 1431.99 Q181.979 1424.86 180.151 1421.32 Q178.345 1417.75 174.711 1417.75 M174.711 1414.05 Q180.521 1414.05 183.576 1418.65 Q186.655 1423.24 186.655 1431.99 Q186.655 1440.71 183.576 1445.32 Q180.521 1449.9 174.711 1449.9 Q168.901 1449.9 165.822 1445.32 Q162.766 1440.71 162.766 1431.99 Q162.766 1423.24 165.822 1418.65 Q168.901 1414.05 174.711 1414.05 Z" fill="#000000" fill-rule="evenodd" fill-opacity="1" /><path clip-path="url(#clip250)" d="M 0 0 M201.725 1417.75 Q198.113 1417.75 196.285 1421.32 Q194.479 1424.86 194.479 1431.99 Q194.479 1439.09 196.285 1442.66 Q198.113 1446.2 201.725 1446.2 Q205.359 1446.2 207.164 1442.66 Q208.993 1439.09 208.993 1431.99 Q208.993 1424.86 207.164 1421.32 Q205.359 1417.75 201.725 1417.75 M201.725 1414.05 Q207.535 1414.05 210.59 1418.65 Q213.669 1423.24 213.669 1431.99 Q213.669 1440.71 210.59 1445.32 Q207.535 1449.9 201.725 1449.9 Q195.914 1449.9 192.836 1445.32 Q189.78 1440.71 189.78 1431.99 Q189.78 1423.24 192.836 1418.65 Q195.914 1414.05 201.725 1414.05 Z" fill="#000000" fill-rule="evenodd" fill-opacity="1" /><path clip-path="url(#clip250)" d="M 0 0 M140.336 1071.91 Q136.725 1071.91 134.896 1075.47 Q133.091 1079.01 133.091 1086.14 Q133.091 1093.25 134.896 1096.82 Q136.725 1100.36 140.336 1100.36 Q143.97 1100.36 145.776 1096.82 Q147.604 1093.25 147.604 1086.14 Q147.604 1079.01 145.776 1075.47 Q143.97 1071.91 140.336 1071.91 M140.336 1068.2 Q146.146 1068.2 149.202 1072.81 Q152.28 1077.39 152.28 1086.14 Q152.28 1094.87 149.202 1099.48 Q146.146 1104.06 140.336 1104.06 Q134.526 1104.06 131.447 1099.48 Q128.392 1094.87 128.392 1086.14 Q128.392 1077.39 131.447 1072.81 Q134.526 1068.2 140.336 1068.2 Z" fill="#000000" fill-rule="evenodd" fill-opacity="1" /><path clip-path="url(#clip250)" d="M 0 0 M157.35 1097.51 L162.234 1097.51 L162.234 1103.39 L157.35 1103.39 L157.35 1097.51 Z" fill="#000000" fill-rule="evenodd" fill-opacity="1" /><path clip-path="url(#clip250)" d="M 0 0 M171.331 1099.45 L187.651 1099.45 L187.651 1103.39 L165.706 1103.39 L165.706 1099.45 Q168.368 1096.7 172.952 1092.07 Q177.558 1087.42 178.739 1086.07 Q180.984 1083.55 181.863 1081.82 Q182.766 1080.06 182.766 1078.37 Q182.766 1075.61 180.822 1073.88 Q178.901 1072.14 175.799 1072.14 Q173.6 1072.14 171.146 1072.9 Q168.715 1073.67 165.938 1075.22 L165.938 1070.5 Q168.762 1069.36 171.215 1068.78 Q173.669 1068.2 175.706 1068.2 Q181.076 1068.2 184.271 1070.89 Q187.465 1073.57 187.465 1078.07 Q187.465 1080.19 186.655 1082.12 Q185.868 1084.01 183.762 1086.61 Q183.183 1087.28 180.081 1090.5 Q176.979 1093.69 171.331 1099.45 Z" fill="#000000" fill-rule="evenodd" fill-opacity="1" /><path clip-path="url(#clip250)" d="M 0 0 M192.766 1068.83 L211.123 1068.83 L211.123 1072.76 L197.049 1072.76 L197.049 1081.24 Q198.067 1080.89 199.086 1080.73 Q200.104 1080.54 201.123 1080.54 Q206.91 1080.54 210.289 1083.71 Q213.669 1086.88 213.669 1092.3 Q213.669 1097.88 210.197 1100.98 Q206.724 1104.06 200.405 1104.06 Q198.229 1104.06 195.961 1103.69 Q193.715 1103.32 191.308 1102.58 L191.308 1097.88 Q193.391 1099.01 195.613 1099.57 Q197.836 1100.13 200.312 1100.13 Q204.317 1100.13 206.655 1098.02 Q208.993 1095.91 208.993 1092.3 Q208.993 1088.69 206.655 1086.58 Q204.317 1084.48 200.312 1084.48 Q198.437 1084.48 196.562 1084.89 Q194.711 1085.31 192.766 1086.19 L192.766 1068.83 Z" fill="#000000" fill-rule="evenodd" fill-opacity="1" /><path clip-path="url(#clip250)" d="M 0 0 M138.739 726.065 Q135.128 726.065 133.299 729.63 Q131.493 733.171 131.493 740.301 Q131.493 747.407 133.299 750.972 Q135.128 754.514 138.739 754.514 Q142.373 754.514 144.179 750.972 Q146.007 747.407 146.007 740.301 Q146.007 733.171 144.179 729.63 Q142.373 726.065 138.739 726.065 M138.739 722.361 Q144.549 722.361 147.604 726.967 Q150.683 731.551 150.683 740.301 Q150.683 749.028 147.604 753.634 Q144.549 758.217 138.739 758.217 Q132.929 758.217 129.85 753.634 Q126.794 749.028 126.794 740.301 Q126.794 731.551 129.85 726.967 Q132.929 722.361 138.739 722.361 Z" fill="#000000" fill-rule="evenodd" fill-opacity="1" /><path clip-path="url(#clip250)" d="M 0 0 M155.753 751.666 L160.637 751.666 L160.637 757.546 L155.753 757.546 L155.753 751.666 Z" fill="#000000" fill-rule="evenodd" fill-opacity="1" /><path clip-path="url(#clip250)" d="M 0 0 M165.752 722.986 L184.109 722.986 L184.109 726.921 L170.035 726.921 L170.035 735.393 Q171.053 735.046 172.072 734.884 Q173.09 734.699 174.109 734.699 Q179.896 734.699 183.276 737.87 Q186.655 741.041 186.655 746.458 Q186.655 752.037 183.183 755.139 Q179.711 758.217 173.391 758.217 Q171.215 758.217 168.947 757.847 Q166.702 757.477 164.294 756.736 L164.294 752.037 Q166.377 753.171 168.6 753.727 Q170.822 754.282 173.299 754.282 Q177.303 754.282 179.641 752.176 Q181.979 750.069 181.979 746.458 Q181.979 742.847 179.641 740.741 Q177.303 738.634 173.299 738.634 Q171.424 738.634 169.549 739.051 Q167.697 739.467 165.752 740.347 L165.752 722.986 Z" fill="#000000" fill-rule="evenodd" fill-opacity="1" /><path clip-path="url(#clip250)" d="M 0 0 M201.725 726.065 Q198.113 726.065 196.285 729.63 Q194.479 733.171 194.479 740.301 Q194.479 747.407 196.285 750.972 Q198.113 754.514 201.725 754.514 Q205.359 754.514 207.164 750.972 Q208.993 747.407 208.993 740.301 Q208.993 733.171 207.164 729.63 Q205.359 726.065 201.725 726.065 M201.725 722.361 Q207.535 722.361 210.59 726.967 Q213.669 731.551 213.669 740.301 Q213.669 749.028 210.59 753.634 Q207.535 758.217 201.725 758.217 Q195.914 758.217 192.836 753.634 Q189.78 749.028 189.78 740.301 Q189.78 731.551 192.836 726.967 Q195.914 722.361 201.725 722.361 Z" fill="#000000" fill-rule="evenodd" fill-opacity="1" /><path clip-path="url(#clip250)" d="M 0 0 M139.641 380.222 Q136.03 380.222 134.202 383.786 Q132.396 387.328 132.396 394.458 Q132.396 401.564 134.202 405.129 Q136.03 408.671 139.641 408.671 Q143.276 408.671 145.081 405.129 Q146.91 401.564 146.91 394.458 Q146.91 387.328 145.081 383.786 Q143.276 380.222 139.641 380.222 M139.641 376.518 Q145.452 376.518 148.507 381.124 Q151.586 385.708 151.586 394.458 Q151.586 403.185 148.507 407.791 Q145.452 412.374 139.641 412.374 Q133.831 412.374 130.753 407.791 Q127.697 403.185 127.697 394.458 Q127.697 385.708 130.753 381.124 Q133.831 376.518 139.641 376.518 Z" fill="#000000" fill-rule="evenodd" fill-opacity="1" /><path clip-path="url(#clip250)" d="M 0 0 M156.655 405.823 L161.54 405.823 L161.54 411.703 L156.655 411.703 L156.655 405.823 Z" fill="#000000" fill-rule="evenodd" fill-opacity="1" /><path clip-path="url(#clip250)" d="M 0 0 M165.428 377.143 L187.651 377.143 L187.651 379.134 L175.104 411.703 L170.22 411.703 L182.026 381.078 L165.428 381.078 L165.428 377.143 Z" fill="#000000" fill-rule="evenodd" fill-opacity="1" /><path clip-path="url(#clip250)" d="M 0 0 M192.766 377.143 L211.123 377.143 L211.123 381.078 L197.049 381.078 L197.049 389.55 Q198.067 389.203 199.086 389.041 Q200.104 388.856 201.123 388.856 Q206.91 388.856 210.289 392.027 Q213.669 395.198 213.669 400.615 Q213.669 406.194 210.197 409.296 Q206.724 412.374 200.405 412.374 Q198.229 412.374 195.961 412.004 Q193.715 411.634 191.308 410.893 L191.308 406.194 Q193.391 407.328 195.613 407.884 Q197.836 408.439 200.312 408.439 Q204.317 408.439 206.655 406.333 Q208.993 404.226 208.993 400.615 Q208.993 397.004 206.655 394.898 Q204.317 392.791 200.312 392.791 Q198.437 392.791 196.562 393.208 Q194.711 393.624 192.766 394.504 L192.766 377.143 Z" fill="#000000" fill-rule="evenodd" fill-opacity="1" /><path clip-path="url(#clip250)" d="M 0 0 M129.78 61.9248 L137.419 61.9248 L137.419 35.5592 L129.109 37.2258 L129.109 32.9666 L137.373 31.2999 L142.049 31.2999 L142.049 61.9248 L149.688 61.9248 L149.688 65.8599 L129.78 65.8599 L129.78 61.9248 Z" fill="#000000" fill-rule="evenodd" fill-opacity="1" /><path clip-path="url(#clip250)" d="M 0 0 M154.757 59.9803 L159.641 59.9803 L159.641 65.8599 L154.757 65.8599 L154.757 59.9803 Z" fill="#000000" fill-rule="evenodd" fill-opacity="1" /><path clip-path="url(#clip250)" d="M 0 0 M174.711 34.3786 Q171.1 34.3786 169.271 37.9434 Q167.465 41.4851 167.465 48.6147 Q167.465 55.7211 169.271 59.2859 Q171.1 62.8275 174.711 62.8275 Q178.345 62.8275 180.151 59.2859 Q181.979 55.7211 181.979 48.6147 Q181.979 41.4851 180.151 37.9434 Q178.345 34.3786 174.711 34.3786 M174.711 30.6749 Q180.521 30.6749 183.576 35.2814 Q186.655 39.8647 186.655 48.6147 Q186.655 57.3415 183.576 61.9479 Q180.521 66.5312 174.711 66.5312 Q168.901 66.5312 165.822 61.9479 Q162.766 57.3415 162.766 48.6147 Q162.766 39.8647 165.822 35.2814 Q168.901 30.6749 174.711 30.6749 Z" fill="#000000" fill-rule="evenodd" fill-opacity="1" /><path clip-path="url(#clip250)" d="M 0 0 M201.725 34.3786 Q198.113 34.3786 196.285 37.9434 Q194.479 41.4851 194.479 48.6147 Q194.479 55.7211 196.285 59.2859 Q198.113 62.8275 201.725 62.8275 Q205.359 62.8275 207.164 59.2859 Q208.993 55.7211 208.993 48.6147 Q208.993 41.4851 207.164 37.9434 Q205.359 34.3786 201.725 34.3786 M201.725 30.6749 Q207.535 30.6749 210.59 35.2814 Q213.669 39.8647 213.669 48.6147 Q213.669 57.3415 210.59 61.9479 Q207.535 66.5312 201.725 66.5312 Q195.914 66.5312 192.836 61.9479 Q189.78 57.3415 189.78 48.6147 Q189.78 39.8647 192.836 35.2814 Q195.914 30.6749 201.725 30.6749 Z" fill="#000000" fill-rule="evenodd" fill-opacity="1" /><path clip-path="url(#clip250)" d="M 0 0 M1309.37 1527.48 Q1309.37 1529.28 1308.25 1530.31 Q1307.12 1531.31 1305.83 1531.31 Q1304.61 1531.31 1303.96 1530.6 Q1303.32 1529.89 1303.32 1528.99 Q1303.32 1527.77 1304.22 1526.7 Q1305.12 1525.64 1306.47 1525.42 Q1305.15 1524.58 1303.19 1524.58 Q1301.9 1524.58 1300.77 1525.26 Q1299.68 1525.93 1299 1526.8 Q1298.36 1527.67 1297.78 1528.93 Q1297.23 1530.15 1297.01 1530.89 Q1296.81 1531.6 1296.65 1532.37 L1294.4 1541.39 Q1293.3 1545.67 1293.3 1547.19 Q1293.3 1549.06 1294.2 1550.31 Q1295.11 1551.54 1296.91 1551.54 Q1297.62 1551.54 1298.42 1551.34 Q1299.23 1551.12 1300.26 1550.54 Q1301.32 1549.93 1302.25 1549.02 Q1303.22 1548.09 1304.16 1546.51 Q1305.09 1544.93 1305.7 1542.9 Q1305.89 1542.2 1306.54 1542.2 Q1307.34 1542.2 1307.34 1542.84 Q1307.34 1543.39 1306.89 1544.55 Q1306.47 1545.67 1305.54 1547.16 Q1304.64 1548.6 1303.45 1549.93 Q1302.25 1551.21 1300.48 1552.12 Q1298.71 1553.02 1296.78 1553.02 Q1294.01 1553.02 1292.17 1551.54 Q1290.34 1550.05 1289.66 1547.99 Q1289.5 1548.28 1289.28 1548.67 Q1289.05 1549.06 1288.37 1549.93 Q1287.73 1550.76 1286.99 1551.41 Q1286.25 1552.02 1285.09 1552.5 Q1283.96 1553.02 1282.74 1553.02 Q1281.19 1553.02 1279.81 1552.57 Q1278.45 1552.12 1277.49 1551.08 Q1276.52 1550.05 1276.52 1548.64 Q1276.52 1547.06 1277.59 1545.96 Q1278.68 1544.84 1280.16 1544.84 Q1281.1 1544.84 1281.84 1545.38 Q1282.61 1545.93 1282.61 1547.12 Q1282.61 1548.44 1281.71 1549.44 Q1280.81 1550.44 1279.52 1550.7 Q1280.84 1551.54 1282.8 1551.54 Q1284.93 1551.54 1286.6 1549.67 Q1288.28 1547.8 1289.08 1544.68 Q1291.08 1537.17 1291.85 1533.82 Q1292.63 1530.44 1292.63 1528.99 Q1292.63 1527.64 1292.27 1526.7 Q1291.92 1525.77 1291.3 1525.35 Q1290.73 1524.9 1290.18 1524.74 Q1289.66 1524.58 1289.08 1524.58 Q1288.12 1524.58 1287.02 1524.97 Q1285.96 1525.35 1284.67 1526.25 Q1283.41 1527.12 1282.22 1528.93 Q1281.03 1530.73 1280.23 1533.21 Q1280.07 1533.95 1279.36 1533.95 Q1278.58 1533.92 1278.58 1533.27 Q1278.58 1532.73 1279 1531.6 Q1279.45 1530.44 1280.35 1528.99 Q1281.29 1527.54 1282.48 1526.25 Q1283.7 1524.93 1285.48 1524.03 Q1287.28 1523.13 1289.21 1523.13 Q1290.08 1523.13 1290.92 1523.32 Q1291.79 1523.48 1292.82 1523.97 Q1293.88 1524.45 1294.82 1525.51 Q1295.75 1526.58 1296.33 1528.12 Q1296.72 1527.38 1297.23 1526.67 Q1297.78 1525.96 1298.62 1525.09 Q1299.49 1524.19 1300.68 1523.68 Q1301.9 1523.13 1303.25 1523.13 Q1304.57 1523.13 1305.86 1523.48 Q1307.15 1523.81 1308.25 1524.87 Q1309.37 1525.9 1309.37 1527.48 Z" fill="#000000" fill-rule="evenodd" fill-opacity="1" /><path clip-path="url(#clip250)" d="M 0 0 M60.8835 732.781 Q61.3344 732.781 62.3972 733.071 L87.5821 739.384 Q93.186 740.768 97.1151 745.277 Q101.044 749.754 101.044 754.842 Q101.044 757.902 99.4017 759.866 Q97.7914 761.831 95.3115 761.831 Q93.1216 761.831 92.0588 760.672 Q91.0282 759.512 91.0282 758.127 Q91.0282 757.676 91.157 757.193 Q91.2858 756.71 91.8333 756.195 Q92.3808 755.68 93.3148 755.68 Q94.8285 755.68 96.0201 757 Q96.5676 757.644 96.6964 758.256 Q96.8252 758.836 96.8252 759.834 Q97.727 759.448 98.3389 758.739 Q98.9508 758.031 99.1763 757.226 Q99.4339 756.42 99.4983 755.905 Q99.5949 755.358 99.5949 754.842 Q99.5949 750.72 95.4404 747.564 Q94.1843 746.63 92.9283 745.953 Q91.7045 745.245 90.1908 744.73 Q88.7093 744.214 87.9042 743.989 Q87.0991 743.731 85.2633 743.28 Q88.2585 746.276 88.2585 749.947 Q88.2585 751.493 87.8398 752.878 Q87.4211 754.23 86.5516 755.422 Q85.6498 756.614 84.0717 757.322 Q82.4936 757.998 80.4002 757.998 Q78.178 757.998 75.1507 757.129 Q72.1233 756.259 66.5517 754.166 Q63.4277 753.039 61.9141 753.039 Q61.1733 753.039 60.7225 753.2 Q60.2394 753.361 60.0783 753.683 Q59.8851 754.005 59.8529 754.198 Q59.8207 754.359 59.8207 754.681 Q59.8207 756.581 61.753 758.353 Q63.6854 760.124 68.001 761.348 Q68.8061 761.606 68.9994 761.767 Q69.1926 761.928 69.1926 762.411 Q69.1604 763.216 68.5163 763.216 Q68.2586 763.216 67.2602 762.926 Q66.2297 762.636 64.716 761.96 Q63.1701 761.251 61.7852 760.285 Q60.3682 759.319 59.3698 757.805 Q58.3714 756.259 58.3714 754.488 Q58.3714 752.073 59.9495 750.591 Q61.4954 749.077 63.782 749.077 Q64.716 749.077 65.5533 749.335 Q66.3585 749.561 68.5163 750.398 Q77.2119 753.78 81.463 753.78 Q82.4936 753.78 83.3632 753.618 Q84.2005 753.425 85.0379 753.007 Q85.843 752.588 86.3261 751.751 Q86.777 750.881 86.777 749.689 Q86.777 748.176 86.0685 746.759 Q85.3277 745.309 84.3294 744.408 Q83.331 743.474 82.4936 742.926 Q81.6241 742.346 81.1732 742.218 L69.3214 739.255 L64.0397 737.934 Q61.1733 737.322 60.4648 737.032 Q59.7885 736.646 59.4342 735.97 Q59.08 735.293 59.08 734.714 Q59.08 733.909 59.563 733.361 Q60.0461 732.781 60.8835 732.781 Z" fill="#000000" fill-rule="evenodd" fill-opacity="1" /><polyline clip-path="url(#clip252)" style="stroke:#009af9; stroke-width:4; stroke-opacity:1; fill:none" points="
  297.53,151.454 519.237,285.123 740.944,968.652 962.652,774.678 1184.36,1237.04 1406.07,660.093 1627.77,86.8647 1849.48,230.483 2071.19,210.868 2292.89,1407.55 
  
  "/>
<path clip-path="url(#clip250)" d="
M1989.74 251.724 L2280.76 251.724 L2280.76 130.764 L1989.74 130.764  Z
  " fill="#ffffff" fill-rule="evenodd" fill-opacity="1"/>
<polyline clip-path="url(#clip250)" style="stroke:#000000; stroke-width:4; stroke-opacity:1; fill:none" points="
  1989.74,251.724 2280.76,251.724 2280.76,130.764 1989.74,130.764 1989.74,251.724 
  "/>
<polyline clip-path="url(#clip250)" style="stroke:#009af9; stroke-width:4; stroke-opacity:1; fill:none" points="
  2013.74,191.244 2157.74,191.244 
  "/>
<path clip-path="url(#clip250)" d="M 0 0 M2195.58 210.931 Q2193.77 215.561 2192.06 216.973 Q2190.35 218.385 2187.48 218.385 L2184.08 218.385 L2184.08 214.82 L2186.58 214.82 Q2188.33 214.82 2189.31 213.987 Q2190.28 213.154 2191.46 210.052 L2192.22 208.107 L2181.74 182.598 L2186.25 182.598 L2194.35 202.876 L2202.46 182.598 L2206.97 182.598 L2195.58 210.931 Z" fill="#000000" fill-rule="evenodd" fill-opacity="1" /><path clip-path="url(#clip250)" d="M 0 0 M2212.85 204.589 L2220.49 204.589 L2220.49 178.223 L2212.18 179.89 L2212.18 175.631 L2220.44 173.964 L2225.12 173.964 L2225.12 204.589 L2232.76 204.589 L2232.76 208.524 L2212.85 208.524 L2212.85 204.589 Z" fill="#000000" fill-rule="evenodd" fill-opacity="1" /></svg>
