<?xml version="1.0" encoding="utf-8"?>
<svg xmlns="http://www.w3.org/2000/svg" xmlns:xlink="http://www.w3.org/1999/xlink" width="600" height="400" viewBox="0 0 2400 1600">
<defs>
  <clipPath id="clip4900">
    <rect x="0" y="0" width="2400" height="1600"/>
  </clipPath>
</defs>
<path clip-path="url(#clip4900)" d="
M0 1600 L2400 1600 L2400 0 L0 0  Z
  " fill="#ffffff" fill-rule="evenodd" fill-opacity="1"/>
<defs>
  <clipPath id="clip4901">
    <rect x="480" y="0" width="1681" height="1600"/>
  </clipPath>
</defs>
<path clip-path="url(#clip4900)" d="
M226.671 1406.36 L2352.76 1406.36 L2352.76 47.2441 L226.671 47.2441  Z
  " fill="#ffffff" fill-rule="evenodd" fill-opacity="1"/>
<defs>
  <clipPath id="clip4902">
    <rect x="226" y="47" width="2127" height="1360"/>
  </clipPath>
</defs>
<polyline clip-path="url(#clip4902)" style="stroke:#000000; stroke-width:2; stroke-opacity:0.1; fill:none" points="
  509.703,1406.36 509.703,47.2441 
  "/>
<polyline clip-path="url(#clip4902)" style="stroke:#000000; stroke-width:2; stroke-opacity:0.1; fill:none" points="
  955.423,1406.36 955.423,47.2441 
  "/>
<polyline clip-path="url(#clip4902)" style="stroke:#000000; stroke-width:2; stroke-opacity:0.1; fill:none" points="
  1401.14,1406.36 1401.14,47.2441 
  "/>
<polyline clip-path="url(#clip4902)" style="stroke:#000000; stroke-width:2; stroke-opacity:0.1; fill:none" points="
  1846.86,1406.36 1846.86,47.2441 
  "/>
<polyline clip-path="url(#clip4902)" style="stroke:#000000; stroke-width:2; stroke-opacity:0.1; fill:none" points="
  2292.58,1406.36 2292.58,47.2441 
  "/>
<polyline clip-path="url(#clip4902)" style="stroke:#000000; stroke-width:2; stroke-opacity:0.1; fill:none" points="
  226.671,1136.37 2352.76,1136.37 
  "/>
<polyline clip-path="url(#clip4902)" style="stroke:#000000; stroke-width:2; stroke-opacity:0.1; fill:none" points="
  226.671,865.928 2352.76,865.928 
  "/>
<polyline clip-path="url(#clip4902)" style="stroke:#000000; stroke-width:2; stroke-opacity:0.1; fill:none" points="
  226.671,595.488 2352.76,595.488 
  "/>
<polyline clip-path="url(#clip4902)" style="stroke:#000000; stroke-width:2; stroke-opacity:0.1; fill:none" points="
  226.671,325.049 2352.76,325.049 
  "/>
<polyline clip-path="url(#clip4902)" style="stroke:#000000; stroke-width:2; stroke-opacity:0.1; fill:none" points="
  226.671,54.609 2352.76,54.609 
  "/>
<polyline clip-path="url(#clip4900)" style="stroke:#000000; stroke-width:4; stroke-opacity:1; fill:none" points="
  226.671,1406.36 2352.76,1406.36 
  "/>
<polyline clip-path="url(#clip4900)" style="stroke:#000000; stroke-width:4; stroke-opacity:1; fill:none" points="
  226.671,1406.36 226.671,47.2441 
  "/>
<polyline clip-path="url(#clip4900)" style="stroke:#000000; stroke-width:4; stroke-opacity:1; fill:none" points="
  509.703,1406.36 509.703,1390.05 
  "/>
<polyline clip-path="url(#clip4900)" style="stroke:#000000; stroke-width:4; stroke-opacity:1; fill:none" points="
  955.423,1406.36 955.423,1390.05 
  "/>
<polyline clip-path="url(#clip4900)" style="stroke:#000000; stroke-width:4; stroke-opacity:1; fill:none" points="
  1401.14,1406.36 1401.14,1390.05 
  "/>
<polyline clip-path="url(#clip4900)" style="stroke:#000000; stroke-width:4; stroke-opacity:1; fill:none" points="
  1846.86,1406.36 1846.86,1390.05 
  "/>
<polyline clip-path="url(#clip4900)" style="stroke:#000000; stroke-width:4; stroke-opacity:1; fill:none" points="
  2292.58,1406.36 2292.58,1390.05 
  "/>
<polyline clip-path="url(#clip4900)" style="stroke:#000000; stroke-width:4; stroke-opacity:1; fill:none" points="
  226.671,1136.37 252.184,1136.37 
  "/>
<polyline clip-path="url(#clip4900)" style="stroke:#000000; stroke-width:4; stroke-opacity:1; fill:none" points="
  226.671,865.928 252.184,865.928 
  "/>
<polyline clip-path="url(#clip4900)" style="stroke:#000000; stroke-width:4; stroke-opacity:1; fill:none" points="
  226.671,595.488 252.184,595.488 
  "/>
<polyline clip-path="url(#clip4900)" style="stroke:#000000; stroke-width:4; stroke-opacity:1; fill:none" points="
  226.671,325.049 252.184,325.049 
  "/>
<polyline clip-path="url(#clip4900)" style="stroke:#000000; stroke-width:4; stroke-opacity:1; fill:none" points="
  226.671,54.609 252.184,54.609 
  "/>
<path clip-path="url(#clip4900)" d="M 0 0 M504.356 1455.9 L520.675 1455.9 L520.675 1459.83 L498.731 1459.83 L498.731 1455.9 Q501.393 1453.14 505.976 1448.51 Q510.583 1443.86 511.763 1442.52 Q514.009 1440 514.888 1438.26 Q515.791 1436.5 515.791 1434.81 Q515.791 1432.06 513.846 1430.32 Q511.925 1428.58 508.823 1428.58 Q506.624 1428.58 504.171 1429.35 Q501.74 1430.11 498.962 1431.66 L498.962 1426.94 Q501.786 1425.81 504.24 1425.23 Q506.694 1424.65 508.731 1424.65 Q514.101 1424.65 517.296 1427.33 Q520.49 1430.02 520.49 1434.51 Q520.49 1436.64 519.68 1438.56 Q518.893 1440.46 516.786 1443.05 Q516.208 1443.72 513.106 1446.94 Q510.004 1450.13 504.356 1455.9 Z" fill="#000000" fill-rule="evenodd" fill-opacity="1" /><path clip-path="url(#clip4900)" d="M 0 0 M958.432 1429.35 L946.627 1447.8 L958.432 1447.8 L958.432 1429.35 M957.206 1425.27 L963.085 1425.27 L963.085 1447.8 L968.016 1447.8 L968.016 1451.68 L963.085 1451.68 L963.085 1459.83 L958.432 1459.83 L958.432 1451.68 L942.831 1451.68 L942.831 1447.17 L957.206 1425.27 Z" fill="#000000" fill-rule="evenodd" fill-opacity="1" /><path clip-path="url(#clip4900)" d="M 0 0 M1401.55 1440.69 Q1398.4 1440.69 1396.55 1442.84 Q1394.72 1445 1394.72 1448.75 Q1394.72 1452.47 1396.55 1454.65 Q1398.4 1456.8 1401.55 1456.8 Q1404.7 1456.8 1406.53 1454.65 Q1408.38 1452.47 1408.38 1448.75 Q1408.38 1445 1406.53 1442.84 Q1404.7 1440.69 1401.55 1440.69 M1410.83 1426.04 L1410.83 1430.3 Q1409.07 1429.46 1407.27 1429.02 Q1405.48 1428.58 1403.72 1428.58 Q1399.09 1428.58 1396.64 1431.71 Q1394.21 1434.83 1393.86 1441.15 Q1395.23 1439.14 1397.29 1438.07 Q1399.35 1436.99 1401.83 1436.99 Q1407.03 1436.99 1410.04 1440.16 Q1413.08 1443.31 1413.08 1448.75 Q1413.08 1454.07 1409.93 1457.29 Q1406.78 1460.5 1401.55 1460.5 Q1395.55 1460.5 1392.38 1455.92 Q1389.21 1451.31 1389.21 1442.59 Q1389.21 1434.39 1393.1 1429.53 Q1396.99 1424.65 1403.54 1424.65 Q1405.3 1424.65 1407.08 1425 Q1408.89 1425.34 1410.83 1426.04 Z" fill="#000000" fill-rule="evenodd" fill-opacity="1" /><path clip-path="url(#clip4900)" d="M 0 0 M1846.86 1443.42 Q1843.53 1443.42 1841.61 1445.2 Q1839.71 1446.99 1839.71 1450.11 Q1839.71 1453.24 1841.61 1455.02 Q1843.53 1456.8 1846.86 1456.8 Q1850.2 1456.8 1852.12 1455.02 Q1854.04 1453.21 1854.04 1450.11 Q1854.04 1446.99 1852.12 1445.2 Q1850.22 1443.42 1846.86 1443.42 M1842.19 1441.43 Q1839.18 1440.69 1837.49 1438.63 Q1835.82 1436.57 1835.82 1433.61 Q1835.82 1429.46 1838.76 1427.06 Q1841.72 1424.65 1846.86 1424.65 Q1852.03 1424.65 1854.97 1427.06 Q1857.91 1429.46 1857.91 1433.61 Q1857.91 1436.57 1856.22 1438.63 Q1854.55 1440.69 1851.56 1441.43 Q1854.94 1442.22 1856.82 1444.51 Q1858.72 1446.8 1858.72 1450.11 Q1858.72 1455.13 1855.64 1457.82 Q1852.58 1460.5 1846.86 1460.5 Q1841.15 1460.5 1838.07 1457.82 Q1835.01 1455.13 1835.01 1450.11 Q1835.01 1446.8 1836.91 1444.51 Q1838.81 1442.22 1842.19 1441.43 M1840.47 1434.05 Q1840.47 1436.73 1842.14 1438.24 Q1843.83 1439.74 1846.86 1439.74 Q1849.87 1439.74 1851.56 1438.24 Q1853.28 1436.73 1853.28 1434.05 Q1853.28 1431.36 1851.56 1429.86 Q1849.87 1428.35 1846.86 1428.35 Q1843.83 1428.35 1842.14 1429.86 Q1840.47 1431.36 1840.47 1434.05 Z" fill="#000000" fill-rule="evenodd" fill-opacity="1" /><path clip-path="url(#clip4900)" d="M 0 0 M2269.46 1455.9 L2277.1 1455.9 L2277.1 1429.53 L2268.79 1431.2 L2268.79 1426.94 L2277.05 1425.27 L2281.73 1425.27 L2281.73 1455.9 L2289.37 1455.9 L2289.37 1459.83 L2269.46 1459.83 L2269.46 1455.9 Z" fill="#000000" fill-rule="evenodd" fill-opacity="1" /><path clip-path="url(#clip4900)" d="M 0 0 M2304.44 1428.35 Q2300.82 1428.35 2299 1431.92 Q2297.19 1435.46 2297.19 1442.59 Q2297.19 1449.69 2299 1453.26 Q2300.82 1456.8 2304.44 1456.8 Q2308.07 1456.8 2309.88 1453.26 Q2311.7 1449.69 2311.7 1442.59 Q2311.7 1435.46 2309.88 1431.92 Q2308.07 1428.35 2304.44 1428.35 M2304.44 1424.65 Q2310.25 1424.65 2313.3 1429.25 Q2316.38 1433.84 2316.38 1442.59 Q2316.38 1451.31 2313.3 1455.92 Q2310.25 1460.5 2304.44 1460.5 Q2298.63 1460.5 2295.55 1455.92 Q2292.49 1451.31 2292.49 1442.59 Q2292.49 1433.84 2295.55 1429.25 Q2298.63 1424.65 2304.44 1424.65 Z" fill="#000000" fill-rule="evenodd" fill-opacity="1" /><path clip-path="url(#clip4900)" d="M 0 0 M155.356 1122.17 Q151.745 1122.17 149.916 1125.73 Q148.111 1129.27 148.111 1136.4 Q148.111 1143.51 149.916 1147.07 Q151.745 1150.62 155.356 1150.62 Q158.99 1150.62 160.796 1147.07 Q162.625 1143.51 162.625 1136.4 Q162.625 1129.27 160.796 1125.73 Q158.99 1122.17 155.356 1122.17 M155.356 1118.46 Q161.166 1118.46 164.222 1123.07 Q167.3 1127.65 167.3 1136.4 Q167.3 1145.13 164.222 1149.74 Q161.166 1154.32 155.356 1154.32 Q149.546 1154.32 146.467 1149.74 Q143.412 1145.13 143.412 1136.4 Q143.412 1127.65 146.467 1123.07 Q149.546 1118.46 155.356 1118.46 Z" fill="#000000" fill-rule="evenodd" fill-opacity="1" /><path clip-path="url(#clip4900)" d="M 0 0 M172.37 1147.77 L177.254 1147.77 L177.254 1153.65 L172.37 1153.65 L172.37 1147.77 Z" fill="#000000" fill-rule="evenodd" fill-opacity="1" /><path clip-path="url(#clip4900)" d="M 0 0 M186.351 1149.71 L202.671 1149.71 L202.671 1153.65 L180.726 1153.65 L180.726 1149.71 Q183.388 1146.96 187.972 1142.33 Q192.578 1137.68 193.759 1136.33 Q196.004 1133.81 196.884 1132.07 Q197.786 1130.31 197.786 1128.62 Q197.786 1125.87 195.842 1124.13 Q193.921 1122.4 190.819 1122.4 Q188.62 1122.4 186.166 1123.16 Q183.736 1123.93 180.958 1125.48 L180.958 1120.75 Q183.782 1119.62 186.236 1119.04 Q188.689 1118.46 190.726 1118.46 Q196.097 1118.46 199.291 1121.15 Q202.485 1123.83 202.485 1128.32 Q202.485 1130.45 201.675 1132.37 Q200.888 1134.27 198.782 1136.87 Q198.203 1137.54 195.101 1140.75 Q191.999 1143.95 186.351 1149.71 Z" fill="#000000" fill-rule="evenodd" fill-opacity="1" /><path clip-path="url(#clip4900)" d="M 0 0 M153.273 851.727 Q149.662 851.727 147.833 855.291 Q146.027 858.833 146.027 865.963 Q146.027 873.069 147.833 876.634 Q149.662 880.175 153.273 880.175 Q156.907 880.175 158.713 876.634 Q160.541 873.069 160.541 865.963 Q160.541 858.833 158.713 855.291 Q156.907 851.727 153.273 851.727 M153.273 848.023 Q159.083 848.023 162.138 852.629 Q165.217 857.213 165.217 865.963 Q165.217 874.689 162.138 879.296 Q159.083 883.879 153.273 883.879 Q147.463 883.879 144.384 879.296 Q141.328 874.689 141.328 865.963 Q141.328 857.213 144.384 852.629 Q147.463 848.023 153.273 848.023 Z" fill="#000000" fill-rule="evenodd" fill-opacity="1" /><path clip-path="url(#clip4900)" d="M 0 0 M170.287 877.328 L175.171 877.328 L175.171 883.208 L170.287 883.208 L170.287 877.328 Z" fill="#000000" fill-rule="evenodd" fill-opacity="1" /><path clip-path="url(#clip4900)" d="M 0 0 M193.087 852.722 L181.282 871.171 L193.087 871.171 L193.087 852.722 M191.861 848.648 L197.74 848.648 L197.74 871.171 L202.671 871.171 L202.671 875.06 L197.74 875.06 L197.74 883.208 L193.087 883.208 L193.087 875.06 L177.486 875.06 L177.486 870.546 L191.861 848.648 Z" fill="#000000" fill-rule="evenodd" fill-opacity="1" /><path clip-path="url(#clip4900)" d="M 0 0 M153.597 581.287 Q149.986 581.287 148.157 584.852 Q146.352 588.393 146.352 595.523 Q146.352 602.629 148.157 606.194 Q149.986 609.736 153.597 609.736 Q157.231 609.736 159.037 606.194 Q160.865 602.629 160.865 595.523 Q160.865 588.393 159.037 584.852 Q157.231 581.287 153.597 581.287 M153.597 577.583 Q159.407 577.583 162.463 582.19 Q165.541 586.773 165.541 595.523 Q165.541 604.25 162.463 608.856 Q159.407 613.44 153.597 613.44 Q147.787 613.44 144.708 608.856 Q141.652 604.25 141.652 595.523 Q141.652 586.773 144.708 582.19 Q147.787 577.583 153.597 577.583 Z" fill="#000000" fill-rule="evenodd" fill-opacity="1" /><path clip-path="url(#clip4900)" d="M 0 0 M170.611 606.889 L175.495 606.889 L175.495 612.768 L170.611 612.768 L170.611 606.889 Z" fill="#000000" fill-rule="evenodd" fill-opacity="1" /><path clip-path="url(#clip4900)" d="M 0 0 M191.143 593.625 Q187.995 593.625 186.143 595.778 Q184.314 597.93 184.314 601.68 Q184.314 605.407 186.143 607.583 Q187.995 609.736 191.143 609.736 Q194.291 609.736 196.12 607.583 Q197.972 605.407 197.972 601.68 Q197.972 597.93 196.12 595.778 Q194.291 593.625 191.143 593.625 M200.425 578.972 L200.425 583.231 Q198.666 582.398 196.861 581.958 Q195.078 581.518 193.319 581.518 Q188.689 581.518 186.236 584.643 Q183.805 587.768 183.458 594.088 Q184.824 592.074 186.884 591.009 Q188.944 589.921 191.421 589.921 Q196.629 589.921 199.638 593.092 Q202.671 596.241 202.671 601.68 Q202.671 607.004 199.523 610.222 Q196.374 613.44 191.143 613.44 Q185.148 613.44 181.976 608.856 Q178.805 604.25 178.805 595.523 Q178.805 587.329 182.694 582.467 Q186.583 577.583 193.134 577.583 Q194.893 577.583 196.675 577.93 Q198.481 578.278 200.425 578.972 Z" fill="#000000" fill-rule="evenodd" fill-opacity="1" /><path clip-path="url(#clip4900)" d="M 0 0 M153.851 310.847 Q150.24 310.847 148.412 314.412 Q146.606 317.954 146.606 325.083 Q146.606 332.19 148.412 335.755 Q150.24 339.296 153.851 339.296 Q157.486 339.296 159.291 335.755 Q161.12 332.19 161.12 325.083 Q161.12 317.954 159.291 314.412 Q157.486 310.847 153.851 310.847 M153.851 307.144 Q159.662 307.144 162.717 311.75 Q165.796 316.333 165.796 325.083 Q165.796 333.81 162.717 338.417 Q159.662 343 153.851 343 Q148.041 343 144.963 338.417 Q141.907 333.81 141.907 325.083 Q141.907 316.333 144.963 311.75 Q148.041 307.144 153.851 307.144 Z" fill="#000000" fill-rule="evenodd" fill-opacity="1" /><path clip-path="url(#clip4900)" d="M 0 0 M170.865 336.449 L175.75 336.449 L175.75 342.329 L170.865 342.329 L170.865 336.449 Z" fill="#000000" fill-rule="evenodd" fill-opacity="1" /><path clip-path="url(#clip4900)" d="M 0 0 M190.819 325.917 Q187.486 325.917 185.564 327.699 Q183.666 329.481 183.666 332.606 Q183.666 335.731 185.564 337.514 Q187.486 339.296 190.819 339.296 Q194.152 339.296 196.073 337.514 Q197.995 335.708 197.995 332.606 Q197.995 329.481 196.073 327.699 Q194.175 325.917 190.819 325.917 M186.143 323.926 Q183.134 323.185 181.444 321.125 Q179.777 319.065 179.777 316.102 Q179.777 311.958 182.717 309.551 Q185.68 307.144 190.819 307.144 Q195.981 307.144 198.921 309.551 Q201.86 311.958 201.86 316.102 Q201.86 319.065 200.171 321.125 Q198.504 323.185 195.518 323.926 Q198.898 324.713 200.773 327.005 Q202.671 329.296 202.671 332.606 Q202.671 337.63 199.592 340.315 Q196.536 343 190.819 343 Q185.101 343 182.023 340.315 Q178.967 337.63 178.967 332.606 Q178.967 329.296 180.865 327.005 Q182.763 324.713 186.143 323.926 M184.43 316.542 Q184.43 319.227 186.097 320.732 Q187.786 322.236 190.819 322.236 Q193.828 322.236 195.518 320.732 Q197.231 319.227 197.231 316.542 Q197.231 313.857 195.518 312.352 Q193.828 310.847 190.819 310.847 Q187.786 310.847 186.097 312.352 Q184.43 313.857 184.43 316.542 Z" fill="#000000" fill-rule="evenodd" fill-opacity="1" /><path clip-path="url(#clip4900)" d="M 0 0 M145.796 67.9539 L153.435 67.9539 L153.435 41.5883 L145.125 43.2549 L145.125 38.9957 L153.389 37.329 L158.064 37.329 L158.064 67.9539 L165.703 67.9539 L165.703 71.889 L145.796 71.889 L145.796 67.9539 Z" fill="#000000" fill-rule="evenodd" fill-opacity="1" /><path clip-path="url(#clip4900)" d="M 0 0 M170.773 66.0094 L175.657 66.0094 L175.657 71.889 L170.773 71.889 L170.773 66.0094 Z" fill="#000000" fill-rule="evenodd" fill-opacity="1" /><path clip-path="url(#clip4900)" d="M 0 0 M190.726 40.4077 Q187.115 40.4077 185.286 43.9725 Q183.481 47.5142 183.481 54.6438 Q183.481 61.7502 185.286 65.315 Q187.115 68.8567 190.726 68.8567 Q194.361 68.8567 196.166 65.315 Q197.995 61.7502 197.995 54.6438 Q197.995 47.5142 196.166 43.9725 Q194.361 40.4077 190.726 40.4077 M190.726 36.7041 Q196.536 36.7041 199.592 41.3105 Q202.671 45.8938 202.671 54.6438 Q202.671 63.3706 199.592 67.977 Q196.536 72.5603 190.726 72.5603 Q184.916 72.5603 181.837 67.977 Q178.782 63.3706 178.782 54.6438 Q178.782 45.8938 181.837 41.3105 Q184.916 36.7041 190.726 36.7041 Z" fill="#000000" fill-rule="evenodd" fill-opacity="1" /><path clip-path="url(#clip4900)" d="M 0 0 M1303.87 1486.67 Q1303.87 1488.47 1302.75 1489.5 Q1301.62 1490.5 1300.33 1490.5 Q1299.11 1490.5 1298.46 1489.79 Q1297.82 1489.08 1297.82 1488.18 Q1297.82 1486.96 1298.72 1485.9 Q1299.62 1484.83 1300.97 1484.61 Q1299.65 1483.77 1297.69 1483.77 Q1296.4 1483.77 1295.27 1484.45 Q1294.18 1485.12 1293.5 1485.99 Q1292.86 1486.86 1292.28 1488.12 Q1291.73 1489.34 1291.51 1490.08 Q1291.31 1490.79 1291.15 1491.56 L1288.9 1500.58 Q1287.8 1504.86 1287.8 1506.38 Q1287.8 1508.25 1288.7 1509.5 Q1289.61 1510.73 1291.41 1510.73 Q1292.12 1510.73 1292.92 1510.53 Q1293.73 1510.31 1294.76 1509.73 Q1295.82 1509.12 1296.76 1508.21 Q1297.72 1507.28 1298.66 1505.7 Q1299.59 1504.12 1300.2 1502.09 Q1300.4 1501.39 1301.04 1501.39 Q1301.84 1501.39 1301.84 1502.03 Q1301.84 1502.58 1301.39 1503.74 Q1300.97 1504.86 1300.04 1506.35 Q1299.14 1507.8 1297.95 1509.12 Q1296.76 1510.4 1294.98 1511.31 Q1293.21 1512.21 1291.28 1512.21 Q1288.51 1512.21 1286.68 1510.73 Q1284.84 1509.24 1284.16 1507.18 Q1284 1507.47 1283.78 1507.86 Q1283.55 1508.25 1282.88 1509.12 Q1282.23 1509.95 1281.49 1510.6 Q1280.75 1511.21 1279.59 1511.69 Q1278.46 1512.21 1277.24 1512.21 Q1275.69 1512.21 1274.31 1511.76 Q1272.96 1511.31 1271.99 1510.28 Q1271.02 1509.24 1271.02 1507.83 Q1271.02 1506.25 1272.09 1505.15 Q1273.18 1504.03 1274.66 1504.03 Q1275.6 1504.03 1276.34 1504.57 Q1277.11 1505.12 1277.11 1506.31 Q1277.11 1507.63 1276.21 1508.63 Q1275.31 1509.63 1274.02 1509.89 Q1275.34 1510.73 1277.3 1510.73 Q1279.43 1510.73 1281.1 1508.86 Q1282.78 1506.99 1283.58 1503.87 Q1285.58 1496.36 1286.35 1493.01 Q1287.13 1489.63 1287.13 1488.18 Q1287.13 1486.83 1286.77 1485.9 Q1286.42 1484.96 1285.81 1484.54 Q1285.23 1484.09 1284.68 1483.93 Q1284.16 1483.77 1283.58 1483.77 Q1282.62 1483.77 1281.52 1484.16 Q1280.46 1484.54 1279.17 1485.44 Q1277.92 1486.31 1276.72 1488.12 Q1275.53 1489.92 1274.73 1492.4 Q1274.57 1493.14 1273.86 1493.14 Q1273.08 1493.11 1273.08 1492.47 Q1273.08 1491.92 1273.5 1490.79 Q1273.95 1489.63 1274.86 1488.18 Q1275.79 1486.73 1276.98 1485.44 Q1278.21 1484.12 1279.98 1483.22 Q1281.78 1482.32 1283.71 1482.32 Q1284.58 1482.32 1285.42 1482.51 Q1286.29 1482.67 1287.32 1483.16 Q1288.38 1483.64 1289.32 1484.7 Q1290.25 1485.77 1290.83 1487.31 Q1291.22 1486.57 1291.73 1485.86 Q1292.28 1485.15 1293.12 1484.28 Q1293.99 1483.38 1295.18 1482.87 Q1296.4 1482.32 1297.75 1482.32 Q1299.07 1482.32 1300.36 1482.67 Q1301.65 1483 1302.75 1484.06 Q1303.87 1485.09 1303.87 1486.67 Z" fill="#000000" fill-rule="evenodd" fill-opacity="1" /><path clip-path="url(#clip4900)" d="M 0 0 M76.4129 712.377 Q76.8638 712.377 77.9266 712.666 L103.112 718.979 Q108.715 720.364 112.644 724.872 Q116.574 729.349 116.574 734.438 Q116.574 737.497 114.931 739.462 Q113.321 741.426 110.841 741.426 Q108.651 741.426 107.588 740.267 Q106.558 739.107 106.558 737.723 Q106.558 737.272 106.686 736.789 Q106.815 736.306 107.363 735.79 Q107.91 735.275 108.844 735.275 Q110.358 735.275 111.549 736.595 Q112.097 737.24 112.226 737.851 Q112.355 738.431 112.355 739.43 Q113.256 739.043 113.868 738.335 Q114.48 737.626 114.706 736.821 Q114.963 736.016 115.028 735.5 Q115.124 734.953 115.124 734.438 Q115.124 730.315 110.97 727.159 Q109.714 726.225 108.458 725.549 Q107.234 724.84 105.72 724.325 Q104.239 723.81 103.434 723.584 Q102.628 723.327 100.793 722.876 Q103.788 725.871 103.788 729.542 Q103.788 731.088 103.369 732.473 Q102.951 733.826 102.081 735.017 Q101.179 736.209 99.6011 736.917 Q98.023 737.594 95.9296 737.594 Q93.7074 737.594 90.6801 736.724 Q87.6527 735.855 82.0811 733.761 Q78.9572 732.634 77.4435 732.634 Q76.7027 732.634 76.2519 732.795 Q75.7688 732.956 75.6077 733.278 Q75.4145 733.6 75.3823 733.793 Q75.3501 733.955 75.3501 734.277 Q75.3501 736.177 77.2825 737.948 Q79.2148 739.719 83.5304 740.943 Q84.3355 741.201 84.5288 741.362 Q84.722 741.523 84.722 742.006 Q84.6898 742.811 84.0457 742.811 Q83.788 742.811 82.7897 742.521 Q81.7591 742.231 80.2454 741.555 Q78.6995 740.847 77.3147 739.88 Q75.8976 738.914 74.8992 737.401 Q73.9008 735.855 73.9008 734.083 Q73.9008 731.668 75.4789 730.186 Q77.0248 728.673 79.3114 728.673 Q80.2454 728.673 81.0827 728.93 Q81.8879 729.156 84.0457 729.993 Q92.7413 733.375 96.9924 733.375 Q98.023 733.375 98.8926 733.214 Q99.7299 733.021 100.567 732.602 Q101.372 732.183 101.856 731.346 Q102.306 730.476 102.306 729.285 Q102.306 727.771 101.598 726.354 Q100.857 724.905 99.8588 724.003 Q98.8604 723.069 98.023 722.521 Q97.1535 721.942 96.7026 721.813 L84.8508 718.85 L79.5691 717.53 Q76.7027 716.918 75.9942 716.628 Q75.3179 716.241 74.9636 715.565 Q74.6094 714.889 74.6094 714.309 Q74.6094 713.504 75.0925 712.956 Q75.5755 712.377 76.4129 712.377 Z" fill="#000000" fill-rule="evenodd" fill-opacity="1" /><polyline clip-path="url(#clip4902)" style="stroke:#009af9; stroke-width:4; stroke-opacity:1; fill:none" points="
  286.843,85.7097 509.703,1367.9 732.563,232.032 955.423,819.789 1178.28,1330.27 1401.14,1246.93 1624,1069.22 1846.86,1096.81 2069.72,1340.91 2292.58,373.463 
  
  "/>
<path clip-path="url(#clip4900)" d="
M1989.74 251.724 L2280.76 251.724 L2280.76 130.764 L1989.74 130.764  Z
  " fill="#ffffff" fill-rule="evenodd" fill-opacity="1"/>
<polyline clip-path="url(#clip4900)" style="stroke:#000000; stroke-width:4; stroke-opacity:1; fill:none" points="
  1989.74,251.724 2280.76,251.724 2280.76,130.764 1989.74,130.764 1989.74,251.724 
  "/>
<polyline clip-path="url(#clip4900)" style="stroke:#009af9; stroke-width:4; stroke-opacity:1; fill:none" points="
  2013.74,191.244 2157.74,191.244 
  "/>
<path clip-path="url(#clip4900)" d="M 0 0 M2195.58 210.931 Q2193.77 215.561 2192.06 216.973 Q2190.35 218.385 2187.48 218.385 L2184.08 218.385 L2184.08 214.82 L2186.58 214.82 Q2188.33 214.82 2189.31 213.987 Q2190.28 213.154 2191.46 210.052 L2192.22 208.107 L2181.74 182.598 L2186.25 182.598 L2194.35 202.876 L2202.46 182.598 L2206.97 182.598 L2195.58 210.931 Z" fill="#000000" fill-rule="evenodd" fill-opacity="1" /><path clip-path="url(#clip4900)" d="M 0 0 M2212.85 204.589 L2220.49 204.589 L2220.49 178.223 L2212.18 179.89 L2212.18 175.631 L2220.44 173.964 L2225.12 173.964 L2225.12 204.589 L2232.76 204.589 L2232.76 208.524 L2212.85 208.524 L2212.85 204.589 Z" fill="#000000" fill-rule="evenodd" fill-opacity="1" /></svg>
