<?xml version="1.0" encoding="utf-8"?>
<svg xmlns="http://www.w3.org/2000/svg" xmlns:xlink="http://www.w3.org/1999/xlink" width="600" height="400" viewBox="0 0 2400 1600">
<defs>
  <clipPath id="clip000">
    <rect x="0" y="0" width="2400" height="1600"/>
  </clipPath>
</defs>
<path clip-path="url(#clip000)" d="
M0 1600 L2400 1600 L2400 0 L0 0  Z
  " fill="#ffffff" fill-rule="evenodd" fill-opacity="1"/>
<defs>
  <clipPath id="clip001">
    <rect x="480" y="0" width="1681" height="1600"/>
  </clipPath>
</defs>
<path clip-path="url(#clip000)" d="
M164.082 1470.7 L2352.76 1470.7 L2352.76 47.2441 L164.082 47.2441  Z
  " fill="#ffffff" fill-rule="evenodd" fill-opacity="1"/>
<defs>
  <clipPath id="clip002">
    <rect x="164" y="47" width="2190" height="1424"/>
  </clipPath>
</defs>
<polyline clip-path="url(#clip002)" style="stroke:#000000; stroke-width:2; stroke-opacity:0.1; fill:none" points="
  455.447,1470.7 455.447,47.2441 
  "/>
<polyline clip-path="url(#clip002)" style="stroke:#000000; stroke-width:2; stroke-opacity:0.1; fill:none" points="
  914.288,1470.7 914.288,47.2441 
  "/>
<polyline clip-path="url(#clip002)" style="stroke:#000000; stroke-width:2; stroke-opacity:0.1; fill:none" points="
  1373.13,1470.7 1373.13,47.2441 
  "/>
<polyline clip-path="url(#clip002)" style="stroke:#000000; stroke-width:2; stroke-opacity:0.1; fill:none" points="
  1831.97,1470.7 1831.97,47.2441 
  "/>
<polyline clip-path="url(#clip002)" style="stroke:#000000; stroke-width:2; stroke-opacity:0.1; fill:none" points="
  2290.81,1470.7 2290.81,47.2441 
  "/>
<polyline clip-path="url(#clip002)" style="stroke:#000000; stroke-width:2; stroke-opacity:0.1; fill:none" points="
  164.082,1463.5 2352.76,1463.5 
  "/>
<polyline clip-path="url(#clip002)" style="stroke:#000000; stroke-width:2; stroke-opacity:0.1; fill:none" points="
  164.082,1126.66 2352.76,1126.66 
  "/>
<polyline clip-path="url(#clip002)" style="stroke:#000000; stroke-width:2; stroke-opacity:0.1; fill:none" points="
  164.082,789.817 2352.76,789.817 
  "/>
<polyline clip-path="url(#clip002)" style="stroke:#000000; stroke-width:2; stroke-opacity:0.1; fill:none" points="
  164.082,452.974 2352.76,452.974 
  "/>
<polyline clip-path="url(#clip002)" style="stroke:#000000; stroke-width:2; stroke-opacity:0.1; fill:none" points="
  164.082,116.132 2352.76,116.132 
  "/>
<polyline clip-path="url(#clip000)" style="stroke:#000000; stroke-width:4; stroke-opacity:1; fill:none" points="
  164.082,1470.7 2352.76,1470.7 
  "/>
<polyline clip-path="url(#clip000)" style="stroke:#000000; stroke-width:4; stroke-opacity:1; fill:none" points="
  164.082,1470.7 164.082,47.2441 
  "/>
<polyline clip-path="url(#clip000)" style="stroke:#000000; stroke-width:4; stroke-opacity:1; fill:none" points="
  455.447,1470.7 455.447,1453.62 
  "/>
<polyline clip-path="url(#clip000)" style="stroke:#000000; stroke-width:4; stroke-opacity:1; fill:none" points="
  914.288,1470.7 914.288,1453.62 
  "/>
<polyline clip-path="url(#clip000)" style="stroke:#000000; stroke-width:4; stroke-opacity:1; fill:none" points="
  1373.13,1470.7 1373.13,1453.62 
  "/>
<polyline clip-path="url(#clip000)" style="stroke:#000000; stroke-width:4; stroke-opacity:1; fill:none" points="
  1831.97,1470.7 1831.97,1453.62 
  "/>
<polyline clip-path="url(#clip000)" style="stroke:#000000; stroke-width:4; stroke-opacity:1; fill:none" points="
  2290.81,1470.7 2290.81,1453.62 
  "/>
<polyline clip-path="url(#clip000)" style="stroke:#000000; stroke-width:4; stroke-opacity:1; fill:none" points="
  164.082,1463.5 190.347,1463.5 
  "/>
<polyline clip-path="url(#clip000)" style="stroke:#000000; stroke-width:4; stroke-opacity:1; fill:none" points="
  164.082,1126.66 190.347,1126.66 
  "/>
<polyline clip-path="url(#clip000)" style="stroke:#000000; stroke-width:4; stroke-opacity:1; fill:none" points="
  164.082,789.817 190.347,789.817 
  "/>
<polyline clip-path="url(#clip000)" style="stroke:#000000; stroke-width:4; stroke-opacity:1; fill:none" points="
  164.082,452.974 190.347,452.974 
  "/>
<polyline clip-path="url(#clip000)" style="stroke:#000000; stroke-width:4; stroke-opacity:1; fill:none" points="
  164.082,116.132 190.347,116.132 
  "/>
<path clip-path="url(#clip000)" d="M 0 0 M450.1 1520.24 L466.419 1520.24 L466.419 1524.17 L444.475 1524.17 L444.475 1520.24 Q447.137 1517.48 451.72 1512.85 Q456.326 1508.2 457.507 1506.86 Q459.752 1504.33 460.632 1502.6 Q461.535 1500.84 461.535 1499.15 Q461.535 1496.39 459.59 1494.66 Q457.669 1492.92 454.567 1492.92 Q452.368 1492.92 449.914 1493.69 Q447.484 1494.45 444.706 1496 L444.706 1491.28 Q447.53 1490.14 449.984 1489.57 Q452.437 1488.99 454.474 1488.99 Q459.845 1488.99 463.039 1491.67 Q466.234 1494.36 466.234 1498.85 Q466.234 1500.98 465.424 1502.9 Q464.636 1504.8 462.53 1507.39 Q461.951 1508.06 458.849 1511.28 Q455.748 1514.47 450.1 1520.24 Z" fill="#000000" fill-rule="evenodd" fill-opacity="1" /><path clip-path="url(#clip000)" d="M 0 0 M917.297 1493.69 L905.492 1512.13 L917.297 1512.13 L917.297 1493.69 M916.071 1489.61 L921.95 1489.61 L921.95 1512.13 L926.881 1512.13 L926.881 1516.02 L921.95 1516.02 L921.95 1524.17 L917.297 1524.17 L917.297 1516.02 L901.696 1516.02 L901.696 1511.51 L916.071 1489.61 Z" fill="#000000" fill-rule="evenodd" fill-opacity="1" /><path clip-path="url(#clip000)" d="M 0 0 M1373.53 1505.03 Q1370.39 1505.03 1368.53 1507.18 Q1366.71 1509.33 1366.71 1513.08 Q1366.71 1516.81 1368.53 1518.99 Q1370.39 1521.14 1373.53 1521.14 Q1376.68 1521.14 1378.51 1518.99 Q1380.36 1516.81 1380.36 1513.08 Q1380.36 1509.33 1378.51 1507.18 Q1376.68 1505.03 1373.53 1505.03 M1382.82 1490.38 L1382.82 1494.63 Q1381.06 1493.8 1379.25 1493.36 Q1377.47 1492.92 1375.71 1492.92 Q1371.08 1492.92 1368.63 1496.05 Q1366.2 1499.17 1365.85 1505.49 Q1367.22 1503.48 1369.28 1502.41 Q1371.34 1501.32 1373.81 1501.32 Q1379.02 1501.32 1382.03 1504.5 Q1385.06 1507.64 1385.06 1513.08 Q1385.06 1518.41 1381.91 1521.63 Q1378.77 1524.84 1373.53 1524.84 Q1367.54 1524.84 1364.37 1520.26 Q1361.2 1515.65 1361.2 1506.93 Q1361.2 1498.73 1365.09 1493.87 Q1368.97 1488.99 1375.53 1488.99 Q1377.28 1488.99 1379.07 1489.33 Q1380.87 1489.68 1382.82 1490.38 Z" fill="#000000" fill-rule="evenodd" fill-opacity="1" /><path clip-path="url(#clip000)" d="M 0 0 M1831.97 1507.76 Q1828.64 1507.76 1826.72 1509.54 Q1824.82 1511.32 1824.82 1514.45 Q1824.82 1517.57 1826.72 1519.36 Q1828.64 1521.14 1831.97 1521.14 Q1835.3 1521.14 1837.23 1519.36 Q1839.15 1517.55 1839.15 1514.45 Q1839.15 1511.32 1837.23 1509.54 Q1835.33 1507.76 1831.97 1507.76 M1827.3 1505.77 Q1824.29 1505.03 1822.6 1502.97 Q1820.93 1500.91 1820.93 1497.95 Q1820.93 1493.8 1823.87 1491.39 Q1826.83 1488.99 1831.97 1488.99 Q1837.13 1488.99 1840.07 1491.39 Q1843.01 1493.8 1843.01 1497.95 Q1843.01 1500.91 1841.32 1502.97 Q1839.66 1505.03 1836.67 1505.77 Q1840.05 1506.56 1841.92 1508.85 Q1843.82 1511.14 1843.82 1514.45 Q1843.82 1519.47 1840.74 1522.16 Q1837.69 1524.84 1831.97 1524.84 Q1826.25 1524.84 1823.17 1522.16 Q1820.12 1519.47 1820.12 1514.45 Q1820.12 1511.14 1822.02 1508.85 Q1823.92 1506.56 1827.3 1505.77 M1825.58 1498.38 Q1825.58 1501.07 1827.25 1502.57 Q1828.94 1504.08 1831.97 1504.08 Q1834.98 1504.08 1836.67 1502.57 Q1838.38 1501.07 1838.38 1498.38 Q1838.38 1495.7 1836.67 1494.2 Q1834.98 1492.69 1831.97 1492.69 Q1828.94 1492.69 1827.25 1494.2 Q1825.58 1495.7 1825.58 1498.38 Z" fill="#000000" fill-rule="evenodd" fill-opacity="1" /><path clip-path="url(#clip000)" d="M 0 0 M2267.69 1520.24 L2275.33 1520.24 L2275.33 1493.87 L2267.02 1495.54 L2267.02 1491.28 L2275.28 1489.61 L2279.96 1489.61 L2279.96 1520.24 L2287.59 1520.24 L2287.59 1524.17 L2267.69 1524.17 L2267.69 1520.24 Z" fill="#000000" fill-rule="evenodd" fill-opacity="1" /><path clip-path="url(#clip000)" d="M 0 0 M2302.66 1492.69 Q2299.05 1492.69 2297.22 1496.26 Q2295.42 1499.8 2295.42 1506.93 Q2295.42 1514.03 2297.22 1517.6 Q2299.05 1521.14 2302.66 1521.14 Q2306.3 1521.14 2308.1 1517.6 Q2309.93 1514.03 2309.93 1506.93 Q2309.93 1499.8 2308.1 1496.26 Q2306.3 1492.69 2302.66 1492.69 M2302.66 1488.99 Q2308.47 1488.99 2311.53 1493.59 Q2314.61 1498.18 2314.61 1506.93 Q2314.61 1515.65 2311.53 1520.26 Q2308.47 1524.84 2302.66 1524.84 Q2296.85 1524.84 2293.78 1520.26 Q2290.72 1515.65 2290.72 1506.93 Q2290.72 1498.18 2293.78 1493.59 Q2296.85 1488.99 2302.66 1488.99 Z" fill="#000000" fill-rule="evenodd" fill-opacity="1" /><path clip-path="url(#clip000)" d="M 0 0 M91.1706 1449.3 Q87.5596 1449.3 85.7309 1452.86 Q83.9253 1456.41 83.9253 1463.54 Q83.9253 1470.64 85.7309 1474.21 Q87.5596 1477.75 91.1706 1477.75 Q94.8049 1477.75 96.6104 1474.21 Q98.4391 1470.64 98.4391 1463.54 Q98.4391 1456.41 96.6104 1452.86 Q94.8049 1449.3 91.1706 1449.3 M91.1706 1445.6 Q96.9808 1445.6 100.036 1450.2 Q103.115 1454.79 103.115 1463.54 Q103.115 1472.26 100.036 1476.87 Q96.9808 1481.45 91.1706 1481.45 Q85.3605 1481.45 82.2818 1476.87 Q79.2263 1472.26 79.2263 1463.54 Q79.2263 1454.79 82.2818 1450.2 Q85.3605 1445.6 91.1706 1445.6 Z" fill="#000000" fill-rule="evenodd" fill-opacity="1" /><path clip-path="url(#clip000)" d="M 0 0 M108.184 1474.9 L113.069 1474.9 L113.069 1480.78 L108.184 1480.78 L108.184 1474.9 Z" fill="#000000" fill-rule="evenodd" fill-opacity="1" /><path clip-path="url(#clip000)" d="M 0 0 M128.138 1449.3 Q124.527 1449.3 122.698 1452.86 Q120.893 1456.41 120.893 1463.54 Q120.893 1470.64 122.698 1474.21 Q124.527 1477.75 128.138 1477.75 Q131.772 1477.75 133.578 1474.21 Q135.407 1470.64 135.407 1463.54 Q135.407 1456.41 133.578 1452.86 Q131.772 1449.3 128.138 1449.3 M128.138 1445.6 Q133.948 1445.6 137.004 1450.2 Q140.082 1454.79 140.082 1463.54 Q140.082 1472.26 137.004 1476.87 Q133.948 1481.45 128.138 1481.45 Q122.328 1481.45 119.249 1476.87 Q116.194 1472.26 116.194 1463.54 Q116.194 1454.79 119.249 1450.2 Q122.328 1445.6 128.138 1445.6 Z" fill="#000000" fill-rule="evenodd" fill-opacity="1" /><path clip-path="url(#clip000)" d="M 0 0 M92.7679 1112.46 Q89.1568 1112.46 87.3281 1116.02 Q85.5225 1119.56 85.5225 1126.69 Q85.5225 1133.8 87.3281 1137.36 Q89.1568 1140.91 92.7679 1140.91 Q96.4021 1140.91 98.2076 1137.36 Q100.036 1133.8 100.036 1126.69 Q100.036 1119.56 98.2076 1116.02 Q96.4021 1112.46 92.7679 1112.46 M92.7679 1108.75 Q98.578 1108.75 101.634 1113.36 Q104.712 1117.94 104.712 1126.69 Q104.712 1135.42 101.634 1140.03 Q98.578 1144.61 92.7679 1144.61 Q86.9577 1144.61 83.879 1140.03 Q80.8235 1135.42 80.8235 1126.69 Q80.8235 1117.94 83.879 1113.36 Q86.9577 1108.75 92.7679 1108.75 Z" fill="#000000" fill-rule="evenodd" fill-opacity="1" /><path clip-path="url(#clip000)" d="M 0 0 M109.782 1138.06 L114.666 1138.06 L114.666 1143.94 L109.782 1143.94 L109.782 1138.06 Z" fill="#000000" fill-rule="evenodd" fill-opacity="1" /><path clip-path="url(#clip000)" d="M 0 0 M123.763 1140 L140.082 1140 L140.082 1143.94 L118.138 1143.94 L118.138 1140 Q120.8 1137.25 125.383 1132.62 Q129.99 1127.97 131.17 1126.62 Q133.416 1124.1 134.295 1122.37 Q135.198 1120.61 135.198 1118.92 Q135.198 1116.16 133.254 1114.43 Q131.332 1112.69 128.231 1112.69 Q126.032 1112.69 123.578 1113.45 Q121.147 1114.22 118.37 1115.77 L118.37 1111.05 Q121.194 1109.91 123.647 1109.33 Q126.101 1108.75 128.138 1108.75 Q133.508 1108.75 136.703 1111.44 Q139.897 1114.12 139.897 1118.62 Q139.897 1120.74 139.087 1122.67 Q138.3 1124.56 136.194 1127.16 Q135.615 1127.83 132.513 1131.05 Q129.411 1134.24 123.763 1140 Z" fill="#000000" fill-rule="evenodd" fill-opacity="1" /><path clip-path="url(#clip000)" d="M 0 0 M90.6845 775.615 Q87.0734 775.615 85.2448 779.18 Q83.4392 782.722 83.4392 789.851 Q83.4392 796.958 85.2448 800.522 Q87.0734 804.064 90.6845 804.064 Q94.3188 804.064 96.1243 800.522 Q97.953 796.958 97.953 789.851 Q97.953 782.722 96.1243 779.18 Q94.3188 775.615 90.6845 775.615 M90.6845 771.912 Q96.4947 771.912 99.5502 776.518 Q102.629 781.101 102.629 789.851 Q102.629 798.578 99.5502 803.184 Q96.4947 807.768 90.6845 807.768 Q84.8744 807.768 81.7957 803.184 Q78.7402 798.578 78.7402 789.851 Q78.7402 781.101 81.7957 776.518 Q84.8744 771.912 90.6845 771.912 Z" fill="#000000" fill-rule="evenodd" fill-opacity="1" /><path clip-path="url(#clip000)" d="M 0 0 M107.698 801.217 L112.583 801.217 L112.583 807.097 L107.698 807.097 L107.698 801.217 Z" fill="#000000" fill-rule="evenodd" fill-opacity="1" /><path clip-path="url(#clip000)" d="M 0 0 M130.499 776.611 L118.694 795.06 L130.499 795.06 L130.499 776.611 M129.272 772.537 L135.152 772.537 L135.152 795.06 L140.082 795.06 L140.082 798.948 L135.152 798.948 L135.152 807.097 L130.499 807.097 L130.499 798.948 L114.897 798.948 L114.897 794.435 L129.272 772.537 Z" fill="#000000" fill-rule="evenodd" fill-opacity="1" /><path clip-path="url(#clip000)" d="M 0 0 M91.0086 438.773 Q87.3975 438.773 85.5688 442.338 Q83.7633 445.879 83.7633 453.009 Q83.7633 460.115 85.5688 463.68 Q87.3975 467.222 91.0086 467.222 Q94.6429 467.222 96.4484 463.68 Q98.2771 460.115 98.2771 453.009 Q98.2771 445.879 96.4484 442.338 Q94.6429 438.773 91.0086 438.773 M91.0086 435.069 Q96.8188 435.069 99.8743 439.676 Q102.953 444.259 102.953 453.009 Q102.953 461.736 99.8743 466.342 Q96.8188 470.925 91.0086 470.925 Q85.1985 470.925 82.1198 466.342 Q79.0642 461.736 79.0642 453.009 Q79.0642 444.259 82.1198 439.676 Q85.1985 435.069 91.0086 435.069 Z" fill="#000000" fill-rule="evenodd" fill-opacity="1" /><path clip-path="url(#clip000)" d="M 0 0 M108.022 464.374 L112.907 464.374 L112.907 470.254 L108.022 470.254 L108.022 464.374 Z" fill="#000000" fill-rule="evenodd" fill-opacity="1" /><path clip-path="url(#clip000)" d="M 0 0 M128.555 451.111 Q125.407 451.111 123.555 453.263 Q121.726 455.416 121.726 459.166 Q121.726 462.893 123.555 465.069 Q125.407 467.222 128.555 467.222 Q131.703 467.222 133.532 465.069 Q135.383 462.893 135.383 459.166 Q135.383 455.416 133.532 453.263 Q131.703 451.111 128.555 451.111 M137.837 436.458 L137.837 440.717 Q136.078 439.884 134.272 439.444 Q132.49 439.004 130.731 439.004 Q126.101 439.004 123.647 442.129 Q121.217 445.254 120.87 451.574 Q122.235 449.56 124.295 448.495 Q126.356 447.407 128.832 447.407 Q134.041 447.407 137.05 450.578 Q140.082 453.726 140.082 459.166 Q140.082 464.49 136.934 467.708 Q133.786 470.925 128.555 470.925 Q122.559 470.925 119.388 466.342 Q116.217 461.736 116.217 453.009 Q116.217 444.814 120.106 439.953 Q123.995 435.069 130.545 435.069 Q132.305 435.069 134.087 435.416 Q135.893 435.764 137.837 436.458 Z" fill="#000000" fill-rule="evenodd" fill-opacity="1" /><path clip-path="url(#clip000)" d="M 0 0 M91.2632 101.93 Q87.6521 101.93 85.8235 105.495 Q84.0179 109.037 84.0179 116.166 Q84.0179 123.273 85.8235 126.838 Q87.6521 130.379 91.2632 130.379 Q94.8975 130.379 96.703 126.838 Q98.5317 123.273 98.5317 116.166 Q98.5317 109.037 96.703 105.495 Q94.8975 101.93 91.2632 101.93 M91.2632 98.2266 Q97.0734 98.2266 100.129 102.833 Q103.208 107.416 103.208 116.166 Q103.208 124.893 100.129 129.5 Q97.0734 134.083 91.2632 134.083 Q85.4531 134.083 82.3744 129.5 Q79.3189 124.893 79.3189 116.166 Q79.3189 107.416 82.3744 102.833 Q85.4531 98.2266 91.2632 98.2266 Z" fill="#000000" fill-rule="evenodd" fill-opacity="1" /><path clip-path="url(#clip000)" d="M 0 0 M108.277 127.532 L113.161 127.532 L113.161 133.412 L108.277 133.412 L108.277 127.532 Z" fill="#000000" fill-rule="evenodd" fill-opacity="1" /><path clip-path="url(#clip000)" d="M 0 0 M128.231 117 Q124.897 117 122.976 118.782 Q121.078 120.564 121.078 123.689 Q121.078 126.814 122.976 128.597 Q124.897 130.379 128.231 130.379 Q131.564 130.379 133.485 128.597 Q135.407 126.791 135.407 123.689 Q135.407 120.564 133.485 118.782 Q131.587 117 128.231 117 M123.555 115.009 Q120.545 114.268 118.856 112.208 Q117.189 110.148 117.189 107.185 Q117.189 103.041 120.129 100.634 Q123.092 98.2266 128.231 98.2266 Q133.393 98.2266 136.332 100.634 Q139.272 103.041 139.272 107.185 Q139.272 110.148 137.582 112.208 Q135.916 114.268 132.93 115.009 Q136.309 115.796 138.184 118.088 Q140.082 120.379 140.082 123.689 Q140.082 128.713 137.004 131.398 Q133.948 134.083 128.231 134.083 Q122.513 134.083 119.434 131.398 Q116.379 128.713 116.379 123.689 Q116.379 120.379 118.277 118.088 Q120.175 115.796 123.555 115.009 M121.842 107.625 Q121.842 110.31 123.508 111.815 Q125.198 113.319 128.231 113.319 Q131.24 113.319 132.93 111.815 Q134.643 110.31 134.643 107.625 Q134.643 104.94 132.93 103.435 Q131.24 101.93 128.231 101.93 Q125.198 101.93 123.508 103.435 Q121.842 104.94 121.842 107.625 Z" fill="#000000" fill-rule="evenodd" fill-opacity="1" /><path clip-path="url(#clip000)" d="M 0 0 M1272.58 1521.01 Q1272.58 1522.81 1271.45 1523.84 Q1270.32 1524.84 1269.04 1524.84 Q1267.81 1524.84 1267.17 1524.13 Q1266.52 1523.42 1266.52 1522.52 Q1266.52 1521.3 1267.43 1520.23 Q1268.33 1519.17 1269.68 1518.95 Q1268.36 1518.11 1266.4 1518.11 Q1265.11 1518.11 1263.98 1518.78 Q1262.89 1519.46 1262.21 1520.33 Q1261.56 1521.2 1260.99 1522.46 Q1260.44 1523.68 1260.21 1524.42 Q1260.02 1525.13 1259.86 1525.9 L1257.6 1534.92 Q1256.51 1539.2 1256.51 1540.72 Q1256.51 1542.58 1257.41 1543.84 Q1258.31 1545.06 1260.12 1545.06 Q1260.82 1545.06 1261.63 1544.87 Q1262.43 1544.65 1263.46 1544.07 Q1264.53 1543.45 1265.46 1542.55 Q1266.43 1541.62 1267.36 1540.04 Q1268.3 1538.46 1268.91 1536.43 Q1269.1 1535.73 1269.75 1535.73 Q1270.55 1535.73 1270.55 1536.37 Q1270.55 1536.92 1270.1 1538.08 Q1269.68 1539.2 1268.75 1540.68 Q1267.84 1542.13 1266.65 1543.45 Q1265.46 1544.74 1263.69 1545.64 Q1261.92 1546.55 1259.99 1546.55 Q1257.22 1546.55 1255.38 1545.06 Q1253.55 1543.58 1252.87 1541.52 Q1252.71 1541.81 1252.48 1542.2 Q1252.26 1542.58 1251.58 1543.45 Q1250.94 1544.29 1250.2 1544.94 Q1249.46 1545.55 1248.3 1546.03 Q1247.17 1546.55 1245.94 1546.55 Q1244.4 1546.55 1243.01 1546.1 Q1241.66 1545.64 1240.7 1544.61 Q1239.73 1543.58 1239.73 1542.17 Q1239.73 1540.59 1240.79 1539.49 Q1241.89 1538.37 1243.37 1538.37 Q1244.3 1538.37 1245.04 1538.91 Q1245.82 1539.46 1245.82 1540.65 Q1245.82 1541.97 1244.91 1542.97 Q1244.01 1543.97 1242.72 1544.23 Q1244.04 1545.06 1246.01 1545.06 Q1248.13 1545.06 1249.81 1543.2 Q1251.48 1541.33 1252.29 1538.2 Q1254.29 1530.7 1255.06 1527.35 Q1255.83 1523.97 1255.83 1522.52 Q1255.83 1521.17 1255.48 1520.23 Q1255.12 1519.3 1254.51 1518.88 Q1253.93 1518.43 1253.38 1518.27 Q1252.87 1518.11 1252.29 1518.11 Q1251.32 1518.11 1250.23 1518.49 Q1249.17 1518.88 1247.88 1519.78 Q1246.62 1520.65 1245.43 1522.46 Q1244.24 1524.26 1243.43 1526.74 Q1243.27 1527.48 1242.56 1527.48 Q1241.79 1527.45 1241.79 1526.8 Q1241.79 1526.26 1242.21 1525.13 Q1242.66 1523.97 1243.56 1522.52 Q1244.5 1521.07 1245.69 1519.78 Q1246.91 1518.46 1248.68 1517.56 Q1250.49 1516.66 1252.42 1516.66 Q1253.29 1516.66 1254.13 1516.85 Q1254.99 1517.01 1256.03 1517.5 Q1257.09 1517.98 1258.02 1519.04 Q1258.96 1520.11 1259.54 1521.65 Q1259.92 1520.91 1260.44 1520.2 Q1260.99 1519.49 1261.82 1518.62 Q1262.69 1517.72 1263.88 1517.21 Q1265.11 1516.66 1266.46 1516.66 Q1267.78 1516.66 1269.07 1517.01 Q1270.36 1517.34 1271.45 1518.4 Q1272.58 1519.43 1272.58 1521.01 Z" fill="#000000" fill-rule="evenodd" fill-opacity="1" /><path clip-path="url(#clip000)" d="M 0 0 M56.8247 744.546 Q57.2755 744.546 58.3383 744.836 L83.5233 751.148 Q89.1271 752.533 93.0563 757.042 Q96.9854 761.518 96.9854 766.607 Q96.9854 769.667 95.3429 771.631 Q93.7326 773.596 91.2527 773.596 Q89.0627 773.596 87.9999 772.436 Q86.9693 771.277 86.9693 769.892 Q86.9693 769.441 87.0982 768.958 Q87.227 768.475 87.7745 767.96 Q88.322 767.444 89.256 767.444 Q90.7696 767.444 91.9613 768.765 Q92.5088 769.409 92.6376 770.021 Q92.7664 770.601 92.7664 771.599 Q93.6682 771.212 94.2801 770.504 Q94.892 769.795 95.1174 768.99 Q95.3751 768.185 95.4395 767.67 Q95.5361 767.122 95.5361 766.607 Q95.5361 762.485 91.3815 759.328 Q90.1255 758.395 88.8695 757.718 Q87.6457 757.01 86.132 756.494 Q84.6505 755.979 83.8454 755.754 Q83.0402 755.496 81.2045 755.045 Q84.1996 758.04 84.1996 761.712 Q84.1996 763.258 83.781 764.642 Q83.3623 765.995 82.4927 767.187 Q81.591 768.378 80.0129 769.087 Q78.4348 769.763 76.3414 769.763 Q74.1192 769.763 71.0919 768.894 Q68.0645 768.024 62.4929 765.931 Q59.3689 764.803 57.8552 764.803 Q57.1145 764.803 56.6636 764.965 Q56.1805 765.126 56.0195 765.448 Q55.8263 765.77 55.7941 765.963 Q55.7619 766.124 55.7619 766.446 Q55.7619 768.346 57.6942 770.117 Q59.6266 771.889 63.9422 773.113 Q64.7473 773.37 64.9405 773.531 Q65.1338 773.692 65.1338 774.175 Q65.1016 774.981 64.4574 774.981 Q64.1998 774.981 63.2014 774.691 Q62.1708 774.401 60.6572 773.725 Q59.1113 773.016 57.7264 772.05 Q56.3094 771.084 55.311 769.57 Q54.3126 768.024 54.3126 766.253 Q54.3126 763.837 55.8907 762.356 Q57.4366 760.842 59.7232 760.842 Q60.6572 760.842 61.4945 761.1 Q62.2997 761.325 64.4574 762.163 Q73.153 765.544 77.4042 765.544 Q78.4348 765.544 79.3044 765.383 Q80.1417 765.19 80.9791 764.771 Q81.7842 764.353 82.2673 763.515 Q82.7182 762.646 82.7182 761.454 Q82.7182 759.94 82.0096 758.523 Q81.2689 757.074 80.2705 756.172 Q79.2721 755.238 78.4348 754.691 Q77.5652 754.111 77.1144 753.982 L65.2626 751.019 L59.9808 749.699 Q57.1145 749.087 56.406 748.797 Q55.7297 748.411 55.3754 747.734 Q55.0211 747.058 55.0211 746.478 Q55.0211 745.673 55.5042 745.126 Q55.9873 744.546 56.8247 744.546 Z" fill="#000000" fill-rule="evenodd" fill-opacity="1" /><polyline clip-path="url(#clip002)" style="stroke:#009af9; stroke-width:4; stroke-opacity:1; fill:none" points="
  226.026,630.014 455.447,1430.41 684.867,110.646 914.288,87.5306 1143.71,1244.78 1373.13,855.983 1602.55,151.54 1831.97,1383.4 2061.39,725.901 2290.81,738.067 
  
  "/>
<path clip-path="url(#clip000)" d="
M1989.74 251.724 L2280.76 251.724 L2280.76 130.764 L1989.74 130.764  Z
  " fill="#ffffff" fill-rule="evenodd" fill-opacity="1"/>
<polyline clip-path="url(#clip000)" style="stroke:#000000; stroke-width:4; stroke-opacity:1; fill:none" points="
  1989.74,251.724 2280.76,251.724 2280.76,130.764 1989.74,130.764 1989.74,251.724 
  "/>
<polyline clip-path="url(#clip000)" style="stroke:#009af9; stroke-width:4; stroke-opacity:1; fill:none" points="
  2013.74,191.244 2157.74,191.244 
  "/>
<path clip-path="url(#clip000)" d="M 0 0 M2195.58 210.931 Q2193.77 215.561 2192.06 216.973 Q2190.35 218.385 2187.48 218.385 L2184.08 218.385 L2184.08 214.82 L2186.58 214.82 Q2188.33 214.82 2189.31 213.987 Q2190.28 213.154 2191.46 210.052 L2192.22 208.107 L2181.74 182.598 L2186.25 182.598 L2194.35 202.876 L2202.46 182.598 L2206.97 182.598 L2195.58 210.931 Z" fill="#000000" fill-rule="evenodd" fill-opacity="1" /><path clip-path="url(#clip000)" d="M 0 0 M2212.85 204.589 L2220.49 204.589 L2220.49 178.223 L2212.18 179.89 L2212.18 175.631 L2220.44 173.964 L2225.12 173.964 L2225.12 204.589 L2232.76 204.589 L2232.76 208.524 L2212.85 208.524 L2212.85 204.589 Z" fill="#000000" fill-rule="evenodd" fill-opacity="1" /></svg>
