<?xml version="1.0" encoding="utf-8"?>
<svg xmlns="http://www.w3.org/2000/svg" xmlns:xlink="http://www.w3.org/1999/xlink" width="600" height="400" viewBox="0 0 2400 1600">
<defs>
  <clipPath id="clip400">
    <rect x="0" y="0" width="2400" height="1600"/>
  </clipPath>
</defs>
<path clip-path="url(#clip400)" d="
M0 1600 L2400 1600 L2400 0 L0 0  Z
  " fill="#ffffff" fill-rule="evenodd" fill-opacity="1"/>
<defs>
  <clipPath id="clip401">
    <rect x="480" y="0" width="1681" height="1600"/>
  </clipPath>
</defs>
<defs>
  <clipPath id="clip402">
    <rect x="2137" y="0" width="73" height="1600"/>
  </clipPath>
</defs>
<path clip-path="url(#clip400)" d="
M226.402 1445.63 L2352.76 1445.63 L2352.76 88.065 L226.402 88.065  Z
  " fill="#ffffff" fill-rule="evenodd" fill-opacity="1"/>
<defs>
  <clipPath id="clip403">
    <rect x="226" y="88" width="2127" height="1359"/>
  </clipPath>
</defs>
<polyline clip-path="url(#clip403)" style="stroke:#000000; stroke-width:2; stroke-opacity:0.1; fill:none" points="
  509.47,1445.63 509.47,88.065 
  "/>
<polyline clip-path="url(#clip403)" style="stroke:#000000; stroke-width:2; stroke-opacity:0.1; fill:none" points="
  955.246,1445.63 955.246,88.065 
  "/>
<polyline clip-path="url(#clip403)" style="stroke:#000000; stroke-width:2; stroke-opacity:0.1; fill:none" points="
  1401.02,1445.63 1401.02,88.065 
  "/>
<polyline clip-path="url(#clip403)" style="stroke:#000000; stroke-width:2; stroke-opacity:0.1; fill:none" points="
  1846.8,1445.63 1846.8,88.065 
  "/>
<polyline clip-path="url(#clip403)" style="stroke:#000000; stroke-width:2; stroke-opacity:0.1; fill:none" points="
  2292.58,1445.63 2292.58,88.065 
  "/>
<polyline clip-path="url(#clip403)" style="stroke:#000000; stroke-width:2; stroke-opacity:0.1; fill:none" points="
  226.402,1435.98 2352.76,1435.98 
  "/>
<polyline clip-path="url(#clip403)" style="stroke:#000000; stroke-width:2; stroke-opacity:0.1; fill:none" points="
  226.402,1103.25 2352.76,1103.25 
  "/>
<polyline clip-path="url(#clip403)" style="stroke:#000000; stroke-width:2; stroke-opacity:0.1; fill:none" points="
  226.402,770.528 2352.76,770.528 
  "/>
<polyline clip-path="url(#clip403)" style="stroke:#000000; stroke-width:2; stroke-opacity:0.1; fill:none" points="
  226.402,437.802 2352.76,437.802 
  "/>
<polyline clip-path="url(#clip403)" style="stroke:#000000; stroke-width:2; stroke-opacity:0.1; fill:none" points="
  226.402,105.077 2352.76,105.077 
  "/>
<polyline clip-path="url(#clip400)" style="stroke:#000000; stroke-width:4; stroke-opacity:1; fill:none" points="
  226.402,1445.63 2352.76,1445.63 
  "/>
<polyline clip-path="url(#clip400)" style="stroke:#000000; stroke-width:4; stroke-opacity:1; fill:none" points="
  226.402,1445.63 226.402,88.065 
  "/>
<polyline clip-path="url(#clip400)" style="stroke:#000000; stroke-width:4; stroke-opacity:1; fill:none" points="
  509.47,1445.63 509.47,1429.34 
  "/>
<polyline clip-path="url(#clip400)" style="stroke:#000000; stroke-width:4; stroke-opacity:1; fill:none" points="
  955.246,1445.63 955.246,1429.34 
  "/>
<polyline clip-path="url(#clip400)" style="stroke:#000000; stroke-width:4; stroke-opacity:1; fill:none" points="
  1401.02,1445.63 1401.02,1429.34 
  "/>
<polyline clip-path="url(#clip400)" style="stroke:#000000; stroke-width:4; stroke-opacity:1; fill:none" points="
  1846.8,1445.63 1846.8,1429.34 
  "/>
<polyline clip-path="url(#clip400)" style="stroke:#000000; stroke-width:4; stroke-opacity:1; fill:none" points="
  2292.58,1445.63 2292.58,1429.34 
  "/>
<polyline clip-path="url(#clip400)" style="stroke:#000000; stroke-width:4; stroke-opacity:1; fill:none" points="
  226.402,1435.98 251.918,1435.98 
  "/>
<polyline clip-path="url(#clip400)" style="stroke:#000000; stroke-width:4; stroke-opacity:1; fill:none" points="
  226.402,1103.25 251.918,1103.25 
  "/>
<polyline clip-path="url(#clip400)" style="stroke:#000000; stroke-width:4; stroke-opacity:1; fill:none" points="
  226.402,770.528 251.918,770.528 
  "/>
<polyline clip-path="url(#clip400)" style="stroke:#000000; stroke-width:4; stroke-opacity:1; fill:none" points="
  226.402,437.802 251.918,437.802 
  "/>
<polyline clip-path="url(#clip400)" style="stroke:#000000; stroke-width:4; stroke-opacity:1; fill:none" points="
  226.402,105.077 251.918,105.077 
  "/>
<path clip-path="url(#clip400)" d="M 0 0 M504.123 1495.16 L520.442 1495.16 L520.442 1499.1 L498.498 1499.1 L498.498 1495.16 Q501.16 1492.41 505.743 1487.78 Q510.349 1483.13 511.53 1481.78 Q513.775 1479.26 514.655 1477.52 Q515.558 1475.77 515.558 1474.08 Q515.558 1471.32 513.613 1469.59 Q511.692 1467.85 508.59 1467.85 Q506.391 1467.85 503.937 1468.61 Q501.507 1469.38 498.729 1470.93 L498.729 1466.21 Q501.553 1465.07 504.007 1464.49 Q506.461 1463.91 508.498 1463.91 Q513.868 1463.91 517.062 1466.6 Q520.257 1469.28 520.257 1473.77 Q520.257 1475.9 519.447 1477.83 Q518.66 1479.72 516.553 1482.32 Q515.974 1482.99 512.873 1486.21 Q509.771 1489.4 504.123 1495.16 Z" fill="#000000" fill-rule="evenodd" fill-opacity="1" /><path clip-path="url(#clip400)" d="M 0 0 M958.256 1468.61 L946.45 1487.06 L958.256 1487.06 L958.256 1468.61 M957.029 1464.54 L962.908 1464.54 L962.908 1487.06 L967.839 1487.06 L967.839 1490.95 L962.908 1490.95 L962.908 1499.1 L958.256 1499.1 L958.256 1490.95 L942.654 1490.95 L942.654 1486.44 L957.029 1464.54 Z" fill="#000000" fill-rule="evenodd" fill-opacity="1" /><path clip-path="url(#clip400)" d="M 0 0 M1401.43 1479.96 Q1398.28 1479.96 1396.43 1482.11 Q1394.6 1484.26 1394.6 1488.01 Q1394.6 1491.74 1396.43 1493.91 Q1398.28 1496.07 1401.43 1496.07 Q1404.58 1496.07 1406.4 1493.91 Q1408.26 1491.74 1408.26 1488.01 Q1408.26 1484.26 1406.4 1482.11 Q1404.58 1479.96 1401.43 1479.96 M1410.71 1465.3 L1410.71 1469.56 Q1408.95 1468.73 1407.15 1468.29 Q1405.36 1467.85 1403.6 1467.85 Q1398.97 1467.85 1396.52 1470.97 Q1394.09 1474.1 1393.74 1480.42 Q1395.11 1478.4 1397.17 1477.34 Q1399.23 1476.25 1401.71 1476.25 Q1406.91 1476.25 1409.92 1479.42 Q1412.96 1482.57 1412.96 1488.01 Q1412.96 1493.34 1409.81 1496.55 Q1406.66 1499.77 1401.43 1499.77 Q1395.43 1499.77 1392.26 1495.19 Q1389.09 1490.58 1389.09 1481.85 Q1389.09 1473.66 1392.98 1468.8 Q1396.87 1463.91 1403.42 1463.91 Q1405.18 1463.91 1406.96 1464.26 Q1408.77 1464.61 1410.71 1465.3 Z" fill="#000000" fill-rule="evenodd" fill-opacity="1" /><path clip-path="url(#clip400)" d="M 0 0 M1846.8 1482.69 Q1843.47 1482.69 1841.54 1484.47 Q1839.65 1486.25 1839.65 1489.38 Q1839.65 1492.5 1841.54 1494.28 Q1843.47 1496.07 1846.8 1496.07 Q1850.13 1496.07 1852.05 1494.28 Q1853.98 1492.48 1853.98 1489.38 Q1853.98 1486.25 1852.05 1484.47 Q1850.16 1482.69 1846.8 1482.69 M1842.12 1480.7 Q1839.11 1479.96 1837.42 1477.9 Q1835.76 1475.84 1835.76 1472.87 Q1835.76 1468.73 1838.7 1466.32 Q1841.66 1463.91 1846.8 1463.91 Q1851.96 1463.91 1854.9 1466.32 Q1857.84 1468.73 1857.84 1472.87 Q1857.84 1475.84 1856.15 1477.9 Q1854.48 1479.96 1851.5 1480.7 Q1854.88 1481.48 1856.75 1483.77 Q1858.65 1486.07 1858.65 1489.38 Q1858.65 1494.4 1855.57 1497.09 Q1852.52 1499.77 1846.8 1499.77 Q1841.08 1499.77 1838 1497.09 Q1834.95 1494.4 1834.95 1489.38 Q1834.95 1486.07 1836.85 1483.77 Q1838.74 1481.48 1842.12 1480.7 M1840.41 1473.31 Q1840.41 1476 1842.08 1477.5 Q1843.77 1479.01 1846.8 1479.01 Q1849.81 1479.01 1851.5 1477.5 Q1853.21 1476 1853.21 1473.31 Q1853.21 1470.63 1851.5 1469.12 Q1849.81 1467.62 1846.8 1467.62 Q1843.77 1467.62 1842.08 1469.12 Q1840.41 1470.63 1840.41 1473.31 Z" fill="#000000" fill-rule="evenodd" fill-opacity="1" /><path clip-path="url(#clip400)" d="M 0 0 M2269.45 1495.16 L2277.09 1495.16 L2277.09 1468.8 L2268.78 1470.46 L2268.78 1466.21 L2277.04 1464.54 L2281.72 1464.54 L2281.72 1495.16 L2289.36 1495.16 L2289.36 1499.1 L2269.45 1499.1 L2269.45 1495.16 Z" fill="#000000" fill-rule="evenodd" fill-opacity="1" /><path clip-path="url(#clip400)" d="M 0 0 M2304.43 1467.62 Q2300.82 1467.62 2298.99 1471.18 Q2297.18 1474.72 2297.18 1481.85 Q2297.18 1488.96 2298.99 1492.52 Q2300.82 1496.07 2304.43 1496.07 Q2308.06 1496.07 2309.87 1492.52 Q2311.7 1488.96 2311.7 1481.85 Q2311.7 1474.72 2309.87 1471.18 Q2308.06 1467.62 2304.43 1467.62 M2304.43 1463.91 Q2310.24 1463.91 2313.29 1468.52 Q2316.37 1473.1 2316.37 1481.85 Q2316.37 1490.58 2313.29 1495.19 Q2310.24 1499.77 2304.43 1499.77 Q2298.62 1499.77 2295.54 1495.19 Q2292.48 1490.58 2292.48 1481.85 Q2292.48 1473.1 2295.54 1468.52 Q2298.62 1463.91 2304.43 1463.91 Z" fill="#000000" fill-rule="evenodd" fill-opacity="1" /><path clip-path="url(#clip400)" d="M 0 0 M126.476 1421.78 Q122.865 1421.78 121.036 1425.34 Q119.231 1428.89 119.231 1436.01 Q119.231 1443.12 121.036 1446.69 Q122.865 1450.23 126.476 1450.23 Q130.11 1450.23 131.916 1446.69 Q133.745 1443.12 133.745 1436.01 Q133.745 1428.89 131.916 1425.34 Q130.11 1421.78 126.476 1421.78 M126.476 1418.07 Q132.286 1418.07 135.342 1422.68 Q138.421 1427.26 138.421 1436.01 Q138.421 1444.74 135.342 1449.35 Q132.286 1453.93 126.476 1453.93 Q120.666 1453.93 117.587 1449.35 Q114.532 1444.74 114.532 1436.01 Q114.532 1427.26 117.587 1422.68 Q120.666 1418.07 126.476 1418.07 Z" fill="#000000" fill-rule="evenodd" fill-opacity="1" /><path clip-path="url(#clip400)" d="M 0 0 M143.49 1447.38 L148.374 1447.38 L148.374 1453.26 L143.49 1453.26 L143.49 1447.38 Z" fill="#000000" fill-rule="evenodd" fill-opacity="1" /><path clip-path="url(#clip400)" d="M 0 0 M163.444 1421.78 Q159.833 1421.78 158.004 1425.34 Q156.198 1428.89 156.198 1436.01 Q156.198 1443.12 158.004 1446.69 Q159.833 1450.23 163.444 1450.23 Q167.078 1450.23 168.883 1446.69 Q170.712 1443.12 170.712 1436.01 Q170.712 1428.89 168.883 1425.34 Q167.078 1421.78 163.444 1421.78 M163.444 1418.07 Q169.254 1418.07 172.309 1422.68 Q175.388 1427.26 175.388 1436.01 Q175.388 1444.74 172.309 1449.35 Q169.254 1453.93 163.444 1453.93 Q157.633 1453.93 154.555 1449.35 Q151.499 1444.74 151.499 1436.01 Q151.499 1427.26 154.555 1422.68 Q157.633 1418.07 163.444 1418.07 Z" fill="#000000" fill-rule="evenodd" fill-opacity="1" /><path clip-path="url(#clip400)" d="M 0 0 M190.457 1421.78 Q186.846 1421.78 185.018 1425.34 Q183.212 1428.89 183.212 1436.01 Q183.212 1443.12 185.018 1446.69 Q186.846 1450.23 190.457 1450.23 Q194.092 1450.23 195.897 1446.69 Q197.726 1443.12 197.726 1436.01 Q197.726 1428.89 195.897 1425.34 Q194.092 1421.78 190.457 1421.78 M190.457 1418.07 Q196.267 1418.07 199.323 1422.68 Q202.402 1427.26 202.402 1436.01 Q202.402 1444.74 199.323 1449.35 Q196.267 1453.93 190.457 1453.93 Q184.647 1453.93 181.569 1449.35 Q178.513 1444.74 178.513 1436.01 Q178.513 1427.26 181.569 1422.68 Q184.647 1418.07 190.457 1418.07 Z" fill="#000000" fill-rule="evenodd" fill-opacity="1" /><path clip-path="url(#clip400)" d="M 0 0 M129.069 1089.05 Q125.458 1089.05 123.629 1092.62 Q121.823 1096.16 121.823 1103.29 Q121.823 1110.4 123.629 1113.96 Q125.458 1117.5 129.069 1117.5 Q132.703 1117.5 134.509 1113.96 Q136.337 1110.4 136.337 1103.29 Q136.337 1096.16 134.509 1092.62 Q132.703 1089.05 129.069 1089.05 M129.069 1085.35 Q134.879 1085.35 137.934 1089.96 Q141.013 1094.54 141.013 1103.29 Q141.013 1112.02 137.934 1116.62 Q134.879 1121.21 129.069 1121.21 Q123.259 1121.21 120.18 1116.62 Q117.124 1112.02 117.124 1103.29 Q117.124 1094.54 120.18 1089.96 Q123.259 1085.35 129.069 1085.35 Z" fill="#000000" fill-rule="evenodd" fill-opacity="1" /><path clip-path="url(#clip400)" d="M 0 0 M146.083 1114.65 L150.967 1114.65 L150.967 1120.53 L146.083 1120.53 L146.083 1114.65 Z" fill="#000000" fill-rule="evenodd" fill-opacity="1" /><path clip-path="url(#clip400)" d="M 0 0 M160.064 1116.6 L176.383 1116.6 L176.383 1120.53 L154.439 1120.53 L154.439 1116.6 Q157.101 1113.84 161.684 1109.21 Q166.291 1104.56 167.471 1103.22 Q169.717 1100.7 170.596 1098.96 Q171.499 1097.2 171.499 1095.51 Q171.499 1092.76 169.555 1091.02 Q167.633 1089.28 164.532 1089.28 Q162.332 1089.28 159.879 1090.05 Q157.448 1090.81 154.67 1092.36 L154.67 1087.64 Q157.495 1086.51 159.948 1085.93 Q162.402 1085.35 164.439 1085.35 Q169.809 1085.35 173.004 1088.03 Q176.198 1090.72 176.198 1095.21 Q176.198 1097.34 175.388 1099.26 Q174.601 1101.16 172.494 1103.75 Q171.916 1104.42 168.814 1107.64 Q165.712 1110.84 160.064 1116.6 Z" fill="#000000" fill-rule="evenodd" fill-opacity="1" /><path clip-path="url(#clip400)" d="M 0 0 M181.499 1085.97 L199.855 1085.97 L199.855 1089.91 L185.781 1089.91 L185.781 1098.38 Q186.8 1098.03 187.818 1097.87 Q188.837 1097.69 189.855 1097.69 Q195.643 1097.69 199.022 1100.86 Q202.402 1104.03 202.402 1109.45 Q202.402 1115.02 198.93 1118.13 Q195.457 1121.21 189.138 1121.21 Q186.962 1121.21 184.693 1120.84 Q182.448 1120.46 180.041 1119.72 L180.041 1115.02 Q182.124 1116.16 184.346 1116.71 Q186.568 1117.27 189.045 1117.27 Q193.05 1117.27 195.388 1115.16 Q197.726 1113.06 197.726 1109.45 Q197.726 1105.84 195.388 1103.73 Q193.05 1101.62 189.045 1101.62 Q187.17 1101.62 185.295 1102.04 Q183.443 1102.46 181.499 1103.34 L181.499 1085.97 Z" fill="#000000" fill-rule="evenodd" fill-opacity="1" /><path clip-path="url(#clip400)" d="M 0 0 M127.472 756.327 Q123.86 756.327 122.032 759.892 Q120.226 763.433 120.226 770.563 Q120.226 777.669 122.032 781.234 Q123.86 784.776 127.472 784.776 Q131.106 784.776 132.911 781.234 Q134.74 777.669 134.74 770.563 Q134.74 763.433 132.911 759.892 Q131.106 756.327 127.472 756.327 M127.472 752.623 Q133.282 752.623 136.337 757.23 Q139.416 761.813 139.416 770.563 Q139.416 779.29 136.337 783.896 Q133.282 788.48 127.472 788.48 Q121.661 788.48 118.583 783.896 Q115.527 779.29 115.527 770.563 Q115.527 761.813 118.583 757.23 Q121.661 752.623 127.472 752.623 Z" fill="#000000" fill-rule="evenodd" fill-opacity="1" /><path clip-path="url(#clip400)" d="M 0 0 M144.485 781.929 L149.37 781.929 L149.37 787.808 L144.485 787.808 L144.485 781.929 Z" fill="#000000" fill-rule="evenodd" fill-opacity="1" /><path clip-path="url(#clip400)" d="M 0 0 M154.485 753.248 L172.842 753.248 L172.842 757.183 L158.768 757.183 L158.768 765.656 Q159.786 765.308 160.805 765.146 Q161.823 764.961 162.842 764.961 Q168.629 764.961 172.008 768.132 Q175.388 771.304 175.388 776.72 Q175.388 782.299 171.916 785.401 Q168.444 788.48 162.124 788.48 Q159.948 788.48 157.68 788.109 Q155.434 787.739 153.027 786.998 L153.027 782.299 Q155.11 783.433 157.333 783.989 Q159.555 784.544 162.032 784.544 Q166.036 784.544 168.374 782.438 Q170.712 780.331 170.712 776.72 Q170.712 773.109 168.374 771.003 Q166.036 768.896 162.032 768.896 Q160.157 768.896 158.282 769.313 Q156.43 769.73 154.485 770.609 L154.485 753.248 Z" fill="#000000" fill-rule="evenodd" fill-opacity="1" /><path clip-path="url(#clip400)" d="M 0 0 M190.457 756.327 Q186.846 756.327 185.018 759.892 Q183.212 763.433 183.212 770.563 Q183.212 777.669 185.018 781.234 Q186.846 784.776 190.457 784.776 Q194.092 784.776 195.897 781.234 Q197.726 777.669 197.726 770.563 Q197.726 763.433 195.897 759.892 Q194.092 756.327 190.457 756.327 M190.457 752.623 Q196.267 752.623 199.323 757.23 Q202.402 761.813 202.402 770.563 Q202.402 779.29 199.323 783.896 Q196.267 788.48 190.457 788.48 Q184.647 788.48 181.569 783.896 Q178.513 779.29 178.513 770.563 Q178.513 761.813 181.569 757.23 Q184.647 752.623 190.457 752.623 Z" fill="#000000" fill-rule="evenodd" fill-opacity="1" /><path clip-path="url(#clip400)" d="M 0 0 M128.374 423.601 Q124.763 423.601 122.935 427.166 Q121.129 430.708 121.129 437.837 Q121.129 444.944 122.935 448.508 Q124.763 452.05 128.374 452.05 Q132.009 452.05 133.814 448.508 Q135.643 444.944 135.643 437.837 Q135.643 430.708 133.814 427.166 Q132.009 423.601 128.374 423.601 M128.374 419.897 Q134.184 419.897 137.24 424.504 Q140.319 429.087 140.319 437.837 Q140.319 446.564 137.24 451.17 Q134.184 455.754 128.374 455.754 Q122.564 455.754 119.486 451.17 Q116.43 446.564 116.43 437.837 Q116.43 429.087 119.486 424.504 Q122.564 419.897 128.374 419.897 Z" fill="#000000" fill-rule="evenodd" fill-opacity="1" /><path clip-path="url(#clip400)" d="M 0 0 M145.388 449.203 L150.272 449.203 L150.272 455.082 L145.388 455.082 L145.388 449.203 Z" fill="#000000" fill-rule="evenodd" fill-opacity="1" /><path clip-path="url(#clip400)" d="M 0 0 M154.161 420.522 L176.383 420.522 L176.383 422.513 L163.837 455.082 L158.953 455.082 L170.758 424.458 L154.161 424.458 L154.161 420.522 Z" fill="#000000" fill-rule="evenodd" fill-opacity="1" /><path clip-path="url(#clip400)" d="M 0 0 M181.499 420.522 L199.855 420.522 L199.855 424.458 L185.781 424.458 L185.781 432.93 Q186.8 432.583 187.818 432.421 Q188.837 432.235 189.855 432.235 Q195.643 432.235 199.022 435.407 Q202.402 438.578 202.402 443.995 Q202.402 449.573 198.93 452.675 Q195.457 455.754 189.138 455.754 Q186.962 455.754 184.693 455.383 Q182.448 455.013 180.041 454.272 L180.041 449.573 Q182.124 450.708 184.346 451.263 Q186.568 451.819 189.045 451.819 Q193.05 451.819 195.388 449.712 Q197.726 447.606 197.726 443.995 Q197.726 440.383 195.388 438.277 Q193.05 436.171 189.045 436.171 Q187.17 436.171 185.295 436.587 Q183.443 437.004 181.499 437.884 L181.499 420.522 Z" fill="#000000" fill-rule="evenodd" fill-opacity="1" /><path clip-path="url(#clip400)" d="M 0 0 M118.513 118.422 L126.152 118.422 L126.152 92.0559 L117.842 93.7226 L117.842 89.4633 L126.106 87.7967 L130.782 87.7967 L130.782 118.422 L138.421 118.422 L138.421 122.357 L118.513 122.357 L118.513 118.422 Z" fill="#000000" fill-rule="evenodd" fill-opacity="1" /><path clip-path="url(#clip400)" d="M 0 0 M143.49 116.477 L148.374 116.477 L148.374 122.357 L143.49 122.357 L143.49 116.477 Z" fill="#000000" fill-rule="evenodd" fill-opacity="1" /><path clip-path="url(#clip400)" d="M 0 0 M163.444 90.8754 Q159.833 90.8754 158.004 94.4402 Q156.198 97.9818 156.198 105.111 Q156.198 112.218 158.004 115.783 Q159.833 119.324 163.444 119.324 Q167.078 119.324 168.883 115.783 Q170.712 112.218 170.712 105.111 Q170.712 97.9818 168.883 94.4402 Q167.078 90.8754 163.444 90.8754 M163.444 87.1717 Q169.254 87.1717 172.309 91.7781 Q175.388 96.3614 175.388 105.111 Q175.388 113.838 172.309 118.445 Q169.254 123.028 163.444 123.028 Q157.633 123.028 154.555 118.445 Q151.499 113.838 151.499 105.111 Q151.499 96.3614 154.555 91.7781 Q157.633 87.1717 163.444 87.1717 Z" fill="#000000" fill-rule="evenodd" fill-opacity="1" /><path clip-path="url(#clip400)" d="M 0 0 M190.457 90.8754 Q186.846 90.8754 185.018 94.4402 Q183.212 97.9818 183.212 105.111 Q183.212 112.218 185.018 115.783 Q186.846 119.324 190.457 119.324 Q194.092 119.324 195.897 115.783 Q197.726 112.218 197.726 105.111 Q197.726 97.9818 195.897 94.4402 Q194.092 90.8754 190.457 90.8754 M190.457 87.1717 Q196.267 87.1717 199.323 91.7781 Q202.402 96.3614 202.402 105.111 Q202.402 113.838 199.323 118.445 Q196.267 123.028 190.457 123.028 Q184.647 123.028 181.569 118.445 Q178.513 113.838 178.513 105.111 Q178.513 96.3614 181.569 91.7781 Q184.647 87.1717 190.457 87.1717 Z" fill="#000000" fill-rule="evenodd" fill-opacity="1" /><path clip-path="url(#clip400)" d="M 0 0 M1310.09 4.53628 Q1310.01 4.94617 1309.84 5.68398 Q1309.68 6.3808 1308.94 8.59422 Q1308.2 10.8076 1307.22 13.0621 Q1306.28 15.2755 1304.43 18.3907 Q1302.63 21.4649 1300.42 24.2521 Q1299.8 24.9899 1299.68 25.4408 Q1299.6 25.8507 1299.6 27.2034 Q1299.6 35.7291 1302.18 35.7291 Q1302.3 35.7291 1302.51 35.7291 Q1302.75 35.6881 1303.37 35.4832 Q1304.02 35.2373 1304.6 34.8683 Q1305.17 34.4585 1305.83 33.6387 Q1306.48 32.7779 1306.89 31.6302 Q1307.26 30.8104 1308 30.8104 Q1308.98 30.8104 1308.98 31.6302 Q1308.98 33.1058 1306.93 35.3602 Q1304.88 37.6146 1301.93 37.6146 Q1299.1 37.6146 1297.1 35.7701 Q1295.13 33.8846 1294.31 30.5235 Q1285.46 37.6146 1276.6 37.6146 Q1270.37 37.6146 1266.68 33.5567 Q1262.99 29.4578 1262.99 23.3913 Q1262.99 17.5709 1266.19 12.0373 Q1269.43 6.50377 1274.68 3.06067 Q1279.96 -0.423422 1285.58 -0.423422 Q1287.55 -0.423422 1289.43 0.109439 Q1291.32 0.60131 1293.2 1.87198 Q1295.09 3.14265 1296.48 5.06914 Q1297.88 6.99564 1298.74 10.0288 Q1299.6 13.0621 1299.6 16.8741 L1299.6 22.0797 Q1305.01 15.2345 1307.84 5.43805 Q1308.25 3.96243 1308.49 3.79847 Q1308.66 3.67551 1309.07 3.67551 Q1309.48 3.67551 1309.72 3.92144 Q1310.01 4.12639 1310.05 4.33133 L1310.09 4.53628 M1293.98 28.3511 Q1293.82 26.9164 1293.82 18.9645 Q1293.82 17.4479 1293.82 16.6281 Q1293.82 15.7673 1293.74 14.1278 Q1293.65 12.4882 1293.49 11.4635 Q1293.37 10.4387 1293.08 8.96312 Q1292.79 7.48751 1292.38 6.54476 Q1291.97 5.602 1291.32 4.53628 Q1290.7 3.47056 1289.88 2.85572 Q1289.1 2.24088 1287.96 1.83099 Q1286.85 1.4211 1285.5 1.4211 Q1283.82 1.4211 1282.05 2.03594 Q1280.33 2.60978 1278.12 4.4543 Q1275.91 6.25783 1274.06 9.12708 Q1272.13 12.1603 1270.66 17.7348 Q1269.22 23.2684 1269.22 26.5885 Q1269.22 30.7694 1271.15 33.2698 Q1273.08 35.7291 1276.77 35.7291 Q1285.58 35.7291 1293.98 28.3511 Z" fill="#000000" fill-rule="evenodd" fill-opacity="1" /><path clip-path="url(#clip400)" d="M 0 0 M1303.74 1525.39 Q1303.74 1527.19 1302.61 1528.22 Q1301.48 1529.22 1300.2 1529.22 Q1298.97 1529.22 1298.33 1528.51 Q1297.68 1527.8 1297.68 1526.9 Q1297.68 1525.68 1298.59 1524.61 Q1299.49 1523.55 1300.84 1523.33 Q1299.52 1522.49 1297.56 1522.49 Q1296.27 1522.49 1295.14 1523.16 Q1294.04 1523.84 1293.37 1524.71 Q1292.72 1525.58 1292.14 1526.84 Q1291.6 1528.06 1291.37 1528.8 Q1291.18 1529.51 1291.02 1530.28 L1288.76 1539.3 Q1287.67 1543.58 1287.67 1545.1 Q1287.67 1546.97 1288.57 1548.22 Q1289.47 1549.44 1291.28 1549.44 Q1291.98 1549.44 1292.79 1549.25 Q1293.59 1549.03 1294.62 1548.45 Q1295.69 1547.83 1296.62 1546.93 Q1297.59 1546 1298.52 1544.42 Q1299.46 1542.84 1300.07 1540.81 Q1300.26 1540.11 1300.9 1540.11 Q1301.71 1540.11 1301.71 1540.75 Q1301.71 1541.3 1301.26 1542.46 Q1300.84 1543.58 1299.91 1545.06 Q1299 1546.51 1297.81 1547.83 Q1296.62 1549.12 1294.85 1550.02 Q1293.08 1550.93 1291.15 1550.93 Q1288.38 1550.93 1286.54 1549.44 Q1284.71 1547.96 1284.03 1545.9 Q1283.87 1546.19 1283.64 1546.58 Q1283.42 1546.97 1282.74 1547.83 Q1282.1 1548.67 1281.36 1549.32 Q1280.62 1549.93 1279.46 1550.41 Q1278.33 1550.93 1277.1 1550.93 Q1275.56 1550.93 1274.17 1550.48 Q1272.82 1550.02 1271.86 1548.99 Q1270.89 1547.96 1270.89 1546.55 Q1270.89 1544.97 1271.95 1543.87 Q1273.05 1542.75 1274.53 1542.75 Q1275.46 1542.75 1276.2 1543.29 Q1276.98 1543.84 1276.98 1545.03 Q1276.98 1546.35 1276.07 1547.35 Q1275.17 1548.35 1273.88 1548.61 Q1275.2 1549.44 1277.17 1549.44 Q1279.29 1549.44 1280.97 1547.58 Q1282.64 1545.71 1283.45 1542.59 Q1285.45 1535.08 1286.22 1531.73 Q1286.99 1528.35 1286.99 1526.9 Q1286.99 1525.55 1286.64 1524.61 Q1286.28 1523.68 1285.67 1523.26 Q1285.09 1522.81 1284.54 1522.65 Q1284.03 1522.49 1283.45 1522.49 Q1282.48 1522.49 1281.39 1522.88 Q1280.33 1523.26 1279.04 1524.16 Q1277.78 1525.03 1276.59 1526.84 Q1275.4 1528.64 1274.59 1531.12 Q1274.43 1531.86 1273.72 1531.86 Q1272.95 1531.83 1272.95 1531.18 Q1272.95 1530.64 1273.37 1529.51 Q1273.82 1528.35 1274.72 1526.9 Q1275.66 1525.45 1276.85 1524.16 Q1278.07 1522.84 1279.84 1521.94 Q1281.65 1521.04 1283.58 1521.04 Q1284.45 1521.04 1285.28 1521.23 Q1286.15 1521.39 1287.19 1521.88 Q1288.25 1522.36 1289.18 1523.42 Q1290.12 1524.49 1290.7 1526.03 Q1291.08 1525.29 1291.6 1524.58 Q1292.14 1523.87 1292.98 1523 Q1293.85 1522.1 1295.04 1521.59 Q1296.27 1521.04 1297.62 1521.04 Q1298.94 1521.04 1300.23 1521.39 Q1301.52 1521.72 1302.61 1522.78 Q1303.74 1523.81 1303.74 1525.39 Z" fill="#000000" fill-rule="evenodd" fill-opacity="1" /><path clip-path="url(#clip400)" d="M 0 0 M50.5695 752.42 Q51.0203 752.42 52.0831 752.71 L77.2681 759.022 Q82.8719 760.407 86.801 764.916 Q90.7302 769.393 90.7302 774.481 Q90.7302 777.541 89.0877 779.505 Q87.4774 781.47 84.9975 781.47 Q82.8075 781.47 81.7447 780.31 Q80.7141 779.151 80.7141 777.766 Q80.7141 777.315 80.843 776.832 Q80.9718 776.349 81.5193 775.834 Q82.0668 775.318 83.0008 775.318 Q84.5144 775.318 85.706 776.639 Q86.2535 777.283 86.3824 777.895 Q86.5112 778.475 86.5112 779.473 Q87.413 779.086 88.0249 778.378 Q88.6368 777.669 88.8622 776.864 Q89.1199 776.059 89.1843 775.544 Q89.2809 774.996 89.2809 774.481 Q89.2809 770.359 85.1263 767.203 Q83.8703 766.269 82.6143 765.592 Q81.3905 764.884 79.8768 764.368 Q78.3953 763.853 77.5902 763.628 Q76.785 763.37 74.9493 762.919 Q77.9444 765.914 77.9444 769.586 Q77.9444 771.132 77.5258 772.516 Q77.1071 773.869 76.2375 775.061 Q75.3358 776.252 73.7577 776.961 Q72.1796 777.637 70.0862 777.637 Q67.864 777.637 64.8366 776.768 Q61.8093 775.898 56.2377 773.805 Q53.1137 772.678 51.6 772.678 Q50.8593 772.678 50.4084 772.839 Q49.9253 773 49.7643 773.322 Q49.5711 773.644 49.5389 773.837 Q49.5067 773.998 49.5067 774.32 Q49.5067 776.22 51.439 777.991 Q53.3714 779.763 57.6869 780.987 Q58.4921 781.244 58.6853 781.405 Q58.8786 781.566 58.8786 782.049 Q58.8464 782.855 58.2022 782.855 Q57.9446 782.855 56.9462 782.565 Q55.9156 782.275 54.4019 781.599 Q52.8561 780.89 51.4712 779.924 Q50.0542 778.958 49.0558 777.444 Q48.0574 775.898 48.0574 774.127 Q48.0574 771.711 49.6355 770.23 Q51.1814 768.716 53.468 768.716 Q54.4019 768.716 55.2393 768.974 Q56.0444 769.199 58.2022 770.037 Q66.8978 773.418 71.149 773.418 Q72.1796 773.418 73.0491 773.257 Q73.8865 773.064 74.7238 772.645 Q75.529 772.227 76.0121 771.389 Q76.463 770.52 76.463 769.328 Q76.463 767.814 75.7544 766.397 Q75.0137 764.948 74.0153 764.046 Q73.0169 763.112 72.1796 762.565 Q71.31 761.985 70.8591 761.856 L59.0074 758.893 L53.7256 757.573 Q50.8593 756.961 50.1508 756.671 Q49.4745 756.285 49.1202 755.608 Q48.7659 754.932 48.7659 754.352 Q48.7659 753.547 49.249 753 Q49.7321 752.42 50.5695 752.42 Z" fill="#000000" fill-rule="evenodd" fill-opacity="1" /><polyline clip-path="url(#clip403)" style="stroke:#009af9; stroke-width:4; stroke-opacity:1; fill:none" points="
  286.582,663.605 509.47,545.734 732.358,387.139 955.246,1405.41 1178.13,367.927 1401.02,1407.21 1623.91,860.508 1846.8,912.26 2069.69,126.487 2292.58,414.632 
  
  "/>
<path clip-path="url(#clip400)" d="
M1994.6 254.277 L2281.88 254.277 L2281.88 133.317 L1994.6 133.317  Z
  " fill="#ffffff" fill-rule="evenodd" fill-opacity="1"/>
<polyline clip-path="url(#clip400)" style="stroke:#000000; stroke-width:4; stroke-opacity:1; fill:none" points="
  1994.6,254.277 2281.88,254.277 2281.88,133.317 1994.6,133.317 1994.6,254.277 
  "/>
<polyline clip-path="url(#clip400)" style="stroke:#009af9; stroke-width:4; stroke-opacity:1; fill:none" points="
  2018.22,193.797 2159.98,193.797 
  "/>
<path clip-path="url(#clip400)" d="M 0 0 M2197.45 213.484 Q2195.64 218.114 2193.93 219.526 Q2192.22 220.938 2189.35 220.938 L2185.94 220.938 L2185.94 217.373 L2188.44 217.373 Q2190.2 217.373 2191.18 216.54 Q2192.15 215.707 2193.33 212.605 L2194.09 210.66 L2183.61 185.151 L2188.12 185.151 L2196.22 205.429 L2204.32 185.151 L2208.84 185.151 L2197.45 213.484 Z" fill="#000000" fill-rule="evenodd" fill-opacity="1" /><path clip-path="url(#clip400)" d="M 0 0 M2214.72 207.142 L2222.36 207.142 L2222.36 180.776 L2214.05 182.443 L2214.05 178.184 L2222.31 176.517 L2226.99 176.517 L2226.99 207.142 L2234.63 207.142 L2234.63 211.077 L2214.72 211.077 L2214.72 207.142 Z" fill="#000000" fill-rule="evenodd" fill-opacity="1" /></svg>
