<?xml version="1.0" encoding="utf-8"?>
<svg xmlns="http://www.w3.org/2000/svg" xmlns:xlink="http://www.w3.org/1999/xlink" width="600" height="400" viewBox="0 0 2400 1600">
<defs>
  <clipPath id="clip800">
    <rect x="0" y="0" width="2400" height="1600"/>
  </clipPath>
</defs>
<path clip-path="url(#clip800)" d="
M0 1600 L2400 1600 L2400 0 L0 0  Z
  " fill="#ffffff" fill-rule="evenodd" fill-opacity="1"/>
<defs>
  <clipPath id="clip801">
    <rect x="480" y="0" width="1681" height="1600"/>
  </clipPath>
</defs>
<defs>
  <clipPath id="clip802">
    <rect x="2137" y="0" width="73" height="1600"/>
  </clipPath>
</defs>
<path clip-path="url(#clip800)" d="
M199.874 1445.63 L2352.76 1445.63 L2352.76 88.065 L199.874 88.065  Z
  " fill="#ffffff" fill-rule="evenodd" fill-opacity="1"/>
<defs>
  <clipPath id="clip803">
    <rect x="199" y="88" width="2154" height="1359"/>
  </clipPath>
</defs>
<polyline clip-path="url(#clip803)" style="stroke:#000000; stroke-width:2; stroke-opacity:0.1; fill:none" points="
  486.474,1445.63 486.474,88.065 
  "/>
<polyline clip-path="url(#clip803)" style="stroke:#000000; stroke-width:2; stroke-opacity:0.1; fill:none" points="
  937.812,1445.63 937.812,88.065 
  "/>
<polyline clip-path="url(#clip803)" style="stroke:#000000; stroke-width:2; stroke-opacity:0.1; fill:none" points="
  1389.15,1445.63 1389.15,88.065 
  "/>
<polyline clip-path="url(#clip803)" style="stroke:#000000; stroke-width:2; stroke-opacity:0.1; fill:none" points="
  1840.49,1445.63 1840.49,88.065 
  "/>
<polyline clip-path="url(#clip803)" style="stroke:#000000; stroke-width:2; stroke-opacity:0.1; fill:none" points="
  2291.83,1445.63 2291.83,88.065 
  "/>
<polyline clip-path="url(#clip803)" style="stroke:#000000; stroke-width:2; stroke-opacity:0.1; fill:none" points="
  199.874,1174.77 2352.76,1174.77 
  "/>
<polyline clip-path="url(#clip803)" style="stroke:#000000; stroke-width:2; stroke-opacity:0.1; fill:none" points="
  199.874,879.388 2352.76,879.388 
  "/>
<polyline clip-path="url(#clip803)" style="stroke:#000000; stroke-width:2; stroke-opacity:0.1; fill:none" points="
  199.874,584.003 2352.76,584.003 
  "/>
<polyline clip-path="url(#clip803)" style="stroke:#000000; stroke-width:2; stroke-opacity:0.1; fill:none" points="
  199.874,288.619 2352.76,288.619 
  "/>
<polyline clip-path="url(#clip800)" style="stroke:#000000; stroke-width:4; stroke-opacity:1; fill:none" points="
  199.874,1445.63 2352.76,1445.63 
  "/>
<polyline clip-path="url(#clip800)" style="stroke:#000000; stroke-width:4; stroke-opacity:1; fill:none" points="
  199.874,1445.63 199.874,88.065 
  "/>
<polyline clip-path="url(#clip800)" style="stroke:#000000; stroke-width:4; stroke-opacity:1; fill:none" points="
  486.474,1445.63 486.474,1429.34 
  "/>
<polyline clip-path="url(#clip800)" style="stroke:#000000; stroke-width:4; stroke-opacity:1; fill:none" points="
  937.812,1445.63 937.812,1429.34 
  "/>
<polyline clip-path="url(#clip800)" style="stroke:#000000; stroke-width:4; stroke-opacity:1; fill:none" points="
  1389.15,1445.63 1389.15,1429.34 
  "/>
<polyline clip-path="url(#clip800)" style="stroke:#000000; stroke-width:4; stroke-opacity:1; fill:none" points="
  1840.49,1445.63 1840.49,1429.34 
  "/>
<polyline clip-path="url(#clip800)" style="stroke:#000000; stroke-width:4; stroke-opacity:1; fill:none" points="
  2291.83,1445.63 2291.83,1429.34 
  "/>
<polyline clip-path="url(#clip800)" style="stroke:#000000; stroke-width:4; stroke-opacity:1; fill:none" points="
  199.874,1174.77 225.709,1174.77 
  "/>
<polyline clip-path="url(#clip800)" style="stroke:#000000; stroke-width:4; stroke-opacity:1; fill:none" points="
  199.874,879.388 225.709,879.388 
  "/>
<polyline clip-path="url(#clip800)" style="stroke:#000000; stroke-width:4; stroke-opacity:1; fill:none" points="
  199.874,584.003 225.709,584.003 
  "/>
<polyline clip-path="url(#clip800)" style="stroke:#000000; stroke-width:4; stroke-opacity:1; fill:none" points="
  199.874,288.619 225.709,288.619 
  "/>
<path clip-path="url(#clip800)" d="M 0 0 M481.126 1495.16 L497.446 1495.16 L497.446 1499.1 L475.501 1499.1 L475.501 1495.16 Q478.164 1492.41 482.747 1487.78 Q487.353 1483.13 488.534 1481.78 Q490.779 1479.26 491.659 1477.52 Q492.562 1475.77 492.562 1474.08 Q492.562 1471.32 490.617 1469.59 Q488.696 1467.85 485.594 1467.85 Q483.395 1467.85 480.941 1468.61 Q478.511 1469.38 475.733 1470.93 L475.733 1466.21 Q478.557 1465.07 481.011 1464.49 Q483.464 1463.91 485.501 1463.91 Q490.872 1463.91 494.066 1466.6 Q497.261 1469.28 497.261 1473.77 Q497.261 1475.9 496.45 1477.83 Q495.663 1479.72 493.557 1482.32 Q492.978 1482.99 489.876 1486.21 Q486.775 1489.4 481.126 1495.16 Z" fill="#000000" fill-rule="evenodd" fill-opacity="1" /><path clip-path="url(#clip800)" d="M 0 0 M940.821 1468.61 L929.015 1487.06 L940.821 1487.06 L940.821 1468.61 M939.594 1464.54 L945.474 1464.54 L945.474 1487.06 L950.404 1487.06 L950.404 1490.95 L945.474 1490.95 L945.474 1499.1 L940.821 1499.1 L940.821 1490.95 L925.219 1490.95 L925.219 1486.44 L939.594 1464.54 Z" fill="#000000" fill-rule="evenodd" fill-opacity="1" /><path clip-path="url(#clip800)" d="M 0 0 M1389.55 1479.96 Q1386.41 1479.96 1384.55 1482.11 Q1382.73 1484.26 1382.73 1488.01 Q1382.73 1491.74 1384.55 1493.91 Q1386.41 1496.07 1389.55 1496.07 Q1392.7 1496.07 1394.53 1493.91 Q1396.38 1491.74 1396.38 1488.01 Q1396.38 1484.26 1394.53 1482.11 Q1392.7 1479.96 1389.55 1479.96 M1398.84 1465.3 L1398.84 1469.56 Q1397.08 1468.73 1395.27 1468.29 Q1393.49 1467.85 1391.73 1467.85 Q1387.1 1467.85 1384.65 1470.97 Q1382.22 1474.1 1381.87 1480.42 Q1383.24 1478.4 1385.3 1477.34 Q1387.36 1476.25 1389.83 1476.25 Q1395.04 1476.25 1398.05 1479.42 Q1401.08 1482.57 1401.08 1488.01 Q1401.08 1493.34 1397.93 1496.55 Q1394.79 1499.77 1389.55 1499.77 Q1383.56 1499.77 1380.39 1495.19 Q1377.22 1490.58 1377.22 1481.85 Q1377.22 1473.66 1381.11 1468.8 Q1384.99 1463.91 1391.55 1463.91 Q1393.3 1463.91 1395.09 1464.26 Q1396.89 1464.61 1398.84 1465.3 Z" fill="#000000" fill-rule="evenodd" fill-opacity="1" /><path clip-path="url(#clip800)" d="M 0 0 M1840.49 1482.69 Q1837.15 1482.69 1835.23 1484.47 Q1833.33 1486.25 1833.33 1489.38 Q1833.33 1492.5 1835.23 1494.28 Q1837.15 1496.07 1840.49 1496.07 Q1843.82 1496.07 1845.74 1494.28 Q1847.66 1492.48 1847.66 1489.38 Q1847.66 1486.25 1845.74 1484.47 Q1843.84 1482.69 1840.49 1482.69 M1835.81 1480.7 Q1832.8 1479.96 1831.11 1477.9 Q1829.45 1475.84 1829.45 1472.87 Q1829.45 1468.73 1832.39 1466.32 Q1835.35 1463.91 1840.49 1463.91 Q1845.65 1463.91 1848.59 1466.32 Q1851.53 1468.73 1851.53 1472.87 Q1851.53 1475.84 1849.84 1477.9 Q1848.17 1479.96 1845.19 1480.7 Q1848.57 1481.48 1850.44 1483.77 Q1852.34 1486.07 1852.34 1489.38 Q1852.34 1494.4 1849.26 1497.09 Q1846.2 1499.77 1840.49 1499.77 Q1834.77 1499.77 1831.69 1497.09 Q1828.64 1494.4 1828.64 1489.38 Q1828.64 1486.07 1830.53 1483.77 Q1832.43 1481.48 1835.81 1480.7 M1834.1 1473.31 Q1834.1 1476 1835.77 1477.5 Q1837.45 1479.01 1840.49 1479.01 Q1843.5 1479.01 1845.19 1477.5 Q1846.9 1476 1846.9 1473.31 Q1846.9 1470.63 1845.19 1469.12 Q1843.5 1467.62 1840.49 1467.62 Q1837.45 1467.62 1835.77 1469.12 Q1834.1 1470.63 1834.1 1473.31 Z" fill="#000000" fill-rule="evenodd" fill-opacity="1" /><path clip-path="url(#clip800)" d="M 0 0 M2268.7 1495.16 L2276.34 1495.16 L2276.34 1468.8 L2268.03 1470.46 L2268.03 1466.21 L2276.29 1464.54 L2280.97 1464.54 L2280.97 1495.16 L2288.61 1495.16 L2288.61 1499.1 L2268.7 1499.1 L2268.7 1495.16 Z" fill="#000000" fill-rule="evenodd" fill-opacity="1" /><path clip-path="url(#clip800)" d="M 0 0 M2303.68 1467.62 Q2300.07 1467.62 2298.24 1471.18 Q2296.43 1474.72 2296.43 1481.85 Q2296.43 1488.96 2298.24 1492.52 Q2300.07 1496.07 2303.68 1496.07 Q2307.31 1496.07 2309.12 1492.52 Q2310.95 1488.96 2310.95 1481.85 Q2310.95 1474.72 2309.12 1471.18 Q2307.31 1467.62 2303.68 1467.62 M2303.68 1463.91 Q2309.49 1463.91 2312.54 1468.52 Q2315.62 1473.1 2315.62 1481.85 Q2315.62 1490.58 2312.54 1495.19 Q2309.49 1499.77 2303.68 1499.77 Q2297.87 1499.77 2294.79 1495.19 Q2291.73 1490.58 2291.73 1481.85 Q2291.73 1473.1 2294.79 1468.52 Q2297.87 1463.91 2303.68 1463.91 Z" fill="#000000" fill-rule="evenodd" fill-opacity="1" /><path clip-path="url(#clip800)" d="M 0 0 M128.56 1160.57 Q124.948 1160.57 123.12 1164.14 Q121.314 1167.68 121.314 1174.81 Q121.314 1181.91 123.12 1185.48 Q124.948 1189.02 128.56 1189.02 Q132.194 1189.02 133.999 1185.48 Q135.828 1181.91 135.828 1174.81 Q135.828 1167.68 133.999 1164.14 Q132.194 1160.57 128.56 1160.57 M128.56 1156.87 Q134.37 1156.87 137.425 1161.47 Q140.504 1166.06 140.504 1174.81 Q140.504 1183.53 137.425 1188.14 Q134.37 1192.72 128.56 1192.72 Q122.749 1192.72 119.671 1188.14 Q116.615 1183.53 116.615 1174.81 Q116.615 1166.06 119.671 1161.47 Q122.749 1156.87 128.56 1156.87 Z" fill="#000000" fill-rule="evenodd" fill-opacity="1" /><path clip-path="url(#clip800)" d="M 0 0 M145.573 1186.17 L150.458 1186.17 L150.458 1192.05 L145.573 1192.05 L145.573 1186.17 Z" fill="#000000" fill-rule="evenodd" fill-opacity="1" /><path clip-path="url(#clip800)" d="M 0 0 M159.555 1188.12 L175.874 1188.12 L175.874 1192.05 L153.93 1192.05 L153.93 1188.12 Q156.592 1185.36 161.175 1180.73 Q165.782 1176.08 166.962 1174.74 Q169.207 1172.21 170.087 1170.48 Q170.99 1168.72 170.99 1167.03 Q170.99 1164.27 169.045 1162.54 Q167.124 1160.8 164.022 1160.8 Q161.823 1160.8 159.37 1161.57 Q156.939 1162.33 154.161 1163.88 L154.161 1159.16 Q156.985 1158.02 159.439 1157.45 Q161.893 1156.87 163.93 1156.87 Q169.3 1156.87 172.494 1159.55 Q175.689 1162.24 175.689 1166.73 Q175.689 1168.86 174.879 1170.78 Q174.092 1172.68 171.985 1175.27 Q171.407 1175.94 168.305 1179.16 Q165.203 1182.35 159.555 1188.12 Z" fill="#000000" fill-rule="evenodd" fill-opacity="1" /><path clip-path="url(#clip800)" d="M 0 0 M126.476 865.186 Q122.865 865.186 121.036 868.751 Q119.231 872.293 119.231 879.422 Q119.231 886.529 121.036 890.094 Q122.865 893.635 126.476 893.635 Q130.11 893.635 131.916 890.094 Q133.745 886.529 133.745 879.422 Q133.745 872.293 131.916 868.751 Q130.11 865.186 126.476 865.186 M126.476 861.483 Q132.286 861.483 135.342 866.089 Q138.421 870.672 138.421 879.422 Q138.421 888.149 135.342 892.756 Q132.286 897.339 126.476 897.339 Q120.666 897.339 117.587 892.756 Q114.532 888.149 114.532 879.422 Q114.532 870.672 117.587 866.089 Q120.666 861.483 126.476 861.483 Z" fill="#000000" fill-rule="evenodd" fill-opacity="1" /><path clip-path="url(#clip800)" d="M 0 0 M143.49 890.788 L148.374 890.788 L148.374 896.668 L143.49 896.668 L143.49 890.788 Z" fill="#000000" fill-rule="evenodd" fill-opacity="1" /><path clip-path="url(#clip800)" d="M 0 0 M166.291 866.182 L154.485 884.631 L166.291 884.631 L166.291 866.182 M165.064 862.108 L170.944 862.108 L170.944 884.631 L175.874 884.631 L175.874 888.52 L170.944 888.52 L170.944 896.668 L166.291 896.668 L166.291 888.52 L150.689 888.52 L150.689 884.006 L165.064 862.108 Z" fill="#000000" fill-rule="evenodd" fill-opacity="1" /><path clip-path="url(#clip800)" d="M 0 0 M126.8 569.802 Q123.189 569.802 121.36 573.367 Q119.555 576.909 119.555 584.038 Q119.555 591.145 121.36 594.709 Q123.189 598.251 126.8 598.251 Q130.435 598.251 132.24 594.709 Q134.069 591.145 134.069 584.038 Q134.069 576.909 132.24 573.367 Q130.435 569.802 126.8 569.802 M126.8 566.098 Q132.61 566.098 135.666 570.705 Q138.745 575.288 138.745 584.038 Q138.745 592.765 135.666 597.371 Q132.61 601.955 126.8 601.955 Q120.99 601.955 117.911 597.371 Q114.856 592.765 114.856 584.038 Q114.856 575.288 117.911 570.705 Q120.99 566.098 126.8 566.098 Z" fill="#000000" fill-rule="evenodd" fill-opacity="1" /><path clip-path="url(#clip800)" d="M 0 0 M143.814 595.404 L148.698 595.404 L148.698 601.283 L143.814 601.283 L143.814 595.404 Z" fill="#000000" fill-rule="evenodd" fill-opacity="1" /><path clip-path="url(#clip800)" d="M 0 0 M164.346 582.14 Q161.198 582.14 159.346 584.293 Q157.518 586.446 157.518 590.196 Q157.518 593.922 159.346 596.098 Q161.198 598.251 164.346 598.251 Q167.495 598.251 169.323 596.098 Q171.175 593.922 171.175 590.196 Q171.175 586.446 169.323 584.293 Q167.495 582.14 164.346 582.14 M173.629 567.487 L173.629 571.747 Q171.869 570.913 170.064 570.473 Q168.282 570.034 166.522 570.034 Q161.893 570.034 159.439 573.159 Q157.008 576.284 156.661 582.603 Q158.027 580.589 160.087 579.524 Q162.147 578.436 164.624 578.436 Q169.832 578.436 172.842 581.608 Q175.874 584.756 175.874 590.196 Q175.874 595.52 172.726 598.737 Q169.578 601.955 164.346 601.955 Q158.351 601.955 155.18 597.371 Q152.008 592.765 152.008 584.038 Q152.008 575.844 155.897 570.983 Q159.786 566.098 166.337 566.098 Q168.096 566.098 169.879 566.446 Q171.684 566.793 173.629 567.487 Z" fill="#000000" fill-rule="evenodd" fill-opacity="1" /><path clip-path="url(#clip800)" d="M 0 0 M127.055 274.418 Q123.444 274.418 121.615 277.983 Q119.81 281.524 119.81 288.654 Q119.81 295.76 121.615 299.325 Q123.444 302.867 127.055 302.867 Q130.689 302.867 132.495 299.325 Q134.323 295.76 134.323 288.654 Q134.323 281.524 132.495 277.983 Q130.689 274.418 127.055 274.418 M127.055 270.714 Q132.865 270.714 135.921 275.321 Q138.999 279.904 138.999 288.654 Q138.999 297.381 135.921 301.987 Q132.865 306.571 127.055 306.571 Q121.245 306.571 118.166 301.987 Q115.111 297.381 115.111 288.654 Q115.111 279.904 118.166 275.321 Q121.245 270.714 127.055 270.714 Z" fill="#000000" fill-rule="evenodd" fill-opacity="1" /><path clip-path="url(#clip800)" d="M 0 0 M144.069 300.02 L148.953 300.02 L148.953 305.899 L144.069 305.899 L144.069 300.02 Z" fill="#000000" fill-rule="evenodd" fill-opacity="1" /><path clip-path="url(#clip800)" d="M 0 0 M164.022 289.487 Q160.689 289.487 158.768 291.27 Q156.87 293.052 156.87 296.177 Q156.87 299.302 158.768 301.084 Q160.689 302.867 164.022 302.867 Q167.356 302.867 169.277 301.084 Q171.198 299.279 171.198 296.177 Q171.198 293.052 169.277 291.27 Q167.379 289.487 164.022 289.487 M159.346 287.497 Q156.337 286.756 154.647 284.696 Q152.981 282.636 152.981 279.673 Q152.981 275.529 155.92 273.122 Q158.883 270.714 164.022 270.714 Q169.184 270.714 172.124 273.122 Q175.064 275.529 175.064 279.673 Q175.064 282.636 173.374 284.696 Q171.707 286.756 168.721 287.497 Q172.101 288.284 173.976 290.575 Q175.874 292.867 175.874 296.177 Q175.874 301.2 172.795 303.885 Q169.74 306.571 164.022 306.571 Q158.305 306.571 155.226 303.885 Q152.171 301.2 152.171 296.177 Q152.171 292.867 154.069 290.575 Q155.967 288.284 159.346 287.497 M157.633 280.112 Q157.633 282.798 159.3 284.302 Q160.99 285.807 164.022 285.807 Q167.032 285.807 168.721 284.302 Q170.434 282.798 170.434 280.112 Q170.434 277.427 168.721 275.923 Q167.032 274.418 164.022 274.418 Q160.99 274.418 159.3 275.923 Q157.633 277.427 157.633 280.112 Z" fill="#000000" fill-rule="evenodd" fill-opacity="1" /><path clip-path="url(#clip800)" d="M 0 0 M1296.83 4.53628 Q1296.74 4.94617 1296.58 5.68398 Q1296.42 6.3808 1295.68 8.59422 Q1294.94 10.8076 1293.96 13.0621 Q1293.01 15.2755 1291.17 18.3907 Q1289.37 21.4649 1287.15 24.2521 Q1286.54 24.9899 1286.42 25.4408 Q1286.33 25.8507 1286.33 27.2034 Q1286.33 35.7291 1288.92 35.7291 Q1289.04 35.7291 1289.24 35.7291 Q1289.49 35.6881 1290.1 35.4832 Q1290.76 35.2373 1291.33 34.8683 Q1291.91 34.4585 1292.56 33.6387 Q1293.22 32.7779 1293.63 31.6302 Q1294 30.8104 1294.74 30.8104 Q1295.72 30.8104 1295.72 31.6302 Q1295.72 33.1058 1293.67 35.3602 Q1291.62 37.6146 1288.67 37.6146 Q1285.84 37.6146 1283.83 35.7701 Q1281.87 33.8846 1281.05 30.5235 Q1272.19 37.6146 1263.34 37.6146 Q1257.11 37.6146 1253.42 33.5567 Q1249.73 29.4578 1249.73 23.3913 Q1249.73 17.5709 1252.93 12.0373 Q1256.16 6.50377 1261.41 3.06067 Q1266.7 -0.423422 1272.31 -0.423422 Q1274.28 -0.423422 1276.17 0.109439 Q1278.05 0.60131 1279.94 1.87198 Q1281.82 3.14265 1283.22 5.06914 Q1284.61 6.99564 1285.47 10.0288 Q1286.33 13.0621 1286.33 16.8741 L1286.33 22.0797 Q1291.74 15.2345 1294.57 5.43805 Q1294.98 3.96243 1295.23 3.79847 Q1295.39 3.67551 1295.8 3.67551 Q1296.21 3.67551 1296.46 3.92144 Q1296.74 4.12639 1296.79 4.33133 L1296.83 4.53628 M1280.72 28.3511 Q1280.55 26.9164 1280.55 18.9645 Q1280.55 17.4479 1280.55 16.6281 Q1280.55 15.7673 1280.47 14.1278 Q1280.39 12.4882 1280.23 11.4635 Q1280.1 10.4387 1279.82 8.96312 Q1279.53 7.48751 1279.12 6.54476 Q1278.71 5.602 1278.05 4.53628 Q1277.44 3.47056 1276.62 2.85572 Q1275.84 2.24088 1274.69 1.83099 Q1273.59 1.4211 1272.23 1.4211 Q1270.55 1.4211 1268.79 2.03594 Q1267.07 2.60978 1264.85 4.4543 Q1262.64 6.25783 1260.8 9.12708 Q1258.87 12.1603 1257.39 17.7348 Q1255.96 23.2684 1255.96 26.5885 Q1255.96 30.7694 1257.89 33.2698 Q1259.81 35.7291 1263.5 35.7291 Q1272.31 35.7291 1280.72 28.3511 Z" fill="#000000" fill-rule="evenodd" fill-opacity="1" /><path clip-path="url(#clip800)" d="M 0 0 M1290.48 1525.39 Q1290.48 1527.19 1289.35 1528.22 Q1288.22 1529.22 1286.93 1529.22 Q1285.71 1529.22 1285.06 1528.51 Q1284.42 1527.8 1284.42 1526.9 Q1284.42 1525.68 1285.32 1524.61 Q1286.22 1523.55 1287.58 1523.33 Q1286.26 1522.49 1284.29 1522.49 Q1283 1522.49 1281.88 1523.16 Q1280.78 1523.84 1280.1 1524.71 Q1279.46 1525.58 1278.88 1526.84 Q1278.33 1528.06 1278.11 1528.8 Q1277.91 1529.51 1277.75 1530.28 L1275.5 1539.3 Q1274.4 1543.58 1274.4 1545.1 Q1274.4 1546.97 1275.31 1548.22 Q1276.21 1549.44 1278.01 1549.44 Q1278.72 1549.44 1279.53 1549.25 Q1280.33 1549.03 1281.36 1548.45 Q1282.42 1547.83 1283.36 1546.93 Q1284.32 1546 1285.26 1544.42 Q1286.19 1542.84 1286.8 1540.81 Q1287 1540.11 1287.64 1540.11 Q1288.45 1540.11 1288.45 1540.75 Q1288.45 1541.3 1288 1542.46 Q1287.58 1543.58 1286.64 1545.06 Q1285.74 1546.51 1284.55 1547.83 Q1283.36 1549.12 1281.59 1550.02 Q1279.81 1550.93 1277.88 1550.93 Q1275.11 1550.93 1273.28 1549.44 Q1271.44 1547.96 1270.77 1545.9 Q1270.6 1546.19 1270.38 1546.58 Q1270.15 1546.97 1269.48 1547.83 Q1268.83 1548.67 1268.09 1549.32 Q1267.35 1549.93 1266.19 1550.41 Q1265.06 1550.93 1263.84 1550.93 Q1262.29 1550.93 1260.91 1550.48 Q1259.56 1550.02 1258.59 1548.99 Q1257.63 1547.96 1257.63 1546.55 Q1257.63 1544.97 1258.69 1543.87 Q1259.78 1542.75 1261.26 1542.75 Q1262.2 1542.75 1262.94 1543.29 Q1263.71 1543.84 1263.71 1545.03 Q1263.71 1546.35 1262.81 1547.35 Q1261.91 1548.35 1260.62 1548.61 Q1261.94 1549.44 1263.91 1549.44 Q1266.03 1549.44 1267.71 1547.58 Q1269.38 1545.71 1270.19 1542.59 Q1272.18 1535.08 1272.96 1531.73 Q1273.73 1528.35 1273.73 1526.9 Q1273.73 1525.55 1273.37 1524.61 Q1273.02 1523.68 1272.41 1523.26 Q1271.83 1522.81 1271.28 1522.65 Q1270.77 1522.49 1270.19 1522.49 Q1269.22 1522.49 1268.12 1522.88 Q1267.06 1523.26 1265.77 1524.16 Q1264.52 1525.03 1263.33 1526.84 Q1262.13 1528.64 1261.33 1531.12 Q1261.17 1531.86 1260.46 1531.86 Q1259.69 1531.83 1259.69 1531.18 Q1259.69 1530.64 1260.1 1529.51 Q1260.56 1528.35 1261.46 1526.9 Q1262.39 1525.45 1263.58 1524.16 Q1264.81 1522.84 1266.58 1521.94 Q1268.38 1521.04 1270.31 1521.04 Q1271.18 1521.04 1272.02 1521.23 Q1272.89 1521.39 1273.92 1521.88 Q1274.98 1522.36 1275.92 1523.42 Q1276.85 1524.49 1277.43 1526.03 Q1277.82 1525.29 1278.33 1524.58 Q1278.88 1523.87 1279.72 1523 Q1280.59 1522.1 1281.78 1521.59 Q1283 1521.04 1284.36 1521.04 Q1285.68 1521.04 1286.96 1521.39 Q1288.25 1521.72 1289.35 1522.78 Q1290.48 1523.81 1290.48 1525.39 Z" fill="#000000" fill-rule="evenodd" fill-opacity="1" /><path clip-path="url(#clip800)" d="M 0 0 M50.5695 752.42 Q51.0203 752.42 52.0831 752.71 L77.2681 759.022 Q82.8719 760.407 86.801 764.916 Q90.7302 769.393 90.7302 774.481 Q90.7302 777.541 89.0877 779.505 Q87.4774 781.47 84.9975 781.47 Q82.8075 781.47 81.7447 780.31 Q80.7141 779.151 80.7141 777.766 Q80.7141 777.315 80.843 776.832 Q80.9718 776.349 81.5193 775.834 Q82.0668 775.318 83.0008 775.318 Q84.5144 775.318 85.706 776.639 Q86.2535 777.283 86.3824 777.895 Q86.5112 778.475 86.5112 779.473 Q87.413 779.086 88.0249 778.378 Q88.6368 777.669 88.8622 776.864 Q89.1199 776.059 89.1843 775.544 Q89.2809 774.996 89.2809 774.481 Q89.2809 770.359 85.1263 767.203 Q83.8703 766.269 82.6143 765.592 Q81.3905 764.884 79.8768 764.368 Q78.3953 763.853 77.5902 763.628 Q76.785 763.37 74.9493 762.919 Q77.9444 765.914 77.9444 769.586 Q77.9444 771.132 77.5258 772.516 Q77.1071 773.869 76.2375 775.061 Q75.3358 776.252 73.7577 776.961 Q72.1796 777.637 70.0862 777.637 Q67.864 777.637 64.8366 776.768 Q61.8093 775.898 56.2377 773.805 Q53.1137 772.678 51.6 772.678 Q50.8593 772.678 50.4084 772.839 Q49.9253 773 49.7643 773.322 Q49.5711 773.644 49.5389 773.837 Q49.5067 773.998 49.5067 774.32 Q49.5067 776.22 51.439 777.991 Q53.3714 779.763 57.6869 780.987 Q58.4921 781.244 58.6853 781.405 Q58.8786 781.566 58.8786 782.049 Q58.8464 782.855 58.2022 782.855 Q57.9446 782.855 56.9462 782.565 Q55.9156 782.275 54.4019 781.599 Q52.8561 780.89 51.4712 779.924 Q50.0542 778.958 49.0558 777.444 Q48.0574 775.898 48.0574 774.127 Q48.0574 771.711 49.6355 770.23 Q51.1814 768.716 53.468 768.716 Q54.4019 768.716 55.2393 768.974 Q56.0444 769.199 58.2022 770.037 Q66.8978 773.418 71.149 773.418 Q72.1796 773.418 73.0491 773.257 Q73.8865 773.064 74.7238 772.645 Q75.529 772.227 76.0121 771.389 Q76.463 770.52 76.463 769.328 Q76.463 767.814 75.7544 766.397 Q75.0137 764.948 74.0153 764.046 Q73.0169 763.112 72.1796 762.565 Q71.31 761.985 70.8591 761.856 L59.0074 758.893 L53.7256 757.573 Q50.8593 756.961 50.1508 756.671 Q49.4745 756.285 49.1202 755.608 Q48.7659 754.932 48.7659 754.352 Q48.7659 753.547 49.249 753 Q49.7321 752.42 50.5695 752.42 Z" fill="#000000" fill-rule="evenodd" fill-opacity="1" /><polyline clip-path="url(#clip803)" style="stroke:#009af9; stroke-width:4; stroke-opacity:1; fill:none" points="
  260.805,126.487 486.474,701.485 712.143,1407.21 937.812,981.056 1163.48,772.604 1389.15,297.049 1614.82,1334.15 1840.49,1320.51 2066.16,664.811 2291.83,520.116 
  
  "/>
<path clip-path="url(#clip800)" d="
M1990.77 254.277 L2280.99 254.277 L2280.99 133.317 L1990.77 133.317  Z
  " fill="#ffffff" fill-rule="evenodd" fill-opacity="1"/>
<polyline clip-path="url(#clip800)" style="stroke:#000000; stroke-width:4; stroke-opacity:1; fill:none" points="
  1990.77,254.277 2280.99,254.277 2280.99,133.317 1990.77,133.317 1990.77,254.277 
  "/>
<polyline clip-path="url(#clip800)" style="stroke:#009af9; stroke-width:4; stroke-opacity:1; fill:none" points="
  2014.69,193.797 2158.21,193.797 
  "/>
<path clip-path="url(#clip800)" d="M 0 0 M2195.98 213.484 Q2194.17 218.114 2192.46 219.526 Q2190.74 220.938 2187.87 220.938 L2184.47 220.938 L2184.47 217.373 L2186.97 217.373 Q2188.73 217.373 2189.7 216.54 Q2190.67 215.707 2191.86 212.605 L2192.62 210.66 L2182.13 185.151 L2186.65 185.151 L2194.75 205.429 L2202.85 185.151 L2207.36 185.151 L2195.98 213.484 Z" fill="#000000" fill-rule="evenodd" fill-opacity="1" /><path clip-path="url(#clip800)" d="M 0 0 M2213.24 207.142 L2220.88 207.142 L2220.88 180.776 L2212.57 182.443 L2212.57 178.184 L2220.84 176.517 L2225.51 176.517 L2225.51 207.142 L2233.15 207.142 L2233.15 211.077 L2213.24 211.077 L2213.24 207.142 Z" fill="#000000" fill-rule="evenodd" fill-opacity="1" /></svg>
