<?xml version="1.0" encoding="utf-8"?>
<svg xmlns="http://www.w3.org/2000/svg" xmlns:xlink="http://www.w3.org/1999/xlink" width="600" height="400" viewBox="0 0 2400 1600">
<defs>
  <clipPath id="clip7500">
    <rect x="0" y="0" width="2400" height="1600"/>
  </clipPath>
</defs>
<path clip-path="url(#clip7500)" d="
M0 1600 L2400 1600 L2400 0 L0 0  Z
  " fill="#ffffff" fill-rule="evenodd" fill-opacity="1"/>
<defs>
  <clipPath id="clip7501">
    <rect x="480" y="0" width="1681" height="1600"/>
  </clipPath>
</defs>
<path clip-path="url(#clip7500)" d="
M179.769 1455.01 L2352.76 1455.01 L2352.76 47.2441 L179.769 47.2441  Z
  " fill="#ffffff" fill-rule="evenodd" fill-opacity="1"/>
<defs>
  <clipPath id="clip7502">
    <rect x="179" y="47" width="2174" height="1409"/>
  </clipPath>
</defs>
<polyline clip-path="url(#clip7502)" style="stroke:#000000; stroke-width:2; stroke-opacity:0.1; fill:none" points="
  469.045,1455.01 469.045,47.2441 
  "/>
<polyline clip-path="url(#clip7502)" style="stroke:#000000; stroke-width:2; stroke-opacity:0.1; fill:none" points="
  924.598,1455.01 924.598,47.2441 
  "/>
<polyline clip-path="url(#clip7502)" style="stroke:#000000; stroke-width:2; stroke-opacity:0.1; fill:none" points="
  1380.15,1455.01 1380.15,47.2441 
  "/>
<polyline clip-path="url(#clip7502)" style="stroke:#000000; stroke-width:2; stroke-opacity:0.1; fill:none" points="
  1835.7,1455.01 1835.7,47.2441 
  "/>
<polyline clip-path="url(#clip7502)" style="stroke:#000000; stroke-width:2; stroke-opacity:0.1; fill:none" points="
  2291.26,1455.01 2291.26,47.2441 
  "/>
<polyline clip-path="url(#clip7502)" style="stroke:#000000; stroke-width:2; stroke-opacity:0.1; fill:none" points="
  179.769,1447.68 2352.76,1447.68 
  "/>
<polyline clip-path="url(#clip7502)" style="stroke:#000000; stroke-width:2; stroke-opacity:0.1; fill:none" points="
  179.769,1134.57 2352.76,1134.57 
  "/>
<polyline clip-path="url(#clip7502)" style="stroke:#000000; stroke-width:2; stroke-opacity:0.1; fill:none" points="
  179.769,821.458 2352.76,821.458 
  "/>
<polyline clip-path="url(#clip7502)" style="stroke:#000000; stroke-width:2; stroke-opacity:0.1; fill:none" points="
  179.769,508.348 2352.76,508.348 
  "/>
<polyline clip-path="url(#clip7502)" style="stroke:#000000; stroke-width:2; stroke-opacity:0.1; fill:none" points="
  179.769,195.239 2352.76,195.239 
  "/>
<polyline clip-path="url(#clip7500)" style="stroke:#000000; stroke-width:4; stroke-opacity:1; fill:none" points="
  179.769,1455.01 2352.76,1455.01 
  "/>
<polyline clip-path="url(#clip7500)" style="stroke:#000000; stroke-width:4; stroke-opacity:1; fill:none" points="
  179.769,1455.01 179.769,47.2441 
  "/>
<polyline clip-path="url(#clip7500)" style="stroke:#000000; stroke-width:4; stroke-opacity:1; fill:none" points="
  469.045,1455.01 469.045,1438.12 
  "/>
<polyline clip-path="url(#clip7500)" style="stroke:#000000; stroke-width:4; stroke-opacity:1; fill:none" points="
  924.598,1455.01 924.598,1438.12 
  "/>
<polyline clip-path="url(#clip7500)" style="stroke:#000000; stroke-width:4; stroke-opacity:1; fill:none" points="
  1380.15,1455.01 1380.15,1438.12 
  "/>
<polyline clip-path="url(#clip7500)" style="stroke:#000000; stroke-width:4; stroke-opacity:1; fill:none" points="
  1835.7,1455.01 1835.7,1438.12 
  "/>
<polyline clip-path="url(#clip7500)" style="stroke:#000000; stroke-width:4; stroke-opacity:1; fill:none" points="
  2291.26,1455.01 2291.26,1438.12 
  "/>
<polyline clip-path="url(#clip7500)" style="stroke:#000000; stroke-width:4; stroke-opacity:1; fill:none" points="
  179.769,1447.68 205.845,1447.68 
  "/>
<polyline clip-path="url(#clip7500)" style="stroke:#000000; stroke-width:4; stroke-opacity:1; fill:none" points="
  179.769,1134.57 205.845,1134.57 
  "/>
<polyline clip-path="url(#clip7500)" style="stroke:#000000; stroke-width:4; stroke-opacity:1; fill:none" points="
  179.769,821.458 205.845,821.458 
  "/>
<polyline clip-path="url(#clip7500)" style="stroke:#000000; stroke-width:4; stroke-opacity:1; fill:none" points="
  179.769,508.348 205.845,508.348 
  "/>
<polyline clip-path="url(#clip7500)" style="stroke:#000000; stroke-width:4; stroke-opacity:1; fill:none" points="
  179.769,195.239 205.845,195.239 
  "/>
<path clip-path="url(#clip7500)" d="M 0 0 M463.698 1504.55 L480.017 1504.55 L480.017 1508.49 L458.073 1508.49 L458.073 1504.55 Q460.735 1501.8 465.318 1497.17 Q469.924 1492.51 471.105 1491.17 Q473.35 1488.65 474.23 1486.91 Q475.133 1485.15 475.133 1483.46 Q475.133 1480.71 473.188 1478.97 Q471.267 1477.24 468.165 1477.24 Q465.966 1477.24 463.512 1478 Q461.082 1478.76 458.304 1480.31 L458.304 1475.59 Q461.128 1474.46 463.582 1473.88 Q466.036 1473.3 468.073 1473.3 Q473.443 1473.3 476.637 1475.99 Q479.832 1478.67 479.832 1483.16 Q479.832 1485.29 479.022 1487.21 Q478.235 1489.11 476.128 1491.7 Q475.549 1492.37 472.448 1495.59 Q469.346 1498.79 463.698 1504.55 Z" fill="#000000" fill-rule="evenodd" fill-opacity="1" /><path clip-path="url(#clip7500)" d="M 0 0 M927.607 1478 L915.801 1496.45 L927.607 1496.45 L927.607 1478 M926.38 1473.93 L932.26 1473.93 L932.26 1496.45 L937.19 1496.45 L937.19 1500.34 L932.26 1500.34 L932.26 1508.49 L927.607 1508.49 L927.607 1500.34 L912.005 1500.34 L912.005 1495.82 L926.38 1473.93 Z" fill="#000000" fill-rule="evenodd" fill-opacity="1" /><path clip-path="url(#clip7500)" d="M 0 0 M1380.56 1489.34 Q1377.41 1489.34 1375.56 1491.49 Q1373.73 1493.65 1373.73 1497.4 Q1373.73 1501.12 1375.56 1503.3 Q1377.41 1505.45 1380.56 1505.45 Q1383.7 1505.45 1385.53 1503.3 Q1387.38 1501.12 1387.38 1497.4 Q1387.38 1493.65 1385.53 1491.49 Q1383.7 1489.34 1380.56 1489.34 M1389.84 1474.69 L1389.84 1478.95 Q1388.08 1478.12 1386.27 1477.68 Q1384.49 1477.24 1382.73 1477.24 Q1378.1 1477.24 1375.65 1480.36 Q1373.22 1483.49 1372.87 1489.81 Q1374.24 1487.79 1376.3 1486.73 Q1378.36 1485.64 1380.83 1485.64 Q1386.04 1485.64 1389.05 1488.81 Q1392.08 1491.96 1392.08 1497.4 Q1392.08 1502.72 1388.94 1505.94 Q1385.79 1509.16 1380.56 1509.16 Q1374.56 1509.16 1371.39 1504.57 Q1368.22 1499.97 1368.22 1491.24 Q1368.22 1483.05 1372.11 1478.18 Q1376 1473.3 1382.55 1473.3 Q1384.31 1473.3 1386.09 1473.65 Q1387.89 1474 1389.84 1474.69 Z" fill="#000000" fill-rule="evenodd" fill-opacity="1" /><path clip-path="url(#clip7500)" d="M 0 0 M1835.7 1492.07 Q1832.37 1492.07 1830.45 1493.86 Q1828.55 1495.64 1828.55 1498.76 Q1828.55 1501.89 1830.45 1503.67 Q1832.37 1505.45 1835.7 1505.45 Q1839.04 1505.45 1840.96 1503.67 Q1842.88 1501.87 1842.88 1498.76 Q1842.88 1495.64 1840.96 1493.86 Q1839.06 1492.07 1835.7 1492.07 M1831.03 1490.08 Q1828.02 1489.34 1826.33 1487.28 Q1824.66 1485.22 1824.66 1482.26 Q1824.66 1478.12 1827.6 1475.71 Q1830.56 1473.3 1835.7 1473.3 Q1840.87 1473.3 1843.81 1475.71 Q1846.75 1478.12 1846.75 1482.26 Q1846.75 1485.22 1845.06 1487.28 Q1843.39 1489.34 1840.4 1490.08 Q1843.78 1490.87 1845.66 1493.16 Q1847.56 1495.45 1847.56 1498.76 Q1847.56 1503.79 1844.48 1506.47 Q1841.42 1509.16 1835.7 1509.16 Q1829.99 1509.16 1826.91 1506.47 Q1823.85 1503.79 1823.85 1498.76 Q1823.85 1495.45 1825.75 1493.16 Q1827.65 1490.87 1831.03 1490.08 M1829.31 1482.7 Q1829.31 1485.38 1830.98 1486.89 Q1832.67 1488.39 1835.7 1488.39 Q1838.71 1488.39 1840.4 1486.89 Q1842.12 1485.38 1842.12 1482.7 Q1842.12 1480.01 1840.4 1478.51 Q1838.71 1477 1835.7 1477 Q1832.67 1477 1830.98 1478.51 Q1829.31 1480.01 1829.31 1482.7 Z" fill="#000000" fill-rule="evenodd" fill-opacity="1" /><path clip-path="url(#clip7500)" d="M 0 0 M2268.13 1504.55 L2275.77 1504.55 L2275.77 1478.18 L2267.46 1479.85 L2267.46 1475.59 L2275.72 1473.93 L2280.4 1473.93 L2280.4 1504.55 L2288.04 1504.55 L2288.04 1508.49 L2268.13 1508.49 L2268.13 1504.55 Z" fill="#000000" fill-rule="evenodd" fill-opacity="1" /><path clip-path="url(#clip7500)" d="M 0 0 M2303.11 1477 Q2299.5 1477 2297.67 1480.57 Q2295.86 1484.11 2295.86 1491.24 Q2295.86 1498.35 2297.67 1501.91 Q2299.5 1505.45 2303.11 1505.45 Q2306.74 1505.45 2308.55 1501.91 Q2310.38 1498.35 2310.38 1491.24 Q2310.38 1484.11 2308.55 1480.57 Q2306.74 1477 2303.11 1477 M2303.11 1473.3 Q2308.92 1473.3 2311.97 1477.91 Q2315.05 1482.49 2315.05 1491.24 Q2315.05 1499.97 2311.97 1504.57 Q2308.92 1509.16 2303.11 1509.16 Q2297.3 1509.16 2294.22 1504.57 Q2291.16 1499.97 2291.16 1491.24 Q2291.16 1482.49 2294.22 1477.91 Q2297.3 1473.3 2303.11 1473.3 Z" fill="#000000" fill-rule="evenodd" fill-opacity="1" /><path clip-path="url(#clip7500)" d="M 0 0 M106.857 1433.47 Q103.246 1433.47 101.417 1437.04 Q99.6116 1440.58 99.6116 1447.71 Q99.6116 1454.82 101.417 1458.38 Q103.246 1461.92 106.857 1461.92 Q110.491 1461.92 112.297 1458.38 Q114.125 1454.82 114.125 1447.71 Q114.125 1440.58 112.297 1437.04 Q110.491 1433.47 106.857 1433.47 M106.857 1429.77 Q112.667 1429.77 115.723 1434.38 Q118.801 1438.96 118.801 1447.71 Q118.801 1456.44 115.723 1461.04 Q112.667 1465.63 106.857 1465.63 Q101.047 1465.63 97.9681 1461.04 Q94.9125 1456.44 94.9125 1447.71 Q94.9125 1438.96 97.9681 1434.38 Q101.047 1429.77 106.857 1429.77 Z" fill="#000000" fill-rule="evenodd" fill-opacity="1" /><path clip-path="url(#clip7500)" d="M 0 0 M123.871 1459.08 L128.755 1459.08 L128.755 1464.96 L123.871 1464.96 L123.871 1459.08 Z" fill="#000000" fill-rule="evenodd" fill-opacity="1" /><path clip-path="url(#clip7500)" d="M 0 0 M143.824 1433.47 Q140.213 1433.47 138.385 1437.04 Q136.579 1440.58 136.579 1447.71 Q136.579 1454.82 138.385 1458.38 Q140.213 1461.92 143.824 1461.92 Q147.459 1461.92 149.264 1458.38 Q151.093 1454.82 151.093 1447.71 Q151.093 1440.58 149.264 1437.04 Q147.459 1433.47 143.824 1433.47 M143.824 1429.77 Q149.634 1429.77 152.69 1434.38 Q155.769 1438.96 155.769 1447.71 Q155.769 1456.44 152.69 1461.04 Q149.634 1465.63 143.824 1465.63 Q138.014 1465.63 134.935 1461.04 Q131.88 1456.44 131.88 1447.71 Q131.88 1438.96 134.935 1434.38 Q138.014 1429.77 143.824 1429.77 Z" fill="#000000" fill-rule="evenodd" fill-opacity="1" /><path clip-path="url(#clip7500)" d="M 0 0 M108.454 1120.37 Q104.843 1120.37 103.014 1123.93 Q101.209 1127.47 101.209 1134.6 Q101.209 1141.71 103.014 1145.27 Q104.843 1148.81 108.454 1148.81 Q112.088 1148.81 113.894 1145.27 Q115.723 1141.71 115.723 1134.6 Q115.723 1127.47 113.894 1123.93 Q112.088 1120.37 108.454 1120.37 M108.454 1116.66 Q114.264 1116.66 117.32 1121.27 Q120.399 1125.85 120.399 1134.6 Q120.399 1143.33 117.32 1147.93 Q114.264 1152.52 108.454 1152.52 Q102.644 1152.52 99.5653 1147.93 Q96.5098 1143.33 96.5098 1134.6 Q96.5098 1125.85 99.5653 1121.27 Q102.644 1116.66 108.454 1116.66 Z" fill="#000000" fill-rule="evenodd" fill-opacity="1" /><path clip-path="url(#clip7500)" d="M 0 0 M125.468 1145.97 L130.352 1145.97 L130.352 1151.85 L125.468 1151.85 L125.468 1145.97 Z" fill="#000000" fill-rule="evenodd" fill-opacity="1" /><path clip-path="url(#clip7500)" d="M 0 0 M139.449 1147.91 L155.769 1147.91 L155.769 1151.85 L133.824 1151.85 L133.824 1147.91 Q136.486 1145.16 141.07 1140.53 Q145.676 1135.87 146.857 1134.53 Q149.102 1132.01 149.982 1130.27 Q150.884 1128.51 150.884 1126.82 Q150.884 1124.07 148.94 1122.33 Q147.019 1120.6 143.917 1120.6 Q141.718 1120.6 139.264 1121.36 Q136.834 1122.12 134.056 1123.68 L134.056 1118.95 Q136.88 1117.82 139.334 1117.24 Q141.787 1116.66 143.824 1116.66 Q149.195 1116.66 152.389 1119.35 Q155.584 1122.03 155.584 1126.52 Q155.584 1128.65 154.773 1130.57 Q153.986 1132.47 151.88 1135.06 Q151.301 1135.74 148.199 1138.95 Q145.097 1142.15 139.449 1147.91 Z" fill="#000000" fill-rule="evenodd" fill-opacity="1" /><path clip-path="url(#clip7500)" d="M 0 0 M106.371 807.256 Q102.76 807.256 100.931 810.821 Q99.1255 814.363 99.1255 821.492 Q99.1255 828.599 100.931 832.163 Q102.76 835.705 106.371 835.705 Q110.005 835.705 111.811 832.163 Q113.639 828.599 113.639 821.492 Q113.639 814.363 111.811 810.821 Q110.005 807.256 106.371 807.256 M106.371 803.553 Q112.181 803.553 115.237 808.159 Q118.315 812.742 118.315 821.492 Q118.315 830.219 115.237 834.826 Q112.181 839.409 106.371 839.409 Q100.561 839.409 97.482 834.826 Q94.4264 830.219 94.4264 821.492 Q94.4264 812.742 97.482 808.159 Q100.561 803.553 106.371 803.553 Z" fill="#000000" fill-rule="evenodd" fill-opacity="1" /><path clip-path="url(#clip7500)" d="M 0 0 M123.385 832.858 L128.269 832.858 L128.269 838.738 L123.385 838.738 L123.385 832.858 Z" fill="#000000" fill-rule="evenodd" fill-opacity="1" /><path clip-path="url(#clip7500)" d="M 0 0 M146.185 808.252 L134.38 826.701 L146.185 826.701 L146.185 808.252 M144.959 804.178 L150.838 804.178 L150.838 826.701 L155.769 826.701 L155.769 830.589 L150.838 830.589 L150.838 838.738 L146.185 838.738 L146.185 830.589 L130.584 830.589 L130.584 826.076 L144.959 804.178 Z" fill="#000000" fill-rule="evenodd" fill-opacity="1" /><path clip-path="url(#clip7500)" d="M 0 0 M106.695 494.147 Q103.084 494.147 101.255 497.712 Q99.4496 501.254 99.4496 508.383 Q99.4496 515.49 101.255 519.054 Q103.084 522.596 106.695 522.596 Q110.329 522.596 112.135 519.054 Q113.963 515.49 113.963 508.383 Q113.963 501.254 112.135 497.712 Q110.329 494.147 106.695 494.147 M106.695 490.443 Q112.505 490.443 115.561 495.05 Q118.639 499.633 118.639 508.383 Q118.639 517.11 115.561 521.716 Q112.505 526.3 106.695 526.3 Q100.885 526.3 97.806 521.716 Q94.7505 517.11 94.7505 508.383 Q94.7505 499.633 97.806 495.05 Q100.885 490.443 106.695 490.443 Z" fill="#000000" fill-rule="evenodd" fill-opacity="1" /><path clip-path="url(#clip7500)" d="M 0 0 M123.709 519.749 L128.593 519.749 L128.593 525.628 L123.709 525.628 L123.709 519.749 Z" fill="#000000" fill-rule="evenodd" fill-opacity="1" /><path clip-path="url(#clip7500)" d="M 0 0 M144.241 506.485 Q141.093 506.485 139.241 508.638 Q137.412 510.791 137.412 514.541 Q137.412 518.267 139.241 520.443 Q141.093 522.596 144.241 522.596 Q147.389 522.596 149.218 520.443 Q151.07 518.267 151.07 514.541 Q151.07 510.791 149.218 508.638 Q147.389 506.485 144.241 506.485 M153.523 491.832 L153.523 496.092 Q151.764 495.258 149.959 494.818 Q148.176 494.379 146.417 494.379 Q141.787 494.379 139.334 497.504 Q136.903 500.629 136.556 506.948 Q137.922 504.934 139.982 503.869 Q142.042 502.781 144.519 502.781 Q149.727 502.781 152.736 505.953 Q155.769 509.101 155.769 514.541 Q155.769 519.865 152.621 523.082 Q149.472 526.3 144.241 526.3 Q138.246 526.3 135.074 521.716 Q131.903 517.11 131.903 508.383 Q131.903 500.189 135.792 495.328 Q139.681 490.443 146.232 490.443 Q147.991 490.443 149.773 490.791 Q151.579 491.138 153.523 491.832 Z" fill="#000000" fill-rule="evenodd" fill-opacity="1" /><path clip-path="url(#clip7500)" d="M 0 0 M106.95 181.038 Q103.338 181.038 101.51 184.603 Q99.7042 188.144 99.7042 195.274 Q99.7042 202.381 101.51 205.945 Q103.338 209.487 106.95 209.487 Q110.584 209.487 112.389 205.945 Q114.218 202.381 114.218 195.274 Q114.218 188.144 112.389 184.603 Q110.584 181.038 106.95 181.038 M106.95 177.334 Q112.76 177.334 115.815 181.941 Q118.894 186.524 118.894 195.274 Q118.894 204.001 115.815 208.607 Q112.76 213.191 106.95 213.191 Q101.139 213.191 98.0607 208.607 Q95.0051 204.001 95.0051 195.274 Q95.0051 186.524 98.0607 181.941 Q101.139 177.334 106.95 177.334 Z" fill="#000000" fill-rule="evenodd" fill-opacity="1" /><path clip-path="url(#clip7500)" d="M 0 0 M123.963 206.64 L128.848 206.64 L128.848 212.519 L123.963 212.519 L123.963 206.64 Z" fill="#000000" fill-rule="evenodd" fill-opacity="1" /><path clip-path="url(#clip7500)" d="M 0 0 M143.917 196.107 Q140.584 196.107 138.662 197.89 Q136.764 199.672 136.764 202.797 Q136.764 205.922 138.662 207.705 Q140.584 209.487 143.917 209.487 Q147.25 209.487 149.172 207.705 Q151.093 205.899 151.093 202.797 Q151.093 199.672 149.172 197.89 Q147.273 196.107 143.917 196.107 M139.241 194.117 Q136.232 193.376 134.542 191.316 Q132.875 189.256 132.875 186.293 Q132.875 182.149 135.815 179.742 Q138.778 177.334 143.917 177.334 Q149.079 177.334 152.019 179.742 Q154.959 182.149 154.959 186.293 Q154.959 189.256 153.269 191.316 Q151.602 193.376 148.616 194.117 Q151.996 194.904 153.871 197.195 Q155.769 199.487 155.769 202.797 Q155.769 207.82 152.69 210.505 Q149.634 213.191 143.917 213.191 Q138.199 213.191 135.121 210.505 Q132.065 207.82 132.065 202.797 Q132.065 199.487 133.963 197.195 Q135.861 194.904 139.241 194.117 M137.528 186.732 Q137.528 189.418 139.195 190.922 Q140.885 192.427 143.917 192.427 Q146.926 192.427 148.616 190.922 Q150.329 189.418 150.329 186.732 Q150.329 184.047 148.616 182.543 Q146.926 181.038 143.917 181.038 Q140.885 181.038 139.195 182.543 Q137.528 184.047 137.528 186.732 Z" fill="#000000" fill-rule="evenodd" fill-opacity="1" /><path clip-path="url(#clip7500)" d="M 0 0 M1280.42 1535.32 Q1280.42 1537.12 1279.3 1538.15 Q1278.17 1539.15 1276.88 1539.15 Q1275.66 1539.15 1275.01 1538.44 Q1274.37 1537.74 1274.37 1536.83 Q1274.37 1535.61 1275.27 1534.55 Q1276.17 1533.48 1277.52 1533.26 Q1276.2 1532.42 1274.24 1532.42 Q1272.95 1532.42 1271.82 1533.1 Q1270.73 1533.77 1270.05 1534.64 Q1269.41 1535.51 1268.83 1536.77 Q1268.28 1537.99 1268.06 1538.73 Q1267.86 1539.44 1267.7 1540.22 L1265.45 1549.23 Q1264.35 1553.52 1264.35 1555.03 Q1264.35 1556.9 1265.25 1558.15 Q1266.16 1559.38 1267.96 1559.38 Q1268.67 1559.38 1269.47 1559.19 Q1270.28 1558.96 1271.31 1558.38 Q1272.37 1557.77 1273.3 1556.87 Q1274.27 1555.93 1275.2 1554.35 Q1276.14 1552.78 1276.75 1550.75 Q1276.94 1550.04 1277.59 1550.04 Q1278.39 1550.04 1278.39 1550.68 Q1278.39 1551.23 1277.94 1552.39 Q1277.52 1553.52 1276.59 1555 Q1275.69 1556.45 1274.5 1557.77 Q1273.3 1559.06 1271.53 1559.96 Q1269.76 1560.86 1267.83 1560.86 Q1265.06 1560.86 1263.22 1559.38 Q1261.39 1557.9 1260.71 1555.84 Q1260.55 1556.13 1260.33 1556.51 Q1260.1 1556.9 1259.42 1557.77 Q1258.78 1558.61 1258.04 1559.25 Q1257.3 1559.86 1256.14 1560.34 Q1255.01 1560.86 1253.79 1560.86 Q1252.24 1560.86 1250.86 1560.41 Q1249.5 1559.96 1248.54 1558.93 Q1247.57 1557.9 1247.57 1556.48 Q1247.57 1554.9 1248.64 1553.81 Q1249.73 1552.68 1251.21 1552.68 Q1252.15 1552.68 1252.89 1553.23 Q1253.66 1553.77 1253.66 1554.97 Q1253.66 1556.29 1252.76 1557.29 Q1251.86 1558.28 1250.57 1558.54 Q1251.89 1559.38 1253.85 1559.38 Q1255.98 1559.38 1257.65 1557.51 Q1259.33 1555.64 1260.13 1552.52 Q1262.13 1545.01 1262.9 1541.67 Q1263.68 1538.28 1263.68 1536.83 Q1263.68 1535.48 1263.32 1534.55 Q1262.97 1533.61 1262.35 1533.2 Q1261.78 1532.74 1261.23 1532.58 Q1260.71 1532.42 1260.13 1532.42 Q1259.17 1532.42 1258.07 1532.81 Q1257.01 1533.2 1255.72 1534.1 Q1254.46 1534.97 1253.27 1536.77 Q1252.08 1538.57 1251.28 1541.05 Q1251.11 1541.79 1250.41 1541.79 Q1249.63 1541.76 1249.63 1541.12 Q1249.63 1540.57 1250.05 1539.44 Q1250.5 1538.28 1251.4 1536.83 Q1252.34 1535.39 1253.53 1534.1 Q1254.75 1532.78 1256.53 1531.87 Q1258.33 1530.97 1260.26 1530.97 Q1261.13 1530.97 1261.97 1531.17 Q1262.84 1531.33 1263.87 1531.81 Q1264.93 1532.29 1265.87 1533.36 Q1266.8 1534.42 1267.38 1535.96 Q1267.77 1535.22 1268.28 1534.52 Q1268.83 1533.81 1269.67 1532.94 Q1270.54 1532.04 1271.73 1531.52 Q1272.95 1530.97 1274.3 1530.97 Q1275.62 1530.97 1276.91 1531.33 Q1278.2 1531.65 1279.3 1532.71 Q1280.42 1533.74 1280.42 1535.32 Z" fill="#000000" fill-rule="evenodd" fill-opacity="1" /><path clip-path="url(#clip7500)" d="M 0 0 M29.5109 736.703 Q29.9618 736.703 31.0246 736.993 L56.2096 743.305 Q61.8134 744.69 65.7425 749.199 Q69.6716 753.675 69.6716 758.764 Q69.6716 761.823 68.0291 763.788 Q66.4189 765.753 63.939 765.753 Q61.749 765.753 60.6862 764.593 Q59.6556 763.434 59.6556 762.049 Q59.6556 761.598 59.7844 761.115 Q59.9133 760.632 60.4608 760.117 Q61.0083 759.601 61.9422 759.601 Q63.4559 759.601 64.6475 760.922 Q65.195 761.566 65.3239 762.178 Q65.4527 762.757 65.4527 763.756 Q66.3544 763.369 66.9664 762.661 Q67.5783 761.952 67.8037 761.147 Q68.0614 760.342 68.1258 759.827 Q68.2224 759.279 68.2224 758.764 Q68.2224 754.642 64.0678 751.485 Q62.8118 750.551 61.5558 749.875 Q60.3319 749.167 58.8183 748.651 Q57.3368 748.136 56.5317 747.911 Q55.7265 747.653 53.8908 747.202 Q56.8859 750.197 56.8859 753.869 Q56.8859 755.414 56.4672 756.799 Q56.0486 758.152 55.179 759.344 Q54.2772 760.535 52.6992 761.244 Q51.1211 761.92 49.0277 761.92 Q46.8055 761.92 43.7781 761.05 Q40.7508 760.181 35.1792 758.088 Q32.0552 756.96 30.5415 756.96 Q29.8008 756.96 29.3499 757.121 Q28.8668 757.282 28.7058 757.604 Q28.5126 757.927 28.4803 758.12 Q28.4481 758.281 28.4481 758.603 Q28.4481 760.503 30.3805 762.274 Q32.3128 764.046 36.6284 765.269 Q37.4336 765.527 37.6268 765.688 Q37.82 765.849 37.82 766.332 Q37.7878 767.137 37.1437 767.137 Q36.8861 767.137 35.8877 766.848 Q34.8571 766.558 33.3434 765.881 Q31.7976 765.173 30.4127 764.207 Q28.9956 763.24 27.9973 761.727 Q26.9989 760.181 26.9989 758.41 Q26.9989 755.994 28.577 754.513 Q30.1228 752.999 32.4095 752.999 Q33.3434 752.999 34.1808 753.257 Q34.9859 753.482 37.1437 754.319 Q45.8393 757.701 50.0905 757.701 Q51.1211 757.701 51.9906 757.54 Q52.828 757.347 53.6653 756.928 Q54.4705 756.509 54.9536 755.672 Q55.4044 754.803 55.4044 753.611 Q55.4044 752.097 54.6959 750.68 Q53.9552 749.231 52.9568 748.329 Q51.9584 747.395 51.1211 746.848 Q50.2515 746.268 49.8006 746.139 L37.9489 743.176 L32.6671 741.856 Q29.8008 741.244 29.0923 740.954 Q28.4159 740.568 28.0617 739.891 Q27.7074 739.215 27.7074 738.635 Q27.7074 737.83 28.1905 737.283 Q28.6736 736.703 29.5109 736.703 Z" fill="#000000" fill-rule="evenodd" fill-opacity="1" /><polyline clip-path="url(#clip7502)" style="stroke:#009af9; stroke-width:4; stroke-opacity:1; fill:none" points="
  241.268,181.621 469.045,494.537 696.821,710.979 924.598,667.846 1152.37,1238.48 1380.15,1286.49 1607.93,1415.17 1835.7,448.053 2063.48,1188.93 2291.26,87.0866 
  
  "/>
<path clip-path="url(#clip7500)" d="
M1989.74 251.724 L2280.76 251.724 L2280.76 130.764 L1989.74 130.764  Z
  " fill="#ffffff" fill-rule="evenodd" fill-opacity="1"/>
<polyline clip-path="url(#clip7500)" style="stroke:#000000; stroke-width:4; stroke-opacity:1; fill:none" points="
  1989.74,251.724 2280.76,251.724 2280.76,130.764 1989.74,130.764 1989.74,251.724 
  "/>
<polyline clip-path="url(#clip7500)" style="stroke:#009af9; stroke-width:4; stroke-opacity:1; fill:none" points="
  2013.74,191.244 2157.74,191.244 
  "/>
<path clip-path="url(#clip7500)" d="M 0 0 M2195.58 210.931 Q2193.77 215.561 2192.06 216.973 Q2190.35 218.385 2187.48 218.385 L2184.08 218.385 L2184.08 214.82 L2186.58 214.82 Q2188.33 214.82 2189.31 213.987 Q2190.28 213.154 2191.46 210.052 L2192.22 208.107 L2181.74 182.598 L2186.25 182.598 L2194.35 202.876 L2202.46 182.598 L2206.97 182.598 L2195.58 210.931 Z" fill="#000000" fill-rule="evenodd" fill-opacity="1" /><path clip-path="url(#clip7500)" d="M 0 0 M2212.85 204.589 L2220.49 204.589 L2220.49 178.223 L2212.18 179.89 L2212.18 175.631 L2220.44 173.964 L2225.12 173.964 L2225.12 204.589 L2232.76 204.589 L2232.76 208.524 L2212.85 208.524 L2212.85 204.589 Z" fill="#000000" fill-rule="evenodd" fill-opacity="1" /></svg>
