<?xml version="1.0" encoding="utf-8"?>
<svg xmlns="http://www.w3.org/2000/svg" xmlns:xlink="http://www.w3.org/1999/xlink" width="600" height="400" viewBox="0 0 2400 1600">
<defs>
  <clipPath id="clip6600">
    <rect x="0" y="0" width="2400" height="1600"/>
  </clipPath>
</defs>
<path clip-path="url(#clip6600)" d="
M0 1600 L2400 1600 L2400 0 L0 0  Z
  " fill="#ffffff" fill-rule="evenodd" fill-opacity="1"/>
<defs>
  <clipPath id="clip6601">
    <rect x="480" y="0" width="1681" height="1600"/>
  </clipPath>
</defs>
<path clip-path="url(#clip6600)" d="
M226.671 1406.36 L2352.76 1406.36 L2352.76 47.2441 L226.671 47.2441  Z
  " fill="#ffffff" fill-rule="evenodd" fill-opacity="1"/>
<defs>
  <clipPath id="clip6602">
    <rect x="226" y="47" width="2127" height="1360"/>
  </clipPath>
</defs>
<polyline clip-path="url(#clip6602)" style="stroke:#000000; stroke-width:2; stroke-opacity:0.1; fill:none" points="
  509.703,1406.36 509.703,47.2441 
  "/>
<polyline clip-path="url(#clip6602)" style="stroke:#000000; stroke-width:2; stroke-opacity:0.1; fill:none" points="
  955.423,1406.36 955.423,47.2441 
  "/>
<polyline clip-path="url(#clip6602)" style="stroke:#000000; stroke-width:2; stroke-opacity:0.1; fill:none" points="
  1401.14,1406.36 1401.14,47.2441 
  "/>
<polyline clip-path="url(#clip6602)" style="stroke:#000000; stroke-width:2; stroke-opacity:0.1; fill:none" points="
  1846.86,1406.36 1846.86,47.2441 
  "/>
<polyline clip-path="url(#clip6602)" style="stroke:#000000; stroke-width:2; stroke-opacity:0.1; fill:none" points="
  2292.58,1406.36 2292.58,47.2441 
  "/>
<polyline clip-path="url(#clip6602)" style="stroke:#000000; stroke-width:2; stroke-opacity:0.1; fill:none" points="
  226.671,1166.96 2352.76,1166.96 
  "/>
<polyline clip-path="url(#clip6602)" style="stroke:#000000; stroke-width:2; stroke-opacity:0.1; fill:none" points="
  226.671,889.999 2352.76,889.999 
  "/>
<polyline clip-path="url(#clip6602)" style="stroke:#000000; stroke-width:2; stroke-opacity:0.1; fill:none" points="
  226.671,613.04 2352.76,613.04 
  "/>
<polyline clip-path="url(#clip6602)" style="stroke:#000000; stroke-width:2; stroke-opacity:0.1; fill:none" points="
  226.671,336.08 2352.76,336.08 
  "/>
<polyline clip-path="url(#clip6602)" style="stroke:#000000; stroke-width:2; stroke-opacity:0.1; fill:none" points="
  226.671,59.1208 2352.76,59.1208 
  "/>
<polyline clip-path="url(#clip6600)" style="stroke:#000000; stroke-width:4; stroke-opacity:1; fill:none" points="
  226.671,1406.36 2352.76,1406.36 
  "/>
<polyline clip-path="url(#clip6600)" style="stroke:#000000; stroke-width:4; stroke-opacity:1; fill:none" points="
  226.671,1406.36 226.671,47.2441 
  "/>
<polyline clip-path="url(#clip6600)" style="stroke:#000000; stroke-width:4; stroke-opacity:1; fill:none" points="
  509.703,1406.36 509.703,1390.05 
  "/>
<polyline clip-path="url(#clip6600)" style="stroke:#000000; stroke-width:4; stroke-opacity:1; fill:none" points="
  955.423,1406.36 955.423,1390.05 
  "/>
<polyline clip-path="url(#clip6600)" style="stroke:#000000; stroke-width:4; stroke-opacity:1; fill:none" points="
  1401.14,1406.36 1401.14,1390.05 
  "/>
<polyline clip-path="url(#clip6600)" style="stroke:#000000; stroke-width:4; stroke-opacity:1; fill:none" points="
  1846.86,1406.36 1846.86,1390.05 
  "/>
<polyline clip-path="url(#clip6600)" style="stroke:#000000; stroke-width:4; stroke-opacity:1; fill:none" points="
  2292.58,1406.36 2292.58,1390.05 
  "/>
<polyline clip-path="url(#clip6600)" style="stroke:#000000; stroke-width:4; stroke-opacity:1; fill:none" points="
  226.671,1166.96 252.184,1166.96 
  "/>
<polyline clip-path="url(#clip6600)" style="stroke:#000000; stroke-width:4; stroke-opacity:1; fill:none" points="
  226.671,889.999 252.184,889.999 
  "/>
<polyline clip-path="url(#clip6600)" style="stroke:#000000; stroke-width:4; stroke-opacity:1; fill:none" points="
  226.671,613.04 252.184,613.04 
  "/>
<polyline clip-path="url(#clip6600)" style="stroke:#000000; stroke-width:4; stroke-opacity:1; fill:none" points="
  226.671,336.08 252.184,336.08 
  "/>
<polyline clip-path="url(#clip6600)" style="stroke:#000000; stroke-width:4; stroke-opacity:1; fill:none" points="
  226.671,59.1208 252.184,59.1208 
  "/>
<path clip-path="url(#clip6600)" d="M 0 0 M504.356 1455.9 L520.675 1455.9 L520.675 1459.83 L498.731 1459.83 L498.731 1455.9 Q501.393 1453.14 505.976 1448.51 Q510.583 1443.86 511.763 1442.52 Q514.009 1440 514.888 1438.26 Q515.791 1436.5 515.791 1434.81 Q515.791 1432.06 513.846 1430.32 Q511.925 1428.58 508.823 1428.58 Q506.624 1428.58 504.171 1429.35 Q501.74 1430.11 498.962 1431.66 L498.962 1426.94 Q501.786 1425.81 504.24 1425.23 Q506.694 1424.65 508.731 1424.65 Q514.101 1424.65 517.296 1427.33 Q520.49 1430.02 520.49 1434.51 Q520.49 1436.64 519.68 1438.56 Q518.893 1440.46 516.786 1443.05 Q516.208 1443.72 513.106 1446.94 Q510.004 1450.13 504.356 1455.9 Z" fill="#000000" fill-rule="evenodd" fill-opacity="1" /><path clip-path="url(#clip6600)" d="M 0 0 M958.432 1429.35 L946.627 1447.8 L958.432 1447.8 L958.432 1429.35 M957.206 1425.27 L963.085 1425.27 L963.085 1447.8 L968.016 1447.8 L968.016 1451.68 L963.085 1451.68 L963.085 1459.83 L958.432 1459.83 L958.432 1451.68 L942.831 1451.68 L942.831 1447.17 L957.206 1425.27 Z" fill="#000000" fill-rule="evenodd" fill-opacity="1" /><path clip-path="url(#clip6600)" d="M 0 0 M1401.55 1440.69 Q1398.4 1440.69 1396.55 1442.84 Q1394.72 1445 1394.72 1448.75 Q1394.72 1452.47 1396.55 1454.65 Q1398.4 1456.8 1401.55 1456.8 Q1404.7 1456.8 1406.53 1454.65 Q1408.38 1452.47 1408.38 1448.75 Q1408.38 1445 1406.53 1442.84 Q1404.7 1440.69 1401.55 1440.69 M1410.83 1426.04 L1410.83 1430.3 Q1409.07 1429.46 1407.27 1429.02 Q1405.48 1428.58 1403.72 1428.58 Q1399.09 1428.58 1396.64 1431.71 Q1394.21 1434.83 1393.86 1441.15 Q1395.23 1439.14 1397.29 1438.07 Q1399.35 1436.99 1401.83 1436.99 Q1407.03 1436.99 1410.04 1440.16 Q1413.08 1443.31 1413.08 1448.75 Q1413.08 1454.07 1409.93 1457.29 Q1406.78 1460.5 1401.55 1460.5 Q1395.55 1460.5 1392.38 1455.92 Q1389.21 1451.31 1389.21 1442.59 Q1389.21 1434.39 1393.1 1429.53 Q1396.99 1424.65 1403.54 1424.65 Q1405.3 1424.65 1407.08 1425 Q1408.89 1425.34 1410.83 1426.04 Z" fill="#000000" fill-rule="evenodd" fill-opacity="1" /><path clip-path="url(#clip6600)" d="M 0 0 M1846.86 1443.42 Q1843.53 1443.42 1841.61 1445.2 Q1839.71 1446.99 1839.71 1450.11 Q1839.71 1453.24 1841.61 1455.02 Q1843.53 1456.8 1846.86 1456.8 Q1850.2 1456.8 1852.12 1455.02 Q1854.04 1453.21 1854.04 1450.11 Q1854.04 1446.99 1852.12 1445.2 Q1850.22 1443.42 1846.86 1443.42 M1842.19 1441.43 Q1839.18 1440.69 1837.49 1438.63 Q1835.82 1436.57 1835.82 1433.61 Q1835.82 1429.46 1838.76 1427.06 Q1841.72 1424.65 1846.86 1424.65 Q1852.03 1424.65 1854.97 1427.06 Q1857.91 1429.46 1857.91 1433.61 Q1857.91 1436.57 1856.22 1438.63 Q1854.55 1440.69 1851.56 1441.43 Q1854.94 1442.22 1856.82 1444.51 Q1858.72 1446.8 1858.72 1450.11 Q1858.72 1455.13 1855.64 1457.82 Q1852.58 1460.5 1846.86 1460.5 Q1841.15 1460.5 1838.07 1457.82 Q1835.01 1455.13 1835.01 1450.11 Q1835.01 1446.8 1836.91 1444.51 Q1838.81 1442.22 1842.19 1441.43 M1840.47 1434.05 Q1840.47 1436.73 1842.14 1438.24 Q1843.83 1439.74 1846.86 1439.74 Q1849.87 1439.74 1851.56 1438.24 Q1853.28 1436.73 1853.28 1434.05 Q1853.28 1431.36 1851.56 1429.86 Q1849.87 1428.35 1846.86 1428.35 Q1843.83 1428.35 1842.14 1429.86 Q1840.47 1431.36 1840.47 1434.05 Z" fill="#000000" fill-rule="evenodd" fill-opacity="1" /><path clip-path="url(#clip6600)" d="M 0 0 M2269.46 1455.9 L2277.1 1455.9 L2277.1 1429.53 L2268.79 1431.2 L2268.79 1426.94 L2277.05 1425.27 L2281.73 1425.27 L2281.73 1455.9 L2289.37 1455.9 L2289.37 1459.83 L2269.46 1459.83 L2269.46 1455.9 Z" fill="#000000" fill-rule="evenodd" fill-opacity="1" /><path clip-path="url(#clip6600)" d="M 0 0 M2304.44 1428.35 Q2300.82 1428.35 2299 1431.92 Q2297.19 1435.46 2297.19 1442.59 Q2297.19 1449.69 2299 1453.26 Q2300.82 1456.8 2304.44 1456.8 Q2308.07 1456.8 2309.88 1453.26 Q2311.7 1449.69 2311.7 1442.59 Q2311.7 1435.46 2309.88 1431.92 Q2308.07 1428.35 2304.44 1428.35 M2304.44 1424.65 Q2310.25 1424.65 2313.3 1429.25 Q2316.38 1433.84 2316.38 1442.59 Q2316.38 1451.31 2313.3 1455.92 Q2310.25 1460.5 2304.44 1460.5 Q2298.63 1460.5 2295.55 1455.92 Q2292.49 1451.31 2292.49 1442.59 Q2292.49 1433.84 2295.55 1429.25 Q2298.63 1424.65 2304.44 1424.65 Z" fill="#000000" fill-rule="evenodd" fill-opacity="1" /><path clip-path="url(#clip6600)" d="M 0 0 M155.356 1152.76 Q151.745 1152.76 149.916 1156.32 Q148.111 1159.86 148.111 1166.99 Q148.111 1174.1 149.916 1177.66 Q151.745 1181.21 155.356 1181.21 Q158.99 1181.21 160.796 1177.66 Q162.625 1174.1 162.625 1166.99 Q162.625 1159.86 160.796 1156.32 Q158.99 1152.76 155.356 1152.76 M155.356 1149.05 Q161.166 1149.05 164.222 1153.66 Q167.3 1158.24 167.3 1166.99 Q167.3 1175.72 164.222 1180.33 Q161.166 1184.91 155.356 1184.91 Q149.546 1184.91 146.467 1180.33 Q143.412 1175.72 143.412 1166.99 Q143.412 1158.24 146.467 1153.66 Q149.546 1149.05 155.356 1149.05 Z" fill="#000000" fill-rule="evenodd" fill-opacity="1" /><path clip-path="url(#clip6600)" d="M 0 0 M172.37 1178.36 L177.254 1178.36 L177.254 1184.24 L172.37 1184.24 L172.37 1178.36 Z" fill="#000000" fill-rule="evenodd" fill-opacity="1" /><path clip-path="url(#clip6600)" d="M 0 0 M186.351 1180.3 L202.671 1180.3 L202.671 1184.24 L180.726 1184.24 L180.726 1180.3 Q183.388 1177.55 187.972 1172.92 Q192.578 1168.27 193.759 1166.92 Q196.004 1164.4 196.884 1162.66 Q197.786 1160.9 197.786 1159.22 Q197.786 1156.46 195.842 1154.72 Q193.921 1152.99 190.819 1152.99 Q188.62 1152.99 186.166 1153.75 Q183.736 1154.52 180.958 1156.07 L180.958 1151.34 Q183.782 1150.21 186.236 1149.63 Q188.689 1149.05 190.726 1149.05 Q196.097 1149.05 199.291 1151.74 Q202.485 1154.42 202.485 1158.91 Q202.485 1161.04 201.675 1162.97 Q200.888 1164.86 198.782 1167.46 Q198.203 1168.13 195.101 1171.34 Q191.999 1174.54 186.351 1180.3 Z" fill="#000000" fill-rule="evenodd" fill-opacity="1" /><path clip-path="url(#clip6600)" d="M 0 0 M153.273 875.798 Q149.662 875.798 147.833 879.362 Q146.027 882.904 146.027 890.034 Q146.027 897.14 147.833 900.705 Q149.662 904.246 153.273 904.246 Q156.907 904.246 158.713 900.705 Q160.541 897.14 160.541 890.034 Q160.541 882.904 158.713 879.362 Q156.907 875.798 153.273 875.798 M153.273 872.094 Q159.083 872.094 162.138 876.7 Q165.217 881.284 165.217 890.034 Q165.217 898.76 162.138 903.367 Q159.083 907.95 153.273 907.95 Q147.463 907.95 144.384 903.367 Q141.328 898.76 141.328 890.034 Q141.328 881.284 144.384 876.7 Q147.463 872.094 153.273 872.094 Z" fill="#000000" fill-rule="evenodd" fill-opacity="1" /><path clip-path="url(#clip6600)" d="M 0 0 M170.287 901.399 L175.171 901.399 L175.171 907.279 L170.287 907.279 L170.287 901.399 Z" fill="#000000" fill-rule="evenodd" fill-opacity="1" /><path clip-path="url(#clip6600)" d="M 0 0 M193.087 876.793 L181.282 895.242 L193.087 895.242 L193.087 876.793 M191.861 872.719 L197.74 872.719 L197.74 895.242 L202.671 895.242 L202.671 899.131 L197.74 899.131 L197.74 907.279 L193.087 907.279 L193.087 899.131 L177.486 899.131 L177.486 894.617 L191.861 872.719 Z" fill="#000000" fill-rule="evenodd" fill-opacity="1" /><path clip-path="url(#clip6600)" d="M 0 0 M153.597 598.838 Q149.986 598.838 148.157 602.403 Q146.352 605.945 146.352 613.074 Q146.352 620.181 148.157 623.745 Q149.986 627.287 153.597 627.287 Q157.231 627.287 159.037 623.745 Q160.865 620.181 160.865 613.074 Q160.865 605.945 159.037 602.403 Q157.231 598.838 153.597 598.838 M153.597 595.135 Q159.407 595.135 162.463 599.741 Q165.541 604.324 165.541 613.074 Q165.541 621.801 162.463 626.407 Q159.407 630.991 153.597 630.991 Q147.787 630.991 144.708 626.407 Q141.652 621.801 141.652 613.074 Q141.652 604.324 144.708 599.741 Q147.787 595.135 153.597 595.135 Z" fill="#000000" fill-rule="evenodd" fill-opacity="1" /><path clip-path="url(#clip6600)" d="M 0 0 M170.611 624.44 L175.495 624.44 L175.495 630.32 L170.611 630.32 L170.611 624.44 Z" fill="#000000" fill-rule="evenodd" fill-opacity="1" /><path clip-path="url(#clip6600)" d="M 0 0 M191.143 611.176 Q187.995 611.176 186.143 613.329 Q184.314 615.482 184.314 619.232 Q184.314 622.958 186.143 625.134 Q187.995 627.287 191.143 627.287 Q194.291 627.287 196.12 625.134 Q197.972 622.958 197.972 619.232 Q197.972 615.482 196.12 613.329 Q194.291 611.176 191.143 611.176 M200.425 596.523 L200.425 600.783 Q198.666 599.949 196.861 599.509 Q195.078 599.07 193.319 599.07 Q188.689 599.07 186.236 602.195 Q183.805 605.32 183.458 611.639 Q184.824 609.625 186.884 608.56 Q188.944 607.472 191.421 607.472 Q196.629 607.472 199.638 610.644 Q202.671 613.792 202.671 619.232 Q202.671 624.556 199.523 627.773 Q196.374 630.991 191.143 630.991 Q185.148 630.991 181.976 626.407 Q178.805 621.801 178.805 613.074 Q178.805 604.88 182.694 600.019 Q186.583 595.135 193.134 595.135 Q194.893 595.135 196.675 595.482 Q198.481 595.829 200.425 596.523 Z" fill="#000000" fill-rule="evenodd" fill-opacity="1" /><path clip-path="url(#clip6600)" d="M 0 0 M153.851 321.879 Q150.24 321.879 148.412 325.444 Q146.606 328.985 146.606 336.115 Q146.606 343.221 148.412 346.786 Q150.24 350.328 153.851 350.328 Q157.486 350.328 159.291 346.786 Q161.12 343.221 161.12 336.115 Q161.12 328.985 159.291 325.444 Q157.486 321.879 153.851 321.879 M153.851 318.175 Q159.662 318.175 162.717 322.782 Q165.796 327.365 165.796 336.115 Q165.796 344.842 162.717 349.448 Q159.662 354.031 153.851 354.031 Q148.041 354.031 144.963 349.448 Q141.907 344.842 141.907 336.115 Q141.907 327.365 144.963 322.782 Q148.041 318.175 153.851 318.175 Z" fill="#000000" fill-rule="evenodd" fill-opacity="1" /><path clip-path="url(#clip6600)" d="M 0 0 M170.865 347.481 L175.75 347.481 L175.75 353.36 L170.865 353.36 L170.865 347.481 Z" fill="#000000" fill-rule="evenodd" fill-opacity="1" /><path clip-path="url(#clip6600)" d="M 0 0 M190.819 336.948 Q187.486 336.948 185.564 338.731 Q183.666 340.513 183.666 343.638 Q183.666 346.763 185.564 348.545 Q187.486 350.328 190.819 350.328 Q194.152 350.328 196.073 348.545 Q197.995 346.74 197.995 343.638 Q197.995 340.513 196.073 338.731 Q194.175 336.948 190.819 336.948 M186.143 334.957 Q183.134 334.217 181.444 332.157 Q179.777 330.096 179.777 327.133 Q179.777 322.99 182.717 320.583 Q185.68 318.175 190.819 318.175 Q195.981 318.175 198.921 320.583 Q201.86 322.99 201.86 327.133 Q201.86 330.096 200.171 332.157 Q198.504 334.217 195.518 334.957 Q198.898 335.745 200.773 338.036 Q202.671 340.328 202.671 343.638 Q202.671 348.661 199.592 351.346 Q196.536 354.031 190.819 354.031 Q185.101 354.031 182.023 351.346 Q178.967 348.661 178.967 343.638 Q178.967 340.328 180.865 338.036 Q182.763 335.745 186.143 334.957 M184.43 327.573 Q184.43 330.258 186.097 331.763 Q187.786 333.268 190.819 333.268 Q193.828 333.268 195.518 331.763 Q197.231 330.258 197.231 327.573 Q197.231 324.888 195.518 323.383 Q193.828 321.879 190.819 321.879 Q187.786 321.879 186.097 323.383 Q184.43 324.888 184.43 327.573 Z" fill="#000000" fill-rule="evenodd" fill-opacity="1" /><path clip-path="url(#clip6600)" d="M 0 0 M145.796 72.4657 L153.435 72.4657 L153.435 46.1001 L145.125 47.7667 L145.125 43.5075 L153.389 41.8408 L158.064 41.8408 L158.064 72.4657 L165.703 72.4657 L165.703 76.4008 L145.796 76.4008 L145.796 72.4657 Z" fill="#000000" fill-rule="evenodd" fill-opacity="1" /><path clip-path="url(#clip6600)" d="M 0 0 M170.773 70.5212 L175.657 70.5212 L175.657 76.4008 L170.773 76.4008 L170.773 70.5212 Z" fill="#000000" fill-rule="evenodd" fill-opacity="1" /><path clip-path="url(#clip6600)" d="M 0 0 M190.726 44.9195 Q187.115 44.9195 185.286 48.4843 Q183.481 52.026 183.481 59.1556 Q183.481 66.262 185.286 69.8268 Q187.115 73.3684 190.726 73.3684 Q194.361 73.3684 196.166 69.8268 Q197.995 66.262 197.995 59.1556 Q197.995 52.026 196.166 48.4843 Q194.361 44.9195 190.726 44.9195 M190.726 41.2158 Q196.536 41.2158 199.592 45.8223 Q202.671 50.4056 202.671 59.1556 Q202.671 67.8824 199.592 72.4888 Q196.536 77.0721 190.726 77.0721 Q184.916 77.0721 181.837 72.4888 Q178.782 67.8824 178.782 59.1556 Q178.782 50.4056 181.837 45.8223 Q184.916 41.2158 190.726 41.2158 Z" fill="#000000" fill-rule="evenodd" fill-opacity="1" /><path clip-path="url(#clip6600)" d="M 0 0 M1303.87 1486.67 Q1303.87 1488.47 1302.75 1489.5 Q1301.62 1490.5 1300.33 1490.5 Q1299.11 1490.5 1298.46 1489.79 Q1297.82 1489.08 1297.82 1488.18 Q1297.82 1486.96 1298.72 1485.9 Q1299.62 1484.83 1300.97 1484.61 Q1299.65 1483.77 1297.69 1483.77 Q1296.4 1483.77 1295.27 1484.45 Q1294.18 1485.12 1293.5 1485.99 Q1292.86 1486.86 1292.28 1488.12 Q1291.73 1489.34 1291.51 1490.08 Q1291.31 1490.79 1291.15 1491.56 L1288.9 1500.58 Q1287.8 1504.86 1287.8 1506.38 Q1287.8 1508.25 1288.7 1509.5 Q1289.61 1510.73 1291.41 1510.73 Q1292.12 1510.73 1292.92 1510.53 Q1293.73 1510.31 1294.76 1509.73 Q1295.82 1509.12 1296.76 1508.21 Q1297.72 1507.28 1298.66 1505.7 Q1299.59 1504.12 1300.2 1502.09 Q1300.4 1501.39 1301.04 1501.39 Q1301.84 1501.39 1301.84 1502.03 Q1301.84 1502.58 1301.39 1503.74 Q1300.97 1504.86 1300.04 1506.35 Q1299.14 1507.8 1297.95 1509.12 Q1296.76 1510.4 1294.98 1511.31 Q1293.21 1512.21 1291.28 1512.21 Q1288.51 1512.21 1286.68 1510.73 Q1284.84 1509.24 1284.16 1507.18 Q1284 1507.47 1283.78 1507.86 Q1283.55 1508.25 1282.88 1509.12 Q1282.23 1509.95 1281.49 1510.6 Q1280.75 1511.21 1279.59 1511.69 Q1278.46 1512.21 1277.24 1512.21 Q1275.69 1512.21 1274.31 1511.76 Q1272.96 1511.31 1271.99 1510.28 Q1271.02 1509.24 1271.02 1507.83 Q1271.02 1506.25 1272.09 1505.15 Q1273.18 1504.03 1274.66 1504.03 Q1275.6 1504.03 1276.34 1504.57 Q1277.11 1505.12 1277.11 1506.31 Q1277.11 1507.63 1276.21 1508.63 Q1275.31 1509.63 1274.02 1509.89 Q1275.34 1510.73 1277.3 1510.73 Q1279.43 1510.73 1281.1 1508.86 Q1282.78 1506.99 1283.58 1503.87 Q1285.58 1496.36 1286.35 1493.01 Q1287.13 1489.63 1287.13 1488.18 Q1287.13 1486.83 1286.77 1485.9 Q1286.42 1484.96 1285.81 1484.54 Q1285.23 1484.09 1284.68 1483.93 Q1284.16 1483.77 1283.58 1483.77 Q1282.62 1483.77 1281.52 1484.16 Q1280.46 1484.54 1279.17 1485.44 Q1277.92 1486.31 1276.72 1488.12 Q1275.53 1489.92 1274.73 1492.4 Q1274.57 1493.14 1273.86 1493.14 Q1273.08 1493.11 1273.08 1492.47 Q1273.08 1491.92 1273.5 1490.79 Q1273.95 1489.63 1274.86 1488.18 Q1275.79 1486.73 1276.98 1485.44 Q1278.21 1484.12 1279.98 1483.22 Q1281.78 1482.32 1283.71 1482.32 Q1284.58 1482.32 1285.42 1482.51 Q1286.29 1482.67 1287.32 1483.16 Q1288.38 1483.64 1289.32 1484.7 Q1290.25 1485.77 1290.83 1487.31 Q1291.22 1486.57 1291.73 1485.86 Q1292.28 1485.15 1293.12 1484.28 Q1293.99 1483.38 1295.18 1482.87 Q1296.4 1482.32 1297.75 1482.32 Q1299.07 1482.32 1300.36 1482.67 Q1301.65 1483 1302.75 1484.06 Q1303.87 1485.09 1303.87 1486.67 Z" fill="#000000" fill-rule="evenodd" fill-opacity="1" /><path clip-path="url(#clip6600)" d="M 0 0 M76.4129 712.377 Q76.8638 712.377 77.9266 712.666 L103.112 718.979 Q108.715 720.364 112.644 724.872 Q116.574 729.349 116.574 734.438 Q116.574 737.497 114.931 739.462 Q113.321 741.426 110.841 741.426 Q108.651 741.426 107.588 740.267 Q106.558 739.107 106.558 737.723 Q106.558 737.272 106.686 736.789 Q106.815 736.306 107.363 735.79 Q107.91 735.275 108.844 735.275 Q110.358 735.275 111.549 736.595 Q112.097 737.24 112.226 737.851 Q112.355 738.431 112.355 739.43 Q113.256 739.043 113.868 738.335 Q114.48 737.626 114.706 736.821 Q114.963 736.016 115.028 735.5 Q115.124 734.953 115.124 734.438 Q115.124 730.315 110.97 727.159 Q109.714 726.225 108.458 725.549 Q107.234 724.84 105.72 724.325 Q104.239 723.81 103.434 723.584 Q102.628 723.327 100.793 722.876 Q103.788 725.871 103.788 729.542 Q103.788 731.088 103.369 732.473 Q102.951 733.826 102.081 735.017 Q101.179 736.209 99.6011 736.917 Q98.023 737.594 95.9296 737.594 Q93.7074 737.594 90.6801 736.724 Q87.6527 735.855 82.0811 733.761 Q78.9572 732.634 77.4435 732.634 Q76.7027 732.634 76.2519 732.795 Q75.7688 732.956 75.6077 733.278 Q75.4145 733.6 75.3823 733.793 Q75.3501 733.955 75.3501 734.277 Q75.3501 736.177 77.2825 737.948 Q79.2148 739.719 83.5304 740.943 Q84.3355 741.201 84.5288 741.362 Q84.722 741.523 84.722 742.006 Q84.6898 742.811 84.0457 742.811 Q83.788 742.811 82.7897 742.521 Q81.7591 742.231 80.2454 741.555 Q78.6995 740.847 77.3147 739.88 Q75.8976 738.914 74.8992 737.401 Q73.9008 735.855 73.9008 734.083 Q73.9008 731.668 75.4789 730.186 Q77.0248 728.673 79.3114 728.673 Q80.2454 728.673 81.0827 728.93 Q81.8879 729.156 84.0457 729.993 Q92.7413 733.375 96.9924 733.375 Q98.023 733.375 98.8926 733.214 Q99.7299 733.021 100.567 732.602 Q101.372 732.183 101.856 731.346 Q102.306 730.476 102.306 729.285 Q102.306 727.771 101.598 726.354 Q100.857 724.905 99.8588 724.003 Q98.8604 723.069 98.023 722.521 Q97.1535 721.942 96.7026 721.813 L84.8508 718.85 L79.5691 717.53 Q76.7027 716.918 75.9942 716.628 Q75.3179 716.241 74.9636 715.565 Q74.6094 714.889 74.6094 714.309 Q74.6094 713.504 75.0925 712.956 Q75.5755 712.377 76.4129 712.377 Z" fill="#000000" fill-rule="evenodd" fill-opacity="1" /><polyline clip-path="url(#clip6602)" style="stroke:#009af9; stroke-width:4; stroke-opacity:1; fill:none" points="
  286.843,85.7097 509.703,420.185 732.563,413.264 955.423,1276.75 1178.28,1124.39 1401.14,326.302 1624,350.525 1846.86,1367.9 2069.72,1210.53 2292.58,207.792 
  
  "/>
<path clip-path="url(#clip6600)" d="
M1989.74 251.724 L2280.76 251.724 L2280.76 130.764 L1989.74 130.764  Z
  " fill="#ffffff" fill-rule="evenodd" fill-opacity="1"/>
<polyline clip-path="url(#clip6600)" style="stroke:#000000; stroke-width:4; stroke-opacity:1; fill:none" points="
  1989.74,251.724 2280.76,251.724 2280.76,130.764 1989.74,130.764 1989.74,251.724 
  "/>
<polyline clip-path="url(#clip6600)" style="stroke:#009af9; stroke-width:4; stroke-opacity:1; fill:none" points="
  2013.74,191.244 2157.74,191.244 
  "/>
<path clip-path="url(#clip6600)" d="M 0 0 M2195.58 210.931 Q2193.77 215.561 2192.06 216.973 Q2190.35 218.385 2187.48 218.385 L2184.08 218.385 L2184.08 214.82 L2186.58 214.82 Q2188.33 214.82 2189.31 213.987 Q2190.28 213.154 2191.46 210.052 L2192.22 208.107 L2181.74 182.598 L2186.25 182.598 L2194.35 202.876 L2202.46 182.598 L2206.97 182.598 L2195.58 210.931 Z" fill="#000000" fill-rule="evenodd" fill-opacity="1" /><path clip-path="url(#clip6600)" d="M 0 0 M2212.85 204.589 L2220.49 204.589 L2220.49 178.223 L2212.18 179.89 L2212.18 175.631 L2220.44 173.964 L2225.12 173.964 L2225.12 204.589 L2232.76 204.589 L2232.76 208.524 L2212.85 208.524 L2212.85 204.589 Z" fill="#000000" fill-rule="evenodd" fill-opacity="1" /></svg>
