<?xml version="1.0" encoding="utf-8"?>
<svg xmlns="http://www.w3.org/2000/svg" xmlns:xlink="http://www.w3.org/1999/xlink" width="600" height="400" viewBox="0 0 2400 1600">
<defs>
  <clipPath id="clip8600">
    <rect x="0" y="0" width="2400" height="1600"/>
  </clipPath>
</defs>
<path clip-path="url(#clip8600)" d="
M0 1600 L2400 1600 L2400 0 L0 0  Z
  " fill="#ffffff" fill-rule="evenodd" fill-opacity="1"/>
<defs>
  <clipPath id="clip8601">
    <rect x="480" y="0" width="1681" height="1600"/>
  </clipPath>
</defs>
<path clip-path="url(#clip8600)" d="
M226.671 1406.36 L2352.76 1406.36 L2352.76 47.2441 L226.671 47.2441  Z
  " fill="#ffffff" fill-rule="evenodd" fill-opacity="1"/>
<defs>
  <clipPath id="clip8602">
    <rect x="226" y="47" width="2127" height="1360"/>
  </clipPath>
</defs>
<polyline clip-path="url(#clip8602)" style="stroke:#000000; stroke-width:2; stroke-opacity:0.1; fill:none" points="
  509.703,1406.36 509.703,47.2441 
  "/>
<polyline clip-path="url(#clip8602)" style="stroke:#000000; stroke-width:2; stroke-opacity:0.1; fill:none" points="
  955.423,1406.36 955.423,47.2441 
  "/>
<polyline clip-path="url(#clip8602)" style="stroke:#000000; stroke-width:2; stroke-opacity:0.1; fill:none" points="
  1401.14,1406.36 1401.14,47.2441 
  "/>
<polyline clip-path="url(#clip8602)" style="stroke:#000000; stroke-width:2; stroke-opacity:0.1; fill:none" points="
  1846.86,1406.36 1846.86,47.2441 
  "/>
<polyline clip-path="url(#clip8602)" style="stroke:#000000; stroke-width:2; stroke-opacity:0.1; fill:none" points="
  2292.58,1406.36 2292.58,47.2441 
  "/>
<polyline clip-path="url(#clip8602)" style="stroke:#000000; stroke-width:2; stroke-opacity:0.1; fill:none" points="
  226.671,1221.93 2352.76,1221.93 
  "/>
<polyline clip-path="url(#clip8602)" style="stroke:#000000; stroke-width:2; stroke-opacity:0.1; fill:none" points="
  226.671,1020.66 2352.76,1020.66 
  "/>
<polyline clip-path="url(#clip8602)" style="stroke:#000000; stroke-width:2; stroke-opacity:0.1; fill:none" points="
  226.671,819.396 2352.76,819.396 
  "/>
<polyline clip-path="url(#clip8602)" style="stroke:#000000; stroke-width:2; stroke-opacity:0.1; fill:none" points="
  226.671,618.128 2352.76,618.128 
  "/>
<polyline clip-path="url(#clip8602)" style="stroke:#000000; stroke-width:2; stroke-opacity:0.1; fill:none" points="
  226.671,416.86 2352.76,416.86 
  "/>
<polyline clip-path="url(#clip8602)" style="stroke:#000000; stroke-width:2; stroke-opacity:0.1; fill:none" points="
  226.671,215.592 2352.76,215.592 
  "/>
<polyline clip-path="url(#clip8600)" style="stroke:#000000; stroke-width:4; stroke-opacity:1; fill:none" points="
  226.671,1406.36 2352.76,1406.36 
  "/>
<polyline clip-path="url(#clip8600)" style="stroke:#000000; stroke-width:4; stroke-opacity:1; fill:none" points="
  226.671,1406.36 226.671,47.2441 
  "/>
<polyline clip-path="url(#clip8600)" style="stroke:#000000; stroke-width:4; stroke-opacity:1; fill:none" points="
  509.703,1406.36 509.703,1390.05 
  "/>
<polyline clip-path="url(#clip8600)" style="stroke:#000000; stroke-width:4; stroke-opacity:1; fill:none" points="
  955.423,1406.36 955.423,1390.05 
  "/>
<polyline clip-path="url(#clip8600)" style="stroke:#000000; stroke-width:4; stroke-opacity:1; fill:none" points="
  1401.14,1406.36 1401.14,1390.05 
  "/>
<polyline clip-path="url(#clip8600)" style="stroke:#000000; stroke-width:4; stroke-opacity:1; fill:none" points="
  1846.86,1406.36 1846.86,1390.05 
  "/>
<polyline clip-path="url(#clip8600)" style="stroke:#000000; stroke-width:4; stroke-opacity:1; fill:none" points="
  2292.58,1406.36 2292.58,1390.05 
  "/>
<polyline clip-path="url(#clip8600)" style="stroke:#000000; stroke-width:4; stroke-opacity:1; fill:none" points="
  226.671,1221.93 252.184,1221.93 
  "/>
<polyline clip-path="url(#clip8600)" style="stroke:#000000; stroke-width:4; stroke-opacity:1; fill:none" points="
  226.671,1020.66 252.184,1020.66 
  "/>
<polyline clip-path="url(#clip8600)" style="stroke:#000000; stroke-width:4; stroke-opacity:1; fill:none" points="
  226.671,819.396 252.184,819.396 
  "/>
<polyline clip-path="url(#clip8600)" style="stroke:#000000; stroke-width:4; stroke-opacity:1; fill:none" points="
  226.671,618.128 252.184,618.128 
  "/>
<polyline clip-path="url(#clip8600)" style="stroke:#000000; stroke-width:4; stroke-opacity:1; fill:none" points="
  226.671,416.86 252.184,416.86 
  "/>
<polyline clip-path="url(#clip8600)" style="stroke:#000000; stroke-width:4; stroke-opacity:1; fill:none" points="
  226.671,215.592 252.184,215.592 
  "/>
<path clip-path="url(#clip8600)" d="M 0 0 M504.356 1455.9 L520.675 1455.9 L520.675 1459.83 L498.731 1459.83 L498.731 1455.9 Q501.393 1453.14 505.976 1448.51 Q510.583 1443.86 511.763 1442.52 Q514.009 1440 514.888 1438.26 Q515.791 1436.5 515.791 1434.81 Q515.791 1432.06 513.846 1430.32 Q511.925 1428.58 508.823 1428.58 Q506.624 1428.58 504.171 1429.35 Q501.74 1430.11 498.962 1431.66 L498.962 1426.94 Q501.786 1425.81 504.24 1425.23 Q506.694 1424.65 508.731 1424.65 Q514.101 1424.65 517.296 1427.33 Q520.49 1430.02 520.49 1434.51 Q520.49 1436.64 519.68 1438.56 Q518.893 1440.46 516.786 1443.05 Q516.208 1443.72 513.106 1446.94 Q510.004 1450.13 504.356 1455.9 Z" fill="#000000" fill-rule="evenodd" fill-opacity="1" /><path clip-path="url(#clip8600)" d="M 0 0 M958.432 1429.35 L946.627 1447.8 L958.432 1447.8 L958.432 1429.35 M957.206 1425.27 L963.085 1425.27 L963.085 1447.8 L968.016 1447.8 L968.016 1451.68 L963.085 1451.68 L963.085 1459.83 L958.432 1459.83 L958.432 1451.68 L942.831 1451.68 L942.831 1447.17 L957.206 1425.27 Z" fill="#000000" fill-rule="evenodd" fill-opacity="1" /><path clip-path="url(#clip8600)" d="M 0 0 M1401.55 1440.69 Q1398.4 1440.69 1396.55 1442.84 Q1394.72 1445 1394.72 1448.75 Q1394.72 1452.47 1396.55 1454.65 Q1398.4 1456.8 1401.55 1456.8 Q1404.7 1456.8 1406.53 1454.65 Q1408.38 1452.47 1408.38 1448.75 Q1408.38 1445 1406.53 1442.84 Q1404.7 1440.69 1401.55 1440.69 M1410.83 1426.04 L1410.83 1430.3 Q1409.07 1429.46 1407.27 1429.02 Q1405.48 1428.58 1403.72 1428.58 Q1399.09 1428.58 1396.64 1431.71 Q1394.21 1434.83 1393.86 1441.15 Q1395.23 1439.14 1397.29 1438.07 Q1399.35 1436.99 1401.83 1436.99 Q1407.03 1436.99 1410.04 1440.16 Q1413.08 1443.31 1413.08 1448.75 Q1413.08 1454.07 1409.93 1457.29 Q1406.78 1460.5 1401.55 1460.5 Q1395.55 1460.5 1392.38 1455.92 Q1389.21 1451.31 1389.21 1442.59 Q1389.21 1434.39 1393.1 1429.53 Q1396.99 1424.65 1403.54 1424.65 Q1405.3 1424.65 1407.08 1425 Q1408.89 1425.34 1410.83 1426.04 Z" fill="#000000" fill-rule="evenodd" fill-opacity="1" /><path clip-path="url(#clip8600)" d="M 0 0 M1846.86 1443.42 Q1843.53 1443.42 1841.61 1445.2 Q1839.71 1446.99 1839.71 1450.11 Q1839.71 1453.24 1841.61 1455.02 Q1843.53 1456.8 1846.86 1456.8 Q1850.2 1456.8 1852.12 1455.02 Q1854.04 1453.21 1854.04 1450.11 Q1854.04 1446.99 1852.12 1445.2 Q1850.22 1443.42 1846.86 1443.42 M1842.19 1441.43 Q1839.18 1440.69 1837.49 1438.63 Q1835.82 1436.57 1835.82 1433.61 Q1835.82 1429.46 1838.76 1427.06 Q1841.72 1424.65 1846.86 1424.65 Q1852.03 1424.65 1854.97 1427.06 Q1857.91 1429.46 1857.91 1433.61 Q1857.91 1436.57 1856.22 1438.63 Q1854.55 1440.69 1851.56 1441.43 Q1854.94 1442.22 1856.82 1444.51 Q1858.72 1446.8 1858.72 1450.11 Q1858.72 1455.13 1855.64 1457.82 Q1852.58 1460.5 1846.86 1460.5 Q1841.15 1460.5 1838.07 1457.82 Q1835.01 1455.13 1835.01 1450.11 Q1835.01 1446.8 1836.91 1444.51 Q1838.81 1442.22 1842.19 1441.43 M1840.47 1434.05 Q1840.47 1436.73 1842.14 1438.24 Q1843.83 1439.74 1846.86 1439.74 Q1849.87 1439.74 1851.56 1438.24 Q1853.28 1436.73 1853.28 1434.05 Q1853.28 1431.36 1851.56 1429.86 Q1849.87 1428.35 1846.86 1428.35 Q1843.83 1428.35 1842.14 1429.86 Q1840.47 1431.36 1840.47 1434.05 Z" fill="#000000" fill-rule="evenodd" fill-opacity="1" /><path clip-path="url(#clip8600)" d="M 0 0 M2269.46 1455.9 L2277.1 1455.9 L2277.1 1429.53 L2268.79 1431.2 L2268.79 1426.94 L2277.05 1425.27 L2281.73 1425.27 L2281.73 1455.9 L2289.37 1455.9 L2289.37 1459.83 L2269.46 1459.83 L2269.46 1455.9 Z" fill="#000000" fill-rule="evenodd" fill-opacity="1" /><path clip-path="url(#clip8600)" d="M 0 0 M2304.44 1428.35 Q2300.82 1428.35 2299 1431.92 Q2297.19 1435.46 2297.19 1442.59 Q2297.19 1449.69 2299 1453.26 Q2300.82 1456.8 2304.44 1456.8 Q2308.07 1456.8 2309.88 1453.26 Q2311.7 1449.69 2311.7 1442.59 Q2311.7 1435.46 2309.88 1431.92 Q2308.07 1428.35 2304.44 1428.35 M2304.44 1424.65 Q2310.25 1424.65 2313.3 1429.25 Q2316.38 1433.84 2316.38 1442.59 Q2316.38 1451.31 2313.3 1455.92 Q2310.25 1460.5 2304.44 1460.5 Q2298.63 1460.5 2295.55 1455.92 Q2292.49 1451.31 2292.49 1442.59 Q2292.49 1433.84 2295.55 1429.25 Q2298.63 1424.65 2304.44 1424.65 Z" fill="#000000" fill-rule="evenodd" fill-opacity="1" /><path clip-path="url(#clip8600)" d="M 0 0 M154.986 1207.73 Q151.375 1207.73 149.546 1211.29 Q147.74 1214.84 147.74 1221.97 Q147.74 1229.07 149.546 1232.64 Q151.375 1236.18 154.986 1236.18 Q158.62 1236.18 160.426 1232.64 Q162.254 1229.07 162.254 1221.97 Q162.254 1214.84 160.426 1211.29 Q158.62 1207.73 154.986 1207.73 M154.986 1204.03 Q160.796 1204.03 163.851 1208.63 Q166.93 1213.22 166.93 1221.97 Q166.93 1230.69 163.851 1235.3 Q160.796 1239.88 154.986 1239.88 Q149.176 1239.88 146.097 1235.3 Q143.041 1230.69 143.041 1221.97 Q143.041 1213.22 146.097 1208.63 Q149.176 1204.03 154.986 1204.03 Z" fill="#000000" fill-rule="evenodd" fill-opacity="1" /><path clip-path="url(#clip8600)" d="M 0 0 M172 1233.33 L176.884 1233.33 L176.884 1239.21 L172 1239.21 L172 1233.33 Z" fill="#000000" fill-rule="evenodd" fill-opacity="1" /><path clip-path="url(#clip8600)" d="M 0 0 M182.763 1235.28 L190.402 1235.28 L190.402 1208.91 L182.092 1210.58 L182.092 1206.32 L190.356 1204.65 L195.032 1204.65 L195.032 1235.28 L202.671 1235.28 L202.671 1239.21 L182.763 1239.21 L182.763 1235.28 Z" fill="#000000" fill-rule="evenodd" fill-opacity="1" /><path clip-path="url(#clip8600)" d="M 0 0 M155.356 1006.46 Q151.745 1006.46 149.916 1010.03 Q148.111 1013.57 148.111 1020.7 Q148.111 1027.8 149.916 1031.37 Q151.745 1034.91 155.356 1034.91 Q158.99 1034.91 160.796 1031.37 Q162.625 1027.8 162.625 1020.7 Q162.625 1013.57 160.796 1010.03 Q158.99 1006.46 155.356 1006.46 M155.356 1002.76 Q161.166 1002.76 164.222 1007.37 Q167.3 1011.95 167.3 1020.7 Q167.3 1029.43 164.222 1034.03 Q161.166 1038.61 155.356 1038.61 Q149.546 1038.61 146.467 1034.03 Q143.412 1029.43 143.412 1020.7 Q143.412 1011.95 146.467 1007.37 Q149.546 1002.76 155.356 1002.76 Z" fill="#000000" fill-rule="evenodd" fill-opacity="1" /><path clip-path="url(#clip8600)" d="M 0 0 M172.37 1032.06 L177.254 1032.06 L177.254 1037.94 L172.37 1037.94 L172.37 1032.06 Z" fill="#000000" fill-rule="evenodd" fill-opacity="1" /><path clip-path="url(#clip8600)" d="M 0 0 M186.351 1034.01 L202.671 1034.01 L202.671 1037.94 L180.726 1037.94 L180.726 1034.01 Q183.388 1031.25 187.972 1026.62 Q192.578 1021.97 193.759 1020.63 Q196.004 1018.11 196.884 1016.37 Q197.786 1014.61 197.786 1012.92 Q197.786 1010.17 195.842 1008.43 Q193.921 1006.69 190.819 1006.69 Q188.62 1006.69 186.166 1007.46 Q183.736 1008.22 180.958 1009.77 L180.958 1005.05 Q183.782 1003.92 186.236 1003.34 Q188.689 1002.76 190.726 1002.76 Q196.097 1002.76 199.291 1005.44 Q202.485 1008.13 202.485 1012.62 Q202.485 1014.75 201.675 1016.67 Q200.888 1018.57 198.782 1021.16 Q198.203 1021.83 195.101 1025.05 Q191.999 1028.24 186.351 1034.01 Z" fill="#000000" fill-rule="evenodd" fill-opacity="1" /><path clip-path="url(#clip8600)" d="M 0 0 M154.407 805.194 Q150.796 805.194 148.967 808.759 Q147.162 812.301 147.162 819.43 Q147.162 826.537 148.967 830.102 Q150.796 833.643 154.407 833.643 Q158.041 833.643 159.847 830.102 Q161.676 826.537 161.676 819.43 Q161.676 812.301 159.847 808.759 Q158.041 805.194 154.407 805.194 M154.407 801.491 Q160.217 801.491 163.273 806.097 Q166.351 810.68 166.351 819.43 Q166.351 828.157 163.273 832.764 Q160.217 837.347 154.407 837.347 Q148.597 837.347 145.518 832.764 Q142.463 828.157 142.463 819.43 Q142.463 810.68 145.518 806.097 Q148.597 801.491 154.407 801.491 Z" fill="#000000" fill-rule="evenodd" fill-opacity="1" /><path clip-path="url(#clip8600)" d="M 0 0 M171.421 830.796 L176.305 830.796 L176.305 836.676 L171.421 836.676 L171.421 830.796 Z" fill="#000000" fill-rule="evenodd" fill-opacity="1" /><path clip-path="url(#clip8600)" d="M 0 0 M195.541 818.042 Q198.898 818.759 200.773 821.028 Q202.671 823.296 202.671 826.629 Q202.671 831.745 199.152 834.546 Q195.634 837.347 189.152 837.347 Q186.976 837.347 184.661 836.907 Q182.37 836.491 179.916 835.634 L179.916 831.12 Q181.861 832.254 184.175 832.833 Q186.49 833.412 189.013 833.412 Q193.411 833.412 195.703 831.676 Q198.018 829.94 198.018 826.629 Q198.018 823.574 195.865 821.861 Q193.736 820.125 189.916 820.125 L185.888 820.125 L185.888 816.282 L190.101 816.282 Q193.55 816.282 195.379 814.917 Q197.208 813.528 197.208 810.935 Q197.208 808.273 195.31 806.861 Q193.435 805.426 189.916 805.426 Q187.995 805.426 185.796 805.843 Q183.597 806.259 180.958 807.139 L180.958 802.972 Q183.62 802.231 185.935 801.861 Q188.273 801.491 190.333 801.491 Q195.657 801.491 198.759 803.921 Q201.86 806.329 201.86 810.449 Q201.86 813.319 200.217 815.31 Q198.573 817.278 195.541 818.042 Z" fill="#000000" fill-rule="evenodd" fill-opacity="1" /><path clip-path="url(#clip8600)" d="M 0 0 M153.273 603.927 Q149.662 603.927 147.833 607.491 Q146.027 611.033 146.027 618.163 Q146.027 625.269 147.833 628.834 Q149.662 632.375 153.273 632.375 Q156.907 632.375 158.713 628.834 Q160.541 625.269 160.541 618.163 Q160.541 611.033 158.713 607.491 Q156.907 603.927 153.273 603.927 M153.273 600.223 Q159.083 600.223 162.138 604.829 Q165.217 609.413 165.217 618.163 Q165.217 626.889 162.138 631.496 Q159.083 636.079 153.273 636.079 Q147.463 636.079 144.384 631.496 Q141.328 626.889 141.328 618.163 Q141.328 609.413 144.384 604.829 Q147.463 600.223 153.273 600.223 Z" fill="#000000" fill-rule="evenodd" fill-opacity="1" /><path clip-path="url(#clip8600)" d="M 0 0 M170.287 629.528 L175.171 629.528 L175.171 635.408 L170.287 635.408 L170.287 629.528 Z" fill="#000000" fill-rule="evenodd" fill-opacity="1" /><path clip-path="url(#clip8600)" d="M 0 0 M193.087 604.922 L181.282 623.371 L193.087 623.371 L193.087 604.922 M191.861 600.848 L197.74 600.848 L197.74 623.371 L202.671 623.371 L202.671 627.26 L197.74 627.26 L197.74 635.408 L193.087 635.408 L193.087 627.26 L177.486 627.26 L177.486 622.746 L191.861 600.848 Z" fill="#000000" fill-rule="evenodd" fill-opacity="1" /><path clip-path="url(#clip8600)" d="M 0 0 M154.754 402.659 Q151.143 402.659 149.314 406.223 Q147.509 409.765 147.509 416.895 Q147.509 424.001 149.314 427.566 Q151.143 431.108 154.754 431.108 Q158.388 431.108 160.194 427.566 Q162.023 424.001 162.023 416.895 Q162.023 409.765 160.194 406.223 Q158.388 402.659 154.754 402.659 M154.754 398.955 Q160.564 398.955 163.62 403.561 Q166.699 408.145 166.699 416.895 Q166.699 425.621 163.62 430.228 Q160.564 434.811 154.754 434.811 Q148.944 434.811 145.865 430.228 Q142.81 425.621 142.81 416.895 Q142.81 408.145 145.865 403.561 Q148.944 398.955 154.754 398.955 Z" fill="#000000" fill-rule="evenodd" fill-opacity="1" /><path clip-path="url(#clip8600)" d="M 0 0 M171.768 428.26 L176.652 428.26 L176.652 434.14 L171.768 434.14 L171.768 428.26 Z" fill="#000000" fill-rule="evenodd" fill-opacity="1" /><path clip-path="url(#clip8600)" d="M 0 0 M181.768 399.58 L200.124 399.58 L200.124 403.515 L186.05 403.515 L186.05 411.987 Q187.069 411.64 188.087 411.478 Q189.106 411.293 190.124 411.293 Q195.911 411.293 199.291 414.464 Q202.671 417.635 202.671 423.052 Q202.671 428.631 199.198 431.733 Q195.726 434.811 189.407 434.811 Q187.231 434.811 184.962 434.441 Q182.717 434.071 180.31 433.33 L180.31 428.631 Q182.393 429.765 184.615 430.321 Q186.837 430.876 189.314 430.876 Q193.319 430.876 195.657 428.77 Q197.995 426.663 197.995 423.052 Q197.995 419.441 195.657 417.334 Q193.319 415.228 189.314 415.228 Q187.439 415.228 185.564 415.645 Q183.712 416.061 181.768 416.941 L181.768 399.58 Z" fill="#000000" fill-rule="evenodd" fill-opacity="1" /><path clip-path="url(#clip8600)" d="M 0 0 M153.597 201.391 Q149.986 201.391 148.157 204.956 Q146.352 208.497 146.352 215.627 Q146.352 222.733 148.157 226.298 Q149.986 229.84 153.597 229.84 Q157.231 229.84 159.037 226.298 Q160.865 222.733 160.865 215.627 Q160.865 208.497 159.037 204.956 Q157.231 201.391 153.597 201.391 M153.597 197.687 Q159.407 197.687 162.463 202.294 Q165.541 206.877 165.541 215.627 Q165.541 224.354 162.463 228.96 Q159.407 233.543 153.597 233.543 Q147.787 233.543 144.708 228.96 Q141.652 224.354 141.652 215.627 Q141.652 206.877 144.708 202.294 Q147.787 197.687 153.597 197.687 Z" fill="#000000" fill-rule="evenodd" fill-opacity="1" /><path clip-path="url(#clip8600)" d="M 0 0 M170.611 226.992 L175.495 226.992 L175.495 232.872 L170.611 232.872 L170.611 226.992 Z" fill="#000000" fill-rule="evenodd" fill-opacity="1" /><path clip-path="url(#clip8600)" d="M 0 0 M191.143 213.729 Q187.995 213.729 186.143 215.881 Q184.314 218.034 184.314 221.784 Q184.314 225.511 186.143 227.687 Q187.995 229.84 191.143 229.84 Q194.291 229.84 196.12 227.687 Q197.972 225.511 197.972 221.784 Q197.972 218.034 196.12 215.881 Q194.291 213.729 191.143 213.729 M200.425 199.076 L200.425 203.335 Q198.666 202.502 196.861 202.062 Q195.078 201.622 193.319 201.622 Q188.689 201.622 186.236 204.747 Q183.805 207.872 183.458 214.192 Q184.824 212.178 186.884 211.113 Q188.944 210.025 191.421 210.025 Q196.629 210.025 199.638 213.196 Q202.671 216.344 202.671 221.784 Q202.671 227.108 199.523 230.326 Q196.374 233.543 191.143 233.543 Q185.148 233.543 181.976 228.96 Q178.805 224.354 178.805 215.627 Q178.805 207.432 182.694 202.571 Q186.583 197.687 193.134 197.687 Q194.893 197.687 196.675 198.034 Q198.481 198.382 200.425 199.076 Z" fill="#000000" fill-rule="evenodd" fill-opacity="1" /><path clip-path="url(#clip8600)" d="M 0 0 M1303.87 1486.67 Q1303.87 1488.47 1302.75 1489.5 Q1301.62 1490.5 1300.33 1490.5 Q1299.11 1490.5 1298.46 1489.79 Q1297.82 1489.08 1297.82 1488.18 Q1297.82 1486.96 1298.72 1485.9 Q1299.62 1484.83 1300.97 1484.61 Q1299.65 1483.77 1297.69 1483.77 Q1296.4 1483.77 1295.27 1484.45 Q1294.18 1485.12 1293.5 1485.99 Q1292.86 1486.86 1292.28 1488.12 Q1291.73 1489.34 1291.51 1490.08 Q1291.31 1490.79 1291.15 1491.56 L1288.9 1500.58 Q1287.8 1504.86 1287.8 1506.38 Q1287.8 1508.25 1288.7 1509.5 Q1289.61 1510.73 1291.41 1510.73 Q1292.12 1510.73 1292.92 1510.53 Q1293.73 1510.31 1294.76 1509.73 Q1295.82 1509.12 1296.76 1508.21 Q1297.72 1507.28 1298.66 1505.7 Q1299.59 1504.12 1300.2 1502.09 Q1300.4 1501.39 1301.04 1501.39 Q1301.84 1501.39 1301.84 1502.03 Q1301.84 1502.58 1301.39 1503.74 Q1300.97 1504.86 1300.04 1506.35 Q1299.14 1507.8 1297.95 1509.12 Q1296.76 1510.4 1294.98 1511.31 Q1293.21 1512.21 1291.28 1512.21 Q1288.51 1512.21 1286.68 1510.73 Q1284.84 1509.24 1284.16 1507.18 Q1284 1507.47 1283.78 1507.86 Q1283.55 1508.25 1282.88 1509.12 Q1282.23 1509.95 1281.49 1510.6 Q1280.75 1511.21 1279.59 1511.69 Q1278.46 1512.21 1277.24 1512.21 Q1275.69 1512.21 1274.31 1511.76 Q1272.96 1511.31 1271.99 1510.28 Q1271.02 1509.24 1271.02 1507.83 Q1271.02 1506.25 1272.09 1505.15 Q1273.18 1504.03 1274.66 1504.03 Q1275.6 1504.03 1276.34 1504.57 Q1277.11 1505.12 1277.11 1506.31 Q1277.11 1507.63 1276.21 1508.63 Q1275.31 1509.63 1274.02 1509.89 Q1275.34 1510.73 1277.3 1510.73 Q1279.43 1510.73 1281.1 1508.86 Q1282.78 1506.99 1283.58 1503.87 Q1285.58 1496.36 1286.35 1493.01 Q1287.13 1489.63 1287.13 1488.18 Q1287.13 1486.83 1286.77 1485.9 Q1286.42 1484.96 1285.81 1484.54 Q1285.23 1484.09 1284.68 1483.93 Q1284.16 1483.77 1283.58 1483.77 Q1282.62 1483.77 1281.52 1484.16 Q1280.46 1484.54 1279.17 1485.44 Q1277.92 1486.31 1276.72 1488.12 Q1275.53 1489.92 1274.73 1492.4 Q1274.57 1493.14 1273.86 1493.14 Q1273.08 1493.11 1273.08 1492.47 Q1273.08 1491.92 1273.5 1490.79 Q1273.95 1489.63 1274.86 1488.18 Q1275.79 1486.73 1276.98 1485.44 Q1278.21 1484.12 1279.98 1483.22 Q1281.78 1482.32 1283.71 1482.32 Q1284.58 1482.32 1285.42 1482.51 Q1286.29 1482.67 1287.32 1483.16 Q1288.38 1483.64 1289.32 1484.7 Q1290.25 1485.77 1290.83 1487.31 Q1291.22 1486.57 1291.73 1485.86 Q1292.28 1485.15 1293.12 1484.28 Q1293.99 1483.38 1295.18 1482.87 Q1296.4 1482.32 1297.75 1482.32 Q1299.07 1482.32 1300.36 1482.67 Q1301.65 1483 1302.75 1484.06 Q1303.87 1485.09 1303.87 1486.67 Z" fill="#000000" fill-rule="evenodd" fill-opacity="1" /><path clip-path="url(#clip8600)" d="M 0 0 M76.4129 712.377 Q76.8638 712.377 77.9266 712.666 L103.112 718.979 Q108.715 720.364 112.644 724.872 Q116.574 729.349 116.574 734.438 Q116.574 737.497 114.931 739.462 Q113.321 741.426 110.841 741.426 Q108.651 741.426 107.588 740.267 Q106.558 739.107 106.558 737.723 Q106.558 737.272 106.686 736.789 Q106.815 736.306 107.363 735.79 Q107.91 735.275 108.844 735.275 Q110.358 735.275 111.549 736.595 Q112.097 737.24 112.226 737.851 Q112.355 738.431 112.355 739.43 Q113.256 739.043 113.868 738.335 Q114.48 737.626 114.706 736.821 Q114.963 736.016 115.028 735.5 Q115.124 734.953 115.124 734.438 Q115.124 730.315 110.97 727.159 Q109.714 726.225 108.458 725.549 Q107.234 724.84 105.72 724.325 Q104.239 723.81 103.434 723.584 Q102.628 723.327 100.793 722.876 Q103.788 725.871 103.788 729.542 Q103.788 731.088 103.369 732.473 Q102.951 733.826 102.081 735.017 Q101.179 736.209 99.6011 736.917 Q98.023 737.594 95.9296 737.594 Q93.7074 737.594 90.6801 736.724 Q87.6527 735.855 82.0811 733.761 Q78.9572 732.634 77.4435 732.634 Q76.7027 732.634 76.2519 732.795 Q75.7688 732.956 75.6077 733.278 Q75.4145 733.6 75.3823 733.793 Q75.3501 733.955 75.3501 734.277 Q75.3501 736.177 77.2825 737.948 Q79.2148 739.719 83.5304 740.943 Q84.3355 741.201 84.5288 741.362 Q84.722 741.523 84.722 742.006 Q84.6898 742.811 84.0457 742.811 Q83.788 742.811 82.7897 742.521 Q81.7591 742.231 80.2454 741.555 Q78.6995 740.847 77.3147 739.88 Q75.8976 738.914 74.8992 737.401 Q73.9008 735.855 73.9008 734.083 Q73.9008 731.668 75.4789 730.186 Q77.0248 728.673 79.3114 728.673 Q80.2454 728.673 81.0827 728.93 Q81.8879 729.156 84.0457 729.993 Q92.7413 733.375 96.9924 733.375 Q98.023 733.375 98.8926 733.214 Q99.7299 733.021 100.567 732.602 Q101.372 732.183 101.856 731.346 Q102.306 730.476 102.306 729.285 Q102.306 727.771 101.598 726.354 Q100.857 724.905 99.8588 724.003 Q98.8604 723.069 98.023 722.521 Q97.1535 721.942 96.7026 721.813 L84.8508 718.85 L79.5691 717.53 Q76.7027 716.918 75.9942 716.628 Q75.3179 716.241 74.9636 715.565 Q74.6094 714.889 74.6094 714.309 Q74.6094 713.504 75.0925 712.956 Q75.5755 712.377 76.4129 712.377 Z" fill="#000000" fill-rule="evenodd" fill-opacity="1" /><polyline clip-path="url(#clip8602)" style="stroke:#009af9; stroke-width:4; stroke-opacity:1; fill:none" points="
  286.843,255.966 509.703,85.7097 732.563,907.667 955.423,1298.3 1178.28,867.354 1401.14,284.27 1624,1367.9 1846.86,394.153 2069.72,1207.25 2292.58,795.627 
  
  "/>
<path clip-path="url(#clip8600)" d="
M1989.74 251.724 L2280.76 251.724 L2280.76 130.764 L1989.74 130.764  Z
  " fill="#ffffff" fill-rule="evenodd" fill-opacity="1"/>
<polyline clip-path="url(#clip8600)" style="stroke:#000000; stroke-width:4; stroke-opacity:1; fill:none" points="
  1989.74,251.724 2280.76,251.724 2280.76,130.764 1989.74,130.764 1989.74,251.724 
  "/>
<polyline clip-path="url(#clip8600)" style="stroke:#009af9; stroke-width:4; stroke-opacity:1; fill:none" points="
  2013.74,191.244 2157.74,191.244 
  "/>
<path clip-path="url(#clip8600)" d="M 0 0 M2195.58 210.931 Q2193.77 215.561 2192.06 216.973 Q2190.35 218.385 2187.48 218.385 L2184.08 218.385 L2184.08 214.82 L2186.58 214.82 Q2188.33 214.82 2189.31 213.987 Q2190.28 213.154 2191.46 210.052 L2192.22 208.107 L2181.74 182.598 L2186.25 182.598 L2194.35 202.876 L2202.46 182.598 L2206.97 182.598 L2195.58 210.931 Z" fill="#000000" fill-rule="evenodd" fill-opacity="1" /><path clip-path="url(#clip8600)" d="M 0 0 M2212.85 204.589 L2220.49 204.589 L2220.49 178.223 L2212.18 179.89 L2212.18 175.631 L2220.44 173.964 L2225.12 173.964 L2225.12 204.589 L2232.76 204.589 L2232.76 208.524 L2212.85 208.524 L2212.85 204.589 Z" fill="#000000" fill-rule="evenodd" fill-opacity="1" /></svg>
