<?xml version="1.0" encoding="utf-8"?>
<svg xmlns="http://www.w3.org/2000/svg" xmlns:xlink="http://www.w3.org/1999/xlink" width="600" height="400" viewBox="0 0 2400 1600">
<defs>
  <clipPath id="clip1400">
    <rect x="0" y="0" width="2400" height="1600"/>
  </clipPath>
</defs>
<path clip-path="url(#clip1400)" d="
M0 1600 L2400 1600 L2400 0 L0 0  Z
  " fill="#ffffff" fill-rule="evenodd" fill-opacity="1"/>
<defs>
  <clipPath id="clip1401">
    <rect x="480" y="0" width="1681" height="1600"/>
  </clipPath>
</defs>
<path clip-path="url(#clip1400)" d="
M102.74 1505.26 L2352.76 1505.26 L2352.76 47.2441 L102.74 47.2441  Z
  " fill="#ffffff" fill-rule="evenodd" fill-opacity="1"/>
<defs>
  <clipPath id="clip1402">
    <rect x="102" y="47" width="2251" height="1459"/>
  </clipPath>
</defs>
<polyline clip-path="url(#clip1402)" style="stroke:#000000; stroke-width:2; stroke-opacity:0.1; fill:none" points="
  402.271,1505.26 402.271,47.2441 
  "/>
<polyline clip-path="url(#clip1402)" style="stroke:#000000; stroke-width:2; stroke-opacity:0.1; fill:none" points="
  873.972,1505.26 873.972,47.2441 
  "/>
<polyline clip-path="url(#clip1402)" style="stroke:#000000; stroke-width:2; stroke-opacity:0.1; fill:none" points="
  1345.67,1505.26 1345.67,47.2441 
  "/>
<polyline clip-path="url(#clip1402)" style="stroke:#000000; stroke-width:2; stroke-opacity:0.1; fill:none" points="
  1817.37,1505.26 1817.37,47.2441 
  "/>
<polyline clip-path="url(#clip1402)" style="stroke:#000000; stroke-width:2; stroke-opacity:0.1; fill:none" points="
  2289.08,1505.26 2289.08,47.2441 
  "/>
<polyline clip-path="url(#clip1402)" style="stroke:#000000; stroke-width:2; stroke-opacity:0.1; fill:none" points="
  102.74,1413.23 2352.76,1413.23 
  "/>
<polyline clip-path="url(#clip1402)" style="stroke:#000000; stroke-width:2; stroke-opacity:0.1; fill:none" points="
  102.74,1056.51 2352.76,1056.51 
  "/>
<polyline clip-path="url(#clip1402)" style="stroke:#000000; stroke-width:2; stroke-opacity:0.1; fill:none" points="
  102.74,699.793 2352.76,699.793 
  "/>
<polyline clip-path="url(#clip1402)" style="stroke:#000000; stroke-width:2; stroke-opacity:0.1; fill:none" points="
  102.74,343.073 2352.76,343.073 
  "/>
<polyline clip-path="url(#clip1400)" style="stroke:#000000; stroke-width:4; stroke-opacity:1; fill:none" points="
  102.74,1505.26 2352.76,1505.26 
  "/>
<polyline clip-path="url(#clip1400)" style="stroke:#000000; stroke-width:4; stroke-opacity:1; fill:none" points="
  102.74,1505.26 102.74,47.2441 
  "/>
<polyline clip-path="url(#clip1400)" style="stroke:#000000; stroke-width:4; stroke-opacity:1; fill:none" points="
  402.271,1505.26 402.271,1487.76 
  "/>
<polyline clip-path="url(#clip1400)" style="stroke:#000000; stroke-width:4; stroke-opacity:1; fill:none" points="
  873.972,1505.26 873.972,1487.76 
  "/>
<polyline clip-path="url(#clip1400)" style="stroke:#000000; stroke-width:4; stroke-opacity:1; fill:none" points="
  1345.67,1505.26 1345.67,1487.76 
  "/>
<polyline clip-path="url(#clip1400)" style="stroke:#000000; stroke-width:4; stroke-opacity:1; fill:none" points="
  1817.37,1505.26 1817.37,1487.76 
  "/>
<polyline clip-path="url(#clip1400)" style="stroke:#000000; stroke-width:4; stroke-opacity:1; fill:none" points="
  2289.08,1505.26 2289.08,1487.76 
  "/>
<polyline clip-path="url(#clip1400)" style="stroke:#000000; stroke-width:4; stroke-opacity:1; fill:none" points="
  102.74,1413.23 129.74,1413.23 
  "/>
<polyline clip-path="url(#clip1400)" style="stroke:#000000; stroke-width:4; stroke-opacity:1; fill:none" points="
  102.74,1056.51 129.74,1056.51 
  "/>
<polyline clip-path="url(#clip1400)" style="stroke:#000000; stroke-width:4; stroke-opacity:1; fill:none" points="
  102.74,699.793 129.74,699.793 
  "/>
<polyline clip-path="url(#clip1400)" style="stroke:#000000; stroke-width:4; stroke-opacity:1; fill:none" points="
  102.74,343.073 129.74,343.073 
  "/>
<path clip-path="url(#clip1400)" d="M 0 0 M396.923 1554.8 L413.243 1554.8 L413.243 1558.73 L391.298 1558.73 L391.298 1554.8 Q393.96 1552.04 398.544 1547.41 Q403.15 1542.76 404.331 1541.42 Q406.576 1538.89 407.456 1537.16 Q408.358 1535.4 408.358 1533.71 Q408.358 1530.95 406.414 1529.22 Q404.493 1527.48 401.391 1527.48 Q399.192 1527.48 396.738 1528.25 Q394.308 1529.01 391.53 1530.56 L391.53 1525.84 Q394.354 1524.7 396.808 1524.13 Q399.261 1523.55 401.298 1523.55 Q406.669 1523.55 409.863 1526.23 Q413.058 1528.92 413.058 1533.41 Q413.058 1535.54 412.247 1537.46 Q411.46 1539.36 409.354 1541.95 Q408.775 1542.62 405.673 1545.84 Q402.571 1549.03 396.923 1554.8 Z" fill="#000000" fill-rule="evenodd" fill-opacity="1" /><path clip-path="url(#clip1400)" d="M 0 0 M876.981 1528.25 L865.176 1546.69 L876.981 1546.69 L876.981 1528.25 M875.754 1524.17 L881.634 1524.17 L881.634 1546.69 L886.565 1546.69 L886.565 1550.58 L881.634 1550.58 L881.634 1558.73 L876.981 1558.73 L876.981 1550.58 L861.379 1550.58 L861.379 1546.07 L875.754 1524.17 Z" fill="#000000" fill-rule="evenodd" fill-opacity="1" /><path clip-path="url(#clip1400)" d="M 0 0 M1346.08 1539.59 Q1342.93 1539.59 1341.08 1541.74 Q1339.25 1543.89 1339.25 1547.64 Q1339.25 1551.37 1341.08 1553.55 Q1342.93 1555.7 1346.08 1555.7 Q1349.23 1555.7 1351.06 1553.55 Q1352.91 1551.37 1352.91 1547.64 Q1352.91 1543.89 1351.06 1541.74 Q1349.23 1539.59 1346.08 1539.59 M1355.36 1524.94 L1355.36 1529.19 Q1353.6 1528.36 1351.8 1527.92 Q1350.01 1527.48 1348.25 1527.48 Q1343.62 1527.48 1341.17 1530.61 Q1338.74 1533.73 1338.39 1540.05 Q1339.76 1538.04 1341.82 1536.97 Q1343.88 1535.88 1346.36 1535.88 Q1351.56 1535.88 1354.57 1539.06 Q1357.61 1542.2 1357.61 1547.64 Q1357.61 1552.97 1354.46 1556.19 Q1351.31 1559.4 1346.08 1559.4 Q1340.08 1559.4 1336.91 1554.82 Q1333.74 1550.21 1333.74 1541.49 Q1333.74 1533.29 1337.63 1528.43 Q1341.52 1523.55 1348.07 1523.55 Q1349.83 1523.55 1351.61 1523.89 Q1353.42 1524.24 1355.36 1524.94 Z" fill="#000000" fill-rule="evenodd" fill-opacity="1" /><path clip-path="url(#clip1400)" d="M 0 0 M1817.37 1542.32 Q1814.04 1542.32 1812.12 1544.1 Q1810.22 1545.88 1810.22 1549.01 Q1810.22 1552.13 1812.12 1553.92 Q1814.04 1555.7 1817.37 1555.7 Q1820.71 1555.7 1822.63 1553.92 Q1824.55 1552.11 1824.55 1549.01 Q1824.55 1545.88 1822.63 1544.1 Q1820.73 1542.32 1817.37 1542.32 M1812.7 1540.33 Q1809.69 1539.59 1808 1537.53 Q1806.33 1535.47 1806.33 1532.51 Q1806.33 1528.36 1809.27 1525.95 Q1812.24 1523.55 1817.37 1523.55 Q1822.54 1523.55 1825.48 1525.95 Q1828.42 1528.36 1828.42 1532.51 Q1828.42 1535.47 1826.73 1537.53 Q1825.06 1539.59 1822.07 1540.33 Q1825.45 1541.12 1827.33 1543.41 Q1829.23 1545.7 1829.23 1549.01 Q1829.23 1554.03 1826.15 1556.72 Q1823.09 1559.4 1817.37 1559.4 Q1811.66 1559.4 1808.58 1556.72 Q1805.52 1554.03 1805.52 1549.01 Q1805.52 1545.7 1807.42 1543.41 Q1809.32 1541.12 1812.7 1540.33 M1810.99 1532.94 Q1810.99 1535.63 1812.65 1537.13 Q1814.34 1538.64 1817.37 1538.64 Q1820.38 1538.64 1822.07 1537.13 Q1823.79 1535.63 1823.79 1532.94 Q1823.79 1530.26 1822.07 1528.76 Q1820.38 1527.25 1817.37 1527.25 Q1814.34 1527.25 1812.65 1528.76 Q1810.99 1530.26 1810.99 1532.94 Z" fill="#000000" fill-rule="evenodd" fill-opacity="1" /><path clip-path="url(#clip1400)" d="M 0 0 M2265.95 1554.8 L2273.59 1554.8 L2273.59 1528.43 L2265.28 1530.1 L2265.28 1525.84 L2273.54 1524.17 L2278.22 1524.17 L2278.22 1554.8 L2285.86 1554.8 L2285.86 1558.73 L2265.95 1558.73 L2265.95 1554.8 Z" fill="#000000" fill-rule="evenodd" fill-opacity="1" /><path clip-path="url(#clip1400)" d="M 0 0 M2300.93 1527.25 Q2297.32 1527.25 2295.49 1530.82 Q2293.68 1534.36 2293.68 1541.49 Q2293.68 1548.59 2295.49 1552.16 Q2297.32 1555.7 2300.93 1555.7 Q2304.56 1555.7 2306.37 1552.16 Q2308.2 1548.59 2308.2 1541.49 Q2308.2 1534.36 2306.37 1530.82 Q2304.56 1527.25 2300.93 1527.25 M2300.93 1523.55 Q2306.74 1523.55 2309.79 1528.15 Q2312.87 1532.74 2312.87 1541.49 Q2312.87 1550.21 2309.79 1554.82 Q2306.74 1559.4 2300.93 1559.4 Q2295.12 1559.4 2292.04 1554.82 Q2288.98 1550.21 2288.98 1541.49 Q2288.98 1532.74 2292.04 1528.15 Q2295.12 1523.55 2300.93 1523.55 Z" fill="#000000" fill-rule="evenodd" fill-opacity="1" /><path clip-path="url(#clip1400)" d="M 0 0 M31.4256 1399.03 Q27.8145 1399.03 25.9858 1402.6 Q24.1803 1406.14 24.1803 1413.27 Q24.1803 1420.37 25.9858 1423.94 Q27.8145 1427.48 31.4256 1427.48 Q35.0598 1427.48 36.8654 1423.94 Q38.6941 1420.37 38.6941 1413.27 Q38.6941 1406.14 36.8654 1402.6 Q35.0598 1399.03 31.4256 1399.03 M31.4256 1395.33 Q37.2358 1395.33 40.2913 1399.93 Q43.37 1404.52 43.37 1413.27 Q43.37 1421.99 40.2913 1426.6 Q37.2358 1431.18 31.4256 1431.18 Q25.6154 1431.18 22.5368 1426.6 Q19.4812 1421.99 19.4812 1413.27 Q19.4812 1404.52 22.5368 1399.93 Q25.6154 1395.33 31.4256 1395.33 Z" fill="#000000" fill-rule="evenodd" fill-opacity="1" /><path clip-path="url(#clip1400)" d="M 0 0 M48.4394 1424.63 L53.3236 1424.63 L53.3236 1430.51 L48.4394 1430.51 L48.4394 1424.63 Z" fill="#000000" fill-rule="evenodd" fill-opacity="1" /><path clip-path="url(#clip1400)" d="M 0 0 M62.4208 1426.58 L78.7402 1426.58 L78.7402 1430.51 L56.7958 1430.51 L56.7958 1426.58 Q59.4579 1423.82 64.0412 1419.19 Q68.6476 1414.54 69.8282 1413.2 Q72.0735 1410.67 72.9532 1408.94 Q73.8559 1407.18 73.8559 1405.49 Q73.8559 1402.74 71.9115 1401 Q69.9902 1399.26 66.8884 1399.26 Q64.6893 1399.26 62.2356 1400.03 Q59.8051 1400.79 57.0273 1402.34 L57.0273 1397.62 Q59.8514 1396.49 62.3051 1395.91 Q64.7588 1395.33 66.7958 1395.33 Q72.1661 1395.33 75.3606 1398.01 Q78.555 1400.7 78.555 1405.19 Q78.555 1407.32 77.7448 1409.24 Q76.9578 1411.14 74.8513 1413.73 Q74.2726 1414.4 71.1708 1417.62 Q68.0689 1420.81 62.4208 1426.58 Z" fill="#000000" fill-rule="evenodd" fill-opacity="1" /><path clip-path="url(#clip1400)" d="M 0 0 M29.3423 1042.31 Q25.7312 1042.31 23.9025 1045.88 Q22.0969 1049.42 22.0969 1056.55 Q22.0969 1063.65 23.9025 1067.22 Q25.7312 1070.76 29.3423 1070.76 Q32.9765 1070.76 34.7821 1067.22 Q36.6108 1063.65 36.6108 1056.55 Q36.6108 1049.42 34.7821 1045.88 Q32.9765 1042.31 29.3423 1042.31 M29.3423 1038.61 Q35.1524 1038.61 38.208 1043.21 Q41.2867 1047.8 41.2867 1056.55 Q41.2867 1065.27 38.208 1069.88 Q35.1524 1074.46 29.3423 1074.46 Q23.5321 1074.46 20.4534 1069.88 Q17.3979 1065.27 17.3979 1056.55 Q17.3979 1047.8 20.4534 1043.21 Q23.5321 1038.61 29.3423 1038.61 Z" fill="#000000" fill-rule="evenodd" fill-opacity="1" /><path clip-path="url(#clip1400)" d="M 0 0 M46.3561 1067.91 L51.2403 1067.91 L51.2403 1073.79 L46.3561 1073.79 L46.3561 1067.91 Z" fill="#000000" fill-rule="evenodd" fill-opacity="1" /><path clip-path="url(#clip1400)" d="M 0 0 M69.1569 1043.31 L57.3514 1061.76 L69.1569 1061.76 L69.1569 1043.31 M67.93 1039.23 L73.8096 1039.23 L73.8096 1061.76 L78.7402 1061.76 L78.7402 1065.64 L73.8096 1065.64 L73.8096 1073.79 L69.1569 1073.79 L69.1569 1065.64 L53.5551 1065.64 L53.5551 1061.13 L67.93 1039.23 Z" fill="#000000" fill-rule="evenodd" fill-opacity="1" /><path clip-path="url(#clip1400)" d="M 0 0 M29.6664 685.591 Q26.0553 685.591 24.2266 689.156 Q22.421 692.698 22.421 699.827 Q22.421 706.934 24.2266 710.499 Q26.0553 714.04 29.6664 714.04 Q33.3006 714.04 35.1061 710.499 Q36.9348 706.934 36.9348 699.827 Q36.9348 692.698 35.1061 689.156 Q33.3006 685.591 29.6664 685.591 M29.6664 681.888 Q35.4765 681.888 38.532 686.494 Q41.6107 691.077 41.6107 699.827 Q41.6107 708.554 38.532 713.161 Q35.4765 717.744 29.6664 717.744 Q23.8562 717.744 20.7775 713.161 Q17.722 708.554 17.722 699.827 Q17.722 691.077 20.7775 686.494 Q23.8562 681.888 29.6664 681.888 Z" fill="#000000" fill-rule="evenodd" fill-opacity="1" /><path clip-path="url(#clip1400)" d="M 0 0 M46.6802 711.193 L51.5644 711.193 L51.5644 717.073 L46.6802 717.073 L46.6802 711.193 Z" fill="#000000" fill-rule="evenodd" fill-opacity="1" /><path clip-path="url(#clip1400)" d="M 0 0 M67.2124 697.929 Q64.0643 697.929 62.2125 700.082 Q60.3838 702.235 60.3838 705.985 Q60.3838 709.712 62.2125 711.888 Q64.0643 714.04 67.2124 714.04 Q70.3606 714.04 72.1893 711.888 Q74.0411 709.712 74.0411 705.985 Q74.0411 702.235 72.1893 700.082 Q70.3606 697.929 67.2124 697.929 M76.4948 683.277 L76.4948 687.536 Q74.7356 686.703 72.93 686.263 Q71.1476 685.823 69.3884 685.823 Q64.7588 685.823 62.3051 688.948 Q59.8745 692.073 59.5273 698.392 Q60.893 696.378 62.9532 695.314 Q65.0134 694.226 67.4902 694.226 Q72.6985 694.226 75.7078 697.397 Q78.7402 700.545 78.7402 705.985 Q78.7402 711.309 75.592 714.526 Q72.4439 717.744 67.2124 717.744 Q61.2171 717.744 58.0458 713.161 Q54.8746 708.554 54.8746 699.827 Q54.8746 691.633 58.7634 686.772 Q62.6523 681.888 69.2032 681.888 Q70.9624 681.888 72.7448 682.235 Q74.5504 682.582 76.4948 683.277 Z" fill="#000000" fill-rule="evenodd" fill-opacity="1" /><path clip-path="url(#clip1400)" d="M 0 0 M29.921 328.871 Q26.3099 328.871 24.4812 332.436 Q22.6756 335.978 22.6756 343.107 Q22.6756 350.214 24.4812 353.779 Q26.3099 357.32 29.921 357.32 Q33.5552 357.32 35.3608 353.779 Q37.1895 350.214 37.1895 343.107 Q37.1895 335.978 35.3608 332.436 Q33.5552 328.871 29.921 328.871 M29.921 325.168 Q35.7311 325.168 38.7867 329.774 Q41.8654 334.357 41.8654 343.107 Q41.8654 351.834 38.7867 356.441 Q35.7311 361.024 29.921 361.024 Q24.1108 361.024 21.0321 356.441 Q17.9766 351.834 17.9766 343.107 Q17.9766 334.357 21.0321 329.774 Q24.1108 325.168 29.921 325.168 Z" fill="#000000" fill-rule="evenodd" fill-opacity="1" /><path clip-path="url(#clip1400)" d="M 0 0 M46.9348 354.473 L51.819 354.473 L51.819 360.353 L46.9348 360.353 L46.9348 354.473 Z" fill="#000000" fill-rule="evenodd" fill-opacity="1" /><path clip-path="url(#clip1400)" d="M 0 0 M66.8884 343.941 Q63.5551 343.941 61.6338 345.723 Q59.7356 347.506 59.7356 350.631 Q59.7356 353.756 61.6338 355.538 Q63.5551 357.32 66.8884 357.32 Q70.2217 357.32 72.143 355.538 Q74.0643 353.732 74.0643 350.631 Q74.0643 347.506 72.143 345.723 Q70.2448 343.941 66.8884 343.941 M62.2125 341.95 Q59.2032 341.209 57.5134 339.149 Q55.8468 337.089 55.8468 334.126 Q55.8468 329.982 58.7866 327.575 Q61.7495 325.168 66.8884 325.168 Q72.0504 325.168 74.9902 327.575 Q77.93 329.982 77.93 334.126 Q77.93 337.089 76.2402 339.149 Q74.5735 341.209 71.5874 341.95 Q74.967 342.737 76.842 345.029 Q78.7402 347.32 78.7402 350.631 Q78.7402 355.654 75.6615 358.339 Q72.6059 361.024 66.8884 361.024 Q61.1708 361.024 58.0921 358.339 Q55.0366 355.654 55.0366 350.631 Q55.0366 347.32 56.9347 345.029 Q58.8329 342.737 62.2125 341.95 M60.4995 334.566 Q60.4995 337.251 62.1662 338.756 Q63.856 340.26 66.8884 340.26 Q69.8976 340.26 71.5874 338.756 Q73.3004 337.251 73.3004 334.566 Q73.3004 331.881 71.5874 330.376 Q69.8976 328.871 66.8884 328.871 Q63.856 328.871 62.1662 330.376 Q60.4995 331.881 60.4995 334.566 Z" fill="#000000" fill-rule="evenodd" fill-opacity="1" /><path clip-path="url(#clip1400)" d="M 0 0 M1241.91 1585.57 Q1241.91 1587.37 1240.78 1588.4 Q1239.65 1589.4 1238.37 1589.4 Q1237.14 1589.4 1236.5 1588.69 Q1235.85 1587.98 1235.85 1587.08 Q1235.85 1585.86 1236.76 1584.79 Q1237.66 1583.73 1239.01 1583.51 Q1237.69 1582.67 1235.72 1582.67 Q1234.44 1582.67 1233.31 1583.34 Q1232.21 1584.02 1231.54 1584.89 Q1230.89 1585.76 1230.31 1587.02 Q1229.77 1588.24 1229.54 1588.98 Q1229.35 1589.69 1229.19 1590.46 L1226.93 1599.48 Q1225.84 1603.76 1225.84 1605.28 Q1225.84 1607.14 1226.74 1608.4 Q1227.64 1609.62 1229.44 1609.62 Q1230.15 1609.62 1230.96 1609.43 Q1231.76 1609.21 1232.79 1608.63 Q1233.86 1608.01 1234.79 1607.11 Q1235.76 1606.18 1236.69 1604.6 Q1237.62 1603.02 1238.24 1600.99 Q1238.43 1600.29 1239.07 1600.29 Q1239.88 1600.29 1239.88 1600.93 Q1239.88 1601.48 1239.43 1602.64 Q1239.01 1603.76 1238.08 1605.24 Q1237.17 1606.69 1235.98 1608.01 Q1234.79 1609.3 1233.02 1610.2 Q1231.25 1611.11 1229.32 1611.11 Q1226.55 1611.11 1224.71 1609.62 Q1222.87 1608.14 1222.2 1606.08 Q1222.04 1606.37 1221.81 1606.76 Q1221.59 1607.14 1220.91 1608.01 Q1220.27 1608.85 1219.52 1609.5 Q1218.78 1610.11 1217.62 1610.59 Q1216.5 1611.11 1215.27 1611.11 Q1213.73 1611.11 1212.34 1610.66 Q1210.99 1610.2 1210.02 1609.17 Q1209.06 1608.14 1209.06 1606.73 Q1209.06 1605.15 1210.12 1604.05 Q1211.22 1602.93 1212.7 1602.93 Q1213.63 1602.93 1214.37 1603.47 Q1215.14 1604.02 1215.14 1605.21 Q1215.14 1606.53 1214.24 1607.53 Q1213.34 1608.53 1212.05 1608.79 Q1213.37 1609.62 1215.34 1609.62 Q1217.46 1609.62 1219.14 1607.76 Q1220.81 1605.89 1221.62 1602.76 Q1223.62 1595.26 1224.39 1591.91 Q1225.16 1588.53 1225.16 1587.08 Q1225.16 1585.73 1224.81 1584.79 Q1224.45 1583.86 1223.84 1583.44 Q1223.26 1582.99 1222.71 1582.83 Q1222.2 1582.67 1221.62 1582.67 Q1220.65 1582.67 1219.56 1583.05 Q1218.49 1583.44 1217.21 1584.34 Q1215.95 1585.21 1214.76 1587.02 Q1213.57 1588.82 1212.76 1591.3 Q1212.6 1592.04 1211.89 1592.04 Q1211.12 1592.01 1211.12 1591.36 Q1211.12 1590.82 1211.54 1589.69 Q1211.99 1588.53 1212.89 1587.08 Q1213.82 1585.63 1215.02 1584.34 Q1216.24 1583.02 1218.01 1582.12 Q1219.81 1581.22 1221.75 1581.22 Q1222.62 1581.22 1223.45 1581.41 Q1224.32 1581.57 1225.35 1582.06 Q1226.42 1582.54 1227.35 1583.6 Q1228.28 1584.67 1228.86 1586.21 Q1229.25 1585.47 1229.77 1584.76 Q1230.31 1584.05 1231.15 1583.18 Q1232.02 1582.28 1233.21 1581.77 Q1234.44 1581.22 1235.79 1581.22 Q1237.11 1581.22 1238.4 1581.57 Q1239.69 1581.9 1240.78 1582.96 Q1241.91 1583.99 1241.91 1585.57 Z" fill="#000000" fill-rule="evenodd" fill-opacity="1" /><path clip-path="url(#clip1400)" d="M 0 0 M-47.5176 761.826 Q-47.0667 761.826 -46.0039 762.116 L-20.8189 768.428 Q-15.2151 769.813 -11.286 774.322 Q-7.35689 778.798 -7.35689 783.887 Q-7.35689 786.947 -8.99939 788.911 Q-10.6097 790.876 -13.0895 790.876 Q-15.2795 790.876 -16.3423 789.716 Q-17.3729 788.557 -17.3729 787.172 Q-17.3729 786.721 -17.2441 786.238 Q-17.1153 785.755 -16.5678 785.24 Q-16.0203 784.724 -15.0863 784.724 Q-13.5726 784.724 -12.381 786.045 Q-11.8335 786.689 -11.7047 787.301 Q-11.5759 787.881 -11.5759 788.879 Q-10.6741 788.492 -10.0622 787.784 Q-9.45027 787.075 -9.22483 786.27 Q-8.96718 785.465 -8.90277 784.95 Q-8.80615 784.402 -8.80615 783.887 Q-8.80615 779.765 -12.9607 776.608 Q-14.2167 775.675 -15.4728 774.998 Q-16.6966 774.29 -18.2103 773.774 Q-19.6917 773.259 -20.4969 773.034 Q-21.302 772.776 -23.1378 772.325 Q-20.1426 775.32 -20.1426 778.992 Q-20.1426 780.538 -20.5613 781.922 Q-20.98 783.275 -21.8495 784.467 Q-22.7513 785.658 -24.3294 786.367 Q-25.9075 787.043 -28.0008 787.043 Q-30.223 787.043 -33.2504 786.174 Q-36.2778 785.304 -41.8494 783.211 Q-44.9733 782.083 -46.487 782.083 Q-47.2277 782.083 -47.6786 782.245 Q-48.1617 782.406 -48.3227 782.728 Q-48.516 783.05 -48.5482 783.243 Q-48.5804 783.404 -48.5804 783.726 Q-48.5804 785.626 -46.648 787.397 Q-44.7157 789.169 -40.4001 790.393 Q-39.595 790.65 -39.4017 790.811 Q-39.2085 790.972 -39.2085 791.455 Q-39.2407 792.261 -39.8848 792.261 Q-40.1425 792.261 -41.1408 791.971 Q-42.1714 791.681 -43.6851 791.005 Q-45.231 790.296 -46.6158 789.33 Q-48.0329 788.364 -49.0313 786.85 Q-50.0297 785.304 -50.0297 783.533 Q-50.0297 781.117 -48.4516 779.636 Q-46.9057 778.122 -44.6191 778.122 Q-43.6851 778.122 -42.8477 778.38 Q-42.0426 778.605 -39.8848 779.443 Q-31.1892 782.824 -26.9381 782.824 Q-25.9075 782.824 -25.0379 782.663 Q-24.2006 782.47 -23.3632 782.051 Q-22.5581 781.633 -22.075 780.795 Q-21.6241 779.926 -21.6241 778.734 Q-21.6241 777.22 -22.3326 775.803 Q-23.0733 774.354 -24.0717 773.452 Q-25.0701 772.518 -25.9075 771.971 Q-26.777 771.391 -27.2279 771.262 L-39.0797 768.299 L-44.3614 766.979 Q-47.2277 766.367 -47.9363 766.077 Q-48.6126 765.691 -48.9669 765.014 Q-49.3211 764.338 -49.3211 763.758 Q-49.3211 762.953 -48.838 762.406 Q-48.3549 761.826 -47.5176 761.826 Z" fill="#000000" fill-rule="evenodd" fill-opacity="1" /><polyline clip-path="url(#clip1402)" style="stroke:#009af9; stroke-width:4; stroke-opacity:1; fill:none" points="
  166.42,1281.25 402.271,755.766 638.121,1464 873.972,565.074 1109.82,88.5087 1345.67,256.677 1581.52,879.911 1817.37,1263.97 2053.23,664.622 2289.08,807.147 
  
  "/>
<path clip-path="url(#clip1400)" d="
M1989.74 251.724 L2280.76 251.724 L2280.76 130.764 L1989.74 130.764  Z
  " fill="#ffffff" fill-rule="evenodd" fill-opacity="1"/>
<polyline clip-path="url(#clip1400)" style="stroke:#000000; stroke-width:4; stroke-opacity:1; fill:none" points="
  1989.74,251.724 2280.76,251.724 2280.76,130.764 1989.74,130.764 1989.74,251.724 
  "/>
<polyline clip-path="url(#clip1400)" style="stroke:#009af9; stroke-width:4; stroke-opacity:1; fill:none" points="
  2013.74,191.244 2157.74,191.244 
  "/>
<path clip-path="url(#clip1400)" d="M 0 0 M2195.58 210.931 Q2193.77 215.561 2192.06 216.973 Q2190.35 218.385 2187.48 218.385 L2184.08 218.385 L2184.08 214.82 L2186.58 214.82 Q2188.33 214.82 2189.31 213.987 Q2190.28 213.154 2191.46 210.052 L2192.22 208.107 L2181.74 182.598 L2186.25 182.598 L2194.35 202.876 L2202.46 182.598 L2206.97 182.598 L2195.58 210.931 Z" fill="#000000" fill-rule="evenodd" fill-opacity="1" /><path clip-path="url(#clip1400)" d="M 0 0 M2212.85 204.589 L2220.49 204.589 L2220.49 178.223 L2212.18 179.89 L2212.18 175.631 L2220.44 173.964 L2225.12 173.964 L2225.12 204.589 L2232.76 204.589 L2232.76 208.524 L2212.85 208.524 L2212.85 204.589 Z" fill="#000000" fill-rule="evenodd" fill-opacity="1" /></svg>
