<?xml version="1.0" encoding="utf-8"?>
<svg xmlns="http://www.w3.org/2000/svg" xmlns:xlink="http://www.w3.org/1999/xlink" width="600" height="400" viewBox="0 0 2400 1600">
<defs>
  <clipPath id="clip230">
    <rect x="0" y="0" width="2400" height="1600"/>
  </clipPath>
</defs>
<path clip-path="url(#clip230)" d="
M0 1600 L2400 1600 L2400 0 L0 0  Z
  " fill="#ffffff" fill-rule="evenodd" fill-opacity="1"/>
<defs>
  <clipPath id="clip231">
    <rect x="480" y="0" width="1681" height="1600"/>
  </clipPath>
</defs>
<path clip-path="url(#clip230)" d="
M164.082 1470.7 L2352.76 1470.7 L2352.76 47.2441 L164.082 47.2441  Z
  " fill="#ffffff" fill-rule="evenodd" fill-opacity="1"/>
<defs>
  <clipPath id="clip232">
    <rect x="164" y="47" width="2190" height="1424"/>
  </clipPath>
</defs>
<polyline clip-path="url(#clip232)" style="stroke:#000000; stroke-width:2; stroke-opacity:0.1; fill:none" points="
  455.447,1470.7 455.447,47.2441 
  "/>
<polyline clip-path="url(#clip232)" style="stroke:#000000; stroke-width:2; stroke-opacity:0.1; fill:none" points="
  914.288,1470.7 914.288,47.2441 
  "/>
<polyline clip-path="url(#clip232)" style="stroke:#000000; stroke-width:2; stroke-opacity:0.1; fill:none" points="
  1373.13,1470.7 1373.13,47.2441 
  "/>
<polyline clip-path="url(#clip232)" style="stroke:#000000; stroke-width:2; stroke-opacity:0.1; fill:none" points="
  1831.97,1470.7 1831.97,47.2441 
  "/>
<polyline clip-path="url(#clip232)" style="stroke:#000000; stroke-width:2; stroke-opacity:0.1; fill:none" points="
  2290.81,1470.7 2290.81,47.2441 
  "/>
<polyline clip-path="url(#clip232)" style="stroke:#000000; stroke-width:2; stroke-opacity:0.1; fill:none" points="
  164.082,1331.88 2352.76,1331.88 
  "/>
<polyline clip-path="url(#clip232)" style="stroke:#000000; stroke-width:2; stroke-opacity:0.1; fill:none" points="
  164.082,1129.67 2352.76,1129.67 
  "/>
<polyline clip-path="url(#clip232)" style="stroke:#000000; stroke-width:2; stroke-opacity:0.1; fill:none" points="
  164.082,927.465 2352.76,927.465 
  "/>
<polyline clip-path="url(#clip232)" style="stroke:#000000; stroke-width:2; stroke-opacity:0.1; fill:none" points="
  164.082,725.258 2352.76,725.258 
  "/>
<polyline clip-path="url(#clip232)" style="stroke:#000000; stroke-width:2; stroke-opacity:0.1; fill:none" points="
  164.082,523.051 2352.76,523.051 
  "/>
<polyline clip-path="url(#clip232)" style="stroke:#000000; stroke-width:2; stroke-opacity:0.1; fill:none" points="
  164.082,320.844 2352.76,320.844 
  "/>
<polyline clip-path="url(#clip232)" style="stroke:#000000; stroke-width:2; stroke-opacity:0.1; fill:none" points="
  164.082,118.637 2352.76,118.637 
  "/>
<polyline clip-path="url(#clip230)" style="stroke:#000000; stroke-width:4; stroke-opacity:1; fill:none" points="
  164.082,1470.7 2352.76,1470.7 
  "/>
<polyline clip-path="url(#clip230)" style="stroke:#000000; stroke-width:4; stroke-opacity:1; fill:none" points="
  164.082,1470.7 164.082,47.2441 
  "/>
<polyline clip-path="url(#clip230)" style="stroke:#000000; stroke-width:4; stroke-opacity:1; fill:none" points="
  455.447,1470.7 455.447,1453.62 
  "/>
<polyline clip-path="url(#clip230)" style="stroke:#000000; stroke-width:4; stroke-opacity:1; fill:none" points="
  914.288,1470.7 914.288,1453.62 
  "/>
<polyline clip-path="url(#clip230)" style="stroke:#000000; stroke-width:4; stroke-opacity:1; fill:none" points="
  1373.13,1470.7 1373.13,1453.62 
  "/>
<polyline clip-path="url(#clip230)" style="stroke:#000000; stroke-width:4; stroke-opacity:1; fill:none" points="
  1831.97,1470.7 1831.97,1453.62 
  "/>
<polyline clip-path="url(#clip230)" style="stroke:#000000; stroke-width:4; stroke-opacity:1; fill:none" points="
  2290.81,1470.7 2290.81,1453.62 
  "/>
<polyline clip-path="url(#clip230)" style="stroke:#000000; stroke-width:4; stroke-opacity:1; fill:none" points="
  164.082,1331.88 190.347,1331.88 
  "/>
<polyline clip-path="url(#clip230)" style="stroke:#000000; stroke-width:4; stroke-opacity:1; fill:none" points="
  164.082,1129.67 190.347,1129.67 
  "/>
<polyline clip-path="url(#clip230)" style="stroke:#000000; stroke-width:4; stroke-opacity:1; fill:none" points="
  164.082,927.465 190.347,927.465 
  "/>
<polyline clip-path="url(#clip230)" style="stroke:#000000; stroke-width:4; stroke-opacity:1; fill:none" points="
  164.082,725.258 190.347,725.258 
  "/>
<polyline clip-path="url(#clip230)" style="stroke:#000000; stroke-width:4; stroke-opacity:1; fill:none" points="
  164.082,523.051 190.347,523.051 
  "/>
<polyline clip-path="url(#clip230)" style="stroke:#000000; stroke-width:4; stroke-opacity:1; fill:none" points="
  164.082,320.844 190.347,320.844 
  "/>
<polyline clip-path="url(#clip230)" style="stroke:#000000; stroke-width:4; stroke-opacity:1; fill:none" points="
  164.082,118.637 190.347,118.637 
  "/>
<path clip-path="url(#clip230)" d="M 0 0 M450.1 1520.24 L466.419 1520.24 L466.419 1524.17 L444.475 1524.17 L444.475 1520.24 Q447.137 1517.48 451.72 1512.85 Q456.326 1508.2 457.507 1506.86 Q459.752 1504.33 460.632 1502.6 Q461.535 1500.84 461.535 1499.15 Q461.535 1496.39 459.59 1494.66 Q457.669 1492.92 454.567 1492.92 Q452.368 1492.92 449.914 1493.69 Q447.484 1494.45 444.706 1496 L444.706 1491.28 Q447.53 1490.14 449.984 1489.57 Q452.437 1488.99 454.474 1488.99 Q459.845 1488.99 463.039 1491.67 Q466.234 1494.36 466.234 1498.85 Q466.234 1500.98 465.424 1502.9 Q464.636 1504.8 462.53 1507.39 Q461.951 1508.06 458.849 1511.28 Q455.748 1514.47 450.1 1520.24 Z" fill="#000000" fill-rule="evenodd" fill-opacity="1" /><path clip-path="url(#clip230)" d="M 0 0 M917.297 1493.69 L905.492 1512.13 L917.297 1512.13 L917.297 1493.69 M916.071 1489.61 L921.95 1489.61 L921.95 1512.13 L926.881 1512.13 L926.881 1516.02 L921.95 1516.02 L921.95 1524.17 L917.297 1524.17 L917.297 1516.02 L901.696 1516.02 L901.696 1511.51 L916.071 1489.61 Z" fill="#000000" fill-rule="evenodd" fill-opacity="1" /><path clip-path="url(#clip230)" d="M 0 0 M1373.53 1505.03 Q1370.39 1505.03 1368.53 1507.18 Q1366.71 1509.33 1366.71 1513.08 Q1366.71 1516.81 1368.53 1518.99 Q1370.39 1521.14 1373.53 1521.14 Q1376.68 1521.14 1378.51 1518.99 Q1380.36 1516.81 1380.36 1513.08 Q1380.36 1509.33 1378.51 1507.18 Q1376.68 1505.03 1373.53 1505.03 M1382.82 1490.38 L1382.82 1494.63 Q1381.06 1493.8 1379.25 1493.36 Q1377.47 1492.92 1375.71 1492.92 Q1371.08 1492.92 1368.63 1496.05 Q1366.2 1499.17 1365.85 1505.49 Q1367.22 1503.48 1369.28 1502.41 Q1371.34 1501.32 1373.81 1501.32 Q1379.02 1501.32 1382.03 1504.5 Q1385.06 1507.64 1385.06 1513.08 Q1385.06 1518.41 1381.91 1521.63 Q1378.77 1524.84 1373.53 1524.84 Q1367.54 1524.84 1364.37 1520.26 Q1361.2 1515.65 1361.2 1506.93 Q1361.2 1498.73 1365.09 1493.87 Q1368.97 1488.99 1375.53 1488.99 Q1377.28 1488.99 1379.07 1489.33 Q1380.87 1489.68 1382.82 1490.38 Z" fill="#000000" fill-rule="evenodd" fill-opacity="1" /><path clip-path="url(#clip230)" d="M 0 0 M1831.97 1507.76 Q1828.64 1507.76 1826.72 1509.54 Q1824.82 1511.32 1824.82 1514.45 Q1824.82 1517.57 1826.72 1519.36 Q1828.64 1521.14 1831.97 1521.14 Q1835.3 1521.14 1837.23 1519.36 Q1839.15 1517.55 1839.15 1514.45 Q1839.15 1511.32 1837.23 1509.54 Q1835.33 1507.76 1831.97 1507.76 M1827.3 1505.77 Q1824.29 1505.03 1822.6 1502.97 Q1820.93 1500.91 1820.93 1497.95 Q1820.93 1493.8 1823.87 1491.39 Q1826.83 1488.99 1831.97 1488.99 Q1837.13 1488.99 1840.07 1491.39 Q1843.01 1493.8 1843.01 1497.95 Q1843.01 1500.91 1841.32 1502.97 Q1839.66 1505.03 1836.67 1505.77 Q1840.05 1506.56 1841.92 1508.85 Q1843.82 1511.14 1843.82 1514.45 Q1843.82 1519.47 1840.74 1522.16 Q1837.69 1524.84 1831.97 1524.84 Q1826.25 1524.84 1823.17 1522.16 Q1820.12 1519.47 1820.12 1514.45 Q1820.12 1511.14 1822.02 1508.85 Q1823.92 1506.56 1827.3 1505.77 M1825.58 1498.38 Q1825.58 1501.07 1827.25 1502.57 Q1828.94 1504.08 1831.97 1504.08 Q1834.98 1504.08 1836.67 1502.57 Q1838.38 1501.07 1838.38 1498.38 Q1838.38 1495.7 1836.67 1494.2 Q1834.98 1492.69 1831.97 1492.69 Q1828.94 1492.69 1827.25 1494.2 Q1825.58 1495.7 1825.58 1498.38 Z" fill="#000000" fill-rule="evenodd" fill-opacity="1" /><path clip-path="url(#clip230)" d="M 0 0 M2267.69 1520.24 L2275.33 1520.24 L2275.33 1493.87 L2267.02 1495.54 L2267.02 1491.28 L2275.28 1489.61 L2279.96 1489.61 L2279.96 1520.24 L2287.59 1520.24 L2287.59 1524.17 L2267.69 1524.17 L2267.69 1520.24 Z" fill="#000000" fill-rule="evenodd" fill-opacity="1" /><path clip-path="url(#clip230)" d="M 0 0 M2302.66 1492.69 Q2299.05 1492.69 2297.22 1496.26 Q2295.42 1499.8 2295.42 1506.93 Q2295.42 1514.03 2297.22 1517.6 Q2299.05 1521.14 2302.66 1521.14 Q2306.3 1521.14 2308.1 1517.6 Q2309.93 1514.03 2309.93 1506.93 Q2309.93 1499.8 2308.1 1496.26 Q2306.3 1492.69 2302.66 1492.69 M2302.66 1488.99 Q2308.47 1488.99 2311.53 1493.59 Q2314.61 1498.18 2314.61 1506.93 Q2314.61 1515.65 2311.53 1520.26 Q2308.47 1524.84 2302.66 1524.84 Q2296.85 1524.84 2293.78 1520.26 Q2290.72 1515.65 2290.72 1506.93 Q2290.72 1498.18 2293.78 1493.59 Q2296.85 1488.99 2302.66 1488.99 Z" fill="#000000" fill-rule="evenodd" fill-opacity="1" /><path clip-path="url(#clip230)" d="M 0 0 M92.7679 1317.68 Q89.1568 1317.68 87.3281 1321.24 Q85.5225 1324.78 85.5225 1331.91 Q85.5225 1339.02 87.3281 1342.59 Q89.1568 1346.13 92.7679 1346.13 Q96.4021 1346.13 98.2076 1342.59 Q100.036 1339.02 100.036 1331.91 Q100.036 1324.78 98.2076 1321.24 Q96.4021 1317.68 92.7679 1317.68 M92.7679 1313.97 Q98.578 1313.97 101.634 1318.58 Q104.712 1323.16 104.712 1331.91 Q104.712 1340.64 101.634 1345.25 Q98.578 1349.83 92.7679 1349.83 Q86.9577 1349.83 83.879 1345.25 Q80.8235 1340.64 80.8235 1331.91 Q80.8235 1323.16 83.879 1318.58 Q86.9577 1313.97 92.7679 1313.97 Z" fill="#000000" fill-rule="evenodd" fill-opacity="1" /><path clip-path="url(#clip230)" d="M 0 0 M109.782 1343.28 L114.666 1343.28 L114.666 1349.16 L109.782 1349.16 L109.782 1343.28 Z" fill="#000000" fill-rule="evenodd" fill-opacity="1" /><path clip-path="url(#clip230)" d="M 0 0 M123.763 1345.22 L140.082 1345.22 L140.082 1349.16 L118.138 1349.16 L118.138 1345.22 Q120.8 1342.47 125.383 1337.84 Q129.99 1333.19 131.17 1331.84 Q133.416 1329.32 134.295 1327.59 Q135.198 1325.83 135.198 1324.14 Q135.198 1321.38 133.254 1319.65 Q131.332 1317.91 128.231 1317.91 Q126.032 1317.91 123.578 1318.67 Q121.147 1319.44 118.37 1320.99 L118.37 1316.27 Q121.194 1315.13 123.647 1314.55 Q126.101 1313.97 128.138 1313.97 Q133.508 1313.97 136.703 1316.66 Q139.897 1319.34 139.897 1323.84 Q139.897 1325.97 139.087 1327.89 Q138.3 1329.78 136.194 1332.38 Q135.615 1333.05 132.513 1336.27 Q129.411 1339.46 123.763 1345.22 Z" fill="#000000" fill-rule="evenodd" fill-opacity="1" /><path clip-path="url(#clip230)" d="M 0 0 M91.8188 1115.47 Q88.2077 1115.47 86.379 1119.04 Q84.5735 1122.58 84.5735 1129.71 Q84.5735 1136.81 86.379 1140.38 Q88.2077 1143.92 91.8188 1143.92 Q95.453 1143.92 97.2586 1140.38 Q99.0873 1136.81 99.0873 1129.71 Q99.0873 1122.58 97.2586 1119.04 Q95.453 1115.47 91.8188 1115.47 M91.8188 1111.77 Q97.6289 1111.77 100.684 1116.37 Q103.763 1120.96 103.763 1129.71 Q103.763 1138.43 100.684 1143.04 Q97.6289 1147.62 91.8188 1147.62 Q86.0086 1147.62 82.9299 1143.04 Q79.8744 1138.43 79.8744 1129.71 Q79.8744 1120.96 82.9299 1116.37 Q86.0086 1111.77 91.8188 1111.77 Z" fill="#000000" fill-rule="evenodd" fill-opacity="1" /><path clip-path="url(#clip230)" d="M 0 0 M108.833 1141.07 L113.717 1141.07 L113.717 1146.95 L108.833 1146.95 L108.833 1141.07 Z" fill="#000000" fill-rule="evenodd" fill-opacity="1" /><path clip-path="url(#clip230)" d="M 0 0 M132.953 1128.32 Q136.309 1129.04 138.184 1131.3 Q140.082 1133.57 140.082 1136.91 Q140.082 1142.02 136.564 1144.82 Q133.045 1147.62 126.564 1147.62 Q124.388 1147.62 122.073 1147.18 Q119.782 1146.77 117.328 1145.91 L117.328 1141.4 Q119.272 1142.53 121.587 1143.11 Q123.902 1143.69 126.425 1143.69 Q130.823 1143.69 133.115 1141.95 Q135.43 1140.22 135.43 1136.91 Q135.43 1133.85 133.277 1132.14 Q131.147 1130.4 127.328 1130.4 L123.3 1130.4 L123.3 1126.56 L127.513 1126.56 Q130.962 1126.56 132.791 1125.19 Q134.619 1123.8 134.619 1121.21 Q134.619 1118.55 132.721 1117.14 Q130.846 1115.7 127.328 1115.7 Q125.407 1115.7 123.208 1116.12 Q121.008 1116.54 118.37 1117.42 L118.37 1113.25 Q121.032 1112.51 123.346 1112.14 Q125.684 1111.77 127.745 1111.77 Q133.069 1111.77 136.17 1114.2 Q139.272 1116.61 139.272 1120.73 Q139.272 1123.6 137.629 1125.59 Q135.985 1127.55 132.953 1128.32 Z" fill="#000000" fill-rule="evenodd" fill-opacity="1" /><path clip-path="url(#clip230)" d="M 0 0 M90.6845 913.264 Q87.0734 913.264 85.2448 916.829 Q83.4392 920.37 83.4392 927.5 Q83.4392 934.606 85.2448 938.171 Q87.0734 941.713 90.6845 941.713 Q94.3188 941.713 96.1243 938.171 Q97.953 934.606 97.953 927.5 Q97.953 920.37 96.1243 916.829 Q94.3188 913.264 90.6845 913.264 M90.6845 909.56 Q96.4947 909.56 99.5502 914.167 Q102.629 918.75 102.629 927.5 Q102.629 936.227 99.5502 940.833 Q96.4947 945.417 90.6845 945.417 Q84.8744 945.417 81.7957 940.833 Q78.7402 936.227 78.7402 927.5 Q78.7402 918.75 81.7957 914.167 Q84.8744 909.56 90.6845 909.56 Z" fill="#000000" fill-rule="evenodd" fill-opacity="1" /><path clip-path="url(#clip230)" d="M 0 0 M107.698 938.866 L112.583 938.866 L112.583 944.745 L107.698 944.745 L107.698 938.866 Z" fill="#000000" fill-rule="evenodd" fill-opacity="1" /><path clip-path="url(#clip230)" d="M 0 0 M130.499 914.259 L118.694 932.708 L130.499 932.708 L130.499 914.259 M129.272 910.185 L135.152 910.185 L135.152 932.708 L140.082 932.708 L140.082 936.597 L135.152 936.597 L135.152 944.745 L130.499 944.745 L130.499 936.597 L114.897 936.597 L114.897 932.083 L129.272 910.185 Z" fill="#000000" fill-rule="evenodd" fill-opacity="1" /><path clip-path="url(#clip230)" d="M 0 0 M92.166 711.057 Q88.5549 711.057 86.7262 714.622 Q84.9207 718.163 84.9207 725.293 Q84.9207 732.399 86.7262 735.964 Q88.5549 739.506 92.166 739.506 Q95.8003 739.506 97.6058 735.964 Q99.4345 732.399 99.4345 725.293 Q99.4345 718.163 97.6058 714.622 Q95.8003 711.057 92.166 711.057 M92.166 707.353 Q97.9762 707.353 101.032 711.96 Q104.11 716.543 104.11 725.293 Q104.11 734.02 101.032 738.626 Q97.9762 743.209 92.166 743.209 Q86.3559 743.209 83.2772 738.626 Q80.2216 734.02 80.2216 725.293 Q80.2216 716.543 83.2772 711.96 Q86.3559 707.353 92.166 707.353 Z" fill="#000000" fill-rule="evenodd" fill-opacity="1" /><path clip-path="url(#clip230)" d="M 0 0 M109.18 736.659 L114.064 736.659 L114.064 742.538 L109.18 742.538 L109.18 736.659 Z" fill="#000000" fill-rule="evenodd" fill-opacity="1" /><path clip-path="url(#clip230)" d="M 0 0 M119.18 707.978 L137.536 707.978 L137.536 711.913 L123.462 711.913 L123.462 720.386 Q124.481 720.038 125.499 719.876 Q126.518 719.691 127.536 719.691 Q133.323 719.691 136.703 722.862 Q140.082 726.034 140.082 731.45 Q140.082 737.029 136.61 740.131 Q133.138 743.209 126.819 743.209 Q124.643 743.209 122.374 742.839 Q120.129 742.469 117.721 741.728 L117.721 737.029 Q119.805 738.163 122.027 738.719 Q124.249 739.274 126.726 739.274 Q130.731 739.274 133.069 737.168 Q135.407 735.061 135.407 731.45 Q135.407 727.839 133.069 725.733 Q130.731 723.626 126.726 723.626 Q124.851 723.626 122.976 724.043 Q121.124 724.46 119.18 725.339 L119.18 707.978 Z" fill="#000000" fill-rule="evenodd" fill-opacity="1" /><path clip-path="url(#clip230)" d="M 0 0 M91.0086 508.85 Q87.3975 508.85 85.5688 512.415 Q83.7633 515.956 83.7633 523.086 Q83.7633 530.192 85.5688 533.757 Q87.3975 537.299 91.0086 537.299 Q94.6429 537.299 96.4484 533.757 Q98.2771 530.192 98.2771 523.086 Q98.2771 515.956 96.4484 512.415 Q94.6429 508.85 91.0086 508.85 M91.0086 505.146 Q96.8188 505.146 99.8743 509.753 Q102.953 514.336 102.953 523.086 Q102.953 531.813 99.8743 536.419 Q96.8188 541.002 91.0086 541.002 Q85.1985 541.002 82.1198 536.419 Q79.0642 531.813 79.0642 523.086 Q79.0642 514.336 82.1198 509.753 Q85.1985 505.146 91.0086 505.146 Z" fill="#000000" fill-rule="evenodd" fill-opacity="1" /><path clip-path="url(#clip230)" d="M 0 0 M108.022 534.452 L112.907 534.452 L112.907 540.331 L108.022 540.331 L108.022 534.452 Z" fill="#000000" fill-rule="evenodd" fill-opacity="1" /><path clip-path="url(#clip230)" d="M 0 0 M128.555 521.188 Q125.407 521.188 123.555 523.34 Q121.726 525.493 121.726 529.243 Q121.726 532.97 123.555 535.146 Q125.407 537.299 128.555 537.299 Q131.703 537.299 133.532 535.146 Q135.383 532.97 135.383 529.243 Q135.383 525.493 133.532 523.34 Q131.703 521.188 128.555 521.188 M137.837 506.535 L137.837 510.794 Q136.078 509.961 134.272 509.521 Q132.49 509.081 130.731 509.081 Q126.101 509.081 123.647 512.206 Q121.217 515.331 120.87 521.651 Q122.235 519.637 124.295 518.572 Q126.356 517.484 128.832 517.484 Q134.041 517.484 137.05 520.655 Q140.082 523.803 140.082 529.243 Q140.082 534.567 136.934 537.785 Q133.786 541.002 128.555 541.002 Q122.559 541.002 119.388 536.419 Q116.217 531.813 116.217 523.086 Q116.217 514.891 120.106 510.03 Q123.995 505.146 130.545 505.146 Q132.305 505.146 134.087 505.493 Q135.893 505.841 137.837 506.535 Z" fill="#000000" fill-rule="evenodd" fill-opacity="1" /><path clip-path="url(#clip230)" d="M 0 0 M92.0734 306.643 Q88.4623 306.643 86.6336 310.208 Q84.8281 313.749 84.8281 320.879 Q84.8281 327.985 86.6336 331.55 Q88.4623 335.092 92.0734 335.092 Q95.7077 335.092 97.5132 331.55 Q99.3419 327.985 99.3419 320.879 Q99.3419 313.749 97.5132 310.208 Q95.7077 306.643 92.0734 306.643 M92.0734 302.939 Q97.8836 302.939 100.939 307.546 Q104.018 312.129 104.018 320.879 Q104.018 329.606 100.939 334.212 Q97.8836 338.795 92.0734 338.795 Q86.2633 338.795 83.1846 334.212 Q80.129 329.606 80.129 320.879 Q80.129 312.129 83.1846 307.546 Q86.2633 302.939 92.0734 302.939 Z" fill="#000000" fill-rule="evenodd" fill-opacity="1" /><path clip-path="url(#clip230)" d="M 0 0 M109.087 332.244 L113.971 332.244 L113.971 338.124 L109.087 338.124 L109.087 332.244 Z" fill="#000000" fill-rule="evenodd" fill-opacity="1" /><path clip-path="url(#clip230)" d="M 0 0 M117.86 303.564 L140.082 303.564 L140.082 305.555 L127.536 338.124 L122.652 338.124 L134.457 307.499 L117.86 307.499 L117.86 303.564 Z" fill="#000000" fill-rule="evenodd" fill-opacity="1" /><path clip-path="url(#clip230)" d="M 0 0 M91.2632 104.436 Q87.6521 104.436 85.8235 108 Q84.0179 111.542 84.0179 118.672 Q84.0179 125.778 85.8235 129.343 Q87.6521 132.885 91.2632 132.885 Q94.8975 132.885 96.703 129.343 Q98.5317 125.778 98.5317 118.672 Q98.5317 111.542 96.703 108 Q94.8975 104.436 91.2632 104.436 M91.2632 100.732 Q97.0734 100.732 100.129 105.338 Q103.208 109.922 103.208 118.672 Q103.208 127.399 100.129 132.005 Q97.0734 136.588 91.2632 136.588 Q85.4531 136.588 82.3744 132.005 Q79.3189 127.399 79.3189 118.672 Q79.3189 109.922 82.3744 105.338 Q85.4531 100.732 91.2632 100.732 Z" fill="#000000" fill-rule="evenodd" fill-opacity="1" /><path clip-path="url(#clip230)" d="M 0 0 M108.277 130.037 L113.161 130.037 L113.161 135.917 L108.277 135.917 L108.277 130.037 Z" fill="#000000" fill-rule="evenodd" fill-opacity="1" /><path clip-path="url(#clip230)" d="M 0 0 M128.231 119.505 Q124.897 119.505 122.976 121.287 Q121.078 123.07 121.078 126.195 Q121.078 129.32 122.976 131.102 Q124.897 132.885 128.231 132.885 Q131.564 132.885 133.485 131.102 Q135.407 129.297 135.407 126.195 Q135.407 123.07 133.485 121.287 Q131.587 119.505 128.231 119.505 M123.555 117.514 Q120.545 116.774 118.856 114.713 Q117.189 112.653 117.189 109.69 Q117.189 105.547 120.129 103.139 Q123.092 100.732 128.231 100.732 Q133.393 100.732 136.332 103.139 Q139.272 105.547 139.272 109.69 Q139.272 112.653 137.582 114.713 Q135.916 116.774 132.93 117.514 Q136.309 118.301 138.184 120.593 Q140.082 122.885 140.082 126.195 Q140.082 131.218 137.004 133.903 Q133.948 136.588 128.231 136.588 Q122.513 136.588 119.434 133.903 Q116.379 131.218 116.379 126.195 Q116.379 122.885 118.277 120.593 Q120.175 118.301 123.555 117.514 M121.842 110.13 Q121.842 112.815 123.508 114.32 Q125.198 115.824 128.231 115.824 Q131.24 115.824 132.93 114.32 Q134.643 112.815 134.643 110.13 Q134.643 107.445 132.93 105.94 Q131.24 104.436 128.231 104.436 Q125.198 104.436 123.508 105.94 Q121.842 107.445 121.842 110.13 Z" fill="#000000" fill-rule="evenodd" fill-opacity="1" /><path clip-path="url(#clip230)" d="M 0 0 M1272.58 1521.01 Q1272.58 1522.81 1271.45 1523.84 Q1270.32 1524.84 1269.04 1524.84 Q1267.81 1524.84 1267.17 1524.13 Q1266.52 1523.42 1266.52 1522.52 Q1266.52 1521.3 1267.43 1520.23 Q1268.33 1519.17 1269.68 1518.95 Q1268.36 1518.11 1266.4 1518.11 Q1265.11 1518.11 1263.98 1518.78 Q1262.89 1519.46 1262.21 1520.33 Q1261.56 1521.2 1260.99 1522.46 Q1260.44 1523.68 1260.21 1524.42 Q1260.02 1525.13 1259.86 1525.9 L1257.6 1534.92 Q1256.51 1539.2 1256.51 1540.72 Q1256.51 1542.58 1257.41 1543.84 Q1258.31 1545.06 1260.12 1545.06 Q1260.82 1545.06 1261.63 1544.87 Q1262.43 1544.65 1263.46 1544.07 Q1264.53 1543.45 1265.46 1542.55 Q1266.43 1541.62 1267.36 1540.04 Q1268.3 1538.46 1268.91 1536.43 Q1269.1 1535.73 1269.75 1535.73 Q1270.55 1535.73 1270.55 1536.37 Q1270.55 1536.92 1270.1 1538.08 Q1269.68 1539.2 1268.75 1540.68 Q1267.84 1542.13 1266.65 1543.45 Q1265.46 1544.74 1263.69 1545.64 Q1261.92 1546.55 1259.99 1546.55 Q1257.22 1546.55 1255.38 1545.06 Q1253.55 1543.58 1252.87 1541.52 Q1252.71 1541.81 1252.48 1542.2 Q1252.26 1542.58 1251.58 1543.45 Q1250.94 1544.29 1250.2 1544.94 Q1249.46 1545.55 1248.3 1546.03 Q1247.17 1546.55 1245.94 1546.55 Q1244.4 1546.55 1243.01 1546.1 Q1241.66 1545.64 1240.7 1544.61 Q1239.73 1543.58 1239.73 1542.17 Q1239.73 1540.59 1240.79 1539.49 Q1241.89 1538.37 1243.37 1538.37 Q1244.3 1538.37 1245.04 1538.91 Q1245.82 1539.46 1245.82 1540.65 Q1245.82 1541.97 1244.91 1542.97 Q1244.01 1543.97 1242.72 1544.23 Q1244.04 1545.06 1246.01 1545.06 Q1248.13 1545.06 1249.81 1543.2 Q1251.48 1541.33 1252.29 1538.2 Q1254.29 1530.7 1255.06 1527.35 Q1255.83 1523.97 1255.83 1522.52 Q1255.83 1521.17 1255.48 1520.23 Q1255.12 1519.3 1254.51 1518.88 Q1253.93 1518.43 1253.38 1518.27 Q1252.87 1518.11 1252.29 1518.11 Q1251.32 1518.11 1250.23 1518.49 Q1249.17 1518.88 1247.88 1519.78 Q1246.62 1520.65 1245.43 1522.46 Q1244.24 1524.26 1243.43 1526.74 Q1243.27 1527.48 1242.56 1527.48 Q1241.79 1527.45 1241.79 1526.8 Q1241.79 1526.26 1242.21 1525.13 Q1242.66 1523.97 1243.56 1522.52 Q1244.5 1521.07 1245.69 1519.78 Q1246.91 1518.46 1248.68 1517.56 Q1250.49 1516.66 1252.42 1516.66 Q1253.29 1516.66 1254.13 1516.85 Q1254.99 1517.01 1256.03 1517.5 Q1257.09 1517.98 1258.02 1519.04 Q1258.96 1520.11 1259.54 1521.65 Q1259.92 1520.91 1260.44 1520.2 Q1260.99 1519.49 1261.82 1518.62 Q1262.69 1517.72 1263.88 1517.21 Q1265.11 1516.66 1266.46 1516.66 Q1267.78 1516.66 1269.07 1517.01 Q1270.36 1517.34 1271.45 1518.4 Q1272.58 1519.43 1272.58 1521.01 Z" fill="#000000" fill-rule="evenodd" fill-opacity="1" /><path clip-path="url(#clip230)" d="M 0 0 M56.8247 744.546 Q57.2755 744.546 58.3383 744.836 L83.5233 751.148 Q89.1271 752.533 93.0563 757.042 Q96.9854 761.518 96.9854 766.607 Q96.9854 769.667 95.3429 771.631 Q93.7326 773.596 91.2527 773.596 Q89.0627 773.596 87.9999 772.436 Q86.9693 771.277 86.9693 769.892 Q86.9693 769.441 87.0982 768.958 Q87.227 768.475 87.7745 767.96 Q88.322 767.444 89.256 767.444 Q90.7696 767.444 91.9613 768.765 Q92.5088 769.409 92.6376 770.021 Q92.7664 770.601 92.7664 771.599 Q93.6682 771.212 94.2801 770.504 Q94.892 769.795 95.1174 768.99 Q95.3751 768.185 95.4395 767.67 Q95.5361 767.122 95.5361 766.607 Q95.5361 762.485 91.3815 759.328 Q90.1255 758.395 88.8695 757.718 Q87.6457 757.01 86.132 756.494 Q84.6505 755.979 83.8454 755.754 Q83.0402 755.496 81.2045 755.045 Q84.1996 758.04 84.1996 761.712 Q84.1996 763.258 83.781 764.642 Q83.3623 765.995 82.4927 767.187 Q81.591 768.378 80.0129 769.087 Q78.4348 769.763 76.3414 769.763 Q74.1192 769.763 71.0919 768.894 Q68.0645 768.024 62.4929 765.931 Q59.3689 764.803 57.8552 764.803 Q57.1145 764.803 56.6636 764.965 Q56.1805 765.126 56.0195 765.448 Q55.8263 765.77 55.7941 765.963 Q55.7619 766.124 55.7619 766.446 Q55.7619 768.346 57.6942 770.117 Q59.6266 771.889 63.9422 773.113 Q64.7473 773.37 64.9405 773.531 Q65.1338 773.692 65.1338 774.175 Q65.1016 774.981 64.4574 774.981 Q64.1998 774.981 63.2014 774.691 Q62.1708 774.401 60.6572 773.725 Q59.1113 773.016 57.7264 772.05 Q56.3094 771.084 55.311 769.57 Q54.3126 768.024 54.3126 766.253 Q54.3126 763.837 55.8907 762.356 Q57.4366 760.842 59.7232 760.842 Q60.6572 760.842 61.4945 761.1 Q62.2997 761.325 64.4574 762.163 Q73.153 765.544 77.4042 765.544 Q78.4348 765.544 79.3044 765.383 Q80.1417 765.19 80.9791 764.771 Q81.7842 764.353 82.2673 763.515 Q82.7182 762.646 82.7182 761.454 Q82.7182 759.94 82.0096 758.523 Q81.2689 757.074 80.2705 756.172 Q79.2721 755.238 78.4348 754.691 Q77.5652 754.111 77.1144 753.982 L65.2626 751.019 L59.9808 749.699 Q57.1145 749.087 56.406 748.797 Q55.7297 748.411 55.3754 747.734 Q55.0211 747.058 55.0211 746.478 Q55.0211 745.673 55.5042 745.126 Q55.9873 744.546 56.8247 744.546 Z" fill="#000000" fill-rule="evenodd" fill-opacity="1" /><polyline clip-path="url(#clip232)" style="stroke:#009af9; stroke-width:4; stroke-opacity:1; fill:none" points="
  226.026,1430.41 455.447,1129.74 684.867,87.5306 914.288,501.867 1143.71,1104.22 1373.13,610.654 1602.55,607.791 1831.97,1142.19 2061.39,1134.85 2290.81,380.363 
  
  "/>
<path clip-path="url(#clip230)" d="
M1989.74 251.724 L2280.76 251.724 L2280.76 130.764 L1989.74 130.764  Z
  " fill="#ffffff" fill-rule="evenodd" fill-opacity="1"/>
<polyline clip-path="url(#clip230)" style="stroke:#000000; stroke-width:4; stroke-opacity:1; fill:none" points="
  1989.74,251.724 2280.76,251.724 2280.76,130.764 1989.74,130.764 1989.74,251.724 
  "/>
<polyline clip-path="url(#clip230)" style="stroke:#009af9; stroke-width:4; stroke-opacity:1; fill:none" points="
  2013.74,191.244 2157.74,191.244 
  "/>
<path clip-path="url(#clip230)" d="M 0 0 M2195.58 210.931 Q2193.77 215.561 2192.06 216.973 Q2190.35 218.385 2187.48 218.385 L2184.08 218.385 L2184.08 214.82 L2186.58 214.82 Q2188.33 214.82 2189.31 213.987 Q2190.28 213.154 2191.46 210.052 L2192.22 208.107 L2181.74 182.598 L2186.25 182.598 L2194.35 202.876 L2202.46 182.598 L2206.97 182.598 L2195.58 210.931 Z" fill="#000000" fill-rule="evenodd" fill-opacity="1" /><path clip-path="url(#clip230)" d="M 0 0 M2212.85 204.589 L2220.49 204.589 L2220.49 178.223 L2212.18 179.89 L2212.18 175.631 L2220.44 173.964 L2225.12 173.964 L2225.12 204.589 L2232.76 204.589 L2232.76 208.524 L2212.85 208.524 L2212.85 204.589 Z" fill="#000000" fill-rule="evenodd" fill-opacity="1" /></svg>
