<?xml version="1.0" encoding="utf-8"?>
<svg xmlns="http://www.w3.org/2000/svg" xmlns:xlink="http://www.w3.org/1999/xlink" width="600" height="400" viewBox="0 0 2400 1600">
<defs>
  <clipPath id="clip740">
    <rect x="0" y="0" width="2400" height="1600"/>
  </clipPath>
</defs>
<path clip-path="url(#clip740)" d="
M0 1600 L2400 1600 L2400 0 L0 0  Z
  " fill="#ffffff" fill-rule="evenodd" fill-opacity="1"/>
<defs>
  <clipPath id="clip741">
    <rect x="480" y="0" width="1681" height="1600"/>
  </clipPath>
</defs>
<path clip-path="url(#clip740)" d="
M164.082 1470.7 L2352.76 1470.7 L2352.76 62.9921 L164.082 62.9921  Z
  " fill="#ffffff" fill-rule="evenodd" fill-opacity="1"/>
<defs>
  <clipPath id="clip742">
    <rect x="164" y="62" width="2190" height="1409"/>
  </clipPath>
</defs>
<polyline clip-path="url(#clip742)" style="stroke:#000000; stroke-width:2; stroke-opacity:0.1; fill:none" points="
  455.447,1470.7 455.447,62.9921 
  "/>
<polyline clip-path="url(#clip742)" style="stroke:#000000; stroke-width:2; stroke-opacity:0.1; fill:none" points="
  914.288,1470.7 914.288,62.9921 
  "/>
<polyline clip-path="url(#clip742)" style="stroke:#000000; stroke-width:2; stroke-opacity:0.1; fill:none" points="
  1373.13,1470.7 1373.13,62.9921 
  "/>
<polyline clip-path="url(#clip742)" style="stroke:#000000; stroke-width:2; stroke-opacity:0.1; fill:none" points="
  1831.97,1470.7 1831.97,62.9921 
  "/>
<polyline clip-path="url(#clip742)" style="stroke:#000000; stroke-width:2; stroke-opacity:0.1; fill:none" points="
  2290.81,1470.7 2290.81,62.9921 
  "/>
<polyline clip-path="url(#clip742)" style="stroke:#000000; stroke-width:2; stroke-opacity:0.1; fill:none" points="
  164.082,1301.58 2352.76,1301.58 
  "/>
<polyline clip-path="url(#clip742)" style="stroke:#000000; stroke-width:2; stroke-opacity:0.1; fill:none" points="
  164.082,1103.83 2352.76,1103.83 
  "/>
<polyline clip-path="url(#clip742)" style="stroke:#000000; stroke-width:2; stroke-opacity:0.1; fill:none" points="
  164.082,906.076 2352.76,906.076 
  "/>
<polyline clip-path="url(#clip742)" style="stroke:#000000; stroke-width:2; stroke-opacity:0.1; fill:none" points="
  164.082,708.326 2352.76,708.326 
  "/>
<polyline clip-path="url(#clip742)" style="stroke:#000000; stroke-width:2; stroke-opacity:0.1; fill:none" points="
  164.082,510.576 2352.76,510.576 
  "/>
<polyline clip-path="url(#clip742)" style="stroke:#000000; stroke-width:2; stroke-opacity:0.1; fill:none" points="
  164.082,312.826 2352.76,312.826 
  "/>
<polyline clip-path="url(#clip742)" style="stroke:#000000; stroke-width:2; stroke-opacity:0.1; fill:none" points="
  164.082,115.076 2352.76,115.076 
  "/>
<polyline clip-path="url(#clip740)" style="stroke:#000000; stroke-width:4; stroke-opacity:1; fill:none" points="
  164.082,1470.7 2352.76,1470.7 
  "/>
<polyline clip-path="url(#clip740)" style="stroke:#000000; stroke-width:4; stroke-opacity:1; fill:none" points="
  164.082,1470.7 164.082,62.9921 
  "/>
<polyline clip-path="url(#clip740)" style="stroke:#000000; stroke-width:4; stroke-opacity:1; fill:none" points="
  455.447,1470.7 455.447,1453.81 
  "/>
<polyline clip-path="url(#clip740)" style="stroke:#000000; stroke-width:4; stroke-opacity:1; fill:none" points="
  914.288,1470.7 914.288,1453.81 
  "/>
<polyline clip-path="url(#clip740)" style="stroke:#000000; stroke-width:4; stroke-opacity:1; fill:none" points="
  1373.13,1470.7 1373.13,1453.81 
  "/>
<polyline clip-path="url(#clip740)" style="stroke:#000000; stroke-width:4; stroke-opacity:1; fill:none" points="
  1831.97,1470.7 1831.97,1453.81 
  "/>
<polyline clip-path="url(#clip740)" style="stroke:#000000; stroke-width:4; stroke-opacity:1; fill:none" points="
  2290.81,1470.7 2290.81,1453.81 
  "/>
<polyline clip-path="url(#clip740)" style="stroke:#000000; stroke-width:4; stroke-opacity:1; fill:none" points="
  164.082,1301.58 190.347,1301.58 
  "/>
<polyline clip-path="url(#clip740)" style="stroke:#000000; stroke-width:4; stroke-opacity:1; fill:none" points="
  164.082,1103.83 190.347,1103.83 
  "/>
<polyline clip-path="url(#clip740)" style="stroke:#000000; stroke-width:4; stroke-opacity:1; fill:none" points="
  164.082,906.076 190.347,906.076 
  "/>
<polyline clip-path="url(#clip740)" style="stroke:#000000; stroke-width:4; stroke-opacity:1; fill:none" points="
  164.082,708.326 190.347,708.326 
  "/>
<polyline clip-path="url(#clip740)" style="stroke:#000000; stroke-width:4; stroke-opacity:1; fill:none" points="
  164.082,510.576 190.347,510.576 
  "/>
<polyline clip-path="url(#clip740)" style="stroke:#000000; stroke-width:4; stroke-opacity:1; fill:none" points="
  164.082,312.826 190.347,312.826 
  "/>
<polyline clip-path="url(#clip740)" style="stroke:#000000; stroke-width:4; stroke-opacity:1; fill:none" points="
  164.082,115.076 190.347,115.076 
  "/>
<path clip-path="url(#clip740)" d="M 0 0 M450.1 1520.24 L466.419 1520.24 L466.419 1524.17 L444.475 1524.17 L444.475 1520.24 Q447.137 1517.48 451.72 1512.85 Q456.326 1508.2 457.507 1506.86 Q459.752 1504.33 460.632 1502.6 Q461.535 1500.84 461.535 1499.15 Q461.535 1496.39 459.59 1494.66 Q457.669 1492.92 454.567 1492.92 Q452.368 1492.92 449.914 1493.69 Q447.484 1494.45 444.706 1496 L444.706 1491.28 Q447.53 1490.14 449.984 1489.57 Q452.437 1488.99 454.474 1488.99 Q459.845 1488.99 463.039 1491.67 Q466.234 1494.36 466.234 1498.85 Q466.234 1500.98 465.424 1502.9 Q464.636 1504.8 462.53 1507.39 Q461.951 1508.06 458.849 1511.28 Q455.748 1514.47 450.1 1520.24 Z" fill="#000000" fill-rule="evenodd" fill-opacity="1" /><path clip-path="url(#clip740)" d="M 0 0 M917.297 1493.69 L905.492 1512.13 L917.297 1512.13 L917.297 1493.69 M916.071 1489.61 L921.95 1489.61 L921.95 1512.13 L926.881 1512.13 L926.881 1516.02 L921.95 1516.02 L921.95 1524.17 L917.297 1524.17 L917.297 1516.02 L901.696 1516.02 L901.696 1511.51 L916.071 1489.61 Z" fill="#000000" fill-rule="evenodd" fill-opacity="1" /><path clip-path="url(#clip740)" d="M 0 0 M1373.53 1505.03 Q1370.39 1505.03 1368.53 1507.18 Q1366.71 1509.33 1366.71 1513.08 Q1366.71 1516.81 1368.53 1518.99 Q1370.39 1521.14 1373.53 1521.14 Q1376.68 1521.14 1378.51 1518.99 Q1380.36 1516.81 1380.36 1513.08 Q1380.36 1509.33 1378.51 1507.18 Q1376.68 1505.03 1373.53 1505.03 M1382.82 1490.38 L1382.82 1494.63 Q1381.06 1493.8 1379.25 1493.36 Q1377.47 1492.92 1375.71 1492.92 Q1371.08 1492.92 1368.63 1496.05 Q1366.2 1499.17 1365.85 1505.49 Q1367.22 1503.48 1369.28 1502.41 Q1371.34 1501.32 1373.81 1501.32 Q1379.02 1501.32 1382.03 1504.5 Q1385.06 1507.64 1385.06 1513.08 Q1385.06 1518.41 1381.91 1521.63 Q1378.77 1524.84 1373.53 1524.84 Q1367.54 1524.84 1364.37 1520.26 Q1361.2 1515.65 1361.2 1506.93 Q1361.2 1498.73 1365.09 1493.87 Q1368.97 1488.99 1375.53 1488.99 Q1377.28 1488.99 1379.07 1489.33 Q1380.87 1489.68 1382.82 1490.38 Z" fill="#000000" fill-rule="evenodd" fill-opacity="1" /><path clip-path="url(#clip740)" d="M 0 0 M1831.97 1507.76 Q1828.64 1507.76 1826.72 1509.54 Q1824.82 1511.32 1824.82 1514.45 Q1824.82 1517.57 1826.72 1519.36 Q1828.64 1521.14 1831.97 1521.14 Q1835.3 1521.14 1837.23 1519.36 Q1839.15 1517.55 1839.15 1514.45 Q1839.15 1511.32 1837.23 1509.54 Q1835.33 1507.76 1831.97 1507.76 M1827.3 1505.77 Q1824.29 1505.03 1822.6 1502.97 Q1820.93 1500.91 1820.93 1497.95 Q1820.93 1493.8 1823.87 1491.39 Q1826.83 1488.99 1831.97 1488.99 Q1837.13 1488.99 1840.07 1491.39 Q1843.01 1493.8 1843.01 1497.95 Q1843.01 1500.91 1841.32 1502.97 Q1839.66 1505.03 1836.67 1505.77 Q1840.05 1506.56 1841.92 1508.85 Q1843.82 1511.14 1843.82 1514.45 Q1843.82 1519.47 1840.74 1522.16 Q1837.69 1524.84 1831.97 1524.84 Q1826.25 1524.84 1823.17 1522.16 Q1820.12 1519.47 1820.12 1514.45 Q1820.12 1511.14 1822.02 1508.85 Q1823.92 1506.56 1827.3 1505.77 M1825.58 1498.38 Q1825.58 1501.07 1827.25 1502.57 Q1828.94 1504.08 1831.97 1504.08 Q1834.98 1504.08 1836.67 1502.57 Q1838.38 1501.07 1838.38 1498.38 Q1838.38 1495.7 1836.67 1494.2 Q1834.98 1492.69 1831.97 1492.69 Q1828.94 1492.69 1827.25 1494.2 Q1825.58 1495.7 1825.58 1498.38 Z" fill="#000000" fill-rule="evenodd" fill-opacity="1" /><path clip-path="url(#clip740)" d="M 0 0 M2267.69 1520.24 L2275.33 1520.24 L2275.33 1493.87 L2267.02 1495.54 L2267.02 1491.28 L2275.28 1489.61 L2279.96 1489.61 L2279.96 1520.24 L2287.59 1520.24 L2287.59 1524.17 L2267.69 1524.17 L2267.69 1520.24 Z" fill="#000000" fill-rule="evenodd" fill-opacity="1" /><path clip-path="url(#clip740)" d="M 0 0 M2302.66 1492.69 Q2299.05 1492.69 2297.22 1496.26 Q2295.42 1499.8 2295.42 1506.93 Q2295.42 1514.03 2297.22 1517.6 Q2299.05 1521.14 2302.66 1521.14 Q2306.3 1521.14 2308.1 1517.6 Q2309.93 1514.03 2309.93 1506.93 Q2309.93 1499.8 2308.1 1496.26 Q2306.3 1492.69 2302.66 1492.69 M2302.66 1488.99 Q2308.47 1488.99 2311.53 1493.59 Q2314.61 1498.18 2314.61 1506.93 Q2314.61 1515.65 2311.53 1520.26 Q2308.47 1524.84 2302.66 1524.84 Q2296.85 1524.84 2293.78 1520.26 Q2290.72 1515.65 2290.72 1506.93 Q2290.72 1498.18 2293.78 1493.59 Q2296.85 1488.99 2302.66 1488.99 Z" fill="#000000" fill-rule="evenodd" fill-opacity="1" /><path clip-path="url(#clip740)" d="M 0 0 M91.8188 1287.38 Q88.2077 1287.38 86.379 1290.94 Q84.5735 1294.48 84.5735 1301.61 Q84.5735 1308.72 86.379 1312.28 Q88.2077 1315.82 91.8188 1315.82 Q95.453 1315.82 97.2586 1312.28 Q99.0873 1308.72 99.0873 1301.61 Q99.0873 1294.48 97.2586 1290.94 Q95.453 1287.38 91.8188 1287.38 M91.8188 1283.67 Q97.6289 1283.67 100.684 1288.28 Q103.763 1292.86 103.763 1301.61 Q103.763 1310.34 100.684 1314.94 Q97.6289 1319.53 91.8188 1319.53 Q86.0086 1319.53 82.9299 1314.94 Q79.8744 1310.34 79.8744 1301.61 Q79.8744 1292.86 82.9299 1288.28 Q86.0086 1283.67 91.8188 1283.67 Z" fill="#000000" fill-rule="evenodd" fill-opacity="1" /><path clip-path="url(#clip740)" d="M 0 0 M108.833 1312.98 L113.717 1312.98 L113.717 1318.86 L108.833 1318.86 L108.833 1312.98 Z" fill="#000000" fill-rule="evenodd" fill-opacity="1" /><path clip-path="url(#clip740)" d="M 0 0 M132.953 1300.22 Q136.309 1300.94 138.184 1303.21 Q140.082 1305.48 140.082 1308.81 Q140.082 1313.93 136.564 1316.73 Q133.045 1319.53 126.564 1319.53 Q124.388 1319.53 122.073 1319.09 Q119.782 1318.67 117.328 1317.82 L117.328 1313.3 Q119.272 1314.44 121.587 1315.01 Q123.902 1315.59 126.425 1315.59 Q130.823 1315.59 133.115 1313.86 Q135.43 1312.12 135.43 1308.81 Q135.43 1305.76 133.277 1304.04 Q131.147 1302.31 127.328 1302.31 L123.3 1302.31 L123.3 1298.46 L127.513 1298.46 Q130.962 1298.46 132.791 1297.1 Q134.619 1295.71 134.619 1293.12 Q134.619 1290.45 132.721 1289.04 Q130.846 1287.61 127.328 1287.61 Q125.407 1287.61 123.208 1288.02 Q121.008 1288.44 118.37 1289.32 L118.37 1285.15 Q121.032 1284.41 123.346 1284.04 Q125.684 1283.67 127.745 1283.67 Q133.069 1283.67 136.17 1286.1 Q139.272 1288.51 139.272 1292.63 Q139.272 1295.5 137.629 1297.49 Q135.985 1299.46 132.953 1300.22 Z" fill="#000000" fill-rule="evenodd" fill-opacity="1" /><path clip-path="url(#clip740)" d="M 0 0 M90.6845 1089.63 Q87.0734 1089.63 85.2448 1093.19 Q83.4392 1096.73 83.4392 1103.86 Q83.4392 1110.97 85.2448 1114.53 Q87.0734 1118.07 90.6845 1118.07 Q94.3188 1118.07 96.1243 1114.53 Q97.953 1110.97 97.953 1103.86 Q97.953 1096.73 96.1243 1093.19 Q94.3188 1089.63 90.6845 1089.63 M90.6845 1085.92 Q96.4947 1085.92 99.5502 1090.53 Q102.629 1095.11 102.629 1103.86 Q102.629 1112.59 99.5502 1117.19 Q96.4947 1121.78 90.6845 1121.78 Q84.8744 1121.78 81.7957 1117.19 Q78.7402 1112.59 78.7402 1103.86 Q78.7402 1095.11 81.7957 1090.53 Q84.8744 1085.92 90.6845 1085.92 Z" fill="#000000" fill-rule="evenodd" fill-opacity="1" /><path clip-path="url(#clip740)" d="M 0 0 M107.698 1115.23 L112.583 1115.23 L112.583 1121.11 L107.698 1121.11 L107.698 1115.23 Z" fill="#000000" fill-rule="evenodd" fill-opacity="1" /><path clip-path="url(#clip740)" d="M 0 0 M130.499 1090.62 L118.694 1109.07 L130.499 1109.07 L130.499 1090.62 M129.272 1086.55 L135.152 1086.55 L135.152 1109.07 L140.082 1109.07 L140.082 1112.96 L135.152 1112.96 L135.152 1121.11 L130.499 1121.11 L130.499 1112.96 L114.897 1112.96 L114.897 1108.44 L129.272 1086.55 Z" fill="#000000" fill-rule="evenodd" fill-opacity="1" /><path clip-path="url(#clip740)" d="M 0 0 M92.166 891.875 Q88.5549 891.875 86.7262 895.44 Q84.9207 898.982 84.9207 906.111 Q84.9207 913.218 86.7262 916.782 Q88.5549 920.324 92.166 920.324 Q95.8003 920.324 97.6058 916.782 Q99.4345 913.218 99.4345 906.111 Q99.4345 898.982 97.6058 895.44 Q95.8003 891.875 92.166 891.875 M92.166 888.171 Q97.9762 888.171 101.032 892.778 Q104.11 897.361 104.11 906.111 Q104.11 914.838 101.032 919.444 Q97.9762 924.028 92.166 924.028 Q86.3559 924.028 83.2772 919.444 Q80.2216 914.838 80.2216 906.111 Q80.2216 897.361 83.2772 892.778 Q86.3559 888.171 92.166 888.171 Z" fill="#000000" fill-rule="evenodd" fill-opacity="1" /><path clip-path="url(#clip740)" d="M 0 0 M109.18 917.477 L114.064 917.477 L114.064 923.356 L109.18 923.356 L109.18 917.477 Z" fill="#000000" fill-rule="evenodd" fill-opacity="1" /><path clip-path="url(#clip740)" d="M 0 0 M119.18 888.796 L137.536 888.796 L137.536 892.732 L123.462 892.732 L123.462 901.204 Q124.481 900.857 125.499 900.695 Q126.518 900.509 127.536 900.509 Q133.323 900.509 136.703 903.681 Q140.082 906.852 140.082 912.269 Q140.082 917.847 136.61 920.949 Q133.138 924.028 126.819 924.028 Q124.643 924.028 122.374 923.657 Q120.129 923.287 117.721 922.546 L117.721 917.847 Q119.805 918.981 122.027 919.537 Q124.249 920.093 126.726 920.093 Q130.731 920.093 133.069 917.986 Q135.407 915.88 135.407 912.269 Q135.407 908.657 133.069 906.551 Q130.731 904.445 126.726 904.445 Q124.851 904.445 122.976 904.861 Q121.124 905.278 119.18 906.157 L119.18 888.796 Z" fill="#000000" fill-rule="evenodd" fill-opacity="1" /><path clip-path="url(#clip740)" d="M 0 0 M91.0086 694.125 Q87.3975 694.125 85.5688 697.69 Q83.7633 701.231 83.7633 708.361 Q83.7633 715.467 85.5688 719.032 Q87.3975 722.574 91.0086 722.574 Q94.6429 722.574 96.4484 719.032 Q98.2771 715.467 98.2771 708.361 Q98.2771 701.231 96.4484 697.69 Q94.6429 694.125 91.0086 694.125 M91.0086 690.421 Q96.8188 690.421 99.8743 695.028 Q102.953 699.611 102.953 708.361 Q102.953 717.088 99.8743 721.694 Q96.8188 726.278 91.0086 726.278 Q85.1985 726.278 82.1198 721.694 Q79.0642 717.088 79.0642 708.361 Q79.0642 699.611 82.1198 695.028 Q85.1985 690.421 91.0086 690.421 Z" fill="#000000" fill-rule="evenodd" fill-opacity="1" /><path clip-path="url(#clip740)" d="M 0 0 M108.022 719.727 L112.907 719.727 L112.907 725.606 L108.022 725.606 L108.022 719.727 Z" fill="#000000" fill-rule="evenodd" fill-opacity="1" /><path clip-path="url(#clip740)" d="M 0 0 M128.555 706.463 Q125.407 706.463 123.555 708.616 Q121.726 710.768 121.726 714.518 Q121.726 718.245 123.555 720.421 Q125.407 722.574 128.555 722.574 Q131.703 722.574 133.532 720.421 Q135.383 718.245 135.383 714.518 Q135.383 710.768 133.532 708.616 Q131.703 706.463 128.555 706.463 M137.837 691.81 L137.837 696.069 Q136.078 695.236 134.272 694.796 Q132.49 694.356 130.731 694.356 Q126.101 694.356 123.647 697.481 Q121.217 700.606 120.87 706.926 Q122.235 704.912 124.295 703.847 Q126.356 702.759 128.832 702.759 Q134.041 702.759 137.05 705.93 Q140.082 709.079 140.082 714.518 Q140.082 719.842 136.934 723.06 Q133.786 726.278 128.555 726.278 Q122.559 726.278 119.388 721.694 Q116.217 717.088 116.217 708.361 Q116.217 700.167 120.106 695.306 Q123.995 690.421 130.545 690.421 Q132.305 690.421 134.087 690.769 Q135.893 691.116 137.837 691.81 Z" fill="#000000" fill-rule="evenodd" fill-opacity="1" /><path clip-path="url(#clip740)" d="M 0 0 M92.0734 496.375 Q88.4623 496.375 86.6336 499.94 Q84.8281 503.481 84.8281 510.611 Q84.8281 517.717 86.6336 521.282 Q88.4623 524.824 92.0734 524.824 Q95.7077 524.824 97.5132 521.282 Q99.3419 517.717 99.3419 510.611 Q99.3419 503.481 97.5132 499.94 Q95.7077 496.375 92.0734 496.375 M92.0734 492.671 Q97.8836 492.671 100.939 497.278 Q104.018 501.861 104.018 510.611 Q104.018 519.338 100.939 523.944 Q97.8836 528.527 92.0734 528.527 Q86.2633 528.527 83.1846 523.944 Q80.129 519.338 80.129 510.611 Q80.129 501.861 83.1846 497.278 Q86.2633 492.671 92.0734 492.671 Z" fill="#000000" fill-rule="evenodd" fill-opacity="1" /><path clip-path="url(#clip740)" d="M 0 0 M109.087 521.977 L113.971 521.977 L113.971 527.856 L109.087 527.856 L109.087 521.977 Z" fill="#000000" fill-rule="evenodd" fill-opacity="1" /><path clip-path="url(#clip740)" d="M 0 0 M117.86 493.296 L140.082 493.296 L140.082 495.287 L127.536 527.856 L122.652 527.856 L134.457 497.231 L117.86 497.231 L117.86 493.296 Z" fill="#000000" fill-rule="evenodd" fill-opacity="1" /><path clip-path="url(#clip740)" d="M 0 0 M91.2632 298.625 Q87.6521 298.625 85.8235 302.189 Q84.0179 305.731 84.0179 312.861 Q84.0179 319.967 85.8235 323.532 Q87.6521 327.074 91.2632 327.074 Q94.8975 327.074 96.703 323.532 Q98.5317 319.967 98.5317 312.861 Q98.5317 305.731 96.703 302.189 Q94.8975 298.625 91.2632 298.625 M91.2632 294.921 Q97.0734 294.921 100.129 299.527 Q103.208 304.111 103.208 312.861 Q103.208 321.587 100.129 326.194 Q97.0734 330.777 91.2632 330.777 Q85.4531 330.777 82.3744 326.194 Q79.3189 321.587 79.3189 312.861 Q79.3189 304.111 82.3744 299.527 Q85.4531 294.921 91.2632 294.921 Z" fill="#000000" fill-rule="evenodd" fill-opacity="1" /><path clip-path="url(#clip740)" d="M 0 0 M108.277 324.226 L113.161 324.226 L113.161 330.106 L108.277 330.106 L108.277 324.226 Z" fill="#000000" fill-rule="evenodd" fill-opacity="1" /><path clip-path="url(#clip740)" d="M 0 0 M128.231 313.694 Q124.897 313.694 122.976 315.476 Q121.078 317.259 121.078 320.384 Q121.078 323.509 122.976 325.291 Q124.897 327.074 128.231 327.074 Q131.564 327.074 133.485 325.291 Q135.407 323.486 135.407 320.384 Q135.407 317.259 133.485 315.476 Q131.587 313.694 128.231 313.694 M123.555 311.703 Q120.545 310.963 118.856 308.902 Q117.189 306.842 117.189 303.879 Q117.189 299.736 120.129 297.328 Q123.092 294.921 128.231 294.921 Q133.393 294.921 136.332 297.328 Q139.272 299.736 139.272 303.879 Q139.272 306.842 137.582 308.902 Q135.916 310.963 132.93 311.703 Q136.309 312.49 138.184 314.782 Q140.082 317.074 140.082 320.384 Q140.082 325.407 137.004 328.092 Q133.948 330.777 128.231 330.777 Q122.513 330.777 119.434 328.092 Q116.379 325.407 116.379 320.384 Q116.379 317.074 118.277 314.782 Q120.175 312.49 123.555 311.703 M121.842 304.319 Q121.842 307.004 123.508 308.509 Q125.198 310.013 128.231 310.013 Q131.24 310.013 132.93 308.509 Q134.643 307.004 134.643 304.319 Q134.643 301.634 132.93 300.129 Q131.24 298.625 128.231 298.625 Q125.198 298.625 123.508 300.129 Q121.842 301.634 121.842 304.319 Z" fill="#000000" fill-rule="evenodd" fill-opacity="1" /><path clip-path="url(#clip740)" d="M 0 0 M91.3558 100.874 Q87.7447 100.874 85.916 104.439 Q84.1105 107.981 84.1105 115.11 Q84.1105 122.217 85.916 125.782 Q87.7447 129.323 91.3558 129.323 Q94.9901 129.323 96.7956 125.782 Q98.6243 122.217 98.6243 115.11 Q98.6243 107.981 96.7956 104.439 Q94.9901 100.874 91.3558 100.874 M91.3558 97.1708 Q97.166 97.1708 100.222 101.777 Q103.3 106.361 103.3 115.11 Q103.3 123.837 100.222 128.444 Q97.166 133.027 91.3558 133.027 Q85.5457 133.027 82.467 128.444 Q79.4115 123.837 79.4115 115.11 Q79.4115 106.361 82.467 101.777 Q85.5457 97.1708 91.3558 97.1708 Z" fill="#000000" fill-rule="evenodd" fill-opacity="1" /><path clip-path="url(#clip740)" d="M 0 0 M108.37 126.476 L113.254 126.476 L113.254 132.356 L108.37 132.356 L108.37 126.476 Z" fill="#000000" fill-rule="evenodd" fill-opacity="1" /><path clip-path="url(#clip740)" d="M 0 0 M118.462 131.638 L118.462 127.379 Q120.221 128.212 122.027 128.652 Q123.833 129.092 125.569 129.092 Q130.198 129.092 132.629 125.99 Q135.082 122.865 135.43 116.523 Q134.087 118.513 132.027 119.578 Q129.967 120.643 127.467 120.643 Q122.282 120.643 119.249 117.518 Q116.24 114.37 116.24 108.93 Q116.24 103.606 119.388 100.388 Q122.536 97.1708 127.768 97.1708 Q133.763 97.1708 136.911 101.777 Q140.082 106.361 140.082 115.11 Q140.082 123.282 136.194 128.166 Q132.328 133.027 125.777 133.027 Q124.018 133.027 122.212 132.68 Q120.407 132.333 118.462 131.638 M127.768 116.985 Q130.916 116.985 132.744 114.833 Q134.596 112.68 134.596 108.93 Q134.596 105.203 132.744 103.05 Q130.916 100.874 127.768 100.874 Q124.62 100.874 122.768 103.05 Q120.939 105.203 120.939 108.93 Q120.939 112.68 122.768 114.833 Q124.62 116.985 127.768 116.985 Z" fill="#000000" fill-rule="evenodd" fill-opacity="1" /><path clip-path="url(#clip740)" d="M 0 0 M1278.93 4.53628 Q1278.85 4.94617 1278.68 5.68398 Q1278.52 6.3808 1277.78 8.59422 Q1277.04 10.8076 1276.06 13.0621 Q1275.12 15.2755 1273.27 18.3907 Q1271.47 21.4649 1269.26 24.2521 Q1268.64 24.9899 1268.52 25.4408 Q1268.44 25.8507 1268.44 27.2034 Q1268.44 35.7291 1271.02 35.7291 Q1271.14 35.7291 1271.35 35.7291 Q1271.59 35.6881 1272.21 35.4832 Q1272.86 35.2373 1273.44 34.8683 Q1274.01 34.4585 1274.67 33.6387 Q1275.32 32.7779 1275.73 31.6302 Q1276.1 30.8104 1276.84 30.8104 Q1277.82 30.8104 1277.82 31.6302 Q1277.82 33.1058 1275.77 35.3602 Q1273.72 37.6146 1270.77 37.6146 Q1267.95 37.6146 1265.94 35.7701 Q1263.97 33.8846 1263.15 30.5235 Q1254.3 37.6146 1245.44 37.6146 Q1239.21 37.6146 1235.52 33.5567 Q1231.83 29.4578 1231.83 23.3913 Q1231.83 17.5709 1235.03 12.0373 Q1238.27 6.50377 1243.52 3.06067 Q1248.8 -0.423422 1254.42 -0.423422 Q1256.39 -0.423422 1258.27 0.109439 Q1260.16 0.60131 1262.04 1.87198 Q1263.93 3.14265 1265.32 5.06914 Q1266.72 6.99564 1267.58 10.0288 Q1268.44 13.0621 1268.44 16.8741 L1268.44 22.0797 Q1273.85 15.2345 1276.68 5.43805 Q1277.09 3.96243 1277.33 3.79847 Q1277.5 3.67551 1277.91 3.67551 Q1278.32 3.67551 1278.56 3.92144 Q1278.85 4.12639 1278.89 4.33133 L1278.93 4.53628 M1262.82 28.3511 Q1262.66 26.9164 1262.66 18.9645 Q1262.66 17.4479 1262.66 16.6281 Q1262.66 15.7673 1262.58 14.1278 Q1262.49 12.4882 1262.33 11.4635 Q1262.21 10.4387 1261.92 8.96312 Q1261.63 7.48751 1261.22 6.54476 Q1260.81 5.602 1260.16 4.53628 Q1259.54 3.47056 1258.72 2.85572 Q1257.94 2.24088 1256.8 1.83099 Q1255.69 1.4211 1254.34 1.4211 Q1252.66 1.4211 1250.89 2.03594 Q1249.17 2.60978 1246.96 4.4543 Q1244.75 6.25783 1242.9 9.12708 Q1240.97 12.1603 1239.5 17.7348 Q1238.06 23.2684 1238.06 26.5885 Q1238.06 30.7694 1239.99 33.2698 Q1241.92 35.7291 1245.61 35.7291 Q1254.42 35.7291 1262.82 28.3511 Z" fill="#000000" fill-rule="evenodd" fill-opacity="1" /><path clip-path="url(#clip740)" d="M 0 0 M1272.58 1521.01 Q1272.58 1522.81 1271.45 1523.84 Q1270.32 1524.84 1269.04 1524.84 Q1267.81 1524.84 1267.17 1524.13 Q1266.52 1523.42 1266.52 1522.52 Q1266.52 1521.3 1267.43 1520.23 Q1268.33 1519.17 1269.68 1518.95 Q1268.36 1518.11 1266.4 1518.11 Q1265.11 1518.11 1263.98 1518.78 Q1262.89 1519.46 1262.21 1520.33 Q1261.56 1521.2 1260.99 1522.46 Q1260.44 1523.68 1260.21 1524.42 Q1260.02 1525.13 1259.86 1525.9 L1257.6 1534.92 Q1256.51 1539.2 1256.51 1540.72 Q1256.51 1542.58 1257.41 1543.84 Q1258.31 1545.06 1260.12 1545.06 Q1260.82 1545.06 1261.63 1544.87 Q1262.43 1544.65 1263.46 1544.07 Q1264.53 1543.45 1265.46 1542.55 Q1266.43 1541.62 1267.36 1540.04 Q1268.3 1538.46 1268.91 1536.43 Q1269.1 1535.73 1269.75 1535.73 Q1270.55 1535.73 1270.55 1536.37 Q1270.55 1536.92 1270.1 1538.08 Q1269.68 1539.2 1268.75 1540.68 Q1267.84 1542.13 1266.65 1543.45 Q1265.46 1544.74 1263.69 1545.64 Q1261.92 1546.55 1259.99 1546.55 Q1257.22 1546.55 1255.38 1545.06 Q1253.55 1543.58 1252.87 1541.52 Q1252.71 1541.81 1252.48 1542.2 Q1252.26 1542.58 1251.58 1543.45 Q1250.94 1544.29 1250.2 1544.94 Q1249.46 1545.55 1248.3 1546.03 Q1247.17 1546.55 1245.94 1546.55 Q1244.4 1546.55 1243.01 1546.1 Q1241.66 1545.64 1240.7 1544.61 Q1239.73 1543.58 1239.73 1542.17 Q1239.73 1540.59 1240.79 1539.49 Q1241.89 1538.37 1243.37 1538.37 Q1244.3 1538.37 1245.04 1538.91 Q1245.82 1539.46 1245.82 1540.65 Q1245.82 1541.97 1244.91 1542.97 Q1244.01 1543.97 1242.72 1544.23 Q1244.04 1545.06 1246.01 1545.06 Q1248.13 1545.06 1249.81 1543.2 Q1251.48 1541.33 1252.29 1538.2 Q1254.29 1530.7 1255.06 1527.35 Q1255.83 1523.97 1255.83 1522.52 Q1255.83 1521.17 1255.48 1520.23 Q1255.12 1519.3 1254.51 1518.88 Q1253.93 1518.43 1253.38 1518.27 Q1252.87 1518.11 1252.29 1518.11 Q1251.32 1518.11 1250.23 1518.49 Q1249.17 1518.88 1247.88 1519.78 Q1246.62 1520.65 1245.43 1522.46 Q1244.24 1524.26 1243.43 1526.74 Q1243.27 1527.48 1242.56 1527.48 Q1241.79 1527.45 1241.79 1526.8 Q1241.79 1526.26 1242.21 1525.13 Q1242.66 1523.97 1243.56 1522.52 Q1244.5 1521.07 1245.69 1519.78 Q1246.91 1518.46 1248.68 1517.56 Q1250.49 1516.66 1252.42 1516.66 Q1253.29 1516.66 1254.13 1516.85 Q1254.99 1517.01 1256.03 1517.5 Q1257.09 1517.98 1258.02 1519.04 Q1258.96 1520.11 1259.54 1521.65 Q1259.92 1520.91 1260.44 1520.2 Q1260.99 1519.49 1261.82 1518.62 Q1262.69 1517.72 1263.88 1517.21 Q1265.11 1516.66 1266.46 1516.66 Q1267.78 1516.66 1269.07 1517.01 Q1270.36 1517.34 1271.45 1518.4 Q1272.58 1519.43 1272.58 1521.01 Z" fill="#000000" fill-rule="evenodd" fill-opacity="1" /><path clip-path="url(#clip740)" d="M 0 0 M56.8247 752.42 Q57.2755 752.42 58.3383 752.71 L83.5233 759.022 Q89.1271 760.407 93.0563 764.916 Q96.9854 769.393 96.9854 774.481 Q96.9854 777.541 95.3429 779.505 Q93.7326 781.47 91.2527 781.47 Q89.0627 781.47 87.9999 780.31 Q86.9693 779.151 86.9693 777.766 Q86.9693 777.315 87.0982 776.832 Q87.227 776.349 87.7745 775.834 Q88.322 775.318 89.256 775.318 Q90.7696 775.318 91.9613 776.639 Q92.5088 777.283 92.6376 777.895 Q92.7664 778.475 92.7664 779.473 Q93.6682 779.086 94.2801 778.378 Q94.892 777.669 95.1174 776.864 Q95.3751 776.059 95.4395 775.544 Q95.5361 774.996 95.5361 774.481 Q95.5361 770.359 91.3815 767.203 Q90.1255 766.269 88.8695 765.592 Q87.6457 764.884 86.132 764.368 Q84.6505 763.853 83.8454 763.628 Q83.0402 763.37 81.2045 762.919 Q84.1996 765.914 84.1996 769.586 Q84.1996 771.132 83.781 772.516 Q83.3623 773.869 82.4927 775.061 Q81.591 776.252 80.0129 776.961 Q78.4348 777.637 76.3414 777.637 Q74.1192 777.637 71.0919 776.768 Q68.0645 775.898 62.4929 773.805 Q59.3689 772.678 57.8552 772.678 Q57.1145 772.678 56.6636 772.839 Q56.1805 773 56.0195 773.322 Q55.8263 773.644 55.7941 773.837 Q55.7619 773.998 55.7619 774.32 Q55.7619 776.22 57.6942 777.991 Q59.6266 779.763 63.9422 780.987 Q64.7473 781.244 64.9405 781.405 Q65.1338 781.566 65.1338 782.049 Q65.1016 782.855 64.4574 782.855 Q64.1998 782.855 63.2014 782.565 Q62.1708 782.275 60.6572 781.599 Q59.1113 780.89 57.7264 779.924 Q56.3094 778.958 55.311 777.444 Q54.3126 775.898 54.3126 774.127 Q54.3126 771.711 55.8907 770.23 Q57.4366 768.716 59.7232 768.716 Q60.6572 768.716 61.4945 768.974 Q62.2997 769.199 64.4574 770.037 Q73.153 773.418 77.4042 773.418 Q78.4348 773.418 79.3044 773.257 Q80.1417 773.064 80.9791 772.645 Q81.7842 772.227 82.2673 771.389 Q82.7182 770.52 82.7182 769.328 Q82.7182 767.814 82.0096 766.397 Q81.2689 764.948 80.2705 764.046 Q79.2721 763.112 78.4348 762.565 Q77.5652 761.985 77.1144 761.856 L65.2626 758.893 L59.9808 757.573 Q57.1145 756.961 56.406 756.671 Q55.7297 756.285 55.3754 755.608 Q55.0211 754.932 55.0211 754.352 Q55.0211 753.547 55.5042 753 Q55.9873 752.42 56.8247 752.42 Z" fill="#000000" fill-rule="evenodd" fill-opacity="1" /><polyline clip-path="url(#clip742)" style="stroke:#009af9; stroke-width:4; stroke-opacity:1; fill:none" points="
  226.026,1090.73 455.447,340.585 684.867,273.447 914.288,723.192 1143.71,1430.86 1373.13,102.833 1602.55,344.542 1831.97,1046.27 2061.39,764.87 2290.81,722.371 
  
  "/>
<path clip-path="url(#clip740)" d="
M1989.74 267.472 L2280.76 267.472 L2280.76 146.512 L1989.74 146.512  Z
  " fill="#ffffff" fill-rule="evenodd" fill-opacity="1"/>
<polyline clip-path="url(#clip740)" style="stroke:#000000; stroke-width:4; stroke-opacity:1; fill:none" points="
  1989.74,267.472 2280.76,267.472 2280.76,146.512 1989.74,146.512 1989.74,267.472 
  "/>
<polyline clip-path="url(#clip740)" style="stroke:#009af9; stroke-width:4; stroke-opacity:1; fill:none" points="
  2013.74,206.992 2157.74,206.992 
  "/>
<path clip-path="url(#clip740)" d="M 0 0 M2195.58 226.68 Q2193.77 231.309 2192.06 232.721 Q2190.35 234.133 2187.48 234.133 L2184.08 234.133 L2184.08 230.568 L2186.58 230.568 Q2188.33 230.568 2189.31 229.735 Q2190.28 228.902 2191.46 225.8 L2192.22 223.855 L2181.74 198.346 L2186.25 198.346 L2194.35 218.624 L2202.46 198.346 L2206.97 198.346 L2195.58 226.68 Z" fill="#000000" fill-rule="evenodd" fill-opacity="1" /><path clip-path="url(#clip740)" d="M 0 0 M2212.85 220.337 L2220.49 220.337 L2220.49 193.971 L2212.18 195.638 L2212.18 191.379 L2220.44 189.712 L2225.12 189.712 L2225.12 220.337 L2232.76 220.337 L2232.76 224.272 L2212.85 224.272 L2212.85 220.337 Z" fill="#000000" fill-rule="evenodd" fill-opacity="1" /></svg>
