<?xml version="1.0" encoding="utf-8"?>
<svg xmlns="http://www.w3.org/2000/svg" xmlns:xlink="http://www.w3.org/1999/xlink" width="600" height="400" viewBox="0 0 2400 1600">
<defs>
  <clipPath id="clip380">
    <rect x="0" y="0" width="2400" height="1600"/>
  </clipPath>
</defs>
<path clip-path="url(#clip380)" d="
M0 1600 L2400 1600 L2400 0 L0 0  Z
  " fill="#ffffff" fill-rule="evenodd" fill-opacity="1"/>
<defs>
  <clipPath id="clip381">
    <rect x="480" y="0" width="1681" height="1600"/>
  </clipPath>
</defs>
<path clip-path="url(#clip380)" d="
M211.141 1447.17 L2352.76 1447.17 L2352.76 47.2441 L211.141 47.2441  Z
  " fill="#ffffff" fill-rule="evenodd" fill-opacity="1"/>
<defs>
  <clipPath id="clip382">
    <rect x="211" y="47" width="2143" height="1401"/>
  </clipPath>
</defs>
<polyline clip-path="url(#clip382)" style="stroke:#000000; stroke-width:2; stroke-opacity:0.1; fill:none" points="
  496.241,1447.17 496.241,47.2441 
  "/>
<polyline clip-path="url(#clip382)" style="stroke:#000000; stroke-width:2; stroke-opacity:0.1; fill:none" points="
  945.217,1447.17 945.217,47.2441 
  "/>
<polyline clip-path="url(#clip382)" style="stroke:#000000; stroke-width:2; stroke-opacity:0.1; fill:none" points="
  1394.19,1447.17 1394.19,47.2441 
  "/>
<polyline clip-path="url(#clip382)" style="stroke:#000000; stroke-width:2; stroke-opacity:0.1; fill:none" points="
  1843.17,1447.17 1843.17,47.2441 
  "/>
<polyline clip-path="url(#clip382)" style="stroke:#000000; stroke-width:2; stroke-opacity:0.1; fill:none" points="
  2292.14,1447.17 2292.14,47.2441 
  "/>
<polyline clip-path="url(#clip382)" style="stroke:#000000; stroke-width:2; stroke-opacity:0.1; fill:none" points="
  211.141,1279.35 2352.76,1279.35 
  "/>
<polyline clip-path="url(#clip382)" style="stroke:#000000; stroke-width:2; stroke-opacity:0.1; fill:none" points="
  211.141,1085.64 2352.76,1085.64 
  "/>
<polyline clip-path="url(#clip382)" style="stroke:#000000; stroke-width:2; stroke-opacity:0.1; fill:none" points="
  211.141,891.923 2352.76,891.923 
  "/>
<polyline clip-path="url(#clip382)" style="stroke:#000000; stroke-width:2; stroke-opacity:0.1; fill:none" points="
  211.141,698.211 2352.76,698.211 
  "/>
<polyline clip-path="url(#clip382)" style="stroke:#000000; stroke-width:2; stroke-opacity:0.1; fill:none" points="
  211.141,504.499 2352.76,504.499 
  "/>
<polyline clip-path="url(#clip382)" style="stroke:#000000; stroke-width:2; stroke-opacity:0.1; fill:none" points="
  211.141,310.786 2352.76,310.786 
  "/>
<polyline clip-path="url(#clip382)" style="stroke:#000000; stroke-width:2; stroke-opacity:0.1; fill:none" points="
  211.141,117.074 2352.76,117.074 
  "/>
<polyline clip-path="url(#clip380)" style="stroke:#000000; stroke-width:4; stroke-opacity:1; fill:none" points="
  211.141,1447.17 2352.76,1447.17 
  "/>
<polyline clip-path="url(#clip380)" style="stroke:#000000; stroke-width:4; stroke-opacity:1; fill:none" points="
  211.141,1447.17 211.141,47.2441 
  "/>
<polyline clip-path="url(#clip380)" style="stroke:#000000; stroke-width:4; stroke-opacity:1; fill:none" points="
  496.241,1447.17 496.241,1430.37 
  "/>
<polyline clip-path="url(#clip380)" style="stroke:#000000; stroke-width:4; stroke-opacity:1; fill:none" points="
  945.217,1447.17 945.217,1430.37 
  "/>
<polyline clip-path="url(#clip380)" style="stroke:#000000; stroke-width:4; stroke-opacity:1; fill:none" points="
  1394.19,1447.17 1394.19,1430.37 
  "/>
<polyline clip-path="url(#clip380)" style="stroke:#000000; stroke-width:4; stroke-opacity:1; fill:none" points="
  1843.17,1447.17 1843.17,1430.37 
  "/>
<polyline clip-path="url(#clip380)" style="stroke:#000000; stroke-width:4; stroke-opacity:1; fill:none" points="
  2292.14,1447.17 2292.14,1430.37 
  "/>
<polyline clip-path="url(#clip380)" style="stroke:#000000; stroke-width:4; stroke-opacity:1; fill:none" points="
  211.141,1279.35 236.841,1279.35 
  "/>
<polyline clip-path="url(#clip380)" style="stroke:#000000; stroke-width:4; stroke-opacity:1; fill:none" points="
  211.141,1085.64 236.841,1085.64 
  "/>
<polyline clip-path="url(#clip380)" style="stroke:#000000; stroke-width:4; stroke-opacity:1; fill:none" points="
  211.141,891.923 236.841,891.923 
  "/>
<polyline clip-path="url(#clip380)" style="stroke:#000000; stroke-width:4; stroke-opacity:1; fill:none" points="
  211.141,698.211 236.841,698.211 
  "/>
<polyline clip-path="url(#clip380)" style="stroke:#000000; stroke-width:4; stroke-opacity:1; fill:none" points="
  211.141,504.499 236.841,504.499 
  "/>
<polyline clip-path="url(#clip380)" style="stroke:#000000; stroke-width:4; stroke-opacity:1; fill:none" points="
  211.141,310.786 236.841,310.786 
  "/>
<polyline clip-path="url(#clip380)" style="stroke:#000000; stroke-width:4; stroke-opacity:1; fill:none" points="
  211.141,117.074 236.841,117.074 
  "/>
<path clip-path="url(#clip380)" d="M 0 0 M490.894 1496.71 L507.213 1496.71 L507.213 1500.64 L485.269 1500.64 L485.269 1496.71 Q487.931 1493.95 492.514 1489.32 Q497.121 1484.67 498.301 1483.33 Q500.546 1480.8 501.426 1479.07 Q502.329 1477.31 502.329 1475.62 Q502.329 1472.86 500.384 1471.13 Q498.463 1469.39 495.361 1469.39 Q493.162 1469.39 490.709 1470.16 Q488.278 1470.92 485.5 1472.47 L485.5 1467.75 Q488.324 1466.61 490.778 1466.04 Q493.232 1465.46 495.269 1465.46 Q500.639 1465.46 503.833 1468.14 Q507.028 1470.83 507.028 1475.32 Q507.028 1477.45 506.218 1479.37 Q505.431 1481.27 503.324 1483.86 Q502.745 1484.53 499.644 1487.75 Q496.542 1490.94 490.894 1496.71 Z" fill="#000000" fill-rule="evenodd" fill-opacity="1" /><path clip-path="url(#clip380)" d="M 0 0 M948.226 1470.16 L936.42 1488.61 L948.226 1488.61 L948.226 1470.16 M946.999 1466.08 L952.879 1466.08 L952.879 1488.61 L957.809 1488.61 L957.809 1492.49 L952.879 1492.49 L952.879 1500.64 L948.226 1500.64 L948.226 1492.49 L932.624 1492.49 L932.624 1487.98 L946.999 1466.08 Z" fill="#000000" fill-rule="evenodd" fill-opacity="1" /><path clip-path="url(#clip380)" d="M 0 0 M1394.6 1481.5 Q1391.45 1481.5 1389.6 1483.65 Q1387.77 1485.8 1387.77 1489.55 Q1387.77 1493.28 1389.6 1495.46 Q1391.45 1497.61 1394.6 1497.61 Q1397.75 1497.61 1399.57 1495.46 Q1401.43 1493.28 1401.43 1489.55 Q1401.43 1485.8 1399.57 1483.65 Q1397.75 1481.5 1394.6 1481.5 M1403.88 1466.85 L1403.88 1471.11 Q1402.12 1470.27 1400.32 1469.83 Q1398.53 1469.39 1396.77 1469.39 Q1392.14 1469.39 1389.69 1472.52 Q1387.26 1475.64 1386.91 1481.96 Q1388.28 1479.95 1390.34 1478.88 Q1392.4 1477.8 1394.88 1477.8 Q1400.08 1477.8 1403.09 1480.97 Q1406.13 1484.11 1406.13 1489.55 Q1406.13 1494.88 1402.98 1498.1 Q1399.83 1501.31 1394.6 1501.31 Q1388.6 1501.31 1385.43 1496.73 Q1382.26 1492.12 1382.26 1483.4 Q1382.26 1475.2 1386.15 1470.34 Q1390.04 1465.46 1396.59 1465.46 Q1398.35 1465.46 1400.13 1465.8 Q1401.94 1466.15 1403.88 1466.85 Z" fill="#000000" fill-rule="evenodd" fill-opacity="1" /><path clip-path="url(#clip380)" d="M 0 0 M1843.17 1484.23 Q1839.84 1484.23 1837.91 1486.01 Q1836.02 1487.8 1836.02 1490.92 Q1836.02 1494.05 1837.91 1495.83 Q1839.84 1497.61 1843.17 1497.61 Q1846.5 1497.61 1848.42 1495.83 Q1850.34 1494.02 1850.34 1490.92 Q1850.34 1487.8 1848.42 1486.01 Q1846.52 1484.23 1843.17 1484.23 M1838.49 1482.24 Q1835.48 1481.5 1833.79 1479.44 Q1832.13 1477.38 1832.13 1474.42 Q1832.13 1470.27 1835.07 1467.86 Q1838.03 1465.46 1843.17 1465.46 Q1848.33 1465.46 1851.27 1467.86 Q1854.21 1470.27 1854.21 1474.42 Q1854.21 1477.38 1852.52 1479.44 Q1850.85 1481.5 1847.87 1482.24 Q1851.25 1483.03 1853.12 1485.32 Q1855.02 1487.61 1855.02 1490.92 Q1855.02 1495.94 1851.94 1498.63 Q1848.89 1501.31 1843.17 1501.31 Q1837.45 1501.31 1834.37 1498.63 Q1831.32 1495.94 1831.32 1490.92 Q1831.32 1487.61 1833.21 1485.32 Q1835.11 1483.03 1838.49 1482.24 M1836.78 1474.86 Q1836.78 1477.54 1838.45 1479.05 Q1840.14 1480.55 1843.17 1480.55 Q1846.18 1480.55 1847.87 1479.05 Q1849.58 1477.54 1849.58 1474.86 Q1849.58 1472.17 1847.87 1470.67 Q1846.18 1469.16 1843.17 1469.16 Q1840.14 1469.16 1838.45 1470.67 Q1836.78 1472.17 1836.78 1474.86 Z" fill="#000000" fill-rule="evenodd" fill-opacity="1" /><path clip-path="url(#clip380)" d="M 0 0 M2269.02 1496.71 L2276.66 1496.71 L2276.66 1470.34 L2268.35 1472.01 L2268.35 1467.75 L2276.61 1466.08 L2281.29 1466.08 L2281.29 1496.71 L2288.93 1496.71 L2288.93 1500.64 L2269.02 1500.64 L2269.02 1496.71 Z" fill="#000000" fill-rule="evenodd" fill-opacity="1" /><path clip-path="url(#clip380)" d="M 0 0 M2304 1469.16 Q2300.38 1469.16 2298.56 1472.73 Q2296.75 1476.27 2296.75 1483.4 Q2296.75 1490.5 2298.56 1494.07 Q2300.38 1497.61 2304 1497.61 Q2307.63 1497.61 2309.44 1494.07 Q2311.26 1490.5 2311.26 1483.4 Q2311.26 1476.27 2309.44 1472.73 Q2307.63 1469.16 2304 1469.16 M2304 1465.46 Q2309.81 1465.46 2312.86 1470.06 Q2315.94 1474.65 2315.94 1483.4 Q2315.94 1492.12 2312.86 1496.73 Q2309.81 1501.31 2304 1501.31 Q2298.19 1501.31 2295.11 1496.73 Q2292.05 1492.12 2292.05 1483.4 Q2292.05 1474.65 2295.11 1470.06 Q2298.19 1465.46 2304 1465.46 Z" fill="#000000" fill-rule="evenodd" fill-opacity="1" /><path clip-path="url(#clip380)" d="M 0 0 M139.456 1265.15 Q135.845 1265.15 134.017 1268.71 Q132.211 1272.25 132.211 1279.38 Q132.211 1286.49 134.017 1290.05 Q135.845 1293.6 139.456 1293.6 Q143.091 1293.6 144.896 1290.05 Q146.725 1286.49 146.725 1279.38 Q146.725 1272.25 144.896 1268.71 Q143.091 1265.15 139.456 1265.15 M139.456 1261.44 Q145.266 1261.44 148.322 1266.05 Q151.401 1270.63 151.401 1279.38 Q151.401 1288.11 148.322 1292.72 Q145.266 1297.3 139.456 1297.3 Q133.646 1297.3 130.567 1292.72 Q127.512 1288.11 127.512 1279.38 Q127.512 1270.63 130.567 1266.05 Q133.646 1261.44 139.456 1261.44 Z" fill="#000000" fill-rule="evenodd" fill-opacity="1" /><path clip-path="url(#clip380)" d="M 0 0 M156.47 1290.75 L161.354 1290.75 L161.354 1296.63 L156.47 1296.63 L156.47 1290.75 Z" fill="#000000" fill-rule="evenodd" fill-opacity="1" /><path clip-path="url(#clip380)" d="M 0 0 M167.234 1292.69 L174.873 1292.69 L174.873 1266.33 L166.563 1267.99 L166.563 1263.73 L174.826 1262.07 L179.502 1262.07 L179.502 1292.69 L187.141 1292.69 L187.141 1296.63 L167.234 1296.63 L167.234 1292.69 Z" fill="#000000" fill-rule="evenodd" fill-opacity="1" /><path clip-path="url(#clip380)" d="M 0 0 M139.827 1071.43 Q136.216 1071.43 134.387 1075 Q132.581 1078.54 132.581 1085.67 Q132.581 1092.78 134.387 1096.34 Q136.216 1099.88 139.827 1099.88 Q143.461 1099.88 145.266 1096.34 Q147.095 1092.78 147.095 1085.67 Q147.095 1078.54 145.266 1075 Q143.461 1071.43 139.827 1071.43 M139.827 1067.73 Q145.637 1067.73 148.692 1072.34 Q151.771 1076.92 151.771 1085.67 Q151.771 1094.4 148.692 1099 Q145.637 1103.59 139.827 1103.59 Q134.017 1103.59 130.938 1099 Q127.882 1094.4 127.882 1085.67 Q127.882 1076.92 130.938 1072.34 Q134.017 1067.73 139.827 1067.73 Z" fill="#000000" fill-rule="evenodd" fill-opacity="1" /><path clip-path="url(#clip380)" d="M 0 0 M156.84 1097.04 L161.725 1097.04 L161.725 1102.92 L156.84 1102.92 L156.84 1097.04 Z" fill="#000000" fill-rule="evenodd" fill-opacity="1" /><path clip-path="url(#clip380)" d="M 0 0 M170.822 1098.98 L187.141 1098.98 L187.141 1102.92 L165.197 1102.92 L165.197 1098.98 Q167.859 1096.23 172.442 1091.6 Q177.049 1086.94 178.229 1085.6 Q180.475 1083.08 181.354 1081.34 Q182.257 1079.58 182.257 1077.89 Q182.257 1075.14 180.313 1073.4 Q178.391 1071.67 175.289 1071.67 Q173.09 1071.67 170.637 1072.43 Q168.206 1073.19 165.428 1074.74 L165.428 1070.02 Q168.252 1068.89 170.706 1068.31 Q173.16 1067.73 175.197 1067.73 Q180.567 1067.73 183.762 1070.42 Q186.956 1073.1 186.956 1077.59 Q186.956 1079.72 186.146 1081.64 Q185.359 1083.54 183.252 1086.13 Q182.674 1086.8 179.572 1090.02 Q176.47 1093.22 170.822 1098.98 Z" fill="#000000" fill-rule="evenodd" fill-opacity="1" /><path clip-path="url(#clip380)" d="M 0 0 M138.878 877.722 Q135.267 877.722 133.438 881.287 Q131.632 884.828 131.632 891.958 Q131.632 899.065 133.438 902.629 Q135.267 906.171 138.878 906.171 Q142.512 906.171 144.317 902.629 Q146.146 899.065 146.146 891.958 Q146.146 884.828 144.317 881.287 Q142.512 877.722 138.878 877.722 M138.878 874.018 Q144.688 874.018 147.743 878.625 Q150.822 883.208 150.822 891.958 Q150.822 900.685 147.743 905.291 Q144.688 909.875 138.878 909.875 Q133.067 909.875 129.989 905.291 Q126.933 900.685 126.933 891.958 Q126.933 883.208 129.989 878.625 Q133.067 874.018 138.878 874.018 Z" fill="#000000" fill-rule="evenodd" fill-opacity="1" /><path clip-path="url(#clip380)" d="M 0 0 M155.891 903.324 L160.776 903.324 L160.776 909.203 L155.891 909.203 L155.891 903.324 Z" fill="#000000" fill-rule="evenodd" fill-opacity="1" /><path clip-path="url(#clip380)" d="M 0 0 M180.012 890.569 Q183.368 891.287 185.243 893.555 Q187.141 895.824 187.141 899.157 Q187.141 904.273 183.623 907.074 Q180.104 909.875 173.623 909.875 Q171.447 909.875 169.132 909.435 Q166.84 909.018 164.387 908.162 L164.387 903.648 Q166.331 904.782 168.646 905.361 Q170.961 905.939 173.484 905.939 Q177.882 905.939 180.174 904.203 Q182.488 902.467 182.488 899.157 Q182.488 896.102 180.336 894.389 Q178.206 892.653 174.387 892.653 L170.359 892.653 L170.359 888.81 L174.572 888.81 Q178.021 888.81 179.85 887.444 Q181.678 886.055 181.678 883.463 Q181.678 880.801 179.78 879.389 Q177.905 877.954 174.387 877.954 Q172.465 877.954 170.266 878.37 Q168.067 878.787 165.428 879.666 L165.428 875.5 Q168.09 874.759 170.405 874.389 Q172.743 874.018 174.803 874.018 Q180.127 874.018 183.229 876.449 Q186.331 878.856 186.331 882.977 Q186.331 885.847 184.688 887.838 Q183.044 889.805 180.012 890.569 Z" fill="#000000" fill-rule="evenodd" fill-opacity="1" /><path clip-path="url(#clip380)" d="M 0 0 M137.743 684.01 Q134.132 684.01 132.304 687.574 Q130.498 691.116 130.498 698.246 Q130.498 705.352 132.304 708.917 Q134.132 712.459 137.743 712.459 Q141.378 712.459 143.183 708.917 Q145.012 705.352 145.012 698.246 Q145.012 691.116 143.183 687.574 Q141.378 684.01 137.743 684.01 M137.743 680.306 Q143.554 680.306 146.609 684.912 Q149.688 689.496 149.688 698.246 Q149.688 706.973 146.609 711.579 Q143.554 716.162 137.743 716.162 Q131.933 716.162 128.855 711.579 Q125.799 706.973 125.799 698.246 Q125.799 689.496 128.855 684.912 Q131.933 680.306 137.743 680.306 Z" fill="#000000" fill-rule="evenodd" fill-opacity="1" /><path clip-path="url(#clip380)" d="M 0 0 M154.757 709.611 L159.641 709.611 L159.641 715.491 L154.757 715.491 L154.757 709.611 Z" fill="#000000" fill-rule="evenodd" fill-opacity="1" /><path clip-path="url(#clip380)" d="M 0 0 M177.558 685.005 L165.752 703.454 L177.558 703.454 L177.558 685.005 M176.331 680.931 L182.211 680.931 L182.211 703.454 L187.141 703.454 L187.141 707.343 L182.211 707.343 L182.211 715.491 L177.558 715.491 L177.558 707.343 L161.956 707.343 L161.956 702.829 L176.331 680.931 Z" fill="#000000" fill-rule="evenodd" fill-opacity="1" /><path clip-path="url(#clip380)" d="M 0 0 M139.225 490.297 Q135.614 490.297 133.785 493.862 Q131.98 497.404 131.98 504.533 Q131.98 511.64 133.785 515.205 Q135.614 518.746 139.225 518.746 Q142.859 518.746 144.665 515.205 Q146.493 511.64 146.493 504.533 Q146.493 497.404 144.665 493.862 Q142.859 490.297 139.225 490.297 M139.225 486.594 Q145.035 486.594 148.091 491.2 Q151.169 495.783 151.169 504.533 Q151.169 513.26 148.091 517.867 Q145.035 522.45 139.225 522.45 Q133.415 522.45 130.336 517.867 Q127.28 513.26 127.28 504.533 Q127.28 495.783 130.336 491.2 Q133.415 486.594 139.225 486.594 Z" fill="#000000" fill-rule="evenodd" fill-opacity="1" /><path clip-path="url(#clip380)" d="M 0 0 M156.239 515.899 L161.123 515.899 L161.123 521.779 L156.239 521.779 L156.239 515.899 Z" fill="#000000" fill-rule="evenodd" fill-opacity="1" /><path clip-path="url(#clip380)" d="M 0 0 M166.239 487.219 L184.595 487.219 L184.595 491.154 L170.521 491.154 L170.521 499.626 Q171.539 499.279 172.558 499.117 Q173.577 498.932 174.595 498.932 Q180.382 498.932 183.762 502.103 Q187.141 505.274 187.141 510.691 Q187.141 516.269 183.669 519.371 Q180.197 522.45 173.877 522.45 Q171.702 522.45 169.433 522.08 Q167.188 521.709 164.78 520.968 L164.78 516.269 Q166.864 517.404 169.086 517.959 Q171.308 518.515 173.785 518.515 Q177.789 518.515 180.127 516.408 Q182.465 514.302 182.465 510.691 Q182.465 507.08 180.127 504.973 Q177.789 502.867 173.785 502.867 Q171.91 502.867 170.035 503.283 Q168.183 503.7 166.239 504.58 L166.239 487.219 Z" fill="#000000" fill-rule="evenodd" fill-opacity="1" /><path clip-path="url(#clip380)" d="M 0 0 M138.067 296.585 Q134.456 296.585 132.628 300.15 Q130.822 303.691 130.822 310.821 Q130.822 317.927 132.628 321.492 Q134.456 325.034 138.067 325.034 Q141.702 325.034 143.507 321.492 Q145.336 317.927 145.336 310.821 Q145.336 303.691 143.507 300.15 Q141.702 296.585 138.067 296.585 M138.067 292.881 Q143.878 292.881 146.933 297.488 Q150.012 302.071 150.012 310.821 Q150.012 319.548 146.933 324.154 Q143.878 328.738 138.067 328.738 Q132.257 328.738 129.179 324.154 Q126.123 319.548 126.123 310.821 Q126.123 302.071 129.179 297.488 Q132.257 292.881 138.067 292.881 Z" fill="#000000" fill-rule="evenodd" fill-opacity="1" /><path clip-path="url(#clip380)" d="M 0 0 M155.081 322.187 L159.965 322.187 L159.965 328.066 L155.081 328.066 L155.081 322.187 Z" fill="#000000" fill-rule="evenodd" fill-opacity="1" /><path clip-path="url(#clip380)" d="M 0 0 M175.614 308.923 Q172.465 308.923 170.614 311.076 Q168.785 313.228 168.785 316.978 Q168.785 320.705 170.614 322.881 Q172.465 325.034 175.614 325.034 Q178.762 325.034 180.59 322.881 Q182.442 320.705 182.442 316.978 Q182.442 313.228 180.59 311.076 Q178.762 308.923 175.614 308.923 M184.896 294.27 L184.896 298.529 Q183.137 297.696 181.331 297.256 Q179.549 296.816 177.789 296.816 Q173.16 296.816 170.706 299.941 Q168.276 303.066 167.928 309.386 Q169.294 307.372 171.354 306.307 Q173.414 305.219 175.891 305.219 Q181.1 305.219 184.109 308.39 Q187.141 311.539 187.141 316.978 Q187.141 322.302 183.993 325.52 Q180.845 328.738 175.614 328.738 Q169.618 328.738 166.447 324.154 Q163.276 319.548 163.276 310.821 Q163.276 302.627 167.165 297.765 Q171.053 292.881 177.604 292.881 Q179.364 292.881 181.146 293.228 Q182.951 293.576 184.896 294.27 Z" fill="#000000" fill-rule="evenodd" fill-opacity="1" /><path clip-path="url(#clip380)" d="M 0 0 M139.132 102.873 Q135.521 102.873 133.692 106.437 Q131.887 109.979 131.887 117.109 Q131.887 124.215 133.692 127.78 Q135.521 131.322 139.132 131.322 Q142.766 131.322 144.572 127.78 Q146.401 124.215 146.401 117.109 Q146.401 109.979 144.572 106.437 Q142.766 102.873 139.132 102.873 M139.132 99.1689 Q144.942 99.1689 147.998 103.775 Q151.077 108.359 151.077 117.109 Q151.077 125.835 147.998 130.442 Q144.942 135.025 139.132 135.025 Q133.322 135.025 130.243 130.442 Q127.188 125.835 127.188 117.109 Q127.188 108.359 130.243 103.775 Q133.322 99.1689 139.132 99.1689 Z" fill="#000000" fill-rule="evenodd" fill-opacity="1" /><path clip-path="url(#clip380)" d="M 0 0 M156.146 128.474 L161.03 128.474 L161.03 134.354 L156.146 134.354 L156.146 128.474 Z" fill="#000000" fill-rule="evenodd" fill-opacity="1" /><path clip-path="url(#clip380)" d="M 0 0 M164.919 99.7939 L187.141 99.7939 L187.141 101.785 L174.595 134.354 L169.711 134.354 L181.516 103.729 L164.919 103.729 L164.919 99.7939 Z" fill="#000000" fill-rule="evenodd" fill-opacity="1" /><path clip-path="url(#clip380)" d="M 0 0 M1296.11 1527.48 Q1296.11 1529.28 1294.98 1530.31 Q1293.85 1531.31 1292.57 1531.31 Q1291.34 1531.31 1290.7 1530.6 Q1290.05 1529.89 1290.05 1528.99 Q1290.05 1527.77 1290.96 1526.7 Q1291.86 1525.64 1293.21 1525.42 Q1291.89 1524.58 1289.93 1524.58 Q1288.64 1524.58 1287.51 1525.26 Q1286.41 1525.93 1285.74 1526.8 Q1285.09 1527.67 1284.51 1528.93 Q1283.97 1530.15 1283.74 1530.89 Q1283.55 1531.6 1283.39 1532.37 L1281.13 1541.39 Q1280.04 1545.67 1280.04 1547.19 Q1280.04 1549.06 1280.94 1550.31 Q1281.84 1551.54 1283.64 1551.54 Q1284.35 1551.54 1285.16 1551.34 Q1285.96 1551.12 1286.99 1550.54 Q1288.06 1549.93 1288.99 1549.02 Q1289.96 1548.09 1290.89 1546.51 Q1291.83 1544.93 1292.44 1542.9 Q1292.63 1542.2 1293.27 1542.2 Q1294.08 1542.2 1294.08 1542.84 Q1294.08 1543.39 1293.63 1544.55 Q1293.21 1545.67 1292.28 1547.16 Q1291.37 1548.6 1290.18 1549.93 Q1288.99 1551.21 1287.22 1552.12 Q1285.45 1553.02 1283.52 1553.02 Q1280.75 1553.02 1278.91 1551.54 Q1277.07 1550.05 1276.4 1547.99 Q1276.24 1548.28 1276.01 1548.67 Q1275.79 1549.06 1275.11 1549.93 Q1274.47 1550.76 1273.73 1551.41 Q1272.98 1552.02 1271.83 1552.5 Q1270.7 1553.02 1269.47 1553.02 Q1267.93 1553.02 1266.54 1552.57 Q1265.19 1552.12 1264.22 1551.08 Q1263.26 1550.05 1263.26 1548.64 Q1263.26 1547.06 1264.32 1545.96 Q1265.42 1544.84 1266.9 1544.84 Q1267.83 1544.84 1268.57 1545.38 Q1269.35 1545.93 1269.35 1547.12 Q1269.35 1548.44 1268.44 1549.44 Q1267.54 1550.44 1266.25 1550.7 Q1267.57 1551.54 1269.54 1551.54 Q1271.66 1551.54 1273.34 1549.67 Q1275.01 1547.8 1275.82 1544.68 Q1277.82 1537.17 1278.59 1533.82 Q1279.36 1530.44 1279.36 1528.99 Q1279.36 1527.64 1279.01 1526.7 Q1278.65 1525.77 1278.04 1525.35 Q1277.46 1524.9 1276.91 1524.74 Q1276.4 1524.58 1275.82 1524.58 Q1274.85 1524.58 1273.76 1524.97 Q1272.69 1525.35 1271.41 1526.25 Q1270.15 1527.12 1268.96 1528.93 Q1267.77 1530.73 1266.96 1533.21 Q1266.8 1533.95 1266.09 1533.95 Q1265.32 1533.92 1265.32 1533.27 Q1265.32 1532.73 1265.74 1531.6 Q1266.19 1530.44 1267.09 1528.99 Q1268.03 1527.54 1269.22 1526.25 Q1270.44 1524.93 1272.21 1524.03 Q1274.02 1523.13 1275.95 1523.13 Q1276.82 1523.13 1277.65 1523.32 Q1278.52 1523.48 1279.55 1523.97 Q1280.62 1524.45 1281.55 1525.51 Q1282.49 1526.58 1283.07 1528.12 Q1283.45 1527.38 1283.97 1526.67 Q1284.51 1525.96 1285.35 1525.09 Q1286.22 1524.19 1287.41 1523.68 Q1288.64 1523.13 1289.99 1523.13 Q1291.31 1523.13 1292.6 1523.48 Q1293.89 1523.81 1294.98 1524.87 Q1296.11 1525.9 1296.11 1527.48 Z" fill="#000000" fill-rule="evenodd" fill-opacity="1" /><path clip-path="url(#clip380)" d="M 0 0 M60.8835 732.781 Q61.3344 732.781 62.3972 733.071 L87.5821 739.384 Q93.186 740.768 97.1151 745.277 Q101.044 749.754 101.044 754.842 Q101.044 757.902 99.4017 759.866 Q97.7914 761.831 95.3115 761.831 Q93.1216 761.831 92.0588 760.672 Q91.0282 759.512 91.0282 758.127 Q91.0282 757.676 91.157 757.193 Q91.2858 756.71 91.8333 756.195 Q92.3808 755.68 93.3148 755.68 Q94.8285 755.68 96.0201 757 Q96.5676 757.644 96.6964 758.256 Q96.8252 758.836 96.8252 759.834 Q97.727 759.448 98.3389 758.739 Q98.9508 758.031 99.1763 757.226 Q99.4339 756.42 99.4983 755.905 Q99.5949 755.358 99.5949 754.842 Q99.5949 750.72 95.4404 747.564 Q94.1843 746.63 92.9283 745.953 Q91.7045 745.245 90.1908 744.73 Q88.7093 744.214 87.9042 743.989 Q87.0991 743.731 85.2633 743.28 Q88.2585 746.276 88.2585 749.947 Q88.2585 751.493 87.8398 752.878 Q87.4211 754.23 86.5516 755.422 Q85.6498 756.614 84.0717 757.322 Q82.4936 757.998 80.4002 757.998 Q78.178 757.998 75.1507 757.129 Q72.1233 756.259 66.5517 754.166 Q63.4277 753.039 61.9141 753.039 Q61.1733 753.039 60.7225 753.2 Q60.2394 753.361 60.0783 753.683 Q59.8851 754.005 59.8529 754.198 Q59.8207 754.359 59.8207 754.681 Q59.8207 756.581 61.753 758.353 Q63.6854 760.124 68.001 761.348 Q68.8061 761.606 68.9994 761.767 Q69.1926 761.928 69.1926 762.411 Q69.1604 763.216 68.5163 763.216 Q68.2586 763.216 67.2602 762.926 Q66.2297 762.636 64.716 761.96 Q63.1701 761.251 61.7852 760.285 Q60.3682 759.319 59.3698 757.805 Q58.3714 756.259 58.3714 754.488 Q58.3714 752.073 59.9495 750.591 Q61.4954 749.077 63.782 749.077 Q64.716 749.077 65.5533 749.335 Q66.3585 749.561 68.5163 750.398 Q77.2119 753.78 81.463 753.78 Q82.4936 753.78 83.3632 753.618 Q84.2005 753.425 85.0379 753.007 Q85.843 752.588 86.3261 751.751 Q86.777 750.881 86.777 749.689 Q86.777 748.176 86.0685 746.759 Q85.3277 745.309 84.3294 744.408 Q83.331 743.474 82.4936 742.926 Q81.6241 742.346 81.1732 742.218 L69.3214 739.255 L64.0397 737.934 Q61.1733 737.322 60.4648 737.032 Q59.7885 736.646 59.4342 735.97 Q59.08 735.293 59.08 734.714 Q59.08 733.909 59.563 733.361 Q60.0461 732.781 60.8835 732.781 Z" fill="#000000" fill-rule="evenodd" fill-opacity="1" /><polyline clip-path="url(#clip382)" style="stroke:#009af9; stroke-width:4; stroke-opacity:1; fill:none" points="
  271.753,86.8647 496.241,547.991 720.729,607.039 945.217,976.919 1169.7,1181.55 1394.19,640.581 1618.68,1163.59 1843.17,1058.39 2067.66,1407.55 2292.14,613.664 
  
  "/>
<path clip-path="url(#clip380)" d="
M1989.74 251.724 L2280.76 251.724 L2280.76 130.764 L1989.74 130.764  Z
  " fill="#ffffff" fill-rule="evenodd" fill-opacity="1"/>
<polyline clip-path="url(#clip380)" style="stroke:#000000; stroke-width:4; stroke-opacity:1; fill:none" points="
  1989.74,251.724 2280.76,251.724 2280.76,130.764 1989.74,130.764 1989.74,251.724 
  "/>
<polyline clip-path="url(#clip380)" style="stroke:#009af9; stroke-width:4; stroke-opacity:1; fill:none" points="
  2013.74,191.244 2157.74,191.244 
  "/>
<path clip-path="url(#clip380)" d="M 0 0 M2195.58 210.931 Q2193.77 215.561 2192.06 216.973 Q2190.35 218.385 2187.48 218.385 L2184.08 218.385 L2184.08 214.82 L2186.58 214.82 Q2188.33 214.82 2189.31 213.987 Q2190.28 213.154 2191.46 210.052 L2192.22 208.107 L2181.74 182.598 L2186.25 182.598 L2194.35 202.876 L2202.46 182.598 L2206.97 182.598 L2195.58 210.931 Z" fill="#000000" fill-rule="evenodd" fill-opacity="1" /><path clip-path="url(#clip380)" d="M 0 0 M2212.85 204.589 L2220.49 204.589 L2220.49 178.223 L2212.18 179.89 L2212.18 175.631 L2220.44 173.964 L2225.12 173.964 L2225.12 204.589 L2232.76 204.589 L2232.76 208.524 L2212.85 208.524 L2212.85 204.589 Z" fill="#000000" fill-rule="evenodd" fill-opacity="1" /></svg>
