<?xml version="1.0" encoding="utf-8"?>
<svg xmlns="http://www.w3.org/2000/svg" xmlns:xlink="http://www.w3.org/1999/xlink" width="600" height="400" viewBox="0 0 2400 1600">
<defs>
  <clipPath id="clip480">
    <rect x="0" y="0" width="2400" height="1600"/>
  </clipPath>
</defs>
<path clip-path="url(#clip480)" d="
M0 1600 L2400 1600 L2400 0 L0 0  Z
  " fill="#ffffff" fill-rule="evenodd" fill-opacity="1"/>
<defs>
  <clipPath id="clip481">
    <rect x="480" y="0" width="1681" height="1600"/>
  </clipPath>
</defs>
<path clip-path="url(#clip480)" d="
M211.141 1447.17 L2352.76 1447.17 L2352.76 86.5215 L211.141 86.5215  Z
  " fill="#ffffff" fill-rule="evenodd" fill-opacity="1"/>
<defs>
  <clipPath id="clip482">
    <rect x="211" y="86" width="2143" height="1362"/>
  </clipPath>
</defs>
<polyline clip-path="url(#clip482)" style="stroke:#000000; stroke-width:2; stroke-opacity:0.1; fill:none" points="
  496.241,1447.17 496.241,86.5215 
  "/>
<polyline clip-path="url(#clip482)" style="stroke:#000000; stroke-width:2; stroke-opacity:0.1; fill:none" points="
  945.217,1447.17 945.217,86.5215 
  "/>
<polyline clip-path="url(#clip482)" style="stroke:#000000; stroke-width:2; stroke-opacity:0.1; fill:none" points="
  1394.19,1447.17 1394.19,86.5215 
  "/>
<polyline clip-path="url(#clip482)" style="stroke:#000000; stroke-width:2; stroke-opacity:0.1; fill:none" points="
  1843.17,1447.17 1843.17,86.5215 
  "/>
<polyline clip-path="url(#clip482)" style="stroke:#000000; stroke-width:2; stroke-opacity:0.1; fill:none" points="
  2292.14,1447.17 2292.14,86.5215 
  "/>
<polyline clip-path="url(#clip482)" style="stroke:#000000; stroke-width:2; stroke-opacity:0.1; fill:none" points="
  211.141,1410.17 2352.76,1410.17 
  "/>
<polyline clip-path="url(#clip482)" style="stroke:#000000; stroke-width:2; stroke-opacity:0.1; fill:none" points="
  211.141,1138.17 2352.76,1138.17 
  "/>
<polyline clip-path="url(#clip482)" style="stroke:#000000; stroke-width:2; stroke-opacity:0.1; fill:none" points="
  211.141,866.172 2352.76,866.172 
  "/>
<polyline clip-path="url(#clip482)" style="stroke:#000000; stroke-width:2; stroke-opacity:0.1; fill:none" points="
  211.141,594.176 2352.76,594.176 
  "/>
<polyline clip-path="url(#clip482)" style="stroke:#000000; stroke-width:2; stroke-opacity:0.1; fill:none" points="
  211.141,322.179 2352.76,322.179 
  "/>
<polyline clip-path="url(#clip480)" style="stroke:#000000; stroke-width:4; stroke-opacity:1; fill:none" points="
  211.141,1447.17 2352.76,1447.17 
  "/>
<polyline clip-path="url(#clip480)" style="stroke:#000000; stroke-width:4; stroke-opacity:1; fill:none" points="
  211.141,1447.17 211.141,86.5215 
  "/>
<polyline clip-path="url(#clip480)" style="stroke:#000000; stroke-width:4; stroke-opacity:1; fill:none" points="
  496.241,1447.17 496.241,1430.84 
  "/>
<polyline clip-path="url(#clip480)" style="stroke:#000000; stroke-width:4; stroke-opacity:1; fill:none" points="
  945.217,1447.17 945.217,1430.84 
  "/>
<polyline clip-path="url(#clip480)" style="stroke:#000000; stroke-width:4; stroke-opacity:1; fill:none" points="
  1394.19,1447.17 1394.19,1430.84 
  "/>
<polyline clip-path="url(#clip480)" style="stroke:#000000; stroke-width:4; stroke-opacity:1; fill:none" points="
  1843.17,1447.17 1843.17,1430.84 
  "/>
<polyline clip-path="url(#clip480)" style="stroke:#000000; stroke-width:4; stroke-opacity:1; fill:none" points="
  2292.14,1447.17 2292.14,1430.84 
  "/>
<polyline clip-path="url(#clip480)" style="stroke:#000000; stroke-width:4; stroke-opacity:1; fill:none" points="
  211.141,1410.17 236.841,1410.17 
  "/>
<polyline clip-path="url(#clip480)" style="stroke:#000000; stroke-width:4; stroke-opacity:1; fill:none" points="
  211.141,1138.17 236.841,1138.17 
  "/>
<polyline clip-path="url(#clip480)" style="stroke:#000000; stroke-width:4; stroke-opacity:1; fill:none" points="
  211.141,866.172 236.841,866.172 
  "/>
<polyline clip-path="url(#clip480)" style="stroke:#000000; stroke-width:4; stroke-opacity:1; fill:none" points="
  211.141,594.176 236.841,594.176 
  "/>
<polyline clip-path="url(#clip480)" style="stroke:#000000; stroke-width:4; stroke-opacity:1; fill:none" points="
  211.141,322.179 236.841,322.179 
  "/>
<path clip-path="url(#clip480)" d="M 0 0 M490.894 1496.71 L507.213 1496.71 L507.213 1500.64 L485.269 1500.64 L485.269 1496.71 Q487.931 1493.95 492.514 1489.32 Q497.121 1484.67 498.301 1483.33 Q500.546 1480.8 501.426 1479.07 Q502.329 1477.31 502.329 1475.62 Q502.329 1472.86 500.384 1471.13 Q498.463 1469.39 495.361 1469.39 Q493.162 1469.39 490.709 1470.16 Q488.278 1470.92 485.5 1472.47 L485.5 1467.75 Q488.324 1466.61 490.778 1466.04 Q493.232 1465.46 495.269 1465.46 Q500.639 1465.46 503.833 1468.14 Q507.028 1470.83 507.028 1475.32 Q507.028 1477.45 506.218 1479.37 Q505.431 1481.27 503.324 1483.86 Q502.745 1484.53 499.644 1487.75 Q496.542 1490.94 490.894 1496.71 Z" fill="#000000" fill-rule="evenodd" fill-opacity="1" /><path clip-path="url(#clip480)" d="M 0 0 M948.226 1470.16 L936.42 1488.61 L948.226 1488.61 L948.226 1470.16 M946.999 1466.08 L952.879 1466.08 L952.879 1488.61 L957.809 1488.61 L957.809 1492.49 L952.879 1492.49 L952.879 1500.64 L948.226 1500.64 L948.226 1492.49 L932.624 1492.49 L932.624 1487.98 L946.999 1466.08 Z" fill="#000000" fill-rule="evenodd" fill-opacity="1" /><path clip-path="url(#clip480)" d="M 0 0 M1394.6 1481.5 Q1391.45 1481.5 1389.6 1483.65 Q1387.77 1485.8 1387.77 1489.55 Q1387.77 1493.28 1389.6 1495.46 Q1391.45 1497.61 1394.6 1497.61 Q1397.75 1497.61 1399.57 1495.46 Q1401.43 1493.28 1401.43 1489.55 Q1401.43 1485.8 1399.57 1483.65 Q1397.75 1481.5 1394.6 1481.5 M1403.88 1466.85 L1403.88 1471.11 Q1402.12 1470.27 1400.32 1469.83 Q1398.53 1469.39 1396.77 1469.39 Q1392.14 1469.39 1389.69 1472.52 Q1387.26 1475.64 1386.91 1481.96 Q1388.28 1479.95 1390.34 1478.88 Q1392.4 1477.8 1394.88 1477.8 Q1400.08 1477.8 1403.09 1480.97 Q1406.13 1484.11 1406.13 1489.55 Q1406.13 1494.88 1402.98 1498.1 Q1399.83 1501.31 1394.6 1501.31 Q1388.6 1501.31 1385.43 1496.73 Q1382.26 1492.12 1382.26 1483.4 Q1382.26 1475.2 1386.15 1470.34 Q1390.04 1465.46 1396.59 1465.46 Q1398.35 1465.46 1400.13 1465.8 Q1401.94 1466.15 1403.88 1466.85 Z" fill="#000000" fill-rule="evenodd" fill-opacity="1" /><path clip-path="url(#clip480)" d="M 0 0 M1843.17 1484.23 Q1839.84 1484.23 1837.91 1486.01 Q1836.02 1487.8 1836.02 1490.92 Q1836.02 1494.05 1837.91 1495.83 Q1839.84 1497.61 1843.17 1497.61 Q1846.5 1497.61 1848.42 1495.83 Q1850.34 1494.02 1850.34 1490.92 Q1850.34 1487.8 1848.42 1486.01 Q1846.52 1484.23 1843.17 1484.23 M1838.49 1482.24 Q1835.48 1481.5 1833.79 1479.44 Q1832.13 1477.38 1832.13 1474.42 Q1832.13 1470.27 1835.07 1467.86 Q1838.03 1465.46 1843.17 1465.46 Q1848.33 1465.46 1851.27 1467.86 Q1854.21 1470.27 1854.21 1474.42 Q1854.21 1477.38 1852.52 1479.44 Q1850.85 1481.5 1847.87 1482.24 Q1851.25 1483.03 1853.12 1485.32 Q1855.02 1487.61 1855.02 1490.92 Q1855.02 1495.94 1851.94 1498.63 Q1848.89 1501.31 1843.17 1501.31 Q1837.45 1501.31 1834.37 1498.63 Q1831.32 1495.94 1831.32 1490.92 Q1831.32 1487.61 1833.21 1485.32 Q1835.11 1483.03 1838.49 1482.24 M1836.78 1474.86 Q1836.78 1477.54 1838.45 1479.05 Q1840.14 1480.55 1843.17 1480.55 Q1846.18 1480.55 1847.87 1479.05 Q1849.58 1477.54 1849.58 1474.86 Q1849.58 1472.17 1847.87 1470.67 Q1846.18 1469.16 1843.17 1469.16 Q1840.14 1469.16 1838.45 1470.67 Q1836.78 1472.17 1836.78 1474.86 Z" fill="#000000" fill-rule="evenodd" fill-opacity="1" /><path clip-path="url(#clip480)" d="M 0 0 M2269.02 1496.71 L2276.66 1496.71 L2276.66 1470.34 L2268.35 1472.01 L2268.35 1467.75 L2276.61 1466.08 L2281.29 1466.08 L2281.29 1496.71 L2288.93 1496.71 L2288.93 1500.64 L2269.02 1500.64 L2269.02 1496.71 Z" fill="#000000" fill-rule="evenodd" fill-opacity="1" /><path clip-path="url(#clip480)" d="M 0 0 M2304 1469.16 Q2300.38 1469.16 2298.56 1472.73 Q2296.75 1476.27 2296.75 1483.4 Q2296.75 1490.5 2298.56 1494.07 Q2300.38 1497.61 2304 1497.61 Q2307.63 1497.61 2309.44 1494.07 Q2311.26 1490.5 2311.26 1483.4 Q2311.26 1476.27 2309.44 1472.73 Q2307.63 1469.16 2304 1469.16 M2304 1465.46 Q2309.81 1465.46 2312.86 1470.06 Q2315.94 1474.65 2315.94 1483.4 Q2315.94 1492.12 2312.86 1496.73 Q2309.81 1501.31 2304 1501.31 Q2298.19 1501.31 2295.11 1496.73 Q2292.05 1492.12 2292.05 1483.4 Q2292.05 1474.65 2295.11 1470.06 Q2298.19 1465.46 2304 1465.46 Z" fill="#000000" fill-rule="evenodd" fill-opacity="1" /><path clip-path="url(#clip480)" d="M 0 0 M138.229 1395.96 Q134.618 1395.96 132.79 1399.53 Q130.984 1403.07 130.984 1410.2 Q130.984 1417.31 132.79 1420.87 Q134.618 1424.41 138.229 1424.41 Q141.864 1424.41 143.669 1420.87 Q145.498 1417.31 145.498 1410.2 Q145.498 1403.07 143.669 1399.53 Q141.864 1395.96 138.229 1395.96 M138.229 1392.26 Q144.04 1392.26 147.095 1396.87 Q150.174 1401.45 150.174 1410.2 Q150.174 1418.93 147.095 1423.53 Q144.04 1428.12 138.229 1428.12 Q132.419 1428.12 129.341 1423.53 Q126.285 1418.93 126.285 1410.2 Q126.285 1401.45 129.341 1396.87 Q132.419 1392.26 138.229 1392.26 Z" fill="#000000" fill-rule="evenodd" fill-opacity="1" /><path clip-path="url(#clip480)" d="M 0 0 M155.243 1421.57 L160.128 1421.57 L160.128 1427.45 L155.243 1427.45 L155.243 1421.57 Z" fill="#000000" fill-rule="evenodd" fill-opacity="1" /><path clip-path="url(#clip480)" d="M 0 0 M175.197 1395.96 Q171.586 1395.96 169.757 1399.53 Q167.952 1403.07 167.952 1410.2 Q167.952 1417.31 169.757 1420.87 Q171.586 1424.41 175.197 1424.41 Q178.831 1424.41 180.637 1420.87 Q182.465 1417.31 182.465 1410.2 Q182.465 1403.07 180.637 1399.53 Q178.831 1395.96 175.197 1395.96 M175.197 1392.26 Q181.007 1392.26 184.063 1396.87 Q187.141 1401.45 187.141 1410.2 Q187.141 1418.93 184.063 1423.53 Q181.007 1428.12 175.197 1428.12 Q169.387 1428.12 166.308 1423.53 Q163.252 1418.93 163.252 1410.2 Q163.252 1401.45 166.308 1396.87 Q169.387 1392.26 175.197 1392.26 Z" fill="#000000" fill-rule="evenodd" fill-opacity="1" /><path clip-path="url(#clip480)" d="M 0 0 M139.827 1123.97 Q136.216 1123.97 134.387 1127.53 Q132.581 1131.07 132.581 1138.2 Q132.581 1145.31 134.387 1148.88 Q136.216 1152.42 139.827 1152.42 Q143.461 1152.42 145.266 1148.88 Q147.095 1145.31 147.095 1138.2 Q147.095 1131.07 145.266 1127.53 Q143.461 1123.97 139.827 1123.97 M139.827 1120.26 Q145.637 1120.26 148.692 1124.87 Q151.771 1129.45 151.771 1138.2 Q151.771 1146.93 148.692 1151.54 Q145.637 1156.12 139.827 1156.12 Q134.017 1156.12 130.938 1151.54 Q127.882 1146.93 127.882 1138.2 Q127.882 1129.45 130.938 1124.87 Q134.017 1120.26 139.827 1120.26 Z" fill="#000000" fill-rule="evenodd" fill-opacity="1" /><path clip-path="url(#clip480)" d="M 0 0 M156.84 1149.57 L161.725 1149.57 L161.725 1155.45 L156.84 1155.45 L156.84 1149.57 Z" fill="#000000" fill-rule="evenodd" fill-opacity="1" /><path clip-path="url(#clip480)" d="M 0 0 M170.822 1151.51 L187.141 1151.51 L187.141 1155.45 L165.197 1155.45 L165.197 1151.51 Q167.859 1148.76 172.442 1144.13 Q177.049 1139.48 178.229 1138.13 Q180.475 1135.61 181.354 1133.88 Q182.257 1132.12 182.257 1130.43 Q182.257 1127.67 180.313 1125.94 Q178.391 1124.2 175.289 1124.2 Q173.09 1124.2 170.637 1124.96 Q168.206 1125.73 165.428 1127.28 L165.428 1122.56 Q168.252 1121.42 170.706 1120.84 Q173.16 1120.26 175.197 1120.26 Q180.567 1120.26 183.762 1122.95 Q186.956 1125.63 186.956 1130.13 Q186.956 1132.25 186.146 1134.18 Q185.359 1136.07 183.252 1138.67 Q182.674 1139.34 179.572 1142.56 Q176.47 1145.75 170.822 1151.51 Z" fill="#000000" fill-rule="evenodd" fill-opacity="1" /><path clip-path="url(#clip480)" d="M 0 0 M137.743 851.971 Q134.132 851.971 132.304 855.536 Q130.498 859.077 130.498 866.207 Q130.498 873.314 132.304 876.878 Q134.132 880.42 137.743 880.42 Q141.378 880.42 143.183 876.878 Q145.012 873.314 145.012 866.207 Q145.012 859.077 143.183 855.536 Q141.378 851.971 137.743 851.971 M137.743 848.267 Q143.554 848.267 146.609 852.874 Q149.688 857.457 149.688 866.207 Q149.688 874.934 146.609 879.54 Q143.554 884.124 137.743 884.124 Q131.933 884.124 128.855 879.54 Q125.799 874.934 125.799 866.207 Q125.799 857.457 128.855 852.874 Q131.933 848.267 137.743 848.267 Z" fill="#000000" fill-rule="evenodd" fill-opacity="1" /><path clip-path="url(#clip480)" d="M 0 0 M154.757 877.573 L159.641 877.573 L159.641 883.452 L154.757 883.452 L154.757 877.573 Z" fill="#000000" fill-rule="evenodd" fill-opacity="1" /><path clip-path="url(#clip480)" d="M 0 0 M177.558 852.966 L165.752 871.415 L177.558 871.415 L177.558 852.966 M176.331 848.892 L182.211 848.892 L182.211 871.415 L187.141 871.415 L187.141 875.304 L182.211 875.304 L182.211 883.452 L177.558 883.452 L177.558 875.304 L161.956 875.304 L161.956 870.79 L176.331 848.892 Z" fill="#000000" fill-rule="evenodd" fill-opacity="1" /><path clip-path="url(#clip480)" d="M 0 0 M138.067 579.974 Q134.456 579.974 132.628 583.539 Q130.822 587.081 130.822 594.21 Q130.822 601.317 132.628 604.882 Q134.456 608.423 138.067 608.423 Q141.702 608.423 143.507 604.882 Q145.336 601.317 145.336 594.21 Q145.336 587.081 143.507 583.539 Q141.702 579.974 138.067 579.974 M138.067 576.271 Q143.878 576.271 146.933 580.877 Q150.012 585.46 150.012 594.21 Q150.012 602.937 146.933 607.544 Q143.878 612.127 138.067 612.127 Q132.257 612.127 129.179 607.544 Q126.123 602.937 126.123 594.21 Q126.123 585.46 129.179 580.877 Q132.257 576.271 138.067 576.271 Z" fill="#000000" fill-rule="evenodd" fill-opacity="1" /><path clip-path="url(#clip480)" d="M 0 0 M155.081 605.576 L159.965 605.576 L159.965 611.456 L155.081 611.456 L155.081 605.576 Z" fill="#000000" fill-rule="evenodd" fill-opacity="1" /><path clip-path="url(#clip480)" d="M 0 0 M175.614 592.312 Q172.465 592.312 170.614 594.465 Q168.785 596.618 168.785 600.368 Q168.785 604.095 170.614 606.27 Q172.465 608.423 175.614 608.423 Q178.762 608.423 180.59 606.27 Q182.442 604.095 182.442 600.368 Q182.442 596.618 180.59 594.465 Q178.762 592.312 175.614 592.312 M184.896 577.66 L184.896 581.919 Q183.137 581.085 181.331 580.646 Q179.549 580.206 177.789 580.206 Q173.16 580.206 170.706 583.331 Q168.276 586.456 167.928 592.775 Q169.294 590.761 171.354 589.696 Q173.414 588.609 175.891 588.609 Q181.1 588.609 184.109 591.78 Q187.141 594.928 187.141 600.368 Q187.141 605.692 183.993 608.909 Q180.845 612.127 175.614 612.127 Q169.618 612.127 166.447 607.544 Q163.276 602.937 163.276 594.21 Q163.276 586.016 167.165 581.155 Q171.053 576.271 177.604 576.271 Q179.364 576.271 181.146 576.618 Q182.951 576.965 184.896 577.66 Z" fill="#000000" fill-rule="evenodd" fill-opacity="1" /><path clip-path="url(#clip480)" d="M 0 0 M138.322 307.978 Q134.711 307.978 132.882 311.542 Q131.077 315.084 131.077 322.214 Q131.077 329.32 132.882 332.885 Q134.711 336.427 138.322 336.427 Q141.956 336.427 143.762 332.885 Q145.591 329.32 145.591 322.214 Q145.591 315.084 143.762 311.542 Q141.956 307.978 138.322 307.978 M138.322 304.274 Q144.132 304.274 147.188 308.88 Q150.266 313.464 150.266 322.214 Q150.266 330.94 147.188 335.547 Q144.132 340.13 138.322 340.13 Q132.512 340.13 129.433 335.547 Q126.378 330.94 126.378 322.214 Q126.378 313.464 129.433 308.88 Q132.512 304.274 138.322 304.274 Z" fill="#000000" fill-rule="evenodd" fill-opacity="1" /><path clip-path="url(#clip480)" d="M 0 0 M155.336 333.579 L160.22 333.579 L160.22 339.459 L155.336 339.459 L155.336 333.579 Z" fill="#000000" fill-rule="evenodd" fill-opacity="1" /><path clip-path="url(#clip480)" d="M 0 0 M175.289 323.047 Q171.956 323.047 170.035 324.829 Q168.137 326.612 168.137 329.737 Q168.137 332.862 170.035 334.644 Q171.956 336.427 175.289 336.427 Q178.623 336.427 180.544 334.644 Q182.465 332.839 182.465 329.737 Q182.465 326.612 180.544 324.829 Q178.646 323.047 175.289 323.047 M170.614 321.056 Q167.604 320.316 165.915 318.255 Q164.248 316.195 164.248 313.232 Q164.248 309.089 167.188 306.681 Q170.151 304.274 175.289 304.274 Q180.451 304.274 183.391 306.681 Q186.331 309.089 186.331 313.232 Q186.331 316.195 184.641 318.255 Q182.975 320.316 179.989 321.056 Q183.368 321.843 185.243 324.135 Q187.141 326.427 187.141 329.737 Q187.141 334.76 184.063 337.445 Q181.007 340.13 175.289 340.13 Q169.572 340.13 166.493 337.445 Q163.438 334.76 163.438 329.737 Q163.438 326.427 165.336 324.135 Q167.234 321.843 170.614 321.056 M168.901 313.672 Q168.901 316.357 170.567 317.862 Q172.257 319.366 175.289 319.366 Q178.299 319.366 179.989 317.862 Q181.701 316.357 181.701 313.672 Q181.701 310.987 179.989 309.482 Q178.299 307.978 175.289 307.978 Q172.257 307.978 170.567 309.482 Q168.901 310.987 168.901 313.672 Z" fill="#000000" fill-rule="evenodd" fill-opacity="1" /><path clip-path="url(#clip480)" d="M 0 0 M1302.46 4.53628 Q1302.38 4.94617 1302.21 5.68398 Q1302.05 6.3808 1301.31 8.59422 Q1300.57 10.8076 1299.59 13.0621 Q1298.65 15.2755 1296.8 18.3907 Q1295 21.4649 1292.79 24.2521 Q1292.17 24.9899 1292.05 25.4408 Q1291.97 25.8507 1291.97 27.2034 Q1291.97 35.7291 1294.55 35.7291 Q1294.67 35.7291 1294.88 35.7291 Q1295.12 35.6881 1295.74 35.4832 Q1296.39 35.2373 1296.97 34.8683 Q1297.54 34.4585 1298.2 33.6387 Q1298.85 32.7779 1299.26 31.6302 Q1299.63 30.8104 1300.37 30.8104 Q1301.35 30.8104 1301.35 31.6302 Q1301.35 33.1058 1299.3 35.3602 Q1297.25 37.6146 1294.3 37.6146 Q1291.47 37.6146 1289.47 35.7701 Q1287.5 33.8846 1286.68 30.5235 Q1277.83 37.6146 1268.97 37.6146 Q1262.74 37.6146 1259.05 33.5567 Q1255.36 29.4578 1255.36 23.3913 Q1255.36 17.5709 1258.56 12.0373 Q1261.8 6.50377 1267.05 3.06067 Q1272.33 -0.423422 1277.95 -0.423422 Q1279.92 -0.423422 1281.8 0.109439 Q1283.69 0.60131 1285.57 1.87198 Q1287.46 3.14265 1288.85 5.06914 Q1290.25 6.99564 1291.11 10.0288 Q1291.97 13.0621 1291.97 16.8741 L1291.97 22.0797 Q1297.38 15.2345 1300.21 5.43805 Q1300.62 3.96243 1300.86 3.79847 Q1301.03 3.67551 1301.44 3.67551 Q1301.85 3.67551 1302.09 3.92144 Q1302.38 4.12639 1302.42 4.33133 L1302.46 4.53628 M1286.35 28.3511 Q1286.19 26.9164 1286.19 18.9645 Q1286.19 17.4479 1286.19 16.6281 Q1286.19 15.7673 1286.11 14.1278 Q1286.02 12.4882 1285.86 11.4635 Q1285.74 10.4387 1285.45 8.96312 Q1285.16 7.48751 1284.75 6.54476 Q1284.34 5.602 1283.69 4.53628 Q1283.07 3.47056 1282.25 2.85572 Q1281.47 2.24088 1280.33 1.83099 Q1279.22 1.4211 1277.87 1.4211 Q1276.19 1.4211 1274.42 2.03594 Q1272.7 2.60978 1270.49 4.4543 Q1268.27 6.25783 1266.43 9.12708 Q1264.5 12.1603 1263.03 17.7348 Q1261.59 23.2684 1261.59 26.5885 Q1261.59 30.7694 1263.52 33.2698 Q1265.45 35.7291 1269.14 35.7291 Q1277.95 35.7291 1286.35 28.3511 Z" fill="#000000" fill-rule="evenodd" fill-opacity="1" /><path clip-path="url(#clip480)" d="M 0 0 M1296.11 1527.48 Q1296.11 1529.28 1294.98 1530.31 Q1293.85 1531.31 1292.57 1531.31 Q1291.34 1531.31 1290.7 1530.6 Q1290.05 1529.89 1290.05 1528.99 Q1290.05 1527.77 1290.96 1526.7 Q1291.86 1525.64 1293.21 1525.42 Q1291.89 1524.58 1289.93 1524.58 Q1288.64 1524.58 1287.51 1525.26 Q1286.41 1525.93 1285.74 1526.8 Q1285.09 1527.67 1284.51 1528.93 Q1283.97 1530.15 1283.74 1530.89 Q1283.55 1531.6 1283.39 1532.37 L1281.13 1541.39 Q1280.04 1545.67 1280.04 1547.19 Q1280.04 1549.06 1280.94 1550.31 Q1281.84 1551.54 1283.64 1551.54 Q1284.35 1551.54 1285.16 1551.34 Q1285.96 1551.12 1286.99 1550.54 Q1288.06 1549.93 1288.99 1549.02 Q1289.96 1548.09 1290.89 1546.51 Q1291.83 1544.93 1292.44 1542.9 Q1292.63 1542.2 1293.27 1542.2 Q1294.08 1542.2 1294.08 1542.84 Q1294.08 1543.39 1293.63 1544.55 Q1293.21 1545.67 1292.28 1547.16 Q1291.37 1548.6 1290.18 1549.93 Q1288.99 1551.21 1287.22 1552.12 Q1285.45 1553.02 1283.52 1553.02 Q1280.75 1553.02 1278.91 1551.54 Q1277.07 1550.05 1276.4 1547.99 Q1276.24 1548.28 1276.01 1548.67 Q1275.79 1549.06 1275.11 1549.93 Q1274.47 1550.76 1273.73 1551.41 Q1272.98 1552.02 1271.83 1552.5 Q1270.7 1553.02 1269.47 1553.02 Q1267.93 1553.02 1266.54 1552.57 Q1265.19 1552.12 1264.22 1551.08 Q1263.26 1550.05 1263.26 1548.64 Q1263.26 1547.06 1264.32 1545.96 Q1265.42 1544.84 1266.9 1544.84 Q1267.83 1544.84 1268.57 1545.38 Q1269.35 1545.93 1269.35 1547.12 Q1269.35 1548.44 1268.44 1549.44 Q1267.54 1550.44 1266.25 1550.7 Q1267.57 1551.54 1269.54 1551.54 Q1271.66 1551.54 1273.34 1549.67 Q1275.01 1547.8 1275.82 1544.68 Q1277.82 1537.17 1278.59 1533.82 Q1279.36 1530.44 1279.36 1528.99 Q1279.36 1527.64 1279.01 1526.7 Q1278.65 1525.77 1278.04 1525.35 Q1277.46 1524.9 1276.91 1524.74 Q1276.4 1524.58 1275.82 1524.58 Q1274.85 1524.58 1273.76 1524.97 Q1272.69 1525.35 1271.41 1526.25 Q1270.15 1527.12 1268.96 1528.93 Q1267.77 1530.73 1266.96 1533.21 Q1266.8 1533.95 1266.09 1533.95 Q1265.32 1533.92 1265.32 1533.27 Q1265.32 1532.73 1265.74 1531.6 Q1266.19 1530.44 1267.09 1528.99 Q1268.03 1527.54 1269.22 1526.25 Q1270.44 1524.93 1272.21 1524.03 Q1274.02 1523.13 1275.95 1523.13 Q1276.82 1523.13 1277.65 1523.32 Q1278.52 1523.48 1279.55 1523.97 Q1280.62 1524.45 1281.55 1525.51 Q1282.49 1526.58 1283.07 1528.12 Q1283.45 1527.38 1283.97 1526.67 Q1284.51 1525.96 1285.35 1525.09 Q1286.22 1524.19 1287.41 1523.68 Q1288.64 1523.13 1289.99 1523.13 Q1291.31 1523.13 1292.6 1523.48 Q1293.89 1523.81 1294.98 1524.87 Q1296.11 1525.9 1296.11 1527.48 Z" fill="#000000" fill-rule="evenodd" fill-opacity="1" /><path clip-path="url(#clip480)" d="M 0 0 M60.8835 752.42 Q61.3344 752.42 62.3972 752.71 L87.5821 759.022 Q93.186 760.407 97.1151 764.916 Q101.044 769.393 101.044 774.481 Q101.044 777.541 99.4017 779.505 Q97.7914 781.47 95.3115 781.47 Q93.1216 781.47 92.0588 780.31 Q91.0282 779.151 91.0282 777.766 Q91.0282 777.315 91.157 776.832 Q91.2858 776.349 91.8333 775.834 Q92.3808 775.318 93.3148 775.318 Q94.8285 775.318 96.0201 776.639 Q96.5676 777.283 96.6964 777.895 Q96.8252 778.475 96.8252 779.473 Q97.727 779.086 98.3389 778.378 Q98.9508 777.669 99.1763 776.864 Q99.4339 776.059 99.4983 775.544 Q99.5949 774.996 99.5949 774.481 Q99.5949 770.359 95.4404 767.203 Q94.1843 766.269 92.9283 765.592 Q91.7045 764.884 90.1908 764.368 Q88.7093 763.853 87.9042 763.628 Q87.0991 763.37 85.2633 762.919 Q88.2585 765.914 88.2585 769.586 Q88.2585 771.132 87.8398 772.516 Q87.4211 773.869 86.5516 775.061 Q85.6498 776.252 84.0717 776.961 Q82.4936 777.637 80.4002 777.637 Q78.178 777.637 75.1507 776.768 Q72.1233 775.898 66.5517 773.805 Q63.4277 772.678 61.9141 772.678 Q61.1733 772.678 60.7225 772.839 Q60.2394 773 60.0783 773.322 Q59.8851 773.644 59.8529 773.837 Q59.8207 773.998 59.8207 774.32 Q59.8207 776.22 61.753 777.991 Q63.6854 779.763 68.001 780.987 Q68.8061 781.244 68.9994 781.405 Q69.1926 781.566 69.1926 782.049 Q69.1604 782.855 68.5163 782.855 Q68.2586 782.855 67.2602 782.565 Q66.2297 782.275 64.716 781.599 Q63.1701 780.89 61.7852 779.924 Q60.3682 778.958 59.3698 777.444 Q58.3714 775.898 58.3714 774.127 Q58.3714 771.711 59.9495 770.23 Q61.4954 768.716 63.782 768.716 Q64.716 768.716 65.5533 768.974 Q66.3585 769.199 68.5163 770.037 Q77.2119 773.418 81.463 773.418 Q82.4936 773.418 83.3632 773.257 Q84.2005 773.064 85.0379 772.645 Q85.843 772.227 86.3261 771.389 Q86.777 770.52 86.777 769.328 Q86.777 767.814 86.0685 766.397 Q85.3277 764.948 84.3294 764.046 Q83.331 763.112 82.4936 762.565 Q81.6241 761.985 81.1732 761.856 L69.3214 758.893 L64.0397 757.573 Q61.1733 756.961 60.4648 756.671 Q59.7885 756.285 59.4342 755.608 Q59.08 754.932 59.08 754.352 Q59.08 753.547 59.563 753 Q60.0461 752.42 60.8835 752.42 Z" fill="#000000" fill-rule="evenodd" fill-opacity="1" /><polyline clip-path="url(#clip482)" style="stroke:#009af9; stroke-width:4; stroke-opacity:1; fill:none" points="
  271.753,178.125 496.241,702.818 720.729,125.03 945.217,1408.66 1169.7,1244.03 1394.19,143.535 1618.68,730.47 1843.17,1068.9 2067.66,937.208 2292.14,1308.41 
  
  "/>
<path clip-path="url(#clip480)" d="
M1989.74 291.002 L2280.76 291.002 L2280.76 170.042 L1989.74 170.042  Z
  " fill="#ffffff" fill-rule="evenodd" fill-opacity="1"/>
<polyline clip-path="url(#clip480)" style="stroke:#000000; stroke-width:4; stroke-opacity:1; fill:none" points="
  1989.74,291.002 2280.76,291.002 2280.76,170.042 1989.74,170.042 1989.74,291.002 
  "/>
<polyline clip-path="url(#clip480)" style="stroke:#009af9; stroke-width:4; stroke-opacity:1; fill:none" points="
  2013.74,230.522 2157.74,230.522 
  "/>
<path clip-path="url(#clip480)" d="M 0 0 M2195.58 250.209 Q2193.77 254.839 2192.06 256.251 Q2190.35 257.663 2187.48 257.663 L2184.08 257.663 L2184.08 254.098 L2186.58 254.098 Q2188.33 254.098 2189.31 253.264 Q2190.28 252.431 2191.46 249.329 L2192.22 247.385 L2181.74 221.876 L2186.25 221.876 L2194.35 242.153 L2202.46 221.876 L2206.97 221.876 L2195.58 250.209 Z" fill="#000000" fill-rule="evenodd" fill-opacity="1" /><path clip-path="url(#clip480)" d="M 0 0 M2212.85 243.866 L2220.49 243.866 L2220.49 217.501 L2212.18 219.167 L2212.18 214.908 L2220.44 213.242 L2225.12 213.242 L2225.12 243.866 L2232.76 243.866 L2232.76 247.802 L2212.85 247.802 L2212.85 243.866 Z" fill="#000000" fill-rule="evenodd" fill-opacity="1" /></svg>
