<?xml version="1.0" encoding="utf-8"?>
<svg xmlns="http://www.w3.org/2000/svg" xmlns:xlink="http://www.w3.org/1999/xlink" width="600" height="400" viewBox="0 0 2400 1600">
<defs>
  <clipPath id="clip560">
    <rect x="0" y="0" width="2400" height="1600"/>
  </clipPath>
</defs>
<path clip-path="url(#clip560)" d="
M0 1600 L2400 1600 L2400 0 L0 0  Z
  " fill="#ffffff" fill-rule="evenodd" fill-opacity="1"/>
<defs>
  <clipPath id="clip561">
    <rect x="480" y="0" width="1681" height="1600"/>
  </clipPath>
</defs>
<path clip-path="url(#clip560)" d="
M190.61 1470.7 L2352.76 1470.7 L2352.76 47.2441 L190.61 47.2441  Z
  " fill="#ffffff" fill-rule="evenodd" fill-opacity="1"/>
<defs>
  <clipPath id="clip562">
    <rect x="190" y="47" width="2163" height="1424"/>
  </clipPath>
</defs>
<polyline clip-path="url(#clip562)" style="stroke:#000000; stroke-width:2; stroke-opacity:0.1; fill:none" points="
  478.443,1470.7 478.443,47.2441 
  "/>
<polyline clip-path="url(#clip562)" style="stroke:#000000; stroke-width:2; stroke-opacity:0.1; fill:none" points="
  931.723,1470.7 931.723,47.2441 
  "/>
<polyline clip-path="url(#clip562)" style="stroke:#000000; stroke-width:2; stroke-opacity:0.1; fill:none" points="
  1385,1470.7 1385,47.2441 
  "/>
<polyline clip-path="url(#clip562)" style="stroke:#000000; stroke-width:2; stroke-opacity:0.1; fill:none" points="
  1838.28,1470.7 1838.28,47.2441 
  "/>
<polyline clip-path="url(#clip562)" style="stroke:#000000; stroke-width:2; stroke-opacity:0.1; fill:none" points="
  2291.56,1470.7 2291.56,47.2441 
  "/>
<polyline clip-path="url(#clip562)" style="stroke:#000000; stroke-width:2; stroke-opacity:0.1; fill:none" points="
  190.61,1449.48 2352.76,1449.48 
  "/>
<polyline clip-path="url(#clip562)" style="stroke:#000000; stroke-width:2; stroke-opacity:0.1; fill:none" points="
  190.61,1102.66 2352.76,1102.66 
  "/>
<polyline clip-path="url(#clip562)" style="stroke:#000000; stroke-width:2; stroke-opacity:0.1; fill:none" points="
  190.61,755.841 2352.76,755.841 
  "/>
<polyline clip-path="url(#clip562)" style="stroke:#000000; stroke-width:2; stroke-opacity:0.1; fill:none" points="
  190.61,409.021 2352.76,409.021 
  "/>
<polyline clip-path="url(#clip562)" style="stroke:#000000; stroke-width:2; stroke-opacity:0.1; fill:none" points="
  190.61,62.2016 2352.76,62.2016 
  "/>
<polyline clip-path="url(#clip560)" style="stroke:#000000; stroke-width:4; stroke-opacity:1; fill:none" points="
  190.61,1470.7 2352.76,1470.7 
  "/>
<polyline clip-path="url(#clip560)" style="stroke:#000000; stroke-width:4; stroke-opacity:1; fill:none" points="
  190.61,1470.7 190.61,47.2441 
  "/>
<polyline clip-path="url(#clip560)" style="stroke:#000000; stroke-width:4; stroke-opacity:1; fill:none" points="
  478.443,1470.7 478.443,1453.62 
  "/>
<polyline clip-path="url(#clip560)" style="stroke:#000000; stroke-width:4; stroke-opacity:1; fill:none" points="
  931.723,1470.7 931.723,1453.62 
  "/>
<polyline clip-path="url(#clip560)" style="stroke:#000000; stroke-width:4; stroke-opacity:1; fill:none" points="
  1385,1470.7 1385,1453.62 
  "/>
<polyline clip-path="url(#clip560)" style="stroke:#000000; stroke-width:4; stroke-opacity:1; fill:none" points="
  1838.28,1470.7 1838.28,1453.62 
  "/>
<polyline clip-path="url(#clip560)" style="stroke:#000000; stroke-width:4; stroke-opacity:1; fill:none" points="
  2291.56,1470.7 2291.56,1453.62 
  "/>
<polyline clip-path="url(#clip560)" style="stroke:#000000; stroke-width:4; stroke-opacity:1; fill:none" points="
  190.61,1449.48 216.556,1449.48 
  "/>
<polyline clip-path="url(#clip560)" style="stroke:#000000; stroke-width:4; stroke-opacity:1; fill:none" points="
  190.61,1102.66 216.556,1102.66 
  "/>
<polyline clip-path="url(#clip560)" style="stroke:#000000; stroke-width:4; stroke-opacity:1; fill:none" points="
  190.61,755.841 216.556,755.841 
  "/>
<polyline clip-path="url(#clip560)" style="stroke:#000000; stroke-width:4; stroke-opacity:1; fill:none" points="
  190.61,409.021 216.556,409.021 
  "/>
<polyline clip-path="url(#clip560)" style="stroke:#000000; stroke-width:4; stroke-opacity:1; fill:none" points="
  190.61,62.2016 216.556,62.2016 
  "/>
<path clip-path="url(#clip560)" d="M 0 0 M473.096 1520.24 L489.415 1520.24 L489.415 1524.17 L467.471 1524.17 L467.471 1520.24 Q470.133 1517.48 474.716 1512.85 Q479.323 1508.2 480.503 1506.86 Q482.748 1504.33 483.628 1502.6 Q484.531 1500.84 484.531 1499.15 Q484.531 1496.39 482.586 1494.66 Q480.665 1492.92 477.563 1492.92 Q475.364 1492.92 472.911 1493.69 Q470.48 1494.45 467.702 1496 L467.702 1491.28 Q470.526 1490.14 472.98 1489.57 Q475.434 1488.99 477.471 1488.99 Q482.841 1488.99 486.035 1491.67 Q489.23 1494.36 489.23 1498.85 Q489.23 1500.98 488.42 1502.9 Q487.633 1504.8 485.526 1507.39 Q484.947 1508.06 481.846 1511.28 Q478.744 1514.47 473.096 1520.24 Z" fill="#000000" fill-rule="evenodd" fill-opacity="1" /><path clip-path="url(#clip560)" d="M 0 0 M934.732 1493.69 L922.927 1512.13 L934.732 1512.13 L934.732 1493.69 M933.505 1489.61 L939.385 1489.61 L939.385 1512.13 L944.315 1512.13 L944.315 1516.02 L939.385 1516.02 L939.385 1524.17 L934.732 1524.17 L934.732 1516.02 L919.13 1516.02 L919.13 1511.51 L933.505 1489.61 Z" fill="#000000" fill-rule="evenodd" fill-opacity="1" /><path clip-path="url(#clip560)" d="M 0 0 M1385.41 1505.03 Q1382.26 1505.03 1380.41 1507.18 Q1378.58 1509.33 1378.58 1513.08 Q1378.58 1516.81 1380.41 1518.99 Q1382.26 1521.14 1385.41 1521.14 Q1388.56 1521.14 1390.38 1518.99 Q1392.24 1516.81 1392.24 1513.08 Q1392.24 1509.33 1390.38 1507.18 Q1388.56 1505.03 1385.41 1505.03 M1394.69 1490.38 L1394.69 1494.63 Q1392.93 1493.8 1391.13 1493.36 Q1389.34 1492.92 1387.58 1492.92 Q1382.95 1492.92 1380.5 1496.05 Q1378.07 1499.17 1377.72 1505.49 Q1379.09 1503.48 1381.15 1502.41 Q1383.21 1501.32 1385.69 1501.32 Q1390.89 1501.32 1393.9 1504.5 Q1396.94 1507.64 1396.94 1513.08 Q1396.94 1518.41 1393.79 1521.63 Q1390.64 1524.84 1385.41 1524.84 Q1379.41 1524.84 1376.24 1520.26 Q1373.07 1515.65 1373.07 1506.93 Q1373.07 1498.73 1376.96 1493.87 Q1380.85 1488.99 1387.4 1488.99 Q1389.16 1488.99 1390.94 1489.33 Q1392.75 1489.68 1394.69 1490.38 Z" fill="#000000" fill-rule="evenodd" fill-opacity="1" /><path clip-path="url(#clip560)" d="M 0 0 M1838.28 1507.76 Q1834.95 1507.76 1833.03 1509.54 Q1831.13 1511.32 1831.13 1514.45 Q1831.13 1517.57 1833.03 1519.36 Q1834.95 1521.14 1838.28 1521.14 Q1841.62 1521.14 1843.54 1519.36 Q1845.46 1517.55 1845.46 1514.45 Q1845.46 1511.32 1843.54 1509.54 Q1841.64 1507.76 1838.28 1507.76 M1833.61 1505.77 Q1830.6 1505.03 1828.91 1502.97 Q1827.24 1500.91 1827.24 1497.95 Q1827.24 1493.8 1830.18 1491.39 Q1833.14 1488.99 1838.28 1488.99 Q1843.45 1488.99 1846.38 1491.39 Q1849.32 1493.8 1849.32 1497.95 Q1849.32 1500.91 1847.63 1502.97 Q1845.97 1505.03 1842.98 1505.77 Q1846.36 1506.56 1848.24 1508.85 Q1850.13 1511.14 1850.13 1514.45 Q1850.13 1519.47 1847.06 1522.16 Q1844 1524.84 1838.28 1524.84 Q1832.57 1524.84 1829.49 1522.16 Q1826.43 1519.47 1826.43 1514.45 Q1826.43 1511.14 1828.33 1508.85 Q1830.23 1506.56 1833.61 1505.77 M1831.89 1498.38 Q1831.89 1501.07 1833.56 1502.57 Q1835.25 1504.08 1838.28 1504.08 Q1841.29 1504.08 1842.98 1502.57 Q1844.7 1501.07 1844.7 1498.38 Q1844.7 1495.7 1842.98 1494.2 Q1841.29 1492.69 1838.28 1492.69 Q1835.25 1492.69 1833.56 1494.2 Q1831.89 1495.7 1831.89 1498.38 Z" fill="#000000" fill-rule="evenodd" fill-opacity="1" /><path clip-path="url(#clip560)" d="M 0 0 M2268.44 1520.24 L2276.08 1520.24 L2276.08 1493.87 L2267.77 1495.54 L2267.77 1491.28 L2276.03 1489.61 L2280.71 1489.61 L2280.71 1520.24 L2288.35 1520.24 L2288.35 1524.17 L2268.44 1524.17 L2268.44 1520.24 Z" fill="#000000" fill-rule="evenodd" fill-opacity="1" /><path clip-path="url(#clip560)" d="M 0 0 M2303.41 1492.69 Q2299.8 1492.69 2297.98 1496.26 Q2296.17 1499.8 2296.17 1506.93 Q2296.17 1514.03 2297.98 1517.6 Q2299.8 1521.14 2303.41 1521.14 Q2307.05 1521.14 2308.85 1517.6 Q2310.68 1514.03 2310.68 1506.93 Q2310.68 1499.8 2308.85 1496.26 Q2307.05 1492.69 2303.41 1492.69 M2303.41 1488.99 Q2309.23 1488.99 2312.28 1493.59 Q2315.36 1498.18 2315.36 1506.93 Q2315.36 1515.65 2312.28 1520.26 Q2309.23 1524.84 2303.41 1524.84 Q2297.6 1524.84 2294.53 1520.26 Q2291.47 1515.65 2291.47 1506.93 Q2291.47 1498.18 2294.53 1493.59 Q2297.6 1488.99 2303.41 1488.99 Z" fill="#000000" fill-rule="evenodd" fill-opacity="1" /><path clip-path="url(#clip560)" d="M 0 0 M90.6845 1435.28 Q87.0734 1435.28 85.2448 1438.84 Q83.4392 1442.39 83.4392 1449.52 Q83.4392 1456.62 85.2448 1460.19 Q87.0734 1463.73 90.6845 1463.73 Q94.3188 1463.73 96.1243 1460.19 Q97.953 1456.62 97.953 1449.52 Q97.953 1442.39 96.1243 1438.84 Q94.3188 1435.28 90.6845 1435.28 M90.6845 1431.58 Q96.4947 1431.58 99.5502 1436.18 Q102.629 1440.77 102.629 1449.52 Q102.629 1458.24 99.5502 1462.85 Q96.4947 1467.43 90.6845 1467.43 Q84.8744 1467.43 81.7957 1462.85 Q78.7402 1458.24 78.7402 1449.52 Q78.7402 1440.77 81.7957 1436.18 Q84.8744 1431.58 90.6845 1431.58 Z" fill="#000000" fill-rule="evenodd" fill-opacity="1" /><path clip-path="url(#clip560)" d="M 0 0 M107.698 1460.88 L112.583 1460.88 L112.583 1466.76 L107.698 1466.76 L107.698 1460.88 Z" fill="#000000" fill-rule="evenodd" fill-opacity="1" /><path clip-path="url(#clip560)" d="M 0 0 M127.652 1435.28 Q124.041 1435.28 122.212 1438.84 Q120.407 1442.39 120.407 1449.52 Q120.407 1456.62 122.212 1460.19 Q124.041 1463.73 127.652 1463.73 Q131.286 1463.73 133.092 1460.19 Q134.92 1456.62 134.92 1449.52 Q134.92 1442.39 133.092 1438.84 Q131.286 1435.28 127.652 1435.28 M127.652 1431.58 Q133.462 1431.58 136.518 1436.18 Q139.596 1440.77 139.596 1449.52 Q139.596 1458.24 136.518 1462.85 Q133.462 1467.43 127.652 1467.43 Q121.842 1467.43 118.763 1462.85 Q115.708 1458.24 115.708 1449.52 Q115.708 1440.77 118.763 1436.18 Q121.842 1431.58 127.652 1431.58 Z" fill="#000000" fill-rule="evenodd" fill-opacity="1" /><path clip-path="url(#clip560)" d="M 0 0 M154.666 1435.28 Q151.055 1435.28 149.226 1438.84 Q147.42 1442.39 147.42 1449.52 Q147.42 1456.62 149.226 1460.19 Q151.055 1463.73 154.666 1463.73 Q158.3 1463.73 160.105 1460.19 Q161.934 1456.62 161.934 1449.52 Q161.934 1442.39 160.105 1438.84 Q158.3 1435.28 154.666 1435.28 M154.666 1431.58 Q160.476 1431.58 163.531 1436.18 Q166.61 1440.77 166.61 1449.52 Q166.61 1458.24 163.531 1462.85 Q160.476 1467.43 154.666 1467.43 Q148.856 1467.43 145.777 1462.85 Q142.721 1458.24 142.721 1449.52 Q142.721 1440.77 145.777 1436.18 Q148.856 1431.58 154.666 1431.58 Z" fill="#000000" fill-rule="evenodd" fill-opacity="1" /><path clip-path="url(#clip560)" d="M 0 0 M93.2771 1088.46 Q89.666 1088.46 87.8373 1092.02 Q86.0318 1095.57 86.0318 1102.7 Q86.0318 1109.8 87.8373 1113.37 Q89.666 1116.91 93.2771 1116.91 Q96.9114 1116.91 98.7169 1113.37 Q100.546 1109.8 100.546 1102.7 Q100.546 1095.57 98.7169 1092.02 Q96.9114 1088.46 93.2771 1088.46 M93.2771 1084.76 Q99.0873 1084.76 102.143 1089.36 Q105.221 1093.95 105.221 1102.7 Q105.221 1111.42 102.143 1116.03 Q99.0873 1120.61 93.2771 1120.61 Q87.467 1120.61 84.3883 1116.03 Q81.3327 1111.42 81.3327 1102.7 Q81.3327 1093.95 84.3883 1089.36 Q87.467 1084.76 93.2771 1084.76 Z" fill="#000000" fill-rule="evenodd" fill-opacity="1" /><path clip-path="url(#clip560)" d="M 0 0 M110.291 1114.06 L115.175 1114.06 L115.175 1119.94 L110.291 1119.94 L110.291 1114.06 Z" fill="#000000" fill-rule="evenodd" fill-opacity="1" /><path clip-path="url(#clip560)" d="M 0 0 M124.272 1116.01 L140.592 1116.01 L140.592 1119.94 L118.647 1119.94 L118.647 1116.01 Q121.309 1113.25 125.893 1108.62 Q130.499 1103.97 131.68 1102.63 Q133.925 1100.1 134.805 1098.37 Q135.707 1096.61 135.707 1094.92 Q135.707 1092.16 133.763 1090.43 Q131.842 1088.69 128.74 1088.69 Q126.541 1088.69 124.087 1089.46 Q121.657 1090.22 118.879 1091.77 L118.879 1087.05 Q121.703 1085.91 124.157 1085.33 Q126.61 1084.76 128.647 1084.76 Q134.018 1084.76 137.212 1087.44 Q140.406 1090.13 140.406 1094.62 Q140.406 1096.75 139.596 1098.67 Q138.809 1100.57 136.703 1103.16 Q136.124 1103.83 133.022 1107.05 Q129.92 1110.24 124.272 1116.01 Z" fill="#000000" fill-rule="evenodd" fill-opacity="1" /><path clip-path="url(#clip560)" d="M 0 0 M145.707 1085.38 L164.064 1085.38 L164.064 1089.32 L149.99 1089.32 L149.99 1097.79 Q151.008 1097.44 152.027 1097.28 Q153.045 1097.09 154.064 1097.09 Q159.851 1097.09 163.23 1100.27 Q166.61 1103.44 166.61 1108.85 Q166.61 1114.43 163.138 1117.53 Q159.666 1120.61 153.346 1120.61 Q151.17 1120.61 148.902 1120.24 Q146.656 1119.87 144.249 1119.13 L144.249 1114.43 Q146.332 1115.57 148.555 1116.12 Q150.777 1116.68 153.254 1116.68 Q157.258 1116.68 159.596 1114.57 Q161.934 1112.46 161.934 1108.85 Q161.934 1105.24 159.596 1103.14 Q157.258 1101.03 153.254 1101.03 Q151.379 1101.03 149.504 1101.45 Q147.652 1101.86 145.707 1102.74 L145.707 1085.38 Z" fill="#000000" fill-rule="evenodd" fill-opacity="1" /><path clip-path="url(#clip560)" d="M 0 0 M91.6799 741.64 Q88.0688 741.64 86.2401 745.205 Q84.4346 748.746 84.4346 755.876 Q84.4346 762.982 86.2401 766.547 Q88.0688 770.089 91.6799 770.089 Q95.3141 770.089 97.1197 766.547 Q98.9484 762.982 98.9484 755.876 Q98.9484 748.746 97.1197 745.205 Q95.3141 741.64 91.6799 741.64 M91.6799 737.936 Q97.4901 737.936 100.546 742.543 Q103.624 747.126 103.624 755.876 Q103.624 764.603 100.546 769.209 Q97.4901 773.792 91.6799 773.792 Q85.8697 773.792 82.7911 769.209 Q79.7355 764.603 79.7355 755.876 Q79.7355 747.126 82.7911 742.543 Q85.8697 737.936 91.6799 737.936 Z" fill="#000000" fill-rule="evenodd" fill-opacity="1" /><path clip-path="url(#clip560)" d="M 0 0 M108.694 767.242 L113.578 767.242 L113.578 773.121 L108.694 773.121 L108.694 767.242 Z" fill="#000000" fill-rule="evenodd" fill-opacity="1" /><path clip-path="url(#clip560)" d="M 0 0 M118.694 738.561 L137.05 738.561 L137.05 742.496 L122.976 742.496 L122.976 750.969 Q123.995 750.621 125.013 750.459 Q126.032 750.274 127.05 750.274 Q132.837 750.274 136.217 753.445 Q139.596 756.617 139.596 762.033 Q139.596 767.612 136.124 770.714 Q132.652 773.792 126.332 773.792 Q124.157 773.792 121.888 773.422 Q119.643 773.052 117.235 772.311 L117.235 767.612 Q119.319 768.746 121.541 769.302 Q123.763 769.857 126.24 769.857 Q130.245 769.857 132.582 767.751 Q134.92 765.644 134.92 762.033 Q134.92 758.422 132.582 756.316 Q130.245 754.209 126.24 754.209 Q124.365 754.209 122.49 754.626 Q120.638 755.043 118.694 755.922 L118.694 738.561 Z" fill="#000000" fill-rule="evenodd" fill-opacity="1" /><path clip-path="url(#clip560)" d="M 0 0 M154.666 741.64 Q151.055 741.64 149.226 745.205 Q147.42 748.746 147.42 755.876 Q147.42 762.982 149.226 766.547 Q151.055 770.089 154.666 770.089 Q158.3 770.089 160.105 766.547 Q161.934 762.982 161.934 755.876 Q161.934 748.746 160.105 745.205 Q158.3 741.64 154.666 741.64 M154.666 737.936 Q160.476 737.936 163.531 742.543 Q166.61 747.126 166.61 755.876 Q166.61 764.603 163.531 769.209 Q160.476 773.792 154.666 773.792 Q148.856 773.792 145.777 769.209 Q142.721 764.603 142.721 755.876 Q142.721 747.126 145.777 742.543 Q148.856 737.936 154.666 737.936 Z" fill="#000000" fill-rule="evenodd" fill-opacity="1" /><path clip-path="url(#clip560)" d="M 0 0 M92.5827 394.82 Q88.9716 394.82 87.1429 398.385 Q85.3373 401.926 85.3373 409.056 Q85.3373 416.163 87.1429 419.727 Q88.9716 423.269 92.5827 423.269 Q96.2169 423.269 98.0225 419.727 Q99.8512 416.163 99.8512 409.056 Q99.8512 401.926 98.0225 398.385 Q96.2169 394.82 92.5827 394.82 M92.5827 391.116 Q98.3928 391.116 101.448 395.723 Q104.527 400.306 104.527 409.056 Q104.527 417.783 101.448 422.389 Q98.3928 426.973 92.5827 426.973 Q86.7725 426.973 83.6938 422.389 Q80.6383 417.783 80.6383 409.056 Q80.6383 400.306 83.6938 395.723 Q86.7725 391.116 92.5827 391.116 Z" fill="#000000" fill-rule="evenodd" fill-opacity="1" /><path clip-path="url(#clip560)" d="M 0 0 M109.596 420.422 L114.481 420.422 L114.481 426.301 L109.596 426.301 L109.596 420.422 Z" fill="#000000" fill-rule="evenodd" fill-opacity="1" /><path clip-path="url(#clip560)" d="M 0 0 M118.37 391.741 L140.592 391.741 L140.592 393.732 L128.045 426.301 L123.161 426.301 L134.967 395.677 L118.37 395.677 L118.37 391.741 Z" fill="#000000" fill-rule="evenodd" fill-opacity="1" /><path clip-path="url(#clip560)" d="M 0 0 M145.707 391.741 L164.064 391.741 L164.064 395.677 L149.99 395.677 L149.99 404.149 Q151.008 403.801 152.027 403.639 Q153.045 403.454 154.064 403.454 Q159.851 403.454 163.23 406.626 Q166.61 409.797 166.61 415.213 Q166.61 420.792 163.138 423.894 Q159.666 426.973 153.346 426.973 Q151.17 426.973 148.902 426.602 Q146.656 426.232 144.249 425.491 L144.249 420.792 Q146.332 421.926 148.555 422.482 Q150.777 423.037 153.254 423.037 Q157.258 423.037 159.596 420.931 Q161.934 418.825 161.934 415.213 Q161.934 411.602 159.596 409.496 Q157.258 407.389 153.254 407.389 Q151.379 407.389 149.504 407.806 Q147.652 408.223 145.707 409.102 L145.707 391.741 Z" fill="#000000" fill-rule="evenodd" fill-opacity="1" /><path clip-path="url(#clip560)" d="M 0 0 M82.7216 75.5464 L90.3605 75.5464 L90.3605 49.1808 L82.0503 50.8474 L82.0503 46.5882 L90.3142 44.9216 L94.9901 44.9216 L94.9901 75.5464 L102.629 75.5464 L102.629 79.4816 L82.7216 79.4816 L82.7216 75.5464 Z" fill="#000000" fill-rule="evenodd" fill-opacity="1" /><path clip-path="url(#clip560)" d="M 0 0 M107.698 73.602 L112.583 73.602 L112.583 79.4816 L107.698 79.4816 L107.698 73.602 Z" fill="#000000" fill-rule="evenodd" fill-opacity="1" /><path clip-path="url(#clip560)" d="M 0 0 M127.652 48.0002 Q124.041 48.0002 122.212 51.565 Q120.407 55.1067 120.407 62.2363 Q120.407 69.3427 122.212 72.9075 Q124.041 76.4492 127.652 76.4492 Q131.286 76.4492 133.092 72.9075 Q134.92 69.3427 134.92 62.2363 Q134.92 55.1067 133.092 51.565 Q131.286 48.0002 127.652 48.0002 M127.652 44.2966 Q133.462 44.2966 136.518 48.903 Q139.596 53.4863 139.596 62.2363 Q139.596 70.9631 136.518 75.5695 Q133.462 80.1528 127.652 80.1528 Q121.842 80.1528 118.763 75.5695 Q115.708 70.9631 115.708 62.2363 Q115.708 53.4863 118.763 48.903 Q121.842 44.2966 127.652 44.2966 Z" fill="#000000" fill-rule="evenodd" fill-opacity="1" /><path clip-path="url(#clip560)" d="M 0 0 M154.666 48.0002 Q151.055 48.0002 149.226 51.565 Q147.42 55.1067 147.42 62.2363 Q147.42 69.3427 149.226 72.9075 Q151.055 76.4492 154.666 76.4492 Q158.3 76.4492 160.105 72.9075 Q161.934 69.3427 161.934 62.2363 Q161.934 55.1067 160.105 51.565 Q158.3 48.0002 154.666 48.0002 M154.666 44.2966 Q160.476 44.2966 163.531 48.903 Q166.61 53.4863 166.61 62.2363 Q166.61 70.9631 163.531 75.5695 Q160.476 80.1528 154.666 80.1528 Q148.856 80.1528 145.777 75.5695 Q142.721 70.9631 142.721 62.2363 Q142.721 53.4863 145.777 48.903 Q148.856 44.2966 154.666 44.2966 Z" fill="#000000" fill-rule="evenodd" fill-opacity="1" /><path clip-path="url(#clip560)" d="M 0 0 M1285.84 1521.01 Q1285.84 1522.81 1284.72 1523.84 Q1283.59 1524.84 1282.3 1524.84 Q1281.08 1524.84 1280.43 1524.13 Q1279.79 1523.42 1279.79 1522.52 Q1279.79 1521.3 1280.69 1520.23 Q1281.59 1519.17 1282.94 1518.95 Q1281.62 1518.11 1279.66 1518.11 Q1278.37 1518.11 1277.24 1518.78 Q1276.15 1519.46 1275.47 1520.33 Q1274.83 1521.2 1274.25 1522.46 Q1273.7 1523.68 1273.48 1524.42 Q1273.28 1525.13 1273.12 1525.9 L1270.87 1534.92 Q1269.77 1539.2 1269.77 1540.72 Q1269.77 1542.58 1270.67 1543.84 Q1271.58 1545.06 1273.38 1545.06 Q1274.09 1545.06 1274.89 1544.87 Q1275.7 1544.65 1276.73 1544.07 Q1277.79 1543.45 1278.73 1542.55 Q1279.69 1541.62 1280.63 1540.04 Q1281.56 1538.46 1282.17 1536.43 Q1282.36 1535.73 1283.01 1535.73 Q1283.81 1535.73 1283.81 1536.37 Q1283.81 1536.92 1283.36 1538.08 Q1282.94 1539.2 1282.01 1540.68 Q1281.11 1542.13 1279.92 1543.45 Q1278.73 1544.74 1276.95 1545.64 Q1275.18 1546.55 1273.25 1546.55 Q1270.48 1546.55 1268.65 1545.06 Q1266.81 1543.58 1266.13 1541.52 Q1265.97 1541.81 1265.75 1542.2 Q1265.52 1542.58 1264.84 1543.45 Q1264.2 1544.29 1263.46 1544.94 Q1262.72 1545.55 1261.56 1546.03 Q1260.43 1546.55 1259.21 1546.55 Q1257.66 1546.55 1256.28 1546.1 Q1254.93 1545.64 1253.96 1544.61 Q1252.99 1543.58 1252.99 1542.17 Q1252.99 1540.59 1254.06 1539.49 Q1255.15 1538.37 1256.63 1538.37 Q1257.57 1538.37 1258.31 1538.91 Q1259.08 1539.46 1259.08 1540.65 Q1259.08 1541.97 1258.18 1542.97 Q1257.28 1543.97 1255.99 1544.23 Q1257.31 1545.06 1259.27 1545.06 Q1261.4 1545.06 1263.07 1543.2 Q1264.75 1541.33 1265.55 1538.2 Q1267.55 1530.7 1268.32 1527.35 Q1269.1 1523.97 1269.1 1522.52 Q1269.1 1521.17 1268.74 1520.23 Q1268.39 1519.3 1267.78 1518.88 Q1267.2 1518.43 1266.65 1518.27 Q1266.13 1518.11 1265.55 1518.11 Q1264.59 1518.11 1263.49 1518.49 Q1262.43 1518.88 1261.14 1519.78 Q1259.89 1520.65 1258.69 1522.46 Q1257.5 1524.26 1256.7 1526.74 Q1256.54 1527.48 1255.83 1527.48 Q1255.05 1527.45 1255.05 1526.8 Q1255.05 1526.26 1255.47 1525.13 Q1255.92 1523.97 1256.83 1522.52 Q1257.76 1521.07 1258.95 1519.78 Q1260.17 1518.46 1261.95 1517.56 Q1263.75 1516.66 1265.68 1516.66 Q1266.55 1516.66 1267.39 1516.85 Q1268.26 1517.01 1269.29 1517.5 Q1270.35 1517.98 1271.29 1519.04 Q1272.22 1520.11 1272.8 1521.65 Q1273.19 1520.91 1273.7 1520.2 Q1274.25 1519.49 1275.09 1518.62 Q1275.96 1517.72 1277.15 1517.21 Q1278.37 1516.66 1279.72 1516.66 Q1281.04 1516.66 1282.33 1517.01 Q1283.62 1517.34 1284.72 1518.4 Q1285.84 1519.43 1285.84 1521.01 Z" fill="#000000" fill-rule="evenodd" fill-opacity="1" /><path clip-path="url(#clip560)" d="M 0 0 M56.8247 744.546 Q57.2755 744.546 58.3383 744.836 L83.5233 751.148 Q89.1271 752.533 93.0563 757.042 Q96.9854 761.518 96.9854 766.607 Q96.9854 769.667 95.3429 771.631 Q93.7326 773.596 91.2527 773.596 Q89.0627 773.596 87.9999 772.436 Q86.9693 771.277 86.9693 769.892 Q86.9693 769.441 87.0982 768.958 Q87.227 768.475 87.7745 767.96 Q88.322 767.444 89.256 767.444 Q90.7696 767.444 91.9613 768.765 Q92.5088 769.409 92.6376 770.021 Q92.7664 770.601 92.7664 771.599 Q93.6682 771.212 94.2801 770.504 Q94.892 769.795 95.1174 768.99 Q95.3751 768.185 95.4395 767.67 Q95.5361 767.122 95.5361 766.607 Q95.5361 762.485 91.3815 759.328 Q90.1255 758.395 88.8695 757.718 Q87.6457 757.01 86.132 756.494 Q84.6505 755.979 83.8454 755.754 Q83.0402 755.496 81.2045 755.045 Q84.1996 758.04 84.1996 761.712 Q84.1996 763.258 83.781 764.642 Q83.3623 765.995 82.4927 767.187 Q81.591 768.378 80.0129 769.087 Q78.4348 769.763 76.3414 769.763 Q74.1192 769.763 71.0919 768.894 Q68.0645 768.024 62.4929 765.931 Q59.3689 764.803 57.8552 764.803 Q57.1145 764.803 56.6636 764.965 Q56.1805 765.126 56.0195 765.448 Q55.8263 765.77 55.7941 765.963 Q55.7619 766.124 55.7619 766.446 Q55.7619 768.346 57.6942 770.117 Q59.6266 771.889 63.9422 773.113 Q64.7473 773.37 64.9405 773.531 Q65.1338 773.692 65.1338 774.175 Q65.1016 774.981 64.4574 774.981 Q64.1998 774.981 63.2014 774.691 Q62.1708 774.401 60.6572 773.725 Q59.1113 773.016 57.7264 772.05 Q56.3094 771.084 55.311 769.57 Q54.3126 768.024 54.3126 766.253 Q54.3126 763.837 55.8907 762.356 Q57.4366 760.842 59.7232 760.842 Q60.6572 760.842 61.4945 761.1 Q62.2997 761.325 64.4574 762.163 Q73.153 765.544 77.4042 765.544 Q78.4348 765.544 79.3044 765.383 Q80.1417 765.19 80.9791 764.771 Q81.7842 764.353 82.2673 763.515 Q82.7182 762.646 82.7182 761.454 Q82.7182 759.94 82.0096 758.523 Q81.2689 757.074 80.2705 756.172 Q79.2721 755.238 78.4348 754.691 Q77.5652 754.111 77.1144 753.982 L65.2626 751.019 L59.9808 749.699 Q57.1145 749.087 56.406 748.797 Q55.7297 748.411 55.3754 747.734 Q55.0211 747.058 55.0211 746.478 Q55.0211 745.673 55.5042 745.126 Q55.9873 744.546 56.8247 744.546 Z" fill="#000000" fill-rule="evenodd" fill-opacity="1" /><polyline clip-path="url(#clip562)" style="stroke:#009af9; stroke-width:4; stroke-opacity:1; fill:none" points="
  251.803,1133.95 478.443,1429.92 705.083,721.305 931.723,87.5306 1158.36,229.633 1385,1295.14 1611.64,1344.78 1838.28,454.051 2064.92,818.555 2291.56,1430.41 
  
  "/>
<path clip-path="url(#clip560)" d="
M1989.74 251.724 L2280.76 251.724 L2280.76 130.764 L1989.74 130.764  Z
  " fill="#ffffff" fill-rule="evenodd" fill-opacity="1"/>
<polyline clip-path="url(#clip560)" style="stroke:#000000; stroke-width:4; stroke-opacity:1; fill:none" points="
  1989.74,251.724 2280.76,251.724 2280.76,130.764 1989.74,130.764 1989.74,251.724 
  "/>
<polyline clip-path="url(#clip560)" style="stroke:#009af9; stroke-width:4; stroke-opacity:1; fill:none" points="
  2013.74,191.244 2157.74,191.244 
  "/>
<path clip-path="url(#clip560)" d="M 0 0 M2195.58 210.931 Q2193.77 215.561 2192.06 216.973 Q2190.35 218.385 2187.48 218.385 L2184.08 218.385 L2184.08 214.82 L2186.58 214.82 Q2188.33 214.82 2189.31 213.987 Q2190.28 213.154 2191.46 210.052 L2192.22 208.107 L2181.74 182.598 L2186.25 182.598 L2194.35 202.876 L2202.46 182.598 L2206.97 182.598 L2195.58 210.931 Z" fill="#000000" fill-rule="evenodd" fill-opacity="1" /><path clip-path="url(#clip560)" d="M 0 0 M2212.85 204.589 L2220.49 204.589 L2220.49 178.223 L2212.18 179.89 L2212.18 175.631 L2220.44 173.964 L2225.12 173.964 L2225.12 204.589 L2232.76 204.589 L2232.76 208.524 L2212.85 208.524 L2212.85 204.589 Z" fill="#000000" fill-rule="evenodd" fill-opacity="1" /></svg>
