<?xml version="1.0" encoding="utf-8"?>
<svg xmlns="http://www.w3.org/2000/svg" xmlns:xlink="http://www.w3.org/1999/xlink" width="600" height="400" viewBox="0 0 2400 1600">
<defs>
  <clipPath id="clip300">
    <rect x="0" y="0" width="2400" height="1600"/>
  </clipPath>
</defs>
<path clip-path="url(#clip300)" d="
M0 1600 L2400 1600 L2400 0 L0 0  Z
  " fill="#ffffff" fill-rule="evenodd" fill-opacity="1"/>
<defs>
  <clipPath id="clip301">
    <rect x="480" y="0" width="1681" height="1600"/>
  </clipPath>
</defs>
<path clip-path="url(#clip300)" d="
M164.082 1470.7 L2352.76 1470.7 L2352.76 47.2441 L164.082 47.2441  Z
  " fill="#ffffff" fill-rule="evenodd" fill-opacity="1"/>
<defs>
  <clipPath id="clip302">
    <rect x="164" y="47" width="2190" height="1424"/>
  </clipPath>
</defs>
<polyline clip-path="url(#clip302)" style="stroke:#000000; stroke-width:2; stroke-opacity:0.1; fill:none" points="
  455.447,1470.7 455.447,47.2441 
  "/>
<polyline clip-path="url(#clip302)" style="stroke:#000000; stroke-width:2; stroke-opacity:0.1; fill:none" points="
  914.288,1470.7 914.288,47.2441 
  "/>
<polyline clip-path="url(#clip302)" style="stroke:#000000; stroke-width:2; stroke-opacity:0.1; fill:none" points="
  1373.13,1470.7 1373.13,47.2441 
  "/>
<polyline clip-path="url(#clip302)" style="stroke:#000000; stroke-width:2; stroke-opacity:0.1; fill:none" points="
  1831.97,1470.7 1831.97,47.2441 
  "/>
<polyline clip-path="url(#clip302)" style="stroke:#000000; stroke-width:2; stroke-opacity:0.1; fill:none" points="
  2290.81,1470.7 2290.81,47.2441 
  "/>
<polyline clip-path="url(#clip302)" style="stroke:#000000; stroke-width:2; stroke-opacity:0.1; fill:none" points="
  164.082,1435.27 2352.76,1435.27 
  "/>
<polyline clip-path="url(#clip302)" style="stroke:#000000; stroke-width:2; stroke-opacity:0.1; fill:none" points="
  164.082,1157.32 2352.76,1157.32 
  "/>
<polyline clip-path="url(#clip302)" style="stroke:#000000; stroke-width:2; stroke-opacity:0.1; fill:none" points="
  164.082,879.366 2352.76,879.366 
  "/>
<polyline clip-path="url(#clip302)" style="stroke:#000000; stroke-width:2; stroke-opacity:0.1; fill:none" points="
  164.082,601.413 2352.76,601.413 
  "/>
<polyline clip-path="url(#clip302)" style="stroke:#000000; stroke-width:2; stroke-opacity:0.1; fill:none" points="
  164.082,323.461 2352.76,323.461 
  "/>
<polyline clip-path="url(#clip300)" style="stroke:#000000; stroke-width:4; stroke-opacity:1; fill:none" points="
  164.082,1470.7 2352.76,1470.7 
  "/>
<polyline clip-path="url(#clip300)" style="stroke:#000000; stroke-width:4; stroke-opacity:1; fill:none" points="
  164.082,1470.7 164.082,47.2441 
  "/>
<polyline clip-path="url(#clip300)" style="stroke:#000000; stroke-width:4; stroke-opacity:1; fill:none" points="
  455.447,1470.7 455.447,1453.62 
  "/>
<polyline clip-path="url(#clip300)" style="stroke:#000000; stroke-width:4; stroke-opacity:1; fill:none" points="
  914.288,1470.7 914.288,1453.62 
  "/>
<polyline clip-path="url(#clip300)" style="stroke:#000000; stroke-width:4; stroke-opacity:1; fill:none" points="
  1373.13,1470.7 1373.13,1453.62 
  "/>
<polyline clip-path="url(#clip300)" style="stroke:#000000; stroke-width:4; stroke-opacity:1; fill:none" points="
  1831.97,1470.7 1831.97,1453.62 
  "/>
<polyline clip-path="url(#clip300)" style="stroke:#000000; stroke-width:4; stroke-opacity:1; fill:none" points="
  2290.81,1470.7 2290.81,1453.62 
  "/>
<polyline clip-path="url(#clip300)" style="stroke:#000000; stroke-width:4; stroke-opacity:1; fill:none" points="
  164.082,1435.27 190.347,1435.27 
  "/>
<polyline clip-path="url(#clip300)" style="stroke:#000000; stroke-width:4; stroke-opacity:1; fill:none" points="
  164.082,1157.32 190.347,1157.32 
  "/>
<polyline clip-path="url(#clip300)" style="stroke:#000000; stroke-width:4; stroke-opacity:1; fill:none" points="
  164.082,879.366 190.347,879.366 
  "/>
<polyline clip-path="url(#clip300)" style="stroke:#000000; stroke-width:4; stroke-opacity:1; fill:none" points="
  164.082,601.413 190.347,601.413 
  "/>
<polyline clip-path="url(#clip300)" style="stroke:#000000; stroke-width:4; stroke-opacity:1; fill:none" points="
  164.082,323.461 190.347,323.461 
  "/>
<path clip-path="url(#clip300)" d="M 0 0 M450.1 1520.24 L466.419 1520.24 L466.419 1524.17 L444.475 1524.17 L444.475 1520.24 Q447.137 1517.48 451.72 1512.85 Q456.326 1508.2 457.507 1506.86 Q459.752 1504.33 460.632 1502.6 Q461.535 1500.84 461.535 1499.15 Q461.535 1496.39 459.59 1494.66 Q457.669 1492.92 454.567 1492.92 Q452.368 1492.92 449.914 1493.69 Q447.484 1494.45 444.706 1496 L444.706 1491.28 Q447.53 1490.14 449.984 1489.57 Q452.437 1488.99 454.474 1488.99 Q459.845 1488.99 463.039 1491.67 Q466.234 1494.36 466.234 1498.85 Q466.234 1500.98 465.424 1502.9 Q464.636 1504.8 462.53 1507.39 Q461.951 1508.06 458.849 1511.28 Q455.748 1514.47 450.1 1520.24 Z" fill="#000000" fill-rule="evenodd" fill-opacity="1" /><path clip-path="url(#clip300)" d="M 0 0 M917.297 1493.69 L905.492 1512.13 L917.297 1512.13 L917.297 1493.69 M916.071 1489.61 L921.95 1489.61 L921.95 1512.13 L926.881 1512.13 L926.881 1516.02 L921.95 1516.02 L921.95 1524.17 L917.297 1524.17 L917.297 1516.02 L901.696 1516.02 L901.696 1511.51 L916.071 1489.61 Z" fill="#000000" fill-rule="evenodd" fill-opacity="1" /><path clip-path="url(#clip300)" d="M 0 0 M1373.53 1505.03 Q1370.39 1505.03 1368.53 1507.18 Q1366.71 1509.33 1366.71 1513.08 Q1366.71 1516.81 1368.53 1518.99 Q1370.39 1521.14 1373.53 1521.14 Q1376.68 1521.14 1378.51 1518.99 Q1380.36 1516.81 1380.36 1513.08 Q1380.36 1509.33 1378.51 1507.18 Q1376.68 1505.03 1373.53 1505.03 M1382.82 1490.38 L1382.82 1494.63 Q1381.06 1493.8 1379.25 1493.36 Q1377.47 1492.92 1375.71 1492.92 Q1371.08 1492.92 1368.63 1496.05 Q1366.2 1499.17 1365.85 1505.49 Q1367.22 1503.48 1369.28 1502.41 Q1371.34 1501.32 1373.81 1501.32 Q1379.02 1501.32 1382.03 1504.5 Q1385.06 1507.64 1385.06 1513.08 Q1385.06 1518.41 1381.91 1521.63 Q1378.77 1524.84 1373.53 1524.84 Q1367.54 1524.84 1364.37 1520.26 Q1361.2 1515.65 1361.2 1506.93 Q1361.2 1498.73 1365.09 1493.87 Q1368.97 1488.99 1375.53 1488.99 Q1377.28 1488.99 1379.07 1489.33 Q1380.87 1489.68 1382.82 1490.38 Z" fill="#000000" fill-rule="evenodd" fill-opacity="1" /><path clip-path="url(#clip300)" d="M 0 0 M1831.97 1507.76 Q1828.64 1507.76 1826.72 1509.54 Q1824.82 1511.32 1824.82 1514.45 Q1824.82 1517.57 1826.72 1519.36 Q1828.64 1521.14 1831.97 1521.14 Q1835.3 1521.14 1837.23 1519.36 Q1839.15 1517.55 1839.15 1514.45 Q1839.15 1511.32 1837.23 1509.54 Q1835.33 1507.76 1831.97 1507.76 M1827.3 1505.77 Q1824.29 1505.03 1822.6 1502.97 Q1820.93 1500.91 1820.93 1497.95 Q1820.93 1493.8 1823.87 1491.39 Q1826.83 1488.99 1831.97 1488.99 Q1837.13 1488.99 1840.07 1491.39 Q1843.01 1493.8 1843.01 1497.95 Q1843.01 1500.91 1841.32 1502.97 Q1839.66 1505.03 1836.67 1505.77 Q1840.05 1506.56 1841.92 1508.85 Q1843.82 1511.14 1843.82 1514.45 Q1843.82 1519.47 1840.74 1522.16 Q1837.69 1524.84 1831.97 1524.84 Q1826.25 1524.84 1823.17 1522.16 Q1820.12 1519.47 1820.12 1514.45 Q1820.12 1511.14 1822.02 1508.85 Q1823.92 1506.56 1827.3 1505.77 M1825.58 1498.38 Q1825.58 1501.07 1827.25 1502.57 Q1828.94 1504.08 1831.97 1504.08 Q1834.98 1504.08 1836.67 1502.57 Q1838.38 1501.07 1838.38 1498.38 Q1838.38 1495.7 1836.67 1494.2 Q1834.98 1492.69 1831.97 1492.69 Q1828.94 1492.69 1827.25 1494.2 Q1825.58 1495.7 1825.58 1498.38 Z" fill="#000000" fill-rule="evenodd" fill-opacity="1" /><path clip-path="url(#clip300)" d="M 0 0 M2267.69 1520.24 L2275.33 1520.24 L2275.33 1493.87 L2267.02 1495.54 L2267.02 1491.28 L2275.28 1489.61 L2279.96 1489.61 L2279.96 1520.24 L2287.59 1520.24 L2287.59 1524.17 L2267.69 1524.17 L2267.69 1520.24 Z" fill="#000000" fill-rule="evenodd" fill-opacity="1" /><path clip-path="url(#clip300)" d="M 0 0 M2302.66 1492.69 Q2299.05 1492.69 2297.22 1496.26 Q2295.42 1499.8 2295.42 1506.93 Q2295.42 1514.03 2297.22 1517.6 Q2299.05 1521.14 2302.66 1521.14 Q2306.3 1521.14 2308.1 1517.6 Q2309.93 1514.03 2309.93 1506.93 Q2309.93 1499.8 2308.1 1496.26 Q2306.3 1492.69 2302.66 1492.69 M2302.66 1488.99 Q2308.47 1488.99 2311.53 1493.59 Q2314.61 1498.18 2314.61 1506.93 Q2314.61 1515.65 2311.53 1520.26 Q2308.47 1524.84 2302.66 1524.84 Q2296.85 1524.84 2293.78 1520.26 Q2290.72 1515.65 2290.72 1506.93 Q2290.72 1498.18 2293.78 1493.59 Q2296.85 1488.99 2302.66 1488.99 Z" fill="#000000" fill-rule="evenodd" fill-opacity="1" /><path clip-path="url(#clip300)" d="M 0 0 M91.1706 1421.07 Q87.5596 1421.07 85.7309 1424.63 Q83.9253 1428.18 83.9253 1435.3 Q83.9253 1442.41 85.7309 1445.98 Q87.5596 1449.52 91.1706 1449.52 Q94.8049 1449.52 96.6104 1445.98 Q98.4391 1442.41 98.4391 1435.3 Q98.4391 1428.18 96.6104 1424.63 Q94.8049 1421.07 91.1706 1421.07 M91.1706 1417.37 Q96.9808 1417.37 100.036 1421.97 Q103.115 1426.55 103.115 1435.3 Q103.115 1444.03 100.036 1448.64 Q96.9808 1453.22 91.1706 1453.22 Q85.3605 1453.22 82.2818 1448.64 Q79.2263 1444.03 79.2263 1435.3 Q79.2263 1426.55 82.2818 1421.97 Q85.3605 1417.37 91.1706 1417.37 Z" fill="#000000" fill-rule="evenodd" fill-opacity="1" /><path clip-path="url(#clip300)" d="M 0 0 M108.184 1446.67 L113.069 1446.67 L113.069 1452.55 L108.184 1452.55 L108.184 1446.67 Z" fill="#000000" fill-rule="evenodd" fill-opacity="1" /><path clip-path="url(#clip300)" d="M 0 0 M128.138 1421.07 Q124.527 1421.07 122.698 1424.63 Q120.893 1428.18 120.893 1435.3 Q120.893 1442.41 122.698 1445.98 Q124.527 1449.52 128.138 1449.52 Q131.772 1449.52 133.578 1445.98 Q135.407 1442.41 135.407 1435.3 Q135.407 1428.18 133.578 1424.63 Q131.772 1421.07 128.138 1421.07 M128.138 1417.37 Q133.948 1417.37 137.004 1421.97 Q140.082 1426.55 140.082 1435.3 Q140.082 1444.03 137.004 1448.64 Q133.948 1453.22 128.138 1453.22 Q122.328 1453.22 119.249 1448.64 Q116.194 1444.03 116.194 1435.3 Q116.194 1426.55 119.249 1421.97 Q122.328 1417.37 128.138 1417.37 Z" fill="#000000" fill-rule="evenodd" fill-opacity="1" /><path clip-path="url(#clip300)" d="M 0 0 M92.7679 1143.12 Q89.1568 1143.12 87.3281 1146.68 Q85.5225 1150.22 85.5225 1157.35 Q85.5225 1164.46 87.3281 1168.02 Q89.1568 1171.57 92.7679 1171.57 Q96.4021 1171.57 98.2076 1168.02 Q100.036 1164.46 100.036 1157.35 Q100.036 1150.22 98.2076 1146.68 Q96.4021 1143.12 92.7679 1143.12 M92.7679 1139.41 Q98.578 1139.41 101.634 1144.02 Q104.712 1148.6 104.712 1157.35 Q104.712 1166.08 101.634 1170.69 Q98.578 1175.27 92.7679 1175.27 Q86.9577 1175.27 83.879 1170.69 Q80.8235 1166.08 80.8235 1157.35 Q80.8235 1148.6 83.879 1144.02 Q86.9577 1139.41 92.7679 1139.41 Z" fill="#000000" fill-rule="evenodd" fill-opacity="1" /><path clip-path="url(#clip300)" d="M 0 0 M109.782 1168.72 L114.666 1168.72 L114.666 1174.6 L109.782 1174.6 L109.782 1168.72 Z" fill="#000000" fill-rule="evenodd" fill-opacity="1" /><path clip-path="url(#clip300)" d="M 0 0 M123.763 1170.66 L140.082 1170.66 L140.082 1174.6 L118.138 1174.6 L118.138 1170.66 Q120.8 1167.91 125.383 1163.28 Q129.99 1158.63 131.17 1157.28 Q133.416 1154.76 134.295 1153.02 Q135.198 1151.26 135.198 1149.57 Q135.198 1146.82 133.254 1145.08 Q131.332 1143.35 128.231 1143.35 Q126.032 1143.35 123.578 1144.11 Q121.147 1144.88 118.37 1146.43 L118.37 1141.7 Q121.194 1140.57 123.647 1139.99 Q126.101 1139.41 128.138 1139.41 Q133.508 1139.41 136.703 1142.1 Q139.897 1144.78 139.897 1149.27 Q139.897 1151.4 139.087 1153.32 Q138.3 1155.22 136.194 1157.82 Q135.615 1158.49 132.513 1161.7 Q129.411 1164.9 123.763 1170.66 Z" fill="#000000" fill-rule="evenodd" fill-opacity="1" /><path clip-path="url(#clip300)" d="M 0 0 M90.6845 865.164 Q87.0734 865.164 85.2448 868.729 Q83.4392 872.271 83.4392 879.4 Q83.4392 886.507 85.2448 890.072 Q87.0734 893.613 90.6845 893.613 Q94.3188 893.613 96.1243 890.072 Q97.953 886.507 97.953 879.4 Q97.953 872.271 96.1243 868.729 Q94.3188 865.164 90.6845 865.164 M90.6845 861.461 Q96.4947 861.461 99.5502 866.067 Q102.629 870.65 102.629 879.4 Q102.629 888.127 99.5502 892.734 Q96.4947 897.317 90.6845 897.317 Q84.8744 897.317 81.7957 892.734 Q78.7402 888.127 78.7402 879.4 Q78.7402 870.65 81.7957 866.067 Q84.8744 861.461 90.6845 861.461 Z" fill="#000000" fill-rule="evenodd" fill-opacity="1" /><path clip-path="url(#clip300)" d="M 0 0 M107.698 890.766 L112.583 890.766 L112.583 896.646 L107.698 896.646 L107.698 890.766 Z" fill="#000000" fill-rule="evenodd" fill-opacity="1" /><path clip-path="url(#clip300)" d="M 0 0 M130.499 866.16 L118.694 884.609 L130.499 884.609 L130.499 866.16 M129.272 862.086 L135.152 862.086 L135.152 884.609 L140.082 884.609 L140.082 888.497 L135.152 888.497 L135.152 896.646 L130.499 896.646 L130.499 888.497 L114.897 888.497 L114.897 883.984 L129.272 862.086 Z" fill="#000000" fill-rule="evenodd" fill-opacity="1" /><path clip-path="url(#clip300)" d="M 0 0 M91.0086 587.212 Q87.3975 587.212 85.5688 590.777 Q83.7633 594.318 83.7633 601.448 Q83.7633 608.554 85.5688 612.119 Q87.3975 615.661 91.0086 615.661 Q94.6429 615.661 96.4484 612.119 Q98.2771 608.554 98.2771 601.448 Q98.2771 594.318 96.4484 590.777 Q94.6429 587.212 91.0086 587.212 M91.0086 583.508 Q96.8188 583.508 99.8743 588.115 Q102.953 592.698 102.953 601.448 Q102.953 610.175 99.8743 614.781 Q96.8188 619.365 91.0086 619.365 Q85.1985 619.365 82.1198 614.781 Q79.0642 610.175 79.0642 601.448 Q79.0642 592.698 82.1198 588.115 Q85.1985 583.508 91.0086 583.508 Z" fill="#000000" fill-rule="evenodd" fill-opacity="1" /><path clip-path="url(#clip300)" d="M 0 0 M108.022 612.814 L112.907 612.814 L112.907 618.693 L108.022 618.693 L108.022 612.814 Z" fill="#000000" fill-rule="evenodd" fill-opacity="1" /><path clip-path="url(#clip300)" d="M 0 0 M128.555 599.55 Q125.407 599.55 123.555 601.703 Q121.726 603.855 121.726 607.605 Q121.726 611.332 123.555 613.508 Q125.407 615.661 128.555 615.661 Q131.703 615.661 133.532 613.508 Q135.383 611.332 135.383 607.605 Q135.383 603.855 133.532 601.703 Q131.703 599.55 128.555 599.55 M137.837 584.897 L137.837 589.156 Q136.078 588.323 134.272 587.883 Q132.49 587.443 130.731 587.443 Q126.101 587.443 123.647 590.568 Q121.217 593.693 120.87 600.013 Q122.235 597.999 124.295 596.934 Q126.356 595.846 128.832 595.846 Q134.041 595.846 137.05 599.017 Q140.082 602.166 140.082 607.605 Q140.082 612.929 136.934 616.147 Q133.786 619.365 128.555 619.365 Q122.559 619.365 119.388 614.781 Q116.217 610.175 116.217 601.448 Q116.217 593.254 120.106 588.393 Q123.995 583.508 130.545 583.508 Q132.305 583.508 134.087 583.856 Q135.893 584.203 137.837 584.897 Z" fill="#000000" fill-rule="evenodd" fill-opacity="1" /><path clip-path="url(#clip300)" d="M 0 0 M91.2632 309.26 Q87.6521 309.26 85.8235 312.825 Q84.0179 316.366 84.0179 323.496 Q84.0179 330.602 85.8235 334.167 Q87.6521 337.709 91.2632 337.709 Q94.8975 337.709 96.703 334.167 Q98.5317 330.602 98.5317 323.496 Q98.5317 316.366 96.703 312.825 Q94.8975 309.26 91.2632 309.26 M91.2632 305.556 Q97.0734 305.556 100.129 310.162 Q103.208 314.746 103.208 323.496 Q103.208 332.223 100.129 336.829 Q97.0734 341.412 91.2632 341.412 Q85.4531 341.412 82.3744 336.829 Q79.3189 332.223 79.3189 323.496 Q79.3189 314.746 82.3744 310.162 Q85.4531 305.556 91.2632 305.556 Z" fill="#000000" fill-rule="evenodd" fill-opacity="1" /><path clip-path="url(#clip300)" d="M 0 0 M108.277 334.861 L113.161 334.861 L113.161 340.741 L108.277 340.741 L108.277 334.861 Z" fill="#000000" fill-rule="evenodd" fill-opacity="1" /><path clip-path="url(#clip300)" d="M 0 0 M128.231 324.329 Q124.897 324.329 122.976 326.111 Q121.078 327.894 121.078 331.019 Q121.078 334.144 122.976 335.926 Q124.897 337.709 128.231 337.709 Q131.564 337.709 133.485 335.926 Q135.407 334.121 135.407 331.019 Q135.407 327.894 133.485 326.111 Q131.587 324.329 128.231 324.329 M123.555 322.338 Q120.545 321.598 118.856 319.537 Q117.189 317.477 117.189 314.514 Q117.189 310.371 120.129 307.963 Q123.092 305.556 128.231 305.556 Q133.393 305.556 136.332 307.963 Q139.272 310.371 139.272 314.514 Q139.272 317.477 137.582 319.537 Q135.916 321.598 132.93 322.338 Q136.309 323.125 138.184 325.417 Q140.082 327.709 140.082 331.019 Q140.082 336.042 137.004 338.727 Q133.948 341.412 128.231 341.412 Q122.513 341.412 119.434 338.727 Q116.379 336.042 116.379 331.019 Q116.379 327.709 118.277 325.417 Q120.175 323.125 123.555 322.338 M121.842 314.954 Q121.842 317.639 123.508 319.144 Q125.198 320.649 128.231 320.649 Q131.24 320.649 132.93 319.144 Q134.643 317.639 134.643 314.954 Q134.643 312.269 132.93 310.764 Q131.24 309.26 128.231 309.26 Q125.198 309.26 123.508 310.764 Q121.842 312.269 121.842 314.954 Z" fill="#000000" fill-rule="evenodd" fill-opacity="1" /><path clip-path="url(#clip300)" d="M 0 0 M1272.58 1521.01 Q1272.58 1522.81 1271.45 1523.84 Q1270.32 1524.84 1269.04 1524.84 Q1267.81 1524.84 1267.17 1524.13 Q1266.52 1523.42 1266.52 1522.52 Q1266.52 1521.3 1267.43 1520.23 Q1268.33 1519.17 1269.68 1518.95 Q1268.36 1518.11 1266.4 1518.11 Q1265.11 1518.11 1263.98 1518.78 Q1262.89 1519.46 1262.21 1520.33 Q1261.56 1521.2 1260.99 1522.46 Q1260.44 1523.68 1260.21 1524.42 Q1260.02 1525.13 1259.86 1525.9 L1257.6 1534.92 Q1256.51 1539.2 1256.51 1540.72 Q1256.51 1542.58 1257.41 1543.84 Q1258.31 1545.06 1260.12 1545.06 Q1260.82 1545.06 1261.63 1544.87 Q1262.43 1544.65 1263.46 1544.07 Q1264.53 1543.45 1265.46 1542.55 Q1266.43 1541.62 1267.36 1540.04 Q1268.3 1538.46 1268.91 1536.43 Q1269.1 1535.73 1269.75 1535.73 Q1270.55 1535.73 1270.55 1536.37 Q1270.55 1536.92 1270.1 1538.08 Q1269.68 1539.2 1268.75 1540.68 Q1267.84 1542.13 1266.65 1543.45 Q1265.46 1544.74 1263.69 1545.64 Q1261.92 1546.55 1259.99 1546.55 Q1257.22 1546.55 1255.38 1545.06 Q1253.55 1543.58 1252.87 1541.52 Q1252.71 1541.81 1252.48 1542.2 Q1252.26 1542.58 1251.58 1543.45 Q1250.94 1544.29 1250.2 1544.94 Q1249.46 1545.55 1248.3 1546.03 Q1247.17 1546.55 1245.94 1546.55 Q1244.4 1546.55 1243.01 1546.1 Q1241.66 1545.64 1240.7 1544.61 Q1239.73 1543.58 1239.73 1542.17 Q1239.73 1540.59 1240.79 1539.49 Q1241.89 1538.37 1243.37 1538.37 Q1244.3 1538.37 1245.04 1538.91 Q1245.82 1539.46 1245.82 1540.65 Q1245.82 1541.97 1244.91 1542.97 Q1244.01 1543.97 1242.72 1544.23 Q1244.04 1545.06 1246.01 1545.06 Q1248.13 1545.06 1249.81 1543.2 Q1251.48 1541.33 1252.29 1538.2 Q1254.29 1530.7 1255.06 1527.35 Q1255.83 1523.97 1255.83 1522.52 Q1255.83 1521.17 1255.48 1520.23 Q1255.12 1519.3 1254.51 1518.88 Q1253.93 1518.43 1253.38 1518.27 Q1252.87 1518.11 1252.29 1518.11 Q1251.32 1518.11 1250.23 1518.49 Q1249.17 1518.88 1247.88 1519.78 Q1246.62 1520.65 1245.43 1522.46 Q1244.24 1524.26 1243.43 1526.74 Q1243.27 1527.48 1242.56 1527.48 Q1241.79 1527.45 1241.79 1526.8 Q1241.79 1526.26 1242.21 1525.13 Q1242.66 1523.97 1243.56 1522.52 Q1244.5 1521.07 1245.69 1519.78 Q1246.91 1518.46 1248.68 1517.56 Q1250.49 1516.66 1252.42 1516.66 Q1253.29 1516.66 1254.13 1516.85 Q1254.99 1517.01 1256.03 1517.5 Q1257.09 1517.98 1258.02 1519.04 Q1258.96 1520.11 1259.54 1521.65 Q1259.92 1520.91 1260.44 1520.2 Q1260.99 1519.49 1261.82 1518.62 Q1262.69 1517.72 1263.88 1517.21 Q1265.11 1516.66 1266.46 1516.66 Q1267.78 1516.66 1269.07 1517.01 Q1270.36 1517.34 1271.45 1518.4 Q1272.58 1519.43 1272.58 1521.01 Z" fill="#000000" fill-rule="evenodd" fill-opacity="1" /><path clip-path="url(#clip300)" d="M 0 0 M56.8247 744.546 Q57.2755 744.546 58.3383 744.836 L83.5233 751.148 Q89.1271 752.533 93.0563 757.042 Q96.9854 761.518 96.9854 766.607 Q96.9854 769.667 95.3429 771.631 Q93.7326 773.596 91.2527 773.596 Q89.0627 773.596 87.9999 772.436 Q86.9693 771.277 86.9693 769.892 Q86.9693 769.441 87.0982 768.958 Q87.227 768.475 87.7745 767.96 Q88.322 767.444 89.256 767.444 Q90.7696 767.444 91.9613 768.765 Q92.5088 769.409 92.6376 770.021 Q92.7664 770.601 92.7664 771.599 Q93.6682 771.212 94.2801 770.504 Q94.892 769.795 95.1174 768.99 Q95.3751 768.185 95.4395 767.67 Q95.5361 767.122 95.5361 766.607 Q95.5361 762.485 91.3815 759.328 Q90.1255 758.395 88.8695 757.718 Q87.6457 757.01 86.132 756.494 Q84.6505 755.979 83.8454 755.754 Q83.0402 755.496 81.2045 755.045 Q84.1996 758.04 84.1996 761.712 Q84.1996 763.258 83.781 764.642 Q83.3623 765.995 82.4927 767.187 Q81.591 768.378 80.0129 769.087 Q78.4348 769.763 76.3414 769.763 Q74.1192 769.763 71.0919 768.894 Q68.0645 768.024 62.4929 765.931 Q59.3689 764.803 57.8552 764.803 Q57.1145 764.803 56.6636 764.965 Q56.1805 765.126 56.0195 765.448 Q55.8263 765.77 55.7941 765.963 Q55.7619 766.124 55.7619 766.446 Q55.7619 768.346 57.6942 770.117 Q59.6266 771.889 63.9422 773.113 Q64.7473 773.37 64.9405 773.531 Q65.1338 773.692 65.1338 774.175 Q65.1016 774.981 64.4574 774.981 Q64.1998 774.981 63.2014 774.691 Q62.1708 774.401 60.6572 773.725 Q59.1113 773.016 57.7264 772.05 Q56.3094 771.084 55.311 769.57 Q54.3126 768.024 54.3126 766.253 Q54.3126 763.837 55.8907 762.356 Q57.4366 760.842 59.7232 760.842 Q60.6572 760.842 61.4945 761.1 Q62.2997 761.325 64.4574 762.163 Q73.153 765.544 77.4042 765.544 Q78.4348 765.544 79.3044 765.383 Q80.1417 765.19 80.9791 764.771 Q81.7842 764.353 82.2673 763.515 Q82.7182 762.646 82.7182 761.454 Q82.7182 759.94 82.0096 758.523 Q81.2689 757.074 80.2705 756.172 Q79.2721 755.238 78.4348 754.691 Q77.5652 754.111 77.1144 753.982 L65.2626 751.019 L59.9808 749.699 Q57.1145 749.087 56.406 748.797 Q55.7297 748.411 55.3754 747.734 Q55.0211 747.058 55.0211 746.478 Q55.0211 745.673 55.5042 745.126 Q55.9873 744.546 56.8247 744.546 Z" fill="#000000" fill-rule="evenodd" fill-opacity="1" /><polyline clip-path="url(#clip302)" style="stroke:#009af9; stroke-width:4; stroke-opacity:1; fill:none" points="
  226.026,87.5306 455.447,1056.79 684.867,256.917 914.288,847.95 1143.71,748.557 1373.13,1430.41 1602.55,466.146 1831.97,306.232 2061.39,164.277 2290.81,490.948 
  
  "/>
<path clip-path="url(#clip300)" d="
M1989.74 251.724 L2280.76 251.724 L2280.76 130.764 L1989.74 130.764  Z
  " fill="#ffffff" fill-rule="evenodd" fill-opacity="1"/>
<polyline clip-path="url(#clip300)" style="stroke:#000000; stroke-width:4; stroke-opacity:1; fill:none" points="
  1989.74,251.724 2280.76,251.724 2280.76,130.764 1989.74,130.764 1989.74,251.724 
  "/>
<polyline clip-path="url(#clip300)" style="stroke:#009af9; stroke-width:4; stroke-opacity:1; fill:none" points="
  2013.74,191.244 2157.74,191.244 
  "/>
<path clip-path="url(#clip300)" d="M 0 0 M2195.58 210.931 Q2193.77 215.561 2192.06 216.973 Q2190.35 218.385 2187.48 218.385 L2184.08 218.385 L2184.08 214.82 L2186.58 214.82 Q2188.33 214.82 2189.31 213.987 Q2190.28 213.154 2191.46 210.052 L2192.22 208.107 L2181.74 182.598 L2186.25 182.598 L2194.35 202.876 L2202.46 182.598 L2206.97 182.598 L2195.58 210.931 Z" fill="#000000" fill-rule="evenodd" fill-opacity="1" /><path clip-path="url(#clip300)" d="M 0 0 M2212.85 204.589 L2220.49 204.589 L2220.49 178.223 L2212.18 179.89 L2212.18 175.631 L2220.44 173.964 L2225.12 173.964 L2225.12 204.589 L2232.76 204.589 L2232.76 208.524 L2212.85 208.524 L2212.85 204.589 Z" fill="#000000" fill-rule="evenodd" fill-opacity="1" /></svg>
