<?xml version="1.0" encoding="utf-8"?>
<svg xmlns="http://www.w3.org/2000/svg" xmlns:xlink="http://www.w3.org/1999/xlink" width="600" height="400" viewBox="0 0 2400 1600">
<defs>
  <clipPath id="clip720">
    <rect x="0" y="0" width="2400" height="1600"/>
  </clipPath>
</defs>
<path clip-path="url(#clip720)" d="
M0 1600 L2400 1600 L2400 0 L0 0  Z
  " fill="#ffffff" fill-rule="evenodd" fill-opacity="1"/>
<defs>
  <clipPath id="clip721">
    <rect x="480" y="0" width="1681" height="1600"/>
  </clipPath>
</defs>
<path clip-path="url(#clip720)" d="
M179.769 1455.01 L2352.76 1455.01 L2352.76 78.6784 L179.769 78.6784  Z
  " fill="#ffffff" fill-rule="evenodd" fill-opacity="1"/>
<defs>
  <clipPath id="clip722">
    <rect x="179" y="78" width="2174" height="1377"/>
  </clipPath>
</defs>
<polyline clip-path="url(#clip722)" style="stroke:#000000; stroke-width:2; stroke-opacity:0.1; fill:none" points="
  469.045,1455.01 469.045,78.6784 
  "/>
<polyline clip-path="url(#clip722)" style="stroke:#000000; stroke-width:2; stroke-opacity:0.1; fill:none" points="
  924.598,1455.01 924.598,78.6784 
  "/>
<polyline clip-path="url(#clip722)" style="stroke:#000000; stroke-width:2; stroke-opacity:0.1; fill:none" points="
  1380.15,1455.01 1380.15,78.6784 
  "/>
<polyline clip-path="url(#clip722)" style="stroke:#000000; stroke-width:2; stroke-opacity:0.1; fill:none" points="
  1835.7,1455.01 1835.7,78.6784 
  "/>
<polyline clip-path="url(#clip722)" style="stroke:#000000; stroke-width:2; stroke-opacity:0.1; fill:none" points="
  2291.26,1455.01 2291.26,78.6784 
  "/>
<polyline clip-path="url(#clip722)" style="stroke:#000000; stroke-width:2; stroke-opacity:0.1; fill:none" points="
  179.769,1329.82 2352.76,1329.82 
  "/>
<polyline clip-path="url(#clip722)" style="stroke:#000000; stroke-width:2; stroke-opacity:0.1; fill:none" points="
  179.769,988.23 2352.76,988.23 
  "/>
<polyline clip-path="url(#clip722)" style="stroke:#000000; stroke-width:2; stroke-opacity:0.1; fill:none" points="
  179.769,646.64 2352.76,646.64 
  "/>
<polyline clip-path="url(#clip722)" style="stroke:#000000; stroke-width:2; stroke-opacity:0.1; fill:none" points="
  179.769,305.05 2352.76,305.05 
  "/>
<polyline clip-path="url(#clip720)" style="stroke:#000000; stroke-width:4; stroke-opacity:1; fill:none" points="
  179.769,1455.01 2352.76,1455.01 
  "/>
<polyline clip-path="url(#clip720)" style="stroke:#000000; stroke-width:4; stroke-opacity:1; fill:none" points="
  179.769,1455.01 179.769,78.6784 
  "/>
<polyline clip-path="url(#clip720)" style="stroke:#000000; stroke-width:4; stroke-opacity:1; fill:none" points="
  469.045,1455.01 469.045,1438.5 
  "/>
<polyline clip-path="url(#clip720)" style="stroke:#000000; stroke-width:4; stroke-opacity:1; fill:none" points="
  924.598,1455.01 924.598,1438.5 
  "/>
<polyline clip-path="url(#clip720)" style="stroke:#000000; stroke-width:4; stroke-opacity:1; fill:none" points="
  1380.15,1455.01 1380.15,1438.5 
  "/>
<polyline clip-path="url(#clip720)" style="stroke:#000000; stroke-width:4; stroke-opacity:1; fill:none" points="
  1835.7,1455.01 1835.7,1438.5 
  "/>
<polyline clip-path="url(#clip720)" style="stroke:#000000; stroke-width:4; stroke-opacity:1; fill:none" points="
  2291.26,1455.01 2291.26,1438.5 
  "/>
<polyline clip-path="url(#clip720)" style="stroke:#000000; stroke-width:4; stroke-opacity:1; fill:none" points="
  179.769,1329.82 205.845,1329.82 
  "/>
<polyline clip-path="url(#clip720)" style="stroke:#000000; stroke-width:4; stroke-opacity:1; fill:none" points="
  179.769,988.23 205.845,988.23 
  "/>
<polyline clip-path="url(#clip720)" style="stroke:#000000; stroke-width:4; stroke-opacity:1; fill:none" points="
  179.769,646.64 205.845,646.64 
  "/>
<polyline clip-path="url(#clip720)" style="stroke:#000000; stroke-width:4; stroke-opacity:1; fill:none" points="
  179.769,305.05 205.845,305.05 
  "/>
<path clip-path="url(#clip720)" d="M 0 0 M463.698 1504.55 L480.017 1504.55 L480.017 1508.49 L458.073 1508.49 L458.073 1504.55 Q460.735 1501.8 465.318 1497.17 Q469.924 1492.51 471.105 1491.17 Q473.35 1488.65 474.23 1486.91 Q475.133 1485.15 475.133 1483.46 Q475.133 1480.71 473.188 1478.97 Q471.267 1477.24 468.165 1477.24 Q465.966 1477.24 463.512 1478 Q461.082 1478.76 458.304 1480.31 L458.304 1475.59 Q461.128 1474.46 463.582 1473.88 Q466.036 1473.3 468.073 1473.3 Q473.443 1473.3 476.637 1475.99 Q479.832 1478.67 479.832 1483.16 Q479.832 1485.29 479.022 1487.21 Q478.235 1489.11 476.128 1491.7 Q475.549 1492.37 472.448 1495.59 Q469.346 1498.79 463.698 1504.55 Z" fill="#000000" fill-rule="evenodd" fill-opacity="1" /><path clip-path="url(#clip720)" d="M 0 0 M927.607 1478 L915.801 1496.45 L927.607 1496.45 L927.607 1478 M926.38 1473.93 L932.26 1473.93 L932.26 1496.45 L937.19 1496.45 L937.19 1500.34 L932.26 1500.34 L932.26 1508.49 L927.607 1508.49 L927.607 1500.34 L912.005 1500.34 L912.005 1495.82 L926.38 1473.93 Z" fill="#000000" fill-rule="evenodd" fill-opacity="1" /><path clip-path="url(#clip720)" d="M 0 0 M1380.56 1489.34 Q1377.41 1489.34 1375.56 1491.49 Q1373.73 1493.65 1373.73 1497.4 Q1373.73 1501.12 1375.56 1503.3 Q1377.41 1505.45 1380.56 1505.45 Q1383.7 1505.45 1385.53 1503.3 Q1387.38 1501.12 1387.38 1497.4 Q1387.38 1493.65 1385.53 1491.49 Q1383.7 1489.34 1380.56 1489.34 M1389.84 1474.69 L1389.84 1478.95 Q1388.08 1478.12 1386.27 1477.68 Q1384.49 1477.24 1382.73 1477.24 Q1378.1 1477.24 1375.65 1480.36 Q1373.22 1483.49 1372.87 1489.81 Q1374.24 1487.79 1376.3 1486.73 Q1378.36 1485.64 1380.83 1485.64 Q1386.04 1485.64 1389.05 1488.81 Q1392.08 1491.96 1392.08 1497.4 Q1392.08 1502.72 1388.94 1505.94 Q1385.79 1509.16 1380.56 1509.16 Q1374.56 1509.16 1371.39 1504.57 Q1368.22 1499.97 1368.22 1491.24 Q1368.22 1483.05 1372.11 1478.18 Q1376 1473.3 1382.55 1473.3 Q1384.31 1473.3 1386.09 1473.65 Q1387.89 1474 1389.84 1474.69 Z" fill="#000000" fill-rule="evenodd" fill-opacity="1" /><path clip-path="url(#clip720)" d="M 0 0 M1835.7 1492.07 Q1832.37 1492.07 1830.45 1493.86 Q1828.55 1495.64 1828.55 1498.76 Q1828.55 1501.89 1830.45 1503.67 Q1832.37 1505.45 1835.7 1505.45 Q1839.04 1505.45 1840.96 1503.67 Q1842.88 1501.87 1842.88 1498.76 Q1842.88 1495.64 1840.96 1493.86 Q1839.06 1492.07 1835.7 1492.07 M1831.03 1490.08 Q1828.02 1489.34 1826.33 1487.28 Q1824.66 1485.22 1824.66 1482.26 Q1824.66 1478.12 1827.6 1475.71 Q1830.56 1473.3 1835.7 1473.3 Q1840.87 1473.3 1843.81 1475.71 Q1846.75 1478.12 1846.75 1482.26 Q1846.75 1485.22 1845.06 1487.28 Q1843.39 1489.34 1840.4 1490.08 Q1843.78 1490.87 1845.66 1493.16 Q1847.56 1495.45 1847.56 1498.76 Q1847.56 1503.79 1844.48 1506.47 Q1841.42 1509.16 1835.7 1509.16 Q1829.99 1509.16 1826.91 1506.47 Q1823.85 1503.79 1823.85 1498.76 Q1823.85 1495.45 1825.75 1493.16 Q1827.65 1490.87 1831.03 1490.08 M1829.31 1482.7 Q1829.31 1485.38 1830.98 1486.89 Q1832.67 1488.39 1835.7 1488.39 Q1838.71 1488.39 1840.4 1486.89 Q1842.12 1485.38 1842.12 1482.7 Q1842.12 1480.01 1840.4 1478.51 Q1838.71 1477 1835.7 1477 Q1832.67 1477 1830.98 1478.51 Q1829.31 1480.01 1829.31 1482.7 Z" fill="#000000" fill-rule="evenodd" fill-opacity="1" /><path clip-path="url(#clip720)" d="M 0 0 M2268.13 1504.55 L2275.77 1504.55 L2275.77 1478.18 L2267.46 1479.85 L2267.46 1475.59 L2275.72 1473.93 L2280.4 1473.93 L2280.4 1504.55 L2288.04 1504.55 L2288.04 1508.49 L2268.13 1508.49 L2268.13 1504.55 Z" fill="#000000" fill-rule="evenodd" fill-opacity="1" /><path clip-path="url(#clip720)" d="M 0 0 M2303.11 1477 Q2299.5 1477 2297.67 1480.57 Q2295.86 1484.11 2295.86 1491.24 Q2295.86 1498.35 2297.67 1501.91 Q2299.5 1505.45 2303.11 1505.45 Q2306.74 1505.45 2308.55 1501.91 Q2310.38 1498.35 2310.38 1491.24 Q2310.38 1484.11 2308.55 1480.57 Q2306.74 1477 2303.11 1477 M2303.11 1473.3 Q2308.92 1473.3 2311.97 1477.91 Q2315.05 1482.49 2315.05 1491.24 Q2315.05 1499.97 2311.97 1504.57 Q2308.92 1509.16 2303.11 1509.16 Q2297.3 1509.16 2294.22 1504.57 Q2291.16 1499.97 2291.16 1491.24 Q2291.16 1482.49 2294.22 1477.91 Q2297.3 1473.3 2303.11 1473.3 Z" fill="#000000" fill-rule="evenodd" fill-opacity="1" /><path clip-path="url(#clip720)" d="M 0 0 M108.454 1315.62 Q104.843 1315.62 103.014 1319.18 Q101.209 1322.72 101.209 1329.85 Q101.209 1336.96 103.014 1340.53 Q104.843 1344.07 108.454 1344.07 Q112.088 1344.07 113.894 1340.53 Q115.723 1336.96 115.723 1329.85 Q115.723 1322.72 113.894 1319.18 Q112.088 1315.62 108.454 1315.62 M108.454 1311.91 Q114.264 1311.91 117.32 1316.52 Q120.399 1321.1 120.399 1329.85 Q120.399 1338.58 117.32 1343.19 Q114.264 1347.77 108.454 1347.77 Q102.644 1347.77 99.5653 1343.19 Q96.5098 1338.58 96.5098 1329.85 Q96.5098 1321.1 99.5653 1316.52 Q102.644 1311.91 108.454 1311.91 Z" fill="#000000" fill-rule="evenodd" fill-opacity="1" /><path clip-path="url(#clip720)" d="M 0 0 M125.468 1341.22 L130.352 1341.22 L130.352 1347.1 L125.468 1347.1 L125.468 1341.22 Z" fill="#000000" fill-rule="evenodd" fill-opacity="1" /><path clip-path="url(#clip720)" d="M 0 0 M139.449 1343.16 L155.769 1343.16 L155.769 1347.1 L133.824 1347.1 L133.824 1343.16 Q136.486 1340.41 141.07 1335.78 Q145.676 1331.13 146.857 1329.78 Q149.102 1327.26 149.982 1325.53 Q150.884 1323.77 150.884 1322.08 Q150.884 1319.32 148.94 1317.59 Q147.019 1315.85 143.917 1315.85 Q141.718 1315.85 139.264 1316.61 Q136.834 1317.38 134.056 1318.93 L134.056 1314.21 Q136.88 1313.07 139.334 1312.49 Q141.787 1311.91 143.824 1311.91 Q149.195 1311.91 152.389 1314.6 Q155.584 1317.28 155.584 1321.78 Q155.584 1323.91 154.773 1325.83 Q153.986 1327.72 151.88 1330.32 Q151.301 1330.99 148.199 1334.21 Q145.097 1337.4 139.449 1343.16 Z" fill="#000000" fill-rule="evenodd" fill-opacity="1" /><path clip-path="url(#clip720)" d="M 0 0 M106.371 974.028 Q102.76 974.028 100.931 977.593 Q99.1255 981.135 99.1255 988.265 Q99.1255 995.371 100.931 998.936 Q102.76 1002.48 106.371 1002.48 Q110.005 1002.48 111.811 998.936 Q113.639 995.371 113.639 988.265 Q113.639 981.135 111.811 977.593 Q110.005 974.028 106.371 974.028 M106.371 970.325 Q112.181 970.325 115.237 974.931 Q118.315 979.515 118.315 988.265 Q118.315 996.991 115.237 1001.6 Q112.181 1006.18 106.371 1006.18 Q100.561 1006.18 97.482 1001.6 Q94.4264 996.991 94.4264 988.265 Q94.4264 979.515 97.482 974.931 Q100.561 970.325 106.371 970.325 Z" fill="#000000" fill-rule="evenodd" fill-opacity="1" /><path clip-path="url(#clip720)" d="M 0 0 M123.385 999.63 L128.269 999.63 L128.269 1005.51 L123.385 1005.51 L123.385 999.63 Z" fill="#000000" fill-rule="evenodd" fill-opacity="1" /><path clip-path="url(#clip720)" d="M 0 0 M146.185 975.024 L134.38 993.473 L146.185 993.473 L146.185 975.024 M144.959 970.95 L150.838 970.95 L150.838 993.473 L155.769 993.473 L155.769 997.362 L150.838 997.362 L150.838 1005.51 L146.185 1005.51 L146.185 997.362 L130.584 997.362 L130.584 992.848 L144.959 970.95 Z" fill="#000000" fill-rule="evenodd" fill-opacity="1" /><path clip-path="url(#clip720)" d="M 0 0 M106.695 632.439 Q103.084 632.439 101.255 636.004 Q99.4496 639.545 99.4496 646.675 Q99.4496 653.781 101.255 657.346 Q103.084 660.888 106.695 660.888 Q110.329 660.888 112.135 657.346 Q113.963 653.781 113.963 646.675 Q113.963 639.545 112.135 636.004 Q110.329 632.439 106.695 632.439 M106.695 628.735 Q112.505 628.735 115.561 633.342 Q118.639 637.925 118.639 646.675 Q118.639 655.402 115.561 660.008 Q112.505 664.591 106.695 664.591 Q100.885 664.591 97.806 660.008 Q94.7505 655.402 94.7505 646.675 Q94.7505 637.925 97.806 633.342 Q100.885 628.735 106.695 628.735 Z" fill="#000000" fill-rule="evenodd" fill-opacity="1" /><path clip-path="url(#clip720)" d="M 0 0 M123.709 658.04 L128.593 658.04 L128.593 663.92 L123.709 663.92 L123.709 658.04 Z" fill="#000000" fill-rule="evenodd" fill-opacity="1" /><path clip-path="url(#clip720)" d="M 0 0 M144.241 644.777 Q141.093 644.777 139.241 646.929 Q137.412 649.082 137.412 652.832 Q137.412 656.559 139.241 658.735 Q141.093 660.888 144.241 660.888 Q147.389 660.888 149.218 658.735 Q151.07 656.559 151.07 652.832 Q151.07 649.082 149.218 646.929 Q147.389 644.777 144.241 644.777 M153.523 630.124 L153.523 634.383 Q151.764 633.55 149.959 633.11 Q148.176 632.67 146.417 632.67 Q141.787 632.67 139.334 635.795 Q136.903 638.92 136.556 645.24 Q137.922 643.226 139.982 642.161 Q142.042 641.073 144.519 641.073 Q149.727 641.073 152.736 644.244 Q155.769 647.392 155.769 652.832 Q155.769 658.156 152.621 661.374 Q149.472 664.591 144.241 664.591 Q138.246 664.591 135.074 660.008 Q131.903 655.402 131.903 646.675 Q131.903 638.48 135.792 633.619 Q139.681 628.735 146.232 628.735 Q147.991 628.735 149.773 629.082 Q151.579 629.43 153.523 630.124 Z" fill="#000000" fill-rule="evenodd" fill-opacity="1" /><path clip-path="url(#clip720)" d="M 0 0 M106.95 290.849 Q103.338 290.849 101.51 294.414 Q99.7042 297.955 99.7042 305.085 Q99.7042 312.192 101.51 315.756 Q103.338 319.298 106.95 319.298 Q110.584 319.298 112.389 315.756 Q114.218 312.192 114.218 305.085 Q114.218 297.955 112.389 294.414 Q110.584 290.849 106.95 290.849 M106.95 287.145 Q112.76 287.145 115.815 291.752 Q118.894 296.335 118.894 305.085 Q118.894 313.812 115.815 318.418 Q112.76 323.002 106.95 323.002 Q101.139 323.002 98.0607 318.418 Q95.0051 313.812 95.0051 305.085 Q95.0051 296.335 98.0607 291.752 Q101.139 287.145 106.95 287.145 Z" fill="#000000" fill-rule="evenodd" fill-opacity="1" /><path clip-path="url(#clip720)" d="M 0 0 M123.963 316.451 L128.848 316.451 L128.848 322.33 L123.963 322.33 L123.963 316.451 Z" fill="#000000" fill-rule="evenodd" fill-opacity="1" /><path clip-path="url(#clip720)" d="M 0 0 M143.917 305.918 Q140.584 305.918 138.662 307.701 Q136.764 309.483 136.764 312.608 Q136.764 315.733 138.662 317.516 Q140.584 319.298 143.917 319.298 Q147.25 319.298 149.172 317.516 Q151.093 315.71 151.093 312.608 Q151.093 309.483 149.172 307.701 Q147.273 305.918 143.917 305.918 M139.241 303.928 Q136.232 303.187 134.542 301.127 Q132.875 299.067 132.875 296.104 Q132.875 291.96 135.815 289.553 Q138.778 287.145 143.917 287.145 Q149.079 287.145 152.019 289.553 Q154.959 291.96 154.959 296.104 Q154.959 299.067 153.269 301.127 Q151.602 303.187 148.616 303.928 Q151.996 304.715 153.871 307.006 Q155.769 309.298 155.769 312.608 Q155.769 317.631 152.69 320.316 Q149.634 323.002 143.917 323.002 Q138.199 323.002 135.121 320.316 Q132.065 317.631 132.065 312.608 Q132.065 309.298 133.963 307.006 Q135.861 304.715 139.241 303.928 M137.528 296.543 Q137.528 299.229 139.195 300.733 Q140.885 302.238 143.917 302.238 Q146.926 302.238 148.616 300.733 Q150.329 299.229 150.329 296.543 Q150.329 293.858 148.616 292.354 Q146.926 290.849 143.917 290.849 Q140.885 290.849 139.195 292.354 Q137.528 293.858 137.528 296.543 Z" fill="#000000" fill-rule="evenodd" fill-opacity="1" /><path clip-path="url(#clip720)" d="M 0 0 M1286.77 4.53628 Q1286.69 4.94617 1286.53 5.68398 Q1286.36 6.3808 1285.63 8.59422 Q1284.89 10.8076 1283.9 13.0621 Q1282.96 15.2755 1281.12 18.3907 Q1279.31 21.4649 1277.1 24.2521 Q1276.49 24.9899 1276.36 25.4408 Q1276.28 25.8507 1276.28 27.2034 Q1276.28 35.7291 1278.86 35.7291 Q1278.99 35.7291 1279.19 35.7291 Q1279.44 35.6881 1280.05 35.4832 Q1280.71 35.2373 1281.28 34.8683 Q1281.85 34.4585 1282.51 33.6387 Q1283.17 32.7779 1283.58 31.6302 Q1283.95 30.8104 1284.68 30.8104 Q1285.67 30.8104 1285.67 31.6302 Q1285.67 33.1058 1283.62 35.3602 Q1281.57 37.6146 1278.62 37.6146 Q1275.79 37.6146 1273.78 35.7701 Q1271.81 33.8846 1270.99 30.5235 Q1262.14 37.6146 1253.29 37.6146 Q1247.05 37.6146 1243.37 33.5567 Q1239.68 29.4578 1239.68 23.3913 Q1239.68 17.5709 1242.87 12.0373 Q1246.11 6.50377 1251.36 3.06067 Q1256.65 -0.423422 1262.26 -0.423422 Q1264.23 -0.423422 1266.11 0.109439 Q1268 0.60131 1269.89 1.87198 Q1271.77 3.14265 1273.17 5.06914 Q1274.56 6.99564 1275.42 10.0288 Q1276.28 13.0621 1276.28 16.8741 L1276.28 22.0797 Q1281.69 15.2345 1284.52 5.43805 Q1284.93 3.96243 1285.18 3.79847 Q1285.34 3.67551 1285.75 3.67551 Q1286.16 3.67551 1286.4 3.92144 Q1286.69 4.12639 1286.73 4.33133 L1286.77 4.53628 M1270.66 28.3511 Q1270.5 26.9164 1270.5 18.9645 Q1270.5 17.4479 1270.5 16.6281 Q1270.5 15.7673 1270.42 14.1278 Q1270.34 12.4882 1270.17 11.4635 Q1270.05 10.4387 1269.76 8.96312 Q1269.48 7.48751 1269.07 6.54476 Q1268.66 5.602 1268 4.53628 Q1267.39 3.47056 1266.57 2.85572 Q1265.79 2.24088 1264.64 1.83099 Q1263.53 1.4211 1262.18 1.4211 Q1260.5 1.4211 1258.74 2.03594 Q1257.02 2.60978 1254.8 4.4543 Q1252.59 6.25783 1250.74 9.12708 Q1248.82 12.1603 1247.34 17.7348 Q1245.91 23.2684 1245.91 26.5885 Q1245.91 30.7694 1247.83 33.2698 Q1249.76 35.7291 1253.45 35.7291 Q1262.26 35.7291 1270.66 28.3511 Z" fill="#000000" fill-rule="evenodd" fill-opacity="1" /><path clip-path="url(#clip720)" d="M 0 0 M1280.42 1535.32 Q1280.42 1537.12 1279.3 1538.15 Q1278.17 1539.15 1276.88 1539.15 Q1275.66 1539.15 1275.01 1538.44 Q1274.37 1537.74 1274.37 1536.83 Q1274.37 1535.61 1275.27 1534.55 Q1276.17 1533.48 1277.52 1533.26 Q1276.2 1532.42 1274.24 1532.42 Q1272.95 1532.42 1271.82 1533.1 Q1270.73 1533.77 1270.05 1534.64 Q1269.41 1535.51 1268.83 1536.77 Q1268.28 1537.99 1268.06 1538.73 Q1267.86 1539.44 1267.7 1540.22 L1265.45 1549.23 Q1264.35 1553.52 1264.35 1555.03 Q1264.35 1556.9 1265.25 1558.15 Q1266.16 1559.38 1267.96 1559.38 Q1268.67 1559.38 1269.47 1559.19 Q1270.28 1558.96 1271.31 1558.38 Q1272.37 1557.77 1273.3 1556.87 Q1274.27 1555.93 1275.2 1554.35 Q1276.14 1552.78 1276.75 1550.75 Q1276.94 1550.04 1277.59 1550.04 Q1278.39 1550.04 1278.39 1550.68 Q1278.39 1551.23 1277.94 1552.39 Q1277.52 1553.52 1276.59 1555 Q1275.69 1556.45 1274.5 1557.77 Q1273.3 1559.06 1271.53 1559.96 Q1269.76 1560.86 1267.83 1560.86 Q1265.06 1560.86 1263.22 1559.38 Q1261.39 1557.9 1260.71 1555.84 Q1260.55 1556.13 1260.33 1556.51 Q1260.1 1556.9 1259.42 1557.77 Q1258.78 1558.61 1258.04 1559.25 Q1257.3 1559.86 1256.14 1560.34 Q1255.01 1560.86 1253.79 1560.86 Q1252.24 1560.86 1250.86 1560.41 Q1249.5 1559.96 1248.54 1558.93 Q1247.57 1557.9 1247.57 1556.48 Q1247.57 1554.9 1248.64 1553.81 Q1249.73 1552.68 1251.21 1552.68 Q1252.15 1552.68 1252.89 1553.23 Q1253.66 1553.77 1253.66 1554.97 Q1253.66 1556.29 1252.76 1557.29 Q1251.86 1558.28 1250.57 1558.54 Q1251.89 1559.38 1253.85 1559.38 Q1255.98 1559.38 1257.65 1557.51 Q1259.33 1555.64 1260.13 1552.52 Q1262.13 1545.01 1262.9 1541.67 Q1263.68 1538.28 1263.68 1536.83 Q1263.68 1535.48 1263.32 1534.55 Q1262.97 1533.61 1262.35 1533.2 Q1261.78 1532.74 1261.23 1532.58 Q1260.71 1532.42 1260.13 1532.42 Q1259.17 1532.42 1258.07 1532.81 Q1257.01 1533.2 1255.72 1534.1 Q1254.46 1534.97 1253.27 1536.77 Q1252.08 1538.57 1251.28 1541.05 Q1251.11 1541.79 1250.41 1541.79 Q1249.63 1541.76 1249.63 1541.12 Q1249.63 1540.57 1250.05 1539.44 Q1250.5 1538.28 1251.4 1536.83 Q1252.34 1535.39 1253.53 1534.1 Q1254.75 1532.78 1256.53 1531.87 Q1258.33 1530.97 1260.26 1530.97 Q1261.13 1530.97 1261.97 1531.17 Q1262.84 1531.33 1263.87 1531.81 Q1264.93 1532.29 1265.87 1533.36 Q1266.8 1534.42 1267.38 1535.96 Q1267.77 1535.22 1268.28 1534.52 Q1268.83 1533.81 1269.67 1532.94 Q1270.54 1532.04 1271.73 1531.52 Q1272.95 1530.97 1274.3 1530.97 Q1275.62 1530.97 1276.91 1531.33 Q1278.2 1531.65 1279.3 1532.71 Q1280.42 1533.74 1280.42 1535.32 Z" fill="#000000" fill-rule="evenodd" fill-opacity="1" /><path clip-path="url(#clip720)" d="M 0 0 M29.5109 752.42 Q29.9618 752.42 31.0246 752.71 L56.2096 759.022 Q61.8134 760.407 65.7425 764.916 Q69.6716 769.393 69.6716 774.481 Q69.6716 777.541 68.0291 779.505 Q66.4189 781.47 63.939 781.47 Q61.749 781.47 60.6862 780.31 Q59.6556 779.151 59.6556 777.766 Q59.6556 777.315 59.7844 776.832 Q59.9133 776.349 60.4608 775.834 Q61.0083 775.318 61.9422 775.318 Q63.4559 775.318 64.6475 776.639 Q65.195 777.283 65.3239 777.895 Q65.4527 778.475 65.4527 779.473 Q66.3544 779.086 66.9664 778.378 Q67.5783 777.669 67.8037 776.864 Q68.0614 776.059 68.1258 775.544 Q68.2224 774.996 68.2224 774.481 Q68.2224 770.359 64.0678 767.203 Q62.8118 766.269 61.5558 765.592 Q60.3319 764.884 58.8183 764.368 Q57.3368 763.853 56.5317 763.628 Q55.7265 763.37 53.8908 762.919 Q56.8859 765.914 56.8859 769.586 Q56.8859 771.132 56.4672 772.516 Q56.0486 773.869 55.179 775.061 Q54.2772 776.252 52.6992 776.961 Q51.1211 777.637 49.0277 777.637 Q46.8055 777.637 43.7781 776.768 Q40.7508 775.898 35.1792 773.805 Q32.0552 772.678 30.5415 772.678 Q29.8008 772.678 29.3499 772.839 Q28.8668 773 28.7058 773.322 Q28.5126 773.644 28.4803 773.837 Q28.4481 773.998 28.4481 774.32 Q28.4481 776.22 30.3805 777.991 Q32.3128 779.763 36.6284 780.987 Q37.4336 781.244 37.6268 781.405 Q37.82 781.566 37.82 782.049 Q37.7878 782.855 37.1437 782.855 Q36.8861 782.855 35.8877 782.565 Q34.8571 782.275 33.3434 781.599 Q31.7976 780.89 30.4127 779.924 Q28.9956 778.958 27.9973 777.444 Q26.9989 775.898 26.9989 774.127 Q26.9989 771.711 28.577 770.23 Q30.1228 768.716 32.4095 768.716 Q33.3434 768.716 34.1808 768.974 Q34.9859 769.199 37.1437 770.037 Q45.8393 773.418 50.0905 773.418 Q51.1211 773.418 51.9906 773.257 Q52.828 773.064 53.6653 772.645 Q54.4705 772.227 54.9536 771.389 Q55.4044 770.52 55.4044 769.328 Q55.4044 767.814 54.6959 766.397 Q53.9552 764.948 52.9568 764.046 Q51.9584 763.112 51.1211 762.565 Q50.2515 761.985 49.8006 761.856 L37.9489 758.893 L32.6671 757.573 Q29.8008 756.961 29.0923 756.671 Q28.4159 756.285 28.0617 755.608 Q27.7074 754.932 27.7074 754.352 Q27.7074 753.547 28.1905 753 Q28.6736 752.42 29.5109 752.42 Z" fill="#000000" fill-rule="evenodd" fill-opacity="1" /><polyline clip-path="url(#clip722)" style="stroke:#009af9; stroke-width:4; stroke-opacity:1; fill:none" points="
  241.268,1416.06 469.045,414.707 696.821,739.66 924.598,413.171 1152.37,1268.2 1380.15,516.691 1607.93,746.455 1835.7,117.631 2063.48,783.472 2291.26,897.748 
  
  "/>
<path clip-path="url(#clip720)" d="
M1989.74 283.158 L2280.76 283.158 L2280.76 162.198 L1989.74 162.198  Z
  " fill="#ffffff" fill-rule="evenodd" fill-opacity="1"/>
<polyline clip-path="url(#clip720)" style="stroke:#000000; stroke-width:4; stroke-opacity:1; fill:none" points="
  1989.74,283.158 2280.76,283.158 2280.76,162.198 1989.74,162.198 1989.74,283.158 
  "/>
<polyline clip-path="url(#clip720)" style="stroke:#009af9; stroke-width:4; stroke-opacity:1; fill:none" points="
  2013.74,222.678 2157.74,222.678 
  "/>
<path clip-path="url(#clip720)" d="M 0 0 M2195.58 242.366 Q2193.77 246.995 2192.06 248.407 Q2190.35 249.819 2187.48 249.819 L2184.08 249.819 L2184.08 246.255 L2186.58 246.255 Q2188.33 246.255 2189.31 245.421 Q2190.28 244.588 2191.46 241.486 L2192.22 239.542 L2181.74 214.033 L2186.25 214.033 L2194.35 234.31 L2202.46 214.033 L2206.97 214.033 L2195.58 242.366 Z" fill="#000000" fill-rule="evenodd" fill-opacity="1" /><path clip-path="url(#clip720)" d="M 0 0 M2212.85 236.023 L2220.49 236.023 L2220.49 209.658 L2212.18 211.324 L2212.18 207.065 L2220.44 205.398 L2225.12 205.398 L2225.12 236.023 L2232.76 236.023 L2232.76 239.958 L2212.85 239.958 L2212.85 236.023 Z" fill="#000000" fill-rule="evenodd" fill-opacity="1" /></svg>
