<?xml version="1.0" encoding="utf-8"?>
<svg xmlns="http://www.w3.org/2000/svg" xmlns:xlink="http://www.w3.org/1999/xlink" width="600" height="400" viewBox="0 0 2400 1600">
<defs>
  <clipPath id="clip450">
    <rect x="0" y="0" width="2400" height="1600"/>
  </clipPath>
</defs>
<path clip-path="url(#clip450)" d="
M0 1600 L2400 1600 L2400 0 L0 0  Z
  " fill="#ffffff" fill-rule="evenodd" fill-opacity="1"/>
<defs>
  <clipPath id="clip451">
    <rect x="480" y="0" width="1681" height="1600"/>
  </clipPath>
</defs>
<path clip-path="url(#clip450)" d="
M211.141 1447.17 L2352.76 1447.17 L2352.76 47.2441 L211.141 47.2441  Z
  " fill="#ffffff" fill-rule="evenodd" fill-opacity="1"/>
<defs>
  <clipPath id="clip452">
    <rect x="211" y="47" width="2143" height="1401"/>
  </clipPath>
</defs>
<polyline clip-path="url(#clip452)" style="stroke:#000000; stroke-width:2; stroke-opacity:0.1; fill:none" points="
  496.241,1447.17 496.241,47.2441 
  "/>
<polyline clip-path="url(#clip452)" style="stroke:#000000; stroke-width:2; stroke-opacity:0.1; fill:none" points="
  945.217,1447.17 945.217,47.2441 
  "/>
<polyline clip-path="url(#clip452)" style="stroke:#000000; stroke-width:2; stroke-opacity:0.1; fill:none" points="
  1394.19,1447.17 1394.19,47.2441 
  "/>
<polyline clip-path="url(#clip452)" style="stroke:#000000; stroke-width:2; stroke-opacity:0.1; fill:none" points="
  1843.17,1447.17 1843.17,47.2441 
  "/>
<polyline clip-path="url(#clip452)" style="stroke:#000000; stroke-width:2; stroke-opacity:0.1; fill:none" points="
  2292.14,1447.17 2292.14,47.2441 
  "/>
<polyline clip-path="url(#clip452)" style="stroke:#000000; stroke-width:2; stroke-opacity:0.1; fill:none" points="
  211.141,1270.95 2352.76,1270.95 
  "/>
<polyline clip-path="url(#clip452)" style="stroke:#000000; stroke-width:2; stroke-opacity:0.1; fill:none" points="
  211.141,1056.44 2352.76,1056.44 
  "/>
<polyline clip-path="url(#clip452)" style="stroke:#000000; stroke-width:2; stroke-opacity:0.1; fill:none" points="
  211.141,841.927 2352.76,841.927 
  "/>
<polyline clip-path="url(#clip452)" style="stroke:#000000; stroke-width:2; stroke-opacity:0.1; fill:none" points="
  211.141,627.415 2352.76,627.415 
  "/>
<polyline clip-path="url(#clip452)" style="stroke:#000000; stroke-width:2; stroke-opacity:0.1; fill:none" points="
  211.141,412.903 2352.76,412.903 
  "/>
<polyline clip-path="url(#clip452)" style="stroke:#000000; stroke-width:2; stroke-opacity:0.1; fill:none" points="
  211.141,198.391 2352.76,198.391 
  "/>
<polyline clip-path="url(#clip450)" style="stroke:#000000; stroke-width:4; stroke-opacity:1; fill:none" points="
  211.141,1447.17 2352.76,1447.17 
  "/>
<polyline clip-path="url(#clip450)" style="stroke:#000000; stroke-width:4; stroke-opacity:1; fill:none" points="
  211.141,1447.17 211.141,47.2441 
  "/>
<polyline clip-path="url(#clip450)" style="stroke:#000000; stroke-width:4; stroke-opacity:1; fill:none" points="
  496.241,1447.17 496.241,1430.37 
  "/>
<polyline clip-path="url(#clip450)" style="stroke:#000000; stroke-width:4; stroke-opacity:1; fill:none" points="
  945.217,1447.17 945.217,1430.37 
  "/>
<polyline clip-path="url(#clip450)" style="stroke:#000000; stroke-width:4; stroke-opacity:1; fill:none" points="
  1394.19,1447.17 1394.19,1430.37 
  "/>
<polyline clip-path="url(#clip450)" style="stroke:#000000; stroke-width:4; stroke-opacity:1; fill:none" points="
  1843.17,1447.17 1843.17,1430.37 
  "/>
<polyline clip-path="url(#clip450)" style="stroke:#000000; stroke-width:4; stroke-opacity:1; fill:none" points="
  2292.14,1447.17 2292.14,1430.37 
  "/>
<polyline clip-path="url(#clip450)" style="stroke:#000000; stroke-width:4; stroke-opacity:1; fill:none" points="
  211.141,1270.95 236.841,1270.95 
  "/>
<polyline clip-path="url(#clip450)" style="stroke:#000000; stroke-width:4; stroke-opacity:1; fill:none" points="
  211.141,1056.44 236.841,1056.44 
  "/>
<polyline clip-path="url(#clip450)" style="stroke:#000000; stroke-width:4; stroke-opacity:1; fill:none" points="
  211.141,841.927 236.841,841.927 
  "/>
<polyline clip-path="url(#clip450)" style="stroke:#000000; stroke-width:4; stroke-opacity:1; fill:none" points="
  211.141,627.415 236.841,627.415 
  "/>
<polyline clip-path="url(#clip450)" style="stroke:#000000; stroke-width:4; stroke-opacity:1; fill:none" points="
  211.141,412.903 236.841,412.903 
  "/>
<polyline clip-path="url(#clip450)" style="stroke:#000000; stroke-width:4; stroke-opacity:1; fill:none" points="
  211.141,198.391 236.841,198.391 
  "/>
<path clip-path="url(#clip450)" d="M 0 0 M490.894 1496.71 L507.213 1496.71 L507.213 1500.64 L485.269 1500.64 L485.269 1496.71 Q487.931 1493.95 492.514 1489.32 Q497.121 1484.67 498.301 1483.33 Q500.546 1480.8 501.426 1479.07 Q502.329 1477.31 502.329 1475.62 Q502.329 1472.86 500.384 1471.13 Q498.463 1469.39 495.361 1469.39 Q493.162 1469.39 490.709 1470.16 Q488.278 1470.92 485.5 1472.47 L485.5 1467.75 Q488.324 1466.61 490.778 1466.04 Q493.232 1465.46 495.269 1465.46 Q500.639 1465.46 503.833 1468.14 Q507.028 1470.83 507.028 1475.32 Q507.028 1477.45 506.218 1479.37 Q505.431 1481.27 503.324 1483.86 Q502.745 1484.53 499.644 1487.75 Q496.542 1490.94 490.894 1496.71 Z" fill="#000000" fill-rule="evenodd" fill-opacity="1" /><path clip-path="url(#clip450)" d="M 0 0 M948.226 1470.16 L936.42 1488.61 L948.226 1488.61 L948.226 1470.16 M946.999 1466.08 L952.879 1466.08 L952.879 1488.61 L957.809 1488.61 L957.809 1492.49 L952.879 1492.49 L952.879 1500.64 L948.226 1500.64 L948.226 1492.49 L932.624 1492.49 L932.624 1487.98 L946.999 1466.08 Z" fill="#000000" fill-rule="evenodd" fill-opacity="1" /><path clip-path="url(#clip450)" d="M 0 0 M1394.6 1481.5 Q1391.45 1481.5 1389.6 1483.65 Q1387.77 1485.8 1387.77 1489.55 Q1387.77 1493.28 1389.6 1495.46 Q1391.45 1497.61 1394.6 1497.61 Q1397.75 1497.61 1399.57 1495.46 Q1401.43 1493.28 1401.43 1489.55 Q1401.43 1485.8 1399.57 1483.65 Q1397.75 1481.5 1394.6 1481.5 M1403.88 1466.85 L1403.88 1471.11 Q1402.12 1470.27 1400.32 1469.83 Q1398.53 1469.39 1396.77 1469.39 Q1392.14 1469.39 1389.69 1472.52 Q1387.26 1475.64 1386.91 1481.96 Q1388.28 1479.95 1390.34 1478.88 Q1392.4 1477.8 1394.88 1477.8 Q1400.08 1477.8 1403.09 1480.97 Q1406.13 1484.11 1406.13 1489.55 Q1406.13 1494.88 1402.98 1498.1 Q1399.83 1501.31 1394.6 1501.31 Q1388.6 1501.31 1385.43 1496.73 Q1382.26 1492.12 1382.26 1483.4 Q1382.26 1475.2 1386.15 1470.34 Q1390.04 1465.46 1396.59 1465.46 Q1398.35 1465.46 1400.13 1465.8 Q1401.94 1466.15 1403.88 1466.85 Z" fill="#000000" fill-rule="evenodd" fill-opacity="1" /><path clip-path="url(#clip450)" d="M 0 0 M1843.17 1484.23 Q1839.84 1484.23 1837.91 1486.01 Q1836.02 1487.8 1836.02 1490.92 Q1836.02 1494.05 1837.91 1495.83 Q1839.84 1497.61 1843.17 1497.61 Q1846.5 1497.61 1848.42 1495.83 Q1850.34 1494.02 1850.34 1490.92 Q1850.34 1487.8 1848.42 1486.01 Q1846.52 1484.23 1843.17 1484.23 M1838.49 1482.24 Q1835.48 1481.5 1833.79 1479.44 Q1832.13 1477.38 1832.13 1474.42 Q1832.13 1470.27 1835.07 1467.86 Q1838.03 1465.46 1843.17 1465.46 Q1848.33 1465.46 1851.27 1467.86 Q1854.21 1470.27 1854.21 1474.42 Q1854.21 1477.38 1852.52 1479.44 Q1850.85 1481.5 1847.87 1482.24 Q1851.25 1483.03 1853.12 1485.32 Q1855.02 1487.61 1855.02 1490.92 Q1855.02 1495.94 1851.94 1498.63 Q1848.89 1501.31 1843.17 1501.31 Q1837.45 1501.31 1834.37 1498.63 Q1831.32 1495.94 1831.32 1490.92 Q1831.32 1487.61 1833.21 1485.32 Q1835.11 1483.03 1838.49 1482.24 M1836.78 1474.86 Q1836.78 1477.54 1838.45 1479.05 Q1840.14 1480.55 1843.17 1480.55 Q1846.18 1480.55 1847.87 1479.05 Q1849.58 1477.54 1849.58 1474.86 Q1849.58 1472.17 1847.87 1470.67 Q1846.18 1469.16 1843.17 1469.16 Q1840.14 1469.16 1838.45 1470.67 Q1836.78 1472.17 1836.78 1474.86 Z" fill="#000000" fill-rule="evenodd" fill-opacity="1" /><path clip-path="url(#clip450)" d="M 0 0 M2269.02 1496.71 L2276.66 1496.71 L2276.66 1470.34 L2268.35 1472.01 L2268.35 1467.75 L2276.61 1466.08 L2281.29 1466.08 L2281.29 1496.71 L2288.93 1496.71 L2288.93 1500.64 L2269.02 1500.64 L2269.02 1496.71 Z" fill="#000000" fill-rule="evenodd" fill-opacity="1" /><path clip-path="url(#clip450)" d="M 0 0 M2304 1469.16 Q2300.38 1469.16 2298.56 1472.73 Q2296.75 1476.27 2296.75 1483.4 Q2296.75 1490.5 2298.56 1494.07 Q2300.38 1497.61 2304 1497.61 Q2307.63 1497.61 2309.44 1494.07 Q2311.26 1490.5 2311.26 1483.4 Q2311.26 1476.27 2309.44 1472.73 Q2307.63 1469.16 2304 1469.16 M2304 1465.46 Q2309.81 1465.46 2312.86 1470.06 Q2315.94 1474.65 2315.94 1483.4 Q2315.94 1492.12 2312.86 1496.73 Q2309.81 1501.31 2304 1501.31 Q2298.19 1501.31 2295.11 1496.73 Q2292.05 1492.12 2292.05 1483.4 Q2292.05 1474.65 2295.11 1470.06 Q2298.19 1465.46 2304 1465.46 Z" fill="#000000" fill-rule="evenodd" fill-opacity="1" /><path clip-path="url(#clip450)" d="M 0 0 M139.456 1256.75 Q135.845 1256.75 134.017 1260.31 Q132.211 1263.86 132.211 1270.99 Q132.211 1278.09 134.017 1281.66 Q135.845 1285.2 139.456 1285.2 Q143.091 1285.2 144.896 1281.66 Q146.725 1278.09 146.725 1270.99 Q146.725 1263.86 144.896 1260.31 Q143.091 1256.75 139.456 1256.75 M139.456 1253.05 Q145.266 1253.05 148.322 1257.65 Q151.401 1262.24 151.401 1270.99 Q151.401 1279.71 148.322 1284.32 Q145.266 1288.9 139.456 1288.9 Q133.646 1288.9 130.567 1284.32 Q127.512 1279.71 127.512 1270.99 Q127.512 1262.24 130.567 1257.65 Q133.646 1253.05 139.456 1253.05 Z" fill="#000000" fill-rule="evenodd" fill-opacity="1" /><path clip-path="url(#clip450)" d="M 0 0 M156.47 1282.35 L161.354 1282.35 L161.354 1288.23 L156.47 1288.23 L156.47 1282.35 Z" fill="#000000" fill-rule="evenodd" fill-opacity="1" /><path clip-path="url(#clip450)" d="M 0 0 M167.234 1284.3 L174.873 1284.3 L174.873 1257.93 L166.563 1259.6 L166.563 1255.34 L174.826 1253.67 L179.502 1253.67 L179.502 1284.3 L187.141 1284.3 L187.141 1288.23 L167.234 1288.23 L167.234 1284.3 Z" fill="#000000" fill-rule="evenodd" fill-opacity="1" /><path clip-path="url(#clip450)" d="M 0 0 M139.827 1042.24 Q136.216 1042.24 134.387 1045.8 Q132.581 1049.34 132.581 1056.47 Q132.581 1063.58 134.387 1067.14 Q136.216 1070.69 139.827 1070.69 Q143.461 1070.69 145.266 1067.14 Q147.095 1063.58 147.095 1056.47 Q147.095 1049.34 145.266 1045.8 Q143.461 1042.24 139.827 1042.24 M139.827 1038.53 Q145.637 1038.53 148.692 1043.14 Q151.771 1047.72 151.771 1056.47 Q151.771 1065.2 148.692 1069.81 Q145.637 1074.39 139.827 1074.39 Q134.017 1074.39 130.938 1069.81 Q127.882 1065.2 127.882 1056.47 Q127.882 1047.72 130.938 1043.14 Q134.017 1038.53 139.827 1038.53 Z" fill="#000000" fill-rule="evenodd" fill-opacity="1" /><path clip-path="url(#clip450)" d="M 0 0 M156.84 1067.84 L161.725 1067.84 L161.725 1073.72 L156.84 1073.72 L156.84 1067.84 Z" fill="#000000" fill-rule="evenodd" fill-opacity="1" /><path clip-path="url(#clip450)" d="M 0 0 M170.822 1069.78 L187.141 1069.78 L187.141 1073.72 L165.197 1073.72 L165.197 1069.78 Q167.859 1067.03 172.442 1062.4 Q177.049 1057.75 178.229 1056.4 Q180.475 1053.88 181.354 1052.14 Q182.257 1050.39 182.257 1048.7 Q182.257 1045.94 180.313 1044.21 Q178.391 1042.47 175.289 1042.47 Q173.09 1042.47 170.637 1043.23 Q168.206 1044 165.428 1045.55 L165.428 1040.83 Q168.252 1039.69 170.706 1039.11 Q173.16 1038.53 175.197 1038.53 Q180.567 1038.53 183.762 1041.22 Q186.956 1043.9 186.956 1048.39 Q186.956 1050.52 186.146 1052.45 Q185.359 1054.34 183.252 1056.94 Q182.674 1057.61 179.572 1060.83 Q176.47 1064.02 170.822 1069.78 Z" fill="#000000" fill-rule="evenodd" fill-opacity="1" /><path clip-path="url(#clip450)" d="M 0 0 M138.878 827.726 Q135.267 827.726 133.438 831.29 Q131.632 834.832 131.632 841.962 Q131.632 849.068 133.438 852.633 Q135.267 856.175 138.878 856.175 Q142.512 856.175 144.317 852.633 Q146.146 849.068 146.146 841.962 Q146.146 834.832 144.317 831.29 Q142.512 827.726 138.878 827.726 M138.878 824.022 Q144.688 824.022 147.743 828.628 Q150.822 833.212 150.822 841.962 Q150.822 850.688 147.743 855.295 Q144.688 859.878 138.878 859.878 Q133.067 859.878 129.989 855.295 Q126.933 850.688 126.933 841.962 Q126.933 833.212 129.989 828.628 Q133.067 824.022 138.878 824.022 Z" fill="#000000" fill-rule="evenodd" fill-opacity="1" /><path clip-path="url(#clip450)" d="M 0 0 M155.891 853.327 L160.776 853.327 L160.776 859.207 L155.891 859.207 L155.891 853.327 Z" fill="#000000" fill-rule="evenodd" fill-opacity="1" /><path clip-path="url(#clip450)" d="M 0 0 M180.012 840.573 Q183.368 841.29 185.243 843.559 Q187.141 845.827 187.141 849.161 Q187.141 854.276 183.623 857.077 Q180.104 859.878 173.623 859.878 Q171.447 859.878 169.132 859.438 Q166.84 859.022 164.387 858.165 L164.387 853.651 Q166.331 854.786 168.646 855.364 Q170.961 855.943 173.484 855.943 Q177.882 855.943 180.174 854.207 Q182.488 852.471 182.488 849.161 Q182.488 846.105 180.336 844.392 Q178.206 842.656 174.387 842.656 L170.359 842.656 L170.359 838.814 L174.572 838.814 Q178.021 838.814 179.85 837.448 Q181.678 836.059 181.678 833.466 Q181.678 830.804 179.78 829.392 Q177.905 827.957 174.387 827.957 Q172.465 827.957 170.266 828.374 Q168.067 828.79 165.428 829.67 L165.428 825.503 Q168.09 824.763 170.405 824.392 Q172.743 824.022 174.803 824.022 Q180.127 824.022 183.229 826.453 Q186.331 828.86 186.331 832.98 Q186.331 835.851 184.688 837.841 Q183.044 839.809 180.012 840.573 Z" fill="#000000" fill-rule="evenodd" fill-opacity="1" /><path clip-path="url(#clip450)" d="M 0 0 M137.743 613.214 Q134.132 613.214 132.304 616.779 Q130.498 620.32 130.498 627.45 Q130.498 634.556 132.304 638.121 Q134.132 641.663 137.743 641.663 Q141.378 641.663 143.183 638.121 Q145.012 634.556 145.012 627.45 Q145.012 620.32 143.183 616.779 Q141.378 613.214 137.743 613.214 M137.743 609.51 Q143.554 609.51 146.609 614.117 Q149.688 618.7 149.688 627.45 Q149.688 636.177 146.609 640.783 Q143.554 645.366 137.743 645.366 Q131.933 645.366 128.855 640.783 Q125.799 636.177 125.799 627.45 Q125.799 618.7 128.855 614.117 Q131.933 609.51 137.743 609.51 Z" fill="#000000" fill-rule="evenodd" fill-opacity="1" /><path clip-path="url(#clip450)" d="M 0 0 M154.757 638.816 L159.641 638.816 L159.641 644.695 L154.757 644.695 L154.757 638.816 Z" fill="#000000" fill-rule="evenodd" fill-opacity="1" /><path clip-path="url(#clip450)" d="M 0 0 M177.558 614.209 L165.752 632.658 L177.558 632.658 L177.558 614.209 M176.331 610.135 L182.211 610.135 L182.211 632.658 L187.141 632.658 L187.141 636.547 L182.211 636.547 L182.211 644.695 L177.558 644.695 L177.558 636.547 L161.956 636.547 L161.956 632.033 L176.331 610.135 Z" fill="#000000" fill-rule="evenodd" fill-opacity="1" /><path clip-path="url(#clip450)" d="M 0 0 M139.225 398.702 Q135.614 398.702 133.785 402.267 Q131.98 405.808 131.98 412.938 Q131.98 420.044 133.785 423.609 Q135.614 427.151 139.225 427.151 Q142.859 427.151 144.665 423.609 Q146.493 420.044 146.493 412.938 Q146.493 405.808 144.665 402.267 Q142.859 398.702 139.225 398.702 M139.225 394.998 Q145.035 394.998 148.091 399.605 Q151.169 404.188 151.169 412.938 Q151.169 421.665 148.091 426.271 Q145.035 430.855 139.225 430.855 Q133.415 430.855 130.336 426.271 Q127.28 421.665 127.28 412.938 Q127.28 404.188 130.336 399.605 Q133.415 394.998 139.225 394.998 Z" fill="#000000" fill-rule="evenodd" fill-opacity="1" /><path clip-path="url(#clip450)" d="M 0 0 M156.239 424.304 L161.123 424.304 L161.123 430.183 L156.239 430.183 L156.239 424.304 Z" fill="#000000" fill-rule="evenodd" fill-opacity="1" /><path clip-path="url(#clip450)" d="M 0 0 M166.239 395.623 L184.595 395.623 L184.595 399.558 L170.521 399.558 L170.521 408.031 Q171.539 407.683 172.558 407.521 Q173.577 407.336 174.595 407.336 Q180.382 407.336 183.762 410.507 Q187.141 413.679 187.141 419.095 Q187.141 424.674 183.669 427.776 Q180.197 430.855 173.877 430.855 Q171.702 430.855 169.433 430.484 Q167.188 430.114 164.78 429.373 L164.78 424.674 Q166.864 425.808 169.086 426.364 Q171.308 426.919 173.785 426.919 Q177.789 426.919 180.127 424.813 Q182.465 422.706 182.465 419.095 Q182.465 415.484 180.127 413.378 Q177.789 411.271 173.785 411.271 Q171.91 411.271 170.035 411.688 Q168.183 412.105 166.239 412.984 L166.239 395.623 Z" fill="#000000" fill-rule="evenodd" fill-opacity="1" /><path clip-path="url(#clip450)" d="M 0 0 M138.067 184.19 Q134.456 184.19 132.628 187.755 Q130.822 191.297 130.822 198.426 Q130.822 205.533 132.628 209.097 Q134.456 212.639 138.067 212.639 Q141.702 212.639 143.507 209.097 Q145.336 205.533 145.336 198.426 Q145.336 191.297 143.507 187.755 Q141.702 184.19 138.067 184.19 M138.067 180.486 Q143.878 180.486 146.933 185.093 Q150.012 189.676 150.012 198.426 Q150.012 207.153 146.933 211.759 Q143.878 216.343 138.067 216.343 Q132.257 216.343 129.179 211.759 Q126.123 207.153 126.123 198.426 Q126.123 189.676 129.179 185.093 Q132.257 180.486 138.067 180.486 Z" fill="#000000" fill-rule="evenodd" fill-opacity="1" /><path clip-path="url(#clip450)" d="M 0 0 M155.081 209.792 L159.965 209.792 L159.965 215.671 L155.081 215.671 L155.081 209.792 Z" fill="#000000" fill-rule="evenodd" fill-opacity="1" /><path clip-path="url(#clip450)" d="M 0 0 M175.614 196.528 Q172.465 196.528 170.614 198.681 Q168.785 200.834 168.785 204.583 Q168.785 208.31 170.614 210.486 Q172.465 212.639 175.614 212.639 Q178.762 212.639 180.59 210.486 Q182.442 208.31 182.442 204.583 Q182.442 200.834 180.59 198.681 Q178.762 196.528 175.614 196.528 M184.896 181.875 L184.896 186.135 Q183.137 185.301 181.331 184.861 Q179.549 184.422 177.789 184.422 Q173.16 184.422 170.706 187.547 Q168.276 190.672 167.928 196.991 Q169.294 194.977 171.354 193.912 Q173.414 192.824 175.891 192.824 Q181.1 192.824 184.109 195.996 Q187.141 199.144 187.141 204.583 Q187.141 209.908 183.993 213.125 Q180.845 216.343 175.614 216.343 Q169.618 216.343 166.447 211.759 Q163.276 207.153 163.276 198.426 Q163.276 190.232 167.165 185.371 Q171.053 180.486 177.604 180.486 Q179.364 180.486 181.146 180.834 Q182.951 181.181 184.896 181.875 Z" fill="#000000" fill-rule="evenodd" fill-opacity="1" /><path clip-path="url(#clip450)" d="M 0 0 M1296.11 1527.48 Q1296.11 1529.28 1294.98 1530.31 Q1293.85 1531.31 1292.57 1531.31 Q1291.34 1531.31 1290.7 1530.6 Q1290.05 1529.89 1290.05 1528.99 Q1290.05 1527.77 1290.96 1526.7 Q1291.86 1525.64 1293.21 1525.42 Q1291.89 1524.58 1289.93 1524.58 Q1288.64 1524.58 1287.51 1525.26 Q1286.41 1525.93 1285.74 1526.8 Q1285.09 1527.67 1284.51 1528.93 Q1283.97 1530.15 1283.74 1530.89 Q1283.55 1531.6 1283.39 1532.37 L1281.13 1541.39 Q1280.04 1545.67 1280.04 1547.19 Q1280.04 1549.06 1280.94 1550.31 Q1281.84 1551.54 1283.64 1551.54 Q1284.35 1551.54 1285.16 1551.34 Q1285.96 1551.12 1286.99 1550.54 Q1288.06 1549.93 1288.99 1549.02 Q1289.96 1548.09 1290.89 1546.51 Q1291.83 1544.93 1292.44 1542.9 Q1292.63 1542.2 1293.27 1542.2 Q1294.08 1542.2 1294.08 1542.84 Q1294.08 1543.39 1293.63 1544.55 Q1293.21 1545.67 1292.28 1547.16 Q1291.37 1548.6 1290.18 1549.93 Q1288.99 1551.21 1287.22 1552.12 Q1285.45 1553.02 1283.52 1553.02 Q1280.75 1553.02 1278.91 1551.54 Q1277.07 1550.05 1276.4 1547.99 Q1276.24 1548.28 1276.01 1548.67 Q1275.79 1549.06 1275.11 1549.93 Q1274.47 1550.76 1273.73 1551.41 Q1272.98 1552.02 1271.83 1552.5 Q1270.7 1553.02 1269.47 1553.02 Q1267.93 1553.02 1266.54 1552.57 Q1265.19 1552.12 1264.22 1551.08 Q1263.26 1550.05 1263.26 1548.64 Q1263.26 1547.06 1264.32 1545.96 Q1265.42 1544.84 1266.9 1544.84 Q1267.83 1544.84 1268.57 1545.38 Q1269.35 1545.93 1269.35 1547.12 Q1269.35 1548.44 1268.44 1549.44 Q1267.54 1550.44 1266.25 1550.7 Q1267.57 1551.54 1269.54 1551.54 Q1271.66 1551.54 1273.34 1549.67 Q1275.01 1547.8 1275.82 1544.68 Q1277.82 1537.17 1278.59 1533.82 Q1279.36 1530.44 1279.36 1528.99 Q1279.36 1527.64 1279.01 1526.7 Q1278.65 1525.77 1278.04 1525.35 Q1277.46 1524.9 1276.91 1524.74 Q1276.4 1524.58 1275.82 1524.58 Q1274.85 1524.58 1273.76 1524.97 Q1272.69 1525.35 1271.41 1526.25 Q1270.15 1527.12 1268.96 1528.93 Q1267.77 1530.73 1266.96 1533.21 Q1266.8 1533.95 1266.09 1533.95 Q1265.32 1533.92 1265.32 1533.27 Q1265.32 1532.73 1265.74 1531.6 Q1266.19 1530.44 1267.09 1528.99 Q1268.03 1527.54 1269.22 1526.25 Q1270.44 1524.93 1272.21 1524.03 Q1274.02 1523.13 1275.95 1523.13 Q1276.82 1523.13 1277.65 1523.32 Q1278.52 1523.48 1279.55 1523.97 Q1280.62 1524.45 1281.55 1525.51 Q1282.49 1526.58 1283.07 1528.12 Q1283.45 1527.38 1283.97 1526.67 Q1284.51 1525.96 1285.35 1525.09 Q1286.22 1524.19 1287.41 1523.68 Q1288.64 1523.13 1289.99 1523.13 Q1291.31 1523.13 1292.6 1523.48 Q1293.89 1523.81 1294.98 1524.87 Q1296.11 1525.9 1296.11 1527.48 Z" fill="#000000" fill-rule="evenodd" fill-opacity="1" /><path clip-path="url(#clip450)" d="M 0 0 M60.8835 732.781 Q61.3344 732.781 62.3972 733.071 L87.5821 739.384 Q93.186 740.768 97.1151 745.277 Q101.044 749.754 101.044 754.842 Q101.044 757.902 99.4017 759.866 Q97.7914 761.831 95.3115 761.831 Q93.1216 761.831 92.0588 760.672 Q91.0282 759.512 91.0282 758.127 Q91.0282 757.676 91.157 757.193 Q91.2858 756.71 91.8333 756.195 Q92.3808 755.68 93.3148 755.68 Q94.8285 755.68 96.0201 757 Q96.5676 757.644 96.6964 758.256 Q96.8252 758.836 96.8252 759.834 Q97.727 759.448 98.3389 758.739 Q98.9508 758.031 99.1763 757.226 Q99.4339 756.42 99.4983 755.905 Q99.5949 755.358 99.5949 754.842 Q99.5949 750.72 95.4404 747.564 Q94.1843 746.63 92.9283 745.953 Q91.7045 745.245 90.1908 744.73 Q88.7093 744.214 87.9042 743.989 Q87.0991 743.731 85.2633 743.28 Q88.2585 746.276 88.2585 749.947 Q88.2585 751.493 87.8398 752.878 Q87.4211 754.23 86.5516 755.422 Q85.6498 756.614 84.0717 757.322 Q82.4936 757.998 80.4002 757.998 Q78.178 757.998 75.1507 757.129 Q72.1233 756.259 66.5517 754.166 Q63.4277 753.039 61.9141 753.039 Q61.1733 753.039 60.7225 753.2 Q60.2394 753.361 60.0783 753.683 Q59.8851 754.005 59.8529 754.198 Q59.8207 754.359 59.8207 754.681 Q59.8207 756.581 61.753 758.353 Q63.6854 760.124 68.001 761.348 Q68.8061 761.606 68.9994 761.767 Q69.1926 761.928 69.1926 762.411 Q69.1604 763.216 68.5163 763.216 Q68.2586 763.216 67.2602 762.926 Q66.2297 762.636 64.716 761.96 Q63.1701 761.251 61.7852 760.285 Q60.3682 759.319 59.3698 757.805 Q58.3714 756.259 58.3714 754.488 Q58.3714 752.073 59.9495 750.591 Q61.4954 749.077 63.782 749.077 Q64.716 749.077 65.5533 749.335 Q66.3585 749.561 68.5163 750.398 Q77.2119 753.78 81.463 753.78 Q82.4936 753.78 83.3632 753.618 Q84.2005 753.425 85.0379 753.007 Q85.843 752.588 86.3261 751.751 Q86.777 750.881 86.777 749.689 Q86.777 748.176 86.0685 746.759 Q85.3277 745.309 84.3294 744.408 Q83.331 743.474 82.4936 742.926 Q81.6241 742.346 81.1732 742.218 L69.3214 739.255 L64.0397 737.934 Q61.1733 737.322 60.4648 737.032 Q59.7885 736.646 59.4342 735.97 Q59.08 735.293 59.08 734.714 Q59.08 733.909 59.563 733.361 Q60.0461 732.781 60.8835 732.781 Z" fill="#000000" fill-rule="evenodd" fill-opacity="1" /><polyline clip-path="url(#clip452)" style="stroke:#009af9; stroke-width:4; stroke-opacity:1; fill:none" points="
  271.753,861.913 496.241,170.497 720.729,728.001 945.217,735.028 1169.7,586.674 1394.19,86.8647 1618.68,1388.98 1843.17,1407.55 2067.66,276.6 2292.14,700.987 
  
  "/>
<path clip-path="url(#clip450)" d="
M1989.74 251.724 L2280.76 251.724 L2280.76 130.764 L1989.74 130.764  Z
  " fill="#ffffff" fill-rule="evenodd" fill-opacity="1"/>
<polyline clip-path="url(#clip450)" style="stroke:#000000; stroke-width:4; stroke-opacity:1; fill:none" points="
  1989.74,251.724 2280.76,251.724 2280.76,130.764 1989.74,130.764 1989.74,251.724 
  "/>
<polyline clip-path="url(#clip450)" style="stroke:#009af9; stroke-width:4; stroke-opacity:1; fill:none" points="
  2013.74,191.244 2157.74,191.244 
  "/>
<path clip-path="url(#clip450)" d="M 0 0 M2195.58 210.931 Q2193.77 215.561 2192.06 216.973 Q2190.35 218.385 2187.48 218.385 L2184.08 218.385 L2184.08 214.82 L2186.58 214.82 Q2188.33 214.82 2189.31 213.987 Q2190.28 213.154 2191.46 210.052 L2192.22 208.107 L2181.74 182.598 L2186.25 182.598 L2194.35 202.876 L2202.46 182.598 L2206.97 182.598 L2195.58 210.931 Z" fill="#000000" fill-rule="evenodd" fill-opacity="1" /><path clip-path="url(#clip450)" d="M 0 0 M2212.85 204.589 L2220.49 204.589 L2220.49 178.223 L2212.18 179.89 L2212.18 175.631 L2220.44 173.964 L2225.12 173.964 L2225.12 204.589 L2232.76 204.589 L2232.76 208.524 L2212.85 208.524 L2212.85 204.589 Z" fill="#000000" fill-rule="evenodd" fill-opacity="1" /></svg>
