<?xml version="1.0" encoding="utf-8"?>
<svg xmlns="http://www.w3.org/2000/svg" xmlns:xlink="http://www.w3.org/1999/xlink" width="600" height="400" viewBox="0 0 2400 1600">
<defs>
  <clipPath id="clip690">
    <rect x="0" y="0" width="2400" height="1600"/>
  </clipPath>
</defs>
<path clip-path="url(#clip690)" d="
M0 1600 L2400 1600 L2400 0 L0 0  Z
  " fill="#ffffff" fill-rule="evenodd" fill-opacity="1"/>
<defs>
  <clipPath id="clip691">
    <rect x="480" y="0" width="1681" height="1600"/>
  </clipPath>
</defs>
<path clip-path="url(#clip690)" d="
M211.141 1447.17 L2352.76 1447.17 L2352.76 86.5215 L211.141 86.5215  Z
  " fill="#ffffff" fill-rule="evenodd" fill-opacity="1"/>
<defs>
  <clipPath id="clip692">
    <rect x="211" y="86" width="2143" height="1362"/>
  </clipPath>
</defs>
<polyline clip-path="url(#clip692)" style="stroke:#000000; stroke-width:2; stroke-opacity:0.1; fill:none" points="
  496.241,1447.17 496.241,86.5215 
  "/>
<polyline clip-path="url(#clip692)" style="stroke:#000000; stroke-width:2; stroke-opacity:0.1; fill:none" points="
  945.217,1447.17 945.217,86.5215 
  "/>
<polyline clip-path="url(#clip692)" style="stroke:#000000; stroke-width:2; stroke-opacity:0.1; fill:none" points="
  1394.19,1447.17 1394.19,86.5215 
  "/>
<polyline clip-path="url(#clip692)" style="stroke:#000000; stroke-width:2; stroke-opacity:0.1; fill:none" points="
  1843.17,1447.17 1843.17,86.5215 
  "/>
<polyline clip-path="url(#clip692)" style="stroke:#000000; stroke-width:2; stroke-opacity:0.1; fill:none" points="
  2292.14,1447.17 2292.14,86.5215 
  "/>
<polyline clip-path="url(#clip692)" style="stroke:#000000; stroke-width:2; stroke-opacity:0.1; fill:none" points="
  211.141,1407.64 2352.76,1407.64 
  "/>
<polyline clip-path="url(#clip692)" style="stroke:#000000; stroke-width:2; stroke-opacity:0.1; fill:none" points="
  211.141,1209.83 2352.76,1209.83 
  "/>
<polyline clip-path="url(#clip692)" style="stroke:#000000; stroke-width:2; stroke-opacity:0.1; fill:none" points="
  211.141,1012.02 2352.76,1012.02 
  "/>
<polyline clip-path="url(#clip692)" style="stroke:#000000; stroke-width:2; stroke-opacity:0.1; fill:none" points="
  211.141,814.206 2352.76,814.206 
  "/>
<polyline clip-path="url(#clip692)" style="stroke:#000000; stroke-width:2; stroke-opacity:0.1; fill:none" points="
  211.141,616.394 2352.76,616.394 
  "/>
<polyline clip-path="url(#clip692)" style="stroke:#000000; stroke-width:2; stroke-opacity:0.1; fill:none" points="
  211.141,418.581 2352.76,418.581 
  "/>
<polyline clip-path="url(#clip692)" style="stroke:#000000; stroke-width:2; stroke-opacity:0.1; fill:none" points="
  211.141,220.768 2352.76,220.768 
  "/>
<polyline clip-path="url(#clip690)" style="stroke:#000000; stroke-width:4; stroke-opacity:1; fill:none" points="
  211.141,1447.17 2352.76,1447.17 
  "/>
<polyline clip-path="url(#clip690)" style="stroke:#000000; stroke-width:4; stroke-opacity:1; fill:none" points="
  211.141,1447.17 211.141,86.5215 
  "/>
<polyline clip-path="url(#clip690)" style="stroke:#000000; stroke-width:4; stroke-opacity:1; fill:none" points="
  496.241,1447.17 496.241,1430.84 
  "/>
<polyline clip-path="url(#clip690)" style="stroke:#000000; stroke-width:4; stroke-opacity:1; fill:none" points="
  945.217,1447.17 945.217,1430.84 
  "/>
<polyline clip-path="url(#clip690)" style="stroke:#000000; stroke-width:4; stroke-opacity:1; fill:none" points="
  1394.19,1447.17 1394.19,1430.84 
  "/>
<polyline clip-path="url(#clip690)" style="stroke:#000000; stroke-width:4; stroke-opacity:1; fill:none" points="
  1843.17,1447.17 1843.17,1430.84 
  "/>
<polyline clip-path="url(#clip690)" style="stroke:#000000; stroke-width:4; stroke-opacity:1; fill:none" points="
  2292.14,1447.17 2292.14,1430.84 
  "/>
<polyline clip-path="url(#clip690)" style="stroke:#000000; stroke-width:4; stroke-opacity:1; fill:none" points="
  211.141,1407.64 236.841,1407.64 
  "/>
<polyline clip-path="url(#clip690)" style="stroke:#000000; stroke-width:4; stroke-opacity:1; fill:none" points="
  211.141,1209.83 236.841,1209.83 
  "/>
<polyline clip-path="url(#clip690)" style="stroke:#000000; stroke-width:4; stroke-opacity:1; fill:none" points="
  211.141,1012.02 236.841,1012.02 
  "/>
<polyline clip-path="url(#clip690)" style="stroke:#000000; stroke-width:4; stroke-opacity:1; fill:none" points="
  211.141,814.206 236.841,814.206 
  "/>
<polyline clip-path="url(#clip690)" style="stroke:#000000; stroke-width:4; stroke-opacity:1; fill:none" points="
  211.141,616.394 236.841,616.394 
  "/>
<polyline clip-path="url(#clip690)" style="stroke:#000000; stroke-width:4; stroke-opacity:1; fill:none" points="
  211.141,418.581 236.841,418.581 
  "/>
<polyline clip-path="url(#clip690)" style="stroke:#000000; stroke-width:4; stroke-opacity:1; fill:none" points="
  211.141,220.768 236.841,220.768 
  "/>
<path clip-path="url(#clip690)" d="M 0 0 M490.894 1496.71 L507.213 1496.71 L507.213 1500.64 L485.269 1500.64 L485.269 1496.71 Q487.931 1493.95 492.514 1489.32 Q497.121 1484.67 498.301 1483.33 Q500.546 1480.8 501.426 1479.07 Q502.329 1477.31 502.329 1475.62 Q502.329 1472.86 500.384 1471.13 Q498.463 1469.39 495.361 1469.39 Q493.162 1469.39 490.709 1470.16 Q488.278 1470.92 485.5 1472.47 L485.5 1467.75 Q488.324 1466.61 490.778 1466.04 Q493.232 1465.46 495.269 1465.46 Q500.639 1465.46 503.833 1468.14 Q507.028 1470.83 507.028 1475.32 Q507.028 1477.45 506.218 1479.37 Q505.431 1481.27 503.324 1483.86 Q502.745 1484.53 499.644 1487.75 Q496.542 1490.94 490.894 1496.71 Z" fill="#000000" fill-rule="evenodd" fill-opacity="1" /><path clip-path="url(#clip690)" d="M 0 0 M948.226 1470.16 L936.42 1488.61 L948.226 1488.61 L948.226 1470.16 M946.999 1466.08 L952.879 1466.08 L952.879 1488.61 L957.809 1488.61 L957.809 1492.49 L952.879 1492.49 L952.879 1500.64 L948.226 1500.64 L948.226 1492.49 L932.624 1492.49 L932.624 1487.98 L946.999 1466.08 Z" fill="#000000" fill-rule="evenodd" fill-opacity="1" /><path clip-path="url(#clip690)" d="M 0 0 M1394.6 1481.5 Q1391.45 1481.5 1389.6 1483.65 Q1387.77 1485.8 1387.77 1489.55 Q1387.77 1493.28 1389.6 1495.46 Q1391.45 1497.61 1394.6 1497.61 Q1397.75 1497.61 1399.57 1495.46 Q1401.43 1493.28 1401.43 1489.55 Q1401.43 1485.8 1399.57 1483.65 Q1397.75 1481.5 1394.6 1481.5 M1403.88 1466.85 L1403.88 1471.11 Q1402.12 1470.27 1400.32 1469.83 Q1398.53 1469.39 1396.77 1469.39 Q1392.14 1469.39 1389.69 1472.52 Q1387.26 1475.64 1386.91 1481.96 Q1388.28 1479.95 1390.34 1478.88 Q1392.4 1477.8 1394.88 1477.8 Q1400.08 1477.8 1403.09 1480.97 Q1406.13 1484.11 1406.13 1489.55 Q1406.13 1494.88 1402.98 1498.1 Q1399.83 1501.31 1394.6 1501.31 Q1388.6 1501.31 1385.43 1496.73 Q1382.26 1492.12 1382.26 1483.4 Q1382.26 1475.2 1386.15 1470.34 Q1390.04 1465.46 1396.59 1465.46 Q1398.35 1465.46 1400.13 1465.8 Q1401.94 1466.15 1403.88 1466.85 Z" fill="#000000" fill-rule="evenodd" fill-opacity="1" /><path clip-path="url(#clip690)" d="M 0 0 M1843.17 1484.23 Q1839.84 1484.23 1837.91 1486.01 Q1836.02 1487.8 1836.02 1490.92 Q1836.02 1494.05 1837.91 1495.83 Q1839.84 1497.61 1843.17 1497.61 Q1846.5 1497.61 1848.42 1495.83 Q1850.34 1494.02 1850.34 1490.92 Q1850.34 1487.8 1848.42 1486.01 Q1846.52 1484.23 1843.17 1484.23 M1838.49 1482.24 Q1835.48 1481.5 1833.79 1479.44 Q1832.13 1477.38 1832.13 1474.42 Q1832.13 1470.27 1835.07 1467.86 Q1838.03 1465.46 1843.17 1465.46 Q1848.33 1465.46 1851.27 1467.86 Q1854.21 1470.27 1854.21 1474.42 Q1854.21 1477.38 1852.52 1479.44 Q1850.85 1481.5 1847.87 1482.24 Q1851.25 1483.03 1853.12 1485.32 Q1855.02 1487.61 1855.02 1490.92 Q1855.02 1495.94 1851.94 1498.63 Q1848.89 1501.31 1843.17 1501.31 Q1837.45 1501.31 1834.37 1498.63 Q1831.32 1495.94 1831.32 1490.92 Q1831.32 1487.61 1833.21 1485.32 Q1835.11 1483.03 1838.49 1482.24 M1836.78 1474.86 Q1836.78 1477.54 1838.45 1479.05 Q1840.14 1480.55 1843.17 1480.55 Q1846.18 1480.55 1847.87 1479.05 Q1849.58 1477.54 1849.58 1474.86 Q1849.58 1472.17 1847.87 1470.67 Q1846.18 1469.16 1843.17 1469.16 Q1840.14 1469.16 1838.45 1470.67 Q1836.78 1472.17 1836.78 1474.86 Z" fill="#000000" fill-rule="evenodd" fill-opacity="1" /><path clip-path="url(#clip690)" d="M 0 0 M2269.02 1496.71 L2276.66 1496.71 L2276.66 1470.34 L2268.35 1472.01 L2268.35 1467.75 L2276.61 1466.08 L2281.29 1466.08 L2281.29 1496.71 L2288.93 1496.71 L2288.93 1500.64 L2269.02 1500.64 L2269.02 1496.71 Z" fill="#000000" fill-rule="evenodd" fill-opacity="1" /><path clip-path="url(#clip690)" d="M 0 0 M2304 1469.16 Q2300.38 1469.16 2298.56 1472.73 Q2296.75 1476.27 2296.75 1483.4 Q2296.75 1490.5 2298.56 1494.07 Q2300.38 1497.61 2304 1497.61 Q2307.63 1497.61 2309.44 1494.07 Q2311.26 1490.5 2311.26 1483.4 Q2311.26 1476.27 2309.44 1472.73 Q2307.63 1469.16 2304 1469.16 M2304 1465.46 Q2309.81 1465.46 2312.86 1470.06 Q2315.94 1474.65 2315.94 1483.4 Q2315.94 1492.12 2312.86 1496.73 Q2309.81 1501.31 2304 1501.31 Q2298.19 1501.31 2295.11 1496.73 Q2292.05 1492.12 2292.05 1483.4 Q2292.05 1474.65 2295.11 1470.06 Q2298.19 1465.46 2304 1465.46 Z" fill="#000000" fill-rule="evenodd" fill-opacity="1" /><path clip-path="url(#clip690)" d="M 0 0 M139.827 1393.44 Q136.216 1393.44 134.387 1397.01 Q132.581 1400.55 132.581 1407.68 Q132.581 1414.79 134.387 1418.35 Q136.216 1421.89 139.827 1421.89 Q143.461 1421.89 145.266 1418.35 Q147.095 1414.79 147.095 1407.68 Q147.095 1400.55 145.266 1397.01 Q143.461 1393.44 139.827 1393.44 M139.827 1389.74 Q145.637 1389.74 148.692 1394.35 Q151.771 1398.93 151.771 1407.68 Q151.771 1416.41 148.692 1421.01 Q145.637 1425.6 139.827 1425.6 Q134.017 1425.6 130.938 1421.01 Q127.882 1416.41 127.882 1407.68 Q127.882 1398.93 130.938 1394.35 Q134.017 1389.74 139.827 1389.74 Z" fill="#000000" fill-rule="evenodd" fill-opacity="1" /><path clip-path="url(#clip690)" d="M 0 0 M156.84 1419.04 L161.725 1419.04 L161.725 1424.92 L156.84 1424.92 L156.84 1419.04 Z" fill="#000000" fill-rule="evenodd" fill-opacity="1" /><path clip-path="url(#clip690)" d="M 0 0 M170.822 1420.99 L187.141 1420.99 L187.141 1424.92 L165.197 1424.92 L165.197 1420.99 Q167.859 1418.23 172.442 1413.6 Q177.049 1408.95 178.229 1407.61 Q180.475 1405.09 181.354 1403.35 Q182.257 1401.59 182.257 1399.9 Q182.257 1397.15 180.313 1395.41 Q178.391 1393.67 175.289 1393.67 Q173.09 1393.67 170.637 1394.44 Q168.206 1395.2 165.428 1396.75 L165.428 1392.03 Q168.252 1390.9 170.706 1390.32 Q173.16 1389.74 175.197 1389.74 Q180.567 1389.74 183.762 1392.42 Q186.956 1395.11 186.956 1399.6 Q186.956 1401.73 186.146 1403.65 Q185.359 1405.55 183.252 1408.14 Q182.674 1408.81 179.572 1412.03 Q176.47 1415.23 170.822 1420.99 Z" fill="#000000" fill-rule="evenodd" fill-opacity="1" /><path clip-path="url(#clip690)" d="M 0 0 M138.878 1195.63 Q135.267 1195.63 133.438 1199.19 Q131.632 1202.74 131.632 1209.87 Q131.632 1216.97 133.438 1220.54 Q135.267 1224.08 138.878 1224.08 Q142.512 1224.08 144.317 1220.54 Q146.146 1216.97 146.146 1209.87 Q146.146 1202.74 144.317 1199.19 Q142.512 1195.63 138.878 1195.63 M138.878 1191.93 Q144.688 1191.93 147.743 1196.53 Q150.822 1201.12 150.822 1209.87 Q150.822 1218.59 147.743 1223.2 Q144.688 1227.78 138.878 1227.78 Q133.067 1227.78 129.989 1223.2 Q126.933 1218.59 126.933 1209.87 Q126.933 1201.12 129.989 1196.53 Q133.067 1191.93 138.878 1191.93 Z" fill="#000000" fill-rule="evenodd" fill-opacity="1" /><path clip-path="url(#clip690)" d="M 0 0 M155.891 1221.23 L160.776 1221.23 L160.776 1227.11 L155.891 1227.11 L155.891 1221.23 Z" fill="#000000" fill-rule="evenodd" fill-opacity="1" /><path clip-path="url(#clip690)" d="M 0 0 M180.012 1208.48 Q183.368 1209.19 185.243 1211.46 Q187.141 1213.73 187.141 1217.07 Q187.141 1222.18 183.623 1224.98 Q180.104 1227.78 173.623 1227.78 Q171.447 1227.78 169.132 1227.34 Q166.84 1226.93 164.387 1226.07 L164.387 1221.56 Q166.331 1222.69 168.646 1223.27 Q170.961 1223.85 173.484 1223.85 Q177.882 1223.85 180.174 1222.11 Q182.488 1220.38 182.488 1217.07 Q182.488 1214.01 180.336 1212.3 Q178.206 1210.56 174.387 1210.56 L170.359 1210.56 L170.359 1206.72 L174.572 1206.72 Q178.021 1206.72 179.85 1205.35 Q181.678 1203.96 181.678 1201.37 Q181.678 1198.71 179.78 1197.3 Q177.905 1195.86 174.387 1195.86 Q172.465 1195.86 170.266 1196.28 Q168.067 1196.69 165.428 1197.57 L165.428 1193.41 Q168.09 1192.67 170.405 1192.3 Q172.743 1191.93 174.803 1191.93 Q180.127 1191.93 183.229 1194.36 Q186.331 1196.76 186.331 1200.88 Q186.331 1203.76 184.688 1205.75 Q183.044 1207.71 180.012 1208.48 Z" fill="#000000" fill-rule="evenodd" fill-opacity="1" /><path clip-path="url(#clip690)" d="M 0 0 M137.743 997.817 Q134.132 997.817 132.304 1001.38 Q130.498 1004.92 130.498 1012.05 Q130.498 1019.16 132.304 1022.72 Q134.132 1026.27 137.743 1026.27 Q141.378 1026.27 143.183 1022.72 Q145.012 1019.16 145.012 1012.05 Q145.012 1004.92 143.183 1001.38 Q141.378 997.817 137.743 997.817 M137.743 994.114 Q143.554 994.114 146.609 998.72 Q149.688 1003.3 149.688 1012.05 Q149.688 1020.78 146.609 1025.39 Q143.554 1029.97 137.743 1029.97 Q131.933 1029.97 128.855 1025.39 Q125.799 1020.78 125.799 1012.05 Q125.799 1003.3 128.855 998.72 Q131.933 994.114 137.743 994.114 Z" fill="#000000" fill-rule="evenodd" fill-opacity="1" /><path clip-path="url(#clip690)" d="M 0 0 M154.757 1023.42 L159.641 1023.42 L159.641 1029.3 L154.757 1029.3 L154.757 1023.42 Z" fill="#000000" fill-rule="evenodd" fill-opacity="1" /><path clip-path="url(#clip690)" d="M 0 0 M177.558 998.813 L165.752 1017.26 L177.558 1017.26 L177.558 998.813 M176.331 994.739 L182.211 994.739 L182.211 1017.26 L187.141 1017.26 L187.141 1021.15 L182.211 1021.15 L182.211 1029.3 L177.558 1029.3 L177.558 1021.15 L161.956 1021.15 L161.956 1016.64 L176.331 994.739 Z" fill="#000000" fill-rule="evenodd" fill-opacity="1" /><path clip-path="url(#clip690)" d="M 0 0 M139.225 800.005 Q135.614 800.005 133.785 803.57 Q131.98 807.111 131.98 814.241 Q131.98 821.347 133.785 824.912 Q135.614 828.454 139.225 828.454 Q142.859 828.454 144.665 824.912 Q146.493 821.347 146.493 814.241 Q146.493 807.111 144.665 803.57 Q142.859 800.005 139.225 800.005 M139.225 796.301 Q145.035 796.301 148.091 800.908 Q151.169 805.491 151.169 814.241 Q151.169 822.968 148.091 827.574 Q145.035 832.157 139.225 832.157 Q133.415 832.157 130.336 827.574 Q127.28 822.968 127.28 814.241 Q127.28 805.491 130.336 800.908 Q133.415 796.301 139.225 796.301 Z" fill="#000000" fill-rule="evenodd" fill-opacity="1" /><path clip-path="url(#clip690)" d="M 0 0 M156.239 825.607 L161.123 825.607 L161.123 831.486 L156.239 831.486 L156.239 825.607 Z" fill="#000000" fill-rule="evenodd" fill-opacity="1" /><path clip-path="url(#clip690)" d="M 0 0 M166.239 796.926 L184.595 796.926 L184.595 800.861 L170.521 800.861 L170.521 809.333 Q171.539 808.986 172.558 808.824 Q173.577 808.639 174.595 808.639 Q180.382 808.639 183.762 811.81 Q187.141 814.982 187.141 820.398 Q187.141 825.977 183.669 829.079 Q180.197 832.157 173.877 832.157 Q171.702 832.157 169.433 831.787 Q167.188 831.417 164.78 830.676 L164.78 825.977 Q166.864 827.111 169.086 827.667 Q171.308 828.222 173.785 828.222 Q177.789 828.222 180.127 826.116 Q182.465 824.009 182.465 820.398 Q182.465 816.787 180.127 814.681 Q177.789 812.574 173.785 812.574 Q171.91 812.574 170.035 812.991 Q168.183 813.408 166.239 814.287 L166.239 796.926 Z" fill="#000000" fill-rule="evenodd" fill-opacity="1" /><path clip-path="url(#clip690)" d="M 0 0 M138.067 602.192 Q134.456 602.192 132.628 605.757 Q130.822 609.299 130.822 616.428 Q130.822 623.535 132.628 627.099 Q134.456 630.641 138.067 630.641 Q141.702 630.641 143.507 627.099 Q145.336 623.535 145.336 616.428 Q145.336 609.299 143.507 605.757 Q141.702 602.192 138.067 602.192 M138.067 598.489 Q143.878 598.489 146.933 603.095 Q150.012 607.678 150.012 616.428 Q150.012 625.155 146.933 629.761 Q143.878 634.345 138.067 634.345 Q132.257 634.345 129.179 629.761 Q126.123 625.155 126.123 616.428 Q126.123 607.678 129.179 603.095 Q132.257 598.489 138.067 598.489 Z" fill="#000000" fill-rule="evenodd" fill-opacity="1" /><path clip-path="url(#clip690)" d="M 0 0 M155.081 627.794 L159.965 627.794 L159.965 633.674 L155.081 633.674 L155.081 627.794 Z" fill="#000000" fill-rule="evenodd" fill-opacity="1" /><path clip-path="url(#clip690)" d="M 0 0 M175.614 614.53 Q172.465 614.53 170.614 616.683 Q168.785 618.836 168.785 622.586 Q168.785 626.312 170.614 628.488 Q172.465 630.641 175.614 630.641 Q178.762 630.641 180.59 628.488 Q182.442 626.312 182.442 622.586 Q182.442 618.836 180.59 616.683 Q178.762 614.53 175.614 614.53 M184.896 599.877 L184.896 604.137 Q183.137 603.303 181.331 602.863 Q179.549 602.424 177.789 602.424 Q173.16 602.424 170.706 605.549 Q168.276 608.674 167.928 614.993 Q169.294 612.979 171.354 611.914 Q173.414 610.826 175.891 610.826 Q181.1 610.826 184.109 613.998 Q187.141 617.146 187.141 622.586 Q187.141 627.91 183.993 631.127 Q180.845 634.345 175.614 634.345 Q169.618 634.345 166.447 629.761 Q163.276 625.155 163.276 616.428 Q163.276 608.234 167.165 603.373 Q171.053 598.489 177.604 598.489 Q179.364 598.489 181.146 598.836 Q182.951 599.183 184.896 599.877 Z" fill="#000000" fill-rule="evenodd" fill-opacity="1" /><path clip-path="url(#clip690)" d="M 0 0 M139.132 404.38 Q135.521 404.38 133.692 407.944 Q131.887 411.486 131.887 418.616 Q131.887 425.722 133.692 429.287 Q135.521 432.828 139.132 432.828 Q142.766 432.828 144.572 429.287 Q146.401 425.722 146.401 418.616 Q146.401 411.486 144.572 407.944 Q142.766 404.38 139.132 404.38 M139.132 400.676 Q144.942 400.676 147.998 405.282 Q151.077 409.866 151.077 418.616 Q151.077 427.342 147.998 431.949 Q144.942 436.532 139.132 436.532 Q133.322 436.532 130.243 431.949 Q127.188 427.342 127.188 418.616 Q127.188 409.866 130.243 405.282 Q133.322 400.676 139.132 400.676 Z" fill="#000000" fill-rule="evenodd" fill-opacity="1" /><path clip-path="url(#clip690)" d="M 0 0 M156.146 429.981 L161.03 429.981 L161.03 435.861 L156.146 435.861 L156.146 429.981 Z" fill="#000000" fill-rule="evenodd" fill-opacity="1" /><path clip-path="url(#clip690)" d="M 0 0 M164.919 401.301 L187.141 401.301 L187.141 403.292 L174.595 435.861 L169.711 435.861 L181.516 405.236 L164.919 405.236 L164.919 401.301 Z" fill="#000000" fill-rule="evenodd" fill-opacity="1" /><path clip-path="url(#clip690)" d="M 0 0 M138.322 206.567 Q134.711 206.567 132.882 210.132 Q131.077 213.673 131.077 220.803 Q131.077 227.909 132.882 231.474 Q134.711 235.016 138.322 235.016 Q141.956 235.016 143.762 231.474 Q145.591 227.909 145.591 220.803 Q145.591 213.673 143.762 210.132 Q141.956 206.567 138.322 206.567 M138.322 202.863 Q144.132 202.863 147.188 207.47 Q150.266 212.053 150.266 220.803 Q150.266 229.53 147.188 234.136 Q144.132 238.72 138.322 238.72 Q132.512 238.72 129.433 234.136 Q126.378 229.53 126.378 220.803 Q126.378 212.053 129.433 207.47 Q132.512 202.863 138.322 202.863 Z" fill="#000000" fill-rule="evenodd" fill-opacity="1" /><path clip-path="url(#clip690)" d="M 0 0 M155.336 232.169 L160.22 232.169 L160.22 238.048 L155.336 238.048 L155.336 232.169 Z" fill="#000000" fill-rule="evenodd" fill-opacity="1" /><path clip-path="url(#clip690)" d="M 0 0 M175.289 221.636 Q171.956 221.636 170.035 223.419 Q168.137 225.201 168.137 228.326 Q168.137 231.451 170.035 233.233 Q171.956 235.016 175.289 235.016 Q178.623 235.016 180.544 233.233 Q182.465 231.428 182.465 228.326 Q182.465 225.201 180.544 223.419 Q178.646 221.636 175.289 221.636 M170.614 219.646 Q167.604 218.905 165.915 216.845 Q164.248 214.784 164.248 211.822 Q164.248 207.678 167.188 205.271 Q170.151 202.863 175.289 202.863 Q180.451 202.863 183.391 205.271 Q186.331 207.678 186.331 211.822 Q186.331 214.784 184.641 216.845 Q182.975 218.905 179.989 219.646 Q183.368 220.433 185.243 222.724 Q187.141 225.016 187.141 228.326 Q187.141 233.349 184.063 236.034 Q181.007 238.72 175.289 238.72 Q169.572 238.72 166.493 236.034 Q163.438 233.349 163.438 228.326 Q163.438 225.016 165.336 222.724 Q167.234 220.433 170.614 219.646 M168.901 212.261 Q168.901 214.946 170.567 216.451 Q172.257 217.956 175.289 217.956 Q178.299 217.956 179.989 216.451 Q181.701 214.946 181.701 212.261 Q181.701 209.576 179.989 208.072 Q178.299 206.567 175.289 206.567 Q172.257 206.567 170.567 208.072 Q168.901 209.576 168.901 212.261 Z" fill="#000000" fill-rule="evenodd" fill-opacity="1" /><path clip-path="url(#clip690)" d="M 0 0 M1302.46 4.53628 Q1302.38 4.94617 1302.21 5.68398 Q1302.05 6.3808 1301.31 8.59422 Q1300.57 10.8076 1299.59 13.0621 Q1298.65 15.2755 1296.8 18.3907 Q1295 21.4649 1292.79 24.2521 Q1292.17 24.9899 1292.05 25.4408 Q1291.97 25.8507 1291.97 27.2034 Q1291.97 35.7291 1294.55 35.7291 Q1294.67 35.7291 1294.88 35.7291 Q1295.12 35.6881 1295.74 35.4832 Q1296.39 35.2373 1296.97 34.8683 Q1297.54 34.4585 1298.2 33.6387 Q1298.85 32.7779 1299.26 31.6302 Q1299.63 30.8104 1300.37 30.8104 Q1301.35 30.8104 1301.35 31.6302 Q1301.35 33.1058 1299.3 35.3602 Q1297.25 37.6146 1294.3 37.6146 Q1291.47 37.6146 1289.47 35.7701 Q1287.5 33.8846 1286.68 30.5235 Q1277.83 37.6146 1268.97 37.6146 Q1262.74 37.6146 1259.05 33.5567 Q1255.36 29.4578 1255.36 23.3913 Q1255.36 17.5709 1258.56 12.0373 Q1261.8 6.50377 1267.05 3.06067 Q1272.33 -0.423422 1277.95 -0.423422 Q1279.92 -0.423422 1281.8 0.109439 Q1283.69 0.60131 1285.57 1.87198 Q1287.46 3.14265 1288.85 5.06914 Q1290.25 6.99564 1291.11 10.0288 Q1291.97 13.0621 1291.97 16.8741 L1291.97 22.0797 Q1297.38 15.2345 1300.21 5.43805 Q1300.62 3.96243 1300.86 3.79847 Q1301.03 3.67551 1301.44 3.67551 Q1301.85 3.67551 1302.09 3.92144 Q1302.38 4.12639 1302.42 4.33133 L1302.46 4.53628 M1286.35 28.3511 Q1286.19 26.9164 1286.19 18.9645 Q1286.19 17.4479 1286.19 16.6281 Q1286.19 15.7673 1286.11 14.1278 Q1286.02 12.4882 1285.86 11.4635 Q1285.74 10.4387 1285.45 8.96312 Q1285.16 7.48751 1284.75 6.54476 Q1284.34 5.602 1283.69 4.53628 Q1283.07 3.47056 1282.25 2.85572 Q1281.47 2.24088 1280.33 1.83099 Q1279.22 1.4211 1277.87 1.4211 Q1276.19 1.4211 1274.42 2.03594 Q1272.7 2.60978 1270.49 4.4543 Q1268.27 6.25783 1266.43 9.12708 Q1264.5 12.1603 1263.03 17.7348 Q1261.59 23.2684 1261.59 26.5885 Q1261.59 30.7694 1263.52 33.2698 Q1265.45 35.7291 1269.14 35.7291 Q1277.95 35.7291 1286.35 28.3511 Z" fill="#000000" fill-rule="evenodd" fill-opacity="1" /><path clip-path="url(#clip690)" d="M 0 0 M1296.11 1527.48 Q1296.11 1529.28 1294.98 1530.31 Q1293.85 1531.31 1292.57 1531.31 Q1291.34 1531.31 1290.7 1530.6 Q1290.05 1529.89 1290.05 1528.99 Q1290.05 1527.77 1290.96 1526.7 Q1291.86 1525.64 1293.21 1525.42 Q1291.89 1524.58 1289.93 1524.58 Q1288.64 1524.58 1287.51 1525.26 Q1286.41 1525.93 1285.74 1526.8 Q1285.09 1527.67 1284.51 1528.93 Q1283.97 1530.15 1283.74 1530.89 Q1283.55 1531.6 1283.39 1532.37 L1281.13 1541.39 Q1280.04 1545.67 1280.04 1547.19 Q1280.04 1549.06 1280.94 1550.31 Q1281.84 1551.54 1283.64 1551.54 Q1284.35 1551.54 1285.16 1551.34 Q1285.96 1551.12 1286.99 1550.54 Q1288.06 1549.93 1288.99 1549.02 Q1289.96 1548.09 1290.89 1546.51 Q1291.83 1544.93 1292.44 1542.9 Q1292.63 1542.2 1293.27 1542.2 Q1294.08 1542.2 1294.08 1542.84 Q1294.08 1543.39 1293.63 1544.55 Q1293.21 1545.67 1292.28 1547.16 Q1291.37 1548.6 1290.18 1549.93 Q1288.99 1551.21 1287.22 1552.12 Q1285.45 1553.02 1283.52 1553.02 Q1280.75 1553.02 1278.91 1551.54 Q1277.07 1550.05 1276.4 1547.99 Q1276.24 1548.28 1276.01 1548.67 Q1275.79 1549.06 1275.11 1549.93 Q1274.47 1550.76 1273.73 1551.41 Q1272.98 1552.02 1271.83 1552.5 Q1270.7 1553.02 1269.47 1553.02 Q1267.93 1553.02 1266.54 1552.57 Q1265.19 1552.12 1264.22 1551.08 Q1263.26 1550.05 1263.26 1548.64 Q1263.26 1547.06 1264.32 1545.96 Q1265.42 1544.84 1266.9 1544.84 Q1267.83 1544.84 1268.57 1545.38 Q1269.35 1545.93 1269.35 1547.12 Q1269.35 1548.44 1268.44 1549.44 Q1267.54 1550.44 1266.25 1550.7 Q1267.57 1551.54 1269.54 1551.54 Q1271.66 1551.54 1273.34 1549.67 Q1275.01 1547.8 1275.82 1544.68 Q1277.82 1537.17 1278.59 1533.82 Q1279.36 1530.44 1279.36 1528.99 Q1279.36 1527.64 1279.01 1526.7 Q1278.65 1525.77 1278.04 1525.35 Q1277.46 1524.9 1276.91 1524.74 Q1276.4 1524.58 1275.82 1524.58 Q1274.85 1524.58 1273.76 1524.97 Q1272.69 1525.35 1271.41 1526.25 Q1270.15 1527.12 1268.96 1528.93 Q1267.77 1530.73 1266.96 1533.21 Q1266.8 1533.95 1266.09 1533.95 Q1265.32 1533.92 1265.32 1533.27 Q1265.32 1532.73 1265.74 1531.6 Q1266.19 1530.44 1267.09 1528.99 Q1268.03 1527.54 1269.22 1526.25 Q1270.44 1524.93 1272.21 1524.03 Q1274.02 1523.13 1275.95 1523.13 Q1276.82 1523.13 1277.65 1523.32 Q1278.52 1523.48 1279.55 1523.97 Q1280.62 1524.45 1281.55 1525.51 Q1282.49 1526.58 1283.07 1528.12 Q1283.45 1527.38 1283.97 1526.67 Q1284.51 1525.96 1285.35 1525.09 Q1286.22 1524.19 1287.41 1523.68 Q1288.64 1523.13 1289.99 1523.13 Q1291.31 1523.13 1292.6 1523.48 Q1293.89 1523.81 1294.98 1524.87 Q1296.11 1525.9 1296.11 1527.48 Z" fill="#000000" fill-rule="evenodd" fill-opacity="1" /><path clip-path="url(#clip690)" d="M 0 0 M60.8835 752.42 Q61.3344 752.42 62.3972 752.71 L87.5821 759.022 Q93.186 760.407 97.1151 764.916 Q101.044 769.393 101.044 774.481 Q101.044 777.541 99.4017 779.505 Q97.7914 781.47 95.3115 781.47 Q93.1216 781.47 92.0588 780.31 Q91.0282 779.151 91.0282 777.766 Q91.0282 777.315 91.157 776.832 Q91.2858 776.349 91.8333 775.834 Q92.3808 775.318 93.3148 775.318 Q94.8285 775.318 96.0201 776.639 Q96.5676 777.283 96.6964 777.895 Q96.8252 778.475 96.8252 779.473 Q97.727 779.086 98.3389 778.378 Q98.9508 777.669 99.1763 776.864 Q99.4339 776.059 99.4983 775.544 Q99.5949 774.996 99.5949 774.481 Q99.5949 770.359 95.4404 767.203 Q94.1843 766.269 92.9283 765.592 Q91.7045 764.884 90.1908 764.368 Q88.7093 763.853 87.9042 763.628 Q87.0991 763.37 85.2633 762.919 Q88.2585 765.914 88.2585 769.586 Q88.2585 771.132 87.8398 772.516 Q87.4211 773.869 86.5516 775.061 Q85.6498 776.252 84.0717 776.961 Q82.4936 777.637 80.4002 777.637 Q78.178 777.637 75.1507 776.768 Q72.1233 775.898 66.5517 773.805 Q63.4277 772.678 61.9141 772.678 Q61.1733 772.678 60.7225 772.839 Q60.2394 773 60.0783 773.322 Q59.8851 773.644 59.8529 773.837 Q59.8207 773.998 59.8207 774.32 Q59.8207 776.22 61.753 777.991 Q63.6854 779.763 68.001 780.987 Q68.8061 781.244 68.9994 781.405 Q69.1926 781.566 69.1926 782.049 Q69.1604 782.855 68.5163 782.855 Q68.2586 782.855 67.2602 782.565 Q66.2297 782.275 64.716 781.599 Q63.1701 780.89 61.7852 779.924 Q60.3682 778.958 59.3698 777.444 Q58.3714 775.898 58.3714 774.127 Q58.3714 771.711 59.9495 770.23 Q61.4954 768.716 63.782 768.716 Q64.716 768.716 65.5533 768.974 Q66.3585 769.199 68.5163 770.037 Q77.2119 773.418 81.463 773.418 Q82.4936 773.418 83.3632 773.257 Q84.2005 773.064 85.0379 772.645 Q85.843 772.227 86.3261 771.389 Q86.777 770.52 86.777 769.328 Q86.777 767.814 86.0685 766.397 Q85.3277 764.948 84.3294 764.046 Q83.331 763.112 82.4936 762.565 Q81.6241 761.985 81.1732 761.856 L69.3214 758.893 L64.0397 757.573 Q61.1733 756.961 60.4648 756.671 Q59.7885 756.285 59.4342 755.608 Q59.08 754.932 59.08 754.352 Q59.08 753.547 59.563 753 Q60.0461 752.42 60.8835 752.42 Z" fill="#000000" fill-rule="evenodd" fill-opacity="1" /><polyline clip-path="url(#clip692)" style="stroke:#009af9; stroke-width:4; stroke-opacity:1; fill:none" points="
  271.753,621.469 496.241,631.281 720.729,559.435 945.217,471.715 1169.7,238.605 1394.19,1212.59 1618.68,172.125 1843.17,1408.66 2067.66,725.39 2292.14,125.03 
  
  "/>
<path clip-path="url(#clip690)" d="
M1989.74 291.002 L2280.76 291.002 L2280.76 170.042 L1989.74 170.042  Z
  " fill="#ffffff" fill-rule="evenodd" fill-opacity="1"/>
<polyline clip-path="url(#clip690)" style="stroke:#000000; stroke-width:4; stroke-opacity:1; fill:none" points="
  1989.74,291.002 2280.76,291.002 2280.76,170.042 1989.74,170.042 1989.74,291.002 
  "/>
<polyline clip-path="url(#clip690)" style="stroke:#009af9; stroke-width:4; stroke-opacity:1; fill:none" points="
  2013.74,230.522 2157.74,230.522 
  "/>
<path clip-path="url(#clip690)" d="M 0 0 M2195.58 250.209 Q2193.77 254.839 2192.06 256.251 Q2190.35 257.663 2187.48 257.663 L2184.08 257.663 L2184.08 254.098 L2186.58 254.098 Q2188.33 254.098 2189.31 253.264 Q2190.28 252.431 2191.46 249.329 L2192.22 247.385 L2181.74 221.876 L2186.25 221.876 L2194.35 242.153 L2202.46 221.876 L2206.97 221.876 L2195.58 250.209 Z" fill="#000000" fill-rule="evenodd" fill-opacity="1" /><path clip-path="url(#clip690)" d="M 0 0 M2212.85 243.866 L2220.49 243.866 L2220.49 217.501 L2212.18 219.167 L2212.18 214.908 L2220.44 213.242 L2225.12 213.242 L2225.12 243.866 L2232.76 243.866 L2232.76 247.802 L2212.85 247.802 L2212.85 243.866 Z" fill="#000000" fill-rule="evenodd" fill-opacity="1" /></svg>
