<?xml version="1.0" encoding="utf-8"?>
<svg xmlns="http://www.w3.org/2000/svg" xmlns:xlink="http://www.w3.org/1999/xlink" width="600" height="400" viewBox="0 0 2400 1600">
<defs>
  <clipPath id="clip350">
    <rect x="0" y="0" width="2400" height="1600"/>
  </clipPath>
</defs>
<path clip-path="url(#clip350)" d="
M0 1600 L2400 1600 L2400 0 L0 0  Z
  " fill="#ffffff" fill-rule="evenodd" fill-opacity="1"/>
<defs>
  <clipPath id="clip351">
    <rect x="480" y="0" width="1681" height="1600"/>
  </clipPath>
</defs>
<path clip-path="url(#clip350)" d="
M164.082 1470.7 L2352.76 1470.7 L2352.76 62.9921 L164.082 62.9921  Z
  " fill="#ffffff" fill-rule="evenodd" fill-opacity="1"/>
<defs>
  <clipPath id="clip352">
    <rect x="164" y="62" width="2190" height="1409"/>
  </clipPath>
</defs>
<polyline clip-path="url(#clip352)" style="stroke:#000000; stroke-width:2; stroke-opacity:0.1; fill:none" points="
  455.447,1470.7 455.447,62.9921 
  "/>
<polyline clip-path="url(#clip352)" style="stroke:#000000; stroke-width:2; stroke-opacity:0.1; fill:none" points="
  914.288,1470.7 914.288,62.9921 
  "/>
<polyline clip-path="url(#clip352)" style="stroke:#000000; stroke-width:2; stroke-opacity:0.1; fill:none" points="
  1373.13,1470.7 1373.13,62.9921 
  "/>
<polyline clip-path="url(#clip352)" style="stroke:#000000; stroke-width:2; stroke-opacity:0.1; fill:none" points="
  1831.97,1470.7 1831.97,62.9921 
  "/>
<polyline clip-path="url(#clip352)" style="stroke:#000000; stroke-width:2; stroke-opacity:0.1; fill:none" points="
  2290.81,1470.7 2290.81,62.9921 
  "/>
<polyline clip-path="url(#clip352)" style="stroke:#000000; stroke-width:2; stroke-opacity:0.1; fill:none" points="
  164.082,1397.38 2352.76,1397.38 
  "/>
<polyline clip-path="url(#clip352)" style="stroke:#000000; stroke-width:2; stroke-opacity:0.1; fill:none" points="
  164.082,1196.99 2352.76,1196.99 
  "/>
<polyline clip-path="url(#clip352)" style="stroke:#000000; stroke-width:2; stroke-opacity:0.1; fill:none" points="
  164.082,996.606 2352.76,996.606 
  "/>
<polyline clip-path="url(#clip352)" style="stroke:#000000; stroke-width:2; stroke-opacity:0.1; fill:none" points="
  164.082,796.218 2352.76,796.218 
  "/>
<polyline clip-path="url(#clip352)" style="stroke:#000000; stroke-width:2; stroke-opacity:0.1; fill:none" points="
  164.082,595.831 2352.76,595.831 
  "/>
<polyline clip-path="url(#clip352)" style="stroke:#000000; stroke-width:2; stroke-opacity:0.1; fill:none" points="
  164.082,395.444 2352.76,395.444 
  "/>
<polyline clip-path="url(#clip352)" style="stroke:#000000; stroke-width:2; stroke-opacity:0.1; fill:none" points="
  164.082,195.056 2352.76,195.056 
  "/>
<polyline clip-path="url(#clip350)" style="stroke:#000000; stroke-width:4; stroke-opacity:1; fill:none" points="
  164.082,1470.7 2352.76,1470.7 
  "/>
<polyline clip-path="url(#clip350)" style="stroke:#000000; stroke-width:4; stroke-opacity:1; fill:none" points="
  164.082,1470.7 164.082,62.9921 
  "/>
<polyline clip-path="url(#clip350)" style="stroke:#000000; stroke-width:4; stroke-opacity:1; fill:none" points="
  455.447,1470.7 455.447,1453.81 
  "/>
<polyline clip-path="url(#clip350)" style="stroke:#000000; stroke-width:4; stroke-opacity:1; fill:none" points="
  914.288,1470.7 914.288,1453.81 
  "/>
<polyline clip-path="url(#clip350)" style="stroke:#000000; stroke-width:4; stroke-opacity:1; fill:none" points="
  1373.13,1470.7 1373.13,1453.81 
  "/>
<polyline clip-path="url(#clip350)" style="stroke:#000000; stroke-width:4; stroke-opacity:1; fill:none" points="
  1831.97,1470.7 1831.97,1453.81 
  "/>
<polyline clip-path="url(#clip350)" style="stroke:#000000; stroke-width:4; stroke-opacity:1; fill:none" points="
  2290.81,1470.7 2290.81,1453.81 
  "/>
<polyline clip-path="url(#clip350)" style="stroke:#000000; stroke-width:4; stroke-opacity:1; fill:none" points="
  164.082,1397.38 190.347,1397.38 
  "/>
<polyline clip-path="url(#clip350)" style="stroke:#000000; stroke-width:4; stroke-opacity:1; fill:none" points="
  164.082,1196.99 190.347,1196.99 
  "/>
<polyline clip-path="url(#clip350)" style="stroke:#000000; stroke-width:4; stroke-opacity:1; fill:none" points="
  164.082,996.606 190.347,996.606 
  "/>
<polyline clip-path="url(#clip350)" style="stroke:#000000; stroke-width:4; stroke-opacity:1; fill:none" points="
  164.082,796.218 190.347,796.218 
  "/>
<polyline clip-path="url(#clip350)" style="stroke:#000000; stroke-width:4; stroke-opacity:1; fill:none" points="
  164.082,595.831 190.347,595.831 
  "/>
<polyline clip-path="url(#clip350)" style="stroke:#000000; stroke-width:4; stroke-opacity:1; fill:none" points="
  164.082,395.444 190.347,395.444 
  "/>
<polyline clip-path="url(#clip350)" style="stroke:#000000; stroke-width:4; stroke-opacity:1; fill:none" points="
  164.082,195.056 190.347,195.056 
  "/>
<path clip-path="url(#clip350)" d="M 0 0 M450.1 1520.24 L466.419 1520.24 L466.419 1524.17 L444.475 1524.17 L444.475 1520.24 Q447.137 1517.48 451.72 1512.85 Q456.326 1508.2 457.507 1506.86 Q459.752 1504.33 460.632 1502.6 Q461.535 1500.84 461.535 1499.15 Q461.535 1496.39 459.59 1494.66 Q457.669 1492.92 454.567 1492.92 Q452.368 1492.92 449.914 1493.69 Q447.484 1494.45 444.706 1496 L444.706 1491.28 Q447.53 1490.14 449.984 1489.57 Q452.437 1488.99 454.474 1488.99 Q459.845 1488.99 463.039 1491.67 Q466.234 1494.36 466.234 1498.85 Q466.234 1500.98 465.424 1502.9 Q464.636 1504.8 462.53 1507.39 Q461.951 1508.06 458.849 1511.28 Q455.748 1514.47 450.1 1520.24 Z" fill="#000000" fill-rule="evenodd" fill-opacity="1" /><path clip-path="url(#clip350)" d="M 0 0 M917.297 1493.69 L905.492 1512.13 L917.297 1512.13 L917.297 1493.69 M916.071 1489.61 L921.95 1489.61 L921.95 1512.13 L926.881 1512.13 L926.881 1516.02 L921.95 1516.02 L921.95 1524.17 L917.297 1524.17 L917.297 1516.02 L901.696 1516.02 L901.696 1511.51 L916.071 1489.61 Z" fill="#000000" fill-rule="evenodd" fill-opacity="1" /><path clip-path="url(#clip350)" d="M 0 0 M1373.53 1505.03 Q1370.39 1505.03 1368.53 1507.18 Q1366.71 1509.33 1366.71 1513.08 Q1366.71 1516.81 1368.53 1518.99 Q1370.39 1521.14 1373.53 1521.14 Q1376.68 1521.14 1378.51 1518.99 Q1380.36 1516.81 1380.36 1513.08 Q1380.36 1509.33 1378.51 1507.18 Q1376.68 1505.03 1373.53 1505.03 M1382.82 1490.38 L1382.82 1494.63 Q1381.06 1493.8 1379.25 1493.36 Q1377.47 1492.92 1375.71 1492.92 Q1371.08 1492.92 1368.63 1496.05 Q1366.2 1499.17 1365.85 1505.49 Q1367.22 1503.48 1369.28 1502.41 Q1371.34 1501.32 1373.81 1501.32 Q1379.02 1501.32 1382.03 1504.5 Q1385.06 1507.64 1385.06 1513.08 Q1385.06 1518.41 1381.91 1521.63 Q1378.77 1524.84 1373.53 1524.84 Q1367.54 1524.84 1364.37 1520.26 Q1361.2 1515.65 1361.2 1506.93 Q1361.2 1498.73 1365.09 1493.87 Q1368.97 1488.99 1375.53 1488.99 Q1377.28 1488.99 1379.07 1489.33 Q1380.87 1489.68 1382.82 1490.38 Z" fill="#000000" fill-rule="evenodd" fill-opacity="1" /><path clip-path="url(#clip350)" d="M 0 0 M1831.97 1507.76 Q1828.64 1507.76 1826.72 1509.54 Q1824.82 1511.32 1824.82 1514.45 Q1824.82 1517.57 1826.72 1519.36 Q1828.64 1521.14 1831.97 1521.14 Q1835.3 1521.14 1837.23 1519.36 Q1839.15 1517.55 1839.15 1514.45 Q1839.15 1511.32 1837.23 1509.54 Q1835.33 1507.76 1831.97 1507.76 M1827.3 1505.77 Q1824.29 1505.03 1822.6 1502.97 Q1820.93 1500.91 1820.93 1497.95 Q1820.93 1493.8 1823.87 1491.39 Q1826.83 1488.99 1831.97 1488.99 Q1837.13 1488.99 1840.07 1491.39 Q1843.01 1493.8 1843.01 1497.95 Q1843.01 1500.91 1841.32 1502.97 Q1839.66 1505.03 1836.67 1505.77 Q1840.05 1506.56 1841.92 1508.85 Q1843.82 1511.14 1843.82 1514.45 Q1843.82 1519.47 1840.74 1522.16 Q1837.69 1524.84 1831.97 1524.84 Q1826.25 1524.84 1823.17 1522.16 Q1820.12 1519.47 1820.12 1514.45 Q1820.12 1511.14 1822.02 1508.85 Q1823.92 1506.56 1827.3 1505.77 M1825.58 1498.38 Q1825.58 1501.07 1827.25 1502.57 Q1828.94 1504.08 1831.97 1504.08 Q1834.98 1504.08 1836.67 1502.57 Q1838.38 1501.07 1838.38 1498.38 Q1838.38 1495.7 1836.67 1494.2 Q1834.98 1492.69 1831.97 1492.69 Q1828.94 1492.69 1827.25 1494.2 Q1825.58 1495.7 1825.58 1498.38 Z" fill="#000000" fill-rule="evenodd" fill-opacity="1" /><path clip-path="url(#clip350)" d="M 0 0 M2267.69 1520.24 L2275.33 1520.24 L2275.33 1493.87 L2267.02 1495.54 L2267.02 1491.28 L2275.28 1489.61 L2279.96 1489.61 L2279.96 1520.24 L2287.59 1520.24 L2287.59 1524.17 L2267.69 1524.17 L2267.69 1520.24 Z" fill="#000000" fill-rule="evenodd" fill-opacity="1" /><path clip-path="url(#clip350)" d="M 0 0 M2302.66 1492.69 Q2299.05 1492.69 2297.22 1496.26 Q2295.42 1499.8 2295.42 1506.93 Q2295.42 1514.03 2297.22 1517.6 Q2299.05 1521.14 2302.66 1521.14 Q2306.3 1521.14 2308.1 1517.6 Q2309.93 1514.03 2309.93 1506.93 Q2309.93 1499.8 2308.1 1496.26 Q2306.3 1492.69 2302.66 1492.69 M2302.66 1488.99 Q2308.47 1488.99 2311.53 1493.59 Q2314.61 1498.18 2314.61 1506.93 Q2314.61 1515.65 2311.53 1520.26 Q2308.47 1524.84 2302.66 1524.84 Q2296.85 1524.84 2293.78 1520.26 Q2290.72 1515.65 2290.72 1506.93 Q2290.72 1498.18 2293.78 1493.59 Q2296.85 1488.99 2302.66 1488.99 Z" fill="#000000" fill-rule="evenodd" fill-opacity="1" /><path clip-path="url(#clip350)" d="M 0 0 M91.8188 1383.18 Q88.2077 1383.18 86.379 1386.74 Q84.5735 1390.29 84.5735 1397.42 Q84.5735 1404.52 86.379 1408.09 Q88.2077 1411.63 91.8188 1411.63 Q95.453 1411.63 97.2586 1408.09 Q99.0873 1404.52 99.0873 1397.42 Q99.0873 1390.29 97.2586 1386.74 Q95.453 1383.18 91.8188 1383.18 M91.8188 1379.48 Q97.6289 1379.48 100.684 1384.08 Q103.763 1388.67 103.763 1397.42 Q103.763 1406.14 100.684 1410.75 Q97.6289 1415.33 91.8188 1415.33 Q86.0086 1415.33 82.9299 1410.75 Q79.8744 1406.14 79.8744 1397.42 Q79.8744 1388.67 82.9299 1384.08 Q86.0086 1379.48 91.8188 1379.48 Z" fill="#000000" fill-rule="evenodd" fill-opacity="1" /><path clip-path="url(#clip350)" d="M 0 0 M108.833 1408.78 L113.717 1408.78 L113.717 1414.66 L108.833 1414.66 L108.833 1408.78 Z" fill="#000000" fill-rule="evenodd" fill-opacity="1" /><path clip-path="url(#clip350)" d="M 0 0 M132.953 1396.03 Q136.309 1396.74 138.184 1399.01 Q140.082 1401.28 140.082 1404.61 Q140.082 1409.73 136.564 1412.53 Q133.045 1415.33 126.564 1415.33 Q124.388 1415.33 122.073 1414.89 Q119.782 1414.48 117.328 1413.62 L117.328 1409.1 Q119.272 1410.24 121.587 1410.82 Q123.902 1411.4 126.425 1411.4 Q130.823 1411.4 133.115 1409.66 Q135.43 1407.92 135.43 1404.61 Q135.43 1401.56 133.277 1399.85 Q131.147 1398.11 127.328 1398.11 L123.3 1398.11 L123.3 1394.27 L127.513 1394.27 Q130.962 1394.27 132.791 1392.9 Q134.619 1391.51 134.619 1388.92 Q134.619 1386.26 132.721 1384.85 Q130.846 1383.41 127.328 1383.41 Q125.407 1383.41 123.208 1383.83 Q121.008 1384.24 118.37 1385.12 L118.37 1380.96 Q121.032 1380.22 123.346 1379.85 Q125.684 1379.48 127.745 1379.48 Q133.069 1379.48 136.17 1381.91 Q139.272 1384.31 139.272 1388.43 Q139.272 1391.3 137.629 1393.29 Q135.985 1395.26 132.953 1396.03 Z" fill="#000000" fill-rule="evenodd" fill-opacity="1" /><path clip-path="url(#clip350)" d="M 0 0 M90.6845 1182.79 Q87.0734 1182.79 85.2448 1186.36 Q83.4392 1189.9 83.4392 1197.03 Q83.4392 1204.13 85.2448 1207.7 Q87.0734 1211.24 90.6845 1211.24 Q94.3188 1211.24 96.1243 1207.7 Q97.953 1204.13 97.953 1197.03 Q97.953 1189.9 96.1243 1186.36 Q94.3188 1182.79 90.6845 1182.79 M90.6845 1179.09 Q96.4947 1179.09 99.5502 1183.69 Q102.629 1188.28 102.629 1197.03 Q102.629 1205.75 99.5502 1210.36 Q96.4947 1214.94 90.6845 1214.94 Q84.8744 1214.94 81.7957 1210.36 Q78.7402 1205.75 78.7402 1197.03 Q78.7402 1188.28 81.7957 1183.69 Q84.8744 1179.09 90.6845 1179.09 Z" fill="#000000" fill-rule="evenodd" fill-opacity="1" /><path clip-path="url(#clip350)" d="M 0 0 M107.698 1208.39 L112.583 1208.39 L112.583 1214.27 L107.698 1214.27 L107.698 1208.39 Z" fill="#000000" fill-rule="evenodd" fill-opacity="1" /><path clip-path="url(#clip350)" d="M 0 0 M130.499 1183.79 L118.694 1202.24 L130.499 1202.24 L130.499 1183.79 M129.272 1179.71 L135.152 1179.71 L135.152 1202.24 L140.082 1202.24 L140.082 1206.12 L135.152 1206.12 L135.152 1214.27 L130.499 1214.27 L130.499 1206.12 L114.897 1206.12 L114.897 1201.61 L129.272 1179.71 Z" fill="#000000" fill-rule="evenodd" fill-opacity="1" /><path clip-path="url(#clip350)" d="M 0 0 M92.166 982.404 Q88.5549 982.404 86.7262 985.969 Q84.9207 989.511 84.9207 996.64 Q84.9207 1003.75 86.7262 1007.31 Q88.5549 1010.85 92.166 1010.85 Q95.8003 1010.85 97.6058 1007.31 Q99.4345 1003.75 99.4345 996.64 Q99.4345 989.511 97.6058 985.969 Q95.8003 982.404 92.166 982.404 M92.166 978.701 Q97.9762 978.701 101.032 983.307 Q104.11 987.89 104.11 996.64 Q104.11 1005.37 101.032 1009.97 Q97.9762 1014.56 92.166 1014.56 Q86.3559 1014.56 83.2772 1009.97 Q80.2216 1005.37 80.2216 996.64 Q80.2216 987.89 83.2772 983.307 Q86.3559 978.701 92.166 978.701 Z" fill="#000000" fill-rule="evenodd" fill-opacity="1" /><path clip-path="url(#clip350)" d="M 0 0 M109.18 1008.01 L114.064 1008.01 L114.064 1013.89 L109.18 1013.89 L109.18 1008.01 Z" fill="#000000" fill-rule="evenodd" fill-opacity="1" /><path clip-path="url(#clip350)" d="M 0 0 M119.18 979.326 L137.536 979.326 L137.536 983.261 L123.462 983.261 L123.462 991.733 Q124.481 991.386 125.499 991.224 Q126.518 991.039 127.536 991.039 Q133.323 991.039 136.703 994.21 Q140.082 997.381 140.082 1002.8 Q140.082 1008.38 136.61 1011.48 Q133.138 1014.56 126.819 1014.56 Q124.643 1014.56 122.374 1014.19 Q120.129 1013.82 117.721 1013.08 L117.721 1008.38 Q119.805 1009.51 122.027 1010.07 Q124.249 1010.62 126.726 1010.62 Q130.731 1010.62 133.069 1008.52 Q135.407 1006.41 135.407 1002.8 Q135.407 999.187 133.069 997.08 Q130.731 994.974 126.726 994.974 Q124.851 994.974 122.976 995.39 Q121.124 995.807 119.18 996.687 L119.18 979.326 Z" fill="#000000" fill-rule="evenodd" fill-opacity="1" /><path clip-path="url(#clip350)" d="M 0 0 M91.0086 782.017 Q87.3975 782.017 85.5688 785.582 Q83.7633 789.123 83.7633 796.253 Q83.7633 803.359 85.5688 806.924 Q87.3975 810.466 91.0086 810.466 Q94.6429 810.466 96.4484 806.924 Q98.2771 803.359 98.2771 796.253 Q98.2771 789.123 96.4484 785.582 Q94.6429 782.017 91.0086 782.017 M91.0086 778.313 Q96.8188 778.313 99.8743 782.92 Q102.953 787.503 102.953 796.253 Q102.953 804.98 99.8743 809.586 Q96.8188 814.17 91.0086 814.17 Q85.1985 814.17 82.1198 809.586 Q79.0642 804.98 79.0642 796.253 Q79.0642 787.503 82.1198 782.92 Q85.1985 778.313 91.0086 778.313 Z" fill="#000000" fill-rule="evenodd" fill-opacity="1" /><path clip-path="url(#clip350)" d="M 0 0 M108.022 807.619 L112.907 807.619 L112.907 813.498 L108.022 813.498 L108.022 807.619 Z" fill="#000000" fill-rule="evenodd" fill-opacity="1" /><path clip-path="url(#clip350)" d="M 0 0 M128.555 794.355 Q125.407 794.355 123.555 796.508 Q121.726 798.66 121.726 802.41 Q121.726 806.137 123.555 808.313 Q125.407 810.466 128.555 810.466 Q131.703 810.466 133.532 808.313 Q135.383 806.137 135.383 802.41 Q135.383 798.66 133.532 796.508 Q131.703 794.355 128.555 794.355 M137.837 779.702 L137.837 783.961 Q136.078 783.128 134.272 782.688 Q132.49 782.248 130.731 782.248 Q126.101 782.248 123.647 785.373 Q121.217 788.498 120.87 794.818 Q122.235 792.804 124.295 791.739 Q126.356 790.651 128.832 790.651 Q134.041 790.651 137.05 793.822 Q140.082 796.971 140.082 802.41 Q140.082 807.734 136.934 810.952 Q133.786 814.17 128.555 814.17 Q122.559 814.17 119.388 809.586 Q116.217 804.98 116.217 796.253 Q116.217 788.059 120.106 783.197 Q123.995 778.313 130.545 778.313 Q132.305 778.313 134.087 778.66 Q135.893 779.008 137.837 779.702 Z" fill="#000000" fill-rule="evenodd" fill-opacity="1" /><path clip-path="url(#clip350)" d="M 0 0 M92.0734 581.63 Q88.4623 581.63 86.6336 585.194 Q84.8281 588.736 84.8281 595.866 Q84.8281 602.972 86.6336 606.537 Q88.4623 610.078 92.0734 610.078 Q95.7077 610.078 97.5132 606.537 Q99.3419 602.972 99.3419 595.866 Q99.3419 588.736 97.5132 585.194 Q95.7077 581.63 92.0734 581.63 M92.0734 577.926 Q97.8836 577.926 100.939 582.532 Q104.018 587.116 104.018 595.866 Q104.018 604.592 100.939 609.199 Q97.8836 613.782 92.0734 613.782 Q86.2633 613.782 83.1846 609.199 Q80.129 604.592 80.129 595.866 Q80.129 587.116 83.1846 582.532 Q86.2633 577.926 92.0734 577.926 Z" fill="#000000" fill-rule="evenodd" fill-opacity="1" /><path clip-path="url(#clip350)" d="M 0 0 M109.087 607.231 L113.971 607.231 L113.971 613.111 L109.087 613.111 L109.087 607.231 Z" fill="#000000" fill-rule="evenodd" fill-opacity="1" /><path clip-path="url(#clip350)" d="M 0 0 M117.86 578.551 L140.082 578.551 L140.082 580.542 L127.536 613.111 L122.652 613.111 L134.457 582.486 L117.86 582.486 L117.86 578.551 Z" fill="#000000" fill-rule="evenodd" fill-opacity="1" /><path clip-path="url(#clip350)" d="M 0 0 M91.2632 381.242 Q87.6521 381.242 85.8235 384.807 Q84.0179 388.349 84.0179 395.478 Q84.0179 402.585 85.8235 406.149 Q87.6521 409.691 91.2632 409.691 Q94.8975 409.691 96.703 406.149 Q98.5317 402.585 98.5317 395.478 Q98.5317 388.349 96.703 384.807 Q94.8975 381.242 91.2632 381.242 M91.2632 377.539 Q97.0734 377.539 100.129 382.145 Q103.208 386.728 103.208 395.478 Q103.208 404.205 100.129 408.811 Q97.0734 413.395 91.2632 413.395 Q85.4531 413.395 82.3744 408.811 Q79.3189 404.205 79.3189 395.478 Q79.3189 386.728 82.3744 382.145 Q85.4531 377.539 91.2632 377.539 Z" fill="#000000" fill-rule="evenodd" fill-opacity="1" /><path clip-path="url(#clip350)" d="M 0 0 M108.277 406.844 L113.161 406.844 L113.161 412.724 L108.277 412.724 L108.277 406.844 Z" fill="#000000" fill-rule="evenodd" fill-opacity="1" /><path clip-path="url(#clip350)" d="M 0 0 M128.231 396.312 Q124.897 396.312 122.976 398.094 Q121.078 399.876 121.078 403.001 Q121.078 406.126 122.976 407.909 Q124.897 409.691 128.231 409.691 Q131.564 409.691 133.485 407.909 Q135.407 406.103 135.407 403.001 Q135.407 399.876 133.485 398.094 Q131.587 396.312 128.231 396.312 M123.555 394.321 Q120.545 393.58 118.856 391.52 Q117.189 389.46 117.189 386.497 Q117.189 382.353 120.129 379.946 Q123.092 377.539 128.231 377.539 Q133.393 377.539 136.332 379.946 Q139.272 382.353 139.272 386.497 Q139.272 389.46 137.582 391.52 Q135.916 393.58 132.93 394.321 Q136.309 395.108 138.184 397.4 Q140.082 399.691 140.082 403.001 Q140.082 408.024 137.004 410.71 Q133.948 413.395 128.231 413.395 Q122.513 413.395 119.434 410.71 Q116.379 408.024 116.379 403.001 Q116.379 399.691 118.277 397.4 Q120.175 395.108 123.555 394.321 M121.842 386.937 Q121.842 389.622 123.508 391.126 Q125.198 392.631 128.231 392.631 Q131.24 392.631 132.93 391.126 Q134.643 389.622 134.643 386.937 Q134.643 384.251 132.93 382.747 Q131.24 381.242 128.231 381.242 Q125.198 381.242 123.508 382.747 Q121.842 384.251 121.842 386.937 Z" fill="#000000" fill-rule="evenodd" fill-opacity="1" /><path clip-path="url(#clip350)" d="M 0 0 M91.3558 180.855 Q87.7447 180.855 85.916 184.42 Q84.1105 187.961 84.1105 195.091 Q84.1105 202.197 85.916 205.762 Q87.7447 209.304 91.3558 209.304 Q94.9901 209.304 96.7956 205.762 Q98.6243 202.197 98.6243 195.091 Q98.6243 187.961 96.7956 184.42 Q94.9901 180.855 91.3558 180.855 M91.3558 177.151 Q97.166 177.151 100.222 181.758 Q103.3 186.341 103.3 195.091 Q103.3 203.818 100.222 208.424 Q97.166 213.007 91.3558 213.007 Q85.5457 213.007 82.467 208.424 Q79.4115 203.818 79.4115 195.091 Q79.4115 186.341 82.467 181.758 Q85.5457 177.151 91.3558 177.151 Z" fill="#000000" fill-rule="evenodd" fill-opacity="1" /><path clip-path="url(#clip350)" d="M 0 0 M108.37 206.457 L113.254 206.457 L113.254 212.336 L108.37 212.336 L108.37 206.457 Z" fill="#000000" fill-rule="evenodd" fill-opacity="1" /><path clip-path="url(#clip350)" d="M 0 0 M118.462 211.619 L118.462 207.359 Q120.221 208.193 122.027 208.632 Q123.833 209.072 125.569 209.072 Q130.198 209.072 132.629 205.97 Q135.082 202.845 135.43 196.503 Q134.087 198.494 132.027 199.558 Q129.967 200.623 127.467 200.623 Q122.282 200.623 119.249 197.498 Q116.24 194.35 116.24 188.91 Q116.24 183.586 119.388 180.369 Q122.536 177.151 127.768 177.151 Q133.763 177.151 136.911 181.758 Q140.082 186.341 140.082 195.091 Q140.082 203.262 136.194 208.146 Q132.328 213.007 125.777 213.007 Q124.018 213.007 122.212 212.66 Q120.407 212.313 118.462 211.619 M127.768 196.966 Q130.916 196.966 132.744 194.813 Q134.596 192.66 134.596 188.91 Q134.596 185.184 132.744 183.031 Q130.916 180.855 127.768 180.855 Q124.62 180.855 122.768 183.031 Q120.939 185.184 120.939 188.91 Q120.939 192.66 122.768 194.813 Q124.62 196.966 127.768 196.966 Z" fill="#000000" fill-rule="evenodd" fill-opacity="1" /><path clip-path="url(#clip350)" d="M 0 0 M1278.93 4.53628 Q1278.85 4.94617 1278.68 5.68398 Q1278.52 6.3808 1277.78 8.59422 Q1277.04 10.8076 1276.06 13.0621 Q1275.12 15.2755 1273.27 18.3907 Q1271.47 21.4649 1269.26 24.2521 Q1268.64 24.9899 1268.52 25.4408 Q1268.44 25.8507 1268.44 27.2034 Q1268.44 35.7291 1271.02 35.7291 Q1271.14 35.7291 1271.35 35.7291 Q1271.59 35.6881 1272.21 35.4832 Q1272.86 35.2373 1273.44 34.8683 Q1274.01 34.4585 1274.67 33.6387 Q1275.32 32.7779 1275.73 31.6302 Q1276.1 30.8104 1276.84 30.8104 Q1277.82 30.8104 1277.82 31.6302 Q1277.82 33.1058 1275.77 35.3602 Q1273.72 37.6146 1270.77 37.6146 Q1267.95 37.6146 1265.94 35.7701 Q1263.97 33.8846 1263.15 30.5235 Q1254.3 37.6146 1245.44 37.6146 Q1239.21 37.6146 1235.52 33.5567 Q1231.83 29.4578 1231.83 23.3913 Q1231.83 17.5709 1235.03 12.0373 Q1238.27 6.50377 1243.52 3.06067 Q1248.8 -0.423422 1254.42 -0.423422 Q1256.39 -0.423422 1258.27 0.109439 Q1260.16 0.60131 1262.04 1.87198 Q1263.93 3.14265 1265.32 5.06914 Q1266.72 6.99564 1267.58 10.0288 Q1268.44 13.0621 1268.44 16.8741 L1268.44 22.0797 Q1273.85 15.2345 1276.68 5.43805 Q1277.09 3.96243 1277.33 3.79847 Q1277.5 3.67551 1277.91 3.67551 Q1278.32 3.67551 1278.56 3.92144 Q1278.85 4.12639 1278.89 4.33133 L1278.93 4.53628 M1262.82 28.3511 Q1262.66 26.9164 1262.66 18.9645 Q1262.66 17.4479 1262.66 16.6281 Q1262.66 15.7673 1262.58 14.1278 Q1262.49 12.4882 1262.33 11.4635 Q1262.21 10.4387 1261.92 8.96312 Q1261.63 7.48751 1261.22 6.54476 Q1260.81 5.602 1260.16 4.53628 Q1259.54 3.47056 1258.72 2.85572 Q1257.94 2.24088 1256.8 1.83099 Q1255.69 1.4211 1254.34 1.4211 Q1252.66 1.4211 1250.89 2.03594 Q1249.17 2.60978 1246.96 4.4543 Q1244.75 6.25783 1242.9 9.12708 Q1240.97 12.1603 1239.5 17.7348 Q1238.06 23.2684 1238.06 26.5885 Q1238.06 30.7694 1239.99 33.2698 Q1241.92 35.7291 1245.61 35.7291 Q1254.42 35.7291 1262.82 28.3511 Z" fill="#000000" fill-rule="evenodd" fill-opacity="1" /><path clip-path="url(#clip350)" d="M 0 0 M1272.58 1521.01 Q1272.58 1522.81 1271.45 1523.84 Q1270.32 1524.84 1269.04 1524.84 Q1267.81 1524.84 1267.17 1524.13 Q1266.52 1523.42 1266.52 1522.52 Q1266.52 1521.3 1267.43 1520.23 Q1268.33 1519.17 1269.68 1518.95 Q1268.36 1518.11 1266.4 1518.11 Q1265.11 1518.11 1263.98 1518.78 Q1262.89 1519.46 1262.21 1520.33 Q1261.56 1521.2 1260.99 1522.46 Q1260.44 1523.68 1260.21 1524.42 Q1260.02 1525.13 1259.86 1525.9 L1257.6 1534.92 Q1256.51 1539.2 1256.51 1540.72 Q1256.51 1542.58 1257.41 1543.84 Q1258.31 1545.06 1260.12 1545.06 Q1260.82 1545.06 1261.63 1544.87 Q1262.43 1544.65 1263.46 1544.07 Q1264.53 1543.45 1265.46 1542.55 Q1266.43 1541.62 1267.36 1540.04 Q1268.3 1538.46 1268.91 1536.43 Q1269.1 1535.73 1269.75 1535.73 Q1270.55 1535.73 1270.55 1536.37 Q1270.55 1536.92 1270.1 1538.08 Q1269.68 1539.2 1268.75 1540.68 Q1267.84 1542.13 1266.65 1543.45 Q1265.46 1544.74 1263.69 1545.64 Q1261.92 1546.55 1259.99 1546.55 Q1257.22 1546.55 1255.38 1545.06 Q1253.55 1543.58 1252.87 1541.52 Q1252.71 1541.81 1252.48 1542.2 Q1252.26 1542.58 1251.58 1543.45 Q1250.94 1544.29 1250.2 1544.94 Q1249.46 1545.55 1248.3 1546.03 Q1247.17 1546.55 1245.94 1546.55 Q1244.4 1546.55 1243.01 1546.1 Q1241.66 1545.64 1240.7 1544.61 Q1239.73 1543.58 1239.73 1542.17 Q1239.73 1540.59 1240.79 1539.49 Q1241.89 1538.37 1243.37 1538.37 Q1244.3 1538.37 1245.04 1538.91 Q1245.82 1539.46 1245.82 1540.65 Q1245.82 1541.97 1244.91 1542.97 Q1244.01 1543.97 1242.72 1544.23 Q1244.04 1545.06 1246.01 1545.06 Q1248.13 1545.06 1249.81 1543.2 Q1251.48 1541.33 1252.29 1538.2 Q1254.29 1530.7 1255.06 1527.35 Q1255.83 1523.97 1255.83 1522.52 Q1255.83 1521.17 1255.48 1520.23 Q1255.12 1519.3 1254.51 1518.88 Q1253.93 1518.43 1253.38 1518.27 Q1252.87 1518.11 1252.29 1518.11 Q1251.32 1518.11 1250.23 1518.49 Q1249.17 1518.88 1247.88 1519.78 Q1246.62 1520.65 1245.43 1522.46 Q1244.24 1524.26 1243.43 1526.74 Q1243.27 1527.48 1242.56 1527.48 Q1241.79 1527.45 1241.79 1526.8 Q1241.79 1526.26 1242.21 1525.13 Q1242.66 1523.97 1243.56 1522.52 Q1244.5 1521.07 1245.69 1519.78 Q1246.91 1518.46 1248.68 1517.56 Q1250.49 1516.66 1252.42 1516.66 Q1253.29 1516.66 1254.13 1516.85 Q1254.99 1517.01 1256.03 1517.5 Q1257.09 1517.98 1258.02 1519.04 Q1258.96 1520.11 1259.54 1521.65 Q1259.92 1520.91 1260.44 1520.2 Q1260.99 1519.49 1261.82 1518.62 Q1262.69 1517.72 1263.88 1517.21 Q1265.11 1516.66 1266.46 1516.66 Q1267.78 1516.66 1269.07 1517.01 Q1270.36 1517.34 1271.45 1518.4 Q1272.58 1519.43 1272.58 1521.01 Z" fill="#000000" fill-rule="evenodd" fill-opacity="1" /><path clip-path="url(#clip350)" d="M 0 0 M56.8247 752.42 Q57.2755 752.42 58.3383 752.71 L83.5233 759.022 Q89.1271 760.407 93.0563 764.916 Q96.9854 769.393 96.9854 774.481 Q96.9854 777.541 95.3429 779.505 Q93.7326 781.47 91.2527 781.47 Q89.0627 781.47 87.9999 780.31 Q86.9693 779.151 86.9693 777.766 Q86.9693 777.315 87.0982 776.832 Q87.227 776.349 87.7745 775.834 Q88.322 775.318 89.256 775.318 Q90.7696 775.318 91.9613 776.639 Q92.5088 777.283 92.6376 777.895 Q92.7664 778.475 92.7664 779.473 Q93.6682 779.086 94.2801 778.378 Q94.892 777.669 95.1174 776.864 Q95.3751 776.059 95.4395 775.544 Q95.5361 774.996 95.5361 774.481 Q95.5361 770.359 91.3815 767.203 Q90.1255 766.269 88.8695 765.592 Q87.6457 764.884 86.132 764.368 Q84.6505 763.853 83.8454 763.628 Q83.0402 763.37 81.2045 762.919 Q84.1996 765.914 84.1996 769.586 Q84.1996 771.132 83.781 772.516 Q83.3623 773.869 82.4927 775.061 Q81.591 776.252 80.0129 776.961 Q78.4348 777.637 76.3414 777.637 Q74.1192 777.637 71.0919 776.768 Q68.0645 775.898 62.4929 773.805 Q59.3689 772.678 57.8552 772.678 Q57.1145 772.678 56.6636 772.839 Q56.1805 773 56.0195 773.322 Q55.8263 773.644 55.7941 773.837 Q55.7619 773.998 55.7619 774.32 Q55.7619 776.22 57.6942 777.991 Q59.6266 779.763 63.9422 780.987 Q64.7473 781.244 64.9405 781.405 Q65.1338 781.566 65.1338 782.049 Q65.1016 782.855 64.4574 782.855 Q64.1998 782.855 63.2014 782.565 Q62.1708 782.275 60.6572 781.599 Q59.1113 780.89 57.7264 779.924 Q56.3094 778.958 55.311 777.444 Q54.3126 775.898 54.3126 774.127 Q54.3126 771.711 55.8907 770.23 Q57.4366 768.716 59.7232 768.716 Q60.6572 768.716 61.4945 768.974 Q62.2997 769.199 64.4574 770.037 Q73.153 773.418 77.4042 773.418 Q78.4348 773.418 79.3044 773.257 Q80.1417 773.064 80.9791 772.645 Q81.7842 772.227 82.2673 771.389 Q82.7182 770.52 82.7182 769.328 Q82.7182 767.814 82.0096 766.397 Q81.2689 764.948 80.2705 764.046 Q79.2721 763.112 78.4348 762.565 Q77.5652 761.985 77.1144 761.856 L65.2626 758.893 L59.9808 757.573 Q57.1145 756.961 56.406 756.671 Q55.7297 756.285 55.3754 755.608 Q55.0211 754.932 55.0211 754.352 Q55.0211 753.547 55.5042 753 Q55.9873 752.42 56.8247 752.42 Z" fill="#000000" fill-rule="evenodd" fill-opacity="1" /><polyline clip-path="url(#clip352)" style="stroke:#009af9; stroke-width:4; stroke-opacity:1; fill:none" points="
  226.026,456.212 455.447,665.485 684.867,1430.86 914.288,959.624 1143.71,879.499 1373.13,929.957 1602.55,102.833 1831.97,1222.77 2061.39,484.513 2290.81,793.041 
  
  "/>
<path clip-path="url(#clip350)" d="
M1989.74 267.472 L2280.76 267.472 L2280.76 146.512 L1989.74 146.512  Z
  " fill="#ffffff" fill-rule="evenodd" fill-opacity="1"/>
<polyline clip-path="url(#clip350)" style="stroke:#000000; stroke-width:4; stroke-opacity:1; fill:none" points="
  1989.74,267.472 2280.76,267.472 2280.76,146.512 1989.74,146.512 1989.74,267.472 
  "/>
<polyline clip-path="url(#clip350)" style="stroke:#009af9; stroke-width:4; stroke-opacity:1; fill:none" points="
  2013.74,206.992 2157.74,206.992 
  "/>
<path clip-path="url(#clip350)" d="M 0 0 M2195.58 226.68 Q2193.77 231.309 2192.06 232.721 Q2190.35 234.133 2187.48 234.133 L2184.08 234.133 L2184.08 230.568 L2186.58 230.568 Q2188.33 230.568 2189.31 229.735 Q2190.28 228.902 2191.46 225.8 L2192.22 223.855 L2181.74 198.346 L2186.25 198.346 L2194.35 218.624 L2202.46 198.346 L2206.97 198.346 L2195.58 226.68 Z" fill="#000000" fill-rule="evenodd" fill-opacity="1" /><path clip-path="url(#clip350)" d="M 0 0 M2212.85 220.337 L2220.49 220.337 L2220.49 193.971 L2212.18 195.638 L2212.18 191.379 L2220.44 189.712 L2225.12 189.712 L2225.12 220.337 L2232.76 220.337 L2232.76 224.272 L2212.85 224.272 L2212.85 220.337 Z" fill="#000000" fill-rule="evenodd" fill-opacity="1" /></svg>
