<?xml version="1.0" encoding="utf-8"?>
<svg xmlns="http://www.w3.org/2000/svg" xmlns:xlink="http://www.w3.org/1999/xlink" width="600" height="400" viewBox="0 0 2400 1600">
<defs>
  <clipPath id="clip8100">
    <rect x="0" y="0" width="2400" height="1600"/>
  </clipPath>
</defs>
<path clip-path="url(#clip8100)" d="
M0 1600 L2400 1600 L2400 0 L0 0  Z
  " fill="#ffffff" fill-rule="evenodd" fill-opacity="1"/>
<defs>
  <clipPath id="clip8101">
    <rect x="480" y="0" width="1681" height="1600"/>
  </clipPath>
</defs>
<path clip-path="url(#clip8100)" d="
M102.74 1505.26 L2352.76 1505.26 L2352.76 47.2441 L102.74 47.2441  Z
  " fill="#ffffff" fill-rule="evenodd" fill-opacity="1"/>
<defs>
  <clipPath id="clip8102">
    <rect x="102" y="47" width="2251" height="1459"/>
  </clipPath>
</defs>
<polyline clip-path="url(#clip8102)" style="stroke:#000000; stroke-width:2; stroke-opacity:0.1; fill:none" points="
  402.271,1505.26 402.271,47.2441 
  "/>
<polyline clip-path="url(#clip8102)" style="stroke:#000000; stroke-width:2; stroke-opacity:0.1; fill:none" points="
  873.972,1505.26 873.972,47.2441 
  "/>
<polyline clip-path="url(#clip8102)" style="stroke:#000000; stroke-width:2; stroke-opacity:0.1; fill:none" points="
  1345.67,1505.26 1345.67,47.2441 
  "/>
<polyline clip-path="url(#clip8102)" style="stroke:#000000; stroke-width:2; stroke-opacity:0.1; fill:none" points="
  1817.37,1505.26 1817.37,47.2441 
  "/>
<polyline clip-path="url(#clip8102)" style="stroke:#000000; stroke-width:2; stroke-opacity:0.1; fill:none" points="
  2289.08,1505.26 2289.08,47.2441 
  "/>
<polyline clip-path="url(#clip8102)" style="stroke:#000000; stroke-width:2; stroke-opacity:0.1; fill:none" points="
  102.74,1225.12 2352.76,1225.12 
  "/>
<polyline clip-path="url(#clip8102)" style="stroke:#000000; stroke-width:2; stroke-opacity:0.1; fill:none" points="
  102.74,934.988 2352.76,934.988 
  "/>
<polyline clip-path="url(#clip8102)" style="stroke:#000000; stroke-width:2; stroke-opacity:0.1; fill:none" points="
  102.74,644.853 2352.76,644.853 
  "/>
<polyline clip-path="url(#clip8102)" style="stroke:#000000; stroke-width:2; stroke-opacity:0.1; fill:none" points="
  102.74,354.718 2352.76,354.718 
  "/>
<polyline clip-path="url(#clip8102)" style="stroke:#000000; stroke-width:2; stroke-opacity:0.1; fill:none" points="
  102.74,64.583 2352.76,64.583 
  "/>
<polyline clip-path="url(#clip8100)" style="stroke:#000000; stroke-width:4; stroke-opacity:1; fill:none" points="
  102.74,1505.26 2352.76,1505.26 
  "/>
<polyline clip-path="url(#clip8100)" style="stroke:#000000; stroke-width:4; stroke-opacity:1; fill:none" points="
  102.74,1505.26 102.74,47.2441 
  "/>
<polyline clip-path="url(#clip8100)" style="stroke:#000000; stroke-width:4; stroke-opacity:1; fill:none" points="
  402.271,1505.26 402.271,1487.76 
  "/>
<polyline clip-path="url(#clip8100)" style="stroke:#000000; stroke-width:4; stroke-opacity:1; fill:none" points="
  873.972,1505.26 873.972,1487.76 
  "/>
<polyline clip-path="url(#clip8100)" style="stroke:#000000; stroke-width:4; stroke-opacity:1; fill:none" points="
  1345.67,1505.26 1345.67,1487.76 
  "/>
<polyline clip-path="url(#clip8100)" style="stroke:#000000; stroke-width:4; stroke-opacity:1; fill:none" points="
  1817.37,1505.26 1817.37,1487.76 
  "/>
<polyline clip-path="url(#clip8100)" style="stroke:#000000; stroke-width:4; stroke-opacity:1; fill:none" points="
  2289.08,1505.26 2289.08,1487.76 
  "/>
<polyline clip-path="url(#clip8100)" style="stroke:#000000; stroke-width:4; stroke-opacity:1; fill:none" points="
  102.74,1225.12 129.74,1225.12 
  "/>
<polyline clip-path="url(#clip8100)" style="stroke:#000000; stroke-width:4; stroke-opacity:1; fill:none" points="
  102.74,934.988 129.74,934.988 
  "/>
<polyline clip-path="url(#clip8100)" style="stroke:#000000; stroke-width:4; stroke-opacity:1; fill:none" points="
  102.74,644.853 129.74,644.853 
  "/>
<polyline clip-path="url(#clip8100)" style="stroke:#000000; stroke-width:4; stroke-opacity:1; fill:none" points="
  102.74,354.718 129.74,354.718 
  "/>
<polyline clip-path="url(#clip8100)" style="stroke:#000000; stroke-width:4; stroke-opacity:1; fill:none" points="
  102.74,64.583 129.74,64.583 
  "/>
<path clip-path="url(#clip8100)" d="M 0 0 M396.923 1554.8 L413.243 1554.8 L413.243 1558.73 L391.298 1558.73 L391.298 1554.8 Q393.96 1552.04 398.544 1547.41 Q403.15 1542.76 404.331 1541.42 Q406.576 1538.89 407.456 1537.16 Q408.358 1535.4 408.358 1533.71 Q408.358 1530.95 406.414 1529.22 Q404.493 1527.48 401.391 1527.48 Q399.192 1527.48 396.738 1528.25 Q394.308 1529.01 391.53 1530.56 L391.53 1525.84 Q394.354 1524.7 396.808 1524.13 Q399.261 1523.55 401.298 1523.55 Q406.669 1523.55 409.863 1526.23 Q413.058 1528.92 413.058 1533.41 Q413.058 1535.54 412.247 1537.46 Q411.46 1539.36 409.354 1541.95 Q408.775 1542.62 405.673 1545.84 Q402.571 1549.03 396.923 1554.8 Z" fill="#000000" fill-rule="evenodd" fill-opacity="1" /><path clip-path="url(#clip8100)" d="M 0 0 M876.981 1528.25 L865.176 1546.69 L876.981 1546.69 L876.981 1528.25 M875.754 1524.17 L881.634 1524.17 L881.634 1546.69 L886.565 1546.69 L886.565 1550.58 L881.634 1550.58 L881.634 1558.73 L876.981 1558.73 L876.981 1550.58 L861.379 1550.58 L861.379 1546.07 L875.754 1524.17 Z" fill="#000000" fill-rule="evenodd" fill-opacity="1" /><path clip-path="url(#clip8100)" d="M 0 0 M1346.08 1539.59 Q1342.93 1539.59 1341.08 1541.74 Q1339.25 1543.89 1339.25 1547.64 Q1339.25 1551.37 1341.08 1553.55 Q1342.93 1555.7 1346.08 1555.7 Q1349.23 1555.7 1351.06 1553.55 Q1352.91 1551.37 1352.91 1547.64 Q1352.91 1543.89 1351.06 1541.74 Q1349.23 1539.59 1346.08 1539.59 M1355.36 1524.94 L1355.36 1529.19 Q1353.6 1528.36 1351.8 1527.92 Q1350.01 1527.48 1348.25 1527.48 Q1343.62 1527.48 1341.17 1530.61 Q1338.74 1533.73 1338.39 1540.05 Q1339.76 1538.04 1341.82 1536.97 Q1343.88 1535.88 1346.36 1535.88 Q1351.56 1535.88 1354.57 1539.06 Q1357.61 1542.2 1357.61 1547.64 Q1357.61 1552.97 1354.46 1556.19 Q1351.31 1559.4 1346.08 1559.4 Q1340.08 1559.4 1336.91 1554.82 Q1333.74 1550.21 1333.74 1541.49 Q1333.74 1533.29 1337.63 1528.43 Q1341.52 1523.55 1348.07 1523.55 Q1349.83 1523.55 1351.61 1523.89 Q1353.42 1524.24 1355.36 1524.94 Z" fill="#000000" fill-rule="evenodd" fill-opacity="1" /><path clip-path="url(#clip8100)" d="M 0 0 M1817.37 1542.32 Q1814.04 1542.32 1812.12 1544.1 Q1810.22 1545.88 1810.22 1549.01 Q1810.22 1552.13 1812.12 1553.92 Q1814.04 1555.7 1817.37 1555.7 Q1820.71 1555.7 1822.63 1553.92 Q1824.55 1552.11 1824.55 1549.01 Q1824.55 1545.88 1822.63 1544.1 Q1820.73 1542.32 1817.37 1542.32 M1812.7 1540.33 Q1809.69 1539.59 1808 1537.53 Q1806.33 1535.47 1806.33 1532.51 Q1806.33 1528.36 1809.27 1525.95 Q1812.24 1523.55 1817.37 1523.55 Q1822.54 1523.55 1825.48 1525.95 Q1828.42 1528.36 1828.42 1532.51 Q1828.42 1535.47 1826.73 1537.53 Q1825.06 1539.59 1822.07 1540.33 Q1825.45 1541.12 1827.33 1543.41 Q1829.23 1545.7 1829.23 1549.01 Q1829.23 1554.03 1826.15 1556.72 Q1823.09 1559.4 1817.37 1559.4 Q1811.66 1559.4 1808.58 1556.72 Q1805.52 1554.03 1805.52 1549.01 Q1805.52 1545.7 1807.42 1543.41 Q1809.32 1541.12 1812.7 1540.33 M1810.99 1532.94 Q1810.99 1535.63 1812.65 1537.13 Q1814.34 1538.64 1817.37 1538.64 Q1820.38 1538.64 1822.07 1537.13 Q1823.79 1535.63 1823.79 1532.94 Q1823.79 1530.26 1822.07 1528.76 Q1820.38 1527.25 1817.37 1527.25 Q1814.34 1527.25 1812.65 1528.76 Q1810.99 1530.26 1810.99 1532.94 Z" fill="#000000" fill-rule="evenodd" fill-opacity="1" /><path clip-path="url(#clip8100)" d="M 0 0 M2265.95 1554.8 L2273.59 1554.8 L2273.59 1528.43 L2265.28 1530.1 L2265.28 1525.84 L2273.54 1524.17 L2278.22 1524.17 L2278.22 1554.8 L2285.86 1554.8 L2285.86 1558.73 L2265.95 1558.73 L2265.95 1554.8 Z" fill="#000000" fill-rule="evenodd" fill-opacity="1" /><path clip-path="url(#clip8100)" d="M 0 0 M2300.93 1527.25 Q2297.32 1527.25 2295.49 1530.82 Q2293.68 1534.36 2293.68 1541.49 Q2293.68 1548.59 2295.49 1552.16 Q2297.32 1555.7 2300.93 1555.7 Q2304.56 1555.7 2306.37 1552.16 Q2308.2 1548.59 2308.2 1541.49 Q2308.2 1534.36 2306.37 1530.82 Q2304.56 1527.25 2300.93 1527.25 M2300.93 1523.55 Q2306.74 1523.55 2309.79 1528.15 Q2312.87 1532.74 2312.87 1541.49 Q2312.87 1550.21 2309.79 1554.82 Q2306.74 1559.4 2300.93 1559.4 Q2295.12 1559.4 2292.04 1554.82 Q2288.98 1550.21 2288.98 1541.49 Q2288.98 1532.74 2292.04 1528.15 Q2295.12 1523.55 2300.93 1523.55 Z" fill="#000000" fill-rule="evenodd" fill-opacity="1" /><path clip-path="url(#clip8100)" d="M 0 0 M31.4256 1210.92 Q27.8145 1210.92 25.9858 1214.49 Q24.1803 1218.03 24.1803 1225.16 Q24.1803 1232.26 25.9858 1235.83 Q27.8145 1239.37 31.4256 1239.37 Q35.0598 1239.37 36.8654 1235.83 Q38.6941 1232.26 38.6941 1225.16 Q38.6941 1218.03 36.8654 1214.49 Q35.0598 1210.92 31.4256 1210.92 M31.4256 1207.22 Q37.2358 1207.22 40.2913 1211.82 Q43.37 1216.41 43.37 1225.16 Q43.37 1233.88 40.2913 1238.49 Q37.2358 1243.07 31.4256 1243.07 Q25.6154 1243.07 22.5368 1238.49 Q19.4812 1233.88 19.4812 1225.16 Q19.4812 1216.41 22.5368 1211.82 Q25.6154 1207.22 31.4256 1207.22 Z" fill="#000000" fill-rule="evenodd" fill-opacity="1" /><path clip-path="url(#clip8100)" d="M 0 0 M48.4394 1236.52 L53.3236 1236.52 L53.3236 1242.4 L48.4394 1242.4 L48.4394 1236.52 Z" fill="#000000" fill-rule="evenodd" fill-opacity="1" /><path clip-path="url(#clip8100)" d="M 0 0 M62.4208 1238.47 L78.7402 1238.47 L78.7402 1242.4 L56.7958 1242.4 L56.7958 1238.47 Q59.4579 1235.71 64.0412 1231.08 Q68.6476 1226.43 69.8282 1225.09 Q72.0735 1222.57 72.9532 1220.83 Q73.8559 1219.07 73.8559 1217.38 Q73.8559 1214.63 71.9115 1212.89 Q69.9902 1211.15 66.8884 1211.15 Q64.6893 1211.15 62.2356 1211.92 Q59.8051 1212.68 57.0273 1214.23 L57.0273 1209.51 Q59.8514 1208.38 62.3051 1207.8 Q64.7588 1207.22 66.7958 1207.22 Q72.1661 1207.22 75.3606 1209.9 Q78.555 1212.59 78.555 1217.08 Q78.555 1219.21 77.7448 1221.13 Q76.9578 1223.03 74.8513 1225.62 Q74.2726 1226.29 71.1708 1229.51 Q68.0689 1232.7 62.4208 1238.47 Z" fill="#000000" fill-rule="evenodd" fill-opacity="1" /><path clip-path="url(#clip8100)" d="M 0 0 M29.3423 920.787 Q25.7312 920.787 23.9025 924.352 Q22.0969 927.893 22.0969 935.023 Q22.0969 942.129 23.9025 945.694 Q25.7312 949.236 29.3423 949.236 Q32.9765 949.236 34.7821 945.694 Q36.6108 942.129 36.6108 935.023 Q36.6108 927.893 34.7821 924.352 Q32.9765 920.787 29.3423 920.787 M29.3423 917.083 Q35.1524 917.083 38.208 921.689 Q41.2867 926.273 41.2867 935.023 Q41.2867 943.75 38.208 948.356 Q35.1524 952.939 29.3423 952.939 Q23.5321 952.939 20.4534 948.356 Q17.3979 943.75 17.3979 935.023 Q17.3979 926.273 20.4534 921.689 Q23.5321 917.083 29.3423 917.083 Z" fill="#000000" fill-rule="evenodd" fill-opacity="1" /><path clip-path="url(#clip8100)" d="M 0 0 M46.3561 946.388 L51.2403 946.388 L51.2403 952.268 L46.3561 952.268 L46.3561 946.388 Z" fill="#000000" fill-rule="evenodd" fill-opacity="1" /><path clip-path="url(#clip8100)" d="M 0 0 M69.1569 921.782 L57.3514 940.231 L69.1569 940.231 L69.1569 921.782 M67.93 917.708 L73.8096 917.708 L73.8096 940.231 L78.7402 940.231 L78.7402 944.12 L73.8096 944.12 L73.8096 952.268 L69.1569 952.268 L69.1569 944.12 L53.5551 944.12 L53.5551 939.606 L67.93 917.708 Z" fill="#000000" fill-rule="evenodd" fill-opacity="1" /><path clip-path="url(#clip8100)" d="M 0 0 M29.6664 630.652 Q26.0553 630.652 24.2266 634.217 Q22.421 637.758 22.421 644.888 Q22.421 651.994 24.2266 655.559 Q26.0553 659.101 29.6664 659.101 Q33.3006 659.101 35.1061 655.559 Q36.9348 651.994 36.9348 644.888 Q36.9348 637.758 35.1061 634.217 Q33.3006 630.652 29.6664 630.652 M29.6664 626.948 Q35.4765 626.948 38.532 631.554 Q41.6107 636.138 41.6107 644.888 Q41.6107 653.615 38.532 658.221 Q35.4765 662.804 29.6664 662.804 Q23.8562 662.804 20.7775 658.221 Q17.722 653.615 17.722 644.888 Q17.722 636.138 20.7775 631.554 Q23.8562 626.948 29.6664 626.948 Z" fill="#000000" fill-rule="evenodd" fill-opacity="1" /><path clip-path="url(#clip8100)" d="M 0 0 M46.6802 656.253 L51.5644 656.253 L51.5644 662.133 L46.6802 662.133 L46.6802 656.253 Z" fill="#000000" fill-rule="evenodd" fill-opacity="1" /><path clip-path="url(#clip8100)" d="M 0 0 M67.2124 642.99 Q64.0643 642.99 62.2125 645.142 Q60.3838 647.295 60.3838 651.045 Q60.3838 654.772 62.2125 656.948 Q64.0643 659.101 67.2124 659.101 Q70.3606 659.101 72.1893 656.948 Q74.0411 654.772 74.0411 651.045 Q74.0411 647.295 72.1893 645.142 Q70.3606 642.99 67.2124 642.99 M76.4948 628.337 L76.4948 632.596 Q74.7356 631.763 72.93 631.323 Q71.1476 630.883 69.3884 630.883 Q64.7588 630.883 62.3051 634.008 Q59.8745 637.133 59.5273 643.453 Q60.893 641.439 62.9532 640.374 Q65.0134 639.286 67.4902 639.286 Q72.6985 639.286 75.7078 642.457 Q78.7402 645.605 78.7402 651.045 Q78.7402 656.369 75.592 659.587 Q72.4439 662.804 67.2124 662.804 Q61.2171 662.804 58.0458 658.221 Q54.8746 653.615 54.8746 644.888 Q54.8746 636.693 58.7634 631.832 Q62.6523 626.948 69.2032 626.948 Q70.9624 626.948 72.7448 627.295 Q74.5504 627.642 76.4948 628.337 Z" fill="#000000" fill-rule="evenodd" fill-opacity="1" /><path clip-path="url(#clip8100)" d="M 0 0 M29.921 340.517 Q26.3099 340.517 24.4812 344.081 Q22.6756 347.623 22.6756 354.753 Q22.6756 361.859 24.4812 365.424 Q26.3099 368.966 29.921 368.966 Q33.5552 368.966 35.3608 365.424 Q37.1895 361.859 37.1895 354.753 Q37.1895 347.623 35.3608 344.081 Q33.5552 340.517 29.921 340.517 M29.921 336.813 Q35.7311 336.813 38.7867 341.419 Q41.8654 346.003 41.8654 354.753 Q41.8654 363.48 38.7867 368.086 Q35.7311 372.669 29.921 372.669 Q24.1108 372.669 21.0321 368.086 Q17.9766 363.48 17.9766 354.753 Q17.9766 346.003 21.0321 341.419 Q24.1108 336.813 29.921 336.813 Z" fill="#000000" fill-rule="evenodd" fill-opacity="1" /><path clip-path="url(#clip8100)" d="M 0 0 M46.9348 366.118 L51.819 366.118 L51.819 371.998 L46.9348 371.998 L46.9348 366.118 Z" fill="#000000" fill-rule="evenodd" fill-opacity="1" /><path clip-path="url(#clip8100)" d="M 0 0 M66.8884 355.586 Q63.5551 355.586 61.6338 357.368 Q59.7356 359.151 59.7356 362.276 Q59.7356 365.401 61.6338 367.183 Q63.5551 368.966 66.8884 368.966 Q70.2217 368.966 72.143 367.183 Q74.0643 365.378 74.0643 362.276 Q74.0643 359.151 72.143 357.368 Q70.2448 355.586 66.8884 355.586 M62.2125 353.595 Q59.2032 352.855 57.5134 350.794 Q55.8468 348.734 55.8468 345.771 Q55.8468 341.628 58.7866 339.22 Q61.7495 336.813 66.8884 336.813 Q72.0504 336.813 74.9902 339.22 Q77.93 341.628 77.93 345.771 Q77.93 348.734 76.2402 350.794 Q74.5735 352.855 71.5874 353.595 Q74.967 354.382 76.842 356.674 Q78.7402 358.966 78.7402 362.276 Q78.7402 367.299 75.6615 369.984 Q72.6059 372.669 66.8884 372.669 Q61.1708 372.669 58.0921 369.984 Q55.0366 367.299 55.0366 362.276 Q55.0366 358.966 56.9347 356.674 Q58.8329 354.382 62.2125 353.595 M60.4995 346.211 Q60.4995 348.896 62.1662 350.401 Q63.856 351.906 66.8884 351.906 Q69.8976 351.906 71.5874 350.401 Q73.3004 348.896 73.3004 346.211 Q73.3004 343.526 71.5874 342.021 Q69.8976 340.517 66.8884 340.517 Q63.856 340.517 62.1662 342.021 Q60.4995 343.526 60.4995 346.211 Z" fill="#000000" fill-rule="evenodd" fill-opacity="1" /><path clip-path="url(#clip8100)" d="M 0 0 M21.8655 77.9278 L29.5043 77.9278 L29.5043 51.5622 L21.1942 53.2289 L21.1942 48.9697 L29.458 47.303 L34.1339 47.303 L34.1339 77.9278 L41.7728 77.9278 L41.7728 81.863 L21.8655 81.863 L21.8655 77.9278 Z" fill="#000000" fill-rule="evenodd" fill-opacity="1" /><path clip-path="url(#clip8100)" d="M 0 0 M46.8422 75.9834 L51.7264 75.9834 L51.7264 81.863 L46.8422 81.863 L46.8422 75.9834 Z" fill="#000000" fill-rule="evenodd" fill-opacity="1" /><path clip-path="url(#clip8100)" d="M 0 0 M66.7958 50.3817 Q63.1847 50.3817 61.356 53.9465 Q59.5505 57.4881 59.5505 64.6177 Q59.5505 71.7242 61.356 75.289 Q63.1847 78.8306 66.7958 78.8306 Q70.43 78.8306 72.2356 75.289 Q74.0643 71.7242 74.0643 64.6177 Q74.0643 57.4881 72.2356 53.9465 Q70.43 50.3817 66.7958 50.3817 M66.7958 46.678 Q72.6059 46.678 75.6615 51.2845 Q78.7402 55.8678 78.7402 64.6177 Q78.7402 73.3445 75.6615 77.951 Q72.6059 82.5343 66.7958 82.5343 Q60.9856 82.5343 57.9069 77.951 Q54.8514 73.3445 54.8514 64.6177 Q54.8514 55.8678 57.9069 51.2845 Q60.9856 46.678 66.7958 46.678 Z" fill="#000000" fill-rule="evenodd" fill-opacity="1" /><path clip-path="url(#clip8100)" d="M 0 0 M1241.91 1585.57 Q1241.91 1587.37 1240.78 1588.4 Q1239.65 1589.4 1238.37 1589.4 Q1237.14 1589.4 1236.5 1588.69 Q1235.85 1587.98 1235.85 1587.08 Q1235.85 1585.86 1236.76 1584.79 Q1237.66 1583.73 1239.01 1583.51 Q1237.69 1582.67 1235.72 1582.67 Q1234.44 1582.67 1233.31 1583.34 Q1232.21 1584.02 1231.54 1584.89 Q1230.89 1585.76 1230.31 1587.02 Q1229.77 1588.24 1229.54 1588.98 Q1229.35 1589.69 1229.19 1590.46 L1226.93 1599.48 Q1225.84 1603.76 1225.84 1605.28 Q1225.84 1607.14 1226.74 1608.4 Q1227.64 1609.62 1229.44 1609.62 Q1230.15 1609.62 1230.96 1609.43 Q1231.76 1609.21 1232.79 1608.63 Q1233.86 1608.01 1234.79 1607.11 Q1235.76 1606.18 1236.69 1604.6 Q1237.62 1603.02 1238.24 1600.99 Q1238.43 1600.29 1239.07 1600.29 Q1239.88 1600.29 1239.88 1600.93 Q1239.88 1601.48 1239.43 1602.64 Q1239.01 1603.76 1238.08 1605.24 Q1237.17 1606.69 1235.98 1608.01 Q1234.79 1609.3 1233.02 1610.2 Q1231.25 1611.11 1229.32 1611.11 Q1226.55 1611.11 1224.71 1609.62 Q1222.87 1608.14 1222.2 1606.08 Q1222.04 1606.37 1221.81 1606.76 Q1221.59 1607.14 1220.91 1608.01 Q1220.27 1608.85 1219.52 1609.5 Q1218.78 1610.11 1217.62 1610.59 Q1216.5 1611.11 1215.27 1611.11 Q1213.73 1611.11 1212.34 1610.66 Q1210.99 1610.2 1210.02 1609.17 Q1209.06 1608.14 1209.06 1606.73 Q1209.06 1605.15 1210.12 1604.05 Q1211.22 1602.93 1212.7 1602.93 Q1213.63 1602.93 1214.37 1603.47 Q1215.14 1604.02 1215.14 1605.21 Q1215.14 1606.53 1214.24 1607.53 Q1213.34 1608.53 1212.05 1608.79 Q1213.37 1609.62 1215.34 1609.62 Q1217.46 1609.62 1219.14 1607.76 Q1220.81 1605.89 1221.62 1602.76 Q1223.62 1595.26 1224.39 1591.91 Q1225.16 1588.53 1225.16 1587.08 Q1225.16 1585.73 1224.81 1584.79 Q1224.45 1583.86 1223.84 1583.44 Q1223.26 1582.99 1222.71 1582.83 Q1222.2 1582.67 1221.62 1582.67 Q1220.65 1582.67 1219.56 1583.05 Q1218.49 1583.44 1217.21 1584.34 Q1215.95 1585.21 1214.76 1587.02 Q1213.57 1588.82 1212.76 1591.3 Q1212.6 1592.04 1211.89 1592.04 Q1211.12 1592.01 1211.12 1591.36 Q1211.12 1590.82 1211.54 1589.69 Q1211.99 1588.53 1212.89 1587.08 Q1213.82 1585.63 1215.02 1584.34 Q1216.24 1583.02 1218.01 1582.12 Q1219.81 1581.22 1221.75 1581.22 Q1222.62 1581.22 1223.45 1581.41 Q1224.32 1581.57 1225.35 1582.06 Q1226.42 1582.54 1227.35 1583.6 Q1228.28 1584.67 1228.86 1586.21 Q1229.25 1585.47 1229.77 1584.76 Q1230.31 1584.05 1231.15 1583.18 Q1232.02 1582.28 1233.21 1581.77 Q1234.44 1581.22 1235.79 1581.22 Q1237.11 1581.22 1238.4 1581.57 Q1239.69 1581.9 1240.78 1582.96 Q1241.91 1583.99 1241.91 1585.57 Z" fill="#000000" fill-rule="evenodd" fill-opacity="1" /><path clip-path="url(#clip8100)" d="M 0 0 M-47.5176 761.826 Q-47.0667 761.826 -46.0039 762.116 L-20.8189 768.428 Q-15.2151 769.813 -11.286 774.322 Q-7.35689 778.798 -7.35689 783.887 Q-7.35689 786.947 -8.99939 788.911 Q-10.6097 790.876 -13.0895 790.876 Q-15.2795 790.876 -16.3423 789.716 Q-17.3729 788.557 -17.3729 787.172 Q-17.3729 786.721 -17.2441 786.238 Q-17.1153 785.755 -16.5678 785.24 Q-16.0203 784.724 -15.0863 784.724 Q-13.5726 784.724 -12.381 786.045 Q-11.8335 786.689 -11.7047 787.301 Q-11.5759 787.881 -11.5759 788.879 Q-10.6741 788.492 -10.0622 787.784 Q-9.45027 787.075 -9.22483 786.27 Q-8.96718 785.465 -8.90277 784.95 Q-8.80615 784.402 -8.80615 783.887 Q-8.80615 779.765 -12.9607 776.608 Q-14.2167 775.675 -15.4728 774.998 Q-16.6966 774.29 -18.2103 773.774 Q-19.6917 773.259 -20.4969 773.034 Q-21.302 772.776 -23.1378 772.325 Q-20.1426 775.32 -20.1426 778.992 Q-20.1426 780.538 -20.5613 781.922 Q-20.98 783.275 -21.8495 784.467 Q-22.7513 785.658 -24.3294 786.367 Q-25.9075 787.043 -28.0008 787.043 Q-30.223 787.043 -33.2504 786.174 Q-36.2778 785.304 -41.8494 783.211 Q-44.9733 782.083 -46.487 782.083 Q-47.2277 782.083 -47.6786 782.245 Q-48.1617 782.406 -48.3227 782.728 Q-48.516 783.05 -48.5482 783.243 Q-48.5804 783.404 -48.5804 783.726 Q-48.5804 785.626 -46.648 787.397 Q-44.7157 789.169 -40.4001 790.393 Q-39.595 790.65 -39.4017 790.811 Q-39.2085 790.972 -39.2085 791.455 Q-39.2407 792.261 -39.8848 792.261 Q-40.1425 792.261 -41.1408 791.971 Q-42.1714 791.681 -43.6851 791.005 Q-45.231 790.296 -46.6158 789.33 Q-48.0329 788.364 -49.0313 786.85 Q-50.0297 785.304 -50.0297 783.533 Q-50.0297 781.117 -48.4516 779.636 Q-46.9057 778.122 -44.6191 778.122 Q-43.6851 778.122 -42.8477 778.38 Q-42.0426 778.605 -39.8848 779.443 Q-31.1892 782.824 -26.9381 782.824 Q-25.9075 782.824 -25.0379 782.663 Q-24.2006 782.47 -23.3632 782.051 Q-22.5581 781.633 -22.075 780.795 Q-21.6241 779.926 -21.6241 778.734 Q-21.6241 777.22 -22.3326 775.803 Q-23.0733 774.354 -24.0717 773.452 Q-25.0701 772.518 -25.9075 771.971 Q-26.777 771.391 -27.2279 771.262 L-39.0797 768.299 L-44.3614 766.979 Q-47.2277 766.367 -47.9363 766.077 Q-48.6126 765.691 -48.9669 765.014 Q-49.3211 764.338 -49.3211 763.758 Q-49.3211 762.953 -48.838 762.406 Q-48.3549 761.826 -47.5176 761.826 Z" fill="#000000" fill-rule="evenodd" fill-opacity="1" /><polyline clip-path="url(#clip8102)" style="stroke:#009af9; stroke-width:4; stroke-opacity:1; fill:none" points="
  166.42,1464 402.271,723.854 638.121,727.57 873.972,88.5087 1109.82,137.073 1345.67,1206.27 1581.52,460.879 1817.37,1136.72 2053.23,789.386 2289.08,510.591 
  
  "/>
<path clip-path="url(#clip8100)" d="
M1989.74 251.724 L2280.76 251.724 L2280.76 130.764 L1989.74 130.764  Z
  " fill="#ffffff" fill-rule="evenodd" fill-opacity="1"/>
<polyline clip-path="url(#clip8100)" style="stroke:#000000; stroke-width:4; stroke-opacity:1; fill:none" points="
  1989.74,251.724 2280.76,251.724 2280.76,130.764 1989.74,130.764 1989.74,251.724 
  "/>
<polyline clip-path="url(#clip8100)" style="stroke:#009af9; stroke-width:4; stroke-opacity:1; fill:none" points="
  2013.74,191.244 2157.74,191.244 
  "/>
<path clip-path="url(#clip8100)" d="M 0 0 M2195.58 210.931 Q2193.77 215.561 2192.06 216.973 Q2190.35 218.385 2187.48 218.385 L2184.08 218.385 L2184.08 214.82 L2186.58 214.82 Q2188.33 214.82 2189.31 213.987 Q2190.28 213.154 2191.46 210.052 L2192.22 208.107 L2181.74 182.598 L2186.25 182.598 L2194.35 202.876 L2202.46 182.598 L2206.97 182.598 L2195.58 210.931 Z" fill="#000000" fill-rule="evenodd" fill-opacity="1" /><path clip-path="url(#clip8100)" d="M 0 0 M2212.85 204.589 L2220.49 204.589 L2220.49 178.223 L2212.18 179.89 L2212.18 175.631 L2220.44 173.964 L2225.12 173.964 L2225.12 204.589 L2232.76 204.589 L2232.76 208.524 L2212.85 208.524 L2212.85 204.589 Z" fill="#000000" fill-rule="evenodd" fill-opacity="1" /></svg>
