<?xml version="1.0" encoding="utf-8"?>
<svg xmlns="http://www.w3.org/2000/svg" xmlns:xlink="http://www.w3.org/1999/xlink" width="600" height="400" viewBox="0 0 2400 1600">
<defs>
  <clipPath id="clip2600">
    <rect x="0" y="0" width="2400" height="1600"/>
  </clipPath>
</defs>
<path clip-path="url(#clip2600)" d="
M0 1600 L2400 1600 L2400 0 L0 0  Z
  " fill="#ffffff" fill-rule="evenodd" fill-opacity="1"/>
<defs>
  <clipPath id="clip2601">
    <rect x="480" y="0" width="1681" height="1600"/>
  </clipPath>
</defs>
<path clip-path="url(#clip2600)" d="
M179.769 1455.01 L2352.76 1455.01 L2352.76 47.2441 L179.769 47.2441  Z
  " fill="#ffffff" fill-rule="evenodd" fill-opacity="1"/>
<defs>
  <clipPath id="clip2602">
    <rect x="179" y="47" width="2174" height="1409"/>
  </clipPath>
</defs>
<polyline clip-path="url(#clip2602)" style="stroke:#000000; stroke-width:2; stroke-opacity:0.1; fill:none" points="
  469.045,1455.01 469.045,47.2441 
  "/>
<polyline clip-path="url(#clip2602)" style="stroke:#000000; stroke-width:2; stroke-opacity:0.1; fill:none" points="
  924.598,1455.01 924.598,47.2441 
  "/>
<polyline clip-path="url(#clip2602)" style="stroke:#000000; stroke-width:2; stroke-opacity:0.1; fill:none" points="
  1380.15,1455.01 1380.15,47.2441 
  "/>
<polyline clip-path="url(#clip2602)" style="stroke:#000000; stroke-width:2; stroke-opacity:0.1; fill:none" points="
  1835.7,1455.01 1835.7,47.2441 
  "/>
<polyline clip-path="url(#clip2602)" style="stroke:#000000; stroke-width:2; stroke-opacity:0.1; fill:none" points="
  2291.26,1455.01 2291.26,47.2441 
  "/>
<polyline clip-path="url(#clip2602)" style="stroke:#000000; stroke-width:2; stroke-opacity:0.1; fill:none" points="
  179.769,1309.58 2352.76,1309.58 
  "/>
<polyline clip-path="url(#clip2602)" style="stroke:#000000; stroke-width:2; stroke-opacity:0.1; fill:none" points="
  179.769,1116.09 2352.76,1116.09 
  "/>
<polyline clip-path="url(#clip2602)" style="stroke:#000000; stroke-width:2; stroke-opacity:0.1; fill:none" points="
  179.769,922.595 2352.76,922.595 
  "/>
<polyline clip-path="url(#clip2602)" style="stroke:#000000; stroke-width:2; stroke-opacity:0.1; fill:none" points="
  179.769,729.104 2352.76,729.104 
  "/>
<polyline clip-path="url(#clip2602)" style="stroke:#000000; stroke-width:2; stroke-opacity:0.1; fill:none" points="
  179.769,535.613 2352.76,535.613 
  "/>
<polyline clip-path="url(#clip2602)" style="stroke:#000000; stroke-width:2; stroke-opacity:0.1; fill:none" points="
  179.769,342.123 2352.76,342.123 
  "/>
<polyline clip-path="url(#clip2602)" style="stroke:#000000; stroke-width:2; stroke-opacity:0.1; fill:none" points="
  179.769,148.632 2352.76,148.632 
  "/>
<polyline clip-path="url(#clip2600)" style="stroke:#000000; stroke-width:4; stroke-opacity:1; fill:none" points="
  179.769,1455.01 2352.76,1455.01 
  "/>
<polyline clip-path="url(#clip2600)" style="stroke:#000000; stroke-width:4; stroke-opacity:1; fill:none" points="
  179.769,1455.01 179.769,47.2441 
  "/>
<polyline clip-path="url(#clip2600)" style="stroke:#000000; stroke-width:4; stroke-opacity:1; fill:none" points="
  469.045,1455.01 469.045,1438.12 
  "/>
<polyline clip-path="url(#clip2600)" style="stroke:#000000; stroke-width:4; stroke-opacity:1; fill:none" points="
  924.598,1455.01 924.598,1438.12 
  "/>
<polyline clip-path="url(#clip2600)" style="stroke:#000000; stroke-width:4; stroke-opacity:1; fill:none" points="
  1380.15,1455.01 1380.15,1438.12 
  "/>
<polyline clip-path="url(#clip2600)" style="stroke:#000000; stroke-width:4; stroke-opacity:1; fill:none" points="
  1835.7,1455.01 1835.7,1438.12 
  "/>
<polyline clip-path="url(#clip2600)" style="stroke:#000000; stroke-width:4; stroke-opacity:1; fill:none" points="
  2291.26,1455.01 2291.26,1438.12 
  "/>
<polyline clip-path="url(#clip2600)" style="stroke:#000000; stroke-width:4; stroke-opacity:1; fill:none" points="
  179.769,1309.58 205.845,1309.58 
  "/>
<polyline clip-path="url(#clip2600)" style="stroke:#000000; stroke-width:4; stroke-opacity:1; fill:none" points="
  179.769,1116.09 205.845,1116.09 
  "/>
<polyline clip-path="url(#clip2600)" style="stroke:#000000; stroke-width:4; stroke-opacity:1; fill:none" points="
  179.769,922.595 205.845,922.595 
  "/>
<polyline clip-path="url(#clip2600)" style="stroke:#000000; stroke-width:4; stroke-opacity:1; fill:none" points="
  179.769,729.104 205.845,729.104 
  "/>
<polyline clip-path="url(#clip2600)" style="stroke:#000000; stroke-width:4; stroke-opacity:1; fill:none" points="
  179.769,535.613 205.845,535.613 
  "/>
<polyline clip-path="url(#clip2600)" style="stroke:#000000; stroke-width:4; stroke-opacity:1; fill:none" points="
  179.769,342.123 205.845,342.123 
  "/>
<polyline clip-path="url(#clip2600)" style="stroke:#000000; stroke-width:4; stroke-opacity:1; fill:none" points="
  179.769,148.632 205.845,148.632 
  "/>
<path clip-path="url(#clip2600)" d="M 0 0 M463.698 1504.55 L480.017 1504.55 L480.017 1508.49 L458.073 1508.49 L458.073 1504.55 Q460.735 1501.8 465.318 1497.17 Q469.924 1492.51 471.105 1491.17 Q473.35 1488.65 474.23 1486.91 Q475.133 1485.15 475.133 1483.46 Q475.133 1480.71 473.188 1478.97 Q471.267 1477.24 468.165 1477.24 Q465.966 1477.24 463.512 1478 Q461.082 1478.76 458.304 1480.31 L458.304 1475.59 Q461.128 1474.46 463.582 1473.88 Q466.036 1473.3 468.073 1473.3 Q473.443 1473.3 476.637 1475.99 Q479.832 1478.67 479.832 1483.16 Q479.832 1485.29 479.022 1487.21 Q478.235 1489.11 476.128 1491.7 Q475.549 1492.37 472.448 1495.59 Q469.346 1498.79 463.698 1504.55 Z" fill="#000000" fill-rule="evenodd" fill-opacity="1" /><path clip-path="url(#clip2600)" d="M 0 0 M927.607 1478 L915.801 1496.45 L927.607 1496.45 L927.607 1478 M926.38 1473.93 L932.26 1473.93 L932.26 1496.45 L937.19 1496.45 L937.19 1500.34 L932.26 1500.34 L932.26 1508.49 L927.607 1508.49 L927.607 1500.34 L912.005 1500.34 L912.005 1495.82 L926.38 1473.93 Z" fill="#000000" fill-rule="evenodd" fill-opacity="1" /><path clip-path="url(#clip2600)" d="M 0 0 M1380.56 1489.34 Q1377.41 1489.34 1375.56 1491.49 Q1373.73 1493.65 1373.73 1497.4 Q1373.73 1501.12 1375.56 1503.3 Q1377.41 1505.45 1380.56 1505.45 Q1383.7 1505.45 1385.53 1503.3 Q1387.38 1501.12 1387.38 1497.4 Q1387.38 1493.65 1385.53 1491.49 Q1383.7 1489.34 1380.56 1489.34 M1389.84 1474.69 L1389.84 1478.95 Q1388.08 1478.12 1386.27 1477.68 Q1384.49 1477.24 1382.73 1477.24 Q1378.1 1477.24 1375.65 1480.36 Q1373.22 1483.49 1372.87 1489.81 Q1374.24 1487.79 1376.3 1486.73 Q1378.36 1485.64 1380.83 1485.64 Q1386.04 1485.64 1389.05 1488.81 Q1392.08 1491.96 1392.08 1497.4 Q1392.08 1502.72 1388.94 1505.94 Q1385.79 1509.16 1380.56 1509.16 Q1374.56 1509.16 1371.39 1504.57 Q1368.22 1499.97 1368.22 1491.24 Q1368.22 1483.05 1372.11 1478.18 Q1376 1473.3 1382.55 1473.3 Q1384.31 1473.3 1386.09 1473.65 Q1387.89 1474 1389.84 1474.69 Z" fill="#000000" fill-rule="evenodd" fill-opacity="1" /><path clip-path="url(#clip2600)" d="M 0 0 M1835.7 1492.07 Q1832.37 1492.07 1830.45 1493.86 Q1828.55 1495.64 1828.55 1498.76 Q1828.55 1501.89 1830.45 1503.67 Q1832.37 1505.45 1835.7 1505.45 Q1839.04 1505.45 1840.96 1503.67 Q1842.88 1501.87 1842.88 1498.76 Q1842.88 1495.64 1840.96 1493.86 Q1839.06 1492.07 1835.7 1492.07 M1831.03 1490.08 Q1828.02 1489.34 1826.33 1487.28 Q1824.66 1485.22 1824.66 1482.26 Q1824.66 1478.12 1827.6 1475.71 Q1830.56 1473.3 1835.7 1473.3 Q1840.87 1473.3 1843.81 1475.71 Q1846.75 1478.12 1846.75 1482.26 Q1846.75 1485.22 1845.06 1487.28 Q1843.39 1489.34 1840.4 1490.08 Q1843.78 1490.87 1845.66 1493.16 Q1847.56 1495.45 1847.56 1498.76 Q1847.56 1503.79 1844.48 1506.47 Q1841.42 1509.16 1835.7 1509.16 Q1829.99 1509.16 1826.91 1506.47 Q1823.85 1503.79 1823.85 1498.76 Q1823.85 1495.45 1825.75 1493.16 Q1827.65 1490.87 1831.03 1490.08 M1829.31 1482.7 Q1829.31 1485.38 1830.98 1486.89 Q1832.67 1488.39 1835.7 1488.39 Q1838.71 1488.39 1840.4 1486.89 Q1842.12 1485.38 1842.12 1482.7 Q1842.12 1480.01 1840.4 1478.51 Q1838.71 1477 1835.7 1477 Q1832.67 1477 1830.98 1478.51 Q1829.31 1480.01 1829.31 1482.7 Z" fill="#000000" fill-rule="evenodd" fill-opacity="1" /><path clip-path="url(#clip2600)" d="M 0 0 M2268.13 1504.55 L2275.77 1504.55 L2275.77 1478.18 L2267.46 1479.85 L2267.46 1475.59 L2275.72 1473.93 L2280.4 1473.93 L2280.4 1504.55 L2288.04 1504.55 L2288.04 1508.49 L2268.13 1508.49 L2268.13 1504.55 Z" fill="#000000" fill-rule="evenodd" fill-opacity="1" /><path clip-path="url(#clip2600)" d="M 0 0 M2303.11 1477 Q2299.5 1477 2297.67 1480.57 Q2295.86 1484.11 2295.86 1491.24 Q2295.86 1498.35 2297.67 1501.91 Q2299.5 1505.45 2303.11 1505.45 Q2306.74 1505.45 2308.55 1501.91 Q2310.38 1498.35 2310.38 1491.24 Q2310.38 1484.11 2308.55 1480.57 Q2306.74 1477 2303.11 1477 M2303.11 1473.3 Q2308.92 1473.3 2311.97 1477.91 Q2315.05 1482.49 2315.05 1491.24 Q2315.05 1499.97 2311.97 1504.57 Q2308.92 1509.16 2303.11 1509.16 Q2297.3 1509.16 2294.22 1504.57 Q2291.16 1499.97 2291.16 1491.24 Q2291.16 1482.49 2294.22 1477.91 Q2297.3 1473.3 2303.11 1473.3 Z" fill="#000000" fill-rule="evenodd" fill-opacity="1" /><path clip-path="url(#clip2600)" d="M 0 0 M108.454 1295.37 Q104.843 1295.37 103.014 1298.94 Q101.209 1302.48 101.209 1309.61 Q101.209 1316.72 103.014 1320.28 Q104.843 1323.82 108.454 1323.82 Q112.088 1323.82 113.894 1320.28 Q115.723 1316.72 115.723 1309.61 Q115.723 1302.48 113.894 1298.94 Q112.088 1295.37 108.454 1295.37 M108.454 1291.67 Q114.264 1291.67 117.32 1296.28 Q120.399 1300.86 120.399 1309.61 Q120.399 1318.34 117.32 1322.94 Q114.264 1327.53 108.454 1327.53 Q102.644 1327.53 99.5653 1322.94 Q96.5098 1318.34 96.5098 1309.61 Q96.5098 1300.86 99.5653 1296.28 Q102.644 1291.67 108.454 1291.67 Z" fill="#000000" fill-rule="evenodd" fill-opacity="1" /><path clip-path="url(#clip2600)" d="M 0 0 M125.468 1320.98 L130.352 1320.98 L130.352 1326.86 L125.468 1326.86 L125.468 1320.98 Z" fill="#000000" fill-rule="evenodd" fill-opacity="1" /><path clip-path="url(#clip2600)" d="M 0 0 M139.449 1322.92 L155.769 1322.92 L155.769 1326.86 L133.824 1326.86 L133.824 1322.92 Q136.486 1320.17 141.07 1315.54 Q145.676 1310.88 146.857 1309.54 Q149.102 1307.02 149.982 1305.28 Q150.884 1303.52 150.884 1301.83 Q150.884 1299.08 148.94 1297.34 Q147.019 1295.61 143.917 1295.61 Q141.718 1295.61 139.264 1296.37 Q136.834 1297.13 134.056 1298.68 L134.056 1293.96 Q136.88 1292.83 139.334 1292.25 Q141.787 1291.67 143.824 1291.67 Q149.195 1291.67 152.389 1294.36 Q155.584 1297.04 155.584 1301.53 Q155.584 1303.66 154.773 1305.58 Q153.986 1307.48 151.88 1310.07 Q151.301 1310.75 148.199 1313.96 Q145.097 1317.16 139.449 1322.92 Z" fill="#000000" fill-rule="evenodd" fill-opacity="1" /><path clip-path="url(#clip2600)" d="M 0 0 M107.505 1101.88 Q103.894 1101.88 102.065 1105.45 Q100.26 1108.99 100.26 1116.12 Q100.26 1123.23 102.065 1126.79 Q103.894 1130.33 107.505 1130.33 Q111.139 1130.33 112.945 1126.79 Q114.774 1123.23 114.774 1116.12 Q114.774 1108.99 112.945 1105.45 Q111.139 1101.88 107.505 1101.88 M107.505 1098.18 Q113.315 1098.18 116.371 1102.79 Q119.449 1107.37 119.449 1116.12 Q119.449 1124.85 116.371 1129.45 Q113.315 1134.04 107.505 1134.04 Q101.695 1134.04 98.6162 1129.45 Q95.5607 1124.85 95.5607 1116.12 Q95.5607 1107.37 98.6162 1102.79 Q101.695 1098.18 107.505 1098.18 Z" fill="#000000" fill-rule="evenodd" fill-opacity="1" /><path clip-path="url(#clip2600)" d="M 0 0 M124.519 1127.49 L129.403 1127.49 L129.403 1133.37 L124.519 1133.37 L124.519 1127.49 Z" fill="#000000" fill-rule="evenodd" fill-opacity="1" /><path clip-path="url(#clip2600)" d="M 0 0 M148.639 1114.73 Q151.996 1115.45 153.871 1117.72 Q155.769 1119.99 155.769 1123.32 Q155.769 1128.43 152.25 1131.24 Q148.732 1134.04 142.25 1134.04 Q140.074 1134.04 137.76 1133.6 Q135.468 1133.18 133.014 1132.32 L133.014 1127.81 Q134.959 1128.94 137.273 1129.52 Q139.588 1130.1 142.111 1130.1 Q146.509 1130.1 148.801 1128.37 Q151.116 1126.63 151.116 1123.32 Q151.116 1120.26 148.963 1118.55 Q146.834 1116.81 143.014 1116.81 L138.986 1116.81 L138.986 1112.97 L143.199 1112.97 Q146.648 1112.97 148.477 1111.61 Q150.306 1110.22 150.306 1107.62 Q150.306 1104.96 148.408 1103.55 Q146.533 1102.12 143.014 1102.12 Q141.093 1102.12 138.894 1102.53 Q136.695 1102.95 134.056 1103.83 L134.056 1099.66 Q136.718 1098.92 139.033 1098.55 Q141.371 1098.18 143.431 1098.18 Q148.755 1098.18 151.857 1100.61 Q154.959 1103.02 154.959 1107.14 Q154.959 1110.01 153.315 1112 Q151.671 1113.97 148.639 1114.73 Z" fill="#000000" fill-rule="evenodd" fill-opacity="1" /><path clip-path="url(#clip2600)" d="M 0 0 M106.371 908.393 Q102.76 908.393 100.931 911.958 Q99.1255 915.5 99.1255 922.629 Q99.1255 929.736 100.931 933.301 Q102.76 936.842 106.371 936.842 Q110.005 936.842 111.811 933.301 Q113.639 929.736 113.639 922.629 Q113.639 915.5 111.811 911.958 Q110.005 908.393 106.371 908.393 M106.371 904.69 Q112.181 904.69 115.237 909.296 Q118.315 913.879 118.315 922.629 Q118.315 931.356 115.237 935.963 Q112.181 940.546 106.371 940.546 Q100.561 940.546 97.482 935.963 Q94.4264 931.356 94.4264 922.629 Q94.4264 913.879 97.482 909.296 Q100.561 904.69 106.371 904.69 Z" fill="#000000" fill-rule="evenodd" fill-opacity="1" /><path clip-path="url(#clip2600)" d="M 0 0 M123.385 933.995 L128.269 933.995 L128.269 939.875 L123.385 939.875 L123.385 933.995 Z" fill="#000000" fill-rule="evenodd" fill-opacity="1" /><path clip-path="url(#clip2600)" d="M 0 0 M146.185 909.389 L134.38 927.838 L146.185 927.838 L146.185 909.389 M144.959 905.315 L150.838 905.315 L150.838 927.838 L155.769 927.838 L155.769 931.727 L150.838 931.727 L150.838 939.875 L146.185 939.875 L146.185 931.727 L130.584 931.727 L130.584 927.213 L144.959 905.315 Z" fill="#000000" fill-rule="evenodd" fill-opacity="1" /><path clip-path="url(#clip2600)" d="M 0 0 M107.852 714.903 Q104.241 714.903 102.413 718.468 Q100.607 722.009 100.607 729.139 Q100.607 736.245 102.413 739.81 Q104.241 743.352 107.852 743.352 Q111.487 743.352 113.292 739.81 Q115.121 736.245 115.121 729.139 Q115.121 722.009 113.292 718.468 Q111.487 714.903 107.852 714.903 M107.852 711.199 Q113.662 711.199 116.718 715.805 Q119.797 720.389 119.797 729.139 Q119.797 737.866 116.718 742.472 Q113.662 747.055 107.852 747.055 Q102.042 747.055 98.9634 742.472 Q95.9079 737.866 95.9079 729.139 Q95.9079 720.389 98.9634 715.805 Q102.042 711.199 107.852 711.199 Z" fill="#000000" fill-rule="evenodd" fill-opacity="1" /><path clip-path="url(#clip2600)" d="M 0 0 M124.866 740.504 L129.75 740.504 L129.75 746.384 L124.866 746.384 L124.866 740.504 Z" fill="#000000" fill-rule="evenodd" fill-opacity="1" /><path clip-path="url(#clip2600)" d="M 0 0 M134.866 711.824 L153.222 711.824 L153.222 715.759 L139.148 715.759 L139.148 724.231 Q140.167 723.884 141.185 723.722 Q142.204 723.537 143.222 723.537 Q149.009 723.537 152.389 726.708 Q155.769 729.879 155.769 735.296 Q155.769 740.875 152.296 743.977 Q148.824 747.055 142.505 747.055 Q140.329 747.055 138.06 746.685 Q135.815 746.315 133.408 745.574 L133.408 740.875 Q135.491 742.009 137.713 742.565 Q139.935 743.12 142.412 743.12 Q146.417 743.12 148.755 741.014 Q151.093 738.907 151.093 735.296 Q151.093 731.685 148.755 729.579 Q146.417 727.472 142.412 727.472 Q140.537 727.472 138.662 727.889 Q136.81 728.305 134.866 729.185 L134.866 711.824 Z" fill="#000000" fill-rule="evenodd" fill-opacity="1" /><path clip-path="url(#clip2600)" d="M 0 0 M106.695 521.412 Q103.084 521.412 101.255 524.977 Q99.4496 528.518 99.4496 535.648 Q99.4496 542.755 101.255 546.319 Q103.084 549.861 106.695 549.861 Q110.329 549.861 112.135 546.319 Q113.963 542.755 113.963 535.648 Q113.963 528.518 112.135 524.977 Q110.329 521.412 106.695 521.412 M106.695 517.708 Q112.505 517.708 115.561 522.315 Q118.639 526.898 118.639 535.648 Q118.639 544.375 115.561 548.981 Q112.505 553.565 106.695 553.565 Q100.885 553.565 97.806 548.981 Q94.7505 544.375 94.7505 535.648 Q94.7505 526.898 97.806 522.315 Q100.885 517.708 106.695 517.708 Z" fill="#000000" fill-rule="evenodd" fill-opacity="1" /><path clip-path="url(#clip2600)" d="M 0 0 M123.709 547.014 L128.593 547.014 L128.593 552.893 L123.709 552.893 L123.709 547.014 Z" fill="#000000" fill-rule="evenodd" fill-opacity="1" /><path clip-path="url(#clip2600)" d="M 0 0 M144.241 533.75 Q141.093 533.75 139.241 535.903 Q137.412 538.055 137.412 541.805 Q137.412 545.532 139.241 547.708 Q141.093 549.861 144.241 549.861 Q147.389 549.861 149.218 547.708 Q151.07 545.532 151.07 541.805 Q151.07 538.055 149.218 535.903 Q147.389 533.75 144.241 533.75 M153.523 519.097 L153.523 523.356 Q151.764 522.523 149.959 522.083 Q148.176 521.644 146.417 521.644 Q141.787 521.644 139.334 524.768 Q136.903 527.893 136.556 534.213 Q137.922 532.199 139.982 531.134 Q142.042 530.046 144.519 530.046 Q149.727 530.046 152.736 533.218 Q155.769 536.366 155.769 541.805 Q155.769 547.129 152.621 550.347 Q149.472 553.565 144.241 553.565 Q138.246 553.565 135.074 548.981 Q131.903 544.375 131.903 535.648 Q131.903 527.454 135.792 522.593 Q139.681 517.708 146.232 517.708 Q147.991 517.708 149.773 518.056 Q151.579 518.403 153.523 519.097 Z" fill="#000000" fill-rule="evenodd" fill-opacity="1" /><path clip-path="url(#clip2600)" d="M 0 0 M107.76 327.921 Q104.149 327.921 102.32 331.486 Q100.514 335.028 100.514 342.157 Q100.514 349.264 102.32 352.829 Q104.149 356.37 107.76 356.37 Q111.394 356.37 113.199 352.829 Q115.028 349.264 115.028 342.157 Q115.028 335.028 113.199 331.486 Q111.394 327.921 107.76 327.921 M107.76 324.218 Q113.57 324.218 116.625 328.824 Q119.704 333.407 119.704 342.157 Q119.704 350.884 116.625 355.491 Q113.57 360.074 107.76 360.074 Q101.95 360.074 98.8709 355.491 Q95.8153 350.884 95.8153 342.157 Q95.8153 333.407 98.8709 328.824 Q101.95 324.218 107.76 324.218 Z" fill="#000000" fill-rule="evenodd" fill-opacity="1" /><path clip-path="url(#clip2600)" d="M 0 0 M124.773 353.523 L129.658 353.523 L129.658 359.403 L124.773 359.403 L124.773 353.523 Z" fill="#000000" fill-rule="evenodd" fill-opacity="1" /><path clip-path="url(#clip2600)" d="M 0 0 M133.547 324.843 L155.769 324.843 L155.769 326.833 L143.222 359.403 L138.338 359.403 L150.144 328.778 L133.547 328.778 L133.547 324.843 Z" fill="#000000" fill-rule="evenodd" fill-opacity="1" /><path clip-path="url(#clip2600)" d="M 0 0 M106.95 134.431 Q103.338 134.431 101.51 137.995 Q99.7042 141.537 99.7042 148.667 Q99.7042 155.773 101.51 159.338 Q103.338 162.88 106.95 162.88 Q110.584 162.88 112.389 159.338 Q114.218 155.773 114.218 148.667 Q114.218 141.537 112.389 137.995 Q110.584 134.431 106.95 134.431 M106.95 130.727 Q112.76 130.727 115.815 135.333 Q118.894 139.917 118.894 148.667 Q118.894 157.393 115.815 162 Q112.76 166.583 106.95 166.583 Q101.139 166.583 98.0607 162 Q95.0051 157.393 95.0051 148.667 Q95.0051 139.917 98.0607 135.333 Q101.139 130.727 106.95 130.727 Z" fill="#000000" fill-rule="evenodd" fill-opacity="1" /><path clip-path="url(#clip2600)" d="M 0 0 M123.963 160.032 L128.848 160.032 L128.848 165.912 L123.963 165.912 L123.963 160.032 Z" fill="#000000" fill-rule="evenodd" fill-opacity="1" /><path clip-path="url(#clip2600)" d="M 0 0 M143.917 149.5 Q140.584 149.5 138.662 151.282 Q136.764 153.065 136.764 156.19 Q136.764 159.315 138.662 161.097 Q140.584 162.88 143.917 162.88 Q147.25 162.88 149.172 161.097 Q151.093 159.292 151.093 156.19 Q151.093 153.065 149.172 151.282 Q147.273 149.5 143.917 149.5 M139.241 147.509 Q136.232 146.769 134.542 144.708 Q132.875 142.648 132.875 139.685 Q132.875 135.542 135.815 133.134 Q138.778 130.727 143.917 130.727 Q149.079 130.727 152.019 133.134 Q154.959 135.542 154.959 139.685 Q154.959 142.648 153.269 144.708 Q151.602 146.769 148.616 147.509 Q151.996 148.296 153.871 150.588 Q155.769 152.88 155.769 156.19 Q155.769 161.213 152.69 163.898 Q149.634 166.583 143.917 166.583 Q138.199 166.583 135.121 163.898 Q132.065 161.213 132.065 156.19 Q132.065 152.88 133.963 150.588 Q135.861 148.296 139.241 147.509 M137.528 140.125 Q137.528 142.81 139.195 144.315 Q140.885 145.819 143.917 145.819 Q146.926 145.819 148.616 144.315 Q150.329 142.81 150.329 140.125 Q150.329 137.44 148.616 135.935 Q146.926 134.431 143.917 134.431 Q140.885 134.431 139.195 135.935 Q137.528 137.44 137.528 140.125 Z" fill="#000000" fill-rule="evenodd" fill-opacity="1" /><path clip-path="url(#clip2600)" d="M 0 0 M1280.42 1535.32 Q1280.42 1537.12 1279.3 1538.15 Q1278.17 1539.15 1276.88 1539.15 Q1275.66 1539.15 1275.01 1538.44 Q1274.37 1537.74 1274.37 1536.83 Q1274.37 1535.61 1275.27 1534.55 Q1276.17 1533.48 1277.52 1533.26 Q1276.2 1532.42 1274.24 1532.42 Q1272.95 1532.42 1271.82 1533.1 Q1270.73 1533.77 1270.05 1534.64 Q1269.41 1535.51 1268.83 1536.77 Q1268.28 1537.99 1268.06 1538.73 Q1267.86 1539.44 1267.7 1540.22 L1265.45 1549.23 Q1264.35 1553.52 1264.35 1555.03 Q1264.35 1556.9 1265.25 1558.15 Q1266.16 1559.38 1267.96 1559.38 Q1268.67 1559.38 1269.47 1559.19 Q1270.28 1558.96 1271.31 1558.38 Q1272.37 1557.77 1273.3 1556.87 Q1274.27 1555.93 1275.2 1554.35 Q1276.14 1552.78 1276.75 1550.75 Q1276.94 1550.04 1277.59 1550.04 Q1278.39 1550.04 1278.39 1550.68 Q1278.39 1551.23 1277.94 1552.39 Q1277.52 1553.52 1276.59 1555 Q1275.69 1556.45 1274.5 1557.77 Q1273.3 1559.06 1271.53 1559.96 Q1269.76 1560.86 1267.83 1560.86 Q1265.06 1560.86 1263.22 1559.38 Q1261.39 1557.9 1260.71 1555.84 Q1260.55 1556.13 1260.33 1556.51 Q1260.1 1556.9 1259.42 1557.77 Q1258.78 1558.61 1258.04 1559.25 Q1257.3 1559.86 1256.14 1560.34 Q1255.01 1560.86 1253.79 1560.86 Q1252.24 1560.86 1250.86 1560.41 Q1249.5 1559.96 1248.54 1558.93 Q1247.57 1557.9 1247.57 1556.48 Q1247.57 1554.9 1248.64 1553.81 Q1249.73 1552.68 1251.21 1552.68 Q1252.15 1552.68 1252.89 1553.23 Q1253.66 1553.77 1253.66 1554.97 Q1253.66 1556.29 1252.76 1557.29 Q1251.86 1558.28 1250.57 1558.54 Q1251.89 1559.38 1253.85 1559.38 Q1255.98 1559.38 1257.65 1557.51 Q1259.33 1555.64 1260.13 1552.52 Q1262.13 1545.01 1262.9 1541.67 Q1263.68 1538.28 1263.68 1536.83 Q1263.68 1535.48 1263.32 1534.55 Q1262.97 1533.61 1262.35 1533.2 Q1261.78 1532.74 1261.23 1532.58 Q1260.71 1532.42 1260.13 1532.42 Q1259.17 1532.42 1258.07 1532.81 Q1257.01 1533.2 1255.72 1534.1 Q1254.46 1534.97 1253.27 1536.77 Q1252.08 1538.57 1251.28 1541.05 Q1251.11 1541.79 1250.41 1541.79 Q1249.63 1541.76 1249.63 1541.12 Q1249.63 1540.57 1250.05 1539.44 Q1250.5 1538.28 1251.4 1536.83 Q1252.34 1535.39 1253.53 1534.1 Q1254.75 1532.78 1256.53 1531.87 Q1258.33 1530.97 1260.26 1530.97 Q1261.13 1530.97 1261.97 1531.17 Q1262.84 1531.33 1263.87 1531.81 Q1264.93 1532.29 1265.87 1533.36 Q1266.8 1534.42 1267.38 1535.96 Q1267.77 1535.22 1268.28 1534.52 Q1268.83 1533.81 1269.67 1532.94 Q1270.54 1532.04 1271.73 1531.52 Q1272.95 1530.97 1274.3 1530.97 Q1275.62 1530.97 1276.91 1531.33 Q1278.2 1531.65 1279.3 1532.71 Q1280.42 1533.74 1280.42 1535.32 Z" fill="#000000" fill-rule="evenodd" fill-opacity="1" /><path clip-path="url(#clip2600)" d="M 0 0 M29.5109 736.703 Q29.9618 736.703 31.0246 736.993 L56.2096 743.305 Q61.8134 744.69 65.7425 749.199 Q69.6716 753.675 69.6716 758.764 Q69.6716 761.823 68.0291 763.788 Q66.4189 765.753 63.939 765.753 Q61.749 765.753 60.6862 764.593 Q59.6556 763.434 59.6556 762.049 Q59.6556 761.598 59.7844 761.115 Q59.9133 760.632 60.4608 760.117 Q61.0083 759.601 61.9422 759.601 Q63.4559 759.601 64.6475 760.922 Q65.195 761.566 65.3239 762.178 Q65.4527 762.757 65.4527 763.756 Q66.3544 763.369 66.9664 762.661 Q67.5783 761.952 67.8037 761.147 Q68.0614 760.342 68.1258 759.827 Q68.2224 759.279 68.2224 758.764 Q68.2224 754.642 64.0678 751.485 Q62.8118 750.551 61.5558 749.875 Q60.3319 749.167 58.8183 748.651 Q57.3368 748.136 56.5317 747.911 Q55.7265 747.653 53.8908 747.202 Q56.8859 750.197 56.8859 753.869 Q56.8859 755.414 56.4672 756.799 Q56.0486 758.152 55.179 759.344 Q54.2772 760.535 52.6992 761.244 Q51.1211 761.92 49.0277 761.92 Q46.8055 761.92 43.7781 761.05 Q40.7508 760.181 35.1792 758.088 Q32.0552 756.96 30.5415 756.96 Q29.8008 756.96 29.3499 757.121 Q28.8668 757.282 28.7058 757.604 Q28.5126 757.927 28.4803 758.12 Q28.4481 758.281 28.4481 758.603 Q28.4481 760.503 30.3805 762.274 Q32.3128 764.046 36.6284 765.269 Q37.4336 765.527 37.6268 765.688 Q37.82 765.849 37.82 766.332 Q37.7878 767.137 37.1437 767.137 Q36.8861 767.137 35.8877 766.848 Q34.8571 766.558 33.3434 765.881 Q31.7976 765.173 30.4127 764.207 Q28.9956 763.24 27.9973 761.727 Q26.9989 760.181 26.9989 758.41 Q26.9989 755.994 28.577 754.513 Q30.1228 752.999 32.4095 752.999 Q33.3434 752.999 34.1808 753.257 Q34.9859 753.482 37.1437 754.319 Q45.8393 757.701 50.0905 757.701 Q51.1211 757.701 51.9906 757.54 Q52.828 757.347 53.6653 756.928 Q54.4705 756.509 54.9536 755.672 Q55.4044 754.803 55.4044 753.611 Q55.4044 752.097 54.6959 750.68 Q53.9552 749.231 52.9568 748.329 Q51.9584 747.395 51.1211 746.848 Q50.2515 746.268 49.8006 746.139 L37.9489 743.176 L32.6671 741.856 Q29.8008 741.244 29.0923 740.954 Q28.4159 740.568 28.0617 739.891 Q27.7074 739.215 27.7074 738.635 Q27.7074 737.83 28.1905 737.283 Q28.6736 736.703 29.5109 736.703 Z" fill="#000000" fill-rule="evenodd" fill-opacity="1" /><polyline clip-path="url(#clip2602)" style="stroke:#009af9; stroke-width:4; stroke-opacity:1; fill:none" points="
  241.268,872.502 469.045,291.454 696.821,1077.68 924.598,87.0866 1152.37,775.406 1380.15,1415.17 1607.93,899.277 1835.7,588.685 2063.48,541.739 2291.26,646.295 
  
  "/>
<path clip-path="url(#clip2600)" d="
M1989.74 251.724 L2280.76 251.724 L2280.76 130.764 L1989.74 130.764  Z
  " fill="#ffffff" fill-rule="evenodd" fill-opacity="1"/>
<polyline clip-path="url(#clip2600)" style="stroke:#000000; stroke-width:4; stroke-opacity:1; fill:none" points="
  1989.74,251.724 2280.76,251.724 2280.76,130.764 1989.74,130.764 1989.74,251.724 
  "/>
<polyline clip-path="url(#clip2600)" style="stroke:#009af9; stroke-width:4; stroke-opacity:1; fill:none" points="
  2013.74,191.244 2157.74,191.244 
  "/>
<path clip-path="url(#clip2600)" d="M 0 0 M2195.58 210.931 Q2193.77 215.561 2192.06 216.973 Q2190.35 218.385 2187.48 218.385 L2184.08 218.385 L2184.08 214.82 L2186.58 214.82 Q2188.33 214.82 2189.31 213.987 Q2190.28 213.154 2191.46 210.052 L2192.22 208.107 L2181.74 182.598 L2186.25 182.598 L2194.35 202.876 L2202.46 182.598 L2206.97 182.598 L2195.58 210.931 Z" fill="#000000" fill-rule="evenodd" fill-opacity="1" /><path clip-path="url(#clip2600)" d="M 0 0 M2212.85 204.589 L2220.49 204.589 L2220.49 178.223 L2212.18 179.89 L2212.18 175.631 L2220.44 173.964 L2225.12 173.964 L2225.12 204.589 L2232.76 204.589 L2232.76 208.524 L2212.85 208.524 L2212.85 204.589 Z" fill="#000000" fill-rule="evenodd" fill-opacity="1" /></svg>
