<?xml version="1.0" encoding="utf-8"?>
<svg xmlns="http://www.w3.org/2000/svg" xmlns:xlink="http://www.w3.org/1999/xlink" width="600" height="400" viewBox="0 0 2400 1600">
<defs>
  <clipPath id="clip0700">
    <rect x="0" y="0" width="2400" height="1600"/>
  </clipPath>
</defs>
<path clip-path="url(#clip0700)" d="
M0 1600 L2400 1600 L2400 0 L0 0  Z
  " fill="#ffffff" fill-rule="evenodd" fill-opacity="1"/>
<defs>
  <clipPath id="clip0701">
    <rect x="480" y="0" width="1681" height="1600"/>
  </clipPath>
</defs>
<path clip-path="url(#clip0700)" d="
M253.198 1406.36 L2352.76 1406.36 L2352.76 47.2441 L253.198 47.2441  Z
  " fill="#ffffff" fill-rule="evenodd" fill-opacity="1"/>
<defs>
  <clipPath id="clip0702">
    <rect x="253" y="47" width="2101" height="1360"/>
  </clipPath>
</defs>
<polyline clip-path="url(#clip0702)" style="stroke:#000000; stroke-width:2; stroke-opacity:0.1; fill:none" points="
  532.699,1406.36 532.699,47.2441 
  "/>
<polyline clip-path="url(#clip0702)" style="stroke:#000000; stroke-width:2; stroke-opacity:0.1; fill:none" points="
  972.858,1406.36 972.858,47.2441 
  "/>
<polyline clip-path="url(#clip0702)" style="stroke:#000000; stroke-width:2; stroke-opacity:0.1; fill:none" points="
  1413.02,1406.36 1413.02,47.2441 
  "/>
<polyline clip-path="url(#clip0702)" style="stroke:#000000; stroke-width:2; stroke-opacity:0.1; fill:none" points="
  1853.18,1406.36 1853.18,47.2441 
  "/>
<polyline clip-path="url(#clip0702)" style="stroke:#000000; stroke-width:2; stroke-opacity:0.1; fill:none" points="
  2293.33,1406.36 2293.33,47.2441 
  "/>
<polyline clip-path="url(#clip0702)" style="stroke:#000000; stroke-width:2; stroke-opacity:0.1; fill:none" points="
  253.198,1372.56 2352.76,1372.56 
  "/>
<polyline clip-path="url(#clip0702)" style="stroke:#000000; stroke-width:2; stroke-opacity:0.1; fill:none" points="
  253.198,1046.4 2352.76,1046.4 
  "/>
<polyline clip-path="url(#clip0702)" style="stroke:#000000; stroke-width:2; stroke-opacity:0.1; fill:none" points="
  253.198,720.236 2352.76,720.236 
  "/>
<polyline clip-path="url(#clip0702)" style="stroke:#000000; stroke-width:2; stroke-opacity:0.1; fill:none" points="
  253.198,394.074 2352.76,394.074 
  "/>
<polyline clip-path="url(#clip0702)" style="stroke:#000000; stroke-width:2; stroke-opacity:0.1; fill:none" points="
  253.198,67.9127 2352.76,67.9127 
  "/>
<polyline clip-path="url(#clip0700)" style="stroke:#000000; stroke-width:4; stroke-opacity:1; fill:none" points="
  253.198,1406.36 2352.76,1406.36 
  "/>
<polyline clip-path="url(#clip0700)" style="stroke:#000000; stroke-width:4; stroke-opacity:1; fill:none" points="
  253.198,1406.36 253.198,47.2441 
  "/>
<polyline clip-path="url(#clip0700)" style="stroke:#000000; stroke-width:4; stroke-opacity:1; fill:none" points="
  532.699,1406.36 532.699,1390.05 
  "/>
<polyline clip-path="url(#clip0700)" style="stroke:#000000; stroke-width:4; stroke-opacity:1; fill:none" points="
  972.858,1406.36 972.858,1390.05 
  "/>
<polyline clip-path="url(#clip0700)" style="stroke:#000000; stroke-width:4; stroke-opacity:1; fill:none" points="
  1413.02,1406.36 1413.02,1390.05 
  "/>
<polyline clip-path="url(#clip0700)" style="stroke:#000000; stroke-width:4; stroke-opacity:1; fill:none" points="
  1853.18,1406.36 1853.18,1390.05 
  "/>
<polyline clip-path="url(#clip0700)" style="stroke:#000000; stroke-width:4; stroke-opacity:1; fill:none" points="
  2293.33,1406.36 2293.33,1390.05 
  "/>
<polyline clip-path="url(#clip0700)" style="stroke:#000000; stroke-width:4; stroke-opacity:1; fill:none" points="
  253.198,1372.56 278.393,1372.56 
  "/>
<polyline clip-path="url(#clip0700)" style="stroke:#000000; stroke-width:4; stroke-opacity:1; fill:none" points="
  253.198,1046.4 278.393,1046.4 
  "/>
<polyline clip-path="url(#clip0700)" style="stroke:#000000; stroke-width:4; stroke-opacity:1; fill:none" points="
  253.198,720.236 278.393,720.236 
  "/>
<polyline clip-path="url(#clip0700)" style="stroke:#000000; stroke-width:4; stroke-opacity:1; fill:none" points="
  253.198,394.074 278.393,394.074 
  "/>
<polyline clip-path="url(#clip0700)" style="stroke:#000000; stroke-width:4; stroke-opacity:1; fill:none" points="
  253.198,67.9127 278.393,67.9127 
  "/>
<path clip-path="url(#clip0700)" d="M 0 0 M527.352 1455.9 L543.671 1455.9 L543.671 1459.83 L521.727 1459.83 L521.727 1455.9 Q524.389 1453.14 528.972 1448.51 Q533.579 1443.86 534.759 1442.52 Q537.005 1440 537.884 1438.26 Q538.787 1436.5 538.787 1434.81 Q538.787 1432.06 536.843 1430.32 Q534.921 1428.58 531.82 1428.58 Q529.62 1428.58 527.167 1429.35 Q524.736 1430.11 521.958 1431.66 L521.958 1426.94 Q524.783 1425.81 527.236 1425.23 Q529.69 1424.65 531.727 1424.65 Q537.097 1424.65 540.292 1427.33 Q543.486 1430.02 543.486 1434.51 Q543.486 1436.64 542.676 1438.56 Q541.889 1440.46 539.782 1443.05 Q539.204 1443.72 536.102 1446.94 Q533 1450.13 527.352 1455.9 Z" fill="#000000" fill-rule="evenodd" fill-opacity="1" /><path clip-path="url(#clip0700)" d="M 0 0 M975.867 1429.35 L964.062 1447.8 L975.867 1447.8 L975.867 1429.35 M974.64 1425.27 L980.52 1425.27 L980.52 1447.8 L985.451 1447.8 L985.451 1451.68 L980.52 1451.68 L980.52 1459.83 L975.867 1459.83 L975.867 1451.68 L960.265 1451.68 L960.265 1447.17 L974.64 1425.27 Z" fill="#000000" fill-rule="evenodd" fill-opacity="1" /><path clip-path="url(#clip0700)" d="M 0 0 M1413.42 1440.69 Q1410.27 1440.69 1408.42 1442.84 Q1406.59 1445 1406.59 1448.75 Q1406.59 1452.47 1408.42 1454.65 Q1410.27 1456.8 1413.42 1456.8 Q1416.57 1456.8 1418.4 1454.65 Q1420.25 1452.47 1420.25 1448.75 Q1420.25 1445 1418.4 1442.84 Q1416.57 1440.69 1413.42 1440.69 M1422.7 1426.04 L1422.7 1430.3 Q1420.95 1429.46 1419.14 1429.02 Q1417.36 1428.58 1415.6 1428.58 Q1410.97 1428.58 1408.51 1431.71 Q1406.08 1434.83 1405.74 1441.15 Q1407.1 1439.14 1409.16 1438.07 Q1411.22 1436.99 1413.7 1436.99 Q1418.91 1436.99 1421.92 1440.16 Q1424.95 1443.31 1424.95 1448.75 Q1424.95 1454.07 1421.8 1457.29 Q1418.65 1460.5 1413.42 1460.5 Q1407.43 1460.5 1404.26 1455.92 Q1401.08 1451.31 1401.08 1442.59 Q1401.08 1434.39 1404.97 1429.53 Q1408.86 1424.65 1415.41 1424.65 Q1417.17 1424.65 1418.95 1425 Q1420.76 1425.34 1422.7 1426.04 Z" fill="#000000" fill-rule="evenodd" fill-opacity="1" /><path clip-path="url(#clip0700)" d="M 0 0 M1853.18 1443.42 Q1849.84 1443.42 1847.92 1445.2 Q1846.02 1446.99 1846.02 1450.11 Q1846.02 1453.24 1847.92 1455.02 Q1849.84 1456.8 1853.18 1456.8 Q1856.51 1456.8 1858.43 1455.02 Q1860.35 1453.21 1860.35 1450.11 Q1860.35 1446.99 1858.43 1445.2 Q1856.53 1443.42 1853.18 1443.42 M1848.5 1441.43 Q1845.49 1440.69 1843.8 1438.63 Q1842.13 1436.57 1842.13 1433.61 Q1842.13 1429.46 1845.07 1427.06 Q1848.04 1424.65 1853.18 1424.65 Q1858.34 1424.65 1861.28 1427.06 Q1864.22 1429.46 1864.22 1433.61 Q1864.22 1436.57 1862.53 1438.63 Q1860.86 1440.69 1857.87 1441.43 Q1861.25 1442.22 1863.13 1444.51 Q1865.03 1446.8 1865.03 1450.11 Q1865.03 1455.13 1861.95 1457.82 Q1858.89 1460.5 1853.18 1460.5 Q1847.46 1460.5 1844.38 1457.82 Q1841.32 1455.13 1841.32 1450.11 Q1841.32 1446.8 1843.22 1444.51 Q1845.12 1442.22 1848.5 1441.43 M1846.79 1434.05 Q1846.79 1436.73 1848.45 1438.24 Q1850.14 1439.74 1853.18 1439.74 Q1856.18 1439.74 1857.87 1438.24 Q1859.59 1436.73 1859.59 1434.05 Q1859.59 1431.36 1857.87 1429.86 Q1856.18 1428.35 1853.18 1428.35 Q1850.14 1428.35 1848.45 1429.86 Q1846.79 1431.36 1846.79 1434.05 Z" fill="#000000" fill-rule="evenodd" fill-opacity="1" /><path clip-path="url(#clip0700)" d="M 0 0 M2270.21 1455.9 L2277.85 1455.9 L2277.85 1429.53 L2269.54 1431.2 L2269.54 1426.94 L2277.8 1425.27 L2282.48 1425.27 L2282.48 1455.9 L2290.12 1455.9 L2290.12 1459.83 L2270.21 1459.83 L2270.21 1455.9 Z" fill="#000000" fill-rule="evenodd" fill-opacity="1" /><path clip-path="url(#clip0700)" d="M 0 0 M2305.19 1428.35 Q2301.58 1428.35 2299.75 1431.92 Q2297.94 1435.46 2297.94 1442.59 Q2297.94 1449.69 2299.75 1453.26 Q2301.58 1456.8 2305.19 1456.8 Q2308.82 1456.8 2310.63 1453.26 Q2312.45 1449.69 2312.45 1442.59 Q2312.45 1435.46 2310.63 1431.92 Q2308.82 1428.35 2305.19 1428.35 M2305.19 1424.65 Q2311 1424.65 2314.05 1429.25 Q2317.13 1433.84 2317.13 1442.59 Q2317.13 1451.31 2314.05 1455.92 Q2311 1460.5 2305.19 1460.5 Q2299.38 1460.5 2296.3 1455.92 Q2293.24 1451.31 2293.24 1442.59 Q2293.24 1433.84 2296.3 1429.25 Q2299.38 1424.65 2305.19 1424.65 Z" fill="#000000" fill-rule="evenodd" fill-opacity="1" /><path clip-path="url(#clip0700)" d="M 0 0 M153.273 1358.36 Q149.662 1358.36 147.833 1361.92 Q146.027 1365.46 146.027 1372.59 Q146.027 1379.7 147.833 1383.26 Q149.662 1386.81 153.273 1386.81 Q156.907 1386.81 158.713 1383.26 Q160.541 1379.7 160.541 1372.59 Q160.541 1365.46 158.713 1361.92 Q156.907 1358.36 153.273 1358.36 M153.273 1354.65 Q159.083 1354.65 162.138 1359.26 Q165.217 1363.84 165.217 1372.59 Q165.217 1381.32 162.138 1385.93 Q159.083 1390.51 153.273 1390.51 Q147.463 1390.51 144.384 1385.93 Q141.328 1381.32 141.328 1372.59 Q141.328 1363.84 144.384 1359.26 Q147.463 1354.65 153.273 1354.65 Z" fill="#000000" fill-rule="evenodd" fill-opacity="1" /><path clip-path="url(#clip0700)" d="M 0 0 M170.287 1383.96 L175.171 1383.96 L175.171 1389.84 L170.287 1389.84 L170.287 1383.96 Z" fill="#000000" fill-rule="evenodd" fill-opacity="1" /><path clip-path="url(#clip0700)" d="M 0 0 M190.24 1358.36 Q186.629 1358.36 184.8 1361.92 Q182.995 1365.46 182.995 1372.59 Q182.995 1379.7 184.8 1383.26 Q186.629 1386.81 190.24 1386.81 Q193.874 1386.81 195.68 1383.26 Q197.509 1379.7 197.509 1372.59 Q197.509 1365.46 195.68 1361.92 Q193.874 1358.36 190.24 1358.36 M190.24 1354.65 Q196.05 1354.65 199.106 1359.26 Q202.185 1363.84 202.185 1372.59 Q202.185 1381.32 199.106 1385.93 Q196.05 1390.51 190.24 1390.51 Q184.43 1390.51 181.351 1385.93 Q178.296 1381.32 178.296 1372.59 Q178.296 1363.84 181.351 1359.26 Q184.43 1354.65 190.24 1354.65 Z" fill="#000000" fill-rule="evenodd" fill-opacity="1" /><path clip-path="url(#clip0700)" d="M 0 0 M217.254 1358.36 Q213.643 1358.36 211.814 1361.92 Q210.009 1365.46 210.009 1372.59 Q210.009 1379.7 211.814 1383.26 Q213.643 1386.81 217.254 1386.81 Q220.888 1386.81 222.694 1383.26 Q224.522 1379.7 224.522 1372.59 Q224.522 1365.46 222.694 1361.92 Q220.888 1358.36 217.254 1358.36 M217.254 1354.65 Q223.064 1354.65 226.12 1359.26 Q229.198 1363.84 229.198 1372.59 Q229.198 1381.32 226.12 1385.93 Q223.064 1390.51 217.254 1390.51 Q211.444 1390.51 208.365 1385.93 Q205.31 1381.32 205.31 1372.59 Q205.31 1363.84 208.365 1359.26 Q211.444 1354.65 217.254 1354.65 Z" fill="#000000" fill-rule="evenodd" fill-opacity="1" /><path clip-path="url(#clip0700)" d="M 0 0 M155.865 1032.2 Q152.254 1032.2 150.426 1035.76 Q148.62 1039.3 148.62 1046.43 Q148.62 1053.54 150.426 1057.1 Q152.254 1060.65 155.865 1060.65 Q159.5 1060.65 161.305 1057.1 Q163.134 1053.54 163.134 1046.43 Q163.134 1039.3 161.305 1035.76 Q159.5 1032.2 155.865 1032.2 M155.865 1028.49 Q161.676 1028.49 164.731 1033.1 Q167.81 1037.68 167.81 1046.43 Q167.81 1055.16 164.731 1059.77 Q161.676 1064.35 155.865 1064.35 Q150.055 1064.35 146.977 1059.77 Q143.921 1055.16 143.921 1046.43 Q143.921 1037.68 146.977 1033.1 Q150.055 1028.49 155.865 1028.49 Z" fill="#000000" fill-rule="evenodd" fill-opacity="1" /><path clip-path="url(#clip0700)" d="M 0 0 M172.879 1057.8 L177.763 1057.8 L177.763 1063.68 L172.879 1063.68 L172.879 1057.8 Z" fill="#000000" fill-rule="evenodd" fill-opacity="1" /><path clip-path="url(#clip0700)" d="M 0 0 M186.861 1059.74 L203.18 1059.74 L203.18 1063.68 L181.236 1063.68 L181.236 1059.74 Q183.898 1056.99 188.481 1052.36 Q193.087 1047.71 194.268 1046.36 Q196.513 1043.84 197.393 1042.1 Q198.296 1040.34 198.296 1038.65 Q198.296 1035.9 196.351 1034.16 Q194.43 1032.43 191.328 1032.43 Q189.129 1032.43 186.675 1033.19 Q184.245 1033.96 181.467 1035.51 L181.467 1030.78 Q184.291 1029.65 186.745 1029.07 Q189.199 1028.49 191.236 1028.49 Q196.606 1028.49 199.8 1031.18 Q202.995 1033.86 202.995 1038.35 Q202.995 1040.48 202.185 1042.4 Q201.398 1044.3 199.291 1046.9 Q198.712 1047.57 195.611 1050.78 Q192.509 1053.98 186.861 1059.74 Z" fill="#000000" fill-rule="evenodd" fill-opacity="1" /><path clip-path="url(#clip0700)" d="M 0 0 M208.296 1029.12 L226.652 1029.12 L226.652 1033.05 L212.578 1033.05 L212.578 1041.52 Q213.597 1041.18 214.615 1041.02 Q215.634 1040.83 216.652 1040.83 Q222.439 1040.83 225.819 1044 Q229.198 1047.17 229.198 1052.59 Q229.198 1058.17 225.726 1061.27 Q222.254 1064.35 215.934 1064.35 Q213.759 1064.35 211.49 1063.98 Q209.245 1063.61 206.837 1062.87 L206.837 1058.17 Q208.921 1059.3 211.143 1059.86 Q213.365 1060.41 215.842 1060.41 Q219.846 1060.41 222.184 1058.31 Q224.522 1056.2 224.522 1052.59 Q224.522 1048.98 222.184 1046.87 Q219.846 1044.77 215.842 1044.77 Q213.967 1044.77 212.092 1045.18 Q210.24 1045.6 208.296 1046.48 L208.296 1029.12 Z" fill="#000000" fill-rule="evenodd" fill-opacity="1" /><path clip-path="url(#clip0700)" d="M 0 0 M154.268 706.035 Q150.657 706.035 148.828 709.599 Q147.023 713.141 147.023 720.271 Q147.023 727.377 148.828 730.942 Q150.657 734.483 154.268 734.483 Q157.902 734.483 159.708 730.942 Q161.537 727.377 161.537 720.271 Q161.537 713.141 159.708 709.599 Q157.902 706.035 154.268 706.035 M154.268 702.331 Q160.078 702.331 163.134 706.937 Q166.213 711.521 166.213 720.271 Q166.213 728.997 163.134 733.604 Q160.078 738.187 154.268 738.187 Q148.458 738.187 145.379 733.604 Q142.324 728.997 142.324 720.271 Q142.324 711.521 145.379 706.937 Q148.458 702.331 154.268 702.331 Z" fill="#000000" fill-rule="evenodd" fill-opacity="1" /><path clip-path="url(#clip0700)" d="M 0 0 M171.282 731.636 L176.166 731.636 L176.166 737.516 L171.282 737.516 L171.282 731.636 Z" fill="#000000" fill-rule="evenodd" fill-opacity="1" /><path clip-path="url(#clip0700)" d="M 0 0 M181.282 702.956 L199.638 702.956 L199.638 706.891 L185.564 706.891 L185.564 715.363 Q186.583 715.016 187.601 714.854 Q188.62 714.669 189.638 714.669 Q195.425 714.669 198.805 717.84 Q202.185 721.011 202.185 726.428 Q202.185 732.007 198.712 735.108 Q195.24 738.187 188.921 738.187 Q186.745 738.187 184.476 737.817 Q182.231 737.446 179.824 736.706 L179.824 732.007 Q181.907 733.141 184.129 733.696 Q186.351 734.252 188.828 734.252 Q192.833 734.252 195.171 732.145 Q197.509 730.039 197.509 726.428 Q197.509 722.817 195.171 720.71 Q192.833 718.604 188.828 718.604 Q186.953 718.604 185.078 719.021 Q183.226 719.437 181.282 720.317 L181.282 702.956 Z" fill="#000000" fill-rule="evenodd" fill-opacity="1" /><path clip-path="url(#clip0700)" d="M 0 0 M217.254 706.035 Q213.643 706.035 211.814 709.599 Q210.009 713.141 210.009 720.271 Q210.009 727.377 211.814 730.942 Q213.643 734.483 217.254 734.483 Q220.888 734.483 222.694 730.942 Q224.522 727.377 224.522 720.271 Q224.522 713.141 222.694 709.599 Q220.888 706.035 217.254 706.035 M217.254 702.331 Q223.064 702.331 226.12 706.937 Q229.198 711.521 229.198 720.271 Q229.198 728.997 226.12 733.604 Q223.064 738.187 217.254 738.187 Q211.444 738.187 208.365 733.604 Q205.31 728.997 205.31 720.271 Q205.31 711.521 208.365 706.937 Q211.444 702.331 217.254 702.331 Z" fill="#000000" fill-rule="evenodd" fill-opacity="1" /><path clip-path="url(#clip0700)" d="M 0 0 M155.171 379.873 Q151.56 379.873 149.731 383.438 Q147.926 386.979 147.926 394.109 Q147.926 401.215 149.731 404.78 Q151.56 408.322 155.171 408.322 Q158.805 408.322 160.611 404.78 Q162.439 401.215 162.439 394.109 Q162.439 386.979 160.611 383.438 Q158.805 379.873 155.171 379.873 M155.171 376.169 Q160.981 376.169 164.037 380.776 Q167.115 385.359 167.115 394.109 Q167.115 402.836 164.037 407.442 Q160.981 412.026 155.171 412.026 Q149.361 412.026 146.282 407.442 Q143.227 402.836 143.227 394.109 Q143.227 385.359 146.282 380.776 Q149.361 376.169 155.171 376.169 Z" fill="#000000" fill-rule="evenodd" fill-opacity="1" /><path clip-path="url(#clip0700)" d="M 0 0 M172.185 405.475 L177.069 405.475 L177.069 411.354 L172.185 411.354 L172.185 405.475 Z" fill="#000000" fill-rule="evenodd" fill-opacity="1" /><path clip-path="url(#clip0700)" d="M 0 0 M180.958 376.794 L203.18 376.794 L203.18 378.785 L190.634 411.354 L185.749 411.354 L197.555 380.729 L180.958 380.729 L180.958 376.794 Z" fill="#000000" fill-rule="evenodd" fill-opacity="1" /><path clip-path="url(#clip0700)" d="M 0 0 M208.296 376.794 L226.652 376.794 L226.652 380.729 L212.578 380.729 L212.578 389.202 Q213.597 388.854 214.615 388.692 Q215.634 388.507 216.652 388.507 Q222.439 388.507 225.819 391.678 Q229.198 394.85 229.198 400.266 Q229.198 405.845 225.726 408.947 Q222.254 412.026 215.934 412.026 Q213.759 412.026 211.49 411.655 Q209.245 411.285 206.837 410.544 L206.837 405.845 Q208.921 406.979 211.143 407.535 Q213.365 408.09 215.842 408.09 Q219.846 408.09 222.184 405.984 Q224.522 403.877 224.522 400.266 Q224.522 396.655 222.184 394.549 Q219.846 392.442 215.842 392.442 Q213.967 392.442 212.092 392.859 Q210.24 393.276 208.296 394.155 L208.296 376.794 Z" fill="#000000" fill-rule="evenodd" fill-opacity="1" /><path clip-path="url(#clip0700)" d="M 0 0 M145.31 81.2575 L152.949 81.2575 L152.949 54.8919 L144.639 56.5586 L144.639 52.2993 L152.902 50.6327 L157.578 50.6327 L157.578 81.2575 L165.217 81.2575 L165.217 85.1927 L145.31 85.1927 L145.31 81.2575 Z" fill="#000000" fill-rule="evenodd" fill-opacity="1" /><path clip-path="url(#clip0700)" d="M 0 0 M170.287 79.3131 L175.171 79.3131 L175.171 85.1927 L170.287 85.1927 L170.287 79.3131 Z" fill="#000000" fill-rule="evenodd" fill-opacity="1" /><path clip-path="url(#clip0700)" d="M 0 0 M190.24 53.7114 Q186.629 53.7114 184.8 57.2762 Q182.995 60.8178 182.995 67.9474 Q182.995 75.0538 184.8 78.6186 Q186.629 82.1603 190.24 82.1603 Q193.874 82.1603 195.68 78.6186 Q197.509 75.0538 197.509 67.9474 Q197.509 60.8178 195.68 57.2762 Q193.874 53.7114 190.24 53.7114 M190.24 50.0077 Q196.05 50.0077 199.106 54.6141 Q202.185 59.1974 202.185 67.9474 Q202.185 76.6742 199.106 81.2807 Q196.05 85.864 190.24 85.864 Q184.43 85.864 181.351 81.2807 Q178.296 76.6742 178.296 67.9474 Q178.296 59.1974 181.351 54.6141 Q184.43 50.0077 190.24 50.0077 Z" fill="#000000" fill-rule="evenodd" fill-opacity="1" /><path clip-path="url(#clip0700)" d="M 0 0 M217.254 53.7114 Q213.643 53.7114 211.814 57.2762 Q210.009 60.8178 210.009 67.9474 Q210.009 75.0538 211.814 78.6186 Q213.643 82.1603 217.254 82.1603 Q220.888 82.1603 222.694 78.6186 Q224.522 75.0538 224.522 67.9474 Q224.522 60.8178 222.694 57.2762 Q220.888 53.7114 217.254 53.7114 M217.254 50.0077 Q223.064 50.0077 226.12 54.6141 Q229.198 59.1974 229.198 67.9474 Q229.198 76.6742 226.12 81.2807 Q223.064 85.864 217.254 85.864 Q211.444 85.864 208.365 81.2807 Q205.31 76.6742 205.31 67.9474 Q205.31 59.1974 208.365 54.6141 Q211.444 50.0077 217.254 50.0077 Z" fill="#000000" fill-rule="evenodd" fill-opacity="1" /><path clip-path="url(#clip0700)" d="M 0 0 M1317.14 1486.67 Q1317.14 1488.47 1316.01 1489.5 Q1314.88 1490.5 1313.59 1490.5 Q1312.37 1490.5 1311.73 1489.79 Q1311.08 1489.08 1311.08 1488.18 Q1311.08 1486.96 1311.98 1485.9 Q1312.89 1484.83 1314.24 1484.61 Q1312.92 1483.77 1310.95 1483.77 Q1309.67 1483.77 1308.54 1484.45 Q1307.44 1485.12 1306.77 1485.99 Q1306.12 1486.86 1305.54 1488.12 Q1305 1489.34 1304.77 1490.08 Q1304.58 1490.79 1304.42 1491.56 L1302.16 1500.58 Q1301.07 1504.86 1301.07 1506.38 Q1301.07 1508.25 1301.97 1509.5 Q1302.87 1510.73 1304.67 1510.73 Q1305.38 1510.73 1306.19 1510.53 Q1306.99 1510.31 1308.02 1509.73 Q1309.09 1509.12 1310.02 1508.21 Q1310.99 1507.28 1311.92 1505.7 Q1312.85 1504.12 1313.47 1502.09 Q1313.66 1501.39 1314.3 1501.39 Q1315.11 1501.39 1315.11 1502.03 Q1315.11 1502.58 1314.66 1503.74 Q1314.24 1504.86 1313.3 1506.35 Q1312.4 1507.8 1311.21 1509.12 Q1310.02 1510.4 1308.25 1511.31 Q1306.48 1512.21 1304.54 1512.21 Q1301.77 1512.21 1299.94 1510.73 Q1298.1 1509.24 1297.43 1507.18 Q1297.27 1507.47 1297.04 1507.86 Q1296.82 1508.25 1296.14 1509.12 Q1295.49 1509.95 1294.75 1510.6 Q1294.01 1511.21 1292.85 1511.69 Q1291.73 1512.21 1290.5 1512.21 Q1288.96 1512.21 1287.57 1511.76 Q1286.22 1511.31 1285.25 1510.28 Q1284.29 1509.24 1284.29 1507.83 Q1284.29 1506.25 1285.35 1505.15 Q1286.44 1504.03 1287.93 1504.03 Q1288.86 1504.03 1289.6 1504.57 Q1290.37 1505.12 1290.37 1506.31 Q1290.37 1507.63 1289.47 1508.63 Q1288.57 1509.63 1287.28 1509.89 Q1288.6 1510.73 1290.57 1510.73 Q1292.69 1510.73 1294.37 1508.86 Q1296.04 1506.99 1296.85 1503.87 Q1298.84 1496.36 1299.62 1493.01 Q1300.39 1489.63 1300.39 1488.18 Q1300.39 1486.83 1300.04 1485.9 Q1299.68 1484.96 1299.07 1484.54 Q1298.49 1484.09 1297.94 1483.93 Q1297.43 1483.77 1296.85 1483.77 Q1295.88 1483.77 1294.79 1484.16 Q1293.72 1484.54 1292.44 1485.44 Q1291.18 1486.31 1289.99 1488.12 Q1288.8 1489.92 1287.99 1492.4 Q1287.83 1493.14 1287.12 1493.14 Q1286.35 1493.11 1286.35 1492.47 Q1286.35 1491.92 1286.77 1490.79 Q1287.22 1489.63 1288.12 1488.18 Q1289.05 1486.73 1290.25 1485.44 Q1291.47 1484.12 1293.24 1483.22 Q1295.04 1482.32 1296.98 1482.32 Q1297.85 1482.32 1298.68 1482.51 Q1299.55 1482.67 1300.58 1483.16 Q1301.65 1483.64 1302.58 1484.7 Q1303.51 1485.77 1304.09 1487.31 Q1304.48 1486.57 1305 1485.86 Q1305.54 1485.15 1306.38 1484.28 Q1307.25 1483.38 1308.44 1482.87 Q1309.67 1482.32 1311.02 1482.32 Q1312.34 1482.32 1313.63 1482.67 Q1314.91 1483 1316.01 1484.06 Q1317.14 1485.09 1317.14 1486.67 Z" fill="#000000" fill-rule="evenodd" fill-opacity="1" /><path clip-path="url(#clip0700)" d="M 0 0 M76.4129 712.377 Q76.8638 712.377 77.9266 712.666 L103.112 718.979 Q108.715 720.364 112.644 724.872 Q116.574 729.349 116.574 734.438 Q116.574 737.497 114.931 739.462 Q113.321 741.426 110.841 741.426 Q108.651 741.426 107.588 740.267 Q106.558 739.107 106.558 737.723 Q106.558 737.272 106.686 736.789 Q106.815 736.306 107.363 735.79 Q107.91 735.275 108.844 735.275 Q110.358 735.275 111.549 736.595 Q112.097 737.24 112.226 737.851 Q112.355 738.431 112.355 739.43 Q113.256 739.043 113.868 738.335 Q114.48 737.626 114.706 736.821 Q114.963 736.016 115.028 735.5 Q115.124 734.953 115.124 734.438 Q115.124 730.315 110.97 727.159 Q109.714 726.225 108.458 725.549 Q107.234 724.84 105.72 724.325 Q104.239 723.81 103.434 723.584 Q102.628 723.327 100.793 722.876 Q103.788 725.871 103.788 729.542 Q103.788 731.088 103.369 732.473 Q102.951 733.826 102.081 735.017 Q101.179 736.209 99.6011 736.917 Q98.023 737.594 95.9296 737.594 Q93.7074 737.594 90.6801 736.724 Q87.6527 735.855 82.0811 733.761 Q78.9572 732.634 77.4435 732.634 Q76.7027 732.634 76.2519 732.795 Q75.7688 732.956 75.6077 733.278 Q75.4145 733.6 75.3823 733.793 Q75.3501 733.955 75.3501 734.277 Q75.3501 736.177 77.2825 737.948 Q79.2148 739.719 83.5304 740.943 Q84.3355 741.201 84.5288 741.362 Q84.722 741.523 84.722 742.006 Q84.6898 742.811 84.0457 742.811 Q83.788 742.811 82.7897 742.521 Q81.7591 742.231 80.2454 741.555 Q78.6995 740.847 77.3147 739.88 Q75.8976 738.914 74.8992 737.401 Q73.9008 735.855 73.9008 734.083 Q73.9008 731.668 75.4789 730.186 Q77.0248 728.673 79.3114 728.673 Q80.2454 728.673 81.0827 728.93 Q81.8879 729.156 84.0457 729.993 Q92.7413 733.375 96.9924 733.375 Q98.023 733.375 98.8926 733.214 Q99.7299 733.021 100.567 732.602 Q101.372 732.183 101.856 731.346 Q102.306 730.476 102.306 729.285 Q102.306 727.771 101.598 726.354 Q100.857 724.905 99.8588 724.003 Q98.8604 723.069 98.023 722.521 Q97.1535 721.942 96.7026 721.813 L84.8508 718.85 L79.5691 717.53 Q76.7027 716.918 75.9942 716.628 Q75.3179 716.241 74.9636 715.565 Q74.6094 714.889 74.6094 714.309 Q74.6094 713.504 75.0925 712.956 Q75.5755 712.377 76.4129 712.377 Z" fill="#000000" fill-rule="evenodd" fill-opacity="1" /><polyline clip-path="url(#clip0702)" style="stroke:#009af9; stroke-width:4; stroke-opacity:1; fill:none" points="
  312.62,1216.31 532.699,459.013 752.779,1138.98 972.858,487.944 1192.94,372.522 1413.02,85.7097 1633.1,513.487 1853.18,822.78 2073.26,1367.9 2293.33,708.378 
  
  "/>
<path clip-path="url(#clip0700)" d="
M1989.74 251.724 L2280.76 251.724 L2280.76 130.764 L1989.74 130.764  Z
  " fill="#ffffff" fill-rule="evenodd" fill-opacity="1"/>
<polyline clip-path="url(#clip0700)" style="stroke:#000000; stroke-width:4; stroke-opacity:1; fill:none" points="
  1989.74,251.724 2280.76,251.724 2280.76,130.764 1989.74,130.764 1989.74,251.724 
  "/>
<polyline clip-path="url(#clip0700)" style="stroke:#009af9; stroke-width:4; stroke-opacity:1; fill:none" points="
  2013.74,191.244 2157.74,191.244 
  "/>
<path clip-path="url(#clip0700)" d="M 0 0 M2195.58 210.931 Q2193.77 215.561 2192.06 216.973 Q2190.35 218.385 2187.48 218.385 L2184.08 218.385 L2184.08 214.82 L2186.58 214.82 Q2188.33 214.82 2189.31 213.987 Q2190.28 213.154 2191.46 210.052 L2192.22 208.107 L2181.74 182.598 L2186.25 182.598 L2194.35 202.876 L2202.46 182.598 L2206.97 182.598 L2195.58 210.931 Z" fill="#000000" fill-rule="evenodd" fill-opacity="1" /><path clip-path="url(#clip0700)" d="M 0 0 M2212.85 204.589 L2220.49 204.589 L2220.49 178.223 L2212.18 179.89 L2212.18 175.631 L2220.44 173.964 L2225.12 173.964 L2225.12 204.589 L2232.76 204.589 L2232.76 208.524 L2212.85 208.524 L2212.85 204.589 Z" fill="#000000" fill-rule="evenodd" fill-opacity="1" /></svg>
