<?xml version="1.0" encoding="utf-8"?>
<svg xmlns="http://www.w3.org/2000/svg" xmlns:xlink="http://www.w3.org/1999/xlink" width="600" height="400" viewBox="0 0 2400 1600">
<defs>
  <clipPath id="clip960">
    <rect x="0" y="0" width="2400" height="1600"/>
  </clipPath>
</defs>
<path clip-path="url(#clip960)" d="
M0 1600 L2400 1600 L2400 0 L0 0  Z
  " fill="#ffffff" fill-rule="evenodd" fill-opacity="1"/>
<defs>
  <clipPath id="clip961">
    <rect x="480" y="0" width="1681" height="1600"/>
  </clipPath>
</defs>
<defs>
  <clipPath id="clip962">
    <rect x="2137" y="0" width="73" height="1600"/>
  </clipPath>
</defs>
<path clip-path="url(#clip960)" d="
M199.55 1445.63 L2352.76 1445.63 L2352.76 88.065 L199.55 88.065  Z
  " fill="#ffffff" fill-rule="evenodd" fill-opacity="1"/>
<defs>
  <clipPath id="clip963">
    <rect x="199" y="88" width="2154" height="1359"/>
  </clipPath>
</defs>
<polyline clip-path="url(#clip963)" style="stroke:#000000; stroke-width:2; stroke-opacity:0.1; fill:none" points="
  486.193,1445.63 486.193,88.065 
  "/>
<polyline clip-path="url(#clip963)" style="stroke:#000000; stroke-width:2; stroke-opacity:0.1; fill:none" points="
  937.599,1445.63 937.599,88.065 
  "/>
<polyline clip-path="url(#clip963)" style="stroke:#000000; stroke-width:2; stroke-opacity:0.1; fill:none" points="
  1389,1445.63 1389,88.065 
  "/>
<polyline clip-path="url(#clip963)" style="stroke:#000000; stroke-width:2; stroke-opacity:0.1; fill:none" points="
  1840.41,1445.63 1840.41,88.065 
  "/>
<polyline clip-path="url(#clip963)" style="stroke:#000000; stroke-width:2; stroke-opacity:0.1; fill:none" points="
  2291.82,1445.63 2291.82,88.065 
  "/>
<polyline clip-path="url(#clip963)" style="stroke:#000000; stroke-width:2; stroke-opacity:0.1; fill:none" points="
  199.55,1147.14 2352.76,1147.14 
  "/>
<polyline clip-path="url(#clip963)" style="stroke:#000000; stroke-width:2; stroke-opacity:0.1; fill:none" points="
  199.55,819.351 2352.76,819.351 
  "/>
<polyline clip-path="url(#clip963)" style="stroke:#000000; stroke-width:2; stroke-opacity:0.1; fill:none" points="
  199.55,491.562 2352.76,491.562 
  "/>
<polyline clip-path="url(#clip963)" style="stroke:#000000; stroke-width:2; stroke-opacity:0.1; fill:none" points="
  199.55,163.774 2352.76,163.774 
  "/>
<polyline clip-path="url(#clip960)" style="stroke:#000000; stroke-width:4; stroke-opacity:1; fill:none" points="
  199.55,1445.63 2352.76,1445.63 
  "/>
<polyline clip-path="url(#clip960)" style="stroke:#000000; stroke-width:4; stroke-opacity:1; fill:none" points="
  199.55,1445.63 199.55,88.065 
  "/>
<polyline clip-path="url(#clip960)" style="stroke:#000000; stroke-width:4; stroke-opacity:1; fill:none" points="
  486.193,1445.63 486.193,1429.34 
  "/>
<polyline clip-path="url(#clip960)" style="stroke:#000000; stroke-width:4; stroke-opacity:1; fill:none" points="
  937.599,1445.63 937.599,1429.34 
  "/>
<polyline clip-path="url(#clip960)" style="stroke:#000000; stroke-width:4; stroke-opacity:1; fill:none" points="
  1389,1445.63 1389,1429.34 
  "/>
<polyline clip-path="url(#clip960)" style="stroke:#000000; stroke-width:4; stroke-opacity:1; fill:none" points="
  1840.41,1445.63 1840.41,1429.34 
  "/>
<polyline clip-path="url(#clip960)" style="stroke:#000000; stroke-width:4; stroke-opacity:1; fill:none" points="
  2291.82,1445.63 2291.82,1429.34 
  "/>
<polyline clip-path="url(#clip960)" style="stroke:#000000; stroke-width:4; stroke-opacity:1; fill:none" points="
  199.55,1147.14 225.388,1147.14 
  "/>
<polyline clip-path="url(#clip960)" style="stroke:#000000; stroke-width:4; stroke-opacity:1; fill:none" points="
  199.55,819.351 225.388,819.351 
  "/>
<polyline clip-path="url(#clip960)" style="stroke:#000000; stroke-width:4; stroke-opacity:1; fill:none" points="
  199.55,491.562 225.388,491.562 
  "/>
<polyline clip-path="url(#clip960)" style="stroke:#000000; stroke-width:4; stroke-opacity:1; fill:none" points="
  199.55,163.774 225.388,163.774 
  "/>
<path clip-path="url(#clip960)" d="M 0 0 M480.846 1495.16 L497.165 1495.16 L497.165 1499.1 L475.221 1499.1 L475.221 1495.16 Q477.883 1492.41 482.466 1487.78 Q487.072 1483.13 488.253 1481.78 Q490.498 1479.26 491.378 1477.52 Q492.281 1475.77 492.281 1474.08 Q492.281 1471.32 490.336 1469.59 Q488.415 1467.85 485.313 1467.85 Q483.114 1467.85 480.66 1468.61 Q478.23 1469.38 475.452 1470.93 L475.452 1466.21 Q478.276 1465.07 480.73 1464.49 Q483.183 1463.91 485.221 1463.91 Q490.591 1463.91 493.785 1466.6 Q496.98 1469.28 496.98 1473.77 Q496.98 1475.9 496.17 1477.83 Q495.382 1479.72 493.276 1482.32 Q492.697 1482.99 489.595 1486.21 Q486.494 1489.4 480.846 1495.16 Z" fill="#000000" fill-rule="evenodd" fill-opacity="1" /><path clip-path="url(#clip960)" d="M 0 0 M940.608 1468.61 L928.802 1487.06 L940.608 1487.06 L940.608 1468.61 M939.381 1464.54 L945.261 1464.54 L945.261 1487.06 L950.191 1487.06 L950.191 1490.95 L945.261 1490.95 L945.261 1499.1 L940.608 1499.1 L940.608 1490.95 L925.006 1490.95 L925.006 1486.44 L939.381 1464.54 Z" fill="#000000" fill-rule="evenodd" fill-opacity="1" /><path clip-path="url(#clip960)" d="M 0 0 M1389.41 1479.96 Q1386.26 1479.96 1384.41 1482.11 Q1382.58 1484.26 1382.58 1488.01 Q1382.58 1491.74 1384.41 1493.91 Q1386.26 1496.07 1389.41 1496.07 Q1392.56 1496.07 1394.39 1493.91 Q1396.24 1491.74 1396.24 1488.01 Q1396.24 1484.26 1394.39 1482.11 Q1392.56 1479.96 1389.41 1479.96 M1398.69 1465.3 L1398.69 1469.56 Q1396.93 1468.73 1395.13 1468.29 Q1393.34 1467.85 1391.59 1467.85 Q1386.96 1467.85 1384.5 1470.97 Q1382.07 1474.1 1381.72 1480.42 Q1383.09 1478.4 1385.15 1477.34 Q1387.21 1476.25 1389.69 1476.25 Q1394.9 1476.25 1397.9 1479.42 Q1400.94 1482.57 1400.94 1488.01 Q1400.94 1493.34 1397.79 1496.55 Q1394.64 1499.77 1389.41 1499.77 Q1383.41 1499.77 1380.24 1495.19 Q1377.07 1490.58 1377.07 1481.85 Q1377.07 1473.66 1380.96 1468.8 Q1384.85 1463.91 1391.4 1463.91 Q1393.16 1463.91 1394.94 1464.26 Q1396.75 1464.61 1398.69 1465.3 Z" fill="#000000" fill-rule="evenodd" fill-opacity="1" /><path clip-path="url(#clip960)" d="M 0 0 M1840.41 1482.69 Q1837.08 1482.69 1835.16 1484.47 Q1833.26 1486.25 1833.26 1489.38 Q1833.26 1492.5 1835.16 1494.28 Q1837.08 1496.07 1840.41 1496.07 Q1843.74 1496.07 1845.66 1494.28 Q1847.59 1492.48 1847.59 1489.38 Q1847.59 1486.25 1845.66 1484.47 Q1843.77 1482.69 1840.41 1482.69 M1835.73 1480.7 Q1832.73 1479.96 1831.04 1477.9 Q1829.37 1475.84 1829.37 1472.87 Q1829.37 1468.73 1832.31 1466.32 Q1835.27 1463.91 1840.41 1463.91 Q1845.57 1463.91 1848.51 1466.32 Q1851.45 1468.73 1851.45 1472.87 Q1851.45 1475.84 1849.76 1477.9 Q1848.1 1479.96 1845.11 1480.7 Q1848.49 1481.48 1850.36 1483.77 Q1852.26 1486.07 1852.26 1489.38 Q1852.26 1494.4 1849.18 1497.09 Q1846.13 1499.77 1840.41 1499.77 Q1834.69 1499.77 1831.61 1497.09 Q1828.56 1494.4 1828.56 1489.38 Q1828.56 1486.07 1830.46 1483.77 Q1832.35 1481.48 1835.73 1480.7 M1834.02 1473.31 Q1834.02 1476 1835.69 1477.5 Q1837.38 1479.01 1840.41 1479.01 Q1843.42 1479.01 1845.11 1477.5 Q1846.82 1476 1846.82 1473.31 Q1846.82 1470.63 1845.11 1469.12 Q1843.42 1467.62 1840.41 1467.62 Q1837.38 1467.62 1835.69 1469.12 Q1834.02 1470.63 1834.02 1473.31 Z" fill="#000000" fill-rule="evenodd" fill-opacity="1" /><path clip-path="url(#clip960)" d="M 0 0 M2268.69 1495.16 L2276.33 1495.16 L2276.33 1468.8 L2268.02 1470.46 L2268.02 1466.21 L2276.28 1464.54 L2280.96 1464.54 L2280.96 1495.16 L2288.6 1495.16 L2288.6 1499.1 L2268.69 1499.1 L2268.69 1495.16 Z" fill="#000000" fill-rule="evenodd" fill-opacity="1" /><path clip-path="url(#clip960)" d="M 0 0 M2303.67 1467.62 Q2300.06 1467.62 2298.23 1471.18 Q2296.42 1474.72 2296.42 1481.85 Q2296.42 1488.96 2298.23 1492.52 Q2300.06 1496.07 2303.67 1496.07 Q2307.3 1496.07 2309.11 1492.52 Q2310.94 1488.96 2310.94 1481.85 Q2310.94 1474.72 2309.11 1471.18 Q2307.3 1467.62 2303.67 1467.62 M2303.67 1463.91 Q2309.48 1463.91 2312.53 1468.52 Q2315.61 1473.1 2315.61 1481.85 Q2315.61 1490.58 2312.53 1495.19 Q2309.48 1499.77 2303.67 1499.77 Q2297.86 1499.77 2294.78 1495.19 Q2291.72 1490.58 2291.72 1481.85 Q2291.72 1473.1 2294.78 1468.52 Q2297.86 1463.91 2303.67 1463.91 Z" fill="#000000" fill-rule="evenodd" fill-opacity="1" /><path clip-path="url(#clip960)" d="M 0 0 M126.476 1132.94 Q122.865 1132.94 121.036 1136.5 Q119.231 1140.05 119.231 1147.17 Q119.231 1154.28 121.036 1157.85 Q122.865 1161.39 126.476 1161.39 Q130.11 1161.39 131.916 1157.85 Q133.745 1154.28 133.745 1147.17 Q133.745 1140.05 131.916 1136.5 Q130.11 1132.94 126.476 1132.94 M126.476 1129.24 Q132.286 1129.24 135.342 1133.84 Q138.421 1138.42 138.421 1147.17 Q138.421 1155.9 135.342 1160.51 Q132.286 1165.09 126.476 1165.09 Q120.666 1165.09 117.587 1160.51 Q114.532 1155.9 114.532 1147.17 Q114.532 1138.42 117.587 1133.84 Q120.666 1129.24 126.476 1129.24 Z" fill="#000000" fill-rule="evenodd" fill-opacity="1" /><path clip-path="url(#clip960)" d="M 0 0 M143.49 1158.54 L148.374 1158.54 L148.374 1164.42 L143.49 1164.42 L143.49 1158.54 Z" fill="#000000" fill-rule="evenodd" fill-opacity="1" /><path clip-path="url(#clip960)" d="M 0 0 M164.022 1145.28 Q160.874 1145.28 159.022 1147.43 Q157.194 1149.58 157.194 1153.33 Q157.194 1157.06 159.022 1159.24 Q160.874 1161.39 164.022 1161.39 Q167.17 1161.39 168.999 1159.24 Q170.851 1157.06 170.851 1153.33 Q170.851 1149.58 168.999 1147.43 Q167.17 1145.28 164.022 1145.28 M173.305 1130.62 L173.305 1134.88 Q171.545 1134.05 169.74 1133.61 Q167.957 1133.17 166.198 1133.17 Q161.569 1133.17 159.115 1136.3 Q156.684 1139.42 156.337 1145.74 Q157.703 1143.73 159.763 1142.66 Q161.823 1141.57 164.3 1141.57 Q169.508 1141.57 172.518 1144.74 Q175.55 1147.89 175.55 1153.33 Q175.55 1158.66 172.402 1161.87 Q169.254 1165.09 164.022 1165.09 Q158.027 1165.09 154.856 1160.51 Q151.684 1155.9 151.684 1147.17 Q151.684 1138.98 155.573 1134.12 Q159.462 1129.24 166.013 1129.24 Q167.772 1129.24 169.555 1129.58 Q171.36 1129.93 173.305 1130.62 Z" fill="#000000" fill-rule="evenodd" fill-opacity="1" /><path clip-path="url(#clip960)" d="M 0 0 M127.541 805.15 Q123.93 805.15 122.101 808.715 Q120.296 812.256 120.296 819.386 Q120.296 826.492 122.101 830.057 Q123.93 833.599 127.541 833.599 Q131.175 833.599 132.981 830.057 Q134.809 826.492 134.809 819.386 Q134.809 812.256 132.981 808.715 Q131.175 805.15 127.541 805.15 M127.541 801.446 Q133.351 801.446 136.407 806.053 Q139.485 810.636 139.485 819.386 Q139.485 828.113 136.407 832.719 Q133.351 837.303 127.541 837.303 Q121.731 837.303 118.652 832.719 Q115.597 828.113 115.597 819.386 Q115.597 810.636 118.652 806.053 Q121.731 801.446 127.541 801.446 Z" fill="#000000" fill-rule="evenodd" fill-opacity="1" /><path clip-path="url(#clip960)" d="M 0 0 M144.555 830.752 L149.439 830.752 L149.439 836.631 L144.555 836.631 L144.555 830.752 Z" fill="#000000" fill-rule="evenodd" fill-opacity="1" /><path clip-path="url(#clip960)" d="M 0 0 M153.328 802.071 L175.55 802.071 L175.55 804.062 L163.004 836.631 L158.12 836.631 L169.925 806.006 L153.328 806.006 L153.328 802.071 Z" fill="#000000" fill-rule="evenodd" fill-opacity="1" /><path clip-path="url(#clip960)" d="M 0 0 M126.731 477.361 Q123.12 477.361 121.291 480.926 Q119.486 484.468 119.486 491.597 Q119.486 498.704 121.291 502.268 Q123.12 505.81 126.731 505.81 Q130.365 505.81 132.171 502.268 Q133.999 498.704 133.999 491.597 Q133.999 484.468 132.171 480.926 Q130.365 477.361 126.731 477.361 M126.731 473.657 Q132.541 473.657 135.597 478.264 Q138.675 482.847 138.675 491.597 Q138.675 500.324 135.597 504.93 Q132.541 509.514 126.731 509.514 Q120.921 509.514 117.842 504.93 Q114.786 500.324 114.786 491.597 Q114.786 482.847 117.842 478.264 Q120.921 473.657 126.731 473.657 Z" fill="#000000" fill-rule="evenodd" fill-opacity="1" /><path clip-path="url(#clip960)" d="M 0 0 M143.745 502.963 L148.629 502.963 L148.629 508.842 L143.745 508.842 L143.745 502.963 Z" fill="#000000" fill-rule="evenodd" fill-opacity="1" /><path clip-path="url(#clip960)" d="M 0 0 M163.698 492.431 Q160.365 492.431 158.444 494.213 Q156.545 495.995 156.545 499.12 Q156.545 502.245 158.444 504.028 Q160.365 505.81 163.698 505.81 Q167.032 505.81 168.953 504.028 Q170.874 502.222 170.874 499.12 Q170.874 495.995 168.953 494.213 Q167.055 492.431 163.698 492.431 M159.022 490.44 Q156.013 489.699 154.323 487.639 Q152.657 485.579 152.657 482.616 Q152.657 478.472 155.596 476.065 Q158.559 473.657 163.698 473.657 Q168.86 473.657 171.8 476.065 Q174.74 478.472 174.74 482.616 Q174.74 485.579 173.05 487.639 Q171.383 489.699 168.397 490.44 Q171.777 491.227 173.652 493.518 Q175.55 495.81 175.55 499.12 Q175.55 504.143 172.471 506.829 Q169.416 509.514 163.698 509.514 Q157.981 509.514 154.902 506.829 Q151.846 504.143 151.846 499.12 Q151.846 495.81 153.745 493.518 Q155.643 491.227 159.022 490.44 M157.309 483.056 Q157.309 485.741 158.976 487.245 Q160.666 488.75 163.698 488.75 Q166.707 488.75 168.397 487.245 Q170.11 485.741 170.11 483.056 Q170.11 480.37 168.397 478.866 Q166.707 477.361 163.698 477.361 Q160.666 477.361 158.976 478.866 Q157.309 480.37 157.309 483.056 Z" fill="#000000" fill-rule="evenodd" fill-opacity="1" /><path clip-path="url(#clip960)" d="M 0 0 M126.823 149.572 Q123.212 149.572 121.384 153.137 Q119.578 156.679 119.578 163.808 Q119.578 170.915 121.384 174.48 Q123.212 178.021 126.823 178.021 Q130.458 178.021 132.263 174.48 Q134.092 170.915 134.092 163.808 Q134.092 156.679 132.263 153.137 Q130.458 149.572 126.823 149.572 M126.823 145.869 Q132.634 145.869 135.689 150.475 Q138.768 155.058 138.768 163.808 Q138.768 172.535 135.689 177.142 Q132.634 181.725 126.823 181.725 Q121.013 181.725 117.935 177.142 Q114.879 172.535 114.879 163.808 Q114.879 155.058 117.935 150.475 Q121.013 145.869 126.823 145.869 Z" fill="#000000" fill-rule="evenodd" fill-opacity="1" /><path clip-path="url(#clip960)" d="M 0 0 M143.837 175.174 L148.721 175.174 L148.721 181.054 L143.837 181.054 L143.837 175.174 Z" fill="#000000" fill-rule="evenodd" fill-opacity="1" /><path clip-path="url(#clip960)" d="M 0 0 M153.93 180.336 L153.93 176.077 Q155.689 176.91 157.495 177.35 Q159.3 177.79 161.036 177.79 Q165.666 177.79 168.096 174.688 Q170.55 171.563 170.897 165.22 Q169.555 167.211 167.495 168.276 Q165.434 169.341 162.934 169.341 Q157.749 169.341 154.717 166.216 Q151.708 163.068 151.708 157.628 Q151.708 152.304 154.856 149.086 Q158.004 145.869 163.235 145.869 Q169.231 145.869 172.379 150.475 Q175.55 155.058 175.55 163.808 Q175.55 171.98 171.661 176.864 Q167.795 181.725 161.245 181.725 Q159.485 181.725 157.68 181.378 Q155.874 181.03 153.93 180.336 M163.235 165.683 Q166.383 165.683 168.212 163.531 Q170.064 161.378 170.064 157.628 Q170.064 153.901 168.212 151.748 Q166.383 149.572 163.235 149.572 Q160.087 149.572 158.235 151.748 Q156.407 153.901 156.407 157.628 Q156.407 161.378 158.235 163.531 Q160.087 165.683 163.235 165.683 Z" fill="#000000" fill-rule="evenodd" fill-opacity="1" /><path clip-path="url(#clip960)" d="M 0 0 M1296.66 4.53628 Q1296.58 4.94617 1296.42 5.68398 Q1296.25 6.3808 1295.52 8.59422 Q1294.78 10.8076 1293.8 13.0621 Q1292.85 15.2755 1291.01 18.3907 Q1289.2 21.4649 1286.99 24.2521 Q1286.38 24.9899 1286.25 25.4408 Q1286.17 25.8507 1286.17 27.2034 Q1286.17 35.7291 1288.75 35.7291 Q1288.88 35.7291 1289.08 35.7291 Q1289.33 35.6881 1289.94 35.4832 Q1290.6 35.2373 1291.17 34.8683 Q1291.75 34.4585 1292.4 33.6387 Q1293.06 32.7779 1293.47 31.6302 Q1293.84 30.8104 1294.57 30.8104 Q1295.56 30.8104 1295.56 31.6302 Q1295.56 33.1058 1293.51 35.3602 Q1291.46 37.6146 1288.51 37.6146 Q1285.68 37.6146 1283.67 35.7701 Q1281.7 33.8846 1280.88 30.5235 Q1272.03 37.6146 1263.18 37.6146 Q1256.95 37.6146 1253.26 33.5567 Q1249.57 29.4578 1249.57 23.3913 Q1249.57 17.5709 1252.76 12.0373 Q1256 6.50377 1261.25 3.06067 Q1266.54 -0.423422 1272.15 -0.423422 Q1274.12 -0.423422 1276.01 0.109439 Q1277.89 0.60131 1279.78 1.87198 Q1281.66 3.14265 1283.06 5.06914 Q1284.45 6.99564 1285.31 10.0288 Q1286.17 13.0621 1286.17 16.8741 L1286.17 22.0797 Q1291.58 15.2345 1294.41 5.43805 Q1294.82 3.96243 1295.07 3.79847 Q1295.23 3.67551 1295.64 3.67551 Q1296.05 3.67551 1296.3 3.92144 Q1296.58 4.12639 1296.62 4.33133 L1296.66 4.53628 M1280.56 28.3511 Q1280.39 26.9164 1280.39 18.9645 Q1280.39 17.4479 1280.39 16.6281 Q1280.39 15.7673 1280.31 14.1278 Q1280.23 12.4882 1280.06 11.4635 Q1279.94 10.4387 1279.65 8.96312 Q1279.37 7.48751 1278.96 6.54476 Q1278.55 5.602 1277.89 4.53628 Q1277.28 3.47056 1276.46 2.85572 Q1275.68 2.24088 1274.53 1.83099 Q1273.42 1.4211 1272.07 1.4211 Q1270.39 1.4211 1268.63 2.03594 Q1266.91 2.60978 1264.69 4.4543 Q1262.48 6.25783 1260.63 9.12708 Q1258.71 12.1603 1257.23 17.7348 Q1255.8 23.2684 1255.8 26.5885 Q1255.8 30.7694 1257.72 33.2698 Q1259.65 35.7291 1263.34 35.7291 Q1272.15 35.7291 1280.56 28.3511 Z" fill="#000000" fill-rule="evenodd" fill-opacity="1" /><path clip-path="url(#clip960)" d="M 0 0 M1290.31 1525.39 Q1290.31 1527.19 1289.19 1528.22 Q1288.06 1529.22 1286.77 1529.22 Q1285.55 1529.22 1284.9 1528.51 Q1284.26 1527.8 1284.26 1526.9 Q1284.26 1525.68 1285.16 1524.61 Q1286.06 1523.55 1287.41 1523.33 Q1286.09 1522.49 1284.13 1522.49 Q1282.84 1522.49 1281.71 1523.16 Q1280.62 1523.84 1279.94 1524.71 Q1279.3 1525.58 1278.72 1526.84 Q1278.17 1528.06 1277.95 1528.8 Q1277.75 1529.51 1277.59 1530.28 L1275.34 1539.3 Q1274.24 1543.58 1274.24 1545.1 Q1274.24 1546.97 1275.14 1548.22 Q1276.05 1549.44 1277.85 1549.44 Q1278.56 1549.44 1279.36 1549.25 Q1280.17 1549.03 1281.2 1548.45 Q1282.26 1547.83 1283.2 1546.93 Q1284.16 1546 1285.1 1544.42 Q1286.03 1542.84 1286.64 1540.81 Q1286.83 1540.11 1287.48 1540.11 Q1288.28 1540.11 1288.28 1540.75 Q1288.28 1541.3 1287.83 1542.46 Q1287.41 1543.58 1286.48 1545.06 Q1285.58 1546.51 1284.39 1547.83 Q1283.2 1549.12 1281.42 1550.02 Q1279.65 1550.93 1277.72 1550.93 Q1274.95 1550.93 1273.12 1549.44 Q1271.28 1547.96 1270.6 1545.9 Q1270.44 1546.19 1270.22 1546.58 Q1269.99 1546.97 1269.31 1547.83 Q1268.67 1548.67 1267.93 1549.32 Q1267.19 1549.93 1266.03 1550.41 Q1264.9 1550.93 1263.68 1550.93 Q1262.13 1550.93 1260.75 1550.48 Q1259.4 1550.02 1258.43 1548.99 Q1257.46 1547.96 1257.46 1546.55 Q1257.46 1544.97 1258.53 1543.87 Q1259.62 1542.75 1261.1 1542.75 Q1262.04 1542.75 1262.78 1543.29 Q1263.55 1543.84 1263.55 1545.03 Q1263.55 1546.35 1262.65 1547.35 Q1261.75 1548.35 1260.46 1548.61 Q1261.78 1549.44 1263.74 1549.44 Q1265.87 1549.44 1267.54 1547.58 Q1269.22 1545.71 1270.02 1542.59 Q1272.02 1535.08 1272.79 1531.73 Q1273.57 1528.35 1273.57 1526.9 Q1273.57 1525.55 1273.21 1524.61 Q1272.86 1523.68 1272.25 1523.26 Q1271.67 1522.81 1271.12 1522.65 Q1270.6 1522.49 1270.02 1522.49 Q1269.06 1522.49 1267.96 1522.88 Q1266.9 1523.26 1265.61 1524.16 Q1264.36 1525.03 1263.16 1526.84 Q1261.97 1528.64 1261.17 1531.12 Q1261.01 1531.86 1260.3 1531.86 Q1259.52 1531.83 1259.52 1531.18 Q1259.52 1530.64 1259.94 1529.51 Q1260.39 1528.35 1261.3 1526.9 Q1262.23 1525.45 1263.42 1524.16 Q1264.64 1522.84 1266.42 1521.94 Q1268.22 1521.04 1270.15 1521.04 Q1271.02 1521.04 1271.86 1521.23 Q1272.73 1521.39 1273.76 1521.88 Q1274.82 1522.36 1275.76 1523.42 Q1276.69 1524.49 1277.27 1526.03 Q1277.66 1525.29 1278.17 1524.58 Q1278.72 1523.87 1279.56 1523 Q1280.43 1522.1 1281.62 1521.59 Q1282.84 1521.04 1284.19 1521.04 Q1285.51 1521.04 1286.8 1521.39 Q1288.09 1521.72 1289.19 1522.78 Q1290.31 1523.81 1290.31 1525.39 Z" fill="#000000" fill-rule="evenodd" fill-opacity="1" /><path clip-path="url(#clip960)" d="M 0 0 M50.5695 752.42 Q51.0203 752.42 52.0831 752.71 L77.2681 759.022 Q82.8719 760.407 86.801 764.916 Q90.7302 769.393 90.7302 774.481 Q90.7302 777.541 89.0877 779.505 Q87.4774 781.47 84.9975 781.47 Q82.8075 781.47 81.7447 780.31 Q80.7141 779.151 80.7141 777.766 Q80.7141 777.315 80.843 776.832 Q80.9718 776.349 81.5193 775.834 Q82.0668 775.318 83.0008 775.318 Q84.5144 775.318 85.706 776.639 Q86.2535 777.283 86.3824 777.895 Q86.5112 778.475 86.5112 779.473 Q87.413 779.086 88.0249 778.378 Q88.6368 777.669 88.8622 776.864 Q89.1199 776.059 89.1843 775.544 Q89.2809 774.996 89.2809 774.481 Q89.2809 770.359 85.1263 767.203 Q83.8703 766.269 82.6143 765.592 Q81.3905 764.884 79.8768 764.368 Q78.3953 763.853 77.5902 763.628 Q76.785 763.37 74.9493 762.919 Q77.9444 765.914 77.9444 769.586 Q77.9444 771.132 77.5258 772.516 Q77.1071 773.869 76.2375 775.061 Q75.3358 776.252 73.7577 776.961 Q72.1796 777.637 70.0862 777.637 Q67.864 777.637 64.8366 776.768 Q61.8093 775.898 56.2377 773.805 Q53.1137 772.678 51.6 772.678 Q50.8593 772.678 50.4084 772.839 Q49.9253 773 49.7643 773.322 Q49.5711 773.644 49.5389 773.837 Q49.5067 773.998 49.5067 774.32 Q49.5067 776.22 51.439 777.991 Q53.3714 779.763 57.6869 780.987 Q58.4921 781.244 58.6853 781.405 Q58.8786 781.566 58.8786 782.049 Q58.8464 782.855 58.2022 782.855 Q57.9446 782.855 56.9462 782.565 Q55.9156 782.275 54.4019 781.599 Q52.8561 780.89 51.4712 779.924 Q50.0542 778.958 49.0558 777.444 Q48.0574 775.898 48.0574 774.127 Q48.0574 771.711 49.6355 770.23 Q51.1814 768.716 53.468 768.716 Q54.4019 768.716 55.2393 768.974 Q56.0444 769.199 58.2022 770.037 Q66.8978 773.418 71.149 773.418 Q72.1796 773.418 73.0491 773.257 Q73.8865 773.064 74.7238 772.645 Q75.529 772.227 76.0121 771.389 Q76.463 770.52 76.463 769.328 Q76.463 767.814 75.7544 766.397 Q75.0137 764.948 74.0153 764.046 Q73.0169 763.112 72.1796 762.565 Q71.31 761.985 70.8591 761.856 L59.0074 758.893 L53.7256 757.573 Q50.8593 756.961 50.1508 756.671 Q49.4745 756.285 49.1202 755.608 Q48.7659 754.932 48.7659 754.352 Q48.7659 753.547 49.249 753 Q49.7321 752.42 50.5695 752.42 Z" fill="#000000" fill-rule="evenodd" fill-opacity="1" /><polyline clip-path="url(#clip963)" style="stroke:#009af9; stroke-width:4; stroke-opacity:1; fill:none" points="
  260.49,1407.21 486.193,1026.67 711.896,535.556 937.599,126.619 1163.3,1265.67 1389,989.806 1614.71,863.255 1840.41,1144.58 2066.11,751.331 2291.82,126.487 
  
  "/>
<path clip-path="url(#clip960)" d="
M1990.72 254.277 L2280.98 254.277 L2280.98 133.317 L1990.72 133.317  Z
  " fill="#ffffff" fill-rule="evenodd" fill-opacity="1"/>
<polyline clip-path="url(#clip960)" style="stroke:#000000; stroke-width:4; stroke-opacity:1; fill:none" points="
  1990.72,254.277 2280.98,254.277 2280.98,133.317 1990.72,133.317 1990.72,254.277 
  "/>
<polyline clip-path="url(#clip960)" style="stroke:#009af9; stroke-width:4; stroke-opacity:1; fill:none" points="
  2014.64,193.797 2158.19,193.797 
  "/>
<path clip-path="url(#clip960)" d="M 0 0 M2195.96 213.484 Q2194.15 218.114 2192.44 219.526 Q2190.73 220.938 2187.86 220.938 L2184.45 220.938 L2184.45 217.373 L2186.95 217.373 Q2188.71 217.373 2189.68 216.54 Q2190.66 215.707 2191.84 212.605 L2192.6 210.66 L2182.12 185.151 L2186.63 185.151 L2194.73 205.429 L2202.83 185.151 L2207.35 185.151 L2195.96 213.484 Z" fill="#000000" fill-rule="evenodd" fill-opacity="1" /><path clip-path="url(#clip960)" d="M 0 0 M2213.23 207.142 L2220.86 207.142 L2220.86 180.776 L2212.55 182.443 L2212.55 178.184 L2220.82 176.517 L2225.49 176.517 L2225.49 207.142 L2233.13 207.142 L2233.13 211.077 L2213.23 211.077 L2213.23 207.142 Z" fill="#000000" fill-rule="evenodd" fill-opacity="1" /></svg>
