<?xml version="1.0" encoding="utf-8"?>
<svg xmlns="http://www.w3.org/2000/svg" xmlns:xlink="http://www.w3.org/1999/xlink" width="600" height="400" viewBox="0 0 2400 1600">
<defs>
  <clipPath id="clip410">
    <rect x="0" y="0" width="2400" height="1600"/>
  </clipPath>
</defs>
<path clip-path="url(#clip410)" d="
M0 1600 L2400 1600 L2400 0 L0 0  Z
  " fill="#ffffff" fill-rule="evenodd" fill-opacity="1"/>
<defs>
  <clipPath id="clip411">
    <rect x="480" y="0" width="1681" height="1600"/>
  </clipPath>
</defs>
<path clip-path="url(#clip410)" d="
M211.141 1447.17 L2352.76 1447.17 L2352.76 47.2441 L211.141 47.2441  Z
  " fill="#ffffff" fill-rule="evenodd" fill-opacity="1"/>
<defs>
  <clipPath id="clip412">
    <rect x="211" y="47" width="2143" height="1401"/>
  </clipPath>
</defs>
<polyline clip-path="url(#clip412)" style="stroke:#000000; stroke-width:2; stroke-opacity:0.1; fill:none" points="
  496.241,1447.17 496.241,47.2441 
  "/>
<polyline clip-path="url(#clip412)" style="stroke:#000000; stroke-width:2; stroke-opacity:0.1; fill:none" points="
  945.217,1447.17 945.217,47.2441 
  "/>
<polyline clip-path="url(#clip412)" style="stroke:#000000; stroke-width:2; stroke-opacity:0.1; fill:none" points="
  1394.19,1447.17 1394.19,47.2441 
  "/>
<polyline clip-path="url(#clip412)" style="stroke:#000000; stroke-width:2; stroke-opacity:0.1; fill:none" points="
  1843.17,1447.17 1843.17,47.2441 
  "/>
<polyline clip-path="url(#clip412)" style="stroke:#000000; stroke-width:2; stroke-opacity:0.1; fill:none" points="
  2292.14,1447.17 2292.14,47.2441 
  "/>
<polyline clip-path="url(#clip412)" style="stroke:#000000; stroke-width:2; stroke-opacity:0.1; fill:none" points="
  211.141,1276.83 2352.76,1276.83 
  "/>
<polyline clip-path="url(#clip412)" style="stroke:#000000; stroke-width:2; stroke-opacity:0.1; fill:none" points="
  211.141,1073.2 2352.76,1073.2 
  "/>
<polyline clip-path="url(#clip412)" style="stroke:#000000; stroke-width:2; stroke-opacity:0.1; fill:none" points="
  211.141,869.563 2352.76,869.563 
  "/>
<polyline clip-path="url(#clip412)" style="stroke:#000000; stroke-width:2; stroke-opacity:0.1; fill:none" points="
  211.141,665.928 2352.76,665.928 
  "/>
<polyline clip-path="url(#clip412)" style="stroke:#000000; stroke-width:2; stroke-opacity:0.1; fill:none" points="
  211.141,462.293 2352.76,462.293 
  "/>
<polyline clip-path="url(#clip412)" style="stroke:#000000; stroke-width:2; stroke-opacity:0.1; fill:none" points="
  211.141,258.658 2352.76,258.658 
  "/>
<polyline clip-path="url(#clip412)" style="stroke:#000000; stroke-width:2; stroke-opacity:0.1; fill:none" points="
  211.141,55.0223 2352.76,55.0223 
  "/>
<polyline clip-path="url(#clip410)" style="stroke:#000000; stroke-width:4; stroke-opacity:1; fill:none" points="
  211.141,1447.17 2352.76,1447.17 
  "/>
<polyline clip-path="url(#clip410)" style="stroke:#000000; stroke-width:4; stroke-opacity:1; fill:none" points="
  211.141,1447.17 211.141,47.2441 
  "/>
<polyline clip-path="url(#clip410)" style="stroke:#000000; stroke-width:4; stroke-opacity:1; fill:none" points="
  496.241,1447.17 496.241,1430.37 
  "/>
<polyline clip-path="url(#clip410)" style="stroke:#000000; stroke-width:4; stroke-opacity:1; fill:none" points="
  945.217,1447.17 945.217,1430.37 
  "/>
<polyline clip-path="url(#clip410)" style="stroke:#000000; stroke-width:4; stroke-opacity:1; fill:none" points="
  1394.19,1447.17 1394.19,1430.37 
  "/>
<polyline clip-path="url(#clip410)" style="stroke:#000000; stroke-width:4; stroke-opacity:1; fill:none" points="
  1843.17,1447.17 1843.17,1430.37 
  "/>
<polyline clip-path="url(#clip410)" style="stroke:#000000; stroke-width:4; stroke-opacity:1; fill:none" points="
  2292.14,1447.17 2292.14,1430.37 
  "/>
<polyline clip-path="url(#clip410)" style="stroke:#000000; stroke-width:4; stroke-opacity:1; fill:none" points="
  211.141,1276.83 236.841,1276.83 
  "/>
<polyline clip-path="url(#clip410)" style="stroke:#000000; stroke-width:4; stroke-opacity:1; fill:none" points="
  211.141,1073.2 236.841,1073.2 
  "/>
<polyline clip-path="url(#clip410)" style="stroke:#000000; stroke-width:4; stroke-opacity:1; fill:none" points="
  211.141,869.563 236.841,869.563 
  "/>
<polyline clip-path="url(#clip410)" style="stroke:#000000; stroke-width:4; stroke-opacity:1; fill:none" points="
  211.141,665.928 236.841,665.928 
  "/>
<polyline clip-path="url(#clip410)" style="stroke:#000000; stroke-width:4; stroke-opacity:1; fill:none" points="
  211.141,462.293 236.841,462.293 
  "/>
<polyline clip-path="url(#clip410)" style="stroke:#000000; stroke-width:4; stroke-opacity:1; fill:none" points="
  211.141,258.658 236.841,258.658 
  "/>
<polyline clip-path="url(#clip410)" style="stroke:#000000; stroke-width:4; stroke-opacity:1; fill:none" points="
  211.141,55.0223 236.841,55.0223 
  "/>
<path clip-path="url(#clip410)" d="M 0 0 M490.894 1496.71 L507.213 1496.71 L507.213 1500.64 L485.269 1500.64 L485.269 1496.71 Q487.931 1493.95 492.514 1489.32 Q497.121 1484.67 498.301 1483.33 Q500.546 1480.8 501.426 1479.07 Q502.329 1477.31 502.329 1475.62 Q502.329 1472.86 500.384 1471.13 Q498.463 1469.39 495.361 1469.39 Q493.162 1469.39 490.709 1470.16 Q488.278 1470.92 485.5 1472.47 L485.5 1467.75 Q488.324 1466.61 490.778 1466.04 Q493.232 1465.46 495.269 1465.46 Q500.639 1465.46 503.833 1468.14 Q507.028 1470.83 507.028 1475.32 Q507.028 1477.45 506.218 1479.37 Q505.431 1481.27 503.324 1483.86 Q502.745 1484.53 499.644 1487.75 Q496.542 1490.94 490.894 1496.71 Z" fill="#000000" fill-rule="evenodd" fill-opacity="1" /><path clip-path="url(#clip410)" d="M 0 0 M948.226 1470.16 L936.42 1488.61 L948.226 1488.61 L948.226 1470.16 M946.999 1466.08 L952.879 1466.08 L952.879 1488.61 L957.809 1488.61 L957.809 1492.49 L952.879 1492.49 L952.879 1500.64 L948.226 1500.64 L948.226 1492.49 L932.624 1492.49 L932.624 1487.98 L946.999 1466.08 Z" fill="#000000" fill-rule="evenodd" fill-opacity="1" /><path clip-path="url(#clip410)" d="M 0 0 M1394.6 1481.5 Q1391.45 1481.5 1389.6 1483.65 Q1387.77 1485.8 1387.77 1489.55 Q1387.77 1493.28 1389.6 1495.46 Q1391.45 1497.61 1394.6 1497.61 Q1397.75 1497.61 1399.57 1495.46 Q1401.43 1493.28 1401.43 1489.55 Q1401.43 1485.8 1399.57 1483.65 Q1397.75 1481.5 1394.6 1481.5 M1403.88 1466.85 L1403.88 1471.11 Q1402.12 1470.27 1400.32 1469.83 Q1398.53 1469.39 1396.77 1469.39 Q1392.14 1469.39 1389.69 1472.52 Q1387.26 1475.64 1386.91 1481.96 Q1388.28 1479.95 1390.34 1478.88 Q1392.4 1477.8 1394.88 1477.8 Q1400.08 1477.8 1403.09 1480.97 Q1406.13 1484.11 1406.13 1489.55 Q1406.13 1494.88 1402.98 1498.1 Q1399.83 1501.31 1394.6 1501.31 Q1388.6 1501.31 1385.43 1496.73 Q1382.26 1492.12 1382.26 1483.4 Q1382.26 1475.2 1386.15 1470.34 Q1390.04 1465.46 1396.59 1465.46 Q1398.35 1465.46 1400.13 1465.8 Q1401.94 1466.15 1403.88 1466.85 Z" fill="#000000" fill-rule="evenodd" fill-opacity="1" /><path clip-path="url(#clip410)" d="M 0 0 M1843.17 1484.23 Q1839.84 1484.23 1837.91 1486.01 Q1836.02 1487.8 1836.02 1490.92 Q1836.02 1494.05 1837.91 1495.83 Q1839.84 1497.61 1843.17 1497.61 Q1846.5 1497.61 1848.42 1495.83 Q1850.34 1494.02 1850.34 1490.92 Q1850.34 1487.8 1848.42 1486.01 Q1846.52 1484.23 1843.17 1484.23 M1838.49 1482.24 Q1835.48 1481.5 1833.79 1479.44 Q1832.13 1477.38 1832.13 1474.42 Q1832.13 1470.27 1835.07 1467.86 Q1838.03 1465.46 1843.17 1465.46 Q1848.33 1465.46 1851.27 1467.86 Q1854.21 1470.27 1854.21 1474.42 Q1854.21 1477.38 1852.52 1479.44 Q1850.85 1481.5 1847.87 1482.24 Q1851.25 1483.03 1853.12 1485.32 Q1855.02 1487.61 1855.02 1490.92 Q1855.02 1495.94 1851.94 1498.63 Q1848.89 1501.31 1843.17 1501.31 Q1837.45 1501.31 1834.37 1498.63 Q1831.32 1495.94 1831.32 1490.92 Q1831.32 1487.61 1833.21 1485.32 Q1835.11 1483.03 1838.49 1482.24 M1836.78 1474.86 Q1836.78 1477.54 1838.45 1479.05 Q1840.14 1480.55 1843.17 1480.55 Q1846.18 1480.55 1847.87 1479.05 Q1849.58 1477.54 1849.58 1474.86 Q1849.58 1472.17 1847.87 1470.67 Q1846.18 1469.16 1843.17 1469.16 Q1840.14 1469.16 1838.45 1470.67 Q1836.78 1472.17 1836.78 1474.86 Z" fill="#000000" fill-rule="evenodd" fill-opacity="1" /><path clip-path="url(#clip410)" d="M 0 0 M2269.02 1496.71 L2276.66 1496.71 L2276.66 1470.34 L2268.35 1472.01 L2268.35 1467.75 L2276.61 1466.08 L2281.29 1466.08 L2281.29 1496.71 L2288.93 1496.71 L2288.93 1500.64 L2269.02 1500.64 L2269.02 1496.71 Z" fill="#000000" fill-rule="evenodd" fill-opacity="1" /><path clip-path="url(#clip410)" d="M 0 0 M2304 1469.16 Q2300.38 1469.16 2298.56 1472.73 Q2296.75 1476.27 2296.75 1483.4 Q2296.75 1490.5 2298.56 1494.07 Q2300.38 1497.61 2304 1497.61 Q2307.63 1497.61 2309.44 1494.07 Q2311.26 1490.5 2311.26 1483.4 Q2311.26 1476.27 2309.44 1472.73 Q2307.63 1469.16 2304 1469.16 M2304 1465.46 Q2309.81 1465.46 2312.86 1470.06 Q2315.94 1474.65 2315.94 1483.4 Q2315.94 1492.12 2312.86 1496.73 Q2309.81 1501.31 2304 1501.31 Q2298.19 1501.31 2295.11 1496.73 Q2292.05 1492.12 2292.05 1483.4 Q2292.05 1474.65 2295.11 1470.06 Q2298.19 1465.46 2304 1465.46 Z" fill="#000000" fill-rule="evenodd" fill-opacity="1" /><path clip-path="url(#clip410)" d="M 0 0 M139.456 1262.63 Q135.845 1262.63 134.017 1266.2 Q132.211 1269.74 132.211 1276.87 Q132.211 1283.98 134.017 1287.54 Q135.845 1291.08 139.456 1291.08 Q143.091 1291.08 144.896 1287.54 Q146.725 1283.98 146.725 1276.87 Q146.725 1269.74 144.896 1266.2 Q143.091 1262.63 139.456 1262.63 M139.456 1258.93 Q145.266 1258.93 148.322 1263.54 Q151.401 1268.12 151.401 1276.87 Q151.401 1285.6 148.322 1290.2 Q145.266 1294.79 139.456 1294.79 Q133.646 1294.79 130.567 1290.2 Q127.512 1285.6 127.512 1276.87 Q127.512 1268.12 130.567 1263.54 Q133.646 1258.93 139.456 1258.93 Z" fill="#000000" fill-rule="evenodd" fill-opacity="1" /><path clip-path="url(#clip410)" d="M 0 0 M156.47 1288.23 L161.354 1288.23 L161.354 1294.11 L156.47 1294.11 L156.47 1288.23 Z" fill="#000000" fill-rule="evenodd" fill-opacity="1" /><path clip-path="url(#clip410)" d="M 0 0 M167.234 1290.18 L174.873 1290.18 L174.873 1263.81 L166.563 1265.48 L166.563 1261.22 L174.826 1259.55 L179.502 1259.55 L179.502 1290.18 L187.141 1290.18 L187.141 1294.11 L167.234 1294.11 L167.234 1290.18 Z" fill="#000000" fill-rule="evenodd" fill-opacity="1" /><path clip-path="url(#clip410)" d="M 0 0 M139.827 1059 Q136.216 1059 134.387 1062.56 Q132.581 1066.1 132.581 1073.23 Q132.581 1080.34 134.387 1083.9 Q136.216 1087.45 139.827 1087.45 Q143.461 1087.45 145.266 1083.9 Q147.095 1080.34 147.095 1073.23 Q147.095 1066.1 145.266 1062.56 Q143.461 1059 139.827 1059 M139.827 1055.29 Q145.637 1055.29 148.692 1059.9 Q151.771 1064.48 151.771 1073.23 Q151.771 1081.96 148.692 1086.57 Q145.637 1091.15 139.827 1091.15 Q134.017 1091.15 130.938 1086.57 Q127.882 1081.96 127.882 1073.23 Q127.882 1064.48 130.938 1059.9 Q134.017 1055.29 139.827 1055.29 Z" fill="#000000" fill-rule="evenodd" fill-opacity="1" /><path clip-path="url(#clip410)" d="M 0 0 M156.84 1084.6 L161.725 1084.6 L161.725 1090.48 L156.84 1090.48 L156.84 1084.6 Z" fill="#000000" fill-rule="evenodd" fill-opacity="1" /><path clip-path="url(#clip410)" d="M 0 0 M170.822 1086.54 L187.141 1086.54 L187.141 1090.48 L165.197 1090.48 L165.197 1086.54 Q167.859 1083.79 172.442 1079.16 Q177.049 1074.51 178.229 1073.16 Q180.475 1070.64 181.354 1068.9 Q182.257 1067.15 182.257 1065.46 Q182.257 1062.7 180.313 1060.96 Q178.391 1059.23 175.289 1059.23 Q173.09 1059.23 170.637 1059.99 Q168.206 1060.76 165.428 1062.31 L165.428 1057.59 Q168.252 1056.45 170.706 1055.87 Q173.16 1055.29 175.197 1055.29 Q180.567 1055.29 183.762 1057.98 Q186.956 1060.66 186.956 1065.15 Q186.956 1067.28 186.146 1069.21 Q185.359 1071.1 183.252 1073.7 Q182.674 1074.37 179.572 1077.59 Q176.47 1080.78 170.822 1086.54 Z" fill="#000000" fill-rule="evenodd" fill-opacity="1" /><path clip-path="url(#clip410)" d="M 0 0 M138.878 855.362 Q135.267 855.362 133.438 858.927 Q131.632 862.468 131.632 869.598 Q131.632 876.705 133.438 880.269 Q135.267 883.811 138.878 883.811 Q142.512 883.811 144.317 880.269 Q146.146 876.705 146.146 869.598 Q146.146 862.468 144.317 858.927 Q142.512 855.362 138.878 855.362 M138.878 851.658 Q144.688 851.658 147.743 856.265 Q150.822 860.848 150.822 869.598 Q150.822 878.325 147.743 882.931 Q144.688 887.515 138.878 887.515 Q133.067 887.515 129.989 882.931 Q126.933 878.325 126.933 869.598 Q126.933 860.848 129.989 856.265 Q133.067 851.658 138.878 851.658 Z" fill="#000000" fill-rule="evenodd" fill-opacity="1" /><path clip-path="url(#clip410)" d="M 0 0 M155.891 880.964 L160.776 880.964 L160.776 886.843 L155.891 886.843 L155.891 880.964 Z" fill="#000000" fill-rule="evenodd" fill-opacity="1" /><path clip-path="url(#clip410)" d="M 0 0 M180.012 868.209 Q183.368 868.927 185.243 871.195 Q187.141 873.464 187.141 876.797 Q187.141 881.913 183.623 884.714 Q180.104 887.515 173.623 887.515 Q171.447 887.515 169.132 887.075 Q166.84 886.658 164.387 885.802 L164.387 881.288 Q166.331 882.422 168.646 883.001 Q170.961 883.579 173.484 883.579 Q177.882 883.579 180.174 881.843 Q182.488 880.107 182.488 876.797 Q182.488 873.742 180.336 872.029 Q178.206 870.293 174.387 870.293 L170.359 870.293 L170.359 866.45 L174.572 866.45 Q178.021 866.45 179.85 865.084 Q181.678 863.695 181.678 861.103 Q181.678 858.441 179.78 857.029 Q177.905 855.594 174.387 855.594 Q172.465 855.594 170.266 856.01 Q168.067 856.427 165.428 857.306 L165.428 853.14 Q168.09 852.399 170.405 852.029 Q172.743 851.658 174.803 851.658 Q180.127 851.658 183.229 854.089 Q186.331 856.496 186.331 860.617 Q186.331 863.487 184.688 865.478 Q183.044 867.445 180.012 868.209 Z" fill="#000000" fill-rule="evenodd" fill-opacity="1" /><path clip-path="url(#clip410)" d="M 0 0 M137.743 651.727 Q134.132 651.727 132.304 655.292 Q130.498 658.833 130.498 665.963 Q130.498 673.069 132.304 676.634 Q134.132 680.176 137.743 680.176 Q141.378 680.176 143.183 676.634 Q145.012 673.069 145.012 665.963 Q145.012 658.833 143.183 655.292 Q141.378 651.727 137.743 651.727 M137.743 648.023 Q143.554 648.023 146.609 652.63 Q149.688 657.213 149.688 665.963 Q149.688 674.69 146.609 679.296 Q143.554 683.879 137.743 683.879 Q131.933 683.879 128.855 679.296 Q125.799 674.69 125.799 665.963 Q125.799 657.213 128.855 652.63 Q131.933 648.023 137.743 648.023 Z" fill="#000000" fill-rule="evenodd" fill-opacity="1" /><path clip-path="url(#clip410)" d="M 0 0 M154.757 677.328 L159.641 677.328 L159.641 683.208 L154.757 683.208 L154.757 677.328 Z" fill="#000000" fill-rule="evenodd" fill-opacity="1" /><path clip-path="url(#clip410)" d="M 0 0 M177.558 652.722 L165.752 671.171 L177.558 671.171 L177.558 652.722 M176.331 648.648 L182.211 648.648 L182.211 671.171 L187.141 671.171 L187.141 675.06 L182.211 675.06 L182.211 683.208 L177.558 683.208 L177.558 675.06 L161.956 675.06 L161.956 670.546 L176.331 648.648 Z" fill="#000000" fill-rule="evenodd" fill-opacity="1" /><path clip-path="url(#clip410)" d="M 0 0 M139.225 448.091 Q135.614 448.091 133.785 451.656 Q131.98 455.198 131.98 462.328 Q131.98 469.434 133.785 472.999 Q135.614 476.54 139.225 476.54 Q142.859 476.54 144.665 472.999 Q146.493 469.434 146.493 462.328 Q146.493 455.198 144.665 451.656 Q142.859 448.091 139.225 448.091 M139.225 444.388 Q145.035 444.388 148.091 448.994 Q151.169 453.578 151.169 462.328 Q151.169 471.054 148.091 475.661 Q145.035 480.244 139.225 480.244 Q133.415 480.244 130.336 475.661 Q127.28 471.054 127.28 462.328 Q127.28 453.578 130.336 448.994 Q133.415 444.388 139.225 444.388 Z" fill="#000000" fill-rule="evenodd" fill-opacity="1" /><path clip-path="url(#clip410)" d="M 0 0 M156.239 473.693 L161.123 473.693 L161.123 479.573 L156.239 479.573 L156.239 473.693 Z" fill="#000000" fill-rule="evenodd" fill-opacity="1" /><path clip-path="url(#clip410)" d="M 0 0 M166.239 445.013 L184.595 445.013 L184.595 448.948 L170.521 448.948 L170.521 457.42 Q171.539 457.073 172.558 456.911 Q173.577 456.726 174.595 456.726 Q180.382 456.726 183.762 459.897 Q187.141 463.068 187.141 468.485 Q187.141 474.064 183.669 477.165 Q180.197 480.244 173.877 480.244 Q171.702 480.244 169.433 479.874 Q167.188 479.503 164.78 478.763 L164.78 474.064 Q166.864 475.198 169.086 475.753 Q171.308 476.309 173.785 476.309 Q177.789 476.309 180.127 474.202 Q182.465 472.096 182.465 468.485 Q182.465 464.874 180.127 462.767 Q177.789 460.661 173.785 460.661 Q171.91 460.661 170.035 461.078 Q168.183 461.494 166.239 462.374 L166.239 445.013 Z" fill="#000000" fill-rule="evenodd" fill-opacity="1" /><path clip-path="url(#clip410)" d="M 0 0 M138.067 244.456 Q134.456 244.456 132.628 248.021 Q130.822 251.563 130.822 258.692 Q130.822 265.799 132.628 269.363 Q134.456 272.905 138.067 272.905 Q141.702 272.905 143.507 269.363 Q145.336 265.799 145.336 258.692 Q145.336 251.563 143.507 248.021 Q141.702 244.456 138.067 244.456 M138.067 240.753 Q143.878 240.753 146.933 245.359 Q150.012 249.942 150.012 258.692 Q150.012 267.419 146.933 272.026 Q143.878 276.609 138.067 276.609 Q132.257 276.609 129.179 272.026 Q126.123 267.419 126.123 258.692 Q126.123 249.942 129.179 245.359 Q132.257 240.753 138.067 240.753 Z" fill="#000000" fill-rule="evenodd" fill-opacity="1" /><path clip-path="url(#clip410)" d="M 0 0 M155.081 270.058 L159.965 270.058 L159.965 275.938 L155.081 275.938 L155.081 270.058 Z" fill="#000000" fill-rule="evenodd" fill-opacity="1" /><path clip-path="url(#clip410)" d="M 0 0 M175.614 256.794 Q172.465 256.794 170.614 258.947 Q168.785 261.1 168.785 264.85 Q168.785 268.576 170.614 270.752 Q172.465 272.905 175.614 272.905 Q178.762 272.905 180.59 270.752 Q182.442 268.576 182.442 264.85 Q182.442 261.1 180.59 258.947 Q178.762 256.794 175.614 256.794 M184.896 242.141 L184.896 246.401 Q183.137 245.567 181.331 245.128 Q179.549 244.688 177.789 244.688 Q173.16 244.688 170.706 247.813 Q168.276 250.938 167.928 257.257 Q169.294 255.243 171.354 254.178 Q173.414 253.09 175.891 253.09 Q181.1 253.09 184.109 256.262 Q187.141 259.41 187.141 264.85 Q187.141 270.174 183.993 273.391 Q180.845 276.609 175.614 276.609 Q169.618 276.609 166.447 272.026 Q163.276 267.419 163.276 258.692 Q163.276 250.498 167.165 245.637 Q171.053 240.753 177.604 240.753 Q179.364 240.753 181.146 241.1 Q182.951 241.447 184.896 242.141 Z" fill="#000000" fill-rule="evenodd" fill-opacity="1" /><path clip-path="url(#clip410)" d="M 0 0 M139.132 40.8209 Q135.521 40.8209 133.692 44.3857 Q131.887 47.9274 131.887 55.057 Q131.887 62.1634 133.692 65.7282 Q135.521 69.2699 139.132 69.2699 Q142.766 69.2699 144.572 65.7282 Q146.401 62.1634 146.401 55.057 Q146.401 47.9274 144.572 44.3857 Q142.766 40.8209 139.132 40.8209 M139.132 37.1173 Q144.942 37.1173 147.998 41.7237 Q151.077 46.307 151.077 55.057 Q151.077 63.7838 147.998 68.3902 Q144.942 72.9735 139.132 72.9735 Q133.322 72.9735 130.243 68.3902 Q127.188 63.7838 127.188 55.057 Q127.188 46.307 130.243 41.7237 Q133.322 37.1173 139.132 37.1173 Z" fill="#000000" fill-rule="evenodd" fill-opacity="1" /><path clip-path="url(#clip410)" d="M 0 0 M156.146 66.4227 L161.03 66.4227 L161.03 72.3023 L156.146 72.3023 L156.146 66.4227 Z" fill="#000000" fill-rule="evenodd" fill-opacity="1" /><path clip-path="url(#clip410)" d="M 0 0 M164.919 37.7423 L187.141 37.7423 L187.141 39.733 L174.595 72.3023 L169.711 72.3023 L181.516 41.6774 L164.919 41.6774 L164.919 37.7423 Z" fill="#000000" fill-rule="evenodd" fill-opacity="1" /><path clip-path="url(#clip410)" d="M 0 0 M1296.11 1527.48 Q1296.11 1529.28 1294.98 1530.31 Q1293.85 1531.31 1292.57 1531.31 Q1291.34 1531.31 1290.7 1530.6 Q1290.05 1529.89 1290.05 1528.99 Q1290.05 1527.77 1290.96 1526.7 Q1291.86 1525.64 1293.21 1525.42 Q1291.89 1524.58 1289.93 1524.58 Q1288.64 1524.58 1287.51 1525.26 Q1286.41 1525.93 1285.74 1526.8 Q1285.09 1527.67 1284.51 1528.93 Q1283.97 1530.15 1283.74 1530.89 Q1283.55 1531.6 1283.39 1532.37 L1281.13 1541.39 Q1280.04 1545.67 1280.04 1547.19 Q1280.04 1549.06 1280.94 1550.31 Q1281.84 1551.54 1283.64 1551.54 Q1284.35 1551.54 1285.16 1551.34 Q1285.96 1551.12 1286.99 1550.54 Q1288.06 1549.93 1288.99 1549.02 Q1289.96 1548.09 1290.89 1546.51 Q1291.83 1544.93 1292.44 1542.9 Q1292.63 1542.2 1293.27 1542.2 Q1294.08 1542.2 1294.08 1542.84 Q1294.08 1543.39 1293.63 1544.55 Q1293.21 1545.67 1292.28 1547.16 Q1291.37 1548.6 1290.18 1549.93 Q1288.99 1551.21 1287.22 1552.12 Q1285.45 1553.02 1283.52 1553.02 Q1280.75 1553.02 1278.91 1551.54 Q1277.07 1550.05 1276.4 1547.99 Q1276.24 1548.28 1276.01 1548.67 Q1275.79 1549.06 1275.11 1549.93 Q1274.47 1550.76 1273.73 1551.41 Q1272.98 1552.02 1271.83 1552.5 Q1270.7 1553.02 1269.47 1553.02 Q1267.93 1553.02 1266.54 1552.57 Q1265.19 1552.12 1264.22 1551.08 Q1263.26 1550.05 1263.26 1548.64 Q1263.26 1547.06 1264.32 1545.96 Q1265.42 1544.84 1266.9 1544.84 Q1267.83 1544.84 1268.57 1545.38 Q1269.35 1545.93 1269.35 1547.12 Q1269.35 1548.44 1268.44 1549.44 Q1267.54 1550.44 1266.25 1550.7 Q1267.57 1551.54 1269.54 1551.54 Q1271.66 1551.54 1273.34 1549.67 Q1275.01 1547.8 1275.82 1544.68 Q1277.82 1537.17 1278.59 1533.82 Q1279.36 1530.44 1279.36 1528.99 Q1279.36 1527.64 1279.01 1526.7 Q1278.65 1525.77 1278.04 1525.35 Q1277.46 1524.9 1276.91 1524.74 Q1276.4 1524.58 1275.82 1524.58 Q1274.85 1524.58 1273.76 1524.97 Q1272.69 1525.35 1271.41 1526.25 Q1270.15 1527.12 1268.96 1528.93 Q1267.77 1530.73 1266.96 1533.21 Q1266.8 1533.95 1266.09 1533.95 Q1265.32 1533.92 1265.32 1533.27 Q1265.32 1532.73 1265.74 1531.6 Q1266.19 1530.44 1267.09 1528.99 Q1268.03 1527.54 1269.22 1526.25 Q1270.44 1524.93 1272.21 1524.03 Q1274.02 1523.13 1275.95 1523.13 Q1276.82 1523.13 1277.65 1523.32 Q1278.52 1523.48 1279.55 1523.97 Q1280.62 1524.45 1281.55 1525.51 Q1282.49 1526.58 1283.07 1528.12 Q1283.45 1527.38 1283.97 1526.67 Q1284.51 1525.96 1285.35 1525.09 Q1286.22 1524.19 1287.41 1523.68 Q1288.64 1523.13 1289.99 1523.13 Q1291.31 1523.13 1292.6 1523.48 Q1293.89 1523.81 1294.98 1524.87 Q1296.11 1525.9 1296.11 1527.48 Z" fill="#000000" fill-rule="evenodd" fill-opacity="1" /><path clip-path="url(#clip410)" d="M 0 0 M60.8835 732.781 Q61.3344 732.781 62.3972 733.071 L87.5821 739.384 Q93.186 740.768 97.1151 745.277 Q101.044 749.754 101.044 754.842 Q101.044 757.902 99.4017 759.866 Q97.7914 761.831 95.3115 761.831 Q93.1216 761.831 92.0588 760.672 Q91.0282 759.512 91.0282 758.127 Q91.0282 757.676 91.157 757.193 Q91.2858 756.71 91.8333 756.195 Q92.3808 755.68 93.3148 755.68 Q94.8285 755.68 96.0201 757 Q96.5676 757.644 96.6964 758.256 Q96.8252 758.836 96.8252 759.834 Q97.727 759.448 98.3389 758.739 Q98.9508 758.031 99.1763 757.226 Q99.4339 756.42 99.4983 755.905 Q99.5949 755.358 99.5949 754.842 Q99.5949 750.72 95.4404 747.564 Q94.1843 746.63 92.9283 745.953 Q91.7045 745.245 90.1908 744.73 Q88.7093 744.214 87.9042 743.989 Q87.0991 743.731 85.2633 743.28 Q88.2585 746.276 88.2585 749.947 Q88.2585 751.493 87.8398 752.878 Q87.4211 754.23 86.5516 755.422 Q85.6498 756.614 84.0717 757.322 Q82.4936 757.998 80.4002 757.998 Q78.178 757.998 75.1507 757.129 Q72.1233 756.259 66.5517 754.166 Q63.4277 753.039 61.9141 753.039 Q61.1733 753.039 60.7225 753.2 Q60.2394 753.361 60.0783 753.683 Q59.8851 754.005 59.8529 754.198 Q59.8207 754.359 59.8207 754.681 Q59.8207 756.581 61.753 758.353 Q63.6854 760.124 68.001 761.348 Q68.8061 761.606 68.9994 761.767 Q69.1926 761.928 69.1926 762.411 Q69.1604 763.216 68.5163 763.216 Q68.2586 763.216 67.2602 762.926 Q66.2297 762.636 64.716 761.96 Q63.1701 761.251 61.7852 760.285 Q60.3682 759.319 59.3698 757.805 Q58.3714 756.259 58.3714 754.488 Q58.3714 752.073 59.9495 750.591 Q61.4954 749.077 63.782 749.077 Q64.716 749.077 65.5533 749.335 Q66.3585 749.561 68.5163 750.398 Q77.2119 753.78 81.463 753.78 Q82.4936 753.78 83.3632 753.618 Q84.2005 753.425 85.0379 753.007 Q85.843 752.588 86.3261 751.751 Q86.777 750.881 86.777 749.689 Q86.777 748.176 86.0685 746.759 Q85.3277 745.309 84.3294 744.408 Q83.331 743.474 82.4936 742.926 Q81.6241 742.346 81.1732 742.218 L69.3214 739.255 L64.0397 737.934 Q61.1733 737.322 60.4648 737.032 Q59.7885 736.646 59.4342 735.97 Q59.08 735.293 59.08 734.714 Q59.08 733.909 59.563 733.361 Q60.0461 732.781 60.8835 732.781 Z" fill="#000000" fill-rule="evenodd" fill-opacity="1" /><polyline clip-path="url(#clip412)" style="stroke:#009af9; stroke-width:4; stroke-opacity:1; fill:none" points="
  271.753,193.916 496.241,821.768 720.729,345.62 945.217,1105.37 1169.7,1407.55 1394.19,1395.68 1618.68,875.488 1843.17,86.8647 2067.66,369.203 2292.14,1038.46 
  
  "/>
<path clip-path="url(#clip410)" d="
M1989.74 251.724 L2280.76 251.724 L2280.76 130.764 L1989.74 130.764  Z
  " fill="#ffffff" fill-rule="evenodd" fill-opacity="1"/>
<polyline clip-path="url(#clip410)" style="stroke:#000000; stroke-width:4; stroke-opacity:1; fill:none" points="
  1989.74,251.724 2280.76,251.724 2280.76,130.764 1989.74,130.764 1989.74,251.724 
  "/>
<polyline clip-path="url(#clip410)" style="stroke:#009af9; stroke-width:4; stroke-opacity:1; fill:none" points="
  2013.74,191.244 2157.74,191.244 
  "/>
<path clip-path="url(#clip410)" d="M 0 0 M2195.58 210.931 Q2193.77 215.561 2192.06 216.973 Q2190.35 218.385 2187.48 218.385 L2184.08 218.385 L2184.08 214.82 L2186.58 214.82 Q2188.33 214.82 2189.31 213.987 Q2190.28 213.154 2191.46 210.052 L2192.22 208.107 L2181.74 182.598 L2186.25 182.598 L2194.35 202.876 L2202.46 182.598 L2206.97 182.598 L2195.58 210.931 Z" fill="#000000" fill-rule="evenodd" fill-opacity="1" /><path clip-path="url(#clip410)" d="M 0 0 M2212.85 204.589 L2220.49 204.589 L2220.49 178.223 L2212.18 179.89 L2212.18 175.631 L2220.44 173.964 L2225.12 173.964 L2225.12 204.589 L2232.76 204.589 L2232.76 208.524 L2212.85 208.524 L2212.85 204.589 Z" fill="#000000" fill-rule="evenodd" fill-opacity="1" /></svg>
