<?xml version="1.0" encoding="utf-8"?>
<svg xmlns="http://www.w3.org/2000/svg" xmlns:xlink="http://www.w3.org/1999/xlink" width="600" height="400" viewBox="0 0 2400 1600">
<defs>
  <clipPath id="clip4900">
    <rect x="0" y="0" width="2400" height="1600"/>
  </clipPath>
</defs>
<path clip-path="url(#clip4900)" d="
M0 1600 L2400 1600 L2400 0 L0 0  Z
  " fill="#ffffff" fill-rule="evenodd" fill-opacity="1"/>
<defs>
  <clipPath id="clip4901">
    <rect x="480" y="0" width="1681" height="1600"/>
  </clipPath>
</defs>
<path clip-path="url(#clip4900)" d="
M226.671 1406.36 L2352.76 1406.36 L2352.76 47.2441 L226.671 47.2441  Z
  " fill="#ffffff" fill-rule="evenodd" fill-opacity="1"/>
<defs>
  <clipPath id="clip4902">
    <rect x="226" y="47" width="2127" height="1360"/>
  </clipPath>
</defs>
<polyline clip-path="url(#clip4902)" style="stroke:#000000; stroke-width:2; stroke-opacity:0.1; fill:none" points="
  509.703,1406.36 509.703,47.2441 
  "/>
<polyline clip-path="url(#clip4902)" style="stroke:#000000; stroke-width:2; stroke-opacity:0.1; fill:none" points="
  955.423,1406.36 955.423,47.2441 
  "/>
<polyline clip-path="url(#clip4902)" style="stroke:#000000; stroke-width:2; stroke-opacity:0.1; fill:none" points="
  1401.14,1406.36 1401.14,47.2441 
  "/>
<polyline clip-path="url(#clip4902)" style="stroke:#000000; stroke-width:2; stroke-opacity:0.1; fill:none" points="
  1846.86,1406.36 1846.86,47.2441 
  "/>
<polyline clip-path="url(#clip4902)" style="stroke:#000000; stroke-width:2; stroke-opacity:0.1; fill:none" points="
  2292.58,1406.36 2292.58,47.2441 
  "/>
<polyline clip-path="url(#clip4902)" style="stroke:#000000; stroke-width:2; stroke-opacity:0.1; fill:none" points="
  226.671,1304.41 2352.76,1304.41 
  "/>
<polyline clip-path="url(#clip4902)" style="stroke:#000000; stroke-width:2; stroke-opacity:0.1; fill:none" points="
  226.671,1123.58 2352.76,1123.58 
  "/>
<polyline clip-path="url(#clip4902)" style="stroke:#000000; stroke-width:2; stroke-opacity:0.1; fill:none" points="
  226.671,942.748 2352.76,942.748 
  "/>
<polyline clip-path="url(#clip4902)" style="stroke:#000000; stroke-width:2; stroke-opacity:0.1; fill:none" points="
  226.671,761.918 2352.76,761.918 
  "/>
<polyline clip-path="url(#clip4902)" style="stroke:#000000; stroke-width:2; stroke-opacity:0.1; fill:none" points="
  226.671,581.089 2352.76,581.089 
  "/>
<polyline clip-path="url(#clip4902)" style="stroke:#000000; stroke-width:2; stroke-opacity:0.1; fill:none" points="
  226.671,400.26 2352.76,400.26 
  "/>
<polyline clip-path="url(#clip4902)" style="stroke:#000000; stroke-width:2; stroke-opacity:0.1; fill:none" points="
  226.671,219.431 2352.76,219.431 
  "/>
<polyline clip-path="url(#clip4900)" style="stroke:#000000; stroke-width:4; stroke-opacity:1; fill:none" points="
  226.671,1406.36 2352.76,1406.36 
  "/>
<polyline clip-path="url(#clip4900)" style="stroke:#000000; stroke-width:4; stroke-opacity:1; fill:none" points="
  226.671,1406.36 226.671,47.2441 
  "/>
<polyline clip-path="url(#clip4900)" style="stroke:#000000; stroke-width:4; stroke-opacity:1; fill:none" points="
  509.703,1406.36 509.703,1390.05 
  "/>
<polyline clip-path="url(#clip4900)" style="stroke:#000000; stroke-width:4; stroke-opacity:1; fill:none" points="
  955.423,1406.36 955.423,1390.05 
  "/>
<polyline clip-path="url(#clip4900)" style="stroke:#000000; stroke-width:4; stroke-opacity:1; fill:none" points="
  1401.14,1406.36 1401.14,1390.05 
  "/>
<polyline clip-path="url(#clip4900)" style="stroke:#000000; stroke-width:4; stroke-opacity:1; fill:none" points="
  1846.86,1406.36 1846.86,1390.05 
  "/>
<polyline clip-path="url(#clip4900)" style="stroke:#000000; stroke-width:4; stroke-opacity:1; fill:none" points="
  2292.58,1406.36 2292.58,1390.05 
  "/>
<polyline clip-path="url(#clip4900)" style="stroke:#000000; stroke-width:4; stroke-opacity:1; fill:none" points="
  226.671,1304.41 252.184,1304.41 
  "/>
<polyline clip-path="url(#clip4900)" style="stroke:#000000; stroke-width:4; stroke-opacity:1; fill:none" points="
  226.671,1123.58 252.184,1123.58 
  "/>
<polyline clip-path="url(#clip4900)" style="stroke:#000000; stroke-width:4; stroke-opacity:1; fill:none" points="
  226.671,942.748 252.184,942.748 
  "/>
<polyline clip-path="url(#clip4900)" style="stroke:#000000; stroke-width:4; stroke-opacity:1; fill:none" points="
  226.671,761.918 252.184,761.918 
  "/>
<polyline clip-path="url(#clip4900)" style="stroke:#000000; stroke-width:4; stroke-opacity:1; fill:none" points="
  226.671,581.089 252.184,581.089 
  "/>
<polyline clip-path="url(#clip4900)" style="stroke:#000000; stroke-width:4; stroke-opacity:1; fill:none" points="
  226.671,400.26 252.184,400.26 
  "/>
<polyline clip-path="url(#clip4900)" style="stroke:#000000; stroke-width:4; stroke-opacity:1; fill:none" points="
  226.671,219.431 252.184,219.431 
  "/>
<path clip-path="url(#clip4900)" d="M 0 0 M504.356 1455.9 L520.675 1455.9 L520.675 1459.83 L498.731 1459.83 L498.731 1455.9 Q501.393 1453.14 505.976 1448.51 Q510.583 1443.86 511.763 1442.52 Q514.009 1440 514.888 1438.26 Q515.791 1436.5 515.791 1434.81 Q515.791 1432.06 513.846 1430.32 Q511.925 1428.58 508.823 1428.58 Q506.624 1428.58 504.171 1429.35 Q501.74 1430.11 498.962 1431.66 L498.962 1426.94 Q501.786 1425.81 504.24 1425.23 Q506.694 1424.65 508.731 1424.65 Q514.101 1424.65 517.296 1427.33 Q520.49 1430.02 520.49 1434.51 Q520.49 1436.64 519.68 1438.56 Q518.893 1440.46 516.786 1443.05 Q516.208 1443.72 513.106 1446.94 Q510.004 1450.13 504.356 1455.9 Z" fill="#000000" fill-rule="evenodd" fill-opacity="1" /><path clip-path="url(#clip4900)" d="M 0 0 M958.432 1429.35 L946.627 1447.8 L958.432 1447.8 L958.432 1429.35 M957.206 1425.27 L963.085 1425.27 L963.085 1447.8 L968.016 1447.8 L968.016 1451.68 L963.085 1451.68 L963.085 1459.83 L958.432 1459.83 L958.432 1451.68 L942.831 1451.68 L942.831 1447.17 L957.206 1425.27 Z" fill="#000000" fill-rule="evenodd" fill-opacity="1" /><path clip-path="url(#clip4900)" d="M 0 0 M1401.55 1440.69 Q1398.4 1440.69 1396.55 1442.84 Q1394.72 1445 1394.72 1448.75 Q1394.72 1452.47 1396.55 1454.65 Q1398.4 1456.8 1401.55 1456.8 Q1404.7 1456.8 1406.53 1454.65 Q1408.38 1452.47 1408.38 1448.75 Q1408.38 1445 1406.53 1442.84 Q1404.7 1440.69 1401.55 1440.69 M1410.83 1426.04 L1410.83 1430.3 Q1409.07 1429.46 1407.27 1429.02 Q1405.48 1428.58 1403.72 1428.58 Q1399.09 1428.58 1396.64 1431.71 Q1394.21 1434.83 1393.86 1441.15 Q1395.23 1439.14 1397.29 1438.07 Q1399.35 1436.99 1401.83 1436.99 Q1407.03 1436.99 1410.04 1440.16 Q1413.08 1443.31 1413.08 1448.75 Q1413.08 1454.07 1409.93 1457.29 Q1406.78 1460.5 1401.55 1460.5 Q1395.55 1460.5 1392.38 1455.92 Q1389.21 1451.31 1389.21 1442.59 Q1389.21 1434.39 1393.1 1429.53 Q1396.99 1424.65 1403.54 1424.65 Q1405.3 1424.65 1407.08 1425 Q1408.89 1425.34 1410.83 1426.04 Z" fill="#000000" fill-rule="evenodd" fill-opacity="1" /><path clip-path="url(#clip4900)" d="M 0 0 M1846.86 1443.42 Q1843.53 1443.42 1841.61 1445.2 Q1839.71 1446.99 1839.71 1450.11 Q1839.71 1453.24 1841.61 1455.02 Q1843.53 1456.8 1846.86 1456.8 Q1850.2 1456.8 1852.12 1455.02 Q1854.04 1453.21 1854.04 1450.11 Q1854.04 1446.99 1852.12 1445.2 Q1850.22 1443.42 1846.86 1443.42 M1842.19 1441.43 Q1839.18 1440.69 1837.49 1438.63 Q1835.82 1436.57 1835.82 1433.61 Q1835.82 1429.46 1838.76 1427.06 Q1841.72 1424.65 1846.86 1424.65 Q1852.03 1424.65 1854.97 1427.06 Q1857.91 1429.46 1857.91 1433.61 Q1857.91 1436.57 1856.22 1438.63 Q1854.55 1440.69 1851.56 1441.43 Q1854.94 1442.22 1856.82 1444.51 Q1858.72 1446.8 1858.72 1450.11 Q1858.72 1455.13 1855.64 1457.82 Q1852.58 1460.5 1846.86 1460.5 Q1841.15 1460.5 1838.07 1457.82 Q1835.01 1455.13 1835.01 1450.11 Q1835.01 1446.8 1836.91 1444.51 Q1838.81 1442.22 1842.19 1441.43 M1840.47 1434.05 Q1840.47 1436.73 1842.14 1438.24 Q1843.83 1439.74 1846.86 1439.74 Q1849.87 1439.74 1851.56 1438.24 Q1853.28 1436.73 1853.28 1434.05 Q1853.28 1431.36 1851.56 1429.86 Q1849.87 1428.35 1846.86 1428.35 Q1843.83 1428.35 1842.14 1429.86 Q1840.47 1431.36 1840.47 1434.05 Z" fill="#000000" fill-rule="evenodd" fill-opacity="1" /><path clip-path="url(#clip4900)" d="M 0 0 M2269.46 1455.9 L2277.1 1455.9 L2277.1 1429.53 L2268.79 1431.2 L2268.79 1426.94 L2277.05 1425.27 L2281.73 1425.27 L2281.73 1455.9 L2289.37 1455.9 L2289.37 1459.83 L2269.46 1459.83 L2269.46 1455.9 Z" fill="#000000" fill-rule="evenodd" fill-opacity="1" /><path clip-path="url(#clip4900)" d="M 0 0 M2304.44 1428.35 Q2300.82 1428.35 2299 1431.92 Q2297.19 1435.46 2297.19 1442.59 Q2297.19 1449.69 2299 1453.26 Q2300.82 1456.8 2304.44 1456.8 Q2308.07 1456.8 2309.88 1453.26 Q2311.7 1449.69 2311.7 1442.59 Q2311.7 1435.46 2309.88 1431.92 Q2308.07 1428.35 2304.44 1428.35 M2304.44 1424.65 Q2310.25 1424.65 2313.3 1429.25 Q2316.38 1433.84 2316.38 1442.59 Q2316.38 1451.31 2313.3 1455.92 Q2310.25 1460.5 2304.44 1460.5 Q2298.63 1460.5 2295.55 1455.92 Q2292.49 1451.31 2292.49 1442.59 Q2292.49 1433.84 2295.55 1429.25 Q2298.63 1424.65 2304.44 1424.65 Z" fill="#000000" fill-rule="evenodd" fill-opacity="1" /><path clip-path="url(#clip4900)" d="M 0 0 M154.986 1290.2 Q151.375 1290.2 149.546 1293.77 Q147.74 1297.31 147.74 1304.44 Q147.74 1311.55 149.546 1315.11 Q151.375 1318.65 154.986 1318.65 Q158.62 1318.65 160.426 1315.11 Q162.254 1311.55 162.254 1304.44 Q162.254 1297.31 160.426 1293.77 Q158.62 1290.2 154.986 1290.2 M154.986 1286.5 Q160.796 1286.5 163.851 1291.11 Q166.93 1295.69 166.93 1304.44 Q166.93 1313.17 163.851 1317.77 Q160.796 1322.36 154.986 1322.36 Q149.176 1322.36 146.097 1317.77 Q143.041 1313.17 143.041 1304.44 Q143.041 1295.69 146.097 1291.11 Q149.176 1286.5 154.986 1286.5 Z" fill="#000000" fill-rule="evenodd" fill-opacity="1" /><path clip-path="url(#clip4900)" d="M 0 0 M172 1315.81 L176.884 1315.81 L176.884 1321.69 L172 1321.69 L172 1315.81 Z" fill="#000000" fill-rule="evenodd" fill-opacity="1" /><path clip-path="url(#clip4900)" d="M 0 0 M182.763 1317.75 L190.402 1317.75 L190.402 1291.38 L182.092 1293.05 L182.092 1288.79 L190.356 1287.13 L195.032 1287.13 L195.032 1317.75 L202.671 1317.75 L202.671 1321.69 L182.763 1321.69 L182.763 1317.75 Z" fill="#000000" fill-rule="evenodd" fill-opacity="1" /><path clip-path="url(#clip4900)" d="M 0 0 M155.356 1109.38 Q151.745 1109.38 149.916 1112.94 Q148.111 1116.48 148.111 1123.61 Q148.111 1130.72 149.916 1134.28 Q151.745 1137.82 155.356 1137.82 Q158.99 1137.82 160.796 1134.28 Q162.625 1130.72 162.625 1123.61 Q162.625 1116.48 160.796 1112.94 Q158.99 1109.38 155.356 1109.38 M155.356 1105.67 Q161.166 1105.67 164.222 1110.28 Q167.3 1114.86 167.3 1123.61 Q167.3 1132.34 164.222 1136.94 Q161.166 1141.53 155.356 1141.53 Q149.546 1141.53 146.467 1136.94 Q143.412 1132.34 143.412 1123.61 Q143.412 1114.86 146.467 1110.28 Q149.546 1105.67 155.356 1105.67 Z" fill="#000000" fill-rule="evenodd" fill-opacity="1" /><path clip-path="url(#clip4900)" d="M 0 0 M172.37 1134.98 L177.254 1134.98 L177.254 1140.86 L172.37 1140.86 L172.37 1134.98 Z" fill="#000000" fill-rule="evenodd" fill-opacity="1" /><path clip-path="url(#clip4900)" d="M 0 0 M186.351 1136.92 L202.671 1136.92 L202.671 1140.86 L180.726 1140.86 L180.726 1136.92 Q183.388 1134.17 187.972 1129.54 Q192.578 1124.88 193.759 1123.54 Q196.004 1121.02 196.884 1119.28 Q197.786 1117.52 197.786 1115.83 Q197.786 1113.08 195.842 1111.34 Q193.921 1109.61 190.819 1109.61 Q188.62 1109.61 186.166 1110.37 Q183.736 1111.13 180.958 1112.69 L180.958 1107.96 Q183.782 1106.83 186.236 1106.25 Q188.689 1105.67 190.726 1105.67 Q196.097 1105.67 199.291 1108.36 Q202.485 1111.04 202.485 1115.53 Q202.485 1117.66 201.675 1119.58 Q200.888 1121.48 198.782 1124.07 Q198.203 1124.75 195.101 1127.96 Q191.999 1131.16 186.351 1136.92 Z" fill="#000000" fill-rule="evenodd" fill-opacity="1" /><path clip-path="url(#clip4900)" d="M 0 0 M154.407 928.546 Q150.796 928.546 148.967 932.111 Q147.162 935.653 147.162 942.782 Q147.162 949.889 148.967 953.453 Q150.796 956.995 154.407 956.995 Q158.041 956.995 159.847 953.453 Q161.676 949.889 161.676 942.782 Q161.676 935.653 159.847 932.111 Q158.041 928.546 154.407 928.546 M154.407 924.843 Q160.217 924.843 163.273 929.449 Q166.351 934.032 166.351 942.782 Q166.351 951.509 163.273 956.116 Q160.217 960.699 154.407 960.699 Q148.597 960.699 145.518 956.116 Q142.463 951.509 142.463 942.782 Q142.463 934.032 145.518 929.449 Q148.597 924.843 154.407 924.843 Z" fill="#000000" fill-rule="evenodd" fill-opacity="1" /><path clip-path="url(#clip4900)" d="M 0 0 M171.421 954.148 L176.305 954.148 L176.305 960.028 L171.421 960.028 L171.421 954.148 Z" fill="#000000" fill-rule="evenodd" fill-opacity="1" /><path clip-path="url(#clip4900)" d="M 0 0 M195.541 941.393 Q198.898 942.111 200.773 944.379 Q202.671 946.648 202.671 949.981 Q202.671 955.097 199.152 957.898 Q195.634 960.699 189.152 960.699 Q186.976 960.699 184.661 960.259 Q182.37 959.842 179.916 958.986 L179.916 954.472 Q181.861 955.606 184.175 956.185 Q186.49 956.764 189.013 956.764 Q193.411 956.764 195.703 955.028 Q198.018 953.291 198.018 949.981 Q198.018 946.926 195.865 945.213 Q193.736 943.477 189.916 943.477 L185.888 943.477 L185.888 939.634 L190.101 939.634 Q193.55 939.634 195.379 938.268 Q197.208 936.88 197.208 934.287 Q197.208 931.625 195.31 930.213 Q193.435 928.778 189.916 928.778 Q187.995 928.778 185.796 929.194 Q183.597 929.611 180.958 930.491 L180.958 926.324 Q183.62 925.583 185.935 925.213 Q188.273 924.843 190.333 924.843 Q195.657 924.843 198.759 927.273 Q201.86 929.68 201.86 933.801 Q201.86 936.671 200.217 938.662 Q198.573 940.629 195.541 941.393 Z" fill="#000000" fill-rule="evenodd" fill-opacity="1" /><path clip-path="url(#clip4900)" d="M 0 0 M153.273 747.717 Q149.662 747.717 147.833 751.282 Q146.027 754.824 146.027 761.953 Q146.027 769.06 147.833 772.624 Q149.662 776.166 153.273 776.166 Q156.907 776.166 158.713 772.624 Q160.541 769.06 160.541 761.953 Q160.541 754.824 158.713 751.282 Q156.907 747.717 153.273 747.717 M153.273 744.013 Q159.083 744.013 162.138 748.62 Q165.217 753.203 165.217 761.953 Q165.217 770.68 162.138 775.286 Q159.083 779.87 153.273 779.87 Q147.463 779.87 144.384 775.286 Q141.328 770.68 141.328 761.953 Q141.328 753.203 144.384 748.62 Q147.463 744.013 153.273 744.013 Z" fill="#000000" fill-rule="evenodd" fill-opacity="1" /><path clip-path="url(#clip4900)" d="M 0 0 M170.287 773.319 L175.171 773.319 L175.171 779.198 L170.287 779.198 L170.287 773.319 Z" fill="#000000" fill-rule="evenodd" fill-opacity="1" /><path clip-path="url(#clip4900)" d="M 0 0 M193.087 748.712 L181.282 767.161 L193.087 767.161 L193.087 748.712 M191.861 744.638 L197.74 744.638 L197.74 767.161 L202.671 767.161 L202.671 771.05 L197.74 771.05 L197.74 779.198 L193.087 779.198 L193.087 771.05 L177.486 771.05 L177.486 766.536 L191.861 744.638 Z" fill="#000000" fill-rule="evenodd" fill-opacity="1" /><path clip-path="url(#clip4900)" d="M 0 0 M154.754 566.888 Q151.143 566.888 149.314 570.453 Q147.509 573.994 147.509 581.124 Q147.509 588.231 149.314 591.795 Q151.143 595.337 154.754 595.337 Q158.388 595.337 160.194 591.795 Q162.023 588.231 162.023 581.124 Q162.023 573.994 160.194 570.453 Q158.388 566.888 154.754 566.888 M154.754 563.184 Q160.564 563.184 163.62 567.791 Q166.699 572.374 166.699 581.124 Q166.699 589.851 163.62 594.457 Q160.564 599.041 154.754 599.041 Q148.944 599.041 145.865 594.457 Q142.81 589.851 142.81 581.124 Q142.81 572.374 145.865 567.791 Q148.944 563.184 154.754 563.184 Z" fill="#000000" fill-rule="evenodd" fill-opacity="1" /><path clip-path="url(#clip4900)" d="M 0 0 M171.768 592.49 L176.652 592.49 L176.652 598.369 L171.768 598.369 L171.768 592.49 Z" fill="#000000" fill-rule="evenodd" fill-opacity="1" /><path clip-path="url(#clip4900)" d="M 0 0 M181.768 563.809 L200.124 563.809 L200.124 567.745 L186.05 567.745 L186.05 576.217 Q187.069 575.869 188.087 575.707 Q189.106 575.522 190.124 575.522 Q195.911 575.522 199.291 578.694 Q202.671 581.865 202.671 587.281 Q202.671 592.86 199.198 595.962 Q195.726 599.041 189.407 599.041 Q187.231 599.041 184.962 598.67 Q182.717 598.3 180.31 597.559 L180.31 592.86 Q182.393 593.994 184.615 594.55 Q186.837 595.105 189.314 595.105 Q193.319 595.105 195.657 592.999 Q197.995 590.893 197.995 587.281 Q197.995 583.67 195.657 581.564 Q193.319 579.457 189.314 579.457 Q187.439 579.457 185.564 579.874 Q183.712 580.291 181.768 581.17 L181.768 563.809 Z" fill="#000000" fill-rule="evenodd" fill-opacity="1" /><path clip-path="url(#clip4900)" d="M 0 0 M153.597 386.059 Q149.986 386.059 148.157 389.624 Q146.352 393.165 146.352 400.295 Q146.352 407.401 148.157 410.966 Q149.986 414.508 153.597 414.508 Q157.231 414.508 159.037 410.966 Q160.865 407.401 160.865 400.295 Q160.865 393.165 159.037 389.624 Q157.231 386.059 153.597 386.059 M153.597 382.355 Q159.407 382.355 162.463 386.962 Q165.541 391.545 165.541 400.295 Q165.541 409.022 162.463 413.628 Q159.407 418.212 153.597 418.212 Q147.787 418.212 144.708 413.628 Q141.652 409.022 141.652 400.295 Q141.652 391.545 144.708 386.962 Q147.787 382.355 153.597 382.355 Z" fill="#000000" fill-rule="evenodd" fill-opacity="1" /><path clip-path="url(#clip4900)" d="M 0 0 M170.611 411.661 L175.495 411.661 L175.495 417.54 L170.611 417.54 L170.611 411.661 Z" fill="#000000" fill-rule="evenodd" fill-opacity="1" /><path clip-path="url(#clip4900)" d="M 0 0 M191.143 398.397 Q187.995 398.397 186.143 400.55 Q184.314 402.702 184.314 406.452 Q184.314 410.179 186.143 412.355 Q187.995 414.508 191.143 414.508 Q194.291 414.508 196.12 412.355 Q197.972 410.179 197.972 406.452 Q197.972 402.702 196.12 400.55 Q194.291 398.397 191.143 398.397 M200.425 383.744 L200.425 388.003 Q198.666 387.17 196.861 386.73 Q195.078 386.29 193.319 386.29 Q188.689 386.29 186.236 389.415 Q183.805 392.54 183.458 398.86 Q184.824 396.846 186.884 395.781 Q188.944 394.693 191.421 394.693 Q196.629 394.693 199.638 397.864 Q202.671 401.013 202.671 406.452 Q202.671 411.776 199.523 414.994 Q196.374 418.212 191.143 418.212 Q185.148 418.212 181.976 413.628 Q178.805 409.022 178.805 400.295 Q178.805 392.101 182.694 387.239 Q186.583 382.355 193.134 382.355 Q194.893 382.355 196.675 382.702 Q198.481 383.05 200.425 383.744 Z" fill="#000000" fill-rule="evenodd" fill-opacity="1" /><path clip-path="url(#clip4900)" d="M 0 0 M154.662 205.23 Q151.051 205.23 149.222 208.795 Q147.416 212.336 147.416 219.466 Q147.416 226.572 149.222 230.137 Q151.051 233.679 154.662 233.679 Q158.296 233.679 160.101 230.137 Q161.93 226.572 161.93 219.466 Q161.93 212.336 160.101 208.795 Q158.296 205.23 154.662 205.23 M154.662 201.526 Q160.472 201.526 163.527 206.133 Q166.606 210.716 166.606 219.466 Q166.606 228.193 163.527 232.799 Q160.472 237.382 154.662 237.382 Q148.852 237.382 145.773 232.799 Q142.717 228.193 142.717 219.466 Q142.717 210.716 145.773 206.133 Q148.852 201.526 154.662 201.526 Z" fill="#000000" fill-rule="evenodd" fill-opacity="1" /><path clip-path="url(#clip4900)" d="M 0 0 M171.675 230.832 L176.56 230.832 L176.56 236.711 L171.675 236.711 L171.675 230.832 Z" fill="#000000" fill-rule="evenodd" fill-opacity="1" /><path clip-path="url(#clip4900)" d="M 0 0 M180.449 202.151 L202.671 202.151 L202.671 204.142 L190.124 236.711 L185.24 236.711 L197.046 206.086 L180.449 206.086 L180.449 202.151 Z" fill="#000000" fill-rule="evenodd" fill-opacity="1" /><path clip-path="url(#clip4900)" d="M 0 0 M1303.87 1486.67 Q1303.87 1488.47 1302.75 1489.5 Q1301.62 1490.5 1300.33 1490.5 Q1299.11 1490.5 1298.46 1489.79 Q1297.82 1489.08 1297.82 1488.18 Q1297.82 1486.96 1298.72 1485.9 Q1299.62 1484.83 1300.97 1484.61 Q1299.65 1483.77 1297.69 1483.77 Q1296.4 1483.77 1295.27 1484.45 Q1294.18 1485.12 1293.5 1485.99 Q1292.86 1486.86 1292.28 1488.12 Q1291.73 1489.34 1291.51 1490.08 Q1291.31 1490.79 1291.15 1491.56 L1288.9 1500.58 Q1287.8 1504.86 1287.8 1506.38 Q1287.8 1508.25 1288.7 1509.5 Q1289.61 1510.73 1291.41 1510.73 Q1292.12 1510.73 1292.92 1510.53 Q1293.73 1510.31 1294.76 1509.73 Q1295.82 1509.12 1296.76 1508.21 Q1297.72 1507.28 1298.66 1505.7 Q1299.59 1504.12 1300.2 1502.09 Q1300.4 1501.39 1301.04 1501.39 Q1301.84 1501.39 1301.84 1502.03 Q1301.84 1502.58 1301.39 1503.74 Q1300.97 1504.86 1300.04 1506.35 Q1299.14 1507.8 1297.95 1509.12 Q1296.76 1510.4 1294.98 1511.31 Q1293.21 1512.21 1291.28 1512.21 Q1288.51 1512.21 1286.68 1510.73 Q1284.84 1509.24 1284.16 1507.18 Q1284 1507.47 1283.78 1507.86 Q1283.55 1508.25 1282.88 1509.12 Q1282.23 1509.95 1281.49 1510.6 Q1280.75 1511.21 1279.59 1511.69 Q1278.46 1512.21 1277.24 1512.21 Q1275.69 1512.21 1274.31 1511.76 Q1272.96 1511.31 1271.99 1510.28 Q1271.02 1509.24 1271.02 1507.83 Q1271.02 1506.25 1272.09 1505.15 Q1273.18 1504.03 1274.66 1504.03 Q1275.6 1504.03 1276.34 1504.57 Q1277.11 1505.12 1277.11 1506.31 Q1277.11 1507.63 1276.21 1508.63 Q1275.31 1509.63 1274.02 1509.89 Q1275.34 1510.73 1277.3 1510.73 Q1279.43 1510.73 1281.1 1508.86 Q1282.78 1506.99 1283.58 1503.87 Q1285.58 1496.36 1286.35 1493.01 Q1287.13 1489.63 1287.13 1488.18 Q1287.13 1486.83 1286.77 1485.9 Q1286.42 1484.96 1285.81 1484.54 Q1285.23 1484.09 1284.68 1483.93 Q1284.16 1483.77 1283.58 1483.77 Q1282.62 1483.77 1281.52 1484.16 Q1280.46 1484.54 1279.17 1485.44 Q1277.92 1486.31 1276.72 1488.12 Q1275.53 1489.92 1274.73 1492.4 Q1274.57 1493.14 1273.86 1493.14 Q1273.08 1493.11 1273.08 1492.47 Q1273.08 1491.92 1273.5 1490.79 Q1273.95 1489.63 1274.86 1488.18 Q1275.79 1486.73 1276.98 1485.44 Q1278.21 1484.12 1279.98 1483.22 Q1281.78 1482.32 1283.71 1482.32 Q1284.58 1482.32 1285.42 1482.51 Q1286.29 1482.67 1287.32 1483.16 Q1288.38 1483.64 1289.32 1484.7 Q1290.25 1485.77 1290.83 1487.31 Q1291.22 1486.57 1291.73 1485.86 Q1292.28 1485.15 1293.12 1484.28 Q1293.99 1483.38 1295.18 1482.87 Q1296.4 1482.32 1297.75 1482.32 Q1299.07 1482.32 1300.36 1482.67 Q1301.65 1483 1302.75 1484.06 Q1303.87 1485.09 1303.87 1486.67 Z" fill="#000000" fill-rule="evenodd" fill-opacity="1" /><path clip-path="url(#clip4900)" d="M 0 0 M76.4129 712.377 Q76.8638 712.377 77.9266 712.666 L103.112 718.979 Q108.715 720.364 112.644 724.872 Q116.574 729.349 116.574 734.438 Q116.574 737.497 114.931 739.462 Q113.321 741.426 110.841 741.426 Q108.651 741.426 107.588 740.267 Q106.558 739.107 106.558 737.723 Q106.558 737.272 106.686 736.789 Q106.815 736.306 107.363 735.79 Q107.91 735.275 108.844 735.275 Q110.358 735.275 111.549 736.595 Q112.097 737.24 112.226 737.851 Q112.355 738.431 112.355 739.43 Q113.256 739.043 113.868 738.335 Q114.48 737.626 114.706 736.821 Q114.963 736.016 115.028 735.5 Q115.124 734.953 115.124 734.438 Q115.124 730.315 110.97 727.159 Q109.714 726.225 108.458 725.549 Q107.234 724.84 105.72 724.325 Q104.239 723.81 103.434 723.584 Q102.628 723.327 100.793 722.876 Q103.788 725.871 103.788 729.542 Q103.788 731.088 103.369 732.473 Q102.951 733.826 102.081 735.017 Q101.179 736.209 99.6011 736.917 Q98.023 737.594 95.9296 737.594 Q93.7074 737.594 90.6801 736.724 Q87.6527 735.855 82.0811 733.761 Q78.9572 732.634 77.4435 732.634 Q76.7027 732.634 76.2519 732.795 Q75.7688 732.956 75.6077 733.278 Q75.4145 733.6 75.3823 733.793 Q75.3501 733.955 75.3501 734.277 Q75.3501 736.177 77.2825 737.948 Q79.2148 739.719 83.5304 740.943 Q84.3355 741.201 84.5288 741.362 Q84.722 741.523 84.722 742.006 Q84.6898 742.811 84.0457 742.811 Q83.788 742.811 82.7897 742.521 Q81.7591 742.231 80.2454 741.555 Q78.6995 740.847 77.3147 739.88 Q75.8976 738.914 74.8992 737.401 Q73.9008 735.855 73.9008 734.083 Q73.9008 731.668 75.4789 730.186 Q77.0248 728.673 79.3114 728.673 Q80.2454 728.673 81.0827 728.93 Q81.8879 729.156 84.0457 729.993 Q92.7413 733.375 96.9924 733.375 Q98.023 733.375 98.8926 733.214 Q99.7299 733.021 100.567 732.602 Q101.372 732.183 101.856 731.346 Q102.306 730.476 102.306 729.285 Q102.306 727.771 101.598 726.354 Q100.857 724.905 99.8588 724.003 Q98.8604 723.069 98.023 722.521 Q97.1535 721.942 96.7026 721.813 L84.8508 718.85 L79.5691 717.53 Q76.7027 716.918 75.9942 716.628 Q75.3179 716.241 74.9636 715.565 Q74.6094 714.889 74.6094 714.309 Q74.6094 713.504 75.0925 712.956 Q75.5755 712.377 76.4129 712.377 Z" fill="#000000" fill-rule="evenodd" fill-opacity="1" /><polyline clip-path="url(#clip4902)" style="stroke:#009af9; stroke-width:4; stroke-opacity:1; fill:none" points="
  286.843,85.7097 509.703,532.44 732.563,358.443 955.423,965.831 1178.28,674.664 1401.14,1367.9 1624,1313.17 1846.86,1027.87 2069.72,1126.92 2292.58,392.85 
  
  "/>
<path clip-path="url(#clip4900)" d="
M1989.74 251.724 L2280.76 251.724 L2280.76 130.764 L1989.74 130.764  Z
  " fill="#ffffff" fill-rule="evenodd" fill-opacity="1"/>
<polyline clip-path="url(#clip4900)" style="stroke:#000000; stroke-width:4; stroke-opacity:1; fill:none" points="
  1989.74,251.724 2280.76,251.724 2280.76,130.764 1989.74,130.764 1989.74,251.724 
  "/>
<polyline clip-path="url(#clip4900)" style="stroke:#009af9; stroke-width:4; stroke-opacity:1; fill:none" points="
  2013.74,191.244 2157.74,191.244 
  "/>
<path clip-path="url(#clip4900)" d="M 0 0 M2195.58 210.931 Q2193.77 215.561 2192.06 216.973 Q2190.35 218.385 2187.48 218.385 L2184.08 218.385 L2184.08 214.82 L2186.58 214.82 Q2188.33 214.82 2189.31 213.987 Q2190.28 213.154 2191.46 210.052 L2192.22 208.107 L2181.74 182.598 L2186.25 182.598 L2194.35 202.876 L2202.46 182.598 L2206.97 182.598 L2195.58 210.931 Z" fill="#000000" fill-rule="evenodd" fill-opacity="1" /><path clip-path="url(#clip4900)" d="M 0 0 M2212.85 204.589 L2220.49 204.589 L2220.49 178.223 L2212.18 179.89 L2212.18 175.631 L2220.44 173.964 L2225.12 173.964 L2225.12 204.589 L2232.76 204.589 L2232.76 208.524 L2212.85 208.524 L2212.85 204.589 Z" fill="#000000" fill-rule="evenodd" fill-opacity="1" /></svg>
