<?xml version="1.0" encoding="utf-8" standalone="no"?>
<!DOCTYPE svg PUBLIC "-//W3C//DTD SVG 1.1//EN"
  "http://www.w3.org/Graphics/SVG/1.1/DTD/svg11.dtd">
<svg height="288pt" version="1.1" viewBox="0 0 432 288" width="432pt" xmlns="http://www.w3.org/2000/svg" xmlns:xlink="http://www.w3.org/1999/xlink">
 <metadata>
  <rdf:RDF xmlns:cc="http://creativecommons.org/ns#" xmlns:dc="http://purl.org/dc/elements/1.1/" xmlns:rdf="http://www.w3.org/1999/02/22-rdf-syntax-ns#">
   <cc:Work>
    <dc:type rdf:resource="http://purl.org/dc/dcmitype/StillImage"/>
    <dc:date>2021-10-29T10:40:55.385065</dc:date>
    <dc:format>image/svg+xml</dc:format>
    <dc:creator>
     <cc:Agent>
      <dc:title>Matplotlib v3.4.3, https://matplotlib.org/</dc:title>
     </cc:Agent>
    </dc:creator>
   </cc:Work>
  </rdf:RDF>
 </metadata>
 <defs>
  <style type="text/css">*{stroke-linecap:butt;stroke-linejoin:round;}</style>
 </defs>
 <g id="figure_1">
  <g id="patch_1">
   <path d="M 0 288 
L 432 288 
L 432 0 
L 0 0 
z
" style="fill:#ffffff;"/>
  </g>
  <g id="axes_1">
   <g id="patch_2">
    <path d="M 19.963856 273.025354 
L 429.165354 273.025354 
L 429.165354 2.834646 
L 19.963856 2.834646 
z
" style="fill:#ffffff;"/>
   </g>
   <g id="matplotlib.axis_1">
    <g id="xtick_1">
     <g id="line2d_1">
      <path clip-path="url(#p7b4eff80ff)" d="M 31.54503 273.025354 
L 31.54503 2.834646 
" style="fill:none;stroke:#000000;stroke-linecap:square;stroke-opacity:0.1;stroke-width:0.5;"/>
     </g>
     <g id="line2d_2">
      <defs>
       <path d="M 0 0 
L 0 -2.5 
" id="m545c1e74f6" style="stroke:#000000;stroke-width:0.5;"/>
      </defs>
      <g>
       <use style="stroke:#000000;stroke-width:0.5;" x="31.54503" xlink:href="#m545c1e74f6" y="273.025354"/>
      </g>
     </g>
     <g id="text_1">
      <!-- $-3$ -->
      <g transform="translate(25.62503 282.604104)scale(0.08 -0.08)">
       <defs>
        <path d="M 678 2272 
L 4684 2272 
L 4684 1741 
L 678 1741 
L 678 2272 
z
" id="DejaVuSans-2212" transform="scale(0.015625)"/>
        <path d="M 2597 2516 
Q 3050 2419 3304 2112 
Q 3559 1806 3559 1356 
Q 3559 666 3084 287 
Q 2609 -91 1734 -91 
Q 1441 -91 1130 -33 
Q 819 25 488 141 
L 488 750 
Q 750 597 1062 519 
Q 1375 441 1716 441 
Q 2309 441 2620 675 
Q 2931 909 2931 1356 
Q 2931 1769 2642 2001 
Q 2353 2234 1838 2234 
L 1294 2234 
L 1294 2753 
L 1863 2753 
Q 2328 2753 2575 2939 
Q 2822 3125 2822 3475 
Q 2822 3834 2567 4026 
Q 2313 4219 1838 4219 
Q 1578 4219 1281 4162 
Q 984 4106 628 3988 
L 628 4550 
Q 988 4650 1302 4700 
Q 1616 4750 1894 4750 
Q 2613 4750 3031 4423 
Q 3450 4097 3450 3541 
Q 3450 3153 3228 2886 
Q 3006 2619 2597 2516 
z
" id="DejaVuSans-33" transform="scale(0.015625)"/>
       </defs>
       <use transform="translate(0 0.78125)" xlink:href="#DejaVuSans-2212"/>
       <use transform="translate(83.789062 0.78125)" xlink:href="#DejaVuSans-33"/>
      </g>
     </g>
    </g>
    <g id="xtick_2">
     <g id="line2d_3">
      <path clip-path="url(#p7b4eff80ff)" d="M 95.884889 273.025354 
L 95.884889 2.834646 
" style="fill:none;stroke:#000000;stroke-linecap:square;stroke-opacity:0.1;stroke-width:0.5;"/>
     </g>
     <g id="line2d_4">
      <g>
       <use style="stroke:#000000;stroke-width:0.5;" x="95.884889" xlink:href="#m545c1e74f6" y="273.025354"/>
      </g>
     </g>
     <g id="text_2">
      <!-- $-2$ -->
      <g transform="translate(89.964889 282.604104)scale(0.08 -0.08)">
       <defs>
        <path d="M 1228 531 
L 3431 531 
L 3431 0 
L 469 0 
L 469 531 
Q 828 903 1448 1529 
Q 2069 2156 2228 2338 
Q 2531 2678 2651 2914 
Q 2772 3150 2772 3378 
Q 2772 3750 2511 3984 
Q 2250 4219 1831 4219 
Q 1534 4219 1204 4116 
Q 875 4013 500 3803 
L 500 4441 
Q 881 4594 1212 4672 
Q 1544 4750 1819 4750 
Q 2544 4750 2975 4387 
Q 3406 4025 3406 3419 
Q 3406 3131 3298 2873 
Q 3191 2616 2906 2266 
Q 2828 2175 2409 1742 
Q 1991 1309 1228 531 
z
" id="DejaVuSans-32" transform="scale(0.015625)"/>
       </defs>
       <use transform="translate(0 0.78125)" xlink:href="#DejaVuSans-2212"/>
       <use transform="translate(83.789062 0.78125)" xlink:href="#DejaVuSans-32"/>
      </g>
     </g>
    </g>
    <g id="xtick_3">
     <g id="line2d_5">
      <path clip-path="url(#p7b4eff80ff)" d="M 160.224747 273.025354 
L 160.224747 2.834646 
" style="fill:none;stroke:#000000;stroke-linecap:square;stroke-opacity:0.1;stroke-width:0.5;"/>
     </g>
     <g id="line2d_6">
      <g>
       <use style="stroke:#000000;stroke-width:0.5;" x="160.224747" xlink:href="#m545c1e74f6" y="273.025354"/>
      </g>
     </g>
     <g id="text_3">
      <!-- $-1$ -->
      <g transform="translate(154.304747 282.604104)scale(0.08 -0.08)">
       <defs>
        <path d="M 794 531 
L 1825 531 
L 1825 4091 
L 703 3866 
L 703 4441 
L 1819 4666 
L 2450 4666 
L 2450 531 
L 3481 531 
L 3481 0 
L 794 0 
L 794 531 
z
" id="DejaVuSans-31" transform="scale(0.015625)"/>
       </defs>
       <use transform="translate(0 0.09375)" xlink:href="#DejaVuSans-2212"/>
       <use transform="translate(83.789062 0.09375)" xlink:href="#DejaVuSans-31"/>
      </g>
     </g>
    </g>
    <g id="xtick_4">
     <g id="line2d_7">
      <path clip-path="url(#p7b4eff80ff)" d="M 224.564605 273.025354 
L 224.564605 2.834646 
" style="fill:none;stroke:#000000;stroke-linecap:square;stroke-opacity:0.1;stroke-width:0.5;"/>
     </g>
     <g id="line2d_8">
      <g>
       <use style="stroke:#000000;stroke-width:0.5;" x="224.564605" xlink:href="#m545c1e74f6" y="273.025354"/>
      </g>
     </g>
     <g id="text_4">
      <!-- $0$ -->
      <g transform="translate(222.004605 282.604104)scale(0.08 -0.08)">
       <defs>
        <path d="M 2034 4250 
Q 1547 4250 1301 3770 
Q 1056 3291 1056 2328 
Q 1056 1369 1301 889 
Q 1547 409 2034 409 
Q 2525 409 2770 889 
Q 3016 1369 3016 2328 
Q 3016 3291 2770 3770 
Q 2525 4250 2034 4250 
z
M 2034 4750 
Q 2819 4750 3233 4129 
Q 3647 3509 3647 2328 
Q 3647 1150 3233 529 
Q 2819 -91 2034 -91 
Q 1250 -91 836 529 
Q 422 1150 422 2328 
Q 422 3509 836 4129 
Q 1250 4750 2034 4750 
z
" id="DejaVuSans-30" transform="scale(0.015625)"/>
       </defs>
       <use transform="translate(0 0.78125)" xlink:href="#DejaVuSans-30"/>
      </g>
     </g>
    </g>
    <g id="xtick_5">
     <g id="line2d_9">
      <path clip-path="url(#p7b4eff80ff)" d="M 288.904463 273.025354 
L 288.904463 2.834646 
" style="fill:none;stroke:#000000;stroke-linecap:square;stroke-opacity:0.1;stroke-width:0.5;"/>
     </g>
     <g id="line2d_10">
      <g>
       <use style="stroke:#000000;stroke-width:0.5;" x="288.904463" xlink:href="#m545c1e74f6" y="273.025354"/>
      </g>
     </g>
     <g id="text_5">
      <!-- $1$ -->
      <g transform="translate(286.344463 282.604104)scale(0.08 -0.08)">
       <use transform="translate(0 0.09375)" xlink:href="#DejaVuSans-31"/>
      </g>
     </g>
    </g>
    <g id="xtick_6">
     <g id="line2d_11">
      <path clip-path="url(#p7b4eff80ff)" d="M 353.244322 273.025354 
L 353.244322 2.834646 
" style="fill:none;stroke:#000000;stroke-linecap:square;stroke-opacity:0.1;stroke-width:0.5;"/>
     </g>
     <g id="line2d_12">
      <g>
       <use style="stroke:#000000;stroke-width:0.5;" x="353.244322" xlink:href="#m545c1e74f6" y="273.025354"/>
      </g>
     </g>
     <g id="text_6">
      <!-- $2$ -->
      <g transform="translate(350.684322 282.604104)scale(0.08 -0.08)">
       <use transform="translate(0 0.78125)" xlink:href="#DejaVuSans-32"/>
      </g>
     </g>
    </g>
    <g id="xtick_7">
     <g id="line2d_13">
      <path clip-path="url(#p7b4eff80ff)" d="M 417.58418 273.025354 
L 417.58418 2.834646 
" style="fill:none;stroke:#000000;stroke-linecap:square;stroke-opacity:0.1;stroke-width:0.5;"/>
     </g>
     <g id="line2d_14">
      <g>
       <use style="stroke:#000000;stroke-width:0.5;" x="417.58418" xlink:href="#m545c1e74f6" y="273.025354"/>
      </g>
     </g>
     <g id="text_7">
      <!-- $3$ -->
      <g transform="translate(415.02418 282.604104)scale(0.08 -0.08)">
       <use transform="translate(0 0.78125)" xlink:href="#DejaVuSans-33"/>
      </g>
     </g>
    </g>
   </g>
   <g id="matplotlib.axis_2">
    <g id="ytick_1">
     <g id="line2d_15">
      <path clip-path="url(#p7b4eff80ff)" d="M 19.963856 265.378447 
L 429.165354 265.378447 
" style="fill:none;stroke:#000000;stroke-linecap:square;stroke-opacity:0.1;stroke-width:0.5;"/>
     </g>
     <g id="line2d_16">
      <defs>
       <path d="M 0 0 
L 2.5 0 
" id="md661dcaa2d" style="stroke:#000000;stroke-width:0.5;"/>
      </defs>
      <g>
       <use style="stroke:#000000;stroke-width:0.5;" x="19.963856" xlink:href="#md661dcaa2d" y="265.378447"/>
      </g>
     </g>
     <g id="text_8">
      <!-- $0.0$ -->
      <g transform="translate(3.663856 268.417822)scale(0.08 -0.08)">
       <defs>
        <path d="M 684 794 
L 1344 794 
L 1344 0 
L 684 0 
L 684 794 
z
" id="DejaVuSans-2e" transform="scale(0.015625)"/>
       </defs>
       <use transform="translate(0 0.78125)" xlink:href="#DejaVuSans-30"/>
       <use transform="translate(63.623047 0.78125)" xlink:href="#DejaVuSans-2e"/>
       <use transform="translate(95.410156 0.78125)" xlink:href="#DejaVuSans-30"/>
      </g>
     </g>
    </g>
    <g id="ytick_2">
     <g id="line2d_17">
      <path clip-path="url(#p7b4eff80ff)" d="M 19.963856 206.556087 
L 429.165354 206.556087 
" style="fill:none;stroke:#000000;stroke-linecap:square;stroke-opacity:0.1;stroke-width:0.5;"/>
     </g>
     <g id="line2d_18">
      <g>
       <use style="stroke:#000000;stroke-width:0.5;" x="19.963856" xlink:href="#md661dcaa2d" y="206.556087"/>
      </g>
     </g>
     <g id="text_9">
      <!-- $0.1$ -->
      <g transform="translate(3.663856 209.595462)scale(0.08 -0.08)">
       <use transform="translate(0 0.78125)" xlink:href="#DejaVuSans-30"/>
       <use transform="translate(63.623047 0.78125)" xlink:href="#DejaVuSans-2e"/>
       <use transform="translate(95.410156 0.78125)" xlink:href="#DejaVuSans-31"/>
      </g>
     </g>
    </g>
    <g id="ytick_3">
     <g id="line2d_19">
      <path clip-path="url(#p7b4eff80ff)" d="M 19.963856 147.733727 
L 429.165354 147.733727 
" style="fill:none;stroke:#000000;stroke-linecap:square;stroke-opacity:0.1;stroke-width:0.5;"/>
     </g>
     <g id="line2d_20">
      <g>
       <use style="stroke:#000000;stroke-width:0.5;" x="19.963856" xlink:href="#md661dcaa2d" y="147.733727"/>
      </g>
     </g>
     <g id="text_10">
      <!-- $0.2$ -->
      <g transform="translate(4.143856 150.773102)scale(0.08 -0.08)">
       <use transform="translate(0 0.78125)" xlink:href="#DejaVuSans-30"/>
       <use transform="translate(63.623047 0.78125)" xlink:href="#DejaVuSans-2e"/>
       <use transform="translate(89.910156 0.78125)" xlink:href="#DejaVuSans-32"/>
      </g>
     </g>
    </g>
    <g id="ytick_4">
     <g id="line2d_21">
      <path clip-path="url(#p7b4eff80ff)" d="M 19.963856 88.911366 
L 429.165354 88.911366 
" style="fill:none;stroke:#000000;stroke-linecap:square;stroke-opacity:0.1;stroke-width:0.5;"/>
     </g>
     <g id="line2d_22">
      <g>
       <use style="stroke:#000000;stroke-width:0.5;" x="19.963856" xlink:href="#md661dcaa2d" y="88.911366"/>
      </g>
     </g>
     <g id="text_11">
      <!-- $0.3$ -->
      <g transform="translate(3.663856 91.950741)scale(0.08 -0.08)">
       <use transform="translate(0 0.78125)" xlink:href="#DejaVuSans-30"/>
       <use transform="translate(63.623047 0.78125)" xlink:href="#DejaVuSans-2e"/>
       <use transform="translate(95.410156 0.78125)" xlink:href="#DejaVuSans-33"/>
      </g>
     </g>
    </g>
    <g id="ytick_5">
     <g id="line2d_23">
      <path clip-path="url(#p7b4eff80ff)" d="M 19.963856 30.089006 
L 429.165354 30.089006 
" style="fill:none;stroke:#000000;stroke-linecap:square;stroke-opacity:0.1;stroke-width:0.5;"/>
     </g>
     <g id="line2d_24">
      <g>
       <use style="stroke:#000000;stroke-width:0.5;" x="19.963856" xlink:href="#md661dcaa2d" y="30.089006"/>
      </g>
     </g>
     <g id="text_12">
      <!-- $0.4$ -->
      <g transform="translate(3.663856 33.128381)scale(0.08 -0.08)">
       <defs>
        <path d="M 2419 4116 
L 825 1625 
L 2419 1625 
L 2419 4116 
z
M 2253 4666 
L 3047 4666 
L 3047 1625 
L 3713 1625 
L 3713 1100 
L 3047 1100 
L 3047 0 
L 2419 0 
L 2419 1100 
L 313 1100 
L 313 1709 
L 2253 4666 
z
" id="DejaVuSans-34" transform="scale(0.015625)"/>
       </defs>
       <use transform="translate(0 0.78125)" xlink:href="#DejaVuSans-30"/>
       <use transform="translate(63.623047 0.78125)" xlink:href="#DejaVuSans-2e"/>
       <use transform="translate(95.410156 0.78125)" xlink:href="#DejaVuSans-34"/>
      </g>
     </g>
    </g>
   </g>
   <g id="patch_3">
    <path clip-path="url(#p7b4eff80ff)" d="M -7.058885 264.398075 
L -7.058885 265.378447 
L 5.809087 265.378447 
L 5.809087 264.398075 
L -7.058885 264.398075 
" style="fill:#009afa;stroke:#000000;stroke-linejoin:miter;"/>
   </g>
   <g id="patch_4">
    <path clip-path="url(#p7b4eff80ff)" d="M 5.809087 264.398075 
L 5.809087 265.378447 
L 18.677059 265.378447 
L 18.677059 264.398075 
L 5.809087 264.398075 
" style="fill:#009afa;stroke:#000000;stroke-linejoin:miter;"/>
   </g>
   <g id="patch_5">
    <path clip-path="url(#p7b4eff80ff)" d="M 18.677059 265.378447 
L 18.677059 265.378447 
L 31.54503 265.378447 
L 31.54503 265.378447 
L 18.677059 265.378447 
" style="fill:#009afa;stroke:#000000;stroke-linejoin:miter;"/>
   </g>
   <g id="patch_6">
    <path clip-path="url(#p7b4eff80ff)" d="M 31.54503 260.476584 
L 31.54503 265.378447 
L 44.413002 265.378447 
L 44.413002 260.476584 
L 31.54503 260.476584 
" style="fill:#009afa;stroke:#000000;stroke-linejoin:miter;"/>
   </g>
   <g id="patch_7">
    <path clip-path="url(#p7b4eff80ff)" d="M 44.413002 259.496211 
L 44.413002 265.378447 
L 57.280974 265.378447 
L 57.280974 259.496211 
L 44.413002 259.496211 
" style="fill:#009afa;stroke:#000000;stroke-linejoin:miter;"/>
   </g>
   <g id="patch_8">
    <path clip-path="url(#p7b4eff80ff)" d="M 57.280974 258.515839 
L 57.280974 265.378447 
L 70.148945 265.378447 
L 70.148945 258.515839 
L 57.280974 258.515839 
" style="fill:#009afa;stroke:#000000;stroke-linejoin:miter;"/>
   </g>
   <g id="patch_9">
    <path clip-path="url(#p7b4eff80ff)" d="M 70.148945 248.712112 
L 70.148945 265.378447 
L 83.016917 265.378447 
L 83.016917 248.712112 
L 70.148945 248.712112 
" style="fill:#009afa;stroke:#000000;stroke-linejoin:miter;"/>
   </g>
   <g id="patch_10">
    <path clip-path="url(#p7b4eff80ff)" d="M 83.016917 235.967267 
L 83.016917 265.378447 
L 95.884889 265.378447 
L 95.884889 235.967267 
L 83.016917 235.967267 
" style="fill:#009afa;stroke:#000000;stroke-linejoin:miter;"/>
   </g>
   <g id="patch_11">
    <path clip-path="url(#p7b4eff80ff)" d="M 95.884889 235.967267 
L 95.884889 265.378447 
L 108.75286 265.378447 
L 108.75286 235.967267 
L 95.884889 235.967267 
" style="fill:#009afa;stroke:#000000;stroke-linejoin:miter;"/>
   </g>
   <g id="patch_12">
    <path clip-path="url(#p7b4eff80ff)" d="M 108.75286 203.614969 
L 108.75286 265.378447 
L 121.620832 265.378447 
L 121.620832 203.614969 
L 108.75286 203.614969 
" style="fill:#009afa;stroke:#000000;stroke-linejoin:miter;"/>
   </g>
   <g id="patch_13">
    <path clip-path="url(#p7b4eff80ff)" d="M 121.620832 178.12528 
L 121.620832 265.378447 
L 134.488804 265.378447 
L 134.488804 178.12528 
L 121.620832 178.12528 
" style="fill:#009afa;stroke:#000000;stroke-linejoin:miter;"/>
   </g>
   <g id="patch_14">
    <path clip-path="url(#p7b4eff80ff)" d="M 134.488804 168.321553 
L 134.488804 265.378447 
L 147.356775 265.378447 
L 147.356775 168.321553 
L 134.488804 168.321553 
" style="fill:#009afa;stroke:#000000;stroke-linejoin:miter;"/>
   </g>
   <g id="patch_15">
    <path clip-path="url(#p7b4eff80ff)" d="M 147.356775 155.576708 
L 147.356775 265.378447 
L 160.224747 265.378447 
L 160.224747 155.576708 
L 147.356775 155.576708 
" style="fill:#009afa;stroke:#000000;stroke-linejoin:miter;"/>
   </g>
   <g id="patch_16">
    <path clip-path="url(#p7b4eff80ff)" d="M 160.224747 101.656211 
L 160.224747 265.378447 
L 173.092719 265.378447 
L 173.092719 101.656211 
L 160.224747 101.656211 
" style="fill:#009afa;stroke:#000000;stroke-linejoin:miter;"/>
   </g>
   <g id="patch_17">
    <path clip-path="url(#p7b4eff80ff)" d="M 173.092719 60.480559 
L 173.092719 265.378447 
L 185.96069 265.378447 
L 185.96069 60.480559 
L 173.092719 60.480559 
" style="fill:#009afa;stroke:#000000;stroke-linejoin:miter;"/>
   </g>
   <g id="patch_18">
    <path clip-path="url(#p7b4eff80ff)" d="M 185.96069 103.616956 
L 185.96069 265.378447 
L 198.828662 265.378447 
L 198.828662 103.616956 
L 185.96069 103.616956 
" style="fill:#009afa;stroke:#000000;stroke-linejoin:miter;"/>
   </g>
   <g id="patch_19">
    <path clip-path="url(#p7b4eff80ff)" d="M 198.828662 26.167515 
L 198.828662 265.378447 
L 211.696633 265.378447 
L 211.696633 26.167515 
L 198.828662 26.167515 
" style="fill:#009afa;stroke:#000000;stroke-linejoin:miter;"/>
   </g>
   <g id="patch_20">
    <path clip-path="url(#p7b4eff80ff)" d="M 211.696633 69.303913 
L 211.696633 265.378447 
L 224.564605 265.378447 
L 224.564605 69.303913 
L 211.696633 69.303913 
" style="fill:#009afa;stroke:#000000;stroke-linejoin:miter;"/>
   </g>
   <g id="patch_21">
    <path clip-path="url(#p7b4eff80ff)" d="M 224.564605 10.481553 
L 224.564605 265.378447 
L 237.432577 265.378447 
L 237.432577 10.481553 
L 224.564605 10.481553 
" style="fill:#009afa;stroke:#000000;stroke-linejoin:miter;"/>
   </g>
   <g id="patch_22">
    <path clip-path="url(#p7b4eff80ff)" d="M 237.432577 44.794596 
L 237.432577 265.378447 
L 250.300548 265.378447 
L 250.300548 44.794596 
L 237.432577 44.794596 
" style="fill:#009afa;stroke:#000000;stroke-linejoin:miter;"/>
   </g>
   <g id="patch_23">
    <path clip-path="url(#p7b4eff80ff)" d="M 250.300548 51.657205 
L 250.300548 265.378447 
L 263.16852 265.378447 
L 263.16852 51.657205 
L 250.300548 51.657205 
" style="fill:#009afa;stroke:#000000;stroke-linejoin:miter;"/>
   </g>
   <g id="patch_24">
    <path clip-path="url(#p7b4eff80ff)" d="M 263.16852 81.068385 
L 263.16852 265.378447 
L 276.036492 265.378447 
L 276.036492 81.068385 
L 263.16852 81.068385 
" style="fill:#009afa;stroke:#000000;stroke-linejoin:miter;"/>
   </g>
   <g id="patch_25">
    <path clip-path="url(#p7b4eff80ff)" d="M 276.036492 96.754348 
L 276.036492 265.378447 
L 288.904463 265.378447 
L 288.904463 96.754348 
L 276.036492 96.754348 
" style="fill:#009afa;stroke:#000000;stroke-linejoin:miter;"/>
   </g>
   <g id="patch_26">
    <path clip-path="url(#p7b4eff80ff)" d="M 288.904463 124.204783 
L 288.904463 265.378447 
L 301.772435 265.378447 
L 301.772435 124.204783 
L 288.904463 124.204783 
" style="fill:#009afa;stroke:#000000;stroke-linejoin:miter;"/>
   </g>
   <g id="patch_27">
    <path clip-path="url(#p7b4eff80ff)" d="M 301.772435 176.164534 
L 301.772435 265.378447 
L 314.640407 265.378447 
L 314.640407 176.164534 
L 301.772435 176.164534 
" style="fill:#009afa;stroke:#000000;stroke-linejoin:miter;"/>
   </g>
   <g id="patch_28">
    <path clip-path="url(#p7b4eff80ff)" d="M 314.640407 181.066398 
L 314.640407 265.378447 
L 327.508378 265.378447 
L 327.508378 181.066398 
L 314.640407 181.066398 
" style="fill:#009afa;stroke:#000000;stroke-linejoin:miter;"/>
   </g>
   <g id="patch_29">
    <path clip-path="url(#p7b4eff80ff)" d="M 327.508378 214.399068 
L 327.508378 265.378447 
L 340.37635 265.378447 
L 340.37635 214.399068 
L 327.508378 214.399068 
" style="fill:#009afa;stroke:#000000;stroke-linejoin:miter;"/>
   </g>
   <g id="patch_30">
    <path clip-path="url(#p7b4eff80ff)" d="M 340.37635 218.320559 
L 340.37635 265.378447 
L 353.244322 265.378447 
L 353.244322 218.320559 
L 340.37635 218.320559 
" style="fill:#009afa;stroke:#000000;stroke-linejoin:miter;"/>
   </g>
   <g id="patch_31">
    <path clip-path="url(#p7b4eff80ff)" d="M 353.244322 241.849503 
L 353.244322 265.378447 
L 366.112293 265.378447 
L 366.112293 241.849503 
L 353.244322 241.849503 
" style="fill:#009afa;stroke:#000000;stroke-linejoin:miter;"/>
   </g>
   <g id="patch_32">
    <path clip-path="url(#p7b4eff80ff)" d="M 366.112293 247.731739 
L 366.112293 265.378447 
L 378.980265 265.378447 
L 378.980265 247.731739 
L 366.112293 247.731739 
" style="fill:#009afa;stroke:#000000;stroke-linejoin:miter;"/>
   </g>
   <g id="patch_33">
    <path clip-path="url(#p7b4eff80ff)" d="M 378.980265 254.594348 
L 378.980265 265.378447 
L 391.848237 265.378447 
L 391.848237 254.594348 
L 378.980265 254.594348 
" style="fill:#009afa;stroke:#000000;stroke-linejoin:miter;"/>
   </g>
   <g id="patch_34">
    <path clip-path="url(#p7b4eff80ff)" d="M 391.848237 258.515839 
L 391.848237 265.378447 
L 404.716208 265.378447 
L 404.716208 258.515839 
L 391.848237 258.515839 
" style="fill:#009afa;stroke:#000000;stroke-linejoin:miter;"/>
   </g>
   <g id="patch_35">
    <path clip-path="url(#p7b4eff80ff)" d="M 404.716208 257.535466 
L 404.716208 265.378447 
L 417.58418 265.378447 
L 417.58418 257.535466 
L 404.716208 257.535466 
" style="fill:#009afa;stroke:#000000;stroke-linejoin:miter;"/>
   </g>
   <g id="patch_36">
    <path clip-path="url(#p7b4eff80ff)" d="M 417.58418 264.398075 
L 417.58418 265.378447 
L 430.452151 265.378447 
L 430.452151 264.398075 
L 417.58418 264.398075 
" style="fill:#009afa;stroke:#000000;stroke-linejoin:miter;"/>
   </g>
   <g id="patch_37">
    <path clip-path="url(#p7b4eff80ff)" d="M 430.452151 265.378447 
L 430.452151 265.378447 
L 443.320123 265.378447 
L 443.320123 265.378447 
L 430.452151 265.378447 
" style="fill:#009afa;stroke:#000000;stroke-linejoin:miter;"/>
   </g>
   <g id="patch_38">
    <path clip-path="url(#p7b4eff80ff)" d="M 443.320123 265.378447 
L 443.320123 265.378447 
L 456.188095 265.378447 
L 456.188095 265.378447 
L 443.320123 265.378447 
" style="fill:#009afa;stroke:#000000;stroke-linejoin:miter;"/>
   </g>
   <g id="patch_39">
    <path clip-path="url(#p7b4eff80ff)" d="M 456.188095 263.417702 
L 456.188095 265.378447 
L 469.056066 265.378447 
L 469.056066 263.417702 
L 456.188095 263.417702 
" style="fill:#009afa;stroke:#000000;stroke-linejoin:miter;"/>
   </g>
   <g id="PathCollection_1">
    <defs>
     <path d="M 0 0 
C 0 0 0 0 0 0 
C 0 0 0 0 0 0 
C 0 0 0 0 0 0 
C 0 0 0 0 0 0 
C 0 0 0 0 0 0 
C 0 0 0 0 0 0 
C 0 0 0 0 0 0 
C 0 0 0 0 0 0 
z
" id="m8832d8f558" style="stroke:#000000;stroke-opacity:0;"/>
    </defs>
    <g clip-path="url(#p7b4eff80ff)">
     <use style="fill:#009afa;fill-opacity:0;stroke:#000000;stroke-opacity:0;" x="-0.624899" xlink:href="#m8832d8f558" y="264.398075"/>
     <use style="fill:#009afa;fill-opacity:0;stroke:#000000;stroke-opacity:0;" x="12.243073" xlink:href="#m8832d8f558" y="264.398075"/>
     <use style="fill:#009afa;fill-opacity:0;stroke:#000000;stroke-opacity:0;" x="25.111045" xlink:href="#m8832d8f558" y="265.378447"/>
     <use style="fill:#009afa;fill-opacity:0;stroke:#000000;stroke-opacity:0;" x="37.979016" xlink:href="#m8832d8f558" y="260.476584"/>
     <use style="fill:#009afa;fill-opacity:0;stroke:#000000;stroke-opacity:0;" x="50.846988" xlink:href="#m8832d8f558" y="259.496211"/>
     <use style="fill:#009afa;fill-opacity:0;stroke:#000000;stroke-opacity:0;" x="63.714959" xlink:href="#m8832d8f558" y="258.515839"/>
     <use style="fill:#009afa;fill-opacity:0;stroke:#000000;stroke-opacity:0;" x="76.582931" xlink:href="#m8832d8f558" y="248.712112"/>
     <use style="fill:#009afa;fill-opacity:0;stroke:#000000;stroke-opacity:0;" x="89.450903" xlink:href="#m8832d8f558" y="235.967267"/>
     <use style="fill:#009afa;fill-opacity:0;stroke:#000000;stroke-opacity:0;" x="102.318874" xlink:href="#m8832d8f558" y="235.967267"/>
     <use style="fill:#009afa;fill-opacity:0;stroke:#000000;stroke-opacity:0;" x="115.186846" xlink:href="#m8832d8f558" y="203.614969"/>
     <use style="fill:#009afa;fill-opacity:0;stroke:#000000;stroke-opacity:0;" x="128.054818" xlink:href="#m8832d8f558" y="178.12528"/>
     <use style="fill:#009afa;fill-opacity:0;stroke:#000000;stroke-opacity:0;" x="140.922789" xlink:href="#m8832d8f558" y="168.321553"/>
     <use style="fill:#009afa;fill-opacity:0;stroke:#000000;stroke-opacity:0;" x="153.790761" xlink:href="#m8832d8f558" y="155.576708"/>
     <use style="fill:#009afa;fill-opacity:0;stroke:#000000;stroke-opacity:0;" x="166.658733" xlink:href="#m8832d8f558" y="101.656211"/>
     <use style="fill:#009afa;fill-opacity:0;stroke:#000000;stroke-opacity:0;" x="179.526704" xlink:href="#m8832d8f558" y="60.480559"/>
     <use style="fill:#009afa;fill-opacity:0;stroke:#000000;stroke-opacity:0;" x="192.394676" xlink:href="#m8832d8f558" y="103.616956"/>
     <use style="fill:#009afa;fill-opacity:0;stroke:#000000;stroke-opacity:0;" x="205.262648" xlink:href="#m8832d8f558" y="26.167515"/>
     <use style="fill:#009afa;fill-opacity:0;stroke:#000000;stroke-opacity:0;" x="218.130619" xlink:href="#m8832d8f558" y="69.303913"/>
     <use style="fill:#009afa;fill-opacity:0;stroke:#000000;stroke-opacity:0;" x="230.998591" xlink:href="#m8832d8f558" y="10.481553"/>
     <use style="fill:#009afa;fill-opacity:0;stroke:#000000;stroke-opacity:0;" x="243.866563" xlink:href="#m8832d8f558" y="44.794596"/>
     <use style="fill:#009afa;fill-opacity:0;stroke:#000000;stroke-opacity:0;" x="256.734534" xlink:href="#m8832d8f558" y="51.657205"/>
     <use style="fill:#009afa;fill-opacity:0;stroke:#000000;stroke-opacity:0;" x="269.602506" xlink:href="#m8832d8f558" y="81.068385"/>
     <use style="fill:#009afa;fill-opacity:0;stroke:#000000;stroke-opacity:0;" x="282.470478" xlink:href="#m8832d8f558" y="96.754348"/>
     <use style="fill:#009afa;fill-opacity:0;stroke:#000000;stroke-opacity:0;" x="295.338449" xlink:href="#m8832d8f558" y="124.204783"/>
     <use style="fill:#009afa;fill-opacity:0;stroke:#000000;stroke-opacity:0;" x="308.206421" xlink:href="#m8832d8f558" y="176.164534"/>
     <use style="fill:#009afa;fill-opacity:0;stroke:#000000;stroke-opacity:0;" x="321.074392" xlink:href="#m8832d8f558" y="181.066398"/>
     <use style="fill:#009afa;fill-opacity:0;stroke:#000000;stroke-opacity:0;" x="333.942364" xlink:href="#m8832d8f558" y="214.399068"/>
     <use style="fill:#009afa;fill-opacity:0;stroke:#000000;stroke-opacity:0;" x="346.810336" xlink:href="#m8832d8f558" y="218.320559"/>
     <use style="fill:#009afa;fill-opacity:0;stroke:#000000;stroke-opacity:0;" x="359.678307" xlink:href="#m8832d8f558" y="241.849503"/>
     <use style="fill:#009afa;fill-opacity:0;stroke:#000000;stroke-opacity:0;" x="372.546279" xlink:href="#m8832d8f558" y="247.731739"/>
     <use style="fill:#009afa;fill-opacity:0;stroke:#000000;stroke-opacity:0;" x="385.414251" xlink:href="#m8832d8f558" y="254.594348"/>
     <use style="fill:#009afa;fill-opacity:0;stroke:#000000;stroke-opacity:0;" x="398.282222" xlink:href="#m8832d8f558" y="258.515839"/>
     <use style="fill:#009afa;fill-opacity:0;stroke:#000000;stroke-opacity:0;" x="411.150194" xlink:href="#m8832d8f558" y="257.535466"/>
     <use style="fill:#009afa;fill-opacity:0;stroke:#000000;stroke-opacity:0;" x="424.018166" xlink:href="#m8832d8f558" y="264.398075"/>
     <use style="fill:#009afa;fill-opacity:0;stroke:#000000;stroke-opacity:0;" x="436.886137" xlink:href="#m8832d8f558" y="265.378447"/>
     <use style="fill:#009afa;fill-opacity:0;stroke:#000000;stroke-opacity:0;" x="449.754109" xlink:href="#m8832d8f558" y="265.378447"/>
     <use style="fill:#009afa;fill-opacity:0;stroke:#000000;stroke-opacity:0;" x="462.622081" xlink:href="#m8832d8f558" y="263.417702"/>
    </g>
   </g>
   <g id="line2d_25">
    <path clip-path="url(#p7b4eff80ff)" d="M -1 264.805072 
L 6.372456 264.631753 
L 29.158614 263.047655 
L 42.852145 261.02944 
L 56.545676 257.623045 
L 68.123383 253.170152 
L 79.701089 246.772875 
L 85.989406 242.30365 
L 92.277723 237.032941 
L 98.56604 230.889333 
L 104.854357 223.813106 
L 110.651629 216.425776 
L 116.448901 208.191682 
L 122.246174 199.112752 
L 128.043446 189.213338 
L 140.474023 165.487719 
L 152.904599 139.171459 
L 167.306642 107.44385 
L 181.708684 77.39895 
L 188.108102 65.514418 
L 194.50752 54.970379 
L 200.906937 46.050621 
L 207.306355 39.003335 
L 212.918068 34.524501 
L 218.529781 31.741181 
L 224.141493 30.716256 
L 229.753206 31.47301 
L 235.871479 34.307007 
L 241.989752 39.161554 
L 248.108026 45.907717 
L 254.226299 54.369441 
L 260.380935 64.394383 
L 266.53557 75.686784 
L 272.690206 87.975489 
L 278.844842 100.979337 
L 292.454316 130.890698 
L 306.063789 160.173911 
L 312.538325 173.232376 
L 319.01286 185.483131 
L 325.487396 196.803109 
L 331.961931 207.112241 
L 338.693946 216.716643 
L 345.42596 225.180389 
L 352.157975 232.533593 
L 358.88999 238.83392 
L 364.556912 243.378056 
L 370.223834 247.285194 
L 375.890757 250.613436 
L 381.557679 253.422561 
L 395.395019 258.46601 
L 409.232358 261.562583 
L 422.239866 263.28572 
L 433 264.105484 
" style="fill:none;stroke:#e36f47;"/>
   </g>
   <g id="patch_40">
    <path d="M 19.963856 273.025354 
L 19.963856 2.834646 
" style="fill:none;stroke:#000000;stroke-linecap:square;stroke-linejoin:miter;"/>
   </g>
   <g id="patch_41">
    <path d="M 19.963856 273.025354 
L 429.165354 273.025354 
" style="fill:none;stroke:#000000;stroke-linecap:square;stroke-linejoin:miter;"/>
   </g>
   <g id="legend_1">
    <g id="patch_42">
     <path d="M 335.649104 40.337146 
L 425.165354 40.337146 
L 425.165354 6.834646 
L 335.649104 6.834646 
z
" style="fill:#ffffff;stroke:#000000;stroke-linejoin:miter;"/>
    </g>
    <g id="patch_43">
     <path d="M 342.049104 19.313396 
L 358.049104 19.313396 
L 358.049104 13.713396 
L 342.049104 13.713396 
z
" style="fill:#009afa;stroke:#000000;stroke-linejoin:miter;"/>
    </g>
    <g id="text_13">
     <!-- sample mean -->
     <g transform="translate(364.449104 19.313396)scale(0.08 -0.08)">
      <defs>
       <path d="M 2834 3397 
L 2834 2853 
Q 2591 2978 2328 3040 
Q 2066 3103 1784 3103 
Q 1356 3103 1142 2972 
Q 928 2841 928 2578 
Q 928 2378 1081 2264 
Q 1234 2150 1697 2047 
L 1894 2003 
Q 2506 1872 2764 1633 
Q 3022 1394 3022 966 
Q 3022 478 2636 193 
Q 2250 -91 1575 -91 
Q 1294 -91 989 -36 
Q 684 19 347 128 
L 347 722 
Q 666 556 975 473 
Q 1284 391 1588 391 
Q 1994 391 2212 530 
Q 2431 669 2431 922 
Q 2431 1156 2273 1281 
Q 2116 1406 1581 1522 
L 1381 1569 
Q 847 1681 609 1914 
Q 372 2147 372 2553 
Q 372 3047 722 3315 
Q 1072 3584 1716 3584 
Q 2034 3584 2315 3537 
Q 2597 3491 2834 3397 
z
" id="DejaVuSans-73" transform="scale(0.015625)"/>
       <path d="M 2194 1759 
Q 1497 1759 1228 1600 
Q 959 1441 959 1056 
Q 959 750 1161 570 
Q 1363 391 1709 391 
Q 2188 391 2477 730 
Q 2766 1069 2766 1631 
L 2766 1759 
L 2194 1759 
z
M 3341 1997 
L 3341 0 
L 2766 0 
L 2766 531 
Q 2569 213 2275 61 
Q 1981 -91 1556 -91 
Q 1019 -91 701 211 
Q 384 513 384 1019 
Q 384 1609 779 1909 
Q 1175 2209 1959 2209 
L 2766 2209 
L 2766 2266 
Q 2766 2663 2505 2880 
Q 2244 3097 1772 3097 
Q 1472 3097 1187 3025 
Q 903 2953 641 2809 
L 641 3341 
Q 956 3463 1253 3523 
Q 1550 3584 1831 3584 
Q 2591 3584 2966 3190 
Q 3341 2797 3341 1997 
z
" id="DejaVuSans-61" transform="scale(0.015625)"/>
       <path d="M 3328 2828 
Q 3544 3216 3844 3400 
Q 4144 3584 4550 3584 
Q 5097 3584 5394 3201 
Q 5691 2819 5691 2113 
L 5691 0 
L 5113 0 
L 5113 2094 
Q 5113 2597 4934 2840 
Q 4756 3084 4391 3084 
Q 3944 3084 3684 2787 
Q 3425 2491 3425 1978 
L 3425 0 
L 2847 0 
L 2847 2094 
Q 2847 2600 2669 2842 
Q 2491 3084 2119 3084 
Q 1678 3084 1418 2786 
Q 1159 2488 1159 1978 
L 1159 0 
L 581 0 
L 581 3500 
L 1159 3500 
L 1159 2956 
Q 1356 3278 1631 3431 
Q 1906 3584 2284 3584 
Q 2666 3584 2933 3390 
Q 3200 3197 3328 2828 
z
" id="DejaVuSans-6d" transform="scale(0.015625)"/>
       <path d="M 1159 525 
L 1159 -1331 
L 581 -1331 
L 581 3500 
L 1159 3500 
L 1159 2969 
Q 1341 3281 1617 3432 
Q 1894 3584 2278 3584 
Q 2916 3584 3314 3078 
Q 3713 2572 3713 1747 
Q 3713 922 3314 415 
Q 2916 -91 2278 -91 
Q 1894 -91 1617 61 
Q 1341 213 1159 525 
z
M 3116 1747 
Q 3116 2381 2855 2742 
Q 2594 3103 2138 3103 
Q 1681 3103 1420 2742 
Q 1159 2381 1159 1747 
Q 1159 1113 1420 752 
Q 1681 391 2138 391 
Q 2594 391 2855 752 
Q 3116 1113 3116 1747 
z
" id="DejaVuSans-70" transform="scale(0.015625)"/>
       <path d="M 603 4863 
L 1178 4863 
L 1178 0 
L 603 0 
L 603 4863 
z
" id="DejaVuSans-6c" transform="scale(0.015625)"/>
       <path d="M 3597 1894 
L 3597 1613 
L 953 1613 
Q 991 1019 1311 708 
Q 1631 397 2203 397 
Q 2534 397 2845 478 
Q 3156 559 3463 722 
L 3463 178 
Q 3153 47 2828 -22 
Q 2503 -91 2169 -91 
Q 1331 -91 842 396 
Q 353 884 353 1716 
Q 353 2575 817 3079 
Q 1281 3584 2069 3584 
Q 2775 3584 3186 3129 
Q 3597 2675 3597 1894 
z
M 3022 2063 
Q 3016 2534 2758 2815 
Q 2500 3097 2075 3097 
Q 1594 3097 1305 2825 
Q 1016 2553 972 2059 
L 3022 2063 
z
" id="DejaVuSans-65" transform="scale(0.015625)"/>
       <path id="DejaVuSans-20" transform="scale(0.015625)"/>
       <path d="M 3513 2113 
L 3513 0 
L 2938 0 
L 2938 2094 
Q 2938 2591 2744 2837 
Q 2550 3084 2163 3084 
Q 1697 3084 1428 2787 
Q 1159 2491 1159 1978 
L 1159 0 
L 581 0 
L 581 3500 
L 1159 3500 
L 1159 2956 
Q 1366 3272 1645 3428 
Q 1925 3584 2291 3584 
Q 2894 3584 3203 3211 
Q 3513 2838 3513 2113 
z
" id="DejaVuSans-6e" transform="scale(0.015625)"/>
      </defs>
      <use xlink:href="#DejaVuSans-73"/>
      <use x="52.099609" xlink:href="#DejaVuSans-61"/>
      <use x="113.378906" xlink:href="#DejaVuSans-6d"/>
      <use x="210.791016" xlink:href="#DejaVuSans-70"/>
      <use x="274.267578" xlink:href="#DejaVuSans-6c"/>
      <use x="302.050781" xlink:href="#DejaVuSans-65"/>
      <use x="363.574219" xlink:href="#DejaVuSans-20"/>
      <use x="395.361328" xlink:href="#DejaVuSans-6d"/>
      <use x="492.773438" xlink:href="#DejaVuSans-65"/>
      <use x="554.296875" xlink:href="#DejaVuSans-61"/>
      <use x="615.576172" xlink:href="#DejaVuSans-6e"/>
     </g>
    </g>
    <g id="line2d_26">
     <path d="M 342.049104 29.457146 
L 358.049104 29.457146 
" style="fill:none;stroke:#e36f47;stroke-linejoin:miter;"/>
    </g>
    <g id="line2d_27"/>
    <g id="text_14">
     <!-- $\mathcal{N}(μ,σ^2)$ -->
     <g transform="translate(364.449104 32.257146)scale(0.08 -0.08)">
      <defs>
       <path d="M 4294 800 
L 4301 800 
Q 5293 4070 5408 4378 
Q 5472 4538 5523 4614 
Q 5830 5088 6253 5088 
Q 6490 5088 6650 4931 
Q 6810 4774 6810 4550 
Q 6810 4378 6720 4272 
Q 6630 4166 6470 4166 
Q 6368 4166 6297 4224 
Q 6227 4282 6198 4349 
Q 6170 4416 6118 4473 
Q 6067 4531 6003 4531 
Q 5939 4531 5881 4508 
Q 5824 4486 5785 4457 
Q 5747 4429 5705 4371 
Q 5664 4314 5638 4275 
Q 5613 4237 5584 4163 
Q 5555 4090 5545 4058 
Q 5536 4026 5510 3952 
Q 5485 3878 5485 3866 
L 4262 -154 
L 4134 -154 
Q 3078 1280 2483 2893 
L 2470 2893 
Q 2406 2579 2358 2361 
Q 2310 2144 2214 1792 
Q 2118 1440 2028 1190 
Q 1939 941 1804 653 
Q 1670 365 1529 185 
Q 1389 6 1203 -115 
Q 1018 -237 813 -237 
Q 576 -237 416 -80 
Q 256 77 256 301 
Q 256 474 345 579 
Q 435 685 595 685 
Q 698 685 768 627 
Q 838 570 867 502 
Q 896 435 947 377 
Q 998 320 1062 320 
Q 1222 320 1369 480 
Q 1517 640 1638 928 
Q 1760 1216 1862 1542 
Q 1965 1869 2057 2288 
Q 2150 2707 2214 3033 
Q 2278 3360 2348 3741 
Q 2419 4122 2458 4294 
L 2630 4294 
Q 2682 4166 2874 3680 
Q 3066 3194 3142 3008 
Q 3219 2822 3392 2422 
Q 3565 2022 3683 1798 
Q 3802 1574 3968 1292 
Q 4134 1011 4294 800 
z
" id="STIXNonUnicode-Italic-e23a" transform="scale(0.015625)"/>
       <path d="M 1984 4856 
Q 1566 4138 1362 3434 
Q 1159 2731 1159 2009 
Q 1159 1288 1364 580 
Q 1569 -128 1984 -844 
L 1484 -844 
Q 1016 -109 783 600 
Q 550 1309 550 2009 
Q 550 2706 781 3412 
Q 1013 4119 1484 4856 
L 1984 4856 
z
" id="DejaVuSans-28" transform="scale(0.015625)"/>
       <path d="M -84 -1331 
L 856 3500 
L 1434 3500 
L 1009 1322 
Q 997 1256 987 1175 
Q 978 1094 978 1013 
Q 978 722 1161 565 
Q 1344 409 1684 409 
Q 2147 409 2431 671 
Q 2716 934 2816 1459 
L 3213 3500 
L 3788 3500 
L 3266 809 
Q 3253 750 3248 706 
Q 3244 663 3244 628 
Q 3244 531 3283 486 
Q 3322 441 3406 441 
Q 3438 441 3492 456 
Q 3547 472 3647 513 
L 3559 50 
Q 3422 -19 3297 -55 
Q 3172 -91 3053 -91 
Q 2847 -91 2730 40 
Q 2613 172 2613 403 
Q 2438 153 2195 31 
Q 1953 -91 1625 -91 
Q 1334 -91 1117 43 
Q 900 178 831 397 
L 494 -1331 
L -84 -1331 
z
" id="DejaVuSans-Oblique-3bc" transform="scale(0.015625)"/>
       <path d="M 750 794 
L 1409 794 
L 1409 256 
L 897 -744 
L 494 -744 
L 750 256 
L 750 794 
z
" id="DejaVuSans-2c" transform="scale(0.015625)"/>
       <path d="M 2219 3044 
Q 1744 3044 1422 2700 
Q 1081 2341 969 1747 
Q 844 1119 1044 756 
Q 1241 397 1706 397 
Q 2166 397 2503 759 
Q 2844 1122 2966 1747 
Q 3075 2319 2881 2700 
Q 2700 3044 2219 3044 
z
M 2309 3503 
L 4219 3500 
L 4106 2925 
L 3463 2925 
Q 3706 2438 3575 1747 
Q 3406 888 2884 400 
Q 2359 -91 1609 -91 
Q 856 -91 525 400 
Q 194 888 363 1747 
Q 528 2609 1050 3097 
Q 1484 3503 2309 3503 
z
" id="DejaVuSans-Oblique-3c3" transform="scale(0.015625)"/>
       <path d="M 513 4856 
L 1013 4856 
Q 1481 4119 1714 3412 
Q 1947 2706 1947 2009 
Q 1947 1309 1714 600 
Q 1481 -109 1013 -844 
L 513 -844 
Q 928 -128 1133 580 
Q 1338 1288 1338 2009 
Q 1338 2731 1133 3434 
Q 928 4138 513 4856 
z
" id="DejaVuSans-29" transform="scale(0.015625)"/>
      </defs>
      <use transform="translate(0 0.765625)" xlink:href="#STIXNonUnicode-Italic-e23a"/>
      <use transform="translate(95.699982 0.765625)" xlink:href="#DejaVuSans-28"/>
      <use transform="translate(134.713654 0.765625)" xlink:href="#DejaVuSans-Oblique-3bc"/>
      <use transform="translate(198.3367 0.765625)" xlink:href="#DejaVuSans-2c"/>
      <use transform="translate(249.606232 0.765625)" xlink:href="#DejaVuSans-Oblique-3c3"/>
      <use transform="translate(317.457846 39.046875)scale(0.7)" xlink:href="#DejaVuSans-32"/>
      <use transform="translate(364.728354 0.765625)" xlink:href="#DejaVuSans-29"/>
     </g>
    </g>
   </g>
  </g>
 </g>
 <defs>
  <clipPath id="p7b4eff80ff">
   <rect height="270.190709" width="409.201498" x="19.963856" y="2.834646"/>
  </clipPath>
 </defs>
</svg>
