<?xml version="1.0" encoding="utf-8" standalone="no"?>
<!DOCTYPE svg PUBLIC "-//W3C//DTD SVG 1.1//EN"
  "http://www.w3.org/Graphics/SVG/1.1/DTD/svg11.dtd">
<svg xmlns:xlink="http://www.w3.org/1999/xlink" width="432pt" height="288pt" viewBox="0 0 432 288" xmlns="http://www.w3.org/2000/svg" version="1.1">
 <metadata>
  <rdf:RDF xmlns:dc="http://purl.org/dc/elements/1.1/" xmlns:cc="http://creativecommons.org/ns#" xmlns:rdf="http://www.w3.org/1999/02/22-rdf-syntax-ns#">
   <cc:Work>
    <dc:type rdf:resource="http://purl.org/dc/dcmitype/StillImage"/>
    <dc:date>2022-12-17T10:06:03.019740</dc:date>
    <dc:format>image/svg+xml</dc:format>
    <dc:creator>
     <cc:Agent>
      <dc:title>Matplotlib v3.6.2, https://matplotlib.org/</dc:title>
     </cc:Agent>
    </dc:creator>
   </cc:Work>
  </rdf:RDF>
 </metadata>
 <defs>
  <style type="text/css">*{stroke-linejoin: round; stroke-linecap: butt}</style>
 </defs>
 <g id="figure_1">
  <g id="patch_1">
   <path d="M 0 288 
L 432 288 
L 432 0 
L 0 0 
z
" style="fill: #ffffff"/>
  </g>
  <g id="axes_1">
   <g id="patch_2">
    <path d="M 19.963856 273.025354 
L 426.240354 273.025354 
L 426.240354 2.834646 
L 19.963856 2.834646 
z
" style="fill: #ffffff"/>
   </g>
   <g id="matplotlib.axis_1">
    <g id="xtick_1">
     <g id="line2d_1">
      <path d="M 19.963856 273.025354 
L 19.963856 2.834646 
" clip-path="url(#p5222144116)" style="fill: none; stroke: #000000; stroke-opacity: 0.1; stroke-width: 0.5; stroke-linecap: square"/>
     </g>
     <g id="line2d_2">
      <defs>
       <path id="m169a2bcaa0" d="M 0 0 
L 0 -2.5 
" style="stroke: #000000; stroke-width: 0.5"/>
      </defs>
      <g>
       <use xlink:href="#m169a2bcaa0" x="19.963856" y="273.025354" style="stroke: #000000; stroke-width: 0.5"/>
      </g>
     </g>
     <g id="text_1">
      <!-- $-3$ -->
      <g transform="translate(14.043856 282.604104) scale(0.08 -0.08)">
       <defs>
        <path id="DejaVuSans-2212" d="M 678 2272 
L 4684 2272 
L 4684 1741 
L 678 1741 
L 678 2272 
z
" transform="scale(0.015625)"/>
        <path id="DejaVuSans-33" d="M 2597 2516 
Q 3050 2419 3304 2112 
Q 3559 1806 3559 1356 
Q 3559 666 3084 287 
Q 2609 -91 1734 -91 
Q 1441 -91 1130 -33 
Q 819 25 488 141 
L 488 750 
Q 750 597 1062 519 
Q 1375 441 1716 441 
Q 2309 441 2620 675 
Q 2931 909 2931 1356 
Q 2931 1769 2642 2001 
Q 2353 2234 1838 2234 
L 1294 2234 
L 1294 2753 
L 1863 2753 
Q 2328 2753 2575 2939 
Q 2822 3125 2822 3475 
Q 2822 3834 2567 4026 
Q 2313 4219 1838 4219 
Q 1578 4219 1281 4162 
Q 984 4106 628 3988 
L 628 4550 
Q 988 4650 1302 4700 
Q 1616 4750 1894 4750 
Q 2613 4750 3031 4423 
Q 3450 4097 3450 3541 
Q 3450 3153 3228 2886 
Q 3006 2619 2597 2516 
z
" transform="scale(0.015625)"/>
       </defs>
       <use xlink:href="#DejaVuSans-2212" transform="translate(0 0.78125)"/>
       <use xlink:href="#DejaVuSans-33" transform="translate(83.789062 0.78125)"/>
      </g>
     </g>
    </g>
    <g id="xtick_2">
     <g id="line2d_3">
      <path d="M 87.676606 273.025354 
L 87.676606 2.834646 
" clip-path="url(#p5222144116)" style="fill: none; stroke: #000000; stroke-opacity: 0.1; stroke-width: 0.5; stroke-linecap: square"/>
     </g>
     <g id="line2d_4">
      <g>
       <use xlink:href="#m169a2bcaa0" x="87.676606" y="273.025354" style="stroke: #000000; stroke-width: 0.5"/>
      </g>
     </g>
     <g id="text_2">
      <!-- $-2$ -->
      <g transform="translate(81.756606 282.604104) scale(0.08 -0.08)">
       <defs>
        <path id="DejaVuSans-32" d="M 1228 531 
L 3431 531 
L 3431 0 
L 469 0 
L 469 531 
Q 828 903 1448 1529 
Q 2069 2156 2228 2338 
Q 2531 2678 2651 2914 
Q 2772 3150 2772 3378 
Q 2772 3750 2511 3984 
Q 2250 4219 1831 4219 
Q 1534 4219 1204 4116 
Q 875 4013 500 3803 
L 500 4441 
Q 881 4594 1212 4672 
Q 1544 4750 1819 4750 
Q 2544 4750 2975 4387 
Q 3406 4025 3406 3419 
Q 3406 3131 3298 2873 
Q 3191 2616 2906 2266 
Q 2828 2175 2409 1742 
Q 1991 1309 1228 531 
z
" transform="scale(0.015625)"/>
       </defs>
       <use xlink:href="#DejaVuSans-2212" transform="translate(0 0.78125)"/>
       <use xlink:href="#DejaVuSans-32" transform="translate(83.789062 0.78125)"/>
      </g>
     </g>
    </g>
    <g id="xtick_3">
     <g id="line2d_5">
      <path d="M 155.389355 273.025354 
L 155.389355 2.834646 
" clip-path="url(#p5222144116)" style="fill: none; stroke: #000000; stroke-opacity: 0.1; stroke-width: 0.5; stroke-linecap: square"/>
     </g>
     <g id="line2d_6">
      <g>
       <use xlink:href="#m169a2bcaa0" x="155.389355" y="273.025354" style="stroke: #000000; stroke-width: 0.5"/>
      </g>
     </g>
     <g id="text_3">
      <!-- $-1$ -->
      <g transform="translate(149.469355 282.604104) scale(0.08 -0.08)">
       <defs>
        <path id="DejaVuSans-31" d="M 794 531 
L 1825 531 
L 1825 4091 
L 703 3866 
L 703 4441 
L 1819 4666 
L 2450 4666 
L 2450 531 
L 3481 531 
L 3481 0 
L 794 0 
L 794 531 
z
" transform="scale(0.015625)"/>
       </defs>
       <use xlink:href="#DejaVuSans-2212" transform="translate(0 0.09375)"/>
       <use xlink:href="#DejaVuSans-31" transform="translate(83.789062 0.09375)"/>
      </g>
     </g>
    </g>
    <g id="xtick_4">
     <g id="line2d_7">
      <path d="M 223.102105 273.025354 
L 223.102105 2.834646 
" clip-path="url(#p5222144116)" style="fill: none; stroke: #000000; stroke-opacity: 0.1; stroke-width: 0.5; stroke-linecap: square"/>
     </g>
     <g id="line2d_8">
      <g>
       <use xlink:href="#m169a2bcaa0" x="223.102105" y="273.025354" style="stroke: #000000; stroke-width: 0.5"/>
      </g>
     </g>
     <g id="text_4">
      <!-- $0$ -->
      <g transform="translate(220.542105 282.604104) scale(0.08 -0.08)">
       <defs>
        <path id="DejaVuSans-30" d="M 2034 4250 
Q 1547 4250 1301 3770 
Q 1056 3291 1056 2328 
Q 1056 1369 1301 889 
Q 1547 409 2034 409 
Q 2525 409 2770 889 
Q 3016 1369 3016 2328 
Q 3016 3291 2770 3770 
Q 2525 4250 2034 4250 
z
M 2034 4750 
Q 2819 4750 3233 4129 
Q 3647 3509 3647 2328 
Q 3647 1150 3233 529 
Q 2819 -91 2034 -91 
Q 1250 -91 836 529 
Q 422 1150 422 2328 
Q 422 3509 836 4129 
Q 1250 4750 2034 4750 
z
" transform="scale(0.015625)"/>
       </defs>
       <use xlink:href="#DejaVuSans-30" transform="translate(0 0.78125)"/>
      </g>
     </g>
    </g>
    <g id="xtick_5">
     <g id="line2d_9">
      <path d="M 290.814855 273.025354 
L 290.814855 2.834646 
" clip-path="url(#p5222144116)" style="fill: none; stroke: #000000; stroke-opacity: 0.1; stroke-width: 0.5; stroke-linecap: square"/>
     </g>
     <g id="line2d_10">
      <g>
       <use xlink:href="#m169a2bcaa0" x="290.814855" y="273.025354" style="stroke: #000000; stroke-width: 0.5"/>
      </g>
     </g>
     <g id="text_5">
      <!-- $1$ -->
      <g transform="translate(288.254855 282.604104) scale(0.08 -0.08)">
       <use xlink:href="#DejaVuSans-31" transform="translate(0 0.09375)"/>
      </g>
     </g>
    </g>
    <g id="xtick_6">
     <g id="line2d_11">
      <path d="M 358.527605 273.025354 
L 358.527605 2.834646 
" clip-path="url(#p5222144116)" style="fill: none; stroke: #000000; stroke-opacity: 0.1; stroke-width: 0.5; stroke-linecap: square"/>
     </g>
     <g id="line2d_12">
      <g>
       <use xlink:href="#m169a2bcaa0" x="358.527605" y="273.025354" style="stroke: #000000; stroke-width: 0.5"/>
      </g>
     </g>
     <g id="text_6">
      <!-- $2$ -->
      <g transform="translate(355.967605 282.604104) scale(0.08 -0.08)">
       <use xlink:href="#DejaVuSans-32" transform="translate(0 0.78125)"/>
      </g>
     </g>
    </g>
    <g id="xtick_7">
     <g id="line2d_13">
      <path d="M 426.240354 273.025354 
L 426.240354 2.834646 
" clip-path="url(#p5222144116)" style="fill: none; stroke: #000000; stroke-opacity: 0.1; stroke-width: 0.5; stroke-linecap: square"/>
     </g>
     <g id="line2d_14">
      <g>
       <use xlink:href="#m169a2bcaa0" x="426.240354" y="273.025354" style="stroke: #000000; stroke-width: 0.5"/>
      </g>
     </g>
     <g id="text_7">
      <!-- $3$ -->
      <g transform="translate(423.680354 282.604104) scale(0.08 -0.08)">
       <use xlink:href="#DejaVuSans-33" transform="translate(0 0.78125)"/>
      </g>
     </g>
    </g>
   </g>
   <g id="matplotlib.axis_2">
    <g id="ytick_1">
     <g id="line2d_15">
      <path d="M 19.963856 265.378447 
L 426.240354 265.378447 
" clip-path="url(#p5222144116)" style="fill: none; stroke: #000000; stroke-opacity: 0.1; stroke-width: 0.5; stroke-linecap: square"/>
     </g>
     <g id="line2d_16">
      <defs>
       <path id="m016c977666" d="M 0 0 
L 2.5 0 
" style="stroke: #000000; stroke-width: 0.5"/>
      </defs>
      <g>
       <use xlink:href="#m016c977666" x="19.963856" y="265.378447" style="stroke: #000000; stroke-width: 0.5"/>
      </g>
     </g>
     <g id="text_8">
      <!-- $0.0$ -->
      <g transform="translate(3.663856 268.417822) scale(0.08 -0.08)">
       <defs>
        <path id="DejaVuSans-2e" d="M 684 794 
L 1344 794 
L 1344 0 
L 684 0 
L 684 794 
z
" transform="scale(0.015625)"/>
       </defs>
       <use xlink:href="#DejaVuSans-30" transform="translate(0 0.78125)"/>
       <use xlink:href="#DejaVuSans-2e" transform="translate(63.623047 0.78125)"/>
       <use xlink:href="#DejaVuSans-30" transform="translate(95.410156 0.78125)"/>
      </g>
     </g>
    </g>
    <g id="ytick_2">
     <g id="line2d_17">
      <path d="M 19.963856 207.005113 
L 426.240354 207.005113 
" clip-path="url(#p5222144116)" style="fill: none; stroke: #000000; stroke-opacity: 0.1; stroke-width: 0.5; stroke-linecap: square"/>
     </g>
     <g id="line2d_18">
      <g>
       <use xlink:href="#m016c977666" x="19.963856" y="207.005113" style="stroke: #000000; stroke-width: 0.5"/>
      </g>
     </g>
     <g id="text_9">
      <!-- $0.1$ -->
      <g transform="translate(3.663856 210.044488) scale(0.08 -0.08)">
       <use xlink:href="#DejaVuSans-30" transform="translate(0 0.78125)"/>
       <use xlink:href="#DejaVuSans-2e" transform="translate(63.623047 0.78125)"/>
       <use xlink:href="#DejaVuSans-31" transform="translate(95.410156 0.78125)"/>
      </g>
     </g>
    </g>
    <g id="ytick_3">
     <g id="line2d_19">
      <path d="M 19.963856 148.631778 
L 426.240354 148.631778 
" clip-path="url(#p5222144116)" style="fill: none; stroke: #000000; stroke-opacity: 0.1; stroke-width: 0.5; stroke-linecap: square"/>
     </g>
     <g id="line2d_20">
      <g>
       <use xlink:href="#m016c977666" x="19.963856" y="148.631778" style="stroke: #000000; stroke-width: 0.5"/>
      </g>
     </g>
     <g id="text_10">
      <!-- $0.2$ -->
      <g transform="translate(4.143856 151.671153) scale(0.08 -0.08)">
       <use xlink:href="#DejaVuSans-30" transform="translate(0 0.78125)"/>
       <use xlink:href="#DejaVuSans-2e" transform="translate(63.623047 0.78125)"/>
       <use xlink:href="#DejaVuSans-32" transform="translate(89.910156 0.78125)"/>
      </g>
     </g>
    </g>
    <g id="ytick_4">
     <g id="line2d_21">
      <path d="M 19.963856 90.258443 
L 426.240354 90.258443 
" clip-path="url(#p5222144116)" style="fill: none; stroke: #000000; stroke-opacity: 0.1; stroke-width: 0.5; stroke-linecap: square"/>
     </g>
     <g id="line2d_22">
      <g>
       <use xlink:href="#m016c977666" x="19.963856" y="90.258443" style="stroke: #000000; stroke-width: 0.5"/>
      </g>
     </g>
     <g id="text_11">
      <!-- $0.3$ -->
      <g transform="translate(3.663856 93.297818) scale(0.08 -0.08)">
       <use xlink:href="#DejaVuSans-30" transform="translate(0 0.78125)"/>
       <use xlink:href="#DejaVuSans-2e" transform="translate(63.623047 0.78125)"/>
       <use xlink:href="#DejaVuSans-33" transform="translate(95.410156 0.78125)"/>
      </g>
     </g>
    </g>
    <g id="ytick_5">
     <g id="line2d_23">
      <path d="M 19.963856 31.885109 
L 426.240354 31.885109 
" clip-path="url(#p5222144116)" style="fill: none; stroke: #000000; stroke-opacity: 0.1; stroke-width: 0.5; stroke-linecap: square"/>
     </g>
     <g id="line2d_24">
      <g>
       <use xlink:href="#m016c977666" x="19.963856" y="31.885109" style="stroke: #000000; stroke-width: 0.5"/>
      </g>
     </g>
     <g id="text_12">
      <!-- $0.4$ -->
      <g transform="translate(3.663856 34.924484) scale(0.08 -0.08)">
       <defs>
        <path id="DejaVuSans-34" d="M 2419 4116 
L 825 1625 
L 2419 1625 
L 2419 4116 
z
M 2253 4666 
L 3047 4666 
L 3047 1625 
L 3713 1625 
L 3713 1100 
L 3047 1100 
L 3047 0 
L 2419 0 
L 2419 1100 
L 313 1100 
L 313 1709 
L 2253 4666 
z
" transform="scale(0.015625)"/>
       </defs>
       <use xlink:href="#DejaVuSans-30" transform="translate(0 0.78125)"/>
       <use xlink:href="#DejaVuSans-2e" transform="translate(63.623047 0.78125)"/>
       <use xlink:href="#DejaVuSans-34" transform="translate(95.410156 0.78125)"/>
      </g>
     </g>
    </g>
   </g>
   <g id="patch_3">
    <path d="M 6.421306 264.405559 
L 6.421306 265.378447 
L 19.963856 265.378447 
L 19.963856 264.405559 
L 6.421306 264.405559 
" clip-path="url(#p5222144116)" style="fill: #009afa; stroke: #000000; stroke-linejoin: miter"/>
   </g>
   <g id="patch_4">
    <path d="M 19.963856 260.514003 
L 19.963856 265.378447 
L 33.506406 265.378447 
L 33.506406 260.514003 
L 19.963856 260.514003 
" clip-path="url(#p5222144116)" style="fill: #009afa; stroke: #000000; stroke-linejoin: miter"/>
   </g>
   <g id="patch_5">
    <path d="M 33.506406 260.514003 
L 33.506406 265.378447 
L 47.048956 265.378447 
L 47.048956 260.514003 
L 33.506406 260.514003 
" clip-path="url(#p5222144116)" style="fill: #009afa; stroke: #000000; stroke-linejoin: miter"/>
   </g>
   <g id="patch_6">
    <path d="M 47.048956 257.595336 
L 47.048956 265.378447 
L 60.591506 265.378447 
L 60.591506 257.595336 
L 47.048956 257.595336 
" clip-path="url(#p5222144116)" style="fill: #009afa; stroke: #000000; stroke-linejoin: miter"/>
   </g>
   <g id="patch_7">
    <path d="M 60.591506 241.056225 
L 60.591506 265.378447 
L 74.134056 265.378447 
L 74.134056 241.056225 
L 60.591506 241.056225 
" clip-path="url(#p5222144116)" style="fill: #009afa; stroke: #000000; stroke-linejoin: miter"/>
   </g>
   <g id="patch_8">
    <path d="M 74.134056 235.218891 
L 74.134056 265.378447 
L 87.676606 265.378447 
L 87.676606 235.218891 
L 74.134056 235.218891 
" clip-path="url(#p5222144116)" style="fill: #009afa; stroke: #000000; stroke-linejoin: miter"/>
   </g>
   <g id="patch_9">
    <path d="M 87.676606 239.110447 
L 87.676606 265.378447 
L 101.219156 265.378447 
L 101.219156 239.110447 
L 87.676606 239.110447 
" clip-path="url(#p5222144116)" style="fill: #009afa; stroke: #000000; stroke-linejoin: miter"/>
   </g>
   <g id="patch_10">
    <path d="M 101.219156 223.544224 
L 101.219156 265.378447 
L 114.761706 265.378447 
L 114.761706 223.544224 
L 101.219156 223.544224 
" clip-path="url(#p5222144116)" style="fill: #009afa; stroke: #000000; stroke-linejoin: miter"/>
   </g>
   <g id="patch_11">
    <path d="M 114.761706 194.357557 
L 114.761706 265.378447 
L 128.304255 265.378447 
L 128.304255 194.357557 
L 114.761706 194.357557 
" clip-path="url(#p5222144116)" style="fill: #009afa; stroke: #000000; stroke-linejoin: miter"/>
   </g>
   <g id="patch_12">
    <path d="M 128.304255 139.875778 
L 128.304255 265.378447 
L 141.846805 265.378447 
L 141.846805 139.875778 
L 128.304255 139.875778 
" clip-path="url(#p5222144116)" style="fill: #009afa; stroke: #000000; stroke-linejoin: miter"/>
   </g>
   <g id="patch_13">
    <path d="M 141.846805 148.631778 
L 141.846805 265.378447 
L 155.389355 265.378447 
L 155.389355 148.631778 
L 141.846805 148.631778 
" clip-path="url(#p5222144116)" style="fill: #009afa; stroke: #000000; stroke-linejoin: miter"/>
   </g>
   <g id="patch_14">
    <path d="M 155.389355 100.960221 
L 155.389355 265.378447 
L 168.931905 265.378447 
L 168.931905 100.960221 
L 155.389355 100.960221 
" clip-path="url(#p5222144116)" style="fill: #009afa; stroke: #000000; stroke-linejoin: miter"/>
   </g>
   <g id="patch_15">
    <path d="M 168.931905 88.312665 
L 168.931905 265.378447 
L 182.474455 265.378447 
L 182.474455 88.312665 
L 168.931905 88.312665 
" clip-path="url(#p5222144116)" style="fill: #009afa; stroke: #000000; stroke-linejoin: miter"/>
   </g>
   <g id="patch_16">
    <path d="M 182.474455 91.231332 
L 182.474455 265.378447 
L 196.017005 265.378447 
L 196.017005 91.231332 
L 182.474455 91.231332 
" clip-path="url(#p5222144116)" style="fill: #009afa; stroke: #000000; stroke-linejoin: miter"/>
   </g>
   <g id="patch_17">
    <path d="M 196.017005 35.776664 
L 196.017005 265.378447 
L 209.559555 265.378447 
L 209.559555 35.776664 
L 196.017005 35.776664 
" clip-path="url(#p5222144116)" style="fill: #009afa; stroke: #000000; stroke-linejoin: miter"/>
   </g>
   <g id="patch_18">
    <path d="M 209.559555 61.071776 
L 209.559555 265.378447 
L 223.102105 265.378447 
L 223.102105 61.071776 
L 209.559555 61.071776 
" clip-path="url(#p5222144116)" style="fill: #009afa; stroke: #000000; stroke-linejoin: miter"/>
   </g>
   <g id="patch_19">
    <path d="M 223.102105 10.481553 
L 223.102105 265.378447 
L 236.644655 265.378447 
L 236.644655 10.481553 
L 223.102105 10.481553 
" clip-path="url(#p5222144116)" style="fill: #009afa; stroke: #000000; stroke-linejoin: miter"/>
   </g>
   <g id="patch_20">
    <path d="M 236.644655 28.966442 
L 236.644655 265.378447 
L 250.187205 265.378447 
L 250.187205 28.966442 
L 236.644655 28.966442 
" clip-path="url(#p5222144116)" style="fill: #009afa; stroke: #000000; stroke-linejoin: miter"/>
   </g>
   <g id="patch_21">
    <path d="M 250.187205 69.827776 
L 250.187205 265.378447 
L 263.729755 265.378447 
L 263.729755 69.827776 
L 250.187205 69.827776 
" clip-path="url(#p5222144116)" style="fill: #009afa; stroke: #000000; stroke-linejoin: miter"/>
   </g>
   <g id="patch_22">
    <path d="M 263.729755 67.881998 
L 263.729755 265.378447 
L 277.272305 265.378447 
L 277.272305 67.881998 
L 263.729755 67.881998 
" clip-path="url(#p5222144116)" style="fill: #009afa; stroke: #000000; stroke-linejoin: miter"/>
   </g>
   <g id="patch_23">
    <path d="M 277.272305 90.258443 
L 277.272305 265.378447 
L 290.814855 265.378447 
L 290.814855 90.258443 
L 277.272305 90.258443 
" clip-path="url(#p5222144116)" style="fill: #009afa; stroke: #000000; stroke-linejoin: miter"/>
   </g>
   <g id="patch_24">
    <path d="M 290.814855 139.875778 
L 290.814855 265.378447 
L 304.357405 265.378447 
L 304.357405 139.875778 
L 290.814855 139.875778 
" clip-path="url(#p5222144116)" style="fill: #009afa; stroke: #000000; stroke-linejoin: miter"/>
   </g>
   <g id="patch_25">
    <path d="M 304.357405 169.062445 
L 304.357405 265.378447 
L 317.899955 265.378447 
L 317.899955 169.062445 
L 304.357405 169.062445 
" clip-path="url(#p5222144116)" style="fill: #009afa; stroke: #000000; stroke-linejoin: miter"/>
   </g>
   <g id="patch_26">
    <path d="M 317.899955 185.601557 
L 317.899955 265.378447 
L 331.442505 265.378447 
L 331.442505 185.601557 
L 317.899955 185.601557 
" clip-path="url(#p5222144116)" style="fill: #009afa; stroke: #000000; stroke-linejoin: miter"/>
   </g>
   <g id="patch_27">
    <path d="M 331.442505 215.761113 
L 331.442505 265.378447 
L 344.985055 265.378447 
L 344.985055 215.761113 
L 331.442505 215.761113 
" clip-path="url(#p5222144116)" style="fill: #009afa; stroke: #000000; stroke-linejoin: miter"/>
   </g>
   <g id="patch_28">
    <path d="M 344.985055 218.67978 
L 344.985055 265.378447 
L 358.527605 265.378447 
L 358.527605 218.67978 
L 344.985055 218.67978 
" clip-path="url(#p5222144116)" style="fill: #009afa; stroke: #000000; stroke-linejoin: miter"/>
   </g>
   <g id="patch_29">
    <path d="M 358.527605 247.866447 
L 358.527605 265.378447 
L 372.070155 265.378447 
L 372.070155 247.866447 
L 358.527605 247.866447 
" clip-path="url(#p5222144116)" style="fill: #009afa; stroke: #000000; stroke-linejoin: miter"/>
   </g>
   <g id="patch_30">
    <path d="M 372.070155 249.812225 
L 372.070155 265.378447 
L 385.612704 265.378447 
L 385.612704 249.812225 
L 372.070155 249.812225 
" clip-path="url(#p5222144116)" style="fill: #009afa; stroke: #000000; stroke-linejoin: miter"/>
   </g>
   <g id="patch_31">
    <path d="M 385.612704 250.785114 
L 385.612704 265.378447 
L 399.155254 265.378447 
L 399.155254 250.785114 
L 385.612704 250.785114 
" clip-path="url(#p5222144116)" style="fill: #009afa; stroke: #000000; stroke-linejoin: miter"/>
   </g>
   <g id="patch_32">
    <path d="M 399.155254 261.486892 
L 399.155254 265.378447 
L 412.697804 265.378447 
L 412.697804 261.486892 
L 399.155254 261.486892 
" clip-path="url(#p5222144116)" style="fill: #009afa; stroke: #000000; stroke-linejoin: miter"/>
   </g>
   <g id="patch_33">
    <path d="M 412.697804 261.486892 
L 412.697804 265.378447 
L 426.240354 265.378447 
L 426.240354 261.486892 
L 412.697804 261.486892 
" clip-path="url(#p5222144116)" style="fill: #009afa; stroke: #000000; stroke-linejoin: miter"/>
   </g>
   <g id="patch_34">
    <path d="M 426.240354 263.43267 
L 426.240354 265.378447 
L 439.782904 265.378447 
L 439.782904 263.43267 
L 426.240354 263.43267 
" clip-path="url(#p5222144116)" style="fill: #009afa; stroke: #000000; stroke-linejoin: miter"/>
   </g>
   <g id="PathCollection_1">
    <defs>
     <path id="md65b032cb6" d="M 0 0 
C 0 0 0 0 0 0 
C 0 0 0 0 0 0 
C 0 0 0 0 0 0 
C 0 0 0 0 0 0 
C 0 0 0 0 0 0 
C 0 0 0 0 0 0 
C 0 0 0 0 0 0 
C 0 0 0 0 0 0 
z
" style="stroke: #000000; stroke-opacity: 0"/>
    </defs>
    <g clip-path="url(#p5222144116)">
     <use xlink:href="#md65b032cb6" x="13.192581" y="264.405559" style="fill: #009afa; fill-opacity: 0; stroke: #000000; stroke-opacity: 0"/>
     <use xlink:href="#md65b032cb6" x="26.735131" y="260.514003" style="fill: #009afa; fill-opacity: 0; stroke: #000000; stroke-opacity: 0"/>
     <use xlink:href="#md65b032cb6" x="40.277681" y="260.514003" style="fill: #009afa; fill-opacity: 0; stroke: #000000; stroke-opacity: 0"/>
     <use xlink:href="#md65b032cb6" x="53.820231" y="257.595336" style="fill: #009afa; fill-opacity: 0; stroke: #000000; stroke-opacity: 0"/>
     <use xlink:href="#md65b032cb6" x="67.362781" y="241.056225" style="fill: #009afa; fill-opacity: 0; stroke: #000000; stroke-opacity: 0"/>
     <use xlink:href="#md65b032cb6" x="80.905331" y="235.218891" style="fill: #009afa; fill-opacity: 0; stroke: #000000; stroke-opacity: 0"/>
     <use xlink:href="#md65b032cb6" x="94.447881" y="239.110447" style="fill: #009afa; fill-opacity: 0; stroke: #000000; stroke-opacity: 0"/>
     <use xlink:href="#md65b032cb6" x="107.990431" y="223.544224" style="fill: #009afa; fill-opacity: 0; stroke: #000000; stroke-opacity: 0"/>
     <use xlink:href="#md65b032cb6" x="121.53298" y="194.357557" style="fill: #009afa; fill-opacity: 0; stroke: #000000; stroke-opacity: 0"/>
     <use xlink:href="#md65b032cb6" x="135.07553" y="139.875778" style="fill: #009afa; fill-opacity: 0; stroke: #000000; stroke-opacity: 0"/>
     <use xlink:href="#md65b032cb6" x="148.61808" y="148.631778" style="fill: #009afa; fill-opacity: 0; stroke: #000000; stroke-opacity: 0"/>
     <use xlink:href="#md65b032cb6" x="162.16063" y="100.960221" style="fill: #009afa; fill-opacity: 0; stroke: #000000; stroke-opacity: 0"/>
     <use xlink:href="#md65b032cb6" x="175.70318" y="88.312665" style="fill: #009afa; fill-opacity: 0; stroke: #000000; stroke-opacity: 0"/>
     <use xlink:href="#md65b032cb6" x="189.24573" y="91.231332" style="fill: #009afa; fill-opacity: 0; stroke: #000000; stroke-opacity: 0"/>
     <use xlink:href="#md65b032cb6" x="202.78828" y="35.776664" style="fill: #009afa; fill-opacity: 0; stroke: #000000; stroke-opacity: 0"/>
     <use xlink:href="#md65b032cb6" x="216.33083" y="61.071776" style="fill: #009afa; fill-opacity: 0; stroke: #000000; stroke-opacity: 0"/>
     <use xlink:href="#md65b032cb6" x="229.87338" y="10.481553" style="fill: #009afa; fill-opacity: 0; stroke: #000000; stroke-opacity: 0"/>
     <use xlink:href="#md65b032cb6" x="243.41593" y="28.966442" style="fill: #009afa; fill-opacity: 0; stroke: #000000; stroke-opacity: 0"/>
     <use xlink:href="#md65b032cb6" x="256.95848" y="69.827776" style="fill: #009afa; fill-opacity: 0; stroke: #000000; stroke-opacity: 0"/>
     <use xlink:href="#md65b032cb6" x="270.50103" y="67.881998" style="fill: #009afa; fill-opacity: 0; stroke: #000000; stroke-opacity: 0"/>
     <use xlink:href="#md65b032cb6" x="284.04358" y="90.258443" style="fill: #009afa; fill-opacity: 0; stroke: #000000; stroke-opacity: 0"/>
     <use xlink:href="#md65b032cb6" x="297.58613" y="139.875778" style="fill: #009afa; fill-opacity: 0; stroke: #000000; stroke-opacity: 0"/>
     <use xlink:href="#md65b032cb6" x="311.12868" y="169.062445" style="fill: #009afa; fill-opacity: 0; stroke: #000000; stroke-opacity: 0"/>
     <use xlink:href="#md65b032cb6" x="324.67123" y="185.601557" style="fill: #009afa; fill-opacity: 0; stroke: #000000; stroke-opacity: 0"/>
     <use xlink:href="#md65b032cb6" x="338.21378" y="215.761113" style="fill: #009afa; fill-opacity: 0; stroke: #000000; stroke-opacity: 0"/>
     <use xlink:href="#md65b032cb6" x="351.75633" y="218.67978" style="fill: #009afa; fill-opacity: 0; stroke: #000000; stroke-opacity: 0"/>
     <use xlink:href="#md65b032cb6" x="365.29888" y="247.866447" style="fill: #009afa; fill-opacity: 0; stroke: #000000; stroke-opacity: 0"/>
     <use xlink:href="#md65b032cb6" x="378.84143" y="249.812225" style="fill: #009afa; fill-opacity: 0; stroke: #000000; stroke-opacity: 0"/>
     <use xlink:href="#md65b032cb6" x="392.383979" y="250.785114" style="fill: #009afa; fill-opacity: 0; stroke: #000000; stroke-opacity: 0"/>
     <use xlink:href="#md65b032cb6" x="405.926529" y="261.486892" style="fill: #009afa; fill-opacity: 0; stroke: #000000; stroke-opacity: 0"/>
     <use xlink:href="#md65b032cb6" x="419.469079" y="261.486892" style="fill: #009afa; fill-opacity: 0; stroke: #000000; stroke-opacity: 0"/>
     <use xlink:href="#md65b032cb6" x="433.011629" y="263.43267" style="fill: #009afa; fill-opacity: 0; stroke: #000000; stroke-opacity: 0"/>
    </g>
   </g>
   <g id="line2d_25">
    <path d="M -1 264.369751 
L 10.237861 263.714352 
L 24.064558 262.281699 
L 32.373827 260.969957 
L 40.683095 259.196376 
L 47.708476 257.246648 
L 54.733857 254.796532 
L 58.549623 253.224197 
L 62.36539 251.462495 
L 66.181156 249.495958 
L 69.996922 247.308991 
L 73.514722 245.084115 
L 77.032521 242.646728 
L 80.55032 239.985235 
L 84.068119 237.088583 
L 87.839571 233.710144 
L 91.611024 230.038049 
L 95.382476 226.062313 
L 99.153928 221.774794 
L 103.523526 216.409642 
L 107.893123 210.612877 
L 112.262721 204.384438 
L 116.632318 197.72994 
L 120.515501 191.468071 
L 124.398684 184.891712 
L 128.281866 178.017987 
L 132.165049 170.868567 
L 138.975451 157.746152 
L 145.785853 144.035453 
L 153.21102 128.674442 
L 160.636187 113.209672 
L 168.105483 97.931359 
L 175.57478 83.347526 
L 179.703911 75.740067 
L 183.833042 68.547967 
L 187.962173 61.841382 
L 192.091305 55.687486 
L 194.055687 52.972319 
L 196.020069 50.402996 
L 197.984451 47.98563 
L 199.948833 45.726022 
L 201.913215 43.629631 
L 203.877597 41.70156 
L 205.841979 39.946531 
L 207.806361 38.368865 
L 209.848863 36.920733 
L 211.891364 35.672464 
L 213.933866 34.627426 
L 215.976367 33.788448 
L 218.018869 33.157808 
L 220.061371 32.737223 
L 222.103872 32.527839 
L 224.146374 32.530227 
L 227.585076 33.012346 
L 231.023779 34.090725 
L 232.74313 34.851091 
L 234.462481 35.757052 
L 236.181833 36.806871 
L 237.901184 37.99854 
L 240.000317 39.642414 
L 242.09945 41.489672 
L 244.198583 43.535115 
L 246.297716 45.773021 
L 248.396849 48.19717 
L 250.495982 50.800876 
L 252.595115 53.577013 
L 254.694248 56.518052 
L 258.540125 62.307814 
L 262.386002 68.572978 
L 266.23188 75.259143 
L 270.077757 82.30967 
L 277.181686 96.094836 
L 284.285615 110.555473 
L 291.481675 125.522984 
L 298.677734 140.462314 
L 302.710117 148.702206 
L 306.7425 156.784365 
L 310.774883 164.664474 
L 314.807266 172.303428 
L 318.461256 178.988945 
L 322.115246 185.427403 
L 325.769235 191.601169 
L 329.423225 197.496162 
L 333.606792 203.88968 
L 337.790358 209.893229 
L 341.973924 215.501371 
L 346.157491 220.713496 
L 350.031101 225.189558 
L 353.904712 229.335203 
L 357.778322 233.158823 
L 361.651933 236.670918 
L 365.470858 239.840413 
L 369.289784 242.732125 
L 373.10871 245.36018 
L 376.927636 247.739451 
L 380.635497 249.826037 
L 384.343359 251.70685 
L 388.05122 253.396191 
L 391.759081 254.908229 
L 399.361144 257.512087 
L 406.963207 259.542412 
L 415.29215 261.231002 
L 423.621093 262.475277 
L 433 263.420957 
" clip-path="url(#p5222144116)" style="fill: none; stroke: #e36f47"/>
   </g>
   <g id="patch_35">
    <path d="M 19.963856 273.025354 
L 19.963856 2.834646 
" style="fill: none; stroke: #000000; stroke-linejoin: miter; stroke-linecap: square"/>
   </g>
   <g id="patch_36">
    <path d="M 19.963856 273.025354 
L 426.240354 273.025354 
" style="fill: none; stroke: #000000; stroke-linejoin: miter; stroke-linecap: square"/>
   </g>
   <g id="legend_1">
    <g id="patch_37">
     <path d="M 332.724104 40.337146 
L 422.240354 40.337146 
L 422.240354 6.834646 
L 332.724104 6.834646 
z
" style="fill: #ffffff; stroke: #000000; stroke-linejoin: miter"/>
    </g>
    <g id="patch_38">
     <path d="M 339.124104 19.313396 
L 355.124104 19.313396 
L 355.124104 13.713396 
L 339.124104 13.713396 
z
" style="fill: #009afa; stroke: #000000; stroke-linejoin: miter"/>
    </g>
    <g id="text_13">
     <!-- sample mean -->
     <g transform="translate(361.524104 19.313396) scale(0.08 -0.08)">
      <defs>
       <path id="DejaVuSans-73" d="M 2834 3397 
L 2834 2853 
Q 2591 2978 2328 3040 
Q 2066 3103 1784 3103 
Q 1356 3103 1142 2972 
Q 928 2841 928 2578 
Q 928 2378 1081 2264 
Q 1234 2150 1697 2047 
L 1894 2003 
Q 2506 1872 2764 1633 
Q 3022 1394 3022 966 
Q 3022 478 2636 193 
Q 2250 -91 1575 -91 
Q 1294 -91 989 -36 
Q 684 19 347 128 
L 347 722 
Q 666 556 975 473 
Q 1284 391 1588 391 
Q 1994 391 2212 530 
Q 2431 669 2431 922 
Q 2431 1156 2273 1281 
Q 2116 1406 1581 1522 
L 1381 1569 
Q 847 1681 609 1914 
Q 372 2147 372 2553 
Q 372 3047 722 3315 
Q 1072 3584 1716 3584 
Q 2034 3584 2315 3537 
Q 2597 3491 2834 3397 
z
" transform="scale(0.015625)"/>
       <path id="DejaVuSans-61" d="M 2194 1759 
Q 1497 1759 1228 1600 
Q 959 1441 959 1056 
Q 959 750 1161 570 
Q 1363 391 1709 391 
Q 2188 391 2477 730 
Q 2766 1069 2766 1631 
L 2766 1759 
L 2194 1759 
z
M 3341 1997 
L 3341 0 
L 2766 0 
L 2766 531 
Q 2569 213 2275 61 
Q 1981 -91 1556 -91 
Q 1019 -91 701 211 
Q 384 513 384 1019 
Q 384 1609 779 1909 
Q 1175 2209 1959 2209 
L 2766 2209 
L 2766 2266 
Q 2766 2663 2505 2880 
Q 2244 3097 1772 3097 
Q 1472 3097 1187 3025 
Q 903 2953 641 2809 
L 641 3341 
Q 956 3463 1253 3523 
Q 1550 3584 1831 3584 
Q 2591 3584 2966 3190 
Q 3341 2797 3341 1997 
z
" transform="scale(0.015625)"/>
       <path id="DejaVuSans-6d" d="M 3328 2828 
Q 3544 3216 3844 3400 
Q 4144 3584 4550 3584 
Q 5097 3584 5394 3201 
Q 5691 2819 5691 2113 
L 5691 0 
L 5113 0 
L 5113 2094 
Q 5113 2597 4934 2840 
Q 4756 3084 4391 3084 
Q 3944 3084 3684 2787 
Q 3425 2491 3425 1978 
L 3425 0 
L 2847 0 
L 2847 2094 
Q 2847 2600 2669 2842 
Q 2491 3084 2119 3084 
Q 1678 3084 1418 2786 
Q 1159 2488 1159 1978 
L 1159 0 
L 581 0 
L 581 3500 
L 1159 3500 
L 1159 2956 
Q 1356 3278 1631 3431 
Q 1906 3584 2284 3584 
Q 2666 3584 2933 3390 
Q 3200 3197 3328 2828 
z
" transform="scale(0.015625)"/>
       <path id="DejaVuSans-70" d="M 1159 525 
L 1159 -1331 
L 581 -1331 
L 581 3500 
L 1159 3500 
L 1159 2969 
Q 1341 3281 1617 3432 
Q 1894 3584 2278 3584 
Q 2916 3584 3314 3078 
Q 3713 2572 3713 1747 
Q 3713 922 3314 415 
Q 2916 -91 2278 -91 
Q 1894 -91 1617 61 
Q 1341 213 1159 525 
z
M 3116 1747 
Q 3116 2381 2855 2742 
Q 2594 3103 2138 3103 
Q 1681 3103 1420 2742 
Q 1159 2381 1159 1747 
Q 1159 1113 1420 752 
Q 1681 391 2138 391 
Q 2594 391 2855 752 
Q 3116 1113 3116 1747 
z
" transform="scale(0.015625)"/>
       <path id="DejaVuSans-6c" d="M 603 4863 
L 1178 4863 
L 1178 0 
L 603 0 
L 603 4863 
z
" transform="scale(0.015625)"/>
       <path id="DejaVuSans-65" d="M 3597 1894 
L 3597 1613 
L 953 1613 
Q 991 1019 1311 708 
Q 1631 397 2203 397 
Q 2534 397 2845 478 
Q 3156 559 3463 722 
L 3463 178 
Q 3153 47 2828 -22 
Q 2503 -91 2169 -91 
Q 1331 -91 842 396 
Q 353 884 353 1716 
Q 353 2575 817 3079 
Q 1281 3584 2069 3584 
Q 2775 3584 3186 3129 
Q 3597 2675 3597 1894 
z
M 3022 2063 
Q 3016 2534 2758 2815 
Q 2500 3097 2075 3097 
Q 1594 3097 1305 2825 
Q 1016 2553 972 2059 
L 3022 2063 
z
" transform="scale(0.015625)"/>
       <path id="DejaVuSans-20" transform="scale(0.015625)"/>
       <path id="DejaVuSans-6e" d="M 3513 2113 
L 3513 0 
L 2938 0 
L 2938 2094 
Q 2938 2591 2744 2837 
Q 2550 3084 2163 3084 
Q 1697 3084 1428 2787 
Q 1159 2491 1159 1978 
L 1159 0 
L 581 0 
L 581 3500 
L 1159 3500 
L 1159 2956 
Q 1366 3272 1645 3428 
Q 1925 3584 2291 3584 
Q 2894 3584 3203 3211 
Q 3513 2838 3513 2113 
z
" transform="scale(0.015625)"/>
      </defs>
      <use xlink:href="#DejaVuSans-73"/>
      <use xlink:href="#DejaVuSans-61" x="52.099609"/>
      <use xlink:href="#DejaVuSans-6d" x="113.378906"/>
      <use xlink:href="#DejaVuSans-70" x="210.791016"/>
      <use xlink:href="#DejaVuSans-6c" x="274.267578"/>
      <use xlink:href="#DejaVuSans-65" x="302.050781"/>
      <use xlink:href="#DejaVuSans-20" x="363.574219"/>
      <use xlink:href="#DejaVuSans-6d" x="395.361328"/>
      <use xlink:href="#DejaVuSans-65" x="492.773438"/>
      <use xlink:href="#DejaVuSans-61" x="554.296875"/>
      <use xlink:href="#DejaVuSans-6e" x="615.576172"/>
     </g>
    </g>
    <g id="line2d_26">
     <path d="M 339.124104 29.457146 
L 347.124104 29.457146 
L 355.124104 29.457146 
" style="fill: none; stroke: #e36f47; stroke-linejoin: miter"/>
    </g>
    <g id="text_14">
     <!-- $\mathcal{N}(μ,σ^2)$ -->
     <g transform="translate(361.524104 32.257146) scale(0.08 -0.08)">
      <defs>
       <path id="STIXNonUnicode-Italic-e23a" d="M 4294 800 
L 4301 800 
Q 5293 4070 5408 4378 
Q 5472 4538 5523 4614 
Q 5830 5088 6253 5088 
Q 6490 5088 6650 4931 
Q 6810 4774 6810 4550 
Q 6810 4378 6720 4272 
Q 6630 4166 6470 4166 
Q 6368 4166 6297 4224 
Q 6227 4282 6198 4349 
Q 6170 4416 6118 4473 
Q 6067 4531 6003 4531 
Q 5939 4531 5881 4508 
Q 5824 4486 5785 4457 
Q 5747 4429 5705 4371 
Q 5664 4314 5638 4275 
Q 5613 4237 5584 4163 
Q 5555 4090 5545 4058 
Q 5536 4026 5510 3952 
Q 5485 3878 5485 3866 
L 4262 -154 
L 4134 -154 
Q 3078 1280 2483 2893 
L 2470 2893 
Q 2406 2579 2358 2361 
Q 2310 2144 2214 1792 
Q 2118 1440 2028 1190 
Q 1939 941 1804 653 
Q 1670 365 1529 185 
Q 1389 6 1203 -115 
Q 1018 -237 813 -237 
Q 576 -237 416 -80 
Q 256 77 256 301 
Q 256 474 345 579 
Q 435 685 595 685 
Q 698 685 768 627 
Q 838 570 867 502 
Q 896 435 947 377 
Q 998 320 1062 320 
Q 1222 320 1369 480 
Q 1517 640 1638 928 
Q 1760 1216 1862 1542 
Q 1965 1869 2057 2288 
Q 2150 2707 2214 3033 
Q 2278 3360 2348 3741 
Q 2419 4122 2458 4294 
L 2630 4294 
Q 2682 4166 2874 3680 
Q 3066 3194 3142 3008 
Q 3219 2822 3392 2422 
Q 3565 2022 3683 1798 
Q 3802 1574 3968 1292 
Q 4134 1011 4294 800 
z
" transform="scale(0.015625)"/>
       <path id="DejaVuSans-28" d="M 1984 4856 
Q 1566 4138 1362 3434 
Q 1159 2731 1159 2009 
Q 1159 1288 1364 580 
Q 1569 -128 1984 -844 
L 1484 -844 
Q 1016 -109 783 600 
Q 550 1309 550 2009 
Q 550 2706 781 3412 
Q 1013 4119 1484 4856 
L 1984 4856 
z
" transform="scale(0.015625)"/>
       <path id="DejaVuSans-Oblique-3bc" d="M -84 -1331 
L 856 3500 
L 1434 3500 
L 1009 1322 
Q 997 1256 987 1175 
Q 978 1094 978 1013 
Q 978 722 1161 565 
Q 1344 409 1684 409 
Q 2147 409 2431 671 
Q 2716 934 2816 1459 
L 3213 3500 
L 3788 3500 
L 3266 809 
Q 3253 750 3248 706 
Q 3244 663 3244 628 
Q 3244 531 3283 486 
Q 3322 441 3406 441 
Q 3438 441 3492 456 
Q 3547 472 3647 513 
L 3559 50 
Q 3422 -19 3297 -55 
Q 3172 -91 3053 -91 
Q 2847 -91 2730 40 
Q 2613 172 2613 403 
Q 2438 153 2195 31 
Q 1953 -91 1625 -91 
Q 1334 -91 1117 43 
Q 900 178 831 397 
L 494 -1331 
L -84 -1331 
z
" transform="scale(0.015625)"/>
       <path id="DejaVuSans-2c" d="M 750 794 
L 1409 794 
L 1409 256 
L 897 -744 
L 494 -744 
L 750 256 
L 750 794 
z
" transform="scale(0.015625)"/>
       <path id="DejaVuSans-Oblique-3c3" d="M 2219 3044 
Q 1744 3044 1422 2700 
Q 1081 2341 969 1747 
Q 844 1119 1044 756 
Q 1241 397 1706 397 
Q 2166 397 2503 759 
Q 2844 1122 2966 1747 
Q 3075 2319 2881 2700 
Q 2700 3044 2219 3044 
z
M 2309 3503 
L 4219 3500 
L 4106 2925 
L 3463 2925 
Q 3706 2438 3575 1747 
Q 3406 888 2884 400 
Q 2359 -91 1609 -91 
Q 856 -91 525 400 
Q 194 888 363 1747 
Q 528 2609 1050 3097 
Q 1484 3503 2309 3503 
z
" transform="scale(0.015625)"/>
       <path id="DejaVuSans-29" d="M 513 4856 
L 1013 4856 
Q 1481 4119 1714 3412 
Q 1947 2706 1947 2009 
Q 1947 1309 1714 600 
Q 1481 -109 1013 -844 
L 513 -844 
Q 928 -128 1133 580 
Q 1338 1288 1338 2009 
Q 1338 2731 1133 3434 
Q 928 4138 513 4856 
z
" transform="scale(0.015625)"/>
      </defs>
      <use xlink:href="#STIXNonUnicode-Italic-e23a" transform="translate(0 0.765625)"/>
      <use xlink:href="#DejaVuSans-28" transform="translate(95.699982 0.765625)"/>
      <use xlink:href="#DejaVuSans-Oblique-3bc" transform="translate(134.713654 0.765625)"/>
      <use xlink:href="#DejaVuSans-2c" transform="translate(198.3367 0.765625)"/>
      <use xlink:href="#DejaVuSans-Oblique-3c3" transform="translate(249.606232 0.765625)"/>
      <use xlink:href="#DejaVuSans-32" transform="translate(317.457846 39.046875) scale(0.7)"/>
      <use xlink:href="#DejaVuSans-29" transform="translate(364.728354 0.765625)"/>
     </g>
    </g>
   </g>
  </g>
 </g>
 <defs>
  <clipPath id="p5222144116">
   <rect x="19.963856" y="2.834646" width="406.276498" height="270.190709"/>
  </clipPath>
 </defs>
</svg>
