<?xml version="1.0" encoding="utf-8" standalone="no"?>
<!DOCTYPE svg PUBLIC "-//W3C//DTD SVG 1.1//EN"
  "http://www.w3.org/Graphics/SVG/1.1/DTD/svg11.dtd">
<svg xmlns:xlink="http://www.w3.org/1999/xlink" width="432pt" height="288pt" viewBox="0 0 432 288" xmlns="http://www.w3.org/2000/svg" version="1.1">
 <metadata>
  <rdf:RDF xmlns:dc="http://purl.org/dc/elements/1.1/" xmlns:cc="http://creativecommons.org/ns#" xmlns:rdf="http://www.w3.org/1999/02/22-rdf-syntax-ns#">
   <cc:Work>
    <dc:type rdf:resource="http://purl.org/dc/dcmitype/StillImage"/>
    <dc:date>2022-12-17T11:29:50.887778</dc:date>
    <dc:format>image/svg+xml</dc:format>
    <dc:creator>
     <cc:Agent>
      <dc:title>Matplotlib v3.6.2, https://matplotlib.org/</dc:title>
     </cc:Agent>
    </dc:creator>
   </cc:Work>
  </rdf:RDF>
 </metadata>
 <defs>
  <style type="text/css">*{stroke-linejoin: round; stroke-linecap: butt}</style>
 </defs>
 <g id="figure_1">
  <g id="patch_1">
   <path d="M 0 288 
L 432 288 
L 432 0 
L 0 0 
z
" style="fill: #ffffff"/>
  </g>
  <g id="axes_1">
   <g id="patch_2">
    <path d="M 19.963856 273.025354 
L 426.240354 273.025354 
L 426.240354 2.834646 
L 19.963856 2.834646 
z
" style="fill: #ffffff"/>
   </g>
   <g id="matplotlib.axis_1">
    <g id="xtick_1">
     <g id="line2d_1">
      <path d="M 19.963856 273.025354 
L 19.963856 2.834646 
" clip-path="url(#p324b1b65be)" style="fill: none; stroke: #000000; stroke-opacity: 0.1; stroke-width: 0.5; stroke-linecap: square"/>
     </g>
     <g id="line2d_2">
      <defs>
       <path id="m0238411f8b" d="M 0 0 
L 0 -2.5 
" style="stroke: #000000; stroke-width: 0.5"/>
      </defs>
      <g>
       <use xlink:href="#m0238411f8b" x="19.963856" y="273.025354" style="stroke: #000000; stroke-width: 0.5"/>
      </g>
     </g>
     <g id="text_1">
      <!-- $-3$ -->
      <g transform="translate(14.043856 282.604104) scale(0.08 -0.08)">
       <defs>
        <path id="DejaVuSans-2212" d="M 678 2272 
L 4684 2272 
L 4684 1741 
L 678 1741 
L 678 2272 
z
" transform="scale(0.015625)"/>
        <path id="DejaVuSans-33" d="M 2597 2516 
Q 3050 2419 3304 2112 
Q 3559 1806 3559 1356 
Q 3559 666 3084 287 
Q 2609 -91 1734 -91 
Q 1441 -91 1130 -33 
Q 819 25 488 141 
L 488 750 
Q 750 597 1062 519 
Q 1375 441 1716 441 
Q 2309 441 2620 675 
Q 2931 909 2931 1356 
Q 2931 1769 2642 2001 
Q 2353 2234 1838 2234 
L 1294 2234 
L 1294 2753 
L 1863 2753 
Q 2328 2753 2575 2939 
Q 2822 3125 2822 3475 
Q 2822 3834 2567 4026 
Q 2313 4219 1838 4219 
Q 1578 4219 1281 4162 
Q 984 4106 628 3988 
L 628 4550 
Q 988 4650 1302 4700 
Q 1616 4750 1894 4750 
Q 2613 4750 3031 4423 
Q 3450 4097 3450 3541 
Q 3450 3153 3228 2886 
Q 3006 2619 2597 2516 
z
" transform="scale(0.015625)"/>
       </defs>
       <use xlink:href="#DejaVuSans-2212" transform="translate(0 0.78125)"/>
       <use xlink:href="#DejaVuSans-33" transform="translate(83.789062 0.78125)"/>
      </g>
     </g>
    </g>
    <g id="xtick_2">
     <g id="line2d_3">
      <path d="M 87.676606 273.025354 
L 87.676606 2.834646 
" clip-path="url(#p324b1b65be)" style="fill: none; stroke: #000000; stroke-opacity: 0.1; stroke-width: 0.5; stroke-linecap: square"/>
     </g>
     <g id="line2d_4">
      <g>
       <use xlink:href="#m0238411f8b" x="87.676606" y="273.025354" style="stroke: #000000; stroke-width: 0.5"/>
      </g>
     </g>
     <g id="text_2">
      <!-- $-2$ -->
      <g transform="translate(81.756606 282.604104) scale(0.08 -0.08)">
       <defs>
        <path id="DejaVuSans-32" d="M 1228 531 
L 3431 531 
L 3431 0 
L 469 0 
L 469 531 
Q 828 903 1448 1529 
Q 2069 2156 2228 2338 
Q 2531 2678 2651 2914 
Q 2772 3150 2772 3378 
Q 2772 3750 2511 3984 
Q 2250 4219 1831 4219 
Q 1534 4219 1204 4116 
Q 875 4013 500 3803 
L 500 4441 
Q 881 4594 1212 4672 
Q 1544 4750 1819 4750 
Q 2544 4750 2975 4387 
Q 3406 4025 3406 3419 
Q 3406 3131 3298 2873 
Q 3191 2616 2906 2266 
Q 2828 2175 2409 1742 
Q 1991 1309 1228 531 
z
" transform="scale(0.015625)"/>
       </defs>
       <use xlink:href="#DejaVuSans-2212" transform="translate(0 0.78125)"/>
       <use xlink:href="#DejaVuSans-32" transform="translate(83.789062 0.78125)"/>
      </g>
     </g>
    </g>
    <g id="xtick_3">
     <g id="line2d_5">
      <path d="M 155.389355 273.025354 
L 155.389355 2.834646 
" clip-path="url(#p324b1b65be)" style="fill: none; stroke: #000000; stroke-opacity: 0.1; stroke-width: 0.5; stroke-linecap: square"/>
     </g>
     <g id="line2d_6">
      <g>
       <use xlink:href="#m0238411f8b" x="155.389355" y="273.025354" style="stroke: #000000; stroke-width: 0.5"/>
      </g>
     </g>
     <g id="text_3">
      <!-- $-1$ -->
      <g transform="translate(149.469355 282.604104) scale(0.08 -0.08)">
       <defs>
        <path id="DejaVuSans-31" d="M 794 531 
L 1825 531 
L 1825 4091 
L 703 3866 
L 703 4441 
L 1819 4666 
L 2450 4666 
L 2450 531 
L 3481 531 
L 3481 0 
L 794 0 
L 794 531 
z
" transform="scale(0.015625)"/>
       </defs>
       <use xlink:href="#DejaVuSans-2212" transform="translate(0 0.09375)"/>
       <use xlink:href="#DejaVuSans-31" transform="translate(83.789062 0.09375)"/>
      </g>
     </g>
    </g>
    <g id="xtick_4">
     <g id="line2d_7">
      <path d="M 223.102105 273.025354 
L 223.102105 2.834646 
" clip-path="url(#p324b1b65be)" style="fill: none; stroke: #000000; stroke-opacity: 0.1; stroke-width: 0.5; stroke-linecap: square"/>
     </g>
     <g id="line2d_8">
      <g>
       <use xlink:href="#m0238411f8b" x="223.102105" y="273.025354" style="stroke: #000000; stroke-width: 0.5"/>
      </g>
     </g>
     <g id="text_4">
      <!-- $0$ -->
      <g transform="translate(220.542105 282.604104) scale(0.08 -0.08)">
       <defs>
        <path id="DejaVuSans-30" d="M 2034 4250 
Q 1547 4250 1301 3770 
Q 1056 3291 1056 2328 
Q 1056 1369 1301 889 
Q 1547 409 2034 409 
Q 2525 409 2770 889 
Q 3016 1369 3016 2328 
Q 3016 3291 2770 3770 
Q 2525 4250 2034 4250 
z
M 2034 4750 
Q 2819 4750 3233 4129 
Q 3647 3509 3647 2328 
Q 3647 1150 3233 529 
Q 2819 -91 2034 -91 
Q 1250 -91 836 529 
Q 422 1150 422 2328 
Q 422 3509 836 4129 
Q 1250 4750 2034 4750 
z
" transform="scale(0.015625)"/>
       </defs>
       <use xlink:href="#DejaVuSans-30" transform="translate(0 0.78125)"/>
      </g>
     </g>
    </g>
    <g id="xtick_5">
     <g id="line2d_9">
      <path d="M 290.814855 273.025354 
L 290.814855 2.834646 
" clip-path="url(#p324b1b65be)" style="fill: none; stroke: #000000; stroke-opacity: 0.1; stroke-width: 0.5; stroke-linecap: square"/>
     </g>
     <g id="line2d_10">
      <g>
       <use xlink:href="#m0238411f8b" x="290.814855" y="273.025354" style="stroke: #000000; stroke-width: 0.5"/>
      </g>
     </g>
     <g id="text_5">
      <!-- $1$ -->
      <g transform="translate(288.254855 282.604104) scale(0.08 -0.08)">
       <use xlink:href="#DejaVuSans-31" transform="translate(0 0.09375)"/>
      </g>
     </g>
    </g>
    <g id="xtick_6">
     <g id="line2d_11">
      <path d="M 358.527605 273.025354 
L 358.527605 2.834646 
" clip-path="url(#p324b1b65be)" style="fill: none; stroke: #000000; stroke-opacity: 0.1; stroke-width: 0.5; stroke-linecap: square"/>
     </g>
     <g id="line2d_12">
      <g>
       <use xlink:href="#m0238411f8b" x="358.527605" y="273.025354" style="stroke: #000000; stroke-width: 0.5"/>
      </g>
     </g>
     <g id="text_6">
      <!-- $2$ -->
      <g transform="translate(355.967605 282.604104) scale(0.08 -0.08)">
       <use xlink:href="#DejaVuSans-32" transform="translate(0 0.78125)"/>
      </g>
     </g>
    </g>
    <g id="xtick_7">
     <g id="line2d_13">
      <path d="M 426.240354 273.025354 
L 426.240354 2.834646 
" clip-path="url(#p324b1b65be)" style="fill: none; stroke: #000000; stroke-opacity: 0.1; stroke-width: 0.5; stroke-linecap: square"/>
     </g>
     <g id="line2d_14">
      <g>
       <use xlink:href="#m0238411f8b" x="426.240354" y="273.025354" style="stroke: #000000; stroke-width: 0.5"/>
      </g>
     </g>
     <g id="text_7">
      <!-- $3$ -->
      <g transform="translate(423.680354 282.604104) scale(0.08 -0.08)">
       <use xlink:href="#DejaVuSans-33" transform="translate(0 0.78125)"/>
      </g>
     </g>
    </g>
   </g>
   <g id="matplotlib.axis_2">
    <g id="ytick_1">
     <g id="line2d_15">
      <path d="M 19.963856 265.378447 
L 426.240354 265.378447 
" clip-path="url(#p324b1b65be)" style="fill: none; stroke: #000000; stroke-opacity: 0.1; stroke-width: 0.5; stroke-linecap: square"/>
     </g>
     <g id="line2d_16">
      <defs>
       <path id="md441cfb2aa" d="M 0 0 
L 2.5 0 
" style="stroke: #000000; stroke-width: 0.5"/>
      </defs>
      <g>
       <use xlink:href="#md441cfb2aa" x="19.963856" y="265.378447" style="stroke: #000000; stroke-width: 0.5"/>
      </g>
     </g>
     <g id="text_8">
      <!-- $0.0$ -->
      <g transform="translate(3.663856 268.417822) scale(0.08 -0.08)">
       <defs>
        <path id="DejaVuSans-2e" d="M 684 794 
L 1344 794 
L 1344 0 
L 684 0 
L 684 794 
z
" transform="scale(0.015625)"/>
       </defs>
       <use xlink:href="#DejaVuSans-30" transform="translate(0 0.78125)"/>
       <use xlink:href="#DejaVuSans-2e" transform="translate(63.623047 0.78125)"/>
       <use xlink:href="#DejaVuSans-30" transform="translate(95.410156 0.78125)"/>
      </g>
     </g>
    </g>
    <g id="ytick_2">
     <g id="line2d_17">
      <path d="M 19.963856 207.447335 
L 426.240354 207.447335 
" clip-path="url(#p324b1b65be)" style="fill: none; stroke: #000000; stroke-opacity: 0.1; stroke-width: 0.5; stroke-linecap: square"/>
     </g>
     <g id="line2d_18">
      <g>
       <use xlink:href="#md441cfb2aa" x="19.963856" y="207.447335" style="stroke: #000000; stroke-width: 0.5"/>
      </g>
     </g>
     <g id="text_9">
      <!-- $0.1$ -->
      <g transform="translate(3.663856 210.48671) scale(0.08 -0.08)">
       <use xlink:href="#DejaVuSans-30" transform="translate(0 0.78125)"/>
       <use xlink:href="#DejaVuSans-2e" transform="translate(63.623047 0.78125)"/>
       <use xlink:href="#DejaVuSans-31" transform="translate(95.410156 0.78125)"/>
      </g>
     </g>
    </g>
    <g id="ytick_3">
     <g id="line2d_19">
      <path d="M 19.963856 149.516222 
L 426.240354 149.516222 
" clip-path="url(#p324b1b65be)" style="fill: none; stroke: #000000; stroke-opacity: 0.1; stroke-width: 0.5; stroke-linecap: square"/>
     </g>
     <g id="line2d_20">
      <g>
       <use xlink:href="#md441cfb2aa" x="19.963856" y="149.516222" style="stroke: #000000; stroke-width: 0.5"/>
      </g>
     </g>
     <g id="text_10">
      <!-- $0.2$ -->
      <g transform="translate(4.143856 152.555597) scale(0.08 -0.08)">
       <use xlink:href="#DejaVuSans-30" transform="translate(0 0.78125)"/>
       <use xlink:href="#DejaVuSans-2e" transform="translate(63.623047 0.78125)"/>
       <use xlink:href="#DejaVuSans-32" transform="translate(89.910156 0.78125)"/>
      </g>
     </g>
    </g>
    <g id="ytick_4">
     <g id="line2d_21">
      <path d="M 19.963856 91.58511 
L 426.240354 91.58511 
" clip-path="url(#p324b1b65be)" style="fill: none; stroke: #000000; stroke-opacity: 0.1; stroke-width: 0.5; stroke-linecap: square"/>
     </g>
     <g id="line2d_22">
      <g>
       <use xlink:href="#md441cfb2aa" x="19.963856" y="91.58511" style="stroke: #000000; stroke-width: 0.5"/>
      </g>
     </g>
     <g id="text_11">
      <!-- $0.3$ -->
      <g transform="translate(3.663856 94.624485) scale(0.08 -0.08)">
       <use xlink:href="#DejaVuSans-30" transform="translate(0 0.78125)"/>
       <use xlink:href="#DejaVuSans-2e" transform="translate(63.623047 0.78125)"/>
       <use xlink:href="#DejaVuSans-33" transform="translate(95.410156 0.78125)"/>
      </g>
     </g>
    </g>
    <g id="ytick_5">
     <g id="line2d_23">
      <path d="M 19.963856 33.653998 
L 426.240354 33.653998 
" clip-path="url(#p324b1b65be)" style="fill: none; stroke: #000000; stroke-opacity: 0.1; stroke-width: 0.5; stroke-linecap: square"/>
     </g>
     <g id="line2d_24">
      <g>
       <use xlink:href="#md441cfb2aa" x="19.963856" y="33.653998" style="stroke: #000000; stroke-width: 0.5"/>
      </g>
     </g>
     <g id="text_12">
      <!-- $0.4$ -->
      <g transform="translate(3.663856 36.693373) scale(0.08 -0.08)">
       <defs>
        <path id="DejaVuSans-34" d="M 2419 4116 
L 825 1625 
L 2419 1625 
L 2419 4116 
z
M 2253 4666 
L 3047 4666 
L 3047 1625 
L 3713 1625 
L 3713 1100 
L 3047 1100 
L 3047 0 
L 2419 0 
L 2419 1100 
L 313 1100 
L 313 1709 
L 2253 4666 
z
" transform="scale(0.015625)"/>
       </defs>
       <use xlink:href="#DejaVuSans-30" transform="translate(0 0.78125)"/>
       <use xlink:href="#DejaVuSans-2e" transform="translate(63.623047 0.78125)"/>
       <use xlink:href="#DejaVuSans-34" transform="translate(95.410156 0.78125)"/>
      </g>
     </g>
    </g>
   </g>
   <g id="patch_3">
    <path d="M -34.206344 264.412929 
L -34.206344 265.378447 
L -20.663794 265.378447 
L -20.663794 264.412929 
L -34.206344 264.412929 
" clip-path="url(#p324b1b65be)" style="fill: #009afa; stroke: #000000; stroke-linejoin: miter"/>
   </g>
   <g id="patch_4">
    <path d="M -20.663794 263.44741 
L -20.663794 265.378447 
L -7.121244 265.378447 
L -7.121244 263.44741 
L -20.663794 263.44741 
" clip-path="url(#p324b1b65be)" style="fill: #009afa; stroke: #000000; stroke-linejoin: miter"/>
   </g>
   <g id="patch_5">
    <path d="M -7.121244 263.44741 
L -7.121244 265.378447 
L 6.421306 265.378447 
L 6.421306 263.44741 
L -7.121244 263.44741 
" clip-path="url(#p324b1b65be)" style="fill: #009afa; stroke: #000000; stroke-linejoin: miter"/>
   </g>
   <g id="patch_6">
    <path d="M 6.421306 260.550855 
L 6.421306 265.378447 
L 19.963856 265.378447 
L 19.963856 260.550855 
L 6.421306 260.550855 
" clip-path="url(#p324b1b65be)" style="fill: #009afa; stroke: #000000; stroke-linejoin: miter"/>
   </g>
   <g id="patch_7">
    <path d="M 19.963856 261.516373 
L 19.963856 265.378447 
L 33.506406 265.378447 
L 33.506406 261.516373 
L 19.963856 261.516373 
" clip-path="url(#p324b1b65be)" style="fill: #009afa; stroke: #000000; stroke-linejoin: miter"/>
   </g>
   <g id="patch_8">
    <path d="M 33.506406 257.654299 
L 33.506406 265.378447 
L 47.048956 265.378447 
L 47.048956 257.654299 
L 33.506406 257.654299 
" clip-path="url(#p324b1b65be)" style="fill: #009afa; stroke: #000000; stroke-linejoin: miter"/>
   </g>
   <g id="patch_9">
    <path d="M 47.048956 254.757744 
L 47.048956 265.378447 
L 60.591506 265.378447 
L 60.591506 254.757744 
L 47.048956 254.757744 
" clip-path="url(#p324b1b65be)" style="fill: #009afa; stroke: #000000; stroke-linejoin: miter"/>
   </g>
   <g id="patch_10">
    <path d="M 60.591506 248.964632 
L 60.591506 265.378447 
L 74.134056 265.378447 
L 74.134056 248.964632 
L 60.591506 248.964632 
" clip-path="url(#p324b1b65be)" style="fill: #009afa; stroke: #000000; stroke-linejoin: miter"/>
   </g>
   <g id="patch_11">
    <path d="M 74.134056 234.481854 
L 74.134056 265.378447 
L 87.676606 265.378447 
L 87.676606 234.481854 
L 74.134056 234.481854 
" clip-path="url(#p324b1b65be)" style="fill: #009afa; stroke: #000000; stroke-linejoin: miter"/>
   </g>
   <g id="patch_12">
    <path d="M 87.676606 222.895632 
L 87.676606 265.378447 
L 101.219156 265.378447 
L 101.219156 222.895632 
L 87.676606 222.895632 
" clip-path="url(#p324b1b65be)" style="fill: #009afa; stroke: #000000; stroke-linejoin: miter"/>
   </g>
   <g id="patch_13">
    <path d="M 101.219156 215.171483 
L 101.219156 265.378447 
L 114.761706 265.378447 
L 114.761706 215.171483 
L 101.219156 215.171483 
" clip-path="url(#p324b1b65be)" style="fill: #009afa; stroke: #000000; stroke-linejoin: miter"/>
   </g>
   <g id="patch_14">
    <path d="M 114.761706 186.205927 
L 114.761706 265.378447 
L 128.304255 265.378447 
L 128.304255 186.205927 
L 114.761706 186.205927 
" clip-path="url(#p324b1b65be)" style="fill: #009afa; stroke: #000000; stroke-linejoin: miter"/>
   </g>
   <g id="patch_15">
    <path d="M 128.304255 159.171408 
L 128.304255 265.378447 
L 141.846805 265.378447 
L 141.846805 159.171408 
L 128.304255 159.171408 
" clip-path="url(#p324b1b65be)" style="fill: #009afa; stroke: #000000; stroke-linejoin: miter"/>
   </g>
   <g id="patch_16">
    <path d="M 141.846805 165.930038 
L 141.846805 265.378447 
L 155.389355 265.378447 
L 155.389355 165.930038 
L 141.846805 165.930038 
" clip-path="url(#p324b1b65be)" style="fill: #009afa; stroke: #000000; stroke-linejoin: miter"/>
   </g>
   <g id="patch_17">
    <path d="M 155.389355 113.792036 
L 155.389355 265.378447 
L 168.931905 265.378447 
L 168.931905 113.792036 
L 155.389355 113.792036 
" clip-path="url(#p324b1b65be)" style="fill: #009afa; stroke: #000000; stroke-linejoin: miter"/>
   </g>
   <g id="patch_18">
    <path d="M 168.931905 71.309221 
L 168.931905 265.378447 
L 182.474455 265.378447 
L 182.474455 71.309221 
L 168.931905 71.309221 
" clip-path="url(#p324b1b65be)" style="fill: #009afa; stroke: #000000; stroke-linejoin: miter"/>
   </g>
   <g id="patch_19">
    <path d="M 182.474455 108.964444 
L 182.474455 265.378447 
L 196.017005 265.378447 
L 196.017005 108.964444 
L 182.474455 108.964444 
" clip-path="url(#p324b1b65be)" style="fill: #009afa; stroke: #000000; stroke-linejoin: miter"/>
   </g>
   <g id="patch_20">
    <path d="M 196.017005 23.033294 
L 196.017005 265.378447 
L 209.559555 265.378447 
L 209.559555 23.033294 
L 196.017005 23.033294 
" clip-path="url(#p324b1b65be)" style="fill: #009afa; stroke: #000000; stroke-linejoin: miter"/>
   </g>
   <g id="patch_21">
    <path d="M 209.559555 10.481553 
L 209.559555 265.378447 
L 223.102105 265.378447 
L 223.102105 10.481553 
L 209.559555 10.481553 
" clip-path="url(#p324b1b65be)" style="fill: #009afa; stroke: #000000; stroke-linejoin: miter"/>
   </g>
   <g id="patch_22">
    <path d="M 223.102105 64.550591 
L 223.102105 265.378447 
L 236.644655 265.378447 
L 236.644655 64.550591 
L 223.102105 64.550591 
" clip-path="url(#p324b1b65be)" style="fill: #009afa; stroke: #000000; stroke-linejoin: miter"/>
   </g>
   <g id="patch_23">
    <path d="M 236.644655 47.171257 
L 236.644655 265.378447 
L 250.187205 265.378447 
L 250.187205 47.171257 
L 236.644655 47.171257 
" clip-path="url(#p324b1b65be)" style="fill: #009afa; stroke: #000000; stroke-linejoin: miter"/>
   </g>
   <g id="patch_24">
    <path d="M 250.187205 77.102332 
L 250.187205 265.378447 
L 263.729755 265.378447 
L 263.729755 77.102332 
L 250.187205 77.102332 
" clip-path="url(#p324b1b65be)" style="fill: #009afa; stroke: #000000; stroke-linejoin: miter"/>
   </g>
   <g id="patch_25">
    <path d="M 263.729755 50.067813 
L 263.729755 265.378447 
L 277.272305 265.378447 
L 277.272305 50.067813 
L 263.729755 50.067813 
" clip-path="url(#p324b1b65be)" style="fill: #009afa; stroke: #000000; stroke-linejoin: miter"/>
   </g>
   <g id="patch_26">
    <path d="M 277.272305 98.34374 
L 277.272305 265.378447 
L 290.814855 265.378447 
L 290.814855 98.34374 
L 277.272305 98.34374 
" clip-path="url(#p324b1b65be)" style="fill: #009afa; stroke: #000000; stroke-linejoin: miter"/>
   </g>
   <g id="patch_27">
    <path d="M 290.814855 151.44726 
L 290.814855 265.378447 
L 304.357405 265.378447 
L 304.357405 151.44726 
L 290.814855 151.44726 
" clip-path="url(#p324b1b65be)" style="fill: #009afa; stroke: #000000; stroke-linejoin: miter"/>
   </g>
   <g id="patch_28">
    <path d="M 304.357405 162.067964 
L 304.357405 265.378447 
L 317.899955 265.378447 
L 317.899955 162.067964 
L 304.357405 162.067964 
" clip-path="url(#p324b1b65be)" style="fill: #009afa; stroke: #000000; stroke-linejoin: miter"/>
   </g>
   <g id="patch_29">
    <path d="M 317.899955 186.205927 
L 317.899955 265.378447 
L 331.442505 265.378447 
L 331.442505 186.205927 
L 317.899955 186.205927 
" clip-path="url(#p324b1b65be)" style="fill: #009afa; stroke: #000000; stroke-linejoin: miter"/>
   </g>
   <g id="patch_30">
    <path d="M 331.442505 217.10252 
L 331.442505 265.378447 
L 344.985055 265.378447 
L 344.985055 217.10252 
L 331.442505 217.10252 
" clip-path="url(#p324b1b65be)" style="fill: #009afa; stroke: #000000; stroke-linejoin: miter"/>
   </g>
   <g id="patch_31">
    <path d="M 344.985055 226.757706 
L 344.985055 265.378447 
L 358.527605 265.378447 
L 358.527605 226.757706 
L 344.985055 226.757706 
" clip-path="url(#p324b1b65be)" style="fill: #009afa; stroke: #000000; stroke-linejoin: miter"/>
   </g>
   <g id="patch_32">
    <path d="M 358.527605 235.447373 
L 358.527605 265.378447 
L 372.070155 265.378447 
L 372.070155 235.447373 
L 358.527605 235.447373 
" clip-path="url(#p324b1b65be)" style="fill: #009afa; stroke: #000000; stroke-linejoin: miter"/>
   </g>
   <g id="patch_33">
    <path d="M 372.070155 252.826706 
L 372.070155 265.378447 
L 385.612704 265.378447 
L 385.612704 252.826706 
L 372.070155 252.826706 
" clip-path="url(#p324b1b65be)" style="fill: #009afa; stroke: #000000; stroke-linejoin: miter"/>
   </g>
   <g id="patch_34">
    <path d="M 385.612704 252.826706 
L 385.612704 265.378447 
L 399.155254 265.378447 
L 399.155254 252.826706 
L 385.612704 252.826706 
" clip-path="url(#p324b1b65be)" style="fill: #009afa; stroke: #000000; stroke-linejoin: miter"/>
   </g>
   <g id="patch_35">
    <path d="M 399.155254 262.481892 
L 399.155254 265.378447 
L 412.697804 265.378447 
L 412.697804 262.481892 
L 399.155254 262.481892 
" clip-path="url(#p324b1b65be)" style="fill: #009afa; stroke: #000000; stroke-linejoin: miter"/>
   </g>
   <g id="patch_36">
    <path d="M 412.697804 260.550855 
L 412.697804 265.378447 
L 426.240354 265.378447 
L 426.240354 260.550855 
L 412.697804 260.550855 
" clip-path="url(#p324b1b65be)" style="fill: #009afa; stroke: #000000; stroke-linejoin: miter"/>
   </g>
   <g id="patch_37">
    <path d="M 426.240354 262.481892 
L 426.240354 265.378447 
L 439.782904 265.378447 
L 439.782904 262.481892 
L 426.240354 262.481892 
" clip-path="url(#p324b1b65be)" style="fill: #009afa; stroke: #000000; stroke-linejoin: miter"/>
   </g>
   <g id="patch_38">
    <path d="M 439.782904 264.412929 
L 439.782904 265.378447 
L 453.325454 265.378447 
L 453.325454 264.412929 
L 439.782904 264.412929 
" clip-path="url(#p324b1b65be)" style="fill: #009afa; stroke: #000000; stroke-linejoin: miter"/>
   </g>
   <g id="patch_39">
    <path d="M 453.325454 265.378447 
L 453.325454 265.378447 
L 466.868004 265.378447 
L 466.868004 265.378447 
L 453.325454 265.378447 
" clip-path="url(#p324b1b65be)" style="fill: #009afa; stroke: #000000; stroke-linejoin: miter"/>
   </g>
   <g id="patch_40">
    <path d="M 466.868004 265.378447 
L 466.868004 265.378447 
L 480.410554 265.378447 
L 480.410554 265.378447 
L 466.868004 265.378447 
" clip-path="url(#p324b1b65be)" style="fill: #009afa; stroke: #000000; stroke-linejoin: miter"/>
   </g>
   <g id="patch_41">
    <path d="M 480.410554 264.412929 
L 480.410554 265.378447 
L 493.953104 265.378447 
L 493.953104 264.412929 
L 480.410554 264.412929 
" clip-path="url(#p324b1b65be)" style="fill: #009afa; stroke: #000000; stroke-linejoin: miter"/>
   </g>
   <g id="PathCollection_1">
    <defs>
     <path id="m04998f3bae" d="M 0 0 
C 0 0 0 0 0 0 
C 0 0 0 0 0 0 
C 0 0 0 0 0 0 
C 0 0 0 0 0 0 
C 0 0 0 0 0 0 
C 0 0 0 0 0 0 
C 0 0 0 0 0 0 
C 0 0 0 0 0 0 
z
" style="stroke: #000000; stroke-opacity: 0"/>
    </defs>
    <g clip-path="url(#p324b1b65be)">
     <use xlink:href="#m04998f3bae" x="-1" y="263.44741" style="fill: #009afa; fill-opacity: 0; stroke: #000000; stroke-opacity: 0"/>
     <use xlink:href="#m04998f3bae" x="-0.349969" y="263.44741" style="fill: #009afa; fill-opacity: 0; stroke: #000000; stroke-opacity: 0"/>
     <use xlink:href="#m04998f3bae" x="13.192581" y="260.550855" style="fill: #009afa; fill-opacity: 0; stroke: #000000; stroke-opacity: 0"/>
     <use xlink:href="#m04998f3bae" x="26.735131" y="261.516373" style="fill: #009afa; fill-opacity: 0; stroke: #000000; stroke-opacity: 0"/>
     <use xlink:href="#m04998f3bae" x="40.277681" y="257.654299" style="fill: #009afa; fill-opacity: 0; stroke: #000000; stroke-opacity: 0"/>
     <use xlink:href="#m04998f3bae" x="53.820231" y="254.757744" style="fill: #009afa; fill-opacity: 0; stroke: #000000; stroke-opacity: 0"/>
     <use xlink:href="#m04998f3bae" x="67.362781" y="248.964632" style="fill: #009afa; fill-opacity: 0; stroke: #000000; stroke-opacity: 0"/>
     <use xlink:href="#m04998f3bae" x="80.905331" y="234.481854" style="fill: #009afa; fill-opacity: 0; stroke: #000000; stroke-opacity: 0"/>
     <use xlink:href="#m04998f3bae" x="94.447881" y="222.895632" style="fill: #009afa; fill-opacity: 0; stroke: #000000; stroke-opacity: 0"/>
     <use xlink:href="#m04998f3bae" x="107.990431" y="215.171483" style="fill: #009afa; fill-opacity: 0; stroke: #000000; stroke-opacity: 0"/>
     <use xlink:href="#m04998f3bae" x="121.53298" y="186.205927" style="fill: #009afa; fill-opacity: 0; stroke: #000000; stroke-opacity: 0"/>
     <use xlink:href="#m04998f3bae" x="135.07553" y="159.171408" style="fill: #009afa; fill-opacity: 0; stroke: #000000; stroke-opacity: 0"/>
     <use xlink:href="#m04998f3bae" x="148.61808" y="165.930038" style="fill: #009afa; fill-opacity: 0; stroke: #000000; stroke-opacity: 0"/>
     <use xlink:href="#m04998f3bae" x="162.16063" y="113.792036" style="fill: #009afa; fill-opacity: 0; stroke: #000000; stroke-opacity: 0"/>
     <use xlink:href="#m04998f3bae" x="175.70318" y="71.309221" style="fill: #009afa; fill-opacity: 0; stroke: #000000; stroke-opacity: 0"/>
     <use xlink:href="#m04998f3bae" x="189.24573" y="108.964444" style="fill: #009afa; fill-opacity: 0; stroke: #000000; stroke-opacity: 0"/>
     <use xlink:href="#m04998f3bae" x="202.78828" y="23.033294" style="fill: #009afa; fill-opacity: 0; stroke: #000000; stroke-opacity: 0"/>
     <use xlink:href="#m04998f3bae" x="216.33083" y="10.481553" style="fill: #009afa; fill-opacity: 0; stroke: #000000; stroke-opacity: 0"/>
     <use xlink:href="#m04998f3bae" x="229.87338" y="64.550591" style="fill: #009afa; fill-opacity: 0; stroke: #000000; stroke-opacity: 0"/>
     <use xlink:href="#m04998f3bae" x="243.41593" y="47.171257" style="fill: #009afa; fill-opacity: 0; stroke: #000000; stroke-opacity: 0"/>
     <use xlink:href="#m04998f3bae" x="256.95848" y="77.102332" style="fill: #009afa; fill-opacity: 0; stroke: #000000; stroke-opacity: 0"/>
     <use xlink:href="#m04998f3bae" x="270.50103" y="50.067813" style="fill: #009afa; fill-opacity: 0; stroke: #000000; stroke-opacity: 0"/>
     <use xlink:href="#m04998f3bae" x="284.04358" y="98.34374" style="fill: #009afa; fill-opacity: 0; stroke: #000000; stroke-opacity: 0"/>
     <use xlink:href="#m04998f3bae" x="297.58613" y="151.44726" style="fill: #009afa; fill-opacity: 0; stroke: #000000; stroke-opacity: 0"/>
     <use xlink:href="#m04998f3bae" x="311.12868" y="162.067964" style="fill: #009afa; fill-opacity: 0; stroke: #000000; stroke-opacity: 0"/>
     <use xlink:href="#m04998f3bae" x="324.67123" y="186.205927" style="fill: #009afa; fill-opacity: 0; stroke: #000000; stroke-opacity: 0"/>
     <use xlink:href="#m04998f3bae" x="338.21378" y="217.10252" style="fill: #009afa; fill-opacity: 0; stroke: #000000; stroke-opacity: 0"/>
     <use xlink:href="#m04998f3bae" x="351.75633" y="226.757706" style="fill: #009afa; fill-opacity: 0; stroke: #000000; stroke-opacity: 0"/>
     <use xlink:href="#m04998f3bae" x="365.29888" y="235.447373" style="fill: #009afa; fill-opacity: 0; stroke: #000000; stroke-opacity: 0"/>
     <use xlink:href="#m04998f3bae" x="378.84143" y="252.826706" style="fill: #009afa; fill-opacity: 0; stroke: #000000; stroke-opacity: 0"/>
     <use xlink:href="#m04998f3bae" x="392.383979" y="252.826706" style="fill: #009afa; fill-opacity: 0; stroke: #000000; stroke-opacity: 0"/>
     <use xlink:href="#m04998f3bae" x="405.926529" y="262.481892" style="fill: #009afa; fill-opacity: 0; stroke: #000000; stroke-opacity: 0"/>
     <use xlink:href="#m04998f3bae" x="419.469079" y="260.550855" style="fill: #009afa; fill-opacity: 0; stroke: #000000; stroke-opacity: 0"/>
     <use xlink:href="#m04998f3bae" x="433.011629" y="262.481892" style="fill: #009afa; fill-opacity: 0; stroke: #000000; stroke-opacity: 0"/>
     <use xlink:href="#m04998f3bae" x="446.554179" y="264.412929" style="fill: #009afa; fill-opacity: 0; stroke: #000000; stroke-opacity: 0"/>
     <use xlink:href="#m04998f3bae" x="460.096729" y="265.378447" style="fill: #009afa; fill-opacity: 0; stroke: #000000; stroke-opacity: 0"/>
     <use xlink:href="#m04998f3bae" x="473.639279" y="265.378447" style="fill: #009afa; fill-opacity: 0; stroke: #000000; stroke-opacity: 0"/>
     <use xlink:href="#m04998f3bae" x="487.181829" y="264.412929" style="fill: #009afa; fill-opacity: 0; stroke: #000000; stroke-opacity: 0"/>
    </g>
   </g>
   <g id="line2d_25">
    <path d="M -1 264.39618 
L 7.550212 263.921836 
L 16.112395 263.217287 
L 24.674578 262.222815 
L 29.325043 261.528381 
L 33.975508 260.703233 
L 38.625973 259.727954 
L 43.276439 258.581362 
L 47.563756 257.352824 
L 51.851074 255.940149 
L 56.138392 254.323222 
L 60.425709 252.4811 
L 65.022167 250.231484 
L 69.618625 247.671262 
L 74.215082 244.773463 
L 78.81154 241.511666 
L 84.136987 237.244223 
L 89.462434 232.418255 
L 92.125157 229.785843 
L 94.787881 227.002579 
L 97.450604 224.065603 
L 100.113327 220.972576 
L 104.845956 215.084862 
L 109.578585 208.694084 
L 114.311214 201.802562 
L 119.043843 194.420664 
L 123.193931 187.558767 
L 127.34402 180.35329 
L 131.494109 172.828951 
L 135.644198 165.016453 
L 144.69362 147.167775 
L 153.743042 128.609582 
L 162.846247 109.829148 
L 171.949452 91.638552 
L 174.465642 86.815582 
L 176.981831 82.111966 
L 179.49802 77.544 
L 182.01421 73.127828 
L 184.530399 68.87935 
L 187.046588 64.814127 
L 189.562778 60.947285 
L 192.078967 57.293422 
L 194.473058 54.02737 
L 196.867148 50.978242 
L 199.261239 48.15684 
L 201.655329 45.573257 
L 204.04942 43.236815 
L 206.443511 41.156011 
L 208.837601 39.338462 
L 211.231692 37.790863 
L 213.720991 36.474129 
L 216.21029 35.460718 
L 218.699588 34.754717 
L 221.188887 34.358981 
L 223.678186 34.27511 
L 226.167485 34.503446 
L 228.656784 35.043062 
L 231.146082 35.891776 
L 233.241542 36.843343 
L 235.337001 38.008814 
L 237.43246 39.384874 
L 239.52792 40.967621 
L 241.623379 42.752588 
L 243.718839 44.734763 
L 245.814298 46.908613 
L 247.909757 49.268108 
L 250.468076 52.390973 
L 253.026394 55.76814 
L 255.584712 59.386016 
L 258.143031 63.230215 
L 260.701349 67.285649 
L 263.259667 71.536625 
L 265.817986 75.966951 
L 268.376304 80.560032 
L 273.063467 89.341275 
L 277.75063 98.506794 
L 282.437793 107.95124 
L 287.124956 117.571088 
L 295.782869 135.468606 
L 304.440783 153.050491 
L 308.825881 161.675171 
L 313.21098 170.038324 
L 317.596079 178.093862 
L 321.981178 185.803198 
L 326.895645 193.993614 
L 331.810112 201.677455 
L 336.724578 208.832854 
L 341.639045 215.448208 
L 346.092345 220.974318 
L 350.545645 226.059255 
L 354.998945 230.71216 
L 359.452245 234.94637 
L 364.550967 239.301924 
L 369.649688 243.160428 
L 374.74841 246.555026 
L 379.847131 249.521144 
L 384.568094 251.917306 
L 389.289057 254.0068 
L 394.01002 255.818537 
L 398.730982 257.380599 
L 403.385298 258.702396 
L 408.039614 259.832007 
L 412.69393 260.792204 
L 417.348246 261.604047 
L 426.386158 262.827566 
L 433 263.454959 
" clip-path="url(#p324b1b65be)" style="fill: none; stroke: #e36f47"/>
   </g>
   <g id="patch_42">
    <path d="M 19.963856 273.025354 
L 19.963856 2.834646 
" style="fill: none; stroke: #000000; stroke-linejoin: miter; stroke-linecap: square"/>
   </g>
   <g id="patch_43">
    <path d="M 19.963856 273.025354 
L 426.240354 273.025354 
" style="fill: none; stroke: #000000; stroke-linejoin: miter; stroke-linecap: square"/>
   </g>
   <g id="legend_1">
    <g id="patch_44">
     <path d="M 332.724104 40.337146 
L 422.240354 40.337146 
L 422.240354 6.834646 
L 332.724104 6.834646 
z
" style="fill: #ffffff; stroke: #000000; stroke-linejoin: miter"/>
    </g>
    <g id="patch_45">
     <path d="M 339.124104 19.313396 
L 355.124104 19.313396 
L 355.124104 13.713396 
L 339.124104 13.713396 
z
" style="fill: #009afa; stroke: #000000; stroke-linejoin: miter"/>
    </g>
    <g id="text_13">
     <!-- sample mean -->
     <g transform="translate(361.524104 19.313396) scale(0.08 -0.08)">
      <defs>
       <path id="DejaVuSans-73" d="M 2834 3397 
L 2834 2853 
Q 2591 2978 2328 3040 
Q 2066 3103 1784 3103 
Q 1356 3103 1142 2972 
Q 928 2841 928 2578 
Q 928 2378 1081 2264 
Q 1234 2150 1697 2047 
L 1894 2003 
Q 2506 1872 2764 1633 
Q 3022 1394 3022 966 
Q 3022 478 2636 193 
Q 2250 -91 1575 -91 
Q 1294 -91 989 -36 
Q 684 19 347 128 
L 347 722 
Q 666 556 975 473 
Q 1284 391 1588 391 
Q 1994 391 2212 530 
Q 2431 669 2431 922 
Q 2431 1156 2273 1281 
Q 2116 1406 1581 1522 
L 1381 1569 
Q 847 1681 609 1914 
Q 372 2147 372 2553 
Q 372 3047 722 3315 
Q 1072 3584 1716 3584 
Q 2034 3584 2315 3537 
Q 2597 3491 2834 3397 
z
" transform="scale(0.015625)"/>
       <path id="DejaVuSans-61" d="M 2194 1759 
Q 1497 1759 1228 1600 
Q 959 1441 959 1056 
Q 959 750 1161 570 
Q 1363 391 1709 391 
Q 2188 391 2477 730 
Q 2766 1069 2766 1631 
L 2766 1759 
L 2194 1759 
z
M 3341 1997 
L 3341 0 
L 2766 0 
L 2766 531 
Q 2569 213 2275 61 
Q 1981 -91 1556 -91 
Q 1019 -91 701 211 
Q 384 513 384 1019 
Q 384 1609 779 1909 
Q 1175 2209 1959 2209 
L 2766 2209 
L 2766 2266 
Q 2766 2663 2505 2880 
Q 2244 3097 1772 3097 
Q 1472 3097 1187 3025 
Q 903 2953 641 2809 
L 641 3341 
Q 956 3463 1253 3523 
Q 1550 3584 1831 3584 
Q 2591 3584 2966 3190 
Q 3341 2797 3341 1997 
z
" transform="scale(0.015625)"/>
       <path id="DejaVuSans-6d" d="M 3328 2828 
Q 3544 3216 3844 3400 
Q 4144 3584 4550 3584 
Q 5097 3584 5394 3201 
Q 5691 2819 5691 2113 
L 5691 0 
L 5113 0 
L 5113 2094 
Q 5113 2597 4934 2840 
Q 4756 3084 4391 3084 
Q 3944 3084 3684 2787 
Q 3425 2491 3425 1978 
L 3425 0 
L 2847 0 
L 2847 2094 
Q 2847 2600 2669 2842 
Q 2491 3084 2119 3084 
Q 1678 3084 1418 2786 
Q 1159 2488 1159 1978 
L 1159 0 
L 581 0 
L 581 3500 
L 1159 3500 
L 1159 2956 
Q 1356 3278 1631 3431 
Q 1906 3584 2284 3584 
Q 2666 3584 2933 3390 
Q 3200 3197 3328 2828 
z
" transform="scale(0.015625)"/>
       <path id="DejaVuSans-70" d="M 1159 525 
L 1159 -1331 
L 581 -1331 
L 581 3500 
L 1159 3500 
L 1159 2969 
Q 1341 3281 1617 3432 
Q 1894 3584 2278 3584 
Q 2916 3584 3314 3078 
Q 3713 2572 3713 1747 
Q 3713 922 3314 415 
Q 2916 -91 2278 -91 
Q 1894 -91 1617 61 
Q 1341 213 1159 525 
z
M 3116 1747 
Q 3116 2381 2855 2742 
Q 2594 3103 2138 3103 
Q 1681 3103 1420 2742 
Q 1159 2381 1159 1747 
Q 1159 1113 1420 752 
Q 1681 391 2138 391 
Q 2594 391 2855 752 
Q 3116 1113 3116 1747 
z
" transform="scale(0.015625)"/>
       <path id="DejaVuSans-6c" d="M 603 4863 
L 1178 4863 
L 1178 0 
L 603 0 
L 603 4863 
z
" transform="scale(0.015625)"/>
       <path id="DejaVuSans-65" d="M 3597 1894 
L 3597 1613 
L 953 1613 
Q 991 1019 1311 708 
Q 1631 397 2203 397 
Q 2534 397 2845 478 
Q 3156 559 3463 722 
L 3463 178 
Q 3153 47 2828 -22 
Q 2503 -91 2169 -91 
Q 1331 -91 842 396 
Q 353 884 353 1716 
Q 353 2575 817 3079 
Q 1281 3584 2069 3584 
Q 2775 3584 3186 3129 
Q 3597 2675 3597 1894 
z
M 3022 2063 
Q 3016 2534 2758 2815 
Q 2500 3097 2075 3097 
Q 1594 3097 1305 2825 
Q 1016 2553 972 2059 
L 3022 2063 
z
" transform="scale(0.015625)"/>
       <path id="DejaVuSans-20" transform="scale(0.015625)"/>
       <path id="DejaVuSans-6e" d="M 3513 2113 
L 3513 0 
L 2938 0 
L 2938 2094 
Q 2938 2591 2744 2837 
Q 2550 3084 2163 3084 
Q 1697 3084 1428 2787 
Q 1159 2491 1159 1978 
L 1159 0 
L 581 0 
L 581 3500 
L 1159 3500 
L 1159 2956 
Q 1366 3272 1645 3428 
Q 1925 3584 2291 3584 
Q 2894 3584 3203 3211 
Q 3513 2838 3513 2113 
z
" transform="scale(0.015625)"/>
      </defs>
      <use xlink:href="#DejaVuSans-73"/>
      <use xlink:href="#DejaVuSans-61" x="52.099609"/>
      <use xlink:href="#DejaVuSans-6d" x="113.378906"/>
      <use xlink:href="#DejaVuSans-70" x="210.791016"/>
      <use xlink:href="#DejaVuSans-6c" x="274.267578"/>
      <use xlink:href="#DejaVuSans-65" x="302.050781"/>
      <use xlink:href="#DejaVuSans-20" x="363.574219"/>
      <use xlink:href="#DejaVuSans-6d" x="395.361328"/>
      <use xlink:href="#DejaVuSans-65" x="492.773438"/>
      <use xlink:href="#DejaVuSans-61" x="554.296875"/>
      <use xlink:href="#DejaVuSans-6e" x="615.576172"/>
     </g>
    </g>
    <g id="line2d_26">
     <path d="M 339.124104 29.457146 
L 347.124104 29.457146 
L 355.124104 29.457146 
" style="fill: none; stroke: #e36f47; stroke-linejoin: miter"/>
    </g>
    <g id="text_14">
     <!-- $\mathcal{N}(μ,σ^2)$ -->
     <g transform="translate(361.524104 32.257146) scale(0.08 -0.08)">
      <defs>
       <path id="STIXNonUnicode-Italic-e23a" d="M 4294 800 
L 4301 800 
Q 5293 4070 5408 4378 
Q 5472 4538 5523 4614 
Q 5830 5088 6253 5088 
Q 6490 5088 6650 4931 
Q 6810 4774 6810 4550 
Q 6810 4378 6720 4272 
Q 6630 4166 6470 4166 
Q 6368 4166 6297 4224 
Q 6227 4282 6198 4349 
Q 6170 4416 6118 4473 
Q 6067 4531 6003 4531 
Q 5939 4531 5881 4508 
Q 5824 4486 5785 4457 
Q 5747 4429 5705 4371 
Q 5664 4314 5638 4275 
Q 5613 4237 5584 4163 
Q 5555 4090 5545 4058 
Q 5536 4026 5510 3952 
Q 5485 3878 5485 3866 
L 4262 -154 
L 4134 -154 
Q 3078 1280 2483 2893 
L 2470 2893 
Q 2406 2579 2358 2361 
Q 2310 2144 2214 1792 
Q 2118 1440 2028 1190 
Q 1939 941 1804 653 
Q 1670 365 1529 185 
Q 1389 6 1203 -115 
Q 1018 -237 813 -237 
Q 576 -237 416 -80 
Q 256 77 256 301 
Q 256 474 345 579 
Q 435 685 595 685 
Q 698 685 768 627 
Q 838 570 867 502 
Q 896 435 947 377 
Q 998 320 1062 320 
Q 1222 320 1369 480 
Q 1517 640 1638 928 
Q 1760 1216 1862 1542 
Q 1965 1869 2057 2288 
Q 2150 2707 2214 3033 
Q 2278 3360 2348 3741 
Q 2419 4122 2458 4294 
L 2630 4294 
Q 2682 4166 2874 3680 
Q 3066 3194 3142 3008 
Q 3219 2822 3392 2422 
Q 3565 2022 3683 1798 
Q 3802 1574 3968 1292 
Q 4134 1011 4294 800 
z
" transform="scale(0.015625)"/>
       <path id="DejaVuSans-28" d="M 1984 4856 
Q 1566 4138 1362 3434 
Q 1159 2731 1159 2009 
Q 1159 1288 1364 580 
Q 1569 -128 1984 -844 
L 1484 -844 
Q 1016 -109 783 600 
Q 550 1309 550 2009 
Q 550 2706 781 3412 
Q 1013 4119 1484 4856 
L 1984 4856 
z
" transform="scale(0.015625)"/>
       <path id="DejaVuSans-Oblique-3bc" d="M -84 -1331 
L 856 3500 
L 1434 3500 
L 1009 1322 
Q 997 1256 987 1175 
Q 978 1094 978 1013 
Q 978 722 1161 565 
Q 1344 409 1684 409 
Q 2147 409 2431 671 
Q 2716 934 2816 1459 
L 3213 3500 
L 3788 3500 
L 3266 809 
Q 3253 750 3248 706 
Q 3244 663 3244 628 
Q 3244 531 3283 486 
Q 3322 441 3406 441 
Q 3438 441 3492 456 
Q 3547 472 3647 513 
L 3559 50 
Q 3422 -19 3297 -55 
Q 3172 -91 3053 -91 
Q 2847 -91 2730 40 
Q 2613 172 2613 403 
Q 2438 153 2195 31 
Q 1953 -91 1625 -91 
Q 1334 -91 1117 43 
Q 900 178 831 397 
L 494 -1331 
L -84 -1331 
z
" transform="scale(0.015625)"/>
       <path id="DejaVuSans-2c" d="M 750 794 
L 1409 794 
L 1409 256 
L 897 -744 
L 494 -744 
L 750 256 
L 750 794 
z
" transform="scale(0.015625)"/>
       <path id="DejaVuSans-Oblique-3c3" d="M 2219 3044 
Q 1744 3044 1422 2700 
Q 1081 2341 969 1747 
Q 844 1119 1044 756 
Q 1241 397 1706 397 
Q 2166 397 2503 759 
Q 2844 1122 2966 1747 
Q 3075 2319 2881 2700 
Q 2700 3044 2219 3044 
z
M 2309 3503 
L 4219 3500 
L 4106 2925 
L 3463 2925 
Q 3706 2438 3575 1747 
Q 3406 888 2884 400 
Q 2359 -91 1609 -91 
Q 856 -91 525 400 
Q 194 888 363 1747 
Q 528 2609 1050 3097 
Q 1484 3503 2309 3503 
z
" transform="scale(0.015625)"/>
       <path id="DejaVuSans-29" d="M 513 4856 
L 1013 4856 
Q 1481 4119 1714 3412 
Q 1947 2706 1947 2009 
Q 1947 1309 1714 600 
Q 1481 -109 1013 -844 
L 513 -844 
Q 928 -128 1133 580 
Q 1338 1288 1338 2009 
Q 1338 2731 1133 3434 
Q 928 4138 513 4856 
z
" transform="scale(0.015625)"/>
      </defs>
      <use xlink:href="#STIXNonUnicode-Italic-e23a" transform="translate(0 0.765625)"/>
      <use xlink:href="#DejaVuSans-28" transform="translate(95.699982 0.765625)"/>
      <use xlink:href="#DejaVuSans-Oblique-3bc" transform="translate(134.713654 0.765625)"/>
      <use xlink:href="#DejaVuSans-2c" transform="translate(198.3367 0.765625)"/>
      <use xlink:href="#DejaVuSans-Oblique-3c3" transform="translate(249.606232 0.765625)"/>
      <use xlink:href="#DejaVuSans-32" transform="translate(317.457846 39.046875) scale(0.7)"/>
      <use xlink:href="#DejaVuSans-29" transform="translate(364.728354 0.765625)"/>
     </g>
    </g>
   </g>
  </g>
 </g>
 <defs>
  <clipPath id="p324b1b65be">
   <rect x="19.963856" y="2.834646" width="406.276498" height="270.190709"/>
  </clipPath>
 </defs>
</svg>
