<?xml version="1.0" encoding="utf-8" standalone="no"?>
<!DOCTYPE svg PUBLIC "-//W3C//DTD SVG 1.1//EN"
  "http://www.w3.org/Graphics/SVG/1.1/DTD/svg11.dtd">
<!-- Created with matplotlib (https://matplotlib.org/) -->
<svg height="288pt" version="1.1" viewBox="0 0 432 288" width="432pt" xmlns="http://www.w3.org/2000/svg" xmlns:xlink="http://www.w3.org/1999/xlink">
 <metadata>
  <rdf:RDF xmlns:cc="http://creativecommons.org/ns#" xmlns:dc="http://purl.org/dc/elements/1.1/" xmlns:rdf="http://www.w3.org/1999/02/22-rdf-syntax-ns#">
   <cc:Work>
    <dc:type rdf:resource="http://purl.org/dc/dcmitype/StillImage"/>
    <dc:date>2020-08-07T20:36:51.788715</dc:date>
    <dc:format>image/svg+xml</dc:format>
    <dc:creator>
     <cc:Agent>
      <dc:title>Matplotlib v3.3.0, https://matplotlib.org/</dc:title>
     </cc:Agent>
    </dc:creator>
   </cc:Work>
  </rdf:RDF>
 </metadata>
 <defs>
  <style type="text/css">*{stroke-linecap:butt;stroke-linejoin:round;}</style>
 </defs>
 <g id="figure_1">
  <g id="patch_1">
   <path d="M 0 288 
L 432 288 
L 432 0 
L 0 0 
z
" style="fill:#ffffff;"/>
  </g>
  <g id="axes_1">
   <g id="patch_2">
    <path d="M 20.074499 273.025354 
L 429.165354 273.025354 
L 429.165354 2.834646 
L 20.074499 2.834646 
z
" style="fill:#ffffff;"/>
   </g>
   <g id="matplotlib.axis_1">
    <g id="xtick_1">
     <g id="line2d_1">
      <path clip-path="url(#pa5d0133273)" d="M 31.652542 273.025354 
L 31.652542 2.834646 
" style="fill:none;stroke:#000000;stroke-linecap:square;stroke-opacity:0.1;stroke-width:0.5;"/>
     </g>
     <g id="line2d_2">
      <defs>
       <path d="M 0 0 
L 0 -2.5 
" id="mec8563e941" style="stroke:#000000;stroke-width:0.5;"/>
      </defs>
      <g>
       <use style="stroke:#000000;stroke-width:0.5;" x="31.652542" xlink:href="#mec8563e941" y="273.025354"/>
      </g>
     </g>
     <g id="text_1">
      <!-- $\mathregular{-3}$ -->
      <g transform="translate(25.732542 282.604104)scale(0.08 -0.08)">
       <defs>
        <path d="M 10.59375 35.5 
L 73.1875 35.5 
L 73.1875 27.203125 
L 10.59375 27.203125 
z
" id="DejaVuSans-8722"/>
        <path d="M 40.578125 39.3125 
Q 47.65625 37.796875 51.625 33 
Q 55.609375 28.21875 55.609375 21.1875 
Q 55.609375 10.40625 48.1875 4.484375 
Q 40.765625 -1.421875 27.09375 -1.421875 
Q 22.515625 -1.421875 17.65625 -0.515625 
Q 12.796875 0.390625 7.625 2.203125 
L 7.625 11.71875 
Q 11.71875 9.328125 16.59375 8.109375 
Q 21.484375 6.890625 26.8125 6.890625 
Q 36.078125 6.890625 40.9375 10.546875 
Q 45.796875 14.203125 45.796875 21.1875 
Q 45.796875 27.640625 41.28125 31.265625 
Q 36.765625 34.90625 28.71875 34.90625 
L 20.21875 34.90625 
L 20.21875 43.015625 
L 29.109375 43.015625 
Q 36.375 43.015625 40.234375 45.921875 
Q 44.09375 48.828125 44.09375 54.296875 
Q 44.09375 59.90625 40.109375 62.90625 
Q 36.140625 65.921875 28.71875 65.921875 
Q 24.65625 65.921875 20.015625 65.03125 
Q 15.375 64.15625 9.8125 62.3125 
L 9.8125 71.09375 
Q 15.4375 72.65625 20.34375 73.4375 
Q 25.25 74.21875 29.59375 74.21875 
Q 40.828125 74.21875 47.359375 69.109375 
Q 53.90625 64.015625 53.90625 55.328125 
Q 53.90625 49.265625 50.4375 45.09375 
Q 46.96875 40.921875 40.578125 39.3125 
z
" id="DejaVuSans-51"/>
       </defs>
       <use transform="translate(0 0.78125)" xlink:href="#DejaVuSans-8722"/>
       <use transform="translate(83.789062 0.78125)" xlink:href="#DejaVuSans-51"/>
      </g>
     </g>
    </g>
    <g id="xtick_2">
     <g id="line2d_3">
      <path clip-path="url(#pa5d0133273)" d="M 95.975004 273.025354 
L 95.975004 2.834646 
" style="fill:none;stroke:#000000;stroke-linecap:square;stroke-opacity:0.1;stroke-width:0.5;"/>
     </g>
     <g id="line2d_4">
      <g>
       <use style="stroke:#000000;stroke-width:0.5;" x="95.975004" xlink:href="#mec8563e941" y="273.025354"/>
      </g>
     </g>
     <g id="text_2">
      <!-- $\mathregular{-2}$ -->
      <g transform="translate(90.055004 282.604104)scale(0.08 -0.08)">
       <defs>
        <path d="M 19.1875 8.296875 
L 53.609375 8.296875 
L 53.609375 0 
L 7.328125 0 
L 7.328125 8.296875 
Q 12.9375 14.109375 22.625 23.890625 
Q 32.328125 33.6875 34.8125 36.53125 
Q 39.546875 41.84375 41.421875 45.53125 
Q 43.3125 49.21875 43.3125 52.78125 
Q 43.3125 58.59375 39.234375 62.25 
Q 35.15625 65.921875 28.609375 65.921875 
Q 23.96875 65.921875 18.8125 64.3125 
Q 13.671875 62.703125 7.8125 59.421875 
L 7.8125 69.390625 
Q 13.765625 71.78125 18.9375 73 
Q 24.125 74.21875 28.421875 74.21875 
Q 39.75 74.21875 46.484375 68.546875 
Q 53.21875 62.890625 53.21875 53.421875 
Q 53.21875 48.921875 51.53125 44.890625 
Q 49.859375 40.875 45.40625 35.40625 
Q 44.1875 33.984375 37.640625 27.21875 
Q 31.109375 20.453125 19.1875 8.296875 
z
" id="DejaVuSans-50"/>
       </defs>
       <use transform="translate(0 0.78125)" xlink:href="#DejaVuSans-8722"/>
       <use transform="translate(83.789062 0.78125)" xlink:href="#DejaVuSans-50"/>
      </g>
     </g>
    </g>
    <g id="xtick_3">
     <g id="line2d_5">
      <path clip-path="url(#pa5d0133273)" d="M 160.297465 273.025354 
L 160.297465 2.834646 
" style="fill:none;stroke:#000000;stroke-linecap:square;stroke-opacity:0.1;stroke-width:0.5;"/>
     </g>
     <g id="line2d_6">
      <g>
       <use style="stroke:#000000;stroke-width:0.5;" x="160.297465" xlink:href="#mec8563e941" y="273.025354"/>
      </g>
     </g>
     <g id="text_3">
      <!-- $\mathregular{-1}$ -->
      <g transform="translate(154.377465 282.604104)scale(0.08 -0.08)">
       <defs>
        <path d="M 12.40625 8.296875 
L 28.515625 8.296875 
L 28.515625 63.921875 
L 10.984375 60.40625 
L 10.984375 69.390625 
L 28.421875 72.90625 
L 38.28125 72.90625 
L 38.28125 8.296875 
L 54.390625 8.296875 
L 54.390625 0 
L 12.40625 0 
z
" id="DejaVuSans-49"/>
       </defs>
       <use transform="translate(0 0.09375)" xlink:href="#DejaVuSans-8722"/>
       <use transform="translate(83.789062 0.09375)" xlink:href="#DejaVuSans-49"/>
      </g>
     </g>
    </g>
    <g id="xtick_4">
     <g id="line2d_7">
      <path clip-path="url(#pa5d0133273)" d="M 224.619927 273.025354 
L 224.619927 2.834646 
" style="fill:none;stroke:#000000;stroke-linecap:square;stroke-opacity:0.1;stroke-width:0.5;"/>
     </g>
     <g id="line2d_8">
      <g>
       <use style="stroke:#000000;stroke-width:0.5;" x="224.619927" xlink:href="#mec8563e941" y="273.025354"/>
      </g>
     </g>
     <g id="text_4">
      <!-- $\mathregular{0}$ -->
      <g transform="translate(222.059927 282.604104)scale(0.08 -0.08)">
       <defs>
        <path d="M 31.78125 66.40625 
Q 24.171875 66.40625 20.328125 58.90625 
Q 16.5 51.421875 16.5 36.375 
Q 16.5 21.390625 20.328125 13.890625 
Q 24.171875 6.390625 31.78125 6.390625 
Q 39.453125 6.390625 43.28125 13.890625 
Q 47.125 21.390625 47.125 36.375 
Q 47.125 51.421875 43.28125 58.90625 
Q 39.453125 66.40625 31.78125 66.40625 
z
M 31.78125 74.21875 
Q 44.046875 74.21875 50.515625 64.515625 
Q 56.984375 54.828125 56.984375 36.375 
Q 56.984375 17.96875 50.515625 8.265625 
Q 44.046875 -1.421875 31.78125 -1.421875 
Q 19.53125 -1.421875 13.0625 8.265625 
Q 6.59375 17.96875 6.59375 36.375 
Q 6.59375 54.828125 13.0625 64.515625 
Q 19.53125 74.21875 31.78125 74.21875 
z
" id="DejaVuSans-48"/>
       </defs>
       <use transform="translate(0 0.78125)" xlink:href="#DejaVuSans-48"/>
      </g>
     </g>
    </g>
    <g id="xtick_5">
     <g id="line2d_9">
      <path clip-path="url(#pa5d0133273)" d="M 288.942388 273.025354 
L 288.942388 2.834646 
" style="fill:none;stroke:#000000;stroke-linecap:square;stroke-opacity:0.1;stroke-width:0.5;"/>
     </g>
     <g id="line2d_10">
      <g>
       <use style="stroke:#000000;stroke-width:0.5;" x="288.942388" xlink:href="#mec8563e941" y="273.025354"/>
      </g>
     </g>
     <g id="text_5">
      <!-- $\mathregular{1}$ -->
      <g transform="translate(286.382388 282.604104)scale(0.08 -0.08)">
       <use transform="translate(0 0.09375)" xlink:href="#DejaVuSans-49"/>
      </g>
     </g>
    </g>
    <g id="xtick_6">
     <g id="line2d_11">
      <path clip-path="url(#pa5d0133273)" d="M 353.26485 273.025354 
L 353.26485 2.834646 
" style="fill:none;stroke:#000000;stroke-linecap:square;stroke-opacity:0.1;stroke-width:0.5;"/>
     </g>
     <g id="line2d_12">
      <g>
       <use style="stroke:#000000;stroke-width:0.5;" x="353.26485" xlink:href="#mec8563e941" y="273.025354"/>
      </g>
     </g>
     <g id="text_6">
      <!-- $\mathregular{2}$ -->
      <g transform="translate(350.70485 282.604104)scale(0.08 -0.08)">
       <use transform="translate(0 0.78125)" xlink:href="#DejaVuSans-50"/>
      </g>
     </g>
    </g>
    <g id="xtick_7">
     <g id="line2d_13">
      <path clip-path="url(#pa5d0133273)" d="M 417.587311 273.025354 
L 417.587311 2.834646 
" style="fill:none;stroke:#000000;stroke-linecap:square;stroke-opacity:0.1;stroke-width:0.5;"/>
     </g>
     <g id="line2d_14">
      <g>
       <use style="stroke:#000000;stroke-width:0.5;" x="417.587311" xlink:href="#mec8563e941" y="273.025354"/>
      </g>
     </g>
     <g id="text_7">
      <!-- $\mathregular{3}$ -->
      <g transform="translate(415.027311 282.604104)scale(0.08 -0.08)">
       <use transform="translate(0 0.78125)" xlink:href="#DejaVuSans-51"/>
      </g>
     </g>
    </g>
   </g>
   <g id="matplotlib.axis_2">
    <g id="ytick_1">
     <g id="line2d_15">
      <path clip-path="url(#pa5d0133273)" d="M 20.074499 265.378447 
L 429.165354 265.378447 
" style="fill:none;stroke:#000000;stroke-linecap:square;stroke-opacity:0.1;stroke-width:0.5;"/>
     </g>
     <g id="line2d_16">
      <defs>
       <path d="M 0 0 
L 2.5 0 
" id="m11ed576c7f" style="stroke:#000000;stroke-width:0.5;"/>
      </defs>
      <g>
       <use style="stroke:#000000;stroke-width:0.5;" x="20.074499" xlink:href="#m11ed576c7f" y="265.378447"/>
      </g>
     </g>
     <g id="text_8">
      <!-- $\mathregular{0.0}$ -->
      <g transform="translate(3.774499 268.417822)scale(0.08 -0.08)">
       <defs>
        <path d="M 10.6875 12.40625 
L 21 12.40625 
L 21 0 
L 10.6875 0 
z
" id="DejaVuSans-46"/>
       </defs>
       <use transform="translate(0 0.78125)" xlink:href="#DejaVuSans-48"/>
       <use transform="translate(63.623047 0.78125)" xlink:href="#DejaVuSans-46"/>
       <use transform="translate(95.410156 0.78125)" xlink:href="#DejaVuSans-48"/>
      </g>
     </g>
    </g>
    <g id="ytick_2">
     <g id="line2d_17">
      <path clip-path="url(#pa5d0133273)" d="M 20.074499 209.357152 
L 429.165354 209.357152 
" style="fill:none;stroke:#000000;stroke-linecap:square;stroke-opacity:0.1;stroke-width:0.5;"/>
     </g>
     <g id="line2d_18">
      <g>
       <use style="stroke:#000000;stroke-width:0.5;" x="20.074499" xlink:href="#m11ed576c7f" y="209.357152"/>
      </g>
     </g>
     <g id="text_9">
      <!-- $\mathregular{0.1}$ -->
      <g transform="translate(3.774499 212.396527)scale(0.08 -0.08)">
       <use transform="translate(0 0.78125)" xlink:href="#DejaVuSans-48"/>
       <use transform="translate(63.623047 0.78125)" xlink:href="#DejaVuSans-46"/>
       <use transform="translate(95.410156 0.78125)" xlink:href="#DejaVuSans-49"/>
      </g>
     </g>
    </g>
    <g id="ytick_3">
     <g id="line2d_19">
      <path clip-path="url(#pa5d0133273)" d="M 20.074499 153.335856 
L 429.165354 153.335856 
" style="fill:none;stroke:#000000;stroke-linecap:square;stroke-opacity:0.1;stroke-width:0.5;"/>
     </g>
     <g id="line2d_20">
      <g>
       <use style="stroke:#000000;stroke-width:0.5;" x="20.074499" xlink:href="#m11ed576c7f" y="153.335856"/>
      </g>
     </g>
     <g id="text_10">
      <!-- $\mathregular{0.2}$ -->
      <g transform="translate(4.254499 156.375231)scale(0.08 -0.08)">
       <use transform="translate(0 0.78125)" xlink:href="#DejaVuSans-48"/>
       <use transform="translate(63.623047 0.78125)" xlink:href="#DejaVuSans-46"/>
       <use transform="translate(89.910156 0.78125)" xlink:href="#DejaVuSans-50"/>
      </g>
     </g>
    </g>
    <g id="ytick_4">
     <g id="line2d_21">
      <path clip-path="url(#pa5d0133273)" d="M 20.074499 97.314561 
L 429.165354 97.314561 
" style="fill:none;stroke:#000000;stroke-linecap:square;stroke-opacity:0.1;stroke-width:0.5;"/>
     </g>
     <g id="line2d_22">
      <g>
       <use style="stroke:#000000;stroke-width:0.5;" x="20.074499" xlink:href="#m11ed576c7f" y="97.314561"/>
      </g>
     </g>
     <g id="text_11">
      <!-- $\mathregular{0.3}$ -->
      <g transform="translate(3.774499 100.353936)scale(0.08 -0.08)">
       <use transform="translate(0 0.78125)" xlink:href="#DejaVuSans-48"/>
       <use transform="translate(63.623047 0.78125)" xlink:href="#DejaVuSans-46"/>
       <use transform="translate(95.410156 0.78125)" xlink:href="#DejaVuSans-51"/>
      </g>
     </g>
    </g>
    <g id="ytick_5">
     <g id="line2d_23">
      <path clip-path="url(#pa5d0133273)" d="M 20.074499 41.293265 
L 429.165354 41.293265 
" style="fill:none;stroke:#000000;stroke-linecap:square;stroke-opacity:0.1;stroke-width:0.5;"/>
     </g>
     <g id="line2d_24">
      <g>
       <use style="stroke:#000000;stroke-width:0.5;" x="20.074499" xlink:href="#m11ed576c7f" y="41.293265"/>
      </g>
     </g>
     <g id="text_12">
      <!-- $\mathregular{0.4}$ -->
      <g transform="translate(3.774499 44.33264)scale(0.08 -0.08)">
       <defs>
        <path d="M 37.796875 64.3125 
L 12.890625 25.390625 
L 37.796875 25.390625 
z
M 35.203125 72.90625 
L 47.609375 72.90625 
L 47.609375 25.390625 
L 58.015625 25.390625 
L 58.015625 17.1875 
L 47.609375 17.1875 
L 47.609375 0 
L 37.796875 0 
L 37.796875 17.1875 
L 4.890625 17.1875 
L 4.890625 26.703125 
z
" id="DejaVuSans-52"/>
       </defs>
       <use transform="translate(0 0.78125)" xlink:href="#DejaVuSans-48"/>
       <use transform="translate(63.623047 0.78125)" xlink:href="#DejaVuSans-46"/>
       <use transform="translate(95.410156 0.78125)" xlink:href="#DejaVuSans-52"/>
      </g>
     </g>
    </g>
   </g>
   <g id="patch_3">
    <path clip-path="url(#pa5d0133273)" d="M -19.805427 264.444759 
L -19.805427 265.378447 
L -6.940935 265.378447 
L -6.940935 264.444759 
L -19.805427 264.444759 
" style="fill:#009afa;stroke:#000000;stroke-linejoin:miter;"/>
   </g>
   <g id="patch_4">
    <path clip-path="url(#pa5d0133273)" d="M -6.940935 265.378447 
L -6.940935 265.378447 
L 5.923558 265.378447 
L 5.923558 265.378447 
L -6.940935 265.378447 
" style="fill:#009afa;stroke:#000000;stroke-linejoin:miter;"/>
   </g>
   <g id="patch_5">
    <path clip-path="url(#pa5d0133273)" d="M 5.923558 264.444759 
L 5.923558 265.378447 
L 18.78805 265.378447 
L 18.78805 264.444759 
L 5.923558 264.444759 
" style="fill:#009afa;stroke:#000000;stroke-linejoin:miter;"/>
   </g>
   <g id="patch_6">
    <path clip-path="url(#pa5d0133273)" d="M 18.78805 262.577383 
L 18.78805 265.378447 
L 31.652542 265.378447 
L 31.652542 262.577383 
L 18.78805 262.577383 
" style="fill:#009afa;stroke:#000000;stroke-linejoin:miter;"/>
   </g>
   <g id="patch_7">
    <path clip-path="url(#pa5d0133273)" d="M 31.652542 261.643694 
L 31.652542 265.378447 
L 44.517035 265.378447 
L 44.517035 261.643694 
L 31.652542 261.643694 
" style="fill:#009afa;stroke:#000000;stroke-linejoin:miter;"/>
   </g>
   <g id="patch_8">
    <path clip-path="url(#pa5d0133273)" d="M 44.517035 262.577383 
L 44.517035 265.378447 
L 57.381527 265.378447 
L 57.381527 262.577383 
L 44.517035 262.577383 
" style="fill:#009afa;stroke:#000000;stroke-linejoin:miter;"/>
   </g>
   <g id="patch_9">
    <path clip-path="url(#pa5d0133273)" d="M 57.381527 255.107877 
L 57.381527 265.378447 
L 70.246019 265.378447 
L 70.246019 255.107877 
L 57.381527 255.107877 
" style="fill:#009afa;stroke:#000000;stroke-linejoin:miter;"/>
   </g>
   <g id="patch_10">
    <path clip-path="url(#pa5d0133273)" d="M 70.246019 252.306812 
L 70.246019 265.378447 
L 83.110511 265.378447 
L 83.110511 252.306812 
L 70.246019 252.306812 
" style="fill:#009afa;stroke:#000000;stroke-linejoin:miter;"/>
   </g>
   <g id="patch_11">
    <path clip-path="url(#pa5d0133273)" d="M 83.110511 242.969929 
L 83.110511 265.378447 
L 95.975004 265.378447 
L 95.975004 242.969929 
L 83.110511 242.969929 
" style="fill:#009afa;stroke:#000000;stroke-linejoin:miter;"/>
   </g>
   <g id="patch_12">
    <path clip-path="url(#pa5d0133273)" d="M 95.975004 224.296164 
L 95.975004 265.378447 
L 108.839496 265.378447 
L 108.839496 224.296164 
L 95.975004 224.296164 
" style="fill:#009afa;stroke:#000000;stroke-linejoin:miter;"/>
   </g>
   <g id="patch_13">
    <path clip-path="url(#pa5d0133273)" d="M 108.839496 214.025593 
L 108.839496 265.378447 
L 121.703988 265.378447 
L 121.703988 214.025593 
L 108.839496 214.025593 
" style="fill:#009afa;stroke:#000000;stroke-linejoin:miter;"/>
   </g>
   <g id="patch_14">
    <path clip-path="url(#pa5d0133273)" d="M 121.703988 211.224528 
L 121.703988 265.378447 
L 134.568481 265.378447 
L 134.568481 211.224528 
L 121.703988 211.224528 
" style="fill:#009afa;stroke:#000000;stroke-linejoin:miter;"/>
   </g>
   <g id="patch_15">
    <path clip-path="url(#pa5d0133273)" d="M 134.568481 163.606427 
L 134.568481 265.378447 
L 147.432973 265.378447 
L 147.432973 163.606427 
L 134.568481 163.606427 
" style="fill:#009afa;stroke:#000000;stroke-linejoin:miter;"/>
   </g>
   <g id="patch_16">
    <path clip-path="url(#pa5d0133273)" d="M 147.432973 160.805362 
L 147.432973 265.378447 
L 160.297465 265.378447 
L 160.297465 160.805362 
L 147.432973 160.805362 
" style="fill:#009afa;stroke:#000000;stroke-linejoin:miter;"/>
   </g>
   <g id="patch_17">
    <path clip-path="url(#pa5d0133273)" d="M 160.297465 127.192585 
L 160.297465 265.378447 
L 173.161958 265.378447 
L 173.161958 127.192585 
L 160.297465 127.192585 
" style="fill:#009afa;stroke:#000000;stroke-linejoin:miter;"/>
   </g>
   <g id="patch_18">
    <path clip-path="url(#pa5d0133273)" d="M 173.161958 93.579808 
L 173.161958 265.378447 
L 186.02645 265.378447 
L 186.02645 93.579808 
L 173.161958 93.579808 
" style="fill:#009afa;stroke:#000000;stroke-linejoin:miter;"/>
   </g>
   <g id="patch_19">
    <path clip-path="url(#pa5d0133273)" d="M 186.02645 50.630148 
L 186.02645 265.378447 
L 198.890942 265.378447 
L 198.890942 50.630148 
L 186.02645 50.630148 
" style="fill:#009afa;stroke:#000000;stroke-linejoin:miter;"/>
   </g>
   <g id="patch_20">
    <path clip-path="url(#pa5d0133273)" d="M 198.890942 44.09433 
L 198.890942 265.378447 
L 211.755434 265.378447 
L 211.755434 44.09433 
L 198.890942 44.09433 
" style="fill:#009afa;stroke:#000000;stroke-linejoin:miter;"/>
   </g>
   <g id="patch_21">
    <path clip-path="url(#pa5d0133273)" d="M 211.755434 59.96703 
L 211.755434 265.378447 
L 224.619927 265.378447 
L 224.619927 59.96703 
L 211.755434 59.96703 
" style="fill:#009afa;stroke:#000000;stroke-linejoin:miter;"/>
   </g>
   <g id="patch_22">
    <path clip-path="url(#pa5d0133273)" d="M 224.619927 10.481553 
L 224.619927 265.378447 
L 237.484419 265.378447 
L 237.484419 10.481553 
L 224.619927 10.481553 
" style="fill:#009afa;stroke:#000000;stroke-linejoin:miter;"/>
   </g>
   <g id="patch_23">
    <path clip-path="url(#pa5d0133273)" d="M 237.484419 42.226953 
L 237.484419 265.378447 
L 250.348911 265.378447 
L 250.348911 42.226953 
L 237.484419 42.226953 
" style="fill:#009afa;stroke:#000000;stroke-linejoin:miter;"/>
   </g>
   <g id="patch_24">
    <path clip-path="url(#pa5d0133273)" d="M 250.348911 74.906042 
L 250.348911 265.378447 
L 263.213404 265.378447 
L 263.213404 74.906042 
L 250.348911 74.906042 
" style="fill:#009afa;stroke:#000000;stroke-linejoin:miter;"/>
   </g>
   <g id="patch_25">
    <path clip-path="url(#pa5d0133273)" d="M 263.213404 76.773419 
L 263.213404 265.378447 
L 276.077896 265.378447 
L 276.077896 76.773419 
L 263.213404 76.773419 
" style="fill:#009afa;stroke:#000000;stroke-linejoin:miter;"/>
   </g>
   <g id="patch_26">
    <path clip-path="url(#pa5d0133273)" d="M 276.077896 109.452508 
L 276.077896 265.378447 
L 288.942388 265.378447 
L 288.942388 109.452508 
L 276.077896 109.452508 
" style="fill:#009afa;stroke:#000000;stroke-linejoin:miter;"/>
   </g>
   <g id="patch_27">
    <path clip-path="url(#pa5d0133273)" d="M 288.942388 166.407492 
L 288.942388 265.378447 
L 301.806881 265.378447 
L 301.806881 166.407492 
L 288.942388 166.407492 
" style="fill:#009afa;stroke:#000000;stroke-linejoin:miter;"/>
   </g>
   <g id="patch_28">
    <path clip-path="url(#pa5d0133273)" d="M 301.806881 177.611751 
L 301.806881 265.378447 
L 314.671373 265.378447 
L 314.671373 177.611751 
L 301.806881 177.611751 
" style="fill:#009afa;stroke:#000000;stroke-linejoin:miter;"/>
   </g>
   <g id="patch_29">
    <path clip-path="url(#pa5d0133273)" d="M 314.671373 173.876998 
L 314.671373 265.378447 
L 327.535865 265.378447 
L 327.535865 173.876998 
L 314.671373 173.876998 
" style="fill:#009afa;stroke:#000000;stroke-linejoin:miter;"/>
   </g>
   <g id="patch_30">
    <path clip-path="url(#pa5d0133273)" d="M 327.535865 212.158217 
L 327.535865 265.378447 
L 340.400357 265.378447 
L 340.400357 212.158217 
L 327.535865 212.158217 
" style="fill:#009afa;stroke:#000000;stroke-linejoin:miter;"/>
   </g>
   <g id="patch_31">
    <path clip-path="url(#pa5d0133273)" d="M 340.400357 228.030917 
L 340.400357 265.378447 
L 353.26485 265.378447 
L 353.26485 228.030917 
L 340.400357 228.030917 
" style="fill:#009afa;stroke:#000000;stroke-linejoin:miter;"/>
   </g>
   <g id="patch_32">
    <path clip-path="url(#pa5d0133273)" d="M 353.26485 241.102553 
L 353.26485 265.378447 
L 366.129342 265.378447 
L 366.129342 241.102553 
L 353.26485 241.102553 
" style="fill:#009afa;stroke:#000000;stroke-linejoin:miter;"/>
   </g>
   <g id="patch_33">
    <path clip-path="url(#pa5d0133273)" d="M 366.129342 257.908941 
L 366.129342 265.378447 
L 378.993834 265.378447 
L 378.993834 257.908941 
L 366.129342 257.908941 
" style="fill:#009afa;stroke:#000000;stroke-linejoin:miter;"/>
   </g>
   <g id="patch_34">
    <path clip-path="url(#pa5d0133273)" d="M 378.993834 256.975253 
L 378.993834 265.378447 
L 391.858327 265.378447 
L 391.858327 256.975253 
L 378.993834 256.975253 
" style="fill:#009afa;stroke:#000000;stroke-linejoin:miter;"/>
   </g>
   <g id="patch_35">
    <path clip-path="url(#pa5d0133273)" d="M 391.858327 257.908941 
L 391.858327 265.378447 
L 404.722819 265.378447 
L 404.722819 257.908941 
L 391.858327 257.908941 
" style="fill:#009afa;stroke:#000000;stroke-linejoin:miter;"/>
   </g>
   <g id="patch_36">
    <path clip-path="url(#pa5d0133273)" d="M 404.722819 260.710006 
L 404.722819 265.378447 
L 417.587311 265.378447 
L 417.587311 260.710006 
L 404.722819 260.710006 
" style="fill:#009afa;stroke:#000000;stroke-linejoin:miter;"/>
   </g>
   <g id="patch_37">
    <path clip-path="url(#pa5d0133273)" d="M 417.587311 263.511071 
L 417.587311 265.378447 
L 430.451804 265.378447 
L 430.451804 263.511071 
L 417.587311 263.511071 
" style="fill:#009afa;stroke:#000000;stroke-linejoin:miter;"/>
   </g>
   <g id="patch_38">
    <path clip-path="url(#pa5d0133273)" d="M 430.451804 263.511071 
L 430.451804 265.378447 
L 443.316296 265.378447 
L 443.316296 263.511071 
L 430.451804 263.511071 
" style="fill:#009afa;stroke:#000000;stroke-linejoin:miter;"/>
   </g>
   <g id="patch_39">
    <path clip-path="url(#pa5d0133273)" d="M 443.316296 264.444759 
L 443.316296 265.378447 
L 456.180788 265.378447 
L 456.180788 264.444759 
L 443.316296 264.444759 
" style="fill:#009afa;stroke:#000000;stroke-linejoin:miter;"/>
   </g>
   <g id="patch_40">
    <path clip-path="url(#pa5d0133273)" d="M 456.180788 264.444759 
L 456.180788 265.378447 
L 469.04528 265.378447 
L 469.04528 264.444759 
L 456.180788 264.444759 
" style="fill:#009afa;stroke:#000000;stroke-linejoin:miter;"/>
   </g>
   <g id="line2d_25">
    <path clip-path="url(#pa5d0133273)" d="M -1 264.856379 
L 2.27706 264.810075 
L 31.788982 262.879825 
L 47.818092 260.265588 
L 63.847201 255.546101 
L 71.235912 252.362245 
L 78.624623 248.373281 
L 86.013333 243.453078 
L 93.402044 237.479847 
L 101.323523 229.782754 
L 109.245001 220.645682 
L 117.16648 210.00937 
L 125.087959 197.875604 
L 134.265768 182.050937 
L 143.443578 164.589475 
L 152.621388 145.925766 
L 161.799198 126.659093 
L 169.955352 109.628126 
L 178.111507 93.295419 
L 186.267661 78.282524 
L 194.423815 65.204384 
L 201.576028 55.777636 
L 208.72824 48.603773 
L 215.880453 43.939224 
L 223.032665 41.953849 
L 226.931581 42.030096 
L 230.830496 42.925156 
L 234.729412 44.629198 
L 238.628328 47.123573 
L 246.426159 54.366845 
L 254.22399 64.34608 
L 262.068166 76.726696 
L 269.912342 90.958211 
L 277.756518 106.496677 
L 285.600694 122.787339 
L 302.946173 158.897407 
L 320.291653 191.439934 
L 328.543545 204.784802 
L 336.795438 216.531688 
L 345.047331 226.644057 
L 353.299224 235.164323 
L 361.879278 242.445856 
L 370.459332 248.279525 
L 379.039386 252.85405 
L 387.61944 256.366524 
L 402.064596 260.404376 
L 416.509752 262.768068 
L 433 263.783945 
" style="fill:none;stroke:#e36f47;"/>
   </g>
   <g id="patch_41">
    <path d="M 20.074499 273.025354 
L 20.074499 2.834646 
" style="fill:none;stroke:#000000;stroke-linecap:square;stroke-linejoin:miter;"/>
   </g>
   <g id="patch_42">
    <path d="M 20.074499 273.025354 
L 429.165354 273.025354 
" style="fill:none;stroke:#000000;stroke-linecap:square;stroke-linejoin:miter;"/>
   </g>
   <g id="legend_1">
    <g id="patch_43">
     <path d="M 335.649104 40.337146 
L 425.165354 40.337146 
L 425.165354 6.834646 
L 335.649104 6.834646 
z
" style="fill:#ffffff;stroke:#000000;stroke-linejoin:miter;"/>
    </g>
    <g id="patch_44">
     <path d="M 342.049104 19.313396 
L 358.049104 19.313396 
L 358.049104 13.713396 
L 342.049104 13.713396 
z
" style="fill:#009afa;stroke:#000000;stroke-linejoin:miter;"/>
    </g>
    <g id="text_13">
     <!-- sample mean -->
     <g transform="translate(364.449104 19.313396)scale(0.08 -0.08)">
      <defs>
       <path d="M 44.28125 53.078125 
L 44.28125 44.578125 
Q 40.484375 46.53125 36.375 47.5 
Q 32.28125 48.484375 27.875 48.484375 
Q 21.1875 48.484375 17.84375 46.4375 
Q 14.5 44.390625 14.5 40.28125 
Q 14.5 37.15625 16.890625 35.375 
Q 19.28125 33.59375 26.515625 31.984375 
L 29.59375 31.296875 
Q 39.15625 29.25 43.1875 25.515625 
Q 47.21875 21.78125 47.21875 15.09375 
Q 47.21875 7.46875 41.1875 3.015625 
Q 35.15625 -1.421875 24.609375 -1.421875 
Q 20.21875 -1.421875 15.453125 -0.5625 
Q 10.6875 0.296875 5.421875 2 
L 5.421875 11.28125 
Q 10.40625 8.6875 15.234375 7.390625 
Q 20.0625 6.109375 24.8125 6.109375 
Q 31.15625 6.109375 34.5625 8.28125 
Q 37.984375 10.453125 37.984375 14.40625 
Q 37.984375 18.0625 35.515625 20.015625 
Q 33.0625 21.96875 24.703125 23.78125 
L 21.578125 24.515625 
Q 13.234375 26.265625 9.515625 29.90625 
Q 5.8125 33.546875 5.8125 39.890625 
Q 5.8125 47.609375 11.28125 51.796875 
Q 16.75 56 26.8125 56 
Q 31.78125 56 36.171875 55.265625 
Q 40.578125 54.546875 44.28125 53.078125 
z
" id="DejaVuSans-115"/>
       <path d="M 34.28125 27.484375 
Q 23.390625 27.484375 19.1875 25 
Q 14.984375 22.515625 14.984375 16.5 
Q 14.984375 11.71875 18.140625 8.90625 
Q 21.296875 6.109375 26.703125 6.109375 
Q 34.1875 6.109375 38.703125 11.40625 
Q 43.21875 16.703125 43.21875 25.484375 
L 43.21875 27.484375 
z
M 52.203125 31.203125 
L 52.203125 0 
L 43.21875 0 
L 43.21875 8.296875 
Q 40.140625 3.328125 35.546875 0.953125 
Q 30.953125 -1.421875 24.3125 -1.421875 
Q 15.921875 -1.421875 10.953125 3.296875 
Q 6 8.015625 6 15.921875 
Q 6 25.140625 12.171875 29.828125 
Q 18.359375 34.515625 30.609375 34.515625 
L 43.21875 34.515625 
L 43.21875 35.40625 
Q 43.21875 41.609375 39.140625 45 
Q 35.0625 48.390625 27.6875 48.390625 
Q 23 48.390625 18.546875 47.265625 
Q 14.109375 46.140625 10.015625 43.890625 
L 10.015625 52.203125 
Q 14.9375 54.109375 19.578125 55.046875 
Q 24.21875 56 28.609375 56 
Q 40.484375 56 46.34375 49.84375 
Q 52.203125 43.703125 52.203125 31.203125 
z
" id="DejaVuSans-97"/>
       <path d="M 52 44.1875 
Q 55.375 50.25 60.0625 53.125 
Q 64.75 56 71.09375 56 
Q 79.640625 56 84.28125 50.015625 
Q 88.921875 44.046875 88.921875 33.015625 
L 88.921875 0 
L 79.890625 0 
L 79.890625 32.71875 
Q 79.890625 40.578125 77.09375 44.375 
Q 74.3125 48.1875 68.609375 48.1875 
Q 61.625 48.1875 57.5625 43.546875 
Q 53.515625 38.921875 53.515625 30.90625 
L 53.515625 0 
L 44.484375 0 
L 44.484375 32.71875 
Q 44.484375 40.625 41.703125 44.40625 
Q 38.921875 48.1875 33.109375 48.1875 
Q 26.21875 48.1875 22.15625 43.53125 
Q 18.109375 38.875 18.109375 30.90625 
L 18.109375 0 
L 9.078125 0 
L 9.078125 54.6875 
L 18.109375 54.6875 
L 18.109375 46.1875 
Q 21.1875 51.21875 25.484375 53.609375 
Q 29.78125 56 35.6875 56 
Q 41.65625 56 45.828125 52.96875 
Q 50 49.953125 52 44.1875 
z
" id="DejaVuSans-109"/>
       <path d="M 18.109375 8.203125 
L 18.109375 -20.796875 
L 9.078125 -20.796875 
L 9.078125 54.6875 
L 18.109375 54.6875 
L 18.109375 46.390625 
Q 20.953125 51.265625 25.265625 53.625 
Q 29.59375 56 35.59375 56 
Q 45.5625 56 51.78125 48.09375 
Q 58.015625 40.1875 58.015625 27.296875 
Q 58.015625 14.40625 51.78125 6.484375 
Q 45.5625 -1.421875 35.59375 -1.421875 
Q 29.59375 -1.421875 25.265625 0.953125 
Q 20.953125 3.328125 18.109375 8.203125 
z
M 48.6875 27.296875 
Q 48.6875 37.203125 44.609375 42.84375 
Q 40.53125 48.484375 33.40625 48.484375 
Q 26.265625 48.484375 22.1875 42.84375 
Q 18.109375 37.203125 18.109375 27.296875 
Q 18.109375 17.390625 22.1875 11.75 
Q 26.265625 6.109375 33.40625 6.109375 
Q 40.53125 6.109375 44.609375 11.75 
Q 48.6875 17.390625 48.6875 27.296875 
z
" id="DejaVuSans-112"/>
       <path d="M 9.421875 75.984375 
L 18.40625 75.984375 
L 18.40625 0 
L 9.421875 0 
z
" id="DejaVuSans-108"/>
       <path d="M 56.203125 29.59375 
L 56.203125 25.203125 
L 14.890625 25.203125 
Q 15.484375 15.921875 20.484375 11.0625 
Q 25.484375 6.203125 34.421875 6.203125 
Q 39.59375 6.203125 44.453125 7.46875 
Q 49.3125 8.734375 54.109375 11.28125 
L 54.109375 2.78125 
Q 49.265625 0.734375 44.1875 -0.34375 
Q 39.109375 -1.421875 33.890625 -1.421875 
Q 20.796875 -1.421875 13.15625 6.1875 
Q 5.515625 13.8125 5.515625 26.8125 
Q 5.515625 40.234375 12.765625 48.109375 
Q 20.015625 56 32.328125 56 
Q 43.359375 56 49.78125 48.890625 
Q 56.203125 41.796875 56.203125 29.59375 
z
M 47.21875 32.234375 
Q 47.125 39.59375 43.09375 43.984375 
Q 39.0625 48.390625 32.421875 48.390625 
Q 24.90625 48.390625 20.390625 44.140625 
Q 15.875 39.890625 15.1875 32.171875 
z
" id="DejaVuSans-101"/>
       <path id="DejaVuSans-32"/>
       <path d="M 54.890625 33.015625 
L 54.890625 0 
L 45.90625 0 
L 45.90625 32.71875 
Q 45.90625 40.484375 42.875 44.328125 
Q 39.84375 48.1875 33.796875 48.1875 
Q 26.515625 48.1875 22.3125 43.546875 
Q 18.109375 38.921875 18.109375 30.90625 
L 18.109375 0 
L 9.078125 0 
L 9.078125 54.6875 
L 18.109375 54.6875 
L 18.109375 46.1875 
Q 21.34375 51.125 25.703125 53.5625 
Q 30.078125 56 35.796875 56 
Q 45.21875 56 50.046875 50.171875 
Q 54.890625 44.34375 54.890625 33.015625 
z
" id="DejaVuSans-110"/>
      </defs>
      <use xlink:href="#DejaVuSans-115"/>
      <use x="52.099609" xlink:href="#DejaVuSans-97"/>
      <use x="113.378906" xlink:href="#DejaVuSans-109"/>
      <use x="210.791016" xlink:href="#DejaVuSans-112"/>
      <use x="274.267578" xlink:href="#DejaVuSans-108"/>
      <use x="302.050781" xlink:href="#DejaVuSans-101"/>
      <use x="363.574219" xlink:href="#DejaVuSans-32"/>
      <use x="395.361328" xlink:href="#DejaVuSans-109"/>
      <use x="492.773438" xlink:href="#DejaVuSans-101"/>
      <use x="554.296875" xlink:href="#DejaVuSans-97"/>
      <use x="615.576172" xlink:href="#DejaVuSans-110"/>
     </g>
    </g>
    <g id="line2d_26">
     <path d="M 342.049104 29.457146 
L 358.049104 29.457146 
" style="fill:none;stroke:#e36f47;stroke-linejoin:miter;"/>
    </g>
    <g id="line2d_27"/>
    <g id="text_14">
     <!-- $\mathcal{N}(μ,σ^2)$ -->
     <g transform="translate(364.449104 32.257146)scale(0.08 -0.08)">
      <defs>
       <path d="M 67.09375 12.5 
L 67.203125 12.5 
Q 82.703125 63.59375 84.5 68.40625 
Q 85.5 70.90625 86.296875 72.09375 
Q 91.09375 79.5 97.703125 79.5 
Q 101.40625 79.5 103.90625 77.046875 
Q 106.40625 74.59375 106.40625 71.09375 
Q 106.40625 68.40625 105 66.75 
Q 103.59375 65.09375 101.09375 65.09375 
Q 99.5 65.09375 98.390625 66 
Q 97.296875 66.90625 96.84375 67.953125 
Q 96.40625 69 95.59375 69.890625 
Q 94.796875 70.796875 93.796875 70.796875 
Q 92.796875 70.796875 91.890625 70.4375 
Q 91 70.09375 90.390625 69.640625 
Q 89.796875 69.203125 89.140625 68.296875 
Q 88.5 67.40625 88.09375 66.796875 
Q 87.703125 66.203125 87.25 65.046875 
Q 86.796875 63.90625 86.640625 63.40625 
Q 86.5 62.90625 86.09375 61.75 
Q 85.703125 60.59375 85.703125 60.40625 
L 66.59375 -2.40625 
L 64.59375 -2.40625 
Q 48.09375 20 38.796875 45.203125 
L 38.59375 45.203125 
Q 37.59375 40.296875 36.84375 36.890625 
Q 36.09375 33.5 34.59375 28 
Q 33.09375 22.5 31.6875 18.59375 
Q 30.296875 14.703125 28.1875 10.203125 
Q 26.09375 5.703125 23.890625 2.890625 
Q 21.703125 0.09375 18.796875 -1.796875 
Q 15.90625 -3.703125 12.703125 -3.703125 
Q 9 -3.703125 6.5 -1.25 
Q 4 1.203125 4 4.703125 
Q 4 7.40625 5.390625 9.046875 
Q 6.796875 10.703125 9.296875 10.703125 
Q 10.90625 10.703125 12 9.796875 
Q 13.09375 8.90625 13.546875 7.84375 
Q 14 6.796875 14.796875 5.890625 
Q 15.59375 5 16.59375 5 
Q 19.09375 5 21.390625 7.5 
Q 23.703125 10 25.59375 14.5 
Q 27.5 19 29.09375 24.09375 
Q 30.703125 29.203125 32.140625 35.75 
Q 33.59375 42.296875 34.59375 47.390625 
Q 35.59375 52.5 36.6875 58.453125 
Q 37.796875 64.40625 38.40625 67.09375 
L 41.09375 67.09375 
Q 41.90625 65.09375 44.90625 57.5 
Q 47.90625 49.90625 49.09375 47 
Q 50.296875 44.09375 53 37.84375 
Q 55.703125 31.59375 57.546875 28.09375 
Q 59.40625 24.59375 62 20.1875 
Q 64.59375 15.796875 67.09375 12.5 
z
" id="STIXNonUnicode-Italic-57914"/>
       <path d="M 31 75.875 
Q 24.46875 64.65625 21.28125 53.65625 
Q 18.109375 42.671875 18.109375 31.390625 
Q 18.109375 20.125 21.3125 9.0625 
Q 24.515625 -2 31 -13.1875 
L 23.1875 -13.1875 
Q 15.875 -1.703125 12.234375 9.375 
Q 8.59375 20.453125 8.59375 31.390625 
Q 8.59375 42.28125 12.203125 53.3125 
Q 15.828125 64.359375 23.1875 75.875 
z
" id="DejaVuSans-40"/>
       <path d="M -1.3125 -20.796875 
L 13.375 54.6875 
L 22.40625 54.6875 
L 15.765625 20.65625 
Q 15.578125 19.625 15.421875 18.359375 
Q 15.28125 17.09375 15.28125 15.828125 
Q 15.28125 11.28125 18.140625 8.828125 
Q 21 6.390625 26.3125 6.390625 
Q 33.546875 6.390625 37.984375 10.484375 
Q 42.4375 14.59375 44 22.796875 
L 50.203125 54.6875 
L 59.1875 54.6875 
L 51.03125 12.640625 
Q 50.828125 11.71875 50.75 11.03125 
Q 50.6875 10.359375 50.6875 9.8125 
Q 50.6875 8.296875 51.296875 7.59375 
Q 51.90625 6.890625 53.21875 6.890625 
Q 53.71875 6.890625 54.5625 7.125 
Q 55.421875 7.375 56.984375 8.015625 
L 55.609375 0.78125 
Q 53.46875 -0.296875 51.515625 -0.859375 
Q 49.5625 -1.421875 47.703125 -1.421875 
Q 44.484375 -1.421875 42.65625 0.625 
Q 40.828125 2.6875 40.828125 6.296875 
Q 38.09375 2.390625 34.296875 0.484375 
Q 30.515625 -1.421875 25.390625 -1.421875 
Q 20.84375 -1.421875 17.453125 0.671875 
Q 14.0625 2.78125 12.984375 6.203125 
L 7.71875 -20.796875 
z
" id="DejaVuSans-Oblique-956"/>
       <path d="M 11.71875 12.40625 
L 22.015625 12.40625 
L 22.015625 4 
L 14.015625 -11.625 
L 7.71875 -11.625 
L 11.71875 4 
z
" id="DejaVuSans-44"/>
       <path d="M 34.671875 47.5625 
Q 27.25 47.5625 22.21875 42.1875 
Q 16.890625 36.578125 15.140625 27.296875 
Q 13.1875 17.484375 16.3125 11.8125 
Q 19.390625 6.203125 26.65625 6.203125 
Q 33.84375 6.203125 39.109375 11.859375 
Q 44.4375 17.53125 46.34375 27.296875 
Q 48.046875 36.234375 45.015625 42.1875 
Q 42.1875 47.5625 34.671875 47.5625 
z
M 36.078125 54.734375 
L 65.921875 54.6875 
L 64.15625 45.703125 
L 54.109375 45.703125 
Q 57.90625 38.09375 55.859375 27.296875 
Q 53.21875 13.875 45.0625 6.25 
Q 36.859375 -1.421875 25.140625 -1.421875 
Q 13.375 -1.421875 8.203125 6.25 
Q 3.03125 13.875 5.671875 27.296875 
Q 8.25 40.765625 16.40625 48.390625 
Q 23.1875 54.734375 36.078125 54.734375 
z
" id="DejaVuSans-Oblique-963"/>
       <path d="M 8.015625 75.875 
L 15.828125 75.875 
Q 23.140625 64.359375 26.78125 53.3125 
Q 30.421875 42.28125 30.421875 31.390625 
Q 30.421875 20.453125 26.78125 9.375 
Q 23.140625 -1.703125 15.828125 -13.1875 
L 8.015625 -13.1875 
Q 14.5 -2 17.703125 9.0625 
Q 20.90625 20.125 20.90625 31.390625 
Q 20.90625 42.671875 17.703125 53.65625 
Q 14.5 64.65625 8.015625 75.875 
z
" id="DejaVuSans-41"/>
      </defs>
      <use transform="translate(0 0.765625)" xlink:href="#STIXNonUnicode-Italic-57914"/>
      <use transform="translate(95.699982 0.765625)" xlink:href="#DejaVuSans-40"/>
      <use transform="translate(134.713654 0.765625)" xlink:href="#DejaVuSans-Oblique-956"/>
      <use transform="translate(198.3367 0.765625)" xlink:href="#DejaVuSans-44"/>
      <use transform="translate(249.606232 0.765625)" xlink:href="#DejaVuSans-Oblique-963"/>
      <use transform="translate(317.457846 39.046875)scale(0.7)" xlink:href="#DejaVuSans-50"/>
      <use transform="translate(364.728354 0.765625)" xlink:href="#DejaVuSans-41"/>
     </g>
    </g>
   </g>
  </g>
 </g>
 <defs>
  <clipPath id="pa5d0133273">
   <rect height="270.190709" width="409.090855" x="20.074499" y="2.834646"/>
  </clipPath>
 </defs>
</svg>
