<?xml version="1.0" encoding="utf-8" standalone="no"?>
<!DOCTYPE svg PUBLIC "-//W3C//DTD SVG 1.1//EN"
  "http://www.w3.org/Graphics/SVG/1.1/DTD/svg11.dtd">
<!-- Created with matplotlib (https://matplotlib.org/) -->
<svg height="288pt" version="1.1" viewBox="0 0 432 288" width="432pt" xmlns="http://www.w3.org/2000/svg" xmlns:xlink="http://www.w3.org/1999/xlink">
 <metadata>
  <rdf:RDF xmlns:cc="http://creativecommons.org/ns#" xmlns:dc="http://purl.org/dc/elements/1.1/" xmlns:rdf="http://www.w3.org/1999/02/22-rdf-syntax-ns#">
   <cc:Work>
    <dc:type rdf:resource="http://purl.org/dc/dcmitype/StillImage"/>
    <dc:date>2020-08-07T20:58:44.956780</dc:date>
    <dc:format>image/svg+xml</dc:format>
    <dc:creator>
     <cc:Agent>
      <dc:title>Matplotlib v3.3.0, https://matplotlib.org/</dc:title>
     </cc:Agent>
    </dc:creator>
   </cc:Work>
  </rdf:RDF>
 </metadata>
 <defs>
  <style type="text/css">*{stroke-linecap:butt;stroke-linejoin:round;}</style>
 </defs>
 <g id="figure_1">
  <g id="patch_1">
   <path d="M 0 288 
L 432 288 
L 432 0 
L 0 0 
z
" style="fill:#ffffff;"/>
  </g>
  <g id="axes_1">
   <g id="patch_2">
    <path d="M 20.074499 273.025354 
L 429.165354 273.025354 
L 429.165354 2.834646 
L 20.074499 2.834646 
z
" style="fill:#ffffff;"/>
   </g>
   <g id="matplotlib.axis_1">
    <g id="xtick_1">
     <g id="line2d_1">
      <path clip-path="url(#p05b8f7b13a)" d="M 31.652542 273.025354 
L 31.652542 2.834646 
" style="fill:none;stroke:#000000;stroke-linecap:square;stroke-opacity:0.1;stroke-width:0.5;"/>
     </g>
     <g id="line2d_2">
      <defs>
       <path d="M 0 0 
L 0 -2.5 
" id="m894c5d47b5" style="stroke:#000000;stroke-width:0.5;"/>
      </defs>
      <g>
       <use style="stroke:#000000;stroke-width:0.5;" x="31.652542" xlink:href="#m894c5d47b5" y="273.025354"/>
      </g>
     </g>
     <g id="text_1">
      <!-- $\mathregular{0}$ -->
      <g transform="translate(29.092542 282.604104)scale(0.08 -0.08)">
       <defs>
        <path d="M 31.78125 66.40625 
Q 24.171875 66.40625 20.328125 58.90625 
Q 16.5 51.421875 16.5 36.375 
Q 16.5 21.390625 20.328125 13.890625 
Q 24.171875 6.390625 31.78125 6.390625 
Q 39.453125 6.390625 43.28125 13.890625 
Q 47.125 21.390625 47.125 36.375 
Q 47.125 51.421875 43.28125 58.90625 
Q 39.453125 66.40625 31.78125 66.40625 
z
M 31.78125 74.21875 
Q 44.046875 74.21875 50.515625 64.515625 
Q 56.984375 54.828125 56.984375 36.375 
Q 56.984375 17.96875 50.515625 8.265625 
Q 44.046875 -1.421875 31.78125 -1.421875 
Q 19.53125 -1.421875 13.0625 8.265625 
Q 6.59375 17.96875 6.59375 36.375 
Q 6.59375 54.828125 13.0625 64.515625 
Q 19.53125 74.21875 31.78125 74.21875 
z
" id="DejaVuSans-48"/>
       </defs>
       <use transform="translate(0 0.78125)" xlink:href="#DejaVuSans-48"/>
      </g>
     </g>
    </g>
    <g id="xtick_2">
     <g id="line2d_3">
      <path clip-path="url(#p05b8f7b13a)" d="M 108.839496 273.025354 
L 108.839496 2.834646 
" style="fill:none;stroke:#000000;stroke-linecap:square;stroke-opacity:0.1;stroke-width:0.5;"/>
     </g>
     <g id="line2d_4">
      <g>
       <use style="stroke:#000000;stroke-width:0.5;" x="108.839496" xlink:href="#m894c5d47b5" y="273.025354"/>
      </g>
     </g>
     <g id="text_2">
      <!-- $\mathregular{1}$ -->
      <g transform="translate(106.279496 282.604104)scale(0.08 -0.08)">
       <defs>
        <path d="M 12.40625 8.296875 
L 28.515625 8.296875 
L 28.515625 63.921875 
L 10.984375 60.40625 
L 10.984375 69.390625 
L 28.421875 72.90625 
L 38.28125 72.90625 
L 38.28125 8.296875 
L 54.390625 8.296875 
L 54.390625 0 
L 12.40625 0 
z
" id="DejaVuSans-49"/>
       </defs>
       <use transform="translate(0 0.09375)" xlink:href="#DejaVuSans-49"/>
      </g>
     </g>
    </g>
    <g id="xtick_3">
     <g id="line2d_5">
      <path clip-path="url(#p05b8f7b13a)" d="M 186.02645 273.025354 
L 186.02645 2.834646 
" style="fill:none;stroke:#000000;stroke-linecap:square;stroke-opacity:0.1;stroke-width:0.5;"/>
     </g>
     <g id="line2d_6">
      <g>
       <use style="stroke:#000000;stroke-width:0.5;" x="186.02645" xlink:href="#m894c5d47b5" y="273.025354"/>
      </g>
     </g>
     <g id="text_3">
      <!-- $\mathregular{2}$ -->
      <g transform="translate(183.46645 282.604104)scale(0.08 -0.08)">
       <defs>
        <path d="M 19.1875 8.296875 
L 53.609375 8.296875 
L 53.609375 0 
L 7.328125 0 
L 7.328125 8.296875 
Q 12.9375 14.109375 22.625 23.890625 
Q 32.328125 33.6875 34.8125 36.53125 
Q 39.546875 41.84375 41.421875 45.53125 
Q 43.3125 49.21875 43.3125 52.78125 
Q 43.3125 58.59375 39.234375 62.25 
Q 35.15625 65.921875 28.609375 65.921875 
Q 23.96875 65.921875 18.8125 64.3125 
Q 13.671875 62.703125 7.8125 59.421875 
L 7.8125 69.390625 
Q 13.765625 71.78125 18.9375 73 
Q 24.125 74.21875 28.421875 74.21875 
Q 39.75 74.21875 46.484375 68.546875 
Q 53.21875 62.890625 53.21875 53.421875 
Q 53.21875 48.921875 51.53125 44.890625 
Q 49.859375 40.875 45.40625 35.40625 
Q 44.1875 33.984375 37.640625 27.21875 
Q 31.109375 20.453125 19.1875 8.296875 
z
" id="DejaVuSans-50"/>
       </defs>
       <use transform="translate(0 0.78125)" xlink:href="#DejaVuSans-50"/>
      </g>
     </g>
    </g>
    <g id="xtick_4">
     <g id="line2d_7">
      <path clip-path="url(#p05b8f7b13a)" d="M 263.213404 273.025354 
L 263.213404 2.834646 
" style="fill:none;stroke:#000000;stroke-linecap:square;stroke-opacity:0.1;stroke-width:0.5;"/>
     </g>
     <g id="line2d_8">
      <g>
       <use style="stroke:#000000;stroke-width:0.5;" x="263.213404" xlink:href="#m894c5d47b5" y="273.025354"/>
      </g>
     </g>
     <g id="text_4">
      <!-- $\mathregular{3}$ -->
      <g transform="translate(260.653404 282.604104)scale(0.08 -0.08)">
       <defs>
        <path d="M 40.578125 39.3125 
Q 47.65625 37.796875 51.625 33 
Q 55.609375 28.21875 55.609375 21.1875 
Q 55.609375 10.40625 48.1875 4.484375 
Q 40.765625 -1.421875 27.09375 -1.421875 
Q 22.515625 -1.421875 17.65625 -0.515625 
Q 12.796875 0.390625 7.625 2.203125 
L 7.625 11.71875 
Q 11.71875 9.328125 16.59375 8.109375 
Q 21.484375 6.890625 26.8125 6.890625 
Q 36.078125 6.890625 40.9375 10.546875 
Q 45.796875 14.203125 45.796875 21.1875 
Q 45.796875 27.640625 41.28125 31.265625 
Q 36.765625 34.90625 28.71875 34.90625 
L 20.21875 34.90625 
L 20.21875 43.015625 
L 29.109375 43.015625 
Q 36.375 43.015625 40.234375 45.921875 
Q 44.09375 48.828125 44.09375 54.296875 
Q 44.09375 59.90625 40.109375 62.90625 
Q 36.140625 65.921875 28.71875 65.921875 
Q 24.65625 65.921875 20.015625 65.03125 
Q 15.375 64.15625 9.8125 62.3125 
L 9.8125 71.09375 
Q 15.4375 72.65625 20.34375 73.4375 
Q 25.25 74.21875 29.59375 74.21875 
Q 40.828125 74.21875 47.359375 69.109375 
Q 53.90625 64.015625 53.90625 55.328125 
Q 53.90625 49.265625 50.4375 45.09375 
Q 46.96875 40.921875 40.578125 39.3125 
z
" id="DejaVuSans-51"/>
       </defs>
       <use transform="translate(0 0.78125)" xlink:href="#DejaVuSans-51"/>
      </g>
     </g>
    </g>
    <g id="xtick_5">
     <g id="line2d_9">
      <path clip-path="url(#p05b8f7b13a)" d="M 340.400357 273.025354 
L 340.400357 2.834646 
" style="fill:none;stroke:#000000;stroke-linecap:square;stroke-opacity:0.1;stroke-width:0.5;"/>
     </g>
     <g id="line2d_10">
      <g>
       <use style="stroke:#000000;stroke-width:0.5;" x="340.400357" xlink:href="#m894c5d47b5" y="273.025354"/>
      </g>
     </g>
     <g id="text_5">
      <!-- $\mathregular{4}$ -->
      <g transform="translate(337.840357 282.604104)scale(0.08 -0.08)">
       <defs>
        <path d="M 37.796875 64.3125 
L 12.890625 25.390625 
L 37.796875 25.390625 
z
M 35.203125 72.90625 
L 47.609375 72.90625 
L 47.609375 25.390625 
L 58.015625 25.390625 
L 58.015625 17.1875 
L 47.609375 17.1875 
L 47.609375 0 
L 37.796875 0 
L 37.796875 17.1875 
L 4.890625 17.1875 
L 4.890625 26.703125 
z
" id="DejaVuSans-52"/>
       </defs>
       <use transform="translate(0 0.09375)" xlink:href="#DejaVuSans-52"/>
      </g>
     </g>
    </g>
    <g id="xtick_6">
     <g id="line2d_11">
      <path clip-path="url(#p05b8f7b13a)" d="M 417.587311 273.025354 
L 417.587311 2.834646 
" style="fill:none;stroke:#000000;stroke-linecap:square;stroke-opacity:0.1;stroke-width:0.5;"/>
     </g>
     <g id="line2d_12">
      <g>
       <use style="stroke:#000000;stroke-width:0.5;" x="417.587311" xlink:href="#m894c5d47b5" y="273.025354"/>
      </g>
     </g>
     <g id="text_6">
      <!-- $\mathregular{5}$ -->
      <g transform="translate(415.027311 282.604104)scale(0.08 -0.08)">
       <defs>
        <path d="M 10.796875 72.90625 
L 49.515625 72.90625 
L 49.515625 64.59375 
L 19.828125 64.59375 
L 19.828125 46.734375 
Q 21.96875 47.46875 24.109375 47.828125 
Q 26.265625 48.1875 28.421875 48.1875 
Q 40.625 48.1875 47.75 41.5 
Q 54.890625 34.8125 54.890625 23.390625 
Q 54.890625 11.625 47.5625 5.09375 
Q 40.234375 -1.421875 26.90625 -1.421875 
Q 22.3125 -1.421875 17.546875 -0.640625 
Q 12.796875 0.140625 7.71875 1.703125 
L 7.71875 11.625 
Q 12.109375 9.234375 16.796875 8.0625 
Q 21.484375 6.890625 26.703125 6.890625 
Q 35.15625 6.890625 40.078125 11.328125 
Q 45.015625 15.765625 45.015625 23.390625 
Q 45.015625 31 40.078125 35.4375 
Q 35.15625 39.890625 26.703125 39.890625 
Q 22.75 39.890625 18.8125 39.015625 
Q 14.890625 38.140625 10.796875 36.28125 
z
" id="DejaVuSans-53"/>
       </defs>
       <use transform="translate(0 0.09375)" xlink:href="#DejaVuSans-53"/>
      </g>
     </g>
    </g>
   </g>
   <g id="matplotlib.axis_2">
    <g id="ytick_1">
     <g id="line2d_13">
      <path clip-path="url(#p05b8f7b13a)" d="M 20.074499 265.378447 
L 429.165354 265.378447 
" style="fill:none;stroke:#000000;stroke-linecap:square;stroke-opacity:0.1;stroke-width:0.5;"/>
     </g>
     <g id="line2d_14">
      <defs>
       <path d="M 0 0 
L 2.5 0 
" id="md7b9edb9b4" style="stroke:#000000;stroke-width:0.5;"/>
      </defs>
      <g>
       <use style="stroke:#000000;stroke-width:0.5;" x="20.074499" xlink:href="#md7b9edb9b4" y="265.378447"/>
      </g>
     </g>
     <g id="text_7">
      <!-- $\mathregular{0.0}$ -->
      <g transform="translate(3.774499 268.417822)scale(0.08 -0.08)">
       <defs>
        <path d="M 10.6875 12.40625 
L 21 12.40625 
L 21 0 
L 10.6875 0 
z
" id="DejaVuSans-46"/>
       </defs>
       <use transform="translate(0 0.78125)" xlink:href="#DejaVuSans-48"/>
       <use transform="translate(63.623047 0.78125)" xlink:href="#DejaVuSans-46"/>
       <use transform="translate(95.410156 0.78125)" xlink:href="#DejaVuSans-48"/>
      </g>
     </g>
    </g>
    <g id="ytick_2">
     <g id="line2d_15">
      <path clip-path="url(#p05b8f7b13a)" d="M 20.074499 214.399068 
L 429.165354 214.399068 
" style="fill:none;stroke:#000000;stroke-linecap:square;stroke-opacity:0.1;stroke-width:0.5;"/>
     </g>
     <g id="line2d_16">
      <g>
       <use style="stroke:#000000;stroke-width:0.5;" x="20.074499" xlink:href="#md7b9edb9b4" y="214.399068"/>
      </g>
     </g>
     <g id="text_8">
      <!-- $\mathregular{0.1}$ -->
      <g transform="translate(3.774499 217.438443)scale(0.08 -0.08)">
       <use transform="translate(0 0.78125)" xlink:href="#DejaVuSans-48"/>
       <use transform="translate(63.623047 0.78125)" xlink:href="#DejaVuSans-46"/>
       <use transform="translate(95.410156 0.78125)" xlink:href="#DejaVuSans-49"/>
      </g>
     </g>
    </g>
    <g id="ytick_3">
     <g id="line2d_17">
      <path clip-path="url(#p05b8f7b13a)" d="M 20.074499 163.419689 
L 429.165354 163.419689 
" style="fill:none;stroke:#000000;stroke-linecap:square;stroke-opacity:0.1;stroke-width:0.5;"/>
     </g>
     <g id="line2d_18">
      <g>
       <use style="stroke:#000000;stroke-width:0.5;" x="20.074499" xlink:href="#md7b9edb9b4" y="163.419689"/>
      </g>
     </g>
     <g id="text_9">
      <!-- $\mathregular{0.2}$ -->
      <g transform="translate(4.254499 166.459064)scale(0.08 -0.08)">
       <use transform="translate(0 0.78125)" xlink:href="#DejaVuSans-48"/>
       <use transform="translate(63.623047 0.78125)" xlink:href="#DejaVuSans-46"/>
       <use transform="translate(89.910156 0.78125)" xlink:href="#DejaVuSans-50"/>
      </g>
     </g>
    </g>
    <g id="ytick_4">
     <g id="line2d_19">
      <path clip-path="url(#p05b8f7b13a)" d="M 20.074499 112.440311 
L 429.165354 112.440311 
" style="fill:none;stroke:#000000;stroke-linecap:square;stroke-opacity:0.1;stroke-width:0.5;"/>
     </g>
     <g id="line2d_20">
      <g>
       <use style="stroke:#000000;stroke-width:0.5;" x="20.074499" xlink:href="#md7b9edb9b4" y="112.440311"/>
      </g>
     </g>
     <g id="text_10">
      <!-- $\mathregular{0.3}$ -->
      <g transform="translate(3.774499 115.479686)scale(0.08 -0.08)">
       <use transform="translate(0 0.78125)" xlink:href="#DejaVuSans-48"/>
       <use transform="translate(63.623047 0.78125)" xlink:href="#DejaVuSans-46"/>
       <use transform="translate(95.410156 0.78125)" xlink:href="#DejaVuSans-51"/>
      </g>
     </g>
    </g>
    <g id="ytick_5">
     <g id="line2d_21">
      <path clip-path="url(#p05b8f7b13a)" d="M 20.074499 61.460932 
L 429.165354 61.460932 
" style="fill:none;stroke:#000000;stroke-linecap:square;stroke-opacity:0.1;stroke-width:0.5;"/>
     </g>
     <g id="line2d_22">
      <g>
       <use style="stroke:#000000;stroke-width:0.5;" x="20.074499" xlink:href="#md7b9edb9b4" y="61.460932"/>
      </g>
     </g>
     <g id="text_11">
      <!-- $\mathregular{0.4}$ -->
      <g transform="translate(3.774499 64.500307)scale(0.08 -0.08)">
       <use transform="translate(0 0.78125)" xlink:href="#DejaVuSans-48"/>
       <use transform="translate(63.623047 0.78125)" xlink:href="#DejaVuSans-46"/>
       <use transform="translate(95.410156 0.78125)" xlink:href="#DejaVuSans-52"/>
      </g>
     </g>
    </g>
    <g id="ytick_6">
     <g id="line2d_23">
      <path clip-path="url(#p05b8f7b13a)" d="M 20.074499 10.481553 
L 429.165354 10.481553 
" style="fill:none;stroke:#000000;stroke-linecap:square;stroke-opacity:0.1;stroke-width:0.5;"/>
     </g>
     <g id="line2d_24">
      <g>
       <use style="stroke:#000000;stroke-width:0.5;" x="20.074499" xlink:href="#md7b9edb9b4" y="10.481553"/>
      </g>
     </g>
     <g id="text_12">
      <!-- $\mathregular{0.5}$ -->
      <g transform="translate(3.774499 13.520928)scale(0.08 -0.08)">
       <use transform="translate(0 0.78125)" xlink:href="#DejaVuSans-48"/>
       <use transform="translate(63.623047 0.78125)" xlink:href="#DejaVuSans-46"/>
       <use transform="translate(95.410156 0.78125)" xlink:href="#DejaVuSans-53"/>
      </g>
     </g>
    </g>
   </g>
   <g id="patch_3">
    <path clip-path="url(#p05b8f7b13a)" d="M 31.652542 18.791191 
L 31.652542 265.378447 
L 39.371238 265.378447 
L 39.371238 18.791191 
L 31.652542 18.791191 
" style="fill:#009afa;stroke:#000000;stroke-linejoin:miter;"/>
   </g>
   <g id="patch_4">
    <path clip-path="url(#p05b8f7b13a)" d="M 39.371238 28.834129 
L 39.371238 265.378447 
L 47.089933 265.378447 
L 47.089933 28.834129 
L 39.371238 28.834129 
" style="fill:#009afa;stroke:#000000;stroke-linejoin:miter;"/>
   </g>
   <g id="patch_5">
    <path clip-path="url(#p05b8f7b13a)" d="M 47.089933 37.704541 
L 47.089933 265.378447 
L 54.808628 265.378447 
L 54.808628 37.704541 
L 47.089933 37.704541 
" style="fill:#009afa;stroke:#000000;stroke-linejoin:miter;"/>
   </g>
   <g id="patch_6">
    <path clip-path="url(#p05b8f7b13a)" d="M 54.808628 48.308252 
L 54.808628 265.378447 
L 62.527324 265.378447 
L 62.527324 48.308252 
L 54.808628 48.308252 
" style="fill:#009afa;stroke:#000000;stroke-linejoin:miter;"/>
   </g>
   <g id="patch_7">
    <path clip-path="url(#p05b8f7b13a)" d="M 62.527324 64.927529 
L 62.527324 265.378447 
L 70.246019 265.378447 
L 70.246019 64.927529 
L 62.527324 64.927529 
" style="fill:#009afa;stroke:#000000;stroke-linejoin:miter;"/>
   </g>
   <g id="patch_8">
    <path clip-path="url(#p05b8f7b13a)" d="M 70.246019 71.45289 
L 70.246019 265.378447 
L 77.964715 265.378447 
L 77.964715 71.45289 
L 70.246019 71.45289 
" style="fill:#009afa;stroke:#000000;stroke-linejoin:miter;"/>
   </g>
   <g id="patch_9">
    <path clip-path="url(#p05b8f7b13a)" d="M 77.964715 77.570415 
L 77.964715 265.378447 
L 85.68341 265.378447 
L 85.68341 77.570415 
L 77.964715 77.570415 
" style="fill:#009afa;stroke:#000000;stroke-linejoin:miter;"/>
   </g>
   <g id="patch_10">
    <path clip-path="url(#p05b8f7b13a)" d="M 85.68341 92.507373 
L 85.68341 265.378447 
L 93.402105 265.378447 
L 93.402105 92.507373 
L 85.68341 92.507373 
" style="fill:#009afa;stroke:#000000;stroke-linejoin:miter;"/>
   </g>
   <g id="patch_11">
    <path clip-path="url(#p05b8f7b13a)" d="M 93.402105 96.177889 
L 93.402105 265.378447 
L 101.120801 265.378447 
L 101.120801 96.177889 
L 93.402105 96.177889 
" style="fill:#009afa;stroke:#000000;stroke-linejoin:miter;"/>
   </g>
   <g id="patch_12">
    <path clip-path="url(#p05b8f7b13a)" d="M 101.120801 104.895362 
L 101.120801 265.378447 
L 108.839496 265.378447 
L 108.839496 104.895362 
L 101.120801 104.895362 
" style="fill:#009afa;stroke:#000000;stroke-linejoin:miter;"/>
   </g>
   <g id="patch_13">
    <path clip-path="url(#p05b8f7b13a)" d="M 108.839496 117.895104 
L 108.839496 265.378447 
L 116.558191 265.378447 
L 116.558191 117.895104 
L 108.839496 117.895104 
" style="fill:#009afa;stroke:#000000;stroke-linejoin:miter;"/>
   </g>
   <g id="patch_14">
    <path clip-path="url(#p05b8f7b13a)" d="M 116.558191 124.471444 
L 116.558191 265.378447 
L 124.276887 265.378447 
L 124.276887 124.471444 
L 116.558191 124.471444 
" style="fill:#009afa;stroke:#000000;stroke-linejoin:miter;"/>
   </g>
   <g id="patch_15">
    <path clip-path="url(#p05b8f7b13a)" d="M 124.276887 130.945825 
L 124.276887 265.378447 
L 131.995582 265.378447 
L 131.995582 130.945825 
L 124.276887 130.945825 
" style="fill:#009afa;stroke:#000000;stroke-linejoin:miter;"/>
   </g>
   <g id="patch_16">
    <path clip-path="url(#p05b8f7b13a)" d="M 131.995582 136.604536 
L 131.995582 265.378447 
L 139.714278 265.378447 
L 139.714278 136.604536 
L 131.995582 136.604536 
" style="fill:#009afa;stroke:#000000;stroke-linejoin:miter;"/>
   </g>
   <g id="patch_17">
    <path clip-path="url(#p05b8f7b13a)" d="M 139.714278 141.294639 
L 139.714278 265.378447 
L 147.432973 265.378447 
L 147.432973 141.294639 
L 139.714278 141.294639 
" style="fill:#009afa;stroke:#000000;stroke-linejoin:miter;"/>
   </g>
   <g id="patch_18">
    <path clip-path="url(#p05b8f7b13a)" d="M 147.432973 146.596494 
L 147.432973 265.378447 
L 155.151668 265.378447 
L 155.151668 146.596494 
L 147.432973 146.596494 
" style="fill:#009afa;stroke:#000000;stroke-linejoin:miter;"/>
   </g>
   <g id="patch_19">
    <path clip-path="url(#p05b8f7b13a)" d="M 155.151668 154.651236 
L 155.151668 265.378447 
L 162.870364 265.378447 
L 162.870364 154.651236 
L 155.151668 154.651236 
" style="fill:#009afa;stroke:#000000;stroke-linejoin:miter;"/>
   </g>
   <g id="patch_20">
    <path clip-path="url(#p05b8f7b13a)" d="M 162.870364 158.627628 
L 162.870364 265.378447 
L 170.589059 265.378447 
L 170.589059 158.627628 
L 162.870364 158.627628 
" style="fill:#009afa;stroke:#000000;stroke-linejoin:miter;"/>
   </g>
   <g id="patch_21">
    <path clip-path="url(#p05b8f7b13a)" d="M 170.589059 161.73737 
L 170.589059 265.378447 
L 178.307754 265.378447 
L 178.307754 161.73737 
L 170.589059 161.73737 
" style="fill:#009afa;stroke:#000000;stroke-linejoin:miter;"/>
   </g>
   <g id="patch_22">
    <path clip-path="url(#p05b8f7b13a)" d="M 178.307754 168.007834 
L 178.307754 265.378447 
L 186.02645 265.378447 
L 186.02645 168.007834 
L 178.307754 168.007834 
" style="fill:#009afa;stroke:#000000;stroke-linejoin:miter;"/>
   </g>
   <g id="patch_23">
    <path clip-path="url(#p05b8f7b13a)" d="M 186.02645 171.678349 
L 186.02645 265.378447 
L 193.745145 265.378447 
L 193.745145 171.678349 
L 186.02645 171.678349 
" style="fill:#009afa;stroke:#000000;stroke-linejoin:miter;"/>
   </g>
   <g id="patch_24">
    <path clip-path="url(#p05b8f7b13a)" d="M 193.745145 181.670307 
L 193.745145 265.378447 
L 201.463841 265.378447 
L 201.463841 181.670307 
L 193.745145 181.670307 
" style="fill:#009afa;stroke:#000000;stroke-linejoin:miter;"/>
   </g>
   <g id="patch_25">
    <path clip-path="url(#p05b8f7b13a)" d="M 201.463841 183.199689 
L 201.463841 265.378447 
L 209.182536 265.378447 
L 209.182536 183.199689 
L 201.463841 183.199689 
" style="fill:#009afa;stroke:#000000;stroke-linejoin:miter;"/>
   </g>
   <g id="patch_26">
    <path clip-path="url(#p05b8f7b13a)" d="M 209.182536 188.80742 
L 209.182536 265.378447 
L 216.901231 265.378447 
L 216.901231 188.80742 
L 209.182536 188.80742 
" style="fill:#009afa;stroke:#000000;stroke-linejoin:miter;"/>
   </g>
   <g id="patch_27">
    <path clip-path="url(#p05b8f7b13a)" d="M 216.901231 192.324997 
L 216.901231 265.378447 
L 224.619927 265.378447 
L 224.619927 192.324997 
L 216.901231 192.324997 
" style="fill:#009afa;stroke:#000000;stroke-linejoin:miter;"/>
   </g>
   <g id="patch_28">
    <path clip-path="url(#p05b8f7b13a)" d="M 224.619927 199.920925 
L 224.619927 265.378447 
L 232.338622 265.378447 
L 232.338622 199.920925 
L 224.619927 199.920925 
" style="fill:#009afa;stroke:#000000;stroke-linejoin:miter;"/>
   </g>
   <g id="patch_29">
    <path clip-path="url(#p05b8f7b13a)" d="M 232.338622 197.88175 
L 232.338622 265.378447 
L 240.057318 265.378447 
L 240.057318 197.88175 
L 232.338622 197.88175 
" style="fill:#009afa;stroke:#000000;stroke-linejoin:miter;"/>
   </g>
   <g id="patch_30">
    <path clip-path="url(#p05b8f7b13a)" d="M 240.057318 200.889533 
L 240.057318 265.378447 
L 247.776013 265.378447 
L 247.776013 200.889533 
L 240.057318 200.889533 
" style="fill:#009afa;stroke:#000000;stroke-linejoin:miter;"/>
   </g>
   <g id="patch_31">
    <path clip-path="url(#p05b8f7b13a)" d="M 247.776013 204.814945 
L 247.776013 265.378447 
L 255.494708 265.378447 
L 255.494708 204.814945 
L 247.776013 204.814945 
" style="fill:#009afa;stroke:#000000;stroke-linejoin:miter;"/>
   </g>
   <g id="patch_32">
    <path clip-path="url(#p05b8f7b13a)" d="M 255.494708 209.199172 
L 255.494708 265.378447 
L 263.213404 265.378447 
L 263.213404 209.199172 
L 255.494708 209.199172 
" style="fill:#009afa;stroke:#000000;stroke-linejoin:miter;"/>
   </g>
   <g id="patch_33">
    <path clip-path="url(#p05b8f7b13a)" d="M 263.213404 211.646182 
L 263.213404 265.378447 
L 270.932099 265.378447 
L 270.932099 211.646182 
L 263.213404 211.646182 
" style="fill:#009afa;stroke:#000000;stroke-linejoin:miter;"/>
   </g>
   <g id="patch_34">
    <path clip-path="url(#p05b8f7b13a)" d="M 270.932099 209.556027 
L 270.932099 265.378447 
L 278.650794 265.378447 
L 278.650794 209.556027 
L 270.932099 209.556027 
" style="fill:#009afa;stroke:#000000;stroke-linejoin:miter;"/>
   </g>
   <g id="patch_35">
    <path clip-path="url(#p05b8f7b13a)" d="M 278.650794 214.806904 
L 278.650794 265.378447 
L 286.36949 265.378447 
L 286.36949 214.806904 
L 278.650794 214.806904 
" style="fill:#009afa;stroke:#000000;stroke-linejoin:miter;"/>
   </g>
   <g id="patch_36">
    <path clip-path="url(#p05b8f7b13a)" d="M 286.36949 213.583398 
L 286.36949 265.378447 
L 294.088185 265.378447 
L 294.088185 213.583398 
L 286.36949 213.583398 
" style="fill:#009afa;stroke:#000000;stroke-linejoin:miter;"/>
   </g>
   <g id="patch_37">
    <path clip-path="url(#p05b8f7b13a)" d="M 294.088185 217.55979 
L 294.088185 265.378447 
L 301.806881 265.378447 
L 301.806881 217.55979 
L 294.088185 217.55979 
" style="fill:#009afa;stroke:#000000;stroke-linejoin:miter;"/>
   </g>
   <g id="patch_38">
    <path clip-path="url(#p05b8f7b13a)" d="M 301.806881 220.261697 
L 301.806881 265.378447 
L 309.525576 265.378447 
L 309.525576 220.261697 
L 301.806881 220.261697 
" style="fill:#009afa;stroke:#000000;stroke-linejoin:miter;"/>
   </g>
   <g id="patch_39">
    <path clip-path="url(#p05b8f7b13a)" d="M 309.525576 223.932212 
L 309.525576 265.378447 
L 317.244271 265.378447 
L 317.244271 223.932212 
L 309.525576 223.932212 
" style="fill:#009afa;stroke:#000000;stroke-linejoin:miter;"/>
   </g>
   <g id="patch_40">
    <path clip-path="url(#p05b8f7b13a)" d="M 317.244271 226.328243 
L 317.244271 265.378447 
L 324.962967 265.378447 
L 324.962967 226.328243 
L 317.244271 226.328243 
" style="fill:#009afa;stroke:#000000;stroke-linejoin:miter;"/>
   </g>
   <g id="patch_41">
    <path clip-path="url(#p05b8f7b13a)" d="M 324.962967 228.928192 
L 324.962967 265.378447 
L 332.681662 265.378447 
L 332.681662 228.928192 
L 324.962967 228.928192 
" style="fill:#009afa;stroke:#000000;stroke-linejoin:miter;"/>
   </g>
   <g id="patch_42">
    <path clip-path="url(#p05b8f7b13a)" d="M 332.681662 231.018346 
L 332.681662 265.378447 
L 340.400357 265.378447 
L 340.400357 231.018346 
L 332.681662 231.018346 
" style="fill:#009afa;stroke:#000000;stroke-linejoin:miter;"/>
   </g>
   <g id="patch_43">
    <path clip-path="url(#p05b8f7b13a)" d="M 340.400357 231.783037 
L 340.400357 265.378447 
L 348.119053 265.378447 
L 348.119053 231.783037 
L 340.400357 231.783037 
" style="fill:#009afa;stroke:#000000;stroke-linejoin:miter;"/>
   </g>
   <g id="patch_44">
    <path clip-path="url(#p05b8f7b13a)" d="M 348.119053 235.504531 
L 348.119053 265.378447 
L 355.837748 265.378447 
L 355.837748 235.504531 
L 348.119053 235.504531 
" style="fill:#009afa;stroke:#000000;stroke-linejoin:miter;"/>
   </g>
   <g id="patch_45">
    <path clip-path="url(#p05b8f7b13a)" d="M 355.837748 234.943758 
L 355.837748 265.378447 
L 363.556444 265.378447 
L 363.556444 234.943758 
L 355.837748 234.943758 
" style="fill:#009afa;stroke:#000000;stroke-linejoin:miter;"/>
   </g>
   <g id="patch_46">
    <path clip-path="url(#p05b8f7b13a)" d="M 363.556444 238.10448 
L 363.556444 265.378447 
L 371.275139 265.378447 
L 371.275139 238.10448 
L 363.556444 238.10448 
" style="fill:#009afa;stroke:#000000;stroke-linejoin:miter;"/>
   </g>
   <g id="patch_47">
    <path clip-path="url(#p05b8f7b13a)" d="M 371.275139 239.582882 
L 371.275139 265.378447 
L 378.993834 265.378447 
L 378.993834 239.582882 
L 371.275139 239.582882 
" style="fill:#009afa;stroke:#000000;stroke-linejoin:miter;"/>
   </g>
   <g id="patch_48">
    <path clip-path="url(#p05b8f7b13a)" d="M 378.993834 239.531902 
L 378.993834 265.378447 
L 386.71253 265.378447 
L 386.71253 239.531902 
L 378.993834 239.531902 
" style="fill:#009afa;stroke:#000000;stroke-linejoin:miter;"/>
   </g>
   <g id="patch_49">
    <path clip-path="url(#p05b8f7b13a)" d="M 386.71253 240.041696 
L 386.71253 265.378447 
L 394.431225 265.378447 
L 394.431225 240.041696 
L 386.71253 240.041696 
" style="fill:#009afa;stroke:#000000;stroke-linejoin:miter;"/>
   </g>
   <g id="patch_50">
    <path clip-path="url(#p05b8f7b13a)" d="M 394.431225 239.429944 
L 394.431225 265.378447 
L 402.149921 265.378447 
L 402.149921 239.429944 
L 394.431225 239.429944 
" style="fill:#009afa;stroke:#000000;stroke-linejoin:miter;"/>
   </g>
   <g id="patch_51">
    <path clip-path="url(#p05b8f7b13a)" d="M 402.149921 241.163242 
L 402.149921 265.378447 
L 409.868616 265.378447 
L 409.868616 241.163242 
L 402.149921 241.163242 
" style="fill:#009afa;stroke:#000000;stroke-linejoin:miter;"/>
   </g>
   <g id="patch_52">
    <path clip-path="url(#p05b8f7b13a)" d="M 409.868616 243.508294 
L 409.868616 265.378447 
L 417.587311 265.378447 
L 417.587311 243.508294 
L 409.868616 243.508294 
" style="fill:#009afa;stroke:#000000;stroke-linejoin:miter;"/>
   </g>
   <g id="patch_53">
    <path clip-path="url(#p05b8f7b13a)" d="M 417.587311 243.712211 
L 417.587311 265.378447 
L 425.306007 265.378447 
L 425.306007 243.712211 
L 417.587311 243.712211 
" style="fill:#009afa;stroke:#000000;stroke-linejoin:miter;"/>
   </g>
   <g id="patch_54">
    <path clip-path="url(#p05b8f7b13a)" d="M 425.306007 245.751387 
L 425.306007 265.378447 
L 433.024702 265.378447 
L 433.024702 245.751387 
L 425.306007 245.751387 
" style="fill:#009afa;stroke:#000000;stroke-linejoin:miter;"/>
   </g>
   <g id="patch_55">
    <path clip-path="url(#p05b8f7b13a)" d="M 433.024702 246.923912 
L 433.024702 265.378447 
L 440.743397 265.378447 
L 440.743397 246.923912 
L 433.024702 246.923912 
" style="fill:#009afa;stroke:#000000;stroke-linejoin:miter;"/>
   </g>
   <g id="patch_56">
    <path clip-path="url(#p05b8f7b13a)" d="M 440.743397 247.586644 
L 440.743397 265.378447 
L 448.462093 265.378447 
L 448.462093 247.586644 
L 440.743397 247.586644 
" style="fill:#009afa;stroke:#000000;stroke-linejoin:miter;"/>
   </g>
   <g id="patch_57">
    <path clip-path="url(#p05b8f7b13a)" d="M 448.462093 247.331747 
L 448.462093 265.378447 
L 456.180788 265.378447 
L 456.180788 247.331747 
L 448.462093 247.331747 
" style="fill:#009afa;stroke:#000000;stroke-linejoin:miter;"/>
   </g>
   <g id="patch_58">
    <path clip-path="url(#p05b8f7b13a)" d="M 456.180788 249.829737 
L 456.180788 265.378447 
L 463.899484 265.378447 
L 463.899484 249.829737 
L 456.180788 249.829737 
" style="fill:#009afa;stroke:#000000;stroke-linejoin:miter;"/>
   </g>
   <g id="patch_59">
    <path clip-path="url(#p05b8f7b13a)" d="M 463.899484 250.645407 
L 463.899484 265.378447 
L 471.618179 265.378447 
L 471.618179 250.645407 
L 463.899484 250.645407 
" style="fill:#009afa;stroke:#000000;stroke-linejoin:miter;"/>
   </g>
   <g id="patch_60">
    <path clip-path="url(#p05b8f7b13a)" d="M 471.618179 250.798345 
L 471.618179 265.378447 
L 479.336874 265.378447 
L 479.336874 250.798345 
L 471.618179 250.798345 
" style="fill:#009afa;stroke:#000000;stroke-linejoin:miter;"/>
   </g>
   <g id="patch_61">
    <path clip-path="url(#p05b8f7b13a)" d="M 479.336874 250.237572 
L 479.336874 265.378447 
L 487.05557 265.378447 
L 487.05557 250.237572 
L 479.336874 250.237572 
" style="fill:#009afa;stroke:#000000;stroke-linejoin:miter;"/>
   </g>
   <g id="patch_62">
    <path clip-path="url(#p05b8f7b13a)" d="M 487.05557 252.276747 
L 487.05557 265.378447 
L 494.774265 265.378447 
L 494.774265 252.276747 
L 487.05557 252.276747 
" style="fill:#009afa;stroke:#000000;stroke-linejoin:miter;"/>
   </g>
   <g id="patch_63">
    <path clip-path="url(#p05b8f7b13a)" d="M 494.774265 252.684582 
L 494.774265 265.378447 
L 502.49296 265.378447 
L 502.49296 252.684582 
L 494.774265 252.684582 
" style="fill:#009afa;stroke:#000000;stroke-linejoin:miter;"/>
   </g>
   <g id="patch_64">
    <path clip-path="url(#p05b8f7b13a)" d="M 502.49296 252.735561 
L 502.49296 265.378447 
L 510.211656 265.378447 
L 510.211656 252.735561 
L 502.49296 252.735561 
" style="fill:#009afa;stroke:#000000;stroke-linejoin:miter;"/>
   </g>
   <g id="patch_65">
    <path clip-path="url(#p05b8f7b13a)" d="M 510.211656 253.296335 
L 510.211656 265.378447 
L 517.930351 265.378447 
L 517.930351 253.296335 
L 510.211656 253.296335 
" style="fill:#009afa;stroke:#000000;stroke-linejoin:miter;"/>
   </g>
   <g id="patch_66">
    <path clip-path="url(#p05b8f7b13a)" d="M 517.930351 255.233551 
L 517.930351 265.378447 
L 525.649047 265.378447 
L 525.649047 255.233551 
L 517.930351 255.233551 
" style="fill:#009afa;stroke:#000000;stroke-linejoin:miter;"/>
   </g>
   <g id="patch_67">
    <path clip-path="url(#p05b8f7b13a)" d="M 525.649047 255.029634 
L 525.649047 265.378447 
L 533.367742 265.378447 
L 533.367742 255.029634 
L 525.649047 255.029634 
" style="fill:#009afa;stroke:#000000;stroke-linejoin:miter;"/>
   </g>
   <g id="patch_68">
    <path clip-path="url(#p05b8f7b13a)" d="M 533.367742 256.049221 
L 533.367742 265.378447 
L 541.086437 265.378447 
L 541.086437 256.049221 
L 533.367742 256.049221 
" style="fill:#009afa;stroke:#000000;stroke-linejoin:miter;"/>
   </g>
   <g id="patch_69">
    <path clip-path="url(#p05b8f7b13a)" d="M 541.086437 257.017829 
L 541.086437 265.378447 
L 548.805133 265.378447 
L 548.805133 257.017829 
L 541.086437 257.017829 
" style="fill:#009afa;stroke:#000000;stroke-linejoin:miter;"/>
   </g>
   <g id="patch_70">
    <path clip-path="url(#p05b8f7b13a)" d="M 548.805133 256.457056 
L 548.805133 265.378447 
L 556.523828 265.378447 
L 556.523828 256.457056 
L 548.805133 256.457056 
" style="fill:#009afa;stroke:#000000;stroke-linejoin:miter;"/>
   </g>
   <g id="patch_71">
    <path clip-path="url(#p05b8f7b13a)" d="M 556.523828 256.864891 
L 556.523828 265.378447 
L 564.242523 265.378447 
L 564.242523 256.864891 
L 556.523828 256.864891 
" style="fill:#009afa;stroke:#000000;stroke-linejoin:miter;"/>
   </g>
   <g id="patch_72">
    <path clip-path="url(#p05b8f7b13a)" d="M 564.242523 257.119788 
L 564.242523 265.378447 
L 571.961219 265.378447 
L 571.961219 257.119788 
L 564.242523 257.119788 
" style="fill:#009afa;stroke:#000000;stroke-linejoin:miter;"/>
   </g>
   <g id="patch_73">
    <path clip-path="url(#p05b8f7b13a)" d="M 571.961219 257.221747 
L 571.961219 265.378447 
L 579.679914 265.378447 
L 579.679914 257.221747 
L 571.961219 257.221747 
" style="fill:#009afa;stroke:#000000;stroke-linejoin:miter;"/>
   </g>
   <g id="patch_74">
    <path clip-path="url(#p05b8f7b13a)" d="M 579.679914 258.190355 
L 579.679914 265.378447 
L 587.39861 265.378447 
L 587.39861 258.190355 
L 579.679914 258.190355 
" style="fill:#009afa;stroke:#000000;stroke-linejoin:miter;"/>
   </g>
   <g id="patch_75">
    <path clip-path="url(#p05b8f7b13a)" d="M 587.39861 258.853087 
L 587.39861 265.378447 
L 595.117305 265.378447 
L 595.117305 258.853087 
L 587.39861 258.853087 
" style="fill:#009afa;stroke:#000000;stroke-linejoin:miter;"/>
   </g>
   <g id="patch_76">
    <path clip-path="url(#p05b8f7b13a)" d="M 595.117305 258.955046 
L 595.117305 265.378447 
L 602.836 265.378447 
L 602.836 258.955046 
L 595.117305 258.955046 
" style="fill:#009afa;stroke:#000000;stroke-linejoin:miter;"/>
   </g>
   <g id="patch_77">
    <path clip-path="url(#p05b8f7b13a)" d="M 602.836 260.127571 
L 602.836 265.378447 
L 610.554696 265.378447 
L 610.554696 260.127571 
L 602.836 260.127571 
" style="fill:#009afa;stroke:#000000;stroke-linejoin:miter;"/>
   </g>
   <g id="patch_78">
    <path clip-path="url(#p05b8f7b13a)" d="M 610.554696 259.668757 
L 610.554696 265.378447 
L 618.273391 265.378447 
L 618.273391 259.668757 
L 610.554696 259.668757 
" style="fill:#009afa;stroke:#000000;stroke-linejoin:miter;"/>
   </g>
   <g id="patch_79">
    <path clip-path="url(#p05b8f7b13a)" d="M 618.273391 259.46484 
L 618.273391 265.378447 
L 625.992087 265.378447 
L 625.992087 259.46484 
L 618.273391 259.46484 
" style="fill:#009afa;stroke:#000000;stroke-linejoin:miter;"/>
   </g>
   <g id="patch_80">
    <path clip-path="url(#p05b8f7b13a)" d="M 625.992087 259.974633 
L 625.992087 265.378447 
L 633.710782 265.378447 
L 633.710782 259.974633 
L 625.992087 259.974633 
" style="fill:#009afa;stroke:#000000;stroke-linejoin:miter;"/>
   </g>
   <g id="patch_81">
    <path clip-path="url(#p05b8f7b13a)" d="M 633.710782 260.637365 
L 633.710782 265.378447 
L 641.429477 265.378447 
L 641.429477 260.637365 
L 633.710782 260.637365 
" style="fill:#009afa;stroke:#000000;stroke-linejoin:miter;"/>
   </g>
   <g id="patch_82">
    <path clip-path="url(#p05b8f7b13a)" d="M 641.429477 260.178551 
L 641.429477 265.378447 
L 649.148173 265.378447 
L 649.148173 260.178551 
L 641.429477 260.178551 
" style="fill:#009afa;stroke:#000000;stroke-linejoin:miter;"/>
   </g>
   <g id="patch_83">
    <path clip-path="url(#p05b8f7b13a)" d="M 649.148173 259.872675 
L 649.148173 265.378447 
L 656.866868 265.378447 
L 656.866868 259.872675 
L 649.148173 259.872675 
" style="fill:#009afa;stroke:#000000;stroke-linejoin:miter;"/>
   </g>
   <g id="patch_84">
    <path clip-path="url(#p05b8f7b13a)" d="M 656.866868 261.09618 
L 656.866868 265.378447 
L 664.585563 265.378447 
L 664.585563 261.09618 
L 656.866868 261.09618 
" style="fill:#009afa;stroke:#000000;stroke-linejoin:miter;"/>
   </g>
   <g id="patch_85">
    <path clip-path="url(#p05b8f7b13a)" d="M 664.585563 261.09618 
L 664.585563 265.378447 
L 672.304259 265.378447 
L 672.304259 261.09618 
L 664.585563 261.09618 
" style="fill:#009afa;stroke:#000000;stroke-linejoin:miter;"/>
   </g>
   <g id="patch_86">
    <path clip-path="url(#p05b8f7b13a)" d="M 672.304259 261.707932 
L 672.304259 265.378447 
L 680.022954 265.378447 
L 680.022954 261.707932 
L 672.304259 261.707932 
" style="fill:#009afa;stroke:#000000;stroke-linejoin:miter;"/>
   </g>
   <g id="patch_87">
    <path clip-path="url(#p05b8f7b13a)" d="M 680.022954 261.656953 
L 680.022954 265.378447 
L 687.74165 265.378447 
L 687.74165 261.656953 
L 680.022954 261.656953 
" style="fill:#009afa;stroke:#000000;stroke-linejoin:miter;"/>
   </g>
   <g id="patch_88">
    <path clip-path="url(#p05b8f7b13a)" d="M 687.74165 261.402056 
L 687.74165 265.378447 
L 695.460345 265.378447 
L 695.460345 261.402056 
L 687.74165 261.402056 
" style="fill:#009afa;stroke:#000000;stroke-linejoin:miter;"/>
   </g>
   <g id="patch_89">
    <path clip-path="url(#p05b8f7b13a)" d="M 695.460345 261.758912 
L 695.460345 265.378447 
L 703.17904 265.378447 
L 703.17904 261.758912 
L 695.460345 261.758912 
" style="fill:#009afa;stroke:#000000;stroke-linejoin:miter;"/>
   </g>
   <g id="patch_90">
    <path clip-path="url(#p05b8f7b13a)" d="M 703.17904 262.370664 
L 703.17904 265.378447 
L 710.897736 265.378447 
L 710.897736 262.370664 
L 703.17904 262.370664 
" style="fill:#009afa;stroke:#000000;stroke-linejoin:miter;"/>
   </g>
   <g id="patch_91">
    <path clip-path="url(#p05b8f7b13a)" d="M 710.897736 262.625561 
L 710.897736 265.378447 
L 718.616431 265.378447 
L 718.616431 262.625561 
L 710.897736 262.625561 
" style="fill:#009afa;stroke:#000000;stroke-linejoin:miter;"/>
   </g>
   <g id="patch_92">
    <path clip-path="url(#p05b8f7b13a)" d="M 718.616431 262.115767 
L 718.616431 265.378447 
L 726.335126 265.378447 
L 726.335126 262.115767 
L 718.616431 262.115767 
" style="fill:#009afa;stroke:#000000;stroke-linejoin:miter;"/>
   </g>
   <g id="patch_93">
    <path clip-path="url(#p05b8f7b13a)" d="M 726.335126 262.421644 
L 726.335126 265.378447 
L 734.053822 265.378447 
L 734.053822 262.421644 
L 726.335126 262.421644 
" style="fill:#009afa;stroke:#000000;stroke-linejoin:miter;"/>
   </g>
   <g id="patch_94">
    <path clip-path="url(#p05b8f7b13a)" d="M 734.053822 263.135355 
L 734.053822 265.378447 
L 741.772517 265.378447 
L 741.772517 263.135355 
L 734.053822 263.135355 
" style="fill:#009afa;stroke:#000000;stroke-linejoin:miter;"/>
   </g>
   <g id="patch_95">
    <path clip-path="url(#p05b8f7b13a)" d="M 741.772517 263.186334 
L 741.772517 265.378447 
L 749.491213 265.378447 
L 749.491213 263.186334 
L 741.772517 263.186334 
" style="fill:#009afa;stroke:#000000;stroke-linejoin:miter;"/>
   </g>
   <g id="patch_96">
    <path clip-path="url(#p05b8f7b13a)" d="M 749.491213 263.186334 
L 749.491213 265.378447 
L 757.209908 265.378447 
L 757.209908 263.186334 
L 749.491213 263.186334 
" style="fill:#009afa;stroke:#000000;stroke-linejoin:miter;"/>
   </g>
   <g id="patch_97">
    <path clip-path="url(#p05b8f7b13a)" d="M 757.209908 263.441231 
L 757.209908 265.378447 
L 764.928603 265.378447 
L 764.928603 263.441231 
L 757.209908 263.441231 
" style="fill:#009afa;stroke:#000000;stroke-linejoin:miter;"/>
   </g>
   <g id="patch_98">
    <path clip-path="url(#p05b8f7b13a)" d="M 764.928603 263.237314 
L 764.928603 265.378447 
L 772.647299 265.378447 
L 772.647299 263.237314 
L 764.928603 263.237314 
" style="fill:#009afa;stroke:#000000;stroke-linejoin:miter;"/>
   </g>
   <g id="patch_99">
    <path clip-path="url(#p05b8f7b13a)" d="M 772.647299 262.880458 
L 772.647299 265.378447 
L 780.365994 265.378447 
L 780.365994 262.880458 
L 772.647299 262.880458 
" style="fill:#009afa;stroke:#000000;stroke-linejoin:miter;"/>
   </g>
   <g id="patch_100">
    <path clip-path="url(#p05b8f7b13a)" d="M 780.365994 263.594169 
L 780.365994 265.378447 
L 788.08469 265.378447 
L 788.08469 263.594169 
L 780.365994 263.594169 
" style="fill:#009afa;stroke:#000000;stroke-linejoin:miter;"/>
   </g>
   <g id="patch_101">
    <path clip-path="url(#p05b8f7b13a)" d="M 788.08469 264.002004 
L 788.08469 265.378447 
L 795.803385 265.378447 
L 795.803385 264.002004 
L 788.08469 264.002004 
" style="fill:#009afa;stroke:#000000;stroke-linejoin:miter;"/>
   </g>
   <g id="patch_102">
    <path clip-path="url(#p05b8f7b13a)" d="M 795.803385 264.002004 
L 795.803385 265.378447 
L 803.52208 265.378447 
L 803.52208 264.002004 
L 795.803385 264.002004 
" style="fill:#009afa;stroke:#000000;stroke-linejoin:miter;"/>
   </g>
   <g id="patch_103">
    <path clip-path="url(#p05b8f7b13a)" d="M 803.52208 263.798087 
L 803.52208 265.378447 
L 811.240776 265.378447 
L 811.240776 263.798087 
L 803.52208 263.798087 
" style="fill:#009afa;stroke:#000000;stroke-linejoin:miter;"/>
   </g>
   <g id="patch_104">
    <path clip-path="url(#p05b8f7b13a)" d="M 811.240776 264.511798 
L 811.240776 265.378447 
L 818.959471 265.378447 
L 818.959471 264.511798 
L 811.240776 264.511798 
" style="fill:#009afa;stroke:#000000;stroke-linejoin:miter;"/>
   </g>
   <g id="patch_105">
    <path clip-path="url(#p05b8f7b13a)" d="M 818.959471 263.594169 
L 818.959471 265.378447 
L 826.678166 265.378447 
L 826.678166 263.594169 
L 818.959471 263.594169 
" style="fill:#009afa;stroke:#000000;stroke-linejoin:miter;"/>
   </g>
   <g id="patch_106">
    <path clip-path="url(#p05b8f7b13a)" d="M 826.678166 263.798087 
L 826.678166 265.378447 
L 834.396862 265.378447 
L 834.396862 263.798087 
L 826.678166 263.798087 
" style="fill:#009afa;stroke:#000000;stroke-linejoin:miter;"/>
   </g>
   <g id="patch_107">
    <path clip-path="url(#p05b8f7b13a)" d="M 834.396862 264.052984 
L 834.396862 265.378447 
L 842.115557 265.378447 
L 842.115557 264.052984 
L 834.396862 264.052984 
" style="fill:#009afa;stroke:#000000;stroke-linejoin:miter;"/>
   </g>
   <g id="patch_108">
    <path clip-path="url(#p05b8f7b13a)" d="M 842.115557 264.154942 
L 842.115557 265.378447 
L 849.834253 265.378447 
L 849.834253 264.154942 
L 842.115557 264.154942 
" style="fill:#009afa;stroke:#000000;stroke-linejoin:miter;"/>
   </g>
   <g id="patch_109">
    <path clip-path="url(#p05b8f7b13a)" d="M 849.834253 263.951025 
L 849.834253 265.378447 
L 857.552948 265.378447 
L 857.552948 263.951025 
L 849.834253 263.951025 
" style="fill:#009afa;stroke:#000000;stroke-linejoin:miter;"/>
   </g>
   <g id="patch_110">
    <path clip-path="url(#p05b8f7b13a)" d="M 857.552948 264.256901 
L 857.552948 265.378447 
L 865.271643 265.378447 
L 865.271643 264.256901 
L 857.552948 264.256901 
" style="fill:#009afa;stroke:#000000;stroke-linejoin:miter;"/>
   </g>
   <g id="patch_111">
    <path clip-path="url(#p05b8f7b13a)" d="M 865.271643 264.052984 
L 865.271643 265.378447 
L 872.990339 265.378447 
L 872.990339 264.052984 
L 865.271643 264.052984 
" style="fill:#009afa;stroke:#000000;stroke-linejoin:miter;"/>
   </g>
   <g id="patch_112">
    <path clip-path="url(#p05b8f7b13a)" d="M 872.990339 264.562777 
L 872.990339 265.378447 
L 880.709034 265.378447 
L 880.709034 264.562777 
L 872.990339 264.562777 
" style="fill:#009afa;stroke:#000000;stroke-linejoin:miter;"/>
   </g>
   <g id="patch_113">
    <path clip-path="url(#p05b8f7b13a)" d="M 880.709034 264.35886 
L 880.709034 265.378447 
L 888.427729 265.378447 
L 888.427729 264.35886 
L 880.709034 264.35886 
" style="fill:#009afa;stroke:#000000;stroke-linejoin:miter;"/>
   </g>
   <g id="patch_114">
    <path clip-path="url(#p05b8f7b13a)" d="M 888.427729 264.562777 
L 888.427729 265.378447 
L 896.146425 265.378447 
L 896.146425 264.562777 
L 888.427729 264.562777 
" style="fill:#009afa;stroke:#000000;stroke-linejoin:miter;"/>
   </g>
   <g id="patch_115">
    <path clip-path="url(#p05b8f7b13a)" d="M 896.146425 264.562777 
L 896.146425 265.378447 
L 903.86512 265.378447 
L 903.86512 264.562777 
L 896.146425 264.562777 
" style="fill:#009afa;stroke:#000000;stroke-linejoin:miter;"/>
   </g>
   <g id="patch_116">
    <path clip-path="url(#p05b8f7b13a)" d="M 903.86512 264.613757 
L 903.86512 265.378447 
L 911.583816 265.378447 
L 911.583816 264.613757 
L 903.86512 264.613757 
" style="fill:#009afa;stroke:#000000;stroke-linejoin:miter;"/>
   </g>
   <g id="patch_117">
    <path clip-path="url(#p05b8f7b13a)" d="M 911.583816 264.817674 
L 911.583816 265.378447 
L 919.302511 265.378447 
L 919.302511 264.817674 
L 911.583816 264.817674 
" style="fill:#009afa;stroke:#000000;stroke-linejoin:miter;"/>
   </g>
   <g id="patch_118">
    <path clip-path="url(#p05b8f7b13a)" d="M 919.302511 264.613757 
L 919.302511 265.378447 
L 927.021206 265.378447 
L 927.021206 264.613757 
L 919.302511 264.613757 
" style="fill:#009afa;stroke:#000000;stroke-linejoin:miter;"/>
   </g>
   <g id="patch_119">
    <path clip-path="url(#p05b8f7b13a)" d="M 927.021206 264.613757 
L 927.021206 265.378447 
L 934.739902 265.378447 
L 934.739902 264.613757 
L 927.021206 264.613757 
" style="fill:#009afa;stroke:#000000;stroke-linejoin:miter;"/>
   </g>
   <g id="patch_120">
    <path clip-path="url(#p05b8f7b13a)" d="M 934.739902 264.664736 
L 934.739902 265.378447 
L 942.458597 265.378447 
L 942.458597 264.664736 
L 934.739902 264.664736 
" style="fill:#009afa;stroke:#000000;stroke-linejoin:miter;"/>
   </g>
   <g id="patch_121">
    <path clip-path="url(#p05b8f7b13a)" d="M 942.458597 264.817674 
L 942.458597 265.378447 
L 950.177292 265.378447 
L 950.177292 264.817674 
L 942.458597 264.817674 
" style="fill:#009afa;stroke:#000000;stroke-linejoin:miter;"/>
   </g>
   <g id="patch_122">
    <path clip-path="url(#p05b8f7b13a)" d="M 950.177292 264.613757 
L 950.177292 265.378447 
L 957.895988 265.378447 
L 957.895988 264.613757 
L 950.177292 264.613757 
" style="fill:#009afa;stroke:#000000;stroke-linejoin:miter;"/>
   </g>
   <g id="patch_123">
    <path clip-path="url(#p05b8f7b13a)" d="M 957.895988 264.766695 
L 957.895988 265.378447 
L 965.614683 265.378447 
L 965.614683 264.766695 
L 957.895988 264.766695 
" style="fill:#009afa;stroke:#000000;stroke-linejoin:miter;"/>
   </g>
   <g id="patch_124">
    <path clip-path="url(#p05b8f7b13a)" d="M 965.614683 264.919633 
L 965.614683 265.378447 
L 973.333379 265.378447 
L 973.333379 264.919633 
L 965.614683 264.919633 
" style="fill:#009afa;stroke:#000000;stroke-linejoin:miter;"/>
   </g>
   <g id="patch_125">
    <path clip-path="url(#p05b8f7b13a)" d="M 973.333379 264.868654 
L 973.333379 265.378447 
L 981.052074 265.378447 
L 981.052074 264.868654 
L 973.333379 264.868654 
" style="fill:#009afa;stroke:#000000;stroke-linejoin:miter;"/>
   </g>
   <g id="patch_126">
    <path clip-path="url(#p05b8f7b13a)" d="M 981.052074 264.919633 
L 981.052074 265.378447 
L 988.770769 265.378447 
L 988.770769 264.919633 
L 981.052074 264.919633 
" style="fill:#009afa;stroke:#000000;stroke-linejoin:miter;"/>
   </g>
   <g id="patch_127">
    <path clip-path="url(#p05b8f7b13a)" d="M 988.770769 264.868654 
L 988.770769 265.378447 
L 996.489465 265.378447 
L 996.489465 264.868654 
L 988.770769 264.868654 
" style="fill:#009afa;stroke:#000000;stroke-linejoin:miter;"/>
   </g>
   <g id="patch_128">
    <path clip-path="url(#p05b8f7b13a)" d="M 996.489465 264.562777 
L 996.489465 265.378447 
L 1004.20816 265.378447 
L 1004.20816 264.562777 
L 996.489465 264.562777 
" style="fill:#009afa;stroke:#000000;stroke-linejoin:miter;"/>
   </g>
   <g id="patch_129">
    <path clip-path="url(#p05b8f7b13a)" d="M 1004.20816 264.919633 
L 1004.20816 265.378447 
L 1011.926856 265.378447 
L 1011.926856 264.919633 
L 1004.20816 264.919633 
" style="fill:#009afa;stroke:#000000;stroke-linejoin:miter;"/>
   </g>
   <g id="patch_130">
    <path clip-path="url(#p05b8f7b13a)" d="M 1011.926856 265.021592 
L 1011.926856 265.378447 
L 1019.645551 265.378447 
L 1019.645551 265.021592 
L 1011.926856 265.021592 
" style="fill:#009afa;stroke:#000000;stroke-linejoin:miter;"/>
   </g>
   <g id="patch_131">
    <path clip-path="url(#p05b8f7b13a)" d="M 1019.645551 265.17453 
L 1019.645551 265.378447 
L 1027.364246 265.378447 
L 1027.364246 265.17453 
L 1019.645551 265.17453 
" style="fill:#009afa;stroke:#000000;stroke-linejoin:miter;"/>
   </g>
   <g id="patch_132">
    <path clip-path="url(#p05b8f7b13a)" d="M 1027.364246 265.021592 
L 1027.364246 265.378447 
L 1035.082942 265.378447 
L 1035.082942 265.021592 
L 1027.364246 265.021592 
" style="fill:#009afa;stroke:#000000;stroke-linejoin:miter;"/>
   </g>
   <g id="patch_133">
    <path clip-path="url(#p05b8f7b13a)" d="M 1035.082942 264.970612 
L 1035.082942 265.378447 
L 1042.801637 265.378447 
L 1042.801637 264.970612 
L 1035.082942 264.970612 
" style="fill:#009afa;stroke:#000000;stroke-linejoin:miter;"/>
   </g>
   <g id="patch_134">
    <path clip-path="url(#p05b8f7b13a)" d="M 1042.801637 265.17453 
L 1042.801637 265.378447 
L 1050.520332 265.378447 
L 1050.520332 265.17453 
L 1042.801637 265.17453 
" style="fill:#009afa;stroke:#000000;stroke-linejoin:miter;"/>
   </g>
   <g id="patch_135">
    <path clip-path="url(#p05b8f7b13a)" d="M 1050.520332 264.919633 
L 1050.520332 265.378447 
L 1058.239028 265.378447 
L 1058.239028 264.919633 
L 1050.520332 264.919633 
" style="fill:#009afa;stroke:#000000;stroke-linejoin:miter;"/>
   </g>
   <g id="patch_136">
    <path clip-path="url(#p05b8f7b13a)" d="M 1058.239028 265.17453 
L 1058.239028 265.378447 
L 1065.957723 265.378447 
L 1065.957723 265.17453 
L 1058.239028 265.17453 
" style="fill:#009afa;stroke:#000000;stroke-linejoin:miter;"/>
   </g>
   <g id="patch_137">
    <path clip-path="url(#p05b8f7b13a)" d="M 1065.957723 265.17453 
L 1065.957723 265.378447 
L 1073.676419 265.378447 
L 1073.676419 265.17453 
L 1065.957723 265.17453 
" style="fill:#009afa;stroke:#000000;stroke-linejoin:miter;"/>
   </g>
   <g id="patch_138">
    <path clip-path="url(#p05b8f7b13a)" d="M 1073.676419 265.123551 
L 1073.676419 265.378447 
L 1081.395114 265.378447 
L 1081.395114 265.123551 
L 1073.676419 265.123551 
" style="fill:#009afa;stroke:#000000;stroke-linejoin:miter;"/>
   </g>
   <g id="patch_139">
    <path clip-path="url(#p05b8f7b13a)" d="M 1081.395114 265.17453 
L 1081.395114 265.378447 
L 1089.113809 265.378447 
L 1089.113809 265.17453 
L 1081.395114 265.17453 
" style="fill:#009afa;stroke:#000000;stroke-linejoin:miter;"/>
   </g>
   <g id="patch_140">
    <path clip-path="url(#p05b8f7b13a)" d="M 1089.113809 265.072571 
L 1089.113809 265.378447 
L 1096.832505 265.378447 
L 1096.832505 265.072571 
L 1089.113809 265.072571 
" style="fill:#009afa;stroke:#000000;stroke-linejoin:miter;"/>
   </g>
   <g id="patch_141">
    <path clip-path="url(#p05b8f7b13a)" d="M 1096.832505 265.123551 
L 1096.832505 265.378447 
L 1104.5512 265.378447 
L 1104.5512 265.123551 
L 1096.832505 265.123551 
" style="fill:#009afa;stroke:#000000;stroke-linejoin:miter;"/>
   </g>
   <g id="patch_142">
    <path clip-path="url(#p05b8f7b13a)" d="M 1104.5512 264.970612 
L 1104.5512 265.378447 
L 1112.269895 265.378447 
L 1112.269895 264.970612 
L 1104.5512 264.970612 
" style="fill:#009afa;stroke:#000000;stroke-linejoin:miter;"/>
   </g>
   <g id="patch_143">
    <path clip-path="url(#p05b8f7b13a)" d="M 1112.269895 265.072571 
L 1112.269895 265.378447 
L 1119.988591 265.378447 
L 1119.988591 265.072571 
L 1112.269895 265.072571 
" style="fill:#009afa;stroke:#000000;stroke-linejoin:miter;"/>
   </g>
   <g id="patch_144">
    <path clip-path="url(#p05b8f7b13a)" d="M 1119.988591 265.072571 
L 1119.988591 265.378447 
L 1127.707286 265.378447 
L 1127.707286 265.072571 
L 1119.988591 265.072571 
" style="fill:#009afa;stroke:#000000;stroke-linejoin:miter;"/>
   </g>
   <g id="patch_145">
    <path clip-path="url(#p05b8f7b13a)" d="M 1127.707286 265.021592 
L 1127.707286 265.378447 
L 1135.425982 265.378447 
L 1135.425982 265.021592 
L 1127.707286 265.021592 
" style="fill:#009afa;stroke:#000000;stroke-linejoin:miter;"/>
   </g>
   <g id="patch_146">
    <path clip-path="url(#p05b8f7b13a)" d="M 1135.425982 265.123551 
L 1135.425982 265.378447 
L 1143.144677 265.378447 
L 1143.144677 265.123551 
L 1135.425982 265.123551 
" style="fill:#009afa;stroke:#000000;stroke-linejoin:miter;"/>
   </g>
   <g id="patch_147">
    <path clip-path="url(#p05b8f7b13a)" d="M 1143.144677 265.17453 
L 1143.144677 265.378447 
L 1150.863372 265.378447 
L 1150.863372 265.17453 
L 1143.144677 265.17453 
" style="fill:#009afa;stroke:#000000;stroke-linejoin:miter;"/>
   </g>
   <g id="patch_148">
    <path clip-path="url(#p05b8f7b13a)" d="M 1150.863372 265.327468 
L 1150.863372 265.378447 
L 1158.582068 265.378447 
L 1158.582068 265.327468 
L 1150.863372 265.327468 
" style="fill:#009afa;stroke:#000000;stroke-linejoin:miter;"/>
   </g>
   <g id="patch_149">
    <path clip-path="url(#p05b8f7b13a)" d="M 1158.582068 265.327468 
L 1158.582068 265.378447 
L 1166.300763 265.378447 
L 1166.300763 265.327468 
L 1158.582068 265.327468 
" style="fill:#009afa;stroke:#000000;stroke-linejoin:miter;"/>
   </g>
   <g id="patch_150">
    <path clip-path="url(#p05b8f7b13a)" d="M 1166.300763 265.072571 
L 1166.300763 265.378447 
L 1174.019459 265.378447 
L 1174.019459 265.072571 
L 1166.300763 265.072571 
" style="fill:#009afa;stroke:#000000;stroke-linejoin:miter;"/>
   </g>
   <g id="patch_151">
    <path clip-path="url(#p05b8f7b13a)" d="M 1174.019459 265.276489 
L 1174.019459 265.378447 
L 1181.738154 265.378447 
L 1181.738154 265.276489 
L 1174.019459 265.276489 
" style="fill:#009afa;stroke:#000000;stroke-linejoin:miter;"/>
   </g>
   <g id="patch_152">
    <path clip-path="url(#p05b8f7b13a)" d="M 1181.738154 265.327468 
L 1181.738154 265.378447 
L 1189.456849 265.378447 
L 1189.456849 265.327468 
L 1181.738154 265.327468 
" style="fill:#009afa;stroke:#000000;stroke-linejoin:miter;"/>
   </g>
   <g id="patch_153">
    <path clip-path="url(#p05b8f7b13a)" d="M 1189.456849 265.225509 
L 1189.456849 265.378447 
L 1197.175545 265.378447 
L 1197.175545 265.225509 
L 1189.456849 265.225509 
" style="fill:#009afa;stroke:#000000;stroke-linejoin:miter;"/>
   </g>
   <g id="patch_154">
    <path clip-path="url(#p05b8f7b13a)" d="M 1197.175545 265.225509 
L 1197.175545 265.378447 
L 1204.89424 265.378447 
L 1204.89424 265.225509 
L 1197.175545 265.225509 
" style="fill:#009afa;stroke:#000000;stroke-linejoin:miter;"/>
   </g>
   <g id="patch_155">
    <path clip-path="url(#p05b8f7b13a)" d="M 1204.89424 265.072571 
L 1204.89424 265.378447 
L 1212.612935 265.378447 
L 1212.612935 265.072571 
L 1204.89424 265.072571 
" style="fill:#009afa;stroke:#000000;stroke-linejoin:miter;"/>
   </g>
   <g id="patch_156">
    <path clip-path="url(#p05b8f7b13a)" d="M 1212.612935 265.072571 
L 1212.612935 265.378447 
L 1220.331631 265.378447 
L 1220.331631 265.072571 
L 1212.612935 265.072571 
" style="fill:#009afa;stroke:#000000;stroke-linejoin:miter;"/>
   </g>
   <g id="patch_157">
    <path clip-path="url(#p05b8f7b13a)" d="M 1220.331631 265.327468 
L 1220.331631 265.378447 
L 1228.050326 265.378447 
L 1228.050326 265.327468 
L 1220.331631 265.327468 
" style="fill:#009afa;stroke:#000000;stroke-linejoin:miter;"/>
   </g>
   <g id="patch_158">
    <path clip-path="url(#p05b8f7b13a)" d="M 1228.050326 265.276489 
L 1228.050326 265.378447 
L 1235.769022 265.378447 
L 1235.769022 265.276489 
L 1228.050326 265.276489 
" style="fill:#009afa;stroke:#000000;stroke-linejoin:miter;"/>
   </g>
   <g id="patch_159">
    <path clip-path="url(#p05b8f7b13a)" d="M 1235.769022 265.378447 
L 1235.769022 265.378447 
L 1243.487717 265.378447 
L 1243.487717 265.378447 
L 1235.769022 265.378447 
" style="fill:#009afa;stroke:#000000;stroke-linejoin:miter;"/>
   </g>
   <g id="patch_160">
    <path clip-path="url(#p05b8f7b13a)" d="M 1243.487717 265.378447 
L 1243.487717 265.378447 
L 1251.206412 265.378447 
L 1251.206412 265.378447 
L 1243.487717 265.378447 
" style="fill:#009afa;stroke:#000000;stroke-linejoin:miter;"/>
   </g>
   <g id="patch_161">
    <path clip-path="url(#p05b8f7b13a)" d="M 1251.206412 265.378447 
L 1251.206412 265.378447 
L 1258.925108 265.378447 
L 1258.925108 265.378447 
L 1251.206412 265.378447 
" style="fill:#009afa;stroke:#000000;stroke-linejoin:miter;"/>
   </g>
   <g id="patch_162">
    <path clip-path="url(#p05b8f7b13a)" d="M 1258.925108 265.225509 
L 1258.925108 265.378447 
L 1266.643803 265.378447 
L 1266.643803 265.225509 
L 1258.925108 265.225509 
" style="fill:#009afa;stroke:#000000;stroke-linejoin:miter;"/>
   </g>
   <g id="patch_163">
    <path clip-path="url(#p05b8f7b13a)" d="M 1266.643803 265.276489 
L 1266.643803 265.378447 
L 1274.362498 265.378447 
L 1274.362498 265.276489 
L 1266.643803 265.276489 
" style="fill:#009afa;stroke:#000000;stroke-linejoin:miter;"/>
   </g>
   <g id="patch_164">
    <path clip-path="url(#p05b8f7b13a)" d="M 1274.362498 265.276489 
L 1274.362498 265.378447 
L 1282.081194 265.378447 
L 1282.081194 265.276489 
L 1274.362498 265.276489 
" style="fill:#009afa;stroke:#000000;stroke-linejoin:miter;"/>
   </g>
   <g id="patch_165">
    <path clip-path="url(#p05b8f7b13a)" d="M 1282.081194 265.327468 
L 1282.081194 265.378447 
L 1289.799889 265.378447 
L 1289.799889 265.327468 
L 1282.081194 265.327468 
" style="fill:#009afa;stroke:#000000;stroke-linejoin:miter;"/>
   </g>
   <g id="patch_166">
    <path clip-path="url(#p05b8f7b13a)" d="M 1289.799889 265.378447 
L 1289.799889 265.378447 
L 1297.518585 265.378447 
L 1297.518585 265.378447 
L 1289.799889 265.378447 
" style="fill:#009afa;stroke:#000000;stroke-linejoin:miter;"/>
   </g>
   <g id="patch_167">
    <path clip-path="url(#p05b8f7b13a)" d="M 1297.518585 265.327468 
L 1297.518585 265.378447 
L 1305.23728 265.378447 
L 1305.23728 265.327468 
L 1297.518585 265.327468 
" style="fill:#009afa;stroke:#000000;stroke-linejoin:miter;"/>
   </g>
   <g id="patch_168">
    <path clip-path="url(#p05b8f7b13a)" d="M 1305.23728 265.327468 
L 1305.23728 265.378447 
L 1312.955975 265.378447 
L 1312.955975 265.327468 
L 1305.23728 265.327468 
" style="fill:#009afa;stroke:#000000;stroke-linejoin:miter;"/>
   </g>
   <g id="patch_169">
    <path clip-path="url(#p05b8f7b13a)" d="M 1312.955975 265.327468 
L 1312.955975 265.378447 
L 1320.674671 265.378447 
L 1320.674671 265.327468 
L 1312.955975 265.327468 
" style="fill:#009afa;stroke:#000000;stroke-linejoin:miter;"/>
   </g>
   <g id="patch_170">
    <path clip-path="url(#p05b8f7b13a)" d="M 1320.674671 265.276489 
L 1320.674671 265.378447 
L 1328.393366 265.378447 
L 1328.393366 265.276489 
L 1320.674671 265.276489 
" style="fill:#009afa;stroke:#000000;stroke-linejoin:miter;"/>
   </g>
   <g id="patch_171">
    <path clip-path="url(#p05b8f7b13a)" d="M 1328.393366 265.327468 
L 1328.393366 265.378447 
L 1336.112061 265.378447 
L 1336.112061 265.327468 
L 1328.393366 265.327468 
" style="fill:#009afa;stroke:#000000;stroke-linejoin:miter;"/>
   </g>
   <g id="patch_172">
    <path clip-path="url(#p05b8f7b13a)" d="M 1336.112061 265.225509 
L 1336.112061 265.378447 
L 1343.830757 265.378447 
L 1343.830757 265.225509 
L 1336.112061 265.225509 
" style="fill:#009afa;stroke:#000000;stroke-linejoin:miter;"/>
   </g>
   <g id="patch_173">
    <path clip-path="url(#p05b8f7b13a)" d="M 1343.830757 265.327468 
L 1343.830757 265.378447 
L 1351.549452 265.378447 
L 1351.549452 265.327468 
L 1343.830757 265.327468 
" style="fill:#009afa;stroke:#000000;stroke-linejoin:miter;"/>
   </g>
   <g id="patch_174">
    <path clip-path="url(#p05b8f7b13a)" d="M 1351.549452 265.276489 
L 1351.549452 265.378447 
L 1359.268148 265.378447 
L 1359.268148 265.276489 
L 1351.549452 265.276489 
" style="fill:#009afa;stroke:#000000;stroke-linejoin:miter;"/>
   </g>
   <g id="patch_175">
    <path clip-path="url(#p05b8f7b13a)" d="M 1359.268148 265.327468 
L 1359.268148 265.378447 
L 1366.986843 265.378447 
L 1366.986843 265.327468 
L 1359.268148 265.327468 
" style="fill:#009afa;stroke:#000000;stroke-linejoin:miter;"/>
   </g>
   <g id="patch_176">
    <path clip-path="url(#p05b8f7b13a)" d="M 1366.986843 265.327468 
L 1366.986843 265.378447 
L 1374.705538 265.378447 
L 1374.705538 265.327468 
L 1366.986843 265.327468 
" style="fill:#009afa;stroke:#000000;stroke-linejoin:miter;"/>
   </g>
   <g id="patch_177">
    <path clip-path="url(#p05b8f7b13a)" d="M 1374.705538 265.225509 
L 1374.705538 265.378447 
L 1382.424234 265.378447 
L 1382.424234 265.225509 
L 1374.705538 265.225509 
" style="fill:#009afa;stroke:#000000;stroke-linejoin:miter;"/>
   </g>
   <g id="patch_178">
    <path clip-path="url(#p05b8f7b13a)" d="M 1382.424234 265.276489 
L 1382.424234 265.378447 
L 1390.142929 265.378447 
L 1390.142929 265.276489 
L 1382.424234 265.276489 
" style="fill:#009afa;stroke:#000000;stroke-linejoin:miter;"/>
   </g>
   <g id="patch_179">
    <path clip-path="url(#p05b8f7b13a)" d="M 1390.142929 265.276489 
L 1390.142929 265.378447 
L 1397.861625 265.378447 
L 1397.861625 265.276489 
L 1390.142929 265.276489 
" style="fill:#009afa;stroke:#000000;stroke-linejoin:miter;"/>
   </g>
   <g id="patch_180">
    <path clip-path="url(#p05b8f7b13a)" d="M 1397.861625 265.276489 
L 1397.861625 265.378447 
L 1405.58032 265.378447 
L 1405.58032 265.276489 
L 1397.861625 265.276489 
" style="fill:#009afa;stroke:#000000;stroke-linejoin:miter;"/>
   </g>
   <g id="patch_181">
    <path clip-path="url(#p05b8f7b13a)" d="M 1405.58032 265.378447 
L 1405.58032 265.378447 
L 1413.299015 265.378447 
L 1413.299015 265.378447 
L 1405.58032 265.378447 
" style="fill:#009afa;stroke:#000000;stroke-linejoin:miter;"/>
   </g>
   <g id="patch_182">
    <path clip-path="url(#p05b8f7b13a)" d="M 1413.299015 265.378447 
L 1413.299015 265.378447 
L 1421.017711 265.378447 
L 1421.017711 265.378447 
L 1413.299015 265.378447 
" style="fill:#009afa;stroke:#000000;stroke-linejoin:miter;"/>
   </g>
   <g id="patch_183">
    <path clip-path="url(#p05b8f7b13a)" d="M 1421.017711 265.327468 
L 1421.017711 265.378447 
L 1428.736406 265.378447 
L 1428.736406 265.327468 
L 1421.017711 265.327468 
" style="fill:#009afa;stroke:#000000;stroke-linejoin:miter;"/>
   </g>
   <g id="patch_184">
    <path clip-path="url(#p05b8f7b13a)" d="M 1428.736406 265.378447 
L 1428.736406 265.378447 
L 1436.455101 265.378447 
L 1436.455101 265.378447 
L 1428.736406 265.378447 
" style="fill:#009afa;stroke:#000000;stroke-linejoin:miter;"/>
   </g>
   <g id="patch_185">
    <path clip-path="url(#p05b8f7b13a)" d="M 1436.455101 265.378447 
L 1436.455101 265.378447 
L 1444.173797 265.378447 
L 1444.173797 265.378447 
L 1436.455101 265.378447 
" style="fill:#009afa;stroke:#000000;stroke-linejoin:miter;"/>
   </g>
   <g id="patch_186">
    <path clip-path="url(#p05b8f7b13a)" d="M 1444.173797 265.378447 
L 1444.173797 265.378447 
L 1451.892492 265.378447 
L 1451.892492 265.378447 
L 1444.173797 265.378447 
" style="fill:#009afa;stroke:#000000;stroke-linejoin:miter;"/>
   </g>
   <g id="patch_187">
    <path clip-path="url(#p05b8f7b13a)" d="M 1451.892492 265.378447 
L 1451.892492 265.378447 
L 1459.611188 265.378447 
L 1459.611188 265.378447 
L 1451.892492 265.378447 
" style="fill:#009afa;stroke:#000000;stroke-linejoin:miter;"/>
   </g>
   <g id="patch_188">
    <path clip-path="url(#p05b8f7b13a)" d="M 1459.611188 265.378447 
L 1459.611188 265.378447 
L 1467.329883 265.378447 
L 1467.329883 265.378447 
L 1459.611188 265.378447 
" style="fill:#009afa;stroke:#000000;stroke-linejoin:miter;"/>
   </g>
   <g id="patch_189">
    <path clip-path="url(#p05b8f7b13a)" d="M 1467.329883 265.276489 
L 1467.329883 265.378447 
L 1475.048578 265.378447 
L 1475.048578 265.276489 
L 1467.329883 265.276489 
" style="fill:#009afa;stroke:#000000;stroke-linejoin:miter;"/>
   </g>
   <g id="patch_190">
    <path clip-path="url(#p05b8f7b13a)" d="M 1475.048578 265.327468 
L 1475.048578 265.378447 
L 1482.767274 265.378447 
L 1482.767274 265.327468 
L 1475.048578 265.327468 
" style="fill:#009afa;stroke:#000000;stroke-linejoin:miter;"/>
   </g>
   <g id="patch_191">
    <path clip-path="url(#p05b8f7b13a)" d="M 1482.767274 265.327468 
L 1482.767274 265.378447 
L 1490.485969 265.378447 
L 1490.485969 265.327468 
L 1482.767274 265.327468 
" style="fill:#009afa;stroke:#000000;stroke-linejoin:miter;"/>
   </g>
   <g id="patch_192">
    <path clip-path="url(#p05b8f7b13a)" d="M 1490.485969 265.327468 
L 1490.485969 265.378447 
L 1498.204664 265.378447 
L 1498.204664 265.327468 
L 1490.485969 265.327468 
" style="fill:#009afa;stroke:#000000;stroke-linejoin:miter;"/>
   </g>
   <g id="patch_193">
    <path clip-path="url(#p05b8f7b13a)" d="M 1498.204664 265.378447 
L 1498.204664 265.378447 
L 1505.92336 265.378447 
L 1505.92336 265.378447 
L 1498.204664 265.378447 
" style="fill:#009afa;stroke:#000000;stroke-linejoin:miter;"/>
   </g>
   <g id="patch_194">
    <path clip-path="url(#p05b8f7b13a)" d="M 1505.92336 265.378447 
L 1505.92336 265.378447 
L 1513.642055 265.378447 
L 1513.642055 265.378447 
L 1505.92336 265.378447 
" style="fill:#009afa;stroke:#000000;stroke-linejoin:miter;"/>
   </g>
   <g id="patch_195">
    <path clip-path="url(#p05b8f7b13a)" d="M 1513.642055 265.378447 
L 1513.642055 265.378447 
L 1521.360751 265.378447 
L 1521.360751 265.378447 
L 1513.642055 265.378447 
" style="fill:#009afa;stroke:#000000;stroke-linejoin:miter;"/>
   </g>
   <g id="patch_196">
    <path clip-path="url(#p05b8f7b13a)" d="M 1521.360751 265.378447 
L 1521.360751 265.378447 
L 1529.079446 265.378447 
L 1529.079446 265.378447 
L 1521.360751 265.378447 
" style="fill:#009afa;stroke:#000000;stroke-linejoin:miter;"/>
   </g>
   <g id="patch_197">
    <path clip-path="url(#p05b8f7b13a)" d="M 1529.079446 265.327468 
L 1529.079446 265.378447 
L 1536.798141 265.378447 
L 1536.798141 265.327468 
L 1529.079446 265.327468 
" style="fill:#009afa;stroke:#000000;stroke-linejoin:miter;"/>
   </g>
   <g id="patch_198">
    <path clip-path="url(#p05b8f7b13a)" d="M 1536.798141 265.378447 
L 1536.798141 265.378447 
L 1544.516837 265.378447 
L 1544.516837 265.378447 
L 1536.798141 265.378447 
" style="fill:#009afa;stroke:#000000;stroke-linejoin:miter;"/>
   </g>
   <g id="patch_199">
    <path clip-path="url(#p05b8f7b13a)" d="M 1544.516837 265.378447 
L 1544.516837 265.378447 
L 1552.235532 265.378447 
L 1552.235532 265.378447 
L 1544.516837 265.378447 
" style="fill:#009afa;stroke:#000000;stroke-linejoin:miter;"/>
   </g>
   <g id="patch_200">
    <path clip-path="url(#p05b8f7b13a)" d="M 1552.235532 265.378447 
L 1552.235532 265.378447 
L 1559.954228 265.378447 
L 1559.954228 265.378447 
L 1552.235532 265.378447 
" style="fill:#009afa;stroke:#000000;stroke-linejoin:miter;"/>
   </g>
   <g id="patch_201">
    <path clip-path="url(#p05b8f7b13a)" d="M 1559.954228 265.378447 
L 1559.954228 265.378447 
L 1567.672923 265.378447 
L 1567.672923 265.378447 
L 1559.954228 265.378447 
" style="fill:#009afa;stroke:#000000;stroke-linejoin:miter;"/>
   </g>
   <g id="patch_202">
    <path clip-path="url(#p05b8f7b13a)" d="M 1567.672923 265.327468 
L 1567.672923 265.378447 
L 1575.391618 265.378447 
L 1575.391618 265.327468 
L 1567.672923 265.327468 
" style="fill:#009afa;stroke:#000000;stroke-linejoin:miter;"/>
   </g>
   <g id="patch_203">
    <path clip-path="url(#p05b8f7b13a)" d="M 1575.391618 265.378447 
L 1575.391618 265.378447 
L 1583.110314 265.378447 
L 1583.110314 265.378447 
L 1575.391618 265.378447 
" style="fill:#009afa;stroke:#000000;stroke-linejoin:miter;"/>
   </g>
   <g id="patch_204">
    <path clip-path="url(#p05b8f7b13a)" d="M 1583.110314 265.378447 
L 1583.110314 265.378447 
L 1590.829009 265.378447 
L 1590.829009 265.378447 
L 1583.110314 265.378447 
" style="fill:#009afa;stroke:#000000;stroke-linejoin:miter;"/>
   </g>
   <g id="patch_205">
    <path clip-path="url(#p05b8f7b13a)" d="M 1590.829009 265.378447 
L 1590.829009 265.378447 
L 1598.547704 265.378447 
L 1598.547704 265.378447 
L 1590.829009 265.378447 
" style="fill:#009afa;stroke:#000000;stroke-linejoin:miter;"/>
   </g>
   <g id="patch_206">
    <path clip-path="url(#p05b8f7b13a)" d="M 1598.547704 265.378447 
L 1598.547704 265.378447 
L 1606.2664 265.378447 
L 1606.2664 265.378447 
L 1598.547704 265.378447 
" style="fill:#009afa;stroke:#000000;stroke-linejoin:miter;"/>
   </g>
   <g id="patch_207">
    <path clip-path="url(#p05b8f7b13a)" d="M 1606.2664 265.378447 
L 1606.2664 265.378447 
L 1613.985095 265.378447 
L 1613.985095 265.378447 
L 1606.2664 265.378447 
" style="fill:#009afa;stroke:#000000;stroke-linejoin:miter;"/>
   </g>
   <g id="patch_208">
    <path clip-path="url(#p05b8f7b13a)" d="M 1613.985095 265.378447 
L 1613.985095 265.378447 
L 1621.703791 265.378447 
L 1621.703791 265.378447 
L 1613.985095 265.378447 
" style="fill:#009afa;stroke:#000000;stroke-linejoin:miter;"/>
   </g>
   <g id="patch_209">
    <path clip-path="url(#p05b8f7b13a)" d="M 1621.703791 265.378447 
L 1621.703791 265.378447 
L 1629.422486 265.378447 
L 1629.422486 265.378447 
L 1621.703791 265.378447 
" style="fill:#009afa;stroke:#000000;stroke-linejoin:miter;"/>
   </g>
   <g id="patch_210">
    <path clip-path="url(#p05b8f7b13a)" d="M 1629.422486 265.378447 
L 1629.422486 265.378447 
L 1637.141181 265.378447 
L 1637.141181 265.378447 
L 1629.422486 265.378447 
" style="fill:#009afa;stroke:#000000;stroke-linejoin:miter;"/>
   </g>
   <g id="patch_211">
    <path clip-path="url(#p05b8f7b13a)" d="M 1637.141181 265.327468 
L 1637.141181 265.378447 
L 1644.859877 265.378447 
L 1644.859877 265.327468 
L 1637.141181 265.327468 
" style="fill:#009afa;stroke:#000000;stroke-linejoin:miter;"/>
   </g>
   <g id="line2d_25">
    <path clip-path="url(#p05b8f7b13a)" d="M 32.424412 11.752856 
L 33.975948 14.289154 
L 35.527483 16.800089 
L 37.079019 19.285915 
L 38.630555 21.746881 
L 40.18209 24.183238 
L 41.733626 26.59523 
L 43.285162 28.983102 
L 44.836698 31.347095 
L 46.388233 33.687448 
L 47.939769 36.004397 
L 49.491305 38.298176 
L 51.042841 40.569017 
L 52.594376 42.817149 
L 54.145912 45.042799 
L 55.697448 47.246192 
L 57.248984 49.427551 
L 58.800519 51.587096 
L 60.352055 53.725046 
L 61.903591 55.841615 
L 63.455127 57.937019 
L 65.006662 60.011468 
L 66.558198 62.065172 
L 68.109734 64.098339 
L 69.66127 66.111174 
L 71.212805 68.10388 
L 72.764341 70.076658 
L 74.315877 72.029709 
L 75.867412 73.963229 
L 77.418948 75.877413 
L 78.970484 77.772455 
L 80.52202 79.648546 
L 82.073555 81.505877 
L 83.625091 83.344633 
L 85.176627 85.165002 
L 86.728163 86.967166 
L 88.279698 88.751309 
L 89.831234 90.51761 
L 91.38277 92.266248 
L 92.934306 93.997399 
L 94.485841 95.711238 
L 96.037377 97.407938 
L 97.588913 99.087672 
L 99.140449 100.750607 
L 100.691984 102.396913 
L 102.24352 104.026756 
L 103.795056 105.6403 
L 105.346591 107.237708 
L 106.898127 108.819142 
L 108.449663 110.384761 
L 110.001199 111.934724 
L 111.552734 113.469187 
L 113.10427 114.988305 
L 114.655806 116.492232 
L 116.207342 117.981119 
L 117.758877 119.455117 
L 119.310413 120.914374 
L 120.861949 122.359039 
L 122.413485 123.789257 
L 123.96502 125.205173 
L 125.516556 126.606929 
L 127.068092 127.994668 
L 128.619628 129.368528 
L 130.171163 130.72865 
L 131.722699 132.075171 
L 133.274235 133.408226 
L 134.825771 134.72795 
L 136.377306 136.034477 
L 137.928842 137.327939 
L 139.480378 138.608465 
L 141.031913 139.876186 
L 142.583449 141.13123 
L 144.134985 142.373723 
L 145.686521 143.603791 
L 147.238056 144.821558 
L 148.789592 146.027147 
L 150.341128 147.22068 
L 151.892664 148.402277 
L 153.444199 149.572059 
L 154.995735 150.730142 
L 156.547271 151.876644 
L 158.098807 153.011681 
L 159.650342 154.135368 
L 161.201878 155.247817 
L 162.753414 156.349142 
L 164.30495 157.439453 
L 165.856485 158.518861 
L 167.408021 159.587475 
L 168.959557 160.645402 
L 170.511092 161.69275 
L 172.062628 162.729625 
L 173.614164 163.75613 
L 175.1657 164.77237 
L 176.717235 165.778448 
L 178.268771 166.774465 
L 179.820307 167.760521 
L 181.371843 168.736717 
L 182.923378 169.70315 
L 184.474914 170.659919 
L 186.02645 171.60712 
" style="fill:none;stroke:#e36f47;"/>
   </g>
   <g id="patch_212">
    <path d="M 20.074499 273.025354 
L 20.074499 2.834646 
" style="fill:none;stroke:#000000;stroke-linecap:square;stroke-linejoin:miter;"/>
   </g>
   <g id="patch_213">
    <path d="M 20.074499 273.025354 
L 429.165354 273.025354 
" style="fill:none;stroke:#000000;stroke-linecap:square;stroke-linejoin:miter;"/>
   </g>
   <g id="line2d_26">
    <path clip-path="url(#p05b8f7b13a)" d="M 32.424412 11.752856 
L 33.975948 14.289154 
L 35.527483 16.800089 
L 37.079019 19.285915 
L 38.630555 21.746881 
L 40.18209 24.183238 
L 41.733626 26.59523 
L 43.285162 28.983102 
L 44.836698 31.347095 
L 46.388233 33.687448 
L 47.939769 36.004397 
L 49.491305 38.298176 
L 51.042841 40.569017 
L 52.594376 42.817149 
L 54.145912 45.042799 
L 55.697448 47.246192 
L 57.248984 49.427551 
L 58.800519 51.587096 
L 60.352055 53.725046 
L 61.903591 55.841615 
L 63.455127 57.937019 
L 65.006662 60.011468 
L 66.558198 62.065172 
L 68.109734 64.098339 
L 69.66127 66.111174 
L 71.212805 68.10388 
L 72.764341 70.076658 
L 74.315877 72.029709 
L 75.867412 73.963229 
L 77.418948 75.877413 
L 78.970484 77.772455 
L 80.52202 79.648546 
L 82.073555 81.505877 
L 83.625091 83.344633 
L 85.176627 85.165002 
L 86.728163 86.967166 
L 88.279698 88.751309 
L 89.831234 90.51761 
L 91.38277 92.266248 
L 92.934306 93.997399 
L 94.485841 95.711238 
L 96.037377 97.407938 
L 97.588913 99.087672 
L 99.140449 100.750607 
L 100.691984 102.396913 
L 102.24352 104.026756 
L 103.795056 105.6403 
L 105.346591 107.237708 
L 106.898127 108.819142 
L 108.449663 110.384761 
L 110.001199 111.934724 
L 111.552734 113.469187 
L 113.10427 114.988305 
L 114.655806 116.492232 
L 116.207342 117.981119 
L 117.758877 119.455117 
L 119.310413 120.914374 
L 120.861949 122.359039 
L 122.413485 123.789257 
L 123.96502 125.205173 
L 125.516556 126.606929 
L 127.068092 127.994668 
L 128.619628 129.368528 
L 130.171163 130.72865 
L 131.722699 132.075171 
L 133.274235 133.408226 
L 134.825771 134.72795 
L 136.377306 136.034477 
L 137.928842 137.327939 
L 139.480378 138.608465 
L 141.031913 139.876186 
L 142.583449 141.13123 
L 144.134985 142.373723 
L 145.686521 143.603791 
L 147.238056 144.821558 
L 148.789592 146.027147 
L 150.341128 147.22068 
L 151.892664 148.402277 
L 153.444199 149.572059 
L 154.995735 150.730142 
L 156.547271 151.876644 
L 158.098807 153.011681 
L 159.650342 154.135368 
L 161.201878 155.247817 
L 162.753414 156.349142 
L 164.30495 157.439453 
L 165.856485 158.518861 
L 167.408021 159.587475 
L 168.959557 160.645402 
L 170.511092 161.69275 
L 172.062628 162.729625 
L 173.614164 163.75613 
L 175.1657 164.77237 
L 176.717235 165.778448 
L 178.268771 166.774465 
L 179.820307 167.760521 
L 181.371843 168.736717 
L 182.923378 169.70315 
L 184.474914 170.659919 
L 186.02645 171.60712 
" style="fill:none;stroke:#3ea44e;stroke-dasharray:3.7,1.6;stroke-dashoffset:0;"/>
   </g>
   <g id="legend_1">
    <g id="patch_214">
     <path d="M 361.085354 52.079646 
L 425.165354 52.079646 
L 425.165354 6.834646 
L 361.085354 6.834646 
z
" style="fill:#ffffff;stroke:#000000;stroke-linejoin:miter;"/>
    </g>
    <g id="patch_215">
     <path d="M 367.485354 19.313396 
L 383.485354 19.313396 
L 383.485354 13.713396 
L 367.485354 13.713396 
z
" style="fill:#009afa;stroke:#000000;stroke-linejoin:miter;"/>
    </g>
    <g id="text_13">
     <!-- $X^2+Y^2$ -->
     <g transform="translate(389.885354 19.313396)scale(0.08 -0.08)">
      <defs>
       <path d="M 13.71875 72.90625 
L 23.6875 72.90625 
L 36.1875 46.578125 
L 58.796875 72.90625 
L 70.3125 72.90625 
L 40.28125 38.09375 
L 58.40625 0 
L 48.484375 0 
L 33.796875 30.71875 
L 7.171875 0 
L -4.296875 0 
L 29.78125 39.203125 
z
" id="DejaVuSans-Oblique-88"/>
       <path d="M 46 62.703125 
L 46 35.5 
L 73.1875 35.5 
L 73.1875 27.203125 
L 46 27.203125 
L 46 0 
L 37.796875 0 
L 37.796875 27.203125 
L 10.59375 27.203125 
L 10.59375 35.5 
L 37.796875 35.5 
L 37.796875 62.703125 
z
" id="DejaVuSans-43"/>
       <path d="M 6.296875 72.90625 
L 16.890625 72.90625 
L 30.515625 42.921875 
L 56.5 72.90625 
L 67.578125 72.90625 
L 34.515625 34.71875 
L 27.78125 0 
L 17.921875 0 
L 24.609375 34.71875 
z
" id="DejaVuSans-Oblique-89"/>
      </defs>
      <use transform="translate(0 0.765625)" xlink:href="#DejaVuSans-Oblique-88"/>
      <use transform="translate(75.52263 39.046875)scale(0.7)" xlink:href="#DejaVuSans-50"/>
      <use transform="translate(142.27556 0.765625)" xlink:href="#DejaVuSans-43"/>
      <use transform="translate(245.547044 0.765625)" xlink:href="#DejaVuSans-Oblique-89"/>
      <use transform="translate(313.647799 39.046875)scale(0.7)" xlink:href="#DejaVuSans-50"/>
     </g>
    </g>
    <g id="line2d_27">
     <path d="M 367.485354 28.255896 
L 383.485354 28.255896 
" style="fill:none;stroke:#e36f47;stroke-linejoin:miter;"/>
    </g>
    <g id="line2d_28"/>
    <g id="text_14">
     <!-- $T_3$ -->
     <g transform="translate(389.885354 31.055896)scale(0.08 -0.08)">
      <defs>
       <path d="M 5.90625 72.90625 
L 67.578125 72.90625 
L 66.015625 64.59375 
L 39.984375 64.59375 
L 27.484375 0 
L 17.578125 0 
L 30.078125 64.59375 
L 4.296875 64.59375 
z
" id="DejaVuSans-Oblique-84"/>
      </defs>
      <use transform="translate(0 0.09375)" xlink:href="#DejaVuSans-Oblique-84"/>
      <use transform="translate(61.083984 -16.3125)scale(0.7)" xlink:href="#DejaVuSans-51"/>
     </g>
    </g>
    <g id="line2d_29">
     <path d="M 367.485354 41.199646 
L 383.485354 41.199646 
" style="fill:none;stroke:#3ea44e;stroke-dasharray:3.7,1.6;stroke-dashoffset:0;stroke-linejoin:miter;"/>
    </g>
    <g id="line2d_30"/>
    <g id="text_15">
     <!-- $\chi^2(2)$ -->
     <g transform="translate(389.885354 43.999646)scale(0.08 -0.08)">
      <defs>
       <path d="M 30.03125 -12.203125 
L 26.421875 6.5 
L 6.15625 -20.84375 
L -4.4375 -20.84375 
L 24.265625 17.828125 
L 19.828125 40.828125 
Q 18.65625 46.96875 11.140625 46.96875 
L 8.734375 46.96875 
L 10.203125 54.6875 
L 13.625 54.59375 
Q 26.171875 54.25 27.734375 46.09375 
L 31.34375 27.390625 
L 51.609375 54.734375 
L 62.203125 54.734375 
L 33.5 16.0625 
L 37.9375 -6.9375 
Q 39.109375 -13.09375 46.625 -13.09375 
L 49.03125 -13.09375 
L 47.5625 -20.796875 
L 44.140625 -20.703125 
Q 31.59375 -20.359375 30.03125 -12.203125 
z
" id="DejaVuSans-Oblique-967"/>
       <path d="M 31 75.875 
Q 24.46875 64.65625 21.28125 53.65625 
Q 18.109375 42.671875 18.109375 31.390625 
Q 18.109375 20.125 21.3125 9.0625 
Q 24.515625 -2 31 -13.1875 
L 23.1875 -13.1875 
Q 15.875 -1.703125 12.234375 9.375 
Q 8.59375 20.453125 8.59375 31.390625 
Q 8.59375 42.28125 12.203125 53.3125 
Q 15.828125 64.359375 23.1875 75.875 
z
" id="DejaVuSans-40"/>
       <path d="M 8.015625 75.875 
L 15.828125 75.875 
Q 23.140625 64.359375 26.78125 53.3125 
Q 30.421875 42.28125 30.421875 31.390625 
Q 30.421875 20.453125 26.78125 9.375 
Q 23.140625 -1.703125 15.828125 -13.1875 
L 8.015625 -13.1875 
Q 14.5 -2 17.703125 9.0625 
Q 20.90625 20.125 20.90625 31.390625 
Q 20.90625 42.671875 17.703125 53.65625 
Q 14.5 64.65625 8.015625 75.875 
z
" id="DejaVuSans-41"/>
      </defs>
      <use transform="translate(0 0.765625)" xlink:href="#DejaVuSans-Oblique-967"/>
      <use transform="translate(63.652396 39.046875)scale(0.7)" xlink:href="#DejaVuSans-50"/>
      <use transform="translate(110.922904 0.765625)" xlink:href="#DejaVuSans-40"/>
      <use transform="translate(149.936576 0.765625)" xlink:href="#DejaVuSans-50"/>
      <use transform="translate(213.559622 0.765625)" xlink:href="#DejaVuSans-41"/>
     </g>
    </g>
   </g>
  </g>
 </g>
 <defs>
  <clipPath id="p05b8f7b13a">
   <rect height="270.190709" width="409.090855" x="20.074499" y="2.834646"/>
  </clipPath>
 </defs>
</svg>
