<?xml version="1.0" encoding="utf-8" standalone="no"?>
<!DOCTYPE svg PUBLIC "-//W3C//DTD SVG 1.1//EN"
  "http://www.w3.org/Graphics/SVG/1.1/DTD/svg11.dtd">
<!-- Created with matplotlib (https://matplotlib.org/) -->
<svg height="288pt" version="1.1" viewBox="0 0 432 288" width="432pt" xmlns="http://www.w3.org/2000/svg" xmlns:xlink="http://www.w3.org/1999/xlink">
 <defs>
  <style type="text/css">
*{stroke-linecap:butt;stroke-linejoin:round;}
  </style>
 </defs>
 <g id="figure_1">
  <g id="patch_1">
   <path d="M 0 288 
L 432 288 
L 432 0 
L 0 0 
z
" style="fill:#ffffff;"/>
  </g>
  <g id="axes_1">
   <g id="patch_2">
    <path d="M 19.963856 273.025354 
L 429.165354 273.025354 
L 429.165354 2.834646 
L 19.963856 2.834646 
z
" style="fill:#ffffff;"/>
   </g>
   <g id="matplotlib.axis_1">
    <g id="xtick_1">
     <g id="line2d_1">
      <path clip-path="url(#p3f373703a2)" d="M 31.54503 273.025354 
L 31.54503 2.834646 
" style="fill:none;stroke:#000000;stroke-linecap:square;stroke-opacity:0.1;stroke-width:0.5;"/>
     </g>
     <g id="line2d_2">
      <defs>
       <path d="M 0 0 
L 0 -2.5 
" id="m48482c61cb" style="stroke:#000000;stroke-width:0.5;"/>
      </defs>
      <g>
       <use style="stroke:#000000;stroke-width:0.5;" x="31.54503" xlink:href="#m48482c61cb" y="273.025354"/>
      </g>
     </g>
     <g id="text_1">
      <!-- $\mathregular{0}$ -->
      <defs>
       <path d="M 31.78125 66.40625 
Q 24.171875 66.40625 20.328125 58.90625 
Q 16.5 51.421875 16.5 36.375 
Q 16.5 21.390625 20.328125 13.890625 
Q 24.171875 6.390625 31.78125 6.390625 
Q 39.453125 6.390625 43.28125 13.890625 
Q 47.125 21.390625 47.125 36.375 
Q 47.125 51.421875 43.28125 58.90625 
Q 39.453125 66.40625 31.78125 66.40625 
z
M 31.78125 74.21875 
Q 44.046875 74.21875 50.515625 64.515625 
Q 56.984375 54.828125 56.984375 36.375 
Q 56.984375 17.96875 50.515625 8.265625 
Q 44.046875 -1.421875 31.78125 -1.421875 
Q 19.53125 -1.421875 13.0625 8.265625 
Q 6.59375 17.96875 6.59375 36.375 
Q 6.59375 54.828125 13.0625 64.515625 
Q 19.53125 74.21875 31.78125 74.21875 
z
" id="DejaVuSans-48"/>
      </defs>
      <g transform="translate(28.98503 282.604104)scale(0.08 -0.08)">
       <use transform="translate(0 0.78125)" xlink:href="#DejaVuSans-48"/>
      </g>
     </g>
    </g>
    <g id="xtick_2">
     <g id="line2d_3">
      <path clip-path="url(#p3f373703a2)" d="M 108.75286 273.025354 
L 108.75286 2.834646 
" style="fill:none;stroke:#000000;stroke-linecap:square;stroke-opacity:0.1;stroke-width:0.5;"/>
     </g>
     <g id="line2d_4">
      <g>
       <use style="stroke:#000000;stroke-width:0.5;" x="108.75286" xlink:href="#m48482c61cb" y="273.025354"/>
      </g>
     </g>
     <g id="text_2">
      <!-- $\mathregular{1}$ -->
      <defs>
       <path d="M 12.40625 8.296875 
L 28.515625 8.296875 
L 28.515625 63.921875 
L 10.984375 60.40625 
L 10.984375 69.390625 
L 28.421875 72.90625 
L 38.28125 72.90625 
L 38.28125 8.296875 
L 54.390625 8.296875 
L 54.390625 0 
L 12.40625 0 
z
" id="DejaVuSans-49"/>
      </defs>
      <g transform="translate(106.19286 282.604104)scale(0.08 -0.08)">
       <use transform="translate(0 0.09375)" xlink:href="#DejaVuSans-49"/>
      </g>
     </g>
    </g>
    <g id="xtick_3">
     <g id="line2d_5">
      <path clip-path="url(#p3f373703a2)" d="M 185.96069 273.025354 
L 185.96069 2.834646 
" style="fill:none;stroke:#000000;stroke-linecap:square;stroke-opacity:0.1;stroke-width:0.5;"/>
     </g>
     <g id="line2d_6">
      <g>
       <use style="stroke:#000000;stroke-width:0.5;" x="185.96069" xlink:href="#m48482c61cb" y="273.025354"/>
      </g>
     </g>
     <g id="text_3">
      <!-- $\mathregular{2}$ -->
      <defs>
       <path d="M 19.1875 8.296875 
L 53.609375 8.296875 
L 53.609375 0 
L 7.328125 0 
L 7.328125 8.296875 
Q 12.9375 14.109375 22.625 23.890625 
Q 32.328125 33.6875 34.8125 36.53125 
Q 39.546875 41.84375 41.421875 45.53125 
Q 43.3125 49.21875 43.3125 52.78125 
Q 43.3125 58.59375 39.234375 62.25 
Q 35.15625 65.921875 28.609375 65.921875 
Q 23.96875 65.921875 18.8125 64.3125 
Q 13.671875 62.703125 7.8125 59.421875 
L 7.8125 69.390625 
Q 13.765625 71.78125 18.9375 73 
Q 24.125 74.21875 28.421875 74.21875 
Q 39.75 74.21875 46.484375 68.546875 
Q 53.21875 62.890625 53.21875 53.421875 
Q 53.21875 48.921875 51.53125 44.890625 
Q 49.859375 40.875 45.40625 35.40625 
Q 44.1875 33.984375 37.640625 27.21875 
Q 31.109375 20.453125 19.1875 8.296875 
z
" id="DejaVuSans-50"/>
      </defs>
      <g transform="translate(183.40069 282.604104)scale(0.08 -0.08)">
       <use transform="translate(0 0.78125)" xlink:href="#DejaVuSans-50"/>
      </g>
     </g>
    </g>
    <g id="xtick_4">
     <g id="line2d_7">
      <path clip-path="url(#p3f373703a2)" d="M 263.16852 273.025354 
L 263.16852 2.834646 
" style="fill:none;stroke:#000000;stroke-linecap:square;stroke-opacity:0.1;stroke-width:0.5;"/>
     </g>
     <g id="line2d_8">
      <g>
       <use style="stroke:#000000;stroke-width:0.5;" x="263.16852" xlink:href="#m48482c61cb" y="273.025354"/>
      </g>
     </g>
     <g id="text_4">
      <!-- $\mathregular{3}$ -->
      <defs>
       <path d="M 40.578125 39.3125 
Q 47.65625 37.796875 51.625 33 
Q 55.609375 28.21875 55.609375 21.1875 
Q 55.609375 10.40625 48.1875 4.484375 
Q 40.765625 -1.421875 27.09375 -1.421875 
Q 22.515625 -1.421875 17.65625 -0.515625 
Q 12.796875 0.390625 7.625 2.203125 
L 7.625 11.71875 
Q 11.71875 9.328125 16.59375 8.109375 
Q 21.484375 6.890625 26.8125 6.890625 
Q 36.078125 6.890625 40.9375 10.546875 
Q 45.796875 14.203125 45.796875 21.1875 
Q 45.796875 27.640625 41.28125 31.265625 
Q 36.765625 34.90625 28.71875 34.90625 
L 20.21875 34.90625 
L 20.21875 43.015625 
L 29.109375 43.015625 
Q 36.375 43.015625 40.234375 45.921875 
Q 44.09375 48.828125 44.09375 54.296875 
Q 44.09375 59.90625 40.109375 62.90625 
Q 36.140625 65.921875 28.71875 65.921875 
Q 24.65625 65.921875 20.015625 65.03125 
Q 15.375 64.15625 9.8125 62.3125 
L 9.8125 71.09375 
Q 15.4375 72.65625 20.34375 73.4375 
Q 25.25 74.21875 29.59375 74.21875 
Q 40.828125 74.21875 47.359375 69.109375 
Q 53.90625 64.015625 53.90625 55.328125 
Q 53.90625 49.265625 50.4375 45.09375 
Q 46.96875 40.921875 40.578125 39.3125 
z
" id="DejaVuSans-51"/>
      </defs>
      <g transform="translate(260.60852 282.604104)scale(0.08 -0.08)">
       <use transform="translate(0 0.78125)" xlink:href="#DejaVuSans-51"/>
      </g>
     </g>
    </g>
    <g id="xtick_5">
     <g id="line2d_9">
      <path clip-path="url(#p3f373703a2)" d="M 340.37635 273.025354 
L 340.37635 2.834646 
" style="fill:none;stroke:#000000;stroke-linecap:square;stroke-opacity:0.1;stroke-width:0.5;"/>
     </g>
     <g id="line2d_10">
      <g>
       <use style="stroke:#000000;stroke-width:0.5;" x="340.37635" xlink:href="#m48482c61cb" y="273.025354"/>
      </g>
     </g>
     <g id="text_5">
      <!-- $\mathregular{4}$ -->
      <defs>
       <path d="M 37.796875 64.3125 
L 12.890625 25.390625 
L 37.796875 25.390625 
z
M 35.203125 72.90625 
L 47.609375 72.90625 
L 47.609375 25.390625 
L 58.015625 25.390625 
L 58.015625 17.1875 
L 47.609375 17.1875 
L 47.609375 0 
L 37.796875 0 
L 37.796875 17.1875 
L 4.890625 17.1875 
L 4.890625 26.703125 
z
" id="DejaVuSans-52"/>
      </defs>
      <g transform="translate(337.81635 282.604104)scale(0.08 -0.08)">
       <use transform="translate(0 0.09375)" xlink:href="#DejaVuSans-52"/>
      </g>
     </g>
    </g>
    <g id="xtick_6">
     <g id="line2d_11">
      <path clip-path="url(#p3f373703a2)" d="M 417.58418 273.025354 
L 417.58418 2.834646 
" style="fill:none;stroke:#000000;stroke-linecap:square;stroke-opacity:0.1;stroke-width:0.5;"/>
     </g>
     <g id="line2d_12">
      <g>
       <use style="stroke:#000000;stroke-width:0.5;" x="417.58418" xlink:href="#m48482c61cb" y="273.025354"/>
      </g>
     </g>
     <g id="text_6">
      <!-- $\mathregular{5}$ -->
      <defs>
       <path d="M 10.796875 72.90625 
L 49.515625 72.90625 
L 49.515625 64.59375 
L 19.828125 64.59375 
L 19.828125 46.734375 
Q 21.96875 47.46875 24.109375 47.828125 
Q 26.265625 48.1875 28.421875 48.1875 
Q 40.625 48.1875 47.75 41.5 
Q 54.890625 34.8125 54.890625 23.390625 
Q 54.890625 11.625 47.5625 5.09375 
Q 40.234375 -1.421875 26.90625 -1.421875 
Q 22.3125 -1.421875 17.546875 -0.640625 
Q 12.796875 0.140625 7.71875 1.703125 
L 7.71875 11.625 
Q 12.109375 9.234375 16.796875 8.0625 
Q 21.484375 6.890625 26.703125 6.890625 
Q 35.15625 6.890625 40.078125 11.328125 
Q 45.015625 15.765625 45.015625 23.390625 
Q 45.015625 31 40.078125 35.4375 
Q 35.15625 39.890625 26.703125 39.890625 
Q 22.75 39.890625 18.8125 39.015625 
Q 14.890625 38.140625 10.796875 36.28125 
z
" id="DejaVuSans-53"/>
      </defs>
      <g transform="translate(415.02418 282.604104)scale(0.08 -0.08)">
       <use transform="translate(0 0.09375)" xlink:href="#DejaVuSans-53"/>
      </g>
     </g>
    </g>
   </g>
   <g id="matplotlib.axis_2">
    <g id="ytick_1">
     <g id="line2d_13">
      <path clip-path="url(#p3f373703a2)" d="M 19.963856 265.378447 
L 429.165354 265.378447 
" style="fill:none;stroke:#000000;stroke-linecap:square;stroke-opacity:0.1;stroke-width:0.5;"/>
     </g>
     <g id="line2d_14">
      <defs>
       <path d="M 0 0 
L 2.5 0 
" id="mdaae371daa" style="stroke:#000000;stroke-width:0.5;"/>
      </defs>
      <g>
       <use style="stroke:#000000;stroke-width:0.5;" x="19.963856" xlink:href="#mdaae371daa" y="265.378447"/>
      </g>
     </g>
     <g id="text_7">
      <!-- $\mathregular{0.0}$ -->
      <defs>
       <path d="M 10.6875 12.40625 
L 21 12.40625 
L 21 0 
L 10.6875 0 
z
" id="DejaVuSans-46"/>
      </defs>
      <g transform="translate(3.663856 268.417822)scale(0.08 -0.08)">
       <use transform="translate(0 0.78125)" xlink:href="#DejaVuSans-48"/>
       <use transform="translate(63.623047 0.78125)" xlink:href="#DejaVuSans-46"/>
       <use transform="translate(95.410156 0.78125)" xlink:href="#DejaVuSans-48"/>
      </g>
     </g>
    </g>
    <g id="ytick_2">
     <g id="line2d_15">
      <path clip-path="url(#p3f373703a2)" d="M 19.963856 214.399068 
L 429.165354 214.399068 
" style="fill:none;stroke:#000000;stroke-linecap:square;stroke-opacity:0.1;stroke-width:0.5;"/>
     </g>
     <g id="line2d_16">
      <g>
       <use style="stroke:#000000;stroke-width:0.5;" x="19.963856" xlink:href="#mdaae371daa" y="214.399068"/>
      </g>
     </g>
     <g id="text_8">
      <!-- $\mathregular{0.1}$ -->
      <g transform="translate(3.663856 217.438443)scale(0.08 -0.08)">
       <use transform="translate(0 0.78125)" xlink:href="#DejaVuSans-48"/>
       <use transform="translate(63.623047 0.78125)" xlink:href="#DejaVuSans-46"/>
       <use transform="translate(95.410156 0.78125)" xlink:href="#DejaVuSans-49"/>
      </g>
     </g>
    </g>
    <g id="ytick_3">
     <g id="line2d_17">
      <path clip-path="url(#p3f373703a2)" d="M 19.963856 163.419689 
L 429.165354 163.419689 
" style="fill:none;stroke:#000000;stroke-linecap:square;stroke-opacity:0.1;stroke-width:0.5;"/>
     </g>
     <g id="line2d_18">
      <g>
       <use style="stroke:#000000;stroke-width:0.5;" x="19.963856" xlink:href="#mdaae371daa" y="163.419689"/>
      </g>
     </g>
     <g id="text_9">
      <!-- $\mathregular{0.2}$ -->
      <g transform="translate(4.143856 166.459064)scale(0.08 -0.08)">
       <use transform="translate(0 0.78125)" xlink:href="#DejaVuSans-48"/>
       <use transform="translate(63.623047 0.78125)" xlink:href="#DejaVuSans-46"/>
       <use transform="translate(89.910156 0.78125)" xlink:href="#DejaVuSans-50"/>
      </g>
     </g>
    </g>
    <g id="ytick_4">
     <g id="line2d_19">
      <path clip-path="url(#p3f373703a2)" d="M 19.963856 112.440311 
L 429.165354 112.440311 
" style="fill:none;stroke:#000000;stroke-linecap:square;stroke-opacity:0.1;stroke-width:0.5;"/>
     </g>
     <g id="line2d_20">
      <g>
       <use style="stroke:#000000;stroke-width:0.5;" x="19.963856" xlink:href="#mdaae371daa" y="112.440311"/>
      </g>
     </g>
     <g id="text_10">
      <!-- $\mathregular{0.3}$ -->
      <g transform="translate(3.663856 115.479686)scale(0.08 -0.08)">
       <use transform="translate(0 0.78125)" xlink:href="#DejaVuSans-48"/>
       <use transform="translate(63.623047 0.78125)" xlink:href="#DejaVuSans-46"/>
       <use transform="translate(95.410156 0.78125)" xlink:href="#DejaVuSans-51"/>
      </g>
     </g>
    </g>
    <g id="ytick_5">
     <g id="line2d_21">
      <path clip-path="url(#p3f373703a2)" d="M 19.963856 61.460932 
L 429.165354 61.460932 
" style="fill:none;stroke:#000000;stroke-linecap:square;stroke-opacity:0.1;stroke-width:0.5;"/>
     </g>
     <g id="line2d_22">
      <g>
       <use style="stroke:#000000;stroke-width:0.5;" x="19.963856" xlink:href="#mdaae371daa" y="61.460932"/>
      </g>
     </g>
     <g id="text_11">
      <!-- $\mathregular{0.4}$ -->
      <g transform="translate(3.663856 64.500307)scale(0.08 -0.08)">
       <use transform="translate(0 0.78125)" xlink:href="#DejaVuSans-48"/>
       <use transform="translate(63.623047 0.78125)" xlink:href="#DejaVuSans-46"/>
       <use transform="translate(95.410156 0.78125)" xlink:href="#DejaVuSans-52"/>
      </g>
     </g>
    </g>
    <g id="ytick_6">
     <g id="line2d_23">
      <path clip-path="url(#p3f373703a2)" d="M 19.963856 10.481553 
L 429.165354 10.481553 
" style="fill:none;stroke:#000000;stroke-linecap:square;stroke-opacity:0.1;stroke-width:0.5;"/>
     </g>
     <g id="line2d_24">
      <g>
       <use style="stroke:#000000;stroke-width:0.5;" x="19.963856" xlink:href="#mdaae371daa" y="10.481553"/>
      </g>
     </g>
     <g id="text_12">
      <!-- $\mathregular{0.5}$ -->
      <g transform="translate(3.663856 13.520928)scale(0.08 -0.08)">
       <use transform="translate(0 0.78125)" xlink:href="#DejaVuSans-48"/>
       <use transform="translate(63.623047 0.78125)" xlink:href="#DejaVuSans-46"/>
       <use transform="translate(95.410156 0.78125)" xlink:href="#DejaVuSans-53"/>
      </g>
     </g>
    </g>
   </g>
   <g id="patch_3">
    <path clip-path="url(#p3f373703a2)" d="M 31.54503 16.904954 
L 31.54503 265.378447 
L 39.265813 265.378447 
L 39.265813 16.904954 
L 31.54503 16.904954 
" style="fill:#009afa;stroke:#000000;stroke-linejoin:miter;"/>
   </g>
   <g id="patch_4">
    <path clip-path="url(#p3f373703a2)" d="M 39.265813 26.336139 
L 39.265813 265.378447 
L 46.986596 265.378447 
L 46.986596 26.336139 
L 39.265813 26.336139 
" style="fill:#009afa;stroke:#000000;stroke-linejoin:miter;"/>
   </g>
   <g id="patch_5">
    <path clip-path="url(#p3f373703a2)" d="M 46.986596 43.771087 
L 46.986596 265.378447 
L 54.707379 265.378447 
L 54.707379 43.771087 
L 46.986596 43.771087 
" style="fill:#009afa;stroke:#000000;stroke-linejoin:miter;"/>
   </g>
   <g id="patch_6">
    <path clip-path="url(#p3f373703a2)" d="M 54.707379 45.402427 
L 54.707379 265.378447 
L 62.428162 265.378447 
L 62.428162 45.402427 
L 54.707379 45.402427 
" style="fill:#009afa;stroke:#000000;stroke-linejoin:miter;"/>
   </g>
   <g id="patch_7">
    <path clip-path="url(#p3f373703a2)" d="M 62.428162 63.398148 
L 62.428162 265.378447 
L 70.148945 265.378447 
L 70.148945 63.398148 
L 62.428162 63.398148 
" style="fill:#009afa;stroke:#000000;stroke-linejoin:miter;"/>
   </g>
   <g id="patch_8">
    <path clip-path="url(#p3f373703a2)" d="M 70.148945 68.649024 
L 70.148945 265.378447 
L 77.869728 265.378447 
L 77.869728 68.649024 
L 70.148945 68.649024 
" style="fill:#009afa;stroke:#000000;stroke-linejoin:miter;"/>
   </g>
   <g id="patch_9">
    <path clip-path="url(#p3f373703a2)" d="M 77.869728 79.507632 
L 77.869728 265.378447 
L 85.590511 265.378447 
L 85.590511 79.507632 
L 77.869728 79.507632 
" style="fill:#009afa;stroke:#000000;stroke-linejoin:miter;"/>
   </g>
   <g id="patch_10">
    <path clip-path="url(#p3f373703a2)" d="M 85.590511 82.92325 
L 85.590511 265.378447 
L 93.311294 265.378447 
L 93.311294 82.92325 
L 85.590511 82.92325 
" style="fill:#009afa;stroke:#000000;stroke-linejoin:miter;"/>
   </g>
   <g id="patch_11">
    <path clip-path="url(#p3f373703a2)" d="M 93.311294 97.095517 
L 93.311294 265.378447 
L 101.032077 265.378447 
L 101.032077 97.095517 
L 93.311294 97.095517 
" style="fill:#009afa;stroke:#000000;stroke-linejoin:miter;"/>
   </g>
   <g id="patch_12">
    <path clip-path="url(#p3f373703a2)" d="M 101.032077 109.9933 
L 101.032077 265.378447 
L 108.75286 265.378447 
L 108.75286 109.9933 
L 101.032077 109.9933 
" style="fill:#009afa;stroke:#000000;stroke-linejoin:miter;"/>
   </g>
   <g id="patch_13">
    <path clip-path="url(#p3f373703a2)" d="M 108.75286 116.161805 
L 108.75286 265.378447 
L 116.473643 265.378447 
L 116.473643 116.161805 
L 108.75286 116.161805 
" style="fill:#009afa;stroke:#000000;stroke-linejoin:miter;"/>
   </g>
   <g id="patch_14">
    <path clip-path="url(#p3f373703a2)" d="M 116.473643 125.032217 
L 116.473643 265.378447 
L 124.194426 265.378447 
L 124.194426 125.032217 
L 116.473643 125.032217 
" style="fill:#009afa;stroke:#000000;stroke-linejoin:miter;"/>
   </g>
   <g id="patch_15">
    <path clip-path="url(#p3f373703a2)" d="M 124.194426 129.926237 
L 124.194426 265.378447 
L 131.915209 265.378447 
L 131.915209 129.926237 
L 124.194426 129.926237 
" style="fill:#009afa;stroke:#000000;stroke-linejoin:miter;"/>
   </g>
   <g id="patch_16">
    <path clip-path="url(#p3f373703a2)" d="M 131.915209 132.628145 
L 131.915209 265.378447 
L 139.635992 265.378447 
L 139.635992 132.628145 
L 131.915209 132.628145 
" style="fill:#009afa;stroke:#000000;stroke-linejoin:miter;"/>
   </g>
   <g id="patch_17">
    <path clip-path="url(#p3f373703a2)" d="M 139.635992 143.384794 
L 139.635992 265.378447 
L 147.356775 265.378447 
L 147.356775 143.384794 
L 139.635992 143.384794 
" style="fill:#009afa;stroke:#000000;stroke-linejoin:miter;"/>
   </g>
   <g id="patch_18">
    <path clip-path="url(#p3f373703a2)" d="M 147.356775 153.121855 
L 147.356775 265.378447 
L 155.077558 265.378447 
L 155.077558 153.121855 
L 147.356775 153.121855 
" style="fill:#009afa;stroke:#000000;stroke-linejoin:miter;"/>
   </g>
   <g id="patch_19">
    <path clip-path="url(#p3f373703a2)" d="M 155.077558 151.84737 
L 155.077558 265.378447 
L 162.798341 265.378447 
L 162.798341 151.84737 
L 155.077558 151.84737 
" style="fill:#009afa;stroke:#000000;stroke-linejoin:miter;"/>
   </g>
   <g id="patch_20">
    <path clip-path="url(#p3f373703a2)" d="M 162.798341 158.525669 
L 162.798341 265.378447 
L 170.519124 265.378447 
L 170.519124 158.525669 
L 162.798341 158.525669 
" style="fill:#009afa;stroke:#000000;stroke-linejoin:miter;"/>
   </g>
   <g id="patch_21">
    <path clip-path="url(#p3f373703a2)" d="M 170.519124 165.611803 
L 170.519124 265.378447 
L 178.239907 265.378447 
L 178.239907 165.611803 
L 170.519124 165.611803 
" style="fill:#009afa;stroke:#000000;stroke-linejoin:miter;"/>
   </g>
   <g id="patch_22">
    <path clip-path="url(#p3f373703a2)" d="M 178.239907 166.988246 
L 178.239907 265.378447 
L 185.96069 265.378447 
L 185.96069 166.988246 
L 178.239907 166.988246 
" style="fill:#009afa;stroke:#000000;stroke-linejoin:miter;"/>
   </g>
   <g id="patch_23">
    <path clip-path="url(#p3f373703a2)" d="M 185.96069 168.466648 
L 185.96069 265.378447 
L 193.681473 265.378447 
L 193.681473 168.466648 
L 185.96069 168.466648 
" style="fill:#009afa;stroke:#000000;stroke-linejoin:miter;"/>
   </g>
   <g id="patch_24">
    <path clip-path="url(#p3f373703a2)" d="M 193.681473 180.293864 
L 193.681473 265.378447 
L 201.402256 265.378447 
L 201.402256 180.293864 
L 193.681473 180.293864 
" style="fill:#009afa;stroke:#000000;stroke-linejoin:miter;"/>
   </g>
   <g id="patch_25">
    <path clip-path="url(#p3f373703a2)" d="M 201.402256 183.811441 
L 201.402256 265.378447 
L 209.123039 265.378447 
L 209.123039 183.811441 
L 201.402256 183.811441 
" style="fill:#009afa;stroke:#000000;stroke-linejoin:miter;"/>
   </g>
   <g id="patch_26">
    <path clip-path="url(#p3f373703a2)" d="M 209.123039 184.831029 
L 209.123039 265.378447 
L 216.843822 265.378447 
L 216.843822 184.831029 
L 209.123039 184.831029 
" style="fill:#009afa;stroke:#000000;stroke-linejoin:miter;"/>
   </g>
   <g id="patch_27">
    <path clip-path="url(#p3f373703a2)" d="M 216.843822 189.011338 
L 216.843822 265.378447 
L 224.564605 265.378447 
L 224.564605 189.011338 
L 216.843822 189.011338 
" style="fill:#009afa;stroke:#000000;stroke-linejoin:miter;"/>
   </g>
   <g id="patch_28">
    <path clip-path="url(#p3f373703a2)" d="M 224.564605 195.944533 
L 224.564605 265.378447 
L 232.285388 265.378447 
L 232.285388 195.944533 
L 224.564605 195.944533 
" style="fill:#009afa;stroke:#000000;stroke-linejoin:miter;"/>
   </g>
   <g id="patch_29">
    <path clip-path="url(#p3f373703a2)" d="M 232.285388 198.64644 
L 232.285388 265.378447 
L 240.006171 265.378447 
L 240.006171 198.64644 
L 232.285388 198.64644 
" style="fill:#009afa;stroke:#000000;stroke-linejoin:miter;"/>
   </g>
   <g id="patch_30">
    <path clip-path="url(#p3f373703a2)" d="M 240.006171 197.06608 
L 240.006171 265.378447 
L 247.726954 265.378447 
L 247.726954 197.06608 
L 240.006171 197.06608 
" style="fill:#009afa;stroke:#000000;stroke-linejoin:miter;"/>
   </g>
   <g id="patch_31">
    <path clip-path="url(#p3f373703a2)" d="M 247.726954 207.567832 
L 247.726954 265.378447 
L 255.447737 265.378447 
L 255.447737 207.567832 
L 247.726954 207.567832 
" style="fill:#009afa;stroke:#000000;stroke-linejoin:miter;"/>
   </g>
   <g id="patch_32">
    <path clip-path="url(#p3f373703a2)" d="M 255.447737 206.140409 
L 255.447737 265.378447 
L 263.16852 265.378447 
L 263.16852 206.140409 
L 255.447737 206.140409 
" style="fill:#009afa;stroke:#000000;stroke-linejoin:miter;"/>
   </g>
   <g id="patch_33">
    <path clip-path="url(#p3f373703a2)" d="M 263.16852 208.230564 
L 263.16852 265.378447 
L 270.889303 265.378447 
L 270.889303 208.230564 
L 263.16852 208.230564 
" style="fill:#009afa;stroke:#000000;stroke-linejoin:miter;"/>
   </g>
   <g id="patch_34">
    <path clip-path="url(#p3f373703a2)" d="M 270.889303 212.257935 
L 270.889303 265.378447 
L 278.610086 265.378447 
L 278.610086 212.257935 
L 270.889303 212.257935 
" style="fill:#009afa;stroke:#000000;stroke-linejoin:miter;"/>
   </g>
   <g id="patch_35">
    <path clip-path="url(#p3f373703a2)" d="M 278.610086 213.175563 
L 278.610086 265.378447 
L 286.330869 265.378447 
L 286.330869 213.175563 
L 278.610086 213.175563 
" style="fill:#009afa;stroke:#000000;stroke-linejoin:miter;"/>
   </g>
   <g id="patch_36">
    <path clip-path="url(#p3f373703a2)" d="M 286.330869 220.261697 
L 286.330869 265.378447 
L 294.051652 265.378447 
L 294.051652 220.261697 
L 286.330869 220.261697 
" style="fill:#009afa;stroke:#000000;stroke-linejoin:miter;"/>
   </g>
   <g id="patch_37">
    <path clip-path="url(#p3f373703a2)" d="M 294.051652 217.610769 
L 294.051652 265.378447 
L 301.772435 265.378447 
L 301.772435 217.610769 
L 294.051652 217.610769 
" style="fill:#009afa;stroke:#000000;stroke-linejoin:miter;"/>
   </g>
   <g id="patch_38">
    <path clip-path="url(#p3f373703a2)" d="M 301.772435 220.465615 
L 301.772435 265.378447 
L 309.493218 265.378447 
L 309.493218 220.465615 
L 301.772435 220.465615 
" style="fill:#009afa;stroke:#000000;stroke-linejoin:miter;"/>
   </g>
   <g id="patch_39">
    <path clip-path="url(#p3f373703a2)" d="M 309.493218 225.053759 
L 309.493218 265.378447 
L 317.214001 265.378447 
L 317.214001 225.053759 
L 309.493218 225.053759 
" style="fill:#009afa;stroke:#000000;stroke-linejoin:miter;"/>
   </g>
   <g id="patch_40">
    <path clip-path="url(#p3f373703a2)" d="M 317.214001 228.010563 
L 317.214001 265.378447 
L 324.934784 265.378447 
L 324.934784 228.010563 
L 317.214001 228.010563 
" style="fill:#009afa;stroke:#000000;stroke-linejoin:miter;"/>
   </g>
   <g id="patch_41">
    <path clip-path="url(#p3f373703a2)" d="M 324.934784 228.520356 
L 324.934784 265.378447 
L 332.655567 265.378447 
L 332.655567 228.520356 
L 324.934784 228.520356 
" style="fill:#009afa;stroke:#000000;stroke-linejoin:miter;"/>
   </g>
   <g id="patch_42">
    <path clip-path="url(#p3f373703a2)" d="M 332.655567 231.986954 
L 332.655567 265.378447 
L 340.37635 265.378447 
L 340.37635 231.986954 
L 332.655567 231.986954 
" style="fill:#009afa;stroke:#000000;stroke-linejoin:miter;"/>
   </g>
   <g id="patch_43">
    <path clip-path="url(#p3f373703a2)" d="M 340.37635 231.986954 
L 340.37635 265.378447 
L 348.097133 265.378447 
L 348.097133 231.986954 
L 340.37635 231.986954 
" style="fill:#009afa;stroke:#000000;stroke-linejoin:miter;"/>
   </g>
   <g id="patch_44">
    <path clip-path="url(#p3f373703a2)" d="M 348.097133 232.904583 
L 348.097133 265.378447 
L 355.817916 265.378447 
L 355.817916 232.904583 
L 348.097133 232.904583 
" style="fill:#009afa;stroke:#000000;stroke-linejoin:miter;"/>
   </g>
   <g id="patch_45">
    <path clip-path="url(#p3f373703a2)" d="M 355.817916 234.484944 
L 355.817916 265.378447 
L 363.538699 265.378447 
L 363.538699 234.484944 
L 355.817916 234.484944 
" style="fill:#009afa;stroke:#000000;stroke-linejoin:miter;"/>
   </g>
   <g id="patch_46">
    <path clip-path="url(#p3f373703a2)" d="M 363.538699 237.594686 
L 363.538699 265.378447 
L 371.259482 265.378447 
L 371.259482 237.594686 
L 363.538699 237.594686 
" style="fill:#009afa;stroke:#000000;stroke-linejoin:miter;"/>
   </g>
   <g id="patch_47">
    <path clip-path="url(#p3f373703a2)" d="M 371.259482 238.971129 
L 371.259482 265.378447 
L 378.980265 265.378447 
L 378.980265 238.971129 
L 371.259482 238.971129 
" style="fill:#009afa;stroke:#000000;stroke-linejoin:miter;"/>
   </g>
   <g id="patch_48">
    <path clip-path="url(#p3f373703a2)" d="M 378.980265 240.296593 
L 378.980265 265.378447 
L 386.701048 265.378447 
L 386.701048 240.296593 
L 378.980265 240.296593 
" style="fill:#009afa;stroke:#000000;stroke-linejoin:miter;"/>
   </g>
   <g id="patch_49">
    <path clip-path="url(#p3f373703a2)" d="M 386.701048 240.857366 
L 386.701048 265.378447 
L 394.421831 265.378447 
L 394.421831 240.857366 
L 386.701048 240.857366 
" style="fill:#009afa;stroke:#000000;stroke-linejoin:miter;"/>
   </g>
   <g id="patch_50">
    <path clip-path="url(#p3f373703a2)" d="M 394.421831 241.112263 
L 394.421831 265.378447 
L 402.142614 265.378447 
L 402.142614 241.112263 
L 394.421831 241.112263 
" style="fill:#009afa;stroke:#000000;stroke-linejoin:miter;"/>
   </g>
   <g id="patch_51">
    <path clip-path="url(#p3f373703a2)" d="M 402.142614 242.335768 
L 402.142614 265.378447 
L 409.863397 265.378447 
L 409.863397 242.335768 
L 402.142614 242.335768 
" style="fill:#009afa;stroke:#000000;stroke-linejoin:miter;"/>
   </g>
   <g id="patch_52">
    <path clip-path="url(#p3f373703a2)" d="M 409.863397 245.44551 
L 409.863397 265.378447 
L 417.58418 265.378447 
L 417.58418 245.44551 
L 409.863397 245.44551 
" style="fill:#009afa;stroke:#000000;stroke-linejoin:miter;"/>
   </g>
   <g id="patch_53">
    <path clip-path="url(#p3f373703a2)" d="M 417.58418 247.178809 
L 417.58418 265.378447 
L 425.304963 265.378447 
L 425.304963 247.178809 
L 417.58418 247.178809 
" style="fill:#009afa;stroke:#000000;stroke-linejoin:miter;"/>
   </g>
   <g id="patch_54">
    <path clip-path="url(#p3f373703a2)" d="M 425.304963 244.527881 
L 425.304963 265.378447 
L 433.025746 265.378447 
L 433.025746 244.527881 
L 425.304963 244.527881 
" style="fill:#009afa;stroke:#000000;stroke-linejoin:miter;"/>
   </g>
   <g id="patch_55">
    <path clip-path="url(#p3f373703a2)" d="M 433.025746 246.669015 
L 433.025746 265.378447 
L 440.746529 265.378447 
L 440.746529 246.669015 
L 433.025746 246.669015 
" style="fill:#009afa;stroke:#000000;stroke-linejoin:miter;"/>
   </g>
   <g id="patch_56">
    <path clip-path="url(#p3f373703a2)" d="M 440.746529 247.841541 
L 440.746529 265.378447 
L 448.467312 265.378447 
L 448.467312 247.841541 
L 440.746529 247.841541 
" style="fill:#009afa;stroke:#000000;stroke-linejoin:miter;"/>
   </g>
   <g id="patch_57">
    <path clip-path="url(#p3f373703a2)" d="M 448.467312 250.084634 
L 448.467312 265.378447 
L 456.188095 265.378447 
L 456.188095 250.084634 
L 448.467312 250.084634 
" style="fill:#009afa;stroke:#000000;stroke-linejoin:miter;"/>
   </g>
   <g id="patch_58">
    <path clip-path="url(#p3f373703a2)" d="M 456.188095 251.002263 
L 456.188095 265.378447 
L 463.908878 265.378447 
L 463.908878 251.002263 
L 456.188095 251.002263 
" style="fill:#009afa;stroke:#000000;stroke-linejoin:miter;"/>
   </g>
   <g id="patch_59">
    <path clip-path="url(#p3f373703a2)" d="M 463.908878 251.25716 
L 463.908878 265.378447 
L 471.629661 265.378447 
L 471.629661 251.25716 
L 463.908878 251.25716 
" style="fill:#009afa;stroke:#000000;stroke-linejoin:miter;"/>
   </g>
   <g id="patch_60">
    <path clip-path="url(#p3f373703a2)" d="M 471.629661 251.104221 
L 471.629661 265.378447 
L 479.350444 265.378447 
L 479.350444 251.104221 
L 471.629661 251.104221 
" style="fill:#009afa;stroke:#000000;stroke-linejoin:miter;"/>
   </g>
   <g id="patch_61">
    <path clip-path="url(#p3f373703a2)" d="M 479.350444 251.512056 
L 479.350444 265.378447 
L 487.071227 265.378447 
L 487.071227 251.512056 
L 479.350444 251.512056 
" style="fill:#009afa;stroke:#000000;stroke-linejoin:miter;"/>
   </g>
   <g id="patch_62">
    <path clip-path="url(#p3f373703a2)" d="M 487.071227 252.786541 
L 487.071227 265.378447 
L 494.79201 265.378447 
L 494.79201 252.786541 
L 487.071227 252.786541 
" style="fill:#009afa;stroke:#000000;stroke-linejoin:miter;"/>
   </g>
   <g id="patch_63">
    <path clip-path="url(#p3f373703a2)" d="M 494.79201 254.264943 
L 494.79201 265.378447 
L 502.512793 265.378447 
L 502.512793 254.264943 
L 494.79201 254.264943 
" style="fill:#009afa;stroke:#000000;stroke-linejoin:miter;"/>
   </g>
   <g id="patch_64">
    <path clip-path="url(#p3f373703a2)" d="M 502.512793 254.621799 
L 502.512793 265.378447 
L 510.233576 265.378447 
L 510.233576 254.621799 
L 502.512793 254.621799 
" style="fill:#009afa;stroke:#000000;stroke-linejoin:miter;"/>
   </g>
   <g id="patch_65">
    <path clip-path="url(#p3f373703a2)" d="M 510.233576 254.51984 
L 510.233576 265.378447 
L 517.954359 265.378447 
L 517.954359 254.51984 
L 510.233576 254.51984 
" style="fill:#009afa;stroke:#000000;stroke-linejoin:miter;"/>
   </g>
   <g id="patch_66">
    <path clip-path="url(#p3f373703a2)" d="M 517.954359 254.46886 
L 517.954359 265.378447 
L 525.675142 265.378447 
L 525.675142 254.46886 
L 517.954359 254.46886 
" style="fill:#009afa;stroke:#000000;stroke-linejoin:miter;"/>
   </g>
   <g id="patch_67">
    <path clip-path="url(#p3f373703a2)" d="M 525.675142 256.559015 
L 525.675142 265.378447 
L 533.395925 265.378447 
L 533.395925 256.559015 
L 525.675142 256.559015 
" style="fill:#009afa;stroke:#000000;stroke-linejoin:miter;"/>
   </g>
   <g id="patch_68">
    <path clip-path="url(#p3f373703a2)" d="M 533.395925 255.539427 
L 533.395925 265.378447 
L 541.116708 265.378447 
L 541.116708 255.539427 
L 533.395925 255.539427 
" style="fill:#009afa;stroke:#000000;stroke-linejoin:miter;"/>
   </g>
   <g id="patch_69">
    <path clip-path="url(#p3f373703a2)" d="M 541.116708 256.660974 
L 541.116708 265.378447 
L 548.837491 265.378447 
L 548.837491 256.660974 
L 541.116708 256.660974 
" style="fill:#009afa;stroke:#000000;stroke-linejoin:miter;"/>
   </g>
   <g id="patch_70">
    <path clip-path="url(#p3f373703a2)" d="M 548.837491 256.100201 
L 548.837491 265.378447 
L 556.558274 265.378447 
L 556.558274 256.100201 
L 548.837491 256.100201 
" style="fill:#009afa;stroke:#000000;stroke-linejoin:miter;"/>
   </g>
   <g id="patch_71">
    <path clip-path="url(#p3f373703a2)" d="M 556.558274 257.731541 
L 556.558274 265.378447 
L 564.279057 265.378447 
L 564.279057 257.731541 
L 556.558274 257.731541 
" style="fill:#009afa;stroke:#000000;stroke-linejoin:miter;"/>
   </g>
   <g id="patch_72">
    <path clip-path="url(#p3f373703a2)" d="M 564.279057 257.527623 
L 564.279057 265.378447 
L 571.99984 265.378447 
L 571.99984 257.527623 
L 564.279057 257.527623 
" style="fill:#009afa;stroke:#000000;stroke-linejoin:miter;"/>
   </g>
   <g id="patch_73">
    <path clip-path="url(#p3f373703a2)" d="M 571.99984 257.476644 
L 571.99984 265.378447 
L 579.720623 265.378447 
L 579.720623 257.476644 
L 571.99984 257.476644 
" style="fill:#009afa;stroke:#000000;stroke-linejoin:miter;"/>
   </g>
   <g id="patch_74">
    <path clip-path="url(#p3f373703a2)" d="M 579.720623 258.190355 
L 579.720623 265.378447 
L 587.441406 265.378447 
L 587.441406 258.190355 
L 579.720623 258.190355 
" style="fill:#009afa;stroke:#000000;stroke-linejoin:miter;"/>
   </g>
   <g id="patch_75">
    <path clip-path="url(#p3f373703a2)" d="M 587.441406 258.190355 
L 587.441406 265.378447 
L 595.162189 265.378447 
L 595.162189 258.190355 
L 587.441406 258.190355 
" style="fill:#009afa;stroke:#000000;stroke-linejoin:miter;"/>
   </g>
   <g id="patch_76">
    <path clip-path="url(#p3f373703a2)" d="M 595.162189 258.139376 
L 595.162189 265.378447 
L 602.882972 265.378447 
L 602.882972 258.139376 
L 595.162189 258.139376 
" style="fill:#009afa;stroke:#000000;stroke-linejoin:miter;"/>
   </g>
   <g id="patch_77">
    <path clip-path="url(#p3f373703a2)" d="M 602.882972 259.107984 
L 602.882972 265.378447 
L 610.603755 265.378447 
L 610.603755 259.107984 
L 602.882972 259.107984 
" style="fill:#009afa;stroke:#000000;stroke-linejoin:miter;"/>
   </g>
   <g id="patch_78">
    <path clip-path="url(#p3f373703a2)" d="M 610.603755 260.331489 
L 610.603755 265.378447 
L 618.324538 265.378447 
L 618.324538 260.331489 
L 610.603755 260.331489 
" style="fill:#009afa;stroke:#000000;stroke-linejoin:miter;"/>
   </g>
   <g id="patch_79">
    <path clip-path="url(#p3f373703a2)" d="M 618.324538 259.057004 
L 618.324538 265.378447 
L 626.045321 265.378447 
L 626.045321 259.057004 
L 618.324538 259.057004 
" style="fill:#009afa;stroke:#000000;stroke-linejoin:miter;"/>
   </g>
   <g id="patch_80">
    <path clip-path="url(#p3f373703a2)" d="M 626.045321 261.402056 
L 626.045321 265.378447 
L 633.766104 265.378447 
L 633.766104 261.402056 
L 626.045321 261.402056 
" style="fill:#009afa;stroke:#000000;stroke-linejoin:miter;"/>
   </g>
   <g id="patch_81">
    <path clip-path="url(#p3f373703a2)" d="M 633.766104 260.382468 
L 633.766104 265.378447 
L 641.486887 265.378447 
L 641.486887 260.382468 
L 633.766104 260.382468 
" style="fill:#009afa;stroke:#000000;stroke-linejoin:miter;"/>
   </g>
   <g id="patch_82">
    <path clip-path="url(#p3f373703a2)" d="M 641.486887 260.076592 
L 641.486887 265.378447 
L 649.20767 265.378447 
L 649.20767 260.076592 
L 641.486887 260.076592 
" style="fill:#009afa;stroke:#000000;stroke-linejoin:miter;"/>
   </g>
   <g id="patch_83">
    <path clip-path="url(#p3f373703a2)" d="M 649.20767 261.656953 
L 649.20767 265.378447 
L 656.928453 265.378447 
L 656.928453 261.656953 
L 649.20767 261.656953 
" style="fill:#009afa;stroke:#000000;stroke-linejoin:miter;"/>
   </g>
   <g id="patch_84">
    <path clip-path="url(#p3f373703a2)" d="M 656.928453 260.025613 
L 656.928453 265.378447 
L 664.649236 265.378447 
L 664.649236 260.025613 
L 656.928453 260.025613 
" style="fill:#009afa;stroke:#000000;stroke-linejoin:miter;"/>
   </g>
   <g id="patch_85">
    <path clip-path="url(#p3f373703a2)" d="M 664.649236 261.300097 
L 664.649236 265.378447 
L 672.370019 265.378447 
L 672.370019 261.300097 
L 664.649236 261.300097 
" style="fill:#009afa;stroke:#000000;stroke-linejoin:miter;"/>
   </g>
   <g id="patch_86">
    <path clip-path="url(#p3f373703a2)" d="M 672.370019 262.115767 
L 672.370019 265.378447 
L 680.090801 265.378447 
L 680.090801 262.115767 
L 672.370019 262.115767 
" style="fill:#009afa;stroke:#000000;stroke-linejoin:miter;"/>
   </g>
   <g id="patch_87">
    <path clip-path="url(#p3f373703a2)" d="M 680.090801 261.554994 
L 680.090801 265.378447 
L 687.811584 265.378447 
L 687.811584 261.554994 
L 680.090801 261.554994 
" style="fill:#009afa;stroke:#000000;stroke-linejoin:miter;"/>
   </g>
   <g id="patch_88">
    <path clip-path="url(#p3f373703a2)" d="M 687.811584 262.72752 
L 687.811584 265.378447 
L 695.532367 265.378447 
L 695.532367 262.72752 
L 687.811584 262.72752 
" style="fill:#009afa;stroke:#000000;stroke-linejoin:miter;"/>
   </g>
   <g id="patch_89">
    <path clip-path="url(#p3f373703a2)" d="M 695.532367 262.574582 
L 695.532367 265.378447 
L 703.25315 265.378447 
L 703.25315 262.574582 
L 695.532367 262.574582 
" style="fill:#009afa;stroke:#000000;stroke-linejoin:miter;"/>
   </g>
   <g id="patch_90">
    <path clip-path="url(#p3f373703a2)" d="M 703.25315 262.67654 
L 703.25315 265.378447 
L 710.973933 265.378447 
L 710.973933 262.67654 
L 703.25315 262.67654 
" style="fill:#009afa;stroke:#000000;stroke-linejoin:miter;"/>
   </g>
   <g id="patch_91">
    <path clip-path="url(#p3f373703a2)" d="M 710.973933 262.523602 
L 710.973933 265.378447 
L 718.694716 265.378447 
L 718.694716 262.523602 
L 710.973933 262.523602 
" style="fill:#009afa;stroke:#000000;stroke-linejoin:miter;"/>
   </g>
   <g id="patch_92">
    <path clip-path="url(#p3f373703a2)" d="M 718.694716 262.319685 
L 718.694716 265.378447 
L 726.415499 265.378447 
L 726.415499 262.319685 
L 718.694716 262.319685 
" style="fill:#009afa;stroke:#000000;stroke-linejoin:miter;"/>
   </g>
   <g id="patch_93">
    <path clip-path="url(#p3f373703a2)" d="M 726.415499 262.67654 
L 726.415499 265.378447 
L 734.136282 265.378447 
L 734.136282 262.67654 
L 726.415499 262.67654 
" style="fill:#009afa;stroke:#000000;stroke-linejoin:miter;"/>
   </g>
   <g id="patch_94">
    <path clip-path="url(#p3f373703a2)" d="M 734.136282 262.217726 
L 734.136282 265.378447 
L 741.857065 265.378447 
L 741.857065 262.217726 
L 734.136282 262.217726 
" style="fill:#009afa;stroke:#000000;stroke-linejoin:miter;"/>
   </g>
   <g id="patch_95">
    <path clip-path="url(#p3f373703a2)" d="M 741.857065 262.268705 
L 741.857065 265.378447 
L 749.577848 265.378447 
L 749.577848 262.268705 
L 741.857065 262.268705 
" style="fill:#009afa;stroke:#000000;stroke-linejoin:miter;"/>
   </g>
   <g id="patch_96">
    <path clip-path="url(#p3f373703a2)" d="M 749.577848 262.319685 
L 749.577848 265.378447 
L 757.298631 265.378447 
L 757.298631 262.319685 
L 749.577848 262.319685 
" style="fill:#009afa;stroke:#000000;stroke-linejoin:miter;"/>
   </g>
   <g id="patch_97">
    <path clip-path="url(#p3f373703a2)" d="M 757.298631 263.135355 
L 757.298631 265.378447 
L 765.019414 265.378447 
L 765.019414 263.135355 
L 757.298631 263.135355 
" style="fill:#009afa;stroke:#000000;stroke-linejoin:miter;"/>
   </g>
   <g id="patch_98">
    <path clip-path="url(#p3f373703a2)" d="M 765.019414 262.880458 
L 765.019414 265.378447 
L 772.740197 265.378447 
L 772.740197 262.880458 
L 765.019414 262.880458 
" style="fill:#009afa;stroke:#000000;stroke-linejoin:miter;"/>
   </g>
   <g id="patch_99">
    <path clip-path="url(#p3f373703a2)" d="M 772.740197 262.880458 
L 772.740197 265.378447 
L 780.46098 265.378447 
L 780.46098 262.880458 
L 772.740197 262.880458 
" style="fill:#009afa;stroke:#000000;stroke-linejoin:miter;"/>
   </g>
   <g id="patch_100">
    <path clip-path="url(#p3f373703a2)" d="M 780.46098 262.523602 
L 780.46098 265.378447 
L 788.181763 265.378447 
L 788.181763 262.523602 
L 780.46098 262.523602 
" style="fill:#009afa;stroke:#000000;stroke-linejoin:miter;"/>
   </g>
   <g id="patch_101">
    <path clip-path="url(#p3f373703a2)" d="M 788.181763 263.798087 
L 788.181763 265.378447 
L 795.902546 265.378447 
L 795.902546 263.798087 
L 788.181763 263.798087 
" style="fill:#009afa;stroke:#000000;stroke-linejoin:miter;"/>
   </g>
   <g id="patch_102">
    <path clip-path="url(#p3f373703a2)" d="M 795.902546 262.982417 
L 795.902546 265.378447 
L 803.623329 265.378447 
L 803.623329 262.982417 
L 795.902546 262.982417 
" style="fill:#009afa;stroke:#000000;stroke-linejoin:miter;"/>
   </g>
   <g id="patch_103">
    <path clip-path="url(#p3f373703a2)" d="M 803.623329 263.849066 
L 803.623329 265.378447 
L 811.344112 265.378447 
L 811.344112 263.849066 
L 803.623329 263.849066 
" style="fill:#009afa;stroke:#000000;stroke-linejoin:miter;"/>
   </g>
   <g id="patch_104">
    <path clip-path="url(#p3f373703a2)" d="M 811.344112 263.594169 
L 811.344112 265.378447 
L 819.064895 265.378447 
L 819.064895 263.594169 
L 811.344112 263.594169 
" style="fill:#009afa;stroke:#000000;stroke-linejoin:miter;"/>
   </g>
   <g id="patch_105">
    <path clip-path="url(#p3f373703a2)" d="M 819.064895 264.154942 
L 819.064895 265.378447 
L 826.785678 265.378447 
L 826.785678 264.154942 
L 819.064895 264.154942 
" style="fill:#009afa;stroke:#000000;stroke-linejoin:miter;"/>
   </g>
   <g id="patch_106">
    <path clip-path="url(#p3f373703a2)" d="M 826.785678 264.154942 
L 826.785678 265.378447 
L 834.506461 265.378447 
L 834.506461 264.154942 
L 826.785678 264.154942 
" style="fill:#009afa;stroke:#000000;stroke-linejoin:miter;"/>
   </g>
   <g id="patch_107">
    <path clip-path="url(#p3f373703a2)" d="M 834.506461 264.103963 
L 834.506461 265.378447 
L 842.227244 265.378447 
L 842.227244 264.103963 
L 834.506461 264.103963 
" style="fill:#009afa;stroke:#000000;stroke-linejoin:miter;"/>
   </g>
   <g id="patch_108">
    <path clip-path="url(#p3f373703a2)" d="M 842.227244 264.103963 
L 842.227244 265.378447 
L 849.948027 265.378447 
L 849.948027 264.103963 
L 842.227244 264.103963 
" style="fill:#009afa;stroke:#000000;stroke-linejoin:miter;"/>
   </g>
   <g id="patch_109">
    <path clip-path="url(#p3f373703a2)" d="M 849.948027 264.35886 
L 849.948027 265.378447 
L 857.66881 265.378447 
L 857.66881 264.35886 
L 849.948027 264.35886 
" style="fill:#009afa;stroke:#000000;stroke-linejoin:miter;"/>
   </g>
   <g id="patch_110">
    <path clip-path="url(#p3f373703a2)" d="M 857.66881 264.256901 
L 857.66881 265.378447 
L 865.389593 265.378447 
L 865.389593 264.256901 
L 857.66881 264.256901 
" style="fill:#009afa;stroke:#000000;stroke-linejoin:miter;"/>
   </g>
   <g id="patch_111">
    <path clip-path="url(#p3f373703a2)" d="M 865.389593 264.35886 
L 865.389593 265.378447 
L 873.110376 265.378447 
L 873.110376 264.35886 
L 865.389593 264.35886 
" style="fill:#009afa;stroke:#000000;stroke-linejoin:miter;"/>
   </g>
   <g id="patch_112">
    <path clip-path="url(#p3f373703a2)" d="M 873.110376 264.460819 
L 873.110376 265.378447 
L 880.831159 265.378447 
L 880.831159 264.460819 
L 873.110376 264.460819 
" style="fill:#009afa;stroke:#000000;stroke-linejoin:miter;"/>
   </g>
   <g id="patch_113">
    <path clip-path="url(#p3f373703a2)" d="M 880.831159 264.154942 
L 880.831159 265.378447 
L 888.551942 265.378447 
L 888.551942 264.154942 
L 880.831159 264.154942 
" style="fill:#009afa;stroke:#000000;stroke-linejoin:miter;"/>
   </g>
   <g id="patch_114">
    <path clip-path="url(#p3f373703a2)" d="M 888.551942 264.766695 
L 888.551942 265.378447 
L 896.272725 265.378447 
L 896.272725 264.766695 
L 888.551942 264.766695 
" style="fill:#009afa;stroke:#000000;stroke-linejoin:miter;"/>
   </g>
   <g id="patch_115">
    <path clip-path="url(#p3f373703a2)" d="M 896.272725 264.868654 
L 896.272725 265.378447 
L 903.993508 265.378447 
L 903.993508 264.868654 
L 896.272725 264.868654 
" style="fill:#009afa;stroke:#000000;stroke-linejoin:miter;"/>
   </g>
   <g id="patch_116">
    <path clip-path="url(#p3f373703a2)" d="M 903.993508 264.664736 
L 903.993508 265.378447 
L 911.714291 265.378447 
L 911.714291 264.664736 
L 903.993508 264.664736 
" style="fill:#009afa;stroke:#000000;stroke-linejoin:miter;"/>
   </g>
   <g id="patch_117">
    <path clip-path="url(#p3f373703a2)" d="M 911.714291 264.511798 
L 911.714291 265.378447 
L 919.435074 265.378447 
L 919.435074 264.511798 
L 911.714291 264.511798 
" style="fill:#009afa;stroke:#000000;stroke-linejoin:miter;"/>
   </g>
   <g id="patch_118">
    <path clip-path="url(#p3f373703a2)" d="M 919.435074 264.460819 
L 919.435074 265.378447 
L 927.155857 265.378447 
L 927.155857 264.460819 
L 919.435074 264.460819 
" style="fill:#009afa;stroke:#000000;stroke-linejoin:miter;"/>
   </g>
   <g id="patch_119">
    <path clip-path="url(#p3f373703a2)" d="M 927.155857 264.919633 
L 927.155857 265.378447 
L 934.87664 265.378447 
L 934.87664 264.919633 
L 927.155857 264.919633 
" style="fill:#009afa;stroke:#000000;stroke-linejoin:miter;"/>
   </g>
   <g id="patch_120">
    <path clip-path="url(#p3f373703a2)" d="M 934.87664 264.613757 
L 934.87664 265.378447 
L 942.597423 265.378447 
L 942.597423 264.613757 
L 934.87664 264.613757 
" style="fill:#009afa;stroke:#000000;stroke-linejoin:miter;"/>
   </g>
   <g id="patch_121">
    <path clip-path="url(#p3f373703a2)" d="M 942.597423 264.511798 
L 942.597423 265.378447 
L 950.318206 265.378447 
L 950.318206 264.511798 
L 942.597423 264.511798 
" style="fill:#009afa;stroke:#000000;stroke-linejoin:miter;"/>
   </g>
   <g id="patch_122">
    <path clip-path="url(#p3f373703a2)" d="M 950.318206 264.613757 
L 950.318206 265.378447 
L 958.038989 265.378447 
L 958.038989 264.613757 
L 950.318206 264.613757 
" style="fill:#009afa;stroke:#000000;stroke-linejoin:miter;"/>
   </g>
   <g id="patch_123">
    <path clip-path="url(#p3f373703a2)" d="M 958.038989 265.021592 
L 958.038989 265.378447 
L 965.759772 265.378447 
L 965.759772 265.021592 
L 958.038989 265.021592 
" style="fill:#009afa;stroke:#000000;stroke-linejoin:miter;"/>
   </g>
   <g id="patch_124">
    <path clip-path="url(#p3f373703a2)" d="M 965.759772 264.562777 
L 965.759772 265.378447 
L 973.480555 265.378447 
L 973.480555 264.562777 
L 965.759772 264.562777 
" style="fill:#009afa;stroke:#000000;stroke-linejoin:miter;"/>
   </g>
   <g id="patch_125">
    <path clip-path="url(#p3f373703a2)" d="M 973.480555 265.021592 
L 973.480555 265.378447 
L 981.201338 265.378447 
L 981.201338 265.021592 
L 973.480555 265.021592 
" style="fill:#009afa;stroke:#000000;stroke-linejoin:miter;"/>
   </g>
   <g id="patch_126">
    <path clip-path="url(#p3f373703a2)" d="M 981.201338 264.868654 
L 981.201338 265.378447 
L 988.922121 265.378447 
L 988.922121 264.868654 
L 981.201338 264.868654 
" style="fill:#009afa;stroke:#000000;stroke-linejoin:miter;"/>
   </g>
   <g id="patch_127">
    <path clip-path="url(#p3f373703a2)" d="M 988.922121 264.460819 
L 988.922121 265.378447 
L 996.642904 265.378447 
L 996.642904 264.460819 
L 988.922121 264.460819 
" style="fill:#009afa;stroke:#000000;stroke-linejoin:miter;"/>
   </g>
   <g id="patch_128">
    <path clip-path="url(#p3f373703a2)" d="M 996.642904 264.715716 
L 996.642904 265.378447 
L 1004.363687 265.378447 
L 1004.363687 264.715716 
L 996.642904 264.715716 
" style="fill:#009afa;stroke:#000000;stroke-linejoin:miter;"/>
   </g>
   <g id="patch_129">
    <path clip-path="url(#p3f373703a2)" d="M 1004.363687 265.021592 
L 1004.363687 265.378447 
L 1012.08447 265.378447 
L 1012.08447 265.021592 
L 1004.363687 265.021592 
" style="fill:#009afa;stroke:#000000;stroke-linejoin:miter;"/>
   </g>
   <g id="patch_130">
    <path clip-path="url(#p3f373703a2)" d="M 1012.08447 265.072571 
L 1012.08447 265.378447 
L 1019.805253 265.378447 
L 1019.805253 265.072571 
L 1012.08447 265.072571 
" style="fill:#009afa;stroke:#000000;stroke-linejoin:miter;"/>
   </g>
   <g id="patch_131">
    <path clip-path="url(#p3f373703a2)" d="M 1019.805253 265.123551 
L 1019.805253 265.378447 
L 1027.526036 265.378447 
L 1027.526036 265.123551 
L 1019.805253 265.123551 
" style="fill:#009afa;stroke:#000000;stroke-linejoin:miter;"/>
   </g>
   <g id="patch_132">
    <path clip-path="url(#p3f373703a2)" d="M 1027.526036 265.17453 
L 1027.526036 265.378447 
L 1035.246819 265.378447 
L 1035.246819 265.17453 
L 1027.526036 265.17453 
" style="fill:#009afa;stroke:#000000;stroke-linejoin:miter;"/>
   </g>
   <g id="patch_133">
    <path clip-path="url(#p3f373703a2)" d="M 1035.246819 264.613757 
L 1035.246819 265.378447 
L 1042.967602 265.378447 
L 1042.967602 264.613757 
L 1035.246819 264.613757 
" style="fill:#009afa;stroke:#000000;stroke-linejoin:miter;"/>
   </g>
   <g id="patch_134">
    <path clip-path="url(#p3f373703a2)" d="M 1042.967602 265.072571 
L 1042.967602 265.378447 
L 1050.688385 265.378447 
L 1050.688385 265.072571 
L 1042.967602 265.072571 
" style="fill:#009afa;stroke:#000000;stroke-linejoin:miter;"/>
   </g>
   <g id="patch_135">
    <path clip-path="url(#p3f373703a2)" d="M 1050.688385 264.919633 
L 1050.688385 265.378447 
L 1058.409168 265.378447 
L 1058.409168 264.919633 
L 1050.688385 264.919633 
" style="fill:#009afa;stroke:#000000;stroke-linejoin:miter;"/>
   </g>
   <g id="patch_136">
    <path clip-path="url(#p3f373703a2)" d="M 1058.409168 264.919633 
L 1058.409168 265.378447 
L 1066.129951 265.378447 
L 1066.129951 264.919633 
L 1058.409168 264.919633 
" style="fill:#009afa;stroke:#000000;stroke-linejoin:miter;"/>
   </g>
   <g id="patch_137">
    <path clip-path="url(#p3f373703a2)" d="M 1066.129951 265.123551 
L 1066.129951 265.378447 
L 1073.850734 265.378447 
L 1073.850734 265.123551 
L 1066.129951 265.123551 
" style="fill:#009afa;stroke:#000000;stroke-linejoin:miter;"/>
   </g>
   <g id="patch_138">
    <path clip-path="url(#p3f373703a2)" d="M 1073.850734 265.17453 
L 1073.850734 265.378447 
L 1081.571517 265.378447 
L 1081.571517 265.17453 
L 1073.850734 265.17453 
" style="fill:#009afa;stroke:#000000;stroke-linejoin:miter;"/>
   </g>
   <g id="patch_139">
    <path clip-path="url(#p3f373703a2)" d="M 1081.571517 265.123551 
L 1081.571517 265.378447 
L 1089.2923 265.378447 
L 1089.2923 265.123551 
L 1081.571517 265.123551 
" style="fill:#009afa;stroke:#000000;stroke-linejoin:miter;"/>
   </g>
   <g id="patch_140">
    <path clip-path="url(#p3f373703a2)" d="M 1089.2923 265.17453 
L 1089.2923 265.378447 
L 1097.013083 265.378447 
L 1097.013083 265.17453 
L 1089.2923 265.17453 
" style="fill:#009afa;stroke:#000000;stroke-linejoin:miter;"/>
   </g>
   <g id="patch_141">
    <path clip-path="url(#p3f373703a2)" d="M 1097.013083 265.327468 
L 1097.013083 265.378447 
L 1104.733866 265.378447 
L 1104.733866 265.327468 
L 1097.013083 265.327468 
" style="fill:#009afa;stroke:#000000;stroke-linejoin:miter;"/>
   </g>
   <g id="patch_142">
    <path clip-path="url(#p3f373703a2)" d="M 1104.733866 265.072571 
L 1104.733866 265.378447 
L 1112.454649 265.378447 
L 1112.454649 265.072571 
L 1104.733866 265.072571 
" style="fill:#009afa;stroke:#000000;stroke-linejoin:miter;"/>
   </g>
   <g id="patch_143">
    <path clip-path="url(#p3f373703a2)" d="M 1112.454649 265.17453 
L 1112.454649 265.378447 
L 1120.175432 265.378447 
L 1120.175432 265.17453 
L 1112.454649 265.17453 
" style="fill:#009afa;stroke:#000000;stroke-linejoin:miter;"/>
   </g>
   <g id="patch_144">
    <path clip-path="url(#p3f373703a2)" d="M 1120.175432 264.970612 
L 1120.175432 265.378447 
L 1127.896215 265.378447 
L 1127.896215 264.970612 
L 1120.175432 264.970612 
" style="fill:#009afa;stroke:#000000;stroke-linejoin:miter;"/>
   </g>
   <g id="patch_145">
    <path clip-path="url(#p3f373703a2)" d="M 1127.896215 265.225509 
L 1127.896215 265.378447 
L 1135.616998 265.378447 
L 1135.616998 265.225509 
L 1127.896215 265.225509 
" style="fill:#009afa;stroke:#000000;stroke-linejoin:miter;"/>
   </g>
   <g id="patch_146">
    <path clip-path="url(#p3f373703a2)" d="M 1135.616998 265.225509 
L 1135.616998 265.378447 
L 1143.337781 265.378447 
L 1143.337781 265.225509 
L 1135.616998 265.225509 
" style="fill:#009afa;stroke:#000000;stroke-linejoin:miter;"/>
   </g>
   <g id="patch_147">
    <path clip-path="url(#p3f373703a2)" d="M 1143.337781 265.17453 
L 1143.337781 265.378447 
L 1151.058564 265.378447 
L 1151.058564 265.17453 
L 1143.337781 265.17453 
" style="fill:#009afa;stroke:#000000;stroke-linejoin:miter;"/>
   </g>
   <g id="patch_148">
    <path clip-path="url(#p3f373703a2)" d="M 1151.058564 265.123551 
L 1151.058564 265.378447 
L 1158.779347 265.378447 
L 1158.779347 265.123551 
L 1151.058564 265.123551 
" style="fill:#009afa;stroke:#000000;stroke-linejoin:miter;"/>
   </g>
   <g id="patch_149">
    <path clip-path="url(#p3f373703a2)" d="M 1158.779347 265.17453 
L 1158.779347 265.378447 
L 1166.50013 265.378447 
L 1166.50013 265.17453 
L 1158.779347 265.17453 
" style="fill:#009afa;stroke:#000000;stroke-linejoin:miter;"/>
   </g>
   <g id="patch_150">
    <path clip-path="url(#p3f373703a2)" d="M 1166.50013 265.17453 
L 1166.50013 265.378447 
L 1174.220913 265.378447 
L 1174.220913 265.17453 
L 1166.50013 265.17453 
" style="fill:#009afa;stroke:#000000;stroke-linejoin:miter;"/>
   </g>
   <g id="patch_151">
    <path clip-path="url(#p3f373703a2)" d="M 1174.220913 265.17453 
L 1174.220913 265.378447 
L 1181.941696 265.378447 
L 1181.941696 265.17453 
L 1174.220913 265.17453 
" style="fill:#009afa;stroke:#000000;stroke-linejoin:miter;"/>
   </g>
   <g id="patch_152">
    <path clip-path="url(#p3f373703a2)" d="M 1181.941696 265.327468 
L 1181.941696 265.378447 
L 1189.662479 265.378447 
L 1189.662479 265.327468 
L 1181.941696 265.327468 
" style="fill:#009afa;stroke:#000000;stroke-linejoin:miter;"/>
   </g>
   <g id="patch_153">
    <path clip-path="url(#p3f373703a2)" d="M 1189.662479 265.276489 
L 1189.662479 265.378447 
L 1197.383262 265.378447 
L 1197.383262 265.276489 
L 1189.662479 265.276489 
" style="fill:#009afa;stroke:#000000;stroke-linejoin:miter;"/>
   </g>
   <g id="patch_154">
    <path clip-path="url(#p3f373703a2)" d="M 1197.383262 265.378447 
L 1197.383262 265.378447 
L 1205.104045 265.378447 
L 1205.104045 265.378447 
L 1197.383262 265.378447 
" style="fill:#009afa;stroke:#000000;stroke-linejoin:miter;"/>
   </g>
   <g id="patch_155">
    <path clip-path="url(#p3f373703a2)" d="M 1205.104045 265.276489 
L 1205.104045 265.378447 
L 1212.824828 265.378447 
L 1212.824828 265.276489 
L 1205.104045 265.276489 
" style="fill:#009afa;stroke:#000000;stroke-linejoin:miter;"/>
   </g>
   <g id="patch_156">
    <path clip-path="url(#p3f373703a2)" d="M 1212.824828 265.225509 
L 1212.824828 265.378447 
L 1220.545611 265.378447 
L 1220.545611 265.225509 
L 1212.824828 265.225509 
" style="fill:#009afa;stroke:#000000;stroke-linejoin:miter;"/>
   </g>
   <g id="patch_157">
    <path clip-path="url(#p3f373703a2)" d="M 1220.545611 265.276489 
L 1220.545611 265.378447 
L 1228.266394 265.378447 
L 1228.266394 265.276489 
L 1220.545611 265.276489 
" style="fill:#009afa;stroke:#000000;stroke-linejoin:miter;"/>
   </g>
   <g id="patch_158">
    <path clip-path="url(#p3f373703a2)" d="M 1228.266394 265.327468 
L 1228.266394 265.378447 
L 1235.987177 265.378447 
L 1235.987177 265.327468 
L 1228.266394 265.327468 
" style="fill:#009afa;stroke:#000000;stroke-linejoin:miter;"/>
   </g>
   <g id="patch_159">
    <path clip-path="url(#p3f373703a2)" d="M 1235.987177 265.225509 
L 1235.987177 265.378447 
L 1243.70796 265.378447 
L 1243.70796 265.225509 
L 1235.987177 265.225509 
" style="fill:#009afa;stroke:#000000;stroke-linejoin:miter;"/>
   </g>
   <g id="patch_160">
    <path clip-path="url(#p3f373703a2)" d="M 1243.70796 265.327468 
L 1243.70796 265.378447 
L 1251.428743 265.378447 
L 1251.428743 265.327468 
L 1243.70796 265.327468 
" style="fill:#009afa;stroke:#000000;stroke-linejoin:miter;"/>
   </g>
   <g id="patch_161">
    <path clip-path="url(#p3f373703a2)" d="M 1251.428743 265.378447 
L 1251.428743 265.378447 
L 1259.149526 265.378447 
L 1259.149526 265.378447 
L 1251.428743 265.378447 
" style="fill:#009afa;stroke:#000000;stroke-linejoin:miter;"/>
   </g>
   <g id="patch_162">
    <path clip-path="url(#p3f373703a2)" d="M 1259.149526 265.276489 
L 1259.149526 265.378447 
L 1266.870309 265.378447 
L 1266.870309 265.276489 
L 1259.149526 265.276489 
" style="fill:#009afa;stroke:#000000;stroke-linejoin:miter;"/>
   </g>
   <g id="patch_163">
    <path clip-path="url(#p3f373703a2)" d="M 1266.870309 265.378447 
L 1266.870309 265.378447 
L 1274.591092 265.378447 
L 1274.591092 265.378447 
L 1266.870309 265.378447 
" style="fill:#009afa;stroke:#000000;stroke-linejoin:miter;"/>
   </g>
   <g id="patch_164">
    <path clip-path="url(#p3f373703a2)" d="M 1274.591092 265.276489 
L 1274.591092 265.378447 
L 1282.311875 265.378447 
L 1282.311875 265.276489 
L 1274.591092 265.276489 
" style="fill:#009afa;stroke:#000000;stroke-linejoin:miter;"/>
   </g>
   <g id="patch_165">
    <path clip-path="url(#p3f373703a2)" d="M 1282.311875 265.276489 
L 1282.311875 265.378447 
L 1290.032658 265.378447 
L 1290.032658 265.276489 
L 1282.311875 265.276489 
" style="fill:#009afa;stroke:#000000;stroke-linejoin:miter;"/>
   </g>
   <g id="patch_166">
    <path clip-path="url(#p3f373703a2)" d="M 1290.032658 265.225509 
L 1290.032658 265.378447 
L 1297.753441 265.378447 
L 1297.753441 265.225509 
L 1290.032658 265.225509 
" style="fill:#009afa;stroke:#000000;stroke-linejoin:miter;"/>
   </g>
   <g id="patch_167">
    <path clip-path="url(#p3f373703a2)" d="M 1297.753441 265.276489 
L 1297.753441 265.378447 
L 1305.474224 265.378447 
L 1305.474224 265.276489 
L 1297.753441 265.276489 
" style="fill:#009afa;stroke:#000000;stroke-linejoin:miter;"/>
   </g>
   <g id="patch_168">
    <path clip-path="url(#p3f373703a2)" d="M 1305.474224 265.225509 
L 1305.474224 265.378447 
L 1313.195007 265.378447 
L 1313.195007 265.225509 
L 1305.474224 265.225509 
" style="fill:#009afa;stroke:#000000;stroke-linejoin:miter;"/>
   </g>
   <g id="patch_169">
    <path clip-path="url(#p3f373703a2)" d="M 1313.195007 265.327468 
L 1313.195007 265.378447 
L 1320.91579 265.378447 
L 1320.91579 265.327468 
L 1313.195007 265.327468 
" style="fill:#009afa;stroke:#000000;stroke-linejoin:miter;"/>
   </g>
   <g id="patch_170">
    <path clip-path="url(#p3f373703a2)" d="M 1320.91579 265.378447 
L 1320.91579 265.378447 
L 1328.636573 265.378447 
L 1328.636573 265.378447 
L 1320.91579 265.378447 
" style="fill:#009afa;stroke:#000000;stroke-linejoin:miter;"/>
   </g>
   <g id="patch_171">
    <path clip-path="url(#p3f373703a2)" d="M 1328.636573 265.276489 
L 1328.636573 265.378447 
L 1336.357356 265.378447 
L 1336.357356 265.276489 
L 1328.636573 265.276489 
" style="fill:#009afa;stroke:#000000;stroke-linejoin:miter;"/>
   </g>
   <g id="patch_172">
    <path clip-path="url(#p3f373703a2)" d="M 1336.357356 265.378447 
L 1336.357356 265.378447 
L 1344.078139 265.378447 
L 1344.078139 265.378447 
L 1336.357356 265.378447 
" style="fill:#009afa;stroke:#000000;stroke-linejoin:miter;"/>
   </g>
   <g id="patch_173">
    <path clip-path="url(#p3f373703a2)" d="M 1344.078139 265.378447 
L 1344.078139 265.378447 
L 1351.798922 265.378447 
L 1351.798922 265.378447 
L 1344.078139 265.378447 
" style="fill:#009afa;stroke:#000000;stroke-linejoin:miter;"/>
   </g>
   <g id="patch_174">
    <path clip-path="url(#p3f373703a2)" d="M 1351.798922 265.378447 
L 1351.798922 265.378447 
L 1359.519705 265.378447 
L 1359.519705 265.378447 
L 1351.798922 265.378447 
" style="fill:#009afa;stroke:#000000;stroke-linejoin:miter;"/>
   </g>
   <g id="patch_175">
    <path clip-path="url(#p3f373703a2)" d="M 1359.519705 265.378447 
L 1359.519705 265.378447 
L 1367.240488 265.378447 
L 1367.240488 265.378447 
L 1359.519705 265.378447 
" style="fill:#009afa;stroke:#000000;stroke-linejoin:miter;"/>
   </g>
   <g id="patch_176">
    <path clip-path="url(#p3f373703a2)" d="M 1367.240488 265.276489 
L 1367.240488 265.378447 
L 1374.961271 265.378447 
L 1374.961271 265.276489 
L 1367.240488 265.276489 
" style="fill:#009afa;stroke:#000000;stroke-linejoin:miter;"/>
   </g>
   <g id="patch_177">
    <path clip-path="url(#p3f373703a2)" d="M 1374.961271 265.378447 
L 1374.961271 265.378447 
L 1382.682054 265.378447 
L 1382.682054 265.378447 
L 1374.961271 265.378447 
" style="fill:#009afa;stroke:#000000;stroke-linejoin:miter;"/>
   </g>
   <g id="patch_178">
    <path clip-path="url(#p3f373703a2)" d="M 1382.682054 265.378447 
L 1382.682054 265.378447 
L 1390.402837 265.378447 
L 1390.402837 265.378447 
L 1382.682054 265.378447 
" style="fill:#009afa;stroke:#000000;stroke-linejoin:miter;"/>
   </g>
   <g id="patch_179">
    <path clip-path="url(#p3f373703a2)" d="M 1390.402837 265.378447 
L 1390.402837 265.378447 
L 1398.12362 265.378447 
L 1398.12362 265.378447 
L 1390.402837 265.378447 
" style="fill:#009afa;stroke:#000000;stroke-linejoin:miter;"/>
   </g>
   <g id="patch_180">
    <path clip-path="url(#p3f373703a2)" d="M 1398.12362 265.327468 
L 1398.12362 265.378447 
L 1405.844403 265.378447 
L 1405.844403 265.327468 
L 1398.12362 265.327468 
" style="fill:#009afa;stroke:#000000;stroke-linejoin:miter;"/>
   </g>
   <g id="patch_181">
    <path clip-path="url(#p3f373703a2)" d="M 1405.844403 265.378447 
L 1405.844403 265.378447 
L 1413.565186 265.378447 
L 1413.565186 265.378447 
L 1405.844403 265.378447 
" style="fill:#009afa;stroke:#000000;stroke-linejoin:miter;"/>
   </g>
   <g id="patch_182">
    <path clip-path="url(#p3f373703a2)" d="M 1413.565186 265.327468 
L 1413.565186 265.378447 
L 1421.285969 265.378447 
L 1421.285969 265.327468 
L 1413.565186 265.327468 
" style="fill:#009afa;stroke:#000000;stroke-linejoin:miter;"/>
   </g>
   <g id="patch_183">
    <path clip-path="url(#p3f373703a2)" d="M 1421.285969 265.378447 
L 1421.285969 265.378447 
L 1429.006752 265.378447 
L 1429.006752 265.378447 
L 1421.285969 265.378447 
" style="fill:#009afa;stroke:#000000;stroke-linejoin:miter;"/>
   </g>
   <g id="patch_184">
    <path clip-path="url(#p3f373703a2)" d="M 1429.006752 265.378447 
L 1429.006752 265.378447 
L 1436.727534 265.378447 
L 1436.727534 265.378447 
L 1429.006752 265.378447 
" style="fill:#009afa;stroke:#000000;stroke-linejoin:miter;"/>
   </g>
   <g id="patch_185">
    <path clip-path="url(#p3f373703a2)" d="M 1436.727534 265.378447 
L 1436.727534 265.378447 
L 1444.448317 265.378447 
L 1444.448317 265.378447 
L 1436.727534 265.378447 
" style="fill:#009afa;stroke:#000000;stroke-linejoin:miter;"/>
   </g>
   <g id="patch_186">
    <path clip-path="url(#p3f373703a2)" d="M 1444.448317 265.378447 
L 1444.448317 265.378447 
L 1452.1691 265.378447 
L 1452.1691 265.378447 
L 1444.448317 265.378447 
" style="fill:#009afa;stroke:#000000;stroke-linejoin:miter;"/>
   </g>
   <g id="patch_187">
    <path clip-path="url(#p3f373703a2)" d="M 1452.1691 265.378447 
L 1452.1691 265.378447 
L 1459.889883 265.378447 
L 1459.889883 265.378447 
L 1452.1691 265.378447 
" style="fill:#009afa;stroke:#000000;stroke-linejoin:miter;"/>
   </g>
   <g id="patch_188">
    <path clip-path="url(#p3f373703a2)" d="M 1459.889883 265.378447 
L 1459.889883 265.378447 
L 1467.610666 265.378447 
L 1467.610666 265.378447 
L 1459.889883 265.378447 
" style="fill:#009afa;stroke:#000000;stroke-linejoin:miter;"/>
   </g>
   <g id="patch_189">
    <path clip-path="url(#p3f373703a2)" d="M 1467.610666 265.378447 
L 1467.610666 265.378447 
L 1475.331449 265.378447 
L 1475.331449 265.378447 
L 1467.610666 265.378447 
" style="fill:#009afa;stroke:#000000;stroke-linejoin:miter;"/>
   </g>
   <g id="patch_190">
    <path clip-path="url(#p3f373703a2)" d="M 1475.331449 265.327468 
L 1475.331449 265.378447 
L 1483.052232 265.378447 
L 1483.052232 265.327468 
L 1475.331449 265.327468 
" style="fill:#009afa;stroke:#000000;stroke-linejoin:miter;"/>
   </g>
   <g id="patch_191">
    <path clip-path="url(#p3f373703a2)" d="M 1483.052232 265.378447 
L 1483.052232 265.378447 
L 1490.773015 265.378447 
L 1490.773015 265.378447 
L 1483.052232 265.378447 
" style="fill:#009afa;stroke:#000000;stroke-linejoin:miter;"/>
   </g>
   <g id="patch_192">
    <path clip-path="url(#p3f373703a2)" d="M 1490.773015 265.378447 
L 1490.773015 265.378447 
L 1498.493798 265.378447 
L 1498.493798 265.378447 
L 1490.773015 265.378447 
" style="fill:#009afa;stroke:#000000;stroke-linejoin:miter;"/>
   </g>
   <g id="patch_193">
    <path clip-path="url(#p3f373703a2)" d="M 1498.493798 265.327468 
L 1498.493798 265.378447 
L 1506.214581 265.378447 
L 1506.214581 265.327468 
L 1498.493798 265.327468 
" style="fill:#009afa;stroke:#000000;stroke-linejoin:miter;"/>
   </g>
   <g id="patch_194">
    <path clip-path="url(#p3f373703a2)" d="M 1506.214581 265.327468 
L 1506.214581 265.378447 
L 1513.935364 265.378447 
L 1513.935364 265.327468 
L 1506.214581 265.327468 
" style="fill:#009afa;stroke:#000000;stroke-linejoin:miter;"/>
   </g>
   <g id="patch_195">
    <path clip-path="url(#p3f373703a2)" d="M 1513.935364 265.378447 
L 1513.935364 265.378447 
L 1521.656147 265.378447 
L 1521.656147 265.378447 
L 1513.935364 265.378447 
" style="fill:#009afa;stroke:#000000;stroke-linejoin:miter;"/>
   </g>
   <g id="patch_196">
    <path clip-path="url(#p3f373703a2)" d="M 1521.656147 265.378447 
L 1521.656147 265.378447 
L 1529.37693 265.378447 
L 1529.37693 265.378447 
L 1521.656147 265.378447 
" style="fill:#009afa;stroke:#000000;stroke-linejoin:miter;"/>
   </g>
   <g id="patch_197">
    <path clip-path="url(#p3f373703a2)" d="M 1529.37693 265.378447 
L 1529.37693 265.378447 
L 1537.097713 265.378447 
L 1537.097713 265.378447 
L 1529.37693 265.378447 
" style="fill:#009afa;stroke:#000000;stroke-linejoin:miter;"/>
   </g>
   <g id="patch_198">
    <path clip-path="url(#p3f373703a2)" d="M 1537.097713 265.378447 
L 1537.097713 265.378447 
L 1544.818496 265.378447 
L 1544.818496 265.378447 
L 1537.097713 265.378447 
" style="fill:#009afa;stroke:#000000;stroke-linejoin:miter;"/>
   </g>
   <g id="patch_199">
    <path clip-path="url(#p3f373703a2)" d="M 1544.818496 265.378447 
L 1544.818496 265.378447 
L 1552.539279 265.378447 
L 1552.539279 265.378447 
L 1544.818496 265.378447 
" style="fill:#009afa;stroke:#000000;stroke-linejoin:miter;"/>
   </g>
   <g id="patch_200">
    <path clip-path="url(#p3f373703a2)" d="M 1552.539279 265.378447 
L 1552.539279 265.378447 
L 1560.260062 265.378447 
L 1560.260062 265.378447 
L 1552.539279 265.378447 
" style="fill:#009afa;stroke:#000000;stroke-linejoin:miter;"/>
   </g>
   <g id="patch_201">
    <path clip-path="url(#p3f373703a2)" d="M 1560.260062 265.378447 
L 1560.260062 265.378447 
L 1567.980845 265.378447 
L 1567.980845 265.378447 
L 1560.260062 265.378447 
" style="fill:#009afa;stroke:#000000;stroke-linejoin:miter;"/>
   </g>
   <g id="patch_202">
    <path clip-path="url(#p3f373703a2)" d="M 1567.980845 265.378447 
L 1567.980845 265.378447 
L 1575.701628 265.378447 
L 1575.701628 265.378447 
L 1567.980845 265.378447 
" style="fill:#009afa;stroke:#000000;stroke-linejoin:miter;"/>
   </g>
   <g id="patch_203">
    <path clip-path="url(#p3f373703a2)" d="M 1575.701628 265.378447 
L 1575.701628 265.378447 
L 1583.422411 265.378447 
L 1583.422411 265.378447 
L 1575.701628 265.378447 
" style="fill:#009afa;stroke:#000000;stroke-linejoin:miter;"/>
   </g>
   <g id="patch_204">
    <path clip-path="url(#p3f373703a2)" d="M 1583.422411 265.378447 
L 1583.422411 265.378447 
L 1591.143194 265.378447 
L 1591.143194 265.378447 
L 1583.422411 265.378447 
" style="fill:#009afa;stroke:#000000;stroke-linejoin:miter;"/>
   </g>
   <g id="patch_205">
    <path clip-path="url(#p3f373703a2)" d="M 1591.143194 265.378447 
L 1591.143194 265.378447 
L 1598.863977 265.378447 
L 1598.863977 265.378447 
L 1591.143194 265.378447 
" style="fill:#009afa;stroke:#000000;stroke-linejoin:miter;"/>
   </g>
   <g id="patch_206">
    <path clip-path="url(#p3f373703a2)" d="M 1598.863977 265.378447 
L 1598.863977 265.378447 
L 1606.58476 265.378447 
L 1606.58476 265.378447 
L 1598.863977 265.378447 
" style="fill:#009afa;stroke:#000000;stroke-linejoin:miter;"/>
   </g>
   <g id="patch_207">
    <path clip-path="url(#p3f373703a2)" d="M 1606.58476 265.327468 
L 1606.58476 265.378447 
L 1614.305543 265.378447 
L 1614.305543 265.327468 
L 1606.58476 265.327468 
" style="fill:#009afa;stroke:#000000;stroke-linejoin:miter;"/>
   </g>
   <g id="line2d_25">
    <path clip-path="url(#p3f373703a2)" d="M 32.317109 11.752856 
L 33.869064 14.289154 
L 35.421019 16.800089 
L 36.972975 19.285915 
L 38.52493 21.746881 
L 40.076886 24.183238 
L 41.628841 26.59523 
L 43.180796 28.983102 
L 44.732752 31.347095 
L 46.284707 33.687448 
L 47.836662 36.004397 
L 49.388618 38.298176 
L 50.940573 40.569017 
L 52.492528 42.817149 
L 54.044484 45.042799 
L 55.596439 47.246192 
L 57.148395 49.427551 
L 58.70035 51.587096 
L 60.252305 53.725046 
L 61.804261 55.841615 
L 63.356216 57.937019 
L 64.908171 60.011468 
L 66.460127 62.065172 
L 68.012082 64.098339 
L 69.564038 66.111174 
L 71.115993 68.10388 
L 72.667948 70.076658 
L 74.219904 72.029709 
L 75.771859 73.963229 
L 77.323814 75.877413 
L 78.87577 77.772455 
L 80.427725 79.648546 
L 81.97968 81.505877 
L 83.531636 83.344633 
L 85.083591 85.165002 
L 86.635547 86.967166 
L 88.187502 88.751309 
L 89.739457 90.51761 
L 91.291413 92.266248 
L 92.843368 93.997399 
L 94.395323 95.711238 
L 95.947279 97.407938 
L 97.499234 99.087672 
L 99.05119 100.750607 
L 100.603145 102.396913 
L 102.1551 104.026756 
L 103.707056 105.6403 
L 105.259011 107.237708 
L 106.810966 108.819142 
L 108.362922 110.384761 
L 109.914877 111.934724 
L 111.466832 113.469187 
L 113.018788 114.988305 
L 114.570743 116.492232 
L 116.122699 117.981119 
L 117.674654 119.455117 
L 119.226609 120.914374 
L 120.778565 122.359039 
L 122.33052 123.789257 
L 123.882475 125.205173 
L 125.434431 126.606929 
L 126.986386 127.994668 
L 128.538342 129.368528 
L 130.090297 130.72865 
L 131.642252 132.075171 
L 133.194208 133.408226 
L 134.746163 134.72795 
L 136.298118 136.034477 
L 137.850074 137.327939 
L 139.402029 138.608465 
L 140.953984 139.876186 
L 142.50594 141.13123 
L 144.057895 142.373723 
L 145.609851 143.603791 
L 147.161806 144.821558 
L 148.713761 146.027147 
L 150.265717 147.22068 
L 151.817672 148.402277 
L 153.369627 149.572059 
L 154.921583 150.730142 
L 156.473538 151.876644 
L 158.025494 153.011681 
L 159.577449 154.135368 
L 161.129404 155.247817 
L 162.68136 156.349142 
L 164.233315 157.439453 
L 165.78527 158.518861 
L 167.337226 159.587475 
L 168.889181 160.645402 
L 170.441136 161.69275 
L 171.993092 162.729625 
L 173.545047 163.75613 
L 175.097003 164.77237 
L 176.648958 165.778448 
L 178.200913 166.774465 
L 179.752869 167.760521 
L 181.304824 168.736717 
L 182.856779 169.70315 
L 184.408735 170.659919 
L 185.96069 171.60712 
" style="fill:none;stroke:#e36f47;"/>
   </g>
   <g id="patch_208">
    <path d="M 19.963856 273.025354 
L 19.963856 2.834646 
" style="fill:none;stroke:#000000;stroke-linecap:square;stroke-linejoin:miter;"/>
   </g>
   <g id="patch_209">
    <path d="M 19.963856 273.025354 
L 429.165354 273.025354 
" style="fill:none;stroke:#000000;stroke-linecap:square;stroke-linejoin:miter;"/>
   </g>
   <g id="line2d_26">
    <path clip-path="url(#p3f373703a2)" d="M 32.317109 11.752856 
L 33.869064 14.289154 
L 35.421019 16.800089 
L 36.972975 19.285915 
L 38.52493 21.746881 
L 40.076886 24.183238 
L 41.628841 26.59523 
L 43.180796 28.983102 
L 44.732752 31.347095 
L 46.284707 33.687448 
L 47.836662 36.004397 
L 49.388618 38.298176 
L 50.940573 40.569017 
L 52.492528 42.817149 
L 54.044484 45.042799 
L 55.596439 47.246192 
L 57.148395 49.427551 
L 58.70035 51.587096 
L 60.252305 53.725046 
L 61.804261 55.841615 
L 63.356216 57.937019 
L 64.908171 60.011468 
L 66.460127 62.065172 
L 68.012082 64.098339 
L 69.564038 66.111174 
L 71.115993 68.10388 
L 72.667948 70.076658 
L 74.219904 72.029709 
L 75.771859 73.963229 
L 77.323814 75.877413 
L 78.87577 77.772455 
L 80.427725 79.648546 
L 81.97968 81.505877 
L 83.531636 83.344633 
L 85.083591 85.165002 
L 86.635547 86.967166 
L 88.187502 88.751309 
L 89.739457 90.51761 
L 91.291413 92.266248 
L 92.843368 93.997399 
L 94.395323 95.711238 
L 95.947279 97.407938 
L 97.499234 99.087672 
L 99.05119 100.750607 
L 100.603145 102.396913 
L 102.1551 104.026756 
L 103.707056 105.6403 
L 105.259011 107.237708 
L 106.810966 108.819142 
L 108.362922 110.384761 
L 109.914877 111.934724 
L 111.466832 113.469187 
L 113.018788 114.988305 
L 114.570743 116.492232 
L 116.122699 117.981119 
L 117.674654 119.455117 
L 119.226609 120.914374 
L 120.778565 122.359039 
L 122.33052 123.789257 
L 123.882475 125.205173 
L 125.434431 126.606929 
L 126.986386 127.994668 
L 128.538342 129.368528 
L 130.090297 130.72865 
L 131.642252 132.075171 
L 133.194208 133.408226 
L 134.746163 134.72795 
L 136.298118 136.034477 
L 137.850074 137.327939 
L 139.402029 138.608465 
L 140.953984 139.876186 
L 142.50594 141.13123 
L 144.057895 142.373723 
L 145.609851 143.603791 
L 147.161806 144.821558 
L 148.713761 146.027147 
L 150.265717 147.22068 
L 151.817672 148.402277 
L 153.369627 149.572059 
L 154.921583 150.730142 
L 156.473538 151.876644 
L 158.025494 153.011681 
L 159.577449 154.135368 
L 161.129404 155.247817 
L 162.68136 156.349142 
L 164.233315 157.439453 
L 165.78527 158.518861 
L 167.337226 159.587475 
L 168.889181 160.645402 
L 170.441136 161.69275 
L 171.993092 162.729625 
L 173.545047 163.75613 
L 175.097003 164.77237 
L 176.648958 165.778448 
L 178.200913 166.774465 
L 179.752869 167.760521 
L 181.304824 168.736717 
L 182.856779 169.70315 
L 184.408735 170.659919 
L 185.96069 171.60712 
" style="fill:none;stroke:#3ea44e;stroke-dasharray:3.7,1.6;stroke-dashoffset:0;"/>
   </g>
   <g id="legend_1">
    <g id="patch_210">
     <path d="M 361.085354 52.079646 
L 425.165354 52.079646 
L 425.165354 6.834646 
L 361.085354 6.834646 
z
" style="fill:#ffffff;stroke:#000000;stroke-linejoin:miter;"/>
    </g>
    <g id="patch_211">
     <path d="M 367.485354 19.313396 
L 383.485354 19.313396 
L 383.485354 13.713396 
L 367.485354 13.713396 
z
" style="fill:#009afa;stroke:#000000;stroke-linejoin:miter;"/>
    </g>
    <g id="text_13">
     <!-- $X^2+Y^2$ -->
     <defs>
      <path d="M 13.71875 72.90625 
L 23.6875 72.90625 
L 36.1875 46.578125 
L 58.796875 72.90625 
L 70.3125 72.90625 
L 40.28125 38.09375 
L 58.40625 0 
L 48.484375 0 
L 33.796875 30.71875 
L 7.171875 0 
L -4.296875 0 
L 29.78125 39.203125 
z
" id="DejaVuSans-Oblique-88"/>
      <path d="M 46 62.703125 
L 46 35.5 
L 73.1875 35.5 
L 73.1875 27.203125 
L 46 27.203125 
L 46 0 
L 37.796875 0 
L 37.796875 27.203125 
L 10.59375 27.203125 
L 10.59375 35.5 
L 37.796875 35.5 
L 37.796875 62.703125 
z
" id="DejaVuSans-43"/>
      <path d="M 6.296875 72.90625 
L 16.890625 72.90625 
L 30.515625 42.921875 
L 56.5 72.90625 
L 67.578125 72.90625 
L 34.515625 34.71875 
L 27.78125 0 
L 17.921875 0 
L 24.609375 34.71875 
z
" id="DejaVuSans-Oblique-89"/>
     </defs>
     <g transform="translate(389.885354 19.313396)scale(0.08 -0.08)">
      <use transform="translate(0 0.765625)" xlink:href="#DejaVuSans-Oblique-88"/>
      <use transform="translate(75.52263 39.046875)scale(0.7)" xlink:href="#DejaVuSans-50"/>
      <use transform="translate(142.27556 0.765625)" xlink:href="#DejaVuSans-43"/>
      <use transform="translate(245.547044 0.765625)" xlink:href="#DejaVuSans-Oblique-89"/>
      <use transform="translate(313.647799 39.046875)scale(0.7)" xlink:href="#DejaVuSans-50"/>
     </g>
    </g>
    <g id="line2d_27">
     <path d="M 367.485354 28.255896 
L 383.485354 28.255896 
" style="fill:none;stroke:#e36f47;stroke-linejoin:miter;"/>
    </g>
    <g id="line2d_28"/>
    <g id="text_14">
     <!-- $T_3$ -->
     <defs>
      <path d="M 5.90625 72.90625 
L 67.578125 72.90625 
L 66.015625 64.59375 
L 39.984375 64.59375 
L 27.484375 0 
L 17.578125 0 
L 30.078125 64.59375 
L 4.296875 64.59375 
z
" id="DejaVuSans-Oblique-84"/>
     </defs>
     <g transform="translate(389.885354 31.055896)scale(0.08 -0.08)">
      <use transform="translate(0 0.09375)" xlink:href="#DejaVuSans-Oblique-84"/>
      <use transform="translate(61.083984 -16.3125)scale(0.7)" xlink:href="#DejaVuSans-51"/>
     </g>
    </g>
    <g id="line2d_29">
     <path d="M 367.485354 41.199646 
L 383.485354 41.199646 
" style="fill:none;stroke:#3ea44e;stroke-dasharray:3.7,1.6;stroke-dashoffset:0;stroke-linejoin:miter;"/>
    </g>
    <g id="line2d_30"/>
    <g id="text_15">
     <!-- $\chi^2(2)$ -->
     <defs>
      <path d="M 30.03125 -12.203125 
L 26.421875 6.5 
L 6.15625 -20.84375 
L -4.4375 -20.84375 
L 24.265625 17.828125 
L 19.828125 40.828125 
Q 18.65625 46.96875 11.140625 46.96875 
L 8.734375 46.96875 
L 10.203125 54.6875 
L 13.625 54.59375 
Q 26.171875 54.25 27.734375 46.09375 
L 31.34375 27.390625 
L 51.609375 54.734375 
L 62.203125 54.734375 
L 33.5 16.0625 
L 37.9375 -6.9375 
Q 39.109375 -13.09375 46.625 -13.09375 
L 49.03125 -13.09375 
L 47.5625 -20.796875 
L 44.140625 -20.703125 
Q 31.59375 -20.359375 30.03125 -12.203125 
z
" id="DejaVuSans-Oblique-967"/>
      <path d="M 31 75.875 
Q 24.46875 64.65625 21.28125 53.65625 
Q 18.109375 42.671875 18.109375 31.390625 
Q 18.109375 20.125 21.3125 9.0625 
Q 24.515625 -2 31 -13.1875 
L 23.1875 -13.1875 
Q 15.875 -1.703125 12.234375 9.375 
Q 8.59375 20.453125 8.59375 31.390625 
Q 8.59375 42.28125 12.203125 53.3125 
Q 15.828125 64.359375 23.1875 75.875 
z
" id="DejaVuSans-40"/>
      <path d="M 8.015625 75.875 
L 15.828125 75.875 
Q 23.140625 64.359375 26.78125 53.3125 
Q 30.421875 42.28125 30.421875 31.390625 
Q 30.421875 20.453125 26.78125 9.375 
Q 23.140625 -1.703125 15.828125 -13.1875 
L 8.015625 -13.1875 
Q 14.5 -2 17.703125 9.0625 
Q 20.90625 20.125 20.90625 31.390625 
Q 20.90625 42.671875 17.703125 53.65625 
Q 14.5 64.65625 8.015625 75.875 
z
" id="DejaVuSans-41"/>
     </defs>
     <g transform="translate(389.885354 43.999646)scale(0.08 -0.08)">
      <use transform="translate(0 0.765625)" xlink:href="#DejaVuSans-Oblique-967"/>
      <use transform="translate(63.652396 39.046875)scale(0.7)" xlink:href="#DejaVuSans-50"/>
      <use transform="translate(110.922904 0.765625)" xlink:href="#DejaVuSans-40"/>
      <use transform="translate(149.936576 0.765625)" xlink:href="#DejaVuSans-50"/>
      <use transform="translate(213.559622 0.765625)" xlink:href="#DejaVuSans-41"/>
     </g>
    </g>
   </g>
  </g>
 </g>
 <defs>
  <clipPath id="p3f373703a2">
   <rect height="270.190709" width="409.201498" x="19.963856" y="2.834646"/>
  </clipPath>
 </defs>
</svg>
