<?xml version="1.0" encoding="utf-8" standalone="no"?>
<!DOCTYPE svg PUBLIC "-//W3C//DTD SVG 1.1//EN"
  "http://www.w3.org/Graphics/SVG/1.1/DTD/svg11.dtd">
<!-- Created with matplotlib (https://matplotlib.org/) -->
<svg height="288pt" version="1.1" viewBox="0 0 432 288" width="432pt" xmlns="http://www.w3.org/2000/svg" xmlns:xlink="http://www.w3.org/1999/xlink">
 <defs>
  <style type="text/css">
*{stroke-linecap:butt;stroke-linejoin:round;}
  </style>
 </defs>
 <g id="figure_1">
  <g id="patch_1">
   <path d="M 0 288 
L 432 288 
L 432 0 
L 0 0 
z
" style="fill:#ffffff;"/>
  </g>
  <g id="axes_1">
   <g id="patch_2">
    <path d="M 19.114646 274.465354 
L 429.165354 274.465354 
L 429.165354 2.834646 
L 19.114646 2.834646 
z
" style="fill:#ffffff;"/>
   </g>
   <g id="matplotlib.axis_1">
    <g id="xtick_1">
     <g id="line2d_1">
      <path clip-path="url(#p2501146e46)" d="M 30.719854 274.465354 
L 30.719854 2.834646 
" style="fill:none;stroke:#000000;stroke-linecap:square;stroke-opacity:0.1;stroke-width:0.5;"/>
     </g>
     <g id="line2d_2">
      <defs>
       <path d="M 0 0 
L 0 -3.5 
" id="m4ef7801a6f" style="stroke:#000000;stroke-width:0.5;"/>
      </defs>
      <g>
       <use style="stroke:#000000;stroke-width:0.5;" x="30.719854" xlink:href="#m4ef7801a6f" y="274.465354"/>
      </g>
     </g>
     <g id="text_1">
      <!-- 0 -->
      <defs>
       <path d="M 31.78125 66.40625 
Q 24.171875 66.40625 20.328125 58.90625 
Q 16.5 51.421875 16.5 36.375 
Q 16.5 21.390625 20.328125 13.890625 
Q 24.171875 6.390625 31.78125 6.390625 
Q 39.453125 6.390625 43.28125 13.890625 
Q 47.125 21.390625 47.125 36.375 
Q 47.125 51.421875 43.28125 58.90625 
Q 39.453125 66.40625 31.78125 66.40625 
z
M 31.78125 74.21875 
Q 44.046875 74.21875 50.515625 64.515625 
Q 56.984375 54.828125 56.984375 36.375 
Q 56.984375 17.96875 50.515625 8.265625 
Q 44.046875 -1.421875 31.78125 -1.421875 
Q 19.53125 -1.421875 13.0625 8.265625 
Q 6.59375 17.96875 6.59375 36.375 
Q 6.59375 54.828125 13.0625 64.515625 
Q 19.53125 74.21875 31.78125 74.21875 
z
" id="DejaVuSans-48"/>
      </defs>
      <g transform="translate(28.174854 284.044104)scale(0.08 -0.08)">
       <use xlink:href="#DejaVuSans-48"/>
      </g>
     </g>
    </g>
    <g id="xtick_2">
     <g id="line2d_3">
      <path clip-path="url(#p2501146e46)" d="M 108.087913 274.465354 
L 108.087913 2.834646 
" style="fill:none;stroke:#000000;stroke-linecap:square;stroke-opacity:0.1;stroke-width:0.5;"/>
     </g>
     <g id="line2d_4">
      <g>
       <use style="stroke:#000000;stroke-width:0.5;" x="108.087913" xlink:href="#m4ef7801a6f" y="274.465354"/>
      </g>
     </g>
     <g id="text_2">
      <!-- 1 -->
      <defs>
       <path d="M 12.40625 8.296875 
L 28.515625 8.296875 
L 28.515625 63.921875 
L 10.984375 60.40625 
L 10.984375 69.390625 
L 28.421875 72.90625 
L 38.28125 72.90625 
L 38.28125 8.296875 
L 54.390625 8.296875 
L 54.390625 0 
L 12.40625 0 
z
" id="DejaVuSans-49"/>
      </defs>
      <g transform="translate(105.542913 284.044104)scale(0.08 -0.08)">
       <use xlink:href="#DejaVuSans-49"/>
      </g>
     </g>
    </g>
    <g id="xtick_3">
     <g id="line2d_5">
      <path clip-path="url(#p2501146e46)" d="M 185.455971 274.465354 
L 185.455971 2.834646 
" style="fill:none;stroke:#000000;stroke-linecap:square;stroke-opacity:0.1;stroke-width:0.5;"/>
     </g>
     <g id="line2d_6">
      <g>
       <use style="stroke:#000000;stroke-width:0.5;" x="185.455971" xlink:href="#m4ef7801a6f" y="274.465354"/>
      </g>
     </g>
     <g id="text_3">
      <!-- 2 -->
      <defs>
       <path d="M 19.1875 8.296875 
L 53.609375 8.296875 
L 53.609375 0 
L 7.328125 0 
L 7.328125 8.296875 
Q 12.9375 14.109375 22.625 23.890625 
Q 32.328125 33.6875 34.8125 36.53125 
Q 39.546875 41.84375 41.421875 45.53125 
Q 43.3125 49.21875 43.3125 52.78125 
Q 43.3125 58.59375 39.234375 62.25 
Q 35.15625 65.921875 28.609375 65.921875 
Q 23.96875 65.921875 18.8125 64.3125 
Q 13.671875 62.703125 7.8125 59.421875 
L 7.8125 69.390625 
Q 13.765625 71.78125 18.9375 73 
Q 24.125 74.21875 28.421875 74.21875 
Q 39.75 74.21875 46.484375 68.546875 
Q 53.21875 62.890625 53.21875 53.421875 
Q 53.21875 48.921875 51.53125 44.890625 
Q 49.859375 40.875 45.40625 35.40625 
Q 44.1875 33.984375 37.640625 27.21875 
Q 31.109375 20.453125 19.1875 8.296875 
z
" id="DejaVuSans-50"/>
      </defs>
      <g transform="translate(182.910971 284.044104)scale(0.08 -0.08)">
       <use xlink:href="#DejaVuSans-50"/>
      </g>
     </g>
    </g>
    <g id="xtick_4">
     <g id="line2d_7">
      <path clip-path="url(#p2501146e46)" d="M 262.824029 274.465354 
L 262.824029 2.834646 
" style="fill:none;stroke:#000000;stroke-linecap:square;stroke-opacity:0.1;stroke-width:0.5;"/>
     </g>
     <g id="line2d_8">
      <g>
       <use style="stroke:#000000;stroke-width:0.5;" x="262.824029" xlink:href="#m4ef7801a6f" y="274.465354"/>
      </g>
     </g>
     <g id="text_4">
      <!-- 3 -->
      <defs>
       <path d="M 40.578125 39.3125 
Q 47.65625 37.796875 51.625 33 
Q 55.609375 28.21875 55.609375 21.1875 
Q 55.609375 10.40625 48.1875 4.484375 
Q 40.765625 -1.421875 27.09375 -1.421875 
Q 22.515625 -1.421875 17.65625 -0.515625 
Q 12.796875 0.390625 7.625 2.203125 
L 7.625 11.71875 
Q 11.71875 9.328125 16.59375 8.109375 
Q 21.484375 6.890625 26.8125 6.890625 
Q 36.078125 6.890625 40.9375 10.546875 
Q 45.796875 14.203125 45.796875 21.1875 
Q 45.796875 27.640625 41.28125 31.265625 
Q 36.765625 34.90625 28.71875 34.90625 
L 20.21875 34.90625 
L 20.21875 43.015625 
L 29.109375 43.015625 
Q 36.375 43.015625 40.234375 45.921875 
Q 44.09375 48.828125 44.09375 54.296875 
Q 44.09375 59.90625 40.109375 62.90625 
Q 36.140625 65.921875 28.71875 65.921875 
Q 24.65625 65.921875 20.015625 65.03125 
Q 15.375 64.15625 9.8125 62.3125 
L 9.8125 71.09375 
Q 15.4375 72.65625 20.34375 73.4375 
Q 25.25 74.21875 29.59375 74.21875 
Q 40.828125 74.21875 47.359375 69.109375 
Q 53.90625 64.015625 53.90625 55.328125 
Q 53.90625 49.265625 50.4375 45.09375 
Q 46.96875 40.921875 40.578125 39.3125 
z
" id="DejaVuSans-51"/>
      </defs>
      <g transform="translate(260.279029 284.044104)scale(0.08 -0.08)">
       <use xlink:href="#DejaVuSans-51"/>
      </g>
     </g>
    </g>
    <g id="xtick_5">
     <g id="line2d_9">
      <path clip-path="url(#p2501146e46)" d="M 340.192087 274.465354 
L 340.192087 2.834646 
" style="fill:none;stroke:#000000;stroke-linecap:square;stroke-opacity:0.1;stroke-width:0.5;"/>
     </g>
     <g id="line2d_10">
      <g>
       <use style="stroke:#000000;stroke-width:0.5;" x="340.192087" xlink:href="#m4ef7801a6f" y="274.465354"/>
      </g>
     </g>
     <g id="text_5">
      <!-- 4 -->
      <defs>
       <path d="M 37.796875 64.3125 
L 12.890625 25.390625 
L 37.796875 25.390625 
z
M 35.203125 72.90625 
L 47.609375 72.90625 
L 47.609375 25.390625 
L 58.015625 25.390625 
L 58.015625 17.1875 
L 47.609375 17.1875 
L 47.609375 0 
L 37.796875 0 
L 37.796875 17.1875 
L 4.890625 17.1875 
L 4.890625 26.703125 
z
" id="DejaVuSans-52"/>
      </defs>
      <g transform="translate(337.647087 284.044104)scale(0.08 -0.08)">
       <use xlink:href="#DejaVuSans-52"/>
      </g>
     </g>
    </g>
    <g id="xtick_6">
     <g id="line2d_11">
      <path clip-path="url(#p2501146e46)" d="M 417.560146 274.465354 
L 417.560146 2.834646 
" style="fill:none;stroke:#000000;stroke-linecap:square;stroke-opacity:0.1;stroke-width:0.5;"/>
     </g>
     <g id="line2d_12">
      <g>
       <use style="stroke:#000000;stroke-width:0.5;" x="417.560146" xlink:href="#m4ef7801a6f" y="274.465354"/>
      </g>
     </g>
     <g id="text_6">
      <!-- 5 -->
      <defs>
       <path d="M 10.796875 72.90625 
L 49.515625 72.90625 
L 49.515625 64.59375 
L 19.828125 64.59375 
L 19.828125 46.734375 
Q 21.96875 47.46875 24.109375 47.828125 
Q 26.265625 48.1875 28.421875 48.1875 
Q 40.625 48.1875 47.75 41.5 
Q 54.890625 34.8125 54.890625 23.390625 
Q 54.890625 11.625 47.5625 5.09375 
Q 40.234375 -1.421875 26.90625 -1.421875 
Q 22.3125 -1.421875 17.546875 -0.640625 
Q 12.796875 0.140625 7.71875 1.703125 
L 7.71875 11.625 
Q 12.109375 9.234375 16.796875 8.0625 
Q 21.484375 6.890625 26.703125 6.890625 
Q 35.15625 6.890625 40.078125 11.328125 
Q 45.015625 15.765625 45.015625 23.390625 
Q 45.015625 31 40.078125 35.4375 
Q 35.15625 39.890625 26.703125 39.890625 
Q 22.75 39.890625 18.8125 39.015625 
Q 14.890625 38.140625 10.796875 36.28125 
z
" id="DejaVuSans-53"/>
      </defs>
      <g transform="translate(415.015146 284.044104)scale(0.08 -0.08)">
       <use xlink:href="#DejaVuSans-53"/>
      </g>
     </g>
    </g>
   </g>
   <g id="matplotlib.axis_2">
    <g id="ytick_1">
     <g id="line2d_13">
      <path clip-path="url(#p2501146e46)" d="M 19.114646 266.777693 
L 429.165354 266.777693 
" style="fill:none;stroke:#000000;stroke-linecap:square;stroke-opacity:0.1;stroke-width:0.5;"/>
     </g>
     <g id="line2d_14">
      <defs>
       <path d="M 0 0 
L 3.5 0 
" id="mc1a27ed73f" style="stroke:#000000;stroke-width:0.5;"/>
      </defs>
      <g>
       <use style="stroke:#000000;stroke-width:0.5;" x="19.114646" xlink:href="#mc1a27ed73f" y="266.777693"/>
      </g>
     </g>
     <g id="text_7">
      <!-- 0.0 -->
      <defs>
       <path d="M 10.6875 12.40625 
L 21 12.40625 
L 21 0 
L 10.6875 0 
z
" id="DejaVuSans-46"/>
      </defs>
      <g transform="translate(2.892146 269.817068)scale(0.08 -0.08)">
       <use xlink:href="#DejaVuSans-48"/>
       <use x="63.623047" xlink:href="#DejaVuSans-46"/>
       <use x="95.410156" xlink:href="#DejaVuSans-48"/>
      </g>
     </g>
    </g>
    <g id="ytick_2">
     <g id="line2d_15">
      <path clip-path="url(#p2501146e46)" d="M 19.114646 215.526616 
L 429.165354 215.526616 
" style="fill:none;stroke:#000000;stroke-linecap:square;stroke-opacity:0.1;stroke-width:0.5;"/>
     </g>
     <g id="line2d_16">
      <g>
       <use style="stroke:#000000;stroke-width:0.5;" x="19.114646" xlink:href="#mc1a27ed73f" y="215.526616"/>
      </g>
     </g>
     <g id="text_8">
      <!-- 0.1 -->
      <g transform="translate(2.892146 218.565991)scale(0.08 -0.08)">
       <use xlink:href="#DejaVuSans-48"/>
       <use x="63.623047" xlink:href="#DejaVuSans-46"/>
       <use x="95.410156" xlink:href="#DejaVuSans-49"/>
      </g>
     </g>
    </g>
    <g id="ytick_3">
     <g id="line2d_17">
      <path clip-path="url(#p2501146e46)" d="M 19.114646 164.275539 
L 429.165354 164.275539 
" style="fill:none;stroke:#000000;stroke-linecap:square;stroke-opacity:0.1;stroke-width:0.5;"/>
     </g>
     <g id="line2d_18">
      <g>
       <use style="stroke:#000000;stroke-width:0.5;" x="19.114646" xlink:href="#mc1a27ed73f" y="164.275539"/>
      </g>
     </g>
     <g id="text_9">
      <!-- 0.2 -->
      <g transform="translate(2.892146 167.314914)scale(0.08 -0.08)">
       <use xlink:href="#DejaVuSans-48"/>
       <use x="63.623047" xlink:href="#DejaVuSans-46"/>
       <use x="95.410156" xlink:href="#DejaVuSans-50"/>
      </g>
     </g>
    </g>
    <g id="ytick_4">
     <g id="line2d_19">
      <path clip-path="url(#p2501146e46)" d="M 19.114646 113.024461 
L 429.165354 113.024461 
" style="fill:none;stroke:#000000;stroke-linecap:square;stroke-opacity:0.1;stroke-width:0.5;"/>
     </g>
     <g id="line2d_20">
      <g>
       <use style="stroke:#000000;stroke-width:0.5;" x="19.114646" xlink:href="#mc1a27ed73f" y="113.024461"/>
      </g>
     </g>
     <g id="text_10">
      <!-- 0.3 -->
      <g transform="translate(2.892146 116.063836)scale(0.08 -0.08)">
       <use xlink:href="#DejaVuSans-48"/>
       <use x="63.623047" xlink:href="#DejaVuSans-46"/>
       <use x="95.410156" xlink:href="#DejaVuSans-51"/>
      </g>
     </g>
    </g>
    <g id="ytick_5">
     <g id="line2d_21">
      <path clip-path="url(#p2501146e46)" d="M 19.114646 61.773384 
L 429.165354 61.773384 
" style="fill:none;stroke:#000000;stroke-linecap:square;stroke-opacity:0.1;stroke-width:0.5;"/>
     </g>
     <g id="line2d_22">
      <g>
       <use style="stroke:#000000;stroke-width:0.5;" x="19.114646" xlink:href="#mc1a27ed73f" y="61.773384"/>
      </g>
     </g>
     <g id="text_11">
      <!-- 0.4 -->
      <g transform="translate(2.892146 64.812759)scale(0.08 -0.08)">
       <use xlink:href="#DejaVuSans-48"/>
       <use x="63.623047" xlink:href="#DejaVuSans-46"/>
       <use x="95.410156" xlink:href="#DejaVuSans-52"/>
      </g>
     </g>
    </g>
    <g id="ytick_6">
     <g id="line2d_23">
      <path clip-path="url(#p2501146e46)" d="M 19.114646 10.522307 
L 429.165354 10.522307 
" style="fill:none;stroke:#000000;stroke-linecap:square;stroke-opacity:0.1;stroke-width:0.5;"/>
     </g>
     <g id="line2d_24">
      <g>
       <use style="stroke:#000000;stroke-width:0.5;" x="19.114646" xlink:href="#mc1a27ed73f" y="10.522307"/>
      </g>
     </g>
     <g id="text_12">
      <!-- 0.5 -->
      <g transform="translate(2.892146 13.561682)scale(0.08 -0.08)">
       <use xlink:href="#DejaVuSans-48"/>
       <use x="63.623047" xlink:href="#DejaVuSans-46"/>
       <use x="95.410156" xlink:href="#DejaVuSans-53"/>
      </g>
     </g>
    </g>
   </g>
   <g id="patch_3">
    <path clip-path="url(#p2501146e46)" d="M 30.719854 18.927484 
L 30.719854 266.777693 
L 38.45666 266.777693 
L 38.45666 18.927484 
L 30.719854 18.927484 
" style="fill:#009afa;stroke:#000000;stroke-linejoin:miter;"/>
   </g>
   <g id="patch_4">
    <path clip-path="url(#p2501146e46)" d="M 38.45666 28.203929 
L 38.45666 266.777693 
L 46.193466 266.777693 
L 46.193466 28.203929 
L 38.45666 28.203929 
" style="fill:#009afa;stroke:#000000;stroke-linejoin:miter;"/>
   </g>
   <g id="patch_5">
    <path clip-path="url(#p2501146e46)" d="M 46.193466 42.092971 
L 46.193466 266.777693 
L 53.930272 266.777693 
L 53.930272 42.092971 
L 46.193466 42.092971 
" style="fill:#009afa;stroke:#000000;stroke-linejoin:miter;"/>
   </g>
   <g id="patch_6">
    <path clip-path="url(#p2501146e46)" d="M 53.930272 50.190641 
L 53.930272 266.777693 
L 61.667078 266.777693 
L 61.667078 50.190641 
L 53.930272 50.190641 
" style="fill:#009afa;stroke:#000000;stroke-linejoin:miter;"/>
   </g>
   <g id="patch_7">
    <path clip-path="url(#p2501146e46)" d="M 61.667078 57.570796 
L 61.667078 266.777693 
L 69.403884 266.777693 
L 69.403884 57.570796 
L 61.667078 57.570796 
" style="fill:#009afa;stroke:#000000;stroke-linejoin:miter;"/>
   </g>
   <g id="patch_8">
    <path clip-path="url(#p2501146e46)" d="M 69.403884 68.487275 
L 69.403884 266.777693 
L 77.140689 266.777693 
L 77.140689 68.487275 
L 69.403884 68.487275 
" style="fill:#009afa;stroke:#000000;stroke-linejoin:miter;"/>
   </g>
   <g id="patch_9">
    <path clip-path="url(#p2501146e46)" d="M 77.140689 84.580114 
L 77.140689 266.777693 
L 84.877495 266.777693 
L 84.877495 84.580114 
L 77.140689 84.580114 
" style="fill:#009afa;stroke:#000000;stroke-linejoin:miter;"/>
   </g>
   <g id="patch_10">
    <path clip-path="url(#p2501146e46)" d="M 84.877495 92.575282 
L 84.877495 266.777693 
L 92.614301 266.777693 
L 92.614301 92.575282 
L 84.877495 92.575282 
" style="fill:#009afa;stroke:#000000;stroke-linejoin:miter;"/>
   </g>
   <g id="patch_11">
    <path clip-path="url(#p2501146e46)" d="M 92.614301 96.982874 
L 92.614301 266.777693 
L 100.351107 266.777693 
L 100.351107 96.982874 
L 92.614301 96.982874 
" style="fill:#009afa;stroke:#000000;stroke-linejoin:miter;"/>
   </g>
   <g id="patch_12">
    <path clip-path="url(#p2501146e46)" d="M 100.351107 106.208068 
L 100.351107 266.777693 
L 108.087913 266.777693 
L 108.087913 106.208068 
L 100.351107 106.208068 
" style="fill:#009afa;stroke:#000000;stroke-linejoin:miter;"/>
   </g>
   <g id="patch_13">
    <path clip-path="url(#p2501146e46)" d="M 108.087913 112.768206 
L 108.087913 266.777693 
L 115.824718 266.777693 
L 115.824718 112.768206 
L 108.087913 112.768206 
" style="fill:#009afa;stroke:#000000;stroke-linejoin:miter;"/>
   </g>
   <g id="patch_14">
    <path clip-path="url(#p2501146e46)" d="M 115.824718 123.530932 
L 115.824718 266.777693 
L 123.561524 266.777693 
L 123.561524 123.530932 
L 115.824718 123.530932 
" style="fill:#009afa;stroke:#000000;stroke-linejoin:miter;"/>
   </g>
   <g id="patch_15">
    <path clip-path="url(#p2501146e46)" d="M 123.561524 126.913503 
L 123.561524 266.777693 
L 131.29833 266.777693 
L 131.29833 126.913503 
L 123.561524 126.913503 
" style="fill:#009afa;stroke:#000000;stroke-linejoin:miter;"/>
   </g>
   <g id="patch_16">
    <path clip-path="url(#p2501146e46)" d="M 131.29833 134.754918 
L 131.29833 266.777693 
L 139.035136 266.777693 
L 139.035136 134.754918 
L 131.29833 134.754918 
" style="fill:#009afa;stroke:#000000;stroke-linejoin:miter;"/>
   </g>
   <g id="patch_17">
    <path clip-path="url(#p2501146e46)" d="M 139.035136 145.7739 
L 139.035136 266.777693 
L 146.771942 266.777693 
L 146.771942 145.7739 
L 139.035136 145.7739 
" style="fill:#009afa;stroke:#000000;stroke-linejoin:miter;"/>
   </g>
   <g id="patch_18">
    <path clip-path="url(#p2501146e46)" d="M 146.771942 146.952674 
L 146.771942 266.777693 
L 154.508748 266.777693 
L 154.508748 146.952674 
L 146.771942 146.952674 
" style="fill:#009afa;stroke:#000000;stroke-linejoin:miter;"/>
   </g>
   <g id="patch_19">
    <path clip-path="url(#p2501146e46)" d="M 154.508748 154.896591 
L 154.508748 266.777693 
L 162.245553 266.777693 
L 162.245553 154.896591 
L 154.508748 154.896591 
" style="fill:#009afa;stroke:#000000;stroke-linejoin:miter;"/>
   </g>
   <g id="patch_20">
    <path clip-path="url(#p2501146e46)" d="M 162.245553 160.790465 
L 162.245553 266.777693 
L 169.982359 266.777693 
L 169.982359 160.790465 
L 162.245553 160.790465 
" style="fill:#009afa;stroke:#000000;stroke-linejoin:miter;"/>
   </g>
   <g id="patch_21">
    <path clip-path="url(#p2501146e46)" d="M 169.982359 165.351811 
L 169.982359 266.777693 
L 177.719165 266.777693 
L 177.719165 165.351811 
L 169.982359 165.351811 
" style="fill:#009afa;stroke:#000000;stroke-linejoin:miter;"/>
   </g>
   <g id="patch_22">
    <path clip-path="url(#p2501146e46)" d="M 177.719165 166.940595 
L 177.719165 266.777693 
L 185.455971 266.777693 
L 185.455971 166.940595 
L 177.719165 166.940595 
" style="fill:#009afa;stroke:#000000;stroke-linejoin:miter;"/>
   </g>
   <g id="patch_23">
    <path clip-path="url(#p2501146e46)" d="M 185.455971 174.115745 
L 185.455971 266.777693 
L 193.192777 266.777693 
L 193.192777 174.115745 
L 185.455971 174.115745 
" style="fill:#009afa;stroke:#000000;stroke-linejoin:miter;"/>
   </g>
   <g id="patch_24">
    <path clip-path="url(#p2501146e46)" d="M 193.192777 182.520922 
L 193.192777 266.777693 
L 200.929583 266.777693 
L 200.929583 182.520922 
L 193.192777 182.520922 
" style="fill:#009afa;stroke:#000000;stroke-linejoin:miter;"/>
   </g>
   <g id="patch_25">
    <path clip-path="url(#p2501146e46)" d="M 200.929583 182.674675 
L 200.929583 266.777693 
L 208.666388 266.777693 
L 208.666388 182.674675 
L 200.929583 182.674675 
" style="fill:#009afa;stroke:#000000;stroke-linejoin:miter;"/>
   </g>
   <g id="patch_26">
    <path clip-path="url(#p2501146e46)" d="M 208.666388 186.979766 
L 208.666388 266.777693 
L 216.403194 266.777693 
L 216.403194 186.979766 
L 208.666388 186.979766 
" style="fill:#009afa;stroke:#000000;stroke-linejoin:miter;"/>
   </g>
   <g id="patch_27">
    <path clip-path="url(#p2501146e46)" d="M 216.403194 186.262251 
L 216.403194 266.777693 
L 224.14 266.777693 
L 224.14 186.262251 
L 216.403194 186.262251 
" style="fill:#009afa;stroke:#000000;stroke-linejoin:miter;"/>
   </g>
   <g id="patch_28">
    <path clip-path="url(#p2501146e46)" d="M 224.14 195.794951 
L 224.14 266.777693 
L 231.876806 266.777693 
L 231.876806 195.794951 
L 224.14 195.794951 
" style="fill:#009afa;stroke:#000000;stroke-linejoin:miter;"/>
   </g>
   <g id="patch_29">
    <path clip-path="url(#p2501146e46)" d="M 231.876806 200.253795 
L 231.876806 266.777693 
L 239.613612 266.777693 
L 239.613612 200.253795 
L 231.876806 200.253795 
" style="fill:#009afa;stroke:#000000;stroke-linejoin:miter;"/>
   </g>
   <g id="patch_30">
    <path clip-path="url(#p2501146e46)" d="M 239.613612 203.892621 
L 239.613612 266.777693 
L 247.350417 266.777693 
L 247.350417 203.892621 
L 239.613612 203.892621 
" style="fill:#009afa;stroke:#000000;stroke-linejoin:miter;"/>
   </g>
   <g id="patch_31">
    <path clip-path="url(#p2501146e46)" d="M 247.350417 205.2764 
L 247.350417 266.777693 
L 255.087223 266.777693 
L 255.087223 205.2764 
L 247.350417 205.2764 
" style="fill:#009afa;stroke:#000000;stroke-linejoin:miter;"/>
   </g>
   <g id="patch_32">
    <path clip-path="url(#p2501146e46)" d="M 255.087223 205.635158 
L 255.087223 266.777693 
L 262.824029 266.777693 
L 262.824029 205.635158 
L 255.087223 205.635158 
" style="fill:#009afa;stroke:#000000;stroke-linejoin:miter;"/>
   </g>
   <g id="patch_33">
    <path clip-path="url(#p2501146e46)" d="M 262.824029 211.221525 
L 262.824029 266.777693 
L 270.560835 266.777693 
L 270.560835 211.221525 
L 262.824029 211.221525 
" style="fill:#009afa;stroke:#000000;stroke-linejoin:miter;"/>
   </g>
   <g id="patch_34">
    <path clip-path="url(#p2501146e46)" d="M 270.560835 214.142837 
L 270.560835 266.777693 
L 278.297641 266.777693 
L 278.297641 214.142837 
L 270.560835 214.142837 
" style="fill:#009afa;stroke:#000000;stroke-linejoin:miter;"/>
   </g>
   <g id="patch_35">
    <path clip-path="url(#p2501146e46)" d="M 278.297641 216.090378 
L 278.297641 266.777693 
L 286.034447 266.777693 
L 286.034447 216.090378 
L 278.297641 216.090378 
" style="fill:#009afa;stroke:#000000;stroke-linejoin:miter;"/>
   </g>
   <g id="patch_36">
    <path clip-path="url(#p2501146e46)" d="M 286.034447 218.806685 
L 286.034447 266.777693 
L 293.771252 266.777693 
L 293.771252 218.806685 
L 286.034447 218.806685 
" style="fill:#009afa;stroke:#000000;stroke-linejoin:miter;"/>
   </g>
   <g id="patch_37">
    <path clip-path="url(#p2501146e46)" d="M 293.771252 221.830498 
L 293.771252 266.777693 
L 301.508058 266.777693 
L 301.508058 221.830498 
L 293.771252 221.830498 
" style="fill:#009afa;stroke:#000000;stroke-linejoin:miter;"/>
   </g>
   <g id="patch_38">
    <path clip-path="url(#p2501146e46)" d="M 301.508058 222.650515 
L 301.508058 266.777693 
L 309.244864 266.777693 
L 309.244864 222.650515 
L 301.508058 222.650515 
" style="fill:#009afa;stroke:#000000;stroke-linejoin:miter;"/>
   </g>
   <g id="patch_39">
    <path clip-path="url(#p2501146e46)" d="M 309.244864 224.393052 
L 309.244864 266.777693 
L 316.98167 266.777693 
L 316.98167 224.393052 
L 309.244864 224.393052 
" style="fill:#009afa;stroke:#000000;stroke-linejoin:miter;"/>
   </g>
   <g id="patch_40">
    <path clip-path="url(#p2501146e46)" d="M 316.98167 229.261904 
L 316.98167 266.777693 
L 324.718476 266.777693 
L 324.718476 229.261904 
L 316.98167 229.261904 
" style="fill:#009afa;stroke:#000000;stroke-linejoin:miter;"/>
   </g>
   <g id="patch_41">
    <path clip-path="url(#p2501146e46)" d="M 324.718476 229.569411 
L 324.718476 266.777693 
L 332.455282 266.777693 
L 332.455282 229.569411 
L 324.718476 229.569411 
" style="fill:#009afa;stroke:#000000;stroke-linejoin:miter;"/>
   </g>
   <g id="patch_42">
    <path clip-path="url(#p2501146e46)" d="M 332.455282 233.464493 
L 332.455282 266.777693 
L 340.192087 266.777693 
L 340.192087 233.464493 
L 332.455282 233.464493 
" style="fill:#009afa;stroke:#000000;stroke-linejoin:miter;"/>
   </g>
   <g id="patch_43">
    <path clip-path="url(#p2501146e46)" d="M 340.192087 232.541973 
L 340.192087 266.777693 
L 347.928893 266.777693 
L 347.928893 232.541973 
L 340.192087 232.541973 
" style="fill:#009afa;stroke:#000000;stroke-linejoin:miter;"/>
   </g>
   <g id="patch_44">
    <path clip-path="url(#p2501146e46)" d="M 347.928893 235.360782 
L 347.928893 266.777693 
L 355.665699 266.777693 
L 355.665699 235.360782 
L 347.928893 235.360782 
" style="fill:#009afa;stroke:#000000;stroke-linejoin:miter;"/>
   </g>
   <g id="patch_45">
    <path clip-path="url(#p2501146e46)" d="M 355.665699 238.128341 
L 355.665699 266.777693 
L 363.402505 266.777693 
L 363.402505 238.128341 
L 355.665699 238.128341 
" style="fill:#009afa;stroke:#000000;stroke-linejoin:miter;"/>
   </g>
   <g id="patch_46">
    <path clip-path="url(#p2501146e46)" d="M 363.402505 235.360782 
L 363.402505 266.777693 
L 371.139311 266.777693 
L 371.139311 235.360782 
L 363.402505 235.360782 
" style="fill:#009afa;stroke:#000000;stroke-linejoin:miter;"/>
   </g>
   <g id="patch_47">
    <path clip-path="url(#p2501146e46)" d="M 371.139311 239.563371 
L 371.139311 266.777693 
L 378.876116 266.777693 
L 378.876116 239.563371 
L 371.139311 239.563371 
" style="fill:#009afa;stroke:#000000;stroke-linejoin:miter;"/>
   </g>
   <g id="patch_48">
    <path clip-path="url(#p2501146e46)" d="M 378.876116 241.562163 
L 378.876116 266.777693 
L 386.612922 266.777693 
L 386.612922 241.562163 
L 378.876116 241.562163 
" style="fill:#009afa;stroke:#000000;stroke-linejoin:miter;"/>
   </g>
   <g id="patch_49">
    <path clip-path="url(#p2501146e46)" d="M 386.612922 241.510912 
L 386.612922 266.777693 
L 394.349728 266.777693 
L 394.349728 241.510912 
L 386.612922 241.510912 
" style="fill:#009afa;stroke:#000000;stroke-linejoin:miter;"/>
   </g>
   <g id="patch_50">
    <path clip-path="url(#p2501146e46)" d="M 394.349728 243.458453 
L 394.349728 266.777693 
L 402.086534 266.777693 
L 402.086534 243.458453 
L 394.349728 243.458453 
" style="fill:#009afa;stroke:#000000;stroke-linejoin:miter;"/>
   </g>
   <g id="patch_51">
    <path clip-path="url(#p2501146e46)" d="M 402.086534 243.612206 
L 402.086534 266.777693 
L 409.82334 266.777693 
L 409.82334 243.612206 
L 402.086534 243.612206 
" style="fill:#009afa;stroke:#000000;stroke-linejoin:miter;"/>
   </g>
   <g id="patch_52">
    <path clip-path="url(#p2501146e46)" d="M 409.82334 246.431015 
L 409.82334 266.777693 
L 417.560146 266.777693 
L 417.560146 246.431015 
L 409.82334 246.431015 
" style="fill:#009afa;stroke:#000000;stroke-linejoin:miter;"/>
   </g>
   <g id="patch_53">
    <path clip-path="url(#p2501146e46)" d="M 417.560146 247.251032 
L 417.560146 266.777693 
L 425.296951 266.777693 
L 425.296951 247.251032 
L 417.560146 247.251032 
" style="fill:#009afa;stroke:#000000;stroke-linejoin:miter;"/>
   </g>
   <g id="patch_54">
    <path clip-path="url(#p2501146e46)" d="M 425.296951 247.712292 
L 425.296951 266.777693 
L 433.033757 266.777693 
L 433.033757 247.712292 
L 425.296951 247.712292 
" style="fill:#009afa;stroke:#000000;stroke-linejoin:miter;"/>
   </g>
   <g id="patch_55">
    <path clip-path="url(#p2501146e46)" d="M 433.033757 248.481058 
L 433.033757 266.777693 
L 440.770563 266.777693 
L 440.770563 248.481058 
L 433.033757 248.481058 
" style="fill:#009afa;stroke:#000000;stroke-linejoin:miter;"/>
   </g>
   <g id="patch_56">
    <path clip-path="url(#p2501146e46)" d="M 440.770563 249.301075 
L 440.770563 266.777693 
L 448.507369 266.777693 
L 448.507369 249.301075 
L 440.770563 249.301075 
" style="fill:#009afa;stroke:#000000;stroke-linejoin:miter;"/>
   </g>
   <g id="patch_57">
    <path clip-path="url(#p2501146e46)" d="M 448.507369 249.557331 
L 448.507369 266.777693 
L 456.244175 266.777693 
L 456.244175 249.557331 
L 448.507369 249.557331 
" style="fill:#009afa;stroke:#000000;stroke-linejoin:miter;"/>
   </g>
   <g id="patch_58">
    <path clip-path="url(#p2501146e46)" d="M 456.244175 251.607374 
L 456.244175 266.777693 
L 463.980981 266.777693 
L 463.980981 251.607374 
L 456.244175 251.607374 
" style="fill:#009afa;stroke:#000000;stroke-linejoin:miter;"/>
   </g>
   <g id="patch_59">
    <path clip-path="url(#p2501146e46)" d="M 463.980981 252.222387 
L 463.980981 266.777693 
L 471.717786 266.777693 
L 471.717786 252.222387 
L 463.980981 252.222387 
" style="fill:#009afa;stroke:#000000;stroke-linejoin:miter;"/>
   </g>
   <g id="patch_60">
    <path clip-path="url(#p2501146e46)" d="M 471.717786 252.683647 
L 471.717786 266.777693 
L 479.454592 266.777693 
L 479.454592 252.683647 
L 471.717786 252.683647 
" style="fill:#009afa;stroke:#000000;stroke-linejoin:miter;"/>
   </g>
   <g id="patch_61">
    <path clip-path="url(#p2501146e46)" d="M 479.454592 252.273638 
L 479.454592 266.777693 
L 487.191398 266.777693 
L 487.191398 252.273638 
L 479.454592 252.273638 
" style="fill:#009afa;stroke:#000000;stroke-linejoin:miter;"/>
   </g>
   <g id="patch_62">
    <path clip-path="url(#p2501146e46)" d="M 487.191398 253.349911 
L 487.191398 266.777693 
L 494.928204 266.777693 
L 494.928204 253.349911 
L 487.191398 253.349911 
" style="fill:#009afa;stroke:#000000;stroke-linejoin:miter;"/>
   </g>
   <g id="patch_63">
    <path clip-path="url(#p2501146e46)" d="M 494.928204 253.81117 
L 494.928204 266.777693 
L 502.66501 266.777693 
L 502.66501 253.81117 
L 494.928204 253.81117 
" style="fill:#009afa;stroke:#000000;stroke-linejoin:miter;"/>
   </g>
   <g id="patch_64">
    <path clip-path="url(#p2501146e46)" d="M 502.66501 254.426183 
L 502.66501 266.777693 
L 510.401815 266.777693 
L 510.401815 254.426183 
L 502.66501 254.426183 
" style="fill:#009afa;stroke:#000000;stroke-linejoin:miter;"/>
   </g>
   <g id="patch_65">
    <path clip-path="url(#p2501146e46)" d="M 510.401815 255.963715 
L 510.401815 266.777693 
L 518.138621 266.777693 
L 518.138621 255.963715 
L 510.401815 255.963715 
" style="fill:#009afa;stroke:#000000;stroke-linejoin:miter;"/>
   </g>
   <g id="patch_66">
    <path clip-path="url(#p2501146e46)" d="M 518.138621 255.297451 
L 518.138621 266.777693 
L 525.875427 266.777693 
L 525.875427 255.297451 
L 518.138621 255.297451 
" style="fill:#009afa;stroke:#000000;stroke-linejoin:miter;"/>
   </g>
   <g id="patch_67">
    <path clip-path="url(#p2501146e46)" d="M 525.875427 256.629979 
L 525.875427 266.777693 
L 533.612233 266.777693 
L 533.612233 256.629979 
L 525.875427 256.629979 
" style="fill:#009afa;stroke:#000000;stroke-linejoin:miter;"/>
   </g>
   <g id="patch_68">
    <path clip-path="url(#p2501146e46)" d="M 533.612233 258.06501 
L 533.612233 266.777693 
L 541.349039 266.777693 
L 541.349039 258.06501 
L 533.612233 258.06501 
" style="fill:#009afa;stroke:#000000;stroke-linejoin:miter;"/>
   </g>
   <g id="patch_69">
    <path clip-path="url(#p2501146e46)" d="M 541.349039 258.526269 
L 541.349039 266.777693 
L 549.085845 266.777693 
L 549.085845 258.526269 
L 541.349039 258.526269 
" style="fill:#009afa;stroke:#000000;stroke-linejoin:miter;"/>
   </g>
   <g id="patch_70">
    <path clip-path="url(#p2501146e46)" d="M 549.085845 258.885027 
L 549.085845 266.777693 
L 556.82265 266.777693 
L 556.82265 258.885027 
L 549.085845 258.885027 
" style="fill:#009afa;stroke:#000000;stroke-linejoin:miter;"/>
   </g>
   <g id="patch_71">
    <path clip-path="url(#p2501146e46)" d="M 556.82265 258.731274 
L 556.82265 266.777693 
L 564.559456 266.777693 
L 564.559456 258.731274 
L 556.82265 258.731274 
" style="fill:#009afa;stroke:#000000;stroke-linejoin:miter;"/>
   </g>
   <g id="patch_72">
    <path clip-path="url(#p2501146e46)" d="M 564.559456 257.60375 
L 564.559456 266.777693 
L 572.296262 266.777693 
L 572.296262 257.60375 
L 564.559456 257.60375 
" style="fill:#009afa;stroke:#000000;stroke-linejoin:miter;"/>
   </g>
   <g id="patch_73">
    <path clip-path="url(#p2501146e46)" d="M 572.296262 259.397538 
L 572.296262 266.777693 
L 580.033068 266.777693 
L 580.033068 259.397538 
L 572.296262 259.397538 
" style="fill:#009afa;stroke:#000000;stroke-linejoin:miter;"/>
   </g>
   <g id="patch_74">
    <path clip-path="url(#p2501146e46)" d="M 580.033068 260.268806 
L 580.033068 266.777693 
L 587.769874 266.777693 
L 587.769874 260.268806 
L 580.033068 260.268806 
" style="fill:#009afa;stroke:#000000;stroke-linejoin:miter;"/>
   </g>
   <g id="patch_75">
    <path clip-path="url(#p2501146e46)" d="M 587.769874 260.115053 
L 587.769874 266.777693 
L 595.50668 266.777693 
L 595.50668 260.115053 
L 587.769874 260.115053 
" style="fill:#009afa;stroke:#000000;stroke-linejoin:miter;"/>
   </g>
   <g id="patch_76">
    <path clip-path="url(#p2501146e46)" d="M 595.50668 260.627564 
L 595.50668 266.777693 
L 603.243485 266.777693 
L 603.243485 260.627564 
L 595.50668 260.627564 
" style="fill:#009afa;stroke:#000000;stroke-linejoin:miter;"/>
   </g>
   <g id="patch_77">
    <path clip-path="url(#p2501146e46)" d="M 603.243485 259.705044 
L 603.243485 266.777693 
L 610.980291 266.777693 
L 610.980291 259.705044 
L 603.243485 259.705044 
" style="fill:#009afa;stroke:#000000;stroke-linejoin:miter;"/>
   </g>
   <g id="patch_78">
    <path clip-path="url(#p2501146e46)" d="M 610.980291 261.601334 
L 610.980291 266.777693 
L 618.717097 266.777693 
L 618.717097 261.601334 
L 610.980291 261.601334 
" style="fill:#009afa;stroke:#000000;stroke-linejoin:miter;"/>
   </g>
   <g id="patch_79">
    <path clip-path="url(#p2501146e46)" d="M 618.717097 261.242576 
L 618.717097 266.777693 
L 626.453903 266.777693 
L 626.453903 261.242576 
L 618.717097 261.242576 
" style="fill:#009afa;stroke:#000000;stroke-linejoin:miter;"/>
   </g>
   <g id="patch_80">
    <path clip-path="url(#p2501146e46)" d="M 626.453903 261.088823 
L 626.453903 266.777693 
L 634.190709 266.777693 
L 634.190709 261.088823 
L 626.453903 261.088823 
" style="fill:#009afa;stroke:#000000;stroke-linejoin:miter;"/>
   </g>
   <g id="patch_81">
    <path clip-path="url(#p2501146e46)" d="M 634.190709 261.90884 
L 634.190709 266.777693 
L 641.927514 266.777693 
L 641.927514 261.90884 
L 634.190709 261.90884 
" style="fill:#009afa;stroke:#000000;stroke-linejoin:miter;"/>
   </g>
   <g id="patch_82">
    <path clip-path="url(#p2501146e46)" d="M 641.927514 261.703836 
L 641.927514 266.777693 
L 649.66432 266.777693 
L 649.66432 261.703836 
L 641.927514 261.703836 
" style="fill:#009afa;stroke:#000000;stroke-linejoin:miter;"/>
   </g>
   <g id="patch_83">
    <path clip-path="url(#p2501146e46)" d="M 649.66432 263.446373 
L 649.66432 266.777693 
L 657.401126 266.777693 
L 657.401126 263.446373 
L 649.66432 263.446373 
" style="fill:#009afa;stroke:#000000;stroke-linejoin:miter;"/>
   </g>
   <g id="patch_84">
    <path clip-path="url(#p2501146e46)" d="M 657.401126 262.933862 
L 657.401126 266.777693 
L 665.137932 266.777693 
L 665.137932 262.933862 
L 657.401126 262.933862 
" style="fill:#009afa;stroke:#000000;stroke-linejoin:miter;"/>
   </g>
   <g id="patch_85">
    <path clip-path="url(#p2501146e46)" d="M 665.137932 262.780109 
L 665.137932 266.777693 
L 672.874738 266.777693 
L 672.874738 262.780109 
L 665.137932 262.780109 
" style="fill:#009afa;stroke:#000000;stroke-linejoin:miter;"/>
   </g>
   <g id="patch_86">
    <path clip-path="url(#p2501146e46)" d="M 672.874738 263.087615 
L 672.874738 266.777693 
L 680.611544 266.777693 
L 680.611544 263.087615 
L 672.874738 263.087615 
" style="fill:#009afa;stroke:#000000;stroke-linejoin:miter;"/>
   </g>
   <g id="patch_87">
    <path clip-path="url(#p2501146e46)" d="M 680.611544 262.882611 
L 680.611544 266.777693 
L 688.348349 266.777693 
L 688.348349 262.882611 
L 680.611544 262.882611 
" style="fill:#009afa;stroke:#000000;stroke-linejoin:miter;"/>
   </g>
   <g id="patch_88">
    <path clip-path="url(#p2501146e46)" d="M 688.348349 263.548875 
L 688.348349 266.777693 
L 696.085155 266.777693 
L 696.085155 263.548875 
L 688.348349 263.548875 
" style="fill:#009afa;stroke:#000000;stroke-linejoin:miter;"/>
   </g>
   <g id="patch_89">
    <path clip-path="url(#p2501146e46)" d="M 696.085155 263.80513 
L 696.085155 266.777693 
L 703.821961 266.777693 
L 703.821961 263.80513 
L 696.085155 263.80513 
" style="fill:#009afa;stroke:#000000;stroke-linejoin:miter;"/>
   </g>
   <g id="patch_90">
    <path clip-path="url(#p2501146e46)" d="M 703.821961 263.036364 
L 703.821961 266.777693 
L 711.558767 266.777693 
L 711.558767 263.036364 
L 703.821961 263.036364 
" style="fill:#009afa;stroke:#000000;stroke-linejoin:miter;"/>
   </g>
   <g id="patch_91">
    <path clip-path="url(#p2501146e46)" d="M 711.558767 263.651377 
L 711.558767 266.777693 
L 719.295573 266.777693 
L 719.295573 263.651377 
L 711.558767 263.651377 
" style="fill:#009afa;stroke:#000000;stroke-linejoin:miter;"/>
   </g>
   <g id="patch_92">
    <path clip-path="url(#p2501146e46)" d="M 719.295573 263.241368 
L 719.295573 266.777693 
L 727.032379 266.777693 
L 727.032379 263.241368 
L 719.295573 263.241368 
" style="fill:#009afa;stroke:#000000;stroke-linejoin:miter;"/>
   </g>
   <g id="patch_93">
    <path clip-path="url(#p2501146e46)" d="M 727.032379 263.753879 
L 727.032379 266.777693 
L 734.769184 266.777693 
L 734.769184 263.753879 
L 727.032379 263.753879 
" style="fill:#009afa;stroke:#000000;stroke-linejoin:miter;"/>
   </g>
   <g id="patch_94">
    <path clip-path="url(#p2501146e46)" d="M 734.769184 263.958884 
L 734.769184 266.777693 
L 742.50599 266.777693 
L 742.50599 263.958884 
L 734.769184 263.958884 
" style="fill:#009afa;stroke:#000000;stroke-linejoin:miter;"/>
   </g>
   <g id="patch_95">
    <path clip-path="url(#p2501146e46)" d="M 742.50599 264.368892 
L 742.50599 266.777693 
L 750.242796 266.777693 
L 750.242796 264.368892 
L 742.50599 264.368892 
" style="fill:#009afa;stroke:#000000;stroke-linejoin:miter;"/>
   </g>
   <g id="patch_96">
    <path clip-path="url(#p2501146e46)" d="M 750.242796 264.420143 
L 750.242796 266.777693 
L 757.979602 266.777693 
L 757.979602 264.420143 
L 750.242796 264.420143 
" style="fill:#009afa;stroke:#000000;stroke-linejoin:miter;"/>
   </g>
   <g id="patch_97">
    <path clip-path="url(#p2501146e46)" d="M 757.979602 265.086407 
L 757.979602 266.777693 
L 765.716408 266.777693 
L 765.716408 265.086407 
L 757.979602 265.086407 
" style="fill:#009afa;stroke:#000000;stroke-linejoin:miter;"/>
   </g>
   <g id="patch_98">
    <path clip-path="url(#p2501146e46)" d="M 765.716408 265.24016 
L 765.716408 266.777693 
L 773.453213 266.777693 
L 773.453213 265.24016 
L 765.716408 265.24016 
" style="fill:#009afa;stroke:#000000;stroke-linejoin:miter;"/>
   </g>
   <g id="patch_99">
    <path clip-path="url(#p2501146e46)" d="M 773.453213 264.72765 
L 773.453213 266.777693 
L 781.190019 266.777693 
L 781.190019 264.72765 
L 773.453213 264.72765 
" style="fill:#009afa;stroke:#000000;stroke-linejoin:miter;"/>
   </g>
   <g id="patch_100">
    <path clip-path="url(#p2501146e46)" d="M 781.190019 264.932654 
L 781.190019 266.777693 
L 788.926825 266.777693 
L 788.926825 264.932654 
L 781.190019 264.932654 
" style="fill:#009afa;stroke:#000000;stroke-linejoin:miter;"/>
   </g>
   <g id="patch_101">
    <path clip-path="url(#p2501146e46)" d="M 788.926825 264.625148 
L 788.926825 266.777693 
L 796.663631 266.777693 
L 796.663631 264.625148 
L 788.926825 264.625148 
" style="fill:#009afa;stroke:#000000;stroke-linejoin:miter;"/>
   </g>
   <g id="patch_102">
    <path clip-path="url(#p2501146e46)" d="M 796.663631 265.291412 
L 796.663631 266.777693 
L 804.400437 266.777693 
L 804.400437 265.291412 
L 796.663631 265.291412 
" style="fill:#009afa;stroke:#000000;stroke-linejoin:miter;"/>
   </g>
   <g id="patch_103">
    <path clip-path="url(#p2501146e46)" d="M 804.400437 264.830152 
L 804.400437 266.777693 
L 812.137243 266.777693 
L 812.137243 264.830152 
L 804.400437 264.830152 
" style="fill:#009afa;stroke:#000000;stroke-linejoin:miter;"/>
   </g>
   <g id="patch_104">
    <path clip-path="url(#p2501146e46)" d="M 812.137243 265.906424 
L 812.137243 266.777693 
L 819.874048 266.777693 
L 819.874048 265.906424 
L 812.137243 265.906424 
" style="fill:#009afa;stroke:#000000;stroke-linejoin:miter;"/>
   </g>
   <g id="patch_105">
    <path clip-path="url(#p2501146e46)" d="M 819.874048 265.598918 
L 819.874048 266.777693 
L 827.610854 266.777693 
L 827.610854 265.598918 
L 819.874048 265.598918 
" style="fill:#009afa;stroke:#000000;stroke-linejoin:miter;"/>
   </g>
   <g id="patch_106">
    <path clip-path="url(#p2501146e46)" d="M 827.610854 265.291412 
L 827.610854 266.777693 
L 835.34766 266.777693 
L 835.34766 265.291412 
L 827.610854 265.291412 
" style="fill:#009afa;stroke:#000000;stroke-linejoin:miter;"/>
   </g>
   <g id="patch_107">
    <path clip-path="url(#p2501146e46)" d="M 835.34766 265.496416 
L 835.34766 266.777693 
L 843.084466 266.777693 
L 843.084466 265.496416 
L 835.34766 265.496416 
" style="fill:#009afa;stroke:#000000;stroke-linejoin:miter;"/>
   </g>
   <g id="patch_108">
    <path clip-path="url(#p2501146e46)" d="M 843.084466 265.291412 
L 843.084466 266.777693 
L 850.821272 266.777693 
L 850.821272 265.291412 
L 843.084466 265.291412 
" style="fill:#009afa;stroke:#000000;stroke-linejoin:miter;"/>
   </g>
   <g id="patch_109">
    <path clip-path="url(#p2501146e46)" d="M 850.821272 265.752671 
L 850.821272 266.777693 
L 858.558078 266.777693 
L 858.558078 265.752671 
L 850.821272 265.752671 
" style="fill:#009afa;stroke:#000000;stroke-linejoin:miter;"/>
   </g>
   <g id="patch_110">
    <path clip-path="url(#p2501146e46)" d="M 858.558078 265.24016 
L 858.558078 266.777693 
L 866.294883 266.777693 
L 866.294883 265.24016 
L 858.558078 265.24016 
" style="fill:#009afa;stroke:#000000;stroke-linejoin:miter;"/>
   </g>
   <g id="patch_111">
    <path clip-path="url(#p2501146e46)" d="M 866.294883 265.70142 
L 866.294883 266.777693 
L 874.031689 266.777693 
L 874.031689 265.70142 
L 866.294883 265.70142 
" style="fill:#009afa;stroke:#000000;stroke-linejoin:miter;"/>
   </g>
   <g id="patch_112">
    <path clip-path="url(#p2501146e46)" d="M 874.031689 265.855173 
L 874.031689 266.777693 
L 881.768495 266.777693 
L 881.768495 265.855173 
L 874.031689 265.855173 
" style="fill:#009afa;stroke:#000000;stroke-linejoin:miter;"/>
   </g>
   <g id="patch_113">
    <path clip-path="url(#p2501146e46)" d="M 881.768495 266.16268 
L 881.768495 266.777693 
L 889.505301 266.777693 
L 889.505301 266.16268 
L 881.768495 266.16268 
" style="fill:#009afa;stroke:#000000;stroke-linejoin:miter;"/>
   </g>
   <g id="patch_114">
    <path clip-path="url(#p2501146e46)" d="M 889.505301 266.111429 
L 889.505301 266.777693 
L 897.242107 266.777693 
L 897.242107 266.111429 
L 889.505301 266.111429 
" style="fill:#009afa;stroke:#000000;stroke-linejoin:miter;"/>
   </g>
   <g id="patch_115">
    <path clip-path="url(#p2501146e46)" d="M 897.242107 266.213931 
L 897.242107 266.777693 
L 904.978912 266.777693 
L 904.978912 266.213931 
L 897.242107 266.213931 
" style="fill:#009afa;stroke:#000000;stroke-linejoin:miter;"/>
   </g>
   <g id="patch_116">
    <path clip-path="url(#p2501146e46)" d="M 904.978912 265.957676 
L 904.978912 266.777693 
L 912.715718 266.777693 
L 912.715718 265.957676 
L 904.978912 265.957676 
" style="fill:#009afa;stroke:#000000;stroke-linejoin:miter;"/>
   </g>
   <g id="patch_117">
    <path clip-path="url(#p2501146e46)" d="M 912.715718 265.752671 
L 912.715718 266.777693 
L 920.452524 266.777693 
L 920.452524 265.752671 
L 912.715718 265.752671 
" style="fill:#009afa;stroke:#000000;stroke-linejoin:miter;"/>
   </g>
   <g id="patch_118">
    <path clip-path="url(#p2501146e46)" d="M 920.452524 265.752671 
L 920.452524 266.777693 
L 928.18933 266.777693 
L 928.18933 265.752671 
L 920.452524 265.752671 
" style="fill:#009afa;stroke:#000000;stroke-linejoin:miter;"/>
   </g>
   <g id="patch_119">
    <path clip-path="url(#p2501146e46)" d="M 928.18933 265.957676 
L 928.18933 266.777693 
L 935.926136 266.777693 
L 935.926136 265.957676 
L 928.18933 265.957676 
" style="fill:#009afa;stroke:#000000;stroke-linejoin:miter;"/>
   </g>
   <g id="patch_120">
    <path clip-path="url(#p2501146e46)" d="M 935.926136 266.111429 
L 935.926136 266.777693 
L 943.662942 266.777693 
L 943.662942 266.111429 
L 935.926136 266.111429 
" style="fill:#009afa;stroke:#000000;stroke-linejoin:miter;"/>
   </g>
   <g id="patch_121">
    <path clip-path="url(#p2501146e46)" d="M 943.662942 266.16268 
L 943.662942 266.777693 
L 951.399747 266.777693 
L 951.399747 266.16268 
L 943.662942 266.16268 
" style="fill:#009afa;stroke:#000000;stroke-linejoin:miter;"/>
   </g>
   <g id="patch_122">
    <path clip-path="url(#p2501146e46)" d="M 951.399747 266.367684 
L 951.399747 266.777693 
L 959.136553 266.777693 
L 959.136553 266.367684 
L 951.399747 266.367684 
" style="fill:#009afa;stroke:#000000;stroke-linejoin:miter;"/>
   </g>
   <g id="patch_123">
    <path clip-path="url(#p2501146e46)" d="M 959.136553 266.265182 
L 959.136553 266.777693 
L 966.873359 266.777693 
L 966.873359 266.265182 
L 959.136553 266.265182 
" style="fill:#009afa;stroke:#000000;stroke-linejoin:miter;"/>
   </g>
   <g id="patch_124">
    <path clip-path="url(#p2501146e46)" d="M 966.873359 266.367684 
L 966.873359 266.777693 
L 974.610165 266.777693 
L 974.610165 266.367684 
L 966.873359 266.367684 
" style="fill:#009afa;stroke:#000000;stroke-linejoin:miter;"/>
   </g>
   <g id="patch_125">
    <path clip-path="url(#p2501146e46)" d="M 974.610165 266.16268 
L 974.610165 266.777693 
L 982.346971 266.777693 
L 982.346971 266.16268 
L 974.610165 266.16268 
" style="fill:#009afa;stroke:#000000;stroke-linejoin:miter;"/>
   </g>
   <g id="patch_126">
    <path clip-path="url(#p2501146e46)" d="M 982.346971 266.265182 
L 982.346971 266.777693 
L 990.083777 266.777693 
L 990.083777 266.265182 
L 982.346971 266.265182 
" style="fill:#009afa;stroke:#000000;stroke-linejoin:miter;"/>
   </g>
   <g id="patch_127">
    <path clip-path="url(#p2501146e46)" d="M 990.083777 266.16268 
L 990.083777 266.777693 
L 997.820582 266.777693 
L 997.820582 266.16268 
L 990.083777 266.16268 
" style="fill:#009afa;stroke:#000000;stroke-linejoin:miter;"/>
   </g>
   <g id="patch_128">
    <path clip-path="url(#p2501146e46)" d="M 997.820582 266.213931 
L 997.820582 266.777693 
L 1005.557388 266.777693 
L 1005.557388 266.213931 
L 997.820582 266.213931 
" style="fill:#009afa;stroke:#000000;stroke-linejoin:miter;"/>
   </g>
   <g id="patch_129">
    <path clip-path="url(#p2501146e46)" d="M 1005.557388 266.316433 
L 1005.557388 266.777693 
L 1013.294194 266.777693 
L 1013.294194 266.316433 
L 1005.557388 266.316433 
" style="fill:#009afa;stroke:#000000;stroke-linejoin:miter;"/>
   </g>
   <g id="patch_130">
    <path clip-path="url(#p2501146e46)" d="M 1013.294194 266.265182 
L 1013.294194 266.777693 
L 1021.031 266.777693 
L 1021.031 266.265182 
L 1013.294194 266.265182 
" style="fill:#009afa;stroke:#000000;stroke-linejoin:miter;"/>
   </g>
   <g id="patch_131">
    <path clip-path="url(#p2501146e46)" d="M 1021.031 266.367684 
L 1021.031 266.777693 
L 1028.767806 266.777693 
L 1028.767806 266.367684 
L 1021.031 266.367684 
" style="fill:#009afa;stroke:#000000;stroke-linejoin:miter;"/>
   </g>
   <g id="patch_132">
    <path clip-path="url(#p2501146e46)" d="M 1028.767806 266.418935 
L 1028.767806 266.777693 
L 1036.504611 266.777693 
L 1036.504611 266.418935 
L 1028.767806 266.418935 
" style="fill:#009afa;stroke:#000000;stroke-linejoin:miter;"/>
   </g>
   <g id="patch_133">
    <path clip-path="url(#p2501146e46)" d="M 1036.504611 266.470186 
L 1036.504611 266.777693 
L 1044.241417 266.777693 
L 1044.241417 266.470186 
L 1036.504611 266.470186 
" style="fill:#009afa;stroke:#000000;stroke-linejoin:miter;"/>
   </g>
   <g id="patch_134">
    <path clip-path="url(#p2501146e46)" d="M 1044.241417 266.265182 
L 1044.241417 266.777693 
L 1051.978223 266.777693 
L 1051.978223 266.265182 
L 1044.241417 266.265182 
" style="fill:#009afa;stroke:#000000;stroke-linejoin:miter;"/>
   </g>
   <g id="patch_135">
    <path clip-path="url(#p2501146e46)" d="M 1051.978223 266.470186 
L 1051.978223 266.777693 
L 1059.715029 266.777693 
L 1059.715029 266.470186 
L 1051.978223 266.470186 
" style="fill:#009afa;stroke:#000000;stroke-linejoin:miter;"/>
   </g>
   <g id="patch_136">
    <path clip-path="url(#p2501146e46)" d="M 1059.715029 266.62394 
L 1059.715029 266.777693 
L 1067.451835 266.777693 
L 1067.451835 266.62394 
L 1059.715029 266.62394 
" style="fill:#009afa;stroke:#000000;stroke-linejoin:miter;"/>
   </g>
   <g id="patch_137">
    <path clip-path="url(#p2501146e46)" d="M 1067.451835 266.418935 
L 1067.451835 266.777693 
L 1075.188641 266.777693 
L 1075.188641 266.418935 
L 1067.451835 266.418935 
" style="fill:#009afa;stroke:#000000;stroke-linejoin:miter;"/>
   </g>
   <g id="patch_138">
    <path clip-path="url(#p2501146e46)" d="M 1075.188641 266.367684 
L 1075.188641 266.777693 
L 1082.925446 266.777693 
L 1082.925446 266.367684 
L 1075.188641 266.367684 
" style="fill:#009afa;stroke:#000000;stroke-linejoin:miter;"/>
   </g>
   <g id="patch_139">
    <path clip-path="url(#p2501146e46)" d="M 1082.925446 266.418935 
L 1082.925446 266.777693 
L 1090.662252 266.777693 
L 1090.662252 266.418935 
L 1082.925446 266.418935 
" style="fill:#009afa;stroke:#000000;stroke-linejoin:miter;"/>
   </g>
   <g id="patch_140">
    <path clip-path="url(#p2501146e46)" d="M 1090.662252 266.316433 
L 1090.662252 266.777693 
L 1098.399058 266.777693 
L 1098.399058 266.316433 
L 1090.662252 266.316433 
" style="fill:#009afa;stroke:#000000;stroke-linejoin:miter;"/>
   </g>
   <g id="patch_141">
    <path clip-path="url(#p2501146e46)" d="M 1098.399058 266.367684 
L 1098.399058 266.777693 
L 1106.135864 266.777693 
L 1106.135864 266.367684 
L 1098.399058 266.367684 
" style="fill:#009afa;stroke:#000000;stroke-linejoin:miter;"/>
   </g>
   <g id="patch_142">
    <path clip-path="url(#p2501146e46)" d="M 1106.135864 266.62394 
L 1106.135864 266.777693 
L 1113.87267 266.777693 
L 1113.87267 266.62394 
L 1106.135864 266.62394 
" style="fill:#009afa;stroke:#000000;stroke-linejoin:miter;"/>
   </g>
   <g id="patch_143">
    <path clip-path="url(#p2501146e46)" d="M 1113.87267 266.316433 
L 1113.87267 266.777693 
L 1121.609476 266.777693 
L 1121.609476 266.316433 
L 1113.87267 266.316433 
" style="fill:#009afa;stroke:#000000;stroke-linejoin:miter;"/>
   </g>
   <g id="patch_144">
    <path clip-path="url(#p2501146e46)" d="M 1121.609476 266.675191 
L 1121.609476 266.777693 
L 1129.346281 266.777693 
L 1129.346281 266.675191 
L 1121.609476 266.675191 
" style="fill:#009afa;stroke:#000000;stroke-linejoin:miter;"/>
   </g>
   <g id="patch_145">
    <path clip-path="url(#p2501146e46)" d="M 1129.346281 266.777693 
L 1129.346281 266.777693 
L 1137.083087 266.777693 
L 1137.083087 266.777693 
L 1129.346281 266.777693 
" style="fill:#009afa;stroke:#000000;stroke-linejoin:miter;"/>
   </g>
   <g id="patch_146">
    <path clip-path="url(#p2501146e46)" d="M 1137.083087 266.62394 
L 1137.083087 266.777693 
L 1144.819893 266.777693 
L 1144.819893 266.62394 
L 1137.083087 266.62394 
" style="fill:#009afa;stroke:#000000;stroke-linejoin:miter;"/>
   </g>
   <g id="patch_147">
    <path clip-path="url(#p2501146e46)" d="M 1144.819893 266.675191 
L 1144.819893 266.777693 
L 1152.556699 266.777693 
L 1152.556699 266.675191 
L 1144.819893 266.675191 
" style="fill:#009afa;stroke:#000000;stroke-linejoin:miter;"/>
   </g>
   <g id="patch_148">
    <path clip-path="url(#p2501146e46)" d="M 1152.556699 266.572688 
L 1152.556699 266.777693 
L 1160.293505 266.777693 
L 1160.293505 266.572688 
L 1152.556699 266.572688 
" style="fill:#009afa;stroke:#000000;stroke-linejoin:miter;"/>
   </g>
   <g id="patch_149">
    <path clip-path="url(#p2501146e46)" d="M 1160.293505 266.675191 
L 1160.293505 266.777693 
L 1168.030311 266.777693 
L 1168.030311 266.675191 
L 1160.293505 266.675191 
" style="fill:#009afa;stroke:#000000;stroke-linejoin:miter;"/>
   </g>
   <g id="patch_150">
    <path clip-path="url(#p2501146e46)" d="M 1168.030311 266.521437 
L 1168.030311 266.777693 
L 1175.767116 266.777693 
L 1175.767116 266.521437 
L 1168.030311 266.521437 
" style="fill:#009afa;stroke:#000000;stroke-linejoin:miter;"/>
   </g>
   <g id="patch_151">
    <path clip-path="url(#p2501146e46)" d="M 1175.767116 266.572688 
L 1175.767116 266.777693 
L 1183.503922 266.777693 
L 1183.503922 266.572688 
L 1175.767116 266.572688 
" style="fill:#009afa;stroke:#000000;stroke-linejoin:miter;"/>
   </g>
   <g id="patch_152">
    <path clip-path="url(#p2501146e46)" d="M 1183.503922 266.777693 
L 1183.503922 266.777693 
L 1191.240728 266.777693 
L 1191.240728 266.777693 
L 1183.503922 266.777693 
" style="fill:#009afa;stroke:#000000;stroke-linejoin:miter;"/>
   </g>
   <g id="patch_153">
    <path clip-path="url(#p2501146e46)" d="M 1191.240728 266.62394 
L 1191.240728 266.777693 
L 1198.977534 266.777693 
L 1198.977534 266.62394 
L 1191.240728 266.62394 
" style="fill:#009afa;stroke:#000000;stroke-linejoin:miter;"/>
   </g>
   <g id="patch_154">
    <path clip-path="url(#p2501146e46)" d="M 1198.977534 266.675191 
L 1198.977534 266.777693 
L 1206.71434 266.777693 
L 1206.71434 266.675191 
L 1198.977534 266.675191 
" style="fill:#009afa;stroke:#000000;stroke-linejoin:miter;"/>
   </g>
   <g id="patch_155">
    <path clip-path="url(#p2501146e46)" d="M 1206.71434 266.726442 
L 1206.71434 266.777693 
L 1214.451145 266.777693 
L 1214.451145 266.726442 
L 1206.71434 266.726442 
" style="fill:#009afa;stroke:#000000;stroke-linejoin:miter;"/>
   </g>
   <g id="patch_156">
    <path clip-path="url(#p2501146e46)" d="M 1214.451145 266.572688 
L 1214.451145 266.777693 
L 1222.187951 266.777693 
L 1222.187951 266.572688 
L 1214.451145 266.572688 
" style="fill:#009afa;stroke:#000000;stroke-linejoin:miter;"/>
   </g>
   <g id="patch_157">
    <path clip-path="url(#p2501146e46)" d="M 1222.187951 266.777693 
L 1222.187951 266.777693 
L 1229.924757 266.777693 
L 1229.924757 266.777693 
L 1222.187951 266.777693 
" style="fill:#009afa;stroke:#000000;stroke-linejoin:miter;"/>
   </g>
   <g id="patch_158">
    <path clip-path="url(#p2501146e46)" d="M 1229.924757 266.62394 
L 1229.924757 266.777693 
L 1237.661563 266.777693 
L 1237.661563 266.62394 
L 1229.924757 266.62394 
" style="fill:#009afa;stroke:#000000;stroke-linejoin:miter;"/>
   </g>
   <g id="patch_159">
    <path clip-path="url(#p2501146e46)" d="M 1237.661563 266.62394 
L 1237.661563 266.777693 
L 1245.398369 266.777693 
L 1245.398369 266.62394 
L 1237.661563 266.62394 
" style="fill:#009afa;stroke:#000000;stroke-linejoin:miter;"/>
   </g>
   <g id="patch_160">
    <path clip-path="url(#p2501146e46)" d="M 1245.398369 266.777693 
L 1245.398369 266.777693 
L 1253.135175 266.777693 
L 1253.135175 266.777693 
L 1245.398369 266.777693 
" style="fill:#009afa;stroke:#000000;stroke-linejoin:miter;"/>
   </g>
   <g id="patch_161">
    <path clip-path="url(#p2501146e46)" d="M 1253.135175 266.572688 
L 1253.135175 266.777693 
L 1260.87198 266.777693 
L 1260.87198 266.572688 
L 1253.135175 266.572688 
" style="fill:#009afa;stroke:#000000;stroke-linejoin:miter;"/>
   </g>
   <g id="patch_162">
    <path clip-path="url(#p2501146e46)" d="M 1260.87198 266.777693 
L 1260.87198 266.777693 
L 1268.608786 266.777693 
L 1268.608786 266.777693 
L 1260.87198 266.777693 
" style="fill:#009afa;stroke:#000000;stroke-linejoin:miter;"/>
   </g>
   <g id="patch_163">
    <path clip-path="url(#p2501146e46)" d="M 1268.608786 266.675191 
L 1268.608786 266.777693 
L 1276.345592 266.777693 
L 1276.345592 266.675191 
L 1268.608786 266.675191 
" style="fill:#009afa;stroke:#000000;stroke-linejoin:miter;"/>
   </g>
   <g id="patch_164">
    <path clip-path="url(#p2501146e46)" d="M 1276.345592 266.726442 
L 1276.345592 266.777693 
L 1284.082398 266.777693 
L 1284.082398 266.726442 
L 1276.345592 266.726442 
" style="fill:#009afa;stroke:#000000;stroke-linejoin:miter;"/>
   </g>
   <g id="patch_165">
    <path clip-path="url(#p2501146e46)" d="M 1284.082398 266.572688 
L 1284.082398 266.777693 
L 1291.819204 266.777693 
L 1291.819204 266.572688 
L 1284.082398 266.572688 
" style="fill:#009afa;stroke:#000000;stroke-linejoin:miter;"/>
   </g>
   <g id="patch_166">
    <path clip-path="url(#p2501146e46)" d="M 1291.819204 266.726442 
L 1291.819204 266.777693 
L 1299.55601 266.777693 
L 1299.55601 266.726442 
L 1291.819204 266.726442 
" style="fill:#009afa;stroke:#000000;stroke-linejoin:miter;"/>
   </g>
   <g id="patch_167">
    <path clip-path="url(#p2501146e46)" d="M 1299.55601 266.726442 
L 1299.55601 266.777693 
L 1307.292815 266.777693 
L 1307.292815 266.726442 
L 1299.55601 266.726442 
" style="fill:#009afa;stroke:#000000;stroke-linejoin:miter;"/>
   </g>
   <g id="patch_168">
    <path clip-path="url(#p2501146e46)" d="M 1307.292815 266.777693 
L 1307.292815 266.777693 
L 1315.029621 266.777693 
L 1315.029621 266.777693 
L 1307.292815 266.777693 
" style="fill:#009afa;stroke:#000000;stroke-linejoin:miter;"/>
   </g>
   <g id="patch_169">
    <path clip-path="url(#p2501146e46)" d="M 1315.029621 266.675191 
L 1315.029621 266.777693 
L 1322.766427 266.777693 
L 1322.766427 266.675191 
L 1315.029621 266.675191 
" style="fill:#009afa;stroke:#000000;stroke-linejoin:miter;"/>
   </g>
   <g id="patch_170">
    <path clip-path="url(#p2501146e46)" d="M 1322.766427 266.726442 
L 1322.766427 266.777693 
L 1330.503233 266.777693 
L 1330.503233 266.726442 
L 1322.766427 266.726442 
" style="fill:#009afa;stroke:#000000;stroke-linejoin:miter;"/>
   </g>
   <g id="patch_171">
    <path clip-path="url(#p2501146e46)" d="M 1330.503233 266.675191 
L 1330.503233 266.777693 
L 1338.240039 266.777693 
L 1338.240039 266.675191 
L 1330.503233 266.675191 
" style="fill:#009afa;stroke:#000000;stroke-linejoin:miter;"/>
   </g>
   <g id="patch_172">
    <path clip-path="url(#p2501146e46)" d="M 1338.240039 266.572688 
L 1338.240039 266.777693 
L 1345.976844 266.777693 
L 1345.976844 266.572688 
L 1338.240039 266.572688 
" style="fill:#009afa;stroke:#000000;stroke-linejoin:miter;"/>
   </g>
   <g id="patch_173">
    <path clip-path="url(#p2501146e46)" d="M 1345.976844 266.675191 
L 1345.976844 266.777693 
L 1353.71365 266.777693 
L 1353.71365 266.675191 
L 1345.976844 266.675191 
" style="fill:#009afa;stroke:#000000;stroke-linejoin:miter;"/>
   </g>
   <g id="patch_174">
    <path clip-path="url(#p2501146e46)" d="M 1353.71365 266.777693 
L 1353.71365 266.777693 
L 1361.450456 266.777693 
L 1361.450456 266.777693 
L 1353.71365 266.777693 
" style="fill:#009afa;stroke:#000000;stroke-linejoin:miter;"/>
   </g>
   <g id="patch_175">
    <path clip-path="url(#p2501146e46)" d="M 1361.450456 266.726442 
L 1361.450456 266.777693 
L 1369.187262 266.777693 
L 1369.187262 266.726442 
L 1361.450456 266.726442 
" style="fill:#009afa;stroke:#000000;stroke-linejoin:miter;"/>
   </g>
   <g id="patch_176">
    <path clip-path="url(#p2501146e46)" d="M 1369.187262 266.777693 
L 1369.187262 266.777693 
L 1376.924068 266.777693 
L 1376.924068 266.777693 
L 1369.187262 266.777693 
" style="fill:#009afa;stroke:#000000;stroke-linejoin:miter;"/>
   </g>
   <g id="patch_177">
    <path clip-path="url(#p2501146e46)" d="M 1376.924068 266.62394 
L 1376.924068 266.777693 
L 1384.660874 266.777693 
L 1384.660874 266.62394 
L 1376.924068 266.62394 
" style="fill:#009afa;stroke:#000000;stroke-linejoin:miter;"/>
   </g>
   <g id="patch_178">
    <path clip-path="url(#p2501146e46)" d="M 1384.660874 266.726442 
L 1384.660874 266.777693 
L 1392.397679 266.777693 
L 1392.397679 266.726442 
L 1384.660874 266.726442 
" style="fill:#009afa;stroke:#000000;stroke-linejoin:miter;"/>
   </g>
   <g id="patch_179">
    <path clip-path="url(#p2501146e46)" d="M 1392.397679 266.726442 
L 1392.397679 266.777693 
L 1400.134485 266.777693 
L 1400.134485 266.726442 
L 1392.397679 266.726442 
" style="fill:#009afa;stroke:#000000;stroke-linejoin:miter;"/>
   </g>
   <g id="patch_180">
    <path clip-path="url(#p2501146e46)" d="M 1400.134485 266.675191 
L 1400.134485 266.777693 
L 1407.871291 266.777693 
L 1407.871291 266.675191 
L 1400.134485 266.675191 
" style="fill:#009afa;stroke:#000000;stroke-linejoin:miter;"/>
   </g>
   <g id="patch_181">
    <path clip-path="url(#p2501146e46)" d="M 1407.871291 266.726442 
L 1407.871291 266.777693 
L 1415.608097 266.777693 
L 1415.608097 266.726442 
L 1407.871291 266.726442 
" style="fill:#009afa;stroke:#000000;stroke-linejoin:miter;"/>
   </g>
   <g id="patch_182">
    <path clip-path="url(#p2501146e46)" d="M 1415.608097 266.726442 
L 1415.608097 266.777693 
L 1423.344903 266.777693 
L 1423.344903 266.726442 
L 1415.608097 266.726442 
" style="fill:#009afa;stroke:#000000;stroke-linejoin:miter;"/>
   </g>
   <g id="patch_183">
    <path clip-path="url(#p2501146e46)" d="M 1423.344903 266.777693 
L 1423.344903 266.777693 
L 1431.081709 266.777693 
L 1431.081709 266.777693 
L 1423.344903 266.777693 
" style="fill:#009afa;stroke:#000000;stroke-linejoin:miter;"/>
   </g>
   <g id="patch_184">
    <path clip-path="url(#p2501146e46)" d="M 1431.081709 266.777693 
L 1431.081709 266.777693 
L 1438.818514 266.777693 
L 1438.818514 266.777693 
L 1431.081709 266.777693 
" style="fill:#009afa;stroke:#000000;stroke-linejoin:miter;"/>
   </g>
   <g id="patch_185">
    <path clip-path="url(#p2501146e46)" d="M 1438.818514 266.675191 
L 1438.818514 266.777693 
L 1446.55532 266.777693 
L 1446.55532 266.675191 
L 1438.818514 266.675191 
" style="fill:#009afa;stroke:#000000;stroke-linejoin:miter;"/>
   </g>
   <g id="patch_186">
    <path clip-path="url(#p2501146e46)" d="M 1446.55532 266.777693 
L 1446.55532 266.777693 
L 1454.292126 266.777693 
L 1454.292126 266.777693 
L 1446.55532 266.777693 
" style="fill:#009afa;stroke:#000000;stroke-linejoin:miter;"/>
   </g>
   <g id="patch_187">
    <path clip-path="url(#p2501146e46)" d="M 1454.292126 266.777693 
L 1454.292126 266.777693 
L 1462.028932 266.777693 
L 1462.028932 266.777693 
L 1454.292126 266.777693 
" style="fill:#009afa;stroke:#000000;stroke-linejoin:miter;"/>
   </g>
   <g id="patch_188">
    <path clip-path="url(#p2501146e46)" d="M 1462.028932 266.726442 
L 1462.028932 266.777693 
L 1469.765738 266.777693 
L 1469.765738 266.726442 
L 1462.028932 266.726442 
" style="fill:#009afa;stroke:#000000;stroke-linejoin:miter;"/>
   </g>
   <g id="patch_189">
    <path clip-path="url(#p2501146e46)" d="M 1469.765738 266.777693 
L 1469.765738 266.777693 
L 1477.502543 266.777693 
L 1477.502543 266.777693 
L 1469.765738 266.777693 
" style="fill:#009afa;stroke:#000000;stroke-linejoin:miter;"/>
   </g>
   <g id="patch_190">
    <path clip-path="url(#p2501146e46)" d="M 1477.502543 266.726442 
L 1477.502543 266.777693 
L 1485.239349 266.777693 
L 1485.239349 266.726442 
L 1477.502543 266.726442 
" style="fill:#009afa;stroke:#000000;stroke-linejoin:miter;"/>
   </g>
   <g id="patch_191">
    <path clip-path="url(#p2501146e46)" d="M 1485.239349 266.726442 
L 1485.239349 266.777693 
L 1492.976155 266.777693 
L 1492.976155 266.726442 
L 1485.239349 266.726442 
" style="fill:#009afa;stroke:#000000;stroke-linejoin:miter;"/>
   </g>
   <g id="patch_192">
    <path clip-path="url(#p2501146e46)" d="M 1492.976155 266.726442 
L 1492.976155 266.777693 
L 1500.712961 266.777693 
L 1500.712961 266.726442 
L 1492.976155 266.726442 
" style="fill:#009afa;stroke:#000000;stroke-linejoin:miter;"/>
   </g>
   <g id="patch_193">
    <path clip-path="url(#p2501146e46)" d="M 1500.712961 266.777693 
L 1500.712961 266.777693 
L 1508.449767 266.777693 
L 1508.449767 266.777693 
L 1500.712961 266.777693 
" style="fill:#009afa;stroke:#000000;stroke-linejoin:miter;"/>
   </g>
   <g id="patch_194">
    <path clip-path="url(#p2501146e46)" d="M 1508.449767 266.726442 
L 1508.449767 266.777693 
L 1516.186573 266.777693 
L 1516.186573 266.726442 
L 1508.449767 266.726442 
" style="fill:#009afa;stroke:#000000;stroke-linejoin:miter;"/>
   </g>
   <g id="patch_195">
    <path clip-path="url(#p2501146e46)" d="M 1516.186573 266.777693 
L 1516.186573 266.777693 
L 1523.923378 266.777693 
L 1523.923378 266.777693 
L 1516.186573 266.777693 
" style="fill:#009afa;stroke:#000000;stroke-linejoin:miter;"/>
   </g>
   <g id="patch_196">
    <path clip-path="url(#p2501146e46)" d="M 1523.923378 266.777693 
L 1523.923378 266.777693 
L 1531.660184 266.777693 
L 1531.660184 266.777693 
L 1523.923378 266.777693 
" style="fill:#009afa;stroke:#000000;stroke-linejoin:miter;"/>
   </g>
   <g id="patch_197">
    <path clip-path="url(#p2501146e46)" d="M 1531.660184 266.777693 
L 1531.660184 266.777693 
L 1539.39699 266.777693 
L 1539.39699 266.777693 
L 1531.660184 266.777693 
" style="fill:#009afa;stroke:#000000;stroke-linejoin:miter;"/>
   </g>
   <g id="patch_198">
    <path clip-path="url(#p2501146e46)" d="M 1539.39699 266.777693 
L 1539.39699 266.777693 
L 1547.133796 266.777693 
L 1547.133796 266.777693 
L 1539.39699 266.777693 
" style="fill:#009afa;stroke:#000000;stroke-linejoin:miter;"/>
   </g>
   <g id="patch_199">
    <path clip-path="url(#p2501146e46)" d="M 1547.133796 266.777693 
L 1547.133796 266.777693 
L 1554.870602 266.777693 
L 1554.870602 266.777693 
L 1547.133796 266.777693 
" style="fill:#009afa;stroke:#000000;stroke-linejoin:miter;"/>
   </g>
   <g id="patch_200">
    <path clip-path="url(#p2501146e46)" d="M 1554.870602 266.777693 
L 1554.870602 266.777693 
L 1562.607408 266.777693 
L 1562.607408 266.777693 
L 1554.870602 266.777693 
" style="fill:#009afa;stroke:#000000;stroke-linejoin:miter;"/>
   </g>
   <g id="patch_201">
    <path clip-path="url(#p2501146e46)" d="M 1562.607408 266.777693 
L 1562.607408 266.777693 
L 1570.344213 266.777693 
L 1570.344213 266.777693 
L 1562.607408 266.777693 
" style="fill:#009afa;stroke:#000000;stroke-linejoin:miter;"/>
   </g>
   <g id="patch_202">
    <path clip-path="url(#p2501146e46)" d="M 1570.344213 266.777693 
L 1570.344213 266.777693 
L 1578.081019 266.777693 
L 1578.081019 266.777693 
L 1570.344213 266.777693 
" style="fill:#009afa;stroke:#000000;stroke-linejoin:miter;"/>
   </g>
   <g id="patch_203">
    <path clip-path="url(#p2501146e46)" d="M 1578.081019 266.777693 
L 1578.081019 266.777693 
L 1585.817825 266.777693 
L 1585.817825 266.777693 
L 1578.081019 266.777693 
" style="fill:#009afa;stroke:#000000;stroke-linejoin:miter;"/>
   </g>
   <g id="patch_204">
    <path clip-path="url(#p2501146e46)" d="M 1585.817825 266.777693 
L 1585.817825 266.777693 
L 1593.554631 266.777693 
L 1593.554631 266.777693 
L 1585.817825 266.777693 
" style="fill:#009afa;stroke:#000000;stroke-linejoin:miter;"/>
   </g>
   <g id="patch_205">
    <path clip-path="url(#p2501146e46)" d="M 1593.554631 266.777693 
L 1593.554631 266.777693 
L 1601.291437 266.777693 
L 1601.291437 266.777693 
L 1593.554631 266.777693 
" style="fill:#009afa;stroke:#000000;stroke-linejoin:miter;"/>
   </g>
   <g id="patch_206">
    <path clip-path="url(#p2501146e46)" d="M 1601.291437 266.777693 
L 1601.291437 266.777693 
L 1609.028242 266.777693 
L 1609.028242 266.777693 
L 1601.291437 266.777693 
" style="fill:#009afa;stroke:#000000;stroke-linejoin:miter;"/>
   </g>
   <g id="patch_207">
    <path clip-path="url(#p2501146e46)" d="M 1609.028242 266.777693 
L 1609.028242 266.777693 
L 1616.765048 266.777693 
L 1616.765048 266.777693 
L 1609.028242 266.777693 
" style="fill:#009afa;stroke:#000000;stroke-linejoin:miter;"/>
   </g>
   <g id="patch_208">
    <path clip-path="url(#p2501146e46)" d="M 1616.765048 266.777693 
L 1616.765048 266.777693 
L 1624.501854 266.777693 
L 1624.501854 266.777693 
L 1616.765048 266.777693 
" style="fill:#009afa;stroke:#000000;stroke-linejoin:miter;"/>
   </g>
   <g id="patch_209">
    <path clip-path="url(#p2501146e46)" d="M 1624.501854 266.777693 
L 1624.501854 266.777693 
L 1632.23866 266.777693 
L 1632.23866 266.777693 
L 1624.501854 266.777693 
" style="fill:#009afa;stroke:#000000;stroke-linejoin:miter;"/>
   </g>
   <g id="patch_210">
    <path clip-path="url(#p2501146e46)" d="M 1632.23866 266.777693 
L 1632.23866 266.777693 
L 1639.975466 266.777693 
L 1639.975466 266.777693 
L 1632.23866 266.777693 
" style="fill:#009afa;stroke:#000000;stroke-linejoin:miter;"/>
   </g>
   <g id="patch_211">
    <path clip-path="url(#p2501146e46)" d="M 1639.975466 266.777693 
L 1639.975466 266.777693 
L 1647.712272 266.777693 
L 1647.712272 266.777693 
L 1639.975466 266.777693 
" style="fill:#009afa;stroke:#000000;stroke-linejoin:miter;"/>
   </g>
   <g id="patch_212">
    <path clip-path="url(#p2501146e46)" d="M 1647.712272 266.777693 
L 1647.712272 266.777693 
L 1655.449077 266.777693 
L 1655.449077 266.777693 
L 1647.712272 266.777693 
" style="fill:#009afa;stroke:#000000;stroke-linejoin:miter;"/>
   </g>
   <g id="patch_213">
    <path clip-path="url(#p2501146e46)" d="M 1655.449077 266.726442 
L 1655.449077 266.777693 
L 1663.185883 266.777693 
L 1663.185883 266.726442 
L 1655.449077 266.726442 
" style="fill:#009afa;stroke:#000000;stroke-linejoin:miter;"/>
   </g>
   <g id="patch_214">
    <path clip-path="url(#p2501146e46)" d="M 1663.185883 266.726442 
L 1663.185883 266.777693 
L 1670.922689 266.777693 
L 1670.922689 266.726442 
L 1663.185883 266.726442 
" style="fill:#009afa;stroke:#000000;stroke-linejoin:miter;"/>
   </g>
   <g id="line2d_25">
    <path clip-path="url(#p2501146e46)" d="M 31.493535 11.800386 
L 33.048711 14.350202 
L 34.603887 16.874519 
L 36.159063 19.373593 
L 37.714239 21.847675 
L 39.269416 24.297017 
L 40.824592 26.721864 
L 42.379768 29.122462 
L 43.934944 31.499054 
L 45.49012 33.85188 
L 47.045296 36.181177 
L 48.600472 38.487181 
L 50.155648 40.770125 
L 51.710825 43.030238 
L 53.266001 45.26775 
L 54.821177 47.482887 
L 56.376353 49.675871 
L 57.931529 51.846926 
L 59.486705 53.99627 
L 61.041881 56.12412 
L 62.597057 58.230691 
L 64.152234 60.316196 
L 65.70741 62.380845 
L 67.262586 64.424848 
L 68.817762 66.44841 
L 70.372938 68.451737 
L 71.928114 70.435029 
L 73.48329 72.398489 
L 75.038466 74.342313 
L 76.593642 76.266699 
L 78.148819 78.171841 
L 79.703995 80.057931 
L 81.259171 81.92516 
L 82.814347 83.773717 
L 84.369523 85.603787 
L 85.924699 87.415556 
L 87.479875 89.209208 
L 89.035051 90.984922 
L 90.590228 92.74288 
L 92.145404 94.483257 
L 93.70058 96.20623 
L 95.255756 97.911973 
L 96.810932 99.600659 
L 98.366108 101.272457 
L 99.921284 102.927537 
L 101.47646 104.566066 
L 103.031637 106.18821 
L 104.586813 107.794131 
L 106.141989 109.383994 
L 107.697165 110.957957 
L 109.252341 112.51618 
L 110.807517 114.058821 
L 112.362693 115.586036 
L 113.917869 117.097978 
L 115.473045 118.5948 
L 117.028222 120.076654 
L 118.583398 121.543689 
L 120.138574 122.996053 
L 121.69375 124.433893 
L 123.248926 125.857355 
L 124.804102 127.266582 
L 126.359278 128.661717 
L 127.914454 130.0429 
L 129.469631 131.41027 
L 131.024807 132.763967 
L 132.579983 134.104127 
L 134.135159 135.430885 
L 135.690335 136.744375 
L 137.245511 138.04473 
L 138.800687 139.332081 
L 140.355863 140.606559 
L 141.91104 141.868291 
L 143.466216 143.117406 
L 145.021392 144.35403 
L 146.576568 145.578287 
L 148.131744 146.790301 
L 149.68692 147.990195 
L 151.242096 149.17809 
L 152.797272 150.354106 
L 154.352448 151.518361 
L 155.907625 152.670974 
L 157.462801 153.81206 
L 159.017977 154.941735 
L 160.573153 156.060114 
L 162.128329 157.167308 
L 163.683505 158.26343 
L 165.238681 159.348591 
L 166.793857 160.4229 
L 168.349034 161.486466 
L 169.90421 162.539396 
L 171.459386 163.581796 
L 173.014562 164.613772 
L 174.569738 165.635429 
L 176.124914 166.646868 
L 177.68009 167.648193 
L 179.235266 168.639505 
L 180.790443 169.620903 
L 182.345619 170.592487 
L 183.900795 171.554355 
L 185.455971 172.506605 
" style="fill:none;stroke:#e36f47;stroke-linecap:round;"/>
   </g>
   <g id="patch_215">
    <path d="M 19.114646 274.465354 
L 19.114646 2.834646 
" style="fill:none;stroke:#000000;stroke-linecap:square;stroke-linejoin:miter;"/>
   </g>
   <g id="patch_216">
    <path d="M 19.114646 274.465354 
L 429.165354 274.465354 
" style="fill:none;stroke:#000000;stroke-linecap:square;stroke-linejoin:miter;"/>
   </g>
   <g id="line2d_26">
    <path clip-path="url(#p2501146e46)" d="M 31.493535 11.800386 
L 33.048711 14.350202 
L 34.603887 16.874519 
L 36.159063 19.373593 
L 37.714239 21.847675 
L 39.269416 24.297017 
L 40.824592 26.721864 
L 42.379768 29.122462 
L 43.934944 31.499054 
L 45.49012 33.85188 
L 47.045296 36.181177 
L 48.600472 38.487181 
L 50.155648 40.770125 
L 51.710825 43.030238 
L 53.266001 45.26775 
L 54.821177 47.482887 
L 56.376353 49.675871 
L 57.931529 51.846926 
L 59.486705 53.99627 
L 61.041881 56.12412 
L 62.597057 58.230691 
L 64.152234 60.316196 
L 65.70741 62.380845 
L 67.262586 64.424848 
L 68.817762 66.44841 
L 70.372938 68.451737 
L 71.928114 70.435029 
L 73.48329 72.398489 
L 75.038466 74.342313 
L 76.593642 76.266699 
L 78.148819 78.171841 
L 79.703995 80.057931 
L 81.259171 81.92516 
L 82.814347 83.773717 
L 84.369523 85.603787 
L 85.924699 87.415556 
L 87.479875 89.209208 
L 89.035051 90.984922 
L 90.590228 92.74288 
L 92.145404 94.483257 
L 93.70058 96.20623 
L 95.255756 97.911973 
L 96.810932 99.600659 
L 98.366108 101.272457 
L 99.921284 102.927537 
L 101.47646 104.566066 
L 103.031637 106.18821 
L 104.586813 107.794131 
L 106.141989 109.383994 
L 107.697165 110.957957 
L 109.252341 112.51618 
L 110.807517 114.058821 
L 112.362693 115.586036 
L 113.917869 117.097978 
L 115.473045 118.5948 
L 117.028222 120.076654 
L 118.583398 121.543689 
L 120.138574 122.996053 
L 121.69375 124.433893 
L 123.248926 125.857355 
L 124.804102 127.266582 
L 126.359278 128.661717 
L 127.914454 130.0429 
L 129.469631 131.41027 
L 131.024807 132.763967 
L 132.579983 134.104127 
L 134.135159 135.430885 
L 135.690335 136.744375 
L 137.245511 138.04473 
L 138.800687 139.332081 
L 140.355863 140.606559 
L 141.91104 141.868291 
L 143.466216 143.117406 
L 145.021392 144.35403 
L 146.576568 145.578287 
L 148.131744 146.790301 
L 149.68692 147.990195 
L 151.242096 149.17809 
L 152.797272 150.354106 
L 154.352448 151.518361 
L 155.907625 152.670974 
L 157.462801 153.81206 
L 159.017977 154.941735 
L 160.573153 156.060114 
L 162.128329 157.167308 
L 163.683505 158.26343 
L 165.238681 159.348591 
L 166.793857 160.4229 
L 168.349034 161.486466 
L 169.90421 162.539396 
L 171.459386 163.581796 
L 173.014562 164.613772 
L 174.569738 165.635429 
L 176.124914 166.646868 
L 177.68009 167.648193 
L 179.235266 168.639505 
L 180.790443 169.620903 
L 182.345619 170.592487 
L 183.900795 171.554355 
L 185.455971 172.506605 
" style="fill:none;stroke:#3ea44e;stroke-dasharray:3.7,1.6;stroke-dashoffset:0;"/>
   </g>
   <g id="legend_1">
    <g id="patch_217">
     <path d="M 367.485354 45.679646 
L 425.165354 45.679646 
L 425.165354 6.834646 
L 367.485354 6.834646 
z
" style="fill:#ffffff;stroke:#000000;stroke-linejoin:miter;"/>
    </g>
    <g id="patch_218">
     <path d="M 370.685354 16.113396 
L 386.685354 16.113396 
L 386.685354 10.513396 
L 370.685354 10.513396 
z
" style="fill:#009afa;stroke:#000000;stroke-linejoin:miter;"/>
    </g>
    <g id="text_13">
     <!-- $X^2+Y^2$ -->
     <defs>
      <path d="M 13.71875 72.90625 
L 23.6875 72.90625 
L 36.1875 46.578125 
L 58.796875 72.90625 
L 70.3125 72.90625 
L 40.28125 38.09375 
L 58.40625 0 
L 48.484375 0 
L 33.796875 30.71875 
L 7.171875 0 
L -4.296875 0 
L 29.78125 39.203125 
z
" id="DejaVuSans-Oblique-88"/>
      <path d="M 46 62.703125 
L 46 35.5 
L 73.1875 35.5 
L 73.1875 27.203125 
L 46 27.203125 
L 46 0 
L 37.796875 0 
L 37.796875 27.203125 
L 10.59375 27.203125 
L 10.59375 35.5 
L 37.796875 35.5 
L 37.796875 62.703125 
z
" id="DejaVuSans-43"/>
      <path d="M 6.296875 72.90625 
L 16.890625 72.90625 
L 30.515625 42.921875 
L 56.5 72.90625 
L 67.578125 72.90625 
L 34.515625 34.71875 
L 27.78125 0 
L 17.921875 0 
L 24.609375 34.71875 
z
" id="DejaVuSans-Oblique-89"/>
     </defs>
     <g transform="translate(393.085354 16.113396)scale(0.08 -0.08)">
      <use transform="translate(0 0.765625)" xlink:href="#DejaVuSans-Oblique-88"/>
      <use transform="translate(75.52263 39.046875)scale(0.7)" xlink:href="#DejaVuSans-50"/>
      <use transform="translate(142.27556 0.765625)" xlink:href="#DejaVuSans-43"/>
      <use transform="translate(245.547044 0.765625)" xlink:href="#DejaVuSans-Oblique-89"/>
      <use transform="translate(313.647799 39.046875)scale(0.7)" xlink:href="#DejaVuSans-50"/>
     </g>
    </g>
    <g id="line2d_27">
     <path d="M 370.685354 25.055896 
L 386.685354 25.055896 
" style="fill:none;stroke:#e36f47;stroke-linecap:square;"/>
    </g>
    <g id="line2d_28"/>
    <g id="text_14">
     <!-- $T_3$ -->
     <defs>
      <path d="M 5.90625 72.90625 
L 67.578125 72.90625 
L 66.015625 64.59375 
L 39.984375 64.59375 
L 27.484375 0 
L 17.578125 0 
L 30.078125 64.59375 
L 4.296875 64.59375 
z
" id="DejaVuSans-Oblique-84"/>
     </defs>
     <g transform="translate(393.085354 27.855896)scale(0.08 -0.08)">
      <use transform="translate(0 0.09375)" xlink:href="#DejaVuSans-Oblique-84"/>
      <use transform="translate(61.083984 -16.3125)scale(0.7)" xlink:href="#DejaVuSans-51"/>
     </g>
    </g>
    <g id="line2d_29">
     <path d="M 370.685354 37.999646 
L 386.685354 37.999646 
" style="fill:none;stroke:#3ea44e;stroke-dasharray:3.7,1.6;stroke-dashoffset:0;"/>
    </g>
    <g id="line2d_30"/>
    <g id="text_15">
     <!-- $\chi^2(2)$ -->
     <defs>
      <path d="M 30.03125 -12.203125 
L 26.421875 6.5 
L 6.15625 -20.84375 
L -4.4375 -20.84375 
L 24.265625 17.828125 
L 19.828125 40.828125 
Q 18.65625 46.96875 11.140625 46.96875 
L 8.734375 46.96875 
L 10.203125 54.6875 
L 13.625 54.59375 
Q 26.171875 54.25 27.734375 46.09375 
L 31.34375 27.390625 
L 51.609375 54.734375 
L 62.203125 54.734375 
L 33.5 16.0625 
L 37.9375 -6.9375 
Q 39.109375 -13.09375 46.625 -13.09375 
L 49.03125 -13.09375 
L 47.5625 -20.796875 
L 44.140625 -20.703125 
Q 31.59375 -20.359375 30.03125 -12.203125 
z
" id="DejaVuSans-Oblique-967"/>
      <path d="M 31 75.875 
Q 24.46875 64.65625 21.28125 53.65625 
Q 18.109375 42.671875 18.109375 31.390625 
Q 18.109375 20.125 21.3125 9.0625 
Q 24.515625 -2 31 -13.1875 
L 23.1875 -13.1875 
Q 15.875 -1.703125 12.234375 9.375 
Q 8.59375 20.453125 8.59375 31.390625 
Q 8.59375 42.28125 12.203125 53.3125 
Q 15.828125 64.359375 23.1875 75.875 
z
" id="DejaVuSans-40"/>
      <path d="M 8.015625 75.875 
L 15.828125 75.875 
Q 23.140625 64.359375 26.78125 53.3125 
Q 30.421875 42.28125 30.421875 31.390625 
Q 30.421875 20.453125 26.78125 9.375 
Q 23.140625 -1.703125 15.828125 -13.1875 
L 8.015625 -13.1875 
Q 14.5 -2 17.703125 9.0625 
Q 20.90625 20.125 20.90625 31.390625 
Q 20.90625 42.671875 17.703125 53.65625 
Q 14.5 64.65625 8.015625 75.875 
z
" id="DejaVuSans-41"/>
     </defs>
     <g transform="translate(393.085354 40.799646)scale(0.08 -0.08)">
      <use transform="translate(0 0.765625)" xlink:href="#DejaVuSans-Oblique-967"/>
      <use transform="translate(63.652396 39.046875)scale(0.7)" xlink:href="#DejaVuSans-50"/>
      <use transform="translate(110.922904 0.765625)" xlink:href="#DejaVuSans-40"/>
      <use transform="translate(149.936576 0.765625)" xlink:href="#DejaVuSans-50"/>
      <use transform="translate(213.559622 0.765625)" xlink:href="#DejaVuSans-41"/>
     </g>
    </g>
   </g>
  </g>
 </g>
 <defs>
  <clipPath id="p2501146e46">
   <rect height="271.630709" width="410.050709" x="19.114646" y="2.834646"/>
  </clipPath>
 </defs>
</svg>
