<?xml version="1.0" encoding="utf-8" standalone="no"?>
<!DOCTYPE svg PUBLIC "-//W3C//DTD SVG 1.1//EN"
  "http://www.w3.org/Graphics/SVG/1.1/DTD/svg11.dtd">
<!-- Created with matplotlib (https://matplotlib.org/) -->
<svg height="288pt" version="1.1" viewBox="0 0 432 288" width="432pt" xmlns="http://www.w3.org/2000/svg" xmlns:xlink="http://www.w3.org/1999/xlink">
 <defs>
  <style type="text/css">
*{stroke-linecap:butt;stroke-linejoin:round;}
  </style>
 </defs>
 <g id="figure_1">
  <g id="patch_1">
   <path d="M 0 288 
L 432 288 
L 432 0 
L 0 0 
z
" style="fill:#ffffff;"/>
  </g>
  <g id="axes_1">
   <g id="patch_2">
    <path d="M 19.963856 273.025354 
L 429.165354 273.025354 
L 429.165354 2.834646 
L 19.963856 2.834646 
z
" style="fill:#ffffff;"/>
   </g>
   <g id="matplotlib.axis_1">
    <g id="xtick_1">
     <g id="line2d_1">
      <path clip-path="url(#pfbb12f590f)" d="M 31.54503 273.025354 
L 31.54503 2.834646 
" style="fill:none;stroke:#000000;stroke-linecap:square;stroke-opacity:0.1;stroke-width:0.5;"/>
     </g>
     <g id="line2d_2">
      <defs>
       <path d="M 0 0 
L 0 -2.5 
" id="m91d4c245bd" style="stroke:#000000;stroke-width:0.5;"/>
      </defs>
      <g>
       <use style="stroke:#000000;stroke-width:0.5;" x="31.54503" xlink:href="#m91d4c245bd" y="273.025354"/>
      </g>
     </g>
     <g id="text_1">
      <!-- $\mathregular{0}$ -->
      <defs>
       <path d="M 31.78125 66.40625 
Q 24.171875 66.40625 20.328125 58.90625 
Q 16.5 51.421875 16.5 36.375 
Q 16.5 21.390625 20.328125 13.890625 
Q 24.171875 6.390625 31.78125 6.390625 
Q 39.453125 6.390625 43.28125 13.890625 
Q 47.125 21.390625 47.125 36.375 
Q 47.125 51.421875 43.28125 58.90625 
Q 39.453125 66.40625 31.78125 66.40625 
z
M 31.78125 74.21875 
Q 44.046875 74.21875 50.515625 64.515625 
Q 56.984375 54.828125 56.984375 36.375 
Q 56.984375 17.96875 50.515625 8.265625 
Q 44.046875 -1.421875 31.78125 -1.421875 
Q 19.53125 -1.421875 13.0625 8.265625 
Q 6.59375 17.96875 6.59375 36.375 
Q 6.59375 54.828125 13.0625 64.515625 
Q 19.53125 74.21875 31.78125 74.21875 
z
" id="DejaVuSans-48"/>
      </defs>
      <g transform="translate(28.98503 282.604104)scale(0.08 -0.08)">
       <use transform="translate(0 0.78125)" xlink:href="#DejaVuSans-48"/>
      </g>
     </g>
    </g>
    <g id="xtick_2">
     <g id="line2d_3">
      <path clip-path="url(#pfbb12f590f)" d="M 108.75286 273.025354 
L 108.75286 2.834646 
" style="fill:none;stroke:#000000;stroke-linecap:square;stroke-opacity:0.1;stroke-width:0.5;"/>
     </g>
     <g id="line2d_4">
      <g>
       <use style="stroke:#000000;stroke-width:0.5;" x="108.75286" xlink:href="#m91d4c245bd" y="273.025354"/>
      </g>
     </g>
     <g id="text_2">
      <!-- $\mathregular{1}$ -->
      <defs>
       <path d="M 12.40625 8.296875 
L 28.515625 8.296875 
L 28.515625 63.921875 
L 10.984375 60.40625 
L 10.984375 69.390625 
L 28.421875 72.90625 
L 38.28125 72.90625 
L 38.28125 8.296875 
L 54.390625 8.296875 
L 54.390625 0 
L 12.40625 0 
z
" id="DejaVuSans-49"/>
      </defs>
      <g transform="translate(106.19286 282.604104)scale(0.08 -0.08)">
       <use transform="translate(0 0.09375)" xlink:href="#DejaVuSans-49"/>
      </g>
     </g>
    </g>
    <g id="xtick_3">
     <g id="line2d_5">
      <path clip-path="url(#pfbb12f590f)" d="M 185.96069 273.025354 
L 185.96069 2.834646 
" style="fill:none;stroke:#000000;stroke-linecap:square;stroke-opacity:0.1;stroke-width:0.5;"/>
     </g>
     <g id="line2d_6">
      <g>
       <use style="stroke:#000000;stroke-width:0.5;" x="185.96069" xlink:href="#m91d4c245bd" y="273.025354"/>
      </g>
     </g>
     <g id="text_3">
      <!-- $\mathregular{2}$ -->
      <defs>
       <path d="M 19.1875 8.296875 
L 53.609375 8.296875 
L 53.609375 0 
L 7.328125 0 
L 7.328125 8.296875 
Q 12.9375 14.109375 22.625 23.890625 
Q 32.328125 33.6875 34.8125 36.53125 
Q 39.546875 41.84375 41.421875 45.53125 
Q 43.3125 49.21875 43.3125 52.78125 
Q 43.3125 58.59375 39.234375 62.25 
Q 35.15625 65.921875 28.609375 65.921875 
Q 23.96875 65.921875 18.8125 64.3125 
Q 13.671875 62.703125 7.8125 59.421875 
L 7.8125 69.390625 
Q 13.765625 71.78125 18.9375 73 
Q 24.125 74.21875 28.421875 74.21875 
Q 39.75 74.21875 46.484375 68.546875 
Q 53.21875 62.890625 53.21875 53.421875 
Q 53.21875 48.921875 51.53125 44.890625 
Q 49.859375 40.875 45.40625 35.40625 
Q 44.1875 33.984375 37.640625 27.21875 
Q 31.109375 20.453125 19.1875 8.296875 
z
" id="DejaVuSans-50"/>
      </defs>
      <g transform="translate(183.40069 282.604104)scale(0.08 -0.08)">
       <use transform="translate(0 0.78125)" xlink:href="#DejaVuSans-50"/>
      </g>
     </g>
    </g>
    <g id="xtick_4">
     <g id="line2d_7">
      <path clip-path="url(#pfbb12f590f)" d="M 263.16852 273.025354 
L 263.16852 2.834646 
" style="fill:none;stroke:#000000;stroke-linecap:square;stroke-opacity:0.1;stroke-width:0.5;"/>
     </g>
     <g id="line2d_8">
      <g>
       <use style="stroke:#000000;stroke-width:0.5;" x="263.16852" xlink:href="#m91d4c245bd" y="273.025354"/>
      </g>
     </g>
     <g id="text_4">
      <!-- $\mathregular{3}$ -->
      <defs>
       <path d="M 40.578125 39.3125 
Q 47.65625 37.796875 51.625 33 
Q 55.609375 28.21875 55.609375 21.1875 
Q 55.609375 10.40625 48.1875 4.484375 
Q 40.765625 -1.421875 27.09375 -1.421875 
Q 22.515625 -1.421875 17.65625 -0.515625 
Q 12.796875 0.390625 7.625 2.203125 
L 7.625 11.71875 
Q 11.71875 9.328125 16.59375 8.109375 
Q 21.484375 6.890625 26.8125 6.890625 
Q 36.078125 6.890625 40.9375 10.546875 
Q 45.796875 14.203125 45.796875 21.1875 
Q 45.796875 27.640625 41.28125 31.265625 
Q 36.765625 34.90625 28.71875 34.90625 
L 20.21875 34.90625 
L 20.21875 43.015625 
L 29.109375 43.015625 
Q 36.375 43.015625 40.234375 45.921875 
Q 44.09375 48.828125 44.09375 54.296875 
Q 44.09375 59.90625 40.109375 62.90625 
Q 36.140625 65.921875 28.71875 65.921875 
Q 24.65625 65.921875 20.015625 65.03125 
Q 15.375 64.15625 9.8125 62.3125 
L 9.8125 71.09375 
Q 15.4375 72.65625 20.34375 73.4375 
Q 25.25 74.21875 29.59375 74.21875 
Q 40.828125 74.21875 47.359375 69.109375 
Q 53.90625 64.015625 53.90625 55.328125 
Q 53.90625 49.265625 50.4375 45.09375 
Q 46.96875 40.921875 40.578125 39.3125 
z
" id="DejaVuSans-51"/>
      </defs>
      <g transform="translate(260.60852 282.604104)scale(0.08 -0.08)">
       <use transform="translate(0 0.78125)" xlink:href="#DejaVuSans-51"/>
      </g>
     </g>
    </g>
    <g id="xtick_5">
     <g id="line2d_9">
      <path clip-path="url(#pfbb12f590f)" d="M 340.37635 273.025354 
L 340.37635 2.834646 
" style="fill:none;stroke:#000000;stroke-linecap:square;stroke-opacity:0.1;stroke-width:0.5;"/>
     </g>
     <g id="line2d_10">
      <g>
       <use style="stroke:#000000;stroke-width:0.5;" x="340.37635" xlink:href="#m91d4c245bd" y="273.025354"/>
      </g>
     </g>
     <g id="text_5">
      <!-- $\mathregular{4}$ -->
      <defs>
       <path d="M 37.796875 64.3125 
L 12.890625 25.390625 
L 37.796875 25.390625 
z
M 35.203125 72.90625 
L 47.609375 72.90625 
L 47.609375 25.390625 
L 58.015625 25.390625 
L 58.015625 17.1875 
L 47.609375 17.1875 
L 47.609375 0 
L 37.796875 0 
L 37.796875 17.1875 
L 4.890625 17.1875 
L 4.890625 26.703125 
z
" id="DejaVuSans-52"/>
      </defs>
      <g transform="translate(337.81635 282.604104)scale(0.08 -0.08)">
       <use transform="translate(0 0.09375)" xlink:href="#DejaVuSans-52"/>
      </g>
     </g>
    </g>
    <g id="xtick_6">
     <g id="line2d_11">
      <path clip-path="url(#pfbb12f590f)" d="M 417.58418 273.025354 
L 417.58418 2.834646 
" style="fill:none;stroke:#000000;stroke-linecap:square;stroke-opacity:0.1;stroke-width:0.5;"/>
     </g>
     <g id="line2d_12">
      <g>
       <use style="stroke:#000000;stroke-width:0.5;" x="417.58418" xlink:href="#m91d4c245bd" y="273.025354"/>
      </g>
     </g>
     <g id="text_6">
      <!-- $\mathregular{5}$ -->
      <defs>
       <path d="M 10.796875 72.90625 
L 49.515625 72.90625 
L 49.515625 64.59375 
L 19.828125 64.59375 
L 19.828125 46.734375 
Q 21.96875 47.46875 24.109375 47.828125 
Q 26.265625 48.1875 28.421875 48.1875 
Q 40.625 48.1875 47.75 41.5 
Q 54.890625 34.8125 54.890625 23.390625 
Q 54.890625 11.625 47.5625 5.09375 
Q 40.234375 -1.421875 26.90625 -1.421875 
Q 22.3125 -1.421875 17.546875 -0.640625 
Q 12.796875 0.140625 7.71875 1.703125 
L 7.71875 11.625 
Q 12.109375 9.234375 16.796875 8.0625 
Q 21.484375 6.890625 26.703125 6.890625 
Q 35.15625 6.890625 40.078125 11.328125 
Q 45.015625 15.765625 45.015625 23.390625 
Q 45.015625 31 40.078125 35.4375 
Q 35.15625 39.890625 26.703125 39.890625 
Q 22.75 39.890625 18.8125 39.015625 
Q 14.890625 38.140625 10.796875 36.28125 
z
" id="DejaVuSans-53"/>
      </defs>
      <g transform="translate(415.02418 282.604104)scale(0.08 -0.08)">
       <use transform="translate(0 0.09375)" xlink:href="#DejaVuSans-53"/>
      </g>
     </g>
    </g>
   </g>
   <g id="matplotlib.axis_2">
    <g id="ytick_1">
     <g id="line2d_13">
      <path clip-path="url(#pfbb12f590f)" d="M 19.963856 265.378447 
L 429.165354 265.378447 
" style="fill:none;stroke:#000000;stroke-linecap:square;stroke-opacity:0.1;stroke-width:0.5;"/>
     </g>
     <g id="line2d_14">
      <defs>
       <path d="M 0 0 
L 2.5 0 
" id="mf0c9d6f52b" style="stroke:#000000;stroke-width:0.5;"/>
      </defs>
      <g>
       <use style="stroke:#000000;stroke-width:0.5;" x="19.963856" xlink:href="#mf0c9d6f52b" y="265.378447"/>
      </g>
     </g>
     <g id="text_7">
      <!-- $\mathregular{0.0}$ -->
      <defs>
       <path d="M 10.6875 12.40625 
L 21 12.40625 
L 21 0 
L 10.6875 0 
z
" id="DejaVuSans-46"/>
      </defs>
      <g transform="translate(3.663856 268.417822)scale(0.08 -0.08)">
       <use transform="translate(0 0.78125)" xlink:href="#DejaVuSans-48"/>
       <use transform="translate(63.623047 0.78125)" xlink:href="#DejaVuSans-46"/>
       <use transform="translate(95.410156 0.78125)" xlink:href="#DejaVuSans-48"/>
      </g>
     </g>
    </g>
    <g id="ytick_2">
     <g id="line2d_15">
      <path clip-path="url(#pfbb12f590f)" d="M 19.963856 214.399068 
L 429.165354 214.399068 
" style="fill:none;stroke:#000000;stroke-linecap:square;stroke-opacity:0.1;stroke-width:0.5;"/>
     </g>
     <g id="line2d_16">
      <g>
       <use style="stroke:#000000;stroke-width:0.5;" x="19.963856" xlink:href="#mf0c9d6f52b" y="214.399068"/>
      </g>
     </g>
     <g id="text_8">
      <!-- $\mathregular{0.1}$ -->
      <g transform="translate(3.663856 217.438443)scale(0.08 -0.08)">
       <use transform="translate(0 0.78125)" xlink:href="#DejaVuSans-48"/>
       <use transform="translate(63.623047 0.78125)" xlink:href="#DejaVuSans-46"/>
       <use transform="translate(95.410156 0.78125)" xlink:href="#DejaVuSans-49"/>
      </g>
     </g>
    </g>
    <g id="ytick_3">
     <g id="line2d_17">
      <path clip-path="url(#pfbb12f590f)" d="M 19.963856 163.419689 
L 429.165354 163.419689 
" style="fill:none;stroke:#000000;stroke-linecap:square;stroke-opacity:0.1;stroke-width:0.5;"/>
     </g>
     <g id="line2d_18">
      <g>
       <use style="stroke:#000000;stroke-width:0.5;" x="19.963856" xlink:href="#mf0c9d6f52b" y="163.419689"/>
      </g>
     </g>
     <g id="text_9">
      <!-- $\mathregular{0.2}$ -->
      <g transform="translate(4.143856 166.459064)scale(0.08 -0.08)">
       <use transform="translate(0 0.78125)" xlink:href="#DejaVuSans-48"/>
       <use transform="translate(63.623047 0.78125)" xlink:href="#DejaVuSans-46"/>
       <use transform="translate(89.910156 0.78125)" xlink:href="#DejaVuSans-50"/>
      </g>
     </g>
    </g>
    <g id="ytick_4">
     <g id="line2d_19">
      <path clip-path="url(#pfbb12f590f)" d="M 19.963856 112.440311 
L 429.165354 112.440311 
" style="fill:none;stroke:#000000;stroke-linecap:square;stroke-opacity:0.1;stroke-width:0.5;"/>
     </g>
     <g id="line2d_20">
      <g>
       <use style="stroke:#000000;stroke-width:0.5;" x="19.963856" xlink:href="#mf0c9d6f52b" y="112.440311"/>
      </g>
     </g>
     <g id="text_10">
      <!-- $\mathregular{0.3}$ -->
      <g transform="translate(3.663856 115.479686)scale(0.08 -0.08)">
       <use transform="translate(0 0.78125)" xlink:href="#DejaVuSans-48"/>
       <use transform="translate(63.623047 0.78125)" xlink:href="#DejaVuSans-46"/>
       <use transform="translate(95.410156 0.78125)" xlink:href="#DejaVuSans-51"/>
      </g>
     </g>
    </g>
    <g id="ytick_5">
     <g id="line2d_21">
      <path clip-path="url(#pfbb12f590f)" d="M 19.963856 61.460932 
L 429.165354 61.460932 
" style="fill:none;stroke:#000000;stroke-linecap:square;stroke-opacity:0.1;stroke-width:0.5;"/>
     </g>
     <g id="line2d_22">
      <g>
       <use style="stroke:#000000;stroke-width:0.5;" x="19.963856" xlink:href="#mf0c9d6f52b" y="61.460932"/>
      </g>
     </g>
     <g id="text_11">
      <!-- $\mathregular{0.4}$ -->
      <g transform="translate(3.663856 64.500307)scale(0.08 -0.08)">
       <use transform="translate(0 0.78125)" xlink:href="#DejaVuSans-48"/>
       <use transform="translate(63.623047 0.78125)" xlink:href="#DejaVuSans-46"/>
       <use transform="translate(95.410156 0.78125)" xlink:href="#DejaVuSans-52"/>
      </g>
     </g>
    </g>
    <g id="ytick_6">
     <g id="line2d_23">
      <path clip-path="url(#pfbb12f590f)" d="M 19.963856 10.481553 
L 429.165354 10.481553 
" style="fill:none;stroke:#000000;stroke-linecap:square;stroke-opacity:0.1;stroke-width:0.5;"/>
     </g>
     <g id="line2d_24">
      <g>
       <use style="stroke:#000000;stroke-width:0.5;" x="19.963856" xlink:href="#mf0c9d6f52b" y="10.481553"/>
      </g>
     </g>
     <g id="text_12">
      <!-- $\mathregular{0.5}$ -->
      <g transform="translate(3.663856 13.520928)scale(0.08 -0.08)">
       <use transform="translate(0 0.78125)" xlink:href="#DejaVuSans-48"/>
       <use transform="translate(63.623047 0.78125)" xlink:href="#DejaVuSans-46"/>
       <use transform="translate(95.410156 0.78125)" xlink:href="#DejaVuSans-53"/>
      </g>
     </g>
    </g>
   </g>
   <g id="patch_3">
    <path clip-path="url(#pfbb12f590f)" d="M 31.54503 209.428579 
L 31.54503 265.378447 
L 46.986596 265.378447 
L 46.986596 209.428579 
L 31.54503 209.428579 
" style="fill:#009afa;stroke:#000000;stroke-linejoin:miter;"/>
   </g>
   <g id="patch_4">
    <path clip-path="url(#pfbb12f590f)" d="M 46.986596 167.676468 
L 46.986596 265.378447 
L 62.428162 265.378447 
L 62.428162 167.676468 
L 46.986596 167.676468 
" style="fill:#009afa;stroke:#000000;stroke-linejoin:miter;"/>
   </g>
   <g id="patch_5">
    <path clip-path="url(#pfbb12f590f)" d="M 62.428162 156.562963 
L 62.428162 265.378447 
L 77.869728 265.378447 
L 77.869728 156.562963 
L 62.428162 156.562963 
" style="fill:#009afa;stroke:#000000;stroke-linejoin:miter;"/>
   </g>
   <g id="patch_6">
    <path clip-path="url(#pfbb12f590f)" d="M 77.869728 144.404381 
L 77.869728 265.378447 
L 93.311294 265.378447 
L 93.311294 144.404381 
L 77.869728 144.404381 
" style="fill:#009afa;stroke:#000000;stroke-linejoin:miter;"/>
   </g>
   <g id="patch_7">
    <path clip-path="url(#pfbb12f590f)" d="M 93.311294 144.200464 
L 93.311294 265.378447 
L 108.75286 265.378447 
L 108.75286 144.200464 
L 93.311294 144.200464 
" style="fill:#009afa;stroke:#000000;stroke-linejoin:miter;"/>
   </g>
   <g id="patch_8">
    <path clip-path="url(#pfbb12f590f)" d="M 108.75286 143.945567 
L 108.75286 265.378447 
L 124.194426 265.378447 
L 124.194426 143.945567 
L 108.75286 143.945567 
" style="fill:#009afa;stroke:#000000;stroke-linejoin:miter;"/>
   </g>
   <g id="patch_9">
    <path clip-path="url(#pfbb12f590f)" d="M 124.194426 147.361185 
L 124.194426 265.378447 
L 139.635992 265.378447 
L 139.635992 147.361185 
L 124.194426 147.361185 
" style="fill:#009afa;stroke:#000000;stroke-linejoin:miter;"/>
   </g>
   <g id="patch_10">
    <path clip-path="url(#pfbb12f590f)" d="M 139.635992 148.151365 
L 139.635992 265.378447 
L 155.077558 265.378447 
L 155.077558 148.151365 
L 139.635992 148.151365 
" style="fill:#009afa;stroke:#000000;stroke-linejoin:miter;"/>
   </g>
   <g id="patch_11">
    <path clip-path="url(#pfbb12f590f)" d="M 155.077558 152.051288 
L 155.077558 265.378447 
L 170.519124 265.378447 
L 170.519124 152.051288 
L 155.077558 152.051288 
" style="fill:#009afa;stroke:#000000;stroke-linejoin:miter;"/>
   </g>
   <g id="patch_12">
    <path clip-path="url(#pfbb12f590f)" d="M 170.519124 157.582551 
L 170.519124 265.378447 
L 185.96069 265.378447 
L 185.96069 157.582551 
L 170.519124 157.582551 
" style="fill:#009afa;stroke:#000000;stroke-linejoin:miter;"/>
   </g>
   <g id="patch_13">
    <path clip-path="url(#pfbb12f590f)" d="M 185.96069 161.431494 
L 185.96069 265.378447 
L 201.402256 265.378447 
L 201.402256 161.431494 
L 185.96069 161.431494 
" style="fill:#009afa;stroke:#000000;stroke-linejoin:miter;"/>
   </g>
   <g id="patch_14">
    <path clip-path="url(#pfbb12f590f)" d="M 201.402256 167.115694 
L 201.402256 265.378447 
L 216.843822 265.378447 
L 216.843822 167.115694 
L 201.402256 167.115694 
" style="fill:#009afa;stroke:#000000;stroke-linejoin:miter;"/>
   </g>
   <g id="patch_15">
    <path clip-path="url(#pfbb12f590f)" d="M 216.843822 172.876364 
L 216.843822 265.378447 
L 232.285388 265.378447 
L 232.285388 172.876364 
L 216.843822 172.876364 
" style="fill:#009afa;stroke:#000000;stroke-linejoin:miter;"/>
   </g>
   <g id="patch_16">
    <path clip-path="url(#pfbb12f590f)" d="M 232.285388 177.540977 
L 232.285388 265.378447 
L 247.726954 265.378447 
L 247.726954 177.540977 
L 232.285388 177.540977 
" style="fill:#009afa;stroke:#000000;stroke-linejoin:miter;"/>
   </g>
   <g id="patch_17">
    <path clip-path="url(#pfbb12f590f)" d="M 247.726954 185.162395 
L 247.726954 265.378447 
L 263.16852 265.378447 
L 263.16852 185.162395 
L 247.726954 185.162395 
" style="fill:#009afa;stroke:#000000;stroke-linejoin:miter;"/>
   </g>
   <g id="patch_18">
    <path clip-path="url(#pfbb12f590f)" d="M 263.16852 188.221157 
L 263.16852 265.378447 
L 278.610086 265.378447 
L 278.610086 188.221157 
L 263.16852 188.221157 
" style="fill:#009afa;stroke:#000000;stroke-linejoin:miter;"/>
   </g>
   <g id="patch_19">
    <path clip-path="url(#pfbb12f590f)" d="M 278.610086 193.395564 
L 278.610086 265.378447 
L 294.051652 265.378447 
L 294.051652 193.395564 
L 278.610086 193.395564 
" style="fill:#009afa;stroke:#000000;stroke-linejoin:miter;"/>
   </g>
   <g id="patch_20">
    <path clip-path="url(#pfbb12f590f)" d="M 294.051652 198.977806 
L 294.051652 265.378447 
L 309.493218 265.378447 
L 309.493218 198.977806 
L 294.051652 198.977806 
" style="fill:#009afa;stroke:#000000;stroke-linejoin:miter;"/>
   </g>
   <g id="patch_21">
    <path clip-path="url(#pfbb12f590f)" d="M 309.493218 203.489481 
L 309.493218 265.378447 
L 324.934784 265.378447 
L 324.934784 203.489481 
L 309.493218 203.489481 
" style="fill:#009afa;stroke:#000000;stroke-linejoin:miter;"/>
   </g>
   <g id="patch_22">
    <path clip-path="url(#pfbb12f590f)" d="M 324.934784 209.32662 
L 324.934784 265.378447 
L 340.37635 265.378447 
L 340.37635 209.32662 
L 324.934784 209.32662 
" style="fill:#009afa;stroke:#000000;stroke-linejoin:miter;"/>
   </g>
   <g id="patch_23">
    <path clip-path="url(#pfbb12f590f)" d="M 340.37635 215.189249 
L 340.37635 265.378447 
L 355.817916 265.378447 
L 355.817916 215.189249 
L 340.37635 215.189249 
" style="fill:#009afa;stroke:#000000;stroke-linejoin:miter;"/>
   </g>
   <g id="patch_24">
    <path clip-path="url(#pfbb12f590f)" d="M 355.817916 216.514713 
L 355.817916 265.378447 
L 371.259482 265.378447 
L 371.259482 216.514713 
L 355.817916 216.514713 
" style="fill:#009afa;stroke:#000000;stroke-linejoin:miter;"/>
   </g>
   <g id="patch_25">
    <path clip-path="url(#pfbb12f590f)" d="M 371.259482 218.34997 
L 371.259482 265.378447 
L 386.701048 265.378447 
L 386.701048 218.34997 
L 371.259482 218.34997 
" style="fill:#009afa;stroke:#000000;stroke-linejoin:miter;"/>
   </g>
   <g id="patch_26">
    <path clip-path="url(#pfbb12f590f)" d="M 386.701048 223.142032 
L 386.701048 265.378447 
L 402.142614 265.378447 
L 402.142614 223.142032 
L 386.701048 223.142032 
" style="fill:#009afa;stroke:#000000;stroke-linejoin:miter;"/>
   </g>
   <g id="patch_27">
    <path clip-path="url(#pfbb12f590f)" d="M 402.142614 227.169403 
L 402.142614 265.378447 
L 417.58418 265.378447 
L 417.58418 227.169403 
L 402.142614 227.169403 
" style="fill:#009afa;stroke:#000000;stroke-linejoin:miter;"/>
   </g>
   <g id="patch_28">
    <path clip-path="url(#pfbb12f590f)" d="M 417.58418 230.330124 
L 417.58418 265.378447 
L 433.025746 265.378447 
L 433.025746 230.330124 
L 417.58418 230.330124 
" style="fill:#009afa;stroke:#000000;stroke-linejoin:miter;"/>
   </g>
   <g id="patch_29">
    <path clip-path="url(#pfbb12f590f)" d="M 433.025746 230.610511 
L 433.025746 265.378447 
L 448.467312 265.378447 
L 448.467312 230.610511 
L 433.025746 230.610511 
" style="fill:#009afa;stroke:#000000;stroke-linejoin:miter;"/>
   </g>
   <g id="patch_30">
    <path clip-path="url(#pfbb12f590f)" d="M 448.467312 234.867289 
L 448.467312 265.378447 
L 463.908878 265.378447 
L 463.908878 234.867289 
L 448.467312 234.867289 
" style="fill:#009afa;stroke:#000000;stroke-linejoin:miter;"/>
   </g>
   <g id="patch_31">
    <path clip-path="url(#pfbb12f590f)" d="M 463.908878 235.479042 
L 463.908878 265.378447 
L 479.350444 265.378447 
L 479.350444 235.479042 
L 463.908878 235.479042 
" style="fill:#009afa;stroke:#000000;stroke-linejoin:miter;"/>
   </g>
   <g id="patch_32">
    <path clip-path="url(#pfbb12f590f)" d="M 479.350444 238.843681 
L 479.350444 265.378447 
L 494.79201 265.378447 
L 494.79201 238.843681 
L 479.350444 238.843681 
" style="fill:#009afa;stroke:#000000;stroke-linejoin:miter;"/>
   </g>
   <g id="patch_33">
    <path clip-path="url(#pfbb12f590f)" d="M 494.79201 241.825974 
L 494.79201 265.378447 
L 510.233576 265.378447 
L 510.233576 241.825974 
L 494.79201 241.825974 
" style="fill:#009afa;stroke:#000000;stroke-linejoin:miter;"/>
   </g>
   <g id="patch_34">
    <path clip-path="url(#pfbb12f590f)" d="M 510.233576 243.431825 
L 510.233576 265.378447 
L 525.675142 265.378447 
L 525.675142 243.431825 
L 510.233576 243.431825 
" style="fill:#009afa;stroke:#000000;stroke-linejoin:miter;"/>
   </g>
   <g id="patch_35">
    <path clip-path="url(#pfbb12f590f)" d="M 525.675142 245.037675 
L 525.675142 265.378447 
L 541.116708 265.378447 
L 541.116708 245.037675 
L 525.675142 245.037675 
" style="fill:#009afa;stroke:#000000;stroke-linejoin:miter;"/>
   </g>
   <g id="patch_36">
    <path clip-path="url(#pfbb12f590f)" d="M 541.116708 246.26118 
L 541.116708 265.378447 
L 556.558274 265.378447 
L 556.558274 246.26118 
L 541.116708 246.26118 
" style="fill:#009afa;stroke:#000000;stroke-linejoin:miter;"/>
   </g>
   <g id="patch_37">
    <path clip-path="url(#pfbb12f590f)" d="M 556.558274 247.739582 
L 556.558274 265.378447 
L 571.99984 265.378447 
L 571.99984 247.739582 
L 556.558274 247.739582 
" style="fill:#009afa;stroke:#000000;stroke-linejoin:miter;"/>
   </g>
   <g id="patch_38">
    <path clip-path="url(#pfbb12f590f)" d="M 571.99984 248.963087 
L 571.99984 265.378447 
L 587.441406 265.378447 
L 587.441406 248.963087 
L 571.99984 248.963087 
" style="fill:#009afa;stroke:#000000;stroke-linejoin:miter;"/>
   </g>
   <g id="patch_39">
    <path clip-path="url(#pfbb12f590f)" d="M 587.441406 251.690484 
L 587.441406 265.378447 
L 602.882972 265.378447 
L 602.882972 251.690484 
L 587.441406 251.690484 
" style="fill:#009afa;stroke:#000000;stroke-linejoin:miter;"/>
   </g>
   <g id="patch_40">
    <path clip-path="url(#pfbb12f590f)" d="M 602.882972 252.735561 
L 602.882972 265.378447 
L 618.324538 265.378447 
L 618.324538 252.735561 
L 602.882972 252.735561 
" style="fill:#009afa;stroke:#000000;stroke-linejoin:miter;"/>
   </g>
   <g id="patch_41">
    <path clip-path="url(#pfbb12f590f)" d="M 618.324538 253.755149 
L 618.324538 265.378447 
L 633.766104 265.378447 
L 633.766104 253.755149 
L 618.324538 253.755149 
" style="fill:#009afa;stroke:#000000;stroke-linejoin:miter;"/>
   </g>
   <g id="patch_42">
    <path clip-path="url(#pfbb12f590f)" d="M 633.766104 254.672778 
L 633.766104 265.378447 
L 649.20767 265.378447 
L 649.20767 254.672778 
L 633.766104 254.672778 
" style="fill:#009afa;stroke:#000000;stroke-linejoin:miter;"/>
   </g>
   <g id="patch_43">
    <path clip-path="url(#pfbb12f590f)" d="M 649.20767 255.157082 
L 649.20767 265.378447 
L 664.649236 265.378447 
L 664.649236 255.157082 
L 649.20767 255.157082 
" style="fill:#009afa;stroke:#000000;stroke-linejoin:miter;"/>
   </g>
   <g id="patch_44">
    <path clip-path="url(#pfbb12f590f)" d="M 664.649236 256.049221 
L 664.649236 265.378447 
L 680.090801 265.378447 
L 680.090801 256.049221 
L 664.649236 256.049221 
" style="fill:#009afa;stroke:#000000;stroke-linejoin:miter;"/>
   </g>
   <g id="patch_45">
    <path clip-path="url(#pfbb12f590f)" d="M 680.090801 257.247237 
L 680.090801 265.378447 
L 695.532367 265.378447 
L 695.532367 257.247237 
L 680.090801 257.247237 
" style="fill:#009afa;stroke:#000000;stroke-linejoin:miter;"/>
   </g>
   <g id="patch_46">
    <path clip-path="url(#pfbb12f590f)" d="M 695.532367 257.553113 
L 695.532367 265.378447 
L 710.973933 265.378447 
L 710.973933 257.553113 
L 695.532367 257.553113 
" style="fill:#009afa;stroke:#000000;stroke-linejoin:miter;"/>
   </g>
   <g id="patch_47">
    <path clip-path="url(#pfbb12f590f)" d="M 710.973933 257.909968 
L 710.973933 265.378447 
L 726.415499 265.378447 
L 726.415499 257.909968 
L 710.973933 257.909968 
" style="fill:#009afa;stroke:#000000;stroke-linejoin:miter;"/>
   </g>
   <g id="patch_48">
    <path clip-path="url(#pfbb12f590f)" d="M 726.415499 259.286412 
L 726.415499 265.378447 
L 741.857065 265.378447 
L 741.857065 259.286412 
L 726.415499 259.286412 
" style="fill:#009afa;stroke:#000000;stroke-linejoin:miter;"/>
   </g>
   <g id="patch_49">
    <path clip-path="url(#pfbb12f590f)" d="M 741.857065 259.643267 
L 741.857065 265.378447 
L 757.298631 265.378447 
L 757.298631 259.643267 
L 741.857065 259.643267 
" style="fill:#009afa;stroke:#000000;stroke-linejoin:miter;"/>
   </g>
   <g id="patch_50">
    <path clip-path="url(#pfbb12f590f)" d="M 757.298631 260.178551 
L 757.298631 265.378447 
L 772.740197 265.378447 
L 772.740197 260.178551 
L 757.298631 260.178551 
" style="fill:#009afa;stroke:#000000;stroke-linejoin:miter;"/>
   </g>
   <g id="patch_51">
    <path clip-path="url(#pfbb12f590f)" d="M 772.740197 260.178551 
L 772.740197 265.378447 
L 788.181763 265.378447 
L 788.181763 260.178551 
L 772.740197 260.178551 
" style="fill:#009afa;stroke:#000000;stroke-linejoin:miter;"/>
   </g>
   <g id="patch_52">
    <path clip-path="url(#pfbb12f590f)" d="M 788.181763 260.28051 
L 788.181763 265.378447 
L 803.623329 265.378447 
L 803.623329 260.28051 
L 788.181763 260.28051 
" style="fill:#009afa;stroke:#000000;stroke-linejoin:miter;"/>
   </g>
   <g id="patch_53">
    <path clip-path="url(#pfbb12f590f)" d="M 803.623329 261.937339 
L 803.623329 265.378447 
L 819.064895 265.378447 
L 819.064895 261.937339 
L 803.623329 261.937339 
" style="fill:#009afa;stroke:#000000;stroke-linejoin:miter;"/>
   </g>
   <g id="patch_54">
    <path clip-path="url(#pfbb12f590f)" d="M 819.064895 261.707932 
L 819.064895 265.378447 
L 834.506461 265.378447 
L 834.506461 261.707932 
L 819.064895 261.707932 
" style="fill:#009afa;stroke:#000000;stroke-linejoin:miter;"/>
   </g>
   <g id="patch_55">
    <path clip-path="url(#pfbb12f590f)" d="M 834.506461 261.682443 
L 834.506461 265.378447 
L 849.948027 265.378447 
L 849.948027 261.682443 
L 834.506461 261.682443 
" style="fill:#009afa;stroke:#000000;stroke-linejoin:miter;"/>
   </g>
   <g id="patch_56">
    <path clip-path="url(#pfbb12f590f)" d="M 849.948027 262.013808 
L 849.948027 265.378447 
L 865.389593 265.378447 
L 865.389593 262.013808 
L 849.948027 262.013808 
" style="fill:#009afa;stroke:#000000;stroke-linejoin:miter;"/>
   </g>
   <g id="patch_57">
    <path clip-path="url(#pfbb12f590f)" d="M 865.389593 262.217726 
L 865.389593 265.378447 
L 880.831159 265.378447 
L 880.831159 262.217726 
L 865.389593 262.217726 
" style="fill:#009afa;stroke:#000000;stroke-linejoin:miter;"/>
   </g>
   <g id="patch_58">
    <path clip-path="url(#pfbb12f590f)" d="M 880.831159 262.421644 
L 880.831159 265.378447 
L 896.272725 265.378447 
L 896.272725 262.421644 
L 880.831159 262.421644 
" style="fill:#009afa;stroke:#000000;stroke-linejoin:miter;"/>
   </g>
   <g id="patch_59">
    <path clip-path="url(#pfbb12f590f)" d="M 896.272725 263.186334 
L 896.272725 265.378447 
L 911.714291 265.378447 
L 911.714291 263.186334 
L 896.272725 263.186334 
" style="fill:#009afa;stroke:#000000;stroke-linejoin:miter;"/>
   </g>
   <g id="patch_60">
    <path clip-path="url(#pfbb12f590f)" d="M 911.714291 262.956927 
L 911.714291 265.378447 
L 927.155857 265.378447 
L 927.155857 262.956927 
L 911.714291 262.956927 
" style="fill:#009afa;stroke:#000000;stroke-linejoin:miter;"/>
   </g>
   <g id="patch_61">
    <path clip-path="url(#pfbb12f590f)" d="M 927.155857 263.135355 
L 927.155857 265.378447 
L 942.597423 265.378447 
L 942.597423 263.135355 
L 927.155857 263.135355 
" style="fill:#009afa;stroke:#000000;stroke-linejoin:miter;"/>
   </g>
   <g id="patch_62">
    <path clip-path="url(#pfbb12f590f)" d="M 942.597423 263.466721 
L 942.597423 265.378447 
L 958.038989 265.378447 
L 958.038989 263.466721 
L 942.597423 263.466721 
" style="fill:#009afa;stroke:#000000;stroke-linejoin:miter;"/>
   </g>
   <g id="patch_63">
    <path clip-path="url(#pfbb12f590f)" d="M 958.038989 263.466721 
L 958.038989 265.378447 
L 973.480555 265.378447 
L 973.480555 263.466721 
L 958.038989 263.466721 
" style="fill:#009afa;stroke:#000000;stroke-linejoin:miter;"/>
   </g>
   <g id="patch_64">
    <path clip-path="url(#pfbb12f590f)" d="M 973.480555 263.645149 
L 973.480555 265.378447 
L 988.922121 265.378447 
L 988.922121 263.645149 
L 973.480555 263.645149 
" style="fill:#009afa;stroke:#000000;stroke-linejoin:miter;"/>
   </g>
   <g id="patch_65">
    <path clip-path="url(#pfbb12f590f)" d="M 988.922121 264.078473 
L 988.922121 265.378447 
L 1004.363687 265.378447 
L 1004.363687 264.078473 
L 988.922121 264.078473 
" style="fill:#009afa;stroke:#000000;stroke-linejoin:miter;"/>
   </g>
   <g id="patch_66">
    <path clip-path="url(#pfbb12f590f)" d="M 1004.363687 264.052984 
L 1004.363687 265.378447 
L 1019.805253 265.378447 
L 1019.805253 264.052984 
L 1004.363687 264.052984 
" style="fill:#009afa;stroke:#000000;stroke-linejoin:miter;"/>
   </g>
   <g id="patch_67">
    <path clip-path="url(#pfbb12f590f)" d="M 1019.805253 263.925535 
L 1019.805253 265.378447 
L 1035.246819 265.378447 
L 1035.246819 263.925535 
L 1019.805253 263.925535 
" style="fill:#009afa;stroke:#000000;stroke-linejoin:miter;"/>
   </g>
   <g id="patch_68">
    <path clip-path="url(#pfbb12f590f)" d="M 1035.246819 264.537288 
L 1035.246819 265.378447 
L 1050.688385 265.378447 
L 1050.688385 264.537288 
L 1035.246819 264.537288 
" style="fill:#009afa;stroke:#000000;stroke-linejoin:miter;"/>
   </g>
   <g id="patch_69">
    <path clip-path="url(#pfbb12f590f)" d="M 1050.688385 264.588267 
L 1050.688385 265.378447 
L 1066.129951 265.378447 
L 1066.129951 264.588267 
L 1050.688385 264.588267 
" style="fill:#009afa;stroke:#000000;stroke-linejoin:miter;"/>
   </g>
   <g id="patch_70">
    <path clip-path="url(#pfbb12f590f)" d="M 1066.129951 264.409839 
L 1066.129951 265.378447 
L 1081.571517 265.378447 
L 1081.571517 264.409839 
L 1066.129951 264.409839 
" style="fill:#009afa;stroke:#000000;stroke-linejoin:miter;"/>
   </g>
   <g id="patch_71">
    <path clip-path="url(#pfbb12f590f)" d="M 1081.571517 264.486308 
L 1081.571517 265.378447 
L 1097.013083 265.378447 
L 1097.013083 264.486308 
L 1081.571517 264.486308 
" style="fill:#009afa;stroke:#000000;stroke-linejoin:miter;"/>
   </g>
   <g id="patch_72">
    <path clip-path="url(#pfbb12f590f)" d="M 1097.013083 264.409839 
L 1097.013083 265.378447 
L 1112.454649 265.378447 
L 1112.454649 264.409839 
L 1097.013083 264.409839 
" style="fill:#009afa;stroke:#000000;stroke-linejoin:miter;"/>
   </g>
   <g id="patch_73">
    <path clip-path="url(#pfbb12f590f)" d="M 1112.454649 264.766695 
L 1112.454649 265.378447 
L 1127.896215 265.378447 
L 1127.896215 264.766695 
L 1112.454649 264.766695 
" style="fill:#009afa;stroke:#000000;stroke-linejoin:miter;"/>
   </g>
   <g id="patch_74">
    <path clip-path="url(#pfbb12f590f)" d="M 1127.896215 264.588267 
L 1127.896215 265.378447 
L 1143.337781 265.378447 
L 1143.337781 264.588267 
L 1127.896215 264.588267 
" style="fill:#009afa;stroke:#000000;stroke-linejoin:miter;"/>
   </g>
   <g id="patch_75">
    <path clip-path="url(#pfbb12f590f)" d="M 1143.337781 264.970612 
L 1143.337781 265.378447 
L 1158.779347 265.378447 
L 1158.779347 264.970612 
L 1143.337781 264.970612 
" style="fill:#009afa;stroke:#000000;stroke-linejoin:miter;"/>
   </g>
   <g id="patch_76">
    <path clip-path="url(#pfbb12f590f)" d="M 1158.779347 265.021592 
L 1158.779347 265.378447 
L 1174.220913 265.378447 
L 1174.220913 265.021592 
L 1158.779347 265.021592 
" style="fill:#009afa;stroke:#000000;stroke-linejoin:miter;"/>
   </g>
   <g id="patch_77">
    <path clip-path="url(#pfbb12f590f)" d="M 1174.220913 264.792185 
L 1174.220913 265.378447 
L 1189.662479 265.378447 
L 1189.662479 264.792185 
L 1174.220913 264.792185 
" style="fill:#009afa;stroke:#000000;stroke-linejoin:miter;"/>
   </g>
   <g id="patch_78">
    <path clip-path="url(#pfbb12f590f)" d="M 1189.662479 264.919633 
L 1189.662479 265.378447 
L 1205.104045 265.378447 
L 1205.104045 264.919633 
L 1189.662479 264.919633 
" style="fill:#009afa;stroke:#000000;stroke-linejoin:miter;"/>
   </g>
   <g id="patch_79">
    <path clip-path="url(#pfbb12f590f)" d="M 1205.104045 264.996102 
L 1205.104045 265.378447 
L 1220.545611 265.378447 
L 1220.545611 264.996102 
L 1205.104045 264.996102 
" style="fill:#009afa;stroke:#000000;stroke-linejoin:miter;"/>
   </g>
   <g id="patch_80">
    <path clip-path="url(#pfbb12f590f)" d="M 1220.545611 264.996102 
L 1220.545611 265.378447 
L 1235.987177 265.378447 
L 1235.987177 264.996102 
L 1220.545611 264.996102 
" style="fill:#009afa;stroke:#000000;stroke-linejoin:miter;"/>
   </g>
   <g id="patch_81">
    <path clip-path="url(#pfbb12f590f)" d="M 1235.987177 265.072571 
L 1235.987177 265.378447 
L 1251.428743 265.378447 
L 1251.428743 265.072571 
L 1235.987177 265.072571 
" style="fill:#009afa;stroke:#000000;stroke-linejoin:miter;"/>
   </g>
   <g id="patch_82">
    <path clip-path="url(#pfbb12f590f)" d="M 1251.428743 264.945123 
L 1251.428743 265.378447 
L 1266.870309 265.378447 
L 1266.870309 264.945123 
L 1251.428743 264.945123 
" style="fill:#009afa;stroke:#000000;stroke-linejoin:miter;"/>
   </g>
   <g id="patch_83">
    <path clip-path="url(#pfbb12f590f)" d="M 1266.870309 265.123551 
L 1266.870309 265.378447 
L 1282.311875 265.378447 
L 1282.311875 265.123551 
L 1266.870309 265.123551 
" style="fill:#009afa;stroke:#000000;stroke-linejoin:miter;"/>
   </g>
   <g id="patch_84">
    <path clip-path="url(#pfbb12f590f)" d="M 1282.311875 265.250999 
L 1282.311875 265.378447 
L 1297.753441 265.378447 
L 1297.753441 265.250999 
L 1282.311875 265.250999 
" style="fill:#009afa;stroke:#000000;stroke-linejoin:miter;"/>
   </g>
   <g id="patch_85">
    <path clip-path="url(#pfbb12f590f)" d="M 1297.753441 265.098061 
L 1297.753441 265.378447 
L 1313.195007 265.378447 
L 1313.195007 265.098061 
L 1297.753441 265.098061 
" style="fill:#009afa;stroke:#000000;stroke-linejoin:miter;"/>
   </g>
   <g id="patch_86">
    <path clip-path="url(#pfbb12f590f)" d="M 1313.195007 265.17453 
L 1313.195007 265.378447 
L 1328.636573 265.378447 
L 1328.636573 265.17453 
L 1313.195007 265.17453 
" style="fill:#009afa;stroke:#000000;stroke-linejoin:miter;"/>
   </g>
   <g id="patch_87">
    <path clip-path="url(#pfbb12f590f)" d="M 1328.636573 265.20002 
L 1328.636573 265.378447 
L 1344.078139 265.378447 
L 1344.078139 265.20002 
L 1328.636573 265.20002 
" style="fill:#009afa;stroke:#000000;stroke-linejoin:miter;"/>
   </g>
   <g id="patch_88">
    <path clip-path="url(#pfbb12f590f)" d="M 1344.078139 265.17453 
L 1344.078139 265.378447 
L 1359.519705 265.378447 
L 1359.519705 265.17453 
L 1344.078139 265.17453 
" style="fill:#009afa;stroke:#000000;stroke-linejoin:miter;"/>
   </g>
   <g id="patch_89">
    <path clip-path="url(#pfbb12f590f)" d="M 1359.519705 265.327468 
L 1359.519705 265.378447 
L 1374.961271 265.378447 
L 1374.961271 265.327468 
L 1359.519705 265.327468 
" style="fill:#009afa;stroke:#000000;stroke-linejoin:miter;"/>
   </g>
   <g id="patch_90">
    <path clip-path="url(#pfbb12f590f)" d="M 1374.961271 265.123551 
L 1374.961271 265.378447 
L 1390.402837 265.378447 
L 1390.402837 265.123551 
L 1374.961271 265.123551 
" style="fill:#009afa;stroke:#000000;stroke-linejoin:miter;"/>
   </g>
   <g id="patch_91">
    <path clip-path="url(#pfbb12f590f)" d="M 1390.402837 265.250999 
L 1390.402837 265.378447 
L 1405.844403 265.378447 
L 1405.844403 265.250999 
L 1390.402837 265.250999 
" style="fill:#009afa;stroke:#000000;stroke-linejoin:miter;"/>
   </g>
   <g id="patch_92">
    <path clip-path="url(#pfbb12f590f)" d="M 1405.844403 265.301978 
L 1405.844403 265.378447 
L 1421.285969 265.378447 
L 1421.285969 265.301978 
L 1405.844403 265.301978 
" style="fill:#009afa;stroke:#000000;stroke-linejoin:miter;"/>
   </g>
   <g id="patch_93">
    <path clip-path="url(#pfbb12f590f)" d="M 1421.285969 265.276489 
L 1421.285969 265.378447 
L 1436.727534 265.378447 
L 1436.727534 265.276489 
L 1421.285969 265.276489 
" style="fill:#009afa;stroke:#000000;stroke-linejoin:miter;"/>
   </g>
   <g id="patch_94">
    <path clip-path="url(#pfbb12f590f)" d="M 1436.727534 265.301978 
L 1436.727534 265.378447 
L 1452.1691 265.378447 
L 1452.1691 265.301978 
L 1436.727534 265.301978 
" style="fill:#009afa;stroke:#000000;stroke-linejoin:miter;"/>
   </g>
   <g id="patch_95">
    <path clip-path="url(#pfbb12f590f)" d="M 1452.1691 265.225509 
L 1452.1691 265.378447 
L 1467.610666 265.378447 
L 1467.610666 265.225509 
L 1452.1691 265.225509 
" style="fill:#009afa;stroke:#000000;stroke-linejoin:miter;"/>
   </g>
   <g id="patch_96">
    <path clip-path="url(#pfbb12f590f)" d="M 1467.610666 265.327468 
L 1467.610666 265.378447 
L 1483.052232 265.378447 
L 1483.052232 265.327468 
L 1467.610666 265.327468 
" style="fill:#009afa;stroke:#000000;stroke-linejoin:miter;"/>
   </g>
   <g id="patch_97">
    <path clip-path="url(#pfbb12f590f)" d="M 1483.052232 265.276489 
L 1483.052232 265.378447 
L 1498.493798 265.378447 
L 1498.493798 265.276489 
L 1483.052232 265.276489 
" style="fill:#009afa;stroke:#000000;stroke-linejoin:miter;"/>
   </g>
   <g id="patch_98">
    <path clip-path="url(#pfbb12f590f)" d="M 1498.493798 265.327468 
L 1498.493798 265.378447 
L 1513.935364 265.378447 
L 1513.935364 265.327468 
L 1498.493798 265.327468 
" style="fill:#009afa;stroke:#000000;stroke-linejoin:miter;"/>
   </g>
   <g id="patch_99">
    <path clip-path="url(#pfbb12f590f)" d="M 1513.935364 265.378447 
L 1513.935364 265.378447 
L 1529.37693 265.378447 
L 1529.37693 265.378447 
L 1513.935364 265.378447 
" style="fill:#009afa;stroke:#000000;stroke-linejoin:miter;"/>
   </g>
   <g id="patch_100">
    <path clip-path="url(#pfbb12f590f)" d="M 1529.37693 265.378447 
L 1529.37693 265.378447 
L 1544.818496 265.378447 
L 1544.818496 265.378447 
L 1529.37693 265.378447 
" style="fill:#009afa;stroke:#000000;stroke-linejoin:miter;"/>
   </g>
   <g id="patch_101">
    <path clip-path="url(#pfbb12f590f)" d="M 1544.818496 265.276489 
L 1544.818496 265.378447 
L 1560.260062 265.378447 
L 1560.260062 265.276489 
L 1544.818496 265.276489 
" style="fill:#009afa;stroke:#000000;stroke-linejoin:miter;"/>
   </g>
   <g id="patch_102">
    <path clip-path="url(#pfbb12f590f)" d="M 1560.260062 265.327468 
L 1560.260062 265.378447 
L 1575.701628 265.378447 
L 1575.701628 265.327468 
L 1560.260062 265.327468 
" style="fill:#009afa;stroke:#000000;stroke-linejoin:miter;"/>
   </g>
   <g id="patch_103">
    <path clip-path="url(#pfbb12f590f)" d="M 1575.701628 265.352958 
L 1575.701628 265.378447 
L 1591.143194 265.378447 
L 1591.143194 265.352958 
L 1575.701628 265.352958 
" style="fill:#009afa;stroke:#000000;stroke-linejoin:miter;"/>
   </g>
   <g id="patch_104">
    <path clip-path="url(#pfbb12f590f)" d="M 1591.143194 265.327468 
L 1591.143194 265.378447 
L 1606.58476 265.378447 
L 1606.58476 265.327468 
L 1591.143194 265.327468 
" style="fill:#009afa;stroke:#000000;stroke-linejoin:miter;"/>
   </g>
   <g id="patch_105">
    <path clip-path="url(#pfbb12f590f)" d="M 1606.58476 265.352958 
L 1606.58476 265.378447 
L 1622.026326 265.378447 
L 1622.026326 265.352958 
L 1606.58476 265.352958 
" style="fill:#009afa;stroke:#000000;stroke-linejoin:miter;"/>
   </g>
   <g id="patch_106">
    <path clip-path="url(#pfbb12f590f)" d="M 1622.026326 265.250999 
L 1622.026326 265.378447 
L 1637.467892 265.378447 
L 1637.467892 265.250999 
L 1622.026326 265.250999 
" style="fill:#009afa;stroke:#000000;stroke-linejoin:miter;"/>
   </g>
   <g id="patch_107">
    <path clip-path="url(#pfbb12f590f)" d="M 1637.467892 265.352958 
L 1637.467892 265.378447 
L 1652.909458 265.378447 
L 1652.909458 265.352958 
L 1637.467892 265.352958 
" style="fill:#009afa;stroke:#000000;stroke-linejoin:miter;"/>
   </g>
   <g id="patch_108">
    <path clip-path="url(#pfbb12f590f)" d="M 1652.909458 265.327468 
L 1652.909458 265.378447 
L 1668.351024 265.378447 
L 1668.351024 265.327468 
L 1652.909458 265.327468 
" style="fill:#009afa;stroke:#000000;stroke-linejoin:miter;"/>
   </g>
   <g id="patch_109">
    <path clip-path="url(#pfbb12f590f)" d="M 1668.351024 265.327468 
L 1668.351024 265.378447 
L 1683.79259 265.378447 
L 1683.79259 265.327468 
L 1668.351024 265.327468 
" style="fill:#009afa;stroke:#000000;stroke-linejoin:miter;"/>
   </g>
   <g id="patch_110">
    <path clip-path="url(#pfbb12f590f)" d="M 1683.79259 265.378447 
L 1683.79259 265.378447 
L 1699.234156 265.378447 
L 1699.234156 265.378447 
L 1683.79259 265.378447 
" style="fill:#009afa;stroke:#000000;stroke-linejoin:miter;"/>
   </g>
   <g id="patch_111">
    <path clip-path="url(#pfbb12f590f)" d="M 1699.234156 265.327468 
L 1699.234156 265.378447 
L 1714.675722 265.378447 
L 1714.675722 265.327468 
L 1699.234156 265.327468 
" style="fill:#009afa;stroke:#000000;stroke-linejoin:miter;"/>
   </g>
   <g id="patch_112">
    <path clip-path="url(#pfbb12f590f)" d="M 1714.675722 265.378447 
L 1714.675722 265.378447 
L 1730.117288 265.378447 
L 1730.117288 265.378447 
L 1714.675722 265.378447 
" style="fill:#009afa;stroke:#000000;stroke-linejoin:miter;"/>
   </g>
   <g id="patch_113">
    <path clip-path="url(#pfbb12f590f)" d="M 1730.117288 265.327468 
L 1730.117288 265.378447 
L 1745.558854 265.378447 
L 1745.558854 265.327468 
L 1730.117288 265.327468 
" style="fill:#009afa;stroke:#000000;stroke-linejoin:miter;"/>
   </g>
   <g id="patch_114">
    <path clip-path="url(#pfbb12f590f)" d="M 1745.558854 265.378447 
L 1745.558854 265.378447 
L 1761.00042 265.378447 
L 1761.00042 265.378447 
L 1745.558854 265.378447 
" style="fill:#009afa;stroke:#000000;stroke-linejoin:miter;"/>
   </g>
   <g id="patch_115">
    <path clip-path="url(#pfbb12f590f)" d="M 1761.00042 265.378447 
L 1761.00042 265.378447 
L 1776.441986 265.378447 
L 1776.441986 265.378447 
L 1761.00042 265.378447 
" style="fill:#009afa;stroke:#000000;stroke-linejoin:miter;"/>
   </g>
   <g id="patch_116">
    <path clip-path="url(#pfbb12f590f)" d="M 1776.441986 265.352958 
L 1776.441986 265.378447 
L 1791.883552 265.378447 
L 1791.883552 265.352958 
L 1776.441986 265.352958 
" style="fill:#009afa;stroke:#000000;stroke-linejoin:miter;"/>
   </g>
   <g id="patch_117">
    <path clip-path="url(#pfbb12f590f)" d="M 1791.883552 265.352958 
L 1791.883552 265.378447 
L 1807.325118 265.378447 
L 1807.325118 265.352958 
L 1791.883552 265.352958 
" style="fill:#009afa;stroke:#000000;stroke-linejoin:miter;"/>
   </g>
   <g id="patch_118">
    <path clip-path="url(#pfbb12f590f)" d="M 1807.325118 265.378447 
L 1807.325118 265.378447 
L 1822.766684 265.378447 
L 1822.766684 265.378447 
L 1807.325118 265.378447 
" style="fill:#009afa;stroke:#000000;stroke-linejoin:miter;"/>
   </g>
   <g id="patch_119">
    <path clip-path="url(#pfbb12f590f)" d="M 1822.766684 265.352958 
L 1822.766684 265.378447 
L 1838.20825 265.378447 
L 1838.20825 265.352958 
L 1822.766684 265.352958 
" style="fill:#009afa;stroke:#000000;stroke-linejoin:miter;"/>
   </g>
   <g id="patch_120">
    <path clip-path="url(#pfbb12f590f)" d="M 1838.20825 265.378447 
L 1838.20825 265.378447 
L 1853.649816 265.378447 
L 1853.649816 265.378447 
L 1838.20825 265.378447 
" style="fill:#009afa;stroke:#000000;stroke-linejoin:miter;"/>
   </g>
   <g id="patch_121">
    <path clip-path="url(#pfbb12f590f)" d="M 1853.649816 265.352958 
L 1853.649816 265.378447 
L 1869.091382 265.378447 
L 1869.091382 265.352958 
L 1853.649816 265.352958 
" style="fill:#009afa;stroke:#000000;stroke-linejoin:miter;"/>
   </g>
   <g id="patch_122">
    <path clip-path="url(#pfbb12f590f)" d="M 1869.091382 265.378447 
L 1869.091382 265.378447 
L 1884.532948 265.378447 
L 1884.532948 265.378447 
L 1869.091382 265.378447 
" style="fill:#009afa;stroke:#000000;stroke-linejoin:miter;"/>
   </g>
   <g id="patch_123">
    <path clip-path="url(#pfbb12f590f)" d="M 1884.532948 265.378447 
L 1884.532948 265.378447 
L 1899.974514 265.378447 
L 1899.974514 265.378447 
L 1884.532948 265.378447 
" style="fill:#009afa;stroke:#000000;stroke-linejoin:miter;"/>
   </g>
   <g id="patch_124">
    <path clip-path="url(#pfbb12f590f)" d="M 1899.974514 265.378447 
L 1899.974514 265.378447 
L 1915.41608 265.378447 
L 1915.41608 265.378447 
L 1899.974514 265.378447 
" style="fill:#009afa;stroke:#000000;stroke-linejoin:miter;"/>
   </g>
   <g id="patch_125">
    <path clip-path="url(#pfbb12f590f)" d="M 1915.41608 265.378447 
L 1915.41608 265.378447 
L 1930.857646 265.378447 
L 1930.857646 265.378447 
L 1915.41608 265.378447 
" style="fill:#009afa;stroke:#000000;stroke-linejoin:miter;"/>
   </g>
   <g id="patch_126">
    <path clip-path="url(#pfbb12f590f)" d="M 1930.857646 265.378447 
L 1930.857646 265.378447 
L 1946.299212 265.378447 
L 1946.299212 265.378447 
L 1930.857646 265.378447 
" style="fill:#009afa;stroke:#000000;stroke-linejoin:miter;"/>
   </g>
   <g id="patch_127">
    <path clip-path="url(#pfbb12f590f)" d="M 1946.299212 265.378447 
L 1946.299212 265.378447 
L 1961.740778 265.378447 
L 1961.740778 265.378447 
L 1946.299212 265.378447 
" style="fill:#009afa;stroke:#000000;stroke-linejoin:miter;"/>
   </g>
   <g id="patch_128">
    <path clip-path="url(#pfbb12f590f)" d="M 1961.740778 265.378447 
L 1961.740778 265.378447 
L 1977.182344 265.378447 
L 1977.182344 265.378447 
L 1961.740778 265.378447 
" style="fill:#009afa;stroke:#000000;stroke-linejoin:miter;"/>
   </g>
   <g id="patch_129">
    <path clip-path="url(#pfbb12f590f)" d="M 1977.182344 265.378447 
L 1977.182344 265.378447 
L 1992.62391 265.378447 
L 1992.62391 265.378447 
L 1977.182344 265.378447 
" style="fill:#009afa;stroke:#000000;stroke-linejoin:miter;"/>
   </g>
   <g id="patch_130">
    <path clip-path="url(#pfbb12f590f)" d="M 1992.62391 265.378447 
L 1992.62391 265.378447 
L 2008.065476 265.378447 
L 2008.065476 265.378447 
L 1992.62391 265.378447 
" style="fill:#009afa;stroke:#000000;stroke-linejoin:miter;"/>
   </g>
   <g id="patch_131">
    <path clip-path="url(#pfbb12f590f)" d="M 2008.065476 265.378447 
L 2008.065476 265.378447 
L 2023.507042 265.378447 
L 2023.507042 265.378447 
L 2008.065476 265.378447 
" style="fill:#009afa;stroke:#000000;stroke-linejoin:miter;"/>
   </g>
   <g id="patch_132">
    <path clip-path="url(#pfbb12f590f)" d="M 2023.507042 265.378447 
L 2023.507042 265.378447 
L 2038.948608 265.378447 
L 2038.948608 265.378447 
L 2023.507042 265.378447 
" style="fill:#009afa;stroke:#000000;stroke-linejoin:miter;"/>
   </g>
   <g id="patch_133">
    <path clip-path="url(#pfbb12f590f)" d="M 2038.948608 265.352958 
L 2038.948608 265.378447 
L 2054.390174 265.378447 
L 2054.390174 265.352958 
L 2038.948608 265.352958 
" style="fill:#009afa;stroke:#000000;stroke-linejoin:miter;"/>
   </g>
   <g id="patch_134">
    <path clip-path="url(#pfbb12f590f)" d="M 2054.390174 265.378447 
L 2054.390174 265.378447 
L 2069.83174 265.378447 
L 2069.83174 265.378447 
L 2054.390174 265.378447 
" style="fill:#009afa;stroke:#000000;stroke-linejoin:miter;"/>
   </g>
   <g id="patch_135">
    <path clip-path="url(#pfbb12f590f)" d="M 2069.83174 265.352958 
L 2069.83174 265.378447 
L 2085.273306 265.378447 
L 2085.273306 265.352958 
L 2069.83174 265.352958 
" style="fill:#009afa;stroke:#000000;stroke-linejoin:miter;"/>
   </g>
   <g id="patch_136">
    <path clip-path="url(#pfbb12f590f)" d="M 2085.273306 265.378447 
L 2085.273306 265.378447 
L 2100.714872 265.378447 
L 2100.714872 265.378447 
L 2085.273306 265.378447 
" style="fill:#009afa;stroke:#000000;stroke-linejoin:miter;"/>
   </g>
   <g id="patch_137">
    <path clip-path="url(#pfbb12f590f)" d="M 2100.714872 265.378447 
L 2100.714872 265.378447 
L 2116.156438 265.378447 
L 2116.156438 265.378447 
L 2100.714872 265.378447 
" style="fill:#009afa;stroke:#000000;stroke-linejoin:miter;"/>
   </g>
   <g id="patch_138">
    <path clip-path="url(#pfbb12f590f)" d="M 2116.156438 265.378447 
L 2116.156438 265.378447 
L 2131.598004 265.378447 
L 2131.598004 265.378447 
L 2116.156438 265.378447 
" style="fill:#009afa;stroke:#000000;stroke-linejoin:miter;"/>
   </g>
   <g id="patch_139">
    <path clip-path="url(#pfbb12f590f)" d="M 2131.598004 265.378447 
L 2131.598004 265.378447 
L 2147.03957 265.378447 
L 2147.03957 265.378447 
L 2131.598004 265.378447 
" style="fill:#009afa;stroke:#000000;stroke-linejoin:miter;"/>
   </g>
   <g id="patch_140">
    <path clip-path="url(#pfbb12f590f)" d="M 2147.03957 265.378447 
L 2147.03957 265.378447 
L 2162.481136 265.378447 
L 2162.481136 265.378447 
L 2147.03957 265.378447 
" style="fill:#009afa;stroke:#000000;stroke-linejoin:miter;"/>
   </g>
   <g id="patch_141">
    <path clip-path="url(#pfbb12f590f)" d="M 2162.481136 265.378447 
L 2162.481136 265.378447 
L 2177.922702 265.378447 
L 2177.922702 265.378447 
L 2162.481136 265.378447 
" style="fill:#009afa;stroke:#000000;stroke-linejoin:miter;"/>
   </g>
   <g id="patch_142">
    <path clip-path="url(#pfbb12f590f)" d="M 2177.922702 265.378447 
L 2177.922702 265.378447 
L 2193.364267 265.378447 
L 2193.364267 265.378447 
L 2177.922702 265.378447 
" style="fill:#009afa;stroke:#000000;stroke-linejoin:miter;"/>
   </g>
   <g id="patch_143">
    <path clip-path="url(#pfbb12f590f)" d="M 2193.364267 265.378447 
L 2193.364267 265.378447 
L 2208.805833 265.378447 
L 2208.805833 265.378447 
L 2193.364267 265.378447 
" style="fill:#009afa;stroke:#000000;stroke-linejoin:miter;"/>
   </g>
   <g id="patch_144">
    <path clip-path="url(#pfbb12f590f)" d="M 2208.805833 265.378447 
L 2208.805833 265.378447 
L 2224.247399 265.378447 
L 2224.247399 265.378447 
L 2208.805833 265.378447 
" style="fill:#009afa;stroke:#000000;stroke-linejoin:miter;"/>
   </g>
   <g id="patch_145">
    <path clip-path="url(#pfbb12f590f)" d="M 2224.247399 265.378447 
L 2224.247399 265.378447 
L 2239.688965 265.378447 
L 2239.688965 265.378447 
L 2224.247399 265.378447 
" style="fill:#009afa;stroke:#000000;stroke-linejoin:miter;"/>
   </g>
   <g id="patch_146">
    <path clip-path="url(#pfbb12f590f)" d="M 2239.688965 265.378447 
L 2239.688965 265.378447 
L 2255.130531 265.378447 
L 2255.130531 265.378447 
L 2239.688965 265.378447 
" style="fill:#009afa;stroke:#000000;stroke-linejoin:miter;"/>
   </g>
   <g id="patch_147">
    <path clip-path="url(#pfbb12f590f)" d="M 2255.130531 265.378447 
L 2255.130531 265.378447 
L 2270.572097 265.378447 
L 2270.572097 265.378447 
L 2255.130531 265.378447 
" style="fill:#009afa;stroke:#000000;stroke-linejoin:miter;"/>
   </g>
   <g id="patch_148">
    <path clip-path="url(#pfbb12f590f)" d="M 2270.572097 265.378447 
L 2270.572097 265.378447 
L 2286.013663 265.378447 
L 2286.013663 265.378447 
L 2270.572097 265.378447 
" style="fill:#009afa;stroke:#000000;stroke-linejoin:miter;"/>
   </g>
   <g id="patch_149">
    <path clip-path="url(#pfbb12f590f)" d="M 2286.013663 265.378447 
L 2286.013663 265.378447 
L 2301.455229 265.378447 
L 2301.455229 265.378447 
L 2286.013663 265.378447 
" style="fill:#009afa;stroke:#000000;stroke-linejoin:miter;"/>
   </g>
   <g id="patch_150">
    <path clip-path="url(#pfbb12f590f)" d="M 2301.455229 265.378447 
L 2301.455229 265.378447 
L 2316.896795 265.378447 
L 2316.896795 265.378447 
L 2301.455229 265.378447 
" style="fill:#009afa;stroke:#000000;stroke-linejoin:miter;"/>
   </g>
   <g id="patch_151">
    <path clip-path="url(#pfbb12f590f)" d="M 2316.896795 265.378447 
L 2316.896795 265.378447 
L 2332.338361 265.378447 
L 2332.338361 265.378447 
L 2316.896795 265.378447 
" style="fill:#009afa;stroke:#000000;stroke-linejoin:miter;"/>
   </g>
   <g id="patch_152">
    <path clip-path="url(#pfbb12f590f)" d="M 2332.338361 265.378447 
L 2332.338361 265.378447 
L 2347.779927 265.378447 
L 2347.779927 265.378447 
L 2332.338361 265.378447 
" style="fill:#009afa;stroke:#000000;stroke-linejoin:miter;"/>
   </g>
   <g id="patch_153">
    <path clip-path="url(#pfbb12f590f)" d="M 2347.779927 265.378447 
L 2347.779927 265.378447 
L 2363.221493 265.378447 
L 2363.221493 265.378447 
L 2347.779927 265.378447 
" style="fill:#009afa;stroke:#000000;stroke-linejoin:miter;"/>
   </g>
   <g id="patch_154">
    <path clip-path="url(#pfbb12f590f)" d="M 2363.221493 265.378447 
L 2363.221493 265.378447 
L 2378.663059 265.378447 
L 2378.663059 265.378447 
L 2363.221493 265.378447 
" style="fill:#009afa;stroke:#000000;stroke-linejoin:miter;"/>
   </g>
   <g id="patch_155">
    <path clip-path="url(#pfbb12f590f)" d="M 2378.663059 265.378447 
L 2378.663059 265.378447 
L 2394.104625 265.378447 
L 2394.104625 265.378447 
L 2378.663059 265.378447 
" style="fill:#009afa;stroke:#000000;stroke-linejoin:miter;"/>
   </g>
   <g id="patch_156">
    <path clip-path="url(#pfbb12f590f)" d="M 2394.104625 265.378447 
L 2394.104625 265.378447 
L 2409.546191 265.378447 
L 2409.546191 265.378447 
L 2394.104625 265.378447 
" style="fill:#009afa;stroke:#000000;stroke-linejoin:miter;"/>
   </g>
   <g id="patch_157">
    <path clip-path="url(#pfbb12f590f)" d="M 2409.546191 265.378447 
L 2409.546191 265.378447 
L 2424.987757 265.378447 
L 2424.987757 265.378447 
L 2409.546191 265.378447 
" style="fill:#009afa;stroke:#000000;stroke-linejoin:miter;"/>
   </g>
   <g id="patch_158">
    <path clip-path="url(#pfbb12f590f)" d="M 2424.987757 265.378447 
L 2424.987757 265.378447 
L 2440.429323 265.378447 
L 2440.429323 265.378447 
L 2424.987757 265.378447 
" style="fill:#009afa;stroke:#000000;stroke-linejoin:miter;"/>
   </g>
   <g id="patch_159">
    <path clip-path="url(#pfbb12f590f)" d="M 2440.429323 265.378447 
L 2440.429323 265.378447 
L 2455.870889 265.378447 
L 2455.870889 265.378447 
L 2440.429323 265.378447 
" style="fill:#009afa;stroke:#000000;stroke-linejoin:miter;"/>
   </g>
   <g id="patch_160">
    <path clip-path="url(#pfbb12f590f)" d="M 2455.870889 265.378447 
L 2455.870889 265.378447 
L 2471.312455 265.378447 
L 2471.312455 265.378447 
L 2455.870889 265.378447 
" style="fill:#009afa;stroke:#000000;stroke-linejoin:miter;"/>
   </g>
   <g id="patch_161">
    <path clip-path="url(#pfbb12f590f)" d="M 2471.312455 265.378447 
L 2471.312455 265.378447 
L 2486.754021 265.378447 
L 2486.754021 265.378447 
L 2471.312455 265.378447 
" style="fill:#009afa;stroke:#000000;stroke-linejoin:miter;"/>
   </g>
   <g id="patch_162">
    <path clip-path="url(#pfbb12f590f)" d="M 2486.754021 265.378447 
L 2486.754021 265.378447 
L 2502.195587 265.378447 
L 2502.195587 265.378447 
L 2486.754021 265.378447 
" style="fill:#009afa;stroke:#000000;stroke-linejoin:miter;"/>
   </g>
   <g id="patch_163">
    <path clip-path="url(#pfbb12f590f)" d="M 2502.195587 265.378447 
L 2502.195587 265.378447 
L 2517.637153 265.378447 
L 2517.637153 265.378447 
L 2502.195587 265.378447 
" style="fill:#009afa;stroke:#000000;stroke-linejoin:miter;"/>
   </g>
   <g id="patch_164">
    <path clip-path="url(#pfbb12f590f)" d="M 2517.637153 265.378447 
L 2517.637153 265.378447 
L 2533.078719 265.378447 
L 2533.078719 265.378447 
L 2517.637153 265.378447 
" style="fill:#009afa;stroke:#000000;stroke-linejoin:miter;"/>
   </g>
   <g id="patch_165">
    <path clip-path="url(#pfbb12f590f)" d="M 2533.078719 265.378447 
L 2533.078719 265.378447 
L 2548.520285 265.378447 
L 2548.520285 265.378447 
L 2533.078719 265.378447 
" style="fill:#009afa;stroke:#000000;stroke-linejoin:miter;"/>
   </g>
   <g id="patch_166">
    <path clip-path="url(#pfbb12f590f)" d="M 2548.520285 265.378447 
L 2548.520285 265.378447 
L 2563.961851 265.378447 
L 2563.961851 265.378447 
L 2548.520285 265.378447 
" style="fill:#009afa;stroke:#000000;stroke-linejoin:miter;"/>
   </g>
   <g id="patch_167">
    <path clip-path="url(#pfbb12f590f)" d="M 2563.961851 265.378447 
L 2563.961851 265.378447 
L 2579.403417 265.378447 
L 2579.403417 265.378447 
L 2563.961851 265.378447 
" style="fill:#009afa;stroke:#000000;stroke-linejoin:miter;"/>
   </g>
   <g id="patch_168">
    <path clip-path="url(#pfbb12f590f)" d="M 2579.403417 265.352958 
L 2579.403417 265.378447 
L 2594.844983 265.378447 
L 2594.844983 265.352958 
L 2579.403417 265.352958 
" style="fill:#009afa;stroke:#000000;stroke-linejoin:miter;"/>
   </g>
   <g id="line2d_25">
    <path clip-path="url(#pfbb12f590f)" d="M 32.317109 245.142053 
L 33.869064 230.620126 
L 35.421019 220.939479 
L 36.972975 213.315887 
L 38.52493 206.930732 
L 40.076886 201.404993 
L 41.628841 196.525026 
L 43.180796 192.155738 
L 44.732752 188.204927 
L 46.284707 184.606133 
L 47.836662 181.309431 
L 49.388618 178.276096 
L 50.940573 175.475303 
L 52.492528 172.881987 
L 54.044484 170.475404 
L 55.596439 168.238126 
L 57.148395 166.155319 
L 58.70035 164.214218 
L 60.252305 162.403726 
L 61.804261 160.714117 
L 63.356216 159.136796 
L 64.908171 157.664121 
L 66.460127 156.28925 
L 68.012082 155.006025 
L 69.564038 153.808879 
L 71.115993 152.69275 
L 72.667948 151.653022 
L 74.219904 150.685464 
L 75.771859 149.786188 
L 77.323814 148.95161 
L 78.87577 148.178413 
L 80.427725 147.463521 
L 81.97968 146.804073 
L 83.531636 146.197403 
L 85.083591 145.641019 
L 86.635547 145.132591 
L 88.187502 144.669929 
L 89.739457 144.250979 
L 91.291413 143.873805 
L 92.843368 143.536584 
L 94.395323 143.237591 
L 95.947279 142.9752 
L 97.499234 142.747866 
L 99.05119 142.554127 
L 100.603145 142.392597 
L 102.1551 142.261956 
L 103.707056 142.160949 
L 105.259011 142.088381 
L 106.810966 142.043115 
L 108.362922 142.024064 
L 109.914877 142.030191 
L 111.466832 142.060504 
L 113.018788 142.114057 
L 114.570743 142.189942 
L 116.122699 142.28729 
L 117.674654 142.405269 
L 119.226609 142.543081 
L 120.778565 142.69996 
L 122.33052 142.875171 
L 123.882475 143.068006 
L 125.434431 143.277788 
L 126.986386 143.503863 
L 128.538342 143.745603 
L 130.090297 144.002404 
L 131.642252 144.273684 
L 133.194208 144.558882 
L 134.746163 144.857458 
L 136.298118 145.168891 
L 137.850074 145.492679 
L 139.402029 145.828336 
L 140.953984 146.175396 
L 142.50594 146.533407 
L 144.057895 146.901932 
L 145.609851 147.280551 
L 147.161806 147.668857 
L 148.713761 148.066456 
L 150.265717 148.472969 
L 151.817672 148.888027 
L 153.369627 149.311276 
L 154.921583 149.742372 
L 156.473538 150.180981 
L 158.025494 150.626783 
L 159.577449 151.079464 
L 161.129404 151.538724 
L 162.68136 152.004271 
L 164.233315 152.475821 
L 165.78527 152.9531 
L 167.337226 153.435844 
L 168.889181 153.923795 
L 170.441136 154.416703 
L 171.993092 154.914328 
L 173.545047 155.416435 
L 175.097003 155.922797 
L 176.648958 156.433195 
L 178.200913 156.947416 
L 179.752869 157.465252 
L 181.304824 157.986503 
L 182.856779 158.510976 
L 184.408735 159.038481 
L 185.96069 159.568835 
" style="fill:none;stroke:#e36f47;"/>
   </g>
   <g id="patch_169">
    <path d="M 19.963856 273.025354 
L 19.963856 2.834646 
" style="fill:none;stroke:#000000;stroke-linecap:square;stroke-linejoin:miter;"/>
   </g>
   <g id="patch_170">
    <path d="M 19.963856 273.025354 
L 429.165354 273.025354 
" style="fill:none;stroke:#000000;stroke-linecap:square;stroke-linejoin:miter;"/>
   </g>
   <g id="line2d_26">
    <path clip-path="url(#pfbb12f590f)" d="M 32.317109 245.142053 
L 33.869064 230.620126 
L 35.421019 220.939479 
L 36.972975 213.315887 
L 38.52493 206.930732 
L 40.076886 201.404993 
L 41.628841 196.525026 
L 43.180796 192.155738 
L 44.732752 188.204927 
L 46.284707 184.606133 
L 47.836662 181.309431 
L 49.388618 178.276096 
L 50.940573 175.475303 
L 52.492528 172.881987 
L 54.044484 170.475404 
L 55.596439 168.238126 
L 57.148395 166.155319 
L 58.70035 164.214218 
L 60.252305 162.403726 
L 61.804261 160.714117 
L 63.356216 159.136796 
L 64.908171 157.664121 
L 66.460127 156.28925 
L 68.012082 155.006025 
L 69.564038 153.808879 
L 71.115993 152.69275 
L 72.667948 151.653022 
L 74.219904 150.685464 
L 75.771859 149.786188 
L 77.323814 148.95161 
L 78.87577 148.178413 
L 80.427725 147.463521 
L 81.97968 146.804073 
L 83.531636 146.197403 
L 85.083591 145.641019 
L 86.635547 145.132591 
L 88.187502 144.669929 
L 89.739457 144.250979 
L 91.291413 143.873805 
L 92.843368 143.536584 
L 94.395323 143.237591 
L 95.947279 142.9752 
L 97.499234 142.747866 
L 99.05119 142.554127 
L 100.603145 142.392597 
L 102.1551 142.261956 
L 103.707056 142.160949 
L 105.259011 142.088381 
L 106.810966 142.043115 
L 108.362922 142.024064 
L 109.914877 142.030191 
L 111.466832 142.060504 
L 113.018788 142.114057 
L 114.570743 142.189942 
L 116.122699 142.28729 
L 117.674654 142.405269 
L 119.226609 142.543081 
L 120.778565 142.69996 
L 122.33052 142.875171 
L 123.882475 143.068006 
L 125.434431 143.277788 
L 126.986386 143.503863 
L 128.538342 143.745603 
L 130.090297 144.002404 
L 131.642252 144.273684 
L 133.194208 144.558882 
L 134.746163 144.857458 
L 136.298118 145.168891 
L 137.850074 145.492679 
L 139.402029 145.828336 
L 140.953984 146.175396 
L 142.50594 146.533407 
L 144.057895 146.901932 
L 145.609851 147.280551 
L 147.161806 147.668857 
L 148.713761 148.066456 
L 150.265717 148.472969 
L 151.817672 148.888027 
L 153.369627 149.311276 
L 154.921583 149.742372 
L 156.473538 150.180981 
L 158.025494 150.626783 
L 159.577449 151.079464 
L 161.129404 151.538724 
L 162.68136 152.004271 
L 164.233315 152.475821 
L 165.78527 152.9531 
L 167.337226 153.435844 
L 168.889181 153.923795 
L 170.441136 154.416703 
L 171.993092 154.914328 
L 173.545047 155.416435 
L 175.097003 155.922797 
L 176.648958 156.433195 
L 178.200913 156.947416 
L 179.752869 157.465252 
L 181.304824 157.986503 
L 182.856779 158.510976 
L 184.408735 159.038481 
L 185.96069 159.568835 
" style="fill:none;stroke:#3ea44e;stroke-dasharray:3.7,1.6;stroke-dashoffset:0;"/>
   </g>
   <g id="legend_1">
    <g id="patch_171">
     <path d="M 341.405354 52.079646 
L 425.165354 52.079646 
L 425.165354 6.834646 
L 341.405354 6.834646 
z
" style="fill:#ffffff;stroke:#000000;stroke-linejoin:miter;"/>
    </g>
    <g id="patch_172">
     <path d="M 347.805354 19.313396 
L 363.805354 19.313396 
L 363.805354 13.713396 
L 347.805354 13.713396 
z
" style="fill:#009afa;stroke:#000000;stroke-linejoin:miter;"/>
    </g>
    <g id="text_13">
     <!-- $X^2+Y^2+Z^2$ -->
     <defs>
      <path d="M 13.71875 72.90625 
L 23.6875 72.90625 
L 36.1875 46.578125 
L 58.796875 72.90625 
L 70.3125 72.90625 
L 40.28125 38.09375 
L 58.40625 0 
L 48.484375 0 
L 33.796875 30.71875 
L 7.171875 0 
L -4.296875 0 
L 29.78125 39.203125 
z
" id="DejaVuSans-Oblique-88"/>
      <path d="M 46 62.703125 
L 46 35.5 
L 73.1875 35.5 
L 73.1875 27.203125 
L 46 27.203125 
L 46 0 
L 37.796875 0 
L 37.796875 27.203125 
L 10.59375 27.203125 
L 10.59375 35.5 
L 37.796875 35.5 
L 37.796875 62.703125 
z
" id="DejaVuSans-43"/>
      <path d="M 6.296875 72.90625 
L 16.890625 72.90625 
L 30.515625 42.921875 
L 56.5 72.90625 
L 67.578125 72.90625 
L 34.515625 34.71875 
L 27.78125 0 
L 17.921875 0 
L 24.609375 34.71875 
z
" id="DejaVuSans-Oblique-89"/>
      <path d="M 13.09375 72.90625 
L 70.3125 72.90625 
L 68.890625 65.375 
L 12.40625 8.296875 
L 58.890625 8.296875 
L 57.328125 0 
L -2.203125 0 
L -0.78125 7.515625 
L 55.71875 64.59375 
L 11.53125 64.59375 
z
" id="DejaVuSans-Oblique-90"/>
     </defs>
     <g transform="translate(370.205354 19.313396)scale(0.08 -0.08)">
      <use transform="translate(0 0.765625)" xlink:href="#DejaVuSans-Oblique-88"/>
      <use transform="translate(75.52263 39.046875)scale(0.7)" xlink:href="#DejaVuSans-50"/>
      <use transform="translate(142.27556 0.765625)" xlink:href="#DejaVuSans-43"/>
      <use transform="translate(245.547044 0.765625)" xlink:href="#DejaVuSans-Oblique-89"/>
      <use transform="translate(313.647799 39.046875)scale(0.7)" xlink:href="#DejaVuSans-50"/>
      <use transform="translate(380.400729 0.765625)" xlink:href="#DejaVuSans-43"/>
      <use transform="translate(483.672214 0.765625)" xlink:href="#DejaVuSans-Oblique-90"/>
      <use transform="translate(559.194844 39.046875)scale(0.7)" xlink:href="#DejaVuSans-50"/>
     </g>
    </g>
    <g id="line2d_27">
     <path d="M 347.805354 28.255896 
L 363.805354 28.255896 
" style="fill:none;stroke:#e36f47;stroke-linejoin:miter;"/>
    </g>
    <g id="line2d_28"/>
    <g id="text_14">
     <!-- $T_3$ -->
     <defs>
      <path d="M 5.90625 72.90625 
L 67.578125 72.90625 
L 66.015625 64.59375 
L 39.984375 64.59375 
L 27.484375 0 
L 17.578125 0 
L 30.078125 64.59375 
L 4.296875 64.59375 
z
" id="DejaVuSans-Oblique-84"/>
     </defs>
     <g transform="translate(370.205354 31.055896)scale(0.08 -0.08)">
      <use transform="translate(0 0.09375)" xlink:href="#DejaVuSans-Oblique-84"/>
      <use transform="translate(61.083984 -16.3125)scale(0.7)" xlink:href="#DejaVuSans-51"/>
     </g>
    </g>
    <g id="line2d_29">
     <path d="M 347.805354 41.199646 
L 363.805354 41.199646 
" style="fill:none;stroke:#3ea44e;stroke-dasharray:3.7,1.6;stroke-dashoffset:0;stroke-linejoin:miter;"/>
    </g>
    <g id="line2d_30"/>
    <g id="text_15">
     <!-- $\chi^2(3)$ -->
     <defs>
      <path d="M 30.03125 -12.203125 
L 26.421875 6.5 
L 6.15625 -20.84375 
L -4.4375 -20.84375 
L 24.265625 17.828125 
L 19.828125 40.828125 
Q 18.65625 46.96875 11.140625 46.96875 
L 8.734375 46.96875 
L 10.203125 54.6875 
L 13.625 54.59375 
Q 26.171875 54.25 27.734375 46.09375 
L 31.34375 27.390625 
L 51.609375 54.734375 
L 62.203125 54.734375 
L 33.5 16.0625 
L 37.9375 -6.9375 
Q 39.109375 -13.09375 46.625 -13.09375 
L 49.03125 -13.09375 
L 47.5625 -20.796875 
L 44.140625 -20.703125 
Q 31.59375 -20.359375 30.03125 -12.203125 
z
" id="DejaVuSans-Oblique-967"/>
      <path d="M 31 75.875 
Q 24.46875 64.65625 21.28125 53.65625 
Q 18.109375 42.671875 18.109375 31.390625 
Q 18.109375 20.125 21.3125 9.0625 
Q 24.515625 -2 31 -13.1875 
L 23.1875 -13.1875 
Q 15.875 -1.703125 12.234375 9.375 
Q 8.59375 20.453125 8.59375 31.390625 
Q 8.59375 42.28125 12.203125 53.3125 
Q 15.828125 64.359375 23.1875 75.875 
z
" id="DejaVuSans-40"/>
      <path d="M 8.015625 75.875 
L 15.828125 75.875 
Q 23.140625 64.359375 26.78125 53.3125 
Q 30.421875 42.28125 30.421875 31.390625 
Q 30.421875 20.453125 26.78125 9.375 
Q 23.140625 -1.703125 15.828125 -13.1875 
L 8.015625 -13.1875 
Q 14.5 -2 17.703125 9.0625 
Q 20.90625 20.125 20.90625 31.390625 
Q 20.90625 42.671875 17.703125 53.65625 
Q 14.5 64.65625 8.015625 75.875 
z
" id="DejaVuSans-41"/>
     </defs>
     <g transform="translate(370.205354 43.999646)scale(0.08 -0.08)">
      <use transform="translate(0 0.765625)" xlink:href="#DejaVuSans-Oblique-967"/>
      <use transform="translate(63.652396 39.046875)scale(0.7)" xlink:href="#DejaVuSans-50"/>
      <use transform="translate(110.922904 0.765625)" xlink:href="#DejaVuSans-40"/>
      <use transform="translate(149.936576 0.765625)" xlink:href="#DejaVuSans-51"/>
      <use transform="translate(213.559622 0.765625)" xlink:href="#DejaVuSans-41"/>
     </g>
    </g>
   </g>
  </g>
 </g>
 <defs>
  <clipPath id="pfbb12f590f">
   <rect height="270.190709" width="409.201498" x="19.963856" y="2.834646"/>
  </clipPath>
 </defs>
</svg>
