<?xml version="1.0" encoding="utf-8" standalone="no"?>
<!DOCTYPE svg PUBLIC "-//W3C//DTD SVG 1.1//EN"
  "http://www.w3.org/Graphics/SVG/1.1/DTD/svg11.dtd">
<!-- Created with matplotlib (https://matplotlib.org/) -->
<svg height="288pt" version="1.1" viewBox="0 0 432 288" width="432pt" xmlns="http://www.w3.org/2000/svg" xmlns:xlink="http://www.w3.org/1999/xlink">
 <defs>
  <style type="text/css">
*{stroke-linecap:butt;stroke-linejoin:round;}
  </style>
 </defs>
 <g id="figure_1">
  <g id="patch_1">
   <path d="M 0 288 
L 432 288 
L 432 0 
L 0 0 
z
" style="fill:#ffffff;"/>
  </g>
  <g id="axes_1">
   <g id="patch_2">
    <path d="M 19.114646 274.465354 
L 429.165354 274.465354 
L 429.165354 2.834646 
L 19.114646 2.834646 
z
" style="fill:#ffffff;"/>
   </g>
   <g id="matplotlib.axis_1">
    <g id="xtick_1">
     <g id="line2d_1">
      <path clip-path="url(#p784127ff78)" d="M 30.719854 274.465354 
L 30.719854 2.834646 
" style="fill:none;stroke:#000000;stroke-linecap:square;stroke-opacity:0.1;stroke-width:0.5;"/>
     </g>
     <g id="line2d_2">
      <defs>
       <path d="M 0 0 
L 0 -3.5 
" id="mbbaa9ecf41" style="stroke:#000000;stroke-width:0.5;"/>
      </defs>
      <g>
       <use style="stroke:#000000;stroke-width:0.5;" x="30.719854" xlink:href="#mbbaa9ecf41" y="274.465354"/>
      </g>
     </g>
     <g id="text_1">
      <!-- 0 -->
      <defs>
       <path d="M 31.78125 66.40625 
Q 24.171875 66.40625 20.328125 58.90625 
Q 16.5 51.421875 16.5 36.375 
Q 16.5 21.390625 20.328125 13.890625 
Q 24.171875 6.390625 31.78125 6.390625 
Q 39.453125 6.390625 43.28125 13.890625 
Q 47.125 21.390625 47.125 36.375 
Q 47.125 51.421875 43.28125 58.90625 
Q 39.453125 66.40625 31.78125 66.40625 
z
M 31.78125 74.21875 
Q 44.046875 74.21875 50.515625 64.515625 
Q 56.984375 54.828125 56.984375 36.375 
Q 56.984375 17.96875 50.515625 8.265625 
Q 44.046875 -1.421875 31.78125 -1.421875 
Q 19.53125 -1.421875 13.0625 8.265625 
Q 6.59375 17.96875 6.59375 36.375 
Q 6.59375 54.828125 13.0625 64.515625 
Q 19.53125 74.21875 31.78125 74.21875 
z
" id="DejaVuSans-48"/>
      </defs>
      <g transform="translate(28.174854 284.044104)scale(0.08 -0.08)">
       <use xlink:href="#DejaVuSans-48"/>
      </g>
     </g>
    </g>
    <g id="xtick_2">
     <g id="line2d_3">
      <path clip-path="url(#p784127ff78)" d="M 108.087913 274.465354 
L 108.087913 2.834646 
" style="fill:none;stroke:#000000;stroke-linecap:square;stroke-opacity:0.1;stroke-width:0.5;"/>
     </g>
     <g id="line2d_4">
      <g>
       <use style="stroke:#000000;stroke-width:0.5;" x="108.087913" xlink:href="#mbbaa9ecf41" y="274.465354"/>
      </g>
     </g>
     <g id="text_2">
      <!-- 1 -->
      <defs>
       <path d="M 12.40625 8.296875 
L 28.515625 8.296875 
L 28.515625 63.921875 
L 10.984375 60.40625 
L 10.984375 69.390625 
L 28.421875 72.90625 
L 38.28125 72.90625 
L 38.28125 8.296875 
L 54.390625 8.296875 
L 54.390625 0 
L 12.40625 0 
z
" id="DejaVuSans-49"/>
      </defs>
      <g transform="translate(105.542913 284.044104)scale(0.08 -0.08)">
       <use xlink:href="#DejaVuSans-49"/>
      </g>
     </g>
    </g>
    <g id="xtick_3">
     <g id="line2d_5">
      <path clip-path="url(#p784127ff78)" d="M 185.455971 274.465354 
L 185.455971 2.834646 
" style="fill:none;stroke:#000000;stroke-linecap:square;stroke-opacity:0.1;stroke-width:0.5;"/>
     </g>
     <g id="line2d_6">
      <g>
       <use style="stroke:#000000;stroke-width:0.5;" x="185.455971" xlink:href="#mbbaa9ecf41" y="274.465354"/>
      </g>
     </g>
     <g id="text_3">
      <!-- 2 -->
      <defs>
       <path d="M 19.1875 8.296875 
L 53.609375 8.296875 
L 53.609375 0 
L 7.328125 0 
L 7.328125 8.296875 
Q 12.9375 14.109375 22.625 23.890625 
Q 32.328125 33.6875 34.8125 36.53125 
Q 39.546875 41.84375 41.421875 45.53125 
Q 43.3125 49.21875 43.3125 52.78125 
Q 43.3125 58.59375 39.234375 62.25 
Q 35.15625 65.921875 28.609375 65.921875 
Q 23.96875 65.921875 18.8125 64.3125 
Q 13.671875 62.703125 7.8125 59.421875 
L 7.8125 69.390625 
Q 13.765625 71.78125 18.9375 73 
Q 24.125 74.21875 28.421875 74.21875 
Q 39.75 74.21875 46.484375 68.546875 
Q 53.21875 62.890625 53.21875 53.421875 
Q 53.21875 48.921875 51.53125 44.890625 
Q 49.859375 40.875 45.40625 35.40625 
Q 44.1875 33.984375 37.640625 27.21875 
Q 31.109375 20.453125 19.1875 8.296875 
z
" id="DejaVuSans-50"/>
      </defs>
      <g transform="translate(182.910971 284.044104)scale(0.08 -0.08)">
       <use xlink:href="#DejaVuSans-50"/>
      </g>
     </g>
    </g>
    <g id="xtick_4">
     <g id="line2d_7">
      <path clip-path="url(#p784127ff78)" d="M 262.824029 274.465354 
L 262.824029 2.834646 
" style="fill:none;stroke:#000000;stroke-linecap:square;stroke-opacity:0.1;stroke-width:0.5;"/>
     </g>
     <g id="line2d_8">
      <g>
       <use style="stroke:#000000;stroke-width:0.5;" x="262.824029" xlink:href="#mbbaa9ecf41" y="274.465354"/>
      </g>
     </g>
     <g id="text_4">
      <!-- 3 -->
      <defs>
       <path d="M 40.578125 39.3125 
Q 47.65625 37.796875 51.625 33 
Q 55.609375 28.21875 55.609375 21.1875 
Q 55.609375 10.40625 48.1875 4.484375 
Q 40.765625 -1.421875 27.09375 -1.421875 
Q 22.515625 -1.421875 17.65625 -0.515625 
Q 12.796875 0.390625 7.625 2.203125 
L 7.625 11.71875 
Q 11.71875 9.328125 16.59375 8.109375 
Q 21.484375 6.890625 26.8125 6.890625 
Q 36.078125 6.890625 40.9375 10.546875 
Q 45.796875 14.203125 45.796875 21.1875 
Q 45.796875 27.640625 41.28125 31.265625 
Q 36.765625 34.90625 28.71875 34.90625 
L 20.21875 34.90625 
L 20.21875 43.015625 
L 29.109375 43.015625 
Q 36.375 43.015625 40.234375 45.921875 
Q 44.09375 48.828125 44.09375 54.296875 
Q 44.09375 59.90625 40.109375 62.90625 
Q 36.140625 65.921875 28.71875 65.921875 
Q 24.65625 65.921875 20.015625 65.03125 
Q 15.375 64.15625 9.8125 62.3125 
L 9.8125 71.09375 
Q 15.4375 72.65625 20.34375 73.4375 
Q 25.25 74.21875 29.59375 74.21875 
Q 40.828125 74.21875 47.359375 69.109375 
Q 53.90625 64.015625 53.90625 55.328125 
Q 53.90625 49.265625 50.4375 45.09375 
Q 46.96875 40.921875 40.578125 39.3125 
z
" id="DejaVuSans-51"/>
      </defs>
      <g transform="translate(260.279029 284.044104)scale(0.08 -0.08)">
       <use xlink:href="#DejaVuSans-51"/>
      </g>
     </g>
    </g>
    <g id="xtick_5">
     <g id="line2d_9">
      <path clip-path="url(#p784127ff78)" d="M 340.192087 274.465354 
L 340.192087 2.834646 
" style="fill:none;stroke:#000000;stroke-linecap:square;stroke-opacity:0.1;stroke-width:0.5;"/>
     </g>
     <g id="line2d_10">
      <g>
       <use style="stroke:#000000;stroke-width:0.5;" x="340.192087" xlink:href="#mbbaa9ecf41" y="274.465354"/>
      </g>
     </g>
     <g id="text_5">
      <!-- 4 -->
      <defs>
       <path d="M 37.796875 64.3125 
L 12.890625 25.390625 
L 37.796875 25.390625 
z
M 35.203125 72.90625 
L 47.609375 72.90625 
L 47.609375 25.390625 
L 58.015625 25.390625 
L 58.015625 17.1875 
L 47.609375 17.1875 
L 47.609375 0 
L 37.796875 0 
L 37.796875 17.1875 
L 4.890625 17.1875 
L 4.890625 26.703125 
z
" id="DejaVuSans-52"/>
      </defs>
      <g transform="translate(337.647087 284.044104)scale(0.08 -0.08)">
       <use xlink:href="#DejaVuSans-52"/>
      </g>
     </g>
    </g>
    <g id="xtick_6">
     <g id="line2d_11">
      <path clip-path="url(#p784127ff78)" d="M 417.560146 274.465354 
L 417.560146 2.834646 
" style="fill:none;stroke:#000000;stroke-linecap:square;stroke-opacity:0.1;stroke-width:0.5;"/>
     </g>
     <g id="line2d_12">
      <g>
       <use style="stroke:#000000;stroke-width:0.5;" x="417.560146" xlink:href="#mbbaa9ecf41" y="274.465354"/>
      </g>
     </g>
     <g id="text_6">
      <!-- 5 -->
      <defs>
       <path d="M 10.796875 72.90625 
L 49.515625 72.90625 
L 49.515625 64.59375 
L 19.828125 64.59375 
L 19.828125 46.734375 
Q 21.96875 47.46875 24.109375 47.828125 
Q 26.265625 48.1875 28.421875 48.1875 
Q 40.625 48.1875 47.75 41.5 
Q 54.890625 34.8125 54.890625 23.390625 
Q 54.890625 11.625 47.5625 5.09375 
Q 40.234375 -1.421875 26.90625 -1.421875 
Q 22.3125 -1.421875 17.546875 -0.640625 
Q 12.796875 0.140625 7.71875 1.703125 
L 7.71875 11.625 
Q 12.109375 9.234375 16.796875 8.0625 
Q 21.484375 6.890625 26.703125 6.890625 
Q 35.15625 6.890625 40.078125 11.328125 
Q 45.015625 15.765625 45.015625 23.390625 
Q 45.015625 31 40.078125 35.4375 
Q 35.15625 39.890625 26.703125 39.890625 
Q 22.75 39.890625 18.8125 39.015625 
Q 14.890625 38.140625 10.796875 36.28125 
z
" id="DejaVuSans-53"/>
      </defs>
      <g transform="translate(415.015146 284.044104)scale(0.08 -0.08)">
       <use xlink:href="#DejaVuSans-53"/>
      </g>
     </g>
    </g>
   </g>
   <g id="matplotlib.axis_2">
    <g id="ytick_1">
     <g id="line2d_13">
      <path clip-path="url(#p784127ff78)" d="M 19.114646 266.777693 
L 429.165354 266.777693 
" style="fill:none;stroke:#000000;stroke-linecap:square;stroke-opacity:0.1;stroke-width:0.5;"/>
     </g>
     <g id="line2d_14">
      <defs>
       <path d="M 0 0 
L 3.5 0 
" id="m7518b24742" style="stroke:#000000;stroke-width:0.5;"/>
      </defs>
      <g>
       <use style="stroke:#000000;stroke-width:0.5;" x="19.114646" xlink:href="#m7518b24742" y="266.777693"/>
      </g>
     </g>
     <g id="text_7">
      <!-- 0.0 -->
      <defs>
       <path d="M 10.6875 12.40625 
L 21 12.40625 
L 21 0 
L 10.6875 0 
z
" id="DejaVuSans-46"/>
      </defs>
      <g transform="translate(2.892146 269.817068)scale(0.08 -0.08)">
       <use xlink:href="#DejaVuSans-48"/>
       <use x="63.623047" xlink:href="#DejaVuSans-46"/>
       <use x="95.410156" xlink:href="#DejaVuSans-48"/>
      </g>
     </g>
    </g>
    <g id="ytick_2">
     <g id="line2d_15">
      <path clip-path="url(#p784127ff78)" d="M 19.114646 215.526616 
L 429.165354 215.526616 
" style="fill:none;stroke:#000000;stroke-linecap:square;stroke-opacity:0.1;stroke-width:0.5;"/>
     </g>
     <g id="line2d_16">
      <g>
       <use style="stroke:#000000;stroke-width:0.5;" x="19.114646" xlink:href="#m7518b24742" y="215.526616"/>
      </g>
     </g>
     <g id="text_8">
      <!-- 0.1 -->
      <g transform="translate(2.892146 218.565991)scale(0.08 -0.08)">
       <use xlink:href="#DejaVuSans-48"/>
       <use x="63.623047" xlink:href="#DejaVuSans-46"/>
       <use x="95.410156" xlink:href="#DejaVuSans-49"/>
      </g>
     </g>
    </g>
    <g id="ytick_3">
     <g id="line2d_17">
      <path clip-path="url(#p784127ff78)" d="M 19.114646 164.275539 
L 429.165354 164.275539 
" style="fill:none;stroke:#000000;stroke-linecap:square;stroke-opacity:0.1;stroke-width:0.5;"/>
     </g>
     <g id="line2d_18">
      <g>
       <use style="stroke:#000000;stroke-width:0.5;" x="19.114646" xlink:href="#m7518b24742" y="164.275539"/>
      </g>
     </g>
     <g id="text_9">
      <!-- 0.2 -->
      <g transform="translate(2.892146 167.314914)scale(0.08 -0.08)">
       <use xlink:href="#DejaVuSans-48"/>
       <use x="63.623047" xlink:href="#DejaVuSans-46"/>
       <use x="95.410156" xlink:href="#DejaVuSans-50"/>
      </g>
     </g>
    </g>
    <g id="ytick_4">
     <g id="line2d_19">
      <path clip-path="url(#p784127ff78)" d="M 19.114646 113.024461 
L 429.165354 113.024461 
" style="fill:none;stroke:#000000;stroke-linecap:square;stroke-opacity:0.1;stroke-width:0.5;"/>
     </g>
     <g id="line2d_20">
      <g>
       <use style="stroke:#000000;stroke-width:0.5;" x="19.114646" xlink:href="#m7518b24742" y="113.024461"/>
      </g>
     </g>
     <g id="text_10">
      <!-- 0.3 -->
      <g transform="translate(2.892146 116.063836)scale(0.08 -0.08)">
       <use xlink:href="#DejaVuSans-48"/>
       <use x="63.623047" xlink:href="#DejaVuSans-46"/>
       <use x="95.410156" xlink:href="#DejaVuSans-51"/>
      </g>
     </g>
    </g>
    <g id="ytick_5">
     <g id="line2d_21">
      <path clip-path="url(#p784127ff78)" d="M 19.114646 61.773384 
L 429.165354 61.773384 
" style="fill:none;stroke:#000000;stroke-linecap:square;stroke-opacity:0.1;stroke-width:0.5;"/>
     </g>
     <g id="line2d_22">
      <g>
       <use style="stroke:#000000;stroke-width:0.5;" x="19.114646" xlink:href="#m7518b24742" y="61.773384"/>
      </g>
     </g>
     <g id="text_11">
      <!-- 0.4 -->
      <g transform="translate(2.892146 64.812759)scale(0.08 -0.08)">
       <use xlink:href="#DejaVuSans-48"/>
       <use x="63.623047" xlink:href="#DejaVuSans-46"/>
       <use x="95.410156" xlink:href="#DejaVuSans-52"/>
      </g>
     </g>
    </g>
    <g id="ytick_6">
     <g id="line2d_23">
      <path clip-path="url(#p784127ff78)" d="M 19.114646 10.522307 
L 429.165354 10.522307 
" style="fill:none;stroke:#000000;stroke-linecap:square;stroke-opacity:0.1;stroke-width:0.5;"/>
     </g>
     <g id="line2d_24">
      <g>
       <use style="stroke:#000000;stroke-width:0.5;" x="19.114646" xlink:href="#m7518b24742" y="10.522307"/>
      </g>
     </g>
     <g id="text_12">
      <!-- 0.5 -->
      <g transform="translate(2.892146 13.561682)scale(0.08 -0.08)">
       <use xlink:href="#DejaVuSans-48"/>
       <use x="63.623047" xlink:href="#DejaVuSans-46"/>
       <use x="95.410156" xlink:href="#DejaVuSans-53"/>
      </g>
     </g>
    </g>
   </g>
   <g id="patch_3">
    <path clip-path="url(#p784127ff78)" d="M 30.719854 209.555865 
L 30.719854 266.777693 
L 46.193466 266.777693 
L 46.193466 209.555865 
L 30.719854 209.555865 
" style="fill:#009afa;stroke:#000000;stroke-linejoin:miter;"/>
   </g>
   <g id="patch_4">
    <path clip-path="url(#p784127ff78)" d="M 46.193466 169.83628 
L 46.193466 266.777693 
L 61.667078 266.777693 
L 61.667078 169.83628 
L 46.193466 169.83628 
" style="fill:#009afa;stroke:#000000;stroke-linejoin:miter;"/>
   </g>
   <g id="patch_5">
    <path clip-path="url(#p784127ff78)" d="M 61.667078 153.128429 
L 61.667078 266.777693 
L 77.140689 266.777693 
L 77.140689 153.128429 
L 61.667078 153.128429 
" style="fill:#009afa;stroke:#000000;stroke-linejoin:miter;"/>
   </g>
   <g id="patch_6">
    <path clip-path="url(#p784127ff78)" d="M 77.140689 148.64396 
L 77.140689 266.777693 
L 92.614301 266.777693 
L 92.614301 148.64396 
L 77.140689 148.64396 
" style="fill:#009afa;stroke:#000000;stroke-linejoin:miter;"/>
   </g>
   <g id="patch_7">
    <path clip-path="url(#p784127ff78)" d="M 92.614301 145.927653 
L 92.614301 266.777693 
L 108.087913 266.777693 
L 108.087913 145.927653 
L 92.614301 145.927653 
" style="fill:#009afa;stroke:#000000;stroke-linejoin:miter;"/>
   </g>
   <g id="patch_8">
    <path clip-path="url(#p784127ff78)" d="M 108.087913 141.468809 
L 108.087913 266.777693 
L 123.561524 266.777693 
L 123.561524 141.468809 
L 108.087913 141.468809 
" style="fill:#009afa;stroke:#000000;stroke-linejoin:miter;"/>
   </g>
   <g id="patch_9">
    <path clip-path="url(#p784127ff78)" d="M 123.561524 145.440768 
L 123.561524 266.777693 
L 139.035136 266.777693 
L 139.035136 145.440768 
L 123.561524 145.440768 
" style="fill:#009afa;stroke:#000000;stroke-linejoin:miter;"/>
   </g>
   <g id="patch_10">
    <path clip-path="url(#p784127ff78)" d="M 139.035136 148.208326 
L 139.035136 266.777693 
L 154.508748 266.777693 
L 154.508748 148.208326 
L 139.035136 148.208326 
" style="fill:#009afa;stroke:#000000;stroke-linejoin:miter;"/>
   </g>
   <g id="patch_11">
    <path clip-path="url(#p784127ff78)" d="M 154.508748 153.615315 
L 154.508748 266.777693 
L 169.982359 266.777693 
L 169.982359 153.615315 
L 154.508748 153.615315 
" style="fill:#009afa;stroke:#000000;stroke-linejoin:miter;"/>
   </g>
   <g id="patch_12">
    <path clip-path="url(#p784127ff78)" d="M 169.982359 156.946635 
L 169.982359 266.777693 
L 185.455971 266.777693 
L 185.455971 156.946635 
L 169.982359 156.946635 
" style="fill:#009afa;stroke:#000000;stroke-linejoin:miter;"/>
   </g>
   <g id="patch_13">
    <path clip-path="url(#p784127ff78)" d="M 185.455971 164.352415 
L 185.455971 266.777693 
L 200.929583 266.777693 
L 200.929583 164.352415 
L 185.455971 164.352415 
" style="fill:#009afa;stroke:#000000;stroke-linejoin:miter;"/>
   </g>
   <g id="patch_14">
    <path clip-path="url(#p784127ff78)" d="M 200.929583 168.068118 
L 200.929583 266.777693 
L 216.403194 266.777693 
L 216.403194 168.068118 
L 200.929583 168.068118 
" style="fill:#009afa;stroke:#000000;stroke-linejoin:miter;"/>
   </g>
   <g id="patch_15">
    <path clip-path="url(#p784127ff78)" d="M 216.403194 173.475107 
L 216.403194 266.777693 
L 231.876806 266.777693 
L 231.876806 173.475107 
L 216.403194 173.475107 
" style="fill:#009afa;stroke:#000000;stroke-linejoin:miter;"/>
   </g>
   <g id="patch_16">
    <path clip-path="url(#p784127ff78)" d="M 231.876806 179.394606 
L 231.876806 266.777693 
L 247.350417 266.777693 
L 247.350417 179.394606 
L 231.876806 179.394606 
" style="fill:#009afa;stroke:#000000;stroke-linejoin:miter;"/>
   </g>
   <g id="patch_17">
    <path clip-path="url(#p784127ff78)" d="M 247.350417 187.133519 
L 247.350417 266.777693 
L 262.824029 266.777693 
L 262.824029 187.133519 
L 247.350417 187.133519 
" style="fill:#009afa;stroke:#000000;stroke-linejoin:miter;"/>
   </g>
   <g id="patch_18">
    <path clip-path="url(#p784127ff78)" d="M 262.824029 190.849222 
L 262.824029 266.777693 
L 278.297641 266.777693 
L 278.297641 190.849222 
L 262.824029 190.849222 
" style="fill:#009afa;stroke:#000000;stroke-linejoin:miter;"/>
   </g>
   <g id="patch_19">
    <path clip-path="url(#p784127ff78)" d="M 278.297641 194.5393 
L 278.297641 266.777693 
L 293.771252 266.777693 
L 293.771252 194.5393 
L 278.297641 194.5393 
" style="fill:#009afa;stroke:#000000;stroke-linejoin:miter;"/>
   </g>
   <g id="patch_20">
    <path clip-path="url(#p784127ff78)" d="M 293.771252 200.202544 
L 293.771252 266.777693 
L 309.244864 266.777693 
L 309.244864 200.202544 
L 293.771252 200.202544 
" style="fill:#009afa;stroke:#000000;stroke-linejoin:miter;"/>
   </g>
   <g id="patch_21">
    <path clip-path="url(#p784127ff78)" d="M 309.244864 203.123855 
L 309.244864 266.777693 
L 324.718476 266.777693 
L 324.718476 203.123855 
L 309.244864 203.123855 
" style="fill:#009afa;stroke:#000000;stroke-linejoin:miter;"/>
   </g>
   <g id="patch_22">
    <path clip-path="url(#p784127ff78)" d="M 324.718476 209.504614 
L 324.718476 266.777693 
L 340.192087 266.777693 
L 340.192087 209.504614 
L 324.718476 209.504614 
" style="fill:#009afa;stroke:#000000;stroke-linejoin:miter;"/>
   </g>
   <g id="patch_23">
    <path clip-path="url(#p784127ff78)" d="M 340.192087 214.475969 
L 340.192087 266.777693 
L 355.665699 266.777693 
L 355.665699 214.475969 
L 340.192087 214.475969 
" style="fill:#009afa;stroke:#000000;stroke-linejoin:miter;"/>
   </g>
   <g id="patch_24">
    <path clip-path="url(#p784127ff78)" d="M 355.665699 217.474157 
L 355.665699 266.777693 
L 371.139311 266.777693 
L 371.139311 217.474157 
L 355.665699 217.474157 
" style="fill:#009afa;stroke:#000000;stroke-linejoin:miter;"/>
   </g>
   <g id="patch_25">
    <path clip-path="url(#p784127ff78)" d="M 371.139311 222.548013 
L 371.139311 266.777693 
L 386.612922 266.777693 
L 386.612922 222.548013 
L 371.139311 222.548013 
" style="fill:#009afa;stroke:#000000;stroke-linejoin:miter;"/>
   </g>
   <g id="patch_26">
    <path clip-path="url(#p784127ff78)" d="M 386.612922 223.803665 
L 386.612922 266.777693 
L 402.086534 266.777693 
L 402.086534 223.803665 
L 386.612922 223.803665 
" style="fill:#009afa;stroke:#000000;stroke-linejoin:miter;"/>
   </g>
   <g id="patch_27">
    <path clip-path="url(#p784127ff78)" d="M 402.086534 228.236883 
L 402.086534 266.777693 
L 417.560146 266.777693 
L 417.560146 228.236883 
L 402.086534 228.236883 
" style="fill:#009afa;stroke:#000000;stroke-linejoin:miter;"/>
   </g>
   <g id="patch_28">
    <path clip-path="url(#p784127ff78)" d="M 417.560146 230.72256 
L 417.560146 266.777693 
L 433.033757 266.777693 
L 433.033757 230.72256 
L 417.560146 230.72256 
" style="fill:#009afa;stroke:#000000;stroke-linejoin:miter;"/>
   </g>
   <g id="patch_29">
    <path clip-path="url(#p784127ff78)" d="M 433.033757 234.182008 
L 433.033757 266.777693 
L 448.507369 266.777693 
L 448.507369 234.182008 
L 433.033757 234.182008 
" style="fill:#009afa;stroke:#000000;stroke-linejoin:miter;"/>
   </g>
   <g id="patch_30">
    <path clip-path="url(#p784127ff78)" d="M 448.507369 236.103923 
L 448.507369 266.777693 
L 463.980981 266.777693 
L 463.980981 236.103923 
L 448.507369 236.103923 
" style="fill:#009afa;stroke:#000000;stroke-linejoin:miter;"/>
   </g>
   <g id="patch_31">
    <path clip-path="url(#p784127ff78)" d="M 463.980981 237.872085 
L 463.980981 266.777693 
L 479.454592 266.777693 
L 479.454592 237.872085 
L 463.980981 237.872085 
" style="fill:#009afa;stroke:#000000;stroke-linejoin:miter;"/>
   </g>
   <g id="patch_32">
    <path clip-path="url(#p784127ff78)" d="M 479.454592 241.767167 
L 479.454592 266.777693 
L 494.928204 266.777693 
L 494.928204 241.767167 
L 479.454592 241.767167 
" style="fill:#009afa;stroke:#000000;stroke-linejoin:miter;"/>
   </g>
   <g id="patch_33">
    <path clip-path="url(#p784127ff78)" d="M 494.928204 242.792189 
L 494.928204 266.777693 
L 510.401815 266.777693 
L 510.401815 242.792189 
L 494.928204 242.792189 
" style="fill:#009afa;stroke:#000000;stroke-linejoin:miter;"/>
   </g>
   <g id="patch_34">
    <path clip-path="url(#p784127ff78)" d="M 510.401815 244.585976 
L 510.401815 266.777693 
L 525.875427 266.777693 
L 525.875427 244.585976 
L 510.401815 244.585976 
" style="fill:#009afa;stroke:#000000;stroke-linejoin:miter;"/>
   </g>
   <g id="patch_35">
    <path clip-path="url(#p784127ff78)" d="M 525.875427 246.533517 
L 525.875427 266.777693 
L 541.349039 266.777693 
L 541.349039 246.533517 
L 525.875427 246.533517 
" style="fill:#009afa;stroke:#000000;stroke-linejoin:miter;"/>
   </g>
   <g id="patch_36">
    <path clip-path="url(#p784127ff78)" d="M 541.349039 248.199177 
L 541.349039 266.777693 
L 556.82265 266.777693 
L 556.82265 248.199177 
L 541.349039 248.199177 
" style="fill:#009afa;stroke:#000000;stroke-linejoin:miter;"/>
   </g>
   <g id="patch_37">
    <path clip-path="url(#p784127ff78)" d="M 556.82265 249.659833 
L 556.82265 266.777693 
L 572.296262 266.777693 
L 572.296262 249.659833 
L 556.82265 249.659833 
" style="fill:#009afa;stroke:#000000;stroke-linejoin:miter;"/>
   </g>
   <g id="patch_38">
    <path clip-path="url(#p784127ff78)" d="M 572.296262 251.094863 
L 572.296262 266.777693 
L 587.769874 266.777693 
L 587.769874 251.094863 
L 572.296262 251.094863 
" style="fill:#009afa;stroke:#000000;stroke-linejoin:miter;"/>
   </g>
   <g id="patch_39">
    <path clip-path="url(#p784127ff78)" d="M 587.769874 252.196761 
L 587.769874 266.777693 
L 603.243485 266.777693 
L 603.243485 252.196761 
L 587.769874 252.196761 
" style="fill:#009afa;stroke:#000000;stroke-linejoin:miter;"/>
   </g>
   <g id="patch_40">
    <path clip-path="url(#p784127ff78)" d="M 603.243485 253.196157 
L 603.243485 266.777693 
L 618.717097 266.777693 
L 618.717097 253.196157 
L 603.243485 253.196157 
" style="fill:#009afa;stroke:#000000;stroke-linejoin:miter;"/>
   </g>
   <g id="patch_41">
    <path clip-path="url(#p784127ff78)" d="M 618.717097 253.093655 
L 618.717097 266.777693 
L 634.190709 266.777693 
L 634.190709 253.093655 
L 618.717097 253.093655 
" style="fill:#009afa;stroke:#000000;stroke-linejoin:miter;"/>
   </g>
   <g id="patch_42">
    <path clip-path="url(#p784127ff78)" d="M 634.190709 256.39935 
L 634.190709 266.777693 
L 649.66432 266.777693 
L 649.66432 256.39935 
L 634.190709 256.39935 
" style="fill:#009afa;stroke:#000000;stroke-linejoin:miter;"/>
   </g>
   <g id="patch_43">
    <path clip-path="url(#p784127ff78)" d="M 649.66432 256.501852 
L 649.66432 266.777693 
L 665.137932 266.777693 
L 665.137932 256.501852 
L 649.66432 256.501852 
" style="fill:#009afa;stroke:#000000;stroke-linejoin:miter;"/>
   </g>
   <g id="patch_44">
    <path clip-path="url(#p784127ff78)" d="M 665.137932 257.14249 
L 665.137932 266.777693 
L 680.611544 266.777693 
L 680.611544 257.14249 
L 665.137932 257.14249 
" style="fill:#009afa;stroke:#000000;stroke-linejoin:miter;"/>
   </g>
   <g id="patch_45">
    <path clip-path="url(#p784127ff78)" d="M 680.611544 258.167512 
L 680.611544 266.777693 
L 696.085155 266.777693 
L 696.085155 258.167512 
L 680.611544 258.167512 
" style="fill:#009afa;stroke:#000000;stroke-linejoin:miter;"/>
   </g>
   <g id="patch_46">
    <path clip-path="url(#p784127ff78)" d="M 696.085155 259.013155 
L 696.085155 266.777693 
L 711.558767 266.777693 
L 711.558767 259.013155 
L 696.085155 259.013155 
" style="fill:#009afa;stroke:#000000;stroke-linejoin:miter;"/>
   </g>
   <g id="patch_47">
    <path clip-path="url(#p784127ff78)" d="M 711.558767 259.73067 
L 711.558767 266.777693 
L 727.032379 266.777693 
L 727.032379 259.73067 
L 711.558767 259.73067 
" style="fill:#009afa;stroke:#000000;stroke-linejoin:miter;"/>
   </g>
   <g id="patch_48">
    <path clip-path="url(#p784127ff78)" d="M 727.032379 260.422559 
L 727.032379 266.777693 
L 742.50599 266.777693 
L 742.50599 260.422559 
L 727.032379 260.422559 
" style="fill:#009afa;stroke:#000000;stroke-linejoin:miter;"/>
   </g>
   <g id="patch_49">
    <path clip-path="url(#p784127ff78)" d="M 742.50599 260.70444 
L 742.50599 266.777693 
L 757.979602 266.777693 
L 757.979602 260.70444 
L 742.50599 260.70444 
" style="fill:#009afa;stroke:#000000;stroke-linejoin:miter;"/>
   </g>
   <g id="patch_50">
    <path clip-path="url(#p784127ff78)" d="M 757.979602 261.780713 
L 757.979602 266.777693 
L 773.453213 266.777693 
L 773.453213 261.780713 
L 757.979602 261.780713 
" style="fill:#009afa;stroke:#000000;stroke-linejoin:miter;"/>
   </g>
   <g id="patch_51">
    <path clip-path="url(#p784127ff78)" d="M 773.453213 261.934466 
L 773.453213 266.777693 
L 788.926825 266.777693 
L 788.926825 261.934466 
L 773.453213 261.934466 
" style="fill:#009afa;stroke:#000000;stroke-linejoin:miter;"/>
   </g>
   <g id="patch_52">
    <path clip-path="url(#p784127ff78)" d="M 788.926825 261.960092 
L 788.926825 266.777693 
L 804.400437 266.777693 
L 804.400437 261.960092 
L 788.926825 261.960092 
" style="fill:#009afa;stroke:#000000;stroke-linejoin:miter;"/>
   </g>
   <g id="patch_53">
    <path clip-path="url(#p784127ff78)" d="M 804.400437 262.13947 
L 804.400437 266.777693 
L 819.874048 266.777693 
L 819.874048 262.13947 
L 804.400437 262.13947 
" style="fill:#009afa;stroke:#000000;stroke-linejoin:miter;"/>
   </g>
   <g id="patch_54">
    <path clip-path="url(#p784127ff78)" d="M 819.874048 262.856985 
L 819.874048 266.777693 
L 835.34766 266.777693 
L 835.34766 262.856985 
L 819.874048 262.856985 
" style="fill:#009afa;stroke:#000000;stroke-linejoin:miter;"/>
   </g>
   <g id="patch_55">
    <path clip-path="url(#p784127ff78)" d="M 835.34766 262.882611 
L 835.34766 266.777693 
L 850.821272 266.777693 
L 850.821272 262.882611 
L 835.34766 262.882611 
" style="fill:#009afa;stroke:#000000;stroke-linejoin:miter;"/>
   </g>
   <g id="patch_56">
    <path clip-path="url(#p784127ff78)" d="M 850.821272 263.779505 
L 850.821272 266.777693 
L 866.294883 266.777693 
L 866.294883 263.779505 
L 850.821272 263.779505 
" style="fill:#009afa;stroke:#000000;stroke-linejoin:miter;"/>
   </g>
   <g id="patch_57">
    <path clip-path="url(#p784127ff78)" d="M 866.294883 263.29262 
L 866.294883 266.777693 
L 881.768495 266.777693 
L 881.768495 263.29262 
L 866.294883 263.29262 
" style="fill:#009afa;stroke:#000000;stroke-linejoin:miter;"/>
   </g>
   <g id="patch_58">
    <path clip-path="url(#p784127ff78)" d="M 881.768495 263.677003 
L 881.768495 266.777693 
L 897.242107 266.777693 
L 897.242107 263.677003 
L 881.768495 263.677003 
" style="fill:#009afa;stroke:#000000;stroke-linejoin:miter;"/>
   </g>
   <g id="patch_59">
    <path clip-path="url(#p784127ff78)" d="M 897.242107 264.292016 
L 897.242107 266.777693 
L 912.715718 266.777693 
L 912.715718 264.292016 
L 897.242107 264.292016 
" style="fill:#009afa;stroke:#000000;stroke-linejoin:miter;"/>
   </g>
   <g id="patch_60">
    <path clip-path="url(#p784127ff78)" d="M 912.715718 264.471394 
L 912.715718 266.777693 
L 928.18933 266.777693 
L 928.18933 264.471394 
L 912.715718 264.471394 
" style="fill:#009afa;stroke:#000000;stroke-linejoin:miter;"/>
   </g>
   <g id="patch_61">
    <path clip-path="url(#p784127ff78)" d="M 928.18933 264.676399 
L 928.18933 266.777693 
L 943.662942 266.777693 
L 943.662942 264.676399 
L 928.18933 264.676399 
" style="fill:#009afa;stroke:#000000;stroke-linejoin:miter;"/>
   </g>
   <g id="patch_62">
    <path clip-path="url(#p784127ff78)" d="M 943.662942 264.932654 
L 943.662942 266.777693 
L 959.136553 266.777693 
L 959.136553 264.932654 
L 943.662942 264.932654 
" style="fill:#009afa;stroke:#000000;stroke-linejoin:miter;"/>
   </g>
   <g id="patch_63">
    <path clip-path="url(#p784127ff78)" d="M 959.136553 265.112033 
L 959.136553 266.777693 
L 974.610165 266.777693 
L 974.610165 265.112033 
L 959.136553 265.112033 
" style="fill:#009afa;stroke:#000000;stroke-linejoin:miter;"/>
   </g>
   <g id="patch_64">
    <path clip-path="url(#p784127ff78)" d="M 974.610165 264.983905 
L 974.610165 266.777693 
L 990.083777 266.777693 
L 990.083777 264.983905 
L 974.610165 264.983905 
" style="fill:#009afa;stroke:#000000;stroke-linejoin:miter;"/>
   </g>
   <g id="patch_65">
    <path clip-path="url(#p784127ff78)" d="M 990.083777 265.112033 
L 990.083777 266.777693 
L 1005.557388 266.777693 
L 1005.557388 265.112033 
L 990.083777 265.112033 
" style="fill:#009afa;stroke:#000000;stroke-linejoin:miter;"/>
   </g>
   <g id="patch_66">
    <path clip-path="url(#p784127ff78)" d="M 1005.557388 265.47079 
L 1005.557388 266.777693 
L 1021.031 266.777693 
L 1021.031 265.47079 
L 1005.557388 265.47079 
" style="fill:#009afa;stroke:#000000;stroke-linejoin:miter;"/>
   </g>
   <g id="patch_67">
    <path clip-path="url(#p784127ff78)" d="M 1021.031 265.778297 
L 1021.031 266.777693 
L 1036.504611 266.777693 
L 1036.504611 265.778297 
L 1021.031 265.778297 
" style="fill:#009afa;stroke:#000000;stroke-linejoin:miter;"/>
   </g>
   <g id="patch_68">
    <path clip-path="url(#p784127ff78)" d="M 1036.504611 265.70142 
L 1036.504611 266.777693 
L 1051.978223 266.777693 
L 1051.978223 265.70142 
L 1036.504611 265.70142 
" style="fill:#009afa;stroke:#000000;stroke-linejoin:miter;"/>
   </g>
   <g id="patch_69">
    <path clip-path="url(#p784127ff78)" d="M 1051.978223 265.752671 
L 1051.978223 266.777693 
L 1067.451835 266.777693 
L 1067.451835 265.752671 
L 1051.978223 265.752671 
" style="fill:#009afa;stroke:#000000;stroke-linejoin:miter;"/>
   </g>
   <g id="patch_70">
    <path clip-path="url(#p784127ff78)" d="M 1067.451835 266.060178 
L 1067.451835 266.777693 
L 1082.925446 266.777693 
L 1082.925446 266.060178 
L 1067.451835 266.060178 
" style="fill:#009afa;stroke:#000000;stroke-linejoin:miter;"/>
   </g>
   <g id="patch_71">
    <path clip-path="url(#p784127ff78)" d="M 1082.925446 266.060178 
L 1082.925446 266.777693 
L 1098.399058 266.777693 
L 1098.399058 266.060178 
L 1082.925446 266.060178 
" style="fill:#009afa;stroke:#000000;stroke-linejoin:miter;"/>
   </g>
   <g id="patch_72">
    <path clip-path="url(#p784127ff78)" d="M 1098.399058 266.008927 
L 1098.399058 266.777693 
L 1113.87267 266.777693 
L 1113.87267 266.008927 
L 1098.399058 266.008927 
" style="fill:#009afa;stroke:#000000;stroke-linejoin:miter;"/>
   </g>
   <g id="patch_73">
    <path clip-path="url(#p784127ff78)" d="M 1113.87267 266.342059 
L 1113.87267 266.777693 
L 1129.346281 266.777693 
L 1129.346281 266.342059 
L 1113.87267 266.342059 
" style="fill:#009afa;stroke:#000000;stroke-linejoin:miter;"/>
   </g>
   <g id="patch_74">
    <path clip-path="url(#p784127ff78)" d="M 1129.346281 266.316433 
L 1129.346281 266.777693 
L 1144.819893 266.777693 
L 1144.819893 266.316433 
L 1129.346281 266.316433 
" style="fill:#009afa;stroke:#000000;stroke-linejoin:miter;"/>
   </g>
   <g id="patch_75">
    <path clip-path="url(#p784127ff78)" d="M 1144.819893 266.39331 
L 1144.819893 266.777693 
L 1160.293505 266.777693 
L 1160.293505 266.39331 
L 1144.819893 266.39331 
" style="fill:#009afa;stroke:#000000;stroke-linejoin:miter;"/>
   </g>
   <g id="patch_76">
    <path clip-path="url(#p784127ff78)" d="M 1160.293505 266.418935 
L 1160.293505 266.777693 
L 1175.767116 266.777693 
L 1175.767116 266.418935 
L 1160.293505 266.418935 
" style="fill:#009afa;stroke:#000000;stroke-linejoin:miter;"/>
   </g>
   <g id="patch_77">
    <path clip-path="url(#p784127ff78)" d="M 1175.767116 266.39331 
L 1175.767116 266.777693 
L 1191.240728 266.777693 
L 1191.240728 266.39331 
L 1175.767116 266.39331 
" style="fill:#009afa;stroke:#000000;stroke-linejoin:miter;"/>
   </g>
   <g id="patch_78">
    <path clip-path="url(#p784127ff78)" d="M 1191.240728 266.342059 
L 1191.240728 266.777693 
L 1206.71434 266.777693 
L 1206.71434 266.342059 
L 1191.240728 266.342059 
" style="fill:#009afa;stroke:#000000;stroke-linejoin:miter;"/>
   </g>
   <g id="patch_79">
    <path clip-path="url(#p784127ff78)" d="M 1206.71434 266.342059 
L 1206.71434 266.777693 
L 1222.187951 266.777693 
L 1222.187951 266.342059 
L 1206.71434 266.342059 
" style="fill:#009afa;stroke:#000000;stroke-linejoin:miter;"/>
   </g>
   <g id="patch_80">
    <path clip-path="url(#p784127ff78)" d="M 1222.187951 266.342059 
L 1222.187951 266.777693 
L 1237.661563 266.777693 
L 1237.661563 266.342059 
L 1222.187951 266.342059 
" style="fill:#009afa;stroke:#000000;stroke-linejoin:miter;"/>
   </g>
   <g id="patch_81">
    <path clip-path="url(#p784127ff78)" d="M 1237.661563 266.598314 
L 1237.661563 266.777693 
L 1253.135175 266.777693 
L 1253.135175 266.598314 
L 1237.661563 266.598314 
" style="fill:#009afa;stroke:#000000;stroke-linejoin:miter;"/>
   </g>
   <g id="patch_82">
    <path clip-path="url(#p784127ff78)" d="M 1253.135175 266.572688 
L 1253.135175 266.777693 
L 1268.608786 266.777693 
L 1268.608786 266.572688 
L 1253.135175 266.572688 
" style="fill:#009afa;stroke:#000000;stroke-linejoin:miter;"/>
   </g>
   <g id="patch_83">
    <path clip-path="url(#p784127ff78)" d="M 1268.608786 266.470186 
L 1268.608786 266.777693 
L 1284.082398 266.777693 
L 1284.082398 266.470186 
L 1268.608786 266.470186 
" style="fill:#009afa;stroke:#000000;stroke-linejoin:miter;"/>
   </g>
   <g id="patch_84">
    <path clip-path="url(#p784127ff78)" d="M 1284.082398 266.444561 
L 1284.082398 266.777693 
L 1299.55601 266.777693 
L 1299.55601 266.444561 
L 1284.082398 266.444561 
" style="fill:#009afa;stroke:#000000;stroke-linejoin:miter;"/>
   </g>
   <g id="patch_85">
    <path clip-path="url(#p784127ff78)" d="M 1299.55601 266.62394 
L 1299.55601 266.777693 
L 1315.029621 266.777693 
L 1315.029621 266.62394 
L 1299.55601 266.62394 
" style="fill:#009afa;stroke:#000000;stroke-linejoin:miter;"/>
   </g>
   <g id="patch_86">
    <path clip-path="url(#p784127ff78)" d="M 1315.029621 266.598314 
L 1315.029621 266.777693 
L 1330.503233 266.777693 
L 1330.503233 266.598314 
L 1315.029621 266.598314 
" style="fill:#009afa;stroke:#000000;stroke-linejoin:miter;"/>
   </g>
   <g id="patch_87">
    <path clip-path="url(#p784127ff78)" d="M 1330.503233 266.444561 
L 1330.503233 266.777693 
L 1345.976844 266.777693 
L 1345.976844 266.444561 
L 1330.503233 266.444561 
" style="fill:#009afa;stroke:#000000;stroke-linejoin:miter;"/>
   </g>
   <g id="patch_88">
    <path clip-path="url(#p784127ff78)" d="M 1345.976844 266.62394 
L 1345.976844 266.777693 
L 1361.450456 266.777693 
L 1361.450456 266.62394 
L 1345.976844 266.62394 
" style="fill:#009afa;stroke:#000000;stroke-linejoin:miter;"/>
   </g>
   <g id="patch_89">
    <path clip-path="url(#p784127ff78)" d="M 1361.450456 266.700816 
L 1361.450456 266.777693 
L 1376.924068 266.777693 
L 1376.924068 266.700816 
L 1361.450456 266.700816 
" style="fill:#009afa;stroke:#000000;stroke-linejoin:miter;"/>
   </g>
   <g id="patch_90">
    <path clip-path="url(#p784127ff78)" d="M 1376.924068 266.62394 
L 1376.924068 266.777693 
L 1392.397679 266.777693 
L 1392.397679 266.62394 
L 1376.924068 266.62394 
" style="fill:#009afa;stroke:#000000;stroke-linejoin:miter;"/>
   </g>
   <g id="patch_91">
    <path clip-path="url(#p784127ff78)" d="M 1392.397679 266.521437 
L 1392.397679 266.777693 
L 1407.871291 266.777693 
L 1407.871291 266.521437 
L 1392.397679 266.521437 
" style="fill:#009afa;stroke:#000000;stroke-linejoin:miter;"/>
   </g>
   <g id="patch_92">
    <path clip-path="url(#p784127ff78)" d="M 1407.871291 266.649565 
L 1407.871291 266.777693 
L 1423.344903 266.777693 
L 1423.344903 266.649565 
L 1407.871291 266.649565 
" style="fill:#009afa;stroke:#000000;stroke-linejoin:miter;"/>
   </g>
   <g id="patch_93">
    <path clip-path="url(#p784127ff78)" d="M 1423.344903 266.649565 
L 1423.344903 266.777693 
L 1438.818514 266.777693 
L 1438.818514 266.649565 
L 1423.344903 266.649565 
" style="fill:#009afa;stroke:#000000;stroke-linejoin:miter;"/>
   </g>
   <g id="patch_94">
    <path clip-path="url(#p784127ff78)" d="M 1438.818514 266.726442 
L 1438.818514 266.777693 
L 1454.292126 266.777693 
L 1454.292126 266.726442 
L 1438.818514 266.726442 
" style="fill:#009afa;stroke:#000000;stroke-linejoin:miter;"/>
   </g>
   <g id="patch_95">
    <path clip-path="url(#p784127ff78)" d="M 1454.292126 266.700816 
L 1454.292126 266.777693 
L 1469.765738 266.777693 
L 1469.765738 266.700816 
L 1454.292126 266.700816 
" style="fill:#009afa;stroke:#000000;stroke-linejoin:miter;"/>
   </g>
   <g id="patch_96">
    <path clip-path="url(#p784127ff78)" d="M 1469.765738 266.675191 
L 1469.765738 266.777693 
L 1485.239349 266.777693 
L 1485.239349 266.675191 
L 1469.765738 266.675191 
" style="fill:#009afa;stroke:#000000;stroke-linejoin:miter;"/>
   </g>
   <g id="patch_97">
    <path clip-path="url(#p784127ff78)" d="M 1485.239349 266.777693 
L 1485.239349 266.777693 
L 1500.712961 266.777693 
L 1500.712961 266.777693 
L 1485.239349 266.777693 
" style="fill:#009afa;stroke:#000000;stroke-linejoin:miter;"/>
   </g>
   <g id="patch_98">
    <path clip-path="url(#p784127ff78)" d="M 1500.712961 266.675191 
L 1500.712961 266.777693 
L 1516.186573 266.777693 
L 1516.186573 266.675191 
L 1500.712961 266.675191 
" style="fill:#009afa;stroke:#000000;stroke-linejoin:miter;"/>
   </g>
   <g id="patch_99">
    <path clip-path="url(#p784127ff78)" d="M 1516.186573 266.752067 
L 1516.186573 266.777693 
L 1531.660184 266.777693 
L 1531.660184 266.752067 
L 1516.186573 266.752067 
" style="fill:#009afa;stroke:#000000;stroke-linejoin:miter;"/>
   </g>
   <g id="patch_100">
    <path clip-path="url(#p784127ff78)" d="M 1531.660184 266.675191 
L 1531.660184 266.777693 
L 1547.133796 266.777693 
L 1547.133796 266.675191 
L 1531.660184 266.675191 
" style="fill:#009afa;stroke:#000000;stroke-linejoin:miter;"/>
   </g>
   <g id="patch_101">
    <path clip-path="url(#p784127ff78)" d="M 1547.133796 266.700816 
L 1547.133796 266.777693 
L 1562.607408 266.777693 
L 1562.607408 266.700816 
L 1547.133796 266.700816 
" style="fill:#009afa;stroke:#000000;stroke-linejoin:miter;"/>
   </g>
   <g id="patch_102">
    <path clip-path="url(#p784127ff78)" d="M 1562.607408 266.752067 
L 1562.607408 266.777693 
L 1578.081019 266.777693 
L 1578.081019 266.752067 
L 1562.607408 266.752067 
" style="fill:#009afa;stroke:#000000;stroke-linejoin:miter;"/>
   </g>
   <g id="patch_103">
    <path clip-path="url(#p784127ff78)" d="M 1578.081019 266.726442 
L 1578.081019 266.777693 
L 1593.554631 266.777693 
L 1593.554631 266.726442 
L 1578.081019 266.726442 
" style="fill:#009afa;stroke:#000000;stroke-linejoin:miter;"/>
   </g>
   <g id="patch_104">
    <path clip-path="url(#p784127ff78)" d="M 1593.554631 266.777693 
L 1593.554631 266.777693 
L 1609.028242 266.777693 
L 1609.028242 266.777693 
L 1593.554631 266.777693 
" style="fill:#009afa;stroke:#000000;stroke-linejoin:miter;"/>
   </g>
   <g id="patch_105">
    <path clip-path="url(#p784127ff78)" d="M 1609.028242 266.777693 
L 1609.028242 266.777693 
L 1624.501854 266.777693 
L 1624.501854 266.777693 
L 1609.028242 266.777693 
" style="fill:#009afa;stroke:#000000;stroke-linejoin:miter;"/>
   </g>
   <g id="patch_106">
    <path clip-path="url(#p784127ff78)" d="M 1624.501854 266.726442 
L 1624.501854 266.777693 
L 1639.975466 266.777693 
L 1639.975466 266.726442 
L 1624.501854 266.726442 
" style="fill:#009afa;stroke:#000000;stroke-linejoin:miter;"/>
   </g>
   <g id="patch_107">
    <path clip-path="url(#p784127ff78)" d="M 1639.975466 266.777693 
L 1639.975466 266.777693 
L 1655.449077 266.777693 
L 1655.449077 266.777693 
L 1639.975466 266.777693 
" style="fill:#009afa;stroke:#000000;stroke-linejoin:miter;"/>
   </g>
   <g id="patch_108">
    <path clip-path="url(#p784127ff78)" d="M 1655.449077 266.726442 
L 1655.449077 266.777693 
L 1670.922689 266.777693 
L 1670.922689 266.726442 
L 1655.449077 266.726442 
" style="fill:#009afa;stroke:#000000;stroke-linejoin:miter;"/>
   </g>
   <g id="patch_109">
    <path clip-path="url(#p784127ff78)" d="M 1670.922689 266.726442 
L 1670.922689 266.777693 
L 1686.396301 266.777693 
L 1686.396301 266.726442 
L 1670.922689 266.726442 
" style="fill:#009afa;stroke:#000000;stroke-linejoin:miter;"/>
   </g>
   <g id="patch_110">
    <path clip-path="url(#p784127ff78)" d="M 1686.396301 266.752067 
L 1686.396301 266.777693 
L 1701.869912 266.777693 
L 1701.869912 266.752067 
L 1686.396301 266.752067 
" style="fill:#009afa;stroke:#000000;stroke-linejoin:miter;"/>
   </g>
   <g id="patch_111">
    <path clip-path="url(#p784127ff78)" d="M 1701.869912 266.777693 
L 1701.869912 266.777693 
L 1717.343524 266.777693 
L 1717.343524 266.777693 
L 1701.869912 266.777693 
" style="fill:#009afa;stroke:#000000;stroke-linejoin:miter;"/>
   </g>
   <g id="patch_112">
    <path clip-path="url(#p784127ff78)" d="M 1717.343524 266.777693 
L 1717.343524 266.777693 
L 1732.817136 266.777693 
L 1732.817136 266.777693 
L 1717.343524 266.777693 
" style="fill:#009afa;stroke:#000000;stroke-linejoin:miter;"/>
   </g>
   <g id="patch_113">
    <path clip-path="url(#p784127ff78)" d="M 1732.817136 266.752067 
L 1732.817136 266.777693 
L 1748.290747 266.777693 
L 1748.290747 266.752067 
L 1732.817136 266.752067 
" style="fill:#009afa;stroke:#000000;stroke-linejoin:miter;"/>
   </g>
   <g id="patch_114">
    <path clip-path="url(#p784127ff78)" d="M 1748.290747 266.752067 
L 1748.290747 266.777693 
L 1763.764359 266.777693 
L 1763.764359 266.752067 
L 1748.290747 266.752067 
" style="fill:#009afa;stroke:#000000;stroke-linejoin:miter;"/>
   </g>
   <g id="patch_115">
    <path clip-path="url(#p784127ff78)" d="M 1763.764359 266.752067 
L 1763.764359 266.777693 
L 1779.237971 266.777693 
L 1779.237971 266.752067 
L 1763.764359 266.752067 
" style="fill:#009afa;stroke:#000000;stroke-linejoin:miter;"/>
   </g>
   <g id="patch_116">
    <path clip-path="url(#p784127ff78)" d="M 1779.237971 266.777693 
L 1779.237971 266.777693 
L 1794.711582 266.777693 
L 1794.711582 266.777693 
L 1779.237971 266.777693 
" style="fill:#009afa;stroke:#000000;stroke-linejoin:miter;"/>
   </g>
   <g id="patch_117">
    <path clip-path="url(#p784127ff78)" d="M 1794.711582 266.777693 
L 1794.711582 266.777693 
L 1810.185194 266.777693 
L 1810.185194 266.777693 
L 1794.711582 266.777693 
" style="fill:#009afa;stroke:#000000;stroke-linejoin:miter;"/>
   </g>
   <g id="patch_118">
    <path clip-path="url(#p784127ff78)" d="M 1810.185194 266.752067 
L 1810.185194 266.777693 
L 1825.658806 266.777693 
L 1825.658806 266.752067 
L 1810.185194 266.752067 
" style="fill:#009afa;stroke:#000000;stroke-linejoin:miter;"/>
   </g>
   <g id="patch_119">
    <path clip-path="url(#p784127ff78)" d="M 1825.658806 266.777693 
L 1825.658806 266.777693 
L 1841.132417 266.777693 
L 1841.132417 266.777693 
L 1825.658806 266.777693 
" style="fill:#009afa;stroke:#000000;stroke-linejoin:miter;"/>
   </g>
   <g id="patch_120">
    <path clip-path="url(#p784127ff78)" d="M 1841.132417 266.777693 
L 1841.132417 266.777693 
L 1856.606029 266.777693 
L 1856.606029 266.777693 
L 1841.132417 266.777693 
" style="fill:#009afa;stroke:#000000;stroke-linejoin:miter;"/>
   </g>
   <g id="patch_121">
    <path clip-path="url(#p784127ff78)" d="M 1856.606029 266.726442 
L 1856.606029 266.777693 
L 1872.07964 266.777693 
L 1872.07964 266.726442 
L 1856.606029 266.726442 
" style="fill:#009afa;stroke:#000000;stroke-linejoin:miter;"/>
   </g>
   <g id="line2d_25">
    <path clip-path="url(#p784127ff78)" d="M 31.493535 246.433447 
L 33.048711 231.834125 
L 34.603887 222.101883 
L 36.159063 214.437662 
L 37.714239 208.018476 
L 39.269416 202.463287 
L 40.824592 197.557312 
L 42.379768 193.164738 
L 43.934944 189.192871 
L 45.49012 185.574896 
L 47.045296 182.260624 
L 48.600472 179.211123 
L 50.155648 176.395403 
L 51.710825 173.788266 
L 53.266001 171.368857 
L 54.821177 169.119655 
L 56.376353 167.025748 
L 57.931529 165.074301 
L 59.486705 163.25416 
L 61.041881 161.555546 
L 62.597057 159.969819 
L 64.152234 158.489295 
L 65.70741 157.107096 
L 67.262586 155.817033 
L 68.817762 154.613506 
L 70.372938 153.491429 
L 71.928114 152.446159 
L 73.48329 151.473445 
L 75.038466 150.569377 
L 76.593642 149.730351 
L 78.148819 148.953033 
L 79.703995 148.23433 
L 81.259171 147.571368 
L 82.814347 146.961464 
L 84.369523 146.402116 
L 85.924699 145.890977 
L 87.479875 145.42585 
L 89.035051 145.004667 
L 90.590228 144.625483 
L 92.145404 144.286464 
L 93.70058 143.985879 
L 95.255756 143.722088 
L 96.810932 143.493543 
L 98.366108 143.298772 
L 99.921284 143.136381 
L 101.47646 143.005043 
L 103.031637 142.903498 
L 104.586813 142.830544 
L 106.141989 142.785036 
L 107.697165 142.765884 
L 109.252341 142.772043 
L 110.807517 142.802518 
L 112.362693 142.856356 
L 113.917869 142.932645 
L 115.473045 143.030513 
L 117.028222 143.149121 
L 118.583398 143.287667 
L 120.138574 143.445382 
L 121.69375 143.621526 
L 123.248926 143.815389 
L 124.804102 144.026289 
L 126.359278 144.253569 
L 127.914454 144.496598 
L 129.469631 144.754768 
L 131.024807 145.027493 
L 132.579983 145.314212 
L 134.135159 145.614379 
L 135.690335 145.927472 
L 137.245511 146.252985 
L 138.800687 146.590431 
L 140.355863 146.939341 
L 141.91104 147.299259 
L 143.466216 147.669748 
L 145.021392 148.050385 
L 146.576568 148.44076 
L 148.131744 148.840479 
L 149.68692 149.249158 
L 151.242096 149.666429 
L 152.797272 150.091934 
L 154.352448 150.525327 
L 155.907625 150.966274 
L 157.462801 151.414451 
L 159.017977 151.869545 
L 160.573153 152.331253 
L 162.128329 152.799281 
L 163.683505 153.273344 
L 165.238681 153.753167 
L 166.793857 154.238483 
L 168.349034 154.729035 
L 169.90421 155.22457 
L 171.459386 155.724847 
L 173.014562 156.22963 
L 174.569738 156.738691 
L 176.124914 157.251809 
L 177.68009 157.76877 
L 179.235266 158.289366 
L 180.790443 158.813396 
L 182.345619 159.340663 
L 183.900795 159.87098 
L 185.455971 160.404161 
" style="fill:none;stroke:#e36f47;stroke-linecap:round;"/>
   </g>
   <g id="patch_122">
    <path d="M 19.114646 274.465354 
L 19.114646 2.834646 
" style="fill:none;stroke:#000000;stroke-linecap:square;stroke-linejoin:miter;"/>
   </g>
   <g id="patch_123">
    <path d="M 19.114646 274.465354 
L 429.165354 274.465354 
" style="fill:none;stroke:#000000;stroke-linecap:square;stroke-linejoin:miter;"/>
   </g>
   <g id="line2d_26">
    <path clip-path="url(#p784127ff78)" d="M 31.493535 246.433447 
L 33.048711 231.834125 
L 34.603887 222.101883 
L 36.159063 214.437662 
L 37.714239 208.018476 
L 39.269416 202.463287 
L 40.824592 197.557312 
L 42.379768 193.164738 
L 43.934944 189.192871 
L 45.49012 185.574896 
L 47.045296 182.260624 
L 48.600472 179.211123 
L 50.155648 176.395403 
L 51.710825 173.788266 
L 53.266001 171.368857 
L 54.821177 169.119655 
L 56.376353 167.025748 
L 57.931529 165.074301 
L 59.486705 163.25416 
L 61.041881 161.555546 
L 62.597057 159.969819 
L 64.152234 158.489295 
L 65.70741 157.107096 
L 67.262586 155.817033 
L 68.817762 154.613506 
L 70.372938 153.491429 
L 71.928114 152.446159 
L 73.48329 151.473445 
L 75.038466 150.569377 
L 76.593642 149.730351 
L 78.148819 148.953033 
L 79.703995 148.23433 
L 81.259171 147.571368 
L 82.814347 146.961464 
L 84.369523 146.402116 
L 85.924699 145.890977 
L 87.479875 145.42585 
L 89.035051 145.004667 
L 90.590228 144.625483 
L 92.145404 144.286464 
L 93.70058 143.985879 
L 95.255756 143.722088 
L 96.810932 143.493543 
L 98.366108 143.298772 
L 99.921284 143.136381 
L 101.47646 143.005043 
L 103.031637 142.903498 
L 104.586813 142.830544 
L 106.141989 142.785036 
L 107.697165 142.765884 
L 109.252341 142.772043 
L 110.807517 142.802518 
L 112.362693 142.856356 
L 113.917869 142.932645 
L 115.473045 143.030513 
L 117.028222 143.149121 
L 118.583398 143.287667 
L 120.138574 143.445382 
L 121.69375 143.621526 
L 123.248926 143.815389 
L 124.804102 144.026289 
L 126.359278 144.253569 
L 127.914454 144.496598 
L 129.469631 144.754768 
L 131.024807 145.027493 
L 132.579983 145.314212 
L 134.135159 145.614379 
L 135.690335 145.927472 
L 137.245511 146.252985 
L 138.800687 146.590431 
L 140.355863 146.939341 
L 141.91104 147.299259 
L 143.466216 147.669748 
L 145.021392 148.050385 
L 146.576568 148.44076 
L 148.131744 148.840479 
L 149.68692 149.249158 
L 151.242096 149.666429 
L 152.797272 150.091934 
L 154.352448 150.525327 
L 155.907625 150.966274 
L 157.462801 151.414451 
L 159.017977 151.869545 
L 160.573153 152.331253 
L 162.128329 152.799281 
L 163.683505 153.273344 
L 165.238681 153.753167 
L 166.793857 154.238483 
L 168.349034 154.729035 
L 169.90421 155.22457 
L 171.459386 155.724847 
L 173.014562 156.22963 
L 174.569738 156.738691 
L 176.124914 157.251809 
L 177.68009 157.76877 
L 179.235266 158.289366 
L 180.790443 158.813396 
L 182.345619 159.340663 
L 183.900795 159.87098 
L 185.455971 160.404161 
" style="fill:none;stroke:#3ea44e;stroke-dasharray:3.7,1.6;stroke-dashoffset:0;"/>
   </g>
   <g id="legend_1">
    <g id="patch_124">
     <path d="M 347.805354 45.679646 
L 425.165354 45.679646 
L 425.165354 6.834646 
L 347.805354 6.834646 
z
" style="fill:#ffffff;stroke:#000000;stroke-linejoin:miter;"/>
    </g>
    <g id="patch_125">
     <path d="M 351.005354 16.113396 
L 367.005354 16.113396 
L 367.005354 10.513396 
L 351.005354 10.513396 
z
" style="fill:#009afa;stroke:#000000;stroke-linejoin:miter;"/>
    </g>
    <g id="text_13">
     <!-- $X^2+Y^2+Z^2$ -->
     <defs>
      <path d="M 13.71875 72.90625 
L 23.6875 72.90625 
L 36.1875 46.578125 
L 58.796875 72.90625 
L 70.3125 72.90625 
L 40.28125 38.09375 
L 58.40625 0 
L 48.484375 0 
L 33.796875 30.71875 
L 7.171875 0 
L -4.296875 0 
L 29.78125 39.203125 
z
" id="DejaVuSans-Oblique-88"/>
      <path d="M 46 62.703125 
L 46 35.5 
L 73.1875 35.5 
L 73.1875 27.203125 
L 46 27.203125 
L 46 0 
L 37.796875 0 
L 37.796875 27.203125 
L 10.59375 27.203125 
L 10.59375 35.5 
L 37.796875 35.5 
L 37.796875 62.703125 
z
" id="DejaVuSans-43"/>
      <path d="M 6.296875 72.90625 
L 16.890625 72.90625 
L 30.515625 42.921875 
L 56.5 72.90625 
L 67.578125 72.90625 
L 34.515625 34.71875 
L 27.78125 0 
L 17.921875 0 
L 24.609375 34.71875 
z
" id="DejaVuSans-Oblique-89"/>
      <path d="M 13.09375 72.90625 
L 70.3125 72.90625 
L 68.890625 65.375 
L 12.40625 8.296875 
L 58.890625 8.296875 
L 57.328125 0 
L -2.203125 0 
L -0.78125 7.515625 
L 55.71875 64.59375 
L 11.53125 64.59375 
z
" id="DejaVuSans-Oblique-90"/>
     </defs>
     <g transform="translate(373.405354 16.113396)scale(0.08 -0.08)">
      <use transform="translate(0 0.765625)" xlink:href="#DejaVuSans-Oblique-88"/>
      <use transform="translate(75.52263 39.046875)scale(0.7)" xlink:href="#DejaVuSans-50"/>
      <use transform="translate(142.27556 0.765625)" xlink:href="#DejaVuSans-43"/>
      <use transform="translate(245.547044 0.765625)" xlink:href="#DejaVuSans-Oblique-89"/>
      <use transform="translate(313.647799 39.046875)scale(0.7)" xlink:href="#DejaVuSans-50"/>
      <use transform="translate(380.400729 0.765625)" xlink:href="#DejaVuSans-43"/>
      <use transform="translate(483.672214 0.765625)" xlink:href="#DejaVuSans-Oblique-90"/>
      <use transform="translate(559.194844 39.046875)scale(0.7)" xlink:href="#DejaVuSans-50"/>
     </g>
    </g>
    <g id="line2d_27">
     <path d="M 351.005354 25.055896 
L 367.005354 25.055896 
" style="fill:none;stroke:#e36f47;stroke-linecap:square;"/>
    </g>
    <g id="line2d_28"/>
    <g id="text_14">
     <!-- $T_3$ -->
     <defs>
      <path d="M 5.90625 72.90625 
L 67.578125 72.90625 
L 66.015625 64.59375 
L 39.984375 64.59375 
L 27.484375 0 
L 17.578125 0 
L 30.078125 64.59375 
L 4.296875 64.59375 
z
" id="DejaVuSans-Oblique-84"/>
     </defs>
     <g transform="translate(373.405354 27.855896)scale(0.08 -0.08)">
      <use transform="translate(0 0.09375)" xlink:href="#DejaVuSans-Oblique-84"/>
      <use transform="translate(61.083984 -16.3125)scale(0.7)" xlink:href="#DejaVuSans-51"/>
     </g>
    </g>
    <g id="line2d_29">
     <path d="M 351.005354 37.999646 
L 367.005354 37.999646 
" style="fill:none;stroke:#3ea44e;stroke-dasharray:3.7,1.6;stroke-dashoffset:0;"/>
    </g>
    <g id="line2d_30"/>
    <g id="text_15">
     <!-- $\chi^2(3)$ -->
     <defs>
      <path d="M 30.03125 -12.203125 
L 26.421875 6.5 
L 6.15625 -20.84375 
L -4.4375 -20.84375 
L 24.265625 17.828125 
L 19.828125 40.828125 
Q 18.65625 46.96875 11.140625 46.96875 
L 8.734375 46.96875 
L 10.203125 54.6875 
L 13.625 54.59375 
Q 26.171875 54.25 27.734375 46.09375 
L 31.34375 27.390625 
L 51.609375 54.734375 
L 62.203125 54.734375 
L 33.5 16.0625 
L 37.9375 -6.9375 
Q 39.109375 -13.09375 46.625 -13.09375 
L 49.03125 -13.09375 
L 47.5625 -20.796875 
L 44.140625 -20.703125 
Q 31.59375 -20.359375 30.03125 -12.203125 
z
" id="DejaVuSans-Oblique-967"/>
      <path d="M 31 75.875 
Q 24.46875 64.65625 21.28125 53.65625 
Q 18.109375 42.671875 18.109375 31.390625 
Q 18.109375 20.125 21.3125 9.0625 
Q 24.515625 -2 31 -13.1875 
L 23.1875 -13.1875 
Q 15.875 -1.703125 12.234375 9.375 
Q 8.59375 20.453125 8.59375 31.390625 
Q 8.59375 42.28125 12.203125 53.3125 
Q 15.828125 64.359375 23.1875 75.875 
z
" id="DejaVuSans-40"/>
      <path d="M 8.015625 75.875 
L 15.828125 75.875 
Q 23.140625 64.359375 26.78125 53.3125 
Q 30.421875 42.28125 30.421875 31.390625 
Q 30.421875 20.453125 26.78125 9.375 
Q 23.140625 -1.703125 15.828125 -13.1875 
L 8.015625 -13.1875 
Q 14.5 -2 17.703125 9.0625 
Q 20.90625 20.125 20.90625 31.390625 
Q 20.90625 42.671875 17.703125 53.65625 
Q 14.5 64.65625 8.015625 75.875 
z
" id="DejaVuSans-41"/>
     </defs>
     <g transform="translate(373.405354 40.799646)scale(0.08 -0.08)">
      <use transform="translate(0 0.765625)" xlink:href="#DejaVuSans-Oblique-967"/>
      <use transform="translate(63.652396 39.046875)scale(0.7)" xlink:href="#DejaVuSans-50"/>
      <use transform="translate(110.922904 0.765625)" xlink:href="#DejaVuSans-40"/>
      <use transform="translate(149.936576 0.765625)" xlink:href="#DejaVuSans-51"/>
      <use transform="translate(213.559622 0.765625)" xlink:href="#DejaVuSans-41"/>
     </g>
    </g>
   </g>
  </g>
 </g>
 <defs>
  <clipPath id="p784127ff78">
   <rect height="271.630709" width="410.050709" x="19.114646" y="2.834646"/>
  </clipPath>
 </defs>
</svg>
