<?xml version="1.0" encoding="utf-8"?>
<svg xmlns="http://www.w3.org/2000/svg" xmlns:xlink="http://www.w3.org/1999/xlink" width="600" height="400" viewBox="0 0 2400 1600">
<defs>
  <clipPath id="clip560">
    <rect x="0" y="0" width="2400" height="1600"/>
  </clipPath>
</defs>
<path clip-path="url(#clip560)" d="
M0 1600 L2400 1600 L2400 0 L0 0  Z
  " fill="#ffffff" fill-rule="evenodd" fill-opacity="1"/>
<defs>
  <clipPath id="clip561">
    <rect x="480" y="0" width="1681" height="1600"/>
  </clipPath>
</defs>
<path clip-path="url(#clip560)" d="
M173.867 1486.45 L2352.76 1486.45 L2352.76 47.2441 L173.867 47.2441  Z
  " fill="#ffffff" fill-rule="evenodd" fill-opacity="1"/>
<defs>
  <clipPath id="clip562">
    <rect x="173" y="47" width="2180" height="1440"/>
  </clipPath>
</defs>
<polyline clip-path="url(#clip562)" style="stroke:#000000; stroke-width:2; stroke-opacity:0.1; fill:none" points="
  235.533,1486.45 235.533,47.2441 
  "/>
<polyline clip-path="url(#clip562)" style="stroke:#000000; stroke-width:2; stroke-opacity:0.1; fill:none" points="
  749.422,1486.45 749.422,47.2441 
  "/>
<polyline clip-path="url(#clip562)" style="stroke:#000000; stroke-width:2; stroke-opacity:0.1; fill:none" points="
  1263.31,1486.45 1263.31,47.2441 
  "/>
<polyline clip-path="url(#clip562)" style="stroke:#000000; stroke-width:2; stroke-opacity:0.1; fill:none" points="
  1777.2,1486.45 1777.2,47.2441 
  "/>
<polyline clip-path="url(#clip562)" style="stroke:#000000; stroke-width:2; stroke-opacity:0.1; fill:none" points="
  2291.09,1486.45 2291.09,47.2441 
  "/>
<polyline clip-path="url(#clip562)" style="stroke:#000000; stroke-width:2; stroke-opacity:0.1; fill:none" points="
  173.867,1237.54 2352.76,1237.54 
  "/>
<polyline clip-path="url(#clip562)" style="stroke:#000000; stroke-width:2; stroke-opacity:0.1; fill:none" points="
  173.867,985.258 2352.76,985.258 
  "/>
<polyline clip-path="url(#clip562)" style="stroke:#000000; stroke-width:2; stroke-opacity:0.1; fill:none" points="
  173.867,732.974 2352.76,732.974 
  "/>
<polyline clip-path="url(#clip562)" style="stroke:#000000; stroke-width:2; stroke-opacity:0.1; fill:none" points="
  173.867,480.689 2352.76,480.689 
  "/>
<polyline clip-path="url(#clip562)" style="stroke:#000000; stroke-width:2; stroke-opacity:0.1; fill:none" points="
  173.867,228.405 2352.76,228.405 
  "/>
<polyline clip-path="url(#clip560)" style="stroke:#000000; stroke-width:4; stroke-opacity:1; fill:none" points="
  173.867,1486.45 2352.76,1486.45 
  "/>
<polyline clip-path="url(#clip560)" style="stroke:#000000; stroke-width:4; stroke-opacity:1; fill:none" points="
  173.867,1486.45 173.867,47.2441 
  "/>
<polyline clip-path="url(#clip560)" style="stroke:#000000; stroke-width:4; stroke-opacity:1; fill:none" points="
  235.533,1486.45 235.533,1469.18 
  "/>
<polyline clip-path="url(#clip560)" style="stroke:#000000; stroke-width:4; stroke-opacity:1; fill:none" points="
  749.422,1486.45 749.422,1469.18 
  "/>
<polyline clip-path="url(#clip560)" style="stroke:#000000; stroke-width:4; stroke-opacity:1; fill:none" points="
  1263.31,1486.45 1263.31,1469.18 
  "/>
<polyline clip-path="url(#clip560)" style="stroke:#000000; stroke-width:4; stroke-opacity:1; fill:none" points="
  1777.2,1486.45 1777.2,1469.18 
  "/>
<polyline clip-path="url(#clip560)" style="stroke:#000000; stroke-width:4; stroke-opacity:1; fill:none" points="
  2291.09,1486.45 2291.09,1469.18 
  "/>
<polyline clip-path="url(#clip560)" style="stroke:#000000; stroke-width:4; stroke-opacity:1; fill:none" points="
  173.867,1237.54 200.013,1237.54 
  "/>
<polyline clip-path="url(#clip560)" style="stroke:#000000; stroke-width:4; stroke-opacity:1; fill:none" points="
  173.867,985.258 200.013,985.258 
  "/>
<polyline clip-path="url(#clip560)" style="stroke:#000000; stroke-width:4; stroke-opacity:1; fill:none" points="
  173.867,732.974 200.013,732.974 
  "/>
<polyline clip-path="url(#clip560)" style="stroke:#000000; stroke-width:4; stroke-opacity:1; fill:none" points="
  173.867,480.689 200.013,480.689 
  "/>
<polyline clip-path="url(#clip560)" style="stroke:#000000; stroke-width:4; stroke-opacity:1; fill:none" points="
  173.867,228.405 200.013,228.405 
  "/>
<path clip-path="url(#clip560)" d="M 0 0 M207.432 1535.98 L215.07 1535.98 L215.07 1509.62 L206.76 1511.29 L206.76 1507.03 L215.024 1505.36 L219.7 1505.36 L219.7 1535.98 L227.339 1535.98 L227.339 1539.92 L207.432 1539.92 L207.432 1535.98 Z" fill="#000000" fill-rule="evenodd" fill-opacity="1" /><path clip-path="url(#clip560)" d="M 0 0 M232.408 1534.04 L237.293 1534.04 L237.293 1539.92 L232.408 1539.92 L232.408 1534.04 Z" fill="#000000" fill-rule="evenodd" fill-opacity="1" /><path clip-path="url(#clip560)" d="M 0 0 M252.362 1508.44 Q248.751 1508.44 246.922 1512 Q245.117 1515.55 245.117 1522.67 Q245.117 1529.78 246.922 1533.35 Q248.751 1536.89 252.362 1536.89 Q255.996 1536.89 257.802 1533.35 Q259.63 1529.78 259.63 1522.67 Q259.63 1515.55 257.802 1512 Q255.996 1508.44 252.362 1508.44 M252.362 1504.73 Q258.172 1504.73 261.228 1509.34 Q264.306 1513.92 264.306 1522.67 Q264.306 1531.4 261.228 1536.01 Q258.172 1540.59 252.362 1540.59 Q246.552 1540.59 243.473 1536.01 Q240.418 1531.4 240.418 1522.67 Q240.418 1513.92 243.473 1509.34 Q246.552 1504.73 252.362 1504.73 Z" fill="#000000" fill-rule="evenodd" fill-opacity="1" /><path clip-path="url(#clip560)" d="M 0 0 M721.818 1535.98 L729.457 1535.98 L729.457 1509.62 L721.147 1511.29 L721.147 1507.03 L729.411 1505.36 L734.087 1505.36 L734.087 1535.98 L741.726 1535.98 L741.726 1539.92 L721.818 1539.92 L721.818 1535.98 Z" fill="#000000" fill-rule="evenodd" fill-opacity="1" /><path clip-path="url(#clip560)" d="M 0 0 M746.795 1534.04 L751.679 1534.04 L751.679 1539.92 L746.795 1539.92 L746.795 1534.04 Z" fill="#000000" fill-rule="evenodd" fill-opacity="1" /><path clip-path="url(#clip560)" d="M 0 0 M756.795 1505.36 L775.151 1505.36 L775.151 1509.3 L761.077 1509.3 L761.077 1517.77 Q762.096 1517.42 763.114 1517.26 Q764.133 1517.07 765.151 1517.07 Q770.938 1517.07 774.318 1520.24 Q777.698 1523.42 777.698 1528.83 Q777.698 1534.41 774.225 1537.51 Q770.753 1540.59 764.434 1540.59 Q762.258 1540.59 759.989 1540.22 Q757.744 1539.85 755.337 1539.11 L755.337 1534.41 Q757.42 1535.54 759.642 1536.1 Q761.864 1536.66 764.341 1536.66 Q768.346 1536.66 770.684 1534.55 Q773.022 1532.44 773.022 1528.83 Q773.022 1525.22 770.684 1523.11 Q768.346 1521.01 764.341 1521.01 Q762.466 1521.01 760.591 1521.42 Q758.739 1521.84 756.795 1522.72 L756.795 1505.36 Z" fill="#000000" fill-rule="evenodd" fill-opacity="1" /><path clip-path="url(#clip560)" d="M 0 0 M1239.48 1535.98 L1255.8 1535.98 L1255.8 1539.92 L1233.86 1539.92 L1233.86 1535.98 Q1236.52 1533.23 1241.1 1528.6 Q1245.71 1523.95 1246.89 1522.61 Q1249.13 1520.08 1250.01 1518.35 Q1250.92 1516.59 1250.92 1514.9 Q1250.92 1512.14 1248.97 1510.41 Q1247.05 1508.67 1243.95 1508.67 Q1241.75 1508.67 1239.3 1509.43 Q1236.86 1510.2 1234.09 1511.75 L1234.09 1507.03 Q1236.91 1505.89 1239.36 1505.31 Q1241.82 1504.73 1243.86 1504.73 Q1249.23 1504.73 1252.42 1507.42 Q1255.61 1510.11 1255.61 1514.6 Q1255.61 1516.73 1254.8 1518.65 Q1254.02 1520.54 1251.91 1523.14 Q1251.33 1523.81 1248.23 1527.03 Q1245.13 1530.22 1239.48 1535.98 Z" fill="#000000" fill-rule="evenodd" fill-opacity="1" /><path clip-path="url(#clip560)" d="M 0 0 M1260.87 1534.04 L1265.75 1534.04 L1265.75 1539.92 L1260.87 1539.92 L1260.87 1534.04 Z" fill="#000000" fill-rule="evenodd" fill-opacity="1" /><path clip-path="url(#clip560)" d="M 0 0 M1280.82 1508.44 Q1277.21 1508.44 1275.38 1512 Q1273.58 1515.55 1273.58 1522.67 Q1273.58 1529.78 1275.38 1533.35 Q1277.21 1536.89 1280.82 1536.89 Q1284.46 1536.89 1286.26 1533.35 Q1288.09 1529.78 1288.09 1522.67 Q1288.09 1515.55 1286.26 1512 Q1284.46 1508.44 1280.82 1508.44 M1280.82 1504.73 Q1286.63 1504.73 1289.69 1509.34 Q1292.77 1513.92 1292.77 1522.67 Q1292.77 1531.4 1289.69 1536.01 Q1286.63 1540.59 1280.82 1540.59 Q1275.01 1540.59 1271.93 1536.01 Q1268.88 1531.4 1268.88 1522.67 Q1268.88 1513.92 1271.93 1509.34 Q1275.01 1504.73 1280.82 1504.73 Z" fill="#000000" fill-rule="evenodd" fill-opacity="1" /><path clip-path="url(#clip560)" d="M 0 0 M1753.87 1535.98 L1770.19 1535.98 L1770.19 1539.92 L1748.24 1539.92 L1748.24 1535.98 Q1750.9 1533.23 1755.49 1528.6 Q1760.09 1523.95 1761.27 1522.61 Q1763.52 1520.08 1764.4 1518.35 Q1765.3 1516.59 1765.3 1514.9 Q1765.3 1512.14 1763.36 1510.41 Q1761.44 1508.67 1758.33 1508.67 Q1756.14 1508.67 1753.68 1509.43 Q1751.25 1510.2 1748.47 1511.75 L1748.47 1507.03 Q1751.3 1505.89 1753.75 1505.31 Q1756.2 1504.73 1758.24 1504.73 Q1763.61 1504.73 1766.81 1507.42 Q1770 1510.11 1770 1514.6 Q1770 1516.73 1769.19 1518.65 Q1768.4 1520.54 1766.3 1523.14 Q1765.72 1523.81 1762.62 1527.03 Q1759.52 1530.22 1753.87 1535.98 Z" fill="#000000" fill-rule="evenodd" fill-opacity="1" /><path clip-path="url(#clip560)" d="M 0 0 M1775.26 1534.04 L1780.14 1534.04 L1780.14 1539.92 L1775.26 1539.92 L1775.26 1534.04 Z" fill="#000000" fill-rule="evenodd" fill-opacity="1" /><path clip-path="url(#clip560)" d="M 0 0 M1785.26 1505.36 L1803.61 1505.36 L1803.61 1509.3 L1789.54 1509.3 L1789.54 1517.77 Q1790.56 1517.42 1791.58 1517.26 Q1792.59 1517.07 1793.61 1517.07 Q1799.4 1517.07 1802.78 1520.24 Q1806.16 1523.42 1806.16 1528.83 Q1806.16 1534.41 1802.69 1537.51 Q1799.21 1540.59 1792.89 1540.59 Q1790.72 1540.59 1788.45 1540.22 Q1786.2 1539.85 1783.8 1539.11 L1783.8 1534.41 Q1785.88 1535.54 1788.1 1536.1 Q1790.33 1536.66 1792.8 1536.66 Q1796.81 1536.66 1799.14 1534.55 Q1801.48 1532.44 1801.48 1528.83 Q1801.48 1525.22 1799.14 1523.11 Q1796.81 1521.01 1792.8 1521.01 Q1790.93 1521.01 1789.05 1521.42 Q1787.2 1521.84 1785.26 1522.72 L1785.26 1505.36 Z" fill="#000000" fill-rule="evenodd" fill-opacity="1" /><path clip-path="url(#clip560)" d="M 0 0 M2276.85 1521.29 Q2280.21 1522 2282.08 1524.27 Q2283.98 1526.54 2283.98 1529.87 Q2283.98 1534.99 2280.46 1537.79 Q2276.95 1540.59 2270.46 1540.59 Q2268.29 1540.59 2265.97 1540.15 Q2263.68 1539.73 2261.23 1538.88 L2261.23 1534.36 Q2263.17 1535.5 2265.49 1536.08 Q2267.8 1536.66 2270.33 1536.66 Q2274.72 1536.66 2277.02 1534.92 Q2279.33 1533.18 2279.33 1529.87 Q2279.33 1526.82 2277.18 1525.11 Q2275.05 1523.37 2271.23 1523.37 L2267.2 1523.37 L2267.2 1519.53 L2271.41 1519.53 Q2274.86 1519.53 2276.69 1518.16 Q2278.52 1516.77 2278.52 1514.18 Q2278.52 1511.52 2276.62 1510.11 Q2274.75 1508.67 2271.23 1508.67 Q2269.31 1508.67 2267.11 1509.09 Q2264.91 1509.5 2262.27 1510.38 L2262.27 1506.22 Q2264.93 1505.48 2267.25 1505.11 Q2269.58 1504.73 2271.64 1504.73 Q2276.97 1504.73 2280.07 1507.17 Q2283.17 1509.57 2283.17 1513.69 Q2283.17 1516.56 2281.53 1518.55 Q2279.89 1520.52 2276.85 1521.29 Z" fill="#000000" fill-rule="evenodd" fill-opacity="1" /><path clip-path="url(#clip560)" d="M 0 0 M2289.05 1534.04 L2293.94 1534.04 L2293.94 1539.92 L2289.05 1539.92 L2289.05 1534.04 Z" fill="#000000" fill-rule="evenodd" fill-opacity="1" /><path clip-path="url(#clip560)" d="M 0 0 M2309.01 1508.44 Q2305.39 1508.44 2303.57 1512 Q2301.76 1515.55 2301.76 1522.67 Q2301.76 1529.78 2303.57 1533.35 Q2305.39 1536.89 2309.01 1536.89 Q2312.64 1536.89 2314.45 1533.35 Q2316.27 1529.78 2316.27 1522.67 Q2316.27 1515.55 2314.45 1512 Q2312.64 1508.44 2309.01 1508.44 M2309.01 1504.73 Q2314.82 1504.73 2317.87 1509.34 Q2320.95 1513.92 2320.95 1522.67 Q2320.95 1531.4 2317.87 1536.01 Q2314.82 1540.59 2309.01 1540.59 Q2303.2 1540.59 2300.12 1536.01 Q2297.06 1531.4 2297.06 1522.67 Q2297.06 1513.92 2300.12 1509.34 Q2303.2 1504.73 2309.01 1504.73 Z" fill="#000000" fill-rule="evenodd" fill-opacity="1" /><path clip-path="url(#clip560)" d="M 0 0 M76.5337 1223.34 Q72.9226 1223.34 71.0939 1226.91 Q69.2884 1230.45 69.2884 1237.58 Q69.2884 1244.68 71.0939 1248.25 Q72.9226 1251.79 76.5337 1251.79 Q80.168 1251.79 81.9735 1248.25 Q83.8022 1244.68 83.8022 1237.58 Q83.8022 1230.45 81.9735 1226.91 Q80.168 1223.34 76.5337 1223.34 M76.5337 1219.64 Q82.3439 1219.64 85.3994 1224.24 Q88.4781 1228.83 88.4781 1237.58 Q88.4781 1246.3 85.3994 1250.91 Q82.3439 1255.49 76.5337 1255.49 Q70.7236 1255.49 67.6449 1250.91 Q64.5893 1246.3 64.5893 1237.58 Q64.5893 1228.83 67.6449 1224.24 Q70.7236 1219.64 76.5337 1219.64 Z" fill="#000000" fill-rule="evenodd" fill-opacity="1" /><path clip-path="url(#clip560)" d="M 0 0 M93.5475 1248.94 L98.4318 1248.94 L98.4318 1254.82 L93.5475 1254.82 L93.5475 1248.94 Z" fill="#000000" fill-rule="evenodd" fill-opacity="1" /><path clip-path="url(#clip560)" d="M 0 0 M107.529 1250.89 L123.848 1250.89 L123.848 1254.82 L101.904 1254.82 L101.904 1250.89 Q104.566 1248.13 109.149 1243.5 Q113.756 1238.85 114.936 1237.51 Q117.182 1234.98 118.061 1233.25 Q118.964 1231.49 118.964 1229.8 Q118.964 1227.04 117.02 1225.31 Q115.098 1223.57 111.996 1223.57 Q109.797 1223.57 107.344 1224.34 Q104.913 1225.1 102.135 1226.65 L102.135 1221.93 Q104.959 1220.79 107.413 1220.22 Q109.867 1219.64 111.904 1219.64 Q117.274 1219.64 120.469 1222.32 Q123.663 1225.01 123.663 1229.5 Q123.663 1231.63 122.853 1233.55 Q122.066 1235.45 119.959 1238.04 Q119.381 1238.71 116.279 1241.93 Q113.177 1245.12 107.529 1250.89 Z" fill="#000000" fill-rule="evenodd" fill-opacity="1" /><path clip-path="url(#clip560)" d="M 0 0 M128.964 1220.26 L147.32 1220.26 L147.32 1224.2 L133.246 1224.2 L133.246 1232.67 Q134.265 1232.32 135.283 1232.16 Q136.302 1231.98 137.32 1231.98 Q143.107 1231.98 146.487 1235.15 Q149.867 1238.32 149.867 1243.73 Q149.867 1249.31 146.394 1252.41 Q142.922 1255.49 136.603 1255.49 Q134.427 1255.49 132.158 1255.12 Q129.913 1254.75 127.506 1254.01 L127.506 1249.31 Q129.589 1250.45 131.811 1251 Q134.033 1251.56 136.51 1251.56 Q140.515 1251.56 142.853 1249.45 Q145.191 1247.35 145.191 1243.73 Q145.191 1240.12 142.853 1238.02 Q140.515 1235.91 136.51 1235.91 Q134.635 1235.91 132.76 1236.33 Q130.908 1236.74 128.964 1237.62 L128.964 1220.26 Z" fill="#000000" fill-rule="evenodd" fill-opacity="1" /><path clip-path="url(#clip560)" d="M 0 0 M74.9365 971.057 Q71.3254 971.057 69.4967 974.621 Q67.6912 978.163 67.6912 985.293 Q67.6912 992.399 69.4967 995.964 Q71.3254 999.505 74.9365 999.505 Q78.5707 999.505 80.3763 995.964 Q82.205 992.399 82.205 985.293 Q82.205 978.163 80.3763 974.621 Q78.5707 971.057 74.9365 971.057 M74.9365 967.353 Q80.7467 967.353 83.8022 971.959 Q86.8809 976.543 86.8809 985.293 Q86.8809 994.019 83.8022 998.626 Q80.7467 1003.21 74.9365 1003.21 Q69.1264 1003.21 66.0477 998.626 Q62.9921 994.019 62.9921 985.293 Q62.9921 976.543 66.0477 971.959 Q69.1264 967.353 74.9365 967.353 Z" fill="#000000" fill-rule="evenodd" fill-opacity="1" /><path clip-path="url(#clip560)" d="M 0 0 M91.9503 996.658 L96.8345 996.658 L96.8345 1002.54 L91.9503 1002.54 L91.9503 996.658 Z" fill="#000000" fill-rule="evenodd" fill-opacity="1" /><path clip-path="url(#clip560)" d="M 0 0 M101.95 967.978 L120.307 967.978 L120.307 971.913 L106.233 971.913 L106.233 980.385 Q107.251 980.038 108.27 979.876 Q109.288 979.691 110.307 979.691 Q116.094 979.691 119.473 982.862 Q122.853 986.033 122.853 991.45 Q122.853 997.029 119.381 1000.13 Q115.909 1003.21 109.589 1003.21 Q107.413 1003.21 105.145 1002.84 Q102.899 1002.47 100.492 1001.73 L100.492 997.029 Q102.575 998.163 104.797 998.718 Q107.02 999.274 109.497 999.274 Q113.501 999.274 115.839 997.167 Q118.177 995.061 118.177 991.45 Q118.177 987.839 115.839 985.732 Q113.501 983.626 109.497 983.626 Q107.622 983.626 105.747 984.043 Q103.895 984.459 101.95 985.339 L101.95 967.978 Z" fill="#000000" fill-rule="evenodd" fill-opacity="1" /><path clip-path="url(#clip560)" d="M 0 0 M137.922 971.057 Q134.311 971.057 132.482 974.621 Q130.677 978.163 130.677 985.293 Q130.677 992.399 132.482 995.964 Q134.311 999.505 137.922 999.505 Q141.557 999.505 143.362 995.964 Q145.191 992.399 145.191 985.293 Q145.191 978.163 143.362 974.621 Q141.557 971.057 137.922 971.057 M137.922 967.353 Q143.732 967.353 146.788 971.959 Q149.867 976.543 149.867 985.293 Q149.867 994.019 146.788 998.626 Q143.732 1003.21 137.922 1003.21 Q132.112 1003.21 129.033 998.626 Q125.978 994.019 125.978 985.293 Q125.978 976.543 129.033 971.959 Q132.112 967.353 137.922 967.353 Z" fill="#000000" fill-rule="evenodd" fill-opacity="1" /><path clip-path="url(#clip560)" d="M 0 0 M75.8393 718.772 Q72.2282 718.772 70.3995 722.337 Q68.5939 725.879 68.5939 733.008 Q68.5939 740.115 70.3995 743.679 Q72.2282 747.221 75.8393 747.221 Q79.4735 747.221 81.2791 743.679 Q83.1078 740.115 83.1078 733.008 Q83.1078 725.879 81.2791 722.337 Q79.4735 718.772 75.8393 718.772 M75.8393 715.069 Q81.6494 715.069 84.705 719.675 Q87.7837 724.258 87.7837 733.008 Q87.7837 741.735 84.705 746.342 Q81.6494 750.925 75.8393 750.925 Q70.0291 750.925 66.9504 746.342 Q63.8949 741.735 63.8949 733.008 Q63.8949 724.258 66.9504 719.675 Q70.0291 715.069 75.8393 715.069 Z" fill="#000000" fill-rule="evenodd" fill-opacity="1" /><path clip-path="url(#clip560)" d="M 0 0 M92.8531 744.374 L97.7373 744.374 L97.7373 750.254 L92.8531 750.254 L92.8531 744.374 Z" fill="#000000" fill-rule="evenodd" fill-opacity="1" /><path clip-path="url(#clip560)" d="M 0 0 M101.626 715.694 L123.848 715.694 L123.848 717.684 L111.302 750.254 L106.418 750.254 L118.223 719.629 L101.626 719.629 L101.626 715.694 Z" fill="#000000" fill-rule="evenodd" fill-opacity="1" /><path clip-path="url(#clip560)" d="M 0 0 M128.964 715.694 L147.32 715.694 L147.32 719.629 L133.246 719.629 L133.246 728.101 Q134.265 727.754 135.283 727.592 Q136.302 727.406 137.32 727.406 Q143.107 727.406 146.487 730.578 Q149.867 733.749 149.867 739.166 Q149.867 744.744 146.394 747.846 Q142.922 750.925 136.603 750.925 Q134.427 750.925 132.158 750.554 Q129.913 750.184 127.506 749.443 L127.506 744.744 Q129.589 745.879 131.811 746.434 Q134.033 746.99 136.51 746.99 Q140.515 746.99 142.853 744.883 Q145.191 742.777 145.191 739.166 Q145.191 735.555 142.853 733.448 Q140.515 731.342 136.51 731.342 Q134.635 731.342 132.76 731.758 Q130.908 732.175 128.964 733.055 L128.964 715.694 Z" fill="#000000" fill-rule="evenodd" fill-opacity="1" /><path clip-path="url(#clip560)" d="M 0 0 M65.9782 494.034 L73.6171 494.034 L73.6171 467.668 L65.3069 469.335 L65.3069 465.076 L73.5708 463.409 L78.2467 463.409 L78.2467 494.034 L85.8855 494.034 L85.8855 497.969 L65.9782 497.969 L65.9782 494.034 Z" fill="#000000" fill-rule="evenodd" fill-opacity="1" /><path clip-path="url(#clip560)" d="M 0 0 M90.9549 492.09 L95.8392 492.09 L95.8392 497.969 L90.9549 497.969 L90.9549 492.09 Z" fill="#000000" fill-rule="evenodd" fill-opacity="1" /><path clip-path="url(#clip560)" d="M 0 0 M110.909 466.488 Q107.297 466.488 105.469 470.053 Q103.663 473.594 103.663 480.724 Q103.663 487.83 105.469 491.395 Q107.297 494.937 110.909 494.937 Q114.543 494.937 116.348 491.395 Q118.177 487.83 118.177 480.724 Q118.177 473.594 116.348 470.053 Q114.543 466.488 110.909 466.488 M110.909 462.784 Q116.719 462.784 119.774 467.391 Q122.853 471.974 122.853 480.724 Q122.853 489.451 119.774 494.057 Q116.719 498.641 110.909 498.641 Q105.098 498.641 102.02 494.057 Q98.9642 489.451 98.9642 480.724 Q98.9642 471.974 102.02 467.391 Q105.098 462.784 110.909 462.784 Z" fill="#000000" fill-rule="evenodd" fill-opacity="1" /><path clip-path="url(#clip560)" d="M 0 0 M137.922 466.488 Q134.311 466.488 132.482 470.053 Q130.677 473.594 130.677 480.724 Q130.677 487.83 132.482 491.395 Q134.311 494.937 137.922 494.937 Q141.557 494.937 143.362 491.395 Q145.191 487.83 145.191 480.724 Q145.191 473.594 143.362 470.053 Q141.557 466.488 137.922 466.488 M137.922 462.784 Q143.732 462.784 146.788 467.391 Q149.867 471.974 149.867 480.724 Q149.867 489.451 146.788 494.057 Q143.732 498.641 137.922 498.641 Q132.112 498.641 129.033 494.057 Q125.978 489.451 125.978 480.724 Q125.978 471.974 129.033 467.391 Q132.112 462.784 137.922 462.784 Z" fill="#000000" fill-rule="evenodd" fill-opacity="1" /><path clip-path="url(#clip560)" d="M 0 0 M68.5708 241.75 L76.2096 241.75 L76.2096 215.384 L67.8995 217.051 L67.8995 212.792 L76.1634 211.125 L80.8393 211.125 L80.8393 241.75 L88.4781 241.75 L88.4781 245.685 L68.5708 245.685 L68.5708 241.75 Z" fill="#000000" fill-rule="evenodd" fill-opacity="1" /><path clip-path="url(#clip560)" d="M 0 0 M93.5475 239.805 L98.4318 239.805 L98.4318 245.685 L93.5475 245.685 L93.5475 239.805 Z" fill="#000000" fill-rule="evenodd" fill-opacity="1" /><path clip-path="url(#clip560)" d="M 0 0 M107.529 241.75 L123.848 241.75 L123.848 245.685 L101.904 245.685 L101.904 241.75 Q104.566 238.995 109.149 234.366 Q113.756 229.713 114.936 228.37 Q117.182 225.847 118.061 224.111 Q118.964 222.352 118.964 220.662 Q118.964 217.907 117.02 216.171 Q115.098 214.435 111.996 214.435 Q109.797 214.435 107.344 215.199 Q104.913 215.963 102.135 217.514 L102.135 212.792 Q104.959 211.657 107.413 211.079 Q109.867 210.5 111.904 210.5 Q117.274 210.5 120.469 213.185 Q123.663 215.87 123.663 220.361 Q123.663 222.491 122.853 224.412 Q122.066 226.31 119.959 228.903 Q119.381 229.574 116.279 232.792 Q113.177 235.986 107.529 241.75 Z" fill="#000000" fill-rule="evenodd" fill-opacity="1" /><path clip-path="url(#clip560)" d="M 0 0 M128.964 211.125 L147.32 211.125 L147.32 215.06 L133.246 215.06 L133.246 223.532 Q134.265 223.185 135.283 223.023 Q136.302 222.838 137.32 222.838 Q143.107 222.838 146.487 226.009 Q149.867 229.18 149.867 234.597 Q149.867 240.176 146.394 243.278 Q142.922 246.356 136.603 246.356 Q134.427 246.356 132.158 245.986 Q129.913 245.616 127.506 244.875 L127.506 240.176 Q129.589 241.31 131.811 241.866 Q134.033 242.421 136.51 242.421 Q140.515 242.421 142.853 240.315 Q145.191 238.208 145.191 234.597 Q145.191 230.986 142.853 228.879 Q140.515 226.773 136.51 226.773 Q134.635 226.773 132.76 227.19 Q130.908 227.606 128.964 228.486 L128.964 211.125 Z" fill="#000000" fill-rule="evenodd" fill-opacity="1" /><polyline clip-path="url(#clip562)" style="stroke:#009af9; stroke-width:4; stroke-opacity:1; fill:none" points="
  235.533,788.901 1263.31,1445.72 2291.09,1188.56 
  "/>
<polyline clip-path="url(#clip562)" style="stroke:#e26f46; stroke-width:4; stroke-opacity:1; fill:none" points="
  235.533,87.9763 1263.31,1401.6 2291.09,887.3 
  "/>
<path clip-path="url(#clip560)" d="
M1987.01 276.658 L2280.13 276.658 L2280.13 95.2176 L1987.01 95.2176  Z
  " fill="#ffffff" fill-rule="evenodd" fill-opacity="1"/>
<polyline clip-path="url(#clip560)" style="stroke:#000000; stroke-width:4; stroke-opacity:1; fill:none" points="
  1987.01,276.658 2280.13,276.658 2280.13,95.2176 1987.01,95.2176 1987.01,276.658 
  "/>
<polyline clip-path="url(#clip560)" style="stroke:#009af9; stroke-width:4; stroke-opacity:1; fill:none" points="
  2011.22,155.698 2156.48,155.698 
  "/>
<path clip-path="url(#clip560)" d="M 0 0 M2194.53 175.385 Q2192.73 180.015 2191.01 181.427 Q2189.3 182.839 2186.43 182.839 L2183.03 182.839 L2183.03 179.274 L2185.53 179.274 Q2187.29 179.274 2188.26 178.44 Q2189.23 177.607 2190.41 174.505 L2191.17 172.561 L2180.69 147.052 L2185.2 147.052 L2193.3 167.329 L2201.41 147.052 L2205.92 147.052 L2194.53 175.385 Z" fill="#000000" fill-rule="evenodd" fill-opacity="1" /><path clip-path="url(#clip560)" d="M 0 0 M2211.8 169.042 L2219.44 169.042 L2219.44 142.677 L2211.13 144.343 L2211.13 140.084 L2219.39 138.418 L2224.07 138.418 L2224.07 169.042 L2231.71 169.042 L2231.71 172.978 L2211.8 172.978 L2211.8 169.042 Z" fill="#000000" fill-rule="evenodd" fill-opacity="1" /><polyline clip-path="url(#clip560)" style="stroke:#e26f46; stroke-width:4; stroke-opacity:1; fill:none" points="
  2011.22,216.178 2156.48,216.178 
  "/>
<path clip-path="url(#clip560)" d="M 0 0 M2194.53 235.865 Q2192.73 240.495 2191.01 241.907 Q2189.3 243.319 2186.43 243.319 L2183.03 243.319 L2183.03 239.754 L2185.53 239.754 Q2187.29 239.754 2188.26 238.92 Q2189.23 238.087 2190.41 234.985 L2191.17 233.041 L2180.69 207.532 L2185.2 207.532 L2193.3 227.809 L2201.41 207.532 L2205.92 207.532 L2194.53 235.865 Z" fill="#000000" fill-rule="evenodd" fill-opacity="1" /><path clip-path="url(#clip560)" d="M 0 0 M2215.02 229.522 L2231.34 229.522 L2231.34 233.458 L2209.39 233.458 L2209.39 229.522 Q2212.05 226.768 2216.64 222.138 Q2221.24 217.485 2222.42 216.143 Q2224.67 213.62 2225.55 211.884 Q2226.45 210.124 2226.45 208.435 Q2226.45 205.68 2224.51 203.944 Q2222.59 202.208 2219.48 202.208 Q2217.29 202.208 2214.83 202.972 Q2212.4 203.735 2209.62 205.286 L2209.62 200.564 Q2212.45 199.43 2214.9 198.851 Q2217.35 198.273 2219.39 198.273 Q2224.76 198.273 2227.96 200.958 Q2231.15 203.643 2231.15 208.134 Q2231.15 210.263 2230.34 212.185 Q2229.55 214.083 2227.45 216.675 Q2226.87 217.347 2223.77 220.564 Q2220.66 223.759 2215.02 229.522 Z" fill="#000000" fill-rule="evenodd" fill-opacity="1" /></svg>
